<svg id="z11941" class="acjk" viewBox="0 0 1024 1024" xmlns="http://www.w3.org/2000/svg">
<style>

@keyframes zk {
	to {
		stroke-dashoffset:0;
	}
}
svg.acjk path[clip-path] {
	--t:0.8s;
	animation:zk var(--t) linear forwards var(--d);
	stroke-dasharray:3337;
	stroke-dashoffset:3339;
	stroke-width:128;
	stroke-linecap:round;
	fill:none;
	stroke:#000;
}
svg.acjk path[id] {fill:#ccc;}


    @keyframes guide-fade {
        0% { opacity: 0; }
        3% { opacity: 1; }
        95% { opacity: 1; }
        100% { opacity: 0; }
    }

    svg.acjk #guide-arrow {
        fill: #f77;
    }

    svg.acjk .guides {
        circle {
            fill: #0f6;
        }

        path {
            opacity: 0;
            animation: guide-fade var(--t) linear forwards var(--d);
            stroke-width: 16px;
            stroke-linecap: round;
            stroke: #f77;
            fill: none;
            marker-end: url(#guide-arrow);
        }

        circle,
        path {
            --t: 0.8s;
            opacity: 0;
            animation: guide-fade calc(var(--t) + 0.4s) ease-in-out forwards calc(var(--d) - 0.2s);
        }
    }
</style>
<path id="z11941d1" d="M397 415C413 412 430 406 457 402C480 398 480 398 491 396C523 390 591 371 643 369C663 367 679 362 653 343C637 331 623 319 607 313C599 310 585 310 575 319C557 335 524 354 387 392C379 394 389 417 397 415Z"/>
<path id="z11941d2" d="M387 392C367 383 339 381 324 385C317 387 316 395 320 401C335 427 343 465 329 518C314 574 265 623 210 657C174 679 186 684 218 671C300 637 359 577 380 508C389 478 391 428 397 415C400 407 395 395 387 392Z"/>
<path id="z11941d3" d="M457 402C469 413 471 460 469 542C469 572 464 614 459 670C457 685 458 697 468 713C480 733 496 734 504 711C507 698 511 677 511 667C506 557 509 477 513 454C516 437 516 437 517 429C519 412 527 411 491 396C480 392 450 393 457 402Z"/>
<path id="z11941d4" d="M513 454C528 463 544 482 594 541C617 568 640 595 689 640C702 652 728 656 756 657C829 659 861 658 867 656C873 655 880 651 865 644C857 640 812 620 757 600C685 573 693 567 560 453C550 444 536 431 517 429C509 427 506 449 513 454Z"/>
<defs>
	<clipPath id="z11941c1"><use href="#z11941d1"/></clipPath>
	<clipPath id="z11941c2"><use href="#z11941d2"/></clipPath>
	<clipPath id="z11941c3"><use href="#z11941d3"/></clipPath>
	<clipPath id="z11941c4"><use href="#z11941d4"/></clipPath>
<marker id="guide-arrow" viewBox="0 0 16 16" refX="5" refY="5" markerWidth="4" markerHeight="4" orient="auto-start-reverse"><path d="M 0 0 L 10 5 L 0 10 z" fill="inherit"/></marker></defs>
<path style="--d:1s;" pathLength="3333" clip-path="url(#z11941c1)" d="M599 313L612 347L391 399"/>
<path style="--d:2s;" pathLength="3333" clip-path="url(#z11941c2)" d="M325 391L365 421L343 541L295 607L195 672"/>
<path style="--d:3s;" pathLength="3333" clip-path="url(#z11941c3)" d="M466 400L493 428L481 723"/>
<path style="--d:4s;" pathLength="3333" clip-path="url(#z11941c4)" d="M519 437L707 614L864 652"/>
<g class="guides"><circle style="--d: 1s" class="g1" cx="606" cy="330" r="16"/><path style="--d: 1s;" class="g1" d="M606,426 L391,495"/><circle style="--d: 2s" class="g2" cx="325" cy="391" r="16"/><path style="--d: 2s;" class="g2" d="M229,391 Q249,410.7508896797153 243.5,450.2526690391459 Q238,489.7544483985765 226,511.48042704626334 Q214,533.2064056939502 189,554.6032028469751 Q189,554.6032028469751 164,576"/><circle style="--d: 3s" class="g3" cx="480" cy="414" r="16"/><path style="--d: 3s;" class="g3" d="M600,414 L601,723"/><circle style="--d: 4s" class="g4" cx="519" cy="437" r="16"/><path style="--d: 4s;" class="g4" d="M604.68,368.456 Q745.9906086956521,522.852688372093 760.7417826086955,526.9961023255813 Q849.2488260869566,551.8565860465117 864,556"/></g></svg>