<!--
  Stroke-order data for ⺫, derived from AnimCJK (https://github.com/parsimonhi/animCJK),
  itself derived from the Arphic PL KaitiM fonts. Distributed under the Arphic Public License
  (see ARPHICPL.TXT). Regenerated by scripts/build-strokes.ts — do not edit by hand.
-->
<svg id="z11947" class="acjk" viewBox="0 0 1024 1024" xmlns="http://www.w3.org/2000/svg">
<g class="glyph"><path id="z11947d1" d="M232 411C231 406 218 402 194 399C166 395 150 396 147 401C142 411 150 423 153 428C183 480 209 541 230 612C238 636 246 657 261 670C283 690 290 679 291 656C291 642 290 628 286 614C275 571 257 510 243 458C240 442 242 424 232 411Z"/><path id="z11947d2" d="M698 608C703 621 708 633 719 633C737 632 764 601 793 542C813 501 834 467 866 445C883 433 886 421 873 406C860 391 839 376 799 351C773 335 756 340 709 348C630 359 349 401 232 411C216 411 227 461 243 458C268 452 306 443 356 434C375 431 375 431 385 429C428 422 479 414 541 406C568 403 568 403 581 401C637 395 679 387 709 388C748 388 764 403 754 435C732 512 715 557 707 570C700 581 693 596 698 608Z"/><path id="z11947d3" d="M430 597C435 580 426 535 422 522C414 499 406 476 399 454C396 444 393 436 385 429C378 422 354 424 356 434C357 439 360 447 361 458C370 530 382 578 399 601C404 610 428 607 430 597Z"/><path id="z11947d4" d="M570 573C620 435 634 448 581 401C571 391 539 393 541 406C546 431 539 491 519 583C516 600 564 589 570 573Z"/><path id="z11947d5" d="M291 656C312 658 464 631 698 608C711 606 717 578 707 570C680 545 651 557 570 573C536 580 536 580 519 583C495 587 451 593 430 597C409 600 409 600 399 601C371 605 333 608 286 614C272 617 277 656 291 656Z"/></g>
<defs><clipPath id="z11947c1"><use href="#z11947d1"/></clipPath>
	<clipPath id="z11947c2"><use href="#z11947d2"/></clipPath>
	<clipPath id="z11947c3"><use href="#z11947d3"/></clipPath>
	<clipPath id="z11947c4"><use href="#z11947d4"/></clipPath>
	<clipPath id="z11947c5"><use href="#z11947d5"/></clipPath><marker id="guide-arrow" viewBox="0 0 16 16" refX="5" refY="5" markerWidth="4" markerHeight="4" orient="auto-start-reverse"><path d="M 0 0 L 10 5 L 0 10 z" fill="inherit"/></marker></defs>
<g class="strokes"><path pathLength="3333" clip-path="url(#z11947c1)" d="M152 407L205 442L275 674"/><path pathLength="3333" clip-path="url(#z11947c2)" d="M228 422L768 372L827 425L708 623"/><path pathLength="3333" clip-path="url(#z11947c3)" d="M369 427L413 603"/><path pathLength="3333" clip-path="url(#z11947c4)" d="M549 405L577 454L527 586"/><path pathLength="3333" clip-path="url(#z11947c5)" d="M282 627L708 589"/></g>
<g class="guides"><text class="g1" style="--gs:1" x="152" y="407">①</text><path class="g1 aligned" style="--gs:1" d="M152,407 Q205,442 213.75,471 Q266.25,645 275,674"/><path class="g1 offset" style="--gs:1" d="M237.68,338.46 Q290.68,373.46 299.43,402.46 Q351.93,576.46 360.68,605.46"/><text class="g2" style="--gs:2" x="228" y="422">②</text><path class="g2 aligned" style="--gs:2" d="M228,422 Q768,372 782.75,385.25 Q827,425 797.25,474.5 Q737.75,573.5 708,623"/><path class="g2 offset" style="--gs:2" d="M228,518 Q617.45,468 628.09,481.25 Q660,521 638.54,570.5 Q595.63,669.5 574.18,719"/><text class="g3" style="--gs:3" x="369" y="427">③</text><path class="g3 aligned" style="--gs:3" d="M369,427 L413,603"/><path class="g3 offset" style="--gs:3" d="M489,427 L533,603"/><text class="g4" style="--gs:4" x="549" y="405">④</text><path class="g4 aligned" style="--gs:4" d="M549,405 Q577,454 570.75,470.5 Q533.25,569.5 527,586"/><path class="g4 offset" style="--gs:4" d="M453,405 Q481,454 474.75,470.5 Q437.25,569.5 431,586"/><text class="g5" style="--gs:5" x="282" y="627">⑤</text><path class="g5 aligned" style="--gs:5" d="M282,627 L708,589"/><path class="g5 offset" style="--gs:5" d="M282,723 L708,685"/></g>
</svg>
