<!--
  Stroke-order data for ㇄, derived from AnimCJK (https://github.com/parsimonhi/animCJK),
  itself derived from the Arphic PL KaitiM fonts. Distributed under the Arphic Public License
  (see ARPHICPL.TXT). Regenerated by scripts/build-strokes.ts — do not edit by hand.
-->
<svg id="z12740" class="acjk" viewBox="0 0 1024 1024" xmlns="http://www.w3.org/2000/svg">
<g class="glyph"><path id="z12740d1" d="M472 833C405 830 333 811 319 745C311 710 313 519 310 383C308 317 303 271 275 235C245 196 312 193 361 222C381 233 394 255 390 276C384 300 379 315 376 357C369 432 368 688 373 720C379 768 429 773 466 776C553 781 644 758 713 737C739 728 788 751 801 765C809 775 809 791 798 798C785 806 747 814 713 820C647 829 545 835 472 833Z"/></g>
<defs><clipPath id="z12740c1"><use href="#z12740d1"/></clipPath><marker id="guide-arrow" viewBox="0 0 16 16" refX="5" refY="5" markerWidth="4" markerHeight="4" orient="auto-start-reverse"><path d="M 0 0 L 10 5 L 0 10 z" fill="inherit"/></marker></defs>
<g class="strokes"><path pathLength="3333" clip-path="url(#z12740c1)" d="M274 218L322 240L346 285L341 655L359 763L414 797L485 805L801 769"/></g>
<g class="guides"><text class="g1" style="--gs:1" x="274" y="218">①</text><path class="g1 aligned" style="--gs:1" d="M274,218 Q322,240 334,262.5 Q346,285 343.5,470 Q341,655 350,709 Q359,763 386.5,780 Q414,797 449.5,801 Q485,805 643,787 Q643,787 801,769"/><path class="g1 offset" style="--gs:1" d="M351.11,149.46 Q392.09,171.46 402.33,193.96 Q412.58,216.46 410.44,401.46 Q408.31,586.46 415.99,640.46 Q423.67,694.46 447.15,711.46 Q470.63,728.46 500.93,732.46 Q531.24,736.46 666.12,718.46 Q666.12,718.46 801,700.46"/></g>
</svg>
