<svg id="z12758" class="acjk" viewBox="0 0 1024 1024" xmlns="http://www.w3.org/2000/svg">
<style>

@keyframes zk {
	to {
		stroke-dashoffset:0;
	}
}
svg.acjk path[clip-path] {
	--t:0.8s;
	animation:zk var(--t) linear forwards var(--d);
	stroke-dasharray:3337;
	stroke-dashoffset:3339;
	stroke-width:128;
	stroke-linecap:round;
	fill:none;
	stroke:#000;
}
svg.acjk path[id] {fill:#ccc;}


    @keyframes guide-fade {
        0% { opacity: 0; }
        3% { opacity: 1; }
        95% { opacity: 1; }
        100% { opacity: 0; }
    }

    svg.acjk #guide-arrow {
        fill: #f77;
    }

    svg.acjk .guides {
        circle {
            fill: #0f6;
        }

        path {
            opacity: 0;
            animation: guide-fade var(--t) linear forwards var(--d);
            stroke-width: 16px;
            stroke-linecap: round;
            stroke: #f77;
            fill: none;
            marker-end: url(#guide-arrow);
        }

        circle,
        path {
            --t: 0.8s;
            opacity: 0;
            animation: guide-fade calc(var(--t) + 0.4s) ease-in-out forwards calc(var(--d) - 0.2s);
        }
    }
</style>
<path id="z12758d1" d="M188 508C174 505 161 507 159 518C154 539 184 561 196 569C215 583 231 590 239 590C245 590 257 586 272 576C307 551 554 502 700 472C736 464 737 479 729 504C724 522 718 536 697 580C675 623 689 617 719 592C779 540 812 516 843 498C860 487 871 483 869 472C867 461 839 442 785 417C759 404 740 412 700 424C585 456 269 521 188 508Z"/>
<defs>
	<clipPath id="z12758c1"><use href="#z12758d1"/></clipPath>
<marker id="guide-arrow" viewBox="0 0 16 16" refX="5" refY="5" markerWidth="4" markerHeight="4" orient="auto-start-reverse"><path d="M 0 0 L 10 5 L 0 10 z" fill="inherit"/></marker></defs>
<path style="--d:1s;" pathLength="3333" clip-path="url(#z12758c1)" d="M165 516L236 549L736 441L812 489L694 603"/>
<g class="guides"><circle style="--d: 1s" class="g1" cx="165" cy="516" r="16"/><path style="--d: 1s;" class="g1" d="M165,612 Q217.7836166924266,645 403.64142194744977,591 Q589.499227202473,537 617.7496136012364,561 Q646,585 602.1375579598146,642 Q602.1375579598146,642 558.2751159196291,699"/></g></svg>