<!--
  Stroke-order data for ㇞, derived from AnimCJK (https://github.com/parsimonhi/animCJK),
  itself derived from the Arphic PL KaitiM fonts. Distributed under the Arphic Public License
  (see ARPHICPL.TXT). Regenerated by scripts/build-strokes.ts — do not edit by hand.
-->
<svg id="z12766" class="acjk" viewBox="0 0 1024 1024" xmlns="http://www.w3.org/2000/svg">
<g class="glyph"><path id="z12766d1" d="M338 169C327 163 311 155 300 154C288 152 273 155 264 163C259 167 261 177 271 188C287 208 298 234 302 274C306 314 312 458 292 499C287 509 292 520 301 532C311 544 324 556 333 551C371 521 515 485 590 468C669 449 677 450 684 530C686 568 686 667 685 709C683 737 679 768 674 802C670 825 678 838 688 850C711 879 720 878 739 850C749 835 756 816 755 802C752 763 749 733 749 709C748 679 749 558 752 530C755 485 758 473 767 460C773 450 776 444 771 437C761 426 733 400 701 388C671 377 663 399 590 423C519 445 428 465 374 472C364 472 358 470 358 459C356 445 362 254 365 203C365 191 354 179 338 169Z"/></g>
<defs><clipPath id="z12766c1"><use href="#z12766d1"/></clipPath><marker id="guide-arrow" viewBox="0 0 16 16" refX="5" refY="5" markerWidth="4" markerHeight="4" orient="auto-start-reverse"><path d="M 0 0 L 10 5 L 0 10 z" fill="inherit"/></marker></defs>
<g class="strokes"><path pathLength="3333" clip-path="url(#z12766c1)" d="M269 169L328 213L339 508L656 425L722 456L711 866"/></g>
<g class="guides"><text class="g1" style="--gs:1" x="269" y="169">①</text><path class="g1 aligned" style="--gs:1" d="M269,169 Q328,213 333.5,360.5 Q339,508 497.5,466.5 Q656,425 689,440.5 Q722,456 716.5,661 Q716.5,661 711,866"/><path class="g1 offset" style="--gs:1" d="M173,169 Q232,213 237.5,360.5 Q243,508 401.5,466.5 Q560,425 593,440.5 Q626,456 620.5,661 Q620.5,661 615,866"/></g>
</svg>
