<svg id="z12770" class="acjk" viewBox="0 0 1024 1024" xmlns="http://www.w3.org/2000/svg">
<style>

@keyframes zk {
	to {
		stroke-dashoffset:0;
	}
}
svg.acjk path[clip-path] {
	--t:0.8s;
	animation:zk var(--t) linear forwards var(--d);
	stroke-dasharray:3337;
	stroke-dashoffset:3339;
	stroke-width:128;
	stroke-linecap:round;
	fill:none;
	stroke:#000;
}
svg.acjk path[id] {fill:#ccc;}


    @keyframes guide-fade {
        0% { opacity: 0; }
        3% { opacity: 1; }
        95% { opacity: 1; }
        100% { opacity: 0; }
    }

    svg.acjk #guide-arrow {
        fill: #f77;
    }

    svg.acjk .guides {
        circle {
            fill: #0f6;
        }

        path {
            opacity: 0;
            animation: guide-fade var(--t) linear forwards var(--d);
            stroke-width: 16px;
            stroke-linecap: round;
            stroke: #f77;
            fill: none;
            marker-end: url(#guide-arrow);
        }

        circle,
        path {
            --t: 0.8s;
            opacity: 0;
            animation: guide-fade calc(var(--t) + 0.4s) ease-in-out forwards calc(var(--d) - 0.2s);
        }
    }
</style>
<path id="z12770d1" d="M221 863C208 852 210 835 217 811C226 780 228 728 228 675C228 645 235 646 245 675C281 790 298 794 360 760C466 699 534 628 600 512C658 407 715 268 698 198C693 178 693 161 743 154C771 150 797 148 821 152C843 155 848 170 843 179C818 212 799 239 782 273C748 341 704 449 673 512C601 657 499 772 360 840C323 857 255 892 221 863Z"/>
<defs>
	<clipPath id="z12770c1"><use href="#z12770d1"/></clipPath>
<marker id="guide-arrow" viewBox="0 0 16 16" refX="5" refY="5" markerWidth="4" markerHeight="4" orient="auto-start-reverse"><path d="M 0 0 L 10 5 L 0 10 z" fill="inherit"/></marker></defs>
<path style="--d:1s;" pathLength="3333" clip-path="url(#z12770c1)" d="M700 176L794 198L630 525L516 683L390 783L287 824L250 813L235 664"/>
<g class="guides"><circle style="--d: 1s" class="g1" cx="700" cy="176" r="16"/><path style="--d: 1s;" class="g1" d="M700,272 Q773.8211091234347,287.4814814814815 709.4239713774598,402.53703703703707 Q645.0268336314848,517.5925925925926 600.262969588551,573.1851851851852 Q555.4991055456172,628.7777777777778 506.0232558139535,663.962962962963 Q456.5474060822898,699.1481481481482 416.102862254025,713.5740740740741 Q375.6583184257603,728 361.1296958855098,724.1296296296296 Q346.6010733452594,720.2592592592592 340.71109123434707,667.8333333333333 Q340.71109123434707,667.8333333333333 334.8211091234347,615.4074074074074"/></g></svg>