<!--
  Stroke-order data for 㐭, derived from AnimCJK (https://github.com/parsimonhi/animCJK),
  itself derived from the Arphic PL KaitiM fonts. Distributed under the Arphic Public License
  (see ARPHICPL.TXT). Regenerated by scripts/build-strokes.ts — do not edit by hand.
-->
<svg id="z13357" class="acjk" viewBox="0 0 1024 1024" xmlns="http://www.w3.org/2000/svg">
<g class="glyph"><path style="--part:1" id="z13357d1" d="M462 166C481 183 501 203 521 224C531 235 543 241 555 241C564 241 571 236 576 224C580 213 578 195 572 171C568 155 556 140 532 130C479 107 444 99 432 104C427 106 425 115 426 125C428 134 441 146 462 166Z"/><path style="--part:1" id="z13357d2" d="M110 346C94 348 91 355 104 369C114 381 127 390 142 394C159 400 175 399 188 396C369 352 591 332 854 338C877 339 899 340 919 340C935 340 945 336 950 329C955 321 952 309 937 297C892 263 855 252 827 258C705 282 466 311 110 346Z"/><path style="--part:2" id="z13357d3" d="M255 493C245 487 225 486 197 479C156 469 168 488 180 510C210 566 233 703 248 797C252 825 261 859 278 877C301 901 303 900 310 868C313 856 312 842 310 829C298 743 284 634 270 538C267 522 270 499 255 493Z"/><path style="--part:2" id="z13357d4" d="M684 838C690 869 701 893 712 900C721 905 733 901 745 883C760 863 780 704 811 589C818 562 833 539 853 519C863 508 866 497 857 486C844 470 819 450 784 428C768 419 753 418 739 422C705 431 664 438 617 444C489 459 376 476 255 493C239 496 254 541 270 538C408 503 549 489 663 477C704 472 756 486 747 530C722 648 702 784 689 798C682 810 681 825 684 838Z"/><path style="--part:2" id="z13357d5" d="M398 590C392 587 383 584 369 582C361 580 357 580 355 584C352 587 352 593 356 603C369 627 380 679 388 720C389 731 394 741 402 749C412 762 419 764 423 754C423 749 424 743 425 735C424 717 424 717 423 708C419 672 417 629 416 618C416 607 408 594 398 590Z"/><path style="--part:2" id="z13357d6" d="M590 685C601 656 611 618 622 609C637 593 637 580 622 570C609 562 594 553 576 541C563 534 551 534 539 541C510 559 463 575 398 590C387 592 405 620 416 618C432 613 464 605 514 595C531 592 541 593 546 600C550 603 550 611 546 624C544 635 541 667 539 680C536 697 584 701 590 685Z"/><path style="--part:2" id="z13357d7" d="M425 735C426 736 431 736 439 735C499 727 551 722 595 718C611 716 617 710 611 701C606 695 599 690 590 685C575 676 556 680 539 680C528 680 516 682 504 685C475 693 448 701 423 708C414 710 416 733 425 735Z"/><path style="--part:2" id="z13357d8" d="M310 868C335 868 482 843 684 838C697 838 701 803 689 798C596 759 652 792 310 829C297 832 297 868 310 868Z"/></g>
<defs><clipPath id="z13357c1"><use href="#z13357d1"/></clipPath>
	<clipPath id="z13357c2"><use href="#z13357d2"/></clipPath>
	<clipPath id="z13357c3"><use href="#z13357d3"/></clipPath>
	<clipPath id="z13357c4"><use href="#z13357d4"/></clipPath>
	<clipPath id="z13357c5"><use href="#z13357d5"/></clipPath>
	<clipPath id="z13357c6"><use href="#z13357d6"/></clipPath>
	<clipPath id="z13357c7"><use href="#z13357d7"/></clipPath>
	<clipPath id="z13357c8"><use href="#z13357d8"/></clipPath><marker id="guide-arrow" viewBox="0 0 16 16" refX="5" refY="5" markerWidth="4" markerHeight="4" orient="auto-start-reverse"><path d="M 0 0 L 10 5 L 0 10 z" fill="inherit"/></marker></defs>
<g class="strokes"><path style="--part:1" pathLength="3333" clip-path="url(#z13357c1)" d="M434 114L513 161L569 231"/><path style="--part:1" pathLength="3333" clip-path="url(#z13357c2)" d="M105 356L172 369L813 298L948 315"/><path style="--part:2" pathLength="3333" clip-path="url(#z13357c3)" d="M177 486L230 527L291 888"/><path style="--part:2" pathLength="3333" clip-path="url(#z13357c4)" d="M252 501L291 511L710 452L772 469L807 511L769 602L721 898"/><path style="--part:2" pathLength="3333" clip-path="url(#z13357c5)" d="M361 585L391 621L412 753"/><path style="--part:2" pathLength="3333" clip-path="url(#z13357c6)" d="M402 596L566 573L591 595L559 693"/><path style="--part:2" pathLength="3333" clip-path="url(#z13357c7)" d="M420 720L605 706"/><path style="--part:2" pathLength="3333" clip-path="url(#z13357c8)" d="M306 857L693 815"/></g>
<g class="guides"><text class="g1" style="--gs:1" x="434" y="114">①</text><path class="g1 aligned" style="--gs:1" d="M434,114 Q513,161 520,169.75 Q562,222.25 569,231"/><path class="g1 offset" style="--gs:1" d="M519.68,45.46 Q598.68,92.46 605.68,101.21 Q647.68,153.71 654.68,162.46"/><text class="g2" style="--gs:2" x="105" y="356">②</text><path class="g2 aligned" style="--gs:2" d="M105,356 Q172,369 332.25,351.25 Q813,298 846.75,302.25 Q914.25,310.75 948,315"/><path class="g2 offset" style="--gs:2" d="M105,452 Q172,465 332.25,447.25 Q813,394 846.75,398.25 Q914.25,406.75 948,411"/><text class="g3" style="--gs:3" x="177" y="486">③</text><path class="g3 aligned" style="--gs:3" d="M177,486 Q230,527 237.63,572.13 Q283.38,842.88 291,888"/><path class="g3 offset" style="--gs:3" d="M262.68,417.46 Q315.68,458.46 323.31,503.58 Q369.06,774.33 376.68,819.46"/><text class="g4" style="--gs:4" x="252" y="501">④</text><path class="g4 aligned" style="--gs:4" d="M272,506 Q710,452 741,460.5 Q772,469 789.5,490 Q807,511 788,556.5 Q769,602 745,750 Q745,750 721,898"/><path class="g4 offset" style="--gs:4" d="M272,602 Q611.76,548 635.8,556.5 Q659.85,565 673.43,579.65 Q687,594.3 672.26,630.01 Q657.52,665.71 638.91,781.86 Q638.91,781.86 620.29,898"/><text class="g5" style="--gs:5" x="361" y="585">⑤</text><path class="g5 aligned" style="--gs:5" d="M361,585 Q391,621 393.63,637.5 Q409.38,736.5 412,753"/><path class="g5 offset" style="--gs:5" d="M446.68,516.46 Q476.68,552.46 479.31,568.96 Q495.06,667.96 497.68,684.46"/><text class="g6" style="--gs:6" x="402" y="596">⑥</text><path class="g6 aligned" style="--gs:6" d="M402,596 Q566,573 572.25,578.5 Q591,595 583,619.5 Q567,668.5 559,693"/><path class="g6 offset" style="--gs:6" d="M402,692 Q484,669 487.13,674.5 Q496.5,691 492.5,700.5 Q484.5,719.5 480.5,729"/><text class="g7" style="--gs:7" x="420" y="720">⑦</text><path class="g7 aligned" style="--gs:7" d="M420,720 L605,706"/><path class="g7 offset" style="--gs:7" d="M420,816 L605,802"/><text class="g8" style="--gs:8" x="306" y="857">⑧</text><path class="g8 aligned" style="--gs:8" d="M306,857 L693,815"/><path class="g8 offset" style="--gs:8" d="M306,953 L693,911"/></g>
<g class="parts"><rect data-part="2" data-literal="回" role="button" tabindex="0" aria-label="Part 回" x="105" y="380" width="774" height="590"/><rect data-part="1" data-literal="亠" data-radical="true" role="button" tabindex="0" aria-label="Part 亠 (radical)" x="33" y="42" width="987" height="399"/></g>
</svg>
