<!--
  Stroke-order data for 㝵, derived from AnimCJK (https://github.com/parsimonhi/animCJK),
  itself derived from the Arphic PL KaitiM fonts. Distributed under the Arphic Public License
  (see ARPHICPL.TXT). Regenerated by scripts/build-strokes.ts — do not edit by hand.
-->
<svg id="z14197" class="acjk" viewBox="0 0 1024 1024" xmlns="http://www.w3.org/2000/svg">
<g class="glyph"><path style="--part:1" id="z14197d1" d="M325 149C316 145 302 142 279 141C270 140 264 140 260 143C257 147 258 154 263 163C288 204 307 258 322 326C324 346 331 363 346 377C360 389 369 390 373 381C375 376 377 370 378 362C378 349 378 349 378 342C377 333 375 324 373 314C369 298 366 284 362 270C359 253 359 253 357 245C351 215 346 193 343 179C341 168 336 153 325 149Z"/><path style="--part:1" id="z14197d2" d="M595 332C602 345 613 355 625 360C634 364 641 360 653 347C665 332 677 282 701 199C706 180 719 162 738 147C748 138 750 130 741 122C728 112 704 99 669 86C658 82 628 88 565 100C557 101 463 119 325 149C313 151 332 183 343 179C419 151 526 140 589 128C612 124 649 130 644 157C625 248 617 279 599 305C594 313 590 325 595 332Z"/><path style="--part:1" id="z14197d3" d="M362 270C365 268 448 253 571 234C589 230 595 225 588 218C579 210 565 205 545 204C526 202 450 219 357 245C349 248 354 272 362 270Z"/><path style="--part:1" id="z14197d4" d="M599 305C574 283 530 311 378 342C371 343 371 363 378 362C523 342 523 342 595 332C604 330 606 310 599 305Z"/><path style="--part:1" id="z14197d5" d="M317 442C285 447 287 457 311 466C346 481 381 478 430 467C491 453 574 442 637 428C666 422 683 416 688 413C694 408 696 402 692 396C686 389 670 384 645 381C626 379 564 395 460 416C404 427 357 436 317 442Z"/><path style="--part:2" id="z14197d6" d="M604 566C637 562 764 546 887 542C904 541 914 536 917 530C921 522 916 513 903 506C877 494 852 488 827 486C774 483 726 496 620 517C563 529 563 529 535 535C414 559 236 584 130 600C113 603 111 609 123 618C135 627 149 634 165 636C181 638 196 637 210 633C318 605 459 585 541 574C583 569 583 569 604 566Z"/><path style="--part:2" id="z14197d7" d="M497 836C464 830 432 824 401 818C378 814 383 827 400 838C464 881 506 916 529 941C541 954 547 953 560 943C593 920 613 885 611 837C609 791 602 710 602 591C602 581 602 573 604 566C615 533 615 533 620 517C623 509 617 501 607 495C585 481 568 472 542 466C504 459 494 470 513 490C524 503 533 518 535 535C539 561 539 561 541 574C554 676 545 753 539 808C537 832 517 840 497 836Z"/><path style="--part:2" id="z14197d8" d="M283 698C300 710 317 723 333 738C342 745 353 748 367 748C375 748 381 745 385 737C389 729 389 716 384 699C379 682 344 668 282 656C270 654 261 653 256 655C252 657 250 663 251 670C252 677 265 686 283 698Z"/></g>
<defs><clipPath id="z14197c1"><use href="#z14197d1"/></clipPath>
	<clipPath id="z14197c2"><use href="#z14197d2"/></clipPath>
	<clipPath id="z14197c3"><use href="#z14197d3"/></clipPath>
	<clipPath id="z14197c4"><use href="#z14197d4"/></clipPath>
	<clipPath id="z14197c5"><use href="#z14197d5"/></clipPath>
	<clipPath id="z14197c6"><use href="#z14197d6"/></clipPath>
	<clipPath id="z14197c7"><use href="#z14197d7"/></clipPath>
	<clipPath id="z14197c8"><use href="#z14197d8"/></clipPath><marker id="guide-arrow" viewBox="0 0 16 16" refX="5" refY="5" markerWidth="4" markerHeight="4" orient="auto-start-reverse"><path d="M 0 0 L 10 5 L 0 10 z" fill="inherit"/></marker></defs>
<g class="strokes"><path style="--part:1" pathLength="3333" clip-path="url(#z14197c1)" d="M265 147L311 184L365 381"/><path style="--part:1" pathLength="3333" clip-path="url(#z14197c2)" d="M329 155L606 109L665 117L694 149L621 356"/><path style="--part:1" pathLength="3333" clip-path="url(#z14197c3)" d="M359 257L585 224"/><path style="--part:1" pathLength="3333" clip-path="url(#z14197c4)" d="M382 352L600 319"/><path style="--part:1" pathLength="3333" clip-path="url(#z14197c5)" d="M302 453L689 404"/><path style="--part:2" pathLength="3333" clip-path="url(#z14197c6)" d="M121 607L179 615L754 520L911 521"/><path style="--part:2" pathLength="3333" clip-path="url(#z14197c7)" d="M511 472L578 529L568 855L531 898L395 822"/><path style="--part:2" pathLength="3333" clip-path="url(#z14197c8)" d="M256 662L383 731"/></g>
<g class="guides"><text class="g1" style="--gs:1" x="265" y="147">①</text><path class="g1 aligned" style="--gs:1" d="M265,147 Q311,184 317.75,208.63 Q358.25,356.38 365,381"/><path class="g1 offset" style="--gs:1" d="M350.68,78.46 Q396.68,115.46 403.43,140.08 Q443.93,287.83 450.68,312.46"/><text class="g2" style="--gs:2" x="329" y="155">②</text><path class="g2 aligned" style="--gs:2" d="M329,155 Q606,109 635.5,113 Q665,117 679.5,133 Q694,149 657.5,252.5 Q657.5,252.5 621,356"/><path class="g2 offset" style="--gs:2" d="M329,251 Q514.93,205 534.73,209 Q554.53,213 564.27,229 Q574,245 549.5,300.5 Q549.5,300.5 525,356"/><text class="g3" style="--gs:3" x="359" y="257">③</text><path class="g3 aligned" style="--gs:3" d="M359,257 L585,224"/><path class="g3 offset" style="--gs:3" d="M359,353 L585,320"/><text class="g4" style="--gs:4" x="382" y="352">④</text><path class="g4 aligned" style="--gs:4" d="M382,352 L600,319"/><path class="g4 offset" style="--gs:4" d="M382,448 L600,415"/><text class="g5" style="--gs:5" x="302" y="453">⑤</text><path class="g5 aligned" style="--gs:5" d="M302,453 L689,404"/><path class="g5 offset" style="--gs:5" d="M302,549 L689,500"/><text class="g6" style="--gs:6" x="121" y="607">⑥</text><path class="g6 aligned" style="--gs:6" d="M121,607 Q179,615 322.75,591.25 Q754,520 793.25,520.25 Q871.75,520.75 911,521"/><path class="g6 offset" style="--gs:6" d="M121,703 Q179,711 322.75,687.25 Q754,616 793.25,616.25 Q871.75,616.75 911,617"/><text class="g7" style="--gs:7" x="511" y="472">⑦</text><path class="g7 aligned" style="--gs:7" d="M511,472 Q578,529 573,692 Q568,855 549.5,876.5 Q531,898 463,860 Q463,860 395,822"/><path class="g7 offset" style="--gs:7" d="M415,472 Q448.5,516.15 446,642.42 Q443.5,768.69 434.25,785.35 Q425,802 391,772.56 Q391,772.56 357,743.13"/><text class="g8" style="--gs:8" x="256" y="662">⑧</text><path class="g8 aligned" style="--gs:8" d="M256,662 L383,731"/><path class="g8 offset" style="--gs:8" d="M256,758 L383,827"/></g>
<g class="parts"><rect data-part="2" data-literal="寸" data-radical="true" role="button" tabindex="0" aria-label="Part 寸 (radical)" x="49" y="400" width="934" height="570"/><rect data-part="1" data-literal="旦" role="button" tabindex="0" aria-label="Part 旦" x="193" y="37" width="573" height="488"/></g>
</svg>
