<svg id="z17821" class="acjk" viewBox="0 0 1024 1024" xmlns="http://www.w3.org/2000/svg">
<style>

@keyframes zk {
	to {
		stroke-dashoffset:0;
	}
}
svg.acjk path[clip-path] {
	--t:0.8s;
	animation:zk var(--t) linear forwards var(--d);
	stroke-dasharray:3337;
	stroke-dashoffset:3339;
	stroke-width:128;
	stroke-linecap:round;
	fill:none;
	stroke:#000;
}
svg.acjk path[id] {fill:#ccc;}


    @keyframes guide-fade {
        0% { opacity: 0; }
        3% { opacity: 1; }
        95% { opacity: 1; }
        100% { opacity: 0; }
    }

    svg.acjk #guide-arrow {
        fill: #f77;
    }

    svg.acjk .guides {
        circle {
            fill: #0f6;
        }

        path {
            opacity: 0;
            animation: guide-fade var(--t) linear forwards var(--d);
            stroke-width: 16px;
            stroke-linecap: round;
            stroke: #f77;
            fill: none;
            marker-end: url(#guide-arrow);
        }

        circle,
        path {
            --t: 0.8s;
            opacity: 0;
            animation: guide-fade calc(var(--t) + 0.4s) ease-in-out forwards calc(var(--d) - 0.2s);
        }
    }
</style>
<path id="z17821d1" d="M487 214C542 200 630 176 648 173C662 169 667 155 663 144C656 130 643 114 630 102C616 89 604 79 597 80C572 80 583 91 556 120C534 144 379 201 313 229C257 253 271 267 322 255C362 246 392 237 430 228C468 219 468 219 487 214Z"/>
<path id="z17821d2" d="M291 408C282 404 264 401 241 398C214 394 219 414 227 427C251 468 273 516 290 590C294 610 302 629 317 644C341 669 347 649 347 624C346 610 345 598 342 587C331 549 320 512 309 445C306 432 304 413 291 408Z"/>
<path id="z17821d3" d="M721 544C743 480 767 449 791 429C805 416 808 398 795 387C746 341 703 328 672 338C621 353 575 370 530 378C491 385 491 385 472 388C413 398 344 405 291 408C277 408 295 445 309 445C330 444 352 438 473 419C511 413 511 413 530 410C562 404 594 398 627 393C662 386 691 400 687 433C681 473 672 501 663 535C659 554 714 562 721 544Z"/>
<path id="z17821d4" d="M526 601C584 594 653 586 733 582C741 581 745 577 747 571C747 566 738 557 721 544C706 532 682 531 663 535C635 541 591 552 527 562C492 567 492 567 474 570C427 577 384 582 342 587C330 589 335 624 347 624C351 624 357 625 365 624C395 618 430 611 474 607C509 603 509 603 526 601Z"/>
<path id="z17821d5" d="M521 770C523 709 524 659 526 601C527 575 527 575 527 562C527 529 530 440 530 410C530 389 530 389 530 378C530 242 578 265 487 214C470 204 416 214 430 228C472 277 469 322 472 388C473 409 473 409 473 419C474 469 474 514 474 570C474 595 474 595 474 607C474 665 472 716 470 780C470 797 521 787 521 770Z"/>
<path id="z17821d6" d="M680 738C628 748 575 759 521 770C487 777 487 777 470 780C403 793 329 804 263 814C240 817 213 816 180 813C154 810 153 839 165 852C179 868 201 885 228 904C235 908 245 906 256 901C301 876 391 849 523 816C613 792 679 776 698 766C708 762 691 736 680 738Z"/>
<path id="z17821d7" d="M698 766C720 801 742 843 773 887C804 932 821 936 832 892C840 864 832 830 819 809C795 771 742 723 661 665C653 660 650 661 647 670C643 681 656 702 680 738C692 757 692 757 698 766Z"/>
<defs>
	<clipPath id="z17821c1"><use href="#z17821d1"/></clipPath>
	<clipPath id="z17821c2"><use href="#z17821d2"/></clipPath>
	<clipPath id="z17821c3"><use href="#z17821d3"/></clipPath>
	<clipPath id="z17821c4"><use href="#z17821d4"/></clipPath>
	<clipPath id="z17821c5"><use href="#z17821d5"/></clipPath>
	<clipPath id="z17821c6"><use href="#z17821d6"/></clipPath>
	<clipPath id="z17821c7"><use href="#z17821d7"/></clipPath>
<marker id="guide-arrow" viewBox="0 0 16 16" refX="5" refY="5" markerWidth="4" markerHeight="4" orient="auto-start-reverse"><path d="M 0 0 L 10 5 L 0 10 z" fill="inherit"/></marker></defs>
<path style="--d:1s;" pathLength="3333" clip-path="url(#z17821c1)" d="M592 83L605 147L285 250"/>
<path style="--d:2s;" pathLength="3333" clip-path="url(#z17821c2)" d="M228 405L274 440L330 650"/>
<path style="--d:3s;" pathLength="3333" clip-path="url(#z17821c3)" d="M293 415L692 369L749 418L680 550"/>
<path style="--d:4s;" pathLength="3333" clip-path="url(#z17821c4)" d="M338 599L738 565"/>
<path style="--d:5s;" pathLength="3333" clip-path="url(#z17821c5)" d="M437 224L474 239L503 285L485 786"/>
<path style="--d:6s;" pathLength="3333" clip-path="url(#z17821c6)" d="M162 823L245 860L696 754"/>
<path style="--d:7s;" pathLength="3333" clip-path="url(#z17821c7)" d="M653 670L786 833L809 918"/>
<g class="guides"><circle style="--d: 1s" class="g1" cx="592" cy="83" r="16"/><path style="--d: 1s;" class="g1" d="M496,83 Q504.125,115 479.125,121.4375 Q329.125,160.0625 304.125,166.5"/><circle style="--d: 2s" class="g2" cx="228" cy="405" r="16"/><path style="--d: 2s;" class="g2" d="M313.68,336.456 Q359.68,371.456 366.68,397.706 Q408.68,555.206 415.68,581.456"/><circle style="--d: 3s" class="g3" cx="293" cy="415" r="16"/><path style="--d: 3s;" class="g3" d="M293,511 Q587,465 597.5,471.125 Q629,489.5 616.2894736842105,506 Q590.8684210526316,539 578.1578947368421,555.5"/><circle style="--d: 4s" class="g4" cx="338" cy="599" r="16"/><path style="--d: 4s;" class="g4" d="M338,695 L738,661"/><circle style="--d: 5s" class="g5" cx="456" cy="232" r="16"/><path style="--d: 5s;" class="g5" d="M360,232 Q407,285 404.75,347.625 Q391.25,723.375 389,786"/><circle style="--d: 6s" class="g6" cx="162" cy="823" r="16"/><path style="--d: 6s;" class="g6" d="M162,919 Q245,956 301.375,942.75 Q639.625,863.25 696,850"/><circle style="--d: 7s" class="g7" cx="653" cy="670" r="16"/><path style="--d: 7s;" class="g7" d="M738.68,601.456 Q871.68,764.456 874.555,775.081 Q891.805,838.831 894.68,849.456"/></g></svg>