<svg id="z19971" class="acjk" viewBox="0 0 1024 1024" xmlns="http://www.w3.org/2000/svg">
<style>

@keyframes zk {
	to {
		stroke-dashoffset:0;
	}
}
svg.acjk path[clip-path] {
	--t:0.8s;
	animation:zk var(--t) linear forwards var(--d);
	stroke-dasharray:3337;
	stroke-dashoffset:3339;
	stroke-width:128;
	stroke-linecap:round;
	fill:none;
	stroke:#000;
}
svg.acjk path[id] {fill:#ccc;}


    @keyframes guide-fade {
        0% { opacity: 0; }
        3% { opacity: 1; }
        95% { opacity: 1; }
        100% { opacity: 0; }
    }

    svg.acjk #guide-arrow {
        fill: #f77;
    }

    svg.acjk .guides {
        circle {
            fill: #0f6;
        }

        path {
            opacity: 0;
            animation: guide-fade var(--t) linear forwards var(--d);
            stroke-width: 16px;
            stroke-linecap: round;
            stroke: #f77;
            fill: none;
            marker-end: url(#guide-arrow);
        }

        circle,
        path {
            --t: 0.8s;
            opacity: 0;
            animation: guide-fade calc(var(--t) + 0.4s) ease-in-out forwards calc(var(--d) - 0.2s);
        }
    }
</style>
<path id="z19971d1" d="M459 507C604 470 740 441 884 437C900 436 911 434 915 427C919 416 915 405 907 400C856 364 811 359 770 374C705 396 518 447 460 461C427 468 427 468 411 472C353 484 227 514 148 529C116 535 80 538 110 567C127 583 155 588 176 591C184 591 194 589 206 583C243 563 320 541 410 519C443 511 443 511 459 507Z"/>
<path id="z19971d2" d="M410 519C407 655 407 745 433 779C455 810 504 828 599 832C692 835 770 821 818 803C827 799 831 789 830 783C827 769 824 763 819 750C813 735 799 691 796 676C792 658 785 643 784 650C778 670 778 723 758 740C732 760 671 774 589 770C548 768 495 761 476 734C458 707 456 655 459 507C460 476 460 476 460 461C462 314 476 239 491 210C505 181 483 165 464 153C444 140 426 133 416 131C380 122 363 138 381 157C391 168 401 188 405 210C419 301 412 396 411 472C410 503 410 503 410 519Z"/>
<defs>
	<clipPath id="z19971c1"><use href="#z19971d1"/></clipPath>
	<clipPath id="z19971c2"><use href="#z19971d2"/></clipPath>
<marker id="guide-arrow" viewBox="0 0 16 16" refX="5" refY="5" markerWidth="4" markerHeight="4" orient="auto-start-reverse"><path d="M 0 0 L 10 5 L 0 10 z" fill="inherit"/></marker></defs>
<path style="--d:1s;" pathLength="3333" clip-path="url(#z19971c1)" d="M104 550L192 554L782 407L913 415"/>
<path style="--d:2s;" pathLength="3333" clip-path="url(#z19971c2)" d="M379 136L450 203L433 640L462 766L576 800L757 783L796 762L785 661"/>
<g class="guides"><circle style="--d: 1s" class="g1" cx="104" cy="550" r="16"/><path style="--d: 1s;" class="g1" d="M104,646 Q192,650 339.5,613.25 Q782,503 814.75,505 Q880.25,509 913,511"/><circle style="--d: 2s" class="g2" cx="379" cy="136" r="16"/><path style="--d: 2s;" class="g2" d="M447.544,67.456 Q490.52811510791366,134.45600000000002 485.38212949640285,352.956 Q480.23614388489204,571.456 489.0145899280575,634.456 Q497.793035971223,697.456 532.3014100719424,714.456 Q566.8097841726619,731.456 621.5993956834533,722.956 Q676.3890071942446,714.456 688.1945035971223,703.956 Q700,693.456 696.6702446043166,642.956 Q696.6702446043166,642.956 693.3404892086331,592.456"/></g></svg>