<!--
  Stroke-order data for 丆, derived from AnimCJK (https://github.com/parsimonhi/animCJK),
  itself derived from the Arphic PL KaitiM fonts. Distributed under the Arphic Public License
  (see ARPHICPL.TXT). Regenerated by scripts/build-strokes.ts — do not edit by hand.
-->
<svg id="z19974" class="acjk" viewBox="0 0 1024 1024" xmlns="http://www.w3.org/2000/svg">
<g class="glyph"><path style="--part:1" id="z19974d1" d="M551 254C625 244 701 234 781 223C835 215 867 206 876 200C882 195 884 188 882 182C877 171 863 163 843 157C819 150 797 151 775 158C631 197 483 217 335 224C305 225 300 235 321 249C352 270 389 275 430 269C449 265 472 264 496 261C533 256 533 256 551 254Z"/><path style="--part:2" id="z19974d2" d="M578 335C614 287 592 272 551 254C534 247 496 243 496 261C498 426 271 694 107 804C102 808 101 812 110 812C405 703 540 383 578 335Z"/></g>
<defs><clipPath id="z19974c1"><use href="#z19974d1"/></clipPath>
	<clipPath id="z19974c2"><use href="#z19974d2"/></clipPath><marker id="guide-arrow" viewBox="0 0 16 16" refX="5" refY="5" markerWidth="4" markerHeight="4" orient="auto-start-reverse"><path d="M 0 0 L 10 5 L 0 10 z" fill="inherit"/></marker></defs>
<g class="strokes"><path style="--part:1" pathLength="3333" clip-path="url(#z19974c1)" d="M313 234L412 245L878 183"/><path style="--part:2" pathLength="3333" clip-path="url(#z19974c2)" d="M504 257L543 304L414 535L282 685L109 807"/></g>
<g class="guides"><text class="g1" style="--gs:1" x="313" y="234">①</text><path class="g1 aligned" style="--gs:1" d="M313,234 Q412,245 470.25,237.25 Q819.75,190.75 878,183"/><path class="g1 offset" style="--gs:1" d="M313,330 Q412,341 470.25,333.25 Q819.75,286.75 878,279"/><text class="g2" style="--gs:2" x="504" y="257">②</text><path class="g2 aligned" style="--gs:2" d="M504,257 Q543,304 478.5,419.5 Q414,535 348,610 Q282,685 195.5,746 Q195.5,746 109,807"/><path class="g2 offset" style="--gs:2" d="M408,257 Q438.37,295.8 388.14,391.14 Q337.91,486.48 286.51,548.39 Q235.11,610.29 167.74,660.65 Q167.74,660.65 100.37,711"/></g>
<g class="parts"><rect data-part="2" data-literal="丿" role="button" tabindex="0" aria-label="Part 丿" x="37" y="185" width="578" height="694"/><rect data-part="1" data-literal="一" data-radical="true" role="button" tabindex="0" aria-label="Part 一 (radical)" x="241" y="111" width="709" height="206"/></g>
</svg>
