<!--
  Stroke-order data for 不, derived from AnimCJK (https://github.com/parsimonhi/animCJK),
  itself derived from the Arphic PL KaitiM fonts. Distributed under the Arphic Public License
  (see ARPHICPL.TXT). Regenerated by scripts/build-strokes.ts — do not edit by hand.
-->
<svg id="z19981" class="acjk" viewBox="0 0 1024 1024" xmlns="http://www.w3.org/2000/svg">
<g class="glyph"><path id="z19981d1" d="M606 218C672 210 718 207 750 206C817 203 876 208 882 203C891 192 884 183 877 178C827 135 786 130 746 141C627 170 404 202 230 217C212 218 199 217 188 220C179 221 174 224 174 232C173 240 176 248 192 258C244 288 237 284 270 276C378 247 489 230 560 223C591 220 591 220 606 218Z"/><path id="z19981d2" d="M560 223C564 272 533 333 508 368C483 403 483 403 470 420C370 556 231 652 111 735C105 739 102 743 112 744C162 743 373 615 484 483C521 439 521 439 539 417C579 368 618 305 644 285C649 280 652 273 652 268C650 258 647 250 639 242C629 230 618 223 606 218C592 212 560 208 560 223Z"/><path id="z19981d3" d="M508 368C497 357 476 344 466 341C456 338 452 342 450 347C446 353 455 376 470 420C477 440 482 461 484 483C491 612 481 723 461 813C453 845 458 881 485 917C498 935 514 932 523 911C535 880 538 833 539 814C540 683 523 544 539 417C540 403 518 378 508 368Z"/><path id="z19981d4" d="M632 503C698 553 771 616 850 692C862 704 873 713 884 716C890 717 895 712 901 705C908 694 907 675 897 645C880 597 791 539 631 471C623 467 620 469 620 479C619 488 624 496 632 503Z"/></g>
<defs><clipPath id="z19981c1"><use href="#z19981d1"/></clipPath>
	<clipPath id="z19981c2"><use href="#z19981d2"/></clipPath>
	<clipPath id="z19981c3"><use href="#z19981d3"/></clipPath>
	<clipPath id="z19981c4"><use href="#z19981d4"/></clipPath><marker id="guide-arrow" viewBox="0 0 16 16" refX="5" refY="5" markerWidth="4" markerHeight="4" orient="auto-start-reverse"><path d="M 0 0 L 10 5 L 0 10 z" fill="inherit"/></marker></defs>
<g class="strokes"><path pathLength="3333" clip-path="url(#z19981c1)" d="M178 233L244 249L784 170L881 191"/><path pathLength="3333" clip-path="url(#z19981c2)" d="M568 223L601 276L448 487L307 616L116 738"/><path pathLength="3333" clip-path="url(#z19981c3)" d="M457 348L508 434L494 922"/><path pathLength="3333" clip-path="url(#z19981c4)" d="M628 481L827 618L894 710"/></g>
<g class="guides"><text class="g1" style="--gs:1" x="178" y="233">①</text><path class="g1 aligned" style="--gs:1" d="M178,233 Q244,249 379,229.25 Q784,170 808.25,175.25 Q856.75,185.75 881,191"/><path class="g1 offset" style="--gs:1" d="M178,329 Q244,345 379,325.25 Q784,266 808.25,271.25 Q856.75,281.75 881,287"/><text class="g2" style="--gs:2" x="568" y="223">②</text><path class="g2 aligned" style="--gs:2" d="M568,223 Q601,276 524.5,381.5 Q448,487 377.5,551.5 Q307,616 211.5,677 Q211.5,677 116,738"/><path class="g2 offset" style="--gs:2" d="M472,223 Q498.47,266.12 437.11,351.95 Q375.75,437.79 319.21,490.27 Q262.66,542.74 186.06,592.37 Q186.06,592.37 109.47,642"/><text class="g3" style="--gs:3" x="457" y="348">③</text><path class="g3 aligned" style="--gs:3" d="M457,348 Q508,434 506.25,495 Q495.75,861 494,922"/><path class="g3 offset" style="--gs:3" d="M361,348 Q412,434 410.25,495 Q399.75,861 398,922"/><text class="g4" style="--gs:4" x="628" y="481">④</text><path class="g4 aligned" style="--gs:4" d="M628,481 Q827,618 835.38,629.5 Q885.63,698.5 894,710"/><path class="g4 offset" style="--gs:4" d="M713.68,412.46 Q912.68,549.46 921.06,560.96 Q971.31,629.96 979.68,641.46"/></g>
</svg>
