<!--
  Stroke-order data for 丑, derived from AnimCJK (https://github.com/parsimonhi/animCJK),
  itself derived from the Arphic PL KaitiM fonts. Distributed under the Arphic Public License
  (see ARPHICPL.TXT). Regenerated by scripts/build-strokes.ts — do not edit by hand.
-->
<svg id="z19985" class="acjk" viewBox="0 0 1024 1024" xmlns="http://www.w3.org/2000/svg">
<g class="glyph"><path style="--part:1" id="z19985d1" d="M658 761C686 594 714 457 741 350C747 323 758 301 774 285C784 274 786 261 778 248C771 237 748 221 713 193C701 184 676 186 631 199C521 230 420 244 329 244C317 243 311 246 312 252C312 260 321 268 336 279C351 290 367 295 394 288C402 285 416 283 426 281C452 275 452 275 465 272C545 253 605 246 644 243C664 241 677 242 682 250C687 259 684 275 681 296C649 475 622 632 596 765C593 785 654 781 658 761Z"/><path style="--part:2" id="z19985d2" d="M426 281C434 313 433 366 411 490C405 523 405 523 402 539C390 601 373 682 355 782C352 798 400 794 403 778C419 690 436 608 452 533C459 498 459 498 463 481C477 411 484 362 494 337C499 323 501 314 496 307C485 292 475 280 465 272C456 263 423 268 426 281Z"/><path style="--part:3" id="z19985d3" d="M411 490C370 497 328 497 277 500C252 501 246 511 264 522C303 546 335 546 402 539C435 535 435 535 452 533C539 522 582 513 584 513C590 508 593 502 590 496C585 487 573 480 555 474C531 466 501 474 463 481C428 487 428 487 411 490Z"/><path style="--part:4" id="z19985d4" d="M625 810C723 808 817 809 909 822C925 824 935 823 940 817C946 808 944 799 936 791C916 771 891 753 862 738C852 733 830 737 812 741C765 751 706 757 658 761C617 764 617 764 596 765C553 767 429 775 403 778C371 781 371 781 355 782C279 788 197 791 127 790C117 789 111 793 111 801C110 809 115 819 128 829C156 851 186 858 216 851C246 843 309 834 403 824C463 817 576 810 625 810Z"/></g>
<defs><clipPath id="z19985c1"><use href="#z19985d1"/></clipPath>
	<clipPath id="z19985c2"><use href="#z19985d2"/></clipPath>
	<clipPath id="z19985c3"><use href="#z19985d3"/></clipPath>
	<clipPath id="z19985c4"><use href="#z19985d4"/></clipPath><marker id="guide-arrow" viewBox="0 0 16 16" refX="5" refY="5" markerWidth="4" markerHeight="4" orient="auto-start-reverse"><path d="M 0 0 L 10 5 L 0 10 z" fill="inherit"/></marker></defs>
<g class="strokes"><path style="--part:1" pathLength="3333" clip-path="url(#z19985c1)" d="M321 253L382 266L682 215L730 259L630 745L607 761"/><path style="--part:2" pathLength="3333" clip-path="url(#z19985c2)" d="M433 284L465 324L367 779"/><path style="--part:3" pathLength="3333" clip-path="url(#z19985c3)" d="M262 508L585 497"/><path style="--part:4" pathLength="3333" clip-path="url(#z19985c4)" d="M115 800L199 822L843 775L939 806"/></g>
<g class="guides"><text class="g1" style="--gs:1" x="321" y="253">①</text><path class="g1 aligned" style="--gs:1" d="M321,253 Q382,266 532,240.5 Q682,215 706,237 Q730,259 674.5,506 Q674.5,506 619,753"/><path class="g1 offset" style="--gs:1" d="M321,349 Q364.1,352.9 470.09,331.95 Q576.08,311 593.04,329.07 Q610,347.15 570.78,550.07 Q570.78,550.07 531.57,753"/><text class="g2" style="--gs:2" x="433" y="284">②</text><path class="g2 aligned" style="--gs:2" d="M433,284 Q465,324 452.75,380.88 Q379.25,722.13 367,779"/><path class="g2 offset" style="--gs:2" d="M337,284 Q369,324 356.75,380.88 Q283.25,722.13 271,779"/><text class="g3" style="--gs:3" x="262" y="508">③</text><path class="g3 aligned" style="--gs:3" d="M262,508 L585,497"/><path class="g3 offset" style="--gs:3" d="M262,604 L585,593"/><text class="g4" style="--gs:4" x="115" y="800">④</text><path class="g4 aligned" style="--gs:4" d="M115,800 Q199,822 360,810.25 Q843,775 867,782.75 Q915,798.25 939,806"/><path class="g4 offset" style="--gs:4" d="M115,896 Q199,918 360,906.25 Q843,871 867,878.75 Q915,894.25 939,902"/></g>
<g class="parts"><rect data-part="1" data-literal="𠃌" role="button" tabindex="0" aria-label="Part 𠃌" x="249" y="143" width="553" height="690"/><rect data-part="4" data-literal="一" data-radical="true" role="button" tabindex="0" aria-label="Part 一 (radical)" x="43" y="703" width="968" height="191"/><rect data-part="2" data-literal="丨" role="button" tabindex="0" aria-label="Part 丨" x="295" y="212" width="242" height="639"/><rect data-part="3" data-literal="一" role="button" tabindex="0" aria-label="Part 一" x="190" y="425" width="467" height="155"/></g>
</svg>
