<svg id="z20035" class="acjk" viewBox="0 0 1024 1024" xmlns="http://www.w3.org/2000/svg">
<style>

@keyframes zk {
	to {
		stroke-dashoffset:0;
	}
}
svg.acjk path[clip-path] {
	--t:0.8s;
	animation:zk var(--t) linear forwards var(--d);
	stroke-dasharray:3337;
	stroke-dashoffset:3339;
	stroke-width:128;
	stroke-linecap:round;
	fill:none;
	stroke:#000;
}
svg.acjk path[id] {fill:#ccc;}


    @keyframes guide-fade {
        0% { opacity: 0; }
        3% { opacity: 1; }
        95% { opacity: 1; }
        100% { opacity: 0; }
    }

    svg.acjk #guide-arrow {
        fill: #f77;
    }

    svg.acjk .guides {
        circle {
            fill: #0f6;
        }

        path {
            opacity: 0;
            animation: guide-fade var(--t) linear forwards var(--d);
            stroke-width: 16px;
            stroke-linecap: round;
            stroke: #f77;
            fill: none;
            marker-end: url(#guide-arrow);
        }

        circle,
        path {
            --t: 0.8s;
            opacity: 0;
            animation: guide-fade calc(var(--t) + 0.4s) ease-in-out forwards calc(var(--d) - 0.2s);
        }
    }
</style>
<path id="z20035d1" d="M422 231C424 251 421 274 415 300C395 375 338 481 314 522C261 608 187 688 95 768C90 771 86 773 84 778C79 784 81 788 89 789C111 790 167 769 235 702C260 677 260 677 273 664C342 594 404 488 446 387C461 348 474 317 490 297C497 287 503 279 500 270C494 254 478 234 461 222C451 214 422 218 422 231Z"/>
<path id="z20035d2" d="M731 441C747 441 755 443 762 450C767 456 768 467 768 485C763 579 724 690 690 762C681 781 668 795 654 804C643 810 619 804 582 789C549 774 532 769 532 773C531 777 533 782 539 790C569 825 590 851 600 872C609 890 616 902 625 906C632 909 643 907 659 898C697 874 730 845 748 803C765 759 793 673 827 523C830 507 840 493 857 481C867 473 867 464 862 457C849 442 829 427 802 409C792 403 784 405 772 407C739 410 712 410 676 410C664 409 654 408 650 404C642 398 644 390 650 381C684 322 713 273 741 236C754 218 770 208 786 202C796 197 800 191 800 185C798 171 771 154 725 130C711 123 698 124 682 131C653 142 626 151 602 157C550 169 448 190 333 211C300 216 263 221 223 224C197 225 196 238 208 250C215 258 224 263 239 269C248 273 264 273 283 268C325 255 371 242 422 231C448 225 448 225 461 222C598 190 673 180 689 190C692 192 693 198 689 209C642 312 604 378 575 405C566 412 564 419 569 431C575 446 583 456 594 460C601 462 611 460 621 455C642 442 679 439 731 441Z"/>
<defs>
	<clipPath id="z20035c1"><use href="#z20035d1"/></clipPath>
	<clipPath id="z20035c2"><use href="#z20035d2"/></clipPath>
<marker id="guide-arrow" viewBox="0 0 16 16" refX="5" refY="5" markerWidth="4" markerHeight="4" orient="auto-start-reverse"><path d="M 0 0 L 10 5 L 0 10 z" fill="inherit"/></marker></defs>
<path style="--d:1s;" pathLength="3333" clip-path="url(#z20035c1)" d="M428 235L460 277L340 532L223 679L89 783"/>
<path style="--d:2s;" pathLength="3333" clip-path="url(#z20035c2)" d="M208 238L288 242L671 160L743 188L611 415L626 434L775 427L806 450L817 473L762 673L702 807L652 851L625 853L539 779"/>
<g class="guides"><circle style="--d: 1s" class="g1" cx="428" cy="235" r="16"/><path style="--d: 1s;" class="g1" d="M332,235 Q355.71967654986526,269.64233576642334 311.2452830188679,374.8065693430657 Q266.7708894878706,479.97080291970804 223.40835579514822,540.594890510949 Q180.04582210242586,601.2189781021898 130.38274932614553,644.1094890510949 Q130.38274932614553,644.1094890510949 80.71967654986523,687"/><circle style="--d: 2s" class="g2" cx="208" cy="238" r="16"/><path style="--d: 2s;" class="g2" d="M208,334 Q275.38916256157637,312.2049062049062 436.70197044334975,284.10245310245307 Q598.0147783251232,256 628.3399014778325,270 Q658.6650246305419,284 603.0689655172414,357.3917748917749 Q547.4729064039409,430.7835497835498 553.7906403940887,437.2950937950938 Q560.1083743842364,443.8066378066378 622.8645320197045,441.4076479076479 Q685.6206896551724,439.008658008658 698.6773399014778,446.8910533910534 Q711.7339901477833,454.77344877344876 716.3669950738916,462.65584415584414 Q721,470.5382395382395 697.8349753694581,539.0808080808081 Q674.6699507389162,607.6233766233767 649.3990147783252,653.5468975468975 Q624.128078817734,699.4704184704185 603.0689655172414,714.5497835497836 Q582.0098522167488,729.6291486291486 570.6379310344828,730.3145743145743 Q559.2660098522167,731 523.0443349753695,705.6392496392497 Q523.0443349753695,705.6392496392497 486.8226600985222,680.2784992784993"/></g></svg>