<svg id="z20109" class="acjk" viewBox="0 0 1024 1024" xmlns="http://www.w3.org/2000/svg">
<style>

@keyframes zk {
	to {
		stroke-dashoffset:0;
	}
}
svg.acjk path[clip-path] {
	--t:0.8s;
	animation:zk var(--t) linear forwards var(--d);
	stroke-dasharray:3337;
	stroke-dashoffset:3339;
	stroke-width:128;
	stroke-linecap:round;
	fill:none;
	stroke:#000;
}
svg.acjk path[id] {fill:#ccc;}


    @keyframes guide-fade {
        0% { opacity: 0; }
        3% { opacity: 1; }
        95% { opacity: 1; }
        100% { opacity: 0; }
    }

    svg.acjk #guide-arrow {
        fill: #f77;
    }

    svg.acjk .guides {
        circle {
            fill: #0f6;
        }

        path {
            opacity: 0;
            animation: guide-fade var(--t) linear forwards var(--d);
            stroke-width: 16px;
            stroke-linecap: round;
            stroke: #f77;
            fill: none;
            marker-end: url(#guide-arrow);
        }

        circle,
        path {
            --t: 0.8s;
            opacity: 0;
            animation: guide-fade calc(var(--t) + 0.4s) ease-in-out forwards calc(var(--d) - 0.2s);
        }
    }
</style>
<path id="z20109d1" d="M332 171Q292 177 320 196Q371 226 430 211Q536 193 647 173Q698 163 706 156Q716 147 711 138Q704 125 671 115Q641 109 539 138Q410 165 332 171Z"/>
<path id="z20109d2" d="M523 399Q646 384 891 384Q915 383 920 374Q926 361 907 344Q849 302 789 313Q606 349 130 411Q106 412 124 433Q140 449 161 455Q185 461 203 455Q390 406 473 405C506 401 506 401 523 399Z"/>
<path id="z20109d3" d="M444 850Q414 837 377 825Q365 821 365 828Q365 835 375 847Q445 908 491 959Q503 969 518 953Q563 898 558 815Q551 548 557 464Q564 436 557 425Q550 415 523 399C509 390 467 389 473 405Q474 411 481 419Q491 444 492 824Q489 842 482 852Q470 859 444 850Z"/>
<defs>
	<clipPath id="z20109c1"><use href="#z20109d1"/></clipPath>
	<clipPath id="z20109c2"><use href="#z20109d2"/></clipPath>
	<clipPath id="z20109c3"><use href="#z20109d3"/></clipPath>
<marker id="guide-arrow" viewBox="0 0 16 16" refX="5" refY="5" markerWidth="4" markerHeight="4" orient="auto-start-reverse"><path d="M 0 0 L 10 5 L 0 10 z" fill="inherit"/></marker></defs>
<path style="--d:1s;" pathLength="3333" clip-path="url(#z20109c1)" d="M317 182L406 189L708 141"/>
<path style="--d:2s;" pathLength="3333" clip-path="url(#z20109c2)" d="M124 420L194 430L813 347L917 366"/>
<path style="--d:3s;" pathLength="3333" clip-path="url(#z20109c3)" d="M478 402L522 442L521 854L482 911L373 831"/>
<g class="guides"><circle style="--d: 1s" class="g1" cx="317" cy="182" r="16"/><path style="--d: 1s;" class="g1" d="M317,278 Q406,285 443.75,279 Q670.25,243 708,237"/><circle style="--d: 2s" class="g2" cx="124" cy="420" r="16"/><path style="--d: 2s;" class="g2" d="M124,516 Q194,526 348.75,505.25 Q813,443 839,447.75 Q891,457.25 917,462"/><circle style="--d: 3s" class="g3" cx="478" cy="402" r="16"/><path style="--d: 3s;" class="g3" d="M382,402 Q404,434.4557956777996 403.75,601.6031434184675 Q403.5,768.7504911591355 393.75,791.8752455795677 Q384,815 356.75,782.5442043222004 Q356.75,782.5442043222004 329.5,750.0884086444008"/></g></svg>