<svg id="z20116" class="acjk" viewBox="0 0 1024 1024" xmlns="http://www.w3.org/2000/svg">
<style>

@keyframes zk {
	to {
		stroke-dashoffset:0;
	}
}
svg.acjk path[clip-path] {
	--t:0.8s;
	animation:zk var(--t) linear forwards var(--d);
	stroke-dasharray:3337;
	stroke-dashoffset:3339;
	stroke-width:128;
	stroke-linecap:round;
	fill:none;
	stroke:#000;
}
svg.acjk path[id] {fill:#ccc;}


    @keyframes guide-fade {
        0% { opacity: 0; }
        3% { opacity: 1; }
        95% { opacity: 1; }
        100% { opacity: 0; }
    }

    svg.acjk #guide-arrow {
        fill: #f77;
    }

    svg.acjk .guides {
        circle {
            fill: #0f6;
        }

        path {
            opacity: 0;
            animation: guide-fade var(--t) linear forwards var(--d);
            stroke-width: 16px;
            stroke-linecap: round;
            stroke: #f77;
            fill: none;
            marker-end: url(#guide-arrow);
        }

        circle,
        path {
            --t: 0.8s;
            opacity: 0;
            animation: guide-fade calc(var(--t) + 0.4s) ease-in-out forwards calc(var(--d) - 0.2s);
        }
    }
</style>
<path id="z20116d1" d="M509 227C570 219 622 208 686 199C728 192 753 186 761 180C767 174 769 167 767 162C762 151 747 144 727 138C703 131 662 140 598 156C502 179 406 188 314 195C285 196 281 205 301 220C326 237 389 242 462 233C493 229 493 229 509 227Z"/>
<path id="z20116d2" d="M492 431C535 255 556 278 509 227C498 216 462 217 462 233C469 312 454 370 438 440C432 466 432 466 429 479C413 545 392 631 367 740C364 756 412 752 415 736C437 641 461 552 482 471C489 444 489 444 492 431Z"/>
<path id="z20116d3" d="M614 395C568 411 534 424 492 431C456 437 456 437 438 440C389 448 330 451 280 454C267 454 260 456 262 466C263 470 270 478 286 484C329 498 385 485 429 479C464 474 464 474 482 471C518 465 546 460 584 454C629 446 642 483 637 516C623 593 604 664 586 724C579 741 637 739 641 721C666 602 699 521 738 484C752 469 754 454 741 441C729 429 700 413 661 395C645 387 628 389 614 395Z"/>
<path id="z20116d4" d="M72 760C63 760 58 761 53 766C48 770 46 776 52 784C58 794 81 810 119 832C128 836 141 835 156 830C247 797 401 778 526 770C622 763 758 761 937 797C952 800 972 799 977 793C982 785 976 774 964 764C909 718 882 701 844 705C803 708 710 717 641 721C604 723 604 723 586 724C556 725 438 733 405 736C373 739 373 739 357 740C263 747 147 758 72 760Z"/>
<defs>
	<clipPath id="z20116c1"><use href="#z20116d1"/></clipPath>
	<clipPath id="z20116c2"><use href="#z20116d2"/></clipPath>
	<clipPath id="z20116c3"><use href="#z20116d3"/></clipPath>
	<clipPath id="z20116c4"><use href="#z20116d4"/></clipPath>
<marker id="guide-arrow" viewBox="0 0 16 16" refX="5" refY="5" markerWidth="4" markerHeight="4" orient="auto-start-reverse"><path d="M 0 0 L 10 5 L 0 10 z" fill="inherit"/></marker></defs>
<path style="--d:1s;" pathLength="3333" clip-path="url(#z20116c1)" d="M297 204L432 210L762 166"/>
<path style="--d:2s;" pathLength="3333" clip-path="url(#z20116c2)" d="M469 225L500 268L496 300L380 747"/>
<path style="--d:3s;" pathLength="3333" clip-path="url(#z20116c3)" d="M269 462L387 466L606 424L678 451L690 489L596 732"/>
<path style="--d:4s;" pathLength="3333" clip-path="url(#z20116c4)" d="M56 775L134 795L434 755L815 741L975 784"/>
<g class="guides"><circle style="--d: 1s" class="g1" cx="297" cy="204" r="16"/><path style="--d: 1s;" class="g1" d="M297,300 Q432,306 473.25,300.5 Q720.75,267.5 762,262"/><circle style="--d: 2s" class="g2" cx="469" cy="225" r="16"/><path style="--d: 2s;" class="g2" d="M373,225 Q404,268 403,276 Q400,300 371,411.75 Q313,635.25 284,747"/><circle style="--d: 3s" class="g3" cx="269" cy="462" r="16"/><path style="--d: 3s;" class="g3" d="M269,558 Q353.36579572446556,548.909090909091 431.65439429928745,534.4545454545455 Q509.9429928741093,520 535.6817102137767,533.5 Q561.4204275534441,547 565.7102137767221,555.8701298701299 Q570,564.7402597402597 536.396674584323,648.3701298701299 Q536.396674584323,648.3701298701299 502.79334916864605,732"/><circle style="--d: 4s" class="g4" cx="56" cy="775" r="16"/><path style="--d: 4s;" class="g4" d="M56,871 Q134,891 284,871 Q434,851 624.5,844 Q815,837 895,858.5 Q895,858.5 975,880"/></g></svg>