<svg id="z20117" class="acjk" viewBox="0 0 1024 1024" xmlns="http://www.w3.org/2000/svg">
<style>

@keyframes zk {
	to {
		stroke-dashoffset:0;
	}
}
svg.acjk path[clip-path] {
	--t:0.8s;
	animation:zk var(--t) linear forwards var(--d);
	stroke-dasharray:3337;
	stroke-dashoffset:3339;
	stroke-width:128;
	stroke-linecap:round;
	fill:none;
	stroke:#000;
}
svg.acjk path[id] {fill:#ccc;}


    @keyframes guide-fade {
        0% { opacity: 0; }
        3% { opacity: 1; }
        95% { opacity: 1; }
        100% { opacity: 0; }
    }

    svg.acjk #guide-arrow {
        fill: #f77;
    }

    svg.acjk .guides {
        circle {
            fill: #0f6;
        }

        path {
            opacity: 0;
            animation: guide-fade var(--t) linear forwards var(--d);
            stroke-width: 16px;
            stroke-linecap: round;
            stroke: #f77;
            fill: none;
            marker-end: url(#guide-arrow);
        }

        circle,
        path {
            --t: 0.8s;
            opacity: 0;
            animation: guide-fade calc(var(--t) + 0.4s) ease-in-out forwards calc(var(--d) - 0.2s);
        }
    }
</style>
<path id="z20117d1" d="M647 324C735 310 786 299 797 291C804 285 805 278 803 273C798 264 785 255 765 250C744 244 705 253 648 268C609 278 609 278 590 283C512 303 454 310 419 314C382 318 382 318 364 320C337 322 309 322 281 325C254 327 251 333 268 349C290 369 328 374 364 369C400 363 400 363 418 360C472 350 530 342 590 333C628 327 628 327 647 324Z"/>
<path id="z20117d2" d="M644 544C722 536 808 535 903 545C919 546 930 545 934 539C939 530 937 521 929 513C908 493 883 478 853 464C843 459 829 461 811 466C773 475 687 488 644 495C607 500 607 500 589 503C572 505 427 521 406 523C371 526 371 526 353 528C270 535 191 544 121 546C111 546 105 550 105 558C104 566 111 576 124 586C149 606 179 612 213 604C227 600 270 591 342 579C379 572 379 572 398 569C430 563 549 552 589 549C626 546 626 546 644 544Z"/>
<path id="z20117d3" d="M419 314C420 247 419 202 423 181C425 166 419 155 405 149C370 134 347 128 336 130C321 132 321 140 333 157C352 184 364 239 364 320C364 353 364 353 364 369C364 453 357 506 353 528C346 562 346 562 342 579C325 654 278 741 228 801C188 847 162 869 161 875C159 880 163 882 172 882C182 880 195 875 210 864C247 835 278 807 300 781C357 709 390 612 398 569C403 538 403 538 406 523C411 491 417 385 418 360C419 329 419 329 419 314Z"/>
<path id="z20117d4" d="M589 549C589 797 590 930 604 948C613 959 621 956 628 942C637 918 644 785 644 544C644 511 644 511 644 495C644 430 646 373 647 324C648 287 648 287 648 268C649 190 658 140 671 118C676 107 671 96 657 85C640 72 612 58 587 54C572 51 562 53 553 63C546 69 547 76 556 84C576 101 588 121 589 146C589 182 590 227 590 283C590 316 590 316 590 333C590 397 589 501 589 503C589 534 589 534 589 549Z"/>
<defs>
	<clipPath id="z20117c1"><use href="#z20117d1"/></clipPath>
	<clipPath id="z20117c2"><use href="#z20117d2"/></clipPath>
	<clipPath id="z20117c3"><use href="#z20117d3"/></clipPath>
	<clipPath id="z20117c4"><use href="#z20117d4"/></clipPath>
<marker id="guide-arrow" viewBox="0 0 16 16" refX="5" refY="5" markerWidth="4" markerHeight="4" orient="auto-start-reverse"><path d="M 0 0 L 10 5 L 0 10 z" fill="inherit"/></marker></defs>
<path style="--d:1s;" pathLength="3333" clip-path="url(#z20117c1)" d="M261 334L374 343L799 276"/>
<path style="--d:2s;" pathLength="3333" clip-path="url(#z20117c2)" d="M109 555L196 575L838 500L933 530"/>
<path style="--d:3s;" pathLength="3333" clip-path="url(#z20117c3)" d="M332 138L387 195L372 562L294 750L169 875"/>
<path style="--d:4s;" pathLength="3333" clip-path="url(#z20117c4)" d="M552 68L630 122L615 950"/>
<g class="guides"><circle style="--d: 1s" class="g1" cx="261" cy="334" r="16"/><path style="--d: 1s;" class="g1" d="M261,430 Q374,439 427.125,430.625 Q745.875,380.375 799,372"/><circle style="--d: 2s" class="g2" cx="109" cy="555" r="16"/><path style="--d: 2s;" class="g2" d="M109,651 Q196,671 356.5,652.25 Q838,596 861.75,603.5 Q909.25,618.5 933,626"/><circle style="--d: 3s" class="g3" cx="332" cy="138" r="16"/><path style="--d: 3s;" class="g3" d="M236,138 Q266.7798165137615,187.5753052917232 262.5825688073395,347.17299864314793 Q258.38532110091745,506.7706919945726 236.55963302752295,588.5264586160108 Q214.73394495412845,670.2822252374491 179.75688073394497,724.6411126187245 Q179.75688073394497,724.6411126187245 144.7798165137615,779"/><circle style="--d: 4s" class="g4" cx="552" cy="68" r="16"/><path style="--d: 4s;" class="g4" d="M456,68 Q534,122 532.125,225.5 Q520.875,846.5 519,950"/></g></svg>