<!--
  Stroke-order data for 亙, derived from AnimCJK (https://github.com/parsimonhi/animCJK),
  itself derived from the Arphic PL KaitiM fonts. Distributed under the Arphic Public License
  (see ARPHICPL.TXT). Regenerated by scripts/build-strokes.ts — do not edit by hand.
-->
<svg id="z20121" class="acjk" viewBox="0 0 1024 1024" xmlns="http://www.w3.org/2000/svg">
<g class="glyph"><path style="--part:1" id="z20121d1" d="M471 214C538 204 607 191 679 179C727 171 754 162 761 156C767 149 769 143 767 138C762 129 749 120 727 114C708 108 663 118 592 137C494 162 389 177 277 187C249 189 243 199 264 212C304 237 336 234 431 220C458 216 458 216 471 214Z"/><path style="--part:2" id="z20121d2" d="M448 370C470 318 484 283 493 269C499 258 496 248 489 237C483 228 478 220 471 214C461 204 431 207 431 220C431 300 400 394 331 499C298 547 286 585 300 618C304 629 310 632 320 626C344 609 374 560 407 475C414 455 435 399 439 391C445 377 445 377 448 370Z"/><path style="--part:2" id="z20121d3" d="M577 756C635 546 680 430 712 406C725 396 727 384 721 374C711 359 691 345 664 328C650 318 632 314 610 324C550 347 498 363 450 369C449 369 448 369 448 370C441 372 432 387 439 391C441 393 447 396 455 400C467 405 488 404 520 395C572 379 605 372 615 382C631 398 598 526 521 762C514 779 573 774 577 756Z"/><path style="--part:2" id="z20121d4" d="M456 500C478 522 496 538 514 544C521 546 528 542 532 536C535 529 536 521 534 513C530 500 522 491 513 485C504 479 488 473 465 469C456 467 449 467 445 470C442 471 441 474 442 480C442 486 447 492 456 500Z"/><path style="--part:2" id="z20121d5" d="M405 617C430 653 451 677 470 685C477 688 486 686 492 679C496 672 499 663 498 654C493 627 465 605 420 585C411 581 404 579 398 581C394 582 392 585 393 593C393 599 397 607 405 617Z"/><path style="--part:1" id="z20121d6" d="M521 762C444 770 267 786 128 798C111 799 108 806 121 821C131 833 144 841 159 846C175 850 190 851 204 848C394 803 632 788 920 802C936 802 946 799 950 793C955 783 951 771 938 761C896 727 860 714 830 720C765 730 681 744 577 756C540 760 540 760 521 762Z"/></g>
<defs><clipPath id="z20121c1"><use href="#z20121d1"/></clipPath>
	<clipPath id="z20121c2"><use href="#z20121d2"/></clipPath>
	<clipPath id="z20121c3"><use href="#z20121d3"/></clipPath>
	<clipPath id="z20121c4"><use href="#z20121d4"/></clipPath>
	<clipPath id="z20121c5"><use href="#z20121d5"/></clipPath>
	<clipPath id="z20121c6"><use href="#z20121d6"/></clipPath><marker id="guide-arrow" viewBox="0 0 16 16" refX="5" refY="5" markerWidth="4" markerHeight="4" orient="auto-start-reverse"><path d="M 0 0 L 10 5 L 0 10 z" fill="inherit"/></marker></defs>
<g class="strokes"><path style="--part:1" pathLength="3333" clip-path="url(#z20121c1)" d="M259 199L362 205L763 143"/><path style="--part:2" pathLength="3333" clip-path="url(#z20121c2)" d="M438 226L460 268L310 624"/><path style="--part:2" pathLength="3333" clip-path="url(#z20121c3)" d="M447 388L628 351L671 395L555 741L529 753"/><path style="--part:2" pathLength="3333" clip-path="url(#z20121c4)" d="M449 478L527 534"/><path style="--part:2" pathLength="3333" clip-path="url(#z20121c5)" d="M399 588L480 681"/><path style="--part:1" pathLength="3333" clip-path="url(#z20121c6)" d="M121 805L184 821L830 759L948 786"/></g>
<g class="guides"><text class="g1" style="--gs:1" x="259" y="199">①</text><path class="g1 aligned" style="--gs:1" d="M259,199 Q362,205 412.13,197.25 Q712.88,150.75 763,143"/><path class="g1 offset" style="--gs:1" d="M259,295 Q362,301 412.13,293.25 Q712.88,246.75 763,239"/><text class="g2" style="--gs:2" x="438" y="226">②</text><path class="g2 aligned" style="--gs:2" d="M438,226 Q460,268 441.25,312.5 Q328.75,579.5 310,624"/><path class="g2 offset" style="--gs:2" d="M558,226 Q580,268 561.25,312.5 Q448.75,579.5 430,624"/><text class="g3" style="--gs:3" x="447" y="388">③</text><path class="g3 aligned" style="--gs:3" d="M447,388 Q628,351 638.75,362 Q671,395 638.75,483 Q574.25,659 542,747"/><path class="g3 offset" style="--gs:3" d="M447,484 Q537.5,447 542.88,455.33 Q559,480.33 542.88,547 Q510.63,680.33 494.5,747"/><text class="g4" style="--gs:4" x="449" y="478">④</text><path class="g4 aligned" style="--gs:4" d="M449,478 L527,534"/><path class="g4 offset" style="--gs:4" d="M534.68,409.46 L612.68,465.46"/><text class="g5" style="--gs:5" x="399" y="588">⑤</text><path class="g5 aligned" style="--gs:5" d="M399,588 L480,681"/><path class="g5 offset" style="--gs:5" d="M484.68,519.46 L565.68,612.46"/><text class="g6" style="--gs:6" x="121" y="805">⑥</text><path class="g6 aligned" style="--gs:6" d="M121,805 Q184,821 345.5,805.5 Q830,759 859.5,765.75 Q918.5,779.25 948,786"/><path class="g6 offset" style="--gs:6" d="M121,901 Q184,917 345.5,901.5 Q830,855 859.5,861.75 Q918.5,875.25 948,882"/></g>
<g class="parts"><rect data-part="1" data-literal="二" data-radical="true" role="button" tabindex="0" aria-label="Part 二 (radical)" x="49" y="71" width="971" height="822"/><rect data-part="2" data-literal="月" role="button" tabindex="0" aria-label="Part 月" x="238" y="154" width="505" height="671"/></g>
</svg>
