<!--
  Stroke-order data for 亚, derived from AnimCJK (https://github.com/parsimonhi/animCJK),
  itself derived from the Arphic PL KaitiM fonts. Distributed under the Arphic Public License
  (see ARPHICPL.TXT). Regenerated by scripts/build-strokes.ts — do not edit by hand.
-->
<svg id="z20122" class="acjk" viewBox="0 0 1024 1024" xmlns="http://www.w3.org/2000/svg">
<g class="glyph"><path id="z20122d1" d="M603 220C630 216 658 213 741 208C749 207 760 205 765 195C768 187 757 177 740 168C711 151 674 151 625 162C512 186 393 199 269 210C246 211 243 220 260 235C294 265 323 260 357 256C389 251 389 251 405 249C447 242 495 234 545 228C584 223 584 223 603 220Z"/><path id="z20122d2" d="M357 256C383 308 381 361 381 795C381 810 425 806 425 791C426 546 431 378 433 350C436 272 453 284 405 249C392 239 351 241 357 256Z"/><path id="z20122d3" d="M605 779C605 712 608 649 610 589C611 568 611 568 611 557C614 436 618 367 623 320C630 237 652 255 603 220C586 210 535 211 545 228C576 281 559 302 557 782C557 798 605 795 605 779Z"/><path id="z20122d4" d="M206 524C228 547 249 574 272 602C279 612 289 617 300 619C307 619 314 615 319 607C323 597 324 581 321 560C318 543 307 525 284 511C234 479 200 465 186 469C181 470 179 476 180 486C180 494 189 506 206 524Z"/><path id="z20122d5" d="M610 589C680 542 751 484 828 448C841 441 849 438 846 429C841 416 832 401 818 386C803 369 787 360 769 359C757 357 750 366 751 382C746 428 708 454 611 557C603 565 601 595 610 589Z"/><path id="z20122d6" d="M610 827C694 820 789 823 887 838C903 840 913 838 918 833C923 824 923 814 914 806C863 756 824 749 789 757C730 769 662 775 603 779C571 781 571 781 555 782C511 784 465 787 425 791C396 794 396 794 381 795C294 802 194 807 121 806C110 805 105 808 105 817C104 825 109 835 122 845C151 867 178 877 199 871C227 862 298 851 397 840C470 831 541 832 610 827Z"/></g>
<defs><clipPath id="z20122c1"><use href="#z20122d1"/></clipPath>
	<clipPath id="z20122c2"><use href="#z20122d2"/></clipPath>
	<clipPath id="z20122c3"><use href="#z20122d3"/></clipPath>
	<clipPath id="z20122c4"><use href="#z20122d4"/></clipPath>
	<clipPath id="z20122c5"><use href="#z20122d5"/></clipPath>
	<clipPath id="z20122c6"><use href="#z20122d6"/></clipPath><marker id="guide-arrow" viewBox="0 0 16 16" refX="5" refY="5" markerWidth="4" markerHeight="4" orient="auto-start-reverse"><path d="M 0 0 L 10 5 L 0 10 z" fill="inherit"/></marker></defs>
<g class="strokes"><path pathLength="3333" clip-path="url(#z20122c1)" d="M255 218L325 232L657 185L760 189"/><path pathLength="3333" clip-path="url(#z20122c2)" d="M362 250L405 301L400 802"/><path pathLength="3333" clip-path="url(#z20122c3)" d="M552 224L597 268L580 791"/><path pathLength="3333" clip-path="url(#z20122c4)" d="M187 479L282 556L304 614"/><path pathLength="3333" clip-path="url(#z20122c5)" d="M761 364L793 425L610 584"/><path pathLength="3333" clip-path="url(#z20122c6)" d="M113 816L179 839L809 791L917 826"/></g>
<g class="guides"><text class="g1" style="--gs:1" x="255" y="218">①</text><path class="g1 aligned" style="--gs:1" d="M255,218 Q325,232 408,220.25 Q657,185 682.75,186 Q734.25,188 760,189"/><path class="g1 offset" style="--gs:1" d="M255,314 Q325,328 408,316.25 Q657,281 682.75,282 Q734.25,284 760,285"/><text class="g2" style="--gs:2" x="362" y="250">②</text><path class="g2 aligned" style="--gs:2" d="M362,250 Q405,301 404.38,363.63 Q400.63,739.38 400,802"/><path class="g2 offset" style="--gs:2" d="M266,250 Q309,301 308.38,363.63 Q304.63,739.38 304,802"/><text class="g3" style="--gs:3" x="552" y="224">③</text><path class="g3 aligned" style="--gs:3" d="M552,224 Q597,268 594.88,333.38 Q582.13,725.63 580,791"/><path class="g3 offset" style="--gs:3" d="M456,224 Q501,268 498.88,333.38 Q486.13,725.63 484,791"/><text class="g4" style="--gs:4" x="187" y="479">④</text><path class="g4 aligned" style="--gs:4" d="M187,479 Q282,556 284.75,563.25 Q301.25,606.75 304,614"/><path class="g4 offset" style="--gs:4" d="M272.68,410.46 Q367.68,487.46 370.43,494.71 Q386.93,538.21 389.68,545.46"/><text class="g5" style="--gs:5" x="761" y="364">⑤</text><path class="g5 aligned" style="--gs:5" d="M761,364 Q793,425 770.13,444.88 Q632.88,564.13 610,584"/><path class="g5 offset" style="--gs:5" d="M665,364 Q681,398.38 669.56,409.58 Q600.94,476.8 589.5,488"/><text class="g6" style="--gs:6" x="113" y="816">⑥</text><path class="g6 aligned" style="--gs:6" d="M113,816 Q179,839 336.5,827 Q809,791 836,799.75 Q890,817.25 917,826"/><path class="g6 offset" style="--gs:6" d="M113,912 Q179,935 336.5,923 Q809,887 836,895.75 Q890,913.25 917,922"/></g>
</svg>
