<svg id="z20123" class="acjk" viewBox="0 0 1024 1024" xmlns="http://www.w3.org/2000/svg">
<style>

@keyframes zk {
	to {
		stroke-dashoffset:0;
	}
}
svg.acjk path[clip-path] {
	--t:0.8s;
	animation:zk var(--t) linear forwards var(--d);
	stroke-dasharray:3337;
	stroke-dashoffset:3339;
	stroke-width:128;
	stroke-linecap:round;
	fill:none;
	stroke:#000;
}
svg.acjk path[id] {fill:#ccc;}


    @keyframes guide-fade {
        0% { opacity: 0; }
        3% { opacity: 1; }
        95% { opacity: 1; }
        100% { opacity: 0; }
    }

    svg.acjk #guide-arrow {
        fill: #f77;
    }

    svg.acjk .guides {
        circle {
            fill: #0f6;
        }

        path {
            opacity: 0;
            animation: guide-fade var(--t) linear forwards var(--d);
            stroke-width: 16px;
            stroke-linecap: round;
            stroke: #f77;
            fill: none;
            marker-end: url(#guide-arrow);
        }

        circle,
        path {
            --t: 0.8s;
            opacity: 0;
            animation: guide-fade calc(var(--t) + 0.4s) ease-in-out forwards calc(var(--d) - 0.2s);
        }
    }
</style>
<path id="z20123d1" d="M406 521C406 463 405 407 405 353C405 332 405 332 405 321C405 291 406 239 415 168C415 161 412 152 398 145C375 133 356 128 341 127C330 126 323 128 319 133C314 137 314 145 321 155C336 176 345 193 347 209C356 307 364 415 368 532C368 545 406 534 406 521Z"/>
<path id="z20123d2" d="M405 353C447 342 485 334 517 326C531 322 536 314 530 307C521 297 508 294 492 293C463 291 434 300 405 321C396 327 395 355 405 353Z"/>
<path id="z20123d3" d="M294 551C283 453 279 394 281 374C282 359 277 348 268 342C253 331 236 324 218 319C209 316 202 317 197 322C192 326 191 333 197 342C209 362 219 382 226 404C232 424 241 477 255 561C258 574 297 564 294 551Z"/>
<path id="z20123d4" d="M255 561C236 565 218 570 200 574C179 578 165 578 141 578C131 577 125 582 124 590C122 598 123 607 131 613C146 625 166 639 190 653C196 656 204 654 214 648C248 626 331 591 461 540C481 531 502 519 524 509C532 504 540 498 539 492C537 486 528 485 520 488C483 498 445 509 406 521C381 528 381 528 368 532C343 539 318 544 294 551C268 558 268 558 255 561Z"/>
<path id="z20123d5" d="M608 368C646 357 706 336 786 306C802 299 820 294 839 292C855 289 863 281 859 267C854 251 842 237 828 222C814 207 802 200 793 199C784 197 779 201 779 212C777 234 746 262 688 297C662 312 636 329 608 346C602 350 601 369 608 368Z"/>
<path id="z20123d6" d="M934 536C924 509 913 473 907 428C905 417 903 409 898 406C892 401 888 407 885 422C871 476 859 507 851 516C836 531 796 541 728 541C693 540 667 535 652 528C625 515 608 460 608 368C608 353 608 353 608 346C608 260 618 196 634 156C642 135 641 118 627 107C592 79 569 68 558 72C547 75 544 84 550 96C563 122 568 154 567 193C560 403 572 523 600 552C614 567 640 578 678 586C711 593 756 596 811 597C859 597 894 593 914 584C934 574 942 557 934 536Z"/>
<path id="z20123d7" d="M379 668C352 671 348 681 367 693C395 711 430 714 473 705C518 695 565 687 613 678C635 673 647 669 651 667C657 661 658 655 655 649C650 640 637 633 616 628C595 623 573 625 551 634C526 642 501 649 475 655C445 661 412 663 379 668Z"/>
<path id="z20123d8" d="M202 844C187 845 184 852 196 865C206 876 218 883 231 887C247 891 260 892 272 889C385 858 562 844 800 844C812 844 825 844 839 845C853 845 863 842 867 836C871 827 867 817 855 808C816 777 783 766 756 772C642 794 457 818 202 844Z"/>
<defs>
	<clipPath id="z20123c1"><use href="#z20123d1"/></clipPath>
	<clipPath id="z20123c2"><use href="#z20123d2"/></clipPath>
	<clipPath id="z20123c3"><use href="#z20123d3"/></clipPath>
	<clipPath id="z20123c4"><use href="#z20123d4"/></clipPath>
	<clipPath id="z20123c5"><use href="#z20123d5"/></clipPath>
	<clipPath id="z20123c6"><use href="#z20123d6"/></clipPath>
	<clipPath id="z20123c7"><use href="#z20123d7"/></clipPath>
	<clipPath id="z20123c8"><use href="#z20123d8"/></clipPath>
<marker id="guide-arrow" viewBox="0 0 16 16" refX="5" refY="5" markerWidth="4" markerHeight="4" orient="auto-start-reverse"><path d="M 0 0 L 10 5 L 0 10 z" fill="inherit"/></marker></defs>
<path style="--d:1s;" pathLength="3333" clip-path="url(#z20123c1)" d="M323 138L380 185L379 527"/>
<path style="--d:2s;" pathLength="3333" clip-path="url(#z20123c2)" d="M413 343L525 310"/>
<path style="--d:3s;" pathLength="3333" clip-path="url(#z20123c3)" d="M200 329L252 384L268 557"/>
<path style="--d:4s;" pathLength="3333" clip-path="url(#z20123c4)" d="M127 590L197 615L532 496"/>
<path style="--d:5s;" pathLength="3333" clip-path="url(#z20123c5)" d="M788 208L807 265L614 359"/>
<path style="--d:6s;" pathLength="3333" clip-path="url(#z20123c6)" d="M555 81L601 132L587 371L620 534L709 565L868 555L897 533L897 411"/>
<path style="--d:7s;" pathLength="3333" clip-path="url(#z20123c7)" d="M362 678L653 656"/>
<path style="--d:8s;" pathLength="3333" clip-path="url(#z20123c8)" d="M195 853L262 864L767 807L864 823"/>
<g class="guides"><circle style="--d: 1s" class="g1" cx="323" cy="138" r="16"/><path style="--d: 1s;" class="g1" d="M227,138 Q284,185 283.875,227.75 Q283.125,484.25 283,527"/><circle style="--d: 2s" class="g2" cx="413" cy="343" r="16"/><path style="--d: 2s;" class="g2" d="M413,439 L525,406"/><circle style="--d: 3s" class="g3" cx="200" cy="329" r="16"/><path style="--d: 3s;" class="g3" d="M285.68,260.456 Q337.68,315.456 339.68,337.081 Q351.68,466.831 353.68,488.456"/><circle style="--d: 4s" class="g4" cx="127" cy="590" r="16"/><path style="--d: 4s;" class="g4" d="M127,686 Q197,711 238.875,696.125 Q490.125,606.875 532,592"/><circle style="--d: 5s" class="g5" cx="788" cy="208" r="16"/><path style="--d: 5s;" class="g5" d="M692,208 Q701.5,236.5 689.4375,242.375 Q617.0625,277.625 605,283.5"/><circle style="--d: 6s" class="g6" cx="555" cy="81" r="16"/><path style="--d: 6s;" class="g6" d="M623.544,12.456000000000003 Q647.4123508771929,63.456 643.7802105263157,182.95600000000002 Q640.1480701754385,302.456 648.7095438596491,383.956 Q657.2710175438597,465.456 680.361052631579,480.956 Q703.4510877192982,496.456 744.7018245614036,491.456 Q785.9525614035088,486.456 793.4762807017544,475.456 Q801,464.456 801,403.456 Q801,403.456 801,342.456"/><circle style="--d: 7s" class="g7" cx="362" cy="678" r="16"/><path style="--d: 7s;" class="g7" d="M362,774 L653,752"/><circle style="--d: 8s" class="g8" cx="195" cy="853" r="16"/><path style="--d: 8s;" class="g8" d="M195,949 Q262,960 388.25,945.75 Q767,903 791.25,907 Q839.75,915 864,919"/></g></svg>