<svg id="z20124" class="acjk" viewBox="0 0 1024 1024" xmlns="http://www.w3.org/2000/svg">
<style>

@keyframes zk {
	to {
		stroke-dashoffset:0;
	}
}
svg.acjk path[clip-path] {
	--t:0.8s;
	animation:zk var(--t) linear forwards var(--d);
	stroke-dasharray:3337;
	stroke-dashoffset:3339;
	stroke-width:128;
	stroke-linecap:round;
	fill:none;
	stroke:#000;
}
svg.acjk path[id] {fill:#ccc;}


    @keyframes guide-fade {
        0% { opacity: 0; }
        3% { opacity: 1; }
        95% { opacity: 1; }
        100% { opacity: 0; }
    }

    svg.acjk #guide-arrow {
        fill: #f77;
    }

    svg.acjk .guides {
        circle {
            fill: #0f6;
        }

        path {
            opacity: 0;
            animation: guide-fade var(--t) linear forwards var(--d);
            stroke-width: 16px;
            stroke-linecap: round;
            stroke: #f77;
            fill: none;
            marker-end: url(#guide-arrow);
        }

        circle,
        path {
            --t: 0.8s;
            opacity: 0;
            animation: guide-fade calc(var(--t) + 0.4s) ease-in-out forwards calc(var(--d) - 0.2s);
        }
    }
</style>
<path id="z20124d1" d="M600 192C704 178 756 160 760 158C767 151 769 145 766 137C761 126 747 116 724 110C702 103 652 114 575 132C464 157 366 165 283 170C253 171 247 184 269 199C296 217 329 228 363 224C401 219 401 219 420 217C459 212 500 204 545 199C582 194 582 194 600 192Z"/>
<path id="z20124d2" d="M305 679C293 678 286 664 279 655C262 632 260 603 253 577C238 528 220 480 195 436C191 429 188 416 196 413C213 405 239 415 248 419C264 425 277 442 280 459C286 508 298 550 306 600C310 625 310 625 312 638C315 657 311 679 305 679Z"/>
<path id="z20124d3" d="M679 539C690 501 702 464 706 424C706 414 702 402 692 399C676 393 640 398 615 401C577 406 577 406 558 408C517 412 460 421 438 424C399 431 399 431 380 434C346 439 313 448 280 459C264 464 231 419 248 419C285 416 335 408 380 401C419 394 419 394 438 391C476 384 529 376 558 371C597 365 597 365 617 362C648 356 673 347 688 343C712 334 738 348 758 363C777 376 795 392 810 409C819 419 816 434 809 445C801 454 791 463 784 474C767 496 754 522 743 548C735 568 675 560 679 539Z"/>
<path id="z20124d4" d="M306 600C330 597 355 594 380 591C417 585 417 585 436 582C475 576 509 569 555 561C591 554 591 554 609 550C632 546 655 542 679 539C700 535 728 533 743 548C751 557 764 565 765 578C765 587 753 586 747 587C710 587 658 594 606 599C572 602 572 602 555 604C492 610 440 618 435 619C399 625 399 625 381 628C347 633 317 639 312 638C299 638 293 603 306 600Z"/>
<path id="z20124d5" d="M363 224C372 247 378 288 381 349C381 358 380 377 380 401C380 422 380 422 380 433C380 478 379 534 380 591C381 616 381 616 381 628C382 702 380 774 381 818C381 835 431 830 431 813C432 752 433 685 435 619C436 595 436 595 436 583C437 527 438 472 439 424C439 401 439 401 439 390C440 298 441 234 441 233C437 226 427 220 420 217C404 207 356 206 363 224Z"/>
<path id="z20124d6" d="M597 794C599 750 603 676 607 596C608 565 608 565 609 550C611 499 613 447 615 401C616 375 616 375 617 362C618 322 620 290 621 271C623 234 623 212 622 210C617 202 610 198 600 192C584 182 538 182 545 199C553 214 558 271 558 371C559 395 559 395 559 407C559 429 557 493 556 561C555 590 555 590 555 604C553 686 549 768 549 800C549 816 597 810 597 794Z"/>
<path id="z20124d7" d="M381 818C281 828 193 831 87 848C52 853 133 904 162 898C414 836 674 832 933 838C1006 839 920 764 886 757C843 748 800 763 759 770C708 778 655 786 597 794C565 798 565 798 549 800C486 807 449 811 431 813C398 816 398 816 381 818Z"/>
<defs>
	<clipPath id="z20124c1"><use href="#z20124d1"/></clipPath>
	<clipPath id="z20124c2"><use href="#z20124d2"/></clipPath>
	<clipPath id="z20124c3"><use href="#z20124d3"/></clipPath>
	<clipPath id="z20124c4"><use href="#z20124d4"/></clipPath>
	<clipPath id="z20124c5"><use href="#z20124d5"/></clipPath>
	<clipPath id="z20124c6"><use href="#z20124d6"/></clipPath>
	<clipPath id="z20124c7"><use href="#z20124d7"/></clipPath>
<marker id="guide-arrow" viewBox="0 0 16 16" refX="5" refY="5" markerWidth="4" markerHeight="4" orient="auto-start-reverse"><path d="M 0 0 L 10 5 L 0 10 z" fill="inherit"/></marker></defs>
<path style="--d:1s;" pathLength="3333" clip-path="url(#z20124c1)" d="M263 181L357 195L764 140"/>
<path style="--d:2s;" pathLength="3333" clip-path="url(#z20124c2)" d="M197 422L250 472L300 671"/>
<path style="--d:3s;" pathLength="3333" clip-path="url(#z20124c3)" d="M261 429L707 371L761 428L707 542"/>
<path style="--d:4s;" pathLength="3333" clip-path="url(#z20124c4)" d="M314 603L341 616L759 569"/>
<path style="--d:5s;" pathLength="3333" clip-path="url(#z20124c5)" d="M371 226L407 256L406 815"/>
<path style="--d:6s;" pathLength="3333" clip-path="url(#z20124c6)" d="M552 200L588 231L565 798"/>
<path style="--d:7s;" pathLength="3333" clip-path="url(#z20124c7)" d="M92 856L161 868L835 794L958 815"/>
<g class="guides"><circle style="--d: 1s" class="g1" cx="263" cy="181" r="16"/><path style="--d: 1s;" class="g1" d="M263,277 Q357,291 407.875,284.125 Q713.125,242.875 764,236"/><circle style="--d: 2s" class="g2" cx="197" cy="422" r="16"/><path style="--d: 2s;" class="g2" d="M282.68,353.456 Q335.68,403.456 341.93,428.331 Q379.43,577.581 385.68,602.456"/><circle style="--d: 3s" class="g3" cx="261" cy="429" r="16"/><path style="--d: 3s;" class="g3" d="M261,525 Q599.96,467 610.22,481.25 Q641,524 630.74,531.125 Q610.22,545.375 599.96,552.5"/><circle style="--d: 4s" class="g4" cx="328" cy="610" r="16"/><path style="--d: 4s;" class="g4" d="M328,706 L759,665"/><circle style="--d: 5s" class="g5" cx="371" cy="226" r="16"/><path style="--d: 5s;" class="g5" d="M275,226 Q311,256 310.875,325.875 Q310.125,745.125 310,815"/><circle style="--d: 6s" class="g6" cx="552" cy="200" r="16"/><path style="--d: 6s;" class="g6" d="M456,200 Q492,231 489.125,301.875 Q471.875,727.125 469,798"/><circle style="--d: 7s" class="g7" cx="92" cy="856" r="16"/><path style="--d: 7s;" class="g7" d="M92,952 Q161,964 329.5,945.5 Q835,890 865.75,895.25 Q927.25,905.75 958,911"/></g></svg>