<!--
  Stroke-order data for 亠, derived from AnimCJK (https://github.com/parsimonhi/animCJK),
  itself derived from the Arphic PL KaitiM fonts. Distributed under the Arphic Public License
  (see ARPHICPL.TXT). Regenerated by scripts/build-strokes.ts — do not edit by hand.
-->
<svg id="z20128" class="acjk" viewBox="0 0 1024 1024" xmlns="http://www.w3.org/2000/svg">
<g class="glyph"><path id="z20128d1" d="M437 356C463 374 491 394 519 417C529 425 540 429 552 428C559 427 566 422 569 412C572 401 568 385 560 363C549 337 506 317 428 304C416 301 408 302 404 305C400 307 397 313 401 323C404 332 417 342 437 356Z"/><path id="z20128d2" d="M325 565C513 523 690 507 854 524C880 526 906 511 886 492C866 472 832 445 799 444C776 443 750 452 650 468C624 471 471 488 315 510C274 515 222 520 160 522C151 522 145 525 145 534C143 542 150 552 164 562C175 570 191 585 214 587C251 589 294 571 325 565Z"/></g>
<defs><clipPath id="z20128c1"><use href="#z20128d1"/></clipPath>
	<clipPath id="z20128c2"><use href="#z20128d2"/></clipPath><marker id="guide-arrow" viewBox="0 0 16 16" refX="5" refY="5" markerWidth="4" markerHeight="4" orient="auto-start-reverse"><path d="M 0 0 L 10 5 L 0 10 z" fill="inherit"/></marker></defs>
<g class="strokes"><path pathLength="3333" clip-path="url(#z20128c1)" d="M404 310L564 416"/><path pathLength="3333" clip-path="url(#z20128c2)" d="M150 533L247 551L776 481L889 500"/></g>
<g class="guides"><text class="g1" style="--gs:1" x="404" y="310">①</text><path class="g1 aligned" style="--gs:1" d="M404,310 L564,416"/><path class="g1 offset" style="--gs:1" d="M489.68,241.46 L649.68,347.46"/><text class="g2" style="--gs:2" x="150" y="533">②</text><path class="g2 aligned" style="--gs:2" d="M150,533 Q247,551 379.25,533.5 Q776,481 804.25,485.75 Q860.75,495.25 889,500"/><path class="g2 offset" style="--gs:2" d="M150,629 Q247,647 379.25,629.5 Q776,577 804.25,581.75 Q860.75,591.25 889,596"/></g>
</svg>
