<!--
  Stroke-order data for 亼, derived from AnimCJK (https://github.com/parsimonhi/animCJK),
  itself derived from the Arphic PL KaitiM fonts. Distributed under the Arphic Public License
  (see ARPHICPL.TXT). Regenerated by scripts/build-strokes.ts — do not edit by hand.
-->
<svg id="z20156" class="acjk" viewBox="0 0 1024 1024" xmlns="http://www.w3.org/2000/svg">
<g class="glyph"><path id="z20156d1" d="M529 191C539 173 552 155 566 144C572 138 575 133 574 126C570 107 547 90 537 84C513 70 495 65 482 68C475 69 472 74 474 85C477 114 471 152 453 198C376 386 238 506 83 626C77 630 77 637 85 635C293 562 409 403 516 214C525 199 525 199 529 191Z"/><path id="z20156d2" d="M516 214C571 294 629 372 688 451C728 505 756 534 772 539C821 552 886 552 966 545C979 543 987 542 990 539C993 534 989 527 976 522C809 449 769 431 753 416C676 344 623 288 529 191C523 184 511 207 516 214Z"/><path id="z20156d3" d="M619 778C702 771 790 773 880 784C900 786 911 783 913 774C914 766 913 758 907 753C869 716 826 698 780 703C716 708 556 733 492 740C381 750 267 761 157 761C146 760 141 764 141 773C141 781 145 792 159 802C183 820 205 830 223 827C357 801 506 786 619 778Z"/></g>
<defs><clipPath id="z20156c1"><use href="#z20156d1"/></clipPath>
	<clipPath id="z20156c2"><use href="#z20156d2"/></clipPath>
	<clipPath id="z20156c3"><use href="#z20156d3"/></clipPath><marker id="guide-arrow" viewBox="0 0 16 16" refX="5" refY="5" markerWidth="4" markerHeight="4" orient="auto-start-reverse"><path d="M 0 0 L 10 5 L 0 10 z" fill="inherit"/></marker></defs>
<g class="strokes"><path pathLength="3333" clip-path="url(#z20156c1)" d="M481 72L522 136L387 369L244 523L86 629"/><path pathLength="3333" clip-path="url(#z20156c2)" d="M528 199L765 477L985 535"/><path pathLength="3333" clip-path="url(#z20156c3)" d="M150 772L225 793L767 739L908 770"/></g>
<g class="guides"><text class="g1" style="--gs:1" x="481" y="72">①</text><path class="g1 aligned" style="--gs:1" d="M481,72 Q522,136 454.5,252.5 Q387,369 315.5,446 Q244,523 165,576 Q165,576 86,629"/><path class="g1 offset" style="--gs:1" d="M385,72 Q416.97,124.97 364.33,221.39 Q311.7,317.81 255.94,381.54 Q200.18,445.27 138.58,489.13 Q138.58,489.13 76.97,533"/><text class="g2" style="--gs:2" x="528" y="199">②</text><path class="g2 aligned" style="--gs:2" d="M528,199 Q765,477 792.5,484.25 Q957.5,527.75 985,535"/><path class="g2 offset" style="--gs:2" d="M613.68,130.46 Q806.25,385.74 828.59,392.4 Q962.66,432.34 985,439"/><text class="g3" style="--gs:3" x="150" y="772">③</text><path class="g3 aligned" style="--gs:3" d="M150,772 Q225,793 360.5,779.5 Q767,739 802.25,746.75 Q872.75,762.25 908,770"/><path class="g3 offset" style="--gs:3" d="M150,868 Q225,889 360.5,875.5 Q767,835 802.25,842.75 Q872.75,858.25 908,866"/></g>
</svg>
