<!--
  Stroke-order data for 从, derived from AnimCJK (https://github.com/parsimonhi/animCJK),
  itself derived from the Arphic PL KaitiM fonts. Distributed under the Arphic Public License
  (see ARPHICPL.TXT). Regenerated by scripts/build-strokes.ts — do not edit by hand.
-->
<svg id="z20174" class="acjk" viewBox="0 0 1024 1024" xmlns="http://www.w3.org/2000/svg">
<g class="glyph"><path id="z20174d1" d="M309 570C327 499 339 421 346 335C348 309 353 280 366 251C369 241 369 234 362 228C348 215 326 202 299 190C282 182 267 179 255 184C238 189 236 200 249 214C270 237 280 260 281 285C285 498 247 717 46 853C41 856 48 862 60 860C187 833 274 702 303 593C307 578 307 578 309 570Z"/><path id="z20174d2" d="M303 593C327 617 365 660 415 724C424 736 432 745 442 749C446 750 451 747 457 742C465 734 466 716 461 690C454 654 403 614 309 570C302 567 297 587 303 593Z"/><path id="z20174d3" d="M647 533C657 489 667 408 680 291C683 260 688 226 702 191C705 181 705 174 698 168C684 155 662 142 635 130C618 122 603 119 591 124C574 129 572 140 585 154C606 177 617 200 617 225C615 339 607 434 591 509C555 667 483 776 375 864C359 876 353 888 372 885C518 852 606 695 637 573C644 546 644 546 647 533Z"/><path id="z20174d4" d="M637 573C741 765 809 863 842 865C887 866 930 865 970 868C1010 870 1007 860 971 841C877 790 819 757 800 735C745 674 694 607 647 533C640 521 631 561 637 573Z"/></g>
<defs><clipPath id="z20174c1"><use href="#z20174d1"/></clipPath>
	<clipPath id="z20174c2"><use href="#z20174d2"/></clipPath>
	<clipPath id="z20174c3"><use href="#z20174d3"/></clipPath>
	<clipPath id="z20174c4"><use href="#z20174d4"/></clipPath><marker id="guide-arrow" viewBox="0 0 16 16" refX="5" refY="5" markerWidth="4" markerHeight="4" orient="auto-start-reverse"><path d="M 0 0 L 10 5 L 0 10 z" fill="inherit"/></marker></defs>
<g class="strokes"><path pathLength="3333" clip-path="url(#z20174c1)" d="M246 198L323 259L277 579L197 742L52 854"/><path pathLength="3333" clip-path="url(#z20174c2)" d="M308 575L426 686L449 743"/><path pathLength="3333" clip-path="url(#z20174c3)" d="M582 137L659 197L605 576L515 758L369 879"/><path pathLength="3333" clip-path="url(#z20174c4)" d="M643 542L807 788L863 828L994 859"/></g>
<g class="guides"><text class="g1" style="--gs:1" x="246" y="198">①</text><path class="g1 aligned" style="--gs:1" d="M246,198 Q323,259 300,419 Q277,579 237,660.5 Q197,742 124.5,798 Q124.5,798 52,854"/><path class="g1 offset" style="--gs:1" d="M150,198 Q199.72,250.07 184.87,386.66 Q170.02,523.24 144.19,592.82 Q118.36,662.39 71.54,710.2 Q71.54,710.2 24.72,758"/><text class="g2" style="--gs:2" x="308" y="575">②</text><path class="g2 aligned" style="--gs:2" d="M308,575 Q426,686 428.88,693.13 Q446.13,735.88 449,743"/><path class="g2 offset" style="--gs:2" d="M393.68,506.46 Q511.68,617.46 514.55,624.58 Q531.8,667.33 534.68,674.46"/><text class="g3" style="--gs:3" x="582" y="137">③</text><path class="g3 aligned" style="--gs:3" d="M582,137 Q659,197 632,386.5 Q605,576 560,667 Q515,758 442,818.5 Q442,818.5 369,879"/><path class="g3 offset" style="--gs:3" d="M486,137 Q537.51,189.24 519.45,354.22 Q501.39,519.2 471.28,598.43 Q441.18,677.65 392.34,730.33 Q392.34,730.33 343.51,783"/><text class="g4" style="--gs:4" x="643" y="542">④</text><path class="g4 aligned" style="--gs:4" d="M643,542 Q807,788 821,798 Q863,828 895.75,835.75 Q961.25,851.25 994,859"/><path class="g4 offset" style="--gs:4" d="M728.68,473.46 Q852.65,698.15 863.23,707.28 Q894.98,734.68 919.73,741.76 Q969.24,755.92 994,763"/></g>
</svg>
