<svg id="z20184" class="acjk" viewBox="0 0 1024 1024" xmlns="http://www.w3.org/2000/svg">
<style>

@keyframes zk {
	to {
		stroke-dashoffset:0;
	}
}
svg.acjk path[clip-path] {
	--t:0.8s;
	animation:zk var(--t) linear forwards var(--d);
	stroke-dasharray:3337;
	stroke-dashoffset:3339;
	stroke-width:128;
	stroke-linecap:round;
	fill:none;
	stroke:#000;
}
svg.acjk path[id] {fill:#ccc;}


    @keyframes guide-fade {
        0% { opacity: 0; }
        3% { opacity: 1; }
        95% { opacity: 1; }
        100% { opacity: 0; }
    }

    svg.acjk #guide-arrow {
        fill: #f77;
    }

    svg.acjk .guides {
        circle {
            fill: #0f6;
        }

        path {
            opacity: 0;
            animation: guide-fade var(--t) linear forwards var(--d);
            stroke-width: 16px;
            stroke-linecap: round;
            stroke: #f77;
            fill: none;
            marker-end: url(#guide-arrow);
        }

        circle,
        path {
            --t: 0.8s;
            opacity: 0;
            animation: guide-fade calc(var(--t) + 0.4s) ease-in-out forwards calc(var(--d) - 0.2s);
        }
    }
</style>
<path id="z20184d1" d="M291 365C381 231 419 163 421 155C423 136 387 110 380 105C359 90 341 83 327 85C312 86 307 96 315 113C326 137 327 160 319 183C267 310 182 450 59 600C51 609 46 615 45 620C42 628 46 631 58 629C90 621 201 498 264 405C282 378 282 378 291 365Z"/>
<path id="z20184d2" d="M264 405C284 447 287 531 271 655C266 689 259 725 249 761C239 793 246 826 271 858C291 884 303 861 307 852C317 824 321 793 322 762C325 593 330 489 338 451C341 432 341 419 335 412C324 397 300 371 291 365C278 355 258 390 264 405Z"/>
<path id="z20184d3" d="M758 418C786 414 854 410 897 411C937 411 959 409 964 401C968 393 964 383 952 375C927 357 903 347 878 347C836 346 818 355 758 368C719 376 719 376 699 380C597 400 484 415 396 429C381 431 378 438 391 449C413 468 438 475 464 468C538 447 666 428 699 425C738 420 738 420 758 418Z"/>
<path id="z20184d4" d="M699 779C699 836 660 819 602 799C576 790 565 787 567 796C567 801 576 809 591 822C639 861 668 894 680 917C693 943 707 957 719 958C729 958 741 945 753 919C768 884 776 837 773 780C765 659 758 538 758 418C758 385 758 385 758 368C758 277 756 201 778 143C787 117 774 100 732 82C704 70 685 64 671 70C657 75 655 86 669 104C685 125 694 148 696 175C696 187 699 255 699 380C699 410 699 410 699 425C699 661 699 661 699 779Z"/>
<path id="z20184d5" d="M468 556C493 601 513 633 535 647C544 652 554 650 563 642C570 634 574 624 574 612C574 595 568 580 557 568C537 547 512 529 482 515C474 511 467 511 463 512C458 512 456 516 456 525C455 533 460 543 468 556Z"/>
<defs>
	<clipPath id="z20184c1"><use href="#z20184d1"/></clipPath>
	<clipPath id="z20184c2"><use href="#z20184d2"/></clipPath>
	<clipPath id="z20184c3"><use href="#z20184d3"/></clipPath>
	<clipPath id="z20184c4"><use href="#z20184d4"/></clipPath>
	<clipPath id="z20184c5"><use href="#z20184d5"/></clipPath>
<marker id="guide-arrow" viewBox="0 0 16 16" refX="5" refY="5" markerWidth="4" markerHeight="4" orient="auto-start-reverse"><path d="M 0 0 L 10 5 L 0 10 z" fill="inherit"/></marker></defs>
<path style="--d:1s;" pathLength="3333" clip-path="url(#z20184c1)" d="M318 93L368 140L354 198L195 459L53 622"/>
<path style="--d:2s;" pathLength="3333" clip-path="url(#z20184c2)" d="M287 368L308 441L287 866"/>
<path style="--d:3s;" pathLength="3333" clip-path="url(#z20184c3)" d="M392 437L448 446L852 379L960 391"/>
<path style="--d:4s;" pathLength="3333" clip-path="url(#z20184c4)" d="M665 80L737 142L734 811L702 905L573 798"/>
<path style="--d:5s;" pathLength="3333" clip-path="url(#z20184c5)" d="M465 515L558 644"/>
<g class="guides"><circle style="--d: 1s" class="g1" cx="318" cy="93" r="16"/><path style="--d: 1s;" class="g1" d="M222,93 Q256.76190476190476,131.47069943289225 251.89523809523808,155.20793950850663 Q247.0285714285714,178.94517958412098 191.75714285714287,285.76275992438565 Q136.4857142857143,392.5803402646503 87.12380952380953,459.29017013232516 Q87.12380952380953,459.29017013232516 37.76190476190476,526"/><circle style="--d: 2s" class="g2" cx="287" cy="368" r="16"/><path style="--d: 2s;" class="g2" d="M407,368 Q428,441 425.375,494.125 Q409.625,812.875 407,866"/><circle style="--d: 3s" class="g3" cx="392" cy="437" r="16"/><path style="--d: 3s;" class="g3" d="M392,533 Q448,542 549,525.25 Q852,475 879,478 Q933,484 960,487"/><circle style="--d: 4s" class="g4" cx="665" cy="80" r="16"/><path style="--d: 4s;" class="g4" d="M569,80 Q605,134.78545454545454 604.25,430.3618181818182 Q603.5,725.9381818181819 595.5,767.4690909090909 Q587.5,809 555.25,761.7254545454546 Q555.25,761.7254545454546 523,714.4509090909091"/><circle style="--d: 5s" class="g5" cx="465" cy="515" r="16"/><path style="--d: 5s;" class="g5" d="M550.68,446.456 L643.68,575.456"/></g></svg>