<svg id="z20238" class="acjk" viewBox="0 0 1024 1024" xmlns="http://www.w3.org/2000/svg">
<style>

@keyframes zk {
	to {
		stroke-dashoffset:0;
	}
}
svg.acjk path[clip-path] {
	--t:0.8s;
	animation:zk var(--t) linear forwards var(--d);
	stroke-dasharray:3337;
	stroke-dashoffset:3339;
	stroke-width:128;
	stroke-linecap:round;
	fill:none;
	stroke:#000;
}
svg.acjk path[id] {fill:#ccc;}


    @keyframes guide-fade {
        0% { opacity: 0; }
        3% { opacity: 1; }
        95% { opacity: 1; }
        100% { opacity: 0; }
    }

    svg.acjk #guide-arrow {
        fill: #f77;
    }

    svg.acjk .guides {
        circle {
            fill: #0f6;
        }

        path {
            opacity: 0;
            animation: guide-fade var(--t) linear forwards var(--d);
            stroke-width: 16px;
            stroke-linecap: round;
            stroke: #f77;
            fill: none;
            marker-end: url(#guide-arrow);
        }

        circle,
        path {
            --t: 0.8s;
            opacity: 0;
            animation: guide-fade calc(var(--t) + 0.4s) ease-in-out forwards calc(var(--d) - 0.2s);
        }
    }
</style>
<path id="z20238d1" d="M264 370Q366 214 378 203Q388 193 383 178Q379 165 350 140Q322 121 302 121Q283 122 291 146Q306 180 292 208Q252 302 192 390Q134 475 55 568Q45 578 42 585Q38 597 53 594Q86 591 237 407C255 382 255 382 264 370Z"/>
<path id="z20238d2" d="M237 407Q238 411 242 416Q258 450 259 482Q258 524 257 564Q254 676 222 793Q218 812 226 846Q238 880 249 892Q267 908 279 881Q294 841 293 794Q299 514 309 452Q316 425 307 414Q268 372 264 370C253 359 231 393 237 407Z"/>
<path id="z20238d3" d="M613 349Q685 328 761 309Q816 293 824 285Q833 276 828 268Q821 256 790 250Q759 246 729 259Q674 281 617 300C582 310 582 310 565 315Q502 330 432 342Q395 349 422 365Q467 389 526 371Q542 365 564 362C597 353 597 353 613 349Z"/>
<path id="z20238d4" d="M602 482Q608 415 613 349C616 316 616 316 617 300Q620 210 643 112Q647 102 626 85Q590 66 565 60Q549 56 540 65Q533 72 540 89Q564 123 563 147Q566 226 565 315C564 346 564 346 564 362Q563 426 558 498C558 514 602 498 602 482Z"/>
<path id="z20238d5" d="M641 719Q681 656 719 560Q731 529 752 508Q771 490 757 476Q742 463 708 452Q683 445 654 460Q630 470 602 482C573 493 573 493 558 498Q513 511 446 524Q430 525 426 534Q422 543 443 549Q483 562 536 542Q621 508 637 508Q659 509 655 534Q636 621 599 682C584 704 584 704 577 715Q505 803 360 847Q345 853 358 861Q365 867 411 863Q522 854 613 756C632 731 632 731 641 719Z"/>
<path id="z20238d6" d="M613 756Q760 915 824 910Q851 904 947 888Q960 885 974 879Q981 870 968 862Q952 855 822 823Q741 802 641 719C613 694 613 694 599 682Q562 648 523 605Q501 580 464 576Q452 575 443 582Q439 589 448 596Q455 602 464 606Q486 615 577 715C601 742 601 742 613 756Z"/>
<defs>
	<clipPath id="z20238c1"><use href="#z20238d1"/></clipPath>
	<clipPath id="z20238c2"><use href="#z20238d2"/></clipPath>
	<clipPath id="z20238c3"><use href="#z20238d3"/></clipPath>
	<clipPath id="z20238c4"><use href="#z20238d4"/></clipPath>
	<clipPath id="z20238c5"><use href="#z20238d5"/></clipPath>
	<clipPath id="z20238c6"><use href="#z20238d6"/></clipPath>
<marker id="guide-arrow" viewBox="0 0 16 16" refX="5" refY="5" markerWidth="4" markerHeight="4" orient="auto-start-reverse"><path d="M 0 0 L 10 5 L 0 10 z" fill="inherit"/></marker></defs>
<path style="--d:1s;" pathLength="3333" clip-path="url(#z20238c1)" d="M296 126L339 196L217 395L49 585"/>
<path style="--d:2s;" pathLength="3333" clip-path="url(#z20238c2)" d="M263 377L283 442L255 893"/>
<path style="--d:3s;" pathLength="3333" clip-path="url(#z20238c3)" d="M417 352L495 354L825 272"/>
<path style="--d:4s;" pathLength="3333" clip-path="url(#z20238c4)" d="M544 70L602 121L583 453L564 488"/>
<path style="--d:5s;" pathLength="3333" clip-path="url(#z20238c5)" d="M431 533L501 532L654 483L709 506L577 755L474 826L359 857"/>
<path style="--d:6s;" pathLength="3333" clip-path="url(#z20238c6)" d="M451 587L503 611L683 788L780 853L969 870"/>
<g class="guides"><circle style="--d: 1s" class="g1" cx="296" cy="126" r="16"/><path style="--d: 1s;" class="g1" d="M200,126 Q228.7655172413793,181.359477124183 208.36206896551724,220.70424836601308 Q147.15172413793104,338.73856209150324 119.05517241379312,376.3039215686274 Q62.862068965517246,451.43464052287584 34.765517241379314,489"/><circle style="--d: 2s" class="g2" cx="263" cy="377" r="16"/><path style="--d: 2s;" class="g2" d="M383,377 Q403,442 399.5,498.375 Q378.5,836.625 375,893"/><circle style="--d: 3s" class="g3" cx="417" cy="352" r="16"/><path style="--d: 3s;" class="g3" d="M417,448 Q495,450 536.25,439.75 Q783.75,378.25 825,368"/><circle style="--d: 4s" class="g4" cx="544" cy="70" r="16"/><path style="--d: 4s;" class="g4" d="M448,70 Q506,121 502.5,164.75 Q481.5,427.25 478,471"/><circle style="--d: 5s" class="g5" cx="431" cy="533" r="16"/><path style="--d: 5s;" class="g5" d="M335,629 Q385.8,628.5 441.3171428571428,616.25 Q496.83428571428567,604 516.7914285714285,609.75 Q536.7485714285714,615.5 488.8514285714285,677.75 Q440.9542857142857,740 403.58,757.75 Q366.2057142857143,775.5 324.4771428571429,783.25 Q324.4771428571429,783.25 282.74857142857144,791"/><circle style="--d: 6s" class="g6" cx="451" cy="587" r="16"/><path style="--d: 6s;" class="g6" d="M528.112,518.456 Q572.371027027027,542.456 648.9731891891892,630.956 Q725.5753513513513,719.456 766.8554054054053,751.956 Q808.1354594594594,784.456 888.5677297297298,792.956 Q888.5677297297298,792.956 969,801.456"/></g></svg>