<!--
  Stroke-order data for 伏, derived from AnimCJK (https://github.com/parsimonhi/animCJK),
  itself derived from the Arphic PL KaitiM fonts. Distributed under the Arphic Public License
  (see ARPHICPL.TXT). Regenerated by scripts/build-strokes.ts — do not edit by hand.
-->
<svg id="z20239" class="acjk" viewBox="0 0 1024 1024" xmlns="http://www.w3.org/2000/svg">
<g class="glyph"><path id="z20239d1" d="M251 409Q294 357 341 290Q371 242 396 219Q408 209 403 193Q399 178 369 152Q341 130 320 129Q299 130 307 155Q319 188 300 228Q224 381 61 559Q49 569 47 576Q43 588 58 586Q100 582 207 458Q214 449 223 441C242 420 242 420 251 409Z"/><path id="z20239d2" d="M223 441Q244 498 245 566Q244 578 244 591Q243 697 214 805Q204 850 238 901Q239 901 241 904Q259 920 271 893Q286 853 285 806Q288 550 297 492Q304 465 295 454Q256 412 251 409C241 399 218 428 223 441Z"/><path id="z20239d3" d="M593 461Q650 449 837 432Q859 429 864 420Q868 407 849 392Q780 353 722 375Q670 390 596 411C563 418 563 418 546 422Q458 443 356 466Q332 470 352 488Q368 501 389 506Q413 510 430 503Q482 484 542 472C576 465 576 465 593 461Z"/><path id="z20239d4" d="M589 496Q590 478 593 461C595 428 595 428 596 411Q608 195 626 156Q633 140 621 128Q596 109 554 98Q527 91 518 99Q508 106 517 120Q562 189 546 422C543 455 543 455 542 472Q524 640 455 738Q407 795 320 855Q307 865 308 869Q309 873 322 873Q338 877 380 858Q542 795 582 550C587 514 587 514 589 496Z"/><path id="z20239d5" d="M582 550Q754 883 816 887Q891 886 955 886Q983 885 983 879Q986 872 956 853Q809 778 755 718Q661 613 589 496C580 480 574 534 582 550Z"/><path id="z20239d6" d="M725 225Q765 253 810 286Q825 298 842 296Q852 295 857 280Q860 264 848 234Q838 209 799 194Q759 184 715 176Q699 173 692 177Q688 181 690 195Q694 205 725 225Z"/></g>
<defs><clipPath id="z20239c1"><use href="#z20239d1"/></clipPath>
	<clipPath id="z20239c2"><use href="#z20239d2"/></clipPath>
	<clipPath id="z20239c3"><use href="#z20239d3"/></clipPath>
	<clipPath id="z20239c4"><use href="#z20239d4"/></clipPath>
	<clipPath id="z20239c5"><use href="#z20239d5"/></clipPath>
	<clipPath id="z20239c6"><use href="#z20239d6"/></clipPath><marker id="guide-arrow" viewBox="0 0 16 16" refX="5" refY="5" markerWidth="4" markerHeight="4" orient="auto-start-reverse"><path d="M 0 0 L 10 5 L 0 10 z" fill="inherit"/></marker></defs>
<g class="strokes"><path pathLength="3333" clip-path="url(#z20239c1)" d="M313 138L348 173L352 212L228 397L56 580"/><path pathLength="3333" clip-path="url(#z20239c2)" d="M250 416L268 562L249 905"/><path pathLength="3333" clip-path="url(#z20239c3)" d="M351 474L405 481L721 409L857 402"/><path pathLength="3333" clip-path="url(#z20239c4)" d="M521 106L583 160L544 605L465 767L316 866"/><path pathLength="3333" clip-path="url(#z20239c5)" d="M591 511L665 652L785 805L837 844L978 873"/><path pathLength="3333" clip-path="url(#z20239c6)" d="M698 185L793 230L852 287"/></g>
<g class="guides"><text class="g1" style="--gs:1" x="313" y="138">①</text><path class="g1 aligned" style="--gs:1" d="M313,138 Q348,173 350,192.5 Q352,212 290,304.5 Q228,397 142,488.5 Q142,488.5 56,580"/><path class="g1 offset" style="--gs:1" d="M217,138 Q240.65,165.4 242,180.66 Q243.35,195.93 201.46,268.34 Q159.57,340.75 101.46,412.37 Q101.46,412.37 43.35,484"/><text class="g2" style="--gs:2" x="250" y="416">②</text><path class="g2 aligned" style="--gs:2" d="M250,416 Q268,562 265.63,604.88 Q251.38,862.13 249,905"/><path class="g2 offset" style="--gs:2" d="M370,416 Q388,562 385.63,604.88 Q371.38,862.13 369,905"/><text class="g3" style="--gs:3" x="351" y="474">③</text><path class="g3 aligned" style="--gs:3" d="M351,474 Q405,481 484,463 Q721,409 755,407.25 Q823,403.75 857,402"/><path class="g3 offset" style="--gs:3" d="M351,570 Q405,577 484,559 Q721,505 755,503.25 Q823,499.75 857,498"/><text class="g4" style="--gs:4" x="521" y="106">④</text><path class="g4 aligned" style="--gs:4" d="M521,106 Q583,160 563.5,382.5 Q544,605 504.5,686 Q465,767 390.5,816.5 Q390.5,816.5 316,866"/><path class="g4 offset" style="--gs:4" d="M425,106 Q464.71,153.18 452.22,347.57 Q439.73,541.97 414.43,612.74 Q389.13,683.51 341.42,726.75 Q341.42,726.75 293.71,770"/><text class="g5" style="--gs:5" x="591" y="511">⑤</text><path class="g5 aligned" style="--gs:5" d="M591,511 Q665,652 725,728.5 Q785,805 811,824.5 Q837,844 907.5,858.5 Q907.5,858.5 978,873"/><path class="g5 offset" style="--gs:5" d="M711,511 Q762.05,614.61 803.45,670.82 Q844.84,727.03 862.78,741.36 Q880.72,755.69 929.36,766.35 Q929.36,766.35 978,777"/><text class="g6" style="--gs:6" x="698" y="185">⑥</text><path class="g6 aligned" style="--gs:6" d="M698,185 Q793,230 800.38,237.13 Q844.63,279.88 852,287"/><path class="g6 offset" style="--gs:6" d="M783.68,116.46 Q878.68,161.46 886.06,168.58 Q930.31,211.33 937.68,218.46"/></g>
</svg>
