<!--
  Stroke-order data for 伴, derived from AnimCJK (https://github.com/parsimonhi/animCJK),
  itself derived from the Arphic PL KaitiM fonts. Distributed under the Arphic Public License
  (see ARPHICPL.TXT). Regenerated by scripts/build-strokes.ts — do not edit by hand.
-->
<svg id="z20276" class="acjk" viewBox="0 0 1024 1024" xmlns="http://www.w3.org/2000/svg">
<g class="glyph"><path id="z20276d1" d="M262 363Q293 320 330 266Q358 220 382 197Q392 187 387 171Q383 158 353 132Q325 113 305 112Q284 113 293 137Q306 168 294 195Q255 283 198 366Q143 445 68 531Q58 541 54 548Q50 561 66 558Q102 554 206 431Q218 416 232 401C252 376 252 376 262 363Z"/><path id="z20276d2" d="M232 401Q268 437 245 652Q238 706 225 761Q210 810 247 858Q248 861 252 864Q271 880 283 852Q298 810 298 762Q298 506 306 447Q313 417 287 389Q281 383 262 363C251 352 222 388 232 401Z"/><path id="z20276d3" d="M461 326Q477 344 493 366Q506 379 523 381Q535 381 541 367Q547 352 540 320Q534 296 459 275Q443 271 436 273Q430 277 431 290Q434 302 461 326Z"/><path id="z20276d4" d="M774 246Q770 255 715 333Q705 351 722 347Q767 325 818 293Q837 277 863 265Q885 255 874 236Q861 218 833 203Q808 188 794 192Q781 193 785 208Q789 227 774 246Z"/><path id="z20276d5" d="M651 466Q705 456 797 446Q807 447 817 434Q818 422 795 412Q761 388 657 421Q654 421 652 422C615 430 615 430 596 434Q539 440 456 451Q428 455 450 472Q481 499 511 491Q548 484 596 475C633 469 633 469 651 466Z"/><path id="z20276d6" d="M650 614Q741 604 879 604Q939 607 947 596Q953 584 936 570Q884 531 846 540Q773 556 650 576C613 581 613 581 595 584Q487 597 364 614Q343 615 359 633Q372 646 391 652Q413 658 428 653Q506 631 594 622C631 617 631 617 650 614Z"/><path id="z20276d7" d="M594 622Q588 914 608 948Q623 964 632 942Q650 903 650 614C650 589 650 589 650 576Q650 495 651 466C652 437 652 437 652 422Q653 179 675 146Q684 119 665 105Q640 86 595 73Q574 69 561 83Q551 90 564 104Q594 129 596 164Q596 258 596 434C596 461 596 461 596 475Q596 529 595 584C594 609 594 609 594 622Z"/></g>
<defs><clipPath id="z20276c1"><use href="#z20276d1"/></clipPath>
	<clipPath id="z20276c2"><use href="#z20276d2"/></clipPath>
	<clipPath id="z20276c3"><use href="#z20276d3"/></clipPath>
	<clipPath id="z20276c4"><use href="#z20276d4"/></clipPath>
	<clipPath id="z20276c5"><use href="#z20276d5"/></clipPath>
	<clipPath id="z20276c6"><use href="#z20276d6"/></clipPath>
	<clipPath id="z20276c7"><use href="#z20276d7"/></clipPath><marker id="guide-arrow" viewBox="0 0 16 16" refX="5" refY="5" markerWidth="4" markerHeight="4" orient="auto-start-reverse"><path d="M 0 0 L 10 5 L 0 10 z" fill="inherit"/></marker></defs>
<g class="strokes"><path pathLength="3333" clip-path="url(#z20276c1)" d="M298 118L341 188L214 385L61 551"/><path pathLength="3333" clip-path="url(#z20276c2)" d="M265 374L278 503L261 865"/><path pathLength="3333" clip-path="url(#z20276c3)" d="M438 279L508 331L528 376"/><path pathLength="3333" clip-path="url(#z20276c4)" d="M793 200L825 249L718 342"/><path pathLength="3333" clip-path="url(#z20276c5)" d="M449 460L811 427"/><path pathLength="3333" clip-path="url(#z20276c6)" d="M360 622L415 631L851 571L942 588"/><path pathLength="3333" clip-path="url(#z20276c7)" d="M565 88L636 144L618 946"/></g>
<g class="guides"><text class="g1" style="--gs:1" x="298" y="118">①</text><path class="g1 aligned" style="--gs:1" d="M298,118 Q341,188 309.25,237.25 Q214,385 175.75,426.5 Q99.25,509.5 61,551"/><path class="g1 offset" style="--gs:1" d="M202,118 Q230.26,172.48 209.39,210.81 Q146.8,325.8 121.66,358.1 Q71.39,422.7 46.26,455"/><text class="g2" style="--gs:2" x="265" y="374">②</text><path class="g2 aligned" style="--gs:2" d="M265,374 Q278,503 275.88,548.25 Q263.13,819.75 261,865"/><path class="g2 offset" style="--gs:2" d="M385,374 Q398,503 395.88,548.25 Q383.13,819.75 381,865"/><text class="g3" style="--gs:3" x="438" y="279">③</text><path class="g3 aligned" style="--gs:3" d="M438,279 Q508,331 510.5,336.63 Q525.5,370.38 528,376"/><path class="g3 offset" style="--gs:3" d="M523.68,210.46 Q593.68,262.46 596.18,268.08 Q611.18,301.83 613.68,307.46"/><text class="g4" style="--gs:4" x="793" y="200">④</text><path class="g4 aligned" style="--gs:4" d="M793,200 Q825,249 811.63,260.63 Q731.38,330.38 718,342"/><path class="g4 offset" style="--gs:4" d="M697,200 Q713,224.5 706.31,230.31 Q666.19,265.19 659.5,271"/><text class="g5" style="--gs:5" x="449" y="460">⑤</text><path class="g5 aligned" style="--gs:5" d="M449,460 L811,427"/><path class="g5 offset" style="--gs:5" d="M449,556 L811,523"/><text class="g6" style="--gs:6" x="360" y="622">⑥</text><path class="g6 aligned" style="--gs:6" d="M360,622 Q415,631 524,616 Q851,571 873.75,575.25 Q919.25,583.75 942,588"/><path class="g6 offset" style="--gs:6" d="M360,718 Q415,727 524,712 Q851,667 873.75,671.25 Q919.25,679.75 942,684"/><text class="g7" style="--gs:7" x="565" y="88">⑦</text><path class="g7 aligned" style="--gs:7" d="M565,88 Q636,144 633.75,244.25 Q620.25,845.75 618,946"/><path class="g7 offset" style="--gs:7" d="M469,88 Q540,144 537.75,244.25 Q524.25,845.75 522,946"/></g>
</svg>
