<!--
  Stroke-order data for 伸, derived from AnimCJK (https://github.com/parsimonhi/animCJK),
  itself derived from the Arphic PL KaitiM fonts. Distributed under the Arphic Public License
  (see ARPHICPL.TXT). Regenerated by scripts/build-strokes.ts — do not edit by hand.
-->
<svg id="z20280" class="acjk" viewBox="0 0 1024 1024" xmlns="http://www.w3.org/2000/svg">
<g class="glyph"><path style="--part:1" id="z20280d1" d="M257 359C286 325 317 285 348 240C369 208 387 185 404 170C411 163 412 154 410 144C407 135 397 121 377 104C359 88 342 81 329 82C316 82 310 91 316 107C322 127 322 151 309 179C257 284 177 393 69 507C61 514 56 519 55 524C52 532 55 535 66 534C89 531 156 473 229 391C248 370 248 370 257 359Z"/><path style="--part:1" id="z20280d2" d="M229 391C244 429 253 462 252 501C247 653 243 676 225 745C216 778 221 810 247 842C263 863 275 854 283 836C293 808 298 778 298 746C298 583 299 483 306 447C309 428 309 415 303 408C290 393 280 381 271 372C266 367 261 363 257 359C247 349 224 378 229 391Z"/><path style="--part:2" id="z20280d3" d="M453 334C444 330 430 327 412 323C403 321 397 320 395 324C390 328 391 336 397 348C421 405 439 480 450 573C453 600 459 625 475 644C487 659 495 661 499 651C501 643 504 634 504 625C504 608 504 608 504 599C504 586 502 572 500 559C483 462 473 400 469 370C466 357 465 339 453 334Z"/><path style="--part:2" id="z20280d4" d="M736 596C750 618 764 633 776 640C784 644 793 639 804 625C816 603 833 532 859 415C864 391 877 371 894 354C902 345 904 335 896 325C886 312 864 296 832 278C818 270 789 276 746 285C698 294 668 297 657 300C621 307 621 307 603 310C582 313 487 329 453 334C440 336 456 372 469 370C491 365 555 352 603 344C638 338 638 338 656 335C756 317 775 318 790 331C802 341 806 356 804 370C784 490 766 556 754 569C748 578 730 587 736 596Z"/><path style="--part:2" id="z20280d5" d="M655 471C681 466 707 462 731 459C745 456 750 450 745 443C738 434 727 427 711 425C697 422 678 424 655 431C655 431 620 440 603 445C577 451 527 464 527 464C516 466 515 475 530 482C543 487 570 484 603 479C638 474 638 474 655 471Z"/><path style="--part:2" id="z20280d6" d="M655 606C683 602 710 598 736 596C747 596 764 573 754 569C720 554 690 563 655 570C620 577 620 577 602 580C567 586 534 592 504 599C495 600 495 625 504 625C510 625 519 625 529 624C553 620 577 616 602 613C637 608 637 608 655 606Z"/><path style="--part:2" id="z20280d7" d="M602 613C602 821 600 938 616 960C624 972 634 968 640 954C652 919 655 803 655 606C655 582 655 582 655 570C655 566 655 500 655 471C655 444 655 444 655 431C655 396 655 364 656 335C657 312 657 312 657 300C659 207 668 150 681 128C686 117 681 106 668 96C651 83 628 72 600 65C587 61 576 65 568 74C561 80 561 87 570 95C590 112 603 132 603 157C603 157 603 259 603 310C603 333 603 333 603 344C603 377 603 411 603 445C603 468 603 468 603 479C603 529 602 563 602 580C602 602 602 602 602 613Z"/></g>
<defs><clipPath id="z20280c1"><use href="#z20280d1"/></clipPath>
	<clipPath id="z20280c2"><use href="#z20280d2"/></clipPath>
	<clipPath id="z20280c3"><use href="#z20280d3"/></clipPath>
	<clipPath id="z20280c4"><use href="#z20280d4"/></clipPath>
	<clipPath id="z20280c5"><use href="#z20280d5"/></clipPath>
	<clipPath id="z20280c6"><use href="#z20280d6"/></clipPath>
	<clipPath id="z20280c7"><use href="#z20280d7"/></clipPath><marker id="guide-arrow" viewBox="0 0 16 16" refX="5" refY="5" markerWidth="4" markerHeight="4" orient="auto-start-reverse"><path d="M 0 0 L 10 5 L 0 10 z" fill="inherit"/></marker></defs>
<g class="strokes"><path style="--part:1" pathLength="3333" clip-path="url(#z20280c1)" d="M323 87L362 136L358 168L187 405L60 525"/><path style="--part:1" pathLength="3333" clip-path="url(#z20280c2)" d="M255 366L277 494L253 846"/><path style="--part:2" pathLength="3333" clip-path="url(#z20280c3)" d="M399 330L439 376L488 651"/><path style="--part:2" pathLength="3333" clip-path="url(#z20280c4)" d="M463 340L774 300L832 322L851 355L763 628"/><path style="--part:2" pathLength="3333" clip-path="url(#z20280c5)" d="M531 472L739 447"/><path style="--part:2" pathLength="3333" clip-path="url(#z20280c6)" d="M508 617L748 574"/><path style="--part:2" pathLength="3333" clip-path="url(#z20280c7)" d="M568 81L641 131L629 962"/></g>
<g class="guides"><text class="g1" style="--gs:1" x="323" y="87">①</text><path class="g1 aligned" style="--gs:1" d="M323,87 Q362,136 360,152 Q358,168 272.5,286.5 Q187,405 123.5,465 Q123.5,465 60,525"/><path class="g1 offset" style="--gs:1" d="M227,87 Q253.6,125.26 252.24,137.75 Q250.87,150.25 192.55,242.77 Q134.23,335.3 90.92,382.15 Q90.92,382.15 47.6,429"/><text class="g2" style="--gs:2" x="255" y="366">②</text><path class="g2 aligned" style="--gs:2" d="M255,366 Q277,494 274,538 Q256,802 253,846"/><path class="g2 offset" style="--gs:2" d="M375,366 Q397,494 394,538 Q376,802 373,846"/><text class="g3" style="--gs:3" x="399" y="330">③</text><path class="g3 aligned" style="--gs:3" d="M399,330 Q439,376 445.13,410.38 Q481.88,616.63 488,651"/><path class="g3 offset" style="--gs:3" d="M484.68,261.46 Q524.68,307.46 530.8,341.83 Q567.55,548.08 573.68,582.46"/><text class="g4" style="--gs:4" x="463" y="340">④</text><path class="g4 aligned" style="--gs:4" d="M463,340 Q774,300 803,311 Q832,322 841.5,338.5 Q851,355 807,491.5 Q807,491.5 763,628"/><path class="g4 offset" style="--gs:4" d="M463,436 Q677.81,396 697.85,407 Q717.88,418 724.44,426.45 Q731,434.9 700.61,531.45 Q700.61,531.45 670.22,628"/><text class="g5" style="--gs:5" x="531" y="472">⑤</text><path class="g5 aligned" style="--gs:5" d="M531,472 L739,447"/><path class="g5 offset" style="--gs:5" d="M531,568 L739,543"/><text class="g6" style="--gs:6" x="508" y="617">⑥</text><path class="g6 aligned" style="--gs:6" d="M508,617 L748,574"/><path class="g6 offset" style="--gs:6" d="M508,713 L748,670"/><text class="g7" style="--gs:7" x="568" y="81">⑦</text><path class="g7 aligned" style="--gs:7" d="M568,81 Q641,131 639.5,234.88 Q630.5,858.13 629,962"/><path class="g7 offset" style="--gs:7" d="M472,81 Q545,131 543.5,234.88 Q534.5,858.13 533,962"/></g>
<g class="parts"><rect data-part="2" data-literal="申" role="button" tabindex="0" aria-label="Part 申" x="327" y="9" width="596" height="1015"/><rect data-part="1" data-literal="亻" data-radical="true" role="button" tabindex="0" aria-label="Part 亻 (radical)" x="0" y="15" width="434" height="903"/></g>
</svg>
