<!--
  Stroke-order data for 低, derived from AnimCJK (https://github.com/parsimonhi/animCJK),
  itself derived from the Arphic PL KaitiM fonts. Distributed under the Arphic Public License
  (see ARPHICPL.TXT). Regenerated by scripts/build-strokes.ts — do not edit by hand.
-->
<svg id="z20302" class="acjk" viewBox="0 0 1024 1024" xmlns="http://www.w3.org/2000/svg">
<g class="glyph"><path style="--part:1" id="z20302d1" d="M232 400C246 381 298 304 332 243C350 209 365 183 382 166C389 158 389 149 386 139C383 130 371 116 349 101C329 87 311 81 298 83C283 84 279 94 287 110C297 132 296 151 292 172C273 246 178 405 70 546C63 554 58 559 57 564C54 572 58 574 69 573C93 569 137 521 207 432C224 411 224 411 232 400Z"/><path style="--part:1" id="z20302d2" d="M207 432C221 458 230 499 231 553C231 629 225 700 209 765C200 798 206 829 231 862C232 863 233 865 236 868C248 878 259 874 267 856C277 828 282 798 282 766C280 617 280 525 286 491C289 472 289 459 283 452C267 431 249 414 232 400C221 392 201 420 207 432Z"/><path style="--part:2" id="z20302d3" d="M623 265C688 230 731 205 756 198C767 194 774 191 776 186C778 178 775 169 765 164C719 138 683 128 660 135C654 136 652 143 653 152C653 182 591 236 465 316C459 320 474 332 480 330C500 322 580 287 591 282C612 271 612 271 623 265Z"/><path style="--part:2" id="z20302d4" d="M465 316C455 310 438 302 414 297C402 294 394 296 391 300C386 305 387 314 396 326C415 355 428 400 431 483C431 495 431 509 431 525C430 630 407 665 369 712C360 721 359 732 365 747C371 766 380 781 391 790C399 796 408 795 417 783C443 747 498 688 585 609C594 600 600 593 602 587C603 582 602 581 597 582C591 583 554 604 487 645C481 648 477 648 476 647C471 644 469 638 470 627C472 429 478 371 481 349C482 341 481 335 480 330C479 323 471 319 465 316Z"/><path style="--part:2" id="z20302d5" d="M690 496C780 469 826 451 829 449C835 443 835 437 832 432C827 424 814 418 794 416C773 413 753 418 733 427C733 427 698 442 679 450C664 455 633 466 633 466C602 476 569 481 534 489C509 494 506 504 526 513C549 523 593 524 645 509C675 500 675 500 690 496Z"/><path style="--part:2" id="z20302d6" d="M645 509C660 563 689 637 751 723C770 749 793 772 820 793C855 820 885 838 909 841C927 843 938 829 934 806C929 782 927 718 932 610C932 601 930 596 926 595C922 594 919 598 916 608C907 632 899 657 891 682C880 714 869 730 858 730C846 729 829 716 807 693C783 669 762 642 741 608C720 575 698 530 690 496C683 465 683 465 679 450C673 425 663 371 678 324C684 303 666 284 623 265C612 261 585 272 591 282C603 300 612 324 616 355C620 393 628 451 633 466C641 495 641 495 645 509Z"/><path style="--part:2" id="z20302d7" d="M398 833C386 834 383 840 393 854C409 878 430 887 452 881C562 851 624 845 762 862C772 863 779 859 782 854C786 845 782 834 773 823C744 791 719 777 697 783C629 798 569 816 398 833Z"/></g>
<defs><clipPath id="z20302c1"><use href="#z20302d1"/></clipPath>
	<clipPath id="z20302c2"><use href="#z20302d2"/></clipPath>
	<clipPath id="z20302c3"><use href="#z20302d3"/></clipPath>
	<clipPath id="z20302c4"><use href="#z20302d4"/></clipPath>
	<clipPath id="z20302c5"><use href="#z20302d5"/></clipPath>
	<clipPath id="z20302c6"><use href="#z20302d6"/></clipPath>
	<clipPath id="z20302c7"><use href="#z20302d7"/></clipPath><marker id="guide-arrow" viewBox="0 0 16 16" refX="5" refY="5" markerWidth="4" markerHeight="4" orient="auto-start-reverse"><path d="M 0 0 L 10 5 L 0 10 z" fill="inherit"/></marker></defs>
<g class="strokes"><path style="--part:1" pathLength="3333" clip-path="url(#z20302c1)" d="M291 91L342 156L223 369L64 565"/><path style="--part:1" pathLength="3333" clip-path="url(#z20302c2)" d="M230 410L257 493L237 866"/><path style="--part:2" pathLength="3333" clip-path="url(#z20302c3)" d="M664 144L717 184L476 315"/><path style="--part:2" pathLength="3333" clip-path="url(#z20302c4)" d="M396 303L447 347L443 593L410 727L434 743L595 589"/><path style="--part:2" pathLength="3333" clip-path="url(#z20302c5)" d="M520 500L639 488L827 430"/><path style="--part:2" pathLength="3333" clip-path="url(#z20302c6)" d="M599 287L645 321L647 418L687 559L794 726L899 787L925 601"/><path style="--part:2" pathLength="3333" clip-path="url(#z20302c7)" d="M393 842L452 854L704 818L778 848"/></g>
<g class="guides"><text class="g1" style="--gs:1" x="291" y="91">①</text><path class="g1 aligned" style="--gs:1" d="M291,91 Q342,156 312.25,209.25 Q223,369 183.25,418 Q103.75,516 64,565"/><path class="g1 offset" style="--gs:1" d="M195,91 Q228.39,142.84 208.91,185.3 Q150.48,312.7 124.46,351.77 Q72.41,429.92 46.39,469"/><text class="g2" style="--gs:2" x="230" y="410">②</text><path class="g2 aligned" style="--gs:2" d="M230,410 Q257,493 254.5,539.63 Q239.5,819.38 237,866"/><path class="g2 offset" style="--gs:2" d="M350,410 Q377,493 374.5,539.63 Q359.5,819.38 357,866"/><text class="g3" style="--gs:3" x="664" y="144">③</text><path class="g3 aligned" style="--gs:3" d="M664,144 Q717,184 686.88,200.38 Q506.13,298.63 476,315"/><path class="g3 offset" style="--gs:3" d="M568,144 Q599.89,164 581.76,172.19 Q473.01,221.31 454.89,229.5"/><text class="g4" style="--gs:4" x="396" y="303">④</text><path class="g4 aligned" style="--gs:4" d="M396,303 Q447,347 445,470 Q443,593 426.5,660 Q410,727 422,735 Q434,743 514.5,666 Q514.5,666 595,589"/><path class="g4 offset" style="--gs:4" d="M481.68,234.46 Q532.68,270.91 530.68,372.82 Q528.68,474.72 512.18,530.23 Q495.68,585.74 507.68,592.37 Q519.68,599 600.18,535.2 Q600.18,535.2 680.68,471.41"/><text class="g5" style="--gs:5" x="520" y="500">⑤</text><path class="g5 aligned" style="--gs:5" d="M520,500 Q639,488 662.5,480.75 Q803.5,437.25 827,430"/><path class="g5 offset" style="--gs:5" d="M520,596 Q639,584 662.5,576.75 Q803.5,533.25 827,526"/><text class="g6" style="--gs:6" x="599" y="287">⑥</text><path class="g6 aligned" style="--gs:6" d="M599,287 Q645,321 646,369.5 Q647,418 667,488.5 Q687,559 740.5,642.5 Q794,726 846.5,756.5 Q899,787 912,694 Q912,694 925,601"/><path class="g6 offset" style="--gs:6" d="M667.54,218.46 Q690.54,252.46 691.04,300.96 Q691.54,349.46 701.54,419.96 Q711.54,490.46 738.29,573.96 Q765.04,657.46 791.29,687.96 Q817.54,718.46 824.04,625.46 Q824.04,625.46 830.54,532.46"/><text class="g7" style="--gs:7" x="393" y="842">⑦</text><path class="g7 aligned" style="--gs:7" d="M393,842 Q452,854 515,845 Q704,818 722.5,825.5 Q759.5,840.5 778,848"/><path class="g7 offset" style="--gs:7" d="M393,938 Q452,950 515,941 Q704,914 722.5,921.5 Q759.5,936.5 778,944"/></g>
<g class="parts"><rect data-part="2" data-literal="氐" role="button" tabindex="0" aria-label="Part 氐" x="321" y="72" width="676" height="854"/><rect data-part="1" data-literal="亻" data-radical="true" role="button" tabindex="0" aria-label="Part 亻 (radical)" x="0" y="19" width="414" height="919"/></g>
</svg>
