<!--
  Stroke-order data for 佛, derived from AnimCJK (https://github.com/parsimonhi/animCJK),
  itself derived from the Arphic PL KaitiM fonts. Distributed under the Arphic Public License
  (see ARPHICPL.TXT). Regenerated by scripts/build-strokes.ts — do not edit by hand.
-->
<svg id="z20315" class="acjk" viewBox="0 0 1024 1024" xmlns="http://www.w3.org/2000/svg">
<g class="glyph"><path style="--part:1" id="z20315d1" d="M239 328C267 290 297 247 326 199C345 165 362 139 379 123C385 116 387 108 384 98C381 89 370 76 350 61C331 47 315 41 302 42C289 42 284 51 291 67C300 89 301 109 293 129C266 191 234 253 195 313C156 370 111 429 59 492C52 499 47 504 46 509C43 516 48 524 57 518C144 454 190 392 215 360C231 339 231 339 239 328Z"/><path style="--part:1" id="z20315d2" d="M215 360C239 420 241 473 241 530C240 606 230 683 209 761C199 793 206 825 231 858C244 875 262 863 267 852C277 824 281 793 282 762C282 575 285 460 294 419C297 400 297 387 291 380C278 363 259 345 239 328C229 320 210 348 215 360Z"/><path style="--part:2" id="z20315d3" d="M786 335C802 299 819 278 833 267C847 254 842 239 826 228C808 215 792 204 775 194C764 187 752 187 738 193C722 199 703 205 683 210C649 218 649 218 632 222C616 225 567 238 552 242C520 249 520 249 504 253C472 260 446 265 426 268C417 269 412 270 411 276C410 280 416 286 431 294C458 307 480 296 506 289C536 280 536 280 551 276C564 272 617 260 632 258C665 252 665 252 682 249C707 244 742 236 748 246C752 254 746 283 732 332C725 349 779 352 786 335Z"/><path style="--part:2" id="z20315d4" d="M508 387C483 392 460 395 439 400C428 402 439 435 449 431C467 424 490 419 507 416C534 410 534 410 548 407C571 401 599 397 630 392C662 387 662 387 678 384C714 377 753 370 798 365C804 364 808 361 808 355C808 350 800 343 786 335C771 326 750 328 732 332C713 336 695 342 679 347C646 355 646 355 630 359C601 366 574 372 549 378C522 384 522 384 508 387Z"/><path style="--part:2" id="z20315d5" d="M439 400C433 393 427 388 421 385C408 378 398 376 393 379C388 381 387 387 390 395C400 425 397 462 376 505C371 513 360 523 350 536C342 544 340 553 346 561C351 568 361 575 373 586C379 591 388 591 399 585C423 570 456 557 498 547C529 539 529 539 544 535C570 528 598 522 628 517C661 511 661 511 677 508C759 492 808 488 821 501C832 511 826 563 806 651C803 659 798 667 791 672C785 675 759 669 716 651C705 646 699 644 699 650C697 655 704 663 714 675C735 702 748 728 757 750C762 764 773 768 786 761C820 742 846 702 863 640C883 564 899 524 908 516C918 506 919 496 915 491C908 482 889 471 858 456C843 449 825 445 807 451C759 463 719 468 677 477C645 483 645 483 629 486C599 491 571 497 546 503C516 510 516 510 501 513C477 518 454 523 432 530C421 533 414 530 416 523C426 479 439 449 449 431C455 422 446 409 439 400Z"/><path style="--part:2" id="z20315d6" d="M506 289C507 321 509 354 508 387C507 406 507 406 507 416C505 448 503 483 501 513C499 536 499 536 498 547C489 645 460 725 417 784C385 825 366 844 367 846C368 848 373 847 380 848C386 848 400 846 417 833C521 748 537 641 544 535C545 514 545 514 546 503C548 469 546 436 548 407C549 388 549 388 549 378C550 343 550 309 551 276C552 253 552 253 552 242C552 218 556 190 568 162C571 153 571 144 564 139C549 127 530 119 506 114C490 110 479 112 475 116C469 120 468 126 474 134C490 156 500 196 504 253C505 277 505 277 506 289Z"/><path style="--part:2" id="z20315d7" d="M628 517C619 792 623 941 633 963C633 964 634 967 636 969C645 979 653 976 659 963C670 934 677 783 677 508C677 487 677 487 677 477C677 444 677 413 678 384C679 359 679 359 679 347C679 310 681 277 682 249C683 223 683 223 683 210C684 163 691 128 706 102C711 91 706 81 694 71C677 58 656 48 628 41C616 38 606 41 598 49C591 55 591 61 600 69C620 87 632 108 633 134C633 158 632 187 632 222C632 246 632 246 632 258C632 288 630 322 630 359C630 381 630 381 630 392C630 420 630 452 629 486C628 507 628 507 628 517Z"/></g>
<defs><clipPath id="z20315c1"><use href="#z20315d1"/></clipPath>
	<clipPath id="z20315c2"><use href="#z20315d2"/></clipPath>
	<clipPath id="z20315c3"><use href="#z20315d3"/></clipPath>
	<clipPath id="z20315c4"><use href="#z20315d4"/></clipPath>
	<clipPath id="z20315c5"><use href="#z20315d5"/></clipPath>
	<clipPath id="z20315c6"><use href="#z20315d6"/></clipPath>
	<clipPath id="z20315c7"><use href="#z20315d7"/></clipPath><marker id="guide-arrow" viewBox="0 0 16 16" refX="5" refY="5" markerWidth="4" markerHeight="4" orient="auto-start-reverse"><path d="M 0 0 L 10 5 L 0 10 z" fill="inherit"/></marker></defs>
<g class="strokes"><path style="--part:1" pathLength="3333" clip-path="url(#z20315c1)" d="M294 50L341 113L200 344L53 510"/><path style="--part:1" pathLength="3333" clip-path="url(#z20315c2)" d="M235 331L264 450L239 860"/><path style="--part:2" pathLength="3333" clip-path="url(#z20315c3)" d="M417 275L757 217L794 257L740 340"/><path style="--part:2" pathLength="3333" clip-path="url(#z20315c4)" d="M438 413L801 356"/><path style="--part:2" pathLength="3333" clip-path="url(#z20315c5)" d="M397 385L422 426L380 536L396 558L732 482L848 483L871 512L812 694L775 717L706 653"/><path style="--part:2" pathLength="3333" clip-path="url(#z20315c6)" d="M476 120L531 164L518 573L476 728L376 844"/><path style="--part:2" pathLength="3333" clip-path="url(#z20315c7)" d="M598 56L669 105L645 970"/></g>
<g class="guides"><text class="g1" style="--gs:1" x="294" y="50">①</text><path class="g1 aligned" style="--gs:1" d="M294,50 Q341,113 305.75,170.75 Q200,344 163.25,385.5 Q89.75,468.5 53,510"/><path class="g1 offset" style="--gs:1" d="M198,50 Q229.33,99.85 205.83,145.55 Q135.33,282.64 110.83,315.48 Q61.83,381.16 37.33,414"/><text class="g2" style="--gs:2" x="235" y="331">②</text><path class="g2 aligned" style="--gs:2" d="M235,331 Q264,450 260.88,501.25 Q242.13,808.75 239,860"/><path class="g2 offset" style="--gs:2" d="M355,331 Q384,450 380.88,501.25 Q362.13,808.75 359,860"/><text class="g3" style="--gs:3" x="417" y="275">③</text><path class="g3 aligned" style="--gs:3" d="M417,275 Q757,217 766.25,227 Q794,257 780.5,277.75 Q753.5,319.25 740,340"/><path class="g3 offset" style="--gs:3" d="M417,371 Q665.01,313 671.76,323 Q692,353 682.15,373.75 Q662.46,415.25 652.61,436"/><text class="g4" style="--gs:4" x="438" y="413">④</text><path class="g4 aligned" style="--gs:4" d="M438,413 L801,356"/><path class="g4 offset" style="--gs:4" d="M438,509 L801,452"/><text class="g5" style="--gs:5" x="397" y="385">⑤</text><path class="g5 aligned" style="--gs:5" d="M397,385 Q422,426 401,481 Q380,536 388,547 Q396,558 564,520 Q732,482 790,482.5 Q848,483 859.5,497.5 Q871,512 841.5,603 Q812,694 793.5,705.5 Q775,717 740.5,685 Q740.5,685 706,653"/><path class="g5 offset" style="--gs:5" d="M328.46,453.54 Q377.24,494.54 336.26,549.54 Q295.28,604.54 310.89,615.54 Q326.5,626.54 654.32,588.54 Q982.14,550.54 1095.32,551.04 Q1208.49,551.54 1230.93,566.04 Q1253.37,580.54 1195.81,671.54 Q1138.25,762.54 1102.15,774.04 Q1066.05,785.54 998.73,753.54 Q998.73,753.54 931.41,721.54"/><text class="g6" style="--gs:6" x="476" y="120">⑥</text><path class="g6 aligned" style="--gs:6" d="M476,120 Q531,164 524.5,368.5 Q518,573 497,650.5 Q476,728 426,786 Q426,786 376,844"/><path class="g6 offset" style="--gs:6" d="M380,120 Q407.5,158.17 404.25,335.55 Q401,512.93 390.5,580.16 Q380,647.38 355,697.69 Q355,697.69 330,748"/><text class="g7" style="--gs:7" x="598" y="56">⑦</text><path class="g7 aligned" style="--gs:7" d="M598,56 Q669,105 666,213.13 Q648,861.88 645,970"/><path class="g7 offset" style="--gs:7" d="M502,56 Q573,105 570,213.13 Q552,861.88 549,970"/></g>
<g class="parts"><rect data-part="2" data-literal="弗" role="button" tabindex="0" aria-label="Part 弗" x="304" y="0" width="639" height="1024"/><rect data-part="1" data-literal="亻" data-radical="true" role="button" tabindex="0" aria-label="Part 亻 (radical)" x="0" y="0" width="413" height="932"/></g>
</svg>
