<svg id="z20316" class="acjk" viewBox="0 0 1024 1024" xmlns="http://www.w3.org/2000/svg">
<style>

@keyframes zk {
	to {
		stroke-dashoffset:0;
	}
}
svg.acjk path[clip-path] {
	--t:0.8s;
	animation:zk var(--t) linear forwards var(--d);
	stroke-dasharray:3337;
	stroke-dashoffset:3339;
	stroke-width:128;
	stroke-linecap:round;
	fill:none;
	stroke:#000;
}
svg.acjk path[id] {fill:#ccc;}


    @keyframes guide-fade {
        0% { opacity: 0; }
        3% { opacity: 1; }
        95% { opacity: 1; }
        100% { opacity: 0; }
    }

    svg.acjk #guide-arrow {
        fill: #f77;
    }

    svg.acjk .guides {
        circle {
            fill: #0f6;
        }

        path {
            opacity: 0;
            animation: guide-fade var(--t) linear forwards var(--d);
            stroke-width: 16px;
            stroke-linecap: round;
            stroke: #f77;
            fill: none;
            marker-end: url(#guide-arrow);
        }

        circle,
        path {
            --t: 0.8s;
            opacity: 0;
            animation: guide-fade calc(var(--t) + 0.4s) ease-in-out forwards calc(var(--d) - 0.2s);
        }
    }
</style>
<path id="z20316d1" d="M277 357C302 323 329 286 356 244C376 211 392 185 410 169C416 162 418 153 416 143C413 134 402 120 381 104C363 90 346 84 332 84C319 84 315 93 321 109C329 131 330 152 322 171C274 279 193 400 80 531C73 538 68 543 66 548C62 556 67 559 78 558C103 554 152 509 224 422C233 409 245 397 256 384C270 366 270 366 277 357Z"/>
<path id="z20316d2" d="M256 384C258 392 263 400 268 409C289 447 293 531 280 659C276 695 268 731 260 769C252 803 259 832 282 859C283 860 284 862 286 864C297 874 306 871 314 854C324 827 328 799 328 769C325 592 325 484 332 445C335 426 336 414 330 408C302 377 289 366 277 357C268 350 252 373 256 384Z"/>
<path id="z20316d3" d="M561 327C596 273 626 208 659 138C670 112 676 99 676 99C668 78 648 67 619 63C604 60 592 60 585 63C578 65 577 71 581 80C599 131 569 215 501 334C480 368 438 422 383 487C378 492 379 496 387 495C419 490 507 407 547 348C556 334 556 334 561 327Z"/>
<path id="z20316d4" d="M652 361C723 354 795 332 869 316C901 308 921 301 927 297C933 292 934 286 931 280C926 271 914 265 894 261C878 257 832 270 754 291C660 314 591 325 561 327C553 327 540 344 547 348C559 355 588 366 609 365C638 362 638 362 652 361Z"/>
<path id="z20316d5" d="M674 670C674 628 674 587 674 546C674 524 674 524 674 513C674 460 676 422 681 399C682 389 673 376 652 361C641 352 602 353 609 365C631 405 634 532 617 746C615 762 612 778 611 793C609 813 608 829 605 840C597 864 605 895 631 934C639 946 645 956 652 959C660 961 666 955 670 946C678 923 680 901 679 880C675 817 674 758 674 702C674 681 674 681 674 670Z"/>
<path id="z20316d6" d="M674 546C690 540 748 529 850 515C866 512 871 506 865 497C857 486 843 478 825 476C807 473 756 486 674 513C664 517 664 550 674 546Z"/>
<path id="z20316d7" d="M674 702C678 702 683 703 689 702C757 689 817 679 868 673C886 670 892 663 885 653C877 642 863 634 843 631C824 627 768 641 674 670C664 674 663 702 674 702Z"/>
<defs>
	<clipPath id="z20316c1"><use href="#z20316d1"/></clipPath>
	<clipPath id="z20316c2"><use href="#z20316d2"/></clipPath>
	<clipPath id="z20316c3"><use href="#z20316d3"/></clipPath>
	<clipPath id="z20316c4"><use href="#z20316d4"/></clipPath>
	<clipPath id="z20316c5"><use href="#z20316d5"/></clipPath>
	<clipPath id="z20316c6"><use href="#z20316d6"/></clipPath>
	<clipPath id="z20316c7"><use href="#z20316d7"/></clipPath>
<marker id="guide-arrow" viewBox="0 0 16 16" refX="5" refY="5" markerWidth="4" markerHeight="4" orient="auto-start-reverse"><path d="M 0 0 L 10 5 L 0 10 z" fill="inherit"/></marker></defs>
<path style="--d:1s;" pathLength="3333" clip-path="url(#z20316c1)" d="M324 92L370 160L236 370L73 550"/>
<path style="--d:2s;" pathLength="3333" clip-path="url(#z20316c2)" d="M272 360L306 429L293 863"/>
<path style="--d:3s;" pathLength="3333" clip-path="url(#z20316c3)" d="M585 69L631 107L587 225L511 359L388 488"/>
<path style="--d:4s;" pathLength="3333" clip-path="url(#z20316c4)" d="M553 344L927 284"/>
<path style="--d:5s;" pathLength="3333" clip-path="url(#z20316c5)" d="M615 363L651 402L652 954"/>
<path style="--d:6s;" pathLength="3333" clip-path="url(#z20316c6)" d="M670 539L862 499"/>
<path style="--d:7s;" pathLength="3333" clip-path="url(#z20316c7)" d="M669 689L883 654"/>
<g class="guides"><circle style="--d: 1s" class="g1" cx="324" cy="92" r="16"/><path style="--d: 1s;" class="g1" d="M228,92 Q259.1313131313131,145.74672489082968 236.45959595959596,187.2423580786026 Q168.44444444444446,311.7292576419214 140.86616161616163,347.29694323144105 Q85.70959595959596,418.43231441048033 58.131313131313135,454"/><circle style="--d: 2s" class="g2" cx="272" cy="360" r="16"/><path style="--d: 2s;" class="g2" d="M392,360 Q426,429 424.375,483.25 Q414.625,808.75 413,863"/><circle style="--d: 3s" class="g3" cx="585" cy="69" r="16"/><path style="--d: 3s;" class="g3" d="M489,69 Q516.8271604938271,98.29355608591885 503.51851851851853,143.77565632458234 Q490.20987654320993,189.25775656324583 467.22222222222223,240.90692124105013 Q444.2345679012345,292.5560859188544 407.03086419753083,342.27804295942724 Q407.03086419753083,342.27804295942724 369.82716049382714,392"/><circle style="--d: 4s" class="g4" cx="553" cy="344" r="16"/><path style="--d: 4s;" class="g4" d="M553,440 L927,380"/><circle style="--d: 5s" class="g5" cx="615" cy="363" r="16"/><path style="--d: 5s;" class="g5" d="M700.68,294.456 Q736.68,333.456 736.805,402.456 Q737.555,816.456 737.68,885.456"/><circle style="--d: 6s" class="g6" cx="670" cy="539" r="16"/><path style="--d: 6s;" class="g6" d="M670,635 L862,595"/><circle style="--d: 7s" class="g7" cx="669" cy="689" r="16"/><path style="--d: 7s;" class="g7" d="M669,785 L883,750"/></g></svg>