<svg id="z20336" class="acjk" viewBox="0 0 1024 1024" xmlns="http://www.w3.org/2000/svg">
<style>

@keyframes zk {
	to {
		stroke-dashoffset:0;
	}
}
svg.acjk path[clip-path] {
	--t:0.8s;
	animation:zk var(--t) linear forwards var(--d);
	stroke-dasharray:3337;
	stroke-dashoffset:3339;
	stroke-width:128;
	stroke-linecap:round;
	fill:none;
	stroke:#000;
}
svg.acjk path[id] {fill:#ccc;}


    @keyframes guide-fade {
        0% { opacity: 0; }
        3% { opacity: 1; }
        95% { opacity: 1; }
        100% { opacity: 0; }
    }

    svg.acjk #guide-arrow {
        fill: #f77;
    }

    svg.acjk .guides {
        circle {
            fill: #0f6;
        }

        path {
            opacity: 0;
            animation: guide-fade var(--t) linear forwards var(--d);
            stroke-width: 16px;
            stroke-linecap: round;
            stroke: #f77;
            fill: none;
            marker-end: url(#guide-arrow);
        }

        circle,
        path {
            --t: 0.8s;
            opacity: 0;
            animation: guide-fade calc(var(--t) + 0.4s) ease-in-out forwards calc(var(--d) - 0.2s);
        }
    }
</style>
<path id="z20336d1" d="M232 364C256 329 282 290 307 246C326 211 342 186 358 170C365 162 365 153 362 143C358 134 347 120 325 105C305 91 287 85 274 86C259 87 255 97 263 113C273 135 273 154 267 174C228 294 127 436 33 560C27 567 36 575 45 570C113 520 166 455 205 402C223 377 223 377 232 364Z"/>
<path id="z20336d2" d="M205 402C232 500 225 592 215 669C209 705 201 743 191 781C182 811 191 843 213 879C225 900 246 886 251 875C262 846 265 815 266 782C269 603 274 494 283 455C287 434 287 421 280 414C261 394 246 377 232 364C221 353 202 387 205 402Z"/>
<path id="z20336d3" d="M607 259C692 244 772 237 859 236C898 235 921 232 925 225C928 216 923 207 912 199C877 174 845 164 818 171C753 186 607 215 380 256C365 258 363 266 375 277C398 297 423 302 448 294C480 283 516 274 555 268C590 262 590 262 607 259Z"/>
<path id="z20336d4" d="M542 450C583 387 590 358 629 321C663 287 647 294 607 259C595 247 552 251 555 268C566 309 549 344 511 454C507 464 536 458 542 450Z"/>
<path id="z20336d5" d="M496 457C483 444 465 432 440 429C423 426 424 439 430 451C456 505 464 595 449 715C443 755 435 782 439 796C445 818 453 832 461 841C468 849 474 849 481 840C487 831 492 820 495 807C498 786 498 786 500 776C501 764 504 717 502 638C501 620 501 620 501 611C498 555 500 515 501 493C501 481 506 464 496 457Z"/>
<path id="z20336d6" d="M722 798C722 818 718 836 741 872C760 903 785 888 796 854C811 804 810 749 809 685C807 644 807 601 808 555C808 522 817 494 833 473C843 458 844 446 836 439C820 424 795 412 763 399C736 387 718 413 542 450C521 453 521 453 511 454C506 454 501 455 496 457C485 461 489 495 501 493C519 492 544 484 684 459C725 452 745 481 746 518C748 571 752 702 730 773C727 781 722 789 722 798Z"/>
<path id="z20336d7" d="M502 638C504 638 563 632 680 619C698 616 703 610 697 601C689 590 675 582 657 579C640 575 588 587 501 611C492 613 493 638 502 638Z"/>
<path id="z20336d8" d="M495 807C515 819 586 803 722 798C731 798 736 779 730 773C685 724 673 752 500 776C490 778 485 803 495 807Z"/>
<defs>
	<clipPath id="z20336c1"><use href="#z20336d1"/></clipPath>
	<clipPath id="z20336c2"><use href="#z20336d2"/></clipPath>
	<clipPath id="z20336c3"><use href="#z20336d3"/></clipPath>
	<clipPath id="z20336c4"><use href="#z20336d4"/></clipPath>
	<clipPath id="z20336c5"><use href="#z20336d5"/></clipPath>
	<clipPath id="z20336c6"><use href="#z20336d6"/></clipPath>
	<clipPath id="z20336c7"><use href="#z20336d7"/></clipPath>
	<clipPath id="z20336c8"><use href="#z20336d8"/></clipPath>
<marker id="guide-arrow" viewBox="0 0 16 16" refX="5" refY="5" markerWidth="4" markerHeight="4" orient="auto-start-reverse"><path d="M 0 0 L 10 5 L 0 10 z" fill="inherit"/></marker></defs>
<path style="--d:1s;" pathLength="3333" clip-path="url(#z20336c1)" d="M265 92L316 161L195 373L40 565"/>
<path style="--d:2s;" pathLength="3333" clip-path="url(#z20336c2)" d="M226 367L251 449L223 883"/>
<path style="--d:3s;" pathLength="3333" clip-path="url(#z20336c3)" d="M371 263L426 272L811 204L921 214"/>
<path style="--d:4s;" pathLength="3333" clip-path="url(#z20336c4)" d="M561 261L600 311L518 453"/>
<path style="--d:5s;" pathLength="3333" clip-path="url(#z20336c5)" d="M435 437L472 475L470 842"/>
<path style="--d:6s;" pathLength="3333" clip-path="url(#z20336c6)" d="M493 478L711 431L791 469L762 884"/>
<path style="--d:7s;" pathLength="3333" clip-path="url(#z20336c7)" d="M501 627L694 601"/>
<path style="--d:8s;" pathLength="3333" clip-path="url(#z20336c8)" d="M494 797L728 775"/>
<g class="guides"><circle style="--d: 1s" class="g1" cx="265" cy="92" r="16"/><path style="--d: 1s;" class="g1" d="M169,92 Q202.26086956521738,146.99577167019027 182.53260869565216,189.23890063424946 Q123.34782608695653,315.96828752642705 98.07608695652175,354.2262156448203 Q47.53260869565217,430.74207188160676 22.26086956521739,469"/><circle style="--d: 2s" class="g2" cx="226" cy="367" r="16"/><path style="--d: 2s;" class="g2" d="M346,367 Q371,449 367.5,503.25 Q346.5,828.75 343,883"/><circle style="--d: 3s" class="g3" cx="371" cy="263" r="16"/><path style="--d: 3s;" class="g3" d="M371,359 Q426,368 522.25,351 Q811,300 838.5,302.5 Q893.5,307.5 921,310"/><circle style="--d: 4s" class="g4" cx="561" cy="261" r="16"/><path style="--d: 4s;" class="g4" d="M465,261 Q504,311 493.75,328.75 Q432.25,435.25 422,453"/><circle style="--d: 5s" class="g5" cx="435" cy="437" r="16"/><path style="--d: 5s;" class="g5" d="M339,437 Q376,475 375.75,520.875 Q374.25,796.125 374,842"/><circle style="--d: 6s" class="g6" cx="493" cy="478" r="16"/><path style="--d: 6s;" class="g6" d="M493,574 Q623.2147651006711,527 635.1610738255033,536.5 Q671,565 666.6694630872483,644.75 Q658.0083892617449,804.25 653.6778523489933,884"/><circle style="--d: 7s" class="g7" cx="501" cy="627" r="16"/><path style="--d: 7s;" class="g7" d="M501,723 L694,697"/><circle style="--d: 8s" class="g8" cx="494" cy="797" r="16"/><path style="--d: 8s;" class="g8" d="M494,893 L728,871"/></g></svg>