<svg id="z20351" class="acjk" viewBox="0 0 1024 1024" xmlns="http://www.w3.org/2000/svg">
<style>

@keyframes zk {
	to {
		stroke-dashoffset:0;
	}
}
svg.acjk path[clip-path] {
	--t:0.8s;
	animation:zk var(--t) linear forwards var(--d);
	stroke-dasharray:3337;
	stroke-dashoffset:3339;
	stroke-width:128;
	stroke-linecap:round;
	fill:none;
	stroke:#000;
}
svg.acjk path[id] {fill:#ccc;}


    @keyframes guide-fade {
        0% { opacity: 0; }
        3% { opacity: 1; }
        95% { opacity: 1; }
        100% { opacity: 0; }
    }

    svg.acjk #guide-arrow {
        fill: #f77;
    }

    svg.acjk .guides {
        circle {
            fill: #0f6;
        }

        path {
            opacity: 0;
            animation: guide-fade var(--t) linear forwards var(--d);
            stroke-width: 16px;
            stroke-linecap: round;
            stroke: #f77;
            fill: none;
            marker-end: url(#guide-arrow);
        }

        circle,
        path {
            --t: 0.8s;
            opacity: 0;
            animation: guide-fade calc(var(--t) + 0.4s) ease-in-out forwards calc(var(--d) - 0.2s);
        }
    }
</style>
<path id="z20351d1" d="M230 387C258 349 285 304 313 254C330 220 345 194 361 178C367 171 368 163 365 153C361 144 351 131 330 117C311 104 294 98 281 100C268 101 264 110 271 125C280 146 283 165 276 185C253 247 223 308 187 368C152 424 111 485 62 548C56 555 51 560 50 565C47 573 53 580 61 574C139 510 190 439 206 419C222 398 222 398 230 387Z"/>
<path id="z20351d2" d="M206 419C222 459 231 498 232 538C232 623 224 705 205 781C196 814 202 845 227 878C240 895 254 889 263 872C275 845 278 814 278 782C278 617 279 516 286 479C289 460 289 447 283 440C266 420 251 407 230 387C221 378 201 407 206 419Z"/>
<path id="z20351d3" d="M629 268C661 260 696 252 732 245C762 238 778 230 783 227C788 222 790 216 787 211C782 204 770 197 752 193C734 189 695 204 631 222C601 230 601 230 586 234C545 244 501 249 456 256C433 259 430 267 447 278C463 287 481 293 501 292C530 290 560 284 587 278C615 271 615 271 629 268Z"/>
<path id="z20351d4" d="M449 377C442 374 429 370 409 368C401 366 396 368 395 371C391 375 392 381 398 392C416 424 432 468 445 525C448 541 453 555 464 566C481 584 487 571 489 554C489 543 488 533 486 523C477 485 471 463 463 410C461 398 460 381 449 377Z"/>
<path id="z20351d5" d="M772 487C792 434 813 405 831 392C844 381 844 365 833 355C786 312 740 307 698 325C674 335 650 341 627 347C600 353 600 353 587 356C542 365 496 371 449 377C437 379 451 412 463 410C503 401 549 394 586 387C613 382 613 382 626 379C648 374 672 370 698 365C723 359 745 370 741 394C735 426 728 456 721 483C718 500 766 503 772 487Z"/>
<path id="z20351d6" d="M622 535C667 528 722 524 784 520C790 519 794 516 795 511C795 506 787 498 772 487C759 476 738 480 721 483C686 489 653 495 623 501C595 506 595 506 581 509C547 515 515 519 486 523C476 525 479 556 489 554C496 554 512 549 578 541C607 537 607 537 622 535Z"/>
<path id="z20351d7" d="M599 705C613 648 620 572 622 535C623 512 623 512 623 501C624 458 624 419 626 379C627 358 627 358 627 347C627 320 627 293 629 268C630 237 630 237 631 222C631 203 640 171 657 127C660 117 661 109 653 102C638 89 618 79 592 73C575 68 564 69 559 74C553 78 552 84 558 93C572 116 581 144 584 175C585 193 585 213 586 234C586 253 586 263 587 278C587 303 587 330 587 356C586 377 586 377 586 387C584 427 584 467 581 509C579 530 579 530 578 541C576 559 570 631 560 671C556 683 552 696 547 708C516 770 454 815 347 859C338 862 333 866 333 869C333 871 337 873 345 875C357 877 378 874 408 865C477 842 550 803 583 742C589 730 595 718 599 705Z"/>
<path id="z20351d8" d="M583 742C610 767 631 792 650 813C678 843 713 873 751 906C768 921 791 929 821 927C849 924 880 921 913 918C937 915 952 910 960 907C972 901 973 897 962 892C944 883 894 870 815 849C770 837 697 790 599 705C573 682 573 682 560 671C507 625 476 601 468 599C449 593 429 593 408 599C399 601 394 604 395 609C395 613 400 617 409 619C474 633 502 666 547 708C571 731 571 731 583 742Z"/>
<defs>
	<clipPath id="z20351c1"><use href="#z20351d1"/></clipPath>
	<clipPath id="z20351c2"><use href="#z20351d2"/></clipPath>
	<clipPath id="z20351c3"><use href="#z20351d3"/></clipPath>
	<clipPath id="z20351c4"><use href="#z20351d4"/></clipPath>
	<clipPath id="z20351c5"><use href="#z20351d5"/></clipPath>
	<clipPath id="z20351c6"><use href="#z20351d6"/></clipPath>
	<clipPath id="z20351c7"><use href="#z20351d7"/></clipPath>
	<clipPath id="z20351c8"><use href="#z20351d8"/></clipPath>
<marker id="guide-arrow" viewBox="0 0 16 16" refX="5" refY="5" markerWidth="4" markerHeight="4" orient="auto-start-reverse"><path d="M 0 0 L 10 5 L 0 10 z" fill="inherit"/></marker></defs>
<path style="--d:1s;" pathLength="3333" clip-path="url(#z20351c1)" d="M276 109L313 142L315 184L215 367L57 566"/>
<path style="--d:2s;" pathLength="3333" clip-path="url(#z20351c2)" d="M227 393L257 495L240 883"/>
<path style="--d:3s;" pathLength="3333" clip-path="url(#z20351c3)" d="M444 266L568 260L782 209"/>
<path style="--d:4s;" pathLength="3333" clip-path="url(#z20351c4)" d="M400 375L436 406L475 570"/>
<path style="--d:5s;" pathLength="3333" clip-path="url(#z20351c5)" d="M450 386L756 347L790 381L737 494"/>
<path style="--d:6s;" pathLength="3333" clip-path="url(#z20351c6)" d="M482 539L788 508"/>
<path style="--d:7s;" pathLength="3333" clip-path="url(#z20351c7)" d="M561 80L619 128L581 680L516 786L343 869"/>
<path style="--d:8s;" pathLength="3333" clip-path="url(#z20351c8)" d="M402 607L490 634L774 875L961 897"/>
<g class="guides"><circle style="--d: 1s" class="g1" cx="276" cy="109" r="16"/><path style="--d: 1s;" class="g1" d="M180,109 Q203.2325581395349,135.06783369803063 203.86046511627907,151.65645514223195 Q204.48837209302326,168.24507658643327 173.09302325581396,240.52407002188187 Q141.69767441860466,312.80306345733044 92.09302325581396,391.4015317286652 Q92.09302325581396,391.4015317286652 42.48837209302326,470"/><circle style="--d: 2s" class="g2" cx="227" cy="393" r="16"/><path style="--d: 2s;" class="g2" d="M347,393 Q377,495 374.875,543.5 Q362.125,834.5 360,883"/><circle style="--d: 3s" class="g3" cx="444" cy="266" r="16"/><path style="--d: 3s;" class="g3" d="M444,362 Q568,356 594.75,349.625 Q755.25,311.375 782,305"/><circle style="--d: 4s" class="g4" cx="400" cy="375" r="16"/><path style="--d: 4s;" class="g4" d="M485.68,306.456 Q521.68,337.456 526.555,357.956 Q555.805,480.956 560.68,501.456"/><circle style="--d: 5s" class="g5" cx="450" cy="386" r="16"/><path style="--d: 5s;" class="g5" d="M450,482 Q648,443 653.5,451.5 Q670,477 661.4264705882354,486.875 Q644.2794117647059,506.625 635.7058823529412,516.5"/><circle style="--d: 6s" class="g6" cx="482" cy="539" r="16"/><path style="--d: 6s;" class="g6" d="M482,635 L788,604"/><circle style="--d: 7s" class="g7" cx="561" cy="80" r="16"/><path style="--d: 7s;" class="g7" d="M465,80 Q502.82608695652175,122.1596958174905 490.4347826086957,364.5779467680608 Q478.0434782608696,606.9961977186312 456.84782608695656,653.5475285171103 Q435.6521739130435,700.0988593155894 379.2391304347826,736.5494296577947 Q379.2391304347826,736.5494296577947 322.82608695652175,773"/><circle style="--d: 8s" class="g8" cx="402" cy="607" r="16"/><path style="--d: 8s;" class="g8" d="M402,703 Q490,730 561,790.25 Q774,971 820.75,976.5 Q914.25,987.5 961,993"/></g></svg>