<!--
  Stroke-order data for 侃, derived from AnimCJK (https://github.com/parsimonhi/animCJK),
  itself derived from the Arphic PL KaitiM fonts. Distributed under the Arphic Public License
  (see ARPHICPL.TXT). Regenerated by scripts/build-strokes.ts — do not edit by hand.
-->
<svg id="z20355" class="acjk" viewBox="0 0 1024 1024" xmlns="http://www.w3.org/2000/svg">
<g class="glyph"><path id="z20355d1" d="M230 385C262 344 296 296 330 241C349 208 365 183 382 167C388 160 390 151 388 142C385 133 374 119 354 104C336 90 319 84 306 85C293 85 289 94 295 110C303 132 303 152 296 171C251 278 174 398 63 528C56 535 51 540 50 545C47 552 50 555 61 554C86 550 132 504 203 418C221 396 221 396 230 385Z"/><path id="z20355d2" d="M203 418C226 472 228 521 228 573C227 643 220 715 201 789C192 822 197 854 223 886C239 906 255 889 259 880C269 852 274 822 274 790C274 619 275 514 282 475C285 456 285 443 279 436C264 419 249 402 230 385C220 375 198 405 203 418Z"/><path id="z20355d3" d="M459 216C451 213 439 210 424 207C415 205 411 206 409 209C404 213 405 219 411 231C430 271 445 324 456 391C459 410 464 427 476 440C498 466 505 447 503 421C502 409 501 397 500 386C497 353 483 294 479 249C479 236 471 221 459 216Z"/><path id="z20355d4" d="M723 351C741 291 763 255 786 237C798 226 798 210 788 199C777 187 751 174 715 159C702 153 688 154 673 160C616 182 545 201 459 216C446 219 466 249 479 249C491 251 543 237 659 213C684 207 696 226 693 246C686 284 678 318 670 348C667 365 720 368 723 351Z"/><path id="z20355d5" d="M503 421C513 428 577 403 740 389C746 388 751 384 752 378C752 372 742 363 723 351C708 342 687 345 670 348C606 364 549 377 500 386C488 388 492 419 503 421Z"/><path id="z20355d6" d="M420 517C432 542 430 594 411 671C394 734 352 781 311 816C301 823 294 827 292 832C289 835 292 838 300 839C320 840 347 830 381 804C426 767 458 690 483 578C485 566 489 558 492 551C496 538 493 528 482 521C455 502 437 493 427 494C414 494 412 502 420 517Z"/><path id="z20355d7" d="M540 513C558 556 564 635 548 752C544 774 549 796 568 818C574 825 581 825 586 818C596 802 602 769 603 721C603 623 603 562 608 541C610 526 607 516 595 509C568 494 550 488 544 493C538 496 536 504 540 513Z"/><path id="z20355d8" d="M980 782C969 748 963 702 961 646C960 635 957 629 953 626C948 623 944 627 942 640C928 710 918 752 908 764C894 777 862 785 813 785C784 785 764 781 753 775C732 763 721 721 723 651C724 596 732 555 742 528C748 509 747 494 736 485C706 461 684 452 675 455C666 457 663 464 669 476C680 499 685 526 684 560C679 695 689 774 711 798C728 817 750 823 772 827C798 831 849 833 879 833C918 832 947 830 963 823C981 814 985 800 980 782Z"/></g>
<defs><clipPath id="z20355c1"><use href="#z20355d1"/></clipPath>
	<clipPath id="z20355c2"><use href="#z20355d2"/></clipPath>
	<clipPath id="z20355c3"><use href="#z20355d3"/></clipPath>
	<clipPath id="z20355c4"><use href="#z20355d4"/></clipPath>
	<clipPath id="z20355c5"><use href="#z20355d5"/></clipPath>
	<clipPath id="z20355c6"><use href="#z20355d6"/></clipPath>
	<clipPath id="z20355c7"><use href="#z20355d7"/></clipPath>
	<clipPath id="z20355c8"><use href="#z20355d8"/></clipPath><marker id="guide-arrow" viewBox="0 0 16 16" refX="5" refY="5" markerWidth="4" markerHeight="4" orient="auto-start-reverse"><path d="M 0 0 L 10 5 L 0 10 z" fill="inherit"/></marker></defs>
<g class="strokes"><path pathLength="3333" clip-path="url(#z20355c1)" d="M298 90L340 162L201 386L57 547"/><path pathLength="3333" clip-path="url(#z20355c2)" d="M225 388L252 501L234 890"/><path pathLength="3333" clip-path="url(#z20355c3)" d="M414 217L449 246L491 447"/><path pathLength="3333" clip-path="url(#z20355c4)" d="M461 222L705 190L744 228L683 358"/><path pathLength="3333" clip-path="url(#z20355c5)" d="M495 403L746 377"/><path pathLength="3333" clip-path="url(#z20355c6)" d="M423 501L460 546L429 687L374 782L298 832"/><path pathLength="3333" clip-path="url(#z20355c7)" d="M545 499L578 534L578 817"/><path pathLength="3333" clip-path="url(#z20355c8)" d="M674 459L712 506L706 721L738 792L848 808L938 791L953 630"/></g>
<g class="guides"><text class="g1" style="--gs:1" x="298" y="90">①</text><path class="g1 aligned" style="--gs:1" d="M298,90 Q340,162 305.25,218 Q201,386 165,426.25 Q93,506.75 57,547"/><path class="g1 offset" style="--gs:1" d="M202,90 Q229.75,146.88 206.79,191.11 Q137.9,323.82 114.12,355.62 Q66.54,419.21 42.75,451"/><text class="g2" style="--gs:2" x="225" y="388">②</text><path class="g2 aligned" style="--gs:2" d="M225,388 Q252,501 249.75,549.63 Q236.25,841.38 234,890"/><path class="g2 offset" style="--gs:2" d="M345,388 Q372,501 369.75,549.63 Q356.25,841.38 354,890"/><text class="g3" style="--gs:3" x="414" y="217">③</text><path class="g3 aligned" style="--gs:3" d="M414,217 Q449,246 454.25,271.13 Q485.75,421.88 491,447"/><path class="g3 offset" style="--gs:3" d="M499.68,148.46 Q534.68,177.46 539.93,202.58 Q571.43,353.33 576.68,378.46"/><text class="g4" style="--gs:4" x="461" y="222">④</text><path class="g4 aligned" style="--gs:4" d="M461,222 Q705,190 714.75,199.5 Q744,228 728.75,260.5 Q698.25,325.5 683,358"/><path class="g4 offset" style="--gs:4" d="M461,318 Q601.54,286 607.15,290.75 Q624,305 615.22,321.25 Q597.65,353.75 588.87,370"/><text class="g5" style="--gs:5" x="495" y="403">⑤</text><path class="g5 aligned" style="--gs:5" d="M495,403 L746,377"/><path class="g5 offset" style="--gs:5" d="M495,499 L746,473"/><text class="g6" style="--gs:6" x="423" y="501">⑥</text><path class="g6 aligned" style="--gs:6" d="M423,501 Q460,546 444.5,616.5 Q429,687 401.5,734.5 Q374,782 336,807 Q336,807 298,832"/><path class="g6 offset" style="--gs:6" d="M327,501 Q345.5,532.95 337.75,583 Q330,633.05 316.25,666.78 Q302.5,700.5 283.5,718.25 Q283.5,718.25 264.5,736"/><text class="g7" style="--gs:7" x="545" y="499">⑦</text><path class="g7 aligned" style="--gs:7" d="M545,499 Q578,534 578,569.38 Q578,781.63 578,817"/><path class="g7 offset" style="--gs:7" d="M449,499 Q482,534 482,569.38 Q482,781.63 482,817"/><text class="g8" style="--gs:8" x="674" y="459">⑧</text><path class="g8 aligned" style="--gs:8" d="M674,459 Q712,506 709,613.5 Q706,721 722,756.5 Q738,792 793,800 Q848,808 893,799.5 Q938,791 945.5,710.5 Q945.5,710.5 953,630"/><path class="g8 offset" style="--gs:8" d="M742.54,390.46 Q761.54,437.46 760.04,544.96 Q758.54,652.46 766.54,687.96 Q774.54,723.46 802.04,731.46 Q829.54,739.46 852.04,730.96 Q874.54,722.46 878.29,641.96 Q878.29,641.96 882.04,561.46"/></g>
</svg>
