<svg id="z20381" class="acjk" viewBox="0 0 1024 1024" xmlns="http://www.w3.org/2000/svg">
<style>

@keyframes zk {
	to {
		stroke-dashoffset:0;
	}
}
svg.acjk path[clip-path] {
	--t:0.8s;
	animation:zk var(--t) linear forwards var(--d);
	stroke-dasharray:3337;
	stroke-dashoffset:3339;
	stroke-width:128;
	stroke-linecap:round;
	fill:none;
	stroke:#000;
}
svg.acjk path[id] {fill:#ccc;}


    @keyframes guide-fade {
        0% { opacity: 0; }
        3% { opacity: 1; }
        95% { opacity: 1; }
        100% { opacity: 0; }
    }

    svg.acjk #guide-arrow {
        fill: #f77;
    }

    svg.acjk .guides {
        circle {
            fill: #0f6;
        }

        path {
            opacity: 0;
            animation: guide-fade var(--t) linear forwards var(--d);
            stroke-width: 16px;
            stroke-linecap: round;
            stroke: #f77;
            fill: none;
            marker-end: url(#guide-arrow);
        }

        circle,
        path {
            --t: 0.8s;
            opacity: 0;
            animation: guide-fade calc(var(--t) + 0.4s) ease-in-out forwards calc(var(--d) - 0.2s);
        }
    }
</style>
<path id="z20381d1" d="M226 398Q275 337 326 250Q351 204 373 180Q383 168 377 154Q373 141 341 117Q313 98 292 98Q271 101 281 124Q296 155 285 181Q230 328 82 519Q72 529 70 537Q66 549 81 546Q111 540 203 428C218 408 218 408 226 398Z"/>
<path id="z20381d2" d="M203 428Q227 495 228 541Q219 676 217 691Q210 743 194 797Q184 842 218 893Q219 893 221 896Q239 912 251 885Q266 845 265 798Q271 545 281 488Q288 461 279 450Q237 404 226 398C216 390 198 416 203 428Z"/>
<path id="z20381d3" d="M568 129Q602 156 639 188Q655 201 672 200Q684 199 689 184Q693 168 682 135Q675 113 637 96Q546 71 536 77Q530 81 533 95Q537 108 568 129Z"/>
<path id="z20381d4" d="M551 330Q651 309 760 288Q829 272 838 263Q847 256 843 248Q836 236 808 228Q780 222 750 233Q584 291 382 312Q346 318 371 334Q410 358 467 345Q483 341 504 339C535 333 535 333 551 330Z"/>
<path id="z20381d5" d="M545 431Q566 394 580 376Q587 372 585 361Q579 342 551 330C536 324 501 323 504 339Q517 414 406 561Q403 562 402 566Q368 608 285 689Q278 693 287 696Q347 684 445 577Q446 574 449 572C467 549 467 549 476 538Q501 502 535 448C542 437 542 437 545 431Z"/>
<path id="z20381d6" d="M449 572Q459 599 459 625Q460 739 451 776Q447 807 433 825Q418 847 428 870Q440 904 458 917Q468 924 482 905Q519 857 644 738Q662 722 663 714Q664 701 643 713Q591 744 533 780Q515 793 507 789Q500 785 499 766Q506 628 514 594Q520 573 505 561Q490 545 476 538C464 531 444 559 449 572Z"/>
<path id="z20381d7" d="M677 540Q734 501 812 443Q831 427 854 418Q875 408 865 391Q852 373 826 360Q804 347 790 349Q778 350 782 363Q785 394 725 461Q695 492 665 527C661 531 672 544 677 540Z"/>
<path id="z20381d8" d="M665 527Q631 490 595 448Q583 430 566 429Q553 428 545 431C539 433 529 445 535 448Q572 467 595 504Q784 763 820 774Q869 783 971 764Q987 763 993 754Q997 747 987 743Q828 679 750 611Q716 580 677 540C669 531 669 531 665 527Z"/>
<defs>
	<clipPath id="z20381c1"><use href="#z20381d1"/></clipPath>
	<clipPath id="z20381c2"><use href="#z20381d2"/></clipPath>
	<clipPath id="z20381c3"><use href="#z20381d3"/></clipPath>
	<clipPath id="z20381c4"><use href="#z20381d4"/></clipPath>
	<clipPath id="z20381c5"><use href="#z20381d5"/></clipPath>
	<clipPath id="z20381c6"><use href="#z20381d6"/></clipPath>
	<clipPath id="z20381c7"><use href="#z20381d7"/></clipPath>
	<clipPath id="z20381c8"><use href="#z20381d8"/></clipPath>
<marker id="guide-arrow" viewBox="0 0 16 16" refX="5" refY="5" markerWidth="4" markerHeight="4" orient="auto-start-reverse"><path d="M 0 0 L 10 5 L 0 10 z" fill="inherit"/></marker></defs>
<path style="--d:1s;" pathLength="3333" clip-path="url(#z20381c1)" d="M284 106L330 152L329 177L202 391L76 541"/>
<path style="--d:2s;" pathLength="3333" clip-path="url(#z20381c2)" d="M225 408L253 484L231 896"/>
<path style="--d:3s;" pathLength="3333" clip-path="url(#z20381c3)" d="M539 85L642 141L674 196"/>
<path style="--d:4s;" pathLength="3333" clip-path="url(#z20381c4)" d="M371 323L455 325L840 252"/>
<path style="--d:5s;" pathLength="3333" clip-path="url(#z20381c5)" d="M512 344L543 376L484 486L406 591L293 690"/>
<path style="--d:6s;" pathLength="3333" clip-path="url(#z20381c6)" d="M476 548L466 818L478 866L656 714"/>
<path style="--d:7s;" pathLength="3333" clip-path="url(#z20381c7)" d="M791 359L816 407L677 528"/>
<path style="--d:8s;" pathLength="3333" clip-path="url(#z20381c8)" d="M540 445L572 450L820 716L985 753"/>
<g class="guides"><circle style="--d: 1s" class="g1" cx="284" cy="106" r="16"/><path style="--d: 1s;" class="g1" d="M188,106 Q216.61417322834643,141.84827586206896 216.3031496062992,151.58965517241379 Q215.99212598425197,161.3310344827586 176.49212598425197,244.71724137931034 Q136.99212598425197,328.1034482758621 97.80314960629921,386.55172413793105 Q97.80314960629921,386.55172413793105 58.61417322834646,445"/><circle style="--d: 2s" class="g2" cx="225" cy="408" r="16"/><path style="--d: 2s;" class="g2" d="M345,408 Q373,484 370.25,535.5 Q353.75,844.5 351,896"/><circle style="--d: 3s" class="g3" cx="539" cy="85" r="16"/><path style="--d: 3s;" class="g3" d="M624.68,16.456000000000003 Q727.68,72.456 731.68,79.331 Q755.68,120.581 759.68,127.456"/><circle style="--d: 4s" class="g4" cx="371" cy="323" r="16"/><path style="--d: 4s;" class="g4" d="M371,419 Q455,421 503.125,411.875 Q791.875,357.125 840,348"/><circle style="--d: 5s" class="g5" cx="512" cy="344" r="16"/><path style="--d: 5s;" class="g5" d="M416,344 Q435.096,367.12138728323697 416.924,406.8612716763006 Q398.752,446.60115606936415 374.728,484.5346820809249 Q350.704,522.4682080924856 315.9,558.2341040462428 Q315.9,558.2341040462428 281.096,594"/><circle style="--d: 6s" class="g6" cx="476" cy="548" r="16"/><path style="--d: 6s;" class="g6" d="M380,548 Q375,736.4905660377358 376.5,744.8679245283018 Q381,770 403.25,743.4716981132076 Q447.75,690.4150943396226 470,663.8867924528302"/><circle style="--d: 7s" class="g7" cx="791" cy="359" r="16"/><path style="--d: 7s;" class="g7" d="M695,359 Q707.5,383 698.8125,390.5625 Q646.6875,435.9375 638,443.5"/><circle style="--d: 8s" class="g8" cx="556" cy="448" r="16"/><path style="--d: 8s;" class="g8" d="M641.68,379.456 Q852.9538461538461,623.3307278688525 869.4596153846154,627.5393868852459 Q968.4942307692307,652.7913409836066 985,657"/></g></svg>