<svg id="z20439" class="acjk" viewBox="0 0 1024 1024" xmlns="http://www.w3.org/2000/svg">
<style>

@keyframes zk {
	to {
		stroke-dashoffset:0;
	}
}
svg.acjk path[clip-path] {
	--t:0.8s;
	animation:zk var(--t) linear forwards var(--d);
	stroke-dasharray:3337;
	stroke-dashoffset:3339;
	stroke-width:128;
	stroke-linecap:round;
	fill:none;
	stroke:#000;
}
svg.acjk path[id] {fill:#ccc;}


    @keyframes guide-fade {
        0% { opacity: 0; }
        3% { opacity: 1; }
        95% { opacity: 1; }
        100% { opacity: 0; }
    }

    svg.acjk #guide-arrow {
        fill: #f77;
    }

    svg.acjk .guides {
        circle {
            fill: #0f6;
        }

        path {
            opacity: 0;
            animation: guide-fade var(--t) linear forwards var(--d);
            stroke-width: 16px;
            stroke-linecap: round;
            stroke: #f77;
            fill: none;
            marker-end: url(#guide-arrow);
        }

        circle,
        path {
            --t: 0.8s;
            opacity: 0;
            animation: guide-fade calc(var(--t) + 0.4s) ease-in-out forwards calc(var(--d) - 0.2s);
        }
    }
</style>
<path id="z20439d1" d="M237 400C271 360 305 311 342 253C361 221 378 196 394 181C400 174 402 165 400 155C397 146 386 132 365 116C347 102 330 96 316 96C303 96 299 105 305 122C313 144 313 163 306 182C261 285 185 403 76 531C69 538 63 543 62 549C59 557 63 559 74 558C96 554 141 511 212 429C229 410 229 410 237 400Z"/>
<path id="z20439d2" d="M212 429Q239 493 240 549Q240 702 214 809Q204 854 238 905Q239 905 241 908Q259 924 271 897Q286 857 285 810Q281 548 289 488Q296 461 287 450Q245 405 237 400C227 392 207 417 212 429Z"/>
<path id="z20439d3" d="M471 195C476 215 464 254 429 310C411 337 390 359 373 378C369 381 368 383 375 384C414 385 468 337 534 243C539 234 547 229 546 220C545 214 541 207 534 201C514 184 494 177 477 182C472 183 469 188 471 195Z"/>
<path id="z20439d4" d="M675 219C702 239 732 261 762 287C771 294 779 298 790 297C796 296 802 292 805 284C808 274 805 259 799 241C793 224 779 208 752 198C694 174 658 166 648 173C644 174 643 181 645 189C646 196 657 205 675 219Z"/>
<path id="z20439d5" d="M607 393C616 377 638 358 637 343C636 336 630 330 622 323C612 314 602 308 590 305C577 300 567 299 559 301C554 301 551 306 553 315C564 367 528 447 438 554C391 607 342 652 301 689C296 692 297 698 303 696C396 661 458 598 506 540C530 509 560 467 595 412C603 399 603 399 607 393Z"/>
<path id="z20439d6" d="M595 412C649 482 721 550 777 604C791 618 811 626 837 628C881 630 927 625 976 616C987 613 995 611 996 609C997 604 992 600 983 597C848 549 759 507 712 475C674 448 642 421 607 393C601 389 591 406 595 412Z"/>
<path id="z20439d7" d="M475 663C467 659 452 655 433 651C424 648 419 649 417 652C412 657 413 664 418 675C437 717 452 773 461 843C463 863 467 881 480 896C511 932 508 878 507 851C506 839 503 827 502 816C495 773 488 714 486 694C484 683 485 667 475 663Z"/>
<path id="z20439d8" d="M725 792C743 740 763 708 782 692C795 680 796 665 785 656C736 614 692 612 649 626C611 637 532 654 475 663C464 665 475 696 486 694C522 689 579 680 659 664C683 659 695 675 692 695C686 729 679 761 672 789C669 806 718 808 725 792Z"/>
<path id="z20439d9" d="M507 851C526 854 560 842 742 832C748 831 753 828 755 822C755 816 745 806 725 792C711 781 689 786 672 789C608 801 551 810 502 816C490 818 495 851 507 851Z"/>
<defs>
	<clipPath id="z20439c1"><use href="#z20439d1"/></clipPath>
	<clipPath id="z20439c2"><use href="#z20439d2"/></clipPath>
	<clipPath id="z20439c3"><use href="#z20439d3"/></clipPath>
	<clipPath id="z20439c4"><use href="#z20439d4"/></clipPath>
	<clipPath id="z20439c5"><use href="#z20439d5"/></clipPath>
	<clipPath id="z20439c6"><use href="#z20439d6"/></clipPath>
	<clipPath id="z20439c7"><use href="#z20439d7"/></clipPath>
	<clipPath id="z20439c8"><use href="#z20439d8"/></clipPath>
	<clipPath id="z20439c9"><use href="#z20439d9"/></clipPath>
<marker id="guide-arrow" viewBox="0 0 16 16" refX="5" refY="5" markerWidth="4" markerHeight="4" orient="auto-start-reverse"><path d="M 0 0 L 10 5 L 0 10 z" fill="inherit"/></marker></defs>
<path style="--d:1s;" pathLength="3333" clip-path="url(#z20439c1)" d="M312 101L352 147L349 181L208 399L69 553"/>
<path style="--d:2s;" pathLength="3333" clip-path="url(#z20439c2)" d="M229 403L262 479L245 906"/>
<path style="--d:3s;" pathLength="3333" clip-path="url(#z20439c3)" d="M480 190L505 231L441 327L377 379"/>
<path style="--d:4s;" pathLength="3333" clip-path="url(#z20439c4)" d="M648 180L754 236L791 293"/>
<path style="--d:5s;" pathLength="3333" clip-path="url(#z20439c5)" d="M559 305L595 349L528 471L423 599L306 690"/>
<path style="--d:6s;" pathLength="3333" clip-path="url(#z20439c6)" d="M604 400L811 576L985 604"/>
<path style="--d:7s;" pathLength="3333" clip-path="url(#z20439c7)" d="M421 660L456 689L494 903"/>
<path style="--d:8s;" pathLength="3333" clip-path="url(#z20439c8)" d="M477 672L672 641L716 652L742 678L687 799"/>
<path style="--d:9s;" pathLength="3333" clip-path="url(#z20439c9)" d="M497 830L747 815"/>
<g class="guides"><circle style="--d: 1s" class="g1" cx="312" cy="101" r="16"/><path style="--d: 1s;" class="g1" d="M216,101 Q242.43109540636044,137.23008849557522 241.43992932862193,150.61946902654867 Q240.44876325088342,164.00884955752213 193.86395759717317,249.858407079646 Q147.2791519434629,335.7079646017699 101.35512367491167,396.3539823008849 Q101.35512367491167,396.3539823008849 55.43109540636044,457"/><circle style="--d: 2s" class="g2" cx="229" cy="403" r="16"/><path style="--d: 2s;" class="g2" d="M349,403 Q382,479 379.875,532.375 Q367.125,852.625 365,906"/><circle style="--d: 3s" class="g3" cx="480" cy="190" r="16"/><path style="--d: 3s;" class="g3" d="M384,190 Q396.5,210.5 388.5,222.5 Q364.5,258.5 356.5,265 Q340.5,278 332.5,284.5"/><circle style="--d: 4s" class="g4" cx="648" cy="180" r="16"/><path style="--d: 4s;" class="g4" d="M733.68,111.456 Q839.68,167.45600000000002 844.305,174.58100000000002 Q872.055,217.33100000000002 876.68,224.45600000000002"/><circle style="--d: 5s" class="g5" cx="559" cy="305" r="16"/><path style="--d: 5s;" class="g5" d="M463,305 Q487.0415224913495,338.0285714285714 464.6695501730104,383.8181818181818 Q442.2975778546713,429.6077922077922 407.23702422145334,477.6493506493507 Q372.1764705882353,525.6909090909091 333.10899653979243,559.8454545454546 Q333.10899653979243,559.8454545454546 294.0415224913495,594"/><circle style="--d: 6s" class="g6" cx="604" cy="400" r="16"/><path style="--d: 6s;" class="g6" d="M689.68,331.456 Q850.1294488188976,483.76847058823535 866.9882677165353,486.79741176470594 Q968.1411811023622,504.9710588235294 985,508"/><circle style="--d: 7s" class="g7" cx="421" cy="660" r="16"/><path style="--d: 7s;" class="g7" d="M506.68,591.456 Q541.68,620.456 546.43,647.206 Q574.93,807.706 579.68,834.456"/><circle style="--d: 8s" class="g8" cx="477" cy="672" r="16"/><path style="--d: 8s;" class="g8" d="M477,768 Q583.6981132075472,737 595.7358490566038,742.5 Q607.7735849056604,748 614.8867924528302,751.75 Q622,755.5 606.9528301886792,785.75 Q606.9528301886792,785.75 591.9056603773585,816"/><circle style="--d: 9s" class="g9" cx="497" cy="830" r="16"/><path style="--d: 9s;" class="g9" d="M497,926 L747,911"/></g></svg>