<!--
  Stroke-order data for 俺, derived from AnimCJK (https://github.com/parsimonhi/animCJK),
  itself derived from the Arphic PL KaitiM fonts. Distributed under the Arphic Public License
  (see ARPHICPL.TXT). Regenerated by scripts/build-strokes.ts — do not edit by hand.
-->
<svg id="z20474" class="acjk" viewBox="0 0 1024 1024" xmlns="http://www.w3.org/2000/svg">
<g class="glyph"><path id="z20474d1" d="M234 363C264 326 294 282 325 231C343 199 358 174 375 159C381 152 383 144 380 134C377 125 366 112 345 97C326 83 310 77 298 78C285 78 281 87 287 103C295 124 296 143 289 161C264 221 233 280 196 337C159 391 116 449 67 508C60 515 55 520 54 525C51 532 54 535 65 534C89 530 183 425 204 400C224 375 224 375 234 363Z"/><path id="z20474d2" d="M204 400C214 420 221 442 222 465C223 493 223 520 224 546C225 622 215 699 198 777C195 789 195 807 202 830C208 853 217 868 225 876C236 887 247 883 255 865C265 838 269 809 269 778C264 592 262 477 269 436C271 417 273 405 267 398C254 383 245 372 234 363C223 352 197 386 204 400Z"/><path id="z20474d3" d="M539 324C559 319 581 314 605 310C623 307 623 307 632 305C660 299 690 293 722 287C762 279 785 271 791 266C795 261 797 256 795 251C791 243 779 237 762 233C745 228 700 241 624 264C595 272 572 278 554 282C517 289 517 289 498 293C463 299 426 301 389 306C366 309 363 316 379 327C401 340 434 345 480 336C519 328 519 328 539 324Z"/><path id="z20474d4" d="M412 520C478 455 517 385 539 324C549 296 549 296 554 282C566 248 574 210 584 169C589 144 596 121 606 99C609 91 610 85 605 78C600 71 586 64 564 56C548 49 537 48 531 51C522 54 519 61 522 72C536 132 533 207 498 293C486 322 486 322 480 336C447 413 381 498 289 598C283 603 284 608 290 609C301 611 336 593 384 547C403 529 403 529 412 520Z"/><path id="z20474d5" d="M605 310C605 312 607 314 610 317C658 381 710 441 766 500C794 529 859 535 964 519C976 517 982 516 984 513C985 508 982 503 972 500C870 461 806 436 782 420C722 380 673 341 632 305C626 299 601 302 605 310Z"/><path id="z20474d6" d="M441 532Q432 526 412 520C400 515 379 535 384 547Q409 611 422 711Q423 742 441 765Q457 786 463 771Q466 762 467 751C467 735 467 735 467 727Q466 714 465 701Q449 601 445 563C443 553 449 538 441 532Z"/><path id="z20474d7" d="M657 726C667 738 676 746 685 750C691 754 699 750 707 737C715 722 724 674 738 594C741 575 750 558 764 544C771 535 772 527 765 520C755 510 737 498 712 485C702 480 676 485 634 494C624 495 612 498 598 501C566 507 566 507 550 510C516 516 479 521 441 532C431 534 435 567 445 563C471 554 505 545 548 539C579 534 579 534 594 532C608 529 624 526 642 524C660 521 672 523 679 530C686 538 690 546 689 556C680 642 671 689 661 697C655 705 651 718 657 726Z"/><path id="z20474d8" d="M585 636C607 631 628 627 649 624C661 622 666 617 661 610C655 601 645 596 631 595C620 593 605 595 588 601C560 609 560 609 546 613C522 619 499 627 478 634C469 636 470 641 481 649C483 651 505 651 545 644C572 639 572 639 585 636Z"/><path id="z20474d9" d="M583 736C607 732 632 728 657 726C667 726 670 700 661 697C651 691 624 690 583 701C557 708 557 708 544 711C517 717 491 721 467 727C459 729 459 752 467 751C469 751 495 747 545 741C570 738 570 738 583 736Z"/><path id="z20474d10" d="M876 846C867 829 854 795 844 742C841 731 841 724 837 722C833 719 829 724 827 736C812 792 799 829 788 847C782 855 770 862 752 867C712 877 672 874 634 857C619 850 610 841 606 832C593 807 583 775 583 736C583 713 583 713 583 701C583 680 583 658 585 636C587 613 587 613 588 601C589 578 591 555 594 532C597 511 597 511 598 501C600 485 602 469 605 454C607 441 605 433 598 427C589 418 577 410 562 405C553 401 546 402 541 406C536 408 536 416 540 428C546 446 552 473 550 510C549 529 549 529 548 539C546 563 546 588 546 613C545 634 545 634 545 644C544 668 543 690 544 711C545 731 545 731 545 741C547 819 559 869 582 890C622 926 688 939 780 925C788 923 796 921 806 919C828 912 850 902 871 886C883 876 884 862 876 846Z"/></g>
<defs><clipPath id="z20474c1"><use href="#z20474d1"/></clipPath>
	<clipPath id="z20474c2"><use href="#z20474d2"/></clipPath>
	<clipPath id="z20474c3"><use href="#z20474d3"/></clipPath>
	<clipPath id="z20474c4"><use href="#z20474d4"/></clipPath>
	<clipPath id="z20474c5"><use href="#z20474d5"/></clipPath>
	<clipPath id="z20474c6"><use href="#z20474d6"/></clipPath>
	<clipPath id="z20474c7"><use href="#z20474d7"/></clipPath>
	<clipPath id="z20474c8"><use href="#z20474d8"/></clipPath>
	<clipPath id="z20474c9"><use href="#z20474d9"/></clipPath>
	<clipPath id="z20474c10"><use href="#z20474d10"/></clipPath><marker id="guide-arrow" viewBox="0 0 16 16" refX="5" refY="5" markerWidth="4" markerHeight="4" orient="auto-start-reverse"><path d="M 0 0 L 10 5 L 0 10 z" fill="inherit"/></marker></defs>
<g class="strokes"><path pathLength="3333" clip-path="url(#z20474c1)" d="M292 84L336 150L212 354L61 529"/><path pathLength="3333" clip-path="url(#z20474c2)" d="M232 371L238 877"/><path pathLength="3333" clip-path="url(#z20474c3)" d="M378 315L478 316L788 251"/><path pathLength="3333" clip-path="url(#z20474c4)" d="M529 56L568 95L518 310L421 475L295 603"/><path pathLength="3333" clip-path="url(#z20474c5)" d="M617 314L804 477L977 511"/><path pathLength="3333" clip-path="url(#z20474c6)" d="M393 545L419 563L455 771"/><path pathLength="3333" clip-path="url(#z20474c7)" d="M447 555L638 508L711 518L728 537L684 747"/><path pathLength="3333" clip-path="url(#z20474c8)" d="M478 638L656 615"/><path pathLength="3333" clip-path="url(#z20474c9)" d="M472 743L657 704"/><path pathLength="3333" clip-path="url(#z20474c10)" d="M545 410L575 447L564 742L598 867L688 900L803 883L839 850L834 731"/></g>
<g class="guides"><text class="g1" style="--gs:1" x="292" y="84">①</text><path class="g1 aligned" style="--gs:1" d="M292,84 Q336,150 305,201 Q212,354 174.25,397.75 Q98.75,485.25 61,529"/><path class="g1 offset" style="--gs:1" d="M196,84 Q224.64,135.76 204.46,175.76 Q143.93,295.75 119.36,330.06 Q70.21,398.69 45.64,433"/><text class="g2" style="--gs:2" x="232" y="371">②</text><path class="g2 aligned" style="--gs:2" d="M232,371 L238,877"/><path class="g2 offset" style="--gs:2" d="M352,371 L358,877"/><text class="g3" style="--gs:3" x="378" y="315">③</text><path class="g3 aligned" style="--gs:3" d="M378,315 Q478,316 516.75,307.88 Q749.25,259.13 788,251"/><path class="g3 offset" style="--gs:3" d="M378,411 Q478,412 516.75,403.88 Q749.25,355.13 788,347"/><text class="g4" style="--gs:4" x="529" y="56">④</text><path class="g4 aligned" style="--gs:4" d="M529,56 Q568,95 543,202.5 Q518,310 469.5,392.5 Q421,475 358,539 Q358,539 295,603"/><path class="g4 offset" style="--gs:4" d="M433,56 Q458.29,88.16 442.08,176.79 Q425.87,265.42 394.42,333.44 Q362.98,401.46 322.13,454.23 Q322.13,454.23 281.29,507"/><text class="g5" style="--gs:5" x="617" y="314">⑤</text><path class="g5 aligned" style="--gs:5" d="M617,314 Q804,477 825.63,481.25 Q955.38,506.75 977,511"/><path class="g5 offset" style="--gs:5" d="M702.68,245.46 Q845.17,385.74 861.65,389.4 Q960.52,411.34 977,415"/><text class="g6" style="--gs:6" x="393" y="545">⑥</text><path class="g6 aligned" style="--gs:6" d="M406,554 L455,771"/><path class="g6 offset" style="--gs:6" d="M526,554 L575,771"/><text class="g7" style="--gs:7" x="447" y="555">⑦</text><path class="g7 aligned" style="--gs:7" d="M447,555 Q638,508 674.5,513 Q711,518 719.5,527.5 Q728,537 706,642 Q706,642 684,747"/><path class="g7 offset" style="--gs:7" d="M447,651 Q556.43,604 577.35,609 Q598.26,614 603.13,623.5 Q608,633 595.4,690 Q595.4,690 582.79,747"/><text class="g8" style="--gs:8" x="478" y="638">⑧</text><path class="g8 aligned" style="--gs:8" d="M478,638 L656,615"/><path class="g8 offset" style="--gs:8" d="M478,734 L656,711"/><text class="g9" style="--gs:9" x="472" y="743">⑨</text><path class="g9 aligned" style="--gs:9" d="M472,743 L657,704"/><path class="g9 offset" style="--gs:9" d="M472,839 L657,800"/><text class="g10" style="--gs:10" x="545" y="410">⑩</text><path class="g10 aligned" style="--gs:10" d="M545,410 Q575,447 569.5,594.5 Q564,742 581,804.5 Q598,867 643,883.5 Q688,900 745.5,891.5 Q803,883 821,866.5 Q839,850 836.5,790.5 Q836.5,790.5 834,731"/><path class="g10 offset" style="--gs:10" d="M613.54,341.46 Q628.54,378.46 625.79,525.96 Q623.04,673.46 631.54,735.96 Q640.04,798.46 662.54,814.96 Q685.04,831.46 713.79,822.96 Q742.54,814.46 751.54,797.96 Q760.54,781.46 759.29,721.96 Q759.29,721.96 758.04,662.46"/></g>
</svg>
