<!--
  Stroke-order data for 倆, derived from AnimCJK (https://github.com/parsimonhi/animCJK),
  itself derived from the Arphic PL KaitiM fonts. Distributed under the Arphic Public License
  (see ARPHICPL.TXT). Regenerated by scripts/build-strokes.ts — do not edit by hand.
-->
<svg id="z20486" class="acjk" viewBox="0 0 1024 1024" xmlns="http://www.w3.org/2000/svg">
<g class="glyph"><path style="--part:1" id="z20486d1" d="M246 342C268 310 290 273 313 232C331 198 346 173 362 156C369 148 369 139 366 130C362 121 351 108 329 93C309 79 292 73 279 75C266 76 262 87 269 102C278 123 281 142 274 163C235 269 166 394 58 531C36 558 43 563 65 548C106 520 191 420 219 381C237 355 237 355 246 342Z"/><path style="--part:1" id="z20486d2" d="M219 381C231 405 239 442 237 493C231 613 214 703 198 765C189 794 195 829 222 861C234 875 250 865 255 853C265 826 268 797 269 766C273 579 280 465 289 424C292 405 292 393 287 386C273 367 253 349 246 342C235 331 213 366 219 381Z"/><path style="--part:2" id="z20486d3" d="M603 268C657 256 712 245 770 233C804 225 825 217 831 213C837 208 838 202 835 196C830 187 817 181 798 177C781 173 734 186 654 209C582 229 515 237 454 246C429 249 424 261 443 270C484 289 521 284 559 277C588 271 588 271 603 268Z"/><path style="--part:2" id="z20486d4" d="M399 441C379 432 362 427 351 429C342 430 340 436 345 445C375 503 374 602 357 693C347 739 343 769 367 796C373 803 378 807 384 803C405 785 414 742 414 678C413 568 414 500 415 476C415 463 411 446 399 441Z"/><path style="--part:2" id="z20486d5" d="M629 434C724 418 766 412 802 416C830 418 830 457 831 472C839 594 837 691 825 763C821 783 809 795 792 793C772 790 754 787 736 782C710 775 716 787 731 802C772 843 800 873 813 895C819 905 827 910 835 908C845 905 853 894 862 876C875 847 884 817 889 786C895 741 899 643 897 491C896 463 899 440 908 427C917 411 918 405 910 400C897 391 879 379 855 368C838 360 821 358 804 363C729 382 672 389 630 399C599 406 599 406 584 409C552 415 456 430 399 441C386 444 403 480 415 476C455 462 513 452 586 441C615 436 615 436 629 434Z"/><path style="--part:2" id="z20486d6" d="M586 441C586 455 584 647 578 692C572 734 569 759 583 793C596 825 612 818 623 793C628 779 630 763 630 747C629 726 625 544 629 434C630 411 630 411 630 399C633 292 660 304 603 268C590 260 553 263 559 277C581 322 581 363 584 409C585 430 585 430 586 441Z"/><path style="--part:2" id="z20486d7" d="M491 586C480 604 463 628 438 652C419 670 430 671 448 662C475 648 498 625 513 611C521 603 498 577 491 586Z"/><path style="--part:2" id="z20486d8" d="M513 611C534 635 546 651 555 655C557 655 560 653 564 650C568 645 568 634 566 617C562 591 523 560 448 522C444 520 442 520 441 526C440 530 442 535 447 540C460 554 476 568 491 586C506 603 506 603 513 611Z"/><path style="--part:2" id="z20486d9" d="M713 552C700 574 681 598 654 622C633 639 658 633 667 628C683 621 706 604 737 579C746 571 720 542 713 552Z"/><path style="--part:2" id="z20486d10" d="M737 579C772 618 791 640 798 643C800 643 803 641 808 638C813 633 814 621 810 601C803 569 754 529 665 482C660 479 658 480 658 486C657 491 658 497 663 502C678 517 696 532 713 552C729 570 729 570 737 579Z"/></g>
<defs><clipPath id="z20486c1"><use href="#z20486d1"/></clipPath>
	<clipPath id="z20486c2"><use href="#z20486d2"/></clipPath>
	<clipPath id="z20486c3"><use href="#z20486d3"/></clipPath>
	<clipPath id="z20486c4"><use href="#z20486d4"/></clipPath>
	<clipPath id="z20486c5"><use href="#z20486d5"/></clipPath>
	<clipPath id="z20486c6"><use href="#z20486d6"/></clipPath>
	<clipPath id="z20486c7"><use href="#z20486d7"/></clipPath>
	<clipPath id="z20486c8"><use href="#z20486d8"/></clipPath>
	<clipPath id="z20486c9"><use href="#z20486d9"/></clipPath>
	<clipPath id="z20486c10"><use href="#z20486d10"/></clipPath><marker id="guide-arrow" viewBox="0 0 16 16" refX="5" refY="5" markerWidth="4" markerHeight="4" orient="auto-start-reverse"><path d="M 0 0 L 10 5 L 0 10 z" fill="inherit"/></marker></defs>
<g class="strokes"><path style="--part:1" pathLength="3333" clip-path="url(#z20486c1)" d="M272 81L320 149L199 369L51 549"/><path style="--part:1" pathLength="3333" clip-path="url(#z20486c2)" d="M241 344L261 453L231 862"/><path style="--part:2" pathLength="3333" clip-path="url(#z20486c3)" d="M440 256L515 260L832 198"/><path style="--part:2" pathLength="3333" clip-path="url(#z20486c4)" d="M351 437L386 470L390 518L378 798"/><path style="--part:2" pathLength="3333" clip-path="url(#z20486c5)" d="M400 449L812 388L861 414L851 795L816 855L725 788"/><path style="--part:2" pathLength="3333" clip-path="url(#z20486c6)" d="M565 270L607 324L604 808"/><path style="--part:2" pathLength="3333" clip-path="url(#z20486c7)" d="M496 590L435 661"/><path style="--part:2" pathLength="3333" clip-path="url(#z20486c8)" d="M448 530L556 648"/><path style="--part:2" pathLength="3333" clip-path="url(#z20486c9)" d="M720 555L653 628"/><path style="--part:2" pathLength="3333" clip-path="url(#z20486c10)" d="M663 487L769 579L799 637"/></g>
<g class="guides"><text class="g1" style="--gs:1" x="272" y="81">①</text><path class="g1 aligned" style="--gs:1" d="M272,81 Q320,149 289.75,204 Q199,369 162,414 Q88,504 51,549"/><path class="g1 offset" style="--gs:1" d="M176,81 Q206.87,135.05 187.42,178.77 Q129.05,309.92 105.26,345.69 Q57.67,417.23 33.87,453"/><text class="g2" style="--gs:2" x="241" y="344">②</text><path class="g2 aligned" style="--gs:2" d="M241,344 Q261,453 257.25,504.13 Q234.75,810.88 231,862"/><path class="g2 offset" style="--gs:2" d="M361,344 Q381,453 377.25,504.13 Q354.75,810.88 351,862"/><text class="g3" style="--gs:3" x="440" y="256">③</text><path class="g3 aligned" style="--gs:3" d="M440,256 Q515,260 554.63,252.25 Q792.38,205.75 832,198"/><path class="g3 offset" style="--gs:3" d="M440,352 Q515,356 554.63,348.25 Q792.38,301.75 832,294"/><text class="g4" style="--gs:4" x="351" y="437">④</text><path class="g4 aligned" style="--gs:4" d="M351,437 Q386,470 387,482 Q390,518 387,588 Q381,728 378,798"/><path class="g4 offset" style="--gs:4" d="M255,437 Q290,470 291,482 Q294,518 291,588 Q285,728 282,798"/><text class="g5" style="--gs:5" x="400" y="449">⑤</text><path class="g5 aligned" style="--gs:5" d="M400,449 Q812,388 836.5,401 Q861,414 856,604.5 Q851,795 833.5,825 Q816,855 770.5,821.5 Q770.5,821.5 725,788"/><path class="g5 offset" style="--gs:5" d="M400,545 Q726.2,484 745.6,497 Q765,510 761.04,608.55 Q757.08,707.11 743.23,723.55 Q729.37,740 693.35,721.64 Q693.35,721.64 657.32,703.27"/><text class="g6" style="--gs:6" x="565" y="270">⑥</text><path class="g6 aligned" style="--gs:6" d="M565,270 Q607,324 606.63,384.5 Q604.38,747.5 604,808"/><path class="g6 offset" style="--gs:6" d="M469,270 Q511,324 510.63,384.5 Q508.38,747.5 508,808"/><text class="g7" style="--gs:7" x="496" y="590">⑦</text><path class="g7 aligned" style="--gs:7" d="M496,590 L435,661"/><path class="g7 offset" style="--gs:7" d="M581.68,658.54 L520.68,729.54"/><text class="g8" style="--gs:8" x="448" y="530">⑧</text><path class="g8 aligned" style="--gs:8" d="M448,530 L556,648"/><path class="g8 offset" style="--gs:8" d="M533.68,461.46 L641.68,579.46"/><text class="g9" style="--gs:9" x="720" y="555">⑨</text><path class="g9 aligned" style="--gs:9" d="M720,555 L653,628"/><path class="g9 offset" style="--gs:9" d="M805.68,623.54 L738.68,696.54"/><text class="g10" style="--gs:10" x="663" y="487">⑩</text><path class="g10 aligned" style="--gs:10" d="M663,487 Q769,579 772.75,586.25 Q795.25,629.75 799,637"/><path class="g10 offset" style="--gs:10" d="M748.68,418.46 Q854.68,510.46 858.43,517.71 Q880.93,561.21 884.68,568.46"/></g>
<g class="parts"><rect data-part="2" data-literal="兩" role="button" tabindex="0" aria-label="Part 兩" x="279" y="126" width="654" height="801"/><rect data-part="1" data-literal="亻" data-radical="true" role="button" tabindex="0" aria-label="Part 亻 (radical)" x="0" y="9" width="392" height="925"/></g>
</svg>
