<!--
  Stroke-order data for 倒, derived from AnimCJK (https://github.com/parsimonhi/animCJK),
  itself derived from the Arphic PL KaitiM fonts. Distributed under the Arphic Public License
  (see ARPHICPL.TXT). Regenerated by scripts/build-strokes.ts — do not edit by hand.
-->
<svg id="z20498" class="acjk" viewBox="0 0 1024 1024" xmlns="http://www.w3.org/2000/svg">
<g class="glyph"><path style="--part:1" id="z20498d1" d="M238 359Q274 305 314 237Q339 186 361 162Q371 150 365 137Q361 124 330 101Q300 83 281 84Q262 87 271 109Q287 140 276 169Q242 262 189 350Q137 434 66 528Q56 538 54 545Q50 557 65 554Q102 545 198 415Q204 406 211 398C229 372 229 372 238 359Z"/><path style="--part:1" id="z20498d2" d="M211 398Q232 419 229 546Q228 657 198 769Q188 814 222 865Q223 865 225 868Q243 884 255 857Q270 817 269 770Q272 500 281 440Q288 413 279 402Q240 360 238 359C227 348 202 385 211 398Z"/><path style="--part:2" id="z20498d3" d="M487 270Q545 254 608 239Q639 230 644 226Q651 219 647 211Q640 201 613 195Q585 191 559 203Q523 216 484 228Q441 238 391 246Q357 253 382 267Q412 282 450 279C475 273 475 273 487 270Z"/><path style="--part:2" id="z20498d4" d="M501 452Q529 440 567 428Q576 424 584 420C590 416 580 400 573 401Q504 417 434 444Q427 448 424 446Q423 443 428 436Q507 336 525 320Q535 311 531 300Q525 288 487 270C476 263 450 266 450 279Q450 327 449 331Q446 335 443 343Q416 409 347 457Q323 479 366 511Q376 521 388 511Q419 483 466 467C489 457 489 457 501 452Z"/><path style="--part:2" id="z20498d5" d="M584 420Q599 453 617 455Q626 456 633 447Q640 435 639 409Q636 388 579 359Q566 352 560 353Q556 356 554 367Q555 377 573 400C578 406 581 413 584 420Z"/><path style="--part:2" id="z20498d6" d="M526 593Q547 586 571 581Q596 574 601 570Q608 563 603 555Q596 545 569 539Q547 536 528 543C494 556 494 556 477 563Q464 566 454 570Q420 579 378 585Q345 592 370 607Q412 625 468 608Q472 607 478 606C510 597 510 597 526 593Z"/><path style="--part:2" id="z20498d7" d="M521 688Q522 637 526 593C527 560 527 560 528 543Q534 482 529 475Q516 462 501 452C490 445 462 455 466 467Q473 485 477 563C478 592 478 592 478 606Q478 645 479 700C479 715 521 703 521 688Z"/><path style="--part:2" id="z20498d8" d="M479 700Q352 736 318 735Q305 736 303 747Q302 760 310 770Q334 786 368 806Q378 809 391 800Q421 776 598 697Q623 687 640 673Q653 666 654 656Q648 650 636 653Q581 669 521 688C493 696 493 696 479 700Z"/><path style="--part:2" id="z20498d9" d="M682 339Q712 405 691 558Q685 594 712 622Q721 632 730 622Q751 592 748 549Q742 447 753 367Q760 345 740 334Q724 324 707 316Q695 312 686 318Q679 324 682 339Z"/><path style="--part:2" id="z20498d10" d="M820 193Q824 227 830 772Q829 794 817 804Q814 807 764 812Q727 802 731 812Q732 819 755 834Q810 880 824 905Q840 935 854 936Q869 937 883 899Q901 850 896 770Q857 302 895 162Q913 129 852 106Q815 87 795 95Q776 102 793 127Q817 155 820 193Z"/></g>
<defs><clipPath id="z20498c1"><use href="#z20498d1"/></clipPath>
	<clipPath id="z20498c2"><use href="#z20498d2"/></clipPath>
	<clipPath id="z20498c3"><use href="#z20498d3"/></clipPath>
	<clipPath id="z20498c4"><use href="#z20498d4"/></clipPath>
	<clipPath id="z20498c5"><use href="#z20498d5"/></clipPath>
	<clipPath id="z20498c6"><use href="#z20498d6"/></clipPath>
	<clipPath id="z20498c7"><use href="#z20498d7"/></clipPath>
	<clipPath id="z20498c8"><use href="#z20498d8"/></clipPath>
	<clipPath id="z20498c9"><use href="#z20498d9"/></clipPath>
	<clipPath id="z20498c10"><use href="#z20498d10"/></clipPath><marker id="guide-arrow" viewBox="0 0 16 16" refX="5" refY="5" markerWidth="4" markerHeight="4" orient="auto-start-reverse"><path d="M 0 0 L 10 5 L 0 10 z" fill="inherit"/></marker></defs>
<g class="strokes"><path style="--part:1" pathLength="3333" clip-path="url(#z20498c1)" d="M276 91L322 155L188 393L58 548"/><path style="--part:1" pathLength="3333" clip-path="url(#z20498c2)" d="M238 365L253 483L233 869"/><path style="--part:2" pathLength="3333" clip-path="url(#z20498c3)" d="M379 254L460 255L643 211"/><path style="--part:2" pathLength="3333" clip-path="url(#z20498c4)" d="M455 282L490 317L381 456L389 472L578 411"/><path style="--part:2" pathLength="3333" clip-path="url(#z20498c5)" d="M564 359L620 450"/><path style="--part:2" pathLength="3333" clip-path="url(#z20498c6)" d="M369 596L597 558"/><path style="--part:2" pathLength="3333" clip-path="url(#z20498c7)" d="M473 472L502 504L490 695"/><path style="--part:2" pathLength="3333" clip-path="url(#z20498c8)" d="M306 747L374 767L646 657"/><path style="--part:2" pathLength="3333" clip-path="url(#z20498c9)" d="M689 321L723 364L720 617"/><path style="--part:2" pathLength="3333" clip-path="url(#z20498c10)" d="M792 102L857 159L862 798L837 885L737 813"/></g>
<g class="guides"><text class="g1" style="--gs:1" x="276" y="91">①</text><path class="g1 aligned" style="--gs:1" d="M276,91 Q322,155 288.5,214.5 Q188,393 155.5,431.75 Q90.5,509.25 58,548"/><path class="g1 offset" style="--gs:1" d="M180,91 Q209.27,141.56 187.95,188.56 Q124,329.56 103.32,360.17 Q61.95,421.39 41.27,452"/><text class="g2" style="--gs:2" x="238" y="365">②</text><path class="g2 aligned" style="--gs:2" d="M238,365 Q253,483 250.5,531.25 Q235.5,820.75 233,869"/><path class="g2 offset" style="--gs:2" d="M358,365 Q373,483 370.5,531.25 Q355.5,820.75 353,869"/><text class="g3" style="--gs:3" x="379" y="254">③</text><path class="g3 aligned" style="--gs:3" d="M379,254 Q460,255 482.88,249.5 Q620.13,216.5 643,211"/><path class="g3 offset" style="--gs:3" d="M379,350 Q460,351 482.88,345.5 Q620.13,312.5 643,307"/><text class="g4" style="--gs:4" x="455" y="282">④</text><path class="g4 aligned" style="--gs:4" d="M455,282 Q490,317 435.5,386.5 Q381,456 385,464 Q389,472 483.5,441.5 Q483.5,441.5 578,411"/><path class="g4 offset" style="--gs:4" d="M540.68,213.46 Q560.46,243.4 529.66,302.86 Q498.86,362.31 501.12,369.16 Q503.38,376 556.78,349.91 Q556.78,349.91 610.18,323.81"/><text class="g5" style="--gs:5" x="564" y="359">⑤</text><path class="g5 aligned" style="--gs:5" d="M564,359 L620,450"/><path class="g5 offset" style="--gs:5" d="M649.68,290.46 L705.68,381.46"/><text class="g6" style="--gs:6" x="369" y="596">⑥</text><path class="g6 aligned" style="--gs:6" d="M369,596 L597,558"/><path class="g6 offset" style="--gs:6" d="M369,692 L597,654"/><text class="g7" style="--gs:7" x="473" y="472">⑦</text><path class="g7 aligned" style="--gs:7" d="M473,472 Q502,504 500.5,527.88 Q491.5,671.13 490,695"/><path class="g7 offset" style="--gs:7" d="M377,472 Q406,504 404.5,527.88 Q395.5,671.13 394,695"/><text class="g8" style="--gs:8" x="306" y="747">⑧</text><path class="g8 aligned" style="--gs:8" d="M306,747 Q374,767 408,753.25 Q612,670.75 646,657"/><path class="g8 offset" style="--gs:8" d="M306,843 Q374,863 408,849.25 Q612,766.75 646,753"/><text class="g9" style="--gs:9" x="689" y="321">⑨</text><path class="g9 aligned" style="--gs:9" d="M689,321 Q723,364 722.63,395.63 Q720.38,585.38 720,617"/><path class="g9 offset" style="--gs:9" d="M593,321 Q627,364 626.63,395.63 Q624.38,585.38 624,617"/><text class="g10" style="--gs:10" x="792" y="102">⑩</text><path class="g10 aligned" style="--gs:10" d="M792,102 Q857,159 859.5,478.5 Q862,798 849.5,841.5 Q837,885 787,849 Q787,849 737,813"/><path class="g10 offset" style="--gs:10" d="M696,102 Q728.5,152.01 729.75,432.34 Q731,712.67 724.75,750.83 Q718.5,789 693.5,757.41 Q693.5,757.41 668.5,725.83"/></g>
<g class="parts"><rect data-part="2" data-literal="到" role="button" tabindex="0" aria-label="Part 到" x="234" y="30" width="700" height="927"/><rect data-part="1" data-literal="亻" data-radical="true" role="button" tabindex="0" aria-label="Part 亻 (radical)" x="0" y="19" width="394" height="922"/></g>
</svg>
