<!--
  Stroke-order data for 倹, derived from AnimCJK (https://github.com/parsimonhi/animCJK),
  itself derived from the Arphic PL KaitiM fonts. Distributed under the Arphic Public License
  (see ARPHICPL.TXT). Regenerated by scripts/build-strokes.ts — do not edit by hand.
-->
<svg id="z20537" class="acjk" viewBox="0 0 1024 1024" xmlns="http://www.w3.org/2000/svg">
<g class="glyph"><path id="z20537d1" d="M230 409C274 339 304 260 343 186C347 177 347 167 340 158C314 121 288 105 263 108C250 109 249 116 254 132C260 153 262 178 258 197C227 322 155 460 34 609C30 613 27 618 28 623C28 627 30 629 35 628C74 615 134 559 204 450C221 423 221 423 230 409Z"/><path id="z20537d2" d="M204 450C222 492 225 574 213 694C209 728 200 764 192 801C184 830 192 863 216 897C216 897 217 898 219 900C230 911 241 907 249 889C259 862 263 833 263 802C262 631 264 526 271 488C274 469 275 457 269 450C244 423 231 409 230 409C219 398 198 435 204 450Z"/><path id="z20537d3" d="M581 184C587 173 595 164 603 157C609 150 610 142 607 134C604 125 593 114 574 101C557 90 542 84 530 85C518 85 514 93 521 108C529 128 530 146 524 164C501 222 474 278 440 333C407 385 368 441 322 498C316 505 311 510 310 514C307 520 311 523 321 522C351 517 417 446 512 302C547 247 563 213 569 204C577 191 577 191 581 184Z"/><path id="z20537d4" d="M848 441C830 441 814 440 800 437C764 429 705 362 569 204C564 199 575 179 581 184C750 321 772 336 860 368C900 382 939 395 974 409C984 413 989 418 987 422C985 426 977 427 966 429C919 435 881 441 848 441Z"/><path id="z20537d5" d="M473 409C450 412 447 421 466 429C481 435 509 438 539 432C577 424 577 424 596 420C618 415 644 405 669 400C685 396 694 392 696 391C702 385 702 380 698 376C691 369 680 364 662 363C642 360 574 392 473 409Z"/><path id="z20537d6" d="M465 703C454 704 449 693 443 686C430 671 429 652 423 636C412 607 399 573 383 548C379 543 376 533 384 531C395 527 416 527 434 538C445 545 454 557 456 569C461 598 467 624 472 652C473 673 473 673 474 684C474 690 474 702 465 703Z"/><path id="z20537d7" d="M675 619C682 596 688 568 691 543C691 537 687 532 682 530C667 523 636 534 593 542C565 547 565 547 551 549C527 552 463 566 456 569C444 573 421 538 434 538C478 536 512 531 552 522C581 515 581 515 596 512C624 505 652 493 678 484C692 478 709 483 723 492C741 504 762 513 778 529C785 537 785 551 778 560C773 566 763 569 758 575C742 589 730 611 719 629C711 642 672 634 675 619Z"/><path id="z20537d8" d="M472 652C494 649 518 645 543 642C571 638 571 638 585 636C628 629 656 625 675 619C689 614 706 621 719 629C727 634 732 637 734 648C735 656 722 656 716 657C668 659 627 665 581 670C553 673 553 673 539 674C516 676 494 678 474 684C464 686 462 654 472 652Z"/><path id="z20537d9" d="M360 900C353 901 341 900 340 892C338 884 349 881 356 879C406 855 464 815 486 787C503 763 525 736 537 674C541 653 541 653 543 642C548 613 549 580 551 549C552 531 552 531 552 522C552 500 552 485 550 463C548 448 539 432 539 432C532 414 578 413 596 420C604 423 621 433 616 448C605 473 598 483 596 512C594 532 594 532 593 542C590 570 586 621 585 636C582 659 582 659 581 670C579 680 575 708 572 718C565 738 565 738 561 748C551 773 535 803 501 834C475 856 432 879 360 900Z"/><path id="z20537d10" d="M723 898C708 897 692 892 682 882C653 852 579 771 561 748C555 739 564 710 572 718C603 749 641 791 692 818C741 844 784 858 831 876C837 878 842 885 837 890C828 898 759 900 723 898Z"/></g>
<defs><clipPath id="z20537c1"><use href="#z20537d1"/></clipPath>
	<clipPath id="z20537c2"><use href="#z20537d2"/></clipPath>
	<clipPath id="z20537c3"><use href="#z20537d3"/></clipPath>
	<clipPath id="z20537c4"><use href="#z20537d4"/></clipPath>
	<clipPath id="z20537c5"><use href="#z20537d5"/></clipPath>
	<clipPath id="z20537c6"><use href="#z20537d6"/></clipPath>
	<clipPath id="z20537c7"><use href="#z20537d7"/></clipPath>
	<clipPath id="z20537c8"><use href="#z20537d8"/></clipPath>
	<clipPath id="z20537c9"><use href="#z20537d9"/></clipPath>
	<clipPath id="z20537c10"><use href="#z20537d10"/></clipPath><marker id="guide-arrow" viewBox="0 0 16 16" refX="5" refY="5" markerWidth="4" markerHeight="4" orient="auto-start-reverse"><path d="M 0 0 L 10 5 L 0 10 z" fill="inherit"/></marker></defs>
<g class="strokes"><path pathLength="3333" clip-path="url(#z20537c1)" d="M259 114L302 181L253 304L166 465L36 621"/><path pathLength="3333" clip-path="url(#z20537c2)" d="M229 417L244 476L229 901"/><path pathLength="3333" clip-path="url(#z20537c3)" d="M525 95L567 149L442 367L315 513"/><path pathLength="3333" clip-path="url(#z20537c4)" d="M583 190L802 386L988 419"/><path pathLength="3333" clip-path="url(#z20537c5)" d="M467 417L692 386"/><path pathLength="3333" clip-path="url(#z20537c6)" d="M388 541L433 589L463 698"/><path pathLength="3333" clip-path="url(#z20537c7)" d="M443 548L690 512L736 556L688 621"/><path pathLength="3333" clip-path="url(#z20537c8)" d="M479 673L659 641L729 647"/><path pathLength="3333" clip-path="url(#z20537c9)" d="M550 439L583 469L540 746L470 837L346 891"/><path pathLength="3333" clip-path="url(#z20537c10)" d="M573 729L703 860L831 885"/></g>
<g class="guides"><text class="g1" style="--gs:1" x="259" y="114">①</text><path class="g1 aligned" style="--gs:1" d="M259,114 Q302,181 277.5,242.5 Q253,304 209.5,384.5 Q166,465 101,543 Q101,543 36,621"/><path class="g1 offset" style="--gs:1" d="M163,114 Q190.48,168.31 174.82,218.17 Q159.17,268.02 131.36,333.28 Q103.56,398.54 62.02,461.77 Q62.02,461.77 20.48,525"/><text class="g2" style="--gs:2" x="229" y="417">②</text><path class="g2 aligned" style="--gs:2" d="M229,417 Q244,476 242.13,529.13 Q230.88,847.88 229,901"/><path class="g2 offset" style="--gs:2" d="M349,417 Q364,476 362.13,529.13 Q350.88,847.88 349,901"/><text class="g3" style="--gs:3" x="525" y="95">③</text><path class="g3 aligned" style="--gs:3" d="M525,95 Q567,149 535.75,203.5 Q442,367 410.25,403.5 Q346.75,476.5 315,513"/><path class="g3 offset" style="--gs:3" d="M429,95 Q455,136.6 435.65,178.58 Q377.62,304.53 357.96,332.65 Q318.65,388.88 299,417"/><text class="g4" style="--gs:4" x="583" y="190">④</text><path class="g4 aligned" style="--gs:4" d="M583,190 Q802,386 825.25,390.13 Q964.75,414.88 988,419"/><path class="g4 offset" style="--gs:4" d="M668.68,121.46 Q841.35,293.96 859.68,297.59 Q969.67,319.37 988,323"/><text class="g5" style="--gs:5" x="467" y="417">⑤</text><path class="g5 aligned" style="--gs:5" d="M467,417 L692,386"/><path class="g5 offset" style="--gs:5" d="M467,513 L692,482"/><text class="g6" style="--gs:6" x="388" y="541">⑥</text><path class="g6 aligned" style="--gs:6" d="M388,541 Q433,589 436.75,602.63 Q459.25,684.38 463,698"/><path class="g6 offset" style="--gs:6" d="M473.68,472.46 Q518.68,520.46 522.43,534.08 Q544.93,615.83 548.68,629.46"/><text class="g7" style="--gs:7" x="443" y="548">⑦</text><path class="g7 aligned" style="--gs:7" d="M443,548 Q690,512 701.5,523 Q736,556 724,572.25 Q700,604.75 688,621"/><path class="g7 offset" style="--gs:7" d="M443,644 Q609.07,608 616.8,619 Q640,652 631.93,668.25 Q615.8,700.75 607.73,717"/><text class="g8" style="--gs:8" x="479" y="673">⑧</text><path class="g8 aligned" style="--gs:8" d="M479,673 Q659,641 667.75,641.75 Q720.25,646.25 729,647"/><path class="g8 offset" style="--gs:8" d="M479,769 Q659,737 667.75,737.75 Q720.25,742.25 729,743"/><text class="g9" style="--gs:9" x="550" y="439">⑨</text><path class="g9 aligned" style="--gs:9" d="M550,439 Q583,469 561.5,607.5 Q540,746 505,791.5 Q470,837 408,864 Q408,864 346,891"/><path class="g9 offset" style="--gs:9" d="M454,439 Q473.63,462.63 460.84,571.71 Q448.05,680.8 427.23,716.63 Q406.41,752.47 369.52,773.73 Q369.52,773.73 332.63,795"/><text class="g10" style="--gs:10" x="573" y="729">⑩</text><path class="g10 aligned" style="--gs:10" d="M573,729 Q703,860 719,863.13 Q815,881.88 831,885"/><path class="g10 offset" style="--gs:10" d="M658.68,660.46 Q745.51,768.4 756.19,770.98 Q820.31,786.43 831,789"/></g>
</svg>
