<!--
  Stroke-order data for 偉, derived from AnimCJK (https://github.com/parsimonhi/animCJK),
  itself derived from the Arphic PL KaitiM fonts. Distributed under the Arphic Public License
  (see ARPHICPL.TXT). Regenerated by scripts/build-strokes.ts — do not edit by hand.
-->
<svg id="z20553" class="acjk" viewBox="0 0 1024 1024" xmlns="http://www.w3.org/2000/svg">
<g class="glyph"><path style="--part:1" id="z20553d1" d="M258 352C271 334 326 251 348 219C368 187 383 162 400 145C407 137 408 128 405 119C402 110 391 96 369 81C328 52 296 55 309 87C317 109 318 128 311 148C268 252 195 374 83 507C59 534 71 543 97 527C146 497 219 401 230 388C249 364 249 364 258 352Z"/><path style="--part:1" id="z20553d2" d="M230 388C246 432 255 469 256 500C256 612 248 706 229 781C220 814 225 846 251 878C257 886 272 908 287 872C297 844 302 813 302 782C299 595 299 480 306 439C309 420 309 407 303 400C296 392 270 360 258 352C246 343 224 374 230 388Z"/><path style="--part:2" id="z20553d3" d="M639 160C645 128 654 101 668 78C671 71 667 61 656 52C638 36 620 29 606 24C591 18 571 23 581 45C598 83 587 131 584 172C582 193 582 193 581 203C578 233 571 266 567 300C564 313 604 308 607 295C615 260 624 226 632 193C637 171 637 171 639 160Z"/><path style="--part:2" id="z20553d4" d="M763 271C775 239 791 218 810 204C821 194 822 181 813 171C803 161 781 149 750 135C739 129 727 129 714 134C687 143 662 154 639 160C602 168 602 168 584 172C551 179 518 183 485 186C468 187 462 197 490 209C520 221 559 207 581 203C615 196 615 196 632 193C686 182 716 177 724 184C728 188 730 195 729 204C723 232 716 257 709 280C703 297 756 288 763 271Z"/><path style="--part:2" id="z20553d5" d="M567 300C510 307 450 313 386 322C375 323 373 328 382 338C395 352 418 359 438 354C560 320 725 303 934 304C961 304 959 287 945 276C917 253 884 248 846 256C821 260 793 265 763 271C727 277 727 277 709 280C675 285 628 292 607 295C580 298 580 298 567 300Z"/><path style="--part:2" id="z20553d6" d="M505 402Q495 398 474 397Q464 396 460 400Q456 406 464 419Q485 452 502 508Q506 524 517 535Q533 553 538 539Q538 536 539 533C538 512 538 512 538 502Q528 450 525 430C523 419 516 406 505 402Z"/><path style="--part:2" id="z20553d7" d="M755 479C771 451 789 436 803 427C815 418 815 405 807 395C798 385 778 373 748 357C738 351 725 350 713 355C653 375 585 392 505 402C494 404 514 432 525 430C581 418 639 408 696 398C708 395 717 396 723 402C727 406 722 429 709 471C703 485 746 491 755 479Z"/><path style="--part:2" id="z20553d8" d="M646 519C678 514 718 512 764 508C789 505 769 488 755 479C742 471 724 468 709 471C691 473 637 488 538 502C528 504 529 533 539 533C549 533 566 529 594 526C629 521 629 521 646 519Z"/><path style="--part:2" id="z20553d9" d="M669 625C715 617 763 609 775 601C793 587 760 574 749 572C735 569 709 575 671 585C632 594 632 594 613 599C582 606 493 616 459 620C418 624 446 641 462 649C475 655 493 653 507 651C538 644 560 642 614 634C651 628 651 628 669 625Z"/><path style="--part:2" id="z20553d10" d="M486 755C477 681 473 666 462 649C454 636 496 640 507 651C530 677 515 669 519 752C519 763 488 766 486 755Z"/><path style="--part:2" id="z20553d11" d="M666 767C732 759 769 760 849 767C870 768 888 758 861 734C834 710 802 704 762 714C731 720 719 724 666 732C631 737 631 737 614 739C588 742 543 749 519 752C497 754 497 754 486 755C462 757 427 761 402 765C391 766 388 773 398 782C417 799 434 806 450 802C487 791 573 777 614 773C649 769 649 769 666 767Z"/><path style="--part:2" id="z20553d12" d="M614 773C614 799 614 894 621 938C629 992 655 989 662 912C663 889 666 848 666 767C666 744 666 744 666 732C666 704 667 661 669 625C670 598 670 598 671 585C672 547 673 537 646 519C632 509 585 511 594 526C600 541 610 527 613 599C614 622 614 622 614 634C614 668 614 704 614 739C614 762 614 762 614 773Z"/></g>
<defs><clipPath id="z20553c1"><use href="#z20553d1"/></clipPath>
	<clipPath id="z20553c2"><use href="#z20553d2"/></clipPath>
	<clipPath id="z20553c3"><use href="#z20553d3"/></clipPath>
	<clipPath id="z20553c4"><use href="#z20553d4"/></clipPath>
	<clipPath id="z20553c5"><use href="#z20553d5"/></clipPath>
	<clipPath id="z20553c6"><use href="#z20553d6"/></clipPath>
	<clipPath id="z20553c7"><use href="#z20553d7"/></clipPath>
	<clipPath id="z20553c8"><use href="#z20553d8"/></clipPath>
	<clipPath id="z20553c9"><use href="#z20553d9"/></clipPath>
	<clipPath id="z20553c10"><use href="#z20553d10"/></clipPath>
	<clipPath id="z20553c11"><use href="#z20553d11"/></clipPath>
	<clipPath id="z20553c12"><use href="#z20553d12"/></clipPath><marker id="guide-arrow" viewBox="0 0 16 16" refX="5" refY="5" markerWidth="4" markerHeight="4" orient="auto-start-reverse"><path d="M 0 0 L 10 5 L 0 10 z" fill="inherit"/></marker></defs>
<g class="strokes"><path style="--part:1" pathLength="3333" clip-path="url(#z20553c1)" d="M317 71L359 139L202 389L76 527"/><path style="--part:1" pathLength="3333" clip-path="url(#z20553c2)" d="M252 354L279 483L259 886"/><path style="--part:2" pathLength="3333" clip-path="url(#z20553c3)" d="M585 29L629 79L583 306"/><path style="--part:2" pathLength="3333" clip-path="url(#z20553c4)" d="M476 193L736 158L773 188L719 285"/><path style="--part:2" pathLength="3333" clip-path="url(#z20553c5)" d="M384 330L872 278L948 294"/><path style="--part:2" pathLength="3333" clip-path="url(#z20553c6)" d="M467 404L502 437L530 539"/><path style="--part:2" pathLength="3333" clip-path="url(#z20553c7)" d="M506 406L728 375L768 414L718 480"/><path style="--part:2" pathLength="3333" clip-path="url(#z20553c8)" d="M536 521L771 496"/><path style="--part:2" pathLength="3333" clip-path="url(#z20553c9)" d="M443 629L776 590"/><path style="--part:2" pathLength="3333" clip-path="url(#z20553c10)" d="M470 649L498 681L505 759"/><path style="--part:2" pathLength="3333" clip-path="url(#z20553c11)" d="M401 772L779 736L870 749"/><path style="--part:2" pathLength="3333" clip-path="url(#z20553c12)" d="M601 521L641 563L639 968"/></g>
<g class="guides"><text class="g1" style="--gs:1" x="317" y="71">①</text><path class="g1 aligned" style="--gs:1" d="M317,71 Q359,139 319.75,201.5 Q202,389 170.5,423.5 Q107.5,492.5 76,527"/><path class="g1 offset" style="--gs:1" d="M221,71 Q248.75,124.68 222.82,174.03 Q145.01,322.05 124.2,349.29 Q82.57,403.76 61.75,431"/><text class="g2" style="--gs:2" x="252" y="354">②</text><path class="g2 aligned" style="--gs:2" d="M252,354 Q279,483 276.5,533.38 Q261.5,835.63 259,886"/><path class="g2 offset" style="--gs:2" d="M372,354 Q399,483 396.5,533.38 Q381.5,835.63 379,886"/><text class="g3" style="--gs:3" x="585" y="29">③</text><path class="g3 aligned" style="--gs:3" d="M585,29 Q629,79 623.25,107.38 Q588.75,277.63 583,306"/><path class="g3 offset" style="--gs:3" d="M489,29 Q533,79 527.25,107.38 Q492.75,277.63 487,306"/><text class="g4" style="--gs:4" x="476" y="193">④</text><path class="g4 aligned" style="--gs:4" d="M476,193 Q736,158 745.25,165.5 Q773,188 759.5,212.25 Q732.5,260.75 719,285"/><path class="g4 offset" style="--gs:4" d="M476,289 Q630.95,254 636.46,261.5 Q653,284 644.95,292.38 Q628.86,309.13 620.82,317.5"/><text class="g5" style="--gs:5" x="384" y="330">⑤</text><path class="g5 aligned" style="--gs:5" d="M384,330 Q872,278 881.5,280 Q938.5,292 948,294"/><path class="g5 offset" style="--gs:5" d="M384,426 Q872,374 881.5,376 Q938.5,388 948,390"/><text class="g6" style="--gs:6" x="467" y="404">⑥</text><path class="g6 aligned" style="--gs:6" d="M467,404 Q502,437 505.5,449.75 Q526.5,526.25 530,539"/><path class="g6 offset" style="--gs:6" d="M552.68,335.46 Q587.68,368.46 591.18,381.21 Q612.18,457.71 615.68,470.46"/><text class="g7" style="--gs:7" x="506" y="406">⑦</text><path class="g7 aligned" style="--gs:7" d="M506,406 Q728,375 738,384.75 Q768,414 755.5,430.5 Q730.5,463.5 718,480"/><path class="g7 offset" style="--gs:7" d="M506,502 Q644.96,471 651.22,480.75 Q670,510 662.18,526.5 Q646.53,559.5 638.7,576"/><text class="g8" style="--gs:8" x="536" y="521">⑧</text><path class="g8 aligned" style="--gs:8" d="M536,521 L771,496"/><path class="g8 offset" style="--gs:8" d="M536,617 L771,592"/><text class="g9" style="--gs:9" x="443" y="629">⑨</text><path class="g9 aligned" style="--gs:9" d="M443,629 L776,590"/><path class="g9 offset" style="--gs:9" d="M443,725 L776,686"/><text class="g10" style="--gs:10" x="470" y="649">⑩</text><path class="g10 aligned" style="--gs:10" d="M470,649 Q498,681 498.88,690.75 Q504.13,749.25 505,759"/><path class="g10 offset" style="--gs:10" d="M555.68,580.46 Q583.68,612.46 584.55,622.21 Q589.8,680.71 590.68,690.46"/><text class="g11" style="--gs:11" x="401" y="772">⑪</text><path class="g11 aligned" style="--gs:11" d="M401,772 Q779,736 790.38,737.63 Q858.63,747.38 870,749"/><path class="g11 offset" style="--gs:11" d="M401,868 Q779,832 790.38,833.63 Q858.63,843.38 870,845"/><text class="g12" style="--gs:12" x="601" y="521">⑫</text><path class="g12 aligned" style="--gs:12" d="M601,521 Q641,563 640.75,613.63 Q639.25,917.38 639,968"/><path class="g12 offset" style="--gs:12" d="M505,521 Q545,563 544.75,613.63 Q543.25,917.38 543,968"/></g>
<g class="parts"><rect data-part="2" data-literal="韋" role="button" tabindex="0" aria-label="Part 韋" x="312" y="0" width="708" height="1024"/><rect data-part="1" data-literal="亻" data-radical="true" role="button" tabindex="0" aria-label="Part 亻 (radical)" x="4" y="0" width="427" height="958"/></g>
</svg>
