<svg id="z20570" class="acjk" viewBox="0 0 1024 1024" xmlns="http://www.w3.org/2000/svg">
<style>

@keyframes zk {
	to {
		stroke-dashoffset:0;
	}
}
svg.acjk path[clip-path] {
	--t:0.8s;
	animation:zk var(--t) linear forwards var(--d);
	stroke-dasharray:3337;
	stroke-dashoffset:3339;
	stroke-width:128;
	stroke-linecap:round;
	fill:none;
	stroke:#000;
}
svg.acjk path[id] {fill:#ccc;}


    @keyframes guide-fade {
        0% { opacity: 0; }
        3% { opacity: 1; }
        95% { opacity: 1; }
        100% { opacity: 0; }
    }

    svg.acjk #guide-arrow {
        fill: #f77;
    }

    svg.acjk .guides {
        circle {
            fill: #0f6;
        }

        path {
            opacity: 0;
            animation: guide-fade var(--t) linear forwards var(--d);
            stroke-width: 16px;
            stroke-linecap: round;
            stroke: #f77;
            fill: none;
            marker-end: url(#guide-arrow);
        }

        circle,
        path {
            --t: 0.8s;
            opacity: 0;
            animation: guide-fade calc(var(--t) + 0.4s) ease-in-out forwards calc(var(--d) - 0.2s);
        }
    }
</style>
<path id="z20570d1" d="M223 377Q262 325 306 255Q331 209 354 188Q363 178 358 164Q354 151 326 128Q299 110 281 111Q262 112 270 134Q283 165 272 190Q238 275 184 356Q133 432 63 518Q53 528 50 534Q47 544 61 542Q94 538 184 426Q187 420 196 411C214 388 214 388 223 377Z"/>
<path id="z20570d2" d="M196 411C210 453 218 475 218 488C218 612 208 704 190 777C181 809 188 841 213 867C225 880 235 876 242 859C252 833 255 805 255 777C255 601 256 492 263 453C266 435 266 424 261 418C250 405 237 391 223 377C213 367 191 398 196 411Z"/>
<path id="z20570d3" d="M451 396C475 388 501 381 529 374C549 368 561 363 565 360C569 355 570 350 567 346C562 339 551 334 535 332C518 329 493 337 457 351C428 362 428 362 413 367C393 374 350 381 317 387C296 390 293 399 310 408C332 420 364 420 409 408C437 400 437 400 451 396Z"/>
<path id="z20570d4" d="M430 537C436 488 444 441 451 396C455 366 455 366 457 351C466 280 477 220 495 172C497 165 494 155 482 147C462 133 444 125 430 122C420 119 412 119 408 124C403 128 401 136 406 145C418 170 425 189 425 205C421 257 418 311 413 367C410 394 410 394 409 408C404 452 397 499 391 548C388 561 427 550 430 537Z"/>
<path id="z20570d5" d="M331 558C326 555 318 553 307 551C300 549 296 549 293 552C288 555 289 561 294 572C309 608 320 656 326 716C327 733 332 748 342 761C352 774 358 777 362 768C365 759 368 747 367 732C366 711 366 711 365 701C360 636 354 596 354 582C354 571 341 562 331 558Z"/>
<path id="z20570d6" d="M504 681C514 632 528 601 543 586C558 570 557 557 543 549C502 526 490 511 481 516C464 522 447 532 430 537C404 544 404 544 391 548C373 552 353 554 331 558C320 560 343 584 354 582C386 576 415 571 441 567C455 564 464 566 469 572C473 576 473 588 469 610C464 630 460 653 456 678C453 694 501 697 504 681Z"/>
<path id="z20570d7" d="M367 732Q374 733 384 731Q426 721 517 713Q527 712 528 703Q528 696 504 681C490 673 472 675 456 678Q407 691 365 701C355 703 357 732 367 732Z"/>
<path id="z20570d8" d="M647 364C666 325 687 279 706 225C715 196 725 175 734 161C739 152 737 144 733 137C728 129 716 118 695 110C675 102 659 99 648 103C637 106 634 116 643 128C673 169 644 287 548 486C544 494 540 500 540 504C539 510 543 512 552 509C568 501 597 463 633 392C642 373 642 373 647 364Z"/>
<path id="z20570d9" d="M750 383C850 356 901 340 904 338C908 333 910 328 907 323C902 316 891 310 873 307C855 303 819 315 764 335C716 351 677 358 647 364C637 366 623 388 633 392C651 398 676 402 708 394C736 387 736 387 750 383Z"/>
<path id="z20570d10" d="M716 663C733 627 746 599 758 550C772 485 783 445 792 431C798 420 796 412 786 405C777 398 766 391 750 383C737 378 703 381 708 394C737 451 722 536 685 624C679 637 671 649 664 662C634 715 578 769 526 804C516 810 506 817 496 825C487 831 486 835 495 836C503 837 519 834 542 825C595 802 644 769 692 706C701 693 708 677 716 663Z"/>
<path id="z20570d11" d="M692 706C725 757 760 802 791 845C800 857 812 865 830 866C920 868 970 865 978 858C981 854 978 851 972 848C867 798 795 751 755 707C742 693 728 678 716 663C695 637 695 637 685 624C666 601 644 574 625 546C618 535 610 527 600 526C583 523 571 524 566 531C563 534 565 539 571 543C592 557 609 575 622 597C635 620 650 640 664 662C683 691 683 691 692 706Z"/>
<defs>
	<clipPath id="z20570c1"><use href="#z20570d1"/></clipPath>
	<clipPath id="z20570c2"><use href="#z20570d2"/></clipPath>
	<clipPath id="z20570c3"><use href="#z20570d3"/></clipPath>
	<clipPath id="z20570c4"><use href="#z20570d4"/></clipPath>
	<clipPath id="z20570c5"><use href="#z20570d5"/></clipPath>
	<clipPath id="z20570c6"><use href="#z20570d6"/></clipPath>
	<clipPath id="z20570c7"><use href="#z20570d7"/></clipPath>
	<clipPath id="z20570c8"><use href="#z20570d8"/></clipPath>
	<clipPath id="z20570c9"><use href="#z20570d9"/></clipPath>
	<clipPath id="z20570c10"><use href="#z20570d10"/></clipPath>
	<clipPath id="z20570c11"><use href="#z20570d11"/></clipPath>
<marker id="guide-arrow" viewBox="0 0 16 16" refX="5" refY="5" markerWidth="4" markerHeight="4" orient="auto-start-reverse"><path d="M 0 0 L 10 5 L 0 10 z" fill="inherit"/></marker></defs>
<path style="--d:1s;" pathLength="3333" clip-path="url(#z20570c1)" d="M275 121L313 185L197 375L55 535"/>
<path style="--d:2s;" pathLength="3333" clip-path="url(#z20570c2)" d="M217 379L239 456L224 870"/>
<path style="--d:3s;" pathLength="3333" clip-path="url(#z20570c3)" d="M306 396L562 354"/>
<path style="--d:4s;" pathLength="3333" clip-path="url(#z20570c4)" d="M410 131L459 183L399 549"/>
<path style="--d:5s;" pathLength="3333" clip-path="url(#z20570c5)" d="M297 556L329 590L355 765"/>
<path style="--d:6s;" pathLength="3333" clip-path="url(#z20570c6)" d="M336 562L474 541L508 564L472 689"/>
<path style="--d:7s;" pathLength="3333" clip-path="url(#z20570c7)" d="M361 718L523 697"/>
<path style="--d:8s;" pathLength="3333" clip-path="url(#z20570c8)" d="M644 112L695 157L640 329L547 505"/>
<path style="--d:9s;" pathLength="3333" clip-path="url(#z20570c9)" d="M633 385L902 326"/>
<path style="--d:10s;" pathLength="3333" clip-path="url(#z20570c10)" d="M713 391L758 424L701 642L635 738L499 830"/>
<path style="--d:11s;" pathLength="3333" clip-path="url(#z20570c11)" d="M571 534L609 552L818 813L972 856"/>
<g class="guides"><circle style="--d: 1s" class="g1" cx="275" cy="121" r="16"/><path style="--d: 1s;" class="g1" d="M179,121 Q202.86046511627904,170.15942028985506 184.65116279069764,206.64492753623188 Q130.02325581395348,316.1014492753623 107.73255813953489,346.82608695652175 Q63.151162790697676,408.27536231884056 40.86046511627907,439"/><circle style="--d: 2s" class="g2" cx="217" cy="379" r="16"/><path style="--d: 2s;" class="g2" d="M337,379 Q359,456 357.125,507.75 Q345.875,818.25 344,870"/><circle style="--d: 3s" class="g3" cx="306" cy="396" r="16"/><path style="--d: 3s;" class="g3" d="M306,492 L562,450"/><circle style="--d: 4s" class="g4" cx="410" cy="131" r="16"/><path style="--d: 4s;" class="g4" d="M314,131 Q363,183 355.5,228.75 Q310.5,503.25 303,549"/><circle style="--d: 5s" class="g5" cx="297" cy="556" r="16"/><path style="--d: 5s;" class="g5" d="M382.68,487.456 Q414.68,521.456 417.93,543.331 Q437.43,674.581 440.68,696.456"/><circle style="--d: 6s" class="g6" cx="336" cy="562" r="16"/><path style="--d: 6s;" class="g6" d="M336,658 Q405,637 409.25,639.875 Q422,648.5 417.5,664.125 Q408.5,695.375 404,711"/><circle style="--d: 7s" class="g7" cx="361" cy="718" r="16"/><path style="--d: 7s;" class="g7" d="M361,814 L523,793"/><circle style="--d: 8s" class="g8" cx="644" cy="112" r="16"/><path style="--d: 8s;" class="g8" d="M548,112 Q599,157 585.25,200 Q544,329 520.75,373 Q474.25,461 451,505"/><circle style="--d: 9s" class="g9" cx="633" cy="385" r="16"/><path style="--d: 9s;" class="g9" d="M633,481 L902,422"/><circle style="--d: 10s" class="g10" cx="713" cy="391" r="16"/><path style="--d: 10s;" class="g10" d="M617,391 Q645.3204633204633,416.7835990888383 627.3841698841699,501.9476082004556 Q609.4478764478764,587.1116173120729 588.6795366795367,624.615034168565 Q567.911196911197,662.118451025057 525.1158301158301,698.0592255125284 Q525.1158301158301,698.0592255125284 482.3204633204633,734"/><circle style="--d: 11s" class="g11" cx="571" cy="534" r="16"/><path style="--d: 11s;" class="g11" d="M571,630 Q609,648 661.25,713.25 Q818,909 856.5,919.75 Q933.5,941.25 972,952"/></g></svg>