<svg id="z20572" class="acjk" viewBox="0 0 1024 1024" xmlns="http://www.w3.org/2000/svg">
<style>

@keyframes zk {
	to {
		stroke-dashoffset:0;
	}
}
svg.acjk path[clip-path] {
	--t:0.8s;
	animation:zk var(--t) linear forwards var(--d);
	stroke-dasharray:3337;
	stroke-dashoffset:3339;
	stroke-width:128;
	stroke-linecap:round;
	fill:none;
	stroke:#000;
}
svg.acjk path[id] {fill:#ccc;}


    @keyframes guide-fade {
        0% { opacity: 0; }
        3% { opacity: 1; }
        95% { opacity: 1; }
        100% { opacity: 0; }
    }

    svg.acjk #guide-arrow {
        fill: #f77;
    }

    svg.acjk .guides {
        circle {
            fill: #0f6;
        }

        path {
            opacity: 0;
            animation: guide-fade var(--t) linear forwards var(--d);
            stroke-width: 16px;
            stroke-linecap: round;
            stroke: #f77;
            fill: none;
            marker-end: url(#guide-arrow);
        }

        circle,
        path {
            --t: 0.8s;
            opacity: 0;
            animation: guide-fade calc(var(--t) + 0.4s) ease-in-out forwards calc(var(--d) - 0.2s);
        }
    }
</style>
<path id="z20572d1" d="M239 334Q272 285 307 222Q331 174 354 150Q363 138 357 125Q353 112 322 89Q292 71 273 72Q254 75 263 98Q279 128 268 155Q235 246 184 331Q135 413 66 504Q56 514 54 521Q50 533 65 530Q105 520 195 394Q202 384 212 372C230 347 230 347 239 334Z"/>
<path id="z20572d2" d="M212 372Q233 438 235 443Q234 444 235 447Q235 636 205 761Q190 810 227 858Q228 861 232 864Q251 880 263 852Q278 810 278 762Q277 482 286 419Q293 391 283 380Q265 358 251 344Q245 337 239 334C227 325 206 358 212 372Z"/>
<path id="z20572d3" d="M591 83Q612 98 634 116Q650 128 666 125Q678 122 681 108Q682 92 669 62Q662 47 634 40Q567 28 555 37Q551 41 554 55Q560 65 591 83Z"/>
<path id="z20572d4" d="M449 183Q416 187 439 203Q478 228 528 216Q633 197 741 179Q790 169 798 162Q807 155 802 147Q796 137 770 128Q743 122 645 152Q552 174 449 183Z"/>
<path id="z20572d5" d="M509 280Q499 276 470 273Q460 272 456 276Q452 282 460 296Q482 330 501 387Q505 405 517 415Q533 433 538 419Q538 416 539 413C538 392 538 392 537 381Q527 329 522 309C520 299 519 284 509 280Z"/>
<path id="z20572d6" d="M723 361Q744 316 767 304Q782 288 769 271Q700 217 656 243Q593 264 509 280C499 282 512 311 522 309Q675 276 683 283Q690 290 676 351C673 367 717 376 723 361Z"/>
<path id="z20572d7" d="M539 413Q546 413 552 412Q607 399 729 388Q739 387 740 379Q740 372 723 361C709 353 692 351 676 351Q672 350 668 352Q596 371 537 381C527 383 528 413 539 413Z"/>
<path id="z20572d8" d="M420 495Q408 464 385 447Q382 443 375 446Q369 450 369 462Q370 498 339 561Q329 579 329 598Q332 619 341 634Q348 647 355 638Q367 635 386 587Q404 539 413 523Q413 522 414 522C419 514 423 504 420 495Z"/>
<path id="z20572d9" d="M414 522Q439 537 473 527Q534 503 756 466Q802 459 817 462Q830 468 830 474Q831 477 826 487Q799 541 805 548Q812 552 828 542Q879 517 918 510Q951 504 951 497Q950 487 883 434Q859 415 789 431Q720 440 508 481Q463 488 420 495C411 497 406 518 414 522Z"/>
<path id="z20572d10" d="M639 594Q702 585 769 585Q785 584 789 576Q793 566 778 556Q735 526 672 544Q575 568 449 593Q433 596 445 609Q475 631 503 622Q545 609 593 601C624 596 624 596 639 594Z"/>
<path id="z20572d11" d="M593 601Q603 638 603 737Q603 821 595 840Q592 853 568 850Q534 841 500 834Q488 833 487 840Q486 846 496 854Q568 908 591 940Q607 955 620 951Q630 947 642 914Q658 881 655 821Q654 703 657 661Q663 619 639 594C629 582 590 586 593 601Z"/>
<defs>
	<clipPath id="z20572c1"><use href="#z20572d1"/></clipPath>
	<clipPath id="z20572c2"><use href="#z20572d2"/></clipPath>
	<clipPath id="z20572c3"><use href="#z20572d3"/></clipPath>
	<clipPath id="z20572c4"><use href="#z20572d4"/></clipPath>
	<clipPath id="z20572c5"><use href="#z20572d5"/></clipPath>
	<clipPath id="z20572c6"><use href="#z20572d6"/></clipPath>
	<clipPath id="z20572c7"><use href="#z20572d7"/></clipPath>
	<clipPath id="z20572c8"><use href="#z20572d8"/></clipPath>
	<clipPath id="z20572c9"><use href="#z20572d9"/></clipPath>
	<clipPath id="z20572c10"><use href="#z20572d10"/></clipPath>
	<clipPath id="z20572c11"><use href="#z20572d11"/></clipPath>
<marker id="guide-arrow" viewBox="0 0 16 16" refX="5" refY="5" markerWidth="4" markerHeight="4" orient="auto-start-reverse"><path d="M 0 0 L 10 5 L 0 10 z" fill="inherit"/></marker></defs>
<path style="--d:1s;" pathLength="3333" clip-path="url(#z20572c1)" d="M269 82L313 144L192 361L58 524"/>
<path style="--d:2s;" pathLength="3333" clip-path="url(#z20572c2)" d="M240 342L259 442L243 865"/>
<path style="--d:3s;" pathLength="3333" clip-path="url(#z20572c3)" d="M558 43L633 73L674 118"/>
<path style="--d:4s;" pathLength="3333" clip-path="url(#z20572c4)" d="M437 191L514 197L799 149"/>
<path style="--d:5s;" pathLength="3333" clip-path="url(#z20572c5)" d="M462 281L498 315L525 420"/>
<path style="--d:6s;" pathLength="3333" clip-path="url(#z20572c6)" d="M517 285L701 263L729 291L694 354"/>
<path style="--d:7s;" pathLength="3333" clip-path="url(#z20572c7)" d="M546 405L732 376"/>
<path style="--d:8s;" pathLength="3333" clip-path="url(#z20572c8)" d="M379 449L392 496L348 634"/>
<path style="--d:9s;" pathLength="3333" clip-path="url(#z20572c9)" d="M418 518L828 444L895 499L813 541"/>
<path style="--d:10s;" pathLength="3333" clip-path="url(#z20572c10)" d="M449 602L692 563L784 571"/>
<path style="--d:11s;" pathLength="3333" clip-path="url(#z20572c11)" d="M601 604L629 643L617 875L593 901L494 841"/>
<g class="guides"><circle style="--d: 1s" class="g1" cx="269" cy="82" r="16"/><path style="--d: 1s;" class="g1" d="M173,82 Q200.43529411764706,130.5339366515837 181.5735294117647,173.00113122171945 Q124.98823529411766,300.4027149321267 104.10000000000001,332.302036199095 Q62.32352941176471,396.10067873303166 41.43529411764706,428"/><circle style="--d: 2s" class="g2" cx="240" cy="342" r="16"/><path style="--d: 2s;" class="g2" d="M360,342 Q379,442 377,494.875 Q365,812.125 363,865"/><circle style="--d: 3s" class="g3" cx="558" cy="43" r="16"/><path style="--d: 3s;" class="g3" d="M643.68,-25.543999999999997 Q718.68,4.456000000000003 723.805,10.081000000000003 Q754.555,43.831 759.68,49.456"/><circle style="--d: 4s" class="g4" cx="437" cy="191" r="16"/><path style="--d: 4s;" class="g4" d="M437,287 Q514,293 549.625,287 Q763.375,251 799,245"/><circle style="--d: 5s" class="g5" cx="462" cy="281" r="16"/><path style="--d: 5s;" class="g5" d="M547.68,212.45600000000002 Q583.68,246.45600000000002 587.055,259.581 Q607.305,338.331 610.68,351.456"/><circle style="--d: 6s" class="g6" cx="517" cy="285" r="16"/><path style="--d: 6s;" class="g6" d="M517,381 Q609,359 612.5,362.5 Q623,373 618.625,380.875 Q609.875,396.625 605.5,404.5"/><circle style="--d: 7s" class="g7" cx="546" cy="405" r="16"/><path style="--d: 7s;" class="g7" d="M546,501 L732,472"/><circle style="--d: 8s" class="g8" cx="379" cy="449" r="16"/><path style="--d: 8s;" class="g8" d="M499,449 Q512,496 506.5,513.25 Q473.5,616.75 468,634"/><circle style="--d: 9s" class="g9" cx="418" cy="518" r="16"/><path style="--d: 9s;" class="g9" d="M418,614 Q716.2599580712788,540 728.4449685534591,553.75 Q765,595 750.0870020964361,605.5 Q720.2610062893082,626.5 705.3480083857443,637"/><circle style="--d: 10s" class="g10" cx="449" cy="602" r="16"/><path style="--d: 10s;" class="g10" d="M449,698 Q692,659 703.5,660 Q772.5,666 784,667"/><circle style="--d: 11s" class="g11" cx="601" cy="604" r="16"/><path style="--d: 11s;" class="g11" d="M505,604 Q519,630.3939393939394 516,708.8989898989898 Q513,787.4040404040404 507,796.2020202020202 Q501,805 476.25,784.6969696969697 Q476.25,784.6969696969697 451.5,764.3939393939394"/></g></svg>