<!--
  Stroke-order data for 傷, derived from AnimCJK (https://github.com/parsimonhi/animCJK),
  itself derived from the Arphic PL KaitiM fonts. Distributed under the Arphic Public License
  (see ARPHICPL.TXT). Regenerated by scripts/build-strokes.ts — do not edit by hand.
-->
<svg id="z20663" class="acjk" viewBox="0 0 1024 1024" xmlns="http://www.w3.org/2000/svg">
<g class="glyph"><path style="--part:1" id="z20663d1" d="M254 391C281 353 309 310 337 262C356 228 372 201 389 184C395 177 396 168 393 158C390 149 378 136 357 121C338 107 322 101 308 102C293 103 290 112 297 128C307 150 307 171 300 191C257 298 182 423 71 563C65 570 59 575 58 581C55 589 59 592 69 590C97 584 144 536 211 447C215 440 222 434 228 426C245 403 245 403 254 391Z"/><path style="--part:1" id="z20663d2" d="M228 426C256 483 256 560 240 684C235 720 227 756 218 793C210 822 218 855 242 889C242 889 243 890 245 892C256 903 267 899 275 881C285 854 288 825 289 794C290 621 293 515 301 476C304 457 305 442 299 436C281 417 265 403 254 391C245 380 223 413 228 426Z"/><path style="--part:2" id="z20663d3" d="M536 135C546 119 555 104 565 92C570 84 570 76 561 68C537 48 516 41 500 43C493 43 490 48 492 58C500 102 482 156 432 217C420 230 410 240 405 249C400 257 402 259 411 258C419 256 429 251 441 243C476 215 503 185 525 152C532 141 532 141 536 135Z"/><path style="--part:2" id="z20663d4" d="M525 152C531 158 544 163 565 166C577 167 619 159 690 142C752 126 784 116 788 114C792 109 794 104 791 99C786 92 775 86 757 83C738 79 720 83 703 91C680 100 656 108 630 116C602 123 565 131 536 135C529 136 520 148 525 152Z"/><path style="--part:2" id="z20663d5" d="M529 245C522 241 512 237 500 234C493 231 489 231 487 234C483 237 482 243 486 253C499 293 508 346 510 411C510 429 514 446 524 461C532 473 538 476 542 468C544 462 546 455 547 448C548 431 548 431 549 423C550 407 547 386 546 361C545 342 545 342 544 333C542 304 542 284 542 273C542 263 538 250 529 245Z"/><path style="--part:2" id="z20663d6" d="M655 430C663 442 672 449 681 454C688 458 695 454 703 442C711 428 722 382 739 307C742 288 752 272 765 259C771 252 772 244 766 236C758 226 740 215 715 201C706 196 685 201 650 210C645 211 605 221 529 245C519 248 532 277 542 273C601 250 667 230 683 240C692 245 694 254 693 266C678 352 667 397 657 402C650 409 649 423 655 430Z"/><path style="--part:2" id="z20663d7" d="M546 361Q597 348 635 339Q654 333 646 322Q634 312 612 310Q567 310 544 333C537 340 537 363 546 361Z"/><path style="--part:2" id="z20663d8" d="M547 448Q550 445 655 430C664 428 666 405 657 402Q654 401 647 399Q617 396 549 423C541 426 539 451 547 448Z"/><path style="--part:2" id="z20663d9" d="M521 546C632 518 762 500 914 500C928 499 937 497 941 490C944 482 940 473 929 466C896 443 866 434 841 441C768 459 607 493 359 538C346 540 344 546 355 557C363 565 374 571 386 574C400 576 412 576 422 573C438 567 455 562 473 558C505 550 505 550 521 546Z"/><path style="--part:2" id="z20663d10" d="M505 608C513 597 523 587 533 579C539 573 539 565 533 557C529 552 525 549 521 546C508 536 476 542 473 558C464 600 435 641 386 680C372 690 360 699 354 707C348 713 350 716 358 716C390 715 451 670 481 636C497 617 497 617 505 608Z"/><path style="--part:2" id="z20663d11" d="M675 615C707 608 739 603 770 602C786 601 795 602 798 607C805 620 801 643 793 676C769 765 746 829 719 866C704 886 687 894 669 889C656 885 643 881 631 876C614 869 611 875 623 892C644 921 659 946 671 966C682 985 698 985 715 974C738 957 760 937 780 909C802 876 825 806 848 699C856 661 867 632 883 616C891 607 895 599 891 593C885 584 865 572 833 555C820 548 807 549 794 557C776 566 733 575 666 587C607 597 554 604 505 608C493 608 470 630 481 636C495 646 509 649 524 646C543 642 543 642 552 640C582 633 613 626 644 621C665 617 665 617 675 615Z"/><path style="--part:2" id="z20663d12" d="M524 646C526 668 504 704 457 753C436 774 413 794 388 814C385 816 383 818 382 822C381 824 382 826 385 826C423 826 477 788 545 712C554 701 561 693 568 688C572 683 572 677 570 670C565 656 559 646 552 640C545 633 524 636 524 646Z"/><path style="--part:2" id="z20663d13" d="M644 621C644 707 564 811 404 934C400 936 397 940 397 944C396 946 397 948 402 949C432 949 524 883 575 834C612 797 644 762 668 730C682 709 695 694 706 684C711 678 711 670 708 661C696 632 685 617 675 615C665 611 644 610 644 621Z"/></g>
<defs><clipPath id="z20663c1"><use href="#z20663d1"/></clipPath>
	<clipPath id="z20663c2"><use href="#z20663d2"/></clipPath>
	<clipPath id="z20663c3"><use href="#z20663d3"/></clipPath>
	<clipPath id="z20663c4"><use href="#z20663d4"/></clipPath>
	<clipPath id="z20663c5"><use href="#z20663d5"/></clipPath>
	<clipPath id="z20663c6"><use href="#z20663d6"/></clipPath>
	<clipPath id="z20663c7"><use href="#z20663d7"/></clipPath>
	<clipPath id="z20663c8"><use href="#z20663d8"/></clipPath>
	<clipPath id="z20663c9"><use href="#z20663d9"/></clipPath>
	<clipPath id="z20663c10"><use href="#z20663d10"/></clipPath>
	<clipPath id="z20663c11"><use href="#z20663d11"/></clipPath>
	<clipPath id="z20663c12"><use href="#z20663d12"/></clipPath>
	<clipPath id="z20663c13"><use href="#z20663d13"/></clipPath><marker id="guide-arrow" viewBox="0 0 16 16" refX="5" refY="5" markerWidth="4" markerHeight="4" orient="auto-start-reverse"><path d="M 0 0 L 10 5 L 0 10 z" fill="inherit"/></marker></defs>
<g class="strokes"><path style="--part:1" pathLength="3333" clip-path="url(#z20663c1)" d="M301 111L349 163L344 184L206 417L63 584"/><path style="--part:1" pathLength="3333" clip-path="url(#z20663c2)" d="M252 400L274 464L257 894"/><path style="--part:2" pathLength="3333" clip-path="url(#z20663c3)" d="M500 49L530 86L503 158L409 252"/><path style="--part:2" pathLength="3333" clip-path="url(#z20663c4)" d="M532 150L788 104"/><path style="--part:2" pathLength="3333" clip-path="url(#z20663c5)" d="M493 243L518 280L537 464"/><path style="--part:2" pathLength="3333" clip-path="url(#z20663c6)" d="M535 248L675 220L724 240L678 450"/><path style="--part:2" pathLength="3333" clip-path="url(#z20663c7)" d="M552 353L642 326"/><path style="--part:2" pathLength="3333" clip-path="url(#z20663c8)" d="M556 439L655 415"/><path style="--part:2" pathLength="3333" clip-path="url(#z20663c9)" d="M353 545L416 551L850 470L936 486"/><path style="--part:2" pathLength="3333" clip-path="url(#z20663c10)" d="M481 561L507 576L444 649L362 707"/><path style="--part:2" pathLength="3333" clip-path="url(#z20663c11)" d="M490 634L803 577L846 609L778 832L735 906L688 936L624 880"/><path style="--part:2" pathLength="3333" clip-path="url(#z20663c12)" d="M549 647L516 715L389 820"/><path style="--part:2" pathLength="3333" clip-path="url(#z20663c13)" d="M651 625L673 672L607 770L405 942"/></g>
<g class="guides"><text class="g1" style="--gs:1" x="301" y="111">①</text><path class="g1 aligned" style="--gs:1" d="M301,111 Q349,163 346.5,173.5 Q344,184 275,300.5 Q206,417 134.5,500.5 Q134.5,500.5 63,584"/><path class="g1 offset" style="--gs:1" d="M205,111 Q236.89,152.45 235.23,160.82 Q233.57,169.18 187.73,262.04 Q141.89,354.89 94.39,421.45 Q94.39,421.45 46.89,488"/><text class="g2" style="--gs:2" x="252" y="400">②</text><path class="g2 aligned" style="--gs:2" d="M252,400 Q274,464 271.88,517.75 Q259.13,840.25 257,894"/><path class="g2 offset" style="--gs:2" d="M372,400 Q394,464 391.88,517.75 Q379.13,840.25 377,894"/><text class="g3" style="--gs:3" x="500" y="49">③</text><path class="g3 aligned" style="--gs:3" d="M500,49 Q530,86 523.25,104 Q503,158 479.5,181.5 Q432.5,228.5 409,252"/><path class="g3 offset" style="--gs:3" d="M404,49 Q419,68.5 415.63,77.99 Q405.5,106.45 393.75,118.84 Q370.25,143.61 358.5,156"/><text class="g4" style="--gs:4" x="532" y="150">④</text><path class="g4 aligned" style="--gs:4" d="M532,150 L788,104"/><path class="g4 offset" style="--gs:4" d="M532,246 L788,200"/><text class="g5" style="--gs:5" x="493" y="243">⑤</text><path class="g5 aligned" style="--gs:5" d="M493,243 Q518,280 520.38,303 Q534.63,441 537,464"/><path class="g5 offset" style="--gs:5" d="M578.68,174.46 Q603.68,211.46 606.05,234.46 Q620.3,372.46 622.68,395.46"/><text class="g6" style="--gs:6" x="535" y="248">⑥</text><path class="g6 aligned" style="--gs:6" d="M535,248 Q675,220 687.25,225 Q724,240 712.5,292.5 Q689.5,397.5 678,450"/><path class="g6 offset" style="--gs:6" d="M535,344 Q605,316 611.13,321 Q629.5,336 623.75,364.5 Q612.25,421.5 606.5,450"/><text class="g7" style="--gs:7" x="552" y="353">⑦</text><path class="g7 aligned" style="--gs:7" d="M552,353 L642,326"/><path class="g7 offset" style="--gs:7" d="M552,449 L642,422"/><text class="g8" style="--gs:8" x="556" y="439">⑧</text><path class="g8 aligned" style="--gs:8" d="M556,439 L655,415"/><path class="g8 offset" style="--gs:8" d="M556,535 L655,511"/><text class="g9" style="--gs:9" x="353" y="545">⑨</text><path class="g9 aligned" style="--gs:9" d="M353,545 Q416,551 524.5,530.75 Q850,470 871.5,474 Q914.5,482 936,486"/><path class="g9 offset" style="--gs:9" d="M353,641 Q416,647 524.5,626.75 Q850,566 871.5,570 Q914.5,578 936,582"/><text class="g10" style="--gs:10" x="481" y="561">⑩</text><path class="g10 aligned" style="--gs:10" d="M494,569 Q444,649 433.75,656.25 Q372.25,699.75 362,707"/><path class="g10 offset" style="--gs:10" d="M579.68,637.54 Q529.68,717.54 519.43,724.79 Q457.93,768.29 447.68,775.54"/><text class="g11" style="--gs:11" x="490" y="634">⑪</text><path class="g11 aligned" style="--gs:11" d="M490,634 Q803,577 824.5,593 Q846,609 812,720.5 Q778,832 756.5,869 Q735,906 711.5,921 Q688,936 656,908 Q656,908 624,880"/><path class="g11 offset" style="--gs:11" d="M490,730 Q718.6,673 734.3,689 Q750,705 725.17,752.75 Q700.34,800.5 684.63,819 Q668.93,837.5 651.77,845 Q634.61,852.5 611.24,838.5 Q611.24,838.5 587.87,824.5"/><text class="g12" style="--gs:12" x="549" y="647">⑫</text><path class="g12 aligned" style="--gs:12" d="M549,647 Q516,715 500.13,728.13 Q404.88,806.88 389,820"/><path class="g12 offset" style="--gs:12" d="M453,647 Q436.5,681 428.56,687.56 Q380.94,726.94 373,733.5"/><text class="g13" style="--gs:13" x="651" y="625">⑬</text><path class="g13 aligned" style="--gs:13" d="M651,625 Q673,672 656.5,696.5 Q607,770 556.5,813 Q455.5,899 405,942"/><path class="g13 offset" style="--gs:13" d="M555,625 Q567.15,657.77 558.04,674.85 Q530.7,726.09 502.81,756.07 Q447.04,816.02 419.15,846"/></g>
<g class="parts"><rect data-part="2" data-literal="𬀷" role="button" tabindex="0" aria-label="Part 𬀷" x="281" y="0" width="727" height="1014"/><rect data-part="1" data-literal="亻" data-radical="true" role="button" tabindex="0" aria-label="Part 亻 (radical)" x="0" y="39" width="421" height="927"/></g>
</svg>
