<svg id="z20670" class="acjk" viewBox="0 0 1024 1024" xmlns="http://www.w3.org/2000/svg">
<style>

@keyframes zk {
	to {
		stroke-dashoffset:0;
	}
}
svg.acjk path[clip-path] {
	--t:0.8s;
	animation:zk var(--t) linear forwards var(--d);
	stroke-dasharray:3337;
	stroke-dashoffset:3339;
	stroke-width:128;
	stroke-linecap:round;
	fill:none;
	stroke:#000;
}
svg.acjk path[id] {fill:#ccc;}


    @keyframes guide-fade {
        0% { opacity: 0; }
        3% { opacity: 1; }
        95% { opacity: 1; }
        100% { opacity: 0; }
    }

    svg.acjk #guide-arrow {
        fill: #f77;
    }

    svg.acjk .guides {
        circle {
            fill: #0f6;
        }

        path {
            opacity: 0;
            animation: guide-fade var(--t) linear forwards var(--d);
            stroke-width: 16px;
            stroke-linecap: round;
            stroke: #f77;
            fill: none;
            marker-end: url(#guide-arrow);
        }

        circle,
        path {
            --t: 0.8s;
            opacity: 0;
            animation: guide-fade calc(var(--t) + 0.4s) ease-in-out forwards calc(var(--d) - 0.2s);
        }
    }
</style>
<path id="z20670d1" d="M235 335C259 299 284 258 309 213C326 179 342 152 358 134C364 126 364 117 361 109C357 100 347 87 326 73C306 59 289 54 277 56C264 57 260 66 267 82C276 104 278 124 272 144C233 251 162 378 54 520C48 527 43 532 42 537C39 545 43 548 53 546C79 539 133 481 210 371C227 347 227 347 235 335Z"/>
<path id="z20670d2" d="M210 371C226 415 235 453 236 484C236 596 228 690 209 765C200 798 206 829 231 862C232 863 233 865 236 868C248 878 259 874 267 856C277 828 282 797 282 766C279 579 279 464 286 423C289 404 289 391 283 384C266 365 251 345 235 335C223 326 205 357 210 371Z"/>
<path id="z20670d3" d="M409 391C467 357 486 348 500 343C511 337 524 334 521 321C517 308 509 303 502 296C495 290 482 277 474 297C466 316 432 346 411 358C402 364 400 398 409 391Z"/>
<path id="z20670d4" d="M411 358C412 335 414 318 417 308C420 296 416 286 408 279C391 263 378 253 366 252C358 250 352 251 349 254C342 258 344 264 350 274C373 316 374 404 365 505C361 537 353 556 349 564C340 577 340 591 346 605C354 625 363 638 375 646C381 650 389 646 397 634C413 607 452 558 515 488C525 476 531 469 531 465C531 457 525 457 513 466C452 507 419 528 414 527C407 524 403 477 409 391C410 369 410 369 411 358Z"/>
<path id="z20670d5" d="M690 181C744 171 798 161 854 150C888 143 908 135 914 131C919 126 921 121 919 116C914 107 902 101 884 96C866 91 823 105 752 122C688 136 608 150 546 157C521 159 518 166 535 178C552 190 575 195 602 194C617 193 631 191 645 189C675 184 675 184 690 181Z"/>
<path id="z20670d6" d="M634 316C666 276 684 244 716 216C725 207 726 198 718 192C710 186 700 183 690 181C675 178 639 175 645 189C653 205 641 248 611 320C609 327 629 322 634 316Z"/>
<path id="z20670d7" d="M595 322C587 315 579 310 568 307C561 305 555 303 549 307C544 309 545 314 548 322C570 382 575 469 564 577C558 626 555 663 579 692C585 699 592 699 598 692C604 683 605 679 608 664C609 653 610 642 610 631C608 597 609 581 609 556C609 540 609 540 609 532C609 481 609 481 609 456C609 438 609 438 609 429C609 380 609 354 611 350C613 339 604 328 595 322Z"/>
<path id="z20670d8" d="M798 639C806 656 830 708 841 712C847 713 854 704 861 689C871 659 876 626 875 590C870 434 870 347 877 331C882 316 881 307 874 300C868 294 854 284 830 272C817 266 799 267 775 277C726 293 679 307 634 316C619 319 619 319 611 320C606 320 599 322 595 322C584 324 600 352 611 350C615 349 622 348 631 346C671 332 719 320 774 313C790 310 801 312 806 318C812 325 814 392 813 517C812 561 810 588 806 597C804 600 800 604 800 604C793 613 794 628 798 639Z"/>
<path id="z20670d9" d="M609 456C613 454 660 444 752 428C766 425 771 419 765 411C758 402 747 396 731 395C714 393 673 405 609 429C600 432 600 458 609 456Z"/>
<path id="z20670d10" d="M609 556C611 556 615 556 621 556C671 547 714 540 752 535C766 532 771 526 765 519C758 510 747 504 731 502C709 498 668 509 609 532C602 535 601 556 609 556Z"/>
<path id="z20670d11" d="M608 664C610 664 615 663 619 663C651 655 696 645 762 638C771 637 785 637 798 639C809 641 811 608 800 604C784 599 772 596 762 597C740 598 721 607 610 631C599 633 597 666 608 664Z"/>
<path id="z20670d12" d="M602 726Q590 783 450 884Q428 897 455 896Q521 896 629 800Q657 775 670 765Q682 755 680 745Q677 732 653 722Q626 710 614 712Q607 713 602 726Z"/>
<path id="z20670d13" d="M765 740Q814 800 873 884Q886 906 900 912Q909 915 917 906Q930 894 925 850Q921 790 770 710Q763 703 759 715Q756 728 765 740Z"/>
<defs>
	<clipPath id="z20670c1"><use href="#z20670d1"/></clipPath>
	<clipPath id="z20670c2"><use href="#z20670d2"/></clipPath>
	<clipPath id="z20670c3"><use href="#z20670d3"/></clipPath>
	<clipPath id="z20670c4"><use href="#z20670d4"/></clipPath>
	<clipPath id="z20670c5"><use href="#z20670d5"/></clipPath>
	<clipPath id="z20670c6"><use href="#z20670d6"/></clipPath>
	<clipPath id="z20670c7"><use href="#z20670d7"/></clipPath>
	<clipPath id="z20670c8"><use href="#z20670d8"/></clipPath>
	<clipPath id="z20670c9"><use href="#z20670d9"/></clipPath>
	<clipPath id="z20670c10"><use href="#z20670d10"/></clipPath>
	<clipPath id="z20670c11"><use href="#z20670d11"/></clipPath>
	<clipPath id="z20670c12"><use href="#z20670d12"/></clipPath>
	<clipPath id="z20670c13"><use href="#z20670d13"/></clipPath>
<marker id="guide-arrow" viewBox="0 0 16 16" refX="5" refY="5" markerWidth="4" markerHeight="4" orient="auto-start-reverse"><path d="M 0 0 L 10 5 L 0 10 z" fill="inherit"/></marker></defs>
<path style="--d:1s;" pathLength="3333" clip-path="url(#z20670c1)" d="M271 60L309 99L314 138L196 352L49 542"/>
<path style="--d:2s;" pathLength="3333" clip-path="url(#z20670c2)" d="M228 341L258 438L245 868"/>
<path style="--d:3s;" pathLength="3333" clip-path="url(#z20670c3)" d="M488 291L492 321L407 383"/>
<path style="--d:4s;" pathLength="3333" clip-path="url(#z20670c4)" d="M352 261L390 304L385 585L525 467"/>
<path style="--d:5s;" pathLength="3333" clip-path="url(#z20670c5)" d="M530 166L611 171L914 116"/>
<path style="--d:6s;" pathLength="3333" clip-path="url(#z20670c6)" d="M653 186L683 218L620 317"/>
<path style="--d:7s;" pathLength="3333" clip-path="url(#z20670c7)" d="M554 311L585 356L586 691"/>
<path style="--d:8s;" pathLength="3333" clip-path="url(#z20670c8)" d="M599 330L806 290L844 318L842 704"/>
<path style="--d:9s;" pathLength="3333" clip-path="url(#z20670c9)" d="M610 447L762 410"/>
<path style="--d:10s;" pathLength="3333" clip-path="url(#z20670c10)" d="M608 547L760 519"/>
<path style="--d:11s;" pathLength="3333" clip-path="url(#z20670c11)" d="M603 654L739 620L803 625"/>
<path style="--d:12s;" pathLength="3333" clip-path="url(#z20670c12)" d="M615 716L632 757L526 852L449 891"/>
<path style="--d:13s;" pathLength="3333" clip-path="url(#z20670c13)" d="M766 714L888 844L903 907"/>
<g class="guides"><circle style="--d: 1s" class="g1" cx="271" cy="60" r="16"/><path style="--d: 1s;" class="g1" d="M175,60 Q199.23396226415093,91.23236514522821 200.82830188679245,106.84854771784232 Q202.42264150943396,122.46473029045643 164.79622641509434,208.15352697095435 Q127.16981132075472,293.84232365145226 80.29622641509434,369.92116182572613 Q80.29622641509434,369.92116182572613 33.42264150943396,446"/><circle style="--d: 2s" class="g2" cx="228" cy="341" r="16"/><path style="--d: 2s;" class="g2" d="M348,341 Q378,438 376.375,491.75 Q366.625,814.25 365,868"/><circle style="--d: 3s" class="g3" cx="490" cy="306" r="16"/><path style="--d: 3s;" class="g3" d="M575.68,374.544 L492.68,451.544"/><circle style="--d: 4s" class="g4" cx="352" cy="261" r="16"/><path style="--d: 4s;" class="g4" d="M437.68,192.45600000000002 Q475.68,225.44177777777782 474.43,279.33133333333336 Q470.68,441 505.68,418.3702222222222 Q575.68,373.1106666666667 610.68,350.4808888888889"/><circle style="--d: 5s" class="g5" cx="530" cy="166" r="16"/><path style="--d: 5s;" class="g5" d="M530,262 Q611,267 648.875,260.125 Q876.125,218.875 914,212"/><circle style="--d: 6s" class="g6" cx="653" cy="186" r="16"/><path style="--d: 6s;" class="g6" d="M557,186 Q572,202 568.0625,208.1875 Q544.4375,245.3125 540.5,251.5"/><circle style="--d: 7s" class="g7" cx="554" cy="311" r="16"/><path style="--d: 7s;" class="g7" d="M639.68,242.45600000000002 Q670.68,287.456 670.805,329.331 Q671.555,580.581 671.68,622.456"/><circle style="--d: 8s" class="g8" cx="599" cy="330" r="16"/><path style="--d: 8s;" class="g8" d="M599,426 Q704.6122448979592,386 709.4591836734694,393 Q724,414 723.7448979591836,486.5 Q723.2346938775511,631.5 722.9795918367347,704"/><circle style="--d: 9s" class="g9" cx="610" cy="447" r="16"/><path style="--d: 9s;" class="g9" d="M610,543 L762,506"/><circle style="--d: 10s" class="g10" cx="608" cy="547" r="16"/><path style="--d: 10s;" class="g10" d="M608,643 L760,615"/><circle style="--d: 11s" class="g11" cx="603" cy="654" r="16"/><path style="--d: 11s;" class="g11" d="M603,750 Q739,716 747,716.625 Q795,720.375 803,721"/><circle style="--d: 12s" class="g12" cx="615" cy="716" r="16"/><path style="--d: 12s;" class="g12" d="M519,716 Q527.5,736.5 514.25,748.375 Q474.5,784 464.875,788.875 Q445.625,798.625 436,803.5"/><circle style="--d: 13s" class="g13" cx="766" cy="714" r="16"/><path style="--d: 13s;" class="g13" d="M851.68,645.456 Q973.68,775.456 975.555,783.331 Q986.805,830.581 988.68,838.456"/></g></svg>