<!--
  Stroke-order data for 儘, derived from AnimCJK (https://github.com/parsimonhi/animCJK),
  itself derived from the Arphic PL KaitiM fonts. Distributed under the Arphic Public License
  (see ARPHICPL.TXT). Regenerated by scripts/build-strokes.ts — do not edit by hand.
-->
<svg id="z20760" class="acjk" viewBox="0 0 1024 1024" xmlns="http://www.w3.org/2000/svg">
<g class="glyph"><path id="z20760d1" d="M254 391C282 354 363 216 396 171C403 163 404 154 401 145C398 136 386 123 366 109C347 95 330 90 317 91C304 91 300 100 307 116C316 139 318 159 310 180C283 246 251 310 212 372C173 432 127 495 74 560C67 567 63 572 62 577C59 585 63 588 73 586C99 579 148 525 225 428C244 403 244 403 254 391Z"/><path id="z20760d2" d="M225 428C241 478 249 515 249 540C249 652 241 748 221 829C212 862 219 892 243 926C256 944 271 938 279 920C289 892 294 861 294 830C291 637 292 519 298 475C302 434 287 430 254 391C244 379 219 413 225 428Z"/><path id="z20760d3" d="M766 369C770 344 776 323 783 306C793 281 793 281 798 268C803 255 817 238 826 229C836 217 836 204 826 195C815 186 792 176 759 162C748 157 735 157 722 164C697 174 673 186 650 193C613 204 613 204 595 209C556 220 516 226 475 233C464 234 458 237 461 244C462 249 470 252 482 257C498 262 517 260 539 254C557 248 577 244 597 240C632 231 632 231 649 227C667 222 685 218 705 213C719 209 728 210 735 216C742 222 744 243 738 281C735 300 735 300 733 310C730 326 725 343 722 360C720 375 763 384 766 369Z"/><path id="z20760d4" d="M783 306C819 303 860 298 904 297C946 295 969 292 972 287C975 280 971 273 962 267C945 255 922 247 904 247C868 246 831 260 798 268C758 277 758 277 738 281C716 285 667 295 646 299C614 304 614 304 598 307C523 319 444 331 361 346C350 347 348 353 357 361C364 368 373 372 383 375C393 377 403 377 412 375C468 356 530 341 598 330C629 325 629 325 645 322C669 317 715 311 733 310C766 307 766 307 783 306Z"/><path id="z20760d5" d="M640 417C678 410 722 405 773 397C797 392 786 380 766 369C753 361 737 357 722 360C705 365 665 375 642 381C612 388 612 388 597 392C556 401 517 408 481 414C468 416 465 422 474 432C478 436 483 440 490 443C496 445 503 444 512 442C533 435 562 429 597 424C626 419 626 419 640 417Z"/><path id="z20760d6" d="M595 479C552 488 506 494 459 504C450 505 448 511 456 518C467 528 489 533 517 525C586 504 673 489 781 489C786 488 796 487 799 483C802 477 798 471 791 466C762 446 736 444 708 454C688 460 664 464 637 470C609 476 609 476 595 479Z"/><path id="z20760d7" d="M637 470C637 452 639 434 640 417C641 393 641 393 642 381C643 361 644 341 645 322C646 307 646 307 646 299C647 274 648 250 649 227C650 204 650 204 650 193C650 178 654 145 667 94C668 85 664 76 650 68C626 54 605 47 590 45C579 43 571 45 566 51C561 55 560 63 567 73C597 114 592 164 595 209C596 230 596 230 597 240C598 260 598 282 598 307C598 322 598 322 598 330C598 350 597 370 597 392C597 413 597 413 597 424C597 440 595 459 595 479C595 493 637 484 637 470Z"/><path id="z20760d8" d="M424 547C413 567 400 587 385 605C372 619 371 636 380 657C383 666 390 669 402 663C428 647 438 622 441 593C442 575 447 560 443 548C439 537 428 537 424 547Z"/><path id="z20760d9" d="M520 576C532 595 545 612 562 621C568 624 575 621 580 615C584 609 586 601 585 594C583 581 577 573 570 566C555 552 537 547 517 546C509 545 509 552 510 556C510 560 514 566 520 576Z"/><path id="z20760d10" d="M636 564C650 585 664 603 682 613C688 616 695 613 700 607C704 601 706 593 705 586C703 573 697 564 690 558C667 538 647 529 629 534C626 534 625 537 626 544C626 548 629 554 636 564Z"/><path id="z20760d11" d="M774 558C788 570 802 584 817 599C823 605 830 609 838 609C842 609 847 605 850 599C852 592 851 581 848 567C844 550 818 536 772 523C764 520 758 520 756 522C753 523 752 528 753 534C753 538 760 546 774 558Z"/><path id="z20760d12" d="M465 687C456 684 445 682 434 680C413 675 418 692 423 702C447 737 455 787 471 864C473 875 507 872 505 861C499 820 489 766 484 717C482 705 477 689 465 687Z"/><path id="z20760d13" d="M787 833C809 767 829 725 848 707C861 693 857 681 841 669C824 657 808 646 792 636C783 630 760 637 719 645C621 662 556 673 465 687C453 689 473 721 484 717C486 715 504 709 539 703C552 700 552 700 559 699C577 695 604 690 640 687C671 684 671 684 687 682C745 675 768 661 764 708C761 735 750 778 730 839C723 857 780 851 787 833Z"/><path id="z20760d14" d="M589 853C585 811 585 735 559 699C556 693 538 696 539 703C551 751 536 813 566 855C570 862 589 861 589 853Z"/><path id="z20760d15" d="M649 848C698 700 717 711 687 682C676 671 637 672 640 687C651 726 645 750 634 849C633 854 647 853 649 848Z"/><path id="z20760d16" d="M471 864C432 867 394 868 356 873C343 874 340 879 350 890C358 899 367 904 378 908C390 912 401 912 411 910C565 873 741 864 940 878C965 879 982 870 956 848C934 829 908 819 879 819C847 819 816 829 787 833C749 837 749 837 730 839C704 841 677 846 649 848C639 849 639 849 634 849C618 850 603 851 589 853C574 854 574 854 566 855C545 856 525 859 505 861C482 863 482 863 471 864Z"/></g>
<defs><clipPath id="z20760c1"><use href="#z20760d1"/></clipPath>
	<clipPath id="z20760c2"><use href="#z20760d2"/></clipPath>
	<clipPath id="z20760c3"><use href="#z20760d3"/></clipPath>
	<clipPath id="z20760c4"><use href="#z20760d4"/></clipPath>
	<clipPath id="z20760c5"><use href="#z20760d5"/></clipPath>
	<clipPath id="z20760c6"><use href="#z20760d6"/></clipPath>
	<clipPath id="z20760c7"><use href="#z20760d7"/></clipPath>
	<clipPath id="z20760c8"><use href="#z20760d8"/></clipPath>
	<clipPath id="z20760c9"><use href="#z20760d9"/></clipPath>
	<clipPath id="z20760c10"><use href="#z20760d10"/></clipPath>
	<clipPath id="z20760c11"><use href="#z20760d11"/></clipPath>
	<clipPath id="z20760c12"><use href="#z20760d12"/></clipPath>
	<clipPath id="z20760c13"><use href="#z20760d13"/></clipPath>
	<clipPath id="z20760c14"><use href="#z20760d14"/></clipPath>
	<clipPath id="z20760c15"><use href="#z20760d15"/></clipPath>
	<clipPath id="z20760c16"><use href="#z20760d16"/></clipPath><marker id="guide-arrow" viewBox="0 0 16 16" refX="5" refY="5" markerWidth="4" markerHeight="4" orient="auto-start-reverse"><path d="M 0 0 L 10 5 L 0 10 z" fill="inherit"/></marker></defs>
<g class="strokes"><path pathLength="3333" clip-path="url(#z20760c1)" d="M312 102L356 151L350 177L233 381L68 579"/><path pathLength="3333" clip-path="url(#z20760c2)" d="M243 397L272 524L254 929"/><path pathLength="3333" clip-path="url(#z20760c3)" d="M467 241L747 188L787 220L738 373"/><path pathLength="3333" clip-path="url(#z20760c4)" d="M362 356L877 273L967 282"/><path pathLength="3333" clip-path="url(#z20760c5)" d="M474 422L782 383"/><path pathLength="3333" clip-path="url(#z20760c6)" d="M459 509L729 469L795 478"/><path pathLength="3333" clip-path="url(#z20760c7)" d="M570 57L626 102L611 483"/><path pathLength="3333" clip-path="url(#z20760c8)" d="M436 546L390 661"/><path pathLength="3333" clip-path="url(#z20760c9)" d="M516 550L576 615"/><path pathLength="3333" clip-path="url(#z20760c10)" d="M634 541L692 606"/><path pathLength="3333" clip-path="url(#z20760c11)" d="M760 528L839 603"/><path pathLength="3333" clip-path="url(#z20760c12)" d="M425 686L457 712L491 867"/><path pathLength="3333" clip-path="url(#z20760c13)" d="M468 694L776 658L808 708L741 845"/><path pathLength="3333" clip-path="url(#z20760c14)" d="M548 700L579 853"/><path pathLength="3333" clip-path="url(#z20760c15)" d="M648 682L673 720L640 845"/><path pathLength="3333" clip-path="url(#z20760c16)" d="M354 884L875 846L964 864"/></g>
<g class="guides"><text class="g1" style="--gs:1" x="312" y="102">①</text><path class="g1 aligned" style="--gs:1" d="M312,102 Q356,151 353,164 Q350,177 291.5,279 Q233,381 150.5,480 Q150.5,480 68,579"/><path class="g1 offset" style="--gs:1" d="M216,102 Q245.33,141.14 243.33,151.52 Q241.33,161.91 202.33,243.38 Q163.33,324.85 108.33,403.92 Q108.33,403.92 53.33,483"/><text class="g2" style="--gs:2" x="243" y="397">②</text><path class="g2 aligned" style="--gs:2" d="M243,397 Q272,524 269.75,574.63 Q256.25,878.38 254,929"/><path class="g2 offset" style="--gs:2" d="M363,397 Q392,524 389.75,574.63 Q376.25,878.38 374,929"/><text class="g3" style="--gs:3" x="467" y="241">③</text><path class="g3 aligned" style="--gs:3" d="M467,241 Q747,188 757,196 Q787,220 774.75,258.25 Q750.25,334.75 738,373"/><path class="g3 offset" style="--gs:3" d="M467,337 Q642,284 648.25,292 Q667,316 659.34,331.13 Q644.03,361.38 636.38,376.5"/><text class="g4" style="--gs:4" x="362" y="356">④</text><path class="g4 aligned" style="--gs:4" d="M362,356 Q877,273 888.25,274.13 Q955.75,280.88 967,282"/><path class="g4 offset" style="--gs:4" d="M362,452 Q877,369 888.25,370.13 Q955.75,376.88 967,378"/><text class="g5" style="--gs:5" x="474" y="422">⑤</text><path class="g5 aligned" style="--gs:5" d="M474,422 L782,383"/><path class="g5 offset" style="--gs:5" d="M474,518 L782,479"/><text class="g6" style="--gs:6" x="459" y="509">⑥</text><path class="g6 aligned" style="--gs:6" d="M459,509 Q729,469 737.25,470.13 Q786.75,476.88 795,478"/><path class="g6 offset" style="--gs:6" d="M459,605 Q729,565 737.25,566.13 Q786.75,572.88 795,574"/><text class="g7" style="--gs:7" x="570" y="57">⑦</text><path class="g7 aligned" style="--gs:7" d="M570,57 Q626,102 624.13,149.63 Q612.88,435.38 611,483"/><path class="g7 offset" style="--gs:7" d="M474,57 Q530,102 528.13,149.63 Q516.88,435.38 515,483"/><text class="g8" style="--gs:8" x="436" y="546">⑧</text><path class="g8 aligned" style="--gs:8" d="M436,546 L390,661"/><path class="g8 offset" style="--gs:8" d="M556,546 L510,661"/><text class="g9" style="--gs:9" x="516" y="550">⑨</text><path class="g9 aligned" style="--gs:9" d="M516,550 L576,615"/><path class="g9 offset" style="--gs:9" d="M601.68,481.46 L661.68,546.46"/><text class="g10" style="--gs:10" x="634" y="541">⑩</text><path class="g10 aligned" style="--gs:10" d="M634,541 L692,606"/><path class="g10 offset" style="--gs:10" d="M719.68,472.46 L777.68,537.46"/><text class="g11" style="--gs:11" x="760" y="528">⑪</text><path class="g11 aligned" style="--gs:11" d="M760,528 L839,603"/><path class="g11 offset" style="--gs:11" d="M845.68,459.46 L924.68,534.46"/><text class="g12" style="--gs:12" x="425" y="686">⑫</text><path class="g12 aligned" style="--gs:12" d="M441,699 L491,867"/><path class="g12 offset" style="--gs:12" d="M561,699 L611,867"/><text class="g13" style="--gs:13" x="468" y="694">⑬</text><path class="g13 aligned" style="--gs:13" d="M468,694 Q776,658 784,670.5 Q808,708 791.25,742.25 Q757.75,810.75 741,845"/><path class="g13 offset" style="--gs:13" d="M468,790 Q667.29,754 672.47,760.25 Q688,779 677.16,796.13 Q655.49,830.38 644.65,847.5"/><text class="g14" style="--gs:14" x="548" y="700">⑭</text><path class="g14 aligned" style="--gs:14" d="M548,700 L579,853"/><path class="g14 offset" style="--gs:14" d="M668,700 L699,853"/><text class="g15" style="--gs:15" x="648" y="682">⑮</text><path class="g15 aligned" style="--gs:15" d="M648,682 Q673,720 668.88,735.63 Q644.13,829.38 640,845"/><path class="g15 offset" style="--gs:15" d="M552,682 Q577,720 572.88,735.63 Q548.13,829.38 544,845"/><text class="g16" style="--gs:16" x="354" y="884">⑯</text><path class="g16 aligned" style="--gs:16" d="M354,884 Q875,846 886.13,848.25 Q952.88,861.75 964,864"/><path class="g16 offset" style="--gs:16" d="M354,980 Q875,942 886.13,944.25 Q952.88,957.75 964,960"/></g>
</svg>
