<!--
  Stroke-order data for 償, derived from AnimCJK (https://github.com/parsimonhi/animCJK),
  itself derived from the Arphic PL KaitiM fonts. Distributed under the Arphic Public License
  (see ARPHICPL.TXT). Regenerated by scripts/build-strokes.ts — do not edit by hand.
-->
<svg id="z20767" class="acjk" viewBox="0 0 1024 1024" xmlns="http://www.w3.org/2000/svg">
<g class="glyph"><path id="z20767d1" d="M235 364C261 327 288 284 315 235C333 201 348 174 365 158C371 151 372 142 369 133C366 123 354 111 334 97C314 83 299 78 285 80C272 80 268 88 275 105C284 126 286 147 279 166C254 230 224 293 187 353C151 411 108 472 58 536C52 543 47 548 46 553C43 561 47 564 57 562C85 554 135 498 210 398C227 375 227 375 235 364Z"/><path id="z20767d2" d="M210 398C230 444 240 479 240 504C240 592 239 654 236 692C232 730 225 771 215 813C207 843 214 875 237 911C238 913 239 916 243 919C255 930 267 927 275 907C286 878 290 847 290 814C285 621 283 502 291 459C294 438 295 426 288 418C260 388 243 369 235 364C224 356 205 385 210 398Z"/><path id="z20767d3" d="M643 215C653 138 661 90 669 72C671 65 667 56 655 49C635 37 617 31 603 28C594 25 587 27 582 33C577 37 576 43 582 52C593 68 602 124 605 222C605 235 640 228 643 215Z"/><path id="z20767d4" d="M473 132C483 146 494 160 507 177C515 186 524 191 535 193C542 194 549 190 553 180C555 172 553 160 548 150C543 140 533 134 522 128C500 117 486 110 479 109C473 108 471 111 470 117C469 121 469 126 473 132Z"/><path id="z20767d5" d="M747 94C738 110 723 132 703 160C699 164 697 170 703 173C706 175 712 173 717 170C759 141 791 120 813 111C823 106 827 102 825 97C821 86 812 77 802 67C789 56 776 49 764 49C754 48 750 54 752 67C753 74 752 84 747 94Z"/><path id="z20767d6" d="M433 251C430 241 419 227 412 222C400 213 392 215 394 232C395 254 383 283 353 320C341 333 343 356 361 386C369 399 381 398 390 384C398 370 406 353 412 333C419 308 425 289 432 276C435 268 436 259 433 251Z"/><path id="z20767d7" d="M432 276C446 282 461 285 476 281C560 254 659 233 774 221C796 218 811 215 820 218C828 221 831 227 830 234C829 235 824 256 809 295C805 304 802 309 807 312C810 314 819 311 830 304C860 283 888 268 914 261C934 254 945 248 945 244C943 236 919 220 880 191C863 179 830 181 774 192C725 200 682 207 643 215C618 220 618 220 605 222C578 226 461 247 433 251C425 252 424 273 432 276Z"/><path id="z20767d8" d="M524 312C518 309 506 307 492 305C484 303 481 303 480 306C477 309 477 315 482 324C494 345 505 375 514 412C516 422 520 431 527 439C536 449 543 451 545 444C546 439 547 433 547 427C547 418 546 408 545 400C540 369 537 348 536 337C534 328 533 315 524 312Z"/><path id="z20767d9" d="M726 373C736 352 751 338 766 328C775 320 777 307 769 300C730 266 695 263 665 276C621 293 554 307 524 312C515 314 527 339 536 337C554 335 612 318 633 314C657 308 700 292 697 321C695 331 691 347 684 369C679 382 720 386 726 373Z"/><path id="z20767d10" d="M547 427C563 429 581 421 738 402C744 401 747 398 748 394C748 389 740 382 726 373C714 366 698 366 684 369C655 376 585 393 545 400C536 402 538 427 547 427Z"/><path id="z20767d11" d="M510 479C500 466 490 459 465 456C449 454 452 466 457 475C461 483 464 491 466 499C478 546 482 610 470 675C462 711 459 738 483 766C489 772 495 772 500 765C502 761 506 756 508 750C511 739 513 732 514 717C514 706 515 687 515 657C515 646 515 646 515 640C515 601 515 601 515 581C515 566 515 566 515 558C515 535 515 518 516 508C516 498 516 487 510 479Z"/><path id="z20767d12" d="M719 732C725 751 740 770 746 770C754 769 763 758 773 739C781 722 784 698 782 671C773 576 778 518 794 494C800 483 801 474 796 469C779 453 756 439 725 428C715 424 702 425 688 432C649 449 590 465 510 479C500 481 507 511 516 508C530 501 584 490 678 471C692 468 702 469 709 477C716 487 720 508 721 540C723 630 723 697 717 707C714 715 716 724 719 732Z"/><path id="z20767d13" d="M515 581Q519 582 527 581Q599 571 651 565Q672 562 665 551Q655 538 633 533Q615 530 515 558C507 560 507 581 515 581Z"/><path id="z20767d14" d="M515 657C530 666 575 654 656 645C670 643 674 638 669 631C662 622 651 616 637 614C622 611 580 620 515 640C510 642 510 655 515 657Z"/><path id="z20767d15" d="M508 750C522 752 628 736 719 732C727 732 724 712 717 707C672 671 671 696 514 717C503 719 497 750 508 750Z"/><path id="z20767d16" d="M510 807C506 834 468 883 389 948C376 958 377 960 395 960C437 959 488 929 550 869C562 857 572 849 579 844C587 837 589 829 588 824C586 814 577 808 561 802C541 795 529 792 521 793C516 793 511 798 510 807Z"/><path id="z20767d17" d="M686 814C715 847 750 883 785 931C794 943 801 954 813 957C816 958 823 955 829 950C837 942 839 924 833 896C827 868 802 845 764 823C755 818 731 805 690 785C682 781 680 782 679 791C678 799 679 807 686 814Z"/></g>
<defs><clipPath id="z20767c1"><use href="#z20767d1"/></clipPath>
	<clipPath id="z20767c2"><use href="#z20767d2"/></clipPath>
	<clipPath id="z20767c3"><use href="#z20767d3"/></clipPath>
	<clipPath id="z20767c4"><use href="#z20767d4"/></clipPath>
	<clipPath id="z20767c5"><use href="#z20767d5"/></clipPath>
	<clipPath id="z20767c6"><use href="#z20767d6"/></clipPath>
	<clipPath id="z20767c7"><use href="#z20767d7"/></clipPath>
	<clipPath id="z20767c8"><use href="#z20767d8"/></clipPath>
	<clipPath id="z20767c9"><use href="#z20767d9"/></clipPath>
	<clipPath id="z20767c10"><use href="#z20767d10"/></clipPath>
	<clipPath id="z20767c11"><use href="#z20767d11"/></clipPath>
	<clipPath id="z20767c12"><use href="#z20767d12"/></clipPath>
	<clipPath id="z20767c13"><use href="#z20767d13"/></clipPath>
	<clipPath id="z20767c14"><use href="#z20767d14"/></clipPath>
	<clipPath id="z20767c15"><use href="#z20767d15"/></clipPath>
	<clipPath id="z20767c16"><use href="#z20767d16"/></clipPath>
	<clipPath id="z20767c17"><use href="#z20767d17"/></clipPath><marker id="guide-arrow" viewBox="0 0 16 16" refX="5" refY="5" markerWidth="4" markerHeight="4" orient="auto-start-reverse"><path d="M 0 0 L 10 5 L 0 10 z" fill="inherit"/></marker></defs>
<g class="strokes"><path pathLength="3333" clip-path="url(#z20767c1)" d="M278 90L320 124L322 159L179 405L52 555"/><path pathLength="3333" clip-path="url(#z20767c2)" d="M228 370L263 457L246 918"/><path pathLength="3333" clip-path="url(#z20767c3)" d="M584 36L630 73L622 226"/><path pathLength="3333" clip-path="url(#z20767c4)" d="M477 115L548 182"/><path pathLength="3333" clip-path="url(#z20767c5)" d="M760 54L785 99L705 168"/><path pathLength="3333" clip-path="url(#z20767c6)" d="M401 223L411 267L368 387"/><path pathLength="3333" clip-path="url(#z20767c7)" d="M433 266L826 200L865 216L891 256L812 306"/><path pathLength="3333" clip-path="url(#z20767c8)" d="M486 312L512 334L538 441"/><path pathLength="3333" clip-path="url(#z20767c9)" d="M528 319L703 288L735 312L693 377"/><path pathLength="3333" clip-path="url(#z20767c10)" d="M546 415L741 387"/><path pathLength="3333" clip-path="url(#z20767c11)" d="M461 461L492 503L486 765"/><path pathLength="3333" clip-path="url(#z20767c12)" d="M509 494L700 448L753 479L742 762"/><path pathLength="3333" clip-path="url(#z20767c13)" d="M515 571L658 554"/><path pathLength="3333" clip-path="url(#z20767c14)" d="M515 648L663 636"/><path pathLength="3333" clip-path="url(#z20767c15)" d="M506 740L721 720"/><path pathLength="3333" clip-path="url(#z20767c16)" d="M519 800L539 840L391 953"/><path pathLength="3333" clip-path="url(#z20767c17)" d="M685 791L786 879L824 951"/></g>
<g class="guides"><text class="g1" style="--gs:1" x="278" y="90">①</text><path class="g1 aligned" style="--gs:1" d="M278,90 Q320,124 321,141.5 Q322,159 250.5,282 Q179,405 115.5,480 Q115.5,480 52,555"/><path class="g1 offset" style="--gs:1" d="M182,90 Q209.07,116.98 209.71,130.87 Q210.36,144.75 164.28,242.36 Q118.2,339.97 77.28,399.48 Q77.28,399.48 36.36,459"/><text class="g2" style="--gs:2" x="228" y="370">②</text><path class="g2 aligned" style="--gs:2" d="M228,370 Q263,457 260.88,514.63 Q248.13,860.38 246,918"/><path class="g2 offset" style="--gs:2" d="M348,370 Q383,457 380.88,514.63 Q368.13,860.38 366,918"/><text class="g3" style="--gs:3" x="584" y="36">③</text><path class="g3 aligned" style="--gs:3" d="M584,36 Q630,73 629,92.13 Q623,206.88 622,226"/><path class="g3 offset" style="--gs:3" d="M488,36 Q534,73 533,92.13 Q527,206.88 526,226"/><text class="g4" style="--gs:4" x="477" y="115">④</text><path class="g4 aligned" style="--gs:4" d="M477,115 L548,182"/><path class="g4 offset" style="--gs:4" d="M562.68,46.46 L633.68,113.46"/><text class="g5" style="--gs:5" x="760" y="54">⑤</text><path class="g5 aligned" style="--gs:5" d="M760,54 Q785,99 775,107.63 Q715,159.38 705,168"/><path class="g5 offset" style="--gs:5" d="M664,54 Q676.5,76.5 671.5,80.81 Q641.5,106.69 636.5,111"/><text class="g6" style="--gs:6" x="401" y="223">⑥</text><path class="g6 aligned" style="--gs:6" d="M401,223 Q411,267 405.63,282 Q373.38,372 368,387"/><path class="g6 offset" style="--gs:6" d="M521,223 Q531,267 525.63,282 Q493.38,372 488,387"/><text class="g7" style="--gs:7" x="433" y="266">⑦</text><path class="g7 aligned" style="--gs:7" d="M433,266 Q826,200 845.5,208 Q865,216 878,236 Q891,256 851.5,281 Q851.5,281 812,306"/><path class="g7 offset" style="--gs:7" d="M433,362 Q717.02,296 731.12,304 Q745.21,312 754.6,332 Q764,352 735.45,377 Q735.45,377 706.91,402"/><text class="g8" style="--gs:8" x="486" y="312">⑧</text><path class="g8 aligned" style="--gs:8" d="M499,323 L538,441"/><path class="g8 offset" style="--gs:8" d="M619,323 L658,441"/><text class="g9" style="--gs:9" x="528" y="319">⑨</text><path class="g9 aligned" style="--gs:9" d="M528,319 Q703,288 711,294 Q735,312 724.5,328.25 Q703.5,360.75 693,377"/><path class="g9 offset" style="--gs:9" d="M528,415 Q626.91,384 631.43,390 Q645,408 639.07,424.25 Q627.2,456.75 621.26,473"/><text class="g10" style="--gs:10" x="546" y="415">⑩</text><path class="g10 aligned" style="--gs:10" d="M546,415 L741,387"/><path class="g10 offset" style="--gs:10" d="M546,511 L741,483"/><text class="g11" style="--gs:11" x="461" y="461">⑪</text><path class="g11 aligned" style="--gs:11" d="M461,461 Q492,503 491.25,535.75 Q486.75,732.25 486,765"/><path class="g11 offset" style="--gs:11" d="M365,461 Q396,503 395.25,535.75 Q390.75,732.25 390,765"/><text class="g12" style="--gs:12" x="509" y="494">⑫</text><path class="g12 aligned" style="--gs:12" d="M509,494 Q700,448 713.25,455.75 Q753,479 750.25,549.75 Q744.75,691.25 742,762"/><path class="g12 offset" style="--gs:12" d="M509,590 Q606.07,544 612.8,551.75 Q633,575 631.6,621.75 Q628.81,715.25 627.41,762"/><text class="g13" style="--gs:13" x="515" y="571">⑬</text><path class="g13 aligned" style="--gs:13" d="M515,571 L658,554"/><path class="g13 offset" style="--gs:13" d="M515,667 L658,650"/><text class="g14" style="--gs:14" x="515" y="648">⑭</text><path class="g14 aligned" style="--gs:14" d="M515,648 L663,636"/><path class="g14 offset" style="--gs:14" d="M515,744 L663,732"/><text class="g15" style="--gs:15" x="506" y="740">⑮</text><path class="g15 aligned" style="--gs:15" d="M506,740 L721,720"/><path class="g15 offset" style="--gs:15" d="M506,836 L721,816"/><text class="g16" style="--gs:16" x="519" y="800">⑯</text><path class="g16 aligned" style="--gs:16" d="M519,800 Q539,840 520.5,854.13 Q409.5,938.88 391,953"/><path class="g16 offset" style="--gs:16" d="M423,800 Q433,820 423.75,827.06 Q368.25,869.44 359,876.5"/><text class="g17" style="--gs:17" x="685" y="791">⑰</text><path class="g17 aligned" style="--gs:17" d="M685,791 Q786,879 790.75,888 Q819.25,942 824,951"/><path class="g17 offset" style="--gs:17" d="M770.68,722.46 Q871.68,810.46 876.43,819.46 Q904.93,873.46 909.68,882.46"/></g>
</svg>
