<!--
  Stroke-order data for 儲, derived from AnimCJK (https://github.com/parsimonhi/animCJK),
  itself derived from the Arphic PL KaitiM fonts. Distributed under the Arphic Public License
  (see ARPHICPL.TXT). Regenerated by scripts/build-strokes.ts — do not edit by hand.
-->
<svg id="z20786" class="acjk" viewBox="0 0 1024 1024" xmlns="http://www.w3.org/2000/svg">
<g class="glyph"><path style="--part:1" id="z20786d1" d="M188 385C242 312 278 232 318 176C323 168 324 160 321 151C318 141 306 130 286 117C266 105 251 99 238 101C225 102 221 110 229 126C238 143 239 162 234 180C214 237 189 293 158 347C127 399 92 455 49 512C42 520 38 526 38 530C36 538 39 540 49 538C69 532 109 490 167 413C181 394 181 394 188 385Z"/><path style="--part:1" id="z20786d2" d="M167 413C169 421 174 428 178 436C196 469 201 548 191 670C188 704 181 738 174 773C167 803 174 835 198 869C198 869 199 870 201 872C212 883 223 879 231 861C241 834 245 805 245 774C241 612 239 512 245 476C247 457 249 445 243 438C213 405 194 388 188 385C179 378 163 402 167 413Z"/><path style="--part:2" id="z20786d3" d="M403 163C415 173 428 185 442 199C450 207 460 210 470 209C476 208 482 204 485 196C488 186 485 171 479 153C473 136 445 125 397 117C386 115 379 114 376 117C372 119 371 125 373 133C374 140 385 149 403 163Z"/><path style="--part:2" id="z20786d4" d="M293 309C270 314 268 322 286 331C311 343 341 342 375 332C412 320 451 309 491 298C508 292 518 289 521 286C525 280 527 275 524 270C519 263 507 258 489 256C473 253 443 264 398 281C358 295 322 302 293 309Z"/><path style="--part:2" id="z20786d5" d="M327 411C308 414 306 423 321 429C345 438 370 435 395 428C438 414 467 407 478 401C483 397 482 392 479 388C475 383 465 378 451 377C445 376 418 384 371 400C358 404 343 407 327 411Z"/><path style="--part:2" id="z20786d6" d="M323 509C304 512 301 521 317 528C336 537 370 535 415 522C459 509 483 501 486 499C490 495 490 489 487 485C482 478 472 474 457 473C445 471 416 481 371 498C356 503 340 505 323 509Z"/><path style="--part:2" id="z20786d7" d="M325 618C318 614 305 611 287 608C280 606 275 606 274 609C271 612 271 619 276 628C290 658 303 699 311 752C313 766 317 779 326 790C336 802 342 804 346 796C348 789 350 780 349 769C347 750 347 750 346 740C341 691 335 660 333 644C331 635 333 621 325 618Z"/><path style="--part:2" id="z20786d8" d="M468 718C476 675 487 647 499 634C512 618 510 606 496 599C458 580 436 572 432 573C428 573 424 575 421 578C403 591 371 604 325 618C316 621 325 647 333 644C335 642 359 634 405 623C417 619 424 622 429 626C433 629 434 638 431 656C428 673 425 693 423 714C420 729 465 733 468 718Z"/><path style="--part:2" id="z20786d9" d="M349 769C353 769 359 768 365 767C387 760 424 752 476 743C481 742 486 739 486 734C486 729 479 724 468 718C455 710 437 708 423 714C406 720 367 734 346 740C337 743 339 769 349 769Z"/><path style="--part:2" id="z20786d10" d="M683 298C731 280 756 271 758 270C762 265 762 260 760 256C754 249 744 245 727 244C712 243 699 246 687 251C652 265 652 265 635 272C620 277 589 286 567 293C545 298 543 307 561 314C582 321 608 324 635 315C667 304 667 304 683 298Z"/><path style="--part:2" id="z20786d11" d="M674 407C676 370 679 334 683 298C686 267 686 267 687 251C691 203 696 156 709 111C710 104 706 93 693 85C670 70 650 64 636 62C624 59 617 61 612 67C607 71 606 79 612 89C623 107 629 124 632 138C635 160 635 183 635 272C635 301 635 301 635 315C635 347 633 382 632 418C632 432 674 421 674 407Z"/><path style="--part:2" id="z20786d12" d="M773 419C840 403 883 415 932 411C933 410 944 411 944 404C944 396 936 389 928 383C886 355 864 350 806 368C761 381 761 381 739 388C723 392 684 404 674 407C646 414 646 414 632 418C594 427 554 435 513 446C501 448 499 454 510 463C527 477 550 480 578 471C624 454 687 438 712 433C753 424 753 424 773 419Z"/><path style="--part:2" id="z20786d13" d="M674 576C690 551 747 460 773 419C795 385 795 385 806 368C847 298 863 276 876 268C884 261 889 255 888 250C886 245 880 241 872 239C849 231 828 227 810 228C799 228 791 234 790 247C787 273 779 309 739 388C721 418 721 418 712 433C688 478 627 568 617 584C598 611 598 611 589 624C520 722 454 807 389 879C384 883 383 886 385 888C385 888 389 889 394 887C437 863 471 830 486 816C505 796 577 706 593 686C626 641 649 612 674 576Z"/><path style="--part:2" id="z20786d14" d="M792 488C800 502 809 507 817 523C822 532 829 537 838 539C843 539 848 537 853 531C858 524 860 511 860 494C857 476 837 468 797 449C790 445 784 443 780 444C777 444 775 449 774 457C774 463 780 474 792 488Z"/><path style="--part:2" id="z20786d15" d="M617 584C608 579 597 575 588 572C583 571 579 573 575 577C573 579 574 584 579 591C579 593 580 595 582 599C583 600 583 600 583 601C583 603 585 611 589 624C592 665 592 665 593 686C595 742 591 787 582 820C574 850 579 876 599 897C605 905 611 905 616 897C618 892 621 886 625 880C631 870 631 858 633 847C635 834 636 798 637 739C638 720 638 720 638 710C638 662 639 630 642 614C645 601 629 590 617 584Z"/><path style="--part:2" id="z20786d16" d="M774 864C786 895 813 981 845 913C855 890 859 862 856 836C839 695 836 617 851 595C855 588 854 581 850 576C838 564 817 552 788 540C776 534 767 535 759 541C738 553 699 568 674 576C654 580 639 584 617 584C604 584 630 618 642 614C714 586 767 568 775 585C793 627 794 730 793 774C792 793 791 828 780 845C777 851 772 858 774 864Z"/><path style="--part:2" id="z20786d17" d="M637 739C675 732 710 727 740 723C754 720 759 715 753 707C746 698 735 692 719 690C691 688 664 694 638 710C630 715 628 741 637 739Z"/><path style="--part:2" id="z20786d18" d="M625 880C631 874 696 868 774 864C781 864 786 848 780 845C776 842 758 835 746 830C735 825 722 825 705 829C679 835 655 841 633 847C622 849 615 885 625 880Z"/></g>
<defs><clipPath id="z20786c1"><use href="#z20786d1"/></clipPath>
	<clipPath id="z20786c2"><use href="#z20786d2"/></clipPath>
	<clipPath id="z20786c3"><use href="#z20786d3"/></clipPath>
	<clipPath id="z20786c4"><use href="#z20786d4"/></clipPath>
	<clipPath id="z20786c5"><use href="#z20786d5"/></clipPath>
	<clipPath id="z20786c6"><use href="#z20786d6"/></clipPath>
	<clipPath id="z20786c7"><use href="#z20786d7"/></clipPath>
	<clipPath id="z20786c8"><use href="#z20786d8"/></clipPath>
	<clipPath id="z20786c9"><use href="#z20786d9"/></clipPath>
	<clipPath id="z20786c10"><use href="#z20786d10"/></clipPath>
	<clipPath id="z20786c11"><use href="#z20786d11"/></clipPath>
	<clipPath id="z20786c12"><use href="#z20786d12"/></clipPath>
	<clipPath id="z20786c13"><use href="#z20786d13"/></clipPath>
	<clipPath id="z20786c14"><use href="#z20786d14"/></clipPath>
	<clipPath id="z20786c15"><use href="#z20786d15"/></clipPath>
	<clipPath id="z20786c16"><use href="#z20786d16"/></clipPath>
	<clipPath id="z20786c17"><use href="#z20786d17"/></clipPath>
	<clipPath id="z20786c18"><use href="#z20786d18"/></clipPath><marker id="guide-arrow" viewBox="0 0 16 16" refX="5" refY="5" markerWidth="4" markerHeight="4" orient="auto-start-reverse"><path d="M 0 0 L 10 5 L 0 10 z" fill="inherit"/></marker></defs>
<g class="strokes"><path style="--part:1" pathLength="3333" clip-path="url(#z20786c1)" d="M232 108L277 175L179 358L43 529"/><path style="--part:1" pathLength="3333" clip-path="url(#z20786c2)" d="M182 389L218 460L213 872"/><path style="--part:2" pathLength="3333" clip-path="url(#z20786c3)" d="M380 126L476 201"/><path style="--part:2" pathLength="3333" clip-path="url(#z20786c4)" d="M283 320L520 275"/><path style="--part:2" pathLength="3333" clip-path="url(#z20786c5)" d="M315 420L475 394"/><path style="--part:2" pathLength="3333" clip-path="url(#z20786c6)" d="M313 516L482 488"/><path style="--part:2" pathLength="3333" clip-path="url(#z20786c7)" d="M281 613L308 640L338 795"/><path style="--part:2" pathLength="3333" clip-path="url(#z20786c8)" d="M327 627L427 597L461 613L441 724"/><path style="--part:2" pathLength="3333" clip-path="url(#z20786c9)" d="M347 759L479 729"/><path style="--part:2" pathLength="3333" clip-path="url(#z20786c10)" d="M555 304L755 257"/><path style="--part:2" pathLength="3333" clip-path="url(#z20786c11)" d="M614 74L669 116L648 421"/><path style="--part:2" pathLength="3333" clip-path="url(#z20786c12)" d="M508 452L853 383L939 400"/><path style="--part:2" pathLength="3333" clip-path="url(#z20786c13)" d="M797 237L834 269L691 510L508 764L393 882"/><path style="--part:2" pathLength="3333" clip-path="url(#z20786c14)" d="M783 450L841 533"/><path style="--part:2" pathLength="3333" clip-path="url(#z20786c15)" d="M581 579L614 613L607 896"/><path style="--part:2" pathLength="3333" clip-path="url(#z20786c16)" d="M622 588L767 557L816 591L812 931"/><path style="--part:2" pathLength="3333" clip-path="url(#z20786c17)" d="M635 731L747 708"/><path style="--part:2" pathLength="3333" clip-path="url(#z20786c18)" d="M626 870L776 850"/></g>
<g class="guides"><text class="g1" style="--gs:1" x="232" y="108">①</text><path class="g1 aligned" style="--gs:1" d="M232,108 Q277,175 252.5,220.75 Q179,358 145,400.75 Q77,486.25 43,529"/><path class="g1 offset" style="--gs:1" d="M136,108 Q162.54,159.72 148.09,195.04 Q104.74,300.99 84.69,333.99 Q44.59,400 24.54,433"/><text class="g2" style="--gs:2" x="182" y="389">②</text><path class="g2 aligned" style="--gs:2" d="M182,389 Q218,460 217.38,511.5 Q213.63,820.5 213,872"/><path class="g2 offset" style="--gs:2" d="M302,389 Q338,460 337.38,511.5 Q333.63,820.5 333,872"/><text class="g3" style="--gs:3" x="380" y="126">③</text><path class="g3 aligned" style="--gs:3" d="M380,126 L476,201"/><path class="g3 offset" style="--gs:3" d="M465.68,57.46 L561.68,132.46"/><text class="g4" style="--gs:4" x="283" y="320">④</text><path class="g4 aligned" style="--gs:4" d="M283,320 L520,275"/><path class="g4 offset" style="--gs:4" d="M283,416 L520,371"/><text class="g5" style="--gs:5" x="315" y="420">⑤</text><path class="g5 aligned" style="--gs:5" d="M315,420 L475,394"/><path class="g5 offset" style="--gs:5" d="M315,516 L475,490"/><text class="g6" style="--gs:6" x="313" y="516">⑥</text><path class="g6 aligned" style="--gs:6" d="M313,516 L482,488"/><path class="g6 offset" style="--gs:6" d="M313,612 L482,584"/><text class="g7" style="--gs:7" x="281" y="613">⑦</text><path class="g7 aligned" style="--gs:7" d="M295,627 L338,795"/><path class="g7 offset" style="--gs:7" d="M415,627 L458,795"/><text class="g8" style="--gs:8" x="327" y="627">⑧</text><path class="g8 aligned" style="--gs:8" d="M327,627 Q427,597 435.5,601 Q461,613 456,640.75 Q446,696.25 441,724"/><path class="g8 offset" style="--gs:8" d="M327,723 Q377,693 381.25,697 Q394,709 391.5,720.88 Q386.5,744.63 384,756.5"/><text class="g9" style="--gs:9" x="347" y="759">⑨</text><path class="g9 aligned" style="--gs:9" d="M347,759 L479,729"/><path class="g9 offset" style="--gs:9" d="M347,855 L479,825"/><text class="g10" style="--gs:10" x="555" y="304">⑩</text><path class="g10 aligned" style="--gs:10" d="M555,304 L755,257"/><path class="g10 offset" style="--gs:10" d="M555,400 L755,353"/><text class="g11" style="--gs:11" x="614" y="74">⑪</text><path class="g11 aligned" style="--gs:11" d="M614,74 Q669,116 666.38,154.13 Q650.63,382.88 648,421"/><path class="g11 offset" style="--gs:11" d="M518,74 Q573,116 570.38,154.13 Q554.63,382.88 552,421"/><text class="g12" style="--gs:12" x="508" y="452">⑫</text><path class="g12 aligned" style="--gs:12" d="M508,452 Q853,383 863.75,385.13 Q928.25,397.88 939,400"/><path class="g12 offset" style="--gs:12" d="M508,548 Q853,479 863.75,481.13 Q928.25,493.88 939,496"/><text class="g13" style="--gs:13" x="797" y="237">⑬</text><path class="g13 aligned" style="--gs:13" d="M797,237 Q834,269 762.5,389.5 Q691,510 599.5,637 Q508,764 450.5,823 Q450.5,823 393,882"/><path class="g13 offset" style="--gs:13" d="M701,237 Q729.95,264.24 674.01,366.8 Q618.07,469.37 546.49,577.47 Q474.91,685.56 429.93,735.78 Q429.93,735.78 384.95,786"/><text class="g14" style="--gs:14" x="783" y="450">⑭</text><path class="g14 aligned" style="--gs:14" d="M783,450 L841,533"/><path class="g14 offset" style="--gs:14" d="M868.68,381.46 L926.68,464.46"/><text class="g15" style="--gs:15" x="581" y="579">⑮</text><path class="g15 aligned" style="--gs:15" d="M581,579 Q614,613 613.13,648.38 Q607.88,860.63 607,896"/><path class="g15 offset" style="--gs:15" d="M485,579 Q518,613 517.13,648.38 Q511.88,860.63 511,896"/><text class="g16" style="--gs:16" x="622" y="588">⑯</text><path class="g16 aligned" style="--gs:16" d="M622,588 Q767,557 779.25,565.5 Q816,591 815,676 Q813,846 812,931"/><path class="g16 offset" style="--gs:16" d="M622,684 Q694.5,653 700.63,659.32 Q719,678.27 718.5,741.45 Q717.5,867.82 717,931"/><text class="g17" style="--gs:17" x="635" y="731">⑰</text><path class="g17 aligned" style="--gs:17" d="M635,731 L747,708"/><path class="g17 offset" style="--gs:17" d="M635,827 L747,804"/><text class="g18" style="--gs:18" x="626" y="870">⑱</text><path class="g18 aligned" style="--gs:18" d="M626,870 L776,850"/><path class="g18 offset" style="--gs:18" d="M626,966 L776,946"/></g>
<g class="parts"><rect data-part="2" data-literal="諸" role="button" tabindex="0" aria-label="Part 諸" x="209" y="2" width="802" height="1001"/><rect data-part="1" data-literal="亻" data-radical="true" role="button" tabindex="0" aria-label="Part 亻 (radical)" x="0" y="36" width="349" height="908"/></g>
</svg>
