<!--
  Stroke-order data for 光, derived from AnimCJK (https://github.com/parsimonhi/animCJK),
  itself derived from the Arphic PL KaitiM fonts. Distributed under the Arphic Public License
  (see ARPHICPL.TXT). Regenerated by scripts/build-strokes.ts — do not edit by hand.
-->
<svg id="z20809" class="acjk" viewBox="0 0 1024 1024" xmlns="http://www.w3.org/2000/svg">
<g class="glyph"><path id="z20809d1" d="M517 452C533 270 547 164 558 136C561 127 555 116 540 107C514 91 492 83 475 80C463 77 454 79 448 85C442 91 441 99 448 110C462 131 469 148 470 163C474 253 474 352 470 459C470 475 517 468 517 452Z"/><path id="z20809d2" d="M298 328C325 363 348 392 375 405C384 409 394 404 402 395C408 386 411 375 409 362C402 327 370 303 316 287C277 275 293 280 286 283C281 284 280 288 281 298C282 306 288 315 298 328Z"/><path id="z20809d3" d="M672 240C660 255 628 292 576 352C565 363 570 372 583 368C618 354 662 328 717 295C732 285 749 275 769 268C785 261 791 250 783 236C775 221 759 209 740 197C721 185 708 181 698 182C688 183 685 187 687 198C689 212 683 225 672 240Z"/><path id="z20809d4" d="M550 488C614 482 689 477 777 477C825 476 852 473 856 467C860 458 856 448 844 439C807 412 774 402 747 408C688 420 612 437 517 452C486 457 486 457 470 459C377 472 277 485 169 500C154 502 152 509 164 521C173 531 185 537 198 541C212 544 225 544 238 541C337 512 427 499 506 492C535 489 535 489 550 488Z"/><path id="z20809d5" d="M368 543C368 655 282 769 110 885C103 889 102 893 107 896C112 898 119 898 128 896C168 883 206 865 244 843C307 804 365 737 418 640C426 624 436 608 449 594C455 586 457 580 453 572C449 564 436 552 416 538C401 527 390 522 383 524C373 525 367 532 368 543Z"/><path id="z20809d6" d="M962 849C947 810 936 757 929 690C927 677 923 669 918 666C911 661 907 667 905 683C894 765 883 815 870 831C850 854 797 867 713 870C667 871 633 867 614 859C595 851 585 840 582 829C574 806 569 767 573 710C576 645 586 599 600 571C610 548 608 529 593 517C576 503 562 494 550 488C537 480 501 478 506 492C520 538 527 582 526 601C525 613 519 664 521 758C522 824 535 868 564 890C600 918 685 930 817 925C877 922 918 914 942 902C964 889 971 872 962 849Z"/></g>
<defs><clipPath id="z20809c1"><use href="#z20809d1"/></clipPath>
	<clipPath id="z20809c2"><use href="#z20809d2"/></clipPath>
	<clipPath id="z20809c3"><use href="#z20809d3"/></clipPath>
	<clipPath id="z20809c4"><use href="#z20809d4"/></clipPath>
	<clipPath id="z20809c5"><use href="#z20809d5"/></clipPath>
	<clipPath id="z20809c6"><use href="#z20809d6"/></clipPath><marker id="guide-arrow" viewBox="0 0 16 16" refX="5" refY="5" markerWidth="4" markerHeight="4" orient="auto-start-reverse"><path d="M 0 0 L 10 5 L 0 10 z" fill="inherit"/></marker></defs>
<g class="strokes"><path pathLength="3333" clip-path="url(#z20809c1)" d="M450 88L513 140L490 465"/><path pathLength="3333" clip-path="url(#z20809c2)" d="M287 290L396 398"/><path pathLength="3333" clip-path="url(#z20809c3)" d="M693 187L732 242L577 359"/><path pathLength="3333" clip-path="url(#z20809c4)" d="M164 512L735 443L853 453"/><path pathLength="3333" clip-path="url(#z20809c5)" d="M377 530L408 587L332 722L238 818L112 892"/><path pathLength="3333" clip-path="url(#z20809c6)" d="M514 491L563 545L548 794L594 878L747 897L906 866L921 844L914 671"/></g>
<g class="guides"><text class="g1" style="--gs:1" x="450" y="88">①</text><path class="g1 aligned" style="--gs:1" d="M450,88 Q513,140 510.13,180.63 Q492.88,424.38 490,465"/><path class="g1 offset" style="--gs:1" d="M354,88 Q417,140 414.13,180.63 Q396.88,424.38 394,465"/><text class="g2" style="--gs:2" x="287" y="290">②</text><path class="g2 aligned" style="--gs:2" d="M287,290 L396,398"/><path class="g2 offset" style="--gs:2" d="M372.68,221.46 L481.68,329.46"/><text class="g3" style="--gs:3" x="693" y="187">③</text><path class="g3 aligned" style="--gs:3" d="M693,187 Q732,242 712.63,256.63 Q596.38,344.38 577,359"/><path class="g3 offset" style="--gs:3" d="M597,187 Q616.5,214.5 606.81,221.81 Q548.69,265.69 539,273"/><text class="g4" style="--gs:4" x="164" y="512">④</text><path class="g4 aligned" style="--gs:4" d="M164,512 Q735,443 749.75,444.25 Q838.25,451.75 853,453"/><path class="g4 offset" style="--gs:4" d="M164,608 Q735,539 749.75,540.25 Q838.25,547.75 853,549"/><text class="g5" style="--gs:5" x="377" y="530">⑤</text><path class="g5 aligned" style="--gs:5" d="M377,530 Q408,587 370,654.5 Q332,722 285,770 Q238,818 175,855 Q175,855 112,892"/><path class="g5 offset" style="--gs:5" d="M281,530 Q299.43,571.88 276.84,621.48 Q254.24,671.08 226.3,706.35 Q198.35,741.62 160.89,768.81 Q160.89,768.81 123.43,796"/><text class="g6" style="--gs:6" x="514" y="491">⑥</text><path class="g6 aligned" style="--gs:6" d="M514,491 Q563,545 555.5,669.5 Q548,794 571,836 Q594,878 670.5,887.5 Q747,897 826.5,881.5 Q906,866 913.5,855 Q921,844 917.5,757.5 Q917.5,757.5 914,671"/><path class="g6 offset" style="--gs:6" d="M582.54,422.46 Q611.73,476.46 607.27,600.96 Q602.8,725.46 616.5,767.46 Q630.2,809.46 675.77,818.96 Q721.35,828.46 768.7,812.96 Q816.06,797.46 820.53,786.46 Q825,775.46 822.91,688.96 Q822.91,688.96 820.83,602.46"/></g>
</svg>
