<!--
  Stroke-order data for 兵, derived from AnimCJK (https://github.com/parsimonhi/animCJK),
  itself derived from the Arphic PL KaitiM fonts. Distributed under the Arphic Public License
  (see ARPHICPL.TXT). Regenerated by scripts/build-strokes.ts — do not edit by hand.
-->
<svg id="z20853" class="acjk" viewBox="0 0 1024 1024" xmlns="http://www.w3.org/2000/svg">
<g class="glyph"><path id="z20853d1" d="M383 243C477 221 546 199 592 181C626 167 658 159 689 157C701 155 710 154 713 148C716 140 713 130 705 122C691 108 665 96 633 81C621 75 611 69 601 72C594 73 591 80 591 88C588 114 514 159 368 223C360 226 375 245 383 243Z"/><path id="z20853d2" d="M385 355C382 309 384 279 386 267C386 258 385 250 383 243C381 235 375 228 368 223C349 208 328 199 306 193C293 189 284 189 278 195C271 199 269 209 277 222C294 253 310 284 318 319C325 353 336 441 352 582C355 598 405 593 402 577C395 504 389 443 387 393C386 368 386 368 385 355Z"/><path id="z20853d3" d="M618 369C710 352 757 339 762 336C768 329 770 324 767 318C762 309 749 300 727 295C709 290 664 300 591 319C521 336 452 347 385 355C373 357 374 391 387 393C430 399 478 393 572 377C603 372 603 372 618 369Z"/><path id="z20853d4" d="M619 549C637 478 651 433 661 413C663 407 660 397 649 388C639 379 628 373 618 369C604 363 566 363 572 377C595 426 580 506 576 555C576 569 616 563 619 549Z"/><path id="z20853d5" d="M352 582C273 589 191 598 106 608C91 609 88 616 100 629C110 640 122 647 135 651C150 655 164 654 176 652C341 609 566 588 849 588C865 588 882 588 899 589C913 589 923 586 927 580C931 571 927 561 915 552C876 521 843 510 816 516C763 526 697 538 619 549C590 553 590 553 576 555C551 558 434 573 402 577C369 580 369 580 352 582Z"/><path id="z20853d6" d="M351 699C299 748 233 801 153 858C142 865 142 876 155 878C186 881 251 851 344 791C385 763 411 745 427 741C441 737 448 726 444 713C440 700 424 683 401 661C392 653 384 649 376 651C363 653 359 660 362 671C364 681 360 690 351 699Z"/><path id="z20853d7" d="M598 700C644 745 696 799 750 865C762 880 773 891 786 895C792 896 798 891 805 885C815 874 815 852 808 818C798 774 729 724 601 664C593 660 589 661 588 672C586 682 590 692 598 700Z"/></g>
<defs><clipPath id="z20853c1"><use href="#z20853d1"/></clipPath>
	<clipPath id="z20853c2"><use href="#z20853d2"/></clipPath>
	<clipPath id="z20853c3"><use href="#z20853d3"/></clipPath>
	<clipPath id="z20853c4"><use href="#z20853d4"/></clipPath>
	<clipPath id="z20853c5"><use href="#z20853d5"/></clipPath>
	<clipPath id="z20853c6"><use href="#z20853d6"/></clipPath>
	<clipPath id="z20853c7"><use href="#z20853d7"/></clipPath><marker id="guide-arrow" viewBox="0 0 16 16" refX="5" refY="5" markerWidth="4" markerHeight="4" orient="auto-start-reverse"><path d="M 0 0 L 10 5 L 0 10 z" fill="inherit"/></marker></defs>
<g class="strokes"><path pathLength="3333" clip-path="url(#z20853c1)" d="M607 83L649 132L376 228"/><path pathLength="3333" clip-path="url(#z20853c2)" d="M280 204L344 262L375 579"/><path pathLength="3333" clip-path="url(#z20853c3)" d="M392 361L448 370L762 319"/><path pathLength="3333" clip-path="url(#z20853c4)" d="M580 380L621 419L590 552"/><path pathLength="3333" clip-path="url(#z20853c5)" d="M99 616L155 628L821 551L924 572"/><path pathLength="3333" clip-path="url(#z20853c6)" d="M374 654L398 697L388 723L154 870"/><path pathLength="3333" clip-path="url(#z20853c7)" d="M595 670L738 788L800 886"/></g>
<g class="guides"><text class="g1" style="--gs:1" x="607" y="83">①</text><path class="g1 aligned" style="--gs:1" d="M607,83 Q649,132 614.88,144 Q410.13,216 376,228"/><path class="g1 offset" style="--gs:1" d="M511,83 Q538.23,107.5 516.11,113.5 Q383.36,149.5 361.23,155.5"/><text class="g2" style="--gs:2" x="280" y="204">②</text><path class="g2 aligned" style="--gs:2" d="M280,204 Q344,262 347.88,301.63 Q371.13,539.38 375,579"/><path class="g2 offset" style="--gs:2" d="M365.68,135.46 Q429.68,193.46 433.56,233.08 Q456.81,470.83 460.68,510.46"/><text class="g3" style="--gs:3" x="392" y="361">③</text><path class="g3 aligned" style="--gs:3" d="M392,361 Q448,370 487.25,363.63 Q722.75,325.38 762,319"/><path class="g3 offset" style="--gs:3" d="M392,457 Q448,466 487.25,459.63 Q722.75,421.38 762,415"/><text class="g4" style="--gs:4" x="580" y="380">④</text><path class="g4 aligned" style="--gs:4" d="M580,380 Q621,419 617.13,435.63 Q593.88,535.38 590,552"/><path class="g4 offset" style="--gs:4" d="M484,380 Q525,419 521.13,435.63 Q497.88,535.38 494,552"/><text class="g5" style="--gs:5" x="99" y="616">⑤</text><path class="g5 aligned" style="--gs:5" d="M99,616 Q155,628 321.5,608.75 Q821,551 846.75,556.25 Q898.25,566.75 924,572"/><path class="g5 offset" style="--gs:5" d="M99,712 Q155,724 321.5,704.75 Q821,647 846.75,652.25 Q898.25,662.75 924,668"/><text class="g6" style="--gs:6" x="374" y="654">⑥</text><path class="g6 aligned" style="--gs:6" d="M374,654 Q398,697 395.5,703.5 Q388,723 329.5,759.75 Q212.5,833.25 154,870"/><path class="g6 offset" style="--gs:6" d="M278,654 Q290.2,677.89 288.93,681.5 Q285.11,692.33 255.39,712.75 Q195.93,753.58 166.2,774"/><text class="g7" style="--gs:7" x="595" y="670">⑦</text><path class="g7 aligned" style="--gs:7" d="M595,670 Q738,788 745.75,800.25 Q792.25,873.75 800,886"/><path class="g7 offset" style="--gs:7" d="M680.68,601.46 Q823.68,719.46 831.43,731.71 Q877.93,805.21 885.68,817.46"/></g>
</svg>
