<!--
  Stroke-order data for 冋, derived from AnimCJK (https://github.com/parsimonhi/animCJK),
  itself derived from the Arphic PL KaitiM fonts. Distributed under the Arphic Public License
  (see ARPHICPL.TXT). Regenerated by scripts/build-strokes.ts — do not edit by hand.
-->
<svg id="z20875" class="acjk" viewBox="0 0 1024 1024" xmlns="http://www.w3.org/2000/svg">
<g class="glyph"><path id="z20875d1" d="M278 189Q256 169 229 161Q219 157 211 167Q207 174 215 186Q239 250 237 328Q235 616 184 757Q173 786 178 808Q188 847 200 862Q212 878 223 863Q260 824 267 675Q284 274 295 230C298 215 290 198 278 189Z"/><path id="z20875d2" d="M295 230Q442 192 690 159Q712 156 723 169Q747 183 754 381Q760 563 755 759Q755 799 739 810Q726 820 659 806Q639 802 641 813Q641 822 657 829Q715 875 750 918Q772 937 787 935Q803 933 815 900Q833 850 831 773Q809 401 809 264Q809 236 815 214Q815 211 827 183Q832 167 823 157Q811 141 760 114Q747 108 737 108Q724 107 684 120Q533 163 278 189C263 191 280 233 295 230Z"/><path id="z20875d3" d="M394 402Q363 391 357 398Q353 404 360 420Q386 482 401 557Q404 581 417 600Q434 618 439 604Q443 590 441 569C438 547 438 547 436 536Q423 453 419 430C417 419 408 407 397 403C395 402 395 402 394 402Z"/><path id="z20875d4" d="M608 510Q625 447 658 424Q672 408 660 390Q590 341 541 366Q472 390 397 403C386 405 408 432 419 430Q430 429 439 426C515 410 515 410 553 402Q570 398 576 408Q585 426 561 506C556 521 605 525 608 510Z"/><path id="z20875d5" d="M441 569Q449 571 463 568Q535 553 623 544Q633 543 633 533Q633 526 608 510C595 502 576 503 561 506Q560 506 557 507Q491 526 436 536C425 538 430 567 441 569Z"/></g>
<defs><clipPath id="z20875c1"><use href="#z20875d1"/></clipPath>
	<clipPath id="z20875c2"><use href="#z20875d2"/></clipPath>
	<clipPath id="z20875c3"><use href="#z20875d3"/></clipPath>
	<clipPath id="z20875c4"><use href="#z20875d4"/></clipPath>
	<clipPath id="z20875c5"><use href="#z20875d5"/></clipPath><marker id="guide-arrow" viewBox="0 0 16 16" refX="5" refY="5" markerWidth="4" markerHeight="4" orient="auto-start-reverse"><path d="M 0 0 L 10 5 L 0 10 z" fill="inherit"/></marker></defs>
<g class="strokes"><path pathLength="3333" clip-path="url(#z20875c1)" d="M218 171L261 222L262 304L210 863"/><path pathLength="3333" clip-path="url(#z20875c2)" d="M279 201L720 135L780 177L782 842L759 884L647 816"/><path pathLength="3333" clip-path="url(#z20875c3)" d="M363 404L394 436L433 603"/><path pathLength="3333" clip-path="url(#z20875c4)" d="M403 410L561 379L605 391L621 418L575 516"/><path pathLength="3333" clip-path="url(#z20875c5)" d="M435 545L628 533"/></g>
<g class="guides"><text class="g1" style="--gs:1" x="218" y="171">①</text><path class="g1 aligned" style="--gs:1" d="M218,171 Q261,222 261.25,242.5 Q262,304 249,443.75 Q223,723.25 210,863"/><path class="g1 offset" style="--gs:1" d="M122,171 Q165,222 165.25,242.5 Q166,304 153,443.75 Q127,723.25 114,863"/><text class="g2" style="--gs:2" x="279" y="201">②</text><path class="g2 aligned" style="--gs:2" d="M279,201 Q720,135 750,156 Q780,177 781,509.5 Q782,842 770.5,863 Q759,884 703,850 Q703,850 647,816"/><path class="g2 offset" style="--gs:2" d="M279,297 Q635.83,231 660.11,252 Q684.38,273 685.19,505.44 Q686,737.89 676.69,752.94 Q667.39,768 622.08,743.62 Q622.08,743.62 576.77,719.25"/><text class="g3" style="--gs:3" x="363" y="404">③</text><path class="g3 aligned" style="--gs:3" d="M363,404 Q394,436 398.88,456.88 Q428.13,582.13 433,603"/><path class="g3 offset" style="--gs:3" d="M448.68,335.46 Q479.68,367.46 484.56,388.33 Q513.8,513.58 518.68,534.46"/><text class="g4" style="--gs:4" x="403" y="410">④</text><path class="g4 aligned" style="--gs:4" d="M403,410 Q561,379 583,385 Q605,391 613,404.5 Q621,418 598,467 Q598,467 575,516"/><path class="g4 offset" style="--gs:4" d="M403,506 Q482,475 493,481 Q504,487 508,490.75 Q512,494.5 500.5,519 Q500.5,519 489,543.5"/><text class="g5" style="--gs:5" x="435" y="545">⑤</text><path class="g5 aligned" style="--gs:5" d="M435,545 L628,533"/><path class="g5 offset" style="--gs:5" d="M435,641 L628,629"/></g>
</svg>
