<!--
  Stroke-order data for 冖, derived from AnimCJK (https://github.com/parsimonhi/animCJK),
  itself derived from the Arphic PL KaitiM fonts. Distributed under the Arphic Public License
  (see ARPHICPL.TXT). Regenerated by scripts/build-strokes.ts — do not edit by hand.
-->
<svg id="z20886" class="acjk" viewBox="0 0 1024 1024" xmlns="http://www.w3.org/2000/svg">
<g class="glyph"><path style="--part:1" id="z20886d1" d="M265 455Q253 431 242 422Q223 407 221 433Q225 464 176 527Q140 563 167 623Q182 650 202 623Q214 605 260 488C264 478 270 465 265 455Z"/><path style="--part:2" id="z20886d2" d="M260 488Q279 497 336 487Q474 447 701 432Q725 431 737 433Q755 446 752 454Q752 457 721 535Q714 548 721 553Q728 557 745 544Q800 502 846 487Q885 472 883 463Q882 453 808 401Q787 385 713 397Q563 413 367 443Q315 450 265 455C254 457 250 484 260 488Z"/></g>
<defs><clipPath id="z20886c1"><use href="#z20886d1"/></clipPath>
	<clipPath id="z20886c2"><use href="#z20886d2"/></clipPath><marker id="guide-arrow" viewBox="0 0 16 16" refX="5" refY="5" markerWidth="4" markerHeight="4" orient="auto-start-reverse"><path d="M 0 0 L 10 5 L 0 10 z" fill="inherit"/></marker></defs>
<g class="strokes"><path style="--part:1" pathLength="3333" clip-path="url(#z20886c1)" d="M230 423L238 472L180 632"/><path style="--part:2" pathLength="3333" clip-path="url(#z20886c2)" d="M265 481L746 412L799 439L829 480L725 549"/></g>
<g class="guides"><text class="g1" style="--gs:1" x="230" y="423">①</text><path class="g1 aligned" style="--gs:1" d="M230,423 Q238,472 230.75,492 Q187.25,612 180,632"/><path class="g1 offset" style="--gs:1" d="M350,423 Q358,472 350.75,492 Q307.25,612 300,632"/><text class="g2" style="--gs:2" x="265" y="481">②</text><path class="g2 aligned" style="--gs:2" d="M265,481 Q746,412 772.5,425.5 Q799,439 814,459.5 Q829,480 777,514.5 Q777,514.5 725,549"/><path class="g2 offset" style="--gs:2" d="M265,577 Q616.37,508 635.73,521.5 Q655.09,535 666.04,555.5 Q677,576 639.01,610.5 Q639.01,610.5 601.03,645"/></g>
<g class="parts"><rect data-part="2" data-literal="乛" role="button" tabindex="0" aria-label="Part 乛" x="193" y="340" width="708" height="281"/><rect data-part="1" data-literal="丿" role="button" tabindex="0" aria-label="Part 丿" x="108" y="351" width="202" height="353"/></g>
</svg>
