<!--
  Stroke-order data for 冬, derived from AnimCJK (https://github.com/parsimonhi/animCJK),
  itself derived from the Arphic PL KaitiM fonts. Distributed under the Arphic Public License
  (see ARPHICPL.TXT). Regenerated by scripts/build-strokes.ts — do not edit by hand.
-->
<svg id="z20908" class="acjk" viewBox="0 0 1024 1024" xmlns="http://www.w3.org/2000/svg">
<g class="glyph"><path style="--part:1" id="z20908d1" d="M430 220C449 193 473 151 514 102C521 92 521 82 511 72C483 45 459 34 441 36C433 36 429 42 430 53C432 134 387 223 291 314C271 331 245 348 222 375C213 384 217 388 229 387C246 384 274 369 312 341C323 333 323 333 328 329C361 304 389 274 413 243C424 228 424 228 430 220Z"/><path style="--part:1" id="z20908d2" d="M520 441C561 398 602 345 645 285C658 266 673 250 693 239C703 233 710 228 711 222C711 213 701 202 682 189C657 171 641 161 631 161C622 160 614 164 606 169C558 193 471 213 430 220C421 222 404 239 413 243C445 259 494 251 564 224C576 219 584 219 590 228C592 231 587 244 573 273C547 323 513 366 475 408C458 426 458 426 450 435C358 533 234 598 93 643C84 645 81 648 82 652C82 654 84 657 90 658C107 661 137 657 178 649C219 640 263 624 309 602C381 559 441 522 492 470C511 451 511 451 520 441Z"/><path style="--part:1" id="z20908d3" d="M492 470C507 483 524 497 543 514C593 557 652 597 717 642C732 653 749 658 772 656C838 646 898 635 950 620C976 612 987 604 985 598C983 594 969 589 940 586C800 567 709 548 668 529C632 512 581 485 520 441C490 419 490 419 475 408C429 374 375 322 328 329C321 330 306 338 312 341C361 371 413 404 450 435C478 458 478 458 492 470Z"/><path style="--part:2" id="z20908d4" d="M445 650C476 668 509 689 544 712C554 718 564 721 575 720C581 719 587 714 589 704C590 693 585 678 578 660C571 643 554 627 524 619C458 600 420 597 411 605C408 607 406 613 410 622C412 629 425 638 445 650Z"/><path style="--part:2" id="z20908d5" d="M419 821C463 857 509 896 557 940C565 948 576 953 588 953C594 953 601 948 605 939C608 929 605 913 601 892C595 866 575 840 537 820C499 799 457 783 415 770C404 766 396 766 392 769C387 771 385 777 388 786C389 794 400 806 419 821Z"/></g>
<defs><clipPath id="z20908c1"><use href="#z20908d1"/></clipPath>
	<clipPath id="z20908c2"><use href="#z20908d2"/></clipPath>
	<clipPath id="z20908c3"><use href="#z20908d3"/></clipPath>
	<clipPath id="z20908c4"><use href="#z20908d4"/></clipPath>
	<clipPath id="z20908c5"><use href="#z20908d5"/></clipPath><marker id="guide-arrow" viewBox="0 0 16 16" refX="5" refY="5" markerWidth="4" markerHeight="4" orient="auto-start-reverse"><path d="M 0 0 L 10 5 L 0 10 z" fill="inherit"/></marker></defs>
<g class="strokes"><path style="--part:1" pathLength="3333" clip-path="url(#z20908c1)" d="M440 43L473 88L409 208L329 304L223 380"/><path style="--part:1" pathLength="3333" clip-path="url(#z20908c2)" d="M416 235L609 194L640 211L656 234L552 361L337 558L206 622L88 651"/><path style="--part:1" pathLength="3333" clip-path="url(#z20908c3)" d="M320 338L729 597L978 601"/><path style="--part:2" pathLength="3333" clip-path="url(#z20908c4)" d="M417 612L533 661L582 713"/><path style="--part:2" pathLength="3333" clip-path="url(#z20908c5)" d="M394 775L538 868L601 941"/></g>
<g class="guides"><text class="g1" style="--gs:1" x="440" y="43">①</text><path class="g1 aligned" style="--gs:1" d="M440,43 Q473,88 441,148 Q409,208 369,256 Q329,304 276,342 Q276,342 223,380"/><path class="g1 offset" style="--gs:1" d="M344,43 Q364.33,75.18 344.62,118.09 Q324.9,161 300.26,195.32 Q275.62,229.65 242.98,256.82 Q242.98,256.82 210.33,284"/><text class="g2" style="--gs:2" x="416" y="235">②</text><path class="g2 aligned" style="--gs:2" d="M416,235 Q609,194 624.5,202.5 Q640,211 648,222.5 Q656,234 604,297.5 Q552,361 444.5,459.5 Q337,558 271.5,590 Q206,622 147,636.5 Q147,636.5 88,651"/><path class="g2 offset" style="--gs:2" d="M320,331 Q480.38,307.23 493.26,312.15 Q506.14,317.08 512.79,323.75 Q519.44,330.42 476.23,367.24 Q433.01,404.06 343.68,461.18 Q254.35,518.3 199.92,536.85 Q145.49,555.41 96.46,563.82 Q96.46,563.82 47.44,572.23"/><text class="g3" style="--gs:3" x="320" y="338">③</text><path class="g3 aligned" style="--gs:3" d="M320,338 Q729,597 760.13,597.5 Q946.88,600.5 978,601"/><path class="g3 offset" style="--gs:3" d="M405.68,269.46 Q761.42,501.42 788.5,501.87 Q950.93,504.55 978,505"/><text class="g4" style="--gs:4" x="417" y="612">④</text><path class="g4 aligned" style="--gs:4" d="M417,612 Q533,661 539.13,667.5 Q575.88,706.5 582,713"/><path class="g4 offset" style="--gs:4" d="M502.68,543.46 Q618.68,592.46 624.8,598.96 Q661.56,637.96 667.68,644.46"/><text class="g5" style="--gs:5" x="394" y="775">⑤</text><path class="g5 aligned" style="--gs:5" d="M394,775 Q538,868 545.88,877.13 Q593.13,931.88 601,941"/><path class="g5 offset" style="--gs:5" d="M479.68,706.46 Q623.68,799.46 631.55,808.58 Q678.81,863.33 686.68,872.46"/></g>
<g class="parts"><rect data-part="1" data-literal="夂" role="button" tabindex="0" aria-label="Part 夂" x="16" y="0" width="1008" height="723"/><rect data-part="2" data-literal="⺀" data-radical="true" role="button" tabindex="0" aria-label="Part ⺀ (radical)" x="322" y="540" width="351" height="473"/></g>
</svg>
