<svg id="z20939" class="acjk" viewBox="0 0 1024 1024" xmlns="http://www.w3.org/2000/svg">
<style>

@keyframes zk {
	to {
		stroke-dashoffset:0;
	}
}
svg.acjk path[clip-path] {
	--t:0.8s;
	animation:zk var(--t) linear forwards var(--d);
	stroke-dasharray:3337;
	stroke-dashoffset:3339;
	stroke-width:128;
	stroke-linecap:round;
	fill:none;
	stroke:#000;
}
svg.acjk path[id] {fill:#ccc;}


    @keyframes guide-fade {
        0% { opacity: 0; }
        3% { opacity: 1; }
        95% { opacity: 1; }
        100% { opacity: 0; }
    }

    svg.acjk #guide-arrow {
        fill: #f77;
    }

    svg.acjk .guides {
        circle {
            fill: #0f6;
        }

        path {
            opacity: 0;
            animation: guide-fade var(--t) linear forwards var(--d);
            stroke-width: 16px;
            stroke-linecap: round;
            stroke: #f77;
            fill: none;
            marker-end: url(#guide-arrow);
        }

        circle,
        path {
            --t: 0.8s;
            opacity: 0;
            animation: guide-fade calc(var(--t) + 0.4s) ease-in-out forwards calc(var(--d) - 0.2s);
        }
    }
</style>
<path id="z20939d1" d="M201 230C218 245 234 263 253 283C262 293 273 298 286 298C293 297 299 292 304 283C308 272 307 255 301 232C294 210 260 190 197 175C185 172 176 170 172 173C167 175 165 182 167 192C168 200 181 212 201 230Z"/>
<path id="z20939d2" d="M117 621C110 626 101 628 103 639C107 670 116 688 139 717C154 737 170 715 175 700C187 653 226 570 322 408C344 370 320 368 296 398C195 538 168 586 117 621Z"/>
<path id="z20939d3" d="M440 164C414 151 396 146 388 148C375 150 374 157 384 173C408 213 414 311 399 462C383 612 291 772 215 837C138 901 161 909 231 863C302 816 404 667 428 571C451 474 458 332 460 257C461 181 459 222 462 203C465 188 453 171 440 164Z"/>
<path id="z20939d4" d="M462 203C548 175 651 159 728 150C775 143 777 212 779 237C790 391 791 557 785 735C783 775 766 791 733 792C714 793 687 789 654 787C627 785 632 797 656 809C714 837 759 863 791 888C807 900 819 906 829 904C837 901 846 889 853 868C863 834 865 793 862 745C839 402 836 215 853 184C861 168 861 157 855 148C847 137 827 123 794 107C781 100 754 104 711 115C609 139 518 154 440 164C425 167 448 209 462 203Z"/>
<path id="z20939d5" d="M623 338C685 320 718 312 720 311C725 307 726 301 723 297C718 290 708 286 693 283C671 278 651 289 626 297C593 306 593 306 577 311C554 317 529 321 502 326C481 329 479 335 494 344C524 362 555 356 579 350C608 342 608 342 623 338Z"/>
<path id="z20939d6" d="M615 420C617 391 621 364 623 338C625 311 625 311 626 297C626 288 630 265 639 228C640 221 637 213 626 207C607 195 591 189 578 188C559 186 549 195 559 211C578 241 575 279 577 311C578 337 578 337 579 350C580 376 579 429 579 429C579 441 615 432 615 420Z"/>
<path id="z20939d7" d="M579 429C547 436 515 439 483 445C467 447 465 453 478 462C496 474 512 478 528 475C572 464 636 451 719 439C723 438 730 437 734 429C736 423 728 417 716 412C686 400 634 415 615 420C591 426 591 426 579 429Z"/>
<path id="z20939d8" d="M514 545C507 542 495 539 480 536C460 531 463 545 468 556C482 586 494 626 503 677C505 691 509 704 518 714C540 741 536 716 540 688C541 677 537 668 536 658C530 613 525 584 525 570C525 561 522 548 514 545Z"/>
<path id="z20939d9" d="M683 637C693 600 704 576 716 564C730 549 729 537 716 529C705 522 691 513 675 503C664 496 653 496 642 503C615 518 573 533 514 545C505 547 517 573 525 570C549 562 579 554 616 547C649 539 652 560 648 583C645 597 641 614 637 634C634 649 680 652 683 637Z"/>
<path id="z20939d10" d="M540 688C562 688 591 681 697 669C725 665 699 647 683 637C670 629 652 631 637 634C602 642 566 651 536 658C526 660 530 688 540 688Z"/>
<defs>
	<clipPath id="z20939c1"><use href="#z20939d1"/></clipPath>
	<clipPath id="z20939c2"><use href="#z20939d2"/></clipPath>
	<clipPath id="z20939c3"><use href="#z20939d3"/></clipPath>
	<clipPath id="z20939c4"><use href="#z20939d4"/></clipPath>
	<clipPath id="z20939c5"><use href="#z20939d5"/></clipPath>
	<clipPath id="z20939c6"><use href="#z20939d6"/></clipPath>
	<clipPath id="z20939c7"><use href="#z20939d7"/></clipPath>
	<clipPath id="z20939c8"><use href="#z20939d8"/></clipPath>
	<clipPath id="z20939c9"><use href="#z20939d9"/></clipPath>
	<clipPath id="z20939c10"><use href="#z20939d10"/></clipPath>
<marker id="guide-arrow" viewBox="0 0 16 16" refX="5" refY="5" markerWidth="4" markerHeight="4" orient="auto-start-reverse"><path d="M 0 0 L 10 5 L 0 10 z" fill="inherit"/></marker></defs>
<path style="--d:1s;" pathLength="3333" clip-path="url(#z20939c1)" d="M173 177L297 288"/>
<path style="--d:2s;" pathLength="3333" clip-path="url(#z20939c2)" d="M106 635L156 666L321 382"/>
<path style="--d:3s;" pathLength="3333" clip-path="url(#z20939c3)" d="M387 157L426 190L432 239L399 581L301 767L176 884"/>
<path style="--d:4s;" pathLength="3333" clip-path="url(#z20939c4)" d="M441 169L478 179L744 128L814 167L817 796L797 859L644 794"/>
<path style="--d:5s;" pathLength="3333" clip-path="url(#z20939c5)" d="M493 332L717 300"/>
<path style="--d:6s;" pathLength="3333" clip-path="url(#z20939c6)" d="M564 198L605 233L591 431"/>
<path style="--d:7s;" pathLength="3333" clip-path="url(#z20939c7)" d="M478 451L726 424"/>
<path style="--d:8s;" pathLength="3333" clip-path="url(#z20939c8)" d="M471 542L500 567L527 715"/>
<path style="--d:9s;" pathLength="3333" clip-path="url(#z20939c9)" d="M516 556L663 529L685 563L651 643"/>
<path style="--d:10s;" pathLength="3333" clip-path="url(#z20939c10)" d="M533 671L703 658"/>
<g class="guides"><circle style="--d: 1s" class="g1" cx="173" cy="177" r="16"/><path style="--d: 1s;" class="g1" d="M258.68,108.456 L382.68,219.45600000000002"/><circle style="--d: 2s" class="g2" cx="106" cy="635" r="16"/><path style="--d: 2s;" class="g2" d="M191.68,566.456 Q241.68,589.2196056338029 262.305,563.1516056338029 Q386.055,406.7436056338028 406.68,380.67560563380283"/><circle style="--d: 3s" class="g3" cx="387" cy="157" r="16"/><path style="--d: 3s;" class="g3" d="M291,157 Q315.375,185.6423658872077 317.25,206.90715268225586 Q319.125,228.171939477304 308.8125,376.59147180192576 Q298.5,525.0110041265475 267.875,605.7303988995874 Q237.25,686.4497936726273 198.1875,737.2248968363136 Q198.1875,737.2248968363136 159.125,788"/><circle style="--d: 4s" class="g4" cx="460" cy="174" r="16"/><path style="--d: 4s;" class="g4" d="M460,270 Q602,224 619.5,243.5 Q637,263 637.75,577.5 Q638.5,892 633.5,923.5 Q628.5,955 590.25,922.5 Q590.25,922.5 552,890"/><circle style="--d: 5s" class="g5" cx="493" cy="332" r="16"/><path style="--d: 5s;" class="g5" d="M493,428 L717,396"/><circle style="--d: 6s" class="g6" cx="564" cy="198" r="16"/><path style="--d: 6s;" class="g6" d="M468,198 Q509,233 507.25,257.75 Q496.75,406.25 495,431"/><circle style="--d: 7s" class="g7" cx="478" cy="451" r="16"/><path style="--d: 7s;" class="g7" d="M478,547 L726,520"/><circle style="--d: 8s" class="g8" cx="486" cy="555" r="16"/><path style="--d: 8s;" class="g8" d="M606,555 L647,715"/><circle style="--d: 9s" class="g9" cx="516" cy="556" r="16"/><path style="--d: 9s;" class="g9" d="M516,652 Q589.5,625 592.25,629.25 Q600.5,642 596.25,652 Q587.75,672 583.5,682"/><circle style="--d: 10s" class="g10" cx="533" cy="671" r="16"/><path style="--d: 10s;" class="g10" d="M533,767 L703,754"/></g></svg>