<!--
  Stroke-order data for 凰, derived from AnimCJK (https://github.com/parsimonhi/animCJK),
  itself derived from the Arphic PL KaitiM fonts. Distributed under the Arphic Public License
  (see ARPHICPL.TXT). Regenerated by scripts/build-strokes.ts — do not edit by hand.
-->
<svg id="z20976" class="acjk" viewBox="0 0 1024 1024" xmlns="http://www.w3.org/2000/svg">
<g class="glyph"><path style="--part:1" id="z20976d1" d="M295 172C271 156 242 146 223 149C208 151 209 159 220 175C247 216 254 314 247 464C243 526 228 595 200 670C177 727 132 792 62 864C53 872 46 878 45 884C43 888 47 890 56 890C66 889 78 884 92 874C130 845 159 817 181 791C236 722 276 639 287 539C300 409 297 240 302 214C305 200 306 181 295 172Z"/><path style="--part:1" id="z20976d2" d="M302 214C310 213 319 210 330 208C435 184 557 167 695 155C703 154 710 156 715 162C720 167 720 178 718 194C661 598 724 840 906 918C917 922 930 925 943 927C957 928 966 925 970 920C975 912 976 901 975 883C971 838 972 794 974 750C974 733 975 722 975 718C975 709 972 707 968 712C965 714 961 719 958 727C944 755 932 782 920 809C914 820 909 826 901 826C890 825 871 815 846 792C785 736 756 645 748 522C744 463 748 391 763 304C775 229 789 185 812 173C824 166 824 155 809 142C793 128 771 116 748 102C736 94 728 97 716 103C685 116 650 120 615 126C486 145 380 161 295 172C281 174 288 217 302 214Z"/><path style="--part:2" id="z20976d3" d="M435 331C455 311 513 248 525 241C534 234 536 226 528 218C520 210 507 205 492 200C478 195 468 195 462 198C455 200 454 203 458 211C463 222 446 263 411 333C410 333 409 335 409 337C406 345 429 337 435 331Z"/><path style="--part:2" id="z20976d4" d="M380 343C374 340 364 337 351 336C344 335 339 335 338 338C335 341 335 348 340 357C356 389 371 433 381 489C383 505 388 519 398 530C408 542 415 544 418 535C419 528 419 527 420 523C420 515 421 516 419 499C415 475 411 458 410 448C408 435 408 435 407 428C402 397 398 377 398 367C398 357 389 347 380 343Z"/><path style="--part:2" id="z20976d5" d="M572 508C572 510 573 514 575 519C579 527 584 531 591 531C599 530 604 525 608 516C614 505 621 475 634 427C641 397 657 375 676 358C686 348 686 339 677 331C667 322 648 310 620 297C611 292 589 296 553 304C545 305 477 321 435 331C418 335 418 335 409 337C398 339 388 339 380 343C371 346 389 370 398 367C430 355 485 343 563 331C575 329 585 329 591 332C597 334 599 345 597 364C589 422 582 462 577 482C576 491 570 499 572 508Z"/><path style="--part:2" id="z20976d6" d="M410 448C424 448 507 432 541 428C553 426 558 421 553 414C547 405 537 400 523 399C503 396 464 406 407 428C401 431 403 448 410 448Z"/><path style="--part:2" id="z20976d7" d="M420 523C440 525 530 511 572 508C581 508 585 487 577 482C557 465 501 481 419 499C411 501 412 523 420 523Z"/><path style="--part:2" id="z20976d8" d="M499 621C523 616 550 611 578 608C598 605 610 602 614 599C618 594 620 589 618 586C614 579 604 573 589 569C573 564 557 566 541 571C517 578 492 584 467 589C439 594 408 596 376 599C356 600 352 607 367 617C386 629 421 633 457 628C485 623 485 623 499 621Z"/><path style="--part:2" id="z20976d9" d="M505 799C505 773 508 749 510 727C512 700 512 700 513 687C513 679 515 669 518 660C521 647 514 634 499 621C489 611 455 614 457 628C459 632 462 655 464 698C465 722 465 722 465 734C465 757 465 805 465 805C465 818 505 812 505 799Z"/><path style="--part:2" id="z20976d10" d="M510 727C530 723 552 719 576 716C596 712 607 709 610 707C614 702 616 697 614 694C610 687 600 681 585 677C565 671 542 680 513 687C480 694 480 694 464 698C437 703 409 704 380 707C360 708 356 715 371 725C392 739 426 740 465 734C495 729 495 729 510 727Z"/><path style="--part:2" id="z20976d11" d="M465 805C406 813 343 820 275 828C262 829 260 834 270 845C278 854 288 860 299 863C311 866 322 866 332 864C402 845 522 835 692 835C704 835 712 832 715 827C718 820 714 812 705 805C671 778 638 773 605 781C577 787 543 793 505 799C478 803 478 803 465 805Z"/></g>
<defs><clipPath id="z20976c1"><use href="#z20976d1"/></clipPath>
	<clipPath id="z20976c2"><use href="#z20976d2"/></clipPath>
	<clipPath id="z20976c3"><use href="#z20976d3"/></clipPath>
	<clipPath id="z20976c4"><use href="#z20976d4"/></clipPath>
	<clipPath id="z20976c5"><use href="#z20976d5"/></clipPath>
	<clipPath id="z20976c6"><use href="#z20976d6"/></clipPath>
	<clipPath id="z20976c7"><use href="#z20976d7"/></clipPath>
	<clipPath id="z20976c8"><use href="#z20976d8"/></clipPath>
	<clipPath id="z20976c9"><use href="#z20976d9"/></clipPath>
	<clipPath id="z20976c10"><use href="#z20976d10"/></clipPath>
	<clipPath id="z20976c11"><use href="#z20976d11"/></clipPath><marker id="guide-arrow" viewBox="0 0 16 16" refX="5" refY="5" markerWidth="4" markerHeight="4" orient="auto-start-reverse"><path d="M 0 0 L 10 5 L 0 10 z" fill="inherit"/></marker></defs>
<g class="strokes"><path style="--part:1" pathLength="3333" clip-path="url(#z20976c1)" d="M218 157L262 189L271 225L257 568L192 738L50 880"/><path style="--part:1" pathLength="3333" clip-path="url(#z20976c2)" d="M302 174L338 188L699 131L746 141L769 176L742 244L721 471L759 711L825 818L916 875L945 869L969 715"/><path style="--part:2" pathLength="3333" clip-path="url(#z20976c3)" d="M470 207L492 236L418 331"/><path style="--part:2" pathLength="3333" clip-path="url(#z20976c4)" d="M344 344L376 379L407 535"/><path style="--part:2" pathLength="3333" clip-path="url(#z20976c5)" d="M389 346L590 313L621 325L640 346L592 526"/><path style="--part:2" pathLength="3333" clip-path="url(#z20976c6)" d="M412 440L549 417"/><path style="--part:2" pathLength="3333" clip-path="url(#z20976c7)" d="M426 515L572 492"/><path style="--part:2" pathLength="3333" clip-path="url(#z20976c8)" d="M370 609L611 588"/><path style="--part:2" pathLength="3333" clip-path="url(#z20976c9)" d="M465 636L489 663L479 802"/><path style="--part:2" pathLength="3333" clip-path="url(#z20976c10)" d="M372 717L606 698"/><path style="--part:2" pathLength="3333" clip-path="url(#z20976c11)" d="M272 835L634 806L711 819"/></g>
<g class="guides"><text class="g1" style="--gs:1" x="218" y="157">①</text><path class="g1 aligned" style="--gs:1" d="M218,157 Q262,189 266.5,207 Q271,225 264,396.5 Q257,568 224.5,653 Q192,738 121,809 Q121,809 50,880"/><path class="g1 offset" style="--gs:1" d="M122,157 Q146.89,184.75 149.43,200.36 Q151.98,215.97 148.02,364.7 Q144.06,513.43 125.68,587.14 Q107.29,660.85 67.14,722.43 Q67.14,722.43 26.98,784"/><text class="g2" style="--gs:2" x="302" y="174">②</text><path class="g2 aligned" style="--gs:2" d="M320,181 Q699,131 722.5,136 Q746,141 757.5,158.5 Q769,176 755.5,210 Q742,244 731.5,357.5 Q721,471 740,591 Q759,711 792,764.5 Q825,818 870.5,846.5 Q916,875 930.5,872 Q945,869 957,792 Q957,792 969,715"/><path class="g2 offset" style="--gs:2" d="M320,277 Q628.92,239.9 648.08,243.61 Q667.23,247.32 676.61,260.31 Q685.98,273.29 674.98,298.52 Q663.97,323.74 655.41,407.95 Q646.86,492.16 662.34,581.19 Q677.83,670.23 704.73,709.92 Q731.63,749.61 768.71,770.76 Q805.8,791.9 817.62,789.68 Q829.44,787.45 839.22,730.32 Q839.22,730.32 849,673.19"/><text class="g3" style="--gs:3" x="470" y="207">③</text><path class="g3 aligned" style="--gs:3" d="M481,222 L418,331"/><path class="g3 offset" style="--gs:3" d="M601,222 L538,331"/><text class="g4" style="--gs:4" x="344" y="344">④</text><path class="g4 aligned" style="--gs:4" d="M344,344 Q376,379 379.88,398.5 Q403.13,515.5 407,535"/><path class="g4 offset" style="--gs:4" d="M429.68,275.46 Q461.68,310.46 465.56,329.96 Q488.81,446.96 492.68,466.46"/><text class="g5" style="--gs:5" x="389" y="346">⑤</text><path class="g5 aligned" style="--gs:5" d="M389,346 Q590,313 605.5,319 Q621,325 630.5,335.5 Q640,346 616,436 Q616,436 592,526"/><path class="g5 offset" style="--gs:5" d="M389,442 Q493.9,409 501.99,415 Q510.08,421 515.04,431.5 Q520,442 507.47,484 Q507.47,484 494.95,526"/><text class="g6" style="--gs:6" x="412" y="440">⑥</text><path class="g6 aligned" style="--gs:6" d="M412,440 L549,417"/><path class="g6 offset" style="--gs:6" d="M412,536 L549,513"/><text class="g7" style="--gs:7" x="426" y="515">⑦</text><path class="g7 aligned" style="--gs:7" d="M426,515 L572,492"/><path class="g7 offset" style="--gs:7" d="M426,611 L572,588"/><text class="g8" style="--gs:8" x="370" y="609">⑧</text><path class="g8 aligned" style="--gs:8" d="M370,609 L611,588"/><path class="g8 offset" style="--gs:8" d="M370,705 L611,684"/><text class="g9" style="--gs:9" x="465" y="636">⑨</text><path class="g9 aligned" style="--gs:9" d="M477,650 L479,802"/><path class="g9 offset" style="--gs:9" d="M597,650 L599,802"/><text class="g10" style="--gs:10" x="372" y="717">⑩</text><path class="g10 aligned" style="--gs:10" d="M372,717 L606,698"/><path class="g10 offset" style="--gs:10" d="M372,813 L606,794"/><text class="g11" style="--gs:11" x="272" y="835">⑪</text><path class="g11 aligned" style="--gs:11" d="M272,835 Q634,806 643.63,807.63 Q701.38,817.38 711,819"/><path class="g11 offset" style="--gs:11" d="M272,931 Q634,902 643.63,903.63 Q701.38,913.38 711,915"/></g>
<g class="parts"><rect data-part="1" data-literal="𠘨" data-radical="true" role="button" tabindex="0" aria-label="Part 𠘨 (radical)" x="0" y="59" width="1024" height="893"/><rect data-part="2" data-literal="皇" role="button" tabindex="0" aria-label="Part 皇" x="200" y="135" width="583" height="772"/></g>
</svg>
