<svg id="z20985" class="acjk" viewBox="0 0 1024 1024" xmlns="http://www.w3.org/2000/svg">
<style>

@keyframes zk {
	to {
		stroke-dashoffset:0;
	}
}
svg.acjk path[clip-path] {
	--t:0.8s;
	animation:zk var(--t) linear forwards var(--d);
	stroke-dasharray:3337;
	stroke-dashoffset:3339;
	stroke-width:128;
	stroke-linecap:round;
	fill:none;
	stroke:#000;
}
svg.acjk path[id] {fill:#ccc;}


    @keyframes guide-fade {
        0% { opacity: 0; }
        3% { opacity: 1; }
        95% { opacity: 1; }
        100% { opacity: 0; }
    }

    svg.acjk #guide-arrow {
        fill: #f77;
    }

    svg.acjk .guides {
        circle {
            fill: #0f6;
        }

        path {
            opacity: 0;
            animation: guide-fade var(--t) linear forwards var(--d);
            stroke-width: 16px;
            stroke-linecap: round;
            stroke: #f77;
            fill: none;
            marker-end: url(#guide-arrow);
        }

        circle,
        path {
            --t: 0.8s;
            opacity: 0;
            animation: guide-fade calc(var(--t) + 0.4s) ease-in-out forwards calc(var(--d) - 0.2s);
        }
    }
</style>
<path id="z20985d1" d="M423 574C414 573 408 565 402 554C391 538 385 524 387 513C391 487 392 419 391 310C390 291 387 280 382 278C364 267 326 283 266 307C257 310 246 313 236 313C222 313 200 280 214 277C293 259 344 241 371 218C380 209 391 207 407 214C420 219 435 226 451 235C464 241 465 252 457 267C447 282 446 304 446 332C442 431 443 484 452 496C456 500 463 502 479 499C503 492 529 489 554 486C584 485 584 485 599 485C610 484 625 502 622 518C621 520 615 521 601 521C526 517 474 531 446 561C437 570 430 574 423 574Z"/>
<path id="z20985d2" d="M630 225C618 212 604 200 590 192C581 186 572 184 565 188C557 190 555 199 559 211C566 237 573 263 573 290C573 316 566 382 554 486C551 501 597 500 599 485C617 357 632 283 643 264C650 252 638 236 630 225Z"/>
<path id="z20985d3" d="M630 225C656 222 680 218 701 214C723 208 756 198 777 191C793 185 808 185 820 188C843 193 807 261 787 249C782 245 776 244 771 245C685 257 643 264 643 264C629 266 617 228 630 225Z"/>
<path id="z20985d4" d="M225 798C215 800 205 798 202 796C193 790 188 783 183 776C175 764 175 756 190 747C210 734 201 631 199 575C192 398 170 321 147 295C136 284 127 283 138 274C143 269 150 268 161 269C180 269 199 272 214 277C227 282 236 299 236 313C235 321 234 350 235 364C237 459 257 699 260 724C261 735 266 742 278 741C497 714 593 699 647 687C676 680 701 682 716 691C730 700 739 711 745 716C755 724 729 740 716 740C555 751 416 763 341 775C316 778 292 780 267 788C255 791 235 794 225 798Z"/>
<path id="z20985d5" d="M738 822C721 788 720 764 716 740C714 728 739 727 745 716C756 703 763 664 767 638C788 527 800 414 802 300C802 283 797 258 787 249C773 231 799 179 820 188C846 197 883 219 902 240C910 249 907 261 895 275C877 295 864 321 862 356C855 426 850 491 845 553C836 650 823 735 789 808C767 852 752 849 738 822Z"/>
<defs>
	<clipPath id="z20985c1"><use href="#z20985d1"/></clipPath>
	<clipPath id="z20985c2"><use href="#z20985d2"/></clipPath>
	<clipPath id="z20985c3"><use href="#z20985d3"/></clipPath>
	<clipPath id="z20985c4"><use href="#z20985d4"/></clipPath>
	<clipPath id="z20985c5"><use href="#z20985d5"/></clipPath>
<marker id="guide-arrow" viewBox="0 0 16 16" refX="5" refY="5" markerWidth="4" markerHeight="4" orient="auto-start-reverse"><path d="M 0 0 L 10 5 L 0 10 z" fill="inherit"/></marker></defs>
<path style="--d:1s;" pathLength="3333" clip-path="url(#z20985c1)" d="M217 285L409 252L425 269L426 523L442 537L523 507L617 509"/>
<path style="--d:2s;" pathLength="3333" clip-path="url(#z20985c2)" d="M564 190L608 260L572 495"/>
<path style="--d:3s;" pathLength="3333" clip-path="url(#z20985c3)" d="M629 237L824 202"/>
<path style="--d:4s;" pathLength="3333" clip-path="url(#z20985c4)" d="M138 279L201 321L233 766L742 715"/>
<path style="--d:5s;" pathLength="3333" clip-path="url(#z20985c5)" d="M813 190L853 267L752 837"/>
<g class="guides"><circle style="--d: 1s" class="g1" cx="217" cy="285" r="16"/><path style="--d: 1s;" class="g1" d="M294.11199999999997,216.45600000000002 Q449.09824000000003,183.45600000000002 455.55600000000004,191.95600000000002 Q462.01376000000005,200.45600000000002 462.41737,327.456 Q462.82097999999996,454.456 469.27873999999997,461.456 Q475.7365,468.456 508.42891,453.456 Q541.12132,438.456 579.06066,439.456 Q579.06066,439.456 617,440.456"/><circle style="--d: 2s" class="g2" cx="564" cy="190" r="16"/><path style="--d: 2s;" class="g2" d="M468,190 Q512,260 507.5,289.375 Q480.5,465.625 476,495"/><circle style="--d: 3s" class="g3" cx="629" cy="237" r="16"/><path style="--d: 3s;" class="g3" d="M629,333 L824,298"/><circle style="--d: 4s" class="g4" cx="138" cy="279" r="16"/><path style="--d: 4s;" class="g4" d="M223.68,210.45600000000002 Q277.743178807947,250.08813141683783 284.6083443708609,355.0660985626284 Q305.20384105960267,670 414.402880794702,657.96881724846 Q632.8009602649007,633.9064517453799 742,621.8752689938399"/><circle style="--d: 5s" class="g5" cx="813" cy="190" r="16"/><path style="--d: 5s;" class="g5" d="M933,190 Q973,267 960.375,338.25 Q884.625,765.75 872,837"/></g></svg>