<!--
  Stroke-order data for 出, derived from AnimCJK (https://github.com/parsimonhi/animCJK),
  itself derived from the Arphic PL KaitiM fonts. Distributed under the Arphic Public License
  (see ARPHICPL.TXT). Regenerated by scripts/build-strokes.ts — do not edit by hand.
-->
<svg id="z20986" class="acjk" viewBox="0 0 1024 1024" xmlns="http://www.w3.org/2000/svg">
<g class="glyph"><path id="z20986d1" d="M531 767C535 663 539 562 542 465C543 439 543 439 543 426C545 316 552 214 572 122C574 111 567 98 550 88C518 69 490 61 470 58C440 52 426 75 439 95C464 133 473 165 479 193C484 216 485 279 485 436C485 464 485 464 485 478C485 572 481 672 475 777C475 796 531 786 531 767Z"/><path id="z20986d2" d="M542 465C585 455 659 440 709 442C723 442 733 400 719 402C657 408 598 416 543 426C504 433 504 433 485 436C422 446 364 460 310 475C294 479 289 470 292 452C303 381 303 339 297 328C281 304 250 285 230 289C221 290 219 299 226 315C240 348 244 384 240 421C235 453 227 478 213 493C199 506 193 517 200 528C207 538 218 547 231 557C241 563 251 564 258 557C278 535 353 508 485 478C523 469 523 469 542 465Z"/><path id="z20986d3" d="M709 442C704 461 710 482 721 503C728 515 735 519 746 511C768 493 776 450 792 386C801 345 818 325 823 319C830 308 830 294 823 284C809 267 786 251 766 238C748 226 720 234 729 253C743 285 730 357 719 402C712 429 712 429 709 442Z"/><path id="z20986d4" d="M235 891C246 901 257 907 264 907C268 907 274 905 279 900C300 874 398 841 509 816C606 794 675 783 755 773C766 771 762 739 751 739C688 741 615 751 531 767C494 774 494 774 475 777C398 790 345 805 321 812C300 817 309 792 310 781C312 760 315 728 319 685C321 657 302 634 268 620C263 617 257 617 254 617C224 612 235 634 243 648C269 695 268 752 237 814C233 821 227 827 221 834C210 843 205 850 208 859C210 866 218 877 235 891Z"/><path id="z20986d5" d="M755 773C757 795 761 873 776 897C788 919 798 923 807 910C815 895 819 870 820 834C820 739 822 682 824 663C825 649 823 639 819 635C809 625 786 618 754 606C725 595 724 620 730 637C739 664 746 698 751 739C754 762 754 762 755 773Z"/></g>
<defs><clipPath id="z20986c1"><use href="#z20986d1"/></clipPath>
	<clipPath id="z20986c2"><use href="#z20986d2"/></clipPath>
	<clipPath id="z20986c3"><use href="#z20986d3"/></clipPath>
	<clipPath id="z20986c4"><use href="#z20986d4"/></clipPath>
	<clipPath id="z20986c5"><use href="#z20986d5"/></clipPath><marker id="guide-arrow" viewBox="0 0 16 16" refX="5" refY="5" markerWidth="4" markerHeight="4" orient="auto-start-reverse"><path d="M 0 0 L 10 5 L 0 10 z" fill="inherit"/></marker></defs>
<g class="strokes"><path pathLength="3333" clip-path="url(#z20986c1)" d="M440 71L522 140L494 785"/><path pathLength="3333" clip-path="url(#z20986c2)" d="M229 293L268 344L248 501L277 520L434 467L722 414"/><path pathLength="3333" clip-path="url(#z20986c3)" d="M736 239L781 299L737 510"/><path pathLength="3333" clip-path="url(#z20986c4)" d="M243 626L286 671L259 833L286 860L424 811L756 751"/><path pathLength="3333" clip-path="url(#z20986c5)" d="M735 611L782 662L794 910"/></g>
<g class="guides"><text class="g1" style="--gs:1" x="440" y="71">①</text><path class="g1 aligned" style="--gs:1" d="M440,71 Q522,140 518.5,220.63 Q497.5,704.38 494,785"/><path class="g1 offset" style="--gs:1" d="M344,71 Q426,140 422.5,220.63 Q401.5,704.38 398,785"/><text class="g2" style="--gs:2" x="229" y="293">②</text><path class="g2 aligned" style="--gs:2" d="M229,293 Q268,344 258,422.5 Q248,501 262.5,510.5 Q277,520 355.5,493.5 Q434,467 578,440.5 Q578,440.5 722,414"/><path class="g2 offset" style="--gs:2" d="M314.68,224.46 Q346.9,269.29 338.64,338.29 Q330.38,407.3 342.36,415.65 Q354.34,424 419.2,400.71 Q484.05,377.41 603.03,354.12 Q603.03,354.12 722,330.82"/><text class="g3" style="--gs:3" x="736" y="239">③</text><path class="g3 aligned" style="--gs:3" d="M736,239 Q781,299 775.5,325.38 Q742.5,483.63 737,510"/><path class="g3 offset" style="--gs:3" d="M640,239 Q685,299 679.5,325.38 Q646.5,483.63 641,510"/><text class="g4" style="--gs:4" x="243" y="626">④</text><path class="g4 aligned" style="--gs:4" d="M243,626 Q286,671 272.5,752 Q259,833 272.5,846.5 Q286,860 355,835.5 Q424,811 590,781 Q590,781 756,751"/><path class="g4 offset" style="--gs:4" d="M328.68,557.46 Q364.5,597.18 353.25,668.67 Q342.01,740.17 353.25,752.08 Q364.5,764 421.97,742.37 Q479.45,720.75 617.72,694.27 Q617.72,694.27 756,667.79"/><text class="g5" style="--gs:5" x="735" y="611">⑤</text><path class="g5 aligned" style="--gs:5" d="M735,611 Q782,662 783.5,693 Q792.5,879 794,910"/><path class="g5 offset" style="--gs:5" d="M820.68,542.46 Q867.68,593.46 869.18,624.46 Q878.18,810.46 879.68,841.46"/></g>
</svg>
