<!--
  Stroke-order data for 刮, derived from AnimCJK (https://github.com/parsimonhi/animCJK),
  itself derived from the Arphic PL KaitiM fonts. Distributed under the Arphic Public License
  (see ARPHICPL.TXT). Regenerated by scripts/build-strokes.ts — do not edit by hand.
-->
<svg id="z21038" class="acjk" viewBox="0 0 1024 1024" xmlns="http://www.w3.org/2000/svg">
<g class="glyph"><path style="--part:1" id="z21038d1" d="M354 237C384 227 464 199 492 191C515 184 522 170 506 157C492 145 466 135 434 121C422 116 412 111 403 114C396 115 394 122 394 130C394 158 323 200 189 267C182 270 184 279 190 280C201 281 245 272 317 249C342 241 342 241 354 237Z"/><path style="--part:1" id="z21038d2" d="M379 401C431 390 490 380 555 374C566 372 572 369 573 364C573 355 568 347 556 341C537 331 520 330 505 334C460 343 421 353 387 360C350 367 350 367 332 371C224 392 136 404 70 412C61 412 54 415 53 421C50 428 55 436 66 444C92 463 119 469 149 460C219 437 279 421 330 411C363 404 363 404 379 401Z"/><path style="--part:1" id="z21038d3" d="M362 532C368 480 372 436 379 401C384 374 384 374 387 360C404 268 415 274 354 237C343 230 312 237 317 249C328 281 334 315 332 371C331 398 331 398 330 411C328 445 323 489 318 543C316 558 359 547 362 532Z"/><path style="--part:1" id="z21038d4" d="M236 557C227 553 213 551 195 548C186 546 181 546 179 550C174 555 176 561 182 573C203 615 220 671 233 740C236 760 243 777 255 792C282 825 283 765 280 737C278 724 275 711 273 699C262 642 255 604 253 586C251 575 246 561 236 557Z"/><path style="--part:1" id="z21038d5" d="M470 665C482 622 497 595 511 582C528 564 528 549 512 539C498 530 481 519 462 506C449 497 435 496 421 505C402 515 383 526 362 532C333 539 333 539 318 543C294 548 266 552 236 557C225 559 242 590 253 586C255 583 297 575 380 558C423 548 433 569 426 601C421 619 417 640 413 662C409 681 466 684 470 665Z"/><path style="--part:1" id="z21038d6" d="M280 737C294 736 428 713 488 703C522 697 487 674 470 665C454 655 432 658 413 662C365 675 316 690 273 699C260 702 267 740 280 737Z"/><path style="--part:2" id="z21038d7" d="M599 301C620 353 626 441 611 565C608 587 613 612 635 639C640 646 649 646 655 638C672 612 675 584 674 554C668 458 668 383 676 332C678 315 675 304 661 296C650 289 638 282 626 277C617 273 609 274 603 278C596 282 594 290 599 301Z"/><path style="--part:2" id="z21038d8" d="M793 175C794 199 796 402 792 784C791 838 764 826 708 804C663 786 665 796 696 826C738 866 757 892 774 919C788 941 795 957 807 959C817 960 829 947 841 922C856 888 865 843 863 788C851 473 839 240 872 145C880 120 869 104 828 86C802 74 783 69 769 74C756 78 754 90 767 107C782 127 790 149 793 175Z"/></g>
<defs><clipPath id="z21038c1"><use href="#z21038d1"/></clipPath>
	<clipPath id="z21038c2"><use href="#z21038d2"/></clipPath>
	<clipPath id="z21038c3"><use href="#z21038d3"/></clipPath>
	<clipPath id="z21038c4"><use href="#z21038d4"/></clipPath>
	<clipPath id="z21038c5"><use href="#z21038d5"/></clipPath>
	<clipPath id="z21038c6"><use href="#z21038d6"/></clipPath>
	<clipPath id="z21038c7"><use href="#z21038d7"/></clipPath>
	<clipPath id="z21038c8"><use href="#z21038d8"/></clipPath><marker id="guide-arrow" viewBox="0 0 16 16" refX="5" refY="5" markerWidth="4" markerHeight="4" orient="auto-start-reverse"><path d="M 0 0 L 10 5 L 0 10 z" fill="inherit"/></marker></defs>
<g class="strokes"><path style="--part:1" pathLength="3333" clip-path="url(#z21038c1)" d="M404 117L451 175L192 271"/><path style="--part:1" pathLength="3333" clip-path="url(#z21038c2)" d="M56 423L122 435L569 357"/><path style="--part:1" pathLength="3333" clip-path="url(#z21038c3)" d="M324 246L364 288L333 546"/><path style="--part:1" pathLength="3333" clip-path="url(#z21038c4)" d="M184 553L221 585L269 796"/><path style="--part:1" pathLength="3333" clip-path="url(#z21038c5)" d="M240 566L441 534L475 563L439 675"/><path style="--part:1" pathLength="3333" clip-path="url(#z21038c6)" d="M274 729L432 685L494 689"/><path style="--part:2" pathLength="3333" clip-path="url(#z21038c7)" d="M604 283L644 334L638 638"/><path style="--part:2" pathLength="3333" clip-path="url(#z21038c8)" d="M764 83L832 146L826 812L790 905L680 802"/></g>
<g class="guides"><text class="g1" style="--gs:1" x="404" y="117">①</text><path class="g1 aligned" style="--gs:1" d="M404,117 Q451,175 418.63,187 Q224.38,259 192,271"/><path class="g1 offset" style="--gs:1" d="M308,117 Q337.58,146 317.2,152 Q194.95,188 174.58,194"/><text class="g2" style="--gs:2" x="56" y="423">②</text><path class="g2 aligned" style="--gs:2" d="M56,423 Q122,435 177.88,425.25 Q513.13,366.75 569,357"/><path class="g2 offset" style="--gs:2" d="M56,519 Q122,531 177.88,521.25 Q513.13,462.75 569,453"/><text class="g3" style="--gs:3" x="324" y="246">③</text><path class="g3 aligned" style="--gs:3" d="M324,246 Q364,288 360.13,320.25 Q336.88,513.75 333,546"/><path class="g3 offset" style="--gs:3" d="M228,246 Q268,288 264.13,320.25 Q240.88,513.75 237,546"/><text class="g4" style="--gs:4" x="184" y="553">④</text><path class="g4 aligned" style="--gs:4" d="M184,553 Q221,585 227,611.38 Q263,769.63 269,796"/><path class="g4 offset" style="--gs:4" d="M269.68,484.46 Q306.68,516.46 312.68,542.83 Q348.68,701.08 354.68,727.46"/><text class="g5" style="--gs:5" x="240" y="566">⑤</text><path class="g5 aligned" style="--gs:5" d="M240,566 Q441,534 449.5,541.25 Q475,563 466,591 Q448,647 439,675"/><path class="g5 offset" style="--gs:5" d="M240,662 Q340.5,630 344.75,637.25 Q357.5,659 353,669.38 Q344,690.13 339.5,700.5"/><text class="g6" style="--gs:6" x="274" y="729">⑥</text><path class="g6 aligned" style="--gs:6" d="M274,729 Q432,685 439.75,685.5 Q486.25,688.5 494,689"/><path class="g6 offset" style="--gs:6" d="M274,825 Q432,781 439.75,781.5 Q486.25,784.5 494,785"/><text class="g7" style="--gs:7" x="604" y="283">⑦</text><path class="g7 aligned" style="--gs:7" d="M604,283 Q644,334 643.25,372 Q638.75,600 638,638"/><path class="g7 offset" style="--gs:7" d="M508,283 Q548,334 547.25,372 Q542.75,600 542,638"/><text class="g8" style="--gs:8" x="764" y="83">⑧</text><path class="g8 aligned" style="--gs:8" d="M764,83 Q832,146 829,479 Q826,812 808,858.5 Q790,905 735,853.5 Q735,853.5 680,802"/><path class="g8 offset" style="--gs:8" d="M668,83 Q702,138.64 700.5,432.75 Q699,726.86 690,767.93 Q681,809 653.5,763.51 Q653.5,763.51 626,718.03"/></g>
<g class="parts"><rect data-part="1" data-literal="舌" role="button" tabindex="0" aria-label="Part 舌" x="0" y="45" width="641" height="823"/><rect data-part="2" data-literal="刂" data-radical="true" role="button" tabindex="0" aria-label="Part 刂 (radical)" x="532" y="11" width="372" height="966"/></g>
</svg>
