<!--
  Stroke-order data for 助, derived from AnimCJK (https://github.com/parsimonhi/animCJK),
  itself derived from the Arphic PL KaitiM fonts. Distributed under the Arphic Public License
  (see ARPHICPL.TXT). Regenerated by scripts/build-strokes.ts — do not edit by hand.
-->
<svg id="z21161" class="acjk" viewBox="0 0 1024 1024" xmlns="http://www.w3.org/2000/svg">
<g class="glyph"><path style="--part:1" id="z21161d1" d="M240 242Q221 224 201 216Q189 213 180 217Q171 221 175 232Q196 278 200 365Q201 452 202 701C202 717 247 705 247 689Q247 616 248 550C248 535 248 535 248 528Q248 471 249 419C249 401 249 401 249 392Q249 275 252 273C254 262 249 249 240 242Z"/><path style="--part:1" id="z21161d2" d="M434 637Q440 297 465 266Q478 248 466 233Q456 223 409 196Q396 187 330 215Q278 233 240 242C229 244 243 280 252 273Q267 258 371 239Q384 236 389 241Q398 257 384 651C384 668 434 654 434 637Z"/><path style="--part:1" id="z21161d3" d="M249 419Q250 419 255 419Q309 409 349 404Q371 400 361 387Q351 374 326 371Q289 368 249 392C241 397 240 419 249 419Z"/><path style="--part:1" id="z21161d4" d="M248 550Q252 551 262 551Q314 541 353 536Q375 530 365 519Q355 506 330 503Q296 500 248 528C242 532 241 549 248 550Z"/><path style="--part:1" id="z21161d5" d="M202 701Q186 704 169 709Q147 716 112 714Q99 715 96 726Q93 739 103 749Q127 767 162 788Q172 792 186 783Q231 752 280 732Q356 702 430 672Q458 660 480 645Q493 638 495 628Q489 621 476 624Q454 630 434 637C401 646 401 646 384 651Q317 669 247 689C217 697 217 697 202 701Z"/><path style="--part:2" id="z21161d6" d="M639 398Q552 414 503 414Q482 411 482 423Q481 433 504 448Q532 467 558 458Q592 448 629 438C670 429 670 429 691 424Q746 411 800 403Q816 402 820 410Q827 426 823 471Q807 631 775 716Q759 770 740 786Q727 799 700 791Q669 784 640 775Q616 768 633 790Q678 838 701 875Q711 896 731 890Q750 887 775 861Q844 791 877 516Q884 455 908 419Q926 397 916 386Q900 367 862 350Q835 337 808 350Q762 368 700 384C659 393 659 393 639 398Z"/><path style="--part:2" id="z21161d7" d="M629 438Q557 690 442 814Q415 841 381 873Q368 880 365 885Q361 892 378 892Q408 895 508 804Q629 690 691 424C697 397 697 397 700 384Q730 218 757 158Q764 148 756 137Q738 118 702 97Q680 84 662 88Q640 92 654 114Q679 148 676 182Q660 303 639 398C632 425 632 425 629 438Z"/></g>
<defs><clipPath id="z21161c1"><use href="#z21161d1"/></clipPath>
	<clipPath id="z21161c2"><use href="#z21161d2"/></clipPath>
	<clipPath id="z21161c3"><use href="#z21161d3"/></clipPath>
	<clipPath id="z21161c4"><use href="#z21161d4"/></clipPath>
	<clipPath id="z21161c5"><use href="#z21161d5"/></clipPath>
	<clipPath id="z21161c6"><use href="#z21161d6"/></clipPath>
	<clipPath id="z21161c7"><use href="#z21161d7"/></clipPath><marker id="guide-arrow" viewBox="0 0 16 16" refX="5" refY="5" markerWidth="4" markerHeight="4" orient="auto-start-reverse"><path d="M 0 0 L 10 5 L 0 10 z" fill="inherit"/></marker></defs>
<g class="strokes"><path style="--part:1" pathLength="3333" clip-path="url(#z21161c1)" d="M180 224L221 278L216 696"/><path style="--part:1" pathLength="3333" clip-path="url(#z21161c2)" d="M252 264L391 216L431 251L398 646"/><path style="--part:1" pathLength="3333" clip-path="url(#z21161c3)" d="M254 411L359 389"/><path style="--part:1" pathLength="3333" clip-path="url(#z21161c4)" d="M256 543L363 523"/><path style="--part:1" pathLength="3333" clip-path="url(#z21161c5)" d="M101 728L169 749L487 630"/><path style="--part:2" pathLength="3333" clip-path="url(#z21161c6)" d="M486 421L544 436L820 374L870 405L816 692L774 801L718 842L635 779"/><path style="--part:2" pathLength="3333" clip-path="url(#z21161c7)" d="M657 99L718 157L621 558L528 744L371 886"/></g>
<g class="guides"><text class="g1" style="--gs:1" x="180" y="224">①</text><path class="g1 aligned" style="--gs:1" d="M180,224 Q221,278 220.38,330.25 Q216.63,643.75 216,696"/><path class="g1 offset" style="--gs:1" d="M84,224 Q125,278 124.38,330.25 Q120.63,643.75 120,696"/><text class="g2" style="--gs:2" x="252" y="264">②</text><path class="g2 aligned" style="--gs:2" d="M252,264 Q391,216 401,224.75 Q431,251 422.75,349.75 Q406.25,547.25 398,646"/><path class="g2 offset" style="--gs:2" d="M252,360 Q321.5,312 326.5,320.75 Q341.5,347 337.38,421.75 Q329.13,571.25 325,646"/><text class="g3" style="--gs:3" x="254" y="411">③</text><path class="g3 aligned" style="--gs:3" d="M254,411 L359,389"/><path class="g3 offset" style="--gs:3" d="M254,507 L359,485"/><text class="g4" style="--gs:4" x="256" y="543">④</text><path class="g4 aligned" style="--gs:4" d="M256,543 L363,523"/><path class="g4 offset" style="--gs:4" d="M256,639 L363,619"/><text class="g5" style="--gs:5" x="101" y="728">⑤</text><path class="g5 aligned" style="--gs:5" d="M101,728 Q169,749 208.75,734.13 Q447.25,644.88 487,630"/><path class="g5 offset" style="--gs:5" d="M101,824 Q169,845 208.75,830.13 Q447.25,740.88 487,726"/><text class="g6" style="--gs:6" x="486" y="421">⑥</text><path class="g6 aligned" style="--gs:6" d="M486,421 Q544,436 682,405 Q820,374 845,389.5 Q870,405 843,548.5 Q816,692 795,746.5 Q774,801 746,821.5 Q718,842 676.5,810.5 Q676.5,810.5 635,779"/><path class="g6 offset" style="--gs:6" d="M486,517 Q529.5,504.58 633,487.29 Q736.5,470 755.25,485.5 Q774,501 753.75,574.17 Q733.5,647.35 717.75,677.74 Q702,708.13 681,719.57 Q660,731 628.88,713.43 Q628.88,713.43 597.75,695.87"/><text class="g7" style="--gs:7" x="657" y="99">⑦</text><path class="g7 aligned" style="--gs:7" d="M657,99 Q718,157 669.5,357.5 Q621,558 574.5,651 Q528,744 449.5,815 Q449.5,815 371,886"/><path class="g7 offset" style="--gs:7" d="M561,99 Q605.12,149.93 570.04,325.97 Q534.96,502.01 501.32,583.67 Q467.69,665.32 410.91,727.66 Q410.91,727.66 354.12,790"/></g>
<g class="parts"><rect data-part="2" data-literal="力" data-radical="true" role="button" tabindex="0" aria-label="Part 力 (radical)" x="299" y="27" width="643" height="931"/><rect data-part="1" data-literal="且" role="button" tabindex="0" aria-label="Part 且" x="29" y="144" width="530" height="677"/></g>
</svg>
