<svg id="z21187" class="acjk" viewBox="0 0 1024 1024" xmlns="http://www.w3.org/2000/svg">
<style>

@keyframes zk {
	to {
		stroke-dashoffset:0;
	}
}
svg.acjk path[clip-path] {
	--t:0.8s;
	animation:zk var(--t) linear forwards var(--d);
	stroke-dasharray:3337;
	stroke-dashoffset:3339;
	stroke-width:128;
	stroke-linecap:round;
	fill:none;
	stroke:#000;
}
svg.acjk path[id] {fill:#ccc;}


    @keyframes guide-fade {
        0% { opacity: 0; }
        3% { opacity: 1; }
        95% { opacity: 1; }
        100% { opacity: 0; }
    }

    svg.acjk #guide-arrow {
        fill: #f77;
    }

    svg.acjk .guides {
        circle {
            fill: #0f6;
        }

        path {
            opacity: 0;
            animation: guide-fade var(--t) linear forwards var(--d);
            stroke-width: 16px;
            stroke-linecap: round;
            stroke: #f77;
            fill: none;
            marker-end: url(#guide-arrow);
        }

        circle,
        path {
            --t: 0.8s;
            opacity: 0;
            animation: guide-fade calc(var(--t) + 0.4s) ease-in-out forwards calc(var(--d) - 0.2s);
        }
    }
</style>
<path id="z21187d1" d="M398 254Q527 220 532 215Q541 208 536 199Q529 189 500 182Q470 178 405 205C370 216 370 216 352 221Q300 234 239 244Q205 251 230 266Q272 284 336 269Q342 268 350 266C382 258 382 258 398 254Z"/>
<path id="z21187d2" d="M382 355Q389 303 398 254C403 221 403 221 405 205Q417 121 433 85Q437 75 419 60Q388 39 365 34Q350 30 342 37Q335 44 341 58Q357 86 356 103Q356 160 352 221C351 251 351 251 350 266Q346 312 341 364C341 378 379 369 382 355Z"/>
<path id="z21187d3" d="M182 402Q169 381 158 375Q139 363 140 388Q146 418 118 458Q76 497 115 553Q131 577 148 549Q161 527 168 494Q177 455 185 429C188 421 187 409 182 402Z"/>
<path id="z21187d4" d="M185 429Q204 436 248 422Q335 389 483 362Q492 361 498 361Q511 365 511 370Q511 373 486 428Q479 440 485 443Q491 447 506 438Q552 410 590 403Q621 396 621 388Q620 379 556 333Q531 315 440 341Q404 347 382 355C355 361 355 361 341 364Q299 371 252 385Q218 394 182 402C173 403 176 427 185 429Z"/>
<path id="z21187d5" d="M371 585Q446 519 478 508Q494 502 489 488Q486 475 430 447Q415 441 346 467Q259 498 209 499Q190 499 198 516Q205 526 221 534Q245 546 276 529Q378 478 397 486Q407 492 404 503Q382 536 358 575C355 579 367 588 371 585Z"/>
<path id="z21187d6" d="M395 631Q383 595 371 585C362 578 362 578 358 575Q351 569 341 566Q325 559 315 565Q305 569 315 581Q345 605 351 646C356 669 356 669 358 680Q373 792 345 858Q333 877 307 870Q276 860 247 851Q237 847 241 857Q245 864 262 877Q299 908 311 933Q318 949 332 947Q342 947 366 926Q438 860 402 661C397 641 397 641 395 631Z"/>
<path id="z21187d7" d="M402 661Q510 610 512 610Q519 601 508 598Q496 595 395 631C366 641 366 641 351 646Q162 703 141 707Q114 707 92 707Q79 706 76 720Q73 733 86 741Q120 765 135 772Q154 779 174 767Q214 743 358 680C387 667 387 667 402 661Z"/>
<path id="z21187d8" d="M723 471Q766 458 813 448Q826 447 830 452Q837 468 833 512Q820 669 789 752Q773 804 755 820Q743 830 720 823Q690 814 663 804Q641 797 656 818Q696 867 719 904Q726 925 747 919Q766 918 790 891Q857 822 885 555Q892 495 914 460Q930 439 921 430Q905 414 871 399Q847 387 822 399Q783 418 732 435C691 446 691 446 671 452Q607 467 569 470Q551 469 551 480Q551 489 572 499Q597 515 619 505Q640 498 662 490C703 477 703 477 723 471Z"/>
<path id="z21187d9" d="M662 490Q613 665 516 797Q488 840 458 880Q451 887 449 893Q445 905 457 903Q490 897 582 783Q606 749 630 708Q688 600 723 471C729 447 729 447 732 435Q744 386 753 336Q769 240 779 219Q789 204 783 189Q767 170 734 152Q715 139 700 143Q687 150 692 165Q710 195 702 272Q699 285 698 302Q688 381 671 452C665 477 665 477 662 490Z"/>
<defs>
	<clipPath id="z21187c1"><use href="#z21187d1"/></clipPath>
	<clipPath id="z21187c2"><use href="#z21187d2"/></clipPath>
	<clipPath id="z21187c3"><use href="#z21187d3"/></clipPath>
	<clipPath id="z21187c4"><use href="#z21187d4"/></clipPath>
	<clipPath id="z21187c5"><use href="#z21187d5"/></clipPath>
	<clipPath id="z21187c6"><use href="#z21187d6"/></clipPath>
	<clipPath id="z21187c7"><use href="#z21187d7"/></clipPath>
	<clipPath id="z21187c8"><use href="#z21187d8"/></clipPath>
	<clipPath id="z21187c9"><use href="#z21187d9"/></clipPath>
<marker id="guide-arrow" viewBox="0 0 16 16" refX="5" refY="5" markerWidth="4" markerHeight="4" orient="auto-start-reverse"><path d="M 0 0 L 10 5 L 0 10 z" fill="inherit"/></marker></defs>
<path style="--d:1s;" pathLength="3333" clip-path="url(#z21187c1)" d="M228 253L534 206"/>
<path style="--d:2s;" pathLength="3333" clip-path="url(#z21187c2)" d="M344 43L394 85L357 360"/>
<path style="--d:3s;" pathLength="3333" clip-path="url(#z21187c3)" d="M150 377L161 419L126 558"/>
<path style="--d:4s;" pathLength="3333" clip-path="url(#z21187c4)" d="M189 406L513 344L548 362L566 399L488 437"/>
<path style="--d:5s;" pathLength="3333" clip-path="url(#z21187c5)" d="M201 508L251 516L421 472L446 501L368 579"/>
<path style="--d:6s;" pathLength="3333" clip-path="url(#z21187c6)" d="M318 571L375 645L381 836L327 909L246 856"/>
<path style="--d:7s;" pathLength="3333" clip-path="url(#z21187c7)" d="M79 719L157 738L506 604"/>
<path style="--d:8s;" pathLength="3333" clip-path="url(#z21187c8)" d="M561 481L616 484L833 420L877 449L791 830L735 872L657 808"/>
<path style="--d:9s;" pathLength="3333" clip-path="url(#z21187c9)" d="M701 148L744 209L679 526L576 750L455 898"/>
<g class="guides"><circle style="--d: 1s" class="g1" cx="228" cy="253" r="16"/><path style="--d: 1s;" class="g1" d="M228,349 L534,302"/><circle style="--d: 2s" class="g2" cx="344" cy="43" r="16"/><path style="--d: 2s;" class="g2" d="M248,43 Q298,85 293.375,119.375 Q265.625,325.625 261,360"/><circle style="--d: 3s" class="g3" cx="150" cy="377" r="16"/><path style="--d: 3s;" class="g3" d="M270,377 Q281,419 276.625,436.375 Q250.375,540.625 246,558"/><circle style="--d: 4s" class="g4" cx="189" cy="406" r="16"/><path style="--d: 4s;" class="g4" d="M189,502 Q404.7135278514589,440 416.3647214854111,449 Q428.0159151193634,458 434.0079575596817,476.5 Q440,495 414.0344827586207,514 Q414.0344827586207,514 388.0689655172414,533"/><circle style="--d: 5s" class="g5" cx="201" cy="508" r="16"/><path style="--d: 5s;" class="g5" d="M201,604 Q226,612 268.5,590 Q311,568 317.25,582.5 Q323.5,597 304,636 Q304,636 284.5,675"/><circle style="--d: 6s" class="g6" cx="318" cy="571" r="16"/><path style="--d: 6s;" class="g6" d="M222,571 Q250.5,623.9822485207101 252,692.3579881656805 Q253.5,760.7337278106509 240,786.8668639053254 Q226.5,813 206.25,794.0266272189349 Q206.25,794.0266272189349 186,775.0532544378698"/><circle style="--d: 7s" class="g7" cx="79" cy="719" r="16"/><path style="--d: 7s;" class="g7" d="M79,815 Q157,834 200.625,817.25 Q462.375,716.75 506,700"/><circle style="--d: 8s" class="g8" cx="561" cy="481" r="16"/><path style="--d: 8s;" class="g8" d="M561,577 Q599.2911392405064,550.5486725663717 674.8291139240507,533.2743362831859 Q750.367088607595,516 765.6835443037975,530.5 Q781,545 751.0632911392405,641.1637168141592 Q721.126582278481,737.3274336283185 701.632911392405,748.6637168141592 Q682.1392405063291,760 654.9873417721519,742.7256637168141 Q654.9873417721519,742.7256637168141 627.8354430379746,725.4513274336283"/><circle style="--d: 9s" class="g9" cx="701" cy="148" r="16"/><path style="--d: 9s;" class="g9" d="M605,148 Q633.7162629757786,201.192 612.0121107266436,339.404 Q590.3079584775087,477.616 555.9152249134949,575.28 Q521.522491349481,672.944 481.1193771626298,737.472 Q481.1193771626298,737.472 440.7162629757786,802"/></g></svg>