<svg id="z21220" class="acjk" viewBox="0 0 1024 1024" xmlns="http://www.w3.org/2000/svg">
<style>

@keyframes zk {
	to {
		stroke-dashoffset:0;
	}
}
svg.acjk path[clip-path] {
	--t:0.8s;
	animation:zk var(--t) linear forwards var(--d);
	stroke-dasharray:3337;
	stroke-dashoffset:3339;
	stroke-width:128;
	stroke-linecap:round;
	fill:none;
	stroke:#000;
}
svg.acjk path[id] {fill:#ccc;}


    @keyframes guide-fade {
        0% { opacity: 0; }
        3% { opacity: 1; }
        95% { opacity: 1; }
        100% { opacity: 0; }
    }

    svg.acjk #guide-arrow {
        fill: #f77;
    }

    svg.acjk .guides {
        circle {
            fill: #0f6;
        }

        path {
            opacity: 0;
            animation: guide-fade var(--t) linear forwards var(--d);
            stroke-width: 16px;
            stroke-linecap: round;
            stroke: #f77;
            fill: none;
            marker-end: url(#guide-arrow);
        }

        circle,
        path {
            --t: 0.8s;
            opacity: 0;
            animation: guide-fade calc(var(--t) + 0.4s) ease-in-out forwards calc(var(--d) - 0.2s);
        }
    }
</style>
<path id="z21220d1" d="M439 198C479 191 523 184 560 182C566 181 575 180 579 171C581 165 571 156 558 150C524 134 502 142 453 154C416 163 416 163 397 167C363 174 319 184 287 189C258 193 258 193 244 195C212 199 173 201 138 207C120 209 117 215 132 227C149 242 173 248 200 242C214 238 235 235 253 232C276 227 276 227 288 225C318 219 353 212 393 206C424 201 424 201 439 198Z"/>
<path id="z21220d2" d="M287 189C286 157 286 116 283 111C276 97 258 94 245 94C234 93 223 94 213 100C203 104 206 112 215 121C229 136 233 152 244 195C250 220 250 220 253 232C260 264 264 281 271 294C279 311 290 308 290 291C289 247 289 247 288 225C287 201 287 201 287 189Z"/>
<path id="z21220d3" d="M421 245C428 226 433 216 439 198C448 169 448 169 453 154C456 143 463 116 475 97C477 92 473 85 463 79C443 67 429 61 416 58C406 55 395 56 390 60C384 63 383 68 388 76C393 84 396 93 398 100C401 114 400 134 397 167C394 193 394 193 393 206C390 231 386 247 385 263C383 295 402 291 421 245Z"/>
<path id="z21220d4" d="M205 345C197 343 182 340 165 337C156 335 152 336 151 339C147 344 148 350 154 360C170 386 184 441 195 486C198 498 203 509 212 518C224 530 230 533 234 523C235 517 237 509 236 500C233 480 233 480 232 470C228 445 219 395 219 373C219 363 215 347 205 345Z"/>
<path id="z21220d5" d="M490 433C504 401 520 361 535 351C546 342 546 330 538 321C529 312 510 301 482 288C472 283 460 283 449 288C420 298 376 310 350 317C336 320 322 323 308 327C267 335 245 340 205 345C195 347 209 375 219 373C255 365 273 360 309 353C336 348 336 348 349 345C401 334 449 326 459 335C463 338 464 345 463 353C458 373 453 412 448 428C444 441 485 446 490 433Z"/>
<path id="z21220d6" d="M367 478C385 475 464 464 501 462C507 461 511 459 512 454C512 450 504 443 490 433C479 425 462 425 448 428C424 435 393 442 368 447C337 452 337 452 322 455C306 457 269 466 232 470C222 472 226 502 236 500C252 496 301 486 323 484C352 480 352 480 367 478Z"/>
<path id="z21220d7" d="M360 782C360 762 360 720 361 706C362 679 362 679 363 666C364 645 365 614 365 595C365 568 365 568 365 554C365 524 366 504 367 478C368 457 368 457 368 447C370 385 372 368 368 359C363 350 355 349 349 345C336 337 299 339 305 353C313 369 319 387 322 455C323 474 323 474 323 484C323 498 323 523 323 565C323 591 323 591 323 604C323 622 321 652 321 677C320 702 320 702 320 714C319 728 318 793 318 793C318 807 360 796 360 782Z"/>
<path id="z21220d8" d="M365 595C383 591 401 585 423 580C443 575 455 570 459 567C463 563 464 557 462 553C459 547 450 542 435 539C421 536 399 545 365 554C337 561 337 561 323 565C289 573 255 579 221 584C202 586 199 592 214 601C229 610 261 617 323 604C351 598 351 598 365 595Z"/>
<path id="z21220d9" d="M361 706C429 692 464 679 467 677C471 673 472 667 470 663C467 657 457 651 443 648C424 643 392 658 363 666C335 673 335 673 321 677C299 682 254 689 210 694C190 696 187 702 202 711C233 729 257 726 320 714C347 709 347 709 361 706Z"/>
<path id="z21220d10" d="M318 793C269 805 229 818 173 827C157 829 139 831 117 830C108 829 102 834 101 841C98 849 100 856 107 862C121 874 138 887 161 900C166 903 175 901 183 896C213 875 245 861 278 850C328 831 379 811 430 793C448 786 465 777 480 768C488 762 495 757 494 752C493 748 485 746 477 749C440 758 401 771 360 782C332 789 332 789 318 793Z"/>
<path id="z21220d11" d="M705 442C732 436 752 432 781 430C789 429 794 430 796 435C800 445 802 464 801 490C794 588 780 702 764 754C753 786 744 807 734 818C726 825 714 827 699 823C681 818 665 815 650 811C635 807 633 811 644 825C667 852 689 876 702 900C707 910 714 915 728 913C739 910 753 902 768 886C808 840 837 694 852 530C855 494 861 463 877 441C885 428 888 418 884 413C874 402 858 393 838 383C821 375 808 375 792 382C767 392 745 401 711 408C676 415 676 415 658 418C616 425 575 433 551 433C540 433 535 435 535 440C534 446 539 452 552 460C565 469 579 472 594 467C607 462 634 456 652 453C687 446 687 446 705 442Z"/>
<path id="z21220d12" d="M652 453C623 616 545 770 452 897C448 902 445 906 444 910C441 916 444 920 452 919C472 915 543 857 613 723C654 644 683 561 705 442C709 419 709 419 711 408C718 366 723 324 730 282C736 239 745 225 743 216C741 208 714 190 695 180C680 172 671 169 663 173C654 177 652 183 656 194C671 235 672 256 671 288C669 341 662 389 658 418C654 441 654 441 652 453Z"/>
<defs>
	<clipPath id="z21220c1"><use href="#z21220d1"/></clipPath>
	<clipPath id="z21220c2"><use href="#z21220d2"/></clipPath>
	<clipPath id="z21220c3"><use href="#z21220d3"/></clipPath>
	<clipPath id="z21220c4"><use href="#z21220d4"/></clipPath>
	<clipPath id="z21220c5"><use href="#z21220d5"/></clipPath>
	<clipPath id="z21220c6"><use href="#z21220d6"/></clipPath>
	<clipPath id="z21220c7"><use href="#z21220d7"/></clipPath>
	<clipPath id="z21220c8"><use href="#z21220d8"/></clipPath>
	<clipPath id="z21220c9"><use href="#z21220d9"/></clipPath>
	<clipPath id="z21220c10"><use href="#z21220d10"/></clipPath>
	<clipPath id="z21220c11"><use href="#z21220d11"/></clipPath>
	<clipPath id="z21220c12"><use href="#z21220d12"/></clipPath>
<marker id="guide-arrow" viewBox="0 0 16 16" refX="5" refY="5" markerWidth="4" markerHeight="4" orient="auto-start-reverse"><path d="M 0 0 L 10 5 L 0 10 z" fill="inherit"/></marker></defs>
<path style="--d:1s;" pathLength="3333" clip-path="url(#z21220c1)" d="M133 216L574 170"/>
<path style="--d:2s;" pathLength="3333" clip-path="url(#z21220c2)" d="M215 108L256 130L278 299"/>
<path style="--d:3s;" pathLength="3333" clip-path="url(#z21220c3)" d="M393 68L435 101L397 277"/>
<path style="--d:4s;" pathLength="3333" clip-path="url(#z21220c4)" d="M155 344L191 377L225 523"/>
<path style="--d:5s;" pathLength="3333" clip-path="url(#z21220c5)" d="M214 350L468 311L503 341L470 430"/>
<path style="--d:6s;" pathLength="3333" clip-path="url(#z21220c6)" d="M239 478L507 453"/>
<path style="--d:7s;" pathLength="3333" clip-path="url(#z21220c7)" d="M316 355L345 374L347 404L338 787"/>
<path style="--d:8s;" pathLength="3333" clip-path="url(#z21220c8)" d="M213 593L454 557"/>
<path style="--d:9s;" pathLength="3333" clip-path="url(#z21220c9)" d="M203 703L463 666"/>
<path style="--d:10s;" pathLength="3333" clip-path="url(#z21220c10)" d="M105 842L171 864L487 757"/>
<path style="--d:11s;" pathLength="3333" clip-path="url(#z21220c11)" d="M543 443L793 405L841 430L800 718L763 835L721 870L646 816"/>
<path style="--d:12s;" pathLength="3333" clip-path="url(#z21220c12)" d="M660 180L706 227L655 544L562 766L448 910"/>
<g class="guides"><circle style="--d: 1s" class="g1" cx="133" cy="216" r="16"/><path style="--d: 1s;" class="g1" d="M133,312 L574,266"/><circle style="--d: 2s" class="g2" cx="215" cy="108" r="16"/><path style="--d: 2s;" class="g2" d="M215,204 Q235.5,215 236.875,225.5625 Q245.125,288.9375 246.5,299.5"/><circle style="--d: 3s" class="g3" cx="393" cy="68" r="16"/><path style="--d: 3s;" class="g3" d="M297,68 Q339,101 334.25,123 Q305.75,255 301,277"/><circle style="--d: 4s" class="g4" cx="155" cy="344" r="16"/><path style="--d: 4s;" class="g4" d="M240.68,275.456 Q276.68,308.456 280.93,326.706 Q306.43,436.206 310.68,454.456"/><circle style="--d: 5s" class="g5" cx="214" cy="350" r="16"/><path style="--d: 5s;" class="g5" d="M214,446 Q362.53287197231833,407 367.64965397923874,414.5 Q383,437 378.17560553633217,444.375 Q368.52681660899657,459.125 363.70242214532874,466.5"/><circle style="--d: 6s" class="g6" cx="239" cy="478" r="16"/><path style="--d: 6s;" class="g6" d="M239,574 L507,549"/><circle style="--d: 7s" class="g7" cx="331" cy="365" r="16"/><path style="--d: 7s;" class="g7" d="M451,365 Q467,404 465.875,451.875 Q459.125,739.125 458,787"/><circle style="--d: 8s" class="g8" cx="213" cy="593" r="16"/><path style="--d: 8s;" class="g8" d="M213,689 L454,653"/><circle style="--d: 9s" class="g9" cx="203" cy="703" r="16"/><path style="--d: 9s;" class="g9" d="M203,799 L463,762"/><circle style="--d: 10s" class="g10" cx="105" cy="842" r="16"/><path style="--d: 10s;" class="g10" d="M105,938 Q171,960 210.5,946.625 Q447.5,866.375 487,853"/><circle style="--d: 11s" class="g11" cx="543" cy="443" r="16"/><path style="--d: 11s;" class="g11" d="M543,539 Q712.4630872483222,501 728.7315436241611,513.5 Q745,526 731.1040268456376,603.3612903225807 Q717.2080536912752,680.7225806451613 704.6677852348994,714.3129032258064 Q692.1275167785235,747.9032258064516 677.8926174496644,757.9516129032259 Q663.6577181208054,768 638.238255033557,752.4967741935484 Q638.238255033557,752.4967741935484 612.8187919463087,736.9935483870968"/><circle style="--d: 12s" class="g12" cx="660" cy="180" r="16"/><path style="--d: 12s;" class="g12" d="M564,180 Q592.8837209302326,220.81917808219177 576.8720930232558,358.47534246575344 Q560.8604651162791,496.1315068493151 531.6627906976744,592.5342465753424 Q502.4651162790698,688.9369863013699 466.6744186046512,751.4684931506849 Q466.6744186046512,751.4684931506849 430.8837209302326,814"/></g></svg>