<!--
  Stroke-order data for 勹, derived from AnimCJK (https://github.com/parsimonhi/animCJK),
  itself derived from the Arphic PL KaitiM fonts. Distributed under the Arphic Public License
  (see ARPHICPL.TXT). Regenerated by scripts/build-strokes.ts — do not edit by hand.
-->
<svg id="z21241" class="acjk" viewBox="0 0 1024 1024" xmlns="http://www.w3.org/2000/svg">
<g class="glyph"><path style="--part:1" id="z21241d1" d="M343 312Q376 269 412 216Q434 179 453 160Q463 150 458 136Q454 123 426 100Q399 82 381 82Q362 83 370 106Q391 152 298 295Q255 361 195 434Q185 444 183 450Q179 460 193 458Q223 455 313 349Q317 343 324 336C337 320 337 320 343 312Z"/><path style="--part:2" id="z21241d2" d="M618 831Q600 837 500 809Q490 808 491 812Q491 816 502 824Q557 867 585 899Q600 920 614 917Q636 920 659 897Q741 834 768 672Q789 561 803 392Q804 353 830 325Q843 312 843 303Q842 294 822 280Q795 258 758 246Q737 237 667 257Q642 261 608 270Q460 301 343 312C333 312 314 334 324 336Q327 336 329 337Q366 347 409 339Q521 324 608 309Q726 291 739 307Q757 349 728 583Q707 715 661 793Q642 830 618 831Z"/></g>
<defs><clipPath id="z21241c1"><use href="#z21241d1"/></clipPath>
	<clipPath id="z21241c2"><use href="#z21241d2"/></clipPath><marker id="guide-arrow" viewBox="0 0 16 16" refX="5" refY="5" markerWidth="4" markerHeight="4" orient="auto-start-reverse"><path d="M 0 0 L 10 5 L 0 10 z" fill="inherit"/></marker></defs>
<g class="strokes"><path style="--part:1" pathLength="3333" clip-path="url(#z21241c1)" d="M375 86L415 147L311 316L190 452"/><path style="--part:2" pathLength="3333" clip-path="url(#z21241c2)" d="M334 332L717 272L792 314L740 668L685 818L613 874L502 814"/></g>
<g class="guides"><text class="g1" style="--gs:1" x="375" y="86">①</text><path class="g1 aligned" style="--gs:1" d="M375,86 Q415,147 389,189.25 Q311,316 280.75,350 Q220.25,418 190,452"/><path class="g1 offset" style="--gs:1" d="M279,86 Q301.93,131 287.03,162.17 Q242.31,255.67 224.96,280.75 Q190.28,330.92 172.93,356"/><text class="g2" style="--gs:2" x="334" y="332">②</text><path class="g2 aligned" style="--gs:2" d="M334,332 Q717,272 754.5,293 Q792,314 766,491 Q740,668 712.5,743 Q685,818 649,846 Q613,874 557.5,844 Q557.5,844 502,814"/><path class="g2 offset" style="--gs:2" d="M334,428 Q525.5,368 544.25,389 Q563,410 550,587 Q537,764 523.25,839 Q509.5,914 491.5,942 Q473.5,970 445.75,940 Q445.75,940 418,910"/></g>
<g class="parts"><rect data-part="2" data-literal="𠃌" role="button" tabindex="0" aria-label="Part 𠃌" x="262" y="200" width="602" height="746"/><rect data-part="1" data-literal="丿" role="button" tabindex="0" aria-label="Part 丿" x="118" y="14" width="369" height="510"/></g>
</svg>
