<svg id="z21270" class="acjk" viewBox="0 0 1024 1024" xmlns="http://www.w3.org/2000/svg">
<style>

@keyframes zk {
	to {
		stroke-dashoffset:0;
	}
}
svg.acjk path[clip-path] {
	--t:0.8s;
	animation:zk var(--t) linear forwards var(--d);
	stroke-dasharray:3337;
	stroke-dashoffset:3339;
	stroke-width:128;
	stroke-linecap:round;
	fill:none;
	stroke:#000;
}
svg.acjk path[id] {fill:#ccc;}


    @keyframes guide-fade {
        0% { opacity: 0; }
        3% { opacity: 1; }
        95% { opacity: 1; }
        100% { opacity: 0; }
    }

    svg.acjk #guide-arrow {
        fill: #f77;
    }

    svg.acjk .guides {
        circle {
            fill: #0f6;
        }

        path {
            opacity: 0;
            animation: guide-fade var(--t) linear forwards var(--d);
            stroke-width: 16px;
            stroke-linecap: round;
            stroke: #f77;
            fill: none;
            marker-end: url(#guide-arrow);
        }

        circle,
        path {
            --t: 0.8s;
            opacity: 0;
            animation: guide-fade calc(var(--t) + 0.4s) ease-in-out forwards calc(var(--d) - 0.2s);
        }
    }
</style>
<path id="z21270d1" d="M272 397C303 357 335 312 367 261C388 226 405 201 422 185C428 178 430 169 428 159C425 150 414 136 393 120C375 106 358 100 344 100C331 100 326 109 333 126C342 149 342 169 334 189C305 253 271 316 230 375C189 432 142 492 88 555C81 562 76 567 74 572C70 580 75 583 86 582C109 579 160 533 236 441C239 437 242 433 247 428C264 407 264 407 272 397Z"/>
<path id="z21270d2" d="M247 428C261 476 269 506 270 519C271 617 262 699 245 765C236 798 242 829 267 862C268 863 269 865 272 868C284 878 295 874 303 856C313 828 317 798 318 766C318 614 320 520 326 487C329 468 329 455 323 448C310 433 300 421 291 412C284 405 278 400 272 397C261 390 244 415 247 428Z"/>
<path id="z21270d3" d="M555 462C563 458 570 454 577 451C640 418 698 379 751 335C768 322 777 304 779 279C780 263 788 257 801 262C812 268 824 282 835 302C845 327 850 343 848 352C847 363 841 370 831 373C809 380 776 392 742 407C679 434 631 457 552 497C542 503 545 467 555 462Z"/>
<path id="z21270d4" d="M941 802C953 791 949 776 939 754C921 718 913 674 908 624C907 617 905 609 899 604C892 598 888 606 885 623C865 708 849 752 846 759C841 767 828 772 807 778C734 795 669 798 614 783C585 775 567 757 559 729C551 701 543 602 552 497C554 474 554 474 555 462C569 295 582 227 596 203C604 188 597 175 585 165C564 147 542 133 516 127C502 123 492 126 487 132C481 138 480 145 486 152C495 161 504 172 508 189C511 204 509 262 505 361C502 421 500 479 499 535C493 706 513 765 535 792C541 800 551 808 566 816C624 847 718 855 846 838C852 837 859 834 866 833C900 824 926 814 941 802Z"/>
<defs>
	<clipPath id="z21270c1"><use href="#z21270d1"/></clipPath>
	<clipPath id="z21270c2"><use href="#z21270d2"/></clipPath>
	<clipPath id="z21270c3"><use href="#z21270d3"/></clipPath>
	<clipPath id="z21270c4"><use href="#z21270d4"/></clipPath>
<marker id="guide-arrow" viewBox="0 0 16 16" refX="5" refY="5" markerWidth="4" markerHeight="4" orient="auto-start-reverse"><path d="M 0 0 L 10 5 L 0 10 z" fill="inherit"/></marker></defs>
<path style="--d:1s;" pathLength="3333" clip-path="url(#z21270c1)" d="M336 105L383 173L250 388L82 575"/>
<path style="--d:2s;" pathLength="3333" clip-path="url(#z21270c2)" d="M264 403L296 483L283 869"/>
<path style="--d:3s;" pathLength="3333" clip-path="url(#z21270c3)" d="M793 264L794 353L553 489"/>
<path style="--d:4s;" pathLength="3333" clip-path="url(#z21270c4)" d="M489 140L554 194L523 555L529 703L553 774L688 819L865 795L899 768L895 613"/>
<g class="guides"><circle style="--d: 1s" class="g1" cx="336" cy="105" r="16"/><path style="--d: 1s;" class="g1" d="M240,105 Q272.00996677740864,159.11063829787233 249.36461794019934,201.88191489361702 Q181.42857142857144,330.1957446808511 152.82392026578074,367.3968085106383 Q95.61461794019934,441.79893617021276 67.00996677740864,479"/><circle style="--d: 2s" class="g2" cx="264" cy="403" r="16"/><path style="--d: 2s;" class="g2" d="M384,403 Q416,483 414.375,531.25 Q404.625,820.75 403,869"/><circle style="--d: 3s" class="g3" cx="793" cy="264" r="16"/><path style="--d: 3s;" class="g3" d="M697,264 Q697.5020746887967,315.02666666666664 682.3770746887967,324.7733333333333 Q591.6270746887967,383.25333333333333 576.5020746887967,393"/><circle style="--d: 4s" class="g4" cx="489" cy="140" r="16"/><path style="--d: 4s;" class="g4" d="M557.544,71.456 Q596.457756097561,125.456 587.1783219512195,305.956 Q577.8988878048781,486.456 579.6949073170731,560.456 Q581.4909268292682,634.456 588.6750048780488,669.956 Q595.8590829268293,705.456 636.2695219512195,727.956 Q676.6799609756098,750.456 729.6625365853658,738.456 Q782.6451121951219,726.456 792.8225560975609,712.956 Q803,699.456 801.8026536585367,621.956 Q801.8026536585367,621.956 800.6053073170732,544.456"/></g></svg>