<svg id="z21312" class="acjk" viewBox="0 0 1024 1024" xmlns="http://www.w3.org/2000/svg">
<style>

@keyframes zk {
	to {
		stroke-dashoffset:0;
	}
}
svg.acjk path[clip-path] {
	--t:0.8s;
	animation:zk var(--t) linear forwards var(--d);
	stroke-dasharray:3337;
	stroke-dashoffset:3339;
	stroke-width:128;
	stroke-linecap:round;
	fill:none;
	stroke:#000;
}
svg.acjk path[id] {fill:#ccc;}


    @keyframes guide-fade {
        0% { opacity: 0; }
        3% { opacity: 1; }
        95% { opacity: 1; }
        100% { opacity: 0; }
    }

    svg.acjk #guide-arrow {
        fill: #f77;
    }

    svg.acjk .guides {
        circle {
            fill: #0f6;
        }

        path {
            opacity: 0;
            animation: guide-fade var(--t) linear forwards var(--d);
            stroke-width: 16px;
            stroke-linecap: round;
            stroke: #f77;
            fill: none;
            marker-end: url(#guide-arrow);
        }

        circle,
        path {
            --t: 0.8s;
            opacity: 0;
            animation: guide-fade calc(var(--t) + 0.4s) ease-in-out forwards calc(var(--d) - 0.2s);
        }
    }
</style>
<path id="z21312d1" d="M280 198Q299 199 508 173Q769 137 784 125Q794 118 790 108Q784 95 755 86Q724 77 693 87Q476 147 257 155C241 155 264 198 280 198Z"/>
<path id="z21312d2" d="M428 277Q419 273 386 269Q376 268 372 273Q368 279 376 292Q404 335 425 411Q429 433 445 447Q463 465 466 451Q467 444 467 437C467 426 469 414 463 405Q456 398 440 306C438 296 438 281 428 277Z"/>
<path id="z21312d3" d="M651 379Q675 319 701 301Q717 285 704 268Q688 255 641 232Q625 225 605 232Q545 257 428 277C418 279 430 308 440 306Q605 273 614 278C615 279 615 279 615 279Q622 286 620 300Q611 343 601 377C595 392 645 394 651 379Z"/>
<path id="z21312d4" d="M467 437Q471 437 476 436Q536 423 664 412Q674 411 676 403Q676 396 651 379C638 369 617 374 601 377Q523 395 463 405C452 407 456 437 467 437Z"/>
<path id="z21312d5" d="M341 540Q331 534 299 528Q289 527 286 530Q282 536 289 549Q314 603 331 691Q335 716 350 735Q366 753 370 739Q374 726 372 707C369 686 369 686 368 676Q350 594 347 564C346 556 348 544 341 540Z"/>
<path id="z21312d6" d="M487 657Q503 584 525 560Q544 538 524 525Q508 515 483 499Q467 490 423 514Q392 526 341 540C333 542 339 567 347 564Q354 560 428 544Q450 540 456 548Q463 554 456 586Q449 617 441 655C438 670 484 672 487 657Z"/>
<path id="z21312d7" d="M372 707Q376 707 384 706Q421 697 502 689Q512 688 513 679Q513 672 487 657C474 649 456 652 441 655C440 655 440 655 440 655Q400 668 368 676C358 678 362 707 372 707Z"/>
<path id="z21312d8" d="M602 512Q592 508 571 503Q561 500 557 504Q551 510 558 524Q580 575 591 656Q592 681 606 697Q621 718 626 704Q630 694 630 680C629 661 629 661 629 651Q619 564 618 539C618 529 612 516 602 512Z"/>
<path id="z21312d9" d="M781 630Q800 561 823 542Q845 517 824 502Q766 466 757 466Q750 466 742 471Q700 495 602 512C592 514 608 543 618 539Q630 533 714 520Q741 514 747 525Q753 531 730 629C727 646 778 647 781 630Z"/>
<path id="z21312d10" d="M630 680Q640 683 652 680Q698 670 796 664Q806 663 808 655Q808 648 781 630C766 621 747 626 730 629Q673 642 629 651C620 653 621 678 630 680Z"/>
<path id="z21312d11" d="M257 155Q223 137 206 137Q193 136 184 143Q174 150 189 168Q223 214 214 609Q198 828 171 851Q150 870 163 889Q170 907 187 919Q203 932 222 917Q270 859 681 844Q799 841 849 847Q891 853 900 831C900 830 900 830 900 829Q899 813 862 791Q825 770 804 772Q759 775 407 825Q274 850 263 836Q254 827 261 670Q255 646 273 302Q274 221 280 198C283 182 272 162 257 155Z"/>
<defs>
	<clipPath id="z21312c1"><use href="#z21312d1"/></clipPath>
	<clipPath id="z21312c2"><use href="#z21312d2"/></clipPath>
	<clipPath id="z21312c3"><use href="#z21312d3"/></clipPath>
	<clipPath id="z21312c4"><use href="#z21312d4"/></clipPath>
	<clipPath id="z21312c5"><use href="#z21312d5"/></clipPath>
	<clipPath id="z21312c6"><use href="#z21312d6"/></clipPath>
	<clipPath id="z21312c7"><use href="#z21312d7"/></clipPath>
	<clipPath id="z21312c8"><use href="#z21312d8"/></clipPath>
	<clipPath id="z21312c9"><use href="#z21312d9"/></clipPath>
	<clipPath id="z21312c10"><use href="#z21312d10"/></clipPath>
	<clipPath id="z21312c11"><use href="#z21312d11"/></clipPath>
<marker id="guide-arrow" viewBox="0 0 16 16" refX="5" refY="5" markerWidth="4" markerHeight="4" orient="auto-start-reverse"><path d="M 0 0 L 10 5 L 0 10 z" fill="inherit"/></marker></defs>
<path style="--d:1s;" pathLength="3333" clip-path="url(#z21312c1)" d="M260 161L364 169L786 109"/>
<path style="--d:2s;" pathLength="3333" clip-path="url(#z21312c2)" d="M380 279L410 296L455 452"/>
<path style="--d:3s;" pathLength="3333" clip-path="url(#z21312c3)" d="M431 287L631 257L665 285L613 386"/>
<path style="--d:4s;" pathLength="3333" clip-path="url(#z21312c4)" d="M459 421L670 398"/>
<path style="--d:5s;" pathLength="3333" clip-path="url(#z21312c5)" d="M292 534L321 556L362 740"/>
<path style="--d:6s;" pathLength="3333" clip-path="url(#z21312c6)" d="M342 552L452 520L486 534L459 664"/>
<path style="--d:7s;" pathLength="3333" clip-path="url(#z21312c7)" d="M365 688L507 680"/>
<path style="--d:8s;" pathLength="3333" clip-path="url(#z21312c8)" d="M562 508L592 539L619 702"/>
<path style="--d:9s;" pathLength="3333" clip-path="url(#z21312c9)" d="M606 517L774 505L790 529L743 639"/>
<path style="--d:10s;" pathLength="3333" clip-path="url(#z21312c10)" d="M626 667L803 651"/>
<path style="--d:11s;" pathLength="3333" clip-path="url(#z21312c11)" d="M188 149L241 197L223 879L675 815L895 825"/>
<g class="guides"><circle style="--d: 1s" class="g1" cx="260" cy="161" r="16"/><path style="--d: 1s;" class="g1" d="M260,257 Q364,265 416.75,257.5 Q733.25,212.5 786,205"/><circle style="--d: 2s" class="g2" cx="395" cy="288" r="16"/><path style="--d: 2s;" class="g2" d="M515,288 L575,452"/><circle style="--d: 3s" class="g3" cx="431" cy="287" r="16"/><path style="--d: 3s;" class="g3" d="M431,383 Q531,353 535.25,360 Q548,381 541.5,390.125 Q528.5,408.375 522,417.5"/><circle style="--d: 4s" class="g4" cx="459" cy="421" r="16"/><path style="--d: 4s;" class="g4" d="M459,517 L670,494"/><circle style="--d: 5s" class="g5" cx="307" cy="545" r="16"/><path style="--d: 5s;" class="g5" d="M427,545 L482,740"/><circle style="--d: 6s" class="g6" cx="342" cy="552" r="16"/><path style="--d: 6s;" class="g6" d="M342,648 Q397,616 401.25,619.5 Q414,630 410.625,644.5 Q403.875,673.5 400.5,688"/><circle style="--d: 7s" class="g7" cx="365" cy="688" r="16"/><path style="--d: 7s;" class="g7" d="M365,784 L507,776"/><circle style="--d: 8s" class="g8" cx="562" cy="508" r="16"/><path style="--d: 8s;" class="g8" d="M647.68,439.456 Q677.68,470.456 681.055,490.831 Q701.305,613.081 704.68,633.456"/><circle style="--d: 9s" class="g9" cx="606" cy="517" r="16"/><path style="--d: 9s;" class="g9" d="M606,613 Q690,601 692,604 Q698,613 692.125,626.75 Q680.375,654.25 674.5,668"/><circle style="--d: 10s" class="g10" cx="626" cy="667" r="16"/><path style="--d: 10s;" class="g10" d="M626,763 L803,747"/><circle style="--d: 11s" class="g11" cx="188" cy="149" r="16"/><path style="--d: 11s;" class="g11" d="M273.68,80.456 Q320.25702970297027,126.65067397260275 312.3477227722772,454.8253369863014 Q304.4384158415842,783 503.049900990099,752.2035506849315 Q701.6613861386138,721.407101369863 798.3306930693069,726.2190465753424 Q798.3306930693069,726.2190465753424 895,731.030991780822"/></g></svg>