<svg id="z21330" class="acjk" viewBox="0 0 1024 1024" xmlns="http://www.w3.org/2000/svg">
<style>

@keyframes zk {
	to {
		stroke-dashoffset:0;
	}
}
svg.acjk path[clip-path] {
	--t:0.8s;
	animation:zk var(--t) linear forwards var(--d);
	stroke-dasharray:3337;
	stroke-dashoffset:3339;
	stroke-width:128;
	stroke-linecap:round;
	fill:none;
	stroke:#000;
}
svg.acjk path[id] {fill:#ccc;}


    @keyframes guide-fade {
        0% { opacity: 0; }
        3% { opacity: 1; }
        95% { opacity: 1; }
        100% { opacity: 0; }
    }

    svg.acjk #guide-arrow {
        fill: #f77;
    }

    svg.acjk .guides {
        circle {
            fill: #0f6;
        }

        path {
            opacity: 0;
            animation: guide-fade var(--t) linear forwards var(--d);
            stroke-width: 16px;
            stroke-linecap: round;
            stroke: #f77;
            fill: none;
            marker-end: url(#guide-arrow);
        }

        circle,
        path {
            --t: 0.8s;
            opacity: 0;
            animation: guide-fade calc(var(--t) + 0.4s) ease-in-out forwards calc(var(--d) - 0.2s);
        }
    }
</style>
<path id="z21330d1" d="M479 80C514 109 539 132 562 137C571 139 582 134 587 124C591 114 590 102 587 92C575 63 540 46 488 38C474 36 467 35 461 39C456 41 455 44 458 54C460 61 467 69 479 80Z"/>
<path id="z21330d2" d="M311 205C286 206 281 216 300 227C324 242 363 246 411 240C493 228 577 216 664 203C706 196 730 188 737 183C742 178 744 172 742 168C737 158 725 152 708 147C685 140 648 150 591 165C491 190 396 199 311 205Z"/>
<path id="z21330d3" d="M366 399C387 367 402 339 419 320C424 313 425 303 416 296C393 275 372 268 358 270C351 270 349 275 350 284C356 338 319 407 271 462C262 471 251 482 229 506C222 513 226 517 235 515C281 499 334 445 353 418C362 405 362 405 366 399Z"/>
<path id="z21330d4" d="M353 418C372 439 400 468 421 485C434 495 445 503 454 487C457 480 457 468 453 455C445 428 409 413 366 399C359 396 348 412 353 418Z"/>
<path id="z21330d5" d="M543 459C571 445 612 407 633 378C642 365 642 365 647 358C665 331 680 300 701 272C706 264 706 255 697 248C673 227 652 221 636 223C629 223 626 227 628 238C633 271 628 301 602 348C579 386 554 420 528 449C524 454 538 462 543 459Z"/>
<path id="z21330d6" d="M633 378C665 407 705 437 734 465C740 470 748 474 757 474C763 473 767 470 769 463C776 428 751 402 727 389C707 378 675 366 647 358C639 356 626 373 633 378Z"/>
<path id="z21330d7" d="M548 590C624 584 723 579 901 585C916 585 927 581 931 575C935 566 930 555 918 545C867 506 830 501 799 510C734 527 650 534 550 547C512 552 512 552 493 554C376 568 250 580 115 594C98 595 95 602 108 617C129 639 158 649 190 642C286 618 446 597 493 594C530 591 530 591 548 590Z"/>
<path id="z21330d8" d="M495 924C496 935 504 969 519 962C537 952 546 889 546 784C545 754 543 690 548 590C549 561 549 561 550 547C552 485 564 473 543 459C533 452 533 452 528 449C508 435 489 432 476 441C469 444 469 450 474 459C486 478 493 510 493 554C493 581 493 581 493 594C493 802 493 911 495 924Z"/>
<defs>
	<clipPath id="z21330c1"><use href="#z21330d1"/></clipPath>
	<clipPath id="z21330c2"><use href="#z21330d2"/></clipPath>
	<clipPath id="z21330c3"><use href="#z21330d3"/></clipPath>
	<clipPath id="z21330c4"><use href="#z21330d4"/></clipPath>
	<clipPath id="z21330c5"><use href="#z21330d5"/></clipPath>
	<clipPath id="z21330c6"><use href="#z21330d6"/></clipPath>
	<clipPath id="z21330c7"><use href="#z21330d7"/></clipPath>
	<clipPath id="z21330c8"><use href="#z21330d8"/></clipPath>
<marker id="guide-arrow" viewBox="0 0 16 16" refX="5" refY="5" markerWidth="4" markerHeight="4" orient="auto-start-reverse"><path d="M 0 0 L 10 5 L 0 10 z" fill="inherit"/></marker></defs>
<path style="--d:1s;" pathLength="3333" clip-path="url(#z21330c1)" d="M461 43L582 126"/>
<path style="--d:2s;" pathLength="3333" clip-path="url(#z21330c2)" d="M300 217L738 167"/>
<path style="--d:3s;" pathLength="3333" clip-path="url(#z21330c3)" d="M358 280L384 319L357 371L234 507"/>
<path style="--d:4s;" pathLength="3333" clip-path="url(#z21330c4)" d="M356 410L447 490"/>
<path style="--d:5s;" pathLength="3333" clip-path="url(#z21330c5)" d="M636 231L665 267L656 293L535 453"/>
<path style="--d:6s;" pathLength="3333" clip-path="url(#z21330c6)" d="M635 370L764 465"/>
<path style="--d:7s;" pathLength="3333" clip-path="url(#z21330c7)" d="M106 603L175 616L824 544L929 565"/>
<path style="--d:8s;" pathLength="3333" clip-path="url(#z21330c8)" d="M477 447L521 488L513 959"/>
<g class="guides"><circle style="--d: 1s" class="g1" cx="461" cy="43" r="16"/><path style="--d: 1s;" class="g1" d="M546.68,-25.543999999999997 L667.68,57.456"/><circle style="--d: 2s" class="g2" cx="300" cy="217" r="16"/><path style="--d: 2s;" class="g2" d="M300,313 L738,263"/><circle style="--d: 3s" class="g3" cx="358" cy="280" r="16"/><path style="--d: 3s;" class="g3" d="M262,280 Q275,302.50660792951544 271.625,310.00881057268725 Q261.5,332.51541850220264 246.125,352.13656387665196 Q215.375,391.3788546255507 200,411"/><circle style="--d: 4s" class="g4" cx="356" cy="410" r="16"/><path style="--d: 4s;" class="g4" d="M441.68,341.456 L532.68,421.456"/><circle style="--d: 5s" class="g5" cx="636" cy="231" r="16"/><path style="--d: 5s;" class="g5" d="M540,231 Q554.5,251.43243243243242 553.375,255.1216216216216 Q550,266.18918918918916 534.875,288.8918918918919 Q504.625,334.2972972972973 489.5,357"/><circle style="--d: 6s" class="g6" cx="635" cy="370" r="16"/><path style="--d: 6s;" class="g6" d="M720.68,301.456 L849.68,396.456"/><circle style="--d: 7s" class="g7" cx="106" cy="603" r="16"/><path style="--d: 7s;" class="g7" d="M106,699 Q175,712 337.25,694 Q824,640 850.25,645.25 Q902.75,655.75 929,661"/><circle style="--d: 8s" class="g8" cx="477" cy="447" r="16"/><path style="--d: 8s;" class="g8" d="M381,447 Q425,488 424,546.875 Q418,900.125 417,959"/></g></svg>