<svg id="z21332" class="acjk" viewBox="0 0 1024 1024" xmlns="http://www.w3.org/2000/svg">
<style>

@keyframes zk {
	to {
		stroke-dashoffset:0;
	}
}
svg.acjk path[clip-path] {
	--t:0.8s;
	animation:zk var(--t) linear forwards var(--d);
	stroke-dasharray:3337;
	stroke-dashoffset:3339;
	stroke-width:128;
	stroke-linecap:round;
	fill:none;
	stroke:#000;
}
svg.acjk path[id] {fill:#ccc;}


    @keyframes guide-fade {
        0% { opacity: 0; }
        3% { opacity: 1; }
        95% { opacity: 1; }
        100% { opacity: 0; }
    }

    svg.acjk #guide-arrow {
        fill: #f77;
    }

    svg.acjk .guides {
        circle {
            fill: #0f6;
        }

        path {
            opacity: 0;
            animation: guide-fade var(--t) linear forwards var(--d);
            stroke-width: 16px;
            stroke-linecap: round;
            stroke: #f77;
            fill: none;
            marker-end: url(#guide-arrow);
        }

        circle,
        path {
            --t: 0.8s;
            opacity: 0;
            animation: guide-fade calc(var(--t) + 0.4s) ease-in-out forwards calc(var(--d) - 0.2s);
        }
    }
</style>
<path id="z21332d1" d="M296 422C321 414 347 405 377 397C405 388 421 381 425 377C430 370 431 365 428 360C423 352 410 345 390 343C366 340 337 353 298 368C267 380 267 380 251 386C203 404 148 415 103 425C77 430 74 440 94 449C127 464 174 458 249 436C280 427 280 427 296 422Z"/>
<path id="z21332d2" d="M249 436C242 598 235 693 230 722C225 743 221 765 215 787C207 815 212 848 228 889C232 900 237 907 242 911C246 914 249 913 256 909C273 895 284 870 285 828C285 798 287 662 296 422C297 386 297 386 298 368C302 247 305 213 321 173C325 161 331 152 328 144C324 136 302 122 266 98C249 87 234 86 221 96C217 98 216 106 222 117C239 147 252 186 252 239C252 331 251 380 251 386C250 419 250 419 249 436Z"/>
<path id="z21332d3" d="M645 216C665 210 685 205 705 203C716 201 724 203 726 206C730 212 729 224 727 242C719 288 711 323 699 344C687 363 672 369 656 365C645 362 635 359 626 356C611 350 607 355 618 370C635 395 648 417 658 435C665 448 674 447 686 441C723 419 754 362 779 265C784 241 792 222 803 212C811 203 814 196 810 190C804 182 785 171 754 156C741 149 728 151 716 159C706 165 685 173 655 181C619 190 619 190 601 195C555 206 512 212 474 216C463 216 455 219 454 225C452 229 461 235 476 244C492 253 506 256 519 252C543 243 568 236 592 230C627 221 627 221 645 216Z"/>
<path id="z21332d4" d="M592 230C579 278 546 338 496 410C493 413 490 415 489 420C486 425 489 428 495 428C513 427 556 390 591 337C609 309 629 269 645 216C652 193 652 193 655 181C660 163 666 129 675 113C679 105 683 97 679 90C671 78 658 69 642 59C631 52 622 48 615 51C608 52 606 59 609 68C621 102 615 138 601 195C595 218 595 218 592 230Z"/>
<path id="z21332d5" d="M479 559C495 555 510 551 524 551C534 550 539 551 541 554C545 562 546 576 544 596C537 654 526 695 512 720C502 736 491 742 475 742C468 741 461 743 455 742C442 739 441 743 451 755C465 771 475 786 484 798C492 809 502 808 513 801C544 777 569 729 582 652C591 596 597 563 606 554C612 547 614 540 611 535C606 528 590 519 564 508C553 503 542 504 532 512C525 516 511 522 489 528C455 536 455 536 438 540C400 548 365 553 334 556C325 556 319 559 318 564C316 568 323 573 336 580C349 587 360 589 371 586C391 579 411 574 431 570C463 563 463 563 479 559Z"/>
<path id="z21332d6" d="M431 570C415 637 380 708 320 782C317 784 314 787 313 790C310 794 312 797 318 797C334 797 384 754 408 719C459 643 471 581 479 559C486 538 486 538 489 528C490 524 490 520 493 518C498 511 501 504 498 498C492 488 481 480 468 470C459 463 451 460 446 462C439 464 436 470 439 477C442 485 445 509 438 540C433 560 433 560 431 570Z"/>
<path id="z21332d7" d="M761 560C785 553 807 547 828 545C837 543 844 544 846 547C854 558 854 579 851 610C840 693 825 754 806 791C795 810 781 820 765 817C750 813 736 807 723 803C707 797 702 805 715 819C740 847 758 871 773 891C785 907 800 905 814 893C833 875 852 854 867 826C883 793 896 726 905 625C907 590 914 563 928 545C934 536 937 529 933 524C927 516 908 508 878 496C866 491 854 493 843 501C832 508 804 518 772 527C729 539 729 539 707 545C687 550 656 554 633 557C624 558 618 560 617 565C615 568 623 573 636 580C649 587 660 589 672 585C680 581 689 579 699 577C740 566 740 566 761 560Z"/>
<path id="z21332d8" d="M699 577C672 684 615 779 539 861C535 864 531 866 530 871C527 877 529 881 536 881C560 881 618 834 658 779C690 733 717 684 737 632C743 615 755 577 761 560C768 538 768 538 772 527C774 521 776 515 780 511C786 502 790 494 786 486C779 473 765 462 749 450C738 441 728 437 721 439C712 441 708 448 712 457C720 475 717 503 707 545C702 566 702 566 699 577Z"/>
<defs>
	<clipPath id="z21332c1"><use href="#z21332d1"/></clipPath>
	<clipPath id="z21332c2"><use href="#z21332d2"/></clipPath>
	<clipPath id="z21332c3"><use href="#z21332d3"/></clipPath>
	<clipPath id="z21332c4"><use href="#z21332d4"/></clipPath>
	<clipPath id="z21332c5"><use href="#z21332d5"/></clipPath>
	<clipPath id="z21332c6"><use href="#z21332d6"/></clipPath>
	<clipPath id="z21332c7"><use href="#z21332d7"/></clipPath>
	<clipPath id="z21332c8"><use href="#z21332d8"/></clipPath>
<marker id="guide-arrow" viewBox="0 0 16 16" refX="5" refY="5" markerWidth="4" markerHeight="4" orient="auto-start-reverse"><path d="M 0 0 L 10 5 L 0 10 z" fill="inherit"/></marker></defs>
<path style="--d:1s;" pathLength="3333" clip-path="url(#z21332c1)" d="M89 437L169 433L424 359"/>
<path style="--d:2s;" pathLength="3333" clip-path="url(#z21332c2)" d="M226 101L287 169L245 908"/>
<path style="--d:3s;" pathLength="3333" clip-path="url(#z21332c3)" d="M462 224L517 232L728 178L759 193L770 213L701 386L667 405L621 360"/>
<path style="--d:4s;" pathLength="3333" clip-path="url(#z21332c4)" d="M617 57L647 95L620 216L579 316L496 423"/>
<path style="--d:5s;" pathLength="3333" clip-path="url(#z21332c5)" d="M327 563L544 528L577 546L526 745L486 774L451 747"/>
<path style="--d:6s;" pathLength="3333" clip-path="url(#z21332c6)" d="M447 467L470 509L436 623L394 709L322 788"/>
<path style="--d:7s;" pathLength="3333" clip-path="url(#z21332c7)" d="M628 565L852 520L893 546L827 824L773 857L713 809"/>
<path style="--d:8s;" pathLength="3333" clip-path="url(#z21332c8)" d="M720 444L752 495L697 660L632 777L537 875"/>
<g class="guides"><circle style="--d: 1s" class="g1" cx="89" cy="437" r="16"/><path style="--d: 1s;" class="g1" d="M89,533 Q169,529 200.875,519.75 Q392.125,464.25 424,455"/><circle style="--d: 2s" class="g2" cx="226" cy="101" r="16"/><path style="--d: 2s;" class="g2" d="M130,101 Q191,169 185.75,261.375 Q154.25,815.625 149,908"/><circle style="--d: 3s" class="g3" cx="462" cy="224" r="16"/><path style="--d: 3s;" class="g3" d="M462,320 Q499.85714285714283,301 572.474025974026,287.5 Q645.0909090909091,274 655.7597402597403,281.5 Q666.4285714285714,289 670.2142857142858,299 Q674,309 650.2532467532467,343.5 Q626.5064935064935,378 614.8051948051948,382.75 Q603.1038961038961,387.5 587.2727272727273,376.25 Q587.2727272727273,376.25 571.4415584415584,365"/><circle style="--d: 4s" class="g4" cx="617" cy="57" r="16"/><path style="--d: 4s;" class="g4" d="M521,57 Q536,85.0327868852459 529.25,129.6639344262295 Q522.5,174.29508196721312 512.25,211.1803278688525 Q502,248.06557377049182 481.25,287.5327868852459 Q481.25,287.5327868852459 460.5,327"/><circle style="--d: 5s" class="g5" cx="327" cy="563" r="16"/><path style="--d: 5s;" class="g5" d="M327,659 Q460.672,624 470.836,633 Q481,642 465.29200000000003,687.25 Q449.584,732.5 437.264,739.75 Q424.944,747 414.164,740.25 Q414.164,740.25 403.384,733.5"/><circle style="--d: 6s" class="g6" cx="447" cy="467" r="16"/><path style="--d: 6s;" class="g6" d="M351,467 Q362.5,496.4392523364486 354,536.3925233644859 Q345.5,576.3457943925233 335,606.4859813084112 Q324.5,636.626168224299 306.5,664.3130841121495 Q306.5,664.3130841121495 288.5,692"/><circle style="--d: 7s" class="g7" cx="628" cy="565" r="16"/><path style="--d: 7s;" class="g7" d="M628,661 Q770.8528301886793,616 783.9264150943396,629 Q797,642 775.9547169811322,705 Q754.9094339622642,768 737.6905660377358,776.25 Q720.4716981132076,784.5 701.3396226415094,772.5 Q701.3396226415094,772.5 682.2075471698113,760.5"/><circle style="--d: 8s" class="g8" cx="720" cy="444" r="16"/><path style="--d: 8s;" class="g8" d="M624,444 Q641.7116279069768,483.64037122969836 626.4906976744187,547.7645011600928 Q611.2697674418605,611.8886310904873 593.2813953488372,657.3584686774942 Q575.293023255814,702.8283062645012 549.0023255813953,740.9141531322506 Q549.0023255813953,740.9141531322506 522.7116279069768,779"/></g></svg>