<!--
  Stroke-order data for 卵, derived from AnimCJK (https://github.com/parsimonhi/animCJK),
  itself derived from the Arphic PL KaitiM fonts. Distributed under the Arphic Public License
  (see ARPHICPL.TXT). Regenerated by scripts/build-strokes.ts — do not edit by hand.
-->
<svg id="z21365" class="acjk" viewBox="0 0 1024 1024" xmlns="http://www.w3.org/2000/svg">
<g class="glyph"><path id="z21365d1" d="M250 274Q265 265 431 157Q453 141 479 132Q504 123 493 103Q480 84 453 65Q428 49 414 50Q401 51 404 66Q404 102 288 209Q263 231 238 256C233 261 244 278 250 274Z"/><path id="z21365d2" d="M402 490Q398 490 273 560Q257 570 247 565Q235 564 237 537Q243 443 246 387C246 372 246 372 246 365Q246 364 247 364Q246 321 250 286Q251 279 250 274C250 267 244 261 238 256Q216 240 194 231Q175 224 165 230Q155 237 169 258Q217 330 185 563Q178 590 159 620Q146 642 156 654Q166 667 194 679Q212 686 225 667Q247 621 368 540Q387 527 400 514C406 508 409 487 402 490Z"/><path id="z21365d3" d="M246 387Q319 453 331 454C332 454 332 454 333 454Q342 454 345 443Q349 433 342 409Q336 387 261 366Q248 363 246 365C239 366 240 383 246 387Z"/><path id="z21365d4" d="M400 514Q400 646 310 778Q283 809 240 853Q224 868 221 875Q220 882 232 882Q250 881 272 865Q320 832 349 801Q430 711 450 567Q466 477 468 343Q472 321 474 308Q480 286 457 275Q403 248 386 252Q364 256 382 280Q409 325 402 490C401 506 401 506 400 514Z"/><path id="z21365d5" d="M633 295Q642 296 652 292Q728 267 800 255Q810 254 812 258Q819 271 820 307Q823 437 805 510Q796 555 783 569Q773 581 749 575Q724 569 700 563Q676 556 693 578Q733 624 756 659Q765 678 784 674Q800 670 820 646Q875 574 881 344Q882 290 901 258Q916 236 906 227Q890 209 853 197Q831 188 757 220Q663 247 619 257C606 260 620 295 633 295Z"/><path id="z21365d6" d="M676 403Q698 421 722 443Q735 455 750 453Q760 452 765 440Q769 425 759 397Q747 370 669 357Q654 354 648 357Q644 361 645 373Q649 383 676 403Z"/><path id="z21365d7" d="M572 925Q578 950 585 961Q591 968 599 966Q614 957 621 894Q622 860 624 604Q620 370 633 295C636 282 631 264 619 257Q588 236 572 234Q559 230 542 239Q533 248 541 259Q545 269 553 279Q566 304 568 340Q571 491 567 728Q566 875 572 925Z"/></g>
<defs><clipPath id="z21365c1"><use href="#z21365d1"/></clipPath>
	<clipPath id="z21365c2"><use href="#z21365d2"/></clipPath>
	<clipPath id="z21365c3"><use href="#z21365d3"/></clipPath>
	<clipPath id="z21365c4"><use href="#z21365d4"/></clipPath>
	<clipPath id="z21365c5"><use href="#z21365d5"/></clipPath>
	<clipPath id="z21365c6"><use href="#z21365d6"/></clipPath>
	<clipPath id="z21365c7"><use href="#z21365d7"/></clipPath><marker id="guide-arrow" viewBox="0 0 16 16" refX="5" refY="5" markerWidth="4" markerHeight="4" orient="auto-start-reverse"><path d="M 0 0 L 10 5 L 0 10 z" fill="inherit"/></marker></defs>
<g class="strokes"><path pathLength="3333" clip-path="url(#z21365c1)" d="M410 55L442 111L247 266"/><path pathLength="3333" clip-path="url(#z21365c2)" d="M169 233L218 293L202 624L238 628L397 499"/><path pathLength="3333" clip-path="url(#z21365c3)" d="M252 375L340 443"/><path pathLength="3333" clip-path="url(#z21365c4)" d="M382 260L435 307L417 603L349 763L228 876"/><path pathLength="3333" clip-path="url(#z21365c5)" d="M628 262L822 227L862 250L816 581L769 625L693 566"/><path pathLength="3333" clip-path="url(#z21365c6)" d="M653 366L731 409L753 448"/><path pathLength="3333" clip-path="url(#z21365c7)" d="M543 243L598 300L592 962"/></g>
<g class="guides"><text class="g1" style="--gs:1" x="410" y="55">①</text><path class="g1 aligned" style="--gs:1" d="M410,55 Q442,111 417.63,130.38 Q271.38,246.63 247,266"/><path class="g1 offset" style="--gs:1" d="M314,55 Q330.25,85.52 317.87,96.08 Q243.62,159.44 231.25,170"/><text class="g2" style="--gs:2" x="169" y="233">②</text><path class="g2 aligned" style="--gs:2" d="M169,233 Q218,293 210,458.5 Q202,624 220,626 Q238,628 317.5,563.5 Q317.5,563.5 397,499"/><path class="g2 offset" style="--gs:2" d="M254.68,164.46 Q303.68,212.99 295.68,346.88 Q287.68,480.76 305.68,482.38 Q323.68,484 403.18,431.82 Q403.18,431.82 482.68,379.64"/><text class="g3" style="--gs:3" x="252" y="375">③</text><path class="g3 aligned" style="--gs:3" d="M252,375 L340,443"/><path class="g3 offset" style="--gs:3" d="M337.68,306.46 L425.68,374.46"/><text class="g4" style="--gs:4" x="382" y="260">④</text><path class="g4 aligned" style="--gs:4" d="M382,260 Q435,307 426,455 Q417,603 383,683 Q349,763 288.5,819.5 Q288.5,819.5 228,876"/><path class="g4 offset" style="--gs:4" d="M286,260 Q314.42,299.68 309.59,424.61 Q304.77,549.55 286.54,617.08 Q268.3,684.61 235.86,732.31 Q235.86,732.31 203.42,780"/><text class="g5" style="--gs:5" x="628" y="262">⑤</text><path class="g5 aligned" style="--gs:5" d="M628,262 Q822,227 842,238.5 Q862,250 839,415.5 Q816,581 792.5,603 Q769,625 731,595.5 Q731,595.5 693,566"/><path class="g5 offset" style="--gs:5" d="M628,358 Q742.41,323 754.21,334.5 Q766,346 752.44,423 Q738.87,500 725.01,511 Q711.15,522 688.74,507.25 Q688.74,507.25 666.33,492.5"/><text class="g6" style="--gs:6" x="653" y="366">⑥</text><path class="g6 aligned" style="--gs:6" d="M653,366 Q731,409 733.75,413.88 Q750.25,443.13 753,448"/><path class="g6 offset" style="--gs:6" d="M653,462 Q692,483.5 693.38,485.94 Q701.63,500.56 703,503"/><text class="g7" style="--gs:7" x="543" y="243">⑦</text><path class="g7 aligned" style="--gs:7" d="M543,243 Q598,300 597.25,382.75 Q592.75,879.25 592,962"/><path class="g7 offset" style="--gs:7" d="M447,243 Q502,300 501.25,382.75 Q496.75,879.25 496,962"/></g>
</svg>
