<!--
  Stroke-order data for 厘, derived from AnimCJK (https://github.com/parsimonhi/animCJK),
  itself derived from the Arphic PL KaitiM fonts. Distributed under the Arphic Public License
  (see ARPHICPL.TXT). Regenerated by scripts/build-strokes.ts — do not edit by hand.
-->
<svg id="z21400" class="acjk" viewBox="0 0 1024 1024" xmlns="http://www.w3.org/2000/svg">
<g class="glyph"><path id="z21400d1" d="M333 197C353 205 385 206 430 200C652 170 770 150 785 141C791 136 793 130 790 124C785 115 773 107 755 102C734 96 689 108 618 124C504 149 409 159 333 163C322 163 322 193 333 197Z"/><path id="z21400d2" d="M333 163C321 152 305 142 286 132C271 124 260 121 251 125C242 129 238 138 245 148C257 167 261 196 261 241C258 378 226 515 192 602C160 680 115 762 56 847C52 852 49 856 48 861C45 869 48 871 57 870C79 865 121 822 179 738C192 718 203 696 215 674C267 570 300 449 315 311C320 263 325 225 333 197C337 186 342 170 333 163Z"/><path id="z21400d3" d="M394 316Q384 312 362 307Q350 303 347 308Q340 314 348 329Q379 405 392 527Q393 563 413 589Q429 610 435 595Q438 585 439 573C439 556 439 556 439 548Q438 532 436 515Q417 389 412 350C409 337 406 321 394 316Z"/><path id="z21400d4" d="M674 552Q690 574 704 583Q714 592 731 570Q747 542 783 391Q793 358 817 333Q830 320 819 306Q804 288 760 261Q741 252 677 267Q539 289 505 296Q444 308 394 316C381 318 400 355 412 350Q427 343 516 328C545 323 545 323 560 320Q611 310 673 302Q709 298 720 310Q735 326 731 344Q703 486 691 507Q688 519 671 523C662 527 668 544 674 552Z"/><path id="z21400d5" d="M587 447Q627 440 663 437Q684 434 677 423Q667 410 645 405Q624 401 588 409C555 417 555 417 538 421Q501 428 467 437Q452 440 470 454Q473 457 538 453C571 449 571 449 587 447Z"/><path id="z21400d6" d="M584 560C614 556 644 553 674 552C684 552 679 528 671 523C662 514 634 519 585 527C554 532 554 532 538 534C503 539 470 543 439 548C431 549 431 573 439 573C471 570 504 568 537 565C568 562 568 562 584 560Z"/><path id="z21400d7" d="M579 825C579 788 579 753 580 719C581 686 581 686 581 670C581 631 582 594 584 560C585 538 585 538 585 527C585 499 586 472 587 447C588 422 588 422 588 409C588 394 587 381 590 370C592 356 594 347 588 341C579 332 570 325 560 320C547 312 508 315 516 328C520 336 526 345 530 355C536 370 538 393 538 421C538 442 538 442 538 453C538 480 538 507 538 534C537 555 537 555 537 565C535 597 536 636 536 680C536 711 536 711 536 727C536 757 535 791 535 829C535 844 579 840 579 825Z"/><path id="z21400d8" d="M580 719C674 701 725 691 730 689C736 685 738 678 735 672C730 663 718 656 698 651C683 646 644 655 581 670C551 677 551 677 536 680C497 688 454 690 407 695C382 697 378 706 396 718C422 735 468 739 536 727C565 722 565 722 580 719Z"/><path id="z21400d9" d="M535 829C446 837 350 840 247 848C231 849 228 855 240 869C249 879 261 888 274 893C289 898 303 898 315 896C462 865 654 858 889 872C903 872 913 870 917 864C922 855 918 845 906 835C869 802 837 791 809 796C751 805 674 816 579 825C550 828 550 828 535 829Z"/></g>
<defs><clipPath id="z21400c1"><use href="#z21400d1"/></clipPath>
	<clipPath id="z21400c2"><use href="#z21400d2"/></clipPath>
	<clipPath id="z21400c3"><use href="#z21400d3"/></clipPath>
	<clipPath id="z21400c4"><use href="#z21400d4"/></clipPath>
	<clipPath id="z21400c5"><use href="#z21400d5"/></clipPath>
	<clipPath id="z21400c6"><use href="#z21400d6"/></clipPath>
	<clipPath id="z21400c7"><use href="#z21400d7"/></clipPath>
	<clipPath id="z21400c8"><use href="#z21400d8"/></clipPath>
	<clipPath id="z21400c9"><use href="#z21400d9"/></clipPath><marker id="guide-arrow" viewBox="0 0 16 16" refX="5" refY="5" markerWidth="4" markerHeight="4" orient="auto-start-reverse"><path d="M 0 0 L 10 5 L 0 10 z" fill="inherit"/></marker></defs>
<g class="strokes"><path pathLength="3333" clip-path="url(#z21400c1)" d="M339 170L406 180L787 132"/><path pathLength="3333" clip-path="url(#z21400c2)" d="M249 134L290 166L296 202L248 514L165 715L52 864"/><path pathLength="3333" clip-path="url(#z21400c3)" d="M351 313L387 360L425 595"/><path pathLength="3333" clip-path="url(#z21400c4)" d="M403 320L701 281L761 302L777 326L697 577"/><path pathLength="3333" clip-path="url(#z21400c5)" d="M465 442L673 424"/><path pathLength="3333" clip-path="url(#z21400c6)" d="M448 565L671 535"/><path pathLength="3333" clip-path="url(#z21400c7)" d="M526 333L563 364L555 826"/><path pathLength="3333" clip-path="url(#z21400c8)" d="M392 704L465 712L729 675"/><path pathLength="3333" clip-path="url(#z21400c9)" d="M240 855L300 870L817 831L914 848"/></g>
<g class="guides"><text class="g1" style="--gs:1" x="339" y="170">①</text><path class="g1 aligned" style="--gs:1" d="M339,170 Q406,180 453.63,174 Q739.38,138 787,132"/><path class="g1 offset" style="--gs:1" d="M339,266 Q406,276 453.63,270 Q739.38,234 787,228"/><text class="g2" style="--gs:2" x="249" y="134">②</text><path class="g2 aligned" style="--gs:2" d="M249,134 Q290,166 293,184 Q296,202 272,358 Q248,514 206.5,614.5 Q165,715 108.5,789.5 Q108.5,789.5 52,864"/><path class="g2 offset" style="--gs:2" d="M153,134 Q177.87,161.79 179.69,177.42 Q181.51,193.06 166.95,328.54 Q152.39,464.03 127.22,551.31 Q102.05,638.59 67.78,703.3 Q67.78,703.3 33.51,768"/><text class="g3" style="--gs:3" x="351" y="313">③</text><path class="g3 aligned" style="--gs:3" d="M351,313 Q387,360 391.75,389.38 Q420.25,565.63 425,595"/><path class="g3 offset" style="--gs:3" d="M436.68,244.46 Q472.68,291.46 477.43,320.83 Q505.93,497.08 510.68,526.46"/><text class="g4" style="--gs:4" x="403" y="320">④</text><path class="g4 aligned" style="--gs:4" d="M403,320 Q701,281 731,291.5 Q761,302 769,314 Q777,326 737,451.5 Q737,451.5 697,577"/><path class="g4 offset" style="--gs:4" d="M403,416 Q605.39,377 625.76,387.5 Q646.13,398 651.57,402.7 Q657,407.41 629.83,492.2 Q629.83,492.2 602.67,577"/><text class="g5" style="--gs:5" x="465" y="442">⑤</text><path class="g5 aligned" style="--gs:5" d="M465,442 L673,424"/><path class="g5 offset" style="--gs:5" d="M465,538 L673,520"/><text class="g6" style="--gs:6" x="448" y="565">⑥</text><path class="g6 aligned" style="--gs:6" d="M448,565 L671,535"/><path class="g6 offset" style="--gs:6" d="M448,661 L671,631"/><text class="g7" style="--gs:7" x="526" y="333">⑦</text><path class="g7 aligned" style="--gs:7" d="M526,333 Q563,364 562,421.75 Q556,768.25 555,826"/><path class="g7 offset" style="--gs:7" d="M430,333 Q467,364 466,421.75 Q460,768.25 459,826"/><text class="g8" style="--gs:8" x="392" y="704">⑧</text><path class="g8 aligned" style="--gs:8" d="M392,704 Q465,712 498,707.38 Q696,679.63 729,675"/><path class="g8 offset" style="--gs:8" d="M392,800 Q465,808 498,803.38 Q696,775.63 729,771"/><text class="g9" style="--gs:9" x="240" y="855">⑨</text><path class="g9 aligned" style="--gs:9" d="M240,855 Q300,870 429.25,860.25 Q817,831 841.25,835.25 Q889.75,843.75 914,848"/><path class="g9 offset" style="--gs:9" d="M240,951 Q300,966 429.25,956.25 Q817,927 841.25,931.25 Q889.75,939.75 914,944"/></g>
</svg>
