<svg id="z21407" class="acjk" viewBox="0 0 1024 1024" xmlns="http://www.w3.org/2000/svg">
<style>

@keyframes zk {
	to {
		stroke-dashoffset:0;
	}
}
svg.acjk path[clip-path] {
	--t:0.8s;
	animation:zk var(--t) linear forwards var(--d);
	stroke-dasharray:3337;
	stroke-dashoffset:3339;
	stroke-width:128;
	stroke-linecap:round;
	fill:none;
	stroke:#000;
}
svg.acjk path[id] {fill:#ccc;}


    @keyframes guide-fade {
        0% { opacity: 0; }
        3% { opacity: 1; }
        95% { opacity: 1; }
        100% { opacity: 0; }
    }

    svg.acjk #guide-arrow {
        fill: #f77;
    }

    svg.acjk .guides {
        circle {
            fill: #0f6;
        }

        path {
            opacity: 0;
            animation: guide-fade var(--t) linear forwards var(--d);
            stroke-width: 16px;
            stroke-linecap: round;
            stroke: #f77;
            fill: none;
            marker-end: url(#guide-arrow);
        }

        circle,
        path {
            --t: 0.8s;
            opacity: 0;
            animation: guide-fade calc(var(--t) + 0.4s) ease-in-out forwards calc(var(--d) - 0.2s);
        }
    }
</style>
<path id="z21407d1" d="M563 175C605 168 650 162 697 156C741 149 766 143 773 138C779 133 780 128 778 123C774 115 763 107 746 103C727 97 678 109 598 126C498 147 380 154 330 157C320 157 332 180 341 184C353 188 380 194 422 192C448 190 476 188 506 184C544 178 544 178 563 175Z"/>
<path id="z21407d2" d="M330 157C298 131 274 119 259 126C249 129 247 138 253 147C265 166 273 196 270 238C256 392 235 509 205 590C176 666 131 745 75 829C72 833 69 837 68 842C65 848 68 852 76 851C100 847 141 801 198 711C207 695 217 677 227 658C275 558 305 439 320 304C325 250 331 210 341 184C345 175 338 163 330 157Z"/>
<path id="z21407d3" d="M483 331Q570 220 582 211Q597 198 584 185Q575 179 563 175C545 168 499 166 506 184Q518 208 490 270Q477 301 462 335C459 342 479 337 483 331Z"/>
<path id="z21407d4" d="M418 342C404 335 390 330 376 327C372 326 368 327 366 330C361 334 362 338 368 345C389 370 406 422 417 501C422 538 428 566 456 577C463 579 475 564 474 555C475 547 472 539 471 531C469 520 460 487 455 461C452 446 452 446 450 438C444 413 442 391 441 373C441 360 430 348 418 342Z"/>
<path id="z21407d5" d="M652 536C662 548 671 557 681 563C687 567 696 563 706 549C714 535 724 490 742 417C746 396 757 377 773 362C781 353 782 345 774 337C764 326 745 312 717 296C706 289 680 296 637 303C609 307 558 316 483 331C469 334 469 334 462 335C446 338 431 339 418 342C405 344 428 376 441 373C491 359 558 346 642 336C660 333 673 335 679 342C685 349 689 358 688 367C677 453 665 499 651 505C642 510 646 528 652 536Z"/>
<path id="z21407d6" d="M455 461C459 461 463 461 469 461C527 451 579 443 624 437C638 435 642 430 637 423C630 414 619 407 605 405C591 402 539 414 450 438C443 440 447 461 455 461Z"/>
<path id="z21407d7" d="M578 544C602 541 627 537 652 536C662 536 661 505 651 505C639 503 580 511 471 531C463 533 466 555 474 555C487 555 520 549 539 548C565 545 565 545 578 544Z"/>
<path id="z21407d8" d="M539 548C555 580 561 657 554 777C553 783 550 789 550 794C548 804 537 810 518 808C495 804 472 798 448 796C439 795 435 799 435 804C434 808 437 813 445 818C496 852 530 880 550 900C560 910 572 911 580 909C586 906 593 893 602 870C611 846 614 815 612 773C608 700 607 650 611 624C614 595 612 573 599 561C591 553 584 548 578 544C567 537 534 536 539 548Z"/>
<path id="z21407d9" d="M374 649C352 684 329 718 303 748C286 766 283 788 291 814C294 826 303 830 318 823C356 803 378 764 391 710C395 688 401 670 398 653C396 646 392 642 388 642C382 641 376 644 374 649Z"/>
<path id="z21407d10" d="M702 671C736 702 775 737 816 782C827 795 837 804 848 807C854 808 859 803 865 797C872 787 872 769 863 739C850 699 797 666 702 639C695 637 691 638 691 647C690 655 694 664 702 671Z"/>
<defs>
	<clipPath id="z21407c1"><use href="#z21407d1"/></clipPath>
	<clipPath id="z21407c2"><use href="#z21407d2"/></clipPath>
	<clipPath id="z21407c3"><use href="#z21407d3"/></clipPath>
	<clipPath id="z21407c4"><use href="#z21407d4"/></clipPath>
	<clipPath id="z21407c5"><use href="#z21407d5"/></clipPath>
	<clipPath id="z21407c6"><use href="#z21407d6"/></clipPath>
	<clipPath id="z21407c7"><use href="#z21407d7"/></clipPath>
	<clipPath id="z21407c8"><use href="#z21407d8"/></clipPath>
	<clipPath id="z21407c9"><use href="#z21407d9"/></clipPath>
	<clipPath id="z21407c10"><use href="#z21407d10"/></clipPath>
<marker id="guide-arrow" viewBox="0 0 16 16" refX="5" refY="5" markerWidth="4" markerHeight="4" orient="auto-start-reverse"><path d="M 0 0 L 10 5 L 0 10 z" fill="inherit"/></marker></defs>
<path style="--d:1s;" pathLength="3333" clip-path="url(#z21407c1)" d="M338 160L415 171L775 128"/>
<path style="--d:2s;" pathLength="3333" clip-path="url(#z21407c2)" d="M256 134L304 193L252 521L178 701L75 842"/>
<path style="--d:3s;" pathLength="3333" clip-path="url(#z21407c3)" d="M520 191L548 206L471 328"/>
<path style="--d:4s;" pathLength="3333" clip-path="url(#z21407c4)" d="M370 334L415 381L456 573"/>
<path style="--d:5s;" pathLength="3333" clip-path="url(#z21407c5)" d="M429 346L667 315L721 338L733 360L675 558"/>
<path style="--d:6s;" pathLength="3333" clip-path="url(#z21407c6)" d="M458 445L633 426"/>
<path style="--d:7s;" pathLength="3333" clip-path="url(#z21407c7)" d="M479 538L647 514"/>
<path style="--d:8s;" pathLength="3333" clip-path="url(#z21407c8)" d="M549 554L583 606L580 818L558 859L440 805"/>
<path style="--d:9s;" pathLength="3333" clip-path="url(#z21407c9)" d="M388 646L303 821"/>
<path style="--d:10s;" pathLength="3333" clip-path="url(#z21407c10)" d="M698 645L814 728L846 803"/>
<g class="guides"><circle style="--d: 1s" class="g1" cx="338" cy="160" r="16"/><path style="--d: 1s;" class="g1" d="M338,256 Q415,267 460,261.625 Q730,229.375 775,224"/><circle style="--d: 2s" class="g2" cx="256" cy="134" r="16"/><path style="--d: 2s;" class="g2" d="M160,134 Q187.87772925764193,185 172.7772925764192,326.7627118644068 Q157.6768558951965,468.52542372881356 136.1877729257642,546.3220338983051 Q114.69868995633186,624.1186440677966 84.7882096069869,685.0593220338983 Q84.7882096069869,685.0593220338983 54.87772925764193,746"/><circle style="--d: 3s" class="g3" cx="534" cy="199" r="16"/><path style="--d: 3s;" class="g3" d="M654,199 L591,328"/><circle style="--d: 4s" class="g4" cx="370" cy="334" r="16"/><path style="--d: 4s;" class="g4" d="M455.68,265.456 Q500.68,312.456 505.805,336.456 Q536.555,480.456 541.68,504.456"/><circle style="--d: 5s" class="g5" cx="429" cy="346" r="16"/><path style="--d: 5s;" class="g5" d="M429,442 Q573.0526315789474,411 589.3947368421052,422.5 Q605.7368421052631,434 609.3684210526316,436.1111111111111 Q613,438.22222222222223 595.4473684210526,498.1111111111111 Q595.4473684210526,498.1111111111111 577.8947368421052,558"/><circle style="--d: 6s" class="g6" cx="458" cy="445" r="16"/><path style="--d: 6s;" class="g6" d="M458,541 L633,522"/><circle style="--d: 7s" class="g7" cx="479" cy="538" r="16"/><path style="--d: 7s;" class="g7" d="M479,634 L647,610"/><circle style="--d: 8s" class="g8" cx="549" cy="554" r="16"/><path style="--d: 8s;" class="g8" d="M453,554 Q470,589.6327868852459 469.25,662.2688524590164 Q468.5,734.9049180327869 463,748.9524590163935 Q457.5,763 428,744.4983606557378 Q428,744.4983606557378 398.5,725.9967213114754"/><circle style="--d: 9s" class="g9" cx="388" cy="646" r="16"/><path style="--d: 9s;" class="g9" d="M508,646 L423,821"/><circle style="--d: 10s" class="g10" cx="698" cy="645" r="16"/><path style="--d: 10s;" class="g10" d="M783.68,576.456 Q899.68,659.456 903.68,668.831 Q927.68,725.081 931.68,734.456"/></g></svg>