<!--
  Stroke-order data for 厭, derived from AnimCJK (https://github.com/parsimonhi/animCJK),
  itself derived from the Arphic PL KaitiM fonts. Distributed under the Arphic Public License
  (see ARPHICPL.TXT). Regenerated by scripts/build-strokes.ts — do not edit by hand.
-->
<svg id="z21421" class="acjk" viewBox="0 0 1024 1024" xmlns="http://www.w3.org/2000/svg">
<g class="glyph"><path id="z21421d1" d="M303 178Q345 200 395 190Q537 168 684 146Q751 133 761 125Q771 118 766 108Q759 95 731 87Q700 80 595 109Q459 136 411 143Q294 152 293 154C284 155 295 174 303 178Z"/><path id="z21421d2" d="M293 154Q277 139 251 129Q232 119 218 124Q206 131 213 145Q232 175 234 240Q233 258 233 280Q227 463 179 615Q140 723 50 873Q46 880 43 886Q42 896 52 894Q88 888 174 743Q187 716 202 686Q268 530 289 264Q292 210 303 178C306 170 300 159 293 154Z"/><path id="z21421d3" d="M345 275Q336 269 313 263Q303 259 300 263Q296 267 300 280Q319 338 324 427Q323 454 336 474Q348 492 354 480Q357 473 359 460C360 447 360 447 360 440Q360 430 356 378C355 363 355 363 355 355Q352 316 352 301C352 292 353 279 345 275Z"/><path id="z21421d4" d="M457 449Q472 468 486 474Q495 480 506 461Q516 442 533 333Q539 308 556 287Q566 277 556 265Q543 252 507 234Q498 231 372 266Q354 269 345 275C337 280 344 304 352 301Q389 286 457 272Q470 269 478 273Q490 280 488 296Q476 404 465 422C462 431 451 441 457 449Z"/><path id="z21421d5" d="M356 378Q359 375 451 356Q469 352 461 342Q452 332 432 330Q404 327 355 355C349 360 349 381 356 378Z"/><path id="z21421d6" d="M359 460Q363 461 370 460Q419 453 457 449C466 447 474 425 465 422Q464 421 457 419Q430 415 360 440C354 442 352 460 359 460Z"/><path id="z21421d7" d="M321 711Q322 680 326 657C328 640 328 640 329 631Q333 579 337 563Q337 560 337 559C337 550 334 540 327 534Q309 516 284 518Q272 521 277 531Q313 624 269 774Q242 837 266 872Q272 884 281 879Q317 852 318 744Q318 741 319 738C320 720 320 720 321 711Z"/><path id="z21421d8" d="M337 559Q346 559 426 542Q439 539 447 547Q451 551 452 570Q455 711 447 796Q446 821 437 831Q434 832 377 825Q359 821 361 828Q404 867 429 895Q439 911 453 916Q460 920 468 911Q504 869 504 824Q491 596 511 560Q521 544 512 535Q496 519 464 504Q449 497 437 502Q395 526 327 534C318 535 328 559 337 559Z"/><path id="z21421d9" d="M326 657Q327 657 331 657Q377 647 411 641Q430 637 422 626Q412 616 390 613Q348 613 329 631C323 637 317 657 326 657Z"/><path id="z21421d10" d="M319 738Q371 728 410 721Q429 717 421 706Q411 696 390 692Q357 689 321 711C313 716 310 740 319 738Z"/><path id="z21421d11" d="M691 498Q841 462 844 459Q853 449 848 441Q839 428 808 421Q775 417 743 430Q719 437 694 446C665 454 665 454 650 458Q610 467 565 472Q526 479 555 497Q592 518 648 509C677 502 677 502 691 498Z"/><path id="z21421d12" d="M688 542Q688 538 689 536C690 511 690 511 691 498C693 463 693 463 694 446Q695 320 719 268Q725 255 715 244Q694 228 658 217Q634 211 626 218Q619 224 625 236Q647 269 649 313Q653 386 650 458C649 492 649 492 648 509Q635 686 585 752Q561 782 522 814Q512 821 512 826Q513 830 524 829Q534 832 559 819Q641 786 672 665Q679 631 684 588C687 557 687 557 688 542Z"/><path id="z21421d13" d="M684 588Q762 751 816 832Q832 859 853 861Q911 862 962 863Q984 864 984 859Q987 853 964 837Q844 767 796 702Q736 630 688 542C680 529 678 574 684 588Z"/><path id="z21421d14" d="M791 307Q812 329 833 356Q846 371 863 372Q873 373 881 359Q887 344 881 312Q875 284 791 256Q775 252 768 253Q762 257 763 270Q766 282 791 307Z"/></g>
<defs><clipPath id="z21421c1"><use href="#z21421d1"/></clipPath>
	<clipPath id="z21421c2"><use href="#z21421d2"/></clipPath>
	<clipPath id="z21421c3"><use href="#z21421d3"/></clipPath>
	<clipPath id="z21421c4"><use href="#z21421d4"/></clipPath>
	<clipPath id="z21421c5"><use href="#z21421d5"/></clipPath>
	<clipPath id="z21421c6"><use href="#z21421d6"/></clipPath>
	<clipPath id="z21421c7"><use href="#z21421d7"/></clipPath>
	<clipPath id="z21421c8"><use href="#z21421d8"/></clipPath>
	<clipPath id="z21421c9"><use href="#z21421d9"/></clipPath>
	<clipPath id="z21421c10"><use href="#z21421d10"/></clipPath>
	<clipPath id="z21421c11"><use href="#z21421d11"/></clipPath>
	<clipPath id="z21421c12"><use href="#z21421d12"/></clipPath>
	<clipPath id="z21421c13"><use href="#z21421d13"/></clipPath>
	<clipPath id="z21421c14"><use href="#z21421d14"/></clipPath><marker id="guide-arrow" viewBox="0 0 16 16" refX="5" refY="5" markerWidth="4" markerHeight="4" orient="auto-start-reverse"><path d="M 0 0 L 10 5 L 0 10 z" fill="inherit"/></marker></defs>
<g class="strokes"><path pathLength="3333" clip-path="url(#z21421c1)" d="M297 158L404 166L762 111"/><path pathLength="3333" clip-path="url(#z21421c2)" d="M219 130L266 179L226 533L150 740L50 888"/><path pathLength="3333" clip-path="url(#z21421c3)" d="M306 266L329 295L345 477"/><path pathLength="3333" clip-path="url(#z21421c4)" d="M345 287L482 254L522 276L476 466"/><path pathLength="3333" clip-path="url(#z21421c5)" d="M359 367L453 344"/><path pathLength="3333" clip-path="url(#z21421c6)" d="M361 452L465 433"/><path pathLength="3333" clip-path="url(#z21421c7)" d="M283 525L310 554L312 612L274 873"/><path pathLength="3333" clip-path="url(#z21421c8)" d="M331 540L443 521L483 551L466 851L443 873L372 827"/><path pathLength="3333" clip-path="url(#z21421c9)" d="M326 649L417 629"/><path pathLength="3333" clip-path="url(#z21421c10)" d="M320 729L416 708"/><path pathLength="3333" clip-path="url(#z21421c11)" d="M551 483L846 450"/><path pathLength="3333" clip-path="url(#z21421c12)" d="M630 224L683 271L656 628L609 754L521 822"/><path pathLength="3333" clip-path="url(#z21421c13)" d="M686 547L841 801L974 854"/><path pathLength="3333" clip-path="url(#z21421c14)" d="M771 259L871 364"/></g>
<g class="guides"><text class="g1" style="--gs:1" x="297" y="158">①</text><path class="g1 aligned" style="--gs:1" d="M297,158 Q404,166 448.75,159.13 Q717.25,117.88 762,111"/><path class="g1 offset" style="--gs:1" d="M297,254 Q404,262 448.75,255.13 Q717.25,213.88 762,207"/><text class="g2" style="--gs:2" x="219" y="130">②</text><path class="g2 aligned" style="--gs:2" d="M219,130 Q266,179 246,356 Q226,533 188,636.5 Q150,740 100,814 Q100,814 50,888"/><path class="g2 offset" style="--gs:2" d="M123,130 Q149.11,172.79 138,327.38 Q126.89,481.96 105.78,572.35 Q84.67,662.74 56.89,727.37 Q56.89,727.37 29.11,792"/><text class="g3" style="--gs:3" x="306" y="266">③</text><path class="g3 aligned" style="--gs:3" d="M318,281 L345,477"/><path class="g3 offset" style="--gs:3" d="M438,281 L465,477"/><text class="g4" style="--gs:4" x="345" y="287">④</text><path class="g4 aligned" style="--gs:4" d="M345,287 Q482,254 492,259.5 Q522,276 510.5,323.5 Q487.5,418.5 476,466"/><path class="g4 offset" style="--gs:4" d="M345,383 Q413.5,350 418.5,355.5 Q433.5,372 427.75,395.5 Q416.25,442.5 410.5,466"/><text class="g5" style="--gs:5" x="359" y="367">⑤</text><path class="g5 aligned" style="--gs:5" d="M359,367 L453,344"/><path class="g5 offset" style="--gs:5" d="M359,463 L453,440"/><text class="g6" style="--gs:6" x="361" y="452">⑥</text><path class="g6 aligned" style="--gs:6" d="M361,452 L465,433"/><path class="g6 offset" style="--gs:6" d="M361,548 L465,529"/><text class="g7" style="--gs:7" x="283" y="525">⑦</text><path class="g7 aligned" style="--gs:7" d="M297,540 Q312,612 307.25,644.63 Q278.75,840.38 274,873"/><path class="g7 offset" style="--gs:7" d="M417,540 Q432,612 427.25,644.63 Q398.75,840.38 394,873"/><text class="g8" style="--gs:8" x="331" y="540">⑧</text><path class="g8 aligned" style="--gs:8" d="M331,540 Q443,521 463,536 Q483,551 474.5,701 Q466,851 454.5,862 Q443,873 407.5,850 Q407.5,850 372,827"/><path class="g8 offset" style="--gs:8" d="M331,636 Q387,617 397,624.5 Q407,632 402.75,707 Q398.5,782 392.75,787.5 Q387,793 369.25,781.5 Q369.25,781.5 351.5,770"/><text class="g9" style="--gs:9" x="326" y="649">⑨</text><path class="g9 aligned" style="--gs:9" d="M326,649 L417,629"/><path class="g9 offset" style="--gs:9" d="M326,745 L417,725"/><text class="g10" style="--gs:10" x="320" y="729">⑩</text><path class="g10 aligned" style="--gs:10" d="M320,729 L416,708"/><path class="g10 offset" style="--gs:10" d="M320,825 L416,804"/><text class="g11" style="--gs:11" x="551" y="483">⑪</text><path class="g11 aligned" style="--gs:11" d="M551,483 L846,450"/><path class="g11 offset" style="--gs:11" d="M551,579 L846,546"/><text class="g12" style="--gs:12" x="630" y="224">⑫</text><path class="g12 aligned" style="--gs:12" d="M630,224 Q683,271 669.5,449.5 Q656,628 632.5,691 Q609,754 565,788 Q565,788 521,822"/><path class="g12 offset" style="--gs:12" d="M534,224 Q560.5,263.45 553.75,413.3 Q547,563.14 535.25,616.03 Q523.5,668.92 501.5,697.46 Q501.5,697.46 479.5,726"/><text class="g13" style="--gs:13" x="686" y="547">⑬</text><path class="g13 aligned" style="--gs:13" d="M686,547 Q841,801 857.63,807.63 Q957.38,847.38 974,854"/><path class="g13 offset" style="--gs:13" d="M771.68,478.46 Q880.57,709.74 892.25,715.77 Q962.32,751.97 974,758"/><text class="g14" style="--gs:14" x="771" y="259">⑭</text><path class="g14 aligned" style="--gs:14" d="M771,259 L871,364"/><path class="g14 offset" style="--gs:14" d="M856.68,190.46 L956.68,295.46"/></g>
</svg>
