<!--
  Stroke-order data for 厳, derived from AnimCJK (https://github.com/parsimonhi/animCJK),
  itself derived from the Arphic PL KaitiM fonts. Distributed under the Arphic Public License
  (see ARPHICPL.TXT). Regenerated by scripts/build-strokes.ts — do not edit by hand.
-->
<svg id="z21427" class="acjk" viewBox="0 0 1024 1024" xmlns="http://www.w3.org/2000/svg">
<g class="glyph"><path id="z21427d1" d="M304 217Q326 238 351 264Q364 277 380 278Q390 278 397 265Q403 251 395 223Q391 205 362 191Q301 163 280 168Q274 172 276 185Q279 194 304 217Z"/><path id="z21427d2" d="M437 140Q462 163 487 189Q500 202 516 202Q526 202 533 189Q537 175 530 147Q526 129 496 114Q426 86 412 92Q408 96 408 109Q411 118 437 140Z"/><path id="z21427d3" d="M587 290C651 213 695 162 732 132C741 124 746 120 742 114C736 104 725 95 710 87C693 77 678 72 663 75C652 76 650 84 654 97C656 105 657 116 653 127C633 171 602 225 558 296C553 304 581 298 587 290Z"/><path id="z21427d4" d="M308 368C334 372 364 372 400 368C612 328 727 306 745 301C751 299 755 296 758 294C764 289 765 284 762 279C757 272 748 259 730 260C705 260 669 272 587 290C568 294 568 294 558 296C454 317 374 331 304 339C294 341 298 366 308 368Z"/><path id="z21427d5" d="M271 522Q283 444 306 371Q307 370 308 368C313 360 311 346 304 339Q291 324 268 311Q252 299 238 303Q226 309 231 322Q246 349 238 412Q208 595 163 696Q118 789 37 891Q31 897 29 903Q25 913 36 912Q67 909 146 809Q162 785 180 758Q231 667 265 546C269 530 269 530 271 522Z"/><path id="z21427d6" d="M433 439C451 434 470 428 491 424C505 420 513 418 516 416C519 411 520 408 518 404C515 399 506 395 493 392C486 390 455 398 400 414C381 419 360 422 336 426C319 428 317 434 330 442C344 450 365 454 390 449C419 442 419 442 433 439Z"/><path id="z21427d7" d="M433 492C433 466 433 455 433 439C433 424 390 434 390 449C390 466 390 484 390 502C390 517 433 507 433 492Z"/><path id="z21427d8" d="M472 516C498 511 523 504 548 503C552 502 558 501 562 495C564 489 557 483 546 479C509 466 462 485 433 492C404 499 404 499 390 502C376 505 336 510 271 522C263 523 257 543 265 546C277 552 288 553 299 551C322 546 322 546 333 543C363 535 399 529 439 522C461 518 461 518 472 516Z"/><path id="z21427d9" d="M299 551C305 561 309 594 309 652C309 684 307 729 307 787C307 799 343 789 343 777C343 756 344 736 346 717C346 707 347 706 348 688C348 669 350 651 351 633C352 616 352 616 352 607C352 589 354 569 347 557C343 551 336 545 333 543C324 536 295 540 299 551Z"/><path id="z21427d10" d="M351 633C354 633 358 633 362 633C380 633 402 624 420 620C432 616 435 611 430 606C423 599 413 595 400 595C387 594 371 598 352 607C344 611 342 633 351 633Z"/><path id="z21427d11" d="M346 717C374 709 398 704 420 700C430 698 434 692 429 686C423 679 413 674 400 674C388 673 370 678 348 688C339 692 336 719 346 717Z"/><path id="z21427d12" d="M307 787C282 793 258 799 235 806C224 808 210 809 194 810C185 810 180 814 180 820C179 828 181 835 187 840C200 850 217 861 237 872C243 875 250 872 257 867C277 851 333 822 427 780C435 776 442 772 450 768C457 764 458 741 451 744C416 754 380 766 343 777C319 784 319 784 307 787Z"/><path id="z21427d13" d="M450 768C447 830 440 863 439 871C433 896 443 922 462 950C469 960 473 968 479 970C485 971 491 967 494 959C501 940 501 922 501 904C493 716 495 598 501 550C501 543 500 537 497 534C488 526 480 521 472 516C462 510 433 512 439 522C457 548 456 621 451 744C450 760 450 760 450 768Z"/><path id="z21427d14" d="M635 499Q680 412 689 403Q695 393 690 383Q686 373 660 357Q636 345 621 347Q606 351 615 368Q643 411 534 602Q527 612 526 617Q525 626 536 623Q539 623 572 589C581 578 581 578 585 573Q597 557 610 538Q614 531 621 522C630 507 630 507 635 499Z"/><path id="z21427d15" d="M747 511Q783 499 824 489Q852 480 857 476Q864 469 859 462Q852 452 827 448Q802 444 776 457Q745 470 709 481Q675 490 635 499C626 501 612 519 621 522Q663 534 703 523C732 515 732 515 747 511Z"/><path id="z21427d16" d="M728 705C753 664 759 616 769 570C771 557 773 547 777 543C780 538 781 534 778 528C775 523 765 517 747 511C733 505 697 509 703 523C713 552 712 630 693 669C681 693 681 693 675 705C655 744 617 766 586 786C567 796 544 807 516 820C501 826 502 830 520 832C568 834 621 816 677 773C683 768 695 755 704 743C720 718 720 718 728 705Z"/><path id="z21427d17" d="M704 743C758 814 798 850 819 853C868 858 914 857 956 855C976 853 986 850 985 844C984 841 975 835 956 828C851 785 789 768 728 705C705 681 705 681 693 669C674 650 657 630 640 609C621 586 603 575 585 573C578 572 566 585 572 589C594 603 627 642 675 705C694 730 694 730 704 743Z"/></g>
<defs><clipPath id="z21427c1"><use href="#z21427d1"/></clipPath>
	<clipPath id="z21427c2"><use href="#z21427d2"/></clipPath>
	<clipPath id="z21427c3"><use href="#z21427d3"/></clipPath>
	<clipPath id="z21427c4"><use href="#z21427d4"/></clipPath>
	<clipPath id="z21427c5"><use href="#z21427d5"/></clipPath>
	<clipPath id="z21427c6"><use href="#z21427d6"/></clipPath>
	<clipPath id="z21427c7"><use href="#z21427d7"/></clipPath>
	<clipPath id="z21427c8"><use href="#z21427d8"/></clipPath>
	<clipPath id="z21427c9"><use href="#z21427d9"/></clipPath>
	<clipPath id="z21427c10"><use href="#z21427d10"/></clipPath>
	<clipPath id="z21427c11"><use href="#z21427d11"/></clipPath>
	<clipPath id="z21427c12"><use href="#z21427d12"/></clipPath>
	<clipPath id="z21427c13"><use href="#z21427d13"/></clipPath>
	<clipPath id="z21427c14"><use href="#z21427d14"/></clipPath>
	<clipPath id="z21427c15"><use href="#z21427d15"/></clipPath>
	<clipPath id="z21427c16"><use href="#z21427d16"/></clipPath>
	<clipPath id="z21427c17"><use href="#z21427d17"/></clipPath><marker id="guide-arrow" viewBox="0 0 16 16" refX="5" refY="5" markerWidth="4" markerHeight="4" orient="auto-start-reverse"><path d="M 0 0 L 10 5 L 0 10 z" fill="inherit"/></marker></defs>
<g class="strokes"><path pathLength="3333" clip-path="url(#z21427c1)" d="M283 175L367 234L380 274"/><path pathLength="3333" clip-path="url(#z21427c2)" d="M416 101L526 192"/><path pathLength="3333" clip-path="url(#z21427c3)" d="M659 83L694 132L564 291"/><path pathLength="3333" clip-path="url(#z21427c4)" d="M311 344L384 349L759 280"/><path pathLength="3333" clip-path="url(#z21427c5)" d="M238 311L274 366L222 603L151 764L35 904"/><path pathLength="3333" clip-path="url(#z21427c6)" d="M329 433L513 406"/><path pathLength="3333" clip-path="url(#z21427c7)" d="M425 448L394 491"/><path pathLength="3333" clip-path="url(#z21427c8)" d="M271 542L552 490"/><path pathLength="3333" clip-path="url(#z21427c9)" d="M332 548L318 783"/><path pathLength="3333" clip-path="url(#z21427c10)" d="M355 625L425 610"/><path pathLength="3333" clip-path="url(#z21427c11)" d="M350 708L426 689"/><path pathLength="3333" clip-path="url(#z21427c12)" d="M183 821L246 838L446 751"/><path pathLength="3333" clip-path="url(#z21427c13)" d="M450 527L477 556L478 962"/><path pathLength="3333" clip-path="url(#z21427c14)" d="M617 354L655 396L533 616"/><path pathLength="3333" clip-path="url(#z21427c15)" d="M627 517L856 468"/><path pathLength="3333" clip-path="url(#z21427c16)" d="M710 532L744 557L693 718L610 793L516 827"/><path pathLength="3333" clip-path="url(#z21427c17)" d="M579 587L804 800L976 846"/></g>
<g class="guides"><text class="g1" style="--gs:1" x="283" y="175">①</text><path class="g1 aligned" style="--gs:1" d="M283,175 Q367,234 368.63,239 Q378.38,269 380,274"/><path class="g1 offset" style="--gs:1" d="M368.68,106.46 Q452.68,165.46 454.31,170.46 Q464.06,200.46 465.68,205.46"/><text class="g2" style="--gs:2" x="416" y="101">②</text><path class="g2 aligned" style="--gs:2" d="M416,101 L526,192"/><path class="g2 offset" style="--gs:2" d="M501.68,32.46 L611.68,123.46"/><text class="g3" style="--gs:3" x="659" y="83">③</text><path class="g3 aligned" style="--gs:3" d="M659,83 Q694,132 677.75,151.88 Q580.25,271.13 564,291"/><path class="g3 offset" style="--gs:3" d="M563,83 Q580.5,109.38 572.38,120.09 Q523.63,184.3 515.5,195"/><text class="g4" style="--gs:4" x="311" y="344">④</text><path class="g4 aligned" style="--gs:4" d="M311,344 Q384,349 430.88,340.38 Q712.13,288.63 759,280"/><path class="g4 offset" style="--gs:4" d="M311,440 Q384,445 430.88,436.38 Q712.13,384.63 759,376"/><text class="g5" style="--gs:5" x="238" y="311">⑤</text><path class="g5 aligned" style="--gs:5" d="M238,311 Q274,366 248,484.5 Q222,603 186.5,683.5 Q151,764 93,834 Q93,834 35,904"/><path class="g5 offset" style="--gs:5" d="M142,311 Q163.54,357.1 147.98,456.41 Q132.43,555.73 111.19,623.2 Q89.95,690.66 55.24,749.33 Q55.24,749.33 20.54,808"/><text class="g6" style="--gs:6" x="329" y="433">⑥</text><path class="g6 aligned" style="--gs:6" d="M329,433 L513,406"/><path class="g6 offset" style="--gs:6" d="M329,529 L513,502"/><text class="g7" style="--gs:7" x="425" y="448">⑦</text><path class="g7 aligned" style="--gs:7" d="M425,448 L394,491"/><path class="g7 offset" style="--gs:7" d="M510.68,516.54 L479.68,559.54"/><text class="g8" style="--gs:8" x="271" y="542">⑧</text><path class="g8 aligned" style="--gs:8" d="M271,542 L552,490"/><path class="g8 offset" style="--gs:8" d="M271,638 L552,586"/><text class="g9" style="--gs:9" x="332" y="548">⑨</text><path class="g9 aligned" style="--gs:9" d="M332,548 L318,783"/><path class="g9 offset" style="--gs:9" d="M452,548 L438,783"/><text class="g10" style="--gs:10" x="355" y="625">⑩</text><path class="g10 aligned" style="--gs:10" d="M355,625 L425,610"/><path class="g10 offset" style="--gs:10" d="M355,721 L425,706"/><text class="g11" style="--gs:11" x="350" y="708">⑪</text><path class="g11 aligned" style="--gs:11" d="M350,708 L426,689"/><path class="g11 offset" style="--gs:11" d="M350,804 L426,785"/><text class="g12" style="--gs:12" x="183" y="821">⑫</text><path class="g12 aligned" style="--gs:12" d="M183,821 Q246,838 271,827.13 Q421,761.88 446,751"/><path class="g12 offset" style="--gs:12" d="M183,917 Q246,934 271,923.13 Q421,857.88 446,847"/><text class="g13" style="--gs:13" x="450" y="527">⑬</text><path class="g13 aligned" style="--gs:13" d="M464,542 L478,962"/><path class="g13 offset" style="--gs:13" d="M584,542 L598,962"/><text class="g14" style="--gs:14" x="617" y="354">⑭</text><path class="g14 aligned" style="--gs:14" d="M617,354 Q655,396 639.75,423.5 Q548.25,588.5 533,616"/><path class="g14 offset" style="--gs:14" d="M521,354 Q559,396 543.75,423.5 Q452.25,588.5 437,616"/><text class="g15" style="--gs:15" x="627" y="517">⑮</text><path class="g15 aligned" style="--gs:15" d="M627,517 L856,468"/><path class="g15 offset" style="--gs:15" d="M627,613 L856,564"/><text class="g16" style="--gs:16" x="710" y="532">⑯</text><path class="g16 aligned" style="--gs:16" d="M710,532 Q744,557 718.5,637.5 Q693,718 651.5,755.5 Q610,793 563,810 Q563,810 516,827"/><path class="g16 offset" style="--gs:16" d="M614,532 Q633.68,548.86 618.92,603.17 Q604.16,657.47 580.13,682.77 Q556.11,708.06 528.89,719.53 Q528.89,719.53 501.68,731"/><text class="g17" style="--gs:17" x="579" y="587">⑰</text><path class="g17 aligned" style="--gs:17" d="M579,587 Q804,800 825.5,805.75 Q954.5,840.25 976,846"/><path class="g17 offset" style="--gs:17" d="M664.68,518.46 Q841.12,708.88 857.98,714.02 Q959.14,744.86 976,750"/></g>
</svg>
