<!--
  Stroke-order data for 及, derived from AnimCJK (https://github.com/parsimonhi/animCJK),
  itself derived from the Arphic PL KaitiM fonts. Distributed under the Arphic Public License
  (see ARPHICPL.TXT). Regenerated by scripts/build-strokes.ts — do not edit by hand.
-->
<svg id="z21450" class="acjk" viewBox="0 0 1024 1024" xmlns="http://www.w3.org/2000/svg">
<g class="glyph"><path style="--part:1" id="z21450d1" d="M376 215Q391 266 317 459Q314 463 313 468Q285 534 251 586Q197 665 83 781Q79 791 89 792Q126 795 235 688Q248 673 263 656Q315 589 358 505C366 488 366 488 370 480Q391 432 437 310Q443 294 452 278Q465 265 460 250Q447 228 419 206C409 196 373 201 376 215Z"/><path style="--part:1" id="z21450d2" d="M537 694Q429 787 290 836Q262 842 264 847Q265 860 339 843Q469 813 573 737C603 710 603 710 618 696Q687 620 712 521Q728 475 754 454Q758 450 758 440Q755 416 698 386Q676 377 648 390Q638 397 606 407Q572 416 600 361Q622 321 668 235Q684 210 702 199Q723 189 727 178Q731 163 686 136Q632 106 594 128Q422 183 259 188Q234 188 235 200Q236 210 269 223Q302 235 376 215C405 209 405 209 419 206Q483 193 584 175Q605 171 609 182Q615 203 559 337Q540 365 521 385Q505 403 513 420Q520 436 532 446Q542 453 550 453Q557 453 573 445Q582 439 609 434Q642 434 653 448Q663 461 648 505Q624 604 573 657C549 682 549 682 537 694Z"/><path style="--part:2" id="z21450d3" d="M358 505Q422 547 537 694C561 723 561 723 573 737Q624 792 685 849Q704 871 738 872Q840 876 922 866Q965 862 962 850Q961 844 919 830Q736 773 683 742Q647 720 618 696C588 670 588 670 573 657Q507 599 442 525Q405 483 370 480C361 478 351 499 358 505Z"/></g>
<defs><clipPath id="z21450c1"><use href="#z21450d1"/></clipPath>
	<clipPath id="z21450c2"><use href="#z21450d2"/></clipPath>
	<clipPath id="z21450c3"><use href="#z21450d3"/></clipPath><marker id="guide-arrow" viewBox="0 0 16 16" refX="5" refY="5" markerWidth="4" markerHeight="4" orient="auto-start-reverse"><path d="M 0 0 L 10 5 L 0 10 z" fill="inherit"/></marker></defs>
<g class="strokes"><path style="--part:1" pathLength="3333" clip-path="url(#z21450c1)" d="M382 218L417 266L317 524L212 677L92 785"/><path style="--part:1" pathLength="3333" clip-path="url(#z21450c2)" d="M241 198L312 206L636 152L674 185L550 410L566 428L671 417L707 452L646 605L558 713L417 800L273 846"/><path style="--part:2" pathLength="3333" clip-path="url(#z21450c3)" d="M365 502L418 528L706 806L955 852"/></g>
<g class="guides"><text class="g1" style="--gs:1" x="382" y="218">①</text><path class="g1 aligned" style="--gs:1" d="M382,218 Q417,266 367,395 Q317,524 264.5,600.5 Q212,677 152,731 Q152,731 92,785"/><path class="g1 offset" style="--gs:1" d="M286,218 Q310.66,257.87 275.43,365.03 Q240.2,472.19 203.21,535.74 Q166.22,599.29 123.94,644.14 Q123.94,644.14 81.66,689"/><text class="g2" style="--gs:2" x="241" y="198">②</text><path class="g2 aligned" style="--gs:2" d="M241,198 Q312,206 474,179 Q636,152 655,168.5 Q674,185 612,297.5 Q550,410 558,419 Q566,428 618.5,422.5 Q671,417 689,434.5 Q707,452 676.5,528.5 Q646,605 602,659 Q558,713 487.5,756.5 Q417,800 345,823 Q345,823 273,846"/><path class="g2 offset" style="--gs:2" d="M241,294 Q276.5,302 357.5,275 Q438.5,248 448,264.5 Q457.5,281 426.5,393.5 Q395.5,506 399.5,515 Q403.5,524 429.75,518.5 Q456,513 465,530.5 Q474,548 458.75,624.5 Q443.5,701 421.5,755 Q399.5,809 364.25,852.5 Q329,896 293,919 Q293,919 257,942"/><text class="g3" style="--gs:3" x="365" y="502">③</text><path class="g3 aligned" style="--gs:3" d="M365,502 Q418,528 490,597.5 Q706,806 768.25,817.5 Q892.75,840.5 955,852"/><path class="g3 offset" style="--gs:3" d="M365,598 Q418,624 490,693.5 Q706,902 768.25,913.5 Q892.75,936.5 955,948"/></g>
<g class="parts"><rect data-part="1" data-literal="乃" role="button" tabindex="0" aria-label="Part 乃" x="20" y="80" width="759" height="838"/><rect data-part="2" data-literal="㇏" role="button" tabindex="0" aria-label="Part ㇏" x="293" y="430" width="731" height="494"/></g>
</svg>
