<svg id="z21479" class="acjk" viewBox="0 0 1024 1024" xmlns="http://www.w3.org/2000/svg">
<style>

@keyframes zk {
	to {
		stroke-dashoffset:0;
	}
}
svg.acjk path[clip-path] {
	--t:0.8s;
	animation:zk var(--t) linear forwards var(--d);
	stroke-dasharray:3337;
	stroke-dashoffset:3339;
	stroke-width:128;
	stroke-linecap:round;
	fill:none;
	stroke:#000;
}
svg.acjk path[id] {fill:#ccc;}


    @keyframes guide-fade {
        0% { opacity: 0; }
        3% { opacity: 1; }
        95% { opacity: 1; }
        100% { opacity: 0; }
    }

    svg.acjk #guide-arrow {
        fill: #f77;
    }

    svg.acjk .guides {
        circle {
            fill: #0f6;
        }

        path {
            opacity: 0;
            animation: guide-fade var(--t) linear forwards var(--d);
            stroke-width: 16px;
            stroke-linecap: round;
            stroke: #f77;
            fill: none;
            marker-end: url(#guide-arrow);
        }

        circle,
        path {
            --t: 0.8s;
            opacity: 0;
            animation: guide-fade calc(var(--t) + 0.4s) ease-in-out forwards calc(var(--d) - 0.2s);
        }
    }
</style>
<path id="z21479d1" d="M381 154C372 149 355 146 330 145C321 143 315 144 313 148C308 152 309 160 317 172C339 210 359 263 377 329C381 347 389 363 401 377C415 391 424 393 427 382C427 376 428 369 429 363C431 351 425 338 425 326C426 308 399 214 395 191C392 178 393 159 381 154Z"/>
<path id="z21479d2" d="M697 293C721 237 746 203 768 186C783 173 785 155 773 144C724 99 681 83 651 94C575 120 486 142 381 154C368 156 382 193 395 191C399 191 475 179 625 152C641 149 653 149 660 157C665 163 668 172 666 185C658 221 648 253 639 282C633 301 690 311 697 293Z"/>
<path id="z21479d3" d="M515 350C563 342 627 333 706 327C714 326 719 322 720 315C720 310 712 303 697 293C680 283 658 276 639 282C585 298 486 316 425 326C413 328 417 365 429 363C429 363 457 359 472 357C501 352 501 352 515 350Z"/>
<path id="z21479d4" d="M502 501C562 486 619 475 673 468C695 465 708 467 713 475C720 489 719 512 713 546C693 639 673 748 648 788C633 810 617 820 598 815C571 807 547 795 524 785C507 777 501 787 516 802C553 839 584 868 604 895C617 913 633 913 650 901C673 883 696 860 714 830C734 794 754 678 772 566C778 527 787 496 803 478C812 466 816 458 811 451C804 442 781 427 740 408C724 400 708 403 693 412C668 426 609 440 517 461C431 482 337 493 258 498C243 498 234 503 232 511C229 517 240 524 260 536C281 548 299 553 317 548C357 535 398 525 439 516C481 506 481 506 502 501Z"/>
<path id="z21479d5" d="M439 516C384 656 300 774 163 891C158 895 157 900 162 902C167 904 175 902 183 899C293 844 392 734 435 664C484 581 496 519 502 501C510 481 447 496 439 516Z"/>
<defs>
	<clipPath id="z21479c1"><use href="#z21479d1"/></clipPath>
	<clipPath id="z21479c2"><use href="#z21479d2"/></clipPath>
	<clipPath id="z21479c3"><use href="#z21479d3"/></clipPath>
	<clipPath id="z21479c4"><use href="#z21479d4"/></clipPath>
	<clipPath id="z21479c5"><use href="#z21479d5"/></clipPath>
<marker id="guide-arrow" viewBox="0 0 16 16" refX="5" refY="5" markerWidth="4" markerHeight="4" orient="auto-start-reverse"><path d="M 0 0 L 10 5 L 0 10 z" fill="inherit"/></marker></defs>
<path style="--d:1s;" pathLength="3333" clip-path="url(#z21479c1)" d="M314 151L360 182L416 384"/>
<path style="--d:2s;" pathLength="3333" clip-path="url(#z21479c2)" d="M382 162L682 127L726 176L660 298"/>
<path style="--d:3s;" pathLength="3333" clip-path="url(#z21479c3)" d="M420 347L652 305L715 313"/>
<path style="--d:4s;" pathLength="3333" clip-path="url(#z21479c4)" d="M239 511L313 521L700 437L757 460L676 817L623 862L514 790"/>
<path style="--d:5s;" pathLength="3333" clip-path="url(#z21479c5)" d="M444 514L457 546L382 690L258 829L165 895"/>
<g class="guides"><circle style="--d: 1s" class="g1" cx="314" cy="151" r="16"/><path style="--d: 1s;" class="g1" d="M399.68,82.456 Q445.68,113.456 452.68,138.70600000000002 Q494.68,290.206 501.68,315.456"/><circle style="--d: 2s" class="g2" cx="382" cy="162" r="16"/><path style="--d: 2s;" class="g2" d="M382,258 Q577.3488372093024,223 584.5116279069767,229.125 Q606,247.5 595.2558139534883,262.75 Q573.7674418604652,293.25 563.0232558139535,308.5"/><circle style="--d: 3s" class="g3" cx="420" cy="347" r="16"/><path style="--d: 3s;" class="g3" d="M420,443 Q652,401 659.875,402 Q707.125,408 715,409"/><circle style="--d: 4s" class="g4" cx="239" cy="511" r="16"/><path style="--d: 4s;" class="g4" d="M239,607 Q299.2857142857143,575 456.9247104247104,554 Q614.5637065637065,533 637.7818532818533,544.5 Q661,556 628.0057915057915,639.5 Q595.0115830115831,723 573.4227799227799,734.25 Q551.8339768339769,745.5 507.434362934363,727.5 Q507.434362934363,727.5 463.03474903474904,709.5"/><circle style="--d: 5s" class="g5" cx="451" cy="530" r="16"/><path style="--d: 5s;" class="g5" d="M355,530 Q314.95104895104896,647.9178082191781 296.958041958042,673.5280821917809 Q242.97902097902096,750.358904109589 229.4842657342657,762.5191780821917 Q202.49475524475525,786.8397260273973 189,799"/></g></svg>