<!--
  Stroke-order data for 叩, derived from AnimCJK (https://github.com/parsimonhi/animCJK),
  itself derived from the Arphic PL KaitiM fonts. Distributed under the Arphic Public License
  (see ARPHICPL.TXT). Regenerated by scripts/build-strokes.ts — do not edit by hand.
-->
<svg id="z21481" class="acjk" viewBox="0 0 1024 1024" xmlns="http://www.w3.org/2000/svg">
<g class="glyph"><path id="z21481d1" d="M219 238Q206 231 171 222Q158 218 153 223Q146 229 154 247Q184 320 195 438Q196 474 215 498Q233 523 240 507Q247 489 247 459C245 435 245 435 244 423Q229 302 229 268C229 257 228 243 219 238Z"/><path id="z21481d2" d="M402 393Q418 291 446 259Q470 231 444 216Q422 204 393 186Q372 176 328 202Q283 221 219 238C209 240 219 271 229 268Q256 259 327 243Q354 236 361 247Q370 254 347 394C343 412 398 411 402 393Z"/><path id="z21481d3" d="M247 459Q256 449 418 427Q428 426 429 416Q429 409 402 393C386 384 365 390 347 394Q290 410 244 423C233 427 237 466 247 459Z"/><path id="z21481d4" d="M629 244Q635 243 642 241Q718 213 774 200Q787 197 790 201Q803 217 798 264Q792 391 765 449Q749 486 717 482Q686 475 657 466Q629 459 650 484Q705 530 732 566Q757 588 776 567Q809 540 830 494Q855 440 863 280Q866 223 884 194Q896 179 889 168Q879 158 821 137Q799 130 779 145Q746 170 610 204C595 206 615 247 629 244Z"/><path id="z21481d5" d="M560 887Q566 915 573 925Q579 932 587 930Q603 921 610 856Q614 808 616 560Q616 316 629 244C631 229 623 212 610 204Q582 185 567 182Q554 178 536 187Q526 196 535 207Q539 217 547 228Q560 253 561 290Q564 444 557 686Q554 837 560 887Z"/></g>
<defs><clipPath id="z21481c1"><use href="#z21481d1"/></clipPath>
	<clipPath id="z21481c2"><use href="#z21481d2"/></clipPath>
	<clipPath id="z21481c3"><use href="#z21481d3"/></clipPath>
	<clipPath id="z21481c4"><use href="#z21481d4"/></clipPath>
	<clipPath id="z21481c5"><use href="#z21481d5"/></clipPath><marker id="guide-arrow" viewBox="0 0 16 16" refX="5" refY="5" markerWidth="4" markerHeight="4" orient="auto-start-reverse"><path d="M 0 0 L 10 5 L 0 10 z" fill="inherit"/></marker></defs>
<g class="strokes"><path pathLength="3333" clip-path="url(#z21481c1)" d="M157 228L196 265L227 508"/><path pathLength="3333" clip-path="url(#z21481c2)" d="M218 249L351 215L405 235L370 405"/><path pathLength="3333" clip-path="url(#z21481c3)" d="M241 452L332 418L421 414"/><path pathLength="3333" clip-path="url(#z21481c4)" d="M612 213L801 168L844 198L787 491L741 528L649 473"/><path pathLength="3333" clip-path="url(#z21481c5)" d="M539 194L593 246L584 926"/></g>
<g class="guides"><text class="g1" style="--gs:1" x="157" y="228">①</text><path class="g1 aligned" style="--gs:1" d="M157,228 Q196,265 199.88,295.38 Q223.13,477.63 227,508"/><path class="g1 offset" style="--gs:1" d="M242.68,159.46 Q281.68,196.46 285.56,226.83 Q308.81,409.08 312.68,439.46"/><text class="g2" style="--gs:2" x="218" y="249">②</text><path class="g2 aligned" style="--gs:2" d="M218,249 Q351,215 364.5,220 Q405,235 396.25,277.5 Q378.75,362.5 370,405"/><path class="g2 offset" style="--gs:2" d="M218,345 Q284.5,311 291.25,316 Q311.5,331 307.13,349.75 Q298.38,387.25 294,406"/><text class="g3" style="--gs:3" x="241" y="452">③</text><path class="g3 aligned" style="--gs:3" d="M241,452 Q332,418 343.13,417.5 Q409.88,414.5 421,414"/><path class="g3 offset" style="--gs:3" d="M241,548 Q332,514 343.13,513.5 Q409.88,510.5 421,510"/><text class="g4" style="--gs:4" x="612" y="213">④</text><path class="g4 aligned" style="--gs:4" d="M612,213 Q801,168 822.5,183 Q844,198 815.5,344.5 Q787,491 764,509.5 Q741,528 695,500.5 Q695,500.5 649,473"/><path class="g4 offset" style="--gs:4" d="M612,309 Q722.79,264 735.4,279 Q748,294 731.29,359.75 Q714.59,425.5 701.1,434.75 Q687.62,444 660.66,430.25 Q660.66,430.25 633.69,416.5"/><text class="g5" style="--gs:5" x="539" y="194">⑤</text><path class="g5 aligned" style="--gs:5" d="M539,194 Q593,246 591.88,331 Q585.13,841 584,926"/><path class="g5 offset" style="--gs:5" d="M443,194 Q497,246 495.88,331 Q489.13,841 488,926"/></g>
</svg>
