<svg id="z21482" class="acjk" viewBox="0 0 1024 1024" xmlns="http://www.w3.org/2000/svg">
<style>

@keyframes zk {
	to {
		stroke-dashoffset:0;
	}
}
svg.acjk path[clip-path] {
	--t:0.8s;
	animation:zk var(--t) linear forwards var(--d);
	stroke-dasharray:3337;
	stroke-dashoffset:3339;
	stroke-width:128;
	stroke-linecap:round;
	fill:none;
	stroke:#000;
}
svg.acjk path[id] {fill:#ccc;}


    @keyframes guide-fade {
        0% { opacity: 0; }
        3% { opacity: 1; }
        95% { opacity: 1; }
        100% { opacity: 0; }
    }

    svg.acjk #guide-arrow {
        fill: #f77;
    }

    svg.acjk .guides {
        circle {
            fill: #0f6;
        }

        path {
            opacity: 0;
            animation: guide-fade var(--t) linear forwards var(--d);
            stroke-width: 16px;
            stroke-linecap: round;
            stroke: #f77;
            fill: none;
            marker-end: url(#guide-arrow);
        }

        circle,
        path {
            --t: 0.8s;
            opacity: 0;
            animation: guide-fade calc(var(--t) + 0.4s) ease-in-out forwards calc(var(--d) - 0.2s);
        }
    }
</style>
<path id="z21482d1" d="M343 198C334 194 318 191 297 187C288 185 282 185 279 189C274 193 275 202 282 215C307 266 327 334 340 419C343 444 351 466 365 483C379 499 388 502 392 490C394 481 396 471 396 460C394 434 394 434 393 421C389 377 366 281 362 235C359 221 356 203 343 198Z"/>
<path id="z21482d2" d="M681 383C703 306 728 255 756 230C770 216 772 200 759 188C704 139 656 131 614 148C545 174 453 186 343 198C329 200 348 237 362 235C368 235 450 223 606 198C624 195 635 196 643 204C651 212 655 224 653 241C644 293 634 340 622 382C618 401 677 402 681 383Z"/>
<path id="z21482d3" d="M396 460C404 460 412 458 420 456C482 445 576 434 701 426C709 425 713 421 715 415C715 409 704 398 682 383C665 373 642 378 622 382C537 400 461 413 393 421C380 424 383 460 396 460Z"/>
<path id="z21482d4" d="M347 588C334 645 259 727 118 830C101 841 103 845 124 844C176 841 254 797 352 704C368 688 391 661 426 630C435 621 438 613 437 607C434 596 423 588 405 582C384 574 369 570 360 572C354 573 349 577 347 588Z"/>
<path id="z21482d5" d="M612 580C667 640 729 711 794 798C805 813 815 825 826 829C832 831 838 827 845 821C854 811 856 791 851 757C845 723 809 684 745 634C720 614 679 583 616 545C609 541 604 542 603 552C601 561 604 571 612 580Z"/>
<defs>
	<clipPath id="z21482c1"><use href="#z21482d1"/></clipPath>
	<clipPath id="z21482c2"><use href="#z21482d2"/></clipPath>
	<clipPath id="z21482c3"><use href="#z21482d3"/></clipPath>
	<clipPath id="z21482c4"><use href="#z21482d4"/></clipPath>
	<clipPath id="z21482c5"><use href="#z21482d5"/></clipPath>
<marker id="guide-arrow" viewBox="0 0 16 16" refX="5" refY="5" markerWidth="4" markerHeight="4" orient="auto-start-reverse"><path d="M 0 0 L 10 5 L 0 10 z" fill="inherit"/></marker></defs>
<path style="--d:1s;" pathLength="3333" clip-path="url(#z21482c1)" d="M283 193L331 245L381 490"/>
<path style="--d:2s;" pathLength="3333" clip-path="url(#z21482c2)" d="M344 205L636 169L682 183L712 218L636 393"/>
<path style="--d:3s;" pathLength="3333" clip-path="url(#z21482c3)" d="M388 444L709 409"/>
<path style="--d:4s;" pathLength="3333" clip-path="url(#z21482c4)" d="M357 579L385 618L332 680L215 784L115 837"/>
<path style="--d:5s;" pathLength="3333" clip-path="url(#z21482c5)" d="M611 554L778 713L838 822"/>
<g class="guides"><circle style="--d: 1s" class="g1" cx="283" cy="193" r="16"/><path style="--d: 1s;" class="g1" d="M368.68,124.456 Q416.68,176.45600000000002 422.93,207.08100000000002 Q460.43,390.831 466.68,421.456"/><circle style="--d: 2s" class="g2" cx="344" cy="205" r="16"/><path style="--d: 2s;" class="g2" d="M344,301 Q540.7826086956521,265 556.2826086956521,272 Q571.7826086956521,279 581.891304347826,286 Q592,293 566.391304347826,343 Q566.391304347826,343 540.7826086956521,393"/><circle style="--d: 3s" class="g3" cx="388" cy="444" r="16"/><path style="--d: 3s;" class="g3" d="M388,540 L709,505"/><circle style="--d: 4s" class="g4" cx="357" cy="579" r="16"/><path style="--d: 4s;" class="g4" d="M261,579 Q279.0444444444444,603.4883720930233 261.9666666666667,622.953488372093 Q244.8888888888889,642.4186046511628 207.1888888888889,675.0697674418604 Q169.48888888888888,707.7209302325582 137.26666666666665,724.3604651162791 Q137.26666666666665,724.3604651162791 105.04444444444445,741"/><circle style="--d: 5s" class="g5" cx="611" cy="554" r="16"/><path style="--d: 5s;" class="g5" d="M696.68,485.456 Q863.68,644.456 871.18,658.081 Q916.18,739.831 923.68,753.456"/></g></svg>