<svg id="z21487" class="acjk" viewBox="0 0 1024 1024" xmlns="http://www.w3.org/2000/svg">
<style>

@keyframes zk {
	to {
		stroke-dashoffset:0;
	}
}
svg.acjk path[clip-path] {
	--t:0.8s;
	animation:zk var(--t) linear forwards var(--d);
	stroke-dasharray:3337;
	stroke-dashoffset:3339;
	stroke-width:128;
	stroke-linecap:round;
	fill:none;
	stroke:#000;
}
svg.acjk path[id] {fill:#ccc;}


    @keyframes guide-fade {
        0% { opacity: 0; }
        3% { opacity: 1; }
        95% { opacity: 1; }
        100% { opacity: 0; }
    }

    svg.acjk #guide-arrow {
        fill: #f77;
    }

    svg.acjk .guides {
        circle {
            fill: #0f6;
        }

        path {
            opacity: 0;
            animation: guide-fade var(--t) linear forwards var(--d);
            stroke-width: 16px;
            stroke-linecap: round;
            stroke: #f77;
            fill: none;
            marker-end: url(#guide-arrow);
        }

        circle,
        path {
            --t: 0.8s;
            opacity: 0;
            animation: guide-fade calc(var(--t) + 0.4s) ease-in-out forwards calc(var(--d) - 0.2s);
        }
    }
</style>
<path id="z21487d1" d="M686 196Q770 184 912 197Q937 200 943 190Q950 177 938 164Q907 136 861 116Q846 110 819 119Q728 140 493 169Q156 205 143 206Q136 205 129 206Q114 206 113 218Q112 231 132 246Q150 259 182 271Q194 275 212 266Q257 251 406 226Q478 214 620 201C664 198 664 198 686 196Z"/>
<path id="z21487d2" d="M293 364Q280 360 257 355Q244 351 241 357Q234 363 243 379Q270 437 285 533Q288 561 304 580Q322 602 327 587Q331 574 331 551C329 530 329 530 328 519Q313 423 311 395C311 383 305 366 293 364Z"/>
<path id="z21487d3" d="M498 494Q520 419 545 397Q570 369 545 351Q523 338 493 317Q472 304 430 328Q367 352 293 364C281 366 299 397 311 395Q320 394 331 392Q380 382 422 373Q450 367 457 379Q464 385 456 418Q449 452 439 491C436 510 494 513 498 494Z"/>
<path id="z21487d4" d="M331 551Q332 551 334 552Q344 555 359 551Q407 539 512 529Q524 528 524 518Q524 511 498 494C481 484 458 487 439 491Q378 509 328 519C317 521 320 549 331 551Z"/>
<path id="z21487d5" d="M578 794Q556 787 526 780Q513 776 512 784Q513 793 524 804Q591 865 634 913Q647 923 663 906Q711 843 707 754Q695 436 708 259Q715 228 708 215Q702 206 686 196C667 185 613 180 620 201Q629 222 637 324Q637 465 635 746Q634 783 622 796Q609 803 578 794Z"/>
<defs>
	<clipPath id="z21487c1"><use href="#z21487d1"/></clipPath>
	<clipPath id="z21487c2"><use href="#z21487d2"/></clipPath>
	<clipPath id="z21487c3"><use href="#z21487d3"/></clipPath>
	<clipPath id="z21487c4"><use href="#z21487d4"/></clipPath>
	<clipPath id="z21487c5"><use href="#z21487d5"/></clipPath>
<marker id="guide-arrow" viewBox="0 0 16 16" refX="5" refY="5" markerWidth="4" markerHeight="4" orient="auto-start-reverse"><path d="M 0 0 L 10 5 L 0 10 z" fill="inherit"/></marker></defs>
<path style="--d:1s;" pathLength="3333" clip-path="url(#z21487c1)" d="M117 216L190 237L848 153L941 175"/>
<path style="--d:2s;" pathLength="3333" clip-path="url(#z21487c2)" d="M246 358L283 403L319 587"/>
<path style="--d:3s;" pathLength="3333" clip-path="url(#z21487c3)" d="M303 367L456 343L494 361L508 384L458 491"/>
<path style="--d:4s;" pathLength="3333" clip-path="url(#z21487c4)" d="M339 545L446 513L514 518"/>
<path style="--d:5s;" pathLength="3333" clip-path="url(#z21487c5)" d="M629 206L670 239L669 784L629 865L517 788"/>
<g class="guides"><circle style="--d: 1s" class="g1" cx="117" cy="216" r="16"/><path style="--d: 1s;" class="g1" d="M117,312 Q190,333 354.5,312 Q848,249 871.25,254.5 Q917.75,265.5 941,271"/><circle style="--d: 2s" class="g2" cx="246" cy="358" r="16"/><path style="--d: 2s;" class="g2" d="M331.68,289.456 Q368.68,334.456 373.18,357.456 Q400.18,495.456 404.68,518.456"/><circle style="--d: 3s" class="g3" cx="303" cy="367" r="16"/><path style="--d: 3s;" class="g3" d="M303,463 Q379.5,439 389,448 Q398.5,457 402,458.25 Q405.5,459.5 393,486.25 Q393,486.25 380.5,513"/><circle style="--d: 4s" class="g4" cx="339" cy="545" r="16"/><path style="--d: 4s;" class="g4" d="M339,641 Q446,609 454.5,609.625 Q505.5,613.375 514,614"/><circle style="--d: 5s" class="g5" cx="629" cy="206" r="16"/><path style="--d: 5s;" class="g5" d="M533,206 Q553.5,234.1927162367223 553.25,466.9962063732929 Q553,699.7996965098635 543,734.3998482549317 Q533,769 505,736.108497723824 Q505,736.108497723824 477,703.216995447648"/></g></svg>