<!--
  Stroke-order data for 台, derived from AnimCJK (https://github.com/parsimonhi/animCJK),
  itself derived from the Arphic PL KaitiM fonts. Distributed under the Arphic Public License
  (see ARPHICPL.TXT). Regenerated by scripts/build-strokes.ts — do not edit by hand.
-->
<svg id="z21488" class="acjk" viewBox="0 0 1024 1024" xmlns="http://www.w3.org/2000/svg">
<g class="glyph"><path style="--part:1" id="z21488d1" d="M728 371C649 374 379 415 284 440C273 442 270 438 277 431C297 406 335 367 392 313C479 228 502 206 549 172C574 153 577 142 554 119C539 104 512 83 485 74C462 66 456 72 463 97C470 123 464 147 437 185C394 243 255 404 203 435C171 453 157 472 165 505C168 520 174 532 185 533C188 533 198 529 211 522C285 479 608 399 753 399C766 399 741 371 728 371Z"/><path style="--part:1" id="z21488d2" d="M753 399C769 416 787 436 806 458C841 498 858 457 851 420C840 369 789 324 677 269C651 256 643 267 651 281C658 294 678 315 728 371C745 390 745 390 753 399Z"/><path style="--part:2" id="z21488d3" d="M335 609C313 601 240 570 266 623C291 675 311 744 324 830C327 855 334 877 349 895C365 914 379 918 381 866C381 851 379 837 377 824C369 788 358 742 346 648C343 635 348 614 335 609Z"/><path style="--part:2" id="z21488d4" d="M686 795C706 719 734 670 765 642C779 628 779 611 768 599C757 587 716 564 686 551C672 544 657 545 642 551C566 577 463 596 335 609C322 612 333 651 346 648C369 644 545 616 611 609C625 607 670 598 662 657C655 705 643 748 631 788C625 806 682 813 686 795Z"/><path style="--part:2" id="z21488d5" d="M381 866C501 852 592 844 703 840C737 838 704 808 686 795C671 784 649 784 631 788C536 806 452 816 377 824C363 827 367 869 381 866Z"/></g>
<defs><clipPath id="z21488c1"><use href="#z21488d1"/></clipPath>
	<clipPath id="z21488c2"><use href="#z21488d2"/></clipPath>
	<clipPath id="z21488c3"><use href="#z21488d3"/></clipPath>
	<clipPath id="z21488c4"><use href="#z21488d4"/></clipPath>
	<clipPath id="z21488c5"><use href="#z21488d5"/></clipPath><marker id="guide-arrow" viewBox="0 0 16 16" refX="5" refY="5" markerWidth="4" markerHeight="4" orient="auto-start-reverse"><path d="M 0 0 L 10 5 L 0 10 z" fill="inherit"/></marker></defs>
<g class="strokes"><path style="--part:1" pathLength="3333" clip-path="url(#z21488c1)" d="M468 80L511 153L224 450L216 493L499 416L752 391"/><path style="--part:1" pathLength="3333" clip-path="url(#z21488c2)" d="M655 270L793 388L839 467"/><path style="--part:2" pathLength="3333" clip-path="url(#z21488c3)" d="M268 602L312 637L368 902"/><path style="--part:2" pathLength="3333" clip-path="url(#z21488c4)" d="M335 617L673 584L722 629L655 803"/><path style="--part:2" pathLength="3333" clip-path="url(#z21488c5)" d="M370 848L652 813L713 830"/></g>
<g class="guides"><text class="g1" style="--gs:1" x="468" y="80">①</text><path class="g1 aligned" style="--gs:1" d="M468,80 Q511,153 367.5,301.5 Q224,450 220,471.5 Q216,493 357.5,454.5 Q499,416 625.5,403.5 Q625.5,403.5 752,391"/><path class="g1 offset" style="--gs:1" d="M553.68,11.46 Q589.81,79.6 469.25,218.23 Q348.68,356.86 345.32,376.93 Q341.96,397 460.84,361.06 Q579.72,325.12 686,313.45 Q686,313.45 792.28,301.78"/><text class="g2" style="--gs:2" x="655" y="270">②</text><path class="g2 aligned" style="--gs:2" d="M655,270 Q793,388 798.75,397.88 Q833.25,457.13 839,467"/><path class="g2 offset" style="--gs:2" d="M740.68,201.46 Q878.68,319.46 884.43,329.33 Q918.93,388.58 924.68,398.46"/><text class="g3" style="--gs:3" x="268" y="602">③</text><path class="g3 aligned" style="--gs:3" d="M268,602 Q312,637 319,670.13 Q361,868.88 368,902"/><path class="g3 offset" style="--gs:3" d="M353.68,533.46 Q397.68,568.46 404.68,601.58 Q446.68,800.33 453.68,833.46"/><text class="g4" style="--gs:4" x="335" y="617">④</text><path class="g4 aligned" style="--gs:4" d="M335,617 Q673,584 685.25,595.25 Q722,629 705.25,672.5 Q671.75,759.5 655,803"/><path class="g4 offset" style="--gs:4" d="M335,713 Q568.19,680 576.65,686.32 Q602,705.27 590.44,729.71 Q567.33,778.57 555.78,803"/><text class="g5" style="--gs:5" x="370" y="848">⑤</text><path class="g5 aligned" style="--gs:5" d="M370,848 Q652,813 659.63,815.13 Q705.38,827.88 713,830"/><path class="g5 offset" style="--gs:5" d="M370,944 Q652,909 659.63,911.13 Q705.38,923.88 713,926"/></g>
<g class="parts"><rect data-part="1" data-literal="厶" role="button" tabindex="0" aria-label="Part 厶" x="144" y="8" width="767" height="557"/><rect data-part="2" data-literal="口" data-radical="true" role="button" tabindex="0" aria-label="Part 口 (radical)" x="196" y="512" width="598" height="462"/></g>
</svg>
