<svg id="z21519" class="acjk" viewBox="0 0 1024 1024" xmlns="http://www.w3.org/2000/svg">
<style>

@keyframes zk {
	to {
		stroke-dashoffset:0;
	}
}
svg.acjk path[clip-path] {
	--t:0.8s;
	animation:zk var(--t) linear forwards var(--d);
	stroke-dasharray:3337;
	stroke-dashoffset:3339;
	stroke-width:128;
	stroke-linecap:round;
	fill:none;
	stroke:#000;
}
svg.acjk path[id] {fill:#ccc;}


    @keyframes guide-fade {
        0% { opacity: 0; }
        3% { opacity: 1; }
        95% { opacity: 1; }
        100% { opacity: 0; }
    }

    svg.acjk #guide-arrow {
        fill: #f77;
    }

    svg.acjk .guides {
        circle {
            fill: #0f6;
        }

        path {
            opacity: 0;
            animation: guide-fade var(--t) linear forwards var(--d);
            stroke-width: 16px;
            stroke-linecap: round;
            stroke: #f77;
            fill: none;
            marker-end: url(#guide-arrow);
        }

        circle,
        path {
            --t: 0.8s;
            opacity: 0;
            animation: guide-fade calc(var(--t) + 0.4s) ease-in-out forwards calc(var(--d) - 0.2s);
        }
    }
</style>
<path id="z21519d1" d="M543 258Q601 248 664 239Q724 229 733 221Q743 214 738 204Q731 191 703 183Q672 176 641 185Q592 198 542 212C507 219 507 219 490 222Q411 235 320 239Q283 243 308 262Q350 286 424 275Q457 269 492 266C526 261 526 261 543 258Z"/>
<path id="z21519d2" d="M277 377Q259 377 257 380Q251 387 261 402Q289 448 311 524Q315 548 331 562Q350 581 354 566Q355 557 356 546C358 535 353 523 351 512Q335 442 330 416C326 394 299 377 277 377Z"/>
<path id="z21519d3" d="M703 480Q730 426 758 408Q777 389 763 370Q747 354 693 325Q674 316 651 323Q596 341 545 353C510 359 510 359 492 362Q348 383 277 377C255 377 308 420 330 416Q387 407 491 391C526 386 526 386 544 384Q578 377 613 373Q647 366 660 381Q667 388 665 403Q658 440 648 471C641 488 695 497 703 480Z"/>
<path id="z21519d4" d="M356 546Q366 549 382 548Q422 539 480 534C516 531 516 531 534 529Q610 520 713 516Q725 515 726 506Q727 499 703 480C688 469 666 468 648 471Q647 471 646 471Q591 481 538 491C502 496 502 496 484 499Q411 506 351 512C340 514 345 544 356 546Z"/>
<path id="z21519d5" d="M480 534Q471 607 440 666C425 689 425 689 417 701Q351 785 175 869Q162 873 158 878Q154 884 169 887Q227 887 351 822Q426 779 461 736C478 710 478 710 486 697Q513 651 534 529C537 504 537 504 538 491Q542 437 544 384C545 363 545 363 545 353Q544 317 543 258C542 227 542 227 542 212Q542 163 556 107Q560 95 551 88Q530 73 493 61Q471 54 454 60Q435 69 452 86Q483 113 486 144Q487 184 490 222C491 251 491 251 492 266Q493 315 492 362C491 381 491 381 491 391Q490 448 484 499C481 522 481 522 480 534Z"/>
<path id="z21519d6" d="M440 666Q332 591 314 588Q296 579 249 590Q236 593 235 601Q236 610 252 613Q309 613 385 676Q400 688 417 701C446 724 446 724 461 736Q521 782 557 816Q690 927 743 933Q794 927 877 911Q919 902 932 893Q954 883 933 876Q915 867 755 840Q682 828 486 697C455 676 455 676 440 666Z"/>
<defs>
	<clipPath id="z21519c1"><use href="#z21519d1"/></clipPath>
	<clipPath id="z21519c2"><use href="#z21519d2"/></clipPath>
	<clipPath id="z21519c3"><use href="#z21519d3"/></clipPath>
	<clipPath id="z21519c4"><use href="#z21519d4"/></clipPath>
	<clipPath id="z21519c5"><use href="#z21519d5"/></clipPath>
	<clipPath id="z21519c6"><use href="#z21519d6"/></clipPath>
<marker id="guide-arrow" viewBox="0 0 16 16" refX="5" refY="5" markerWidth="4" markerHeight="4" orient="auto-start-reverse"><path d="M 0 0 L 10 5 L 0 10 z" fill="inherit"/></marker></defs>
<path style="--d:1s;" pathLength="3333" clip-path="url(#z21519c1)" d="M309 251L734 208"/>
<path style="--d:2s;" pathLength="3333" clip-path="url(#z21519c2)" d="M262 382L305 429L346 564"/>
<path style="--d:3s;" pathLength="3333" clip-path="url(#z21519c3)" d="M287 380L340 396L670 350L716 389L674 474"/>
<path style="--d:4s;" pathLength="3333" clip-path="url(#z21519c4)" d="M359 520L648 495L720 507"/>
<path style="--d:5s;" pathLength="3333" clip-path="url(#z21519c5)" d="M450 71L519 113L516 430L485 629L404 755L287 832L164 880"/>
<path style="--d:6s;" pathLength="3333" clip-path="url(#z21519c6)" d="M239 600L342 623L711 874L936 881"/>
<g class="guides"><circle style="--d: 1s" class="g1" cx="309" cy="251" r="16"/><path style="--d: 1s;" class="g1" d="M309,347 L734,304"/><circle style="--d: 2s" class="g2" cx="262" cy="382" r="16"/><path style="--d: 2s;" class="g2" d="M347.68,313.456 Q390.68,360.456 395.805,377.331 Q426.555,478.581 431.68,495.456"/><circle style="--d: 3s" class="g3" cx="287" cy="380" r="16"/><path style="--d: 3s;" class="g3" d="M287,476 Q325.1748251748252,469 444.02097902097904,457.5 Q562.8671328671329,446 579.4335664335665,455.75 Q596,465.5 580.8741258741259,486.75 Q580.8741258741259,486.75 565.7482517482517,508"/><circle style="--d: 4s" class="g4" cx="359" cy="520" r="16"/><path style="--d: 4s;" class="g4" d="M359,616 Q648,591 657,592.5 Q711,601.5 720,603"/><circle style="--d: 5s" class="g5" cx="450" cy="71" r="16"/><path style="--d: 5s;" class="g5" d="M354,71 Q404.3408450704225,108.01606922126082 403.2464788732394,247.70766378244747 Q402.15211267605633,387.39925834363413 390.843661971831,475.09208899876387 Q379.53521126760563,562.7849196538937 349.987323943662,618.3090234857849 Q320.4394366197183,673.8331273176761 277.75915492957745,707.764524103832 Q235.07887323943663,741.6959208899876 190.20985915492957,762.8479604449938 Q190.20985915492957,762.8479604449938 145.34084507042252,784"/><circle style="--d: 6s" class="g6" cx="239" cy="600" r="16"/><path style="--d: 6s;" class="g6" d="M239,696 Q342,719 434.25,781.75 Q711,970 767.25,971.75 Q879.75,975.25 936,977"/></g></svg>