<svg id="z21578" class="acjk" viewBox="0 0 1024 1024" xmlns="http://www.w3.org/2000/svg">
<style>

@keyframes zk {
	to {
		stroke-dashoffset:0;
	}
}
svg.acjk path[clip-path] {
	--t:0.8s;
	animation:zk var(--t) linear forwards var(--d);
	stroke-dasharray:3337;
	stroke-dashoffset:3339;
	stroke-width:128;
	stroke-linecap:round;
	fill:none;
	stroke:#000;
}
svg.acjk path[id] {fill:#ccc;}


    @keyframes guide-fade {
        0% { opacity: 0; }
        3% { opacity: 1; }
        95% { opacity: 1; }
        100% { opacity: 0; }
    }

    svg.acjk #guide-arrow {
        fill: #f77;
    }

    svg.acjk .guides {
        circle {
            fill: #0f6;
        }

        path {
            opacity: 0;
            animation: guide-fade var(--t) linear forwards var(--d);
            stroke-width: 16px;
            stroke-linecap: round;
            stroke: #f77;
            fill: none;
            marker-end: url(#guide-arrow);
        }

        circle,
        path {
            --t: 0.8s;
            opacity: 0;
            animation: guide-fade calc(var(--t) + 0.4s) ease-in-out forwards calc(var(--d) - 0.2s);
        }
    }
</style>
<path id="z21578d1" d="M362 320C377 292 391 267 407 247C413 238 413 227 401 218C370 194 344 186 327 190C318 191 316 197 319 208C331 263 310 334 247 412C241 418 231 432 209 459C201 468 205 472 216 470C226 467 242 461 257 449C295 417 326 383 348 345C357 328 357 328 362 320Z"/>
<path id="z21578d2" d="M556 338C676 312 736 296 738 295C744 289 746 283 743 277C738 268 725 261 704 256C683 251 661 253 639 261C612 270 586 279 560 286C520 296 520 296 500 301C458 311 418 316 362 320C352 320 340 340 348 345C386 366 435 363 500 350C537 342 537 342 556 338Z"/>
<path id="z21578d3" d="M544 495C548 441 552 388 556 338C559 303 559 303 560 286C566 200 570 161 584 121C586 112 581 101 565 91C539 74 515 68 497 65C484 62 476 64 470 70C464 76 463 85 471 96C487 120 493 140 496 156C499 176 500 232 500 301C500 334 500 334 500 350C500 398 498 449 496 503C496 519 544 511 544 495Z"/>
<path id="z21578d4" d="M496 503C372 523 236 537 90 555C74 556 71 563 84 577C94 588 106 595 121 599C136 603 151 602 164 599C354 542 609 516 927 516C943 516 952 512 956 506C960 497 956 486 943 476C899 443 855 438 809 449C739 465 650 477 544 495C512 500 512 500 496 503Z"/>
<path id="z21578d5" d="M366 664C357 659 339 656 313 651C304 649 298 649 295 654C290 659 291 666 298 679C321 723 340 782 353 856C356 878 364 896 377 911C392 927 400 930 404 918C406 909 409 897 408 884C405 859 405 859 404 846C402 833 382 728 378 703C375 690 379 669 366 664Z"/>
<path id="z21578d6" d="M686 808C706 748 729 711 750 693C764 680 764 663 753 651C741 639 714 624 674 606C660 599 644 600 628 607C558 633 470 652 366 664C353 666 365 706 378 703C384 702 392 699 402 698C470 685 538 674 604 663C620 660 632 662 640 669C646 675 650 686 648 702C642 740 634 776 626 810C622 830 679 827 686 808Z"/>
<path id="z21578d7" d="M421 884C483 884 577 861 709 854C717 853 721 849 723 843C723 837 709 816 686 808C667 801 646 806 626 810C544 826 470 838 404 846C392 848 395 884 408 884C417 884 417 884 421 884Z"/>
<defs>
	<clipPath id="z21578c1"><use href="#z21578d1"/></clipPath>
	<clipPath id="z21578c2"><use href="#z21578d2"/></clipPath>
	<clipPath id="z21578c3"><use href="#z21578d3"/></clipPath>
	<clipPath id="z21578c4"><use href="#z21578d4"/></clipPath>
	<clipPath id="z21578c5"><use href="#z21578d5"/></clipPath>
	<clipPath id="z21578c6"><use href="#z21578d6"/></clipPath>
	<clipPath id="z21578c7"><use href="#z21578d7"/></clipPath>
<marker id="guide-arrow" viewBox="0 0 16 16" refX="5" refY="5" markerWidth="4" markerHeight="4" orient="auto-start-reverse"><path d="M 0 0 L 10 5 L 0 10 z" fill="inherit"/></marker></defs>
<path style="--d:1s;" pathLength="3333" clip-path="url(#z21578c1)" d="M326 198L366 241L296 381L214 464"/>
<path style="--d:2s;" pathLength="3333" clip-path="url(#z21578c2)" d="M349 338L738 277"/>
<path style="--d:3s;" pathLength="3333" clip-path="url(#z21578c3)" d="M472 74L539 132L517 509"/>
<path style="--d:4s;" pathLength="3333" clip-path="url(#z21578c4)" d="M83 565L149 574L822 481L951 487"/>
<path style="--d:5s;" pathLength="3333" clip-path="url(#z21578c5)" d="M300 657L342 691L397 919"/>
<path style="--d:6s;" pathLength="3333" clip-path="url(#z21578c6)" d="M365 676L663 640L707 678L647 821"/>
<path style="--d:7s;" pathLength="3333" clip-path="url(#z21578c7)" d="M399 866L652 832L717 841"/>
<g class="guides"><circle style="--d: 1s" class="g1" cx="326" cy="198" r="16"/><path style="--d: 1s;" class="g1" d="M230,198 Q250,225.4812030075188 241.25,247.84962406015035 Q215,314.9548872180451 204.75,328.2161654135338 Q184.25,354.7387218045113 174,368"/><circle style="--d: 2s" class="g2" cx="349" cy="338" r="16"/><path style="--d: 2s;" class="g2" d="M349,434 L738,373"/><circle style="--d: 3s" class="g3" cx="472" cy="74" r="16"/><path style="--d: 3s;" class="g3" d="M376,74 Q443,132 440.25,179.125 Q423.75,461.875 421,509"/><circle style="--d: 4s" class="g4" cx="83" cy="565" r="16"/><path style="--d: 4s;" class="g4" d="M83,661 Q149,670 317.25,646.75 Q822,577 854.25,578.5 Q918.75,581.5 951,583"/><circle style="--d: 5s" class="g5" cx="300" cy="657" r="16"/><path style="--d: 5s;" class="g5" d="M385.68,588.456 Q427.68,622.456 434.555,650.956 Q475.805,821.956 482.68,850.456"/><circle style="--d: 6s" class="g6" cx="365" cy="676" r="16"/><path style="--d: 6s;" class="g6" d="M365,772 Q558.438596491228,736 565.578947368421,740.75 Q587,755 577.2631578947369,772.875 Q557.7894736842105,808.625 548.0526315789474,826.5"/><circle style="--d: 7s" class="g7" cx="399" cy="866" r="16"/><path style="--d: 7s;" class="g7" d="M399,962 Q652,928 660.125,929.125 Q708.875,935.875 717,937"/></g></svg>