<svg id="z21754" class="acjk" viewBox="0 0 1024 1024" xmlns="http://www.w3.org/2000/svg">
<style>

@keyframes zk {
	to {
		stroke-dashoffset:0;
	}
}
svg.acjk path[clip-path] {
	--t:0.8s;
	animation:zk var(--t) linear forwards var(--d);
	stroke-dasharray:3337;
	stroke-dashoffset:3339;
	stroke-width:128;
	stroke-linecap:round;
	fill:none;
	stroke:#000;
}
svg.acjk path[id] {fill:#ccc;}


    @keyframes guide-fade {
        0% { opacity: 0; }
        3% { opacity: 1; }
        95% { opacity: 1; }
        100% { opacity: 0; }
    }

    svg.acjk #guide-arrow {
        fill: #f77;
    }

    svg.acjk .guides {
        circle {
            fill: #0f6;
        }

        path {
            opacity: 0;
            animation: guide-fade var(--t) linear forwards var(--d);
            stroke-width: 16px;
            stroke-linecap: round;
            stroke: #f77;
            fill: none;
            marker-end: url(#guide-arrow);
        }

        circle,
        path {
            --t: 0.8s;
            opacity: 0;
            animation: guide-fade calc(var(--t) + 0.4s) ease-in-out forwards calc(var(--d) - 0.2s);
        }
    }
</style>
<path id="z21754d1" d="M132 316Q120 312 97 307Q84 303 81 309Q74 315 83 331Q114 407 130 530Q131 567 152 592Q170 614 175 599Q185 574 177 527C173 504 173 504 171 493Q152 375 150 344C150 333 142 320 132 316Z"/>
<path id="z21754d2" d="M311 464Q320 362 344 330Q365 302 339 289Q318 279 288 263Q267 254 249 267Q218 291 132 316C121 320 139 348 150 344Q190 332 233 321Q255 315 260 323Q270 329 266 369Q263 414 258 467C258 485 311 482 311 464Z"/>
<path id="z21754d3" d="M177 527Q184 527 192 525Q235 512 330 499Q340 498 341 488Q341 481 311 464C296 455 275 461 258 467Q209 483 171 493C160 497 165 527 177 527Z"/>
<path id="z21754d4" d="M638 288Q722 275 849 269Q906 269 913 258Q917 246 901 234Q844 197 785 216Q725 231 639 250C604 257 604 257 587 260Q487 278 375 298Q356 301 371 317Q384 330 402 334Q423 338 438 333Q507 311 587 297C621 291 621 291 638 288Z"/>
<path id="z21754d5" d="M457 432Q430 419 414 419Q401 423 406 435Q458 546 410 758Q379 840 410 879Q417 892 428 886Q464 862 468 735Q474 518 479 471C479 456 471 438 457 432Z"/>
<path id="z21754d6" d="M635 433Q680 423 728 415Q750 409 762 422Q772 428 776 475Q789 635 780 817Q779 844 769 851Q756 861 689 850Q673 847 674 857Q675 864 688 870Q749 912 781 945Q802 964 815 962Q827 958 838 930Q853 884 851 819Q830 483 846 446Q859 422 849 409Q839 394 791 371Q772 362 753 367Q714 380 635 401C603 408 603 408 587 411Q523 421 457 432C442 434 465 477 479 471Q491 465 587 443C619 436 619 436 635 433Z"/>
<path id="z21754d7" d="M635 561Q672 551 708 545Q730 541 722 528Q710 513 684 511Q665 510 635 518C602 530 602 530 585 536Q552 548 522 558Q506 562 527 577Q536 583 555 579Q570 575 585 573C618 565 618 565 635 561Z"/>
<path id="z21754d8" d="M634 680Q682 670 723 663Q745 659 737 647Q727 634 703 630Q666 626 634 641C599 651 599 651 582 656Q543 666 510 676Q495 680 514 693Q524 700 546 696Q562 692 581 690C616 683 616 683 634 680Z"/>
<path id="z21754d9" d="M581 690Q581 831 597 857Q610 870 619 851Q631 824 634 680C634 654 634 654 634 641Q635 604 635 561C635 532 635 532 635 518Q635 476 635 433C635 412 635 412 635 401Q636 337 638 288C639 263 639 263 639 250Q642 148 660 119Q667 104 648 90Q626 71 585 61Q567 57 556 69Q546 76 558 88Q585 110 587 144Q587 190 587 260C587 285 587 285 587 297Q587 348 587 411C587 432 587 432 587 443Q587 485 585 536C585 561 585 561 585 573Q584 621 582 656C581 679 581 679 581 690Z"/>
<path id="z21754d10" d="M718 121Q757 163 789 178Q802 179 811 167Q817 155 814 140Q807 118 790 107Q766 92 729 85Q713 81 705 84Q699 85 702 97Q703 107 718 121Z"/>
<defs>
	<clipPath id="z21754c1"><use href="#z21754d1"/></clipPath>
	<clipPath id="z21754c2"><use href="#z21754d2"/></clipPath>
	<clipPath id="z21754c3"><use href="#z21754d3"/></clipPath>
	<clipPath id="z21754c4"><use href="#z21754d4"/></clipPath>
	<clipPath id="z21754c5"><use href="#z21754d5"/></clipPath>
	<clipPath id="z21754c6"><use href="#z21754d6"/></clipPath>
	<clipPath id="z21754c7"><use href="#z21754d7"/></clipPath>
	<clipPath id="z21754c8"><use href="#z21754d8"/></clipPath>
	<clipPath id="z21754c9"><use href="#z21754d9"/></clipPath>
	<clipPath id="z21754c10"><use href="#z21754d10"/></clipPath>
<marker id="guide-arrow" viewBox="0 0 16 16" refX="5" refY="5" markerWidth="4" markerHeight="4" orient="auto-start-reverse"><path d="M 0 0 L 10 5 L 0 10 z" fill="inherit"/></marker></defs>
<path style="--d:1s;" pathLength="3333" clip-path="url(#z21754c1)" d="M86 314L123 360L167 599"/>
<path style="--d:2s;" pathLength="3333" clip-path="url(#z21754c2)" d="M138 318L261 290L306 314L286 454L269 463"/>
<path style="--d:3s;" pathLength="3333" clip-path="url(#z21754c3)" d="M182 521L254 489L336 487"/>
<path style="--d:4s;" pathLength="3333" clip-path="url(#z21754c4)" d="M372 308L805 241L909 252"/>
<path style="--d:5s;" pathLength="3333" clip-path="url(#z21754c5)" d="M413 430L447 469L453 520L423 883"/>
<path style="--d:6s;" pathLength="3333" clip-path="url(#z21754c6)" d="M466 436L492 447L758 389L810 425L812 861L782 911L680 856"/>
<path style="--d:7s;" pathLength="3333" clip-path="url(#z21754c7)" d="M524 565L719 530"/>
<path style="--d:8s;" pathLength="3333" clip-path="url(#z21754c8)" d="M509 682L733 652"/>
<path style="--d:9s;" pathLength="3333" clip-path="url(#z21754c9)" d="M559 73L623 120L608 856"/>
<path style="--d:10s;" pathLength="3333" clip-path="url(#z21754c10)" d="M707 87L805 168"/>
<g class="guides"><circle style="--d: 1s" class="g1" cx="86" cy="314" r="16"/><path style="--d: 1s;" class="g1" d="M171.68,245.45600000000002 Q208.68,291.456 214.18,321.331 Q247.18,500.581 252.68,530.456"/><circle style="--d: 2s" class="g2" cx="138" cy="318" r="16"/><path style="--d: 2s;" class="g2" d="M138,414 Q199.5,386 205.125,392 Q222,410 218.5,425.125 Q211.5,455.375 208,470.5"/><circle style="--d: 3s" class="g3" cx="182" cy="521" r="16"/><path style="--d: 3s;" class="g3" d="M182,617 Q254,585 264.25,584.75 Q325.75,583.25 336,583"/><circle style="--d: 4s" class="g4" cx="372" cy="308" r="16"/><path style="--d: 4s;" class="g4" d="M372,404 Q805,337 818,338.375 Q896,346.625 909,348"/><circle style="--d: 5s" class="g5" cx="413" cy="430" r="16"/><path style="--d: 5s;" class="g5" d="M317,430 Q351,469 352.5,481.75 Q357,520 349.5,610.75 Q334.5,792.25 327,883"/><circle style="--d: 6s" class="g6" cx="479" cy="442" r="16"/><path style="--d: 6s;" class="g6" d="M479,538 Q618.5,485 631.5,503 Q644.5,521 645,739 Q645.5,957 638,982 Q630.5,1007 605,979.5 Q605,979.5 579.5,952"/><circle style="--d: 7s" class="g7" cx="524" cy="565" r="16"/><path style="--d: 7s;" class="g7" d="M524,661 L719,626"/><circle style="--d: 8s" class="g8" cx="509" cy="682" r="16"/><path style="--d: 8s;" class="g8" d="M509,778 L733,748"/><circle style="--d: 9s" class="g9" cx="559" cy="73" r="16"/><path style="--d: 9s;" class="g9" d="M463,73 Q527,120 525.125,212 Q513.875,764 512,856"/><circle style="--d: 10s" class="g10" cx="707" cy="87" r="16"/><path style="--d: 10s;" class="g10" d="M792.68,18.456000000000003 L890.68,99.456"/></g></svg>