<svg id="z21898" class="acjk" viewBox="0 0 1024 1024" xmlns="http://www.w3.org/2000/svg">
<style>

@keyframes zk {
	to {
		stroke-dashoffset:0;
	}
}
svg.acjk path[clip-path] {
	--t:0.8s;
	animation:zk var(--t) linear forwards var(--d);
	stroke-dasharray:3337;
	stroke-dashoffset:3339;
	stroke-width:128;
	stroke-linecap:round;
	fill:none;
	stroke:#000;
}
svg.acjk path[id] {fill:#ccc;}


    @keyframes guide-fade {
        0% { opacity: 0; }
        3% { opacity: 1; }
        95% { opacity: 1; }
        100% { opacity: 0; }
    }

    svg.acjk #guide-arrow {
        fill: #f77;
    }

    svg.acjk .guides {
        circle {
            fill: #0f6;
        }

        path {
            opacity: 0;
            animation: guide-fade var(--t) linear forwards var(--d);
            stroke-width: 16px;
            stroke-linecap: round;
            stroke: #f77;
            fill: none;
            marker-end: url(#guide-arrow);
        }

        circle,
        path {
            --t: 0.8s;
            opacity: 0;
            animation: guide-fade calc(var(--t) + 0.4s) ease-in-out forwards calc(var(--d) - 0.2s);
        }
    }
</style>
<path id="z21898d1" d="M118 399Q106 392 77 386Q64 382 61 388Q54 394 62 410Q90 477 102 585Q103 618 120 640Q136 662 143 647Q150 631 149 602C146 579 146 579 145 567Q130 453 130 425C130 415 127 403 118 399Z"/>
<path id="z21898d2" d="M270 539Q285 448 308 421Q329 396 307 383Q288 373 262 357Q244 348 227 359Q205 374 176 383Q151 390 118 399C109 402 121 427 130 425Q134 424 141 422Q178 413 208 406Q229 402 234 410Q241 416 223 539C220 554 267 554 270 539Z"/>
<path id="z21898d3" d="M149 602Q156 601 164 599Q203 586 288 572Q298 569 298 560Q298 553 270 539C255 533 238 533 223 539Q219 540 218 541Q178 557 145 567C133 569 137 604 149 602Z"/>
<path id="z21898d4" d="M643 359Q757 325 760 323Q767 316 763 307Q756 297 728 290Q695 284 635 312C606 321 606 321 592 326Q466 356 420 364Q413 365 408 367C398 371 416 391 426 393Q466 403 505 393Q551 381 600 370C629 363 629 363 643 359Z"/>
<path id="z21898d5" d="M408 367Q366 342 352 344Q333 345 346 369Q376 432 336 612Q323 661 294 719Q264 779 182 846Q166 858 163 863Q160 870 172 871Q211 874 280 810Q355 740 384 619Q403 544 417 431Q421 412 425 401Q426 397 426 393C428 383 416 373 408 367Z"/>
<path id="z21898d6" d="M436 527Q405 536 429 548Q465 561 543 540Q559 536 577 531Q590 527 593 524Q600 517 596 510Q589 500 563 497Q536 494 512 507Q496 513 479 518Q460 524 436 527Z"/>
<path id="z21898d7" d="M437 643Q427 637 400 632Q390 629 386 633Q382 637 388 652Q410 703 423 785Q424 809 439 826Q452 845 458 832Q462 819 461 794C459 775 459 775 458 765Q446 690 445 667C445 659 445 647 437 643Z"/>
<path id="z21898d8" d="M579 743Q595 679 616 661Q635 639 615 625Q599 615 574 600Q559 591 515 616Q488 628 437 643C429 645 437 670 445 667Q448 664 521 646Q543 640 549 649Q552 652 533 741C530 756 576 758 579 743Z"/>
<path id="z21898d9" d="M461 794Q512 782 591 771Q601 770 601 762Q601 755 579 743C566 735 548 736 533 741Q491 754 458 765C449 768 451 796 461 794Z"/>
<path id="z21898d10" d="M726 756Q796 855 803 862Q896 961 942 964Q963 960 957 930Q953 884 959 752Q960 727 951 725Q948 725 907 808Q891 845 863 829Q854 823 843 814Q797 768 758 707C739 672 739 672 730 655Q676 544 643 359C638 328 638 328 635 312Q619 201 628 125Q640 83 584 63Q550 48 529 56Q510 63 519 82Q565 122 566 157Q578 248 592 326C597 355 597 355 600 370Q634 563 702 707C718 740 718 740 726 756Z"/>
<path id="z21898d11" d="M702 707Q660 774 566 871Q559 878 566 881Q573 882 584 877Q644 843 691 794Q710 775 726 756C747 723 747 723 758 707Q792 647 823 542Q830 514 843 487Q850 477 843 467Q836 457 804 444Q782 435 773 438Q760 442 763 458Q781 539 730 655C711 690 711 690 702 707Z"/>
<path id="z21898d12" d="M727 188Q757 210 788 236Q801 246 815 245Q825 244 829 232Q833 219 822 191Q810 161 720 145Q705 142 700 145Q696 149 698 161Q702 171 727 188Z"/>
<defs>
	<clipPath id="z21898c1"><use href="#z21898d1"/></clipPath>
	<clipPath id="z21898c2"><use href="#z21898d2"/></clipPath>
	<clipPath id="z21898c3"><use href="#z21898d3"/></clipPath>
	<clipPath id="z21898c4"><use href="#z21898d4"/></clipPath>
	<clipPath id="z21898c5"><use href="#z21898d5"/></clipPath>
	<clipPath id="z21898c6"><use href="#z21898d6"/></clipPath>
	<clipPath id="z21898c7"><use href="#z21898d7"/></clipPath>
	<clipPath id="z21898c8"><use href="#z21898d8"/></clipPath>
	<clipPath id="z21898c9"><use href="#z21898d9"/></clipPath>
	<clipPath id="z21898c10"><use href="#z21898d10"/></clipPath>
	<clipPath id="z21898c11"><use href="#z21898d11"/></clipPath>
	<clipPath id="z21898c12"><use href="#z21898d12"/></clipPath>
<marker id="guide-arrow" viewBox="0 0 16 16" refX="5" refY="5" markerWidth="4" markerHeight="4" orient="auto-start-reverse"><path d="M 0 0 L 10 5 L 0 10 z" fill="inherit"/></marker></defs>
<path style="--d:1s;" pathLength="3333" clip-path="url(#z21898c1)" d="M68 392L102 431L133 646"/>
<path style="--d:2s;" pathLength="3333" clip-path="url(#z21898c2)" d="M117 406L238 379L268 396L238 547"/>
<path style="--d:3s;" pathLength="3333" clip-path="url(#z21898c3)" d="M148 593L292 558"/>
<path style="--d:4s;" pathLength="3333" clip-path="url(#z21898c4)" d="M414 373L760 311"/>
<path style="--d:5s;" pathLength="3333" clip-path="url(#z21898c5)" d="M347 351L391 396L345 664L279 781L169 865"/>
<path style="--d:6s;" pathLength="3333" clip-path="url(#z21898c6)" d="M426 537L591 514"/>
<path style="--d:7s;" pathLength="3333" clip-path="url(#z21898c7)" d="M392 638L420 664L450 828"/>
<path style="--d:8s;" pathLength="3333" clip-path="url(#z21898c8)" d="M439 655L548 622L580 635L552 751"/>
<path style="--d:9s;" pathLength="3333" clip-path="url(#z21898c9)" d="M456 783L596 760"/>
<path style="--d:10s;" pathLength="3333" clip-path="url(#z21898c10)" d="M521 69L596 121L651 502L752 747L847 860L925 912L952 734"/>
<path style="--d:11s;" pathLength="3333" clip-path="url(#z21898c11)" d="M771 443L807 489L753 663L690 763L572 874"/>
<path style="--d:12s;" pathLength="3333" clip-path="url(#z21898c12)" d="M705 151L788 196L815 240"/>
<g class="guides"><circle style="--d: 1s" class="g1" cx="68" cy="392" r="16"/><path style="--d: 1s;" class="g1" d="M153.68,323.456 Q187.68,362.456 191.555,389.331 Q214.805,550.581 218.68,577.456"/><circle style="--d: 2s" class="g2" cx="117" cy="406" r="16"/><path style="--d: 2s;" class="g2" d="M117,502 Q177.5,475 181.25,479.25 Q192.5,492 188.75,508.75 Q181.25,542.25 177.5,559"/><circle style="--d: 3s" class="g3" cx="148" cy="593" r="16"/><path style="--d: 3s;" class="g3" d="M148,689 L292,654"/><circle style="--d: 4s" class="g4" cx="414" cy="373" r="16"/><path style="--d: 4s;" class="g4" d="M414,469 L760,407"/><circle style="--d: 5s" class="g5" cx="347" cy="351" r="16"/><path style="--d: 5s;" class="g5" d="M251,351 Q275.97297297297297,387.5953307392996 262.9189189189189,496.568093385214 Q249.86486486486484,605.5408560311284 231.13513513513513,653.1147859922179 Q212.40540540540542,700.6887159533073 181.1891891891892,734.8443579766537 Q181.1891891891892,734.8443579766537 149.97297297297297,769"/><circle style="--d: 6s" class="g6" cx="426" cy="537" r="16"/><path style="--d: 6s;" class="g6" d="M426,633 L591,610"/><circle style="--d: 7s" class="g7" cx="406" cy="651" r="16"/><path style="--d: 7s;" class="g7" d="M526,651 L570,828"/><circle style="--d: 8s" class="g8" cx="439" cy="655" r="16"/><path style="--d: 8s;" class="g8" d="M439,751 Q493.5,718 497.5,721.25 Q509.5,731 506,743.875 Q499,769.625 495.5,782.5"/><circle style="--d: 9s" class="g9" cx="456" cy="783" r="16"/><path style="--d: 9s;" class="g9" d="M456,879 L596,856"/><circle style="--d: 10s" class="g10" cx="521" cy="69" r="16"/><path style="--d: 10s;" class="g10" d="M589.544,0.45600000000000307 Q635.9110533642692,52.456 652.9123062645012,242.95600000000002 Q669.9135591647332,433.456 701.1340417633411,555.956 Q732.354524361949,678.456 761.7203248259862,734.956 Q791.0861252900232,791.456 815.1969930394432,817.456 Q839.3078607888631,843.456 847.6539303944315,754.456 Q847.6539303944315,754.456 856,665.456"/><circle style="--d: 11s" class="g11" cx="771" cy="443" r="16"/><path style="--d: 11s;" class="g11" d="M675,443 Q696.2936170212766,478.754060324826 680.3234042553192,546.3758700696055 Q664.3531914893617,613.9976798143852 645.7212765957447,652.8607888631091 Q627.0893617021277,691.723897911833 592.1914893617021,734.8619489559164 Q592.1914893617021,734.8619489559164 557.2936170212765,778"/><circle style="--d: 12s" class="g12" cx="705" cy="151" r="16"/><path style="--d: 12s;" class="g12" d="M790.68,82.456 Q873.68,127.456 877.055,132.95600000000002 Q897.305,165.95600000000002 900.68,171.45600000000002"/></g></svg>