<!--
  Stroke-order data for 噌, derived from AnimCJK (https://github.com/parsimonhi/animCJK),
  itself derived from the Arphic PL KaitiM fonts. Distributed under the Arphic Public License
  (see ARPHICPL.TXT). Regenerated by scripts/build-strokes.ts — do not edit by hand.
-->
<svg id="z22092" class="acjk" viewBox="0 0 1024 1024" xmlns="http://www.w3.org/2000/svg">
<g class="glyph"><path style="--part:1" id="z22092d1" d="M135 352C128 347 112 342 89 336C80 333 75 334 73 337C68 341 69 348 74 360C93 408 106 471 113 550C114 572 120 592 133 610C143 624 151 627 155 617C159 604 161 590 161 564C160 553 159 543 158 533C149 468 141 403 141 380C141 370 143 358 135 352Z"/><path style="--part:1" id="z22092d2" d="M302 504C310 435 322 389 340 367C353 348 352 336 337 328C324 321 308 312 289 302C276 295 263 296 252 305C231 318 193 334 135 352C126 356 132 382 141 380C154 379 166 373 233 355C247 350 255 353 261 359C266 364 268 379 265 407C261 435 258 467 253 503C250 519 299 520 302 504Z"/><path style="--part:1" id="z22092d3" d="M161 564C172 565 192 555 318 537C324 536 328 532 329 526C329 521 320 514 302 504C288 496 268 497 253 503C221 513 187 525 158 533C148 535 151 564 161 564Z"/><path style="--part:2" id="z22092d4" d="M508 104C502 149 478 181 356 286C351 290 358 293 366 290C465 244 533 177 571 141C577 135 591 121 588 113C583 98 577 94 562 85C504 48 511 77 508 104Z"/><path style="--part:2" id="z22092d5" d="M622 57C593 57 609 65 632 80C672 107 730 182 776 224C792 238 809 233 838 231C857 229 880 227 895 222C922 211 897 206 879 199C835 180 793 168 756 141C724 116 689 79 643 60C635 56 628 56 622 57Z"/><path style="--part:2" id="z22092d6" d="M388 306C380 302 375 304 373 308C369 312 369 319 375 330C395 370 412 424 423 492C426 512 432 529 444 543C456 557 463 559 467 549C469 542 470 534 471 522C471 513 470 505 469 498C460 446 450 399 443 345C440 328 419 318 403 312C393 308 393 308 388 306Z"/><path style="--part:2" id="z22092d7" d="M756 490C757 508 763 521 776 521C784 520 791 514 798 506C806 494 820 463 838 411C850 376 869 350 894 331C907 320 907 309 897 299C886 286 864 271 831 253C820 247 790 252 739 260C712 263 651 274 544 292C477 302 423 310 403 312C386 315 426 345 443 345C447 345 452 345 457 344C487 334 527 324 579 316C604 312 604 312 616 310C719 293 778 283 797 295C802 297 804 311 800 332C781 408 768 459 761 471C758 484 758 484 756 490Z"/><path style="--part:2" id="z22092d8" d="M629 470C630 391 632 368 637 346C643 321 637 321 616 310C605 304 577 304 579 316C583 328 587 382 589 479C589 493 629 484 629 470Z"/><path style="--part:2" id="z22092d9" d="M488 392C512 432 531 453 545 455C551 455 558 452 562 443C564 436 561 427 558 417C552 400 530 385 494 372C489 370 486 373 485 379C484 382 485 387 488 392Z"/><path style="--part:2" id="z22092d10" d="M688 366C681 379 672 398 658 421C656 423 654 428 659 431C662 433 666 429 670 427C701 402 725 384 742 376C749 372 753 368 751 363C747 355 740 349 730 341C720 333 709 328 699 329C692 329 689 334 691 344C692 350 691 357 688 366Z"/><path style="--part:2" id="z22092d11" d="M471 522C477 527 484 521 756 490C762 489 765 476 761 471C738 439 694 455 629 470C602 476 602 476 589 479C578 481 509 492 469 498C461 500 464 519 471 522Z"/><path style="--part:2" id="z22092d12" d="M515 602C503 592 490 584 476 581C471 579 466 581 463 587C461 589 462 593 466 601C491 660 487 722 468 820C463 842 462 852 465 864C467 875 476 895 483 903C490 910 495 910 501 903C507 894 512 886 518 865C520 853 521 842 521 831C520 812 521 793 523 746C524 728 524 728 524 719C525 676 525 647 527 633C529 622 524 609 515 602Z"/><path style="--part:2" id="z22092d13" d="M703 853C708 880 714 896 727 919C746 951 768 925 778 901C786 880 788 844 787 821C784 783 776 732 771 664C769 645 775 628 785 614C791 605 791 597 785 592C772 579 748 567 717 553C705 547 696 547 686 553C650 571 593 587 515 602C504 604 516 635 527 633C533 633 583 622 676 602C688 599 698 599 705 605C715 613 720 675 720 789C720 797 717 825 712 831C708 838 701 845 703 853Z"/><path style="--part:2" id="z22092d14" d="M523 746Q524 746 528 746Q600 733 652 725Q674 721 665 709Q655 696 631 692Q592 689 524 719C516 722 514 746 523 746Z"/><path style="--part:2" id="z22092d15" d="M518 865C522 865 529 865 537 864C567 858 637 854 703 853C711 853 718 837 712 831C707 826 700 820 690 813C679 806 663 805 643 810C600 818 557 825 521 831C510 833 507 865 518 865Z"/></g>
<defs><clipPath id="z22092c1"><use href="#z22092d1"/></clipPath>
	<clipPath id="z22092c2"><use href="#z22092d2"/></clipPath>
	<clipPath id="z22092c3"><use href="#z22092d3"/></clipPath>
	<clipPath id="z22092c4"><use href="#z22092d4"/></clipPath>
	<clipPath id="z22092c5"><use href="#z22092d5"/></clipPath>
	<clipPath id="z22092c6"><use href="#z22092d6"/></clipPath>
	<clipPath id="z22092c7"><use href="#z22092d7"/></clipPath>
	<clipPath id="z22092c8"><use href="#z22092d8"/></clipPath>
	<clipPath id="z22092c9"><use href="#z22092d9"/></clipPath>
	<clipPath id="z22092c10"><use href="#z22092d10"/></clipPath>
	<clipPath id="z22092c11"><use href="#z22092d11"/></clipPath>
	<clipPath id="z22092c12"><use href="#z22092d12"/></clipPath>
	<clipPath id="z22092c13"><use href="#z22092d13"/></clipPath>
	<clipPath id="z22092c14"><use href="#z22092d14"/></clipPath>
	<clipPath id="z22092c15"><use href="#z22092d15"/></clipPath><marker id="guide-arrow" viewBox="0 0 16 16" refX="5" refY="5" markerWidth="4" markerHeight="4" orient="auto-start-reverse"><path d="M 0 0 L 10 5 L 0 10 z" fill="inherit"/></marker></defs>
<g class="strokes"><path style="--part:1" pathLength="3333" clip-path="url(#z22092c1)" d="M77 344L112 377L143 618"/><path style="--part:1" pathLength="3333" clip-path="url(#z22092c2)" d="M133 364L259 325L305 352L275 513"/><path style="--part:1" pathLength="3333" clip-path="url(#z22092c3)" d="M155 550L324 525"/><path style="--part:2" pathLength="3333" clip-path="url(#z22092c4)" d="M521 75L547 116L536 135L362 286"/><path style="--part:2" pathLength="3333" clip-path="url(#z22092c5)" d="M618 63L801 202L899 213"/><path style="--part:2" pathLength="3333" clip-path="url(#z22092c6)" d="M379 313L417 358L456 547"/><path style="--part:2" pathLength="3333" clip-path="url(#z22092c7)" d="M406 316L819 276L851 326L769 515"/><path style="--part:2" pathLength="3333" clip-path="url(#z22092c8)" d="M588 316L612 344L602 483"/><path style="--part:2" pathLength="3333" clip-path="url(#z22092c9)" d="M490 378L554 447"/><path style="--part:2" pathLength="3333" clip-path="url(#z22092c10)" d="M699 338L715 371L661 424"/><path style="--part:2" pathLength="3333" clip-path="url(#z22092c11)" d="M468 508L757 475"/><path style="--part:2" pathLength="3333" clip-path="url(#z22092c12)" d="M468 587L503 641L491 902"/><path style="--part:2" pathLength="3333" clip-path="url(#z22092c13)" d="M518 610L703 575L750 611L744 929"/><path style="--part:2" pathLength="3333" clip-path="url(#z22092c14)" d="M522 737L662 713"/><path style="--part:2" pathLength="3333" clip-path="url(#z22092c15)" d="M515 853L710 839"/></g>
<g class="guides"><text class="g1" style="--gs:1" x="77" y="344">①</text><path class="g1 aligned" style="--gs:1" d="M77,344 Q112,377 115.88,407.13 Q139.13,587.88 143,618"/><path class="g1 offset" style="--gs:1" d="M162.68,275.46 Q197.68,308.46 201.56,338.58 Q224.81,519.33 228.68,549.46"/><text class="g2" style="--gs:2" x="133" y="364">②</text><path class="g2 aligned" style="--gs:2" d="M133,364 Q259,325 270.5,331.75 Q305,352 297.5,392.25 Q282.5,472.75 275,513"/><path class="g2 offset" style="--gs:2" d="M133,460 Q196,421 201.75,427.75 Q219,448 215.25,464.75 Q207.75,498.25 204,515"/><text class="g3" style="--gs:3" x="155" y="550">③</text><path class="g3 aligned" style="--gs:3" d="M155,550 L324,525"/><path class="g3 offset" style="--gs:3" d="M155,646 L324,621"/><text class="g4" style="--gs:4" x="521" y="75">④</text><path class="g4 aligned" style="--gs:4" d="M521,75 Q547,116 544.25,120.75 Q536,135 492.5,172.75 Q405.5,248.25 362,286"/><path class="g4 offset" style="--gs:4" d="M425,75 Q438,97.35 436.63,99.93 Q432.5,107.7 410.75,128.28 Q367.25,169.43 345.5,190"/><text class="g5" style="--gs:5" x="618" y="63">⑤</text><path class="g5 aligned" style="--gs:5" d="M618,63 Q801,202 813.25,203.38 Q886.75,211.63 899,213"/><path class="g5 offset" style="--gs:5" d="M703.68,-5.54 Q830.88,108.01 839.4,109.14 Q890.49,115.88 899,117"/><text class="g6" style="--gs:6" x="379" y="313">⑥</text><path class="g6 aligned" style="--gs:6" d="M379,313 Q417,358 421.88,381.63 Q451.13,523.38 456,547"/><path class="g6 offset" style="--gs:6" d="M464.68,244.46 Q502.68,289.46 507.56,313.08 Q536.8,454.83 541.68,478.46"/><text class="g7" style="--gs:7" x="406" y="316">⑦</text><path class="g7 aligned" style="--gs:7" d="M406,316 Q819,276 827,288.5 Q851,326 830.5,373.25 Q789.5,467.75 769,515"/><path class="g7 offset" style="--gs:7" d="M406,412 Q707.63,372 713.47,379.48 Q731,401.92 716.03,430.19 Q686.08,486.73 671.11,515"/><text class="g8" style="--gs:8" x="588" y="316">⑧</text><path class="g8 aligned" style="--gs:8" d="M600,330 L602,483"/><path class="g8 offset" style="--gs:8" d="M720,330 L722,483"/><text class="g9" style="--gs:9" x="490" y="378">⑨</text><path class="g9 aligned" style="--gs:9" d="M490,378 L554,447"/><path class="g9 offset" style="--gs:9" d="M575.68,309.46 L639.68,378.46"/><text class="g10" style="--gs:10" x="699" y="338">⑩</text><path class="g10 aligned" style="--gs:10" d="M707,355 L661,424"/><path class="g10 offset" style="--gs:10" d="M792.68,423.54 L746.68,492.54"/><text class="g11" style="--gs:11" x="468" y="508">⑪</text><path class="g11 aligned" style="--gs:11" d="M468,508 L757,475"/><path class="g11 offset" style="--gs:11" d="M468,604 L757,571"/><text class="g12" style="--gs:12" x="468" y="587">⑫</text><path class="g12 aligned" style="--gs:12" d="M468,587 Q503,641 501.5,673.63 Q492.5,869.38 491,902"/><path class="g12 offset" style="--gs:12" d="M372,587 Q407,641 405.5,673.63 Q396.5,869.38 395,902"/><text class="g13" style="--gs:13" x="518" y="610">⑬</text><path class="g13 aligned" style="--gs:13" d="M518,610 Q703,575 714.75,584 Q750,611 748.5,690.5 Q745.5,849.5 744,929"/><path class="g13 offset" style="--gs:13" d="M518,706 Q610.5,671 616.38,677.56 Q634,697.24 633.25,755.18 Q631.75,871.06 631,929"/><text class="g14" style="--gs:14" x="522" y="737">⑭</text><path class="g14 aligned" style="--gs:14" d="M522,737 L662,713"/><path class="g14 offset" style="--gs:14" d="M522,833 L662,809"/><text class="g15" style="--gs:15" x="515" y="853">⑮</text><path class="g15 aligned" style="--gs:15" d="M515,853 L710,839"/><path class="g15 offset" style="--gs:15" d="M515,949 L710,935"/></g>
<g class="parts"><rect data-part="2" data-literal="曾" role="button" tabindex="0" aria-label="Part 曾" x="290" y="0" width="681" height="1001"/><rect data-part="1" data-literal="口" data-radical="true" role="button" tabindex="0" aria-label="Part 口 (radical)" x="5" y="253" width="391" height="437"/></g>
</svg>
