<svg id="z22107" class="acjk" viewBox="0 0 1024 1024" xmlns="http://www.w3.org/2000/svg">
<style>

@keyframes zk {
	to {
		stroke-dashoffset:0;
	}
}
svg.acjk path[clip-path] {
	--t:0.8s;
	animation:zk var(--t) linear forwards var(--d);
	stroke-dasharray:3337;
	stroke-dashoffset:3339;
	stroke-width:128;
	stroke-linecap:round;
	fill:none;
	stroke:#000;
}
svg.acjk path[id] {fill:#ccc;}


    @keyframes guide-fade {
        0% { opacity: 0; }
        3% { opacity: 1; }
        95% { opacity: 1; }
        100% { opacity: 0; }
    }

    svg.acjk #guide-arrow {
        fill: #f77;
    }

    svg.acjk .guides {
        circle {
            fill: #0f6;
        }

        path {
            opacity: 0;
            animation: guide-fade var(--t) linear forwards var(--d);
            stroke-width: 16px;
            stroke-linecap: round;
            stroke: #f77;
            fill: none;
            marker-end: url(#guide-arrow);
        }

        circle,
        path {
            --t: 0.8s;
            opacity: 0;
            animation: guide-fade calc(var(--t) + 0.4s) ease-in-out forwards calc(var(--d) - 0.2s);
        }
    }
</style>
<path id="z22107d1" d="M140 311C133 307 120 303 103 299C96 297 91 297 89 300C85 304 86 310 90 320C107 362 120 418 128 488C130 508 134 526 146 541C156 554 162 557 166 548C170 537 172 522 171 503C169 484 169 484 168 474C160 402 151 357 150 337C150 328 148 315 140 311Z"/>
<path id="z22107d2" d="M294 455C304 391 319 349 336 329C349 312 347 299 334 292C320 285 306 275 290 266C277 259 259 267 232 282C207 294 175 302 140 311C131 313 141 340 150 337C177 329 209 320 235 315C249 311 258 313 263 319C267 323 262 367 247 451C244 467 291 470 294 455Z"/>
<path id="z22107d3" d="M171 503C177 503 184 503 192 502C216 496 254 490 306 485C312 484 316 481 317 475C317 470 309 463 294 455C281 447 262 446 247 451C226 459 190 467 168 474C159 478 161 503 171 503Z"/>
<path id="z22107d4" d="M640 333C644 295 649 259 652 224C653 202 653 202 654 191C655 179 657 163 662 142C664 134 666 128 667 123C669 115 666 106 654 97C635 84 618 78 605 75C597 72 590 74 586 79C582 84 581 92 586 101C593 115 599 126 600 135C604 198 607 266 606 339C606 351 638 344 640 333Z"/>
<path id="z22107d5" d="M652 224C663 228 690 226 733 217C747 215 762 212 778 209C789 207 796 204 797 202C802 198 803 193 801 188C797 181 787 175 772 170C757 166 742 168 725 175C701 184 677 188 654 191C643 193 641 222 652 224Z"/>
<path id="z22107d6" d="M520 353C517 302 517 271 518 261C519 247 515 236 507 229C495 218 480 212 465 207C458 205 452 205 447 209C442 213 442 220 447 229C458 247 472 289 486 357C488 368 520 364 520 353Z"/>
<path id="z22107d7" d="M486 357C429 365 390 371 330 380C318 382 315 388 325 399C342 418 362 425 383 419C523 374 678 355 909 355C869 354 927 356 933 346C937 339 934 330 924 322C892 293 859 288 826 297C774 311 718 318 640 333C617 337 617 337 606 339C578 345 550 349 520 353C497 356 497 356 486 357Z"/>
<path id="z22107d8" d="M517 495C525 504 532 515 541 526C546 534 553 538 561 538C566 538 570 535 572 527C575 519 575 507 571 492C568 478 549 467 515 456C508 453 503 452 500 454C497 456 496 461 497 468C498 474 506 483 517 495Z"/>
<path id="z22107d9" d="M723 432C714 449 701 471 684 498C681 502 681 508 684 510C687 513 692 510 695 508C732 479 758 457 776 448C784 444 788 441 786 435C783 425 777 416 767 406C758 396 747 390 737 389C730 389 726 396 727 406C728 415 727 423 723 432Z"/>
<path id="z22107d10" d="M649 582C693 574 743 568 797 564C806 564 811 561 811 557C812 549 808 542 800 537C786 528 774 525 762 527C719 535 681 543 649 549C624 554 624 554 611 557C533 572 468 575 418 578C412 578 407 580 405 585C403 591 406 598 413 605C431 622 454 628 482 620C518 610 552 601 584 595C601 591 601 591 610 589C636 584 636 584 649 582Z"/>
<path id="z22107d11" d="M608 612C605 660 602 690 599 701C593 719 597 743 614 769C623 784 627 787 632 789C637 791 642 787 645 780C652 763 652 746 652 731C649 673 649 633 649 582C649 572 649 567 649 538C650 496 652 468 654 452C655 445 653 440 650 437C638 426 628 418 618 414C612 411 607 412 602 416C599 419 599 422 603 427C610 438 614 477 611 544C609 589 609 589 608 612Z"/>
<path id="z22107d12" d="M584 595C562 644 509 696 424 753C415 759 415 763 422 765C428 766 440 763 460 756C480 749 501 740 520 726C537 713 556 696 575 674C589 659 599 645 608 631C629 596 599 557 584 595Z"/>
<path id="z22107d13" d="M685 640C705 660 728 683 753 713C761 722 768 729 775 731C778 732 782 729 786 723C791 716 790 700 784 678C777 653 744 633 685 615C680 614 678 615 677 621C677 629 680 635 685 640Z"/>
<path id="z22107d14" d="M815 776C665 788 534 810 422 843C405 848 401 840 401 817C401 704 401 704 401 648C401 631 400 617 392 609C369 583 348 573 334 579C328 582 328 593 334 605C357 653 366 703 365 754C363 803 358 841 341 863C331 876 326 886 332 896C338 907 347 915 358 922C366 928 374 928 379 921C405 886 506 856 682 824C726 816 774 813 808 815C821 815 828 776 815 776Z"/>
<path id="z22107d15" d="M808 815C802 853 797 893 811 933C816 946 824 949 831 939C849 919 857 876 864 813C877 688 889 619 895 604C896 602 898 599 899 595C905 584 905 572 898 562C887 548 869 535 848 520C839 514 831 514 823 518C818 521 814 528 818 538C833 632 830 662 815 776C810 802 810 802 808 815Z"/>
<defs>
	<clipPath id="z22107c1"><use href="#z22107d1"/></clipPath>
	<clipPath id="z22107c2"><use href="#z22107d2"/></clipPath>
	<clipPath id="z22107c3"><use href="#z22107d3"/></clipPath>
	<clipPath id="z22107c4"><use href="#z22107d4"/></clipPath>
	<clipPath id="z22107c5"><use href="#z22107d5"/></clipPath>
	<clipPath id="z22107c6"><use href="#z22107d6"/></clipPath>
	<clipPath id="z22107c7"><use href="#z22107d7"/></clipPath>
	<clipPath id="z22107c8"><use href="#z22107d8"/></clipPath>
	<clipPath id="z22107c9"><use href="#z22107d9"/></clipPath>
	<clipPath id="z22107c10"><use href="#z22107d10"/></clipPath>
	<clipPath id="z22107c11"><use href="#z22107d11"/></clipPath>
	<clipPath id="z22107c12"><use href="#z22107d12"/></clipPath>
	<clipPath id="z22107c13"><use href="#z22107d13"/></clipPath>
	<clipPath id="z22107c14"><use href="#z22107d14"/></clipPath>
	<clipPath id="z22107c15"><use href="#z22107d15"/></clipPath>
<marker id="guide-arrow" viewBox="0 0 16 16" refX="5" refY="5" markerWidth="4" markerHeight="4" orient="auto-start-reverse"><path d="M 0 0 L 10 5 L 0 10 z" fill="inherit"/></marker></defs>
<path style="--d:1s;" pathLength="3333" clip-path="url(#z22107c1)" d="M94 305L127 354L154 547"/>
<path style="--d:2s;" pathLength="3333" clip-path="url(#z22107c2)" d="M146 313L263 290L303 312L260 451"/>
<path style="--d:3s;" pathLength="3333" clip-path="url(#z22107c3)" d="M175 496L310 473"/>
<path style="--d:4s;" pathLength="3333" clip-path="url(#z22107c4)" d="M589 82L633 131L619 336"/>
<path style="--d:5s;" pathLength="3333" clip-path="url(#z22107c5)" d="M658 218L797 190"/>
<path style="--d:6s;" pathLength="3333" clip-path="url(#z22107c6)" d="M450 216L490 256L507 354"/>
<path style="--d:7s;" pathLength="3333" clip-path="url(#z22107c7)" d="M325 388L378 396L848 324L930 339"/>
<path style="--d:8s;" pathLength="3333" clip-path="url(#z22107c8)" d="M503 460L566 530"/>
<path style="--d:9s;" pathLength="3333" clip-path="url(#z22107c9)" d="M733 398L752 440L688 503"/>
<path style="--d:10s;" pathLength="3333" clip-path="url(#z22107c10)" d="M411 589L467 598L807 553"/>
<path style="--d:11s;" pathLength="3333" clip-path="url(#z22107c11)" d="M608 420L631 450L635 784"/>
<path style="--d:12s;" pathLength="3333" clip-path="url(#z22107c12)" d="M604 596L520 703L427 760"/>
<path style="--d:13s;" pathLength="3333" clip-path="url(#z22107c13)" d="M682 620L750 671L775 727"/>
<path style="--d:14s;" pathLength="3333" clip-path="url(#z22107c14)" d="M337 589L376 643L368 867L383 884L579 824L810 800"/>
<path style="--d:15s;" pathLength="3333" clip-path="url(#z22107c15)" d="M822 525L866 588L820 939"/>
<g class="guides"><circle style="--d: 1s" class="g1" cx="94" cy="305" r="16"/><path style="--d: 1s;" class="g1" d="M179.68,236.45600000000002 Q212.68,285.456 216.055,309.581 Q236.305,454.331 239.68,478.456"/><circle style="--d: 2s" class="g2" cx="146" cy="313" r="16"/><path style="--d: 2s;" class="g2" d="M146,409 Q204.5,386 209.5,391.5 Q224.5,408 219.125,422.625 Q208.375,451.875 203,466.5"/><circle style="--d: 3s" class="g3" cx="175" cy="496" r="16"/><path style="--d: 3s;" class="g3" d="M175,592 L310,569"/><circle style="--d: 4s" class="g4" cx="589" cy="82" r="16"/><path style="--d: 4s;" class="g4" d="M493,82 Q537,131 535.25,156.625 Q524.75,310.375 523,336"/><circle style="--d: 5s" class="g5" cx="658" cy="218" r="16"/><path style="--d: 5s;" class="g5" d="M658,314 L797,286"/><circle style="--d: 6s" class="g6" cx="450" cy="216" r="16"/><path style="--d: 6s;" class="g6" d="M535.68,147.45600000000002 Q575.68,187.45600000000002 577.805,199.70600000000002 Q590.555,273.206 592.68,285.456"/><circle style="--d: 7s" class="g7" cx="325" cy="388" r="16"/><path style="--d: 7s;" class="g7" d="M325,484 Q378,492 495.5,474 Q848,420 868.5,423.75 Q909.5,431.25 930,435"/><circle style="--d: 8s" class="g8" cx="503" cy="460" r="16"/><path style="--d: 8s;" class="g8" d="M588.68,391.456 L651.68,461.456"/><circle style="--d: 9s" class="g9" cx="733" cy="398" r="16"/><path style="--d: 9s;" class="g9" d="M637,398 Q646.5,419 642.5,422.9375 Q618.5,446.5625 614.5,450.5"/><circle style="--d: 10s" class="g10" cx="411" cy="589" r="16"/><path style="--d: 10s;" class="g10" d="M411,685 Q467,694 509.5,688.375 Q764.5,654.625 807,649"/><circle style="--d: 11s" class="g11" cx="620" cy="435" r="16"/><path style="--d: 11s;" class="g11" d="M740,435 L755,784"/><circle style="--d: 12s" class="g12" cx="604" cy="596" r="16"/><path style="--d: 12s;" class="g12" d="M689.68,664.544 Q605.68,771.544 594.055,778.669 Q524.305,821.419 512.68,828.544"/><circle style="--d: 13s" class="g13" cx="682" cy="620" r="16"/><path style="--d: 13s;" class="g13" d="M767.68,551.456 Q835.68,602.456 838.805,609.456 Q857.555,651.456 860.68,658.456"/><circle style="--d: 14s" class="g14" cx="337" cy="589" r="16"/><path style="--d: 14s;" class="g14" d="M422.68,520.456 Q454.6154756871036,569.4301559322034 451.3400422832981,671.0061830508475 Q448.0646088794926,772.5822101694915 454.2060465116279,780.2911050847458 Q460.3474841437632,788 540.5956025369978,760.7921355932203 Q620.8437209302325,733.5842711864407 715.4218604651162,722.7011254237289 Q715.4218604651162,722.7011254237289 810,711.8179796610169"/><circle style="--d: 15s" class="g15" cx="822" cy="525" r="16"/><path style="--d: 15s;" class="g15" d="M726,525 Q770,588 764.25,631.875 Q729.75,895.125 724,939"/></g></svg>