<!--
  Stroke-order data for 嚴, derived from AnimCJK (https://github.com/parsimonhi/animCJK),
  itself derived from the Arphic PL KaitiM fonts. Distributed under the Arphic Public License
  (see ARPHICPL.TXT). Regenerated by scripts/build-strokes.ts — do not edit by hand.
-->
<svg id="z22196" class="acjk" viewBox="0 0 1024 1024" xmlns="http://www.w3.org/2000/svg">
<g class="glyph"><path id="z22196d1" d="M245 114C238 111 226 110 210 110C203 109 198 110 197 114C194 118 195 125 202 134C220 160 239 196 255 243C259 256 266 267 276 276C297 293 299 278 297 258C295 248 293 239 291 230C282 204 267 152 264 137C262 127 254 118 245 114Z"/><path id="z22196d2" d="M430 205C440 165 452 139 464 128C478 113 478 101 464 93C452 86 438 77 423 67C412 60 393 68 363 82C326 98 285 106 245 114C235 116 255 140 264 137C282 131 314 123 362 112C396 103 400 123 396 147C392 163 389 181 384 201C381 216 427 220 430 205Z"/><path id="z22196d3" d="M297 258C309 258 321 252 440 231C445 229 449 227 449 222C449 217 442 211 430 205C417 197 398 195 384 201C352 211 319 221 291 230C282 234 287 258 297 258Z"/><path id="z22196d4" d="M575 80C568 76 553 72 530 68C523 66 518 66 516 70C513 73 514 80 519 90C532 116 545 152 554 197C556 209 560 220 569 230C583 246 590 238 592 222C592 213 591 203 591 195C588 165 581 121 580 106C579 97 583 83 575 80Z"/><path id="z22196d5" d="M750 172C762 138 774 116 785 107C800 92 800 79 786 70C774 62 759 53 743 42C731 33 711 40 681 55C653 67 617 73 575 80C566 82 571 107 580 106C582 106 616 99 681 87C708 81 714 90 711 110C710 123 706 141 702 167C699 183 744 187 750 172Z"/><path id="z22196d6" d="M592 222C601 224 711 204 758 199C764 198 768 195 768 190C768 185 762 179 750 172C736 164 717 162 702 167C664 177 625 187 591 195C582 197 583 222 592 222Z"/><path id="z22196d7" d="M308 368C334 372 365 374 400 368C612 330 727 306 745 301C751 299 755 296 758 294C764 289 765 283 762 279C757 271 747 265 730 260C713 255 660 272 566 296C463 321 374 331 304 339C294 341 298 366 308 368Z"/><path id="z22196d8" d="M271 522C279 489 303 377 308 368C312 359 311 346 304 339C295 329 281 320 268 311C255 303 247 299 238 303C229 306 226 312 231 322C240 339 242 369 238 412C223 552 194 629 163 696C134 758 91 823 37 891C33 895 30 899 29 903C26 909 28 912 36 912C56 910 132 834 180 758C204 719 244 627 265 546C269 530 269 530 271 522Z"/><path id="z22196d9" d="M433 439C451 434 470 428 491 424C505 420 513 418 516 416C519 411 520 408 518 404C515 399 506 395 493 392C486 390 455 397 400 414C381 419 359 422 336 426C319 428 317 434 330 442C344 450 365 454 390 449C419 442 419 442 433 439Z"/><path id="z22196d10" d="M433 492C433 473 437 449 433 439C430 425 387 435 390 449C393 456 392 477 390 502C390 517 433 507 433 492Z"/><path id="z22196d11" d="M472 516C499 511 523 504 548 503C552 502 558 501 562 495C564 489 556 485 546 479C531 470 468 483 433 492C404 499 404 499 390 502C376 505 336 510 271 522C263 523 257 543 265 546C277 552 288 553 299 551C322 546 322 546 333 543C363 535 398 527 439 521C461 518 461 518 472 516Z"/><path id="z22196d12" d="M299 551C315 629 307 712 307 787C307 799 343 789 343 777C343 756 344 736 346 717C346 707 347 706 348 688C348 669 350 651 351 633C352 616 352 616 352 607C353 569 361 560 333 543C323 537 297 540 299 551Z"/><path id="z22196d13" d="M351 633C363 632 399 625 420 620C432 616 435 611 430 606C423 599 413 595 400 595C387 594 371 598 352 607C344 610 342 635 351 633Z"/><path id="z22196d14" d="M346 717C357 717 398 703 420 700C430 697 434 692 429 686C423 678 413 674 400 674C388 673 370 678 348 688C339 692 336 719 346 717Z"/><path id="z22196d15" d="M307 787C282 793 258 799 235 806C224 808 210 809 194 810C185 810 180 813 180 820C179 828 181 835 187 840C200 850 217 861 237 872C243 875 249 871 257 867C331 818 383 804 450 768C457 764 458 741 451 744C416 754 380 766 343 777C319 784 319 784 307 787Z"/><path id="z22196d16" d="M450 768C447 830 440 863 439 871C433 896 443 922 462 950C469 960 473 968 479 970C485 971 490 967 494 959C500 940 501 922 501 904C493 716 495 598 501 550C501 543 500 537 497 534C488 526 480 521 472 516C462 510 433 511 439 521C457 547 456 621 451 744C450 760 450 760 450 768Z"/><path id="z22196d17" d="M635 499C668 443 683 409 689 403C693 396 693 389 690 383C687 376 677 366 660 357C644 348 630 345 621 347C610 349 608 357 615 368C632 397 607 475 534 602C529 609 526 613 526 617C525 622 528 624 536 623C537 622 552 613 572 589C581 578 581 578 585 573C599 555 610 539 621 522C630 507 630 507 635 499Z"/><path id="z22196d18" d="M747 511C771 504 796 496 824 489C842 483 853 478 857 476C861 471 861 466 859 462C853 455 842 450 827 448C809 445 793 449 776 457C755 466 733 474 709 481C686 487 661 493 635 499C626 501 612 521 621 522C649 530 676 530 703 523C732 515 732 515 747 511Z"/><path id="z22196d19" d="M728 705C752 653 759 615 769 570C771 557 773 547 777 543C780 538 781 534 778 528C775 523 765 517 747 511C733 505 701 508 703 523C713 563 717 607 693 669C688 681 682 693 675 705C647 748 617 766 586 786C567 796 543 807 516 820C501 826 502 830 520 832C548 833 578 826 610 813C651 795 675 776 704 743C713 731 721 718 728 705Z"/><path id="z22196d20" d="M704 743C758 814 798 850 819 853C868 858 914 857 956 855C976 853 985 850 985 844C984 841 975 834 956 828C872 799 808 787 728 705C705 681 705 681 693 669C674 650 657 630 640 609C621 586 603 575 585 573C578 572 566 585 572 589C594 603 627 642 675 705C694 730 694 730 704 743Z"/></g>
<defs><clipPath id="z22196c1"><use href="#z22196d1"/></clipPath>
	<clipPath id="z22196c2"><use href="#z22196d2"/></clipPath>
	<clipPath id="z22196c3"><use href="#z22196d3"/></clipPath>
	<clipPath id="z22196c4"><use href="#z22196d4"/></clipPath>
	<clipPath id="z22196c5"><use href="#z22196d5"/></clipPath>
	<clipPath id="z22196c6"><use href="#z22196d6"/></clipPath>
	<clipPath id="z22196c7"><use href="#z22196d7"/></clipPath>
	<clipPath id="z22196c8"><use href="#z22196d8"/></clipPath>
	<clipPath id="z22196c9"><use href="#z22196d9"/></clipPath>
	<clipPath id="z22196c10"><use href="#z22196d10"/></clipPath>
	<clipPath id="z22196c11"><use href="#z22196d11"/></clipPath>
	<clipPath id="z22196c12"><use href="#z22196d12"/></clipPath>
	<clipPath id="z22196c13"><use href="#z22196d13"/></clipPath>
	<clipPath id="z22196c14"><use href="#z22196d14"/></clipPath>
	<clipPath id="z22196c15"><use href="#z22196d15"/></clipPath>
	<clipPath id="z22196c16"><use href="#z22196d16"/></clipPath>
	<clipPath id="z22196c17"><use href="#z22196d17"/></clipPath>
	<clipPath id="z22196c18"><use href="#z22196d18"/></clipPath>
	<clipPath id="z22196c19"><use href="#z22196d19"/></clipPath>
	<clipPath id="z22196c20"><use href="#z22196d20"/></clipPath><marker id="guide-arrow" viewBox="0 0 16 16" refX="5" refY="5" markerWidth="4" markerHeight="4" orient="auto-start-reverse"><path d="M 0 0 L 10 5 L 0 10 z" fill="inherit"/></marker></defs>
<g class="strokes"><path pathLength="3333" clip-path="url(#z22196c1)" d="M203 116L240 146L290 275"/><path pathLength="3333" clip-path="url(#z22196c2)" d="M253 120L407 91L435 115L396 210"/><path pathLength="3333" clip-path="url(#z22196c3)" d="M292 246L443 216"/><path pathLength="3333" clip-path="url(#z22196c4)" d="M522 74L553 97L577 231"/><path pathLength="3333" clip-path="url(#z22196c5)" d="M573 89L726 66L753 90L719 178"/><path pathLength="3333" clip-path="url(#z22196c6)" d="M587 210L760 187"/><path pathLength="3333" clip-path="url(#z22196c7)" d="M302 348L759 283"/><path pathLength="3333" clip-path="url(#z22196c8)" d="M237 311L275 361L220 615L153 761L37 905"/><path pathLength="3333" clip-path="url(#z22196c9)" d="M330 432L512 407"/><path pathLength="3333" clip-path="url(#z22196c10)" d="M420 435L405 506"/><path pathLength="3333" clip-path="url(#z22196c11)" d="M266 538L557 491"/><path pathLength="3333" clip-path="url(#z22196c12)" d="M305 547L329 582L327 788"/><path pathLength="3333" clip-path="url(#z22196c13)" d="M348 624L425 608"/><path pathLength="3333" clip-path="url(#z22196c14)" d="M348 709L425 689"/><path pathLength="3333" clip-path="url(#z22196c15)" d="M185 821L240 839L451 753"/><path pathLength="3333" clip-path="url(#z22196c16)" d="M447 521L476 556L479 964"/><path pathLength="3333" clip-path="url(#z22196c17)" d="M621 356L655 398L531 614"/><path pathLength="3333" clip-path="url(#z22196c18)" d="M626 516L853 469"/><path pathLength="3333" clip-path="url(#z22196c19)" d="M710 519L745 550L698 711L625 784L518 827"/><path pathLength="3333" clip-path="url(#z22196c20)" d="M577 584L806 807L978 843"/></g>
<g class="guides"><text class="g1" style="--gs:1" x="203" y="116">①</text><path class="g1 aligned" style="--gs:1" d="M203,116 Q240,146 246.25,162.13 Q283.75,258.88 290,275"/><path class="g1 offset" style="--gs:1" d="M288.68,47.46 Q325.68,77.46 331.93,93.58 Q369.43,190.33 375.68,206.46"/><text class="g2" style="--gs:2" x="253" y="120">②</text><path class="g2 aligned" style="--gs:2" d="M253,120 Q407,91 414,97 Q435,115 425.25,138.75 Q405.75,186.25 396,210"/><path class="g2 offset" style="--gs:2" d="M253,216 Q330,187 333.5,193 Q344,211 339.13,219.88 Q329.38,237.63 324.5,246.5"/><text class="g3" style="--gs:3" x="292" y="246">③</text><path class="g3 aligned" style="--gs:3" d="M292,246 L443,216"/><path class="g3 offset" style="--gs:3" d="M292,342 L443,312"/><text class="g4" style="--gs:4" x="522" y="74">④</text><path class="g4 aligned" style="--gs:4" d="M538,86 L577,231"/><path class="g4 offset" style="--gs:4" d="M658,86 L697,231"/><text class="g5" style="--gs:5" x="573" y="89">⑤</text><path class="g5 aligned" style="--gs:5" d="M573,89 Q726,66 732.75,72 Q753,90 744.5,112 Q727.5,156 719,178"/><path class="g5 offset" style="--gs:5" d="M573,185 Q649.5,162 652.88,165 Q663,174 658.75,185 Q650.25,207 646,218"/><text class="g6" style="--gs:6" x="587" y="210">⑥</text><path class="g6 aligned" style="--gs:6" d="M587,210 L760,187"/><path class="g6 offset" style="--gs:6" d="M587,306 L760,283"/><text class="g7" style="--gs:7" x="302" y="348">⑦</text><path class="g7 aligned" style="--gs:7" d="M302,348 L759,283"/><path class="g7 offset" style="--gs:7" d="M302,444 L759,379"/><text class="g8" style="--gs:8" x="237" y="311">⑧</text><path class="g8 aligned" style="--gs:8" d="M237,311 Q275,361 247.5,488 Q220,615 186.5,688 Q153,761 95,833 Q95,833 37,905"/><path class="g8 offset" style="--gs:8" d="M141,311 Q163.67,352.92 147.26,459.39 Q130.86,565.87 110.87,627.07 Q90.88,688.27 56.28,748.64 Q56.28,748.64 21.67,809"/><text class="g9" style="--gs:9" x="330" y="432">⑨</text><path class="g9 aligned" style="--gs:9" d="M330,432 L512,407"/><path class="g9 offset" style="--gs:9" d="M330,528 L512,503"/><text class="g10" style="--gs:10" x="420" y="435">⑩</text><path class="g10 aligned" style="--gs:10" d="M420,435 L405,506"/><path class="g10 offset" style="--gs:10" d="M540,435 L525,506"/><text class="g11" style="--gs:11" x="266" y="538">⑪</text><path class="g11 aligned" style="--gs:11" d="M266,538 L557,491"/><path class="g11 offset" style="--gs:11" d="M266,634 L557,587"/><text class="g12" style="--gs:12" x="305" y="547">⑫</text><path class="g12 aligned" style="--gs:12" d="M305,547 Q329,582 328.75,607.75 Q327.25,762.25 327,788"/><path class="g12 offset" style="--gs:12" d="M209,547 Q233,582 232.75,607.75 Q231.25,762.25 231,788"/><text class="g13" style="--gs:13" x="348" y="624">⑬</text><path class="g13 aligned" style="--gs:13" d="M348,624 L425,608"/><path class="g13 offset" style="--gs:13" d="M348,720 L425,704"/><text class="g14" style="--gs:14" x="348" y="709">⑭</text><path class="g14 aligned" style="--gs:14" d="M348,709 L425,689"/><path class="g14 offset" style="--gs:14" d="M348,805 L425,785"/><text class="g15" style="--gs:15" x="185" y="821">⑮</text><path class="g15 aligned" style="--gs:15" d="M185,821 Q240,839 266.38,828.25 Q424.63,763.75 451,753"/><path class="g15 offset" style="--gs:15" d="M185,917 Q240,935 266.38,924.25 Q424.63,859.75 451,849"/><text class="g16" style="--gs:16" x="447" y="521">⑯</text><path class="g16 aligned" style="--gs:16" d="M447,521 Q476,556 476.38,607 Q478.63,913 479,964"/><path class="g16 offset" style="--gs:16" d="M532.68,452.46 Q561.68,487.46 562.05,538.46 Q564.3,844.46 564.68,895.46"/><text class="g17" style="--gs:17" x="621" y="356">⑰</text><path class="g17 aligned" style="--gs:17" d="M621,356 Q655,398 639.5,425 Q546.5,587 531,614"/><path class="g17 offset" style="--gs:17" d="M525,356 Q559,398 543.5,425 Q450.5,587 435,614"/><text class="g18" style="--gs:18" x="626" y="516">⑱</text><path class="g18 aligned" style="--gs:18" d="M626,516 L853,469"/><path class="g18 offset" style="--gs:18" d="M626,612 L853,565"/><text class="g19" style="--gs:19" x="710" y="519">⑲</text><path class="g19 aligned" style="--gs:19" d="M710,519 Q745,550 721.5,630.5 Q698,711 661.5,747.5 Q625,784 571.5,805.5 Q571.5,805.5 518,827"/><path class="g19 offset" style="--gs:19" d="M614,519 Q634.2,540.34 620.64,595.75 Q607.07,651.16 586.01,676.28 Q564.95,701.4 534.07,716.2 Q534.07,716.2 503.2,731"/><text class="g20" style="--gs:20" x="577" y="584">⑳</text><path class="g20 aligned" style="--gs:20" d="M577,584 Q806,807 827.5,811.5 Q956.5,838.5 978,843"/><path class="g20 offset" style="--gs:20" d="M662.68,515.46 Q842.75,714.82 859.66,718.84 Q961.09,742.98 978,747"/></g>
</svg>
