<!--
  Stroke-order data for 図, derived from AnimCJK (https://github.com/parsimonhi/animCJK),
  itself derived from the Arphic PL KaitiM fonts. Distributed under the Arphic Public License
  (see ARPHICPL.TXT). Regenerated by scripts/build-strokes.ts — do not edit by hand.
-->
<svg id="z22259" class="acjk" viewBox="0 0 1024 1024" xmlns="http://www.w3.org/2000/svg">
<g class="glyph"><path style="--part:1" id="z22259d1" d="M268 165C240 147 219 138 208 144C201 146 202 153 206 165C224 221 232 262 233 286C234 501 230 622 214 701C201 760 197 791 198 803C198 818 207 842 227 866C234 876 243 877 252 867C259 857 263 850 266 835C268 822 269 810 270 798C270 764 273 744 274 708C280 382 285 215 289 208C292 192 281 175 268 165Z"/><path style="--part:1" id="z22259d2" d="M743 819C752 860 763 914 797 914C805 913 811 904 820 891C840 855 840 775 832 649C814 374 822 226 838 203C839 201 840 199 843 197C851 188 854 180 854 175C853 165 843 153 821 138C782 109 749 102 720 111C706 115 687 117 665 121C554 137 487 144 338 162C313 164 290 165 268 165C252 165 273 211 289 208C297 207 370 192 451 181C550 166 639 157 715 154C731 153 739 157 745 165C759 181 767 290 767 492C766 614 769 688 770 718C770 764 761 777 751 788C743 796 741 809 743 819Z"/><path style="--part:2" id="z22259d3" d="M368 328C368 331 371 335 378 344C401 371 419 394 432 412C438 419 443 425 449 427C458 430 467 426 473 417C477 409 478 394 475 376C474 373 474 372 473 370C466 356 447 341 419 327C394 315 380 310 373 313C369 314 368 319 368 328Z"/><path style="--part:2" id="z22259d4" d="M471 263C470 266 473 268 475 272C492 298 509 324 526 350C529 354 531 359 535 362C543 369 554 369 562 359C567 351 568 338 568 323C568 322 568 321 568 321C568 305 548 288 521 270C498 255 484 248 477 250C474 250 471 255 471 263Z"/><path style="--part:3" id="z22259d5" d="M569 551C614 487 641 430 669 382C678 363 690 346 706 329C711 322 713 315 710 308C706 299 694 288 675 274C660 263 651 258 645 259C633 260 629 266 629 277C622 354 579 455 524 523C513 535 502 547 491 559C413 635 383 650 294 707C288 710 286 714 292 718C294 720 303 720 312 718C360 704 407 686 449 658C483 633 499 621 532 593C546 580 558 566 569 551Z"/><path style="--part:3" id="z22259d6" d="M532 593C634 678 684 718 688 719C691 719 696 717 701 711C706 702 704 685 696 663C685 633 651 602 569 551C539 532 539 532 524 523C451 478 381 442 342 423C336 420 334 423 334 430C333 438 335 444 343 449C387 481 441 518 491 559C518 582 518 582 532 593Z"/><path style="--part:1" id="z22259d7" d="M266 835C275 839 288 839 300 839C618 815 689 808 743 819C754 821 760 794 751 788C720 764 699 754 669 759C528 780 382 794 270 798C258 798 254 830 266 835Z"/></g>
<defs><clipPath id="z22259c1"><use href="#z22259d1"/></clipPath>
	<clipPath id="z22259c2"><use href="#z22259d2"/></clipPath>
	<clipPath id="z22259c3"><use href="#z22259d3"/></clipPath>
	<clipPath id="z22259c4"><use href="#z22259d4"/></clipPath>
	<clipPath id="z22259c5"><use href="#z22259d5"/></clipPath>
	<clipPath id="z22259c6"><use href="#z22259d6"/></clipPath>
	<clipPath id="z22259c7"><use href="#z22259d7"/></clipPath><marker id="guide-arrow" viewBox="0 0 16 16" refX="5" refY="5" markerWidth="4" markerHeight="4" orient="auto-start-reverse"><path d="M 0 0 L 10 5 L 0 10 z" fill="inherit"/></marker></defs>
<g class="strokes"><path style="--part:1" pathLength="3333" clip-path="url(#z22259c1)" d="M210 149L253 201L258 263L234 867"/><path style="--part:1" pathLength="3333" clip-path="url(#z22259c2)" d="M269 172L301 186L725 131L788 162L805 191L791 910"/><path style="--part:2" pathLength="3333" clip-path="url(#z22259c3)" d="M376 317L465 420"/><path style="--part:2" pathLength="3333" clip-path="url(#z22259c4)" d="M479 258L538 318L551 362"/><path style="--part:3" pathLength="3333" clip-path="url(#z22259c5)" d="M637 268L665 323L542 543L432 642L296 712"/><path style="--part:3" pathLength="3333" clip-path="url(#z22259c6)" d="M340 430L621 624L692 713"/><path style="--part:1" pathLength="3333" clip-path="url(#z22259c7)" d="M262 821L668 786L751 801"/></g>
<g class="guides"><text class="g1" style="--gs:1" x="210" y="149">①</text><path class="g1 aligned" style="--gs:1" d="M210,149 Q253,201 254.25,216.5 Q258,263 252,414 Q240,716 234,867"/><path class="g1 offset" style="--gs:1" d="M114,149 Q157,201 158.25,216.5 Q162,263 156,414 Q144,716 138,867"/><text class="g2" style="--gs:2" x="269" y="172">②</text><path class="g2 aligned" style="--gs:2" d="M285,179 Q725,131 756.5,146.5 Q788,162 796.5,176.5 Q805,191 798,550.5 Q798,550.5 791,910"/><path class="g2 offset" style="--gs:2" d="M285,275 Q623.46,227 647.69,242.5 Q671.92,258 678.46,268.8 Q685,279.61 679.62,594.8 Q679.62,594.8 674.23,910"/><text class="g3" style="--gs:3" x="376" y="317">③</text><path class="g3 aligned" style="--gs:3" d="M376,317 L465,420"/><path class="g3 offset" style="--gs:3" d="M461.68,248.46 L550.68,351.46"/><text class="g4" style="--gs:4" x="479" y="258">④</text><path class="g4 aligned" style="--gs:4" d="M479,258 Q538,318 539.63,323.5 Q549.38,356.5 551,362"/><path class="g4 offset" style="--gs:4" d="M564.68,189.46 Q623.68,249.46 625.3,254.96 Q635.05,287.96 636.68,293.46"/><text class="g5" style="--gs:5" x="637" y="268">⑤</text><path class="g5 aligned" style="--gs:5" d="M637,268 Q665,323 603.5,433 Q542,543 487,592.5 Q432,642 364,677 Q364,677 296,712"/><path class="g5 offset" style="--gs:5" d="M541,268 Q559.89,311.11 518.39,397.32 Q476.89,483.54 439.78,522.34 Q402.67,561.14 356.78,588.57 Q356.78,588.57 310.89,616"/><text class="g6" style="--gs:6" x="340" y="430">⑥</text><path class="g6 aligned" style="--gs:6" d="M340,430 Q621,624 629.88,635.13 Q683.13,701.88 692,713"/><path class="g6 offset" style="--gs:6" d="M425.68,361.46 Q706.68,555.46 715.56,566.58 Q768.81,633.33 777.68,644.46"/><text class="g7" style="--gs:7" x="262" y="821">⑦</text><path class="g7 aligned" style="--gs:7" d="M262,821 Q668,786 678.38,787.88 Q740.63,799.13 751,801"/><path class="g7 offset" style="--gs:7" d="M262,917 Q668,882 678.38,883.88 Q740.63,895.13 751,897"/></g>
<g class="parts"><rect data-part="1" data-literal="囗" data-radical="true" role="button" tabindex="0" aria-label="Part 囗 (radical)" x="138" y="59" width="739" height="923"/><rect data-part="3" data-literal="㐅" role="button" tabindex="0" aria-label="Part 㐅" x="224" y="196" width="540" height="589"/><rect data-part="2" data-literal="⺀" role="button" tabindex="0" aria-label="Part ⺀" x="304" y="186" width="319" height="306"/></g>
</svg>
