<!--
  Stroke-order data for 圈, derived from AnimCJK (https://github.com/parsimonhi/animCJK),
  itself derived from the Arphic PL KaitiM fonts. Distributed under the Arphic Public License
  (see ARPHICPL.TXT). Regenerated by scripts/build-strokes.ts — do not edit by hand.
-->
<svg id="z22280" class="acjk" viewBox="0 0 1024 1024" xmlns="http://www.w3.org/2000/svg">
<g class="glyph"><path style="--part:1" id="z22280d1" d="M235 147C215 133 196 125 185 132C174 138 189 176 194 185C215 228 220 383 203 649C200 691 189 736 176 784C164 824 170 862 199 898C206 908 217 908 224 899C229 891 234 883 236 875C238 862 241 849 242 836C246 772 248 650 248 629C248 621 248 621 248 617C248 475 259 208 263 193C267 175 249 158 235 147Z"/><path style="--part:1" id="z22280d2" d="M757 854C762 881 766 891 776 912C781 925 791 934 801 934C809 933 815 925 823 912C842 876 841 792 834 660C817 363 825 206 838 185C839 182 841 180 844 177C852 167 855 158 855 154C854 144 841 132 820 117C776 86 745 81 718 92C704 97 685 99 661 102C555 112 438 125 312 144C285 147 259 147 235 147C217 147 245 196 263 193C286 190 348 177 434 165C540 149 635 141 717 138C735 137 743 141 750 150C762 168 773 302 773 554C773 565 773 565 773 571C773 593 776 713 776 739C775 782 769 810 766 823C764 834 755 843 757 854Z"/><path style="--part:2" id="z22280d3" d="M345 262C337 279 325 301 309 328C306 332 305 337 310 341C313 342 318 340 322 338C361 309 389 287 408 278C417 273 421 269 418 263C413 253 406 243 395 233C384 223 372 216 360 217C351 217 347 223 349 236C350 243 349 253 345 262Z"/><path style="--part:2" id="z22280d4" d="M584 230C613 270 637 291 655 293C663 294 672 287 675 274C677 264 672 252 666 239C654 218 627 206 589 201C581 200 579 203 579 212C578 217 578 223 584 230Z"/><path style="--part:2" id="z22280d5" d="M490 362C496 360 502 359 509 358C527 354 527 354 536 352C598 338 629 332 631 331C636 326 635 320 634 317C629 309 618 305 605 302C587 298 573 300 557 306C538 312 519 318 499 323C470 330 470 330 456 333C431 338 405 338 379 342C359 344 354 351 370 361C389 371 416 377 447 371C476 365 476 365 490 362Z"/><path style="--part:2" id="z22280d6" d="M453 458C470 454 546 445 568 444C597 442 597 442 612 441C636 439 647 441 707 440C717 439 724 436 727 432C729 426 726 417 718 412C683 386 652 384 613 396C606 397 591 401 580 404C557 409 557 409 546 411C534 413 486 420 470 423C440 428 440 428 425 430C382 436 337 441 290 449C278 451 275 455 286 465C293 471 301 478 312 481C322 484 334 483 343 481C363 475 383 471 405 467C437 461 437 461 453 458Z"/><path style="--part:2" id="z22280d7" d="M248 629C294 621 338 595 383 553C395 542 395 542 401 536C417 520 438 488 453 458C464 435 464 435 470 423C476 409 486 376 490 362C496 336 496 336 499 323C510 275 517 239 529 216C533 206 530 198 524 194C497 173 479 166 464 171C457 173 453 177 458 187C468 214 465 292 456 333C450 358 450 358 447 371C443 385 433 413 425 430C412 455 412 455 405 467C374 524 323 565 269 602C262 606 254 611 248 617C245 619 244 630 248 629Z"/><path style="--part:2" id="z22280d8" d="M509 358C521 376 533 393 547 413C561 434 561 434 568 444C616 514 658 578 678 583C678 583 693 585 697 585C729 579 755 574 773 571C779 570 778 556 773 554C751 546 728 539 712 531C684 516 648 482 612 441C591 416 591 416 580 404C564 386 553 369 536 352C529 345 503 351 509 358Z"/><path style="--part:2" id="z22280d9" d="M436 579C470 567 500 556 527 555C540 554 542 562 543 572C543 587 540 609 536 620C529 634 517 642 507 640C492 637 482 633 474 631C461 627 460 631 470 642C482 655 504 679 514 691C519 697 524 698 531 694C551 681 568 645 581 587C584 572 588 561 594 555C598 549 599 542 598 539C593 532 579 526 557 518C547 513 540 515 532 522C520 530 486 540 430 553C421 554 428 582 436 579Z"/><path style="--part:2" id="z22280d10" d="M383 553C389 567 391 586 391 610C389 684 387 727 414 748C429 760 452 766 477 769C502 771 537 771 578 768C614 764 640 757 655 750C667 743 670 731 666 719C657 699 651 675 647 645C646 637 643 631 641 630C636 626 635 631 633 641C625 679 616 700 610 708C604 714 595 721 580 726C543 737 508 739 479 736C462 735 436 731 429 715C423 704 422 684 423 655C423 624 430 596 436 579C439 571 437 559 430 553C418 544 408 538 401 536C393 533 380 545 383 553Z"/><path style="--part:1" id="z22280d11" d="M240 875C346 859 752 839 757 854C767 858 774 831 766 823C752 809 744 805 731 800C717 794 697 793 674 797C514 819 370 832 242 836C229 836 223 875 236 875C239 875 239 875 240 875Z"/></g>
<defs><clipPath id="z22280c1"><use href="#z22280d1"/></clipPath>
	<clipPath id="z22280c2"><use href="#z22280d2"/></clipPath>
	<clipPath id="z22280c3"><use href="#z22280d3"/></clipPath>
	<clipPath id="z22280c4"><use href="#z22280d4"/></clipPath>
	<clipPath id="z22280c5"><use href="#z22280d5"/></clipPath>
	<clipPath id="z22280c6"><use href="#z22280d6"/></clipPath>
	<clipPath id="z22280c7"><use href="#z22280d7"/></clipPath>
	<clipPath id="z22280c8"><use href="#z22280d8"/></clipPath>
	<clipPath id="z22280c9"><use href="#z22280d9"/></clipPath>
	<clipPath id="z22280c10"><use href="#z22280d10"/></clipPath>
	<clipPath id="z22280c11"><use href="#z22280d11"/></clipPath><marker id="guide-arrow" viewBox="0 0 16 16" refX="5" refY="5" markerWidth="4" markerHeight="4" orient="auto-start-reverse"><path d="M 0 0 L 10 5 L 0 10 z" fill="inherit"/></marker></defs>
<g class="strokes"><path style="--part:1" pathLength="3333" clip-path="url(#z22280c1)" d="M188 138L232 201L212 902"/><path style="--part:1" pathLength="3333" clip-path="url(#z22280c2)" d="M235 156L278 169L735 113L796 149L799 930"/><path style="--part:2" pathLength="3333" clip-path="url(#z22280c3)" d="M357 224L379 270L313 334"/><path style="--part:2" pathLength="3333" clip-path="url(#z22280c4)" d="M586 210L670 279"/><path style="--part:2" pathLength="3333" clip-path="url(#z22280c5)" d="M371 352L631 322"/><path style="--part:2" pathLength="3333" clip-path="url(#z22280c6)" d="M287 456L650 414L721 429"/><path style="--part:2" pathLength="3333" clip-path="url(#z22280c7)" d="M465 176L497 216L441 440L367 545L251 623"/><path style="--part:2" pathLength="3333" clip-path="url(#z22280c8)" d="M516 355L683 549L772 562"/><path style="--part:2" pathLength="3333" clip-path="url(#z22280c9)" d="M429 563L540 535L570 555L527 663L471 637"/><path style="--part:2" pathLength="3333" clip-path="url(#z22280c10)" d="M396 542L411 715L441 745L548 752L635 727L637 638"/><path style="--part:1" pathLength="3333" clip-path="url(#z22280c11)" d="M232 864L675 822L766 833"/></g>
<g class="guides"><text class="g1" style="--gs:1" x="188" y="138">①</text><path class="g1 aligned" style="--gs:1" d="M188,138 Q232,201 229.5,288.63 Q214.5,814.38 212,902"/><path class="g1 offset" style="--gs:1" d="M92,138 Q136,201 133.5,288.63 Q118.5,814.38 116,902"/><text class="g2" style="--gs:2" x="235" y="156">②</text><path class="g2 aligned" style="--gs:2" d="M235,156 Q278,169 506.5,141 Q735,113 765.5,131 Q796,149 797.5,539.5 Q797.5,539.5 799,930"/><path class="g2 offset" style="--gs:2" d="M235,252 Q268.85,261.94 448.73,240.53 Q628.62,219.11 652.63,232.88 Q676.64,246.65 677.82,545.38 Q677.82,545.38 679,844.11"/><text class="g3" style="--gs:3" x="357" y="224">③</text><path class="g3 aligned" style="--gs:3" d="M357,224 Q379,270 370.75,278 Q321.25,326 313,334"/><path class="g3 offset" style="--gs:3" d="M261,224 Q272,247 267.88,251 Q243.13,275 239,279"/><text class="g4" style="--gs:4" x="586" y="210">④</text><path class="g4 aligned" style="--gs:4" d="M586,210 L670,279"/><path class="g4 offset" style="--gs:4" d="M671.68,141.46 L755.68,210.46"/><text class="g5" style="--gs:5" x="371" y="352">⑤</text><path class="g5 aligned" style="--gs:5" d="M371,352 L631,322"/><path class="g5 offset" style="--gs:5" d="M371,448 L631,418"/><text class="g6" style="--gs:6" x="287" y="456">⑥</text><path class="g6 aligned" style="--gs:6" d="M287,456 Q650,414 658.88,415.88 Q712.13,427.13 721,429"/><path class="g6 offset" style="--gs:6" d="M287,552 Q650,510 658.88,511.88 Q712.13,523.13 721,525"/><text class="g7" style="--gs:7" x="465" y="176">⑦</text><path class="g7 aligned" style="--gs:7" d="M465,176 Q497,216 469,328 Q441,440 404,492.5 Q367,545 309,584 Q309,584 251,623"/><path class="g7 offset" style="--gs:7" d="M369,176 Q388.51,207.41 371.44,295.36 Q354.37,383.3 331.8,424.53 Q309.24,465.75 273.88,496.38 Q273.88,496.38 238.51,527"/><text class="g8" style="--gs:8" x="516" y="355">⑧</text><path class="g8 aligned" style="--gs:8" d="M516,355 Q683,549 694.13,550.63 Q760.88,560.38 772,562"/><path class="g8 offset" style="--gs:8" d="M601.68,286.46 Q712.79,454.72 720.19,456.13 Q764.6,464.59 772,466"/><text class="g9" style="--gs:9" x="429" y="563">⑨</text><path class="g9 aligned" style="--gs:9" d="M429,563 Q540,535 555,545 Q570,555 548.5,609 Q527,663 499,650 Q499,650 471,637"/><path class="g9 offset" style="--gs:9" d="M429,659 Q484.5,631 492,641 Q499.5,651 488.75,705 Q478,759 464,746 Q464,746 450,733"/><text class="g10" style="--gs:10" x="396" y="542">⑩</text><path class="g10 aligned" style="--gs:10" d="M396,542 Q411,715 426,730 Q441,745 494.5,748.5 Q548,752 591.5,739.5 Q635,727 636,682.5 Q636,682.5 637,638"/><path class="g10 offset" style="--gs:10" d="M516,542 Q531,715 546,730 Q561,745 614.5,748.5 Q668,752 711.5,739.5 Q755,727 756,682.5 Q756,682.5 757,638"/><text class="g11" style="--gs:11" x="232" y="864">⑪</text><path class="g11 aligned" style="--gs:11" d="M232,864 Q675,822 686.38,823.38 Q754.63,831.63 766,833"/><path class="g11 offset" style="--gs:11" d="M232,960 Q675,918 686.38,919.38 Q754.63,927.63 766,929"/></g>
<g class="parts"><rect data-part="1" data-literal="囗" data-radical="true" role="button" tabindex="0" aria-label="Part 囗 (radical)" x="116" y="41" width="755" height="961"/><rect data-part="2" data-literal="卷" role="button" tabindex="0" aria-label="Part 卷" x="179" y="104" width="665" height="720"/></g>
</svg>
