<!--
  Stroke-order data for 坤, derived from AnimCJK (https://github.com/parsimonhi/animCJK),
  itself derived from the Arphic PL KaitiM fonts. Distributed under the Arphic Public License
  (see ARPHICPL.TXT). Regenerated by scripts/build-strokes.ts — do not edit by hand.
-->
<svg id="z22372" class="acjk" viewBox="0 0 1024 1024" xmlns="http://www.w3.org/2000/svg">
<g class="glyph"><path id="z22372d1" d="M298 398Q320 391 344 386Q375 376 381 371Q388 364 384 355Q377 345 347 339Q323 335 300 344C266 357 266 357 249 364Q230 368 214 375Q171 388 119 395Q85 404 110 418Q155 439 208 421Q227 415 250 411C282 402 282 402 298 398Z"/><path id="z22372d2" d="M290 583Q294 487 298 398C299 362 299 362 300 344Q303 239 321 175Q324 163 303 148Q266 129 241 125Q225 122 216 131Q209 138 217 154Q244 191 244 218Q248 288 249 364C250 395 250 395 250 411Q250 499 246 598C246 613 290 598 290 583Z"/><path id="z22372d3" d="M246 598Q188 617 126 640Q108 647 79 647Q66 650 64 660Q63 673 73 682Q98 697 133 714Q143 717 156 707Q189 679 227 657Q285 627 343 595Q365 583 381 570Q394 561 394 551Q388 547 290 583C261 593 261 593 246 598Z"/><path id="z22372d4" d="M448 318Q424 303 400 298Q393 297 388 302Q381 308 390 318Q432 382 447 537Q448 591 487 623Q488 623 491 625Q507 629 508 604C507 587 507 587 507 578Q504 556 496 531Q492 497 484 454Q475 399 472 354C472 340 460 327 448 318Z"/><path id="z22372d5" d="M734 576Q755 604 773 612Q785 621 801 596Q817 565 847 399Q857 363 882 335Q897 320 884 305Q866 286 817 258Q799 249 702 271Q690 271 660 279C624 286 624 286 606 289Q584 292 560 297Q499 310 448 318C434 321 460 361 472 354Q481 345 605 325C641 320 641 320 659 317Q690 310 727 306Q761 300 773 312Q789 331 787 349Q763 532 741 544C733 552 727 567 734 576Z"/><path id="z22372d6" d="M658 451Q688 444 715 441Q737 437 729 424Q719 409 693 405Q677 404 658 408C623 418 623 418 605 423Q565 436 531 447Q515 451 535 465Q544 472 562 468Q583 464 605 460C640 454 640 454 658 451Z"/><path id="z22372d7" d="M657 585Q697 579 734 576C745 576 751 548 741 544Q710 529 657 549C622 556 622 556 604 559Q553 569 507 578C498 580 499 604 508 604Q515 604 528 603Q567 596 604 593C639 588 639 588 657 585Z"/><path id="z22372d8" d="M604 593Q598 935 616 964Q631 980 640 959Q658 917 657 585C657 561 657 561 657 549Q657 497 658 451C658 422 658 422 658 408Q658 359 659 317C660 292 660 292 660 279Q663 159 685 124Q692 108 672 92Q647 73 604 61Q585 57 572 70Q562 79 574 91Q605 116 607 153Q607 207 606 289C605 313 605 313 605 325Q605 370 605 423C605 448 605 448 605 460Q605 508 604 559C604 582 604 582 604 593Z"/></g>
<defs><clipPath id="z22372c1"><use href="#z22372d1"/></clipPath>
	<clipPath id="z22372c2"><use href="#z22372d2"/></clipPath>
	<clipPath id="z22372c3"><use href="#z22372d3"/></clipPath>
	<clipPath id="z22372c4"><use href="#z22372d4"/></clipPath>
	<clipPath id="z22372c5"><use href="#z22372d5"/></clipPath>
	<clipPath id="z22372c6"><use href="#z22372d6"/></clipPath>
	<clipPath id="z22372c7"><use href="#z22372d7"/></clipPath>
	<clipPath id="z22372c8"><use href="#z22372d8"/></clipPath><marker id="guide-arrow" viewBox="0 0 16 16" refX="5" refY="5" markerWidth="4" markerHeight="4" orient="auto-start-reverse"><path d="M 0 0 L 10 5 L 0 10 z" fill="inherit"/></marker></defs>
<g class="strokes"><path pathLength="3333" clip-path="url(#z22372c1)" d="M108 407L377 362"/><path pathLength="3333" clip-path="url(#z22372c2)" d="M220 136L280 183L260 601"/><path pathLength="3333" clip-path="url(#z22372c3)" d="M68 662L140 675L385 557"/><path pathLength="3333" clip-path="url(#z22372c4)" d="M396 308L440 352L493 621"/><path pathLength="3333" clip-path="url(#z22372c5)" d="M450 323L772 281L819 304L838 332L772 609"/><path pathLength="3333" clip-path="url(#z22372c6)" d="M528 453L724 430"/><path pathLength="3333" clip-path="url(#z22372c7)" d="M504 593L742 556"/><path pathLength="3333" clip-path="url(#z22372c8)" d="M573 79L645 126L627 965"/></g>
<g class="guides"><text class="g1" style="--gs:1" x="108" y="407">①</text><path class="g1 aligned" style="--gs:1" d="M108,407 L377,362"/><path class="g1 offset" style="--gs:1" d="M108,503 L377,458"/><text class="g2" style="--gs:2" x="220" y="136">②</text><path class="g2 aligned" style="--gs:2" d="M220,136 Q280,183 277.5,235.25 Q262.5,548.75 260,601"/><path class="g2 offset" style="--gs:2" d="M124,136 Q184,183 181.5,235.25 Q166.5,548.75 164,601"/><text class="g3" style="--gs:3" x="68" y="662">③</text><path class="g3 aligned" style="--gs:3" d="M68,662 Q140,675 170.63,660.25 Q354.38,571.75 385,557"/><path class="g3 offset" style="--gs:3" d="M68,758 Q140,771 170.63,756.25 Q354.38,667.75 385,653"/><text class="g4" style="--gs:4" x="396" y="308">④</text><path class="g4 aligned" style="--gs:4" d="M396,308 Q440,352 446.63,385.63 Q486.38,587.38 493,621"/><path class="g4 offset" style="--gs:4" d="M481.68,239.46 Q525.68,283.46 532.3,317.08 Q572.05,518.83 578.68,552.46"/><text class="g5" style="--gs:5" x="450" y="323">⑤</text><path class="g5 aligned" style="--gs:5" d="M450,323 Q772,281 795.5,292.5 Q819,304 828.5,318 Q838,332 805,470.5 Q805,470.5 772,609"/><path class="g5 offset" style="--gs:5" d="M450,419 Q672.41,377 688.64,388.5 Q704.88,400 711.44,406.54 Q718,413.07 695.21,511.04 Q695.21,511.04 672.41,609"/><text class="g6" style="--gs:6" x="528" y="453">⑥</text><path class="g6 aligned" style="--gs:6" d="M528,453 L724,430"/><path class="g6 offset" style="--gs:6" d="M528,549 L724,526"/><text class="g7" style="--gs:7" x="504" y="593">⑦</text><path class="g7 aligned" style="--gs:7" d="M504,593 L742,556"/><path class="g7 offset" style="--gs:7" d="M504,689 L742,652"/><text class="g8" style="--gs:8" x="573" y="79">⑧</text><path class="g8 aligned" style="--gs:8" d="M573,79 Q645,126 642.75,230.88 Q629.25,860.13 627,965"/><path class="g8 offset" style="--gs:8" d="M477,79 Q549,126 546.75,230.88 Q533.25,860.13 531,965"/></g>
</svg>
