<!--
  Stroke-order data for 埜, derived from AnimCJK (https://github.com/parsimonhi/animCJK),
  itself derived from the Arphic PL KaitiM fonts. Distributed under the Arphic Public License
  (see ARPHICPL.TXT). Regenerated by scripts/build-strokes.ts — do not edit by hand.
-->
<svg id="z22492" class="acjk" viewBox="0 0 1024 1024" xmlns="http://www.w3.org/2000/svg">
<g class="glyph"><path id="z22492d1" d="M367 302C385 296 404 291 424 288C446 282 460 277 464 274C468 269 469 264 467 259C462 252 451 246 433 242C415 239 397 241 379 249C376 249 374 250 373 252C361 261 344 263 329 266C281 278 236 287 195 294C173 298 170 305 186 315C210 327 244 328 287 319C293 317 302 315 312 314C349 306 349 306 367 302Z"/><path id="z22492d2" d="M364 347C364 331 365 316 367 302C371 269 371 269 373 252C377 214 384 184 396 164C400 158 398 150 391 142C359 114 333 103 314 110C305 112 303 118 307 128C327 160 334 206 329 266C328 335 328 335 327 370C325 428 321 488 315 512C314 518 319 535 330 562C336 572 343 574 353 569C359 564 362 490 362 387C362 381 362 375 363 369C364 354 364 354 364 347Z"/><path id="z22492d3" d="M312 314C278 374 218 446 133 532C129 538 130 541 137 543C145 545 179 521 241 471C269 446 298 412 327 370C360 327 336 266 312 314Z"/><path id="z22492d4" d="M363 369C401 401 424 418 434 420C435 420 435 420 436 420C444 420 449 414 451 404C451 397 448 388 442 378C426 358 400 348 366 348C365 347 364 347 364 347C357 346 357 365 363 369Z"/><path id="z22492d5" d="M654 262C734 242 776 230 780 227C784 222 785 217 783 211C778 204 766 198 748 194C726 191 696 198 659 214C629 223 629 223 614 228C611 228 609 228 609 229C578 237 544 243 508 248C484 252 480 260 498 270C530 284 561 286 593 277C593 276 594 276 596 277C635 267 635 267 654 262Z"/><path id="z22492d6" d="M652 278C652 272 653 266 654 262C657 230 657 230 659 214C663 174 671 143 683 122C687 115 685 107 677 99C643 71 616 60 597 67C588 69 585 76 589 86C605 112 613 159 614 228C613 295 613 295 613 329C611 391 607 456 602 482C601 490 606 507 617 533C623 543 631 546 641 541C647 535 651 506 652 456C650 430 649 368 651 311C652 289 652 289 652 278Z"/><path id="z22492d7" d="M596 277C568 335 521 402 456 478C453 482 454 485 460 487C462 487 467 485 473 481C527 442 574 391 613 329C640 285 619 231 596 277Z"/><path id="z22492d8" d="M651 311C687 365 730 420 779 478C789 488 802 492 818 492C874 488 910 484 927 481C931 480 934 478 936 475C936 472 932 469 926 465C847 433 788 400 749 368C718 342 686 312 652 278C644 270 644 302 651 311Z"/><path id="z22492d9" d="M529 696Q583 686 641 678Q696 668 703 662Q713 653 709 644Q702 632 673 623Q641 616 611 625Q573 637 533 647C495 656 495 656 476 660Q404 671 323 675Q285 679 311 698Q354 724 410 714Q442 708 477 703C512 698 512 698 529 696Z"/><path id="z22492d10" d="M518 832Q524 760 529 696C532 663 532 663 533 647Q533 630 549 573Q552 564 533 548Q499 530 476 527Q461 523 453 531Q447 538 454 552Q472 578 472 596Q473 625 476 660C477 689 477 689 477 703Q478 766 477 835C477 849 518 846 518 832Z"/><path id="z22492d11" d="M477 835C380 844 255 855 143 865C127 866 124 873 135 886C158 909 183 917 212 911C379 872 630 855 886 869C886 869 887 869 889 869C905 870 914 867 918 861C922 853 919 843 906 831C867 800 829 788 792 795C727 805 622 819 518 832C491 834 491 834 477 835Z"/></g>
<defs><clipPath id="z22492c1"><use href="#z22492d1"/></clipPath>
	<clipPath id="z22492c2"><use href="#z22492d2"/></clipPath>
	<clipPath id="z22492c3"><use href="#z22492d3"/></clipPath>
	<clipPath id="z22492c4"><use href="#z22492d4"/></clipPath>
	<clipPath id="z22492c5"><use href="#z22492d5"/></clipPath>
	<clipPath id="z22492c6"><use href="#z22492d6"/></clipPath>
	<clipPath id="z22492c7"><use href="#z22492d7"/></clipPath>
	<clipPath id="z22492c8"><use href="#z22492d8"/></clipPath>
	<clipPath id="z22492c9"><use href="#z22492d9"/></clipPath>
	<clipPath id="z22492c10"><use href="#z22492d10"/></clipPath>
	<clipPath id="z22492c11"><use href="#z22492d11"/></clipPath><marker id="guide-arrow" viewBox="0 0 16 16" refX="5" refY="5" markerWidth="4" markerHeight="4" orient="auto-start-reverse"><path d="M 0 0 L 10 5 L 0 10 z" fill="inherit"/></marker></defs>
<g class="strokes"><path pathLength="3333" clip-path="url(#z22492c1)" d="M182 302L463 261"/><path pathLength="3333" clip-path="url(#z22492c2)" d="M313 117L361 166L344 568"/><path pathLength="3333" clip-path="url(#z22492c3)" d="M321 319L268 414L138 535"/><path pathLength="3333" clip-path="url(#z22492c4)" d="M370 352L441 413"/><path pathLength="3333" clip-path="url(#z22492c5)" d="M498 259L780 216"/><path pathLength="3333" clip-path="url(#z22492c6)" d="M595 75L645 125L630 539"/><path pathLength="3333" clip-path="url(#z22492c7)" d="M608 280L563 369L464 481"/><path pathLength="3333" clip-path="url(#z22492c8)" d="M654 285L803 449L928 472"/><path pathLength="3333" clip-path="url(#z22492c9)" d="M305 684L398 692L705 650"/><path pathLength="3333" clip-path="url(#z22492c10)" d="M456 532L510 581L494 833"/><path pathLength="3333" clip-path="url(#z22492c11)" d="M156 871L216 885L785 832L894 854"/></g>
<g class="guides"><text class="g1" style="--gs:1" x="182" y="302">①</text><path class="g1 aligned" style="--gs:1" d="M182,302 L463,261"/><path class="g1 offset" style="--gs:1" d="M182,398 L463,357"/><text class="g2" style="--gs:2" x="313" y="117">②</text><path class="g2 aligned" style="--gs:2" d="M313,117 Q361,166 358.88,216.25 Q346.13,517.75 344,568"/><path class="g2 offset" style="--gs:2" d="M217,117 Q265,166 262.88,216.25 Q250.13,517.75 248,568"/><text class="g3" style="--gs:3" x="321" y="319">③</text><path class="g3 aligned" style="--gs:3" d="M321,319 Q268,414 251.75,429.13 Q154.25,519.88 138,535"/><path class="g3 offset" style="--gs:3" d="M225,319 Q198.5,371.78 190.38,380.18 Q141.63,430.6 133.5,439"/><text class="g4" style="--gs:4" x="370" y="352">④</text><path class="g4 aligned" style="--gs:4" d="M370,352 L441,413"/><path class="g4 offset" style="--gs:4" d="M455.68,283.46 L526.68,344.46"/><text class="g5" style="--gs:5" x="498" y="259">⑤</text><path class="g5 aligned" style="--gs:5" d="M498,259 L780,216"/><path class="g5 offset" style="--gs:5" d="M498,355 L780,312"/><text class="g6" style="--gs:6" x="595" y="75">⑥</text><path class="g6 aligned" style="--gs:6" d="M595,75 Q645,125 643.13,176.75 Q631.88,487.25 630,539"/><path class="g6 offset" style="--gs:6" d="M499,75 Q549,125 547.13,176.75 Q535.88,487.25 534,539"/><text class="g7" style="--gs:7" x="608" y="280">⑦</text><path class="g7 aligned" style="--gs:7" d="M608,280 Q563,369 550.63,383 Q476.38,467 464,481"/><path class="g7 offset" style="--gs:7" d="M512,280 Q489.5,326.49 483.31,333.81 Q446.19,377.69 440,385"/><text class="g8" style="--gs:8" x="654" y="285">⑧</text><path class="g8 aligned" style="--gs:8" d="M654,285 Q803,449 818.63,451.88 Q912.38,469.13 928,472"/><path class="g8 offset" style="--gs:8" d="M739.68,216.46 Q842.09,356.38 852.83,358.83 Q917.26,373.55 928,376"/><text class="g9" style="--gs:9" x="305" y="684">⑨</text><path class="g9 aligned" style="--gs:9" d="M305,684 Q398,692 436.38,686.75 Q666.63,655.25 705,650"/><path class="g9 offset" style="--gs:9" d="M305,780 Q398,788 436.38,782.75 Q666.63,751.25 705,746"/><text class="g10" style="--gs:10" x="456" y="532">⑩</text><path class="g10 aligned" style="--gs:10" d="M456,532 Q510,581 508,612.5 Q496,801.5 494,833"/><path class="g10 offset" style="--gs:10" d="M360,532 Q414,581 412,612.5 Q400,801.5 398,833"/><text class="g11" style="--gs:11" x="156" y="871">⑪</text><path class="g11 aligned" style="--gs:11" d="M156,871 Q216,885 358.25,871.75 Q785,832 812.25,837.5 Q866.75,848.5 894,854"/><path class="g11 offset" style="--gs:11" d="M156,967 Q216,981 358.25,967.75 Q785,928 812.25,933.5 Q866.75,944.5 894,950"/></g>
</svg>
