<svg id="z22519" class="acjk" viewBox="0 0 1024 1024" xmlns="http://www.w3.org/2000/svg">
<style>

@keyframes zk {
	to {
		stroke-dashoffset:0;
	}
}
svg.acjk path[clip-path] {
	--t:0.8s;
	animation:zk var(--t) linear forwards var(--d);
	stroke-dasharray:3337;
	stroke-dashoffset:3339;
	stroke-width:128;
	stroke-linecap:round;
	fill:none;
	stroke:#000;
}
svg.acjk path[id] {fill:#ccc;}


    @keyframes guide-fade {
        0% { opacity: 0; }
        3% { opacity: 1; }
        95% { opacity: 1; }
        100% { opacity: 0; }
    }

    svg.acjk #guide-arrow {
        fill: #f77;
    }

    svg.acjk .guides {
        circle {
            fill: #0f6;
        }

        path {
            opacity: 0;
            animation: guide-fade var(--t) linear forwards var(--d);
            stroke-width: 16px;
            stroke-linecap: round;
            stroke: #f77;
            fill: none;
            marker-end: url(#guide-arrow);
        }

        circle,
        path {
            --t: 0.8s;
            opacity: 0;
            animation: guide-fade calc(var(--t) + 0.4s) ease-in-out forwards calc(var(--d) - 0.2s);
        }
    }
</style>
<path id="z22519d1" d="M370 247Q467 222 472 218Q479 211 475 203Q468 193 441 187Q410 183 374 200C339 211 339 211 321 217Q281 226 235 234Q201 241 226 255Q265 274 316 260Q317 259 322 260C339 260 354 250 370 247Z"/>
<path id="z22519d2" d="M362 335Q366 289 370 247C373 216 373 216 374 200Q374 148 392 91Q395 81 376 67Q343 48 321 44Q305 41 298 49Q291 56 298 70Q316 95 317 112Q320 161 321 217C322 246 322 246 322 260Q322 300 321 345C321 359 362 349 362 335Z"/>
<path id="z22519d3" d="M399 364Q448 352 506 344Q522 341 522 334Q523 322 506 314Q473 301 362 335C335 342 335 342 321 345Q158 381 80 391Q68 392 65 400Q62 410 77 421Q116 445 153 433Q288 385 373 369C390 366 390 366 399 364Z"/>
<path id="z22519d4" d="M218 451Q242 508 265 515Q278 519 287 503Q291 491 287 470Q275 445 228 427Q221 423 217 434Q213 441 218 451Z"/>
<path id="z22519d5" d="M382 516Q398 488 416 454Q423 439 438 419Q451 409 443 399Q434 384 407 367Q403 364 399 364C390 362 371 360 373 369Q372 372 376 378Q386 408 347 516Q343 523 341 532C336 546 375 529 382 516Z"/>
<path id="z22519d6" d="M343 572Q376 562 411 554Q444 544 448 539Q455 532 451 525Q444 516 421 512Q400 508 382 516C355 527 355 527 341 532Q254 559 197 569Q169 576 190 588Q220 603 301 584C329 576 329 576 343 572Z"/>
<path id="z22519d7" d="M352 679Q406 666 470 656Q486 653 486 646Q487 634 470 626Q440 614 353 639C320 648 320 648 303 652Q159 685 80 695Q67 696 65 704Q62 714 77 725Q116 749 153 736Q238 706 296 691Q297 690 302 690C335 683 335 683 352 679Z"/>
<path id="z22519d8" d="M302 690Q301 700 301 714Q297 820 288 846Q279 882 310 929Q320 947 327 950Q337 951 343 939Q355 909 352 881Q351 778 352 691Q352 684 352 679C353 652 353 652 353 639Q354 611 357 597Q360 585 353 580Q349 576 343 572C331 563 299 570 301 584Q304 600 303 652C302 677 302 677 302 690Z"/>
<path id="z22519d9" d="M565 552Q561 562 558 573Q527 663 480 737Q456 780 431 821Q425 828 424 834Q421 844 432 843Q462 837 541 718Q560 684 581 643Q591 618 601 591C612 558 612 558 618 542Q640 473 659 357C662 331 662 331 664 318Q667 224 682 164Q691 149 684 136Q666 120 635 105Q616 95 602 99Q590 106 597 121Q619 155 616 212Q615 230 614 251Q613 294 607 337C604 363 604 363 603 376Q581 496 576 515C569 540 569 540 565 552Z"/>
<path id="z22519d10" d="M659 357Q743 324 749 327Q755 331 755 348Q701 663 770 757Q843 877 949 878Q950 877 955 877Q973 874 969 852Q956 801 955 709Q955 694 951 694Q947 694 940 707Q915 783 902 791Q893 798 868 783Q778 726 776 612Q770 534 800 417Q813 362 837 336Q861 318 858 307Q854 291 798 267Q779 257 762 272Q731 291 664 318C626 331 626 331 607 337Q564 347 537 351Q513 354 529 366Q556 385 603 376C640 363 640 363 659 357Z"/>
<path id="z22519d11" d="M601 591Q662 660 672 664Q679 665 685 658Q694 649 686 617Q680 587 618 542C590 524 590 524 576 515Q537 490 514 477Q508 473 506 482Q505 492 513 500Q538 524 565 552C589 578 589 578 601 591Z"/>
<defs>
	<clipPath id="z22519c1"><use href="#z22519d1"/></clipPath>
	<clipPath id="z22519c2"><use href="#z22519d2"/></clipPath>
	<clipPath id="z22519c3"><use href="#z22519d3"/></clipPath>
	<clipPath id="z22519c4"><use href="#z22519d4"/></clipPath>
	<clipPath id="z22519c5"><use href="#z22519d5"/></clipPath>
	<clipPath id="z22519c6"><use href="#z22519d6"/></clipPath>
	<clipPath id="z22519c7"><use href="#z22519d7"/></clipPath>
	<clipPath id="z22519c8"><use href="#z22519d8"/></clipPath>
	<clipPath id="z22519c9"><use href="#z22519d9"/></clipPath>
	<clipPath id="z22519c10"><use href="#z22519d10"/></clipPath>
	<clipPath id="z22519c11"><use href="#z22519d11"/></clipPath>
<marker id="guide-arrow" viewBox="0 0 16 16" refX="5" refY="5" markerWidth="4" markerHeight="4" orient="auto-start-reverse"><path d="M 0 0 L 10 5 L 0 10 z" fill="inherit"/></marker></defs>
<path style="--d:1s;" pathLength="3333" clip-path="url(#z22519c1)" d="M225 244L471 208"/>
<path style="--d:2s;" pathLength="3333" clip-path="url(#z22519c2)" d="M302 52L354 98L334 341"/>
<path style="--d:3s;" pathLength="3333" clip-path="url(#z22519c3)" d="M69 400L124 411L515 327"/>
<path style="--d:4s;" pathLength="3333" clip-path="url(#z22519c4)" d="M225 434L280 507"/>
<path style="--d:5s;" pathLength="3333" clip-path="url(#z22519c5)" d="M382 375L410 415L348 526"/>
<path style="--d:6s;" pathLength="3333" clip-path="url(#z22519c6)" d="M190 578L446 530"/>
<path style="--d:7s;" pathLength="3333" clip-path="url(#z22519c7)" d="M68 704L137 713L480 641"/>
<path style="--d:8s;" pathLength="3333" clip-path="url(#z22519c8)" d="M307 588L330 614L329 945"/>
<path style="--d:9s;" pathLength="3333" clip-path="url(#z22519c9)" d="M603 104L650 154L607 490L539 677L431 837"/>
<path style="--d:10s;" pathLength="3333" clip-path="url(#z22519c10)" d="M531 357L601 357L750 301L798 312L754 549L770 704L833 794L921 834L937 827L949 703"/>
<path style="--d:11s;" pathLength="3333" clip-path="url(#z22519c11)" d="M514 486L684 652"/>
<g class="guides"><circle style="--d: 1s" class="g1" cx="225" cy="244" r="16"/><path style="--d: 1s;" class="g1" d="M225,340 L471,304"/><circle style="--d: 2s" class="g2" cx="302" cy="52" r="16"/><path style="--d: 2s;" class="g2" d="M206,52 Q258,98 255.5,128.375 Q240.5,310.625 238,341"/><circle style="--d: 3s" class="g3" cx="69" cy="400" r="16"/><path style="--d: 3s;" class="g3" d="M69,496 Q124,507 172.875,496.5 Q466.125,433.5 515,423"/><circle style="--d: 4s" class="g4" cx="225" cy="434" r="16"/><path style="--d: 4s;" class="g4" d="M310.68,365.456 L365.68,438.456"/><circle style="--d: 5s" class="g5" cx="382" cy="375" r="16"/><path style="--d: 5s;" class="g5" d="M286,375 Q314,415 306.25,428.875 Q259.75,512.125 252,526"/><circle style="--d: 6s" class="g6" cx="190" cy="578" r="16"/><path style="--d: 6s;" class="g6" d="M190,674 L446,626"/><circle style="--d: 7s" class="g7" cx="68" cy="704" r="16"/><path style="--d: 7s;" class="g7" d="M68,800 Q137,809 179.875,800 Q437.125,746 480,737"/><circle style="--d: 8s" class="g8" cx="319" cy="601" r="16"/><path style="--d: 8s;" class="g8" d="M439,601 L449,945"/><circle style="--d: 9s" class="g9" cx="603" cy="104" r="16"/><path style="--d: 9s;" class="g9" d="M507,104 Q533.3972602739726,147.45156889495226 521.3219178082193,293.4488403819918 Q509.2465753424658,439.44611186903137 490.1506849315069,520.7005457025921 Q471.05479452054794,601.9549795361528 440.7260273972603,671.4774897680763 Q440.7260273972603,671.4774897680763 410.3972602739726,741"/><circle style="--d: 10s" class="g10" cx="531" cy="357" r="16"/><path style="--d: 10s;" class="g10" d="M531,453 Q580.9043062200957,453 634.0167464114833,435.0863039399625 Q687.1291866028708,417.17260787992495 704.2392344497607,420.6913696060037 Q721.3492822966507,424.21013133208254 705.6650717703349,500.0234521575985 Q689.9808612440191,575.8367729831144 695.6842105263158,625.4193245778612 Q701.3875598086124,675.0018761726079 723.8444976076555,703.7917448405253 Q746.3014354066986,732.5816135084428 777.6698564593302,745.3771106941839 Q809.0382775119617,758.172607879925 814.7416267942583,755.9333958724203 Q820.444976076555,753.6941838649155 824.7224880382776,714.0281425891183 Q824.7224880382776,714.0281425891183 829,674.3621013133209"/><circle style="--d: 11s" class="g11" cx="514" cy="486" r="16"/><path style="--d: 11s;" class="g11" d="M599.68,417.456 L769.68,583.456"/></g></svg>