<!--
  Stroke-order data for 堀, derived from AnimCJK (https://github.com/parsimonhi/animCJK),
  itself derived from the Arphic PL KaitiM fonts. Distributed under the Arphic Public License
  (see ARPHICPL.TXT). Regenerated by scripts/build-strokes.ts — do not edit by hand.
-->
<svg id="z22528" class="acjk" viewBox="0 0 1024 1024" xmlns="http://www.w3.org/2000/svg">
<g class="glyph"><path style="--part:1" id="z22528d1" d="M289 409C308 403 327 397 349 391C369 385 381 378 385 375C390 369 392 365 388 359C383 352 371 346 351 344C322 340 305 350 290 357C259 370 259 370 244 376C218 386 162 399 126 407C103 411 100 421 118 430C143 441 184 439 244 422C274 413 274 413 289 409Z"/><path style="--part:1" id="z22528d2" d="M282 588C284 527 287 467 289 409C290 374 290 374 290 357C291 280 299 219 312 174C314 166 308 156 294 148C271 134 251 127 234 125C223 123 215 125 210 131C205 135 204 144 211 154C228 180 238 202 239 220C241 270 244 322 244 376C244 407 244 407 244 422C244 480 241 542 239 606C239 622 282 604 282 588Z"/><path style="--part:1" id="z22528d3" d="M239 606C201 621 169 635 122 651C111 654 97 657 80 659C71 659 66 665 66 673C65 681 68 689 76 694C92 703 112 713 138 723C144 725 152 721 160 715C180 695 328 601 350 582C357 575 363 568 361 563C358 558 350 559 343 562C322 569 302 579 282 588C253 600 253 600 239 606Z"/><path style="--part:2" id="z22528d4" d="M770 259C786 223 805 202 822 189C834 179 835 163 824 153C779 112 737 106 699 122C646 143 578 155 500 168C489 170 503 199 514 197C522 197 585 185 703 162C715 159 724 160 730 166C734 170 736 176 735 186C730 210 724 233 718 253C712 269 764 275 770 259Z"/><path style="--part:2" id="z22528d5" d="M489 335C504 342 556 319 780 291C786 290 791 286 792 280C792 275 784 268 770 259C755 250 734 247 718 253C667 269 559 292 493 304C483 306 479 333 489 335Z"/><path style="--part:2" id="z22528d6" d="M500 168C472 146 450 136 438 142C429 145 426 153 432 162C443 180 450 210 447 253C435 401 411 519 377 605C350 671 305 750 243 843C240 847 237 850 236 855C233 861 236 864 243 863C267 858 306 816 359 735C371 715 383 694 395 672C442 575 472 462 489 335C492 314 492 314 493 304C501 239 508 206 514 197C520 188 509 174 500 168Z"/><path style="--part:2" id="z22528d7" d="M671 752C673 683 676 617 680 553C681 532 681 532 682 521C684 481 686 435 699 385C700 378 697 369 684 361C664 349 645 343 630 341C620 339 612 340 608 346C603 350 603 357 609 366C624 388 626 403 631 424C635 443 637 469 637 530C637 553 637 553 637 564C637 624 635 689 633 758C633 771 671 765 671 752Z"/><path style="--part:2" id="z22528d8" d="M680 553C706 546 751 539 765 539C775 539 777 508 767 508C737 510 708 515 682 521C652 527 652 527 637 530C608 535 580 541 555 550C544 553 540 547 543 535C551 482 552 451 547 444C539 433 529 424 516 418C509 414 503 413 498 415C491 416 490 423 495 434C505 460 508 485 505 512C501 536 495 554 484 565C474 573 470 582 475 590C480 599 488 606 498 612C505 616 512 615 518 611C534 595 573 580 637 564C666 557 666 557 680 553Z"/><path style="--part:2" id="z22528d9" d="M765 539C767 551 769 562 774 572C778 582 785 584 792 578C807 564 813 533 823 487C831 446 843 425 846 422C851 414 852 405 846 398C836 386 821 377 804 365C797 360 790 359 783 363C778 365 775 370 778 377C782 387 787 412 784 454C782 474 772 499 767 508C762 517 763 529 765 539Z"/><path style="--part:2" id="z22528d10" d="M810 737C760 739 713 745 671 752C646 756 646 756 633 758C593 764 556 771 523 780C511 783 507 776 511 762C515 745 518 727 523 708C526 693 527 680 521 671C512 658 500 648 486 638C479 633 472 631 465 633C458 635 457 642 461 655C469 683 470 711 465 738C459 762 452 781 440 792C427 803 422 813 427 822C432 832 442 840 453 848C461 854 469 855 476 849C497 827 571 803 701 782C756 772 792 772 810 774C822 774 822 737 810 737Z"/><path style="--part:2" id="z22528d11" d="M810 774C810 806 817 832 832 852C838 860 844 861 850 853C859 838 860 793 854 717C851 689 854 663 856 653C857 644 857 635 850 630C838 621 821 616 801 609C793 606 786 608 780 613C776 616 774 621 779 628C787 639 810 690 810 737C810 762 810 762 810 774Z"/></g>
<defs><clipPath id="z22528c1"><use href="#z22528d1"/></clipPath>
	<clipPath id="z22528c2"><use href="#z22528d2"/></clipPath>
	<clipPath id="z22528c3"><use href="#z22528d3"/></clipPath>
	<clipPath id="z22528c4"><use href="#z22528d4"/></clipPath>
	<clipPath id="z22528c5"><use href="#z22528d5"/></clipPath>
	<clipPath id="z22528c6"><use href="#z22528d6"/></clipPath>
	<clipPath id="z22528c7"><use href="#z22528d7"/></clipPath>
	<clipPath id="z22528c8"><use href="#z22528d8"/></clipPath>
	<clipPath id="z22528c9"><use href="#z22528d9"/></clipPath>
	<clipPath id="z22528c10"><use href="#z22528d10"/></clipPath>
	<clipPath id="z22528c11"><use href="#z22528d11"/></clipPath><marker id="guide-arrow" viewBox="0 0 16 16" refX="5" refY="5" markerWidth="4" markerHeight="4" orient="auto-start-reverse"><path d="M 0 0 L 10 5 L 0 10 z" fill="inherit"/></marker></defs>
<g class="strokes"><path style="--part:1" pathLength="3333" clip-path="url(#z22528c1)" d="M115 419L382 366"/><path style="--part:1" pathLength="3333" clip-path="url(#z22528c2)" d="M214 136L274 189L261 586L246 599"/><path style="--part:1" pathLength="3333" clip-path="url(#z22528c3)" d="M70 674L143 683L356 569"/><path style="--part:2" pathLength="3333" clip-path="url(#z22528c4)" d="M509 171L744 141L782 176L747 248L726 249"/><path style="--part:2" pathLength="3333" clip-path="url(#z22528c5)" d="M494 329L717 275L786 281"/><path style="--part:2" pathLength="3333" clip-path="url(#z22528c6)" d="M437 151L479 209L427 525L344 720L241 855"/><path style="--part:2" pathLength="3333" clip-path="url(#z22528c7)" d="M613 349L664 399L650 754"/><path style="--part:2" pathLength="3333" clip-path="url(#z22528c8)" d="M500 421L527 463L521 581L763 520"/><path style="--part:2" pathLength="3333" clip-path="url(#z22528c9)" d="M787 370L816 421L786 576"/><path style="--part:2" pathLength="3333" clip-path="url(#z22528c10)" d="M469 641L497 691L473 796L490 816L809 751"/><path style="--part:2" pathLength="3333" clip-path="url(#z22528c11)" d="M784 619L824 648L844 854"/></g>
<g class="guides"><text class="g1" style="--gs:1" x="115" y="419">①</text><path class="g1 aligned" style="--gs:1" d="M115,419 L382,366"/><path class="g1 offset" style="--gs:1" d="M115,515 L382,462"/><text class="g2" style="--gs:2" x="214" y="136">②</text><path class="g2 aligned" style="--gs:2" d="M214,136 Q274,189 271.5,239.5 Q256.5,542.5 254,593"/><path class="g2 offset" style="--gs:2" d="M118,136 Q178,189 175.5,239.5 Q160.5,542.5 158,593"/><text class="g3" style="--gs:3" x="70" y="674">③</text><path class="g3 aligned" style="--gs:3" d="M70,674 Q143,683 169.63,668.75 Q329.38,583.25 356,569"/><path class="g3 offset" style="--gs:3" d="M70,770 Q143,779 169.63,764.75 Q329.38,679.25 356,665"/><text class="g4" style="--gs:4" x="509" y="171">④</text><path class="g4 aligned" style="--gs:4" d="M509,171 Q744,141 753.5,149.75 Q782,176 770.75,194.25 Q748.25,230.75 737,249"/><path class="g4 offset" style="--gs:4" d="M509,267 Q663.95,237 670.21,245.75 Q689,272 681.58,290.25 Q666.75,326.75 659.33,345"/><text class="g5" style="--gs:5" x="494" y="329">⑤</text><path class="g5 aligned" style="--gs:5" d="M494,329 Q717,275 725.63,275.75 Q777.38,280.25 786,281"/><path class="g5 offset" style="--gs:5" d="M494,425 Q717,371 725.63,371.75 Q777.38,376.25 786,377"/><text class="g6" style="--gs:6" x="437" y="151">⑥</text><path class="g6 aligned" style="--gs:6" d="M437,151 Q479,209 453,367 Q427,525 385.5,622.5 Q344,720 292.5,787.5 Q292.5,787.5 241,855"/><path class="g6 offset" style="--gs:6" d="M341,151 Q366.06,201.09 350.55,337.55 Q335.03,474 310.27,558.2 Q285.51,642.41 254.79,700.7 Q254.79,700.7 224.06,759"/><text class="g7" style="--gs:7" x="613" y="349">⑦</text><path class="g7 aligned" style="--gs:7" d="M613,349 Q664,399 662.25,443.38 Q651.75,709.63 650,754"/><path class="g7 offset" style="--gs:7" d="M517,349 Q568,399 566.25,443.38 Q555.75,709.63 554,754"/><text class="g8" style="--gs:8" x="500" y="421">⑧</text><path class="g8 aligned" style="--gs:8" d="M500,421 Q527,463 525.5,492.5 Q521,581 581.5,565.75 Q702.5,535.25 763,520"/><path class="g8 offset" style="--gs:8" d="M585.68,352.46 Q603.88,387.25 602.87,411.69 Q599.84,485 640.63,472.37 Q722.21,447.1 763,434.47"/><text class="g9" style="--gs:9" x="787" y="370">⑨</text><path class="g9 aligned" style="--gs:9" d="M787,370 Q816,421 812.25,440.38 Q789.75,556.63 786,576"/><path class="g9 offset" style="--gs:9" d="M907,370 Q936,421 932.25,440.38 Q909.75,556.63 906,576"/><text class="g10" style="--gs:10" x="469" y="641">⑩</text><path class="g10 aligned" style="--gs:10" d="M469,641 Q497,691 485,743.5 Q473,796 481.5,806 Q490,816 649.5,783.5 Q649.5,783.5 809,751"/><path class="g10 offset" style="--gs:10" d="M589,641 Q607.12,666 599.35,692.25 Q591.59,718.5 597.09,723.5 Q602.59,728.5 705.79,712.25 Q705.79,712.25 809,696"/><text class="g11" style="--gs:11" x="784" y="619">⑪</text><path class="g11 aligned" style="--gs:11" d="M784,619 Q824,648 826.5,673.75 Q841.5,828.25 844,854"/><path class="g11 offset" style="--gs:11" d="M869.68,550.46 Q909.68,579.46 912.18,605.21 Q927.18,759.71 929.68,785.46"/></g>
<g class="parts"><rect data-part="2" data-literal="屈" role="button" tabindex="0" aria-label="Part 屈" x="169" y="69" width="747" height="858"/><rect data-part="1" data-literal="土" data-radical="true" role="button" tabindex="0" aria-label="Part 土 (radical)" x="0" y="64" width="454" height="691"/></g>
</svg>
