<!--
  Stroke-order data for 堇, derived from AnimCJK (https://github.com/parsimonhi/animCJK),
  itself derived from the Arphic PL KaitiM fonts. Distributed under the Arphic Public License
  (see ARPHICPL.TXT). Regenerated by scripts/build-strokes.ts — do not edit by hand.
-->
<svg id="z22535" class="acjk" viewBox="0 0 1024 1024" xmlns="http://www.w3.org/2000/svg">
<g class="glyph"><path id="z22535d1" d="M624 228C665 224 748 217 813 214C821 213 830 212 835 203C838 195 828 187 814 179C787 163 749 162 698 173C677 177 657 181 636 185C600 191 600 191 582 194C532 202 478 210 435 214C402 217 402 217 385 218C343 221 282 222 215 227C194 228 191 234 206 248C228 268 249 275 269 272C307 264 349 260 394 255C424 251 424 251 439 249C481 243 526 236 576 232C608 229 608 229 624 228Z"/><path id="z22535d2" d="M435 214C432 193 429 173 432 154C433 141 431 132 423 127C412 120 398 115 380 112C366 109 352 111 342 120C335 125 338 132 348 141C360 152 375 177 385 218C391 243 391 243 394 255C409 320 417 361 428 373C440 386 443 373 446 358C447 347 447 336 447 326C444 295 441 273 439 249C436 226 436 226 435 214Z"/><path id="z22535d3" d="M600 310C608 281 616 254 624 228C632 199 632 199 636 185C641 163 649 139 665 113C668 107 665 97 655 88C637 72 620 62 608 58C599 54 591 55 586 59C581 61 579 68 583 78C593 104 591 133 582 194C578 219 578 219 576 232C572 256 566 281 562 308C560 320 598 322 600 310Z"/><path id="z22535d4" d="M509 350C535 345 568 340 611 338C615 337 623 337 625 331C626 320 611 314 600 310C588 305 575 306 562 308C520 315 484 321 447 326C436 328 435 358 446 358C450 358 456 359 464 358C494 353 494 353 509 350Z"/><path id="z22535d5" d="M321 435C313 431 297 427 273 425C265 424 260 425 259 428C255 432 256 439 262 449C280 477 296 515 309 563C312 577 318 588 328 598C343 610 352 609 351 592C350 580 350 569 348 558C340 522 338 499 329 468C327 457 332 439 321 435Z"/><path id="z22535d6" d="M715 527C733 492 752 471 770 459C783 449 784 436 775 425C765 414 744 400 712 382C701 375 688 375 674 380C629 394 585 406 542 413C505 418 505 418 486 421C431 428 376 432 321 435C310 435 318 470 329 468C381 461 441 453 489 447C524 442 524 442 541 440C571 435 602 431 634 426C656 422 673 424 682 435C688 442 683 470 667 518C661 533 708 542 715 527Z"/><path id="z22535d7" d="M537 573C617 564 691 559 726 562C732 562 737 558 738 552C738 547 730 539 715 527C702 517 683 515 667 518C623 523 576 533 538 539C505 544 505 544 489 546C439 553 391 554 348 558C337 560 340 592 351 592C398 588 449 582 489 578C521 575 521 575 537 573Z"/><path id="z22535d8" d="M534 729C534 708 534 688 535 670C536 642 536 642 536 628C536 609 536 591 537 573C538 550 538 550 538 539C538 506 539 473 541 440C542 422 542 422 542 413C543 366 543 371 509 350C496 342 458 344 464 358C473 379 483 398 486 421C488 438 488 438 489 447C492 479 489 546 489 546C489 567 489 567 489 578C488 617 488 617 488 636C488 663 488 663 488 676C487 694 487 713 487 737C486 764 486 764 486 777C486 819 486 819 486 840C486 855 532 851 532 836C532 813 532 791 533 770C534 743 534 743 534 729Z"/><path id="z22535d9" d="M535 670C641 656 696 645 701 642C707 637 708 632 706 627C702 619 691 612 674 607C657 602 612 615 536 628C504 633 504 633 488 636C441 643 391 645 339 647C316 647 312 655 328 667C343 678 367 685 401 683C430 682 461 679 488 676C519 672 519 672 535 670Z"/><path id="z22535d10" d="M533 770C629 755 678 745 681 744C685 740 688 735 686 730C682 722 672 716 656 712C639 706 622 708 604 713C581 718 558 724 534 729C503 734 503 734 487 737C446 743 401 746 354 749C333 750 329 758 343 768C357 778 379 782 406 783C434 783 461 780 486 777C517 772 517 772 533 770Z"/><path id="z22535d11" d="M486 840C398 847 303 854 202 862C187 863 184 869 195 881C204 891 216 899 228 903C242 907 254 908 266 906C415 871 608 862 843 877C856 877 865 874 869 869C873 860 870 851 859 842C823 812 792 801 767 806C708 816 630 827 532 836C501 839 501 839 486 840Z"/></g>
<defs><clipPath id="z22535c1"><use href="#z22535d1"/></clipPath>
	<clipPath id="z22535c2"><use href="#z22535d2"/></clipPath>
	<clipPath id="z22535c3"><use href="#z22535d3"/></clipPath>
	<clipPath id="z22535c4"><use href="#z22535d4"/></clipPath>
	<clipPath id="z22535c5"><use href="#z22535d5"/></clipPath>
	<clipPath id="z22535c6"><use href="#z22535d6"/></clipPath>
	<clipPath id="z22535c7"><use href="#z22535d7"/></clipPath>
	<clipPath id="z22535c8"><use href="#z22535d8"/></clipPath>
	<clipPath id="z22535c9"><use href="#z22535d9"/></clipPath>
	<clipPath id="z22535c10"><use href="#z22535d10"/></clipPath>
	<clipPath id="z22535c11"><use href="#z22535d11"/></clipPath><marker id="guide-arrow" viewBox="0 0 16 16" refX="5" refY="5" markerWidth="4" markerHeight="4" orient="auto-start-reverse"><path d="M 0 0 L 10 5 L 0 10 z" fill="inherit"/></marker></defs>
<g class="strokes"><path pathLength="3333" clip-path="url(#z22535c1)" d="M205 236L264 248L831 196"/><path pathLength="3333" clip-path="url(#z22535c2)" d="M342 125L400 154L434 367"/><path pathLength="3333" clip-path="url(#z22535c3)" d="M588 63L627 109L572 312"/><path pathLength="3333" clip-path="url(#z22535c4)" d="M442 345L619 330"/><path pathLength="3333" clip-path="url(#z22535c5)" d="M263 433L301 457L340 600"/><path pathLength="3333" clip-path="url(#z22535c6)" d="M320 442L689 404L732 444L680 530"/><path pathLength="3333" clip-path="url(#z22535c7)" d="M344 570L674 539L731 553"/><path pathLength="3333" clip-path="url(#z22535c8)" d="M471 352L514 418L509 847"/><path pathLength="3333" clip-path="url(#z22535c9)" d="M325 655L414 663L700 627"/><path pathLength="3333" clip-path="url(#z22535c10)" d="M345 759L680 731"/><path pathLength="3333" clip-path="url(#z22535c11)" d="M194 868L256 882L757 839L867 860"/></g>
<g class="guides"><text class="g1" style="--gs:1" x="205" y="236">①</text><path class="g1 aligned" style="--gs:1" d="M205,236 Q264,248 334.88,241.5 Q760.13,202.5 831,196"/><path class="g1 offset" style="--gs:1" d="M205,332 Q264,344 334.88,337.5 Q760.13,298.5 831,292"/><text class="g2" style="--gs:2" x="342" y="125">②</text><path class="g2 aligned" style="--gs:2" d="M342,125 Q400,154 404.25,180.63 Q429.75,340.38 434,367"/><path class="g2 offset" style="--gs:2" d="M342,221 Q371,235.5 373.13,248.81 Q385.88,328.69 388,342"/><text class="g3" style="--gs:3" x="588" y="63">③</text><path class="g3 aligned" style="--gs:3" d="M588,63 Q627,109 620.13,134.38 Q578.88,286.63 572,312"/><path class="g3 offset" style="--gs:3" d="M492,63 Q531,109 524.13,134.38 Q482.88,286.63 476,312"/><text class="g4" style="--gs:4" x="442" y="345">④</text><path class="g4 aligned" style="--gs:4" d="M442,345 L619,330"/><path class="g4 offset" style="--gs:4" d="M442,441 L619,426"/><text class="g5" style="--gs:5" x="263" y="433">⑤</text><path class="g5 aligned" style="--gs:5" d="M263,433 Q301,457 305.88,474.88 Q335.13,582.13 340,600"/><path class="g5 offset" style="--gs:5" d="M348.68,364.46 Q386.68,388.46 391.56,406.33 Q420.81,513.58 425.68,531.46"/><text class="g6" style="--gs:6" x="320" y="442">⑥</text><path class="g6 aligned" style="--gs:6" d="M320,442 Q689,404 699.75,414 Q732,444 719,465.5 Q693,508.5 680,530"/><path class="g6 offset" style="--gs:6" d="M320,538 Q599.44,500 607.58,510 Q632,540 622.16,561.5 Q602.47,604.5 592.62,626"/><text class="g7" style="--gs:7" x="344" y="570">⑦</text><path class="g7 aligned" style="--gs:7" d="M344,570 Q674,539 681.13,540.75 Q723.88,551.25 731,553"/><path class="g7 offset" style="--gs:7" d="M344,666 Q674,635 681.13,636.75 Q723.88,647.25 731,649"/><text class="g8" style="--gs:8" x="471" y="352">⑧</text><path class="g8 aligned" style="--gs:8" d="M471,352 Q514,418 513.38,471.63 Q509.63,793.38 509,847"/><path class="g8 offset" style="--gs:8" d="M375,352 Q418,418 417.38,471.63 Q413.63,793.38 413,847"/><text class="g9" style="--gs:9" x="325" y="655">⑨</text><path class="g9 aligned" style="--gs:9" d="M325,655 Q414,663 449.75,658.5 Q664.25,631.5 700,627"/><path class="g9 offset" style="--gs:9" d="M325,751 Q414,759 449.75,754.5 Q664.25,727.5 700,723"/><text class="g10" style="--gs:10" x="345" y="759">⑩</text><path class="g10 aligned" style="--gs:10" d="M345,759 L680,731"/><path class="g10 offset" style="--gs:10" d="M345,855 L680,827"/><text class="g11" style="--gs:11" x="194" y="868">⑪</text><path class="g11 aligned" style="--gs:11" d="M194,868 Q256,882 381.25,871.25 Q757,839 784.5,844.25 Q839.5,854.75 867,860"/><path class="g11 offset" style="--gs:11" d="M194,964 Q256,978 381.25,967.25 Q757,935 784.5,940.25 Q839.5,950.75 867,956"/></g>
</svg>
