<!--
  Stroke-order data for 塔, derived from AnimCJK (https://github.com/parsimonhi/animCJK),
  itself derived from the Arphic PL KaitiM fonts. Distributed under the Arphic Public License
  (see ARPHICPL.TXT). Regenerated by scripts/build-strokes.ts — do not edit by hand.
-->
<svg id="z22612" class="acjk" viewBox="0 0 1024 1024" xmlns="http://www.w3.org/2000/svg">
<g class="glyph"><path style="--part:1" id="z22612d1" d="M275 389C290 384 307 378 326 373C345 367 355 361 358 359C362 353 363 347 360 343C355 336 343 330 323 328C306 325 291 328 277 335C246 348 246 348 230 355C200 367 129 383 117 387C94 393 91 401 110 410C139 423 166 422 230 403C260 394 260 394 275 389Z"/><path style="--part:1" id="z22612d2" d="M270 554C272 497 273 442 275 389C276 353 276 353 277 335C278 286 282 226 296 157C297 150 293 140 279 132C255 117 234 111 218 109C207 107 199 109 194 115C189 119 188 128 195 138C211 163 219 184 223 202C229 230 230 275 230 355C230 387 230 387 230 403C230 457 229 515 227 576C227 592 270 570 270 554Z"/><path style="--part:1" id="z22612d3" d="M227 576C139 620 84 644 64 649C55 650 52 656 52 663C52 671 55 679 63 683C79 690 99 698 124 706C130 708 138 704 145 697C165 673 223 627 320 561C334 551 345 540 355 530C361 523 366 516 364 511C361 506 354 508 347 512C322 524 297 540 270 554C241 569 241 569 227 576Z"/><path style="--part:2" id="z22612d4" d="M701 237C747 233 803 228 869 232C877 232 884 230 887 224C890 217 889 207 880 201C835 169 801 177 718 193C681 200 681 200 663 203C617 211 570 220 521 226C492 229 492 229 478 231C442 235 404 240 365 245C347 247 344 252 357 261C380 277 415 281 461 272C468 270 475 267 484 266C509 261 509 261 522 258C556 250 600 245 653 241C685 238 685 238 701 237Z"/><path style="--part:2" id="z22612d5" d="M521 226C520 199 516 177 518 158C518 145 514 139 502 134C476 123 458 116 446 120C434 123 433 133 442 146C459 170 472 198 478 231C482 254 482 254 484 266C489 295 491 319 504 333C511 340 518 339 521 333C525 323 523 298 522 258C521 237 521 237 521 226Z"/><path style="--part:2" id="z22612d6" d="M718 193C720 186 726 161 750 123C756 111 759 104 754 98C745 87 728 77 706 65C694 59 683 57 672 64C664 68 665 73 670 82C680 102 678 143 663 203C656 228 656 228 653 241C637 301 629 334 630 341C630 349 636 350 647 343C657 335 676 300 701 237C712 208 712 208 718 193Z"/><path style="--part:2" id="z22612d7" d="M596 395C608 377 613 366 613 364C611 355 600 350 585 346C566 340 553 338 546 341C541 342 538 346 537 355C526 431 391 600 252 692C238 700 241 705 258 703C326 692 426 625 582 414C591 401 591 401 596 395Z"/><path style="--part:2" id="z22612d8" d="M582 414Q772 610 821 620Q911 620 971 605Q989 602 990 598Q991 591 977 587Q785 521 781 519Q673 459 596 395C590 390 577 408 582 414Z"/><path style="--part:2" id="z22612d9" d="M472 588C447 592 445 599 463 610C489 625 520 627 557 618C592 608 629 601 667 593C683 589 693 585 696 583C700 578 702 572 699 567C694 560 682 553 664 550C644 546 625 551 606 558C577 567 542 575 472 588Z"/><path style="--part:2" id="z22612d10" d="M449 708C441 705 428 703 412 700C403 698 399 698 397 702C393 706 393 713 399 724C418 760 433 809 444 871C447 889 453 904 464 917C476 931 483 933 487 923C489 916 491 907 490 895C489 883 487 870 486 859C475 796 469 756 467 738C465 726 460 712 449 708Z"/><path style="--part:2" id="z22612d11" d="M718 835C732 776 751 741 771 724C783 713 782 699 772 689C762 679 738 668 704 653C693 648 680 649 666 655C610 677 537 695 449 708C437 710 456 742 467 738C475 734 535 722 647 701C661 698 671 698 677 704C683 710 686 719 685 731C681 765 675 796 670 824C667 840 715 851 718 835Z"/><path style="--part:2" id="z22612d12" d="M490 895C514 897 588 883 727 868C733 867 738 864 739 858C739 853 732 845 718 835C705 825 686 821 670 824C593 840 536 851 486 859C474 861 478 895 490 895Z"/></g>
<defs><clipPath id="z22612c1"><use href="#z22612d1"/></clipPath>
	<clipPath id="z22612c2"><use href="#z22612d2"/></clipPath>
	<clipPath id="z22612c3"><use href="#z22612d3"/></clipPath>
	<clipPath id="z22612c4"><use href="#z22612d4"/></clipPath>
	<clipPath id="z22612c5"><use href="#z22612d5"/></clipPath>
	<clipPath id="z22612c6"><use href="#z22612d6"/></clipPath>
	<clipPath id="z22612c7"><use href="#z22612d7"/></clipPath>
	<clipPath id="z22612c8"><use href="#z22612d8"/></clipPath>
	<clipPath id="z22612c9"><use href="#z22612d9"/></clipPath>
	<clipPath id="z22612c10"><use href="#z22612d10"/></clipPath>
	<clipPath id="z22612c11"><use href="#z22612d11"/></clipPath>
	<clipPath id="z22612c12"><use href="#z22612d12"/></clipPath><marker id="guide-arrow" viewBox="0 0 16 16" refX="5" refY="5" markerWidth="4" markerHeight="4" orient="auto-start-reverse"><path d="M 0 0 L 10 5 L 0 10 z" fill="inherit"/></marker></defs>
<g class="strokes"><path style="--part:1" pathLength="3333" clip-path="url(#z22612c1)" d="M106 397L355 346"/><path style="--part:1" pathLength="3333" clip-path="url(#z22612c2)" d="M197 116L257 171L249 543L233 568"/><path style="--part:1" pathLength="3333" clip-path="url(#z22612c3)" d="M57 664L122 668L357 515"/><path style="--part:2" pathLength="3333" clip-path="url(#z22612c4)" d="M361 253L801 204L883 215"/><path style="--part:2" pathLength="3333" clip-path="url(#z22612c5)" d="M444 128L490 166L513 332"/><path style="--part:2" pathLength="3333" clip-path="url(#z22612c6)" d="M673 68L716 110L638 342"/><path style="--part:2" pathLength="3333" clip-path="url(#z22612c7)" d="M547 355L568 384L409 582L252 698"/><path style="--part:2" pathLength="3333" clip-path="url(#z22612c8)" d="M597 401L801 567L981 594"/><path style="--part:2" pathLength="3333" clip-path="url(#z22612c9)" d="M461 598L696 570"/><path style="--part:2" pathLength="3333" clip-path="url(#z22612c10)" d="M401 706L438 743L478 923"/><path style="--part:2" pathLength="3333" clip-path="url(#z22612c11)" d="M460 712L694 680L731 714L686 827"/><path style="--part:2" pathLength="3333" clip-path="url(#z22612c12)" d="M494 863L732 854"/></g>
<g class="guides"><text class="g1" style="--gs:1" x="106" y="397">①</text><path class="g1 aligned" style="--gs:1" d="M106,397 L355,346"/><path class="g1 offset" style="--gs:1" d="M106,493 L355,442"/><text class="g2" style="--gs:2" x="197" y="116">②</text><path class="g2 aligned" style="--gs:2" d="M197,116 Q257,171 255,219.13 Q243,507.88 241,556"/><path class="g2 offset" style="--gs:2" d="M101,116 Q161,171 159,219.13 Q147,507.88 145,556"/><text class="g3" style="--gs:3" x="57" y="664">③</text><path class="g3 aligned" style="--gs:3" d="M57,664 Q122,668 151.38,648.88 Q327.63,534.13 357,515"/><path class="g3 offset" style="--gs:3" d="M57,568 Q122,572 151.38,552.88 Q327.63,438.13 357,419"/><text class="g4" style="--gs:4" x="361" y="253">④</text><path class="g4 aligned" style="--gs:4" d="M361,253 Q801,204 811.25,205.38 Q872.75,213.63 883,215"/><path class="g4 offset" style="--gs:4" d="M361,349 Q801,300 811.25,301.38 Q872.75,309.63 883,311"/><text class="g5" style="--gs:5" x="444" y="128">⑤</text><path class="g5 aligned" style="--gs:5" d="M444,128 Q490,166 492.88,186.75 Q510.13,311.25 513,332"/><path class="g5 offset" style="--gs:5" d="M529.68,59.46 Q575.68,97.46 578.55,118.21 Q595.8,242.71 598.68,263.46"/><text class="g6" style="--gs:6" x="673" y="68">⑥</text><path class="g6 aligned" style="--gs:6" d="M673,68 Q716,110 706.25,139 Q647.75,313 638,342"/><path class="g6 offset" style="--gs:6" d="M577,68 Q620,110 610.25,139 Q551.75,313 542,342"/><text class="g7" style="--gs:7" x="547" y="355">⑦</text><path class="g7 aligned" style="--gs:7" d="M558,370 Q409,582 389.38,596.5 Q271.63,683.5 252,698"/><path class="g7 offset" style="--gs:7" d="M643.68,438.54 Q494.68,650.54 475.06,665.04 Q357.31,752.04 337.68,766.54"/><text class="g8" style="--gs:8" x="597" y="401">⑧</text><path class="g8 aligned" style="--gs:8" d="M597,401 Q801,567 823.5,570.38 Q958.5,590.63 981,594"/><path class="g8 offset" style="--gs:8" d="M682.68,332.46 Q841.16,474.84 858.64,477.74 Q963.52,495.11 981,498"/><text class="g9" style="--gs:9" x="461" y="598">⑨</text><path class="g9 aligned" style="--gs:9" d="M461,598 L696,570"/><path class="g9 offset" style="--gs:9" d="M461,694 L696,666"/><text class="g10" style="--gs:10" x="401" y="706">⑩</text><path class="g10 aligned" style="--gs:10" d="M401,706 Q438,743 443,765.5 Q473,900.5 478,923"/><path class="g10 offset" style="--gs:10" d="M486.68,637.46 Q523.68,674.46 528.68,696.96 Q558.68,831.96 563.68,854.46"/><text class="g11" style="--gs:11" x="460" y="712">⑪</text><path class="g11 aligned" style="--gs:11" d="M460,712 Q694,680 703.25,688.5 Q731,714 719.75,742.25 Q697.25,798.75 686,827"/><path class="g11 offset" style="--gs:11" d="M460,808 Q590.38,776 595.54,780.25 Q611,793 604.73,807.13 Q592.19,835.38 585.93,849.5"/><text class="g12" style="--gs:12" x="494" y="863">⑫</text><path class="g12 aligned" style="--gs:12" d="M494,863 L732,854"/><path class="g12 offset" style="--gs:12" d="M494,959 L732,950"/></g>
<g class="parts"><rect data-part="2" data-literal="荅" role="button" tabindex="0" aria-label="Part 荅" x="180" y="0" width="844" height="995"/><rect data-part="1" data-literal="土" data-radical="true" role="button" tabindex="0" aria-label="Part 土 (radical)" x="0" y="44" width="429" height="696"/></g>
</svg>
