<!--
  Stroke-order data for 売, derived from AnimCJK (https://github.com/parsimonhi/animCJK),
  itself derived from the Arphic PL KaitiM fonts. Distributed under the Arphic Public License
  (see ARPHICPL.TXT). Regenerated by scripts/build-strokes.ts — do not edit by hand.
-->
<svg id="z22770" class="acjk" viewBox="0 0 1024 1024" xmlns="http://www.w3.org/2000/svg">
<g class="glyph"><path id="z22770d1" d="M537 244C641 225 714 212 723 204C729 197 734 193 730 187C724 178 708 171 684 168C659 164 599 179 542 193C501 202 501 202 481 207C444 214 357 225 296 232C265 235 260 245 282 256C314 272 362 272 424 262C432 260 457 255 483 252C519 247 519 247 537 244Z"/><path id="z22770d2" d="M527 344C529 309 533 275 537 244C540 210 540 210 542 193C543 174 548 145 551 136C553 128 555 121 557 115C559 106 555 95 541 85C519 69 499 62 484 59C473 56 465 57 460 65C455 70 453 79 460 90C469 106 477 147 481 207C482 237 482 237 483 252C484 285 483 319 483 353C483 368 527 359 527 344Z"/><path id="z22770d3" d="M483 353C451 359 396 366 320 378C300 380 297 387 314 398C337 414 360 419 378 415C465 394 560 375 664 364C671 363 680 361 685 352C687 346 676 339 661 332C634 320 591 330 527 344C498 350 498 350 483 353Z"/><path id="z22770d4" d="M255 496C248 480 239 469 233 464C218 453 211 456 211 475C211 493 206 517 187 541C158 575 141 597 141 611C140 623 144 641 155 665C163 683 176 683 191 665C203 648 214 627 224 602C235 571 244 547 253 529C257 519 259 506 255 496Z"/><path id="z22770d5" d="M253 529C267 537 290 538 321 529C410 501 526 477 671 461C705 457 726 453 738 457C752 462 757 471 756 477C755 478 746 505 728 557C724 567 723 572 729 575C732 577 741 575 753 566C787 537 820 518 852 507C877 497 887 488 887 484C885 476 860 455 810 422C795 411 763 411 713 420C491 456 373 476 360 479C325 486 290 491 255 496C244 498 243 524 253 529Z"/><path id="z22770d6" d="M366 596C365 688 308 780 192 870C183 876 174 883 165 890C158 894 157 897 163 900C167 902 174 902 183 900C282 868 362 797 420 685C426 671 434 658 445 646C450 639 452 632 449 625C445 616 432 605 413 591C398 580 387 574 380 576C371 578 366 585 366 596Z"/><path id="z22770d7" d="M933 840C919 803 909 755 900 693C898 681 893 672 890 670C883 666 879 673 878 687C868 765 859 811 849 825C831 847 782 862 703 866C660 868 628 862 611 855C593 848 584 839 580 827C566 785 567 727 582 653C585 636 589 622 594 611C607 579 590 550 548 531C532 524 518 518 508 533C503 539 508 543 510 547C524 575 527 607 526 648C521 750 524 808 530 830C536 852 548 870 565 886C595 914 674 924 801 916C849 912 894 905 916 893C936 881 941 862 933 840Z"/></g>
<defs><clipPath id="z22770c1"><use href="#z22770d1"/></clipPath>
	<clipPath id="z22770c2"><use href="#z22770d2"/></clipPath>
	<clipPath id="z22770c3"><use href="#z22770d3"/></clipPath>
	<clipPath id="z22770c4"><use href="#z22770d4"/></clipPath>
	<clipPath id="z22770c5"><use href="#z22770d5"/></clipPath>
	<clipPath id="z22770c6"><use href="#z22770d6"/></clipPath>
	<clipPath id="z22770c7"><use href="#z22770d7"/></clipPath><marker id="guide-arrow" viewBox="0 0 16 16" refX="5" refY="5" markerWidth="4" markerHeight="4" orient="auto-start-reverse"><path d="M 0 0 L 10 5 L 0 10 z" fill="inherit"/></marker></defs>
<g class="strokes"><path pathLength="3333" clip-path="url(#z22770c1)" d="M275 241L374 246L726 191"/><path pathLength="3333" clip-path="url(#z22770c2)" d="M463 65L515 118L502 348"/><path pathLength="3333" clip-path="url(#z22770c3)" d="M311 385L678 353"/><path pathLength="3333" clip-path="url(#z22770c4)" d="M221 465L229 517L165 671"/><path pathLength="3333" clip-path="url(#z22770c5)" d="M260 525L744 436L801 462L833 496L733 569"/><path pathLength="3333" clip-path="url(#z22770c6)" d="M380 582L405 641L356 735L281 823L168 897"/><path pathLength="3333" clip-path="url(#z22770c7)" d="M515 536L560 587L552 818L602 878L723 891L877 862L894 841L887 677"/></g>
<g class="guides"><text class="g1" style="--gs:1" x="275" y="241">①</text><path class="g1 aligned" style="--gs:1" d="M275,241 Q374,246 418,239.13 Q682,197.88 726,191"/><path class="g1 offset" style="--gs:1" d="M275,337 Q374,342 418,335.13 Q682,293.88 726,287"/><text class="g2" style="--gs:2" x="463" y="65">②</text><path class="g2 aligned" style="--gs:2" d="M463,65 Q515,118 513.38,146.75 Q503.63,319.25 502,348"/><path class="g2 offset" style="--gs:2" d="M367,65 Q419,118 417.38,146.75 Q407.63,319.25 406,348"/><text class="g3" style="--gs:3" x="311" y="385">③</text><path class="g3 aligned" style="--gs:3" d="M311,385 L678,353"/><path class="g3 offset" style="--gs:3" d="M311,481 L678,449"/><text class="g4" style="--gs:4" x="221" y="465">④</text><path class="g4 aligned" style="--gs:4" d="M221,465 Q229,517 221,536.25 Q173,651.75 165,671"/><path class="g4 offset" style="--gs:4" d="M341,465 Q349,517 341,536.25 Q293,651.75 285,671"/><text class="g5" style="--gs:5" x="260" y="525">⑤</text><path class="g5 aligned" style="--gs:5" d="M260,525 Q744,436 772.5,449 Q801,462 817,479 Q833,496 783,532.5 Q783,532.5 733,569"/><path class="g5 offset" style="--gs:5" d="M260,621 Q618.99,532 640.13,545 Q661.27,558 673.13,575 Q685,592 647.91,628.5 Q647.91,628.5 610.83,665"/><text class="g6" style="--gs:6" x="380" y="582">⑥</text><path class="g6 aligned" style="--gs:6" d="M380,582 Q405,641 380.5,688 Q356,735 318.5,779 Q281,823 224.5,860 Q224.5,860 168,897"/><path class="g6 offset" style="--gs:6" d="M284,582 Q296.5,623.02 284.25,655.7 Q272,688.37 253.25,718.96 Q234.5,749.55 206.25,775.28 Q206.25,775.28 178,801"/><text class="g7" style="--gs:7" x="515" y="536">⑦</text><path class="g7 aligned" style="--gs:7" d="M515,536 Q560,587 556,702.5 Q552,818 577,848 Q602,878 662.5,884.5 Q723,891 800,876.5 Q877,862 885.5,851.5 Q894,841 890.5,759 Q890.5,759 887,677"/><path class="g7 offset" style="--gs:7" d="M583.54,467.46 Q609.01,518.46 606.74,633.96 Q604.48,749.46 618.63,779.46 Q632.77,809.46 667.01,815.96 Q701.24,822.46 744.81,807.96 Q788.38,793.46 793.19,782.96 Q798,772.46 796.02,690.46 Q796.02,690.46 794.04,608.46"/></g>
</svg>
