<!--
  Stroke-order data for 夫, derived from AnimCJK (https://github.com/parsimonhi/animCJK),
  itself derived from the Arphic PL KaitiM fonts. Distributed under the Arphic Public License
  (see ARPHICPL.TXT). Regenerated by scripts/build-strokes.ts — do not edit by hand.
-->
<svg id="z22827" class="acjk" viewBox="0 0 1024 1024" xmlns="http://www.w3.org/2000/svg">
<g class="glyph"><path id="z22827d1" d="M508 331C559 322 611 312 666 303C703 296 724 288 730 284C736 278 738 271 735 266C730 256 716 248 695 243C671 237 649 240 626 247C589 258 552 271 513 279C477 286 477 286 459 289C418 296 376 299 333 303C305 305 299 314 320 328C340 340 357 347 386 349C403 350 435 343 456 340C491 334 491 334 508 331Z"/><path id="z22827d2" d="M491 509C561 499 650 493 757 493C803 492 828 489 832 483C836 474 832 463 820 455C783 427 750 418 723 424C666 436 580 453 495 467C461 472 461 472 444 475C408 480 281 498 193 512C178 514 174 521 187 533C207 553 234 560 262 553C317 537 375 524 439 516C474 511 474 511 491 509Z"/><path id="z22827d3" d="M491 509C492 497 493 480 495 467C498 438 505 357 508 331C511 296 511 296 513 279C519 213 524 162 543 129C548 118 549 107 541 99C525 83 500 73 473 65C454 59 442 59 436 64C429 68 428 74 434 85C466 134 464 192 459 289C457 323 457 323 456 340C453 386 449 431 444 475C441 502 441 502 439 516C427 612 384 702 332 754C287 798 216 840 120 881C109 885 104 888 105 892C105 893 109 897 118 898C205 900 305 852 364 799C421 746 468 667 484 558C486 541 488 525 491 509Z"/><path id="z22827d4" d="M484 558C552 680 633 789 723 892C742 913 760 927 779 926C835 923 888 918 936 916C956 915 966 912 967 907C967 901 955 892 934 882C819 830 771 812 758 802C655 721 566 603 491 509C481 496 477 543 484 558Z"/></g>
<defs><clipPath id="z22827c1"><use href="#z22827d1"/></clipPath>
	<clipPath id="z22827c2"><use href="#z22827d2"/></clipPath>
	<clipPath id="z22827c3"><use href="#z22827d3"/></clipPath>
	<clipPath id="z22827c4"><use href="#z22827d4"/></clipPath><marker id="guide-arrow" viewBox="0 0 16 16" refX="5" refY="5" markerWidth="4" markerHeight="4" orient="auto-start-reverse"><path d="M 0 0 L 10 5 L 0 10 z" fill="inherit"/></marker></defs>
<g class="strokes"><path pathLength="3333" clip-path="url(#z22827c1)" d="M315 313L413 321L731 275"/><path pathLength="3333" clip-path="url(#z22827c2)" d="M183 519L237 531L746 457L829 473"/><path pathLength="3333" clip-path="url(#z22827c3)" d="M437 72L502 130L436 638L333 790L240 849L111 888"/><path pathLength="3333" clip-path="url(#z22827c4)" d="M487 516L591 678L738 843L792 877L956 904"/></g>
<g class="guides"><text class="g1" style="--gs:1" x="315" y="313">①</text><path class="g1 aligned" style="--gs:1" d="M315,313 Q413,321 452.75,315.25 Q691.25,280.75 731,275"/><path class="g1 offset" style="--gs:1" d="M315,409 Q413,417 452.75,411.25 Q691.25,376.75 731,371"/><text class="g2" style="--gs:2" x="183" y="519">②</text><path class="g2 aligned" style="--gs:2" d="M183,519 Q237,531 364.25,512.5 Q746,457 766.75,461 Q808.25,469 829,473"/><path class="g2 offset" style="--gs:2" d="M183,615 Q237,627 364.25,608.5 Q746,553 766.75,557 Q808.25,565 829,569"/><text class="g3" style="--gs:3" x="437" y="72">③</text><path class="g3 aligned" style="--gs:3" d="M437,72 Q502,130 469,384 Q436,638 384.5,714 Q333,790 286.5,819.5 Q240,849 175.5,868.5 Q175.5,868.5 111,888"/><path class="g3 offset" style="--gs:3" d="M341,72 Q390.04,123.18 365.14,347.29 Q340.25,571.41 301.39,638.47 Q262.53,705.53 227.45,731.56 Q192.37,757.59 143.7,774.79 Q143.7,774.79 95.04,792"/><text class="g4" style="--gs:4" x="487" y="516">④</text><path class="g4 aligned" style="--gs:4" d="M487,516 Q591,678 664.5,760.5 Q738,843 765,860 Q792,877 874,890.5 Q874,890.5 956,904"/><path class="g4 offset" style="--gs:4" d="M572.68,447.46 Q657.68,597.99 717.75,674.65 Q777.83,751.32 799.89,767.11 Q821.96,782.91 888.98,795.46 Q888.98,795.46 956,808"/></g>
</svg>
