<!--
  Stroke-order data for 奬, derived from AnimCJK (https://github.com/parsimonhi/animCJK),
  itself derived from the Arphic PL KaitiM fonts. Distributed under the Arphic Public License
  (see ARPHICPL.TXT). Regenerated by scripts/build-strokes.ts — do not edit by hand.
-->
<svg id="z22892" class="acjk" viewBox="0 0 1024 1024" xmlns="http://www.w3.org/2000/svg">
<g class="glyph"><path id="z22892d1" d="M384 396C384 420 380 448 374 472C368 492 371 520 386 553C389 561 394 566 398 569C401 571 403 571 408 568C412 564 417 558 422 548C424 541 428 506 429 448C431 282 430 156 440 130C443 121 447 114 445 108C442 102 424 92 396 74C383 65 371 65 361 74C358 76 357 82 362 90C368 100 378 121 382 154C384 177 384 212 384 237C384 258 384 258 384 269C384 336 384 336 384 369C384 387 384 387 384 396Z"/><path id="z22892d2" d="M384 237C346 241 312 248 285 258C274 261 271 257 272 243C275 201 273 165 268 159C249 138 230 129 217 133C210 134 210 142 216 153C226 175 230 207 229 230C227 250 224 266 216 277C206 287 203 295 208 303C214 311 223 317 233 323C239 326 247 328 252 322C268 299 304 281 364 272C368 271 381 270 384 269C394 267 394 235 384 237Z"/><path id="z22892d3" d="M384 369C371 364 360 364 350 367C252 392 182 407 142 414C135 415 131 417 130 422C129 426 132 432 140 438C159 452 181 454 204 445C216 439 230 434 244 431C265 425 265 425 276 422C288 418 322 405 384 396C393 395 392 372 384 369Z"/><path id="z22892d4" d="M244 431C250 479 228 538 177 593C164 606 155 616 149 625C144 631 146 634 154 633C184 626 222 595 261 536C267 526 280 495 306 459C310 452 310 444 302 438C293 431 284 426 276 422C266 416 242 420 244 431Z"/><path id="z22892d5" d="M574 156C584 147 598 133 614 119C624 110 624 110 629 105C648 87 659 72 660 71C661 59 650 46 631 35C621 29 613 28 608 28C603 28 600 31 601 37C603 63 580 105 532 149C519 160 495 179 462 200C457 202 456 205 463 206C479 207 496 202 503 199C514 194 514 194 519 191C532 184 550 174 569 160C572 157 572 157 574 156Z"/><path id="z22892d6" d="M614 119C624 129 647 132 685 128C695 128 702 130 706 134C706 138 703 144 695 153C658 205 594 262 502 317C493 321 492 327 500 329C554 329 649 263 740 178C752 165 768 153 788 141C796 136 800 131 798 126C798 121 783 110 753 93C747 89 726 91 691 100C669 102 648 103 629 105C622 106 609 115 614 119Z"/><path id="z22892d7" d="M569 160C569 168 578 184 598 210C603 217 610 220 616 222C620 222 626 220 629 214C630 209 629 202 627 193C625 186 617 180 607 174C592 164 582 159 574 156C572 155 569 158 569 160Z"/><path id="z22892d8" d="M503 199C503 203 507 206 513 216C520 228 527 241 535 256C538 261 542 265 548 267C550 267 554 267 558 263C561 258 563 248 564 237C564 224 549 210 519 191C514 188 501 193 503 199Z"/><path id="z22892d9" d="M738 361C778 356 825 354 877 353C887 352 893 349 896 345C899 338 895 331 886 325C856 304 822 301 786 312C774 315 761 319 748 322C709 330 709 330 689 334C680 335 671 337 663 339C606 350 544 360 477 372C466 373 464 379 473 387C480 394 489 398 499 401C509 403 519 403 528 401C586 381 640 371 692 366C723 363 723 363 738 361Z"/><path id="z22892d10" d="M692 366C696 411 696 451 696 476C695 488 691 497 684 504C679 507 660 508 625 506C618 505 614 507 615 511C615 515 619 518 626 523C661 550 683 575 697 593C704 602 714 602 722 594C742 573 749 531 743 468C737 421 734 375 738 361C745 335 745 335 748 322C750 313 746 304 739 299C723 287 708 278 692 273C681 269 673 269 669 274C666 276 668 282 674 292C681 304 687 319 689 334C691 355 691 355 692 366Z"/><path id="z22892d11" d="M537 453C563 485 579 501 586 503C590 503 594 501 598 495C600 488 601 478 599 465C598 456 591 447 579 439C549 423 530 416 524 418C521 418 520 422 520 429C520 433 526 441 537 453Z"/><path id="z22892d12" d="M525 687C570 682 686 681 871 681C885 681 895 679 899 674C903 666 899 658 887 650C847 623 809 615 775 621C712 631 632 642 534 653C492 658 492 658 471 660C376 670 274 678 166 687C151 688 148 694 160 705C170 714 182 719 195 723C211 727 224 727 236 725C306 708 382 701 464 693C505 689 505 689 525 687Z"/><path id="z22892d13" d="M521 700C522 696 523 691 525 687C531 664 531 664 534 653C536 643 540 594 546 590C552 583 551 575 545 570C536 563 519 556 504 553C492 549 475 546 463 550C454 553 451 559 457 567C464 577 476 636 471 660C466 682 466 682 464 693C463 694 463 695 463 698C445 775 381 836 271 882C247 891 219 898 191 909C179 913 181 918 195 919C283 919 357 899 418 855C454 829 489 787 512 725C518 708 518 708 521 700Z"/><path id="z22892d14" d="M512 725C564 785 620 843 679 899C694 913 717 922 746 925C798 928 850 926 905 922C919 920 926 919 928 916C930 911 926 907 915 904C795 862 730 839 722 835C658 799 591 754 521 700C514 694 507 718 512 725Z"/></g>
<defs><clipPath id="z22892c1"><use href="#z22892d1"/></clipPath>
	<clipPath id="z22892c2"><use href="#z22892d2"/></clipPath>
	<clipPath id="z22892c3"><use href="#z22892d3"/></clipPath>
	<clipPath id="z22892c4"><use href="#z22892d4"/></clipPath>
	<clipPath id="z22892c5"><use href="#z22892d5"/></clipPath>
	<clipPath id="z22892c6"><use href="#z22892d6"/></clipPath>
	<clipPath id="z22892c7"><use href="#z22892d7"/></clipPath>
	<clipPath id="z22892c8"><use href="#z22892d8"/></clipPath>
	<clipPath id="z22892c9"><use href="#z22892d9"/></clipPath>
	<clipPath id="z22892c10"><use href="#z22892d10"/></clipPath>
	<clipPath id="z22892c11"><use href="#z22892d11"/></clipPath>
	<clipPath id="z22892c12"><use href="#z22892d12"/></clipPath>
	<clipPath id="z22892c13"><use href="#z22892d13"/></clipPath>
	<clipPath id="z22892c14"><use href="#z22892d14"/></clipPath><marker id="guide-arrow" viewBox="0 0 16 16" refX="5" refY="5" markerWidth="4" markerHeight="4" orient="auto-start-reverse"><path d="M 0 0 L 10 5 L 0 10 z" fill="inherit"/></marker></defs>
<g class="strokes"><path pathLength="3333" clip-path="url(#z22892c1)" d="M366 78L412 128L399 566"/><path pathLength="3333" clip-path="url(#z22892c2)" d="M222 138L249 180L247 286L379 246"/><path pathLength="3333" clip-path="url(#z22892c3)" d="M134 422L381 385"/><path pathLength="3333" clip-path="url(#z22892c4)" d="M250 435L282 465L157 626"/><path pathLength="3333" clip-path="url(#z22892c5)" d="M609 38L624 74L556 150L466 202"/><path pathLength="3333" clip-path="url(#z22892c6)" d="M623 120L711 113L751 134L609 266L503 323"/><path pathLength="3333" clip-path="url(#z22892c7)" d="M578 167L621 212"/><path pathLength="3333" clip-path="url(#z22892c8)" d="M513 202L548 262"/><path pathLength="3333" clip-path="url(#z22892c9)" d="M474 378L814 330L892 337"/><path pathLength="3333" clip-path="url(#z22892c10)" d="M675 278L718 326L717 515L695 553L624 513"/><path pathLength="3333" clip-path="url(#z22892c11)" d="M527 424L592 496"/><path pathLength="3333" clip-path="url(#z22892c12)" d="M159 693L231 704L786 650L894 666"/><path pathLength="3333" clip-path="url(#z22892c13)" d="M461 555L508 592L456 776L361 862L196 914"/><path pathLength="3333" clip-path="url(#z22892c14)" d="M522 711L708 872L919 915"/></g>
<g class="guides"><text class="g1" style="--gs:1" x="366" y="78">①</text><path class="g1 aligned" style="--gs:1" d="M366,78 Q412,128 410.38,182.75 Q400.63,511.25 399,566"/><path class="g1 offset" style="--gs:1" d="M270,78 Q316,128 314.38,182.75 Q304.63,511.25 303,566"/><text class="g2" style="--gs:2" x="222" y="138">②</text><path class="g2 aligned" style="--gs:2" d="M222,138 Q249,180 248.5,206.5 Q247,286 280,276 Q346,256 379,246"/><path class="g2 offset" style="--gs:2" d="M307.68,69.46 Q321.18,103.66 320.93,125.25 Q320.18,190 336.68,181.86 Q369.68,165.57 386.18,157.42"/><text class="g3" style="--gs:3" x="134" y="422">③</text><path class="g3 aligned" style="--gs:3" d="M134,422 L381,385"/><path class="g3 offset" style="--gs:3" d="M134,518 L381,481"/><text class="g4" style="--gs:4" x="250" y="435">④</text><path class="g4 aligned" style="--gs:4" d="M250,435 Q282,465 266.38,485.13 Q172.63,605.88 157,626"/><path class="g4 offset" style="--gs:4" d="M154,435 Q170,450 162.19,460.06 Q115.31,520.44 107.5,530.5"/><text class="g5" style="--gs:5" x="609" y="38">⑤</text><path class="g5 aligned" style="--gs:5" d="M617,56 Q556,150 544.75,156.5 Q477.25,195.5 466,202"/><path class="g5 offset" style="--gs:5" d="M702.68,124.54 Q641.68,218.54 630.43,225.04 Q562.93,264.04 551.68,270.54"/><text class="g6" style="--gs:6" x="623" y="120">⑥</text><path class="g6 aligned" style="--gs:6" d="M623,120 Q711,113 731,123.5 Q751,134 680,200 Q609,266 556,294.5 Q556,294.5 503,323"/><path class="g6 offset" style="--gs:6" d="M527,216 Q580.94,212.5 593.19,217.75 Q605.45,223 561.94,256 Q518.42,289 485.94,303.25 Q485.94,303.25 453.45,317.5"/><text class="g7" style="--gs:7" x="578" y="167">⑦</text><path class="g7 aligned" style="--gs:7" d="M578,167 L621,212"/><path class="g7 offset" style="--gs:7" d="M663.68,98.46 L706.68,143.46"/><text class="g8" style="--gs:8" x="513" y="202">⑧</text><path class="g8 aligned" style="--gs:8" d="M513,202 L548,262"/><path class="g8 offset" style="--gs:8" d="M598.68,133.46 L633.68,193.46"/><text class="g9" style="--gs:9" x="474" y="378">⑨</text><path class="g9 aligned" style="--gs:9" d="M474,378 Q814,330 823.75,330.88 Q882.25,336.13 892,337"/><path class="g9 offset" style="--gs:9" d="M474,474 Q814,426 823.75,426.88 Q882.25,432.13 892,433"/><text class="g10" style="--gs:10" x="675" y="278">⑩</text><path class="g10 aligned" style="--gs:10" d="M675,278 Q718,326 717.5,420.5 Q717,515 706,534 Q695,553 659.5,533 Q659.5,533 624,513"/><path class="g10 offset" style="--gs:10" d="M579,278 Q600.5,309.24 600.25,370.75 Q600,432.27 594.5,444.63 Q589,457 571.25,443.98 Q571.25,443.98 553.5,430.96"/><text class="g11" style="--gs:11" x="527" y="424">⑪</text><path class="g11 aligned" style="--gs:11" d="M527,424 L592,496"/><path class="g11 offset" style="--gs:11" d="M612.68,355.46 L677.68,427.46"/><text class="g12" style="--gs:12" x="159" y="693">⑫</text><path class="g12 aligned" style="--gs:12" d="M159,693 Q231,704 369.75,690.5 Q786,650 813,654 Q867,662 894,666"/><path class="g12 offset" style="--gs:12" d="M159,789 Q231,800 369.75,786.5 Q786,746 813,750 Q867,758 894,762"/><text class="g13" style="--gs:13" x="461" y="555">⑬</text><path class="g13 aligned" style="--gs:13" d="M461,555 Q508,592 482,684 Q456,776 408.5,819 Q361,862 278.5,888 Q278.5,888 196,914"/><path class="g13 offset" style="--gs:13" d="M365,555 Q397.54,582.11 379.54,649.5 Q361.54,716.9 328.65,748.4 Q295.77,779.91 238.65,798.95 Q238.65,798.95 181.54,818"/><text class="g14" style="--gs:14" x="522" y="711">⑭</text><path class="g14 aligned" style="--gs:14" d="M522,711 Q708,872 734.38,877.38 Q892.63,909.63 919,915"/><path class="g14 offset" style="--gs:14" d="M607.68,642.46 Q753.54,781.79 774.22,786.44 Q898.32,814.35 919,819"/></g>
</svg>
