<!--
  Stroke-order data for 妥, derived from AnimCJK (https://github.com/parsimonhi/animCJK),
  itself derived from the Arphic PL KaitiM fonts. Distributed under the Arphic Public License
  (see ARPHICPL.TXT). Regenerated by scripts/build-strokes.ts — do not edit by hand.
-->
<svg id="z22949" class="acjk" viewBox="0 0 1024 1024" xmlns="http://www.w3.org/2000/svg">
<g class="glyph"><path style="--part:1" id="z22949d1" d="M546 115C504 148 433 182 337 227C329 230 333 238 338 240C348 243 414 229 531 189C574 174 614 155 655 149C667 147 675 146 678 141C681 133 678 124 669 117C654 104 631 93 601 80C589 74 579 70 570 73C564 74 562 80 562 88C561 98 555 107 546 115Z"/><path style="--part:1" id="z22949d2" d="M288 347C323 388 345 412 356 414C362 415 368 411 373 403C377 394 377 380 374 360C372 348 362 335 345 325C305 302 279 292 268 297C264 298 263 304 263 313C263 319 273 329 288 347Z"/><path style="--part:1" id="z22949d3" d="M442 298C459 333 475 358 493 370C500 374 509 373 516 366C521 360 525 352 525 342C524 313 501 288 460 268C451 263 444 261 439 261C435 261 433 264 433 272C432 278 436 286 442 298Z"/><path style="--part:1" id="z22949d4" d="M674 259C660 278 626 317 572 377C562 388 566 397 579 392C608 380 653 351 717 310C731 300 747 291 765 284C781 277 786 267 778 254C770 240 755 229 737 218C720 207 707 203 698 204C688 205 684 209 687 220C689 232 683 245 674 259Z"/><path style="--part:2" id="z22949d5" d="M534 777C583 805 642 849 712 906C729 920 743 928 756 928C770 928 778 921 779 907C779 893 768 870 750 838C740 821 726 809 707 801C654 777 607 753 565 736C531 722 531 722 514 715C473 698 437 685 407 676C393 671 390 664 398 651C413 622 426 598 438 578C451 554 451 554 458 542C489 485 507 457 507 457C505 446 489 432 465 411C457 404 451 402 443 404C434 406 432 412 436 424C441 439 439 455 434 472C424 498 416 523 406 546C395 570 395 570 389 582C376 609 359 630 348 649C340 661 338 672 340 681C340 687 347 692 360 696C410 708 449 728 483 748C517 767 517 767 534 777Z"/><path style="--part:2" id="z22949d6" d="M483 748C429 795 345 831 233 863C220 866 220 872 235 875C351 892 452 859 534 777C546 764 555 749 565 736C590 701 617 650 633 605C638 589 642 576 647 567C654 552 667 535 659 522C651 510 640 503 627 498C613 492 599 490 586 492C577 493 574 500 578 511C580 517 583 523 584 531C584 543 586 555 584 568C576 609 536 691 514 715C503 725 494 737 483 748Z"/><path style="--part:2" id="z22949d7" d="M647 567C709 566 800 567 921 573C935 573 945 570 949 564C953 555 950 545 938 535C896 500 860 492 830 499C781 509 724 514 659 522C609 528 609 528 584 531C550 535 508 538 458 542C423 545 423 545 406 546C312 553 212 560 107 568C91 569 88 575 100 589C109 599 121 607 134 612C149 617 164 617 176 615C242 600 313 588 389 582C422 579 422 579 438 578C452 576 500 569 584 568C626 567 626 567 647 567Z"/></g>
<defs><clipPath id="z22949c1"><use href="#z22949d1"/></clipPath>
	<clipPath id="z22949c2"><use href="#z22949d2"/></clipPath>
	<clipPath id="z22949c3"><use href="#z22949d3"/></clipPath>
	<clipPath id="z22949c4"><use href="#z22949d4"/></clipPath>
	<clipPath id="z22949c5"><use href="#z22949d5"/></clipPath>
	<clipPath id="z22949c6"><use href="#z22949d6"/></clipPath>
	<clipPath id="z22949c7"><use href="#z22949d7"/></clipPath><marker id="guide-arrow" viewBox="0 0 16 16" refX="5" refY="5" markerWidth="4" markerHeight="4" orient="auto-start-reverse"><path d="M 0 0 L 10 5 L 0 10 z" fill="inherit"/></marker></defs>
<g class="strokes"><path style="--part:1" pathLength="3333" clip-path="url(#z22949c1)" d="M575 82L625 127L342 233"/><path style="--part:1" pathLength="3333" clip-path="url(#z22949c2)" d="M271 303L368 404"/><path style="--part:1" pathLength="3333" clip-path="url(#z22949c3)" d="M441 272L492 328L500 368"/><path style="--part:1" pathLength="3333" clip-path="url(#z22949c4)" d="M695 211L725 274L576 387"/><path style="--part:2" pathLength="3333" clip-path="url(#z22949c5)" d="M442 412L471 459L369 678L691 837L769 921"/><path style="--part:2" pathLength="3333" clip-path="url(#z22949c6)" d="M584 496L621 532L615 568L515 755L408 829L234 867"/><path style="--part:2" pathLength="3333" clip-path="url(#z22949c7)" d="M101 577L172 589L832 533L946 553"/></g>
<g class="guides"><text class="g1" style="--gs:1" x="575" y="82">①</text><path class="g1 aligned" style="--gs:1" d="M575,82 Q625,127 589.63,140.25 Q377.38,219.75 342,233"/><path class="g1 offset" style="--gs:1" d="M479,82 Q512.04,104.5 488.66,111.13 Q348.41,150.88 325.04,157.5"/><text class="g2" style="--gs:2" x="271" y="303">②</text><path class="g2 aligned" style="--gs:2" d="M271,303 L368,404"/><path class="g2 offset" style="--gs:2" d="M356.68,234.46 L453.68,335.46"/><text class="g3" style="--gs:3" x="441" y="272">③</text><path class="g3 aligned" style="--gs:3" d="M441,272 L496,348"/><path class="g3 offset" style="--gs:3" d="M526.68,203.46 L581.68,279.46"/><text class="g4" style="--gs:4" x="695" y="211">④</text><path class="g4 aligned" style="--gs:4" d="M695,211 Q725,274 706.38,288.13 Q594.63,372.88 576,387"/><path class="g4 offset" style="--gs:4" d="M599,211 Q614,242.5 604.69,249.56 Q548.81,291.94 539.5,299"/><text class="g5" style="--gs:5" x="442" y="412">⑤</text><path class="g5 aligned" style="--gs:5" d="M442,412 Q471,459 420,568.5 Q369,678 530,757.5 Q691,837 730,879 Q730,879 769,921"/><path class="g5 offset" style="--gs:5" d="M527.68,343.46 Q556.68,390.46 505.68,499.96 Q454.68,609.46 615.68,688.96 Q776.68,768.46 815.68,810.46 Q815.68,810.46 854.68,852.46"/><text class="g6" style="--gs:6" x="584" y="496">⑥</text><path class="g6 aligned" style="--gs:6" d="M584,496 Q621,532 618,550 Q615,568 565,661.5 Q515,755 461.5,792 Q408,829 321,848 Q321,848 234,867"/><path class="g6 offset" style="--gs:6" d="M488,496 Q515.82,522.68 513.57,536.03 Q511.31,549.37 473.71,618.68 Q436.12,687.98 395.89,715.41 Q355.66,742.83 290.24,756.92 Q290.24,756.92 224.82,771"/><text class="g7" style="--gs:7" x="101" y="577">⑦</text><path class="g7 aligned" style="--gs:7" d="M101,577 Q172,589 337,575 Q832,533 860.5,538 Q917.5,548 946,553"/><path class="g7 offset" style="--gs:7" d="M101,673 Q172,685 337,671 Q832,629 860.5,634 Q917.5,644 946,649"/></g>
<g class="parts"><rect data-part="2" data-literal="女" data-radical="true" role="button" tabindex="0" aria-label="Part 女 (radical)" x="29" y="340" width="989" height="653"/><rect data-part="1" data-literal="⺤" role="button" tabindex="0" aria-label="Part ⺤" x="199" y="10" width="598" height="466"/></g>
</svg>
