<!--
  Stroke-order data for 姑, derived from AnimCJK (https://github.com/parsimonhi/animCJK),
  itself derived from the Arphic PL KaitiM fonts. Distributed under the Arphic Public License
  (see ARPHICPL.TXT). Regenerated by scripts/build-strokes.ts — do not edit by hand.
-->
<svg id="z22993" class="acjk" viewBox="0 0 1024 1024" xmlns="http://www.w3.org/2000/svg">
<g class="glyph"><path id="z22993d1" d="M342 751C358 765 375 784 395 805C405 816 414 821 420 822C426 822 430 818 435 811C439 804 441 790 438 770C434 747 412 725 373 703C344 687 344 687 330 679C313 669 294 658 273 648C260 641 251 630 255 616C264 576 279 538 292 499C300 474 300 474 304 461C322 403 335 343 348 284C355 252 364 228 376 212C385 197 387 185 382 177C372 163 351 148 321 131C307 122 294 122 284 128C275 132 274 140 281 151C303 185 297 291 258 470C252 497 252 497 249 511C240 549 229 584 211 617C203 630 210 648 233 664C258 681 283 698 306 719C330 740 330 740 342 751Z"/><path id="z22993d2" d="M306 719C275 770 218 806 160 844C151 849 150 855 159 856C210 861 269 824 339 754C339 754 341 752 342 751C354 736 373 703 373 703C403 655 413 614 420 589C428 557 433 522 445 491C448 482 452 474 457 466C464 454 461 445 451 438C419 414 396 403 379 409C369 411 365 418 370 428C372 434 376 440 377 447C377 447 379 465 380 474C380 474 380 475 380 476C380 544 368 614 330 679C314 706 314 706 306 719Z"/><path id="z22993d3" d="M377 447C352 451 328 456 304 461C273 467 273 467 258 470C209 479 159 484 107 494C92 496 74 495 52 493C43 492 37 495 36 502C33 509 35 517 41 523C53 535 68 549 89 563C94 567 102 564 111 560C150 537 197 525 249 511C278 503 278 503 292 499C314 492 337 486 361 480C367 478 373 476 380 474C389 471 386 445 377 447Z"/><path id="z22993d4" d="M695 443C719 438 791 426 912 411C918 410 927 409 932 400C935 392 925 384 910 376C883 362 845 364 791 379C733 394 702 399 699 400C664 407 664 407 647 410C625 414 604 416 584 419C552 422 519 425 485 430C464 432 462 439 478 452C498 468 523 475 555 469C581 463 612 458 646 452C679 446 679 446 695 443Z"/><path id="z22993d5" d="M681 606C685 550 690 495 695 443C698 414 698 414 699 400C707 307 714 227 733 160C735 151 730 141 715 131C691 115 669 107 651 104C638 101 630 103 624 109C618 114 617 122 624 134C641 163 650 186 650 206C650 270 648 338 647 410C646 438 646 438 646 452C644 504 639 558 634 616C631 632 681 622 681 606Z"/><path id="z22993d6" d="M547 629C539 624 523 620 500 615C491 613 485 612 483 616C478 620 479 628 485 640C505 685 520 745 530 819C532 841 539 860 551 875C563 890 571 893 575 883C577 874 581 862 580 848C577 822 577 822 576 809C568 734 558 686 556 662C554 651 557 634 547 629Z"/><path id="z22993d7" d="M817 787C837 719 860 678 883 660C896 649 896 633 885 621C874 609 849 595 812 578C799 572 785 573 769 579C738 589 709 600 681 606C650 613 650 613 634 616C605 622 576 625 547 629C536 631 545 664 556 662C564 661 572 659 582 658C638 647 694 638 749 629C763 626 773 627 779 633C791 645 786 693 764 775C758 792 813 805 817 787Z"/><path id="z22993d8" d="M580 848C586 848 593 848 601 847C649 837 723 828 825 822C833 821 838 817 839 811C839 806 831 798 817 787C803 776 782 775 764 775C759 775 755 775 753 777C686 791 627 802 576 809C563 811 567 848 580 848Z"/></g>
<defs><clipPath id="z22993c1"><use href="#z22993d1"/></clipPath>
	<clipPath id="z22993c2"><use href="#z22993d2"/></clipPath>
	<clipPath id="z22993c3"><use href="#z22993d3"/></clipPath>
	<clipPath id="z22993c4"><use href="#z22993d4"/></clipPath>
	<clipPath id="z22993c5"><use href="#z22993d5"/></clipPath>
	<clipPath id="z22993c6"><use href="#z22993d6"/></clipPath>
	<clipPath id="z22993c7"><use href="#z22993d7"/></clipPath>
	<clipPath id="z22993c8"><use href="#z22993d8"/></clipPath><marker id="guide-arrow" viewBox="0 0 16 16" refX="5" refY="5" markerWidth="4" markerHeight="4" orient="auto-start-reverse"><path d="M 0 0 L 10 5 L 0 10 z" fill="inherit"/></marker></defs>
<g class="strokes"><path pathLength="3333" clip-path="url(#z22993c1)" d="M284 136L339 195L231 631L379 742L430 813"/><path pathLength="3333" clip-path="url(#z22993c2)" d="M373 414L419 463L363 671L278 783L162 849"/><path pathLength="3333" clip-path="url(#z22993c3)" d="M39 504L101 529L380 456"/><path pathLength="3333" clip-path="url(#z22993c4)" d="M474 439L540 447L926 394"/><path pathLength="3333" clip-path="url(#z22993c5)" d="M626 114L689 167L651 621"/><path pathLength="3333" clip-path="url(#z22993c6)" d="M489 617L526 656L563 884"/><path pathLength="3333" clip-path="url(#z22993c7)" d="M547 637L775 602L815 617L840 652L788 792"/><path pathLength="3333" clip-path="url(#z22993c8)" d="M571 830L832 807"/></g>
<g class="guides"><text class="g1" style="--gs:1" x="284" y="136">①</text><path class="g1 aligned" style="--gs:1" d="M284,136 Q339,195 285,413 Q231,631 305,686.5 Q379,742 404.5,777.5 Q404.5,777.5 430,813"/><path class="g1 offset" style="--gs:1" d="M369.68,67.46 Q424.68,126.46 370.68,344.46 Q316.68,562.46 390.68,617.96 Q464.68,673.46 490.18,708.96 Q490.18,708.96 515.68,744.46"/><text class="g2" style="--gs:2" x="373" y="414">②</text><path class="g2 aligned" style="--gs:2" d="M373,414 Q419,463 391,567 Q363,671 320.5,727 Q278,783 220,816 Q220,816 162,849"/><path class="g2 offset" style="--gs:2" d="M277,414 Q305.82,452.19 288.28,533.23 Q270.74,614.28 244.11,657.92 Q217.49,701.57 181.15,727.28 Q181.15,727.28 144.82,753"/><text class="g3" style="--gs:3" x="39" y="504">③</text><path class="g3 aligned" style="--gs:3" d="M39,504 Q101,529 135.88,519.88 Q345.13,465.13 380,456"/><path class="g3 offset" style="--gs:3" d="M39,600 Q101,625 135.88,615.88 Q345.13,561.13 380,552"/><text class="g4" style="--gs:4" x="474" y="439">④</text><path class="g4 aligned" style="--gs:4" d="M474,439 Q540,447 588.25,440.38 Q877.75,400.63 926,394"/><path class="g4 offset" style="--gs:4" d="M474,535 Q540,543 588.25,536.38 Q877.75,496.63 926,490"/><text class="g5" style="--gs:5" x="626" y="114">⑤</text><path class="g5 aligned" style="--gs:5" d="M626,114 Q689,167 684.25,223.75 Q655.75,564.25 651,621"/><path class="g5 offset" style="--gs:5" d="M530,114 Q593,167 588.25,223.75 Q559.75,564.25 555,621"/><text class="g6" style="--gs:6" x="489" y="617">⑥</text><path class="g6 aligned" style="--gs:6" d="M489,617 Q526,656 530.63,684.5 Q558.38,855.5 563,884"/><path class="g6 offset" style="--gs:6" d="M574.68,548.46 Q611.68,587.46 616.3,615.96 Q644.05,786.96 648.68,815.46"/><text class="g7" style="--gs:7" x="547" y="637">⑦</text><path class="g7 aligned" style="--gs:7" d="M547,637 Q775,602 795,609.5 Q815,617 827.5,634.5 Q840,652 814,722 Q814,722 788,792"/><path class="g7 offset" style="--gs:7" d="M547,733 Q681.62,698 693.43,705.5 Q705.24,713 712.62,718 Q720,723 704.65,758 Q704.65,758 689.3,793"/><text class="g8" style="--gs:8" x="571" y="830">⑧</text><path class="g8 aligned" style="--gs:8" d="M571,830 L832,807"/><path class="g8 offset" style="--gs:8" d="M571,926 L832,903"/></g>
</svg>
