<svg id="z22995" class="acjk" viewBox="0 0 1024 1024" xmlns="http://www.w3.org/2000/svg">
<style>

@keyframes zk {
	to {
		stroke-dashoffset:0;
	}
}
svg.acjk path[clip-path] {
	--t:0.8s;
	animation:zk var(--t) linear forwards var(--d);
	stroke-dasharray:3337;
	stroke-dashoffset:3339;
	stroke-width:128;
	stroke-linecap:round;
	fill:none;
	stroke:#000;
}
svg.acjk path[id] {fill:#ccc;}


    @keyframes guide-fade {
        0% { opacity: 0; }
        3% { opacity: 1; }
        95% { opacity: 1; }
        100% { opacity: 0; }
    }

    svg.acjk #guide-arrow {
        fill: #f77;
    }

    svg.acjk .guides {
        circle {
            fill: #0f6;
        }

        path {
            opacity: 0;
            animation: guide-fade var(--t) linear forwards var(--d);
            stroke-width: 16px;
            stroke-linecap: round;
            stroke: #f77;
            fill: none;
            marker-end: url(#guide-arrow);
        }

        circle,
        path {
            --t: 0.8s;
            opacity: 0;
            animation: guide-fade calc(var(--t) + 0.4s) ease-in-out forwards calc(var(--d) - 0.2s);
        }
    }
</style>
<path id="z22995d1" d="M335 716Q426 779 429 781Q438 780 442 768Q448 756 439 726Q430 696 366 669C336 657 336 657 321 651Q293 639 255 626Q236 619 235 600Q253 545 270 490C278 463 278 463 282 450Q309 354 332 256Q342 208 360 184Q373 162 365 149Q352 131 305 103Q284 91 268 100Q255 107 265 123Q299 174 239 458C232 487 232 487 229 502Q202 580 191 601Q182 625 205 641Q254 662 296 690C322 707 322 707 335 716Z"/>
<path id="z22995d2" d="M296 690Q290 696 285 704Q257 740 208 774Q196 781 181 791Q165 801 149 812Q136 821 147 824Q222 830 327 726Q330 720 335 716C356 685 356 685 366 669Q396 627 415 553Q436 463 452 438Q462 420 446 411Q403 372 375 380Q362 383 366 399Q373 412 375 429C374 449 374 449 374 459Q373 471 372 485Q366 560 321 651C304 677 304 677 296 690Z"/>
<path id="z22995d3" d="M375 429Q329 439 282 450C253 455 253 455 239 458Q175 470 105 484Q83 488 47 485Q34 485 31 494Q28 507 36 515Q55 533 85 554Q95 558 107 551Q179 509 229 502C256 494 256 494 270 490Q319 474 374 459C384 457 385 427 375 429Z"/>
<path id="z22995d4" d="M553 433Q557 424 561 417Q576 381 590 353Q597 340 583 330Q541 306 519 313Q509 317 513 329Q537 392 464 515Q455 527 451 537Q447 552 459 545Q493 533 543 452C550 439 550 439 553 433Z"/>
<path id="z22995d5" d="M709 446Q844 410 848 407Q855 400 851 391Q844 381 816 374Q785 370 710 399C675 409 675 409 657 414Q608 424 556 432Q553 432 553 433C546 434 536 449 543 452Q544 452 547 454Q586 478 644 461Q648 460 656 459C691 450 691 450 709 446Z"/>
<path id="z22995d6" d="M702 792Q703 707 705 628C706 594 706 594 706 577Q707 510 709 446C710 415 710 415 710 399Q719 204 729 179Q742 157 727 144Q690 116 660 106Q644 103 629 115Q623 122 630 135Q660 186 659 246Q658 328 657 414C656 444 656 444 656 459Q655 523 654 592C654 623 654 623 654 638Q654 716 654 798C654 814 702 808 702 792Z"/>
<path id="z22995d7" d="M705 628Q747 618 791 610Q825 603 831 597Q840 590 835 580Q828 568 798 561Q774 557 706 577C671 587 671 587 654 592Q608 601 554 606Q517 613 543 630Q583 651 654 638C688 631 688 631 705 628Z"/>
<path id="z22995d8" d="M654 798Q560 808 453 822Q431 823 447 841Q460 854 479 861Q500 867 516 862Q645 828 946 828Q965 828 971 820Q977 808 960 794Q906 754 843 768Q785 777 702 792C670 796 670 796 654 798Z"/>
<defs>
	<clipPath id="z22995c1"><use href="#z22995d1"/></clipPath>
	<clipPath id="z22995c2"><use href="#z22995d2"/></clipPath>
	<clipPath id="z22995c3"><use href="#z22995d3"/></clipPath>
	<clipPath id="z22995c4"><use href="#z22995d4"/></clipPath>
	<clipPath id="z22995c5"><use href="#z22995d5"/></clipPath>
	<clipPath id="z22995c6"><use href="#z22995d6"/></clipPath>
	<clipPath id="z22995c7"><use href="#z22995d7"/></clipPath>
	<clipPath id="z22995c8"><use href="#z22995d8"/></clipPath>
<marker id="guide-arrow" viewBox="0 0 16 16" refX="5" refY="5" markerWidth="4" markerHeight="4" orient="auto-start-reverse"><path d="M 0 0 L 10 5 L 0 10 z" fill="inherit"/></marker></defs>
<path style="--d:1s;" pathLength="3333" clip-path="url(#z22995c1)" d="M267 106L322 177L213 615L401 723L433 776"/>
<path style="--d:2s;" pathLength="3333" clip-path="url(#z22995c2)" d="M371 390L415 436L349 651L269 751L148 818"/>
<path style="--d:3s;" pathLength="3333" clip-path="url(#z22995c3)" d="M33 494L92 520L369 439"/>
<path style="--d:4s;" pathLength="3333" clip-path="url(#z22995c4)" d="M519 322L555 360L457 540"/>
<path style="--d:5s;" pathLength="3333" clip-path="url(#z22995c5)" d="M552 449L848 398"/>
<path style="--d:6s;" pathLength="3333" clip-path="url(#z22995c6)" d="M632 116L693 174L678 794"/>
<path style="--d:7s;" pathLength="3333" clip-path="url(#z22995c7)" d="M537 616L830 589"/>
<path style="--d:8s;" pathLength="3333" clip-path="url(#z22995c8)" d="M449 833L881 796L967 809"/>
<g class="guides"><circle style="--d: 1s" class="g1" cx="267" cy="106" r="16"/><path style="--d: 1s;" class="g1" d="M352.68,37.456 Q407.68,108.456 353.18,327.456 Q298.68,546.456 392.68,600.456 Q486.68,654.456 502.67999999999995,680.956 Q502.67999999999995,680.956 518.68,707.456"/><circle style="--d: 2s" class="g2" cx="371" cy="390" r="16"/><path style="--d: 2s;" class="g2" d="M275,390 Q303.17977528089887,425.68224299065423 282.0449438202247,509.0700934579439 Q260.91011235955057,592.4579439252336 235.2921348314607,631.2429906542056 Q209.6741573033708,670.0280373831775 170.92696629213484,696.0140186915887 Q170.92696629213484,696.0140186915887 132.17977528089887,722"/><circle style="--d: 3s" class="g3" cx="33" cy="494" r="16"/><path style="--d: 3s;" class="g3" d="M33,590 Q92,616 126.625,605.875 Q334.375,545.125 369,535"/><circle style="--d: 4s" class="g4" cx="519" cy="322" r="16"/><path style="--d: 4s;" class="g4" d="M423,322 Q459,360 446.75,382.5 Q373.25,517.5 361,540"/><circle style="--d: 5s" class="g5" cx="552" cy="449" r="16"/><path style="--d: 5s;" class="g5" d="M552,545 L848,494"/><circle style="--d: 6s" class="g6" cx="632" cy="116" r="16"/><path style="--d: 6s;" class="g6" d="M536,116 Q597,174 595.125,251.5 Q583.875,716.5 582,794"/><circle style="--d: 7s" class="g7" cx="537" cy="616" r="16"/><path style="--d: 7s;" class="g7" d="M537,712 L830,685"/><circle style="--d: 8s" class="g8" cx="449" cy="833" r="16"/><path style="--d: 8s;" class="g8" d="M449,929 Q881,892 891.75,893.625 Q956.25,903.375 967,905"/></g></svg>