<!--
  Stroke-order data for 姥, derived from AnimCJK (https://github.com/parsimonhi/animCJK),
  itself derived from the Arphic PL KaitiM fonts. Distributed under the Arphic Public License
  (see ARPHICPL.TXT). Regenerated by scripts/build-strokes.ts — do not edit by hand.
-->
<svg id="z23013" class="acjk" viewBox="0 0 1024 1024" xmlns="http://www.w3.org/2000/svg">
<g class="glyph"><path id="z23013d1" d="M262 453Q286 363 306 272Q315 224 333 199Q345 177 338 164Q323 146 277 120Q256 107 240 117Q227 124 237 140Q271 191 218 463C211 493 211 493 208 508Q196 572 171 613Q161 635 181 652Q227 680 266 717C289 738 289 738 301 749Q376 824 384 826Q391 826 399 815Q406 805 402 774Q398 746 376 731Q360 719 331 701C304 685 304 685 290 677Q265 662 233 645Q212 633 215 612Q234 554 251 494C258 467 258 467 262 453Z"/><path id="z23013d2" d="M266 717Q194 798 104 856Q91 865 103 868Q116 869 152 857Q206 836 247 801Q280 776 301 749C321 717 321 717 331 701Q368 637 382 574Q401 483 420 450Q430 432 415 422Q367 386 343 392Q328 396 334 411Q338 421 342 434C346 443 343 454 343 464Q334 596 290 677C274 704 274 704 266 717Z"/><path id="z23013d3" d="M342 434Q303 443 262 453C233 460 233 460 218 463Q160 473 100 487Q79 491 46 488Q33 489 31 498Q27 511 36 519Q55 535 86 556Q96 560 107 553Q149 528 208 508C237 499 237 499 251 494Q294 478 343 464C352 460 352 432 342 434Z"/><path id="z23013d4" d="M628 345Q713 324 724 318Q731 311 727 303Q720 293 693 287Q665 283 639 295Q635 296 632 298C598 309 598 309 581 314Q578 314 577 315Q541 324 499 330Q465 337 490 351Q529 370 580 356C612 349 612 349 628 345Z"/><path id="z23013d5" d="M617 462Q621 402 628 345C631 314 631 314 632 298Q638 175 658 119Q662 107 642 92Q606 73 582 68Q566 64 558 73Q551 80 558 96Q580 127 580 150Q583 228 581 314C580 342 580 342 580 356Q579 410 575 470C575 484 617 476 617 462Z"/><path id="z23013d6" d="M694 483Q706 480 907 464Q925 463 929 455Q933 445 918 433Q861 400 811 418Q774 425 727 438C686 447 686 447 666 452Q630 456 617 462C589 467 589 467 575 470Q499 483 418 499Q399 503 414 517Q427 529 444 532Q463 536 477 531Q550 507 633 493Q634 492 636 493C675 486 675 486 694 483Z"/><path id="z23013d7" d="M603 597Q676 504 694 483C716 453 716 453 727 438Q758 389 785 346Q816 291 836 265Q843 255 836 239Q806 187 774 187Q758 186 763 207Q769 240 760 274Q757 278 756 285Q723 366 666 452C646 479 646 479 636 493Q617 517 596 544Q586 556 576 568C557 590 557 590 547 601Q483 668 411 736Q404 740 404 748Q404 752 409 753Q443 747 537 665Q540 659 550 652C585 615 585 615 603 597Z"/><path id="z23013d8" d="M586 735Q658 704 766 647Q785 637 808 631Q829 627 823 608Q814 590 793 573Q774 557 763 557Q751 556 752 569Q752 602 669 657Q629 685 587 717C582 721 580 737 586 735Z"/><path id="z23013d9" d="M896 819Q883 795 861 719Q860 703 853 698Q846 695 842 713Q815 795 798 822Q788 834 756 843Q684 861 625 842Q603 832 597 819Q579 780 586 735C587 723 587 723 587 717Q591 666 602 607Q603 601 603 597C603 584 587 575 576 568Q570 564 563 562Q553 558 544 562Q538 566 543 582Q544 591 547 601C553 617 550 635 550 652Q543 796 554 836Q558 857 577 874Q658 934 818 897Q855 887 890 862Q911 846 896 819Z"/></g>
<defs><clipPath id="z23013c1"><use href="#z23013d1"/></clipPath>
	<clipPath id="z23013c2"><use href="#z23013d2"/></clipPath>
	<clipPath id="z23013c3"><use href="#z23013d3"/></clipPath>
	<clipPath id="z23013c4"><use href="#z23013d4"/></clipPath>
	<clipPath id="z23013c5"><use href="#z23013d5"/></clipPath>
	<clipPath id="z23013c6"><use href="#z23013d6"/></clipPath>
	<clipPath id="z23013c7"><use href="#z23013d7"/></clipPath>
	<clipPath id="z23013c8"><use href="#z23013d8"/></clipPath>
	<clipPath id="z23013c9"><use href="#z23013d9"/></clipPath><marker id="guide-arrow" viewBox="0 0 16 16" refX="5" refY="5" markerWidth="4" markerHeight="4" orient="auto-start-reverse"><path d="M 0 0 L 10 5 L 0 10 z" fill="inherit"/></marker></defs>
<g class="strokes"><path pathLength="3333" clip-path="url(#z23013c1)" d="M241 125L295 186L193 632L354 755L395 817"/><path pathLength="3333" clip-path="url(#z23013c2)" d="M341 397L382 444L313 685L216 798L106 863"/><path pathLength="3333" clip-path="url(#z23013c3)" d="M37 495L96 522L339 446"/><path pathLength="3333" clip-path="url(#z23013c4)" d="M491 341L723 309"/><path pathLength="3333" clip-path="url(#z23013c5)" d="M561 78L617 124L584 466"/><path pathLength="3333" clip-path="url(#z23013c6)" d="M414 506L836 441L926 449"/><path pathLength="3333" clip-path="url(#z23013c7)" d="M770 193L800 257L713 419L584 589L412 744"/><path pathLength="3333" clip-path="url(#z23013c8)" d="M762 560L780 611L589 724"/><path pathLength="3333" clip-path="url(#z23013c9)" d="M548 569L575 607L569 807L608 863L710 881L821 855L855 823L852 704"/></g>
<g class="guides"><text class="g1" style="--gs:1" x="241" y="125">①</text><path class="g1 aligned" style="--gs:1" d="M241,125 Q295,186 244,409 Q193,632 273.5,693.5 Q354,755 374.5,786 Q374.5,786 395,817"/><path class="g1 offset" style="--gs:1" d="M326.68,56.46 Q380.68,117.46 329.68,340.46 Q278.68,563.46 359.18,624.96 Q439.68,686.46 460.18,717.46 Q460.18,717.46 480.68,748.46"/><text class="g2" style="--gs:2" x="341" y="397">②</text><path class="g2 aligned" style="--gs:2" d="M341,397 Q382,444 347.5,564.5 Q313,685 264.5,741.5 Q216,798 161,830.5 Q161,830.5 106,863"/><path class="g2 offset" style="--gs:2" d="M245,397 Q271.74,434.32 249.24,529.99 Q226.74,625.67 195.11,670.53 Q163.48,715.39 127.61,741.2 Q127.61,741.2 91.74,767"/><text class="g3" style="--gs:3" x="37" y="495">③</text><path class="g3 aligned" style="--gs:3" d="M37,495 Q96,522 126.38,512.5 Q308.63,455.5 339,446"/><path class="g3 offset" style="--gs:3" d="M37,591 Q96,618 126.38,608.5 Q308.63,551.5 339,542"/><text class="g4" style="--gs:4" x="491" y="341">④</text><path class="g4 aligned" style="--gs:4" d="M491,341 L723,309"/><path class="g4 offset" style="--gs:4" d="M491,437 L723,405"/><text class="g5" style="--gs:5" x="561" y="78">⑤</text><path class="g5 aligned" style="--gs:5" d="M561,78 Q617,124 612.88,166.75 Q588.13,423.25 584,466"/><path class="g5 offset" style="--gs:5" d="M465,78 Q521,124 516.88,166.75 Q492.13,423.25 488,466"/><text class="g6" style="--gs:6" x="414" y="506">⑥</text><path class="g6 aligned" style="--gs:6" d="M414,506 Q836,441 847.25,442 Q914.75,448 926,449"/><path class="g6 offset" style="--gs:6" d="M414,602 Q836,537 847.25,538 Q914.75,544 926,545"/><text class="g7" style="--gs:7" x="770" y="193">⑦</text><path class="g7 aligned" style="--gs:7" d="M770,193 Q800,257 756.5,338 Q713,419 648.5,504 Q584,589 498,666.5 Q498,666.5 412,744"/><path class="g7 offset" style="--gs:7" d="M674,193 Q694.72,245.85 664.68,312.74 Q634.63,379.62 590.08,449.81 Q545.53,520.01 486.12,584 Q486.12,584 426.72,648"/><text class="g8" style="--gs:8" x="762" y="560">⑧</text><path class="g8 aligned" style="--gs:8" d="M762,560 Q780,611 756.13,625.13 Q612.88,709.88 589,724"/><path class="g8 offset" style="--gs:8" d="M666,560 Q675,585.5 663.06,592.56 Q591.44,634.94 579.5,642"/><text class="g9" style="--gs:9" x="548" y="569">⑨</text><path class="g9 aligned" style="--gs:9" d="M548,569 Q575,607 572,707 Q569,807 588.5,835 Q608,863 659,872 Q710,881 765.5,868 Q821,855 838,839 Q855,823 853.5,763.5 Q853.5,763.5 852,704"/><path class="g9 offset" style="--gs:9" d="M616.54,500.46 Q630.04,538.46 628.54,638.46 Q627.04,738.46 636.79,766.46 Q646.54,794.46 672.04,803.46 Q697.54,812.46 725.29,799.46 Q753.04,786.46 761.54,770.46 Q770.04,754.46 769.29,694.96 Q769.29,694.96 768.54,635.46"/></g>
</svg>
