<!--
  Stroke-order data for 娄, derived from AnimCJK (https://github.com/parsimonhi/animCJK),
  itself derived from the Arphic PL KaitiM fonts. Distributed under the Arphic Public License
  (see ARPHICPL.TXT). Regenerated by scripts/build-strokes.ts — do not edit by hand.
-->
<svg id="z23044" class="acjk" viewBox="0 0 1024 1024" xmlns="http://www.w3.org/2000/svg">
<g class="glyph"><path id="z23044d1" d="M350 220Q407 274 422 273Q432 272 437 259Q441 246 433 217Q424 190 345 174Q330 170 324 173Q320 177 321 189Q324 199 350 220Z"/><path id="z23044d2" d="M641 153Q619 187 572 238Q565 245 571 253Q578 254 587 251Q674 197 715 178Q734 174 730 163Q724 147 706 126Q687 107 664 103Q649 103 649 123Q650 138 641 153Z"/><path id="z23044d3" d="M541 336Q578 329 760 313Q770 314 780 302Q781 290 759 279Q720 257 659 275Q541 296 530 301C505 305 505 305 493 307Q447 313 246 332Q218 333 238 352Q248 362 263 371Q276 380 298 374Q365 361 447 350C510 341 510 341 541 336Z"/><path id="z23044d4" d="M530 301Q533 172 559 118Q565 108 554 95Q502 53 473 63Q460 67 466 82Q494 127 492 198Q493 258 493 307C491 353 491 353 490 376Q489 443 481 474Q480 489 486 505Q492 514 497 526Q507 541 521 533Q531 524 532 456Q529 401 528 358C529 320 529 320 530 301Z"/><path id="z23044d5" d="M447 350Q422 428 242 537Q226 547 240 550Q267 557 348 514Q382 493 432 446Q450 428 490 376C517 340 464 309 447 350Z"/><path id="z23044d6" d="M528 358Q595 434 670 507Q692 528 727 528Q793 529 860 515Q876 514 878 508Q879 502 866 497Q685 439 611 388Q590 373 541 336C527 324 517 343 528 358Z"/><path id="z23044d7" d="M524 827Q584 864 672 938Q697 960 716 960Q738 960 739 939Q739 918 710 870Q697 845 667 833Q606 805 556 785C523 772 523 772 506 766Q469 750 439 743Q417 739 429 717Q445 686 458 665C471 640 471 640 477 628Q484 612 494 602Q504 595 500 584Q496 569 456 540Q446 530 434 534Q421 538 428 554Q437 578 428 602Q424 618 418 634C409 659 409 659 404 671Q370 743 372 750Q373 760 392 764Q432 776 477 800C508 818 508 818 524 827Z"/><path id="z23044d8" d="M477 800Q399 875 225 912Q206 919 227 923Q356 945 462 882Q498 860 524 827C545 799 545 799 556 785Q586 742 605 692Q612 668 621 655C629 641 644 620 633 609Q603 575 562 578Q549 581 554 597Q558 606 559 619C557 645 557 645 556 658Q552 677 542 699Q527 736 506 766C487 789 487 789 477 800Z"/><path id="z23044d9" d="M621 655Q712 651 826 655Q857 656 886 657Q908 657 914 648Q921 635 903 619Q840 570 794 585Q727 595 633 609C584 616 584 616 559 619Q541 619 477 628C438 632 438 632 418 634Q282 646 131 660Q107 661 124 681Q139 697 159 703Q181 710 200 706Q297 682 404 671C440 667 440 667 458 665Q501 659 556 658C599 656 599 656 621 655Z"/></g>
<defs><clipPath id="z23044c1"><use href="#z23044d1"/></clipPath>
	<clipPath id="z23044c2"><use href="#z23044d2"/></clipPath>
	<clipPath id="z23044c3"><use href="#z23044d3"/></clipPath>
	<clipPath id="z23044c4"><use href="#z23044d4"/></clipPath>
	<clipPath id="z23044c5"><use href="#z23044d5"/></clipPath>
	<clipPath id="z23044c6"><use href="#z23044d6"/></clipPath>
	<clipPath id="z23044c7"><use href="#z23044d7"/></clipPath>
	<clipPath id="z23044c8"><use href="#z23044d8"/></clipPath>
	<clipPath id="z23044c9"><use href="#z23044d9"/></clipPath><marker id="guide-arrow" viewBox="0 0 16 16" refX="5" refY="5" markerWidth="4" markerHeight="4" orient="auto-start-reverse"><path d="M 0 0 L 10 5 L 0 10 z" fill="inherit"/></marker></defs>
<g class="strokes"><path pathLength="3333" clip-path="url(#z23044c1)" d="M329 182L433 263"/><path pathLength="3333" clip-path="url(#z23044c2)" d="M657 112L686 159L574 244"/><path pathLength="3333" clip-path="url(#z23044c3)" d="M238 340L292 351L699 292L772 300"/><path pathLength="3333" clip-path="url(#z23044c4)" d="M472 72L524 124L508 531"/><path pathLength="3333" clip-path="url(#z23044c5)" d="M490 344L381 465L241 545"/><path pathLength="3333" clip-path="url(#z23044c6)" d="M531 343L703 481L868 504"/><path pathLength="3333" clip-path="url(#z23044c7)" d="M433 539L466 591L402 748L648 867L730 952"/><path pathLength="3333" clip-path="url(#z23044c8)" d="M557 585L596 631L551 744L491 824L383 890L224 916"/><path pathLength="3333" clip-path="url(#z23044c9)" d="M123 668L198 680L807 618L912 637"/></g>
<g class="guides"><text class="g1" style="--gs:1" x="329" y="182">①</text><path class="g1 aligned" style="--gs:1" d="M329,182 L433,263"/><path class="g1 offset" style="--gs:1" d="M414.68,113.46 L518.68,194.46"/><text class="g2" style="--gs:2" x="657" y="112">②</text><path class="g2 aligned" style="--gs:2" d="M657,112 Q686,159 672,169.63 Q588,233.38 574,244"/><path class="g2 offset" style="--gs:2" d="M561,112 Q575.5,135.5 568.5,140.81 Q526.5,172.69 519.5,178"/><text class="g3" style="--gs:3" x="238" y="340">③</text><path class="g3 aligned" style="--gs:3" d="M238,340 Q292,351 393.75,336.25 Q699,292 717.25,294 Q753.75,298 772,300"/><path class="g3 offset" style="--gs:3" d="M238,436 Q292,447 393.75,432.25 Q699,388 717.25,390 Q753.75,394 772,396"/><text class="g4" style="--gs:4" x="472" y="72">④</text><path class="g4 aligned" style="--gs:4" d="M472,72 Q524,124 522,174.88 Q510,480.13 508,531"/><path class="g4 offset" style="--gs:4" d="M376,72 Q428,124 426,174.88 Q414,480.13 412,531"/><text class="g5" style="--gs:5" x="490" y="344">⑤</text><path class="g5 aligned" style="--gs:5" d="M490,344 Q381,465 363.5,475 Q258.5,535 241,545"/><path class="g5 offset" style="--gs:5" d="M575.68,412.54 Q466.68,533.54 449.18,543.54 Q344.18,603.54 326.68,613.54"/><text class="g6" style="--gs:6" x="531" y="343">⑥</text><path class="g6 aligned" style="--gs:6" d="M531,343 Q703,481 723.63,483.88 Q847.38,501.13 868,504"/><path class="g6 offset" style="--gs:6" d="M616.68,274.46 Q744.95,388.92 760.33,391.31 Q852.62,405.62 868,408"/><text class="g7" style="--gs:7" x="433" y="539">⑦</text><path class="g7 aligned" style="--gs:7" d="M433,539 Q466,591 434,669.5 Q402,748 525,807.5 Q648,867 689,909.5 Q689,909.5 730,952"/><path class="g7 offset" style="--gs:7" d="M518.68,470.46 Q551.68,522.46 519.68,600.96 Q487.68,679.46 610.68,738.96 Q733.68,798.46 774.68,840.96 Q774.68,840.96 815.68,883.46"/><text class="g8" style="--gs:8" x="557" y="585">⑧</text><path class="g8 aligned" style="--gs:8" d="M557,585 Q596,631 573.5,687.5 Q551,744 521,784 Q491,824 437,857 Q383,890 303.5,903 Q303.5,903 224,916"/><path class="g8 offset" style="--gs:8" d="M461,585 Q489.94,617.66 473.24,657.77 Q456.55,697.89 434.29,726.28 Q412.03,754.68 371.97,778.11 Q331.9,801.54 272.92,810.77 Q272.92,810.77 213.94,820"/><text class="g9" style="--gs:9" x="123" y="668">⑨</text><path class="g9 aligned" style="--gs:9" d="M123,668 Q198,680 350.25,664.5 Q807,618 833.25,622.75 Q885.75,632.25 912,637"/><path class="g9 offset" style="--gs:9" d="M123,764 Q198,776 350.25,760.5 Q807,714 833.25,718.75 Q885.75,728.25 912,733"/></g>
</svg>
