<svg id="z23130" class="acjk" viewBox="0 0 1024 1024" xmlns="http://www.w3.org/2000/svg">
<style>

@keyframes zk {
	to {
		stroke-dashoffset:0;
	}
}
svg.acjk path[clip-path] {
	--t:0.8s;
	animation:zk var(--t) linear forwards var(--d);
	stroke-dasharray:3337;
	stroke-dashoffset:3339;
	stroke-width:128;
	stroke-linecap:round;
	fill:none;
	stroke:#000;
}
svg.acjk path[id] {fill:#ccc;}


    @keyframes guide-fade {
        0% { opacity: 0; }
        3% { opacity: 1; }
        95% { opacity: 1; }
        100% { opacity: 0; }
    }

    svg.acjk #guide-arrow {
        fill: #f77;
    }

    svg.acjk .guides {
        circle {
            fill: #0f6;
        }

        path {
            opacity: 0;
            animation: guide-fade var(--t) linear forwards var(--d);
            stroke-width: 16px;
            stroke-linecap: round;
            stroke: #f77;
            fill: none;
            marker-end: url(#guide-arrow);
        }

        circle,
        path {
            --t: 0.8s;
            opacity: 0;
            animation: guide-fade calc(var(--t) + 0.4s) ease-in-out forwards calc(var(--d) - 0.2s);
        }
    }
</style>
<path id="z23130d1" d="M262 430C311 255 319 215 336 188C344 173 345 161 341 153C332 140 311 126 281 107C267 98 255 96 244 103C235 107 233 115 241 127C262 158 258 263 216 439C209 470 209 470 205 485C193 532 179 570 163 601C155 615 159 630 176 641C203 656 231 670 256 689C280 706 280 706 292 715C311 729 334 748 361 773C371 781 379 787 387 788C392 788 397 783 401 776C405 767 405 753 400 734C394 710 366 690 322 670C294 657 294 657 280 651C263 643 245 636 227 628C213 622 204 612 208 601C219 557 237 515 250 472C258 444 258 444 262 430Z"/>
<path id="z23130d2" d="M256 689C228 727 193 754 158 779C149 784 139 790 128 797C117 803 107 810 97 817C88 822 87 826 95 828C103 829 119 826 143 819C179 807 210 787 239 765C259 748 271 740 292 715C303 701 313 685 322 670C348 623 365 586 378 539C395 470 410 429 419 416C425 405 423 397 414 390C382 366 360 355 345 360C336 362 332 368 336 378C339 389 344 400 345 414C345 424 343 434 343 444C335 526 314 595 280 651C272 663 264 676 256 689Z"/>
<path id="z23130d3" d="M345 414C318 418 290 424 262 430C231 436 231 436 216 439C201 441 145 452 107 457C94 458 76 458 55 457C45 456 41 460 40 466C37 474 38 481 44 487C56 499 71 513 93 526C98 529 107 527 115 523C143 506 173 494 205 485C235 476 235 476 250 472C280 463 311 452 343 444C353 442 355 412 345 414Z"/>
<path id="z23130d4" d="M650 195C698 177 732 162 769 154C779 151 787 150 790 145C793 138 791 129 782 123C741 93 708 80 688 85C682 86 680 92 680 99C679 123 622 164 507 220C501 223 513 237 520 236C542 231 572 222 611 209C637 200 637 200 650 195Z"/>
<path id="z23130d5" d="M507 220C496 211 486 204 476 199C465 195 457 194 453 198C446 202 445 208 451 217C475 263 481 339 470 446C467 472 454 500 431 528C424 536 422 546 426 559C430 573 436 585 444 592C450 597 458 594 466 585C477 570 527 533 618 474C628 467 635 461 639 457C641 452 640 448 635 448C631 447 594 461 524 489C513 493 507 490 508 480C513 409 517 347 516 293C515 276 517 250 520 236C521 229 512 224 507 220Z"/>
<path id="z23130d6" d="M708 345C734 337 761 329 791 321C813 315 825 309 829 306C833 301 835 296 832 291C827 284 815 279 797 276C779 273 746 286 695 304C668 313 668 313 655 318C627 327 596 330 566 337C543 342 541 350 558 359C585 373 613 371 669 356C695 349 695 349 708 345Z"/>
<path id="z23130d7" d="M668 356C700 443 750 515 823 571C829 575 837 580 846 586C879 606 907 618 928 620C942 620 950 608 945 588C940 570 932 523 928 444C927 436 926 431 922 431C919 430 917 435 914 443C907 459 901 476 896 494C888 516 880 527 872 527C846 526 812 498 769 444C741 408 723 381 708 345C702 331 698 318 695 304C690 282 689 257 692 235C693 222 672 203 650 195C637 190 601 199 611 209C641 240 646 288 655 318C658 330 663 343 668 356Z"/>
<path id="z23130d8" d="M544 599Q529 589 512 583Q505 582 499 588Q495 592 502 602Q532 672 507 796Q504 808 500 823Q487 871 515 901Q525 913 533 901Q539 894 544 881C549 860 549 860 551 850Q551 847 557 752C558 733 558 733 558 724Q561 649 565 626C567 615 553 606 544 599Z"/>
<path id="z23130d9" d="M711 870C717 892 725 909 741 933C760 962 777 932 785 917C795 894 797 868 794 841C779 708 778 631 794 611C800 603 800 596 794 590C783 579 761 567 731 553C719 547 710 547 701 553C669 569 616 584 544 599C533 601 554 628 565 626C567 626 610 617 694 599C704 596 714 594 719 601C736 623 739 701 733 811C732 823 729 841 720 850C715 856 710 863 711 870Z"/>
<path id="z23130d10" d="M557 752C570 758 584 749 675 735C689 732 694 726 689 719C682 710 671 704 655 702C630 698 598 705 558 724C550 729 548 749 557 752Z"/>
<path id="z23130d11" d="M544 881C555 888 567 877 711 870C718 870 725 855 720 850C696 826 673 825 654 830C617 838 581 845 551 850C541 852 534 877 544 881Z"/>
<defs>
	<clipPath id="z23130c1"><use href="#z23130d1"/></clipPath>
	<clipPath id="z23130c2"><use href="#z23130d2"/></clipPath>
	<clipPath id="z23130c3"><use href="#z23130d3"/></clipPath>
	<clipPath id="z23130c4"><use href="#z23130d4"/></clipPath>
	<clipPath id="z23130c5"><use href="#z23130d5"/></clipPath>
	<clipPath id="z23130c6"><use href="#z23130d6"/></clipPath>
	<clipPath id="z23130c7"><use href="#z23130d7"/></clipPath>
	<clipPath id="z23130c8"><use href="#z23130d8"/></clipPath>
	<clipPath id="z23130c9"><use href="#z23130d9"/></clipPath>
	<clipPath id="z23130c10"><use href="#z23130d10"/></clipPath>
	<clipPath id="z23130c11"><use href="#z23130d11"/></clipPath>
<marker id="guide-arrow" viewBox="0 0 16 16" refX="5" refY="5" markerWidth="4" markerHeight="4" orient="auto-start-reverse"><path d="M 0 0 L 10 5 L 0 10 z" fill="inherit"/></marker></defs>
<path style="--d:1s;" pathLength="3333" clip-path="url(#z23130c1)" d="M244 114L298 169L183 614L348 719L389 780"/>
<path style="--d:2s;" pathLength="3333" clip-path="url(#z23130c2)" d="M342 369L383 415L310 644L223 753L99 824"/>
<path style="--d:3s;" pathLength="3333" clip-path="url(#z23130c3)" d="M44 468L102 492L348 425"/>
<path style="--d:4s;" pathLength="3333" clip-path="url(#z23130c4)" d="M688 88L733 138L511 228"/>
<path style="--d:5s;" pathLength="3333" clip-path="url(#z23130c5)" d="M454 205L493 263L469 537L631 453"/>
<path style="--d:6s;" pathLength="3333" clip-path="url(#z23130c6)" d="M555 347L827 299"/>
<path style="--d:7s;" pathLength="3333" clip-path="url(#z23130c7)" d="M615 206L655 225L712 403L823 537L915 568L923 437"/>
<path style="--d:8s;" pathLength="3333" clip-path="url(#z23130c8)" d="M507 593L539 630L522 902"/>
<path style="--d:9s;" pathLength="3333" clip-path="url(#z23130c9)" d="M552 607L714 572L760 607L757 941"/>
<path style="--d:10s;" pathLength="3333" clip-path="url(#z23130c10)" d="M557 742L685 723"/>
<path style="--d:11s;" pathLength="3333" clip-path="url(#z23130c11)" d="M541 869L717 854"/>
<g class="guides"><circle style="--d: 1s" class="g1" cx="244" cy="114" r="16"/><path style="--d: 1s;" class="g1" d="M329.68,45.456 Q383.68,100.456 326.18,322.956 Q268.68,545.456 351.18,597.956 Q433.68,650.456 454.18,680.956 Q454.18,680.956 474.68,711.456"/><circle style="--d: 2s" class="g2" cx="342" cy="369" r="16"/><path style="--d: 2s;" class="g2" d="M246,369 Q273.14084507042253,405.2945054945055 248.9788732394366,495.6362637362637 Q224.8169014084507,585.978021978022 196.02112676056336,628.979120879121 Q167.22535211267603,671.9802197802198 126.18309859154928,699.9901098901099 Q126.18309859154928,699.9901098901099 85.14084507042253,728"/><circle style="--d: 3s" class="g3" cx="44" cy="468" r="16"/><path style="--d: 3s;" class="g3" d="M44,564 Q102,588 132.75,579.625 Q317.25,529.375 348,521"/><circle style="--d: 4s" class="g4" cx="688" cy="88" r="16"/><path style="--d: 4s;" class="g4" d="M592,88 Q617.5405405405405,113 601.7905405405405,118.625 Q507.2905405405405,152.375 491.5405405405405,158"/><circle style="--d: 5s" class="g5" cx="454" cy="205" r="16"/><path style="--d: 5s;" class="g5" d="M539.68,136.45600000000002 Q559.8013559322034,189.6594698795181 556.7057627118644,252.49460240963856 Q547.4189830508475,441 568.3142372881356,421.7366746987952 Q610.1047457627119,383.21002409638555 631,363.94669879518074"/><circle style="--d: 6s" class="g6" cx="555" cy="347" r="16"/><path style="--d: 6s;" class="g6" d="M555,443 L827,395"/><circle style="--d: 7s" class="g7" cx="615" cy="206" r="16"/><path style="--d: 7s;" class="g7" d="M615,302 Q639.4155844155844,311.5 656.8116883116883,356 Q674.2077922077922,400.5 708.0844155844156,434 Q741.961038961039,467.5 770.0389610389611,475.25 Q798.1168831168832,483 800.5584415584416,450.25 Q800.5584415584416,450.25 803,417.5"/><circle style="--d: 8s" class="g8" cx="507" cy="593" r="16"/><path style="--d: 8s;" class="g8" d="M411,593 Q443,630 440.875,664 Q428.125,868 426,902"/><circle style="--d: 9s" class="g9" cx="552" cy="607" r="16"/><path style="--d: 9s;" class="g9" d="M552,703 Q633,668 638.75,676.75 Q656,703 655.625,762.5 Q654.875,881.5 654.5,941"/><circle style="--d: 10s" class="g10" cx="557" cy="742" r="16"/><path style="--d: 10s;" class="g10" d="M557,838 L685,819"/><circle style="--d: 11s" class="g11" cx="541" cy="869" r="16"/><path style="--d: 11s;" class="g11" d="M541,965 L717,950"/></g></svg>