<!--
  Stroke-order data for 媛, derived from AnimCJK (https://github.com/parsimonhi/animCJK),
  itself derived from the Arphic PL KaitiM fonts. Distributed under the Arphic Public License
  (see ARPHICPL.TXT). Regenerated by scripts/build-strokes.ts — do not edit by hand.
-->
<svg id="z23195" class="acjk" viewBox="0 0 1024 1024" xmlns="http://www.w3.org/2000/svg">
<g class="glyph"><path style="--part:1" id="z23195d1" d="M246 445C263 384 277 323 290 261C295 231 304 209 316 192C324 179 324 166 320 159C312 146 291 132 261 116C248 109 236 107 226 113C217 117 216 125 224 136C245 166 240 271 204 452C198 481 198 481 195 496C182 556 163 586 160 594C153 608 156 623 173 632C198 645 223 657 247 673C273 691 273 691 286 700C302 711 320 725 340 742C350 751 359 755 366 755C370 754 374 750 378 743C381 734 381 721 376 703C369 682 349 665 316 653C286 642 286 642 271 636C256 630 239 624 221 618C208 613 199 604 202 593C210 556 224 520 235 484C242 458 242 458 246 445Z"/><path style="--part:1" id="z23195d2" d="M247 673C208 720 165 756 121 782C115 785 110 789 105 793C96 798 95 803 103 804C150 810 211 777 281 707C282 705 284 702 286 700C296 684 307 669 316 653C339 609 352 573 359 549C373 491 383 464 395 440C400 428 399 421 390 414C358 390 336 379 321 384C312 386 308 392 312 402C315 411 319 420 320 431C320 440 321 449 320 459C311 531 294 590 271 636C264 649 256 661 247 673Z"/><path style="--part:1" id="z23195d3" d="M320 431C295 435 270 440 246 445C218 450 218 450 204 452C170 457 135 461 100 468C87 470 71 468 51 467C43 466 37 469 36 476C33 483 34 491 40 496C52 507 67 520 87 534C92 537 99 535 108 531C134 516 174 502 195 496C222 488 222 488 235 484C261 475 290 467 320 459C329 457 329 429 320 431Z"/><path style="--part:2" id="z23195d4" d="M650 82C618 108 558 138 473 180C466 183 468 191 474 192C506 193 566 179 651 144C670 135 706 126 752 113C762 110 770 110 773 105C776 98 773 90 765 83C729 53 697 39 673 43C668 43 665 49 665 57C664 66 658 74 650 82Z"/><path style="--part:2" id="z23195d5" d="M458 281C468 293 477 307 488 322C494 330 503 335 513 337C519 337 525 334 529 327C533 318 533 304 531 286C529 276 523 265 507 257C469 237 446 230 440 233C436 234 435 240 435 248C435 254 444 265 458 281Z"/><path style="--part:2" id="z23195d6" d="M571 227C589 266 605 289 621 295C629 297 637 294 643 283C646 275 647 263 643 250C637 231 615 217 580 203C575 201 571 202 569 210C567 214 567 220 571 227Z"/><path style="--part:2" id="z23195d7" d="M769 191C760 202 737 229 699 272C691 280 694 287 704 284C737 270 768 250 801 230C812 222 824 215 838 211C850 206 854 198 848 188C841 177 830 169 817 160C804 151 794 147 787 149C780 149 778 153 780 161C781 171 776 181 769 191Z"/><path style="--part:2" id="z23195d8" d="M571 403C680 388 777 355 779 354C784 349 785 344 783 339C779 331 767 325 750 321C736 317 694 330 624 348C560 364 510 369 476 374C453 376 450 385 467 395C486 406 506 411 525 409C556 405 556 405 571 403Z"/><path style="--part:2" id="z23195d9" d="M564 513C625 499 710 492 818 489C852 488 872 486 876 479C879 472 875 464 865 457C831 432 791 429 746 442C708 451 616 469 579 476C535 483 535 483 513 487C472 493 431 500 390 508C377 510 376 515 386 525C394 533 404 538 415 541C427 543 439 543 449 541C465 536 482 531 501 527C543 518 543 518 564 513Z"/><path style="--part:2" id="z23195d10" d="M538 582C539 579 546 556 564 513C574 488 574 488 579 476C590 447 597 443 597 433C596 421 582 413 571 403C559 393 522 394 525 409C529 423 524 448 513 487C505 514 505 514 501 527C470 627 391 764 296 858C276 876 262 887 259 895C255 901 258 904 264 905C284 906 331 881 418 787C460 740 496 678 528 605C535 590 535 590 538 582Z"/><path style="--part:2" id="z23195d11" d="M679 775C704 741 727 697 750 646C758 627 769 611 784 599C796 588 799 579 791 570C782 561 768 551 747 544C731 538 714 541 696 549C677 556 655 562 631 568C607 573 576 577 538 582C530 584 520 602 528 605C552 615 581 619 615 609C648 599 667 591 674 592C690 593 697 602 693 620C681 668 664 709 643 742C642 742 642 742 642 743C634 752 627 762 619 772C577 816 514 849 432 872C423 874 422 879 430 885C433 887 449 888 477 887C537 882 596 856 650 807C660 797 670 786 679 775Z"/><path style="--part:2" id="z23195d12" d="M650 807C683 844 768 925 784 926C844 929 894 922 935 916C956 912 967 908 965 902C963 897 911 881 811 850C768 836 722 812 679 775C654 754 654 754 642 743C627 730 612 716 598 702C575 679 553 668 533 668C522 668 515 669 514 673C512 676 517 682 527 688C549 702 581 729 619 772C640 795 640 795 650 807Z"/></g>
<defs><clipPath id="z23195c1"><use href="#z23195d1"/></clipPath>
	<clipPath id="z23195c2"><use href="#z23195d2"/></clipPath>
	<clipPath id="z23195c3"><use href="#z23195d3"/></clipPath>
	<clipPath id="z23195c4"><use href="#z23195d4"/></clipPath>
	<clipPath id="z23195c5"><use href="#z23195d5"/></clipPath>
	<clipPath id="z23195c6"><use href="#z23195d6"/></clipPath>
	<clipPath id="z23195c7"><use href="#z23195d7"/></clipPath>
	<clipPath id="z23195c8"><use href="#z23195d8"/></clipPath>
	<clipPath id="z23195c9"><use href="#z23195d9"/></clipPath>
	<clipPath id="z23195c10"><use href="#z23195d10"/></clipPath>
	<clipPath id="z23195c11"><use href="#z23195d11"/></clipPath>
	<clipPath id="z23195c12"><use href="#z23195d12"/></clipPath><marker id="guide-arrow" viewBox="0 0 16 16" refX="5" refY="5" markerWidth="4" markerHeight="4" orient="auto-start-reverse"><path d="M 0 0 L 10 5 L 0 10 z" fill="inherit"/></marker></defs>
<g class="strokes"><path style="--part:1" pathLength="3333" clip-path="url(#z23195c1)" d="M228 120L278 180L181 609L331 695L366 748"/><path style="--part:1" pathLength="3333" clip-path="url(#z23195c2)" d="M318 388L359 437L299 633L212 739L106 798"/><path style="--part:1" pathLength="3333" clip-path="url(#z23195c3)" d="M38 476L93 501L317 449"/><path style="--part:2" pathLength="3333" clip-path="url(#z23195c4)" d="M685 59L719 93L477 185"/><path style="--part:2" pathLength="3333" clip-path="url(#z23195c5)" d="M444 239L521 331"/><path style="--part:2" pathLength="3333" clip-path="url(#z23195c6)" d="M578 207L631 289"/><path style="--part:2" pathLength="3333" clip-path="url(#z23195c7)" d="M788 155L808 198L703 277"/><path style="--part:2" pathLength="3333" clip-path="url(#z23195c8)" d="M465 384L776 339"/><path style="--part:2" pathLength="3333" clip-path="url(#z23195c9)" d="M385 515L764 464L871 472"/><path style="--part:2" pathLength="3333" clip-path="url(#z23195c10)" d="M531 412L558 446L475 655L374 803L263 898"/><path style="--part:2" pathLength="3333" clip-path="url(#z23195c11)" d="M537 602L702 570L743 597L618 804L532 856L431 878"/><path style="--part:2" pathLength="3333" clip-path="url(#z23195c12)" d="M527 677L789 884L956 906"/></g>
<g class="guides"><text class="g1" style="--gs:1" x="228" y="120">①</text><path class="g1 aligned" style="--gs:1" d="M228,120 Q278,180 229.5,394.5 Q181,609 256,652 Q331,695 348.5,721.5 Q348.5,721.5 366,748"/><path class="g1 offset" style="--gs:1" d="M313.68,51.46 Q363.68,111.46 315.18,325.96 Q266.68,540.46 341.68,583.46 Q416.68,626.46 434.18,652.96 Q434.18,652.96 451.68,679.46"/><text class="g2" style="--gs:2" x="318" y="388">②</text><path class="g2 aligned" style="--gs:2" d="M318,388 Q359,437 329,535 Q299,633 255.5,686 Q212,739 159,768.5 Q159,768.5 106,798"/><path class="g2 offset" style="--gs:2" d="M222,388 Q247.44,425.53 228.83,500.58 Q210.21,575.63 183.22,616.22 Q156.22,656.81 123.33,679.41 Q123.33,679.41 90.44,702"/><text class="g3" style="--gs:3" x="38" y="476">③</text><path class="g3 aligned" style="--gs:3" d="M38,476 Q93,501 121,494.5 Q289,455.5 317,449"/><path class="g3 offset" style="--gs:3" d="M38,572 Q93,597 121,590.5 Q289,551.5 317,545"/><text class="g4" style="--gs:4" x="685" y="59">④</text><path class="g4 aligned" style="--gs:4" d="M685,59 Q719,93 688.75,104.5 Q507.25,173.5 477,185"/><path class="g4 offset" style="--gs:4" d="M589,59 Q609.51,76 591.26,81.75 Q481.76,116.25 463.51,122"/><text class="g5" style="--gs:5" x="444" y="239">⑤</text><path class="g5 aligned" style="--gs:5" d="M444,239 L521,331"/><path class="g5 offset" style="--gs:5" d="M529.68,170.46 L606.68,262.46"/><text class="g6" style="--gs:6" x="578" y="207">⑥</text><path class="g6 aligned" style="--gs:6" d="M578,207 L631,289"/><path class="g6 offset" style="--gs:6" d="M663.68,138.46 L716.68,220.46"/><text class="g7" style="--gs:7" x="788" y="155">⑦</text><path class="g7 aligned" style="--gs:7" d="M788,155 Q808,198 794.88,207.88 Q716.13,267.13 703,277"/><path class="g7 offset" style="--gs:7" d="M692,155 Q702,176.5 695.44,181.44 Q656.06,211.06 649.5,216"/><text class="g8" style="--gs:8" x="465" y="384">⑧</text><path class="g8 aligned" style="--gs:8" d="M465,384 L776,339"/><path class="g8 offset" style="--gs:8" d="M465,480 L776,435"/><text class="g9" style="--gs:9" x="385" y="515">⑨</text><path class="g9 aligned" style="--gs:9" d="M385,515 Q764,464 777.38,465 Q857.63,471 871,472"/><path class="g9 offset" style="--gs:9" d="M385,611 Q764,560 777.38,561 Q857.63,567 871,568"/><text class="g10" style="--gs:10" x="531" y="412">⑩</text><path class="g10 aligned" style="--gs:10" d="M531,412 Q558,446 516.5,550.5 Q475,655 424.5,729 Q374,803 318.5,850.5 Q318.5,850.5 263,898"/><path class="g10 offset" style="--gs:10" d="M435,412 Q453.21,439.28 425.22,523.14 Q397.22,607 363.16,666.38 Q329.09,725.77 291.65,763.88 Q291.65,763.88 254.21,802"/><text class="g11" style="--gs:11" x="537" y="602">⑪</text><path class="g11 aligned" style="--gs:11" d="M537,602 Q702,570 722.5,583.5 Q743,597 680.5,700.5 Q618,804 575,830 Q532,856 481.5,867 Q481.5,867 431,878"/><path class="g11 offset" style="--gs:11" d="M441,698 Q555.23,682 569.42,688.75 Q583.62,695.5 540.35,747.25 Q497.08,799 467.31,812 Q437.54,825 402.58,830.5 Q402.58,830.5 367.62,836"/><text class="g12" style="--gs:12" x="527" y="677">⑫</text><path class="g12 aligned" style="--gs:12" d="M527,677 Q789,884 809.88,886.75 Q935.13,903.25 956,906"/><path class="g12 offset" style="--gs:12" d="M612.68,608.46 Q822.35,790.64 839.06,793.06 Q939.29,807.58 956,810"/></g>
<g class="parts"><rect data-part="2" data-literal="爰" role="button" tabindex="0" aria-label="Part 爰" x="191" y="0" width="833" height="978"/><rect data-part="1" data-literal="女" data-radical="true" role="button" tabindex="0" aria-label="Part 女 (radical)" x="0" y="48" width="438" height="822"/></g>
</svg>
