<svg id="z23389" class="acjk" viewBox="0 0 1024 1024" xmlns="http://www.w3.org/2000/svg">
<style>

@keyframes zk {
	to {
		stroke-dashoffset:0;
	}
}
svg.acjk path[clip-path] {
	--t:0.8s;
	animation:zk var(--t) linear forwards var(--d);
	stroke-dasharray:3337;
	stroke-dashoffset:3339;
	stroke-width:128;
	stroke-linecap:round;
	fill:none;
	stroke:#000;
}
svg.acjk path[id] {fill:#ccc;}


    @keyframes guide-fade {
        0% { opacity: 0; }
        3% { opacity: 1; }
        95% { opacity: 1; }
        100% { opacity: 0; }
    }

    svg.acjk #guide-arrow {
        fill: #f77;
    }

    svg.acjk .guides {
        circle {
            fill: #0f6;
        }

        path {
            opacity: 0;
            animation: guide-fade var(--t) linear forwards var(--d);
            stroke-width: 16px;
            stroke-linecap: round;
            stroke: #f77;
            fill: none;
            marker-end: url(#guide-arrow);
        }

        circle,
        path {
            --t: 0.8s;
            opacity: 0;
            animation: guide-fade calc(var(--t) + 0.4s) ease-in-out forwards calc(var(--d) - 0.2s);
        }
    }
</style>
<path id="z23389d1" d="M528 221C598 207 633 195 635 195C641 190 642 185 639 180C634 172 622 165 604 161C577 154 556 164 532 171C497 180 497 180 480 185C438 196 394 199 357 204C334 206 330 215 347 226C369 240 407 243 480 230C512 224 512 224 528 221Z"/>
<path id="z23389d2" d="M517 332C519 293 525 256 528 221C531 188 531 188 532 171C534 145 539 115 550 82C552 75 548 66 535 58C514 45 496 39 482 36C471 33 464 34 460 40C455 44 454 52 460 61C470 77 476 90 477 102C477 128 480 156 480 185C480 215 480 215 480 230C480 264 478 300 477 338C477 351 517 345 517 332Z"/>
<path id="z23389d3" d="M592 355C662 348 743 343 835 343C889 342 920 340 924 333C927 325 923 315 912 307C876 280 844 270 818 276C767 286 704 301 628 314C583 321 583 321 561 325C546 327 531 329 517 332C490 336 490 336 477 338C368 354 251 368 125 385C110 386 107 394 119 405C140 425 165 432 191 425C299 394 411 372 530 361C571 357 571 357 592 355Z"/>
<path id="z23389d4" d="M491 459C528 423 562 388 592 355C616 328 616 328 628 314C677 258 712 207 750 173C756 166 759 156 755 144C747 121 737 105 727 94C717 83 707 77 696 75C683 72 679 78 680 95C680 123 679 141 676 150C650 208 611 266 561 325C540 349 540 349 530 361C498 397 459 437 411 478C381 503 381 503 366 516C277 590 178 662 67 730C61 733 57 736 57 742C56 746 57 748 62 749C77 749 121 730 191 692C265 651 344 597 423 523C468 480 468 480 491 459Z"/>
<path id="z23389d5" d="M564 584C624 532 669 502 699 494C711 490 715 482 712 472C709 461 687 444 645 421C633 414 619 414 605 420C573 432 534 444 491 459C455 471 438 474 411 478C394 479 378 478 362 478C347 478 342 484 348 497C351 504 356 511 366 516C380 522 397 524 423 523C441 521 479 501 585 463C591 460 597 461 605 465C612 469 617 476 612 484C593 511 570 539 548 571C544 577 559 588 564 584Z"/>
<path id="z23389d6" d="M588 640C577 607 575 595 564 584C553 575 553 575 548 571C541 565 532 560 521 557C508 552 498 552 492 556C483 560 482 567 492 575C514 592 525 620 536 648C540 659 541 672 543 685C551 749 550 816 530 858C522 873 506 878 486 874C453 866 453 866 436 862C429 860 426 862 429 870C430 875 438 880 448 889C471 910 485 930 493 946C498 958 507 962 518 961C526 959 539 952 557 936C599 895 613 787 596 680C593 666 592 653 588 640Z"/>
<path id="z23389d7" d="M596 680C624 677 703 676 834 676C846 676 855 673 859 668C863 660 859 650 848 642C812 614 772 607 730 616C690 623 642 631 588 640C553 645 553 645 536 648C456 660 369 667 277 678C262 679 260 685 271 697C279 706 290 713 303 717C316 720 329 720 340 718C422 696 490 689 543 685C578 682 578 682 596 680Z"/>
<defs>
	<clipPath id="z23389c1"><use href="#z23389d1"/></clipPath>
	<clipPath id="z23389c2"><use href="#z23389d2"/></clipPath>
	<clipPath id="z23389c3"><use href="#z23389d3"/></clipPath>
	<clipPath id="z23389c4"><use href="#z23389d4"/></clipPath>
	<clipPath id="z23389c5"><use href="#z23389d5"/></clipPath>
	<clipPath id="z23389c6"><use href="#z23389d6"/></clipPath>
	<clipPath id="z23389c7"><use href="#z23389d7"/></clipPath>
<marker id="guide-arrow" viewBox="0 0 16 16" refX="5" refY="5" markerWidth="4" markerHeight="4" orient="auto-start-reverse"><path d="M 0 0 L 10 5 L 0 10 z" fill="inherit"/></marker></defs>
<path style="--d:1s;" pathLength="3333" clip-path="url(#z23389c1)" d="M346 214L636 186"/>
<path style="--d:2s;" pathLength="3333" clip-path="url(#z23389c2)" d="M464 42L512 83L490 335"/>
<path style="--d:3s;" pathLength="3333" clip-path="url(#z23389c3)" d="M122 394L190 401L818 309L920 322"/>
<path style="--d:4s;" pathLength="3333" clip-path="url(#z23389c4)" d="M689 81L715 155L529 392L276 614L62 743"/>
<path style="--d:5s;" pathLength="3333" clip-path="url(#z23389c5)" d="M352 489L419 499L627 445L663 481L556 575"/>
<path style="--d:6s;" pathLength="3333" clip-path="url(#z23389c6)" d="M497 567L556 620L571 825L517 916L438 867"/>
<path style="--d:7s;" pathLength="3333" clip-path="url(#z23389c7)" d="M271 685L339 694L748 644L854 661"/>
<g class="guides"><circle style="--d: 1s" class="g1" cx="346" cy="214" r="16"/><path style="--d: 1s;" class="g1" d="M346,310 L636,282"/><circle style="--d: 2s" class="g2" cx="464" cy="42" r="16"/><path style="--d: 2s;" class="g2" d="M368,42 Q416,83 413.25,114.5 Q396.75,303.5 394,335"/><circle style="--d: 3s" class="g3" cx="122" cy="394" r="16"/><path style="--d: 3s;" class="g3" d="M122,490 Q190,497 347,474 Q818,405 843.5,408.25 Q894.5,414.75 920,418"/><circle style="--d: 4s" class="g4" cx="689" cy="81" r="16"/><path style="--d: 4s;" class="g4" d="M593,81 Q614.2220520673814,144.2688821752266 538.3124042879019,245.5845921450151 Q462.4027565084226,346.9003021148036 359.1493108728943,441.80362537764347 Q255.89586523736602,536.7069486404833 168.55895865237366,591.8534743202417 Q168.55895865237366,591.8534743202417 81.2220520673813,647"/><circle style="--d: 5s" class="g5" cx="352" cy="489" r="16"/><path style="--d: 5s;" class="g5" d="M352,585 Q385.60771704180064,595 437.7749196141479,568 Q489.94212218649517,541 498.9710610932476,559 Q508,577 481.1639871382637,624 Q481.1639871382637,624 454.32797427652736,671"/><circle style="--d: 6s" class="g6" cx="497" cy="567" r="16"/><path style="--d: 6s;" class="g6" d="M401,567 Q430.5,605.4212034383954 434.25,679.7263610315186 Q438,754.0315186246419 424.5,787.0157593123209 Q411,820 391.25,802.2392550143267 Q391.25,802.2392550143267 371.5,784.4785100286533"/><circle style="--d: 7s" class="g7" cx="271" cy="685" r="16"/><path style="--d: 7s;" class="g7" d="M271,781 Q339,790 441.25,777.5 Q748,740 774.5,744.25 Q827.5,752.75 854,757"/></g></svg>