<!--
  Stroke-order data for 孩, derived from AnimCJK (https://github.com/parsimonhi/animCJK),
  itself derived from the Arphic PL KaitiM fonts. Distributed under the Arphic Public License
  (see ARPHICPL.TXT). Regenerated by scripts/build-strokes.ts — do not edit by hand.
-->
<svg id="z23401" class="acjk" viewBox="0 0 1024 1024" xmlns="http://www.w3.org/2000/svg">
<g class="glyph"><path id="z23401d1" d="M323 363C399 289 448 247 471 239C483 234 487 226 484 215C480 204 457 187 411 166C398 159 384 160 370 167C333 183 286 199 229 219C214 224 189 228 153 229C137 229 132 235 139 249C143 257 153 265 167 272C187 282 208 279 231 266C243 258 281 241 347 214C366 205 388 220 380 237C360 274 334 312 310 355C307 359 319 366 323 363Z"/><path id="z23401d2" d="M372 454C365 423 351 390 323 363C319 359 314 357 310 355C291 343 277 343 268 348C259 352 259 358 268 368C306 415 314 452 320 483C325 511 325 511 328 525C339 587 339 717 312 779C303 797 284 801 262 797C243 793 225 790 208 786C200 783 197 786 201 794C203 798 211 804 222 814C247 835 262 856 271 873C277 885 286 890 297 889C305 888 322 881 338 862C409 772 387 529 379 489C374 466 374 466 372 454Z"/><path id="z23401d3" d="M379 489C394 478 421 459 436 442C450 425 441 415 425 423C406 431 389 444 372 454C337 473 337 473 320 483C260 516 195 549 129 585C115 592 95 597 71 603C62 605 58 611 58 619C58 629 61 636 70 641C88 650 111 659 139 667C147 669 155 664 163 656C193 621 249 580 328 525C362 501 362 501 379 489Z"/><path id="z23401d4" d="M637 138C655 154 673 173 693 195C702 205 713 210 726 210C733 209 739 204 744 195C748 184 748 167 742 144C736 121 699 101 633 83C621 79 612 78 608 81C603 83 601 90 603 100C604 108 617 120 637 138Z"/><path id="z23401d5" d="M637 318C705 304 779 290 861 282C867 281 876 280 881 270C884 262 873 256 859 248C839 235 801 239 739 254C633 279 539 292 460 303C441 305 439 312 454 324C462 330 470 336 480 342C488 346 500 346 515 343C537 336 563 332 591 327C622 321 622 321 637 318Z"/><path id="z23401d6" d="M676 507C638 505 598 504 557 508C544 509 549 499 553 495C613 419 650 376 664 365C671 358 673 352 670 344C667 338 656 329 637 318C624 310 588 312 591 327C601 365 557 429 537 456C521 475 498 494 468 513C458 518 455 526 457 533C459 543 468 555 482 569C488 575 495 575 504 570C529 555 581 544 659 534C669 532 687 507 676 507Z"/><path id="z23401d7" d="M659 534C607 615 492 712 414 773C408 776 408 779 415 780C457 781 528 741 616 654C681 588 730 519 774 457C780 447 786 439 792 436C796 433 798 428 798 421C796 404 781 390 755 379C742 373 731 372 724 373C719 373 716 378 717 387C718 399 719 415 713 433C703 460 690 484 676 507C665 525 665 525 659 534Z"/><path id="z23401d8" d="M733 722C772 684 805 647 843 607C851 598 853 591 852 585C849 575 838 568 821 562C800 554 785 551 777 554C772 555 768 559 766 570C749 633 668 724 521 839C506 850 508 852 528 851C562 848 658 793 713 741C726 728 726 728 733 722Z"/><path id="z23401d9" d="M713 741C766 788 817 836 858 879C869 891 878 899 889 902C894 903 899 899 905 893C912 883 911 865 903 837C891 798 836 760 733 722C724 719 706 735 713 741Z"/></g>
<defs><clipPath id="z23401c1"><use href="#z23401d1"/></clipPath>
	<clipPath id="z23401c2"><use href="#z23401d2"/></clipPath>
	<clipPath id="z23401c3"><use href="#z23401d3"/></clipPath>
	<clipPath id="z23401c4"><use href="#z23401d4"/></clipPath>
	<clipPath id="z23401c5"><use href="#z23401d5"/></clipPath>
	<clipPath id="z23401c6"><use href="#z23401d6"/></clipPath>
	<clipPath id="z23401c7"><use href="#z23401d7"/></clipPath>
	<clipPath id="z23401c8"><use href="#z23401d8"/></clipPath>
	<clipPath id="z23401c9"><use href="#z23401d9"/></clipPath><marker id="guide-arrow" viewBox="0 0 16 16" refX="5" refY="5" markerWidth="4" markerHeight="4" orient="auto-start-reverse"><path d="M 0 0 L 10 5 L 0 10 z" fill="inherit"/></marker></defs>
<g class="strokes"><path pathLength="3333" clip-path="url(#z23401c1)" d="M143 242L205 250L358 191L403 197L431 232L318 359"/><path pathLength="3333" clip-path="url(#z23401c2)" d="M266 356L310 384L345 462L358 704L310 835L271 838L205 791"/><path pathLength="3333" clip-path="url(#z23401c3)" d="M62 614L138 626L435 428"/><path pathLength="3333" clip-path="url(#z23401c4)" d="M608 85L704 152L732 203"/><path pathLength="3333" clip-path="url(#z23401c5)" d="M452 312L504 321L876 268"/><path pathLength="3333" clip-path="url(#z23401c6)" d="M599 321L627 365L505 521L524 540L674 516"/><path pathLength="3333" clip-path="url(#z23401c7)" d="M725 383L755 429L662 569L542 693L420 775"/><path pathLength="3333" clip-path="url(#z23401c8)" d="M777 561L803 595L729 686L520 845"/><path pathLength="3333" clip-path="url(#z23401c9)" d="M716 736L847 818L893 895"/></g>
<g class="guides"><text class="g1" style="--gs:1" x="143" y="242">①</text><path class="g1 aligned" style="--gs:1" d="M143,242 Q205,250 281.5,220.5 Q358,191 380.5,194 Q403,197 417,214.5 Q431,232 374.5,295.5 Q374.5,295.5 318,359"/><path class="g1 offset" style="--gs:1" d="M143,338 Q184.33,346 235.33,316.5 Q286.33,287 301.33,290 Q316.33,293 325.67,310.5 Q335,328 297.33,391.5 Q297.33,391.5 259.67,455"/><text class="g2" style="--gs:2" x="266" y="356">②</text><path class="g2 aligned" style="--gs:2" d="M266,356 Q310,384 327.5,423 Q345,462 351.5,583 Q358,704 334,769.5 Q310,835 290.5,836.5 Q271,838 238,814.5 Q238,814.5 205,791"/><path class="g2 offset" style="--gs:2" d="M170,356 Q192,378.42 200.75,409.66 Q209.5,440.89 212.75,537.79 Q216,634.69 204,687.14 Q192,739.6 182.25,740.8 Q172.5,742 156,723.18 Q156,723.18 139.5,704.36"/><text class="g3" style="--gs:3" x="62" y="614">③</text><path class="g3 aligned" style="--gs:3" d="M62,614 Q138,626 175.13,601.25 Q397.88,452.75 435,428"/><path class="g3 offset" style="--gs:3" d="M62,518 Q138,530 175.13,505.25 Q397.88,356.75 435,332"/><text class="g4" style="--gs:4" x="608" y="85">④</text><path class="g4 aligned" style="--gs:4" d="M608,85 Q704,152 707.5,158.38 Q728.5,196.63 732,203"/><path class="g4 offset" style="--gs:4" d="M693.68,16.46 Q789.68,83.46 793.18,89.83 Q814.18,128.08 817.68,134.46"/><text class="g5" style="--gs:5" x="452" y="312">⑤</text><path class="g5 aligned" style="--gs:5" d="M452,312 Q504,321 550.5,314.38 Q829.5,274.63 876,268"/><path class="g5 offset" style="--gs:5" d="M452,408 Q504,417 550.5,410.38 Q829.5,370.63 876,364"/><text class="g6" style="--gs:6" x="599" y="321">⑥</text><path class="g6 aligned" style="--gs:6" d="M599,321 Q627,365 566,443 Q505,521 514.5,530.5 Q524,540 599,528 Q599,528 674,516"/><path class="g6 offset" style="--gs:6" d="M684.68,252.46 Q698.68,290.94 668.18,359.16 Q637.68,427.38 642.43,435.69 Q647.18,444 684.68,433.5 Q684.68,433.5 722.18,423.01"/><text class="g7" style="--gs:7" x="725" y="383">⑦</text><path class="g7 aligned" style="--gs:7" d="M725,383 Q755,429 708.5,499 Q662,569 602,631 Q542,693 481,734 Q481,734 420,775"/><path class="g7 offset" style="--gs:7" d="M629,383 Q650.4,417.73 617.23,470.59 Q584.05,523.45 541.25,570.27 Q498.44,617.08 454.92,648.04 Q454.92,648.04 411.4,679"/><text class="g8" style="--gs:8" x="777" y="561">⑧</text><path class="g8 aligned" style="--gs:8" d="M777,561 Q803,595 784.5,617.75 Q729,686 676.75,725.75 Q572.25,805.25 520,845"/><path class="g8 offset" style="--gs:8" d="M681,561 Q698.18,583.51 685.96,598.57 Q649.28,643.75 614.76,670.06 Q545.71,722.69 511.18,749"/><text class="g9" style="--gs:9" x="716" y="736">⑨</text><path class="g9 aligned" style="--gs:9" d="M716,736 Q847,818 852.75,827.63 Q887.25,885.38 893,895"/><path class="g9 offset" style="--gs:9" d="M801.68,667.46 Q932.68,749.46 938.43,759.08 Q972.93,816.83 978.68,826.46"/></g>
</svg>
