<!--
  Stroke-order data for 宀, derived from AnimCJK (https://github.com/parsimonhi/animCJK),
  itself derived from the Arphic PL KaitiM fonts. Distributed under the Arphic Public License
  (see ARPHICPL.TXT). Regenerated by scripts/build-strokes.ts — do not edit by hand.
-->
<svg id="z23424" class="acjk" viewBox="0 0 1024 1024" xmlns="http://www.w3.org/2000/svg">
<g class="glyph"><path style="--part:1" id="z23424d1" d="M445 333Q476 361 509 396Q524 411 542 411Q554 410 560 395Q567 379 557 344Q551 322 516 303Q431 272 416 277Q410 281 411 296Q415 309 445 333Z"/><path style="--part:2" id="z23424d2" d="M232 584Q247 541 257 515C261 505 265 493 261 483Q261 482 261 481Q249 457 238 449Q219 434 217 460Q220 490 190 533Q135 597 166 647C167 648 167 648 167 649Q182 676 202 648Q220 623 232 584Z"/><path style="--part:2" id="z23424d3" d="M257 515Q284 530 322 522Q437 488 694 466Q769 459 774 479Q774 482 720 559Q711 571 717 576Q724 580 740 571Q803 537 852 528Q894 518 893 509Q893 499 825 437Q803 415 729 427Q579 442 371 471Q316 478 261 483C250 485 247 510 257 515Z"/></g>
<defs><clipPath id="z23424c1"><use href="#z23424d1"/></clipPath>
	<clipPath id="z23424c2"><use href="#z23424d2"/></clipPath>
	<clipPath id="z23424c3"><use href="#z23424d3"/></clipPath><marker id="guide-arrow" viewBox="0 0 16 16" refX="5" refY="5" markerWidth="4" markerHeight="4" orient="auto-start-reverse"><path d="M 0 0 L 10 5 L 0 10 z" fill="inherit"/></marker></defs>
<g class="strokes"><path style="--part:1" pathLength="3333" clip-path="url(#z23424c1)" d="M419 284L501 335L554 400"/><path style="--part:2" pathLength="3333" clip-path="url(#z23424c2)" d="M225 452L237 494L179 656"/><path style="--part:2" pathLength="3333" clip-path="url(#z23424c3)" d="M254 498L773 446L809 466L838 514L722 568"/></g>
<g class="guides"><text class="g1" style="--gs:1" x="419" y="284">①</text><path class="g1 aligned" style="--gs:1" d="M419,284 Q501,335 507.63,343.13 Q547.38,391.88 554,400"/><path class="g1 offset" style="--gs:1" d="M504.68,215.46 Q586.68,266.46 593.3,274.58 Q633.05,323.33 639.68,331.46"/><text class="g2" style="--gs:2" x="225" y="452">②</text><path class="g2 aligned" style="--gs:2" d="M225,452 Q237,494 229.75,514.25 Q186.25,635.75 179,656"/><path class="g2 offset" style="--gs:2" d="M345,452 Q357,494 349.75,514.25 Q306.25,635.75 299,656"/><text class="g3" style="--gs:3" x="254" y="498">③</text><path class="g3 aligned" style="--gs:3" d="M254,498 Q773,446 791,456 Q809,466 823.5,490 Q838,514 780,541 Q780,541 722,568"/><path class="g3 offset" style="--gs:3" d="M254,594 Q627.25,542 640.2,552 Q653.14,562 663.57,586 Q674,610 632.29,637 Q632.29,637 590.58,664"/></g>
<g class="parts"><rect data-part="2" data-literal="冖" role="button" tabindex="0" aria-label="Part 冖" x="107" y="374" width="803" height="354"/><rect data-part="1" data-literal="丶" role="button" tabindex="0" aria-label="Part 丶" x="347" y="212" width="279" height="260"/></g>
</svg>
