<!--
  Stroke-order data for 安, derived from AnimCJK (https://github.com/parsimonhi/animCJK),
  itself derived from the Arphic PL KaitiM fonts. Distributed under the Arphic Public License
  (see ARPHICPL.TXT). Regenerated by scripts/build-strokes.ts — do not edit by hand.
-->
<svg id="z23433" class="acjk" viewBox="0 0 1024 1024" xmlns="http://www.w3.org/2000/svg">
<g class="glyph"><path id="z23433d1" d="M465 99C496 134 523 159 548 167C558 170 567 165 574 155C579 146 580 135 578 122C574 103 564 90 550 82C510 57 479 49 458 53C454 53 451 53 449 55C444 56 442 60 445 70C446 78 454 87 465 99Z"/><path id="z23433d2" d="M301 266C292 249 283 238 276 233C261 223 252 227 254 246C255 270 247 300 218 332C195 356 194 386 219 429C229 447 242 446 256 426C266 410 274 390 281 367C288 340 294 318 301 302C305 291 306 277 301 266Z"/><path id="z23433d3" d="M301 302C311 304 323 305 334 302C407 277 541 255 659 237C688 232 709 228 717 233C725 238 723 245 722 249C694 317 669 357 673 363C676 368 688 363 700 355C744 325 784 305 821 295C851 285 865 276 864 270C863 263 837 242 787 205C768 191 729 194 666 206C630 212 535 226 383 253C355 258 327 262 301 266C289 268 289 300 301 302Z"/><path id="z23433d4" d="M532 755C582 786 644 837 718 904C738 922 754 930 768 931C784 931 794 924 795 908C796 892 784 865 765 828C755 809 740 796 718 785C659 756 608 729 563 709C530 694 530 694 513 687C480 672 453 660 429 654C410 648 407 638 417 620C426 601 431 583 439 568C452 541 452 541 458 527C484 470 499 429 514 411C519 404 523 398 521 391C517 380 498 364 469 343C460 336 451 334 443 337C433 339 430 347 437 360C448 384 441 443 404 533C392 562 392 562 386 576C378 594 368 609 360 623C351 636 349 649 352 659C354 667 361 671 375 675C409 684 445 702 483 725C516 745 516 745 532 755Z"/><path id="z23433d5" d="M483 725C426 786 347 822 224 862C210 866 213 873 228 874C364 877 470 823 532 755C541 744 555 721 563 709C578 682 611 605 619 580C623 566 628 555 632 546C638 531 651 517 650 501C647 478 591 459 567 466C558 468 555 475 560 486C563 493 567 501 568 512C569 522 570 537 568 553C566 565 561 581 557 596C547 625 525 667 513 687C504 700 494 713 483 725Z"/><path id="z23433d6" d="M632 546C721 536 820 528 932 538C946 539 956 538 961 532C966 523 964 514 956 507C936 488 911 473 882 461C872 456 859 459 842 464C822 469 759 486 650 501C595 508 595 508 568 512C517 518 481 524 458 527C422 531 422 531 404 533C229 552 121 566 81 568C72 568 66 571 66 580C65 588 72 596 85 606C95 614 111 622 133 630C139 632 149 630 162 625C174 619 341 582 386 576C421 571 421 571 439 568C459 565 502 560 568 553C611 548 611 548 632 546Z"/></g>
<defs><clipPath id="z23433c1"><use href="#z23433d1"/></clipPath>
	<clipPath id="z23433c2"><use href="#z23433d2"/></clipPath>
	<clipPath id="z23433c3"><use href="#z23433d3"/></clipPath>
	<clipPath id="z23433c4"><use href="#z23433d4"/></clipPath>
	<clipPath id="z23433c5"><use href="#z23433d5"/></clipPath>
	<clipPath id="z23433c6"><use href="#z23433d6"/></clipPath><marker id="guide-arrow" viewBox="0 0 16 16" refX="5" refY="5" markerWidth="4" markerHeight="4" orient="auto-start-reverse"><path d="M 0 0 L 10 5 L 0 10 z" fill="inherit"/></marker></defs>
<g class="strokes"><path pathLength="3333" clip-path="url(#z23433c1)" d="M451 61L570 154"/><path pathLength="3333" clip-path="url(#z23433c2)" d="M263 234L277 283L229 437"/><path pathLength="3333" clip-path="url(#z23433c3)" d="M294 286L726 215L769 233L809 271L678 358"/><path pathLength="3333" clip-path="url(#z23433c4)" d="M441 346L480 402L385 655L703 828L778 927"/><path pathLength="3333" clip-path="url(#z23433c5)" d="M565 475L608 518L503 745L389 823L223 869"/><path pathLength="3333" clip-path="url(#z23433c6)" d="M71 577L141 596L869 496L960 522"/></g>
<g class="guides"><text class="g1" style="--gs:1" x="451" y="61">①</text><path class="g1 aligned" style="--gs:1" d="M451,61 L570,154"/><path class="g1 offset" style="--gs:1" d="M536.68,-7.54 L655.68,85.46"/><text class="g2" style="--gs:2" x="263" y="234">②</text><path class="g2 aligned" style="--gs:2" d="M263,234 Q277,283 271,302.25 Q235,417.75 229,437"/><path class="g2 offset" style="--gs:2" d="M383,234 Q397,283 391,302.25 Q355,417.75 349,437"/><text class="g3" style="--gs:3" x="294" y="286">③</text><path class="g3 aligned" style="--gs:3" d="M294,286 Q726,215 747.5,224 Q769,233 789,252 Q809,271 743.5,314.5 Q743.5,314.5 678,358"/><path class="g3 offset" style="--gs:3" d="M294,382 Q575.85,311 589.88,320 Q603.9,329 616.95,348 Q630,367 587.27,410.5 Q587.27,410.5 544.53,454"/><text class="g4" style="--gs:4" x="441" y="346">④</text><path class="g4 aligned" style="--gs:4" d="M441,346 Q480,402 432.5,528.5 Q385,655 544,741.5 Q703,828 740.5,877.5 Q740.5,877.5 778,927"/><path class="g4 offset" style="--gs:4" d="M526.68,277.46 Q565.68,333.46 518.18,459.96 Q470.68,586.46 629.68,672.96 Q788.68,759.46 826.18,808.96 Q826.18,808.96 863.68,858.46"/><text class="g5" style="--gs:5" x="565" y="475">⑤</text><path class="g5 aligned" style="--gs:5" d="M565,475 Q608,518 555.5,631.5 Q503,745 446,784 Q389,823 306,846 Q306,846 223,869"/><path class="g5 offset" style="--gs:5" d="M469,475 Q501.28,507.52 461.87,593.37 Q422.46,679.21 379.67,708.71 Q336.89,738.21 274.58,755.6 Q274.58,755.6 212.28,773"/><text class="g6" style="--gs:6" x="71" y="577">⑥</text><path class="g6 aligned" style="--gs:6" d="M71,577 Q141,596 323,571 Q869,496 891.75,502.5 Q937.25,515.5 960,522"/><path class="g6 offset" style="--gs:6" d="M71,673 Q141,692 323,667 Q869,592 891.75,598.5 Q937.25,611.5 960,618"/></g>
</svg>
