<!--
  Stroke-order data for 宋, derived from AnimCJK (https://github.com/parsimonhi/animCJK),
  itself derived from the Arphic PL KaitiM fonts. Distributed under the Arphic Public License
  (see ARPHICPL.TXT). Regenerated by scripts/build-strokes.ts — do not edit by hand.
-->
<svg id="z23435" class="acjk" viewBox="0 0 1024 1024" xmlns="http://www.w3.org/2000/svg">
<g class="glyph"><path id="z23435d1" d="M467 136Q489 157 513 182Q529 195 546 195Q559 195 564 179Q570 163 559 129Q553 110 523 98Q451 71 436 81Q430 85 432 100Q436 113 467 136Z"/><path id="z23435d2" d="M301 265Q289 241 278 232Q259 219 257 244Q261 275 217 331Q180 367 207 429Q222 456 242 428Q258 403 272 366Q287 320 299 294C303 285 305 274 301 265Z"/><path id="z23435d3" d="M299 294Q326 310 353 303Q500 257 682 241Q713 237 725 240Q741 247 740 254Q740 257 695 334Q688 347 693 352Q700 356 717 346Q777 309 826 298Q866 288 865 278Q864 268 795 211Q768 190 696 206Q555 225 398 252Q349 259 301 265C291 267 290 290 299 294Z"/><path id="z23435d4" d="M538 515Q559 509 728 487Q738 488 749 476Q750 463 726 452Q692 431 598 457Q568 464 540 472C505 479 505 479 487 483Q435 492 388 498Q339 502 285 510Q254 514 278 532Q311 560 342 552Q394 540 455 530C510 520 510 520 538 515Z"/><path id="z23435d5" d="M540 472Q541 426 552 393Q559 378 557 366Q551 357 500 327Q479 311 460 326Q456 330 461 344Q483 377 485 411Q486 445 487 483C488 544 488 544 488 574Q488 751 474 813Q456 843 486 912Q493 928 500 931Q506 937 512 930Q519 926 528 906Q537 884 536 855Q535 824 537 552C538 527 538 527 538 515C539 486 539 486 540 472Z"/><path id="z23435d6" d="M455 530Q407 657 178 812Q162 825 177 826Q187 827 226 812Q281 791 331 752Q374 718 425 661Q465 615 488 574C513 533 473 486 455 530Z"/><path id="z23435d7" d="M537 552Q619 670 726 798Q745 819 777 817Q886 813 921 807Q931 804 932 799Q933 793 918 786Q782 734 727 693Q643 623 544 521Q541 517 538 515C529 506 530 542 537 552Z"/></g>
<defs><clipPath id="z23435c1"><use href="#z23435d1"/></clipPath>
	<clipPath id="z23435c2"><use href="#z23435d2"/></clipPath>
	<clipPath id="z23435c3"><use href="#z23435d3"/></clipPath>
	<clipPath id="z23435c4"><use href="#z23435d4"/></clipPath>
	<clipPath id="z23435c5"><use href="#z23435d5"/></clipPath>
	<clipPath id="z23435c6"><use href="#z23435d6"/></clipPath>
	<clipPath id="z23435c7"><use href="#z23435d7"/></clipPath><marker id="guide-arrow" viewBox="0 0 16 16" refX="5" refY="5" markerWidth="4" markerHeight="4" orient="auto-start-reverse"><path d="M 0 0 L 10 5 L 0 10 z" fill="inherit"/></marker></defs>
<g class="strokes"><path pathLength="3333" clip-path="url(#z23435c1)" d="M436 92L518 135L552 188"/><path pathLength="3333" clip-path="url(#z23435c2)" d="M267 236L275 285L222 436"/><path pathLength="3333" clip-path="url(#z23435c3)" d="M304 288L738 220L807 281L697 345"/><path pathLength="3333" clip-path="url(#z23435c4)" d="M277 519L332 529L744 470"/><path pathLength="3333" clip-path="url(#z23435c5)" d="M465 330L520 387L507 928"/><path pathLength="3333" clip-path="url(#z23435c6)" d="M481 533L340 716L179 821"/><path pathLength="3333" clip-path="url(#z23435c7)" d="M540 522L759 767L925 794"/></g>
<g class="guides"><text class="g1" style="--gs:1" x="436" y="92">①</text><path class="g1 aligned" style="--gs:1" d="M436,92 Q518,135 522.25,141.63 Q547.75,181.38 552,188"/><path class="g1 offset" style="--gs:1" d="M521.68,23.46 Q603.68,66.46 607.93,73.08 Q633.43,112.83 637.68,119.46"/><text class="g2" style="--gs:2" x="267" y="236">②</text><path class="g2 aligned" style="--gs:2" d="M267,236 Q275,285 268.38,303.88 Q228.63,417.13 222,436"/><path class="g2 offset" style="--gs:2" d="M387,236 Q395,285 388.38,303.88 Q348.63,417.13 342,436"/><text class="g3" style="--gs:3" x="304" y="288">③</text><path class="g3 aligned" style="--gs:3" d="M304,288 Q738,220 755.25,235.25 Q807,281 779.5,297 Q724.5,329 697,345"/><path class="g3 offset" style="--gs:3" d="M304,384 Q601.67,316 613.51,331.25 Q649,377 630.14,393 Q592.41,425 573.55,441"/><text class="g4" style="--gs:4" x="277" y="519">④</text><path class="g4 aligned" style="--gs:4" d="M277,519 Q332,529 383.5,521.63 Q692.5,477.38 744,470"/><path class="g4 offset" style="--gs:4" d="M277,615 Q332,625 383.5,617.63 Q692.5,573.38 744,566"/><text class="g5" style="--gs:5" x="465" y="330">⑤</text><path class="g5 aligned" style="--gs:5" d="M465,330 Q520,387 518.38,454.63 Q508.63,860.38 507,928"/><path class="g5 offset" style="--gs:5" d="M369,330 Q424,387 422.38,454.63 Q412.63,860.38 411,928"/><text class="g6" style="--gs:6" x="481" y="533">⑥</text><path class="g6 aligned" style="--gs:6" d="M481,533 Q340,716 319.88,729.13 Q199.13,807.88 179,821"/><path class="g6 offset" style="--gs:6" d="M566.68,601.54 Q425.68,784.54 405.56,797.67 Q284.81,876.42 264.68,889.54"/><text class="g7" style="--gs:7" x="540" y="522">⑦</text><path class="g7 aligned" style="--gs:7" d="M540,522 Q759,767 779.75,770.38 Q904.25,790.63 925,794"/><path class="g7 offset" style="--gs:7" d="M625.68,453.46 Q795.94,673.73 812.07,676.76 Q908.87,694.97 925,698"/></g>
</svg>
