<!--
  Stroke-order data for 実, derived from AnimCJK (https://github.com/parsimonhi/animCJK),
  itself derived from the Arphic PL KaitiM fonts. Distributed under the Arphic Public License
  (see ARPHICPL.TXT). Regenerated by scripts/build-strokes.ts — do not edit by hand.
-->
<svg id="z23455" class="acjk" viewBox="0 0 1024 1024" xmlns="http://www.w3.org/2000/svg">
<g class="glyph"><path style="--part:1" id="z23455d1" d="M446 94C481 132 508 161 537 172C547 176 559 170 566 159C571 148 572 135 570 123C566 103 555 89 541 79C509 56 480 47 456 46C445 45 436 43 430 46C425 47 423 51 425 63C425 70 433 79 446 94Z"/><path style="--part:1" id="z23455d2" d="M268 268C267 255 247 234 239 229C225 220 216 225 218 243C220 267 214 294 191 324C160 363 155 401 179 441C190 459 202 459 216 438C227 419 236 397 243 371C250 343 256 320 264 303C268 292 270 280 268 268Z"/><path style="--part:1" id="z23455d3" d="M264 303C280 309 297 308 318 303C406 278 511 251 650 234C680 230 701 224 713 230C721 234 721 243 721 247C720 248 710 275 690 327C685 337 684 344 689 347C694 350 703 346 716 338C756 310 794 295 827 286C854 278 868 270 868 264C868 257 839 235 786 197C767 184 726 187 659 200C588 213 488 229 360 253C329 258 298 262 268 268C256 270 253 299 264 303Z"/><path style="--part:2" id="z23455d4" d="M519 439C553 432 590 428 627 423C662 417 682 410 687 407C693 402 695 397 692 392C687 384 674 377 654 372C634 367 613 369 591 375C570 380 547 389 526 393C484 401 484 401 463 405C424 412 361 416 309 421C284 423 279 431 298 442C342 467 394 461 463 449C500 442 500 442 519 439Z"/><path style="--part:2" id="z23455d5" d="M506 539C538 534 585 526 621 521C654 515 673 508 678 505C684 500 686 495 683 490C678 482 666 474 647 470C627 464 607 467 586 473C566 478 533 489 513 493C476 500 476 500 458 503C412 511 367 514 317 519C293 521 289 528 307 540C328 555 391 555 451 547C488 542 488 542 506 539Z"/><path style="--part:2" id="z23455d6" d="M483 633C488 632 491 632 499 632C525 630 525 630 538 629C600 624 698 624 809 624C823 623 831 621 835 615C839 607 835 597 824 589C788 559 757 550 731 556C674 568 591 582 494 595C457 600 457 600 438 602C357 612 277 621 185 631C170 632 167 637 179 651C188 660 199 667 212 671C225 675 239 675 251 673C309 658 362 648 427 640C464 635 464 635 483 633Z"/><path style="--part:2" id="z23455d7" d="M427 640C417 673 379 757 292 819C266 836 235 857 198 881C181 891 184 894 205 894C217 894 236 889 264 879C297 866 328 845 358 825C423 780 461 706 483 633C490 608 490 608 494 595C497 581 504 551 506 539C511 508 511 508 513 493C514 483 517 450 519 439C524 408 524 408 526 393C527 383 528 373 538 354C541 348 543 342 539 336C535 329 521 321 503 313C479 303 463 300 454 304C445 307 447 315 452 329C462 359 463 372 463 405C463 434 463 434 463 449C463 459 459 491 458 503C453 532 453 532 451 547C449 559 440 592 438 602C431 627 431 627 427 640Z"/><path style="--part:2" id="z23455d8" d="M499 632C548 710 605 790 669 874C681 888 698 896 720 897C792 897 840 896 864 894C870 893 874 891 876 887C876 883 872 878 863 873C757 827 680 779 634 729C603 698 571 665 538 629C529 620 491 622 499 632Z"/></g>
<defs><clipPath id="z23455c1"><use href="#z23455d1"/></clipPath>
	<clipPath id="z23455c2"><use href="#z23455d2"/></clipPath>
	<clipPath id="z23455c3"><use href="#z23455d3"/></clipPath>
	<clipPath id="z23455c4"><use href="#z23455d4"/></clipPath>
	<clipPath id="z23455c5"><use href="#z23455d5"/></clipPath>
	<clipPath id="z23455c6"><use href="#z23455d6"/></clipPath>
	<clipPath id="z23455c7"><use href="#z23455d7"/></clipPath>
	<clipPath id="z23455c8"><use href="#z23455d8"/></clipPath><marker id="guide-arrow" viewBox="0 0 16 16" refX="5" refY="5" markerWidth="4" markerHeight="4" orient="auto-start-reverse"><path d="M 0 0 L 10 5 L 0 10 z" fill="inherit"/></marker></defs>
<g class="strokes"><path style="--part:1" pathLength="3333" clip-path="url(#z23455c1)" d="M430 54L565 155"/><path style="--part:1" pathLength="3333" clip-path="url(#z23455c2)" d="M226 233L240 286L195 449"/><path style="--part:1" pathLength="3333" clip-path="url(#z23455c3)" d="M269 297L738 212L814 272L694 342"/><path style="--part:2" pathLength="3333" clip-path="url(#z23455c4)" d="M296 432L689 395"/><path style="--part:2" pathLength="3333" clip-path="url(#z23455c5)" d="M307 529L680 493"/><path style="--part:2" pathLength="3333" clip-path="url(#z23455c6)" d="M179 641L235 650L738 589L831 601"/><path style="--part:2" pathLength="3333" clip-path="url(#z23455c7)" d="M454 314L500 357L477 550L438 674L341 812L196 890"/><path style="--part:2" pathLength="3333" clip-path="url(#z23455c8)" d="M512 636L704 844L870 884"/></g>
<g class="guides"><text class="g1" style="--gs:1" x="430" y="54">①</text><path class="g1 aligned" style="--gs:1" d="M430,54 L565,155"/><path class="g1 offset" style="--gs:1" d="M515.68,-14.54 L650.68,86.46"/><text class="g2" style="--gs:2" x="226" y="233">②</text><path class="g2 aligned" style="--gs:2" d="M226,233 Q240,286 234.38,306.38 Q200.63,428.63 195,449"/><path class="g2 offset" style="--gs:2" d="M346,233 Q360,286 354.38,306.38 Q320.63,428.63 315,449"/><text class="g3" style="--gs:3" x="269" y="297">③</text><path class="g3 aligned" style="--gs:3" d="M269,297 Q738,212 757,227 Q814,272 784,289.5 Q724,324.5 694,342"/><path class="g3 offset" style="--gs:3" d="M269,393 Q593.43,308 606.57,323 Q646,368 625.25,385.5 Q583.74,420.5 562.99,438"/><text class="g4" style="--gs:4" x="296" y="432">④</text><path class="g4 aligned" style="--gs:4" d="M296,432 L689,395"/><path class="g4 offset" style="--gs:4" d="M296,528 L689,491"/><text class="g5" style="--gs:5" x="307" y="529">⑤</text><path class="g5 aligned" style="--gs:5" d="M307,529 L680,493"/><path class="g5 offset" style="--gs:5" d="M307,625 L680,589"/><text class="g6" style="--gs:6" x="179" y="641">⑥</text><path class="g6 aligned" style="--gs:6" d="M179,641 Q235,650 360.75,634.75 Q738,589 761.25,592 Q807.75,598 831,601"/><path class="g6 offset" style="--gs:6" d="M179,737 Q235,746 360.75,730.75 Q738,685 761.25,688 Q807.75,694 831,697"/><text class="g7" style="--gs:7" x="454" y="314">⑦</text><path class="g7 aligned" style="--gs:7" d="M454,314 Q500,357 488.5,453.5 Q477,550 457.5,612 Q438,674 389.5,743 Q341,812 268.5,851 Q268.5,851 196,890"/><path class="g7 offset" style="--gs:7" d="M358,314 Q389.47,349.83 381.61,430.25 Q373.74,510.67 360.39,562.33 Q347.05,614 313.87,671.5 Q280.68,729 231.08,761.5 Q231.08,761.5 181.47,794"/><text class="g8" style="--gs:8" x="512" y="636">⑧</text><path class="g8 aligned" style="--gs:8" d="M512,636 Q704,844 724.75,849 Q849.25,879 870,884"/><path class="g8 offset" style="--gs:8" d="M597.68,567.46 Q743.73,752.43 759.51,756.87 Q854.22,783.55 870,788"/></g>
<g class="parts"><rect data-part="2" data-literal="𡗗" role="button" tabindex="0" aria-label="Part 𡗗" x="107" y="242" width="835" height="720"/><rect data-part="1" data-literal="宀" data-radical="true" role="button" tabindex="0" aria-label="Part 宀 (radical)" x="123" y="0" width="763" height="521"/></g>
</svg>
