<!--
  Stroke-order data for 宵, derived from AnimCJK (https://github.com/parsimonhi/animCJK),
  itself derived from the Arphic PL KaitiM fonts. Distributed under the Arphic Public License
  (see ARPHICPL.TXT). Regenerated by scripts/build-strokes.ts — do not edit by hand.
-->
<svg id="z23477" class="acjk" viewBox="0 0 1024 1024" xmlns="http://www.w3.org/2000/svg">
<g class="glyph"><path id="z23477d1" d="M477 91Q496 109 517 130Q532 143 548 142Q560 142 565 128Q569 112 559 81Q553 65 527 54Q460 36 448 41Q442 45 445 59Q449 69 477 91Z"/><path id="z23477d2" d="M262 213Q252 192 241 184Q222 169 219 196Q225 226 186 277Q153 313 155 334Q161 367 171 385Q187 413 207 384Q214 372 264 247Q265 244 266 242C270 233 266 222 262 213Z"/><path id="z23477d3" d="M266 242Q291 257 332 249Q464 209 693 188Q769 181 770 201Q770 207 735 267Q728 279 733 284Q740 288 756 278Q811 250 855 242Q891 235 890 226Q890 216 821 158Q799 137 727 150Q598 163 379 199Q324 206 268 212Q264 212 262 213C252 215 257 238 266 242Z"/><path id="z23477d4" d="M516 476Q528 326 544 290Q547 281 530 268Q500 252 480 248Q467 245 460 252Q453 259 460 271Q473 290 474 303Q481 388 479 485C479 498 516 489 516 476Z"/><path id="z23477d5" d="M322 372Q344 391 366 416Q378 426 391 427Q401 427 405 415Q409 402 403 377Q399 361 373 348Q315 324 300 329Q296 333 296 344Q300 354 322 372Z"/><path id="z23477d6" d="M644 304Q635 317 568 384Q558 397 572 396Q596 387 676 347Q694 335 716 329Q735 322 728 306Q718 290 697 275Q678 260 667 262Q655 262 658 274Q659 290 644 304Z"/><path id="z23477d7" d="M368 719Q369 673 374 638C375 621 375 621 376 613Q379 550 385 525C387 515 383 502 376 495Q352 471 322 474Q309 478 313 490Q358 590 306 792Q282 846 286 860Q287 890 303 910Q310 923 320 918Q356 897 365 776Q366 757 367 741C368 726 368 726 368 719Z"/><path id="z23477d8" d="M385 525Q403 525 588 490Q610 486 615 497Q634 549 635 789Q635 843 626 858Q622 864 601 860Q570 851 536 842Q515 835 516 845Q580 900 617 940Q630 959 647 965Q657 969 666 958Q708 910 707 850Q671 559 697 508Q710 487 697 477Q675 458 636 441Q617 434 600 442Q549 467 516 476C491 482 491 482 479 485Q437 491 376 495C366 495 375 525 385 525Z"/><path id="z23477d9" d="M374 638Q383 639 395 638Q489 623 559 615Q581 611 573 599Q563 586 539 580Q515 577 376 613C368 614 366 638 374 638Z"/><path id="z23477d10" d="M367 741Q376 745 393 743Q495 730 570 722Q592 721 585 707Q575 694 552 688Q521 682 368 719C361 720 360 738 367 741Z"/></g>
<defs><clipPath id="z23477c1"><use href="#z23477d1"/></clipPath>
	<clipPath id="z23477c2"><use href="#z23477d2"/></clipPath>
	<clipPath id="z23477c3"><use href="#z23477d3"/></clipPath>
	<clipPath id="z23477c4"><use href="#z23477d4"/></clipPath>
	<clipPath id="z23477c5"><use href="#z23477d5"/></clipPath>
	<clipPath id="z23477c6"><use href="#z23477d6"/></clipPath>
	<clipPath id="z23477c7"><use href="#z23477d7"/></clipPath>
	<clipPath id="z23477c8"><use href="#z23477d8"/></clipPath>
	<clipPath id="z23477c9"><use href="#z23477d9"/></clipPath>
	<clipPath id="z23477c10"><use href="#z23477d10"/></clipPath><marker id="guide-arrow" viewBox="0 0 16 16" refX="5" refY="5" markerWidth="4" markerHeight="4" orient="auto-start-reverse"><path d="M 0 0 L 10 5 L 0 10 z" fill="inherit"/></marker></defs>
<g class="strokes"><path pathLength="3333" clip-path="url(#z23477c1)" d="M451 47L556 134"/><path pathLength="3333" clip-path="url(#z23477c2)" d="M228 185L241 234L192 328L185 392"/><path pathLength="3333" clip-path="url(#z23477c3)" d="M269 219L326 228L768 167L812 196L836 235L741 278"/><path pathLength="3333" clip-path="url(#z23477c4)" d="M463 257L508 292L493 481"/><path pathLength="3333" clip-path="url(#z23477c5)" d="M302 339L399 417"/><path pathLength="3333" clip-path="url(#z23477c6)" d="M666 269L688 310L572 390"/><path pathLength="3333" clip-path="url(#z23477c7)" d="M319 482L348 505L356 572L314 912"/><path pathLength="3333" clip-path="url(#z23477c8)" d="M385 499L610 463L662 503L665 873L633 915L527 845"/><path pathLength="3333" clip-path="url(#z23477c9)" d="M382 631L567 603"/><path pathLength="3333" clip-path="url(#z23477c10)" d="M375 735L578 711"/></g>
<g class="guides"><text class="g1" style="--gs:1" x="451" y="47">①</text><path class="g1 aligned" style="--gs:1" d="M451,47 L556,134"/><path class="g1 offset" style="--gs:1" d="M536.68,-21.54 L641.68,65.46"/><text class="g2" style="--gs:2" x="228" y="185">②</text><path class="g2 aligned" style="--gs:2" d="M228,185 Q241,234 228.75,257.5 Q192,328 190.25,344 Q186.75,376 185,392"/><path class="g2 offset" style="--gs:2" d="M348,185 Q361,234 348.75,257.5 Q312,328 310.25,344 Q306.75,376 305,392"/><text class="g3" style="--gs:3" x="269" y="219">③</text><path class="g3 aligned" style="--gs:3" d="M269,219 Q326,228 547,197.5 Q768,167 790,181.5 Q812,196 824,215.5 Q836,235 788.5,256.5 Q788.5,256.5 741,278"/><path class="g3 offset" style="--gs:3" d="M269,315 Q311.62,324 476.89,293.5 Q642.15,263 658.6,277.5 Q675.05,292 684.03,311.5 Q693,331 657.48,352.5 Q657.48,352.5 621.96,374"/><text class="g4" style="--gs:4" x="463" y="257">④</text><path class="g4 aligned" style="--gs:4" d="M463,257 Q508,292 506.13,315.63 Q494.88,457.38 493,481"/><path class="g4 offset" style="--gs:4" d="M367,257 Q412,292 410.13,315.63 Q398.88,457.38 397,481"/><text class="g5" style="--gs:5" x="302" y="339">⑤</text><path class="g5 aligned" style="--gs:5" d="M302,339 L399,417"/><path class="g5 offset" style="--gs:5" d="M387.68,270.46 L484.68,348.46"/><text class="g6" style="--gs:6" x="666" y="269">⑥</text><path class="g6 aligned" style="--gs:6" d="M666,269 Q688,310 673.5,320 Q586.5,380 572,390"/><path class="g6 offset" style="--gs:6" d="M570,269 Q581,289.5 573.75,294.5 Q530.25,324.5 523,329.5"/><text class="g7" style="--gs:7" x="319" y="482">⑦</text><path class="g7 aligned" style="--gs:7" d="M334,494 Q356,572 350.75,614.5 Q319.25,869.5 314,912"/><path class="g7 offset" style="--gs:7" d="M454,494 Q476,572 470.75,614.5 Q439.25,869.5 434,912"/><text class="g8" style="--gs:8" x="385" y="499">⑧</text><path class="g8 aligned" style="--gs:8" d="M385,499 Q610,463 636,483 Q662,503 663.5,688 Q665,873 649,894 Q633,915 580,880 Q580,880 527,845"/><path class="g8 offset" style="--gs:8" d="M385,595 Q532.86,559 549.94,569.53 Q567.03,580.06 568.01,677.47 Q569,774.88 558.49,785.94 Q547.97,797 513.14,778.57 Q513.14,778.57 478.31,760.14"/><text class="g9" style="--gs:9" x="382" y="631">⑨</text><path class="g9 aligned" style="--gs:9" d="M382,631 L567,603"/><path class="g9 offset" style="--gs:9" d="M382,727 L567,699"/><text class="g10" style="--gs:10" x="375" y="735">⑩</text><path class="g10 aligned" style="--gs:10" d="M375,735 L578,711"/><path class="g10 offset" style="--gs:10" d="M375,831 L578,807"/></g>
</svg>
