<svg id="z23493" class="acjk" viewBox="0 0 1024 1024" xmlns="http://www.w3.org/2000/svg">
<style>

@keyframes zk {
	to {
		stroke-dashoffset:0;
	}
}
svg.acjk path[clip-path] {
	--t:0.8s;
	animation:zk var(--t) linear forwards var(--d);
	stroke-dasharray:3337;
	stroke-dashoffset:3339;
	stroke-width:128;
	stroke-linecap:round;
	fill:none;
	stroke:#000;
}
svg.acjk path[id] {fill:#ccc;}


    @keyframes guide-fade {
        0% { opacity: 0; }
        3% { opacity: 1; }
        95% { opacity: 1; }
        100% { opacity: 0; }
    }

    svg.acjk #guide-arrow {
        fill: #f77;
    }

    svg.acjk .guides {
        circle {
            fill: #0f6;
        }

        path {
            opacity: 0;
            animation: guide-fade var(--t) linear forwards var(--d);
            stroke-width: 16px;
            stroke-linecap: round;
            stroke: #f77;
            fill: none;
            marker-end: url(#guide-arrow);
        }

        circle,
        path {
            --t: 0.8s;
            opacity: 0;
            animation: guide-fade calc(var(--t) + 0.4s) ease-in-out forwards calc(var(--d) - 0.2s);
        }
    }
</style>
<path id="z23493d1" d="M472 93Q499 114 527 140Q543 153 560 152Q572 151 576 136Q580 120 569 87Q557 57 464 40Q446 37 440 41Q434 45 437 59Q441 72 472 93Z"/>
<path id="z23493d2" d="M265 236Q252 209 239 200Q218 184 216 212Q222 245 184 290Q136 336 165 400Q165 401 167 405Q183 435 206 404Q224 379 236 341Q251 296 264 267C268 258 269 246 265 237C265 236 265 236 265 236Z"/>
<path id="z23493d3" d="M264 267Q286 282 326 273Q473 227 702 209Q739 205 753 208Q771 220 768 228Q769 232 764 245Q734 314 741 319Q748 323 765 311Q819 272 863 259Q900 247 899 238Q898 228 824 176Q800 160 728 172Q511 202 376 223Q319 232 265 237C255 239 256 261 264 267Z"/>
<path id="z23493d4" d="M491 354Q635 321 639 319Q648 312 643 303Q636 293 608 285Q587 281 499 307Q423 322 377 328Q341 334 367 350Q403 371 460 361C481 356 481 356 491 354Z"/>
<path id="z23493d5" d="M296 464Q283 458 269 456Q262 455 258 459Q251 466 261 475Q298 524 316 647Q325 713 363 730Q378 731 378 710C377 691 377 691 376 681Q372 660 364 638Q343 524 341 500C337 481 314 471 296 464Z"/>
<path id="z23493d6" d="M478 434Q450 438 423 444Q344 460 296 464C277 464 323 507 341 500Q366 487 478 471C511 466 511 466 528 463Q645 442 667 455Q677 462 672 497Q647 629 635 655C631 664 629 674 631 683Q631 687 633 691Q639 709 652 707Q667 706 675 690Q690 671 715 576Q733 519 772 487Q793 471 775 453Q756 434 702 406Q684 396 610 413Q603 413 530 425C495 431 495 431 478 434Z"/>
<path id="z23493d7" d="M530 425Q534 389 529 383Q510 364 491 354C482 349 456 351 460 361Q460 362 462 366Q477 405 478 434C478 459 478 459 478 471Q479 501 479 550C479 574 479 574 479 586Q479 620 479 664C479 678 521 670 521 656Q522 616 524 579C525 551 525 551 526 537Q526 497 528 463C529 438 529 438 530 425Z"/>
<path id="z23493d8" d="M524 579Q564 572 602 568Q626 564 617 552Q607 537 581 532Q560 528 526 537C495 546 495 546 479 550Q433 560 395 571Q379 575 399 590Q409 597 429 594Q454 590 479 586C509 581 509 581 524 579Z"/>
<path id="z23493d9" d="M378 710Q387 710 399 709Q532 691 631 683C640 683 644 659 635 655Q596 633 533 653Q526 653 521 656C493 661 493 661 479 664Q425 671 376 681C366 683 368 710 378 710Z"/>
<path id="z23493d10" d="M366 756Q345 838 221 904Q215 904 169 929Q156 941 172 942Q188 946 214 938Q296 917 356 871Q393 844 426 823Q439 816 432 796Q404 750 380 744Q370 743 366 756Z"/>
<path id="z23493d11" d="M594 783Q652 838 720 918Q738 942 755 947Q765 948 773 937Q788 922 775 873Q760 806 596 748Q586 741 583 756Q582 771 594 783Z"/>
<defs>
	<clipPath id="z23493c1"><use href="#z23493d1"/></clipPath>
	<clipPath id="z23493c2"><use href="#z23493d2"/></clipPath>
	<clipPath id="z23493c3"><use href="#z23493d3"/></clipPath>
	<clipPath id="z23493c4"><use href="#z23493d4"/></clipPath>
	<clipPath id="z23493c5"><use href="#z23493d5"/></clipPath>
	<clipPath id="z23493c6"><use href="#z23493d6"/></clipPath>
	<clipPath id="z23493c7"><use href="#z23493d7"/></clipPath>
	<clipPath id="z23493c8"><use href="#z23493d8"/></clipPath>
	<clipPath id="z23493c9"><use href="#z23493d9"/></clipPath>
	<clipPath id="z23493c10"><use href="#z23493d10"/></clipPath>
	<clipPath id="z23493c11"><use href="#z23493d11"/></clipPath>
<marker id="guide-arrow" viewBox="0 0 16 16" refX="5" refY="5" markerWidth="4" markerHeight="4" orient="auto-start-reverse"><path d="M 0 0 L 10 5 L 0 10 z" fill="inherit"/></marker></defs>
<path style="--d:1s;" pathLength="3333" clip-path="url(#z23493c1)" d="M444 47L538 102L567 146"/>
<path style="--d:2s;" pathLength="3333" clip-path="url(#z23493c2)" d="M228 198L236 259L192 347L185 415"/>
<path style="--d:3s;" pathLength="3333" clip-path="url(#z23493c3)" d="M272 245L768 189L803 205L844 247L751 316"/>
<path style="--d:4s;" pathLength="3333" clip-path="url(#z23493c4)" d="M363 336L639 306"/>
<path style="--d:5s;" pathLength="3333" clip-path="url(#z23493c5)" d="M264 464L313 512L365 726"/>
<path style="--d:6s;" pathLength="3333" clip-path="url(#z23493c6)" d="M308 467L352 477L639 428L706 445L729 474L645 701"/>
<path style="--d:7s;" pathLength="3333" clip-path="url(#z23493c7)" d="M468 368L503 403L489 661"/>
<path style="--d:8s;" pathLength="3333" clip-path="url(#z23493c8)" d="M396 575L614 555"/>
<path style="--d:9s;" pathLength="3333" clip-path="url(#z23493c9)" d="M382 703L631 665"/>
<path style="--d:10s;" pathLength="3333" clip-path="url(#z23493c10)" d="M379 748L381 815L284 891L168 935"/>
<path style="--d:11s;" pathLength="3333" clip-path="url(#z23493c11)" d="M590 756L716 852L770 938"/>
<g class="guides"><circle style="--d: 1s" class="g1" cx="444" cy="47" r="16"/><path style="--d: 1s;" class="g1" d="M529.68,-21.543999999999997 Q623.68,33.456 627.305,38.956 Q649.055,71.956 652.68,77.456"/><circle style="--d: 2s" class="g2" cx="228" cy="198" r="16"/><path style="--d: 2s;" class="g2" d="M348,198 Q356,259 345,281 Q312,347 310.25,364 Q306.75,398 305,415"/><circle style="--d: 3s" class="g3" cx="272" cy="245" r="16"/><path style="--d: 3s;" class="g3" d="M272,341 Q645.7342657342657,285 658.9204545454545,293 Q672.1066433566434,301 687.5533216783217,322 Q703,343 667.9624125874126,377.5 Q667.9624125874126,377.5 632.9248251748252,412"/><circle style="--d: 4s" class="g4" cx="363" cy="336" r="16"/><path style="--d: 4s;" class="g4" d="M363,432 L639,402"/><circle style="--d: 5s" class="g5" cx="264" cy="464" r="16"/><path style="--d: 5s;" class="g5" d="M349.68,395.456 Q398.68,443.456 405.18,470.206 Q444.18,630.706 450.68,657.456"/><circle style="--d: 6s" class="g6" cx="308" cy="467" r="16"/><path style="--d: 6s;" class="g6" d="M308,563 Q339.458432304038,555.7692307692307 442.05581947743474,539.8846153846154 Q544.6532066508314,524 568.604513064133,532.5 Q592.5558194774346,541 600.7779097387173,547.4120879120879 Q609,553.8241758241759 578.9714964370546,627.4120879120879 Q578.9714964370546,627.4120879120879 548.9429928741092,701"/><circle style="--d: 7s" class="g7" cx="468" cy="368" r="16"/><path style="--d: 7s;" class="g7" d="M372,368 Q407,403 405.25,435.25 Q394.75,628.75 393,661"/><circle style="--d: 8s" class="g8" cx="396" cy="575" r="16"/><path style="--d: 8s;" class="g8" d="M396,671 L614,651"/><circle style="--d: 9s" class="g9" cx="382" cy="703" r="16"/><path style="--d: 9s;" class="g9" d="M382,799 L631,761"/><circle style="--d: 10s" class="g10" cx="379" cy="748" r="16"/><path style="--d: 10s;" class="g10" d="M283,748 Q284,781.5 271.875,791 Q235.5,819.5 221,825 Q192,836 177.5,841.5"/><circle style="--d: 11s" class="g11" cx="590" cy="756" r="16"/><path style="--d: 11s;" class="g11" d="M675.68,687.456 Q801.68,783.456 808.43,794.206 Q848.93,858.706 855.68,869.456"/></g></svg>