<!--
  Stroke-order data for 寬, derived from AnimCJK (https://github.com/parsimonhi/animCJK),
  itself derived from the Arphic PL KaitiM fonts. Distributed under the Arphic Public License
  (see ARPHICPL.TXT). Regenerated by scripts/build-strokes.ts — do not edit by hand.
-->
<svg id="z23532" class="acjk" viewBox="0 0 1024 1024" xmlns="http://www.w3.org/2000/svg">
<g class="glyph"><path style="--part:1" id="z23532d1" d="M478 73Q500 89 526 110Q541 120 555 119Q565 118 569 104Q572 89 560 62Q548 37 469 28Q453 27 448 29Q444 33 446 45Q450 55 478 73Z"/><path style="--part:1" id="z23532d2" d="M266 177Q265 176 265 173Q253 149 242 141Q223 126 221 152Q227 191 169 258Q150 282 177 334Q196 356 210 332Q226 308 238 272Q251 232 261 208C264 198 268 187 266 177Z"/><path style="--part:1" id="z23532d3" d="M261 208C277 216 297 219 322 213C379 197 490 174 657 153C707 146 739 145 753 148C765 150 768 155 768 163C767 167 766 171 764 177C744 218 746 232 749 234C754 237 771 230 784 225C808 214 823 208 850 200C872 193 884 190 884 184C883 177 859 156 813 118C794 102 773 102 727 110C670 119 552 132 373 161C336 166 301 173 266 177C256 179 251 204 261 208Z"/><path style="--part:2" id="z23532d4" d="M616 308C661 302 733 296 786 299C796 299 804 297 807 291C810 284 809 275 797 266C767 243 740 242 699 250C683 253 650 260 637 264C600 273 600 273 581 277C515 292 457 302 420 307C388 311 388 311 372 313C320 319 283 322 243 327C224 328 222 338 243 352C260 363 280 363 301 362C323 360 356 351 381 347C409 342 409 342 423 339C488 326 518 320 570 314C601 310 601 310 616 308Z"/><path style="--part:2" id="z23532d5" d="M420 307C418 293 420 269 420 254C420 241 413 234 402 230C373 219 354 213 342 219C330 224 329 233 340 246C355 265 367 296 372 313C378 334 378 334 381 345C392 385 398 391 409 401C416 407 423 407 426 400C430 387 424 350 423 337C421 317 421 317 420 307Z"/><path style="--part:2" id="z23532d6" d="M637 264C642 253 649 247 659 238C668 228 669 220 664 214C654 202 639 191 619 180C607 172 598 172 587 178C580 181 579 185 584 195C590 211 593 234 581 277C574 302 574 302 570 314C566 326 561 346 565 365C566 372 572 376 581 368C597 351 606 327 616 308C630 279 630 279 637 264Z"/><path style="--part:2" id="z23532d7" d="M361 418Q354 411 334 402Q327 398 317 402Q311 406 316 416Q340 491 323 601Q314 610 322 653Q328 671 340 684Q349 694 357 684Q361 677 365 669C368 661 368 651 368 642Q368 636 369 586C369 570 369 570 369 562Q369 537 370 517C370 502 370 502 370 494Q371 457 372 452Q372 448 372 445C372 435 369 424 361 418Z"/><path style="--part:2" id="z23532d8" d="M603 641Q604 648 610 656Q622 683 630 682Q643 681 658 651Q670 632 671 595Q664 466 685 435Q695 420 688 411Q663 389 620 369Q605 365 584 372Q500 405 361 418C351 420 363 449 372 445Q417 430 565 407Q593 401 601 416Q611 429 610 471Q611 582 605 610C603 620 601 631 603 641Z"/><path style="--part:2" id="z23532d9" d="M370 517Q376 518 384 517Q469 502 532 493Q553 490 545 479Q535 466 513 462Q489 459 370 494C363 496 362 517 370 517Z"/><path style="--part:2" id="z23532d10" d="M369 586Q373 587 382 586Q475 573 543 565Q564 562 557 551Q547 538 525 533Q510 530 369 562C361 563 361 586 369 586Z"/><path style="--part:2" id="z23532d11" d="M541 648Q572 644 603 641C613 639 615 614 605 610Q604 609 600 608Q581 604 545 611Q451 629 368 642C359 643 356 669 365 669Q377 669 391 667C408 665 408 665 416 664Q459 657 501 653C528 650 528 650 541 648Z"/><path style="--part:2" id="z23532d12" d="M391 667Q390 668 390 674Q375 813 143 932Q134 938 140 941Q146 945 157 943Q287 921 388 803Q427 748 452 723Q461 716 457 706Q454 696 430 675Q423 668 416 664C409 660 393 659 391 667Z"/><path style="--part:2" id="z23532d13" d="M501 653Q501 657 504 663Q516 702 513 739Q507 842 516 871Q520 899 548 924Q639 999 840 966Q853 963 870 959Q919 944 966 911Q987 895 971 866Q956 841 934 763Q933 747 925 742Q918 739 915 757Q890 842 874 870Q858 889 809 901Q758 914 699 910Q647 909 607 891Q571 875 563 852Q545 815 569 691Q575 666 541 648C529 641 498 640 501 653Z"/><path style="--part:2" id="z23532d14" d="M655 750Q680 775 706 805Q716 817 730 818Q740 818 745 807Q751 795 745 769Q738 736 655 708Q642 704 636 705Q632 708 632 720Q633 730 655 750Z"/></g>
<defs><clipPath id="z23532c1"><use href="#z23532d1"/></clipPath>
	<clipPath id="z23532c2"><use href="#z23532d2"/></clipPath>
	<clipPath id="z23532c3"><use href="#z23532d3"/></clipPath>
	<clipPath id="z23532c4"><use href="#z23532d4"/></clipPath>
	<clipPath id="z23532c5"><use href="#z23532d5"/></clipPath>
	<clipPath id="z23532c6"><use href="#z23532d6"/></clipPath>
	<clipPath id="z23532c7"><use href="#z23532d7"/></clipPath>
	<clipPath id="z23532c8"><use href="#z23532d8"/></clipPath>
	<clipPath id="z23532c9"><use href="#z23532d9"/></clipPath>
	<clipPath id="z23532c10"><use href="#z23532d10"/></clipPath>
	<clipPath id="z23532c11"><use href="#z23532d11"/></clipPath>
	<clipPath id="z23532c12"><use href="#z23532d12"/></clipPath>
	<clipPath id="z23532c13"><use href="#z23532d13"/></clipPath>
	<clipPath id="z23532c14"><use href="#z23532d14"/></clipPath><marker id="guide-arrow" viewBox="0 0 16 16" refX="5" refY="5" markerWidth="4" markerHeight="4" orient="auto-start-reverse"><path d="M 0 0 L 10 5 L 0 10 z" fill="inherit"/></marker></defs>
<g class="strokes"><path style="--part:1" pathLength="3333" clip-path="url(#z23532c1)" d="M453 37L524 70L558 114"/><path style="--part:1" pathLength="3333" clip-path="url(#z23532c2)" d="M229 144L239 193L188 339"/><path style="--part:1" pathLength="3333" clip-path="url(#z23532c3)" d="M267 203L757 126L818 164L846 176L780 216"/><path style="--part:2" pathLength="3333" clip-path="url(#z23532c4)" d="M238 338L738 278L799 289"/><path style="--part:2" pathLength="3333" clip-path="url(#z23532c5)" d="M340 232L388 259L418 398"/><path style="--part:2" pathLength="3333" clip-path="url(#z23532c6)" d="M589 184L627 229L575 365"/><path style="--part:2" pathLength="3333" clip-path="url(#z23532c7)" d="M321 406L349 451L342 684"/><path style="--part:2" pathLength="3333" clip-path="url(#z23532c8)" d="M371 422L581 388L632 406L649 435L623 674"/><path style="--part:2" pathLength="3333" clip-path="url(#z23532c9)" d="M377 509L542 480"/><path style="--part:2" pathLength="3333" clip-path="url(#z23532c10)" d="M379 578L552 555"/><path style="--part:2" pathLength="3333" clip-path="url(#z23532c11)" d="M374 661L600 619"/><path style="--part:2" pathLength="3333" clip-path="url(#z23532c12)" d="M396 673L418 719L349 811L273 877L148 937"/><path style="--part:2" pathLength="3333" clip-path="url(#z23532c13)" d="M508 655L540 685L545 876L639 934L782 940L893 908L930 872L925 748"/><path style="--part:2" pathLength="3333" clip-path="url(#z23532c14)" d="M640 715L713 769L732 813"/></g>
<g class="guides"><text class="g1" style="--gs:1" x="453" y="37">①</text><path class="g1 aligned" style="--gs:1" d="M453,37 Q524,70 528.25,75.5 Q553.75,108.5 558,114"/><path class="g1 offset" style="--gs:1" d="M538.68,-31.54 Q609.68,1.46 613.93,6.96 Q639.43,39.96 643.68,45.46"/><text class="g2" style="--gs:2" x="229" y="144">②</text><path class="g2 aligned" style="--gs:2" d="M229,144 Q239,193 232.63,211.25 Q194.38,320.75 188,339"/><path class="g2 offset" style="--gs:2" d="M349,144 Q359,193 352.63,211.25 Q314.38,320.75 308,339"/><text class="g3" style="--gs:3" x="267" y="203">③</text><path class="g3 aligned" style="--gs:3" d="M267,203 Q757,126 787.5,145 Q818,164 832,170 Q846,176 813,196 Q813,196 780,216"/><path class="g3 offset" style="--gs:3" d="M267,299 Q660.52,222 685.02,241 Q709.51,260 720.76,266 Q732,272 705.5,292 Q705.5,292 678.99,312"/><text class="g4" style="--gs:4" x="238" y="338">④</text><path class="g4 aligned" style="--gs:4" d="M238,338 Q738,278 745.63,279.38 Q791.38,287.63 799,289"/><path class="g4 offset" style="--gs:4" d="M238,434 Q738,374 745.63,375.38 Q791.38,383.63 799,385"/><text class="g5" style="--gs:5" x="340" y="232">⑤</text><path class="g5 aligned" style="--gs:5" d="M340,232 Q388,259 391.75,276.38 Q414.25,380.63 418,398"/><path class="g5 offset" style="--gs:5" d="M340,328 Q364,341.5 365.88,350.19 Q377.13,402.31 379,411"/><text class="g6" style="--gs:6" x="589" y="184">⑥</text><path class="g6 aligned" style="--gs:6" d="M589,184 Q627,229 620.5,246 Q581.5,348 575,365"/><path class="g6 offset" style="--gs:6" d="M493,184 Q531,229 524.5,246 Q485.5,348 479,365"/><text class="g7" style="--gs:7" x="321" y="406">⑦</text><path class="g7 aligned" style="--gs:7" d="M321,406 Q349,451 348.13,480.13 Q342.88,654.88 342,684"/><path class="g7 offset" style="--gs:7" d="M225,406 Q253,451 252.13,480.13 Q246.88,654.88 246,684"/><text class="g8" style="--gs:8" x="371" y="422">⑧</text><path class="g8 aligned" style="--gs:8" d="M371,422 Q581,388 606.5,397 Q632,406 640.5,420.5 Q649,435 636,554.5 Q636,554.5 623,674"/><path class="g8 offset" style="--gs:8" d="M371,518 Q490.35,484 504.85,493 Q519.34,502 524.17,508.61 Q529,515.22 521.61,594.61 Q521.61,594.61 514.22,674"/><text class="g9" style="--gs:9" x="377" y="509">⑨</text><path class="g9 aligned" style="--gs:9" d="M377,509 L542,480"/><path class="g9 offset" style="--gs:9" d="M377,605 L542,576"/><text class="g10" style="--gs:10" x="379" y="578">⑩</text><path class="g10 aligned" style="--gs:10" d="M379,578 L552,555"/><path class="g10 offset" style="--gs:10" d="M379,674 L552,651"/><text class="g11" style="--gs:11" x="374" y="661">⑪</text><path class="g11 aligned" style="--gs:11" d="M374,661 L600,619"/><path class="g11 offset" style="--gs:11" d="M374,757 L600,715"/><text class="g12" style="--gs:12" x="396" y="673">⑫</text><path class="g12 aligned" style="--gs:12" d="M396,673 Q418,719 383.5,765 Q349,811 311,844 Q273,877 210.5,907 Q210.5,907 148,937"/><path class="g12 offset" style="--gs:12" d="M300,673 Q312.22,702.27 293.06,731.55 Q273.89,760.82 252.78,781.82 Q231.67,802.82 196.94,821.91 Q196.94,821.91 162.22,841"/><text class="g13" style="--gs:13" x="508" y="655">⑬</text><path class="g13 aligned" style="--gs:13" d="M508,655 Q540,685 542.5,780.5 Q545,876 592,905 Q639,934 710.5,937 Q782,940 837.5,924 Q893,908 911.5,890 Q930,872 927.5,810 Q927.5,810 925,748"/><path class="g13 offset" style="--gs:13" d="M576.54,586.46 Q596.07,616.46 597.59,711.96 Q599.12,807.46 627.79,836.46 Q656.47,865.46 700.09,868.46 Q743.71,871.46 777.57,855.46 Q811.43,839.46 822.71,821.46 Q834,803.46 832.47,741.46 Q832.47,741.46 830.95,679.46"/><text class="g14" style="--gs:14" x="640" y="715">⑭</text><path class="g14 aligned" style="--gs:14" d="M640,715 Q713,769 715.38,774.5 Q729.63,807.5 732,813"/><path class="g14 offset" style="--gs:14" d="M725.68,646.46 Q798.68,700.46 801.06,705.96 Q815.31,738.96 817.68,744.46"/></g>
<g class="parts"><rect data-part="2" data-literal="萈" role="button" tabindex="0" aria-label="Part 萈" x="76" y="112" width="926" height="900"/><rect data-part="1" data-literal="宀" data-radical="true" role="button" tabindex="0" aria-label="Part 宀 (radical)" x="116" y="0" width="802" height="411"/></g>
</svg>
