<svg id="z23532" class="acjk" viewBox="0 0 1024 1024" xmlns="http://www.w3.org/2000/svg">
<style>

@keyframes zk {
	to {
		stroke-dashoffset:0;
	}
}
svg.acjk path[clip-path] {
	--t:0.8s;
	animation:zk var(--t) linear forwards var(--d);
	stroke-dasharray:3337;
	stroke-dashoffset:3339;
	stroke-width:128;
	stroke-linecap:round;
	fill:none;
	stroke:#000;
}
svg.acjk path[id] {fill:#ccc;}


    @keyframes guide-fade {
        0% { opacity: 0; }
        3% { opacity: 1; }
        95% { opacity: 1; }
        100% { opacity: 0; }
    }

    svg.acjk #guide-arrow {
        fill: #f77;
    }

    svg.acjk .guides {
        circle {
            fill: #0f6;
        }

        path {
            opacity: 0;
            animation: guide-fade var(--t) linear forwards var(--d);
            stroke-width: 16px;
            stroke-linecap: round;
            stroke: #f77;
            fill: none;
            marker-end: url(#guide-arrow);
        }

        circle,
        path {
            --t: 0.8s;
            opacity: 0;
            animation: guide-fade calc(var(--t) + 0.4s) ease-in-out forwards calc(var(--d) - 0.2s);
        }
    }
</style>
<path id="z23532d1" d="M478 73Q500 89 526 110Q541 120 555 119Q565 118 569 104Q572 89 560 62Q548 37 469 28Q453 27 448 29Q444 33 446 45Q450 55 478 73Z"/>
<path id="z23532d2" d="M266 177Q265 176 265 173Q253 149 242 141Q223 126 221 152Q227 191 169 258Q150 282 177 334Q196 356 210 332Q226 308 238 272Q251 232 261 208C264 198 268 187 266 177Z"/>
<path id="z23532d3" d="M261 208C277 216 297 219 322 213C379 197 490 174 657 153C707 146 739 145 753 148C765 150 768 155 768 163C767 167 766 171 764 177C744 218 746 232 749 234C754 237 771 230 784 225C808 214 823 208 850 200C872 193 884 190 884 184C883 177 859 156 813 118C794 102 773 102 727 110C670 119 552 132 373 161C336 166 301 173 266 177C256 179 251 204 261 208Z"/>
<path id="z23532d4" d="M616 308C661 302 733 296 786 299C796 299 804 297 807 291C810 284 809 275 797 266C767 243 740 242 699 250C683 253 650 260 637 264C600 273 600 273 581 277C515 292 457 302 420 307C388 311 388 311 372 313C320 319 283 322 243 327C224 328 222 338 243 352C260 363 280 363 301 362C323 360 356 351 381 347C409 342 409 342 423 339C488 326 518 320 570 314C601 310 601 310 616 308Z"/>
<path id="z23532d5" d="M420 307C418 293 420 269 420 254C420 241 413 234 402 230C373 219 354 213 342 219C330 224 329 233 340 246C355 265 367 296 372 313C378 334 378 334 381 345C392 385 398 391 409 401C416 407 423 407 426 400C430 387 424 350 423 337C421 317 421 317 420 307Z"/>
<path id="z23532d6" d="M637 264C642 253 649 247 659 238C668 228 669 220 664 214C654 202 639 191 619 180C607 172 598 172 587 178C580 181 579 185 584 195C590 211 593 234 581 277C574 302 574 302 570 314C566 326 561 346 565 365C566 372 572 376 581 368C597 351 606 327 616 308C630 279 630 279 637 264Z"/>
<path id="z23532d7" d="M361 418Q354 411 334 402Q327 398 317 402Q311 406 316 416Q340 491 323 601Q314 610 322 653Q328 671 340 684Q349 694 357 684Q361 677 365 669C368 661 368 651 368 642Q368 636 369 586C369 570 369 570 369 562Q369 537 370 517C370 502 370 502 370 494Q371 457 372 452Q372 448 372 445C372 435 369 424 361 418Z"/>
<path id="z23532d8" d="M603 641Q604 648 610 656Q622 683 630 682Q643 681 658 651Q670 632 671 595Q664 466 685 435Q695 420 688 411Q663 389 620 369Q605 365 584 372Q500 405 361 418C351 420 363 449 372 445Q417 430 565 407Q593 401 601 416Q611 429 610 471Q611 582 605 610C603 620 601 631 603 641Z"/>
<path id="z23532d9" d="M370 517Q376 518 384 517Q469 502 532 493Q553 490 545 479Q535 466 513 462Q489 459 370 494C363 496 362 517 370 517Z"/>
<path id="z23532d10" d="M369 586Q373 587 382 586Q475 573 543 565Q564 562 557 551Q547 538 525 533Q510 530 369 562C361 563 361 586 369 586Z"/>
<path id="z23532d11" d="M541 648Q572 644 603 641C613 639 615 614 605 610Q604 609 600 608Q581 604 545 611Q451 629 368 642C359 643 356 669 365 669Q377 669 391 667C408 665 408 665 416 664Q459 657 501 653C528 650 528 650 541 648Z"/>
<path id="z23532d12" d="M391 667Q390 668 390 674Q375 813 143 932Q134 938 140 941Q146 945 157 943Q287 921 388 803Q427 748 452 723Q461 716 457 706Q454 696 430 675Q423 668 416 664C409 660 393 659 391 667Z"/>
<path id="z23532d13" d="M501 653Q501 657 504 663Q516 702 513 739Q507 842 516 871Q520 899 548 924Q639 999 840 966Q853 963 870 959Q919 944 966 911Q987 895 971 866Q956 841 934 763Q933 747 925 742Q918 739 915 757Q890 842 874 870Q858 889 809 901Q758 914 699 910Q647 909 607 891Q571 875 563 852Q545 815 569 691Q575 666 541 648C529 641 498 640 501 653Z"/>
<path id="z23532d14" d="M655 750Q680 775 706 805Q716 817 730 818Q740 818 745 807Q751 795 745 769Q738 736 655 708Q642 704 636 705Q632 708 632 720Q633 730 655 750Z"/>
<defs>
	<clipPath id="z23532c1"><use href="#z23532d1"/></clipPath>
	<clipPath id="z23532c2"><use href="#z23532d2"/></clipPath>
	<clipPath id="z23532c3"><use href="#z23532d3"/></clipPath>
	<clipPath id="z23532c4"><use href="#z23532d4"/></clipPath>
	<clipPath id="z23532c5"><use href="#z23532d5"/></clipPath>
	<clipPath id="z23532c6"><use href="#z23532d6"/></clipPath>
	<clipPath id="z23532c7"><use href="#z23532d7"/></clipPath>
	<clipPath id="z23532c8"><use href="#z23532d8"/></clipPath>
	<clipPath id="z23532c9"><use href="#z23532d9"/></clipPath>
	<clipPath id="z23532c10"><use href="#z23532d10"/></clipPath>
	<clipPath id="z23532c11"><use href="#z23532d11"/></clipPath>
	<clipPath id="z23532c12"><use href="#z23532d12"/></clipPath>
	<clipPath id="z23532c13"><use href="#z23532d13"/></clipPath>
	<clipPath id="z23532c14"><use href="#z23532d14"/></clipPath>
<marker id="guide-arrow" viewBox="0 0 16 16" refX="5" refY="5" markerWidth="4" markerHeight="4" orient="auto-start-reverse"><path d="M 0 0 L 10 5 L 0 10 z" fill="inherit"/></marker></defs>
<path style="--d:1s;" pathLength="3333" clip-path="url(#z23532c1)" d="M453 37L524 70L558 114"/>
<path style="--d:2s;" pathLength="3333" clip-path="url(#z23532c2)" d="M229 144L239 193L188 339"/>
<path style="--d:3s;" pathLength="3333" clip-path="url(#z23532c3)" d="M267 203L757 126L818 164L846 176L780 216"/>
<path style="--d:4s;" pathLength="3333" clip-path="url(#z23532c4)" d="M238 338L738 278L799 289"/>
<path style="--d:5s;" pathLength="3333" clip-path="url(#z23532c5)" d="M340 232L388 259L418 398"/>
<path style="--d:6s;" pathLength="3333" clip-path="url(#z23532c6)" d="M589 184L627 229L575 365"/>
<path style="--d:7s;" pathLength="3333" clip-path="url(#z23532c7)" d="M321 406L349 451L342 684"/>
<path style="--d:8s;" pathLength="3333" clip-path="url(#z23532c8)" d="M371 422L581 388L632 406L649 435L623 674"/>
<path style="--d:9s;" pathLength="3333" clip-path="url(#z23532c9)" d="M377 509L542 480"/>
<path style="--d:10s;" pathLength="3333" clip-path="url(#z23532c10)" d="M379 578L552 555"/>
<path style="--d:11s;" pathLength="3333" clip-path="url(#z23532c11)" d="M374 661L600 619"/>
<path style="--d:12s;" pathLength="3333" clip-path="url(#z23532c12)" d="M396 673L418 719L349 811L273 877L148 937"/>
<path style="--d:13s;" pathLength="3333" clip-path="url(#z23532c13)" d="M508 655L540 685L545 876L639 934L782 940L893 908L930 872L925 748"/>
<path style="--d:14s;" pathLength="3333" clip-path="url(#z23532c14)" d="M640 715L713 769L732 813"/>
<g class="guides"><circle style="--d: 1s" class="g1" cx="453" cy="37" r="16"/><path style="--d: 1s;" class="g1" d="M538.68,-31.543999999999997 Q609.68,1.456000000000003 613.93,6.956000000000003 Q639.43,39.956 643.68,45.456"/><circle style="--d: 2s" class="g2" cx="229" cy="144" r="16"/><path style="--d: 2s;" class="g2" d="M349,144 Q359,193 352.625,211.25 Q314.375,320.75 308,339"/><circle style="--d: 3s" class="g3" cx="267" cy="203" r="16"/><path style="--d: 3s;" class="g3" d="M267,299 Q660.5233160621761,222 685.0181347150259,241 Q709.5129533678756,260 720.7564766839378,266 Q732,272 705.4974093264249,292 Q705.4974093264249,292 678.9948186528497,312"/><circle style="--d: 4s" class="g4" cx="238" cy="338" r="16"/><path style="--d: 4s;" class="g4" d="M238,434 Q738,374 745.625,375.375 Q791.375,383.625 799,385"/><circle style="--d: 5s" class="g5" cx="340" cy="232" r="16"/><path style="--d: 5s;" class="g5" d="M340,328 Q364,341.5 365.875,350.1875 Q377.125,402.3125 379,411"/><circle style="--d: 6s" class="g6" cx="589" cy="184" r="16"/><path style="--d: 6s;" class="g6" d="M493,184 Q531,229 524.5,246 Q485.5,348 479,365"/><circle style="--d: 7s" class="g7" cx="321" cy="406" r="16"/><path style="--d: 7s;" class="g7" d="M225,406 Q253,451 252.125,480.125 Q246.875,654.875 246,684"/><circle style="--d: 8s" class="g8" cx="371" cy="422" r="16"/><path style="--d: 8s;" class="g8" d="M371,518 Q490.3525179856115,484 504.8453237410072,493 Q519.3381294964029,502 524.1690647482014,508.6118881118881 Q529,515.2237762237762 521.611510791367,594.6118881118881 Q521.611510791367,594.6118881118881 514.2230215827338,674"/><circle style="--d: 9s" class="g9" cx="377" cy="509" r="16"/><path style="--d: 9s;" class="g9" d="M377,605 L542,576"/><circle style="--d: 10s" class="g10" cx="379" cy="578" r="16"/><path style="--d: 10s;" class="g10" d="M379,674 L552,651"/><circle style="--d: 11s" class="g11" cx="374" cy="661" r="16"/><path style="--d: 11s;" class="g11" d="M374,757 L600,715"/><circle style="--d: 12s" class="g12" cx="396" cy="673" r="16"/><path style="--d: 12s;" class="g12" d="M300,673 Q312.22222222222223,702.2727272727273 293.05555555555554,731.5454545454545 Q273.8888888888889,760.8181818181819 252.7777777777778,781.8181818181818 Q231.66666666666669,802.8181818181818 196.94444444444446,821.9090909090909 Q196.94444444444446,821.9090909090909 162.22222222222223,841"/><circle style="--d: 13s" class="g13" cx="508" cy="655" r="16"/><path style="--d: 13s;" class="g13" d="M576.544,586.456 Q596.0667298578198,616.456 597.591943127962,711.956 Q599.1171563981043,807.456 627.7911658767773,836.456 Q656.4651753554502,865.456 700.0862748815166,868.456 Q743.707374407583,871.456 777.5671090047393,855.456 Q811.4268436018957,839.456 822.7134218009478,821.456 Q834,803.456 832.4747867298579,741.456 Q832.4747867298579,741.456 830.9495734597157,679.456"/><circle style="--d: 14s" class="g14" cx="640" cy="715" r="16"/><path style="--d: 14s;" class="g14" d="M725.68,646.456 Q798.68,700.456 801.055,705.956 Q815.305,738.956 817.68,744.456"/></g></svg>