<!--
  Stroke-order data for 対, derived from AnimCJK (https://github.com/parsimonhi/animCJK),
  itself derived from the Arphic PL KaitiM fonts. Distributed under the Arphic Public License
  (see ARPHICPL.TXT). Regenerated by scripts/build-strokes.ts — do not edit by hand.
-->
<svg id="z23550" class="acjk" viewBox="0 0 1024 1024" xmlns="http://www.w3.org/2000/svg">
<g class="glyph"><path id="z23550d1" d="M280 137C270 134 264 135 262 141C259 145 261 152 269 163C308 219 341 255 369 267C374 269 380 268 385 266C388 264 391 255 395 243C397 231 397 217 393 205C383 181 355 163 313 149C297 143 286 138 280 137Z"/><path id="z23550d2" d="M388 389C398 386 423 381 437 378C470 369 489 361 495 357C501 351 502 345 499 340C494 332 479 324 457 321C437 317 390 331 317 355C248 376 180 388 116 400C88 404 84 414 105 424C139 439 176 436 218 429C264 420 318 406 336 402C371 393 371 393 388 389Z"/><path id="z23550d3" d="M350 635C354 625 373 579 399 495C405 474 411 454 422 437C430 423 427 415 417 408C405 399 396 393 388 389C371 382 329 385 336 402C350 442 342 543 280 657C259 694 197 764 144 800C132 807 122 817 111 825C101 831 99 837 108 838C143 841 189 815 247 769C274 746 315 700 350 635Z"/><path id="z23550d4" d="M349 694C399 751 427 783 435 786C440 788 446 785 452 780C458 772 458 753 450 723C444 700 422 668 380 634C345 605 345 605 328 591C302 569 258 532 188 487C182 483 177 484 177 493C176 500 180 508 188 517C224 555 265 598 307 646C321 662 321 662 349 694Z"/><path id="z23550d5" d="M791 390C801 388 848 378 934 371C942 370 951 368 956 358C959 350 948 341 932 333C903 317 862 317 806 334C801 335 796 336 792 338C757 346 757 346 740 350C698 359 618 369 501 383C479 385 476 393 494 407C520 427 543 434 563 430C615 417 674 408 740 398C774 393 774 393 791 390Z"/><path id="z23550d6" d="M740 398C740 490 742 596 744 755C744 769 740 781 731 787C725 790 692 789 635 779C610 774 600 772 603 780C604 784 613 791 627 800C677 832 710 859 725 879C741 901 756 913 768 913C778 913 787 901 796 877C807 845 810 804 807 754C796 626 788 518 791 390C792 355 792 355 792 338C793 267 794 191 809 153C817 131 805 115 768 98C744 87 726 82 713 87C700 91 699 102 712 118C726 136 734 157 736 181C736 191 740 261 740 350C740 382 740 382 740 398Z"/><path id="z23550d7" d="M530 547C550 567 570 590 591 614C599 624 609 628 620 629C626 629 632 625 637 617C641 608 640 593 637 572C632 546 596 520 530 498C520 494 512 493 508 495C503 496 501 503 503 511C504 519 514 530 530 547Z"/></g>
<defs><clipPath id="z23550c1"><use href="#z23550d1"/></clipPath>
	<clipPath id="z23550c2"><use href="#z23550d2"/></clipPath>
	<clipPath id="z23550c3"><use href="#z23550d3"/></clipPath>
	<clipPath id="z23550c4"><use href="#z23550d4"/></clipPath>
	<clipPath id="z23550c5"><use href="#z23550d5"/></clipPath>
	<clipPath id="z23550c6"><use href="#z23550d6"/></clipPath>
	<clipPath id="z23550c7"><use href="#z23550d7"/></clipPath><marker id="guide-arrow" viewBox="0 0 16 16" refX="5" refY="5" markerWidth="4" markerHeight="4" orient="auto-start-reverse"><path d="M 0 0 L 10 5 L 0 10 z" fill="inherit"/></marker></defs>
<g class="strokes"><path pathLength="3333" clip-path="url(#z23550c1)" d="M269 144L387 257"/><path pathLength="3333" clip-path="url(#z23550c2)" d="M99 412L184 412L494 345"/><path pathLength="3333" clip-path="url(#z23550c3)" d="M343 408L384 441L326 624L238 749L113 831"/><path pathLength="3333" clip-path="url(#z23550c4)" d="M184 495L390 689L446 777"/><path pathLength="3333" clip-path="url(#z23550c5)" d="M492 393L551 404L949 351"/><path pathLength="3333" clip-path="url(#z23550c6)" d="M712 96L773 153L775 777L750 861L613 781"/><path pathLength="3333" clip-path="url(#z23550c7)" d="M511 504L599 571L623 623"/></g>
<g class="guides"><text class="g1" style="--gs:1" x="269" y="144">①</text><path class="g1 aligned" style="--gs:1" d="M269,144 L387,257"/><path class="g1 offset" style="--gs:1" d="M354.68,75.46 L472.68,188.46"/><text class="g2" style="--gs:2" x="99" y="412">②</text><path class="g2 aligned" style="--gs:2" d="M99,412 Q184,412 222.75,403.63 Q455.25,353.38 494,345"/><path class="g2 offset" style="--gs:2" d="M99,508 Q184,508 222.75,499.63 Q455.25,449.38 494,441"/><text class="g3" style="--gs:3" x="343" y="408">③</text><path class="g3 aligned" style="--gs:3" d="M343,408 Q384,441 355,532.5 Q326,624 282,686.5 Q238,749 175.5,790 Q175.5,790 113,831"/><path class="g3 offset" style="--gs:3" d="M247,408 Q273.48,433.51 254.75,504.24 Q236.02,574.98 207.61,623.29 Q179.2,671.61 138.84,703.3 Q138.84,703.3 98.48,735"/><text class="g4" style="--gs:4" x="184" y="495">④</text><path class="g4 aligned" style="--gs:4" d="M184,495 Q390,689 397,700 Q439,766 446,777"/><path class="g4 offset" style="--gs:4" d="M269.68,426.46 Q475.68,620.46 482.68,631.46 Q524.68,697.46 531.68,708.46"/><text class="g5" style="--gs:5" x="492" y="393">⑤</text><path class="g5 aligned" style="--gs:5" d="M492,393 Q551,404 600.75,397.38 Q899.25,357.63 949,351"/><path class="g5 offset" style="--gs:5" d="M492,489 Q551,500 600.75,493.38 Q899.25,453.63 949,447"/><text class="g6" style="--gs:6" x="712" y="96">⑥</text><path class="g6 aligned" style="--gs:6" d="M712,96 Q773,153 774,465 Q775,777 762.5,819 Q750,861 681.5,821 Q681.5,821 613,781"/><path class="g6 offset" style="--gs:6" d="M616,96 Q646.5,145.85 647,418.69 Q647.5,691.54 641.25,728.27 Q635,765 600.75,730.02 Q600.75,730.02 566.5,695.04"/><text class="g7" style="--gs:7" x="511" y="504">⑦</text><path class="g7 aligned" style="--gs:7" d="M511,504 Q599,571 602,577.5 Q620,616.5 623,623"/><path class="g7 offset" style="--gs:7" d="M596.68,435.46 Q684.68,502.46 687.68,508.96 Q705.68,547.96 708.68,554.46"/></g>
</svg>
