<!--
  Stroke-order data for 尊, derived from AnimCJK (https://github.com/parsimonhi/animCJK),
  itself derived from the Arphic PL KaitiM fonts. Distributed under the Arphic Public License
  (see ARPHICPL.TXT). Regenerated by scripts/build-strokes.ts — do not edit by hand.
-->
<svg id="z23562" class="acjk" viewBox="0 0 1024 1024" xmlns="http://www.w3.org/2000/svg">
<g class="glyph"><path style="--part:1" id="z23562d1" d="M391 100Q428 151 454 163Q467 166 476 155Q482 145 480 129Q471 90 404 68Q391 62 382 65Q376 66 377 77Q378 87 391 100Z"/><path style="--part:1" id="z23562d2" d="M609 68Q599 83 555 136Q545 149 560 148Q594 133 613 122Q670 89 678 87Q697 80 688 64Q678 49 657 36Q638 23 627 25Q617 26 619 37Q620 53 609 68Z"/><path style="--part:1" id="z23562d3" d="M568 201Q637 195 816 195Q834 195 839 187Q843 177 829 165Q781 129 749 137Q587 168 219 212Q200 213 214 229Q227 242 243 247Q262 251 276 247Q342 229 415 219C436 216 436 216 447 214Q513 205 528 205C555 202 555 202 568 201Z"/><path style="--part:1" id="z23562d4" d="M346 321Q325 306 302 300Q296 297 291 302Q284 306 292 318Q323 369 328 497Q328 560 362 581C363 582 363 582 363 582Q376 586 379 567C380 548 380 548 381 539Q380 518 374 494Q373 469 369 434Q366 392 365 347C365 336 355 327 346 321Z"/><path style="--part:1" id="z23562d5" d="M637 542Q656 567 673 575Q683 582 698 560Q711 532 733 384Q740 354 762 330Q775 317 763 304Q748 288 707 265Q691 258 624 273Q588 279 573 282C550 286 550 286 538 288Q507 292 473 299C448 303 448 303 436 305Q387 312 346 321C335 323 354 349 365 347Q396 340 435 332C458 327 458 327 470 325Q500 318 536 314C557 311 557 311 567 309Q651 291 668 310Q683 326 681 343Q663 490 650 512C646 522 630 533 637 542Z"/><path style="--part:1" id="z23562d6" d="M415 219Q430 253 436 305C435 323 435 323 435 332Q431 374 395 423Q386 432 385 436Q384 440 392 440Q432 434 460 375Q469 351 470 325C472 308 472 308 473 299Q476 263 476 240Q480 227 465 221Q455 217 447 214C437 210 411 209 415 219Z"/><path style="--part:1" id="z23562d7" d="M573 282Q579 257 590 230Q594 220 588 212Q581 206 568 201C556 196 524 192 528 205Q543 236 538 288C537 305 537 305 536 314Q527 383 546 399Q558 412 614 410Q639 410 648 398Q655 391 650 384Q569 366 566 360Q563 353 567 309C571 291 571 291 573 282Z"/><path style="--part:1" id="z23562d8" d="M418 466Q405 469 421 481Q428 487 445 485Q523 475 580 468Q599 465 593 454Q584 442 563 438Q545 435 418 466Z"/><path style="--part:1" id="z23562d9" d="M589 547Q613 543 637 542C648 542 659 518 650 512Q646 509 638 507Q617 503 580 509Q474 525 381 539C372 541 370 567 379 567Q388 567 401 566Q488 556 562 549C580 548 580 548 589 547Z"/><path style="--part:2" id="z23562d10" d="M638 651Q729 647 842 651Q875 652 904 653Q925 654 930 645Q936 633 919 618Q868 576 807 587Q740 597 647 610C606 615 606 615 585 617Q204 653 146 658Q124 659 139 677Q154 692 172 698Q194 705 210 701Q393 658 588 653C621 652 621 652 638 651Z"/><path style="--part:2" id="z23562d11" d="M551 854Q514 848 478 840Q466 839 467 846Q468 852 479 859Q555 916 585 952Q600 968 614 954Q647 918 642 816Q636 663 638 651C638 637 640 622 647 610Q648 609 649 607Q658 589 642 577Q617 556 589 547C581 544 563 540 562 549Q559 555 568 568Q581 590 585 617C587 641 587 641 588 653Q592 764 587 822Q586 844 574 852Q565 859 551 854Z"/><path style="--part:2" id="z23562d12" d="M368 737Q393 762 422 791Q434 804 449 804Q459 804 465 791Q469 778 463 749Q457 721 365 691Q350 687 344 689Q340 693 340 705Q343 715 368 737Z"/></g>
<defs><clipPath id="z23562c1"><use href="#z23562d1"/></clipPath>
	<clipPath id="z23562c2"><use href="#z23562d2"/></clipPath>
	<clipPath id="z23562c3"><use href="#z23562d3"/></clipPath>
	<clipPath id="z23562c4"><use href="#z23562d4"/></clipPath>
	<clipPath id="z23562c5"><use href="#z23562d5"/></clipPath>
	<clipPath id="z23562c6"><use href="#z23562d6"/></clipPath>
	<clipPath id="z23562c7"><use href="#z23562d7"/></clipPath>
	<clipPath id="z23562c8"><use href="#z23562d8"/></clipPath>
	<clipPath id="z23562c9"><use href="#z23562d9"/></clipPath>
	<clipPath id="z23562c10"><use href="#z23562d10"/></clipPath>
	<clipPath id="z23562c11"><use href="#z23562d11"/></clipPath>
	<clipPath id="z23562c12"><use href="#z23562d12"/></clipPath><marker id="guide-arrow" viewBox="0 0 16 16" refX="5" refY="5" markerWidth="4" markerHeight="4" orient="auto-start-reverse"><path d="M 0 0 L 10 5 L 0 10 z" fill="inherit"/></marker></defs>
<g class="strokes"><path style="--part:1" pathLength="3333" clip-path="url(#z23562c1)" d="M383 72L464 159"/><path style="--part:1" pathLength="3333" clip-path="url(#z23562c2)" d="M627 30L649 72L560 141"/><path style="--part:1" pathLength="3333" clip-path="url(#z23562c3)" d="M217 219L759 165L835 180"/><path style="--part:1" pathLength="3333" clip-path="url(#z23562c4)" d="M294 305L338 357L364 577"/><path style="--part:1" pathLength="3333" clip-path="url(#z23562c5)" d="M353 321L656 284L707 302L725 331L669 571"/><path style="--part:1" pathLength="3333" clip-path="url(#z23562c6)" d="M423 221L452 245L452 338L394 433"/><path style="--part:1" pathLength="3333" clip-path="url(#z23562c7)" d="M538 211L564 236L551 371L647 394"/><path style="--part:1" pathLength="3333" clip-path="url(#z23562c8)" d="M421 473L589 455"/><path style="--part:1" pathLength="3333" clip-path="url(#z23562c9)" d="M386 559L644 518"/><path style="--part:2" pathLength="3333" clip-path="url(#z23562c10)" d="M140 667L189 678L823 617L926 637"/><path style="--part:2" pathLength="3333" clip-path="url(#z23562c11)" d="M571 555L618 603L607 871L585 908L473 846"/><path style="--part:2" pathLength="3333" clip-path="url(#z23562c12)" d="M347 697L460 792"/></g>
<g class="guides"><text class="g1" style="--gs:1" x="383" y="72">①</text><path class="g1 aligned" style="--gs:1" d="M383,72 L464,159"/><path class="g1 offset" style="--gs:1" d="M468.68,3.46 L549.68,90.46"/><text class="g2" style="--gs:2" x="627" y="30">②</text><path class="g2 aligned" style="--gs:2" d="M627,30 Q649,72 637.88,80.63 Q571.13,132.38 560,141"/><path class="g2 offset" style="--gs:2" d="M531,30 Q542,51 536.44,55.31 Q503.06,81.19 497.5,85.5"/><text class="g3" style="--gs:3" x="217" y="219">③</text><path class="g3 aligned" style="--gs:3" d="M217,219 Q759,165 768.5,166.88 Q825.5,178.13 835,180"/><path class="g3 offset" style="--gs:3" d="M217,315 Q759,261 768.5,262.88 Q825.5,274.13 835,276"/><text class="g4" style="--gs:4" x="294" y="305">④</text><path class="g4 aligned" style="--gs:4" d="M294,305 Q338,357 341.25,384.5 Q360.75,549.5 364,577"/><path class="g4 offset" style="--gs:4" d="M379.68,236.46 Q423.68,288.46 426.93,315.96 Q446.43,480.96 449.68,508.46"/><text class="g5" style="--gs:5" x="353" y="321">⑤</text><path class="g5 aligned" style="--gs:5" d="M353,321 Q656,284 681.5,293 Q707,302 716,316.5 Q725,331 697,451 Q697,451 669,571"/><path class="g5 offset" style="--gs:5" d="M353,417 Q558.26,380 575.53,389 Q592.81,398 598.9,404.64 Q605,411.28 586.03,491.14 Q586.03,491.14 567.06,571"/><text class="g6" style="--gs:6" x="423" y="221">⑥</text><path class="g6 aligned" style="--gs:6" d="M438,233 Q452,338 444.75,349.88 Q401.25,421.13 394,433"/><path class="g6 offset" style="--gs:6" d="M342,233 Q349,287.6 345.38,293.78 Q323.63,330.83 320,337"/><text class="g7" style="--gs:7" x="538" y="211">⑦</text><path class="g7 aligned" style="--gs:7" d="M551,224 Q551,371 563,373.88 Q635,391.13 647,394"/><path class="g7 offset" style="--gs:7" d="M671,224 Q671,297.5 677,298.94 Q713,307.56 719,309"/><text class="g8" style="--gs:8" x="421" y="473">⑧</text><path class="g8 aligned" style="--gs:8" d="M421,473 L589,455"/><path class="g8 offset" style="--gs:8" d="M421,569 L589,551"/><text class="g9" style="--gs:9" x="386" y="559">⑨</text><path class="g9 aligned" style="--gs:9" d="M386,559 L644,518"/><path class="g9 offset" style="--gs:9" d="M386,655 L644,614"/><text class="g10" style="--gs:10" x="140" y="667">⑩</text><path class="g10 aligned" style="--gs:10" d="M140,667 Q189,678 347.5,662.75 Q823,617 848.75,622 Q900.25,632 926,637"/><path class="g10 offset" style="--gs:10" d="M140,763 Q189,774 347.5,758.75 Q823,713 848.75,718 Q900.25,728 926,733"/><text class="g11" style="--gs:11" x="571" y="555">⑪</text><path class="g11 aligned" style="--gs:11" d="M571,555 Q618,603 612.5,737 Q607,871 596,889.5 Q585,908 529,877 Q529,877 473,846"/><path class="g11 offset" style="--gs:11" d="M475,555 Q498.5,589.95 495.75,687.5 Q493,785.06 487.5,798.53 Q482,812 454,789.43 Q454,789.43 426,766.86"/><text class="g12" style="--gs:12" x="347" y="697">⑫</text><path class="g12 aligned" style="--gs:12" d="M347,697 L460,792"/><path class="g12 offset" style="--gs:12" d="M432.68,628.46 L545.68,723.46"/></g>
<g class="parts"><rect data-part="1" data-literal="酋" role="button" tabindex="0" aria-label="Part 酋" x="145" y="0" width="762" height="649"/><rect data-part="2" data-literal="寸" data-radical="true" role="button" tabindex="0" aria-label="Part 寸 (radical)" x="68" y="483" width="930" height="497"/></g>
</svg>
