<!--
  Stroke-order data for 尞, derived from AnimCJK (https://github.com/parsimonhi/animCJK),
  itself derived from the Arphic PL KaitiM fonts. Distributed under the Arphic Public License
  (see ARPHICPL.TXT). Regenerated by scripts/build-strokes.ts — do not edit by hand.
-->
<svg id="z23582" class="acjk" viewBox="0 0 1024 1024" xmlns="http://www.w3.org/2000/svg">
<g class="glyph"><path id="z23582d1" d="M437 259C458 254 479 249 500 245C517 241 517 241 526 239C567 229 595 234 619 212C630 200 619 191 610 187C585 175 560 176 535 187C509 196 484 203 461 210C418 221 418 221 396 227C364 235 307 239 300 241C278 245 274 252 290 262C314 275 343 278 376 272C417 263 417 263 437 259Z"/><path id="z23582d2" d="M320 432C373 380 408 317 437 259C453 226 453 226 461 210C479 172 487 148 498 128C508 107 488 89 474 76C461 65 446 57 434 59C425 60 421 65 422 76C422 124 418 176 396 227C383 257 383 257 376 272C325 385 231 461 92 555C86 558 85 563 90 565C100 569 125 560 165 541C214 516 259 490 294 457C311 440 311 440 320 432Z"/><path id="z23582d3" d="M500 245C517 275 602 353 749 486C778 512 846 514 958 492C980 487 980 479 964 473C944 465 922 462 891 453C805 428 746 420 629 324C618 315 618 315 612 310C577 281 551 260 526 239C519 233 495 238 500 245Z"/><path id="z23582d4" d="M204 328C236 364 259 383 273 384C277 384 282 382 286 379C295 369 294 354 282 336C269 317 242 307 206 303C199 302 197 305 197 312C196 317 198 322 204 328Z"/><path id="z23582d5" d="M629 324C675 297 708 277 730 271C748 265 747 251 723 225C713 214 701 206 687 204C677 202 673 209 674 221C674 233 653 263 612 310C607 315 623 328 629 324Z"/><path id="z23582d6" d="M343 437C339 435 331 433 320 432C308 430 287 447 294 457C316 489 328 545 333 624C334 640 340 654 351 666C369 686 374 670 374 654C373 647 373 640 373 633C371 608 365 582 362 561C359 545 359 545 358 537C354 513 353 467 353 467C353 456 353 441 343 437Z"/><path id="z23582d7" d="M535 635C543 647 550 655 558 660C567 665 581 664 586 649C597 610 603 561 615 524C624 494 628 483 640 462C643 455 648 439 642 432C632 421 621 412 598 399C588 393 561 397 517 406C450 418 414 425 343 437C333 439 343 471 353 467C391 455 450 444 530 434C559 430 572 438 570 459C562 524 552 574 538 610C535 618 530 628 535 635Z"/><path id="z23582d8" d="M362 561C416 559 466 549 518 543C533 541 537 535 532 528C523 516 509 509 490 509C466 508 422 517 358 537C350 540 354 561 362 561Z"/><path id="z23582d9" d="M494 639C509 636 523 635 535 635C543 635 546 613 538 610C505 594 487 609 373 633C366 634 367 654 374 654C399 654 425 648 449 645C479 641 479 641 494 639Z"/><path id="z23582d10" d="M514 709C514 677 515 658 494 639C483 628 447 630 449 645C455 668 459 732 458 837C457 857 460 891 435 889C409 886 413 884 373 878C353 874 361 891 369 898C410 933 436 961 451 980C459 990 468 992 475 991C482 988 489 976 499 955C508 932 514 901 514 861C514 810 514 709 514 709Z"/><path id="z23582d11" d="M290 716Q282 718 272 728Q247 767 222 794Q198 824 212 857Q216 876 237 867Q284 837 294 782Q298 769 300 756Q304 722 290 716Z"/><path id="z23582d12" d="M593 702Q592 705 593 708Q594 716 612 732Q671 788 706 826Q733 863 751 841Q763 828 751 786Q742 756 704 733Q678 720 603 694Q594 690 593 702Z"/></g>
<defs><clipPath id="z23582c1"><use href="#z23582d1"/></clipPath>
	<clipPath id="z23582c2"><use href="#z23582d2"/></clipPath>
	<clipPath id="z23582c3"><use href="#z23582d3"/></clipPath>
	<clipPath id="z23582c4"><use href="#z23582d4"/></clipPath>
	<clipPath id="z23582c5"><use href="#z23582d5"/></clipPath>
	<clipPath id="z23582c6"><use href="#z23582d6"/></clipPath>
	<clipPath id="z23582c7"><use href="#z23582d7"/></clipPath>
	<clipPath id="z23582c8"><use href="#z23582d8"/></clipPath>
	<clipPath id="z23582c9"><use href="#z23582d9"/></clipPath>
	<clipPath id="z23582c10"><use href="#z23582d10"/></clipPath>
	<clipPath id="z23582c11"><use href="#z23582d11"/></clipPath>
	<clipPath id="z23582c12"><use href="#z23582d12"/></clipPath><marker id="guide-arrow" viewBox="0 0 16 16" refX="5" refY="5" markerWidth="4" markerHeight="4" orient="auto-start-reverse"><path d="M 0 0 L 10 5 L 0 10 z" fill="inherit"/></marker></defs>
<g class="strokes"><path pathLength="3333" clip-path="url(#z23582c1)" d="M287 250L366 253L618 199"/><path pathLength="3333" clip-path="url(#z23582c2)" d="M432 67L461 116L369 334L258 459L98 559"/><path pathLength="3333" clip-path="url(#z23582c3)" d="M506 242L773 457L966 482"/><path pathLength="3333" clip-path="url(#z23582c4)" d="M206 314L285 372"/><path pathLength="3333" clip-path="url(#z23582c5)" d="M684 212L700 256L619 317"/><path pathLength="3333" clip-path="url(#z23582c6)" d="M298 449L331 470L363 667"/><path pathLength="3333" clip-path="url(#z23582c7)" d="M341 447L591 426L607 447L566 659"/><path pathLength="3333" clip-path="url(#z23582c8)" d="M358 549L527 535"/><path pathLength="3333" clip-path="url(#z23582c9)" d="M374 643L538 625"/><path pathLength="3333" clip-path="url(#z23582c10)" d="M457 639L483 679L479 903L453 939L367 886"/><path pathLength="3333" clip-path="url(#z23582c11)" d="M288 723L222 866"/><path pathLength="3333" clip-path="url(#z23582c12)" d="M601 702L711 781L743 842"/></g>
<g class="guides"><text class="g1" style="--gs:1" x="287" y="250">①</text><path class="g1 aligned" style="--gs:1" d="M287,250 Q366,253 397.5,246.25 Q586.5,205.75 618,199"/><path class="g1 offset" style="--gs:1" d="M287,346 Q366,349 397.5,342.25 Q586.5,301.75 618,295"/><text class="g2" style="--gs:2" x="432" y="67">②</text><path class="g2 aligned" style="--gs:2" d="M432,67 Q461,116 415,225 Q369,334 313.5,396.5 Q258,459 178,509 Q178,509 98,559"/><path class="g2 offset" style="--gs:2" d="M336,67 Q357.33,106.44 323.5,194.17 Q289.66,281.9 248.84,332.21 Q208.02,382.51 149.17,422.76 Q149.17,422.76 90.33,463"/><text class="g3" style="--gs:3" x="506" y="242">③</text><path class="g3 aligned" style="--gs:3" d="M506,242 Q773,457 797.13,460.13 Q941.88,478.88 966,482"/><path class="g3 offset" style="--gs:3" d="M591.68,173.46 Q808.95,363.86 828.58,366.63 Q946.37,383.23 966,386"/><text class="g4" style="--gs:4" x="206" y="314">④</text><path class="g4 aligned" style="--gs:4" d="M206,314 L285,372"/><path class="g4 offset" style="--gs:4" d="M291.68,245.46 L370.68,303.46"/><text class="g5" style="--gs:5" x="684" y="212">⑤</text><path class="g5 aligned" style="--gs:5" d="M684,212 Q700,256 689.88,263.63 Q629.13,309.38 619,317"/><path class="g5 offset" style="--gs:5" d="M588,212 Q596,234 590.94,237.81 Q560.56,260.69 555.5,264.5"/><text class="g6" style="--gs:6" x="298" y="449">⑥</text><path class="g6 aligned" style="--gs:6" d="M315,460 L363,667"/><path class="g6 offset" style="--gs:6" d="M435,460 L483,667"/><text class="g7" style="--gs:7" x="341" y="447">⑦</text><path class="g7 aligned" style="--gs:7" d="M341,447 Q591,426 595,431.25 Q607,447 596.75,500 Q576.25,606 566,659"/><path class="g7 offset" style="--gs:7" d="M341,543 Q478.22,522 480.41,527.25 Q487,543 481.37,572 Q470.12,630 464.5,659"/><text class="g8" style="--gs:8" x="358" y="549">⑧</text><path class="g8 aligned" style="--gs:8" d="M358,549 L527,535"/><path class="g8 offset" style="--gs:8" d="M358,645 L527,631"/><text class="g9" style="--gs:9" x="374" y="643">⑨</text><path class="g9 aligned" style="--gs:9" d="M374,643 L538,625"/><path class="g9 offset" style="--gs:9" d="M374,739 L538,721"/><text class="g10" style="--gs:10" x="457" y="639">⑩</text><path class="g10 aligned" style="--gs:10" d="M457,639 Q483,679 481,791 Q479,903 466,921 Q453,939 410,912.5 Q410,912.5 367,886"/><path class="g10 offset" style="--gs:10" d="M361,639 Q374,666.2 373,742.36 Q372,818.52 365.5,830.76 Q359,843 337.5,824.98 Q337.5,824.98 316,806.96"/><text class="g11" style="--gs:11" x="288" y="723">⑪</text><path class="g11 aligned" style="--gs:11" d="M288,723 L222,866"/><path class="g11 offset" style="--gs:11" d="M408,723 L342,866"/><text class="g12" style="--gs:12" x="601" y="702">⑫</text><path class="g12 aligned" style="--gs:12" d="M601,702 Q711,781 715,788.63 Q739,834.38 743,842"/><path class="g12 offset" style="--gs:12" d="M686.68,633.46 Q796.68,712.46 800.68,720.08 Q824.68,765.83 828.68,773.46"/></g>
</svg>
