<!--
  Stroke-order data for 尭, derived from AnimCJK (https://github.com/parsimonhi/animCJK),
  itself derived from the Arphic PL KaitiM fonts. Distributed under the Arphic Public License
  (see ARPHICPL.TXT). Regenerated by scripts/build-strokes.ts — do not edit by hand.
-->
<svg id="z23597" class="acjk" viewBox="0 0 1024 1024" xmlns="http://www.w3.org/2000/svg">
<g class="glyph"><path id="z23597d1" d="M548 274C588 267 630 259 673 253C713 246 735 240 741 235C747 229 749 222 747 217C742 207 729 200 709 195C687 188 665 191 643 198C614 207 584 215 553 222C516 230 516 230 497 234C444 245 388 248 328 253C301 254 296 264 316 277C345 296 381 300 421 294C445 289 470 286 498 282C531 277 531 277 548 274Z"/><path id="z23597d2" d="M499 378C499 382 500 386 503 392C506 400 512 402 518 398C532 386 535 376 541 328C544 302 553 231 555 208C557 175 559 151 565 138C570 124 570 113 562 106C551 95 536 85 518 77C503 70 487 69 472 77C463 81 466 89 474 102C489 128 495 171 497 223C500 299 498 373 499 378Z"/><path id="z23597d3" d="M890 425C900 425 907 422 911 416C915 408 912 398 902 389C865 357 821 354 769 368C741 375 526 408 489 414C451 420 208 449 144 458C123 460 119 467 135 478C162 496 202 502 253 491C281 484 349 472 378 467C443 455 515 448 577 441C680 429 822 420 890 425Z"/><path id="z23597d4" d="M395 437C392 406 388 392 390 368C391 349 382 345 372 339C357 331 332 318 311 326C297 330 297 340 308 354C330 383 344 407 351 443C356 467 356 467 358 479C362 500 368 539 379 550C386 557 394 556 397 549C402 535 400 496 398 472C396 449 396 449 395 437Z"/><path id="z23597d5" d="M654 267C648 267 642 268 636 272C629 276 629 281 634 290C645 309 647 327 632 388C623 421 600 521 596 542C594 552 621 543 626 534C639 513 674 414 679 404C694 366 700 355 716 334C724 322 726 314 720 307C710 296 694 284 672 272C665 268 660 267 654 267Z"/><path id="z23597d6" d="M752 577C764 575 775 575 778 565C779 559 768 548 753 540C726 525 672 521 626 534C606 539 606 539 596 542C563 550 410 578 225 593C204 594 202 601 218 615C242 634 265 642 286 640C305 638 331 629 372 622C395 618 395 618 406 616C462 606 522 600 557 595C587 590 587 590 602 588C638 582 705 581 752 577Z"/><path id="z23597d7" d="M372 622C378 689 311 778 179 882C176 884 173 886 170 889C165 893 164 897 169 899C186 905 224 888 283 848C320 822 374 772 422 709C436 689 454 663 450 650C443 632 426 622 406 616C395 612 372 610 372 622Z"/><path id="z23597d8" d="M557 595C571 621 575 653 574 691C569 795 575 824 593 851C597 856 603 863 611 869C649 897 683 908 809 904C867 901 907 894 930 882C950 871 955 855 947 833C932 798 921 750 912 690C910 679 905 672 901 670C895 667 891 671 890 686C884 759 878 806 867 820C847 843 843 849 758 849C711 848 679 847 660 839C641 831 631 818 628 807C619 776 620 732 628 694C631 678 635 665 639 656C649 630 635 607 602 588C589 580 550 581 557 595Z"/></g>
<defs><clipPath id="z23597c1"><use href="#z23597d1"/></clipPath>
	<clipPath id="z23597c2"><use href="#z23597d2"/></clipPath>
	<clipPath id="z23597c3"><use href="#z23597d3"/></clipPath>
	<clipPath id="z23597c4"><use href="#z23597d4"/></clipPath>
	<clipPath id="z23597c5"><use href="#z23597d5"/></clipPath>
	<clipPath id="z23597c6"><use href="#z23597d6"/></clipPath>
	<clipPath id="z23597c7"><use href="#z23597d7"/></clipPath>
	<clipPath id="z23597c8"><use href="#z23597d8"/></clipPath><marker id="guide-arrow" viewBox="0 0 16 16" refX="5" refY="5" markerWidth="4" markerHeight="4" orient="auto-start-reverse"><path d="M 0 0 L 10 5 L 0 10 z" fill="inherit"/></marker></defs>
<g class="strokes"><path pathLength="3333" clip-path="url(#z23597c1)" d="M312 261L398 272L743 225"/><path pathLength="3333" clip-path="url(#z23597c2)" d="M473 83L528 136L517 395"/><path pathLength="3333" clip-path="url(#z23597c3)" d="M136 469L216 474L769 395L896 407"/><path pathLength="3333" clip-path="url(#z23597c4)" d="M307 338L357 368L386 550"/><path pathLength="3333" clip-path="url(#z23597c5)" d="M637 277L682 325L613 525"/><path pathLength="3333" clip-path="url(#z23597c6)" d="M213 600L268 614L658 553L771 559"/><path pathLength="3333" clip-path="url(#z23597c7)" d="M379 631L409 670L348 746L280 824L173 894"/><path pathLength="3333" clip-path="url(#z23597c8)" d="M566 596L607 642L604 810L650 857L778 877L888 856L911 834L901 677"/></g>
<g class="guides"><text class="g1" style="--gs:1" x="312" y="261">①</text><path class="g1 aligned" style="--gs:1" d="M312,261 Q398,272 441.13,266.13 Q699.88,230.88 743,225"/><path class="g1 offset" style="--gs:1" d="M312,357 Q398,368 441.13,362.13 Q699.88,326.88 743,321"/><text class="g2" style="--gs:2" x="473" y="83">②</text><path class="g2 aligned" style="--gs:2" d="M473,83 Q528,136 526.63,168.38 Q518.38,362.63 517,395"/><path class="g2 offset" style="--gs:2" d="M377,83 Q432,136 430.63,168.38 Q422.38,362.63 421,395"/><text class="g3" style="--gs:3" x="136" y="469">③</text><path class="g3 aligned" style="--gs:3" d="M136,469 Q216,474 354.25,454.25 Q769,395 800.75,398 Q864.25,404 896,407"/><path class="g3 offset" style="--gs:3" d="M136,565 Q216,570 354.25,550.25 Q769,491 800.75,494 Q864.25,500 896,503"/><text class="g4" style="--gs:4" x="307" y="338">④</text><path class="g4 aligned" style="--gs:4" d="M307,338 Q357,368 360.63,390.75 Q382.38,527.25 386,550"/><path class="g4 offset" style="--gs:4" d="M392.68,269.46 Q442.68,299.46 446.31,322.21 Q468.06,458.71 471.68,481.46"/><text class="g5" style="--gs:5" x="637" y="277">⑤</text><path class="g5 aligned" style="--gs:5" d="M637,277 Q682,325 673.38,350 Q621.63,500 613,525"/><path class="g5 offset" style="--gs:5" d="M541,277 Q586,325 577.38,350 Q525.63,500 517,525"/><text class="g6" style="--gs:6" x="213" y="600">⑥</text><path class="g6 aligned" style="--gs:6" d="M213,600 Q268,614 365.5,598.75 Q658,553 686.25,554.5 Q742.75,557.5 771,559"/><path class="g6 offset" style="--gs:6" d="M213,696 Q268,710 365.5,694.75 Q658,649 686.25,650.5 Q742.75,653.5 771,655"/><text class="g7" style="--gs:7" x="379" y="631">⑦</text><path class="g7 aligned" style="--gs:7" d="M379,631 Q409,670 378.5,708 Q348,746 314,785 Q280,824 226.5,859 Q226.5,859 173,894"/><path class="g7 offset" style="--gs:7" d="M283,631 Q300.8,655.76 282.7,679.89 Q264.61,704.02 244.44,728.79 Q224.27,753.55 192.53,775.78 Q192.53,775.78 160.8,798"/><text class="g8" style="--gs:8" x="566" y="596">⑧</text><path class="g8 aligned" style="--gs:8" d="M566,596 Q607,642 605.5,726 Q604,810 627,833.5 Q650,857 714,867 Q778,877 833,866.5 Q888,856 899.5,845 Q911,834 906,755.5 Q906,755.5 901,677"/><path class="g8 offset" style="--gs:8" d="M634.54,527.46 Q655.99,573.46 655.2,657.46 Q654.42,741.46 666.45,764.96 Q678.48,788.46 711.96,798.46 Q745.43,808.46 774.2,797.96 Q802.97,787.46 808.98,776.46 Q815,765.46 812.38,686.96 Q812.38,686.96 809.77,608.46"/></g>
</svg>
