<svg id="z23612" class="acjk" viewBox="0 0 1024 1024" xmlns="http://www.w3.org/2000/svg">
<style>

@keyframes zk {
	to {
		stroke-dashoffset:0;
	}
}
svg.acjk path[clip-path] {
	--t:0.8s;
	animation:zk var(--t) linear forwards var(--d);
	stroke-dasharray:3337;
	stroke-dashoffset:3339;
	stroke-width:128;
	stroke-linecap:round;
	fill:none;
	stroke:#000;
}
svg.acjk path[id] {fill:#ccc;}


    @keyframes guide-fade {
        0% { opacity: 0; }
        3% { opacity: 1; }
        95% { opacity: 1; }
        100% { opacity: 0; }
    }

    svg.acjk #guide-arrow {
        fill: #f77;
    }

    svg.acjk .guides {
        circle {
            fill: #0f6;
        }

        path {
            opacity: 0;
            animation: guide-fade var(--t) linear forwards var(--d);
            stroke-width: 16px;
            stroke-linecap: round;
            stroke: #f77;
            fill: none;
            marker-end: url(#guide-arrow);
        }

        circle,
        path {
            --t: 0.8s;
            opacity: 0;
            animation: guide-fade calc(var(--t) + 0.4s) ease-in-out forwards calc(var(--d) - 0.2s);
        }
    }
</style>
<path id="z23612d1" d="M678 283Q714 199 749 181Q768 162 754 142Q673 73 624 103Q509 140 378 156C367 158 372 192 383 190Q510 168 640 144Q646 145 651 150Q660 160 655 178Q639 230 622 274C615 292 671 301 678 283Z"/>
<path id="z23612d2" d="M362 356Q363 356 365 357Q377 360 390 357Q484 335 687 316Q697 315 700 306Q700 299 678 283C663 272 641 274 622 274Q621 273 618 274Q479 308 366 323C355 325 351 354 362 356Z"/>
<path id="z23612d3" d="M378 156Q375 153 371 151Q320 123 304 124Q282 127 298 152Q331 219 295 448Q282 542 226 652Q181 742 66 835Q50 848 46 854Q43 861 56 862Q104 865 196 775Q302 670 342 476Q352 421 362 356C365 334 365 334 366 323Q372 274 377 219Q381 201 383 190C385 179 387 163 378 156Z"/>
<path id="z23612d4" d="M488 633Q521 620 688 539Q712 526 740 521Q765 515 757 493Q747 472 723 451Q701 430 686 431Q673 430 674 445Q671 478 573 549Q533 576 490 606C482 611 480 636 488 633Z"/>
<path id="z23612d5" d="M462 815Q484 849 529 866Q586 885 711 886Q813 886 873 872Q916 863 923 852Q932 839 922 819Q900 753 890 656Q886 637 876 632Q869 626 863 649Q830 787 812 800Q805 810 771 816Q668 832 603 828Q528 821 496 775Q481 751 488 633C489 615 489 615 490 606Q496 519 507 478Q514 456 491 440Q445 406 432 413Q419 419 429 438Q439 462 440 570Q433 766 462 815Z"/>
<defs>
	<clipPath id="z23612c1"><use href="#z23612d1"/></clipPath>
	<clipPath id="z23612c2"><use href="#z23612d2"/></clipPath>
	<clipPath id="z23612c3"><use href="#z23612d3"/></clipPath>
	<clipPath id="z23612c4"><use href="#z23612d4"/></clipPath>
	<clipPath id="z23612c5"><use href="#z23612d5"/></clipPath>
<marker id="guide-arrow" viewBox="0 0 16 16" refX="5" refY="5" markerWidth="4" markerHeight="4" orient="auto-start-reverse"><path d="M 0 0 L 10 5 L 0 10 z" fill="inherit"/></marker></defs>
<path style="--d:1s;" pathLength="3333" clip-path="url(#z23612c1)" d="M386 160L672 126L707 167L637 276"/>
<path style="--d:2s;" pathLength="3333" clip-path="url(#z23612c2)" d="M370 350L620 298L694 301"/>
<path style="--d:3s;" pathLength="3333" clip-path="url(#z23612c3)" d="M299 132L346 200L293 561L192 745L50 853"/>
<path style="--d:4s;" pathLength="3333" clip-path="url(#z23612c4)" d="M685 438L705 495L496 625"/>
<path style="--d:5s;" pathLength="3333" clip-path="url(#z23612c5)" d="M430 418L472 469L468 762L522 833L699 856L870 824L873 638"/>
<g class="guides"><circle style="--d: 1s" class="g1" cx="386" cy="160" r="16"/><path style="--d: 1s;" class="g1" d="M386,256 Q566.8660436137071,222 572.3995327102804,232.25 Q589,263 577.9330218068536,290.25 Q555.7990654205607,344.75 544.7320872274144,372"/><circle style="--d: 2s" class="g2" cx="370" cy="350" r="16"/><path style="--d: 2s;" class="g2" d="M370,446 Q620,394 629.25,394.375 Q684.75,396.625 694,397"/><circle style="--d: 3s" class="g3" cx="299" cy="132" r="16"/><path style="--d: 3s;" class="g3" d="M203,132 Q234.75675675675677,190.94590846047157 216.85135135135135,347.4126213592233 Q198.94594594594594,503.879334257975 164.82432432432432,583.629680998613 Q130.7027027027027,663.3800277392511 82.72972972972974,710.1900138696255 Q82.72972972972974,710.1900138696255 34.75675675675677,757"/><circle style="--d: 4s" class="g4" cx="685" cy="438" r="16"/><path style="--d: 4s;" class="g4" d="M589,438 Q599,466.5 585.9375,474.625 Q507.5625,523.375 494.5,531.5"/><circle style="--d: 5s" class="g5" cx="430" cy="418" r="16"/><path style="--d: 5s;" class="g5" d="M498.544,349.456 Q524.9438916478556,400.456 523.6867539503387,546.956 Q522.4296162528217,693.456 539.4009751693002,728.956 Q556.3723340857788,764.456 612.0006772009029,775.956 Q667.6290203160271,787.456 721.3716568848758,771.456 Q775.1142934537246,755.456 776.0571467268624,662.456 Q776.0571467268624,662.456 777,569.456"/></g></svg>