<!--
  Stroke-order data for 居, derived from AnimCJK (https://github.com/parsimonhi/animCJK),
  itself derived from the Arphic PL KaitiM fonts. Distributed under the Arphic Public License
  (see ARPHICPL.TXT). Regenerated by scripts/build-strokes.ts — do not edit by hand.
-->
<svg id="z23621" class="acjk" viewBox="0 0 1024 1024" xmlns="http://www.w3.org/2000/svg">
<g class="glyph"><path style="--part:1" id="z23621d1" d="M694 255C718 207 742 181 762 168C778 156 778 139 767 127C756 115 730 100 692 79C679 72 664 70 647 77C576 102 487 123 379 138C366 141 385 178 397 173C399 172 404 170 411 169C482 155 553 144 621 131C639 127 651 128 658 136C662 141 664 150 662 160C653 192 644 220 634 246C626 265 685 273 694 255Z"/><path style="--part:1" id="z23621d2" d="M362 334C368 334 376 335 386 333C452 317 558 302 703 288C709 287 714 284 716 278C716 273 708 265 694 255C678 243 654 243 634 246C555 263 446 287 368 298C356 300 350 334 362 334Z"/><path style="--part:1" id="z23621d3" d="M318 513C324 493 355 375 362 334C366 310 366 310 368 298C375 255 382 213 397 173C402 161 389 146 379 138C350 112 326 100 310 107C300 110 297 119 303 130C314 151 321 180 317 220C296 392 263 523 223 615C190 687 139 773 66 871C62 876 58 880 57 885C54 893 57 896 65 895C87 891 134 846 201 759C216 739 229 716 243 692C268 644 290 592 310 536C315 521 315 521 318 513Z"/><path style="--part:2" id="z23621d4" d="M589 511C664 498 762 496 882 495C896 494 904 491 908 485C912 477 908 468 896 459C860 432 828 422 802 429C749 441 682 457 597 470C557 476 557 476 537 479C468 489 395 500 318 513C310 515 303 532 310 536C332 552 361 556 399 546C441 534 486 527 533 520C570 514 570 514 589 511Z"/><path style="--part:2" id="z23621d5" d="M560 656C570 605 580 556 589 511C594 484 594 484 597 470C599 455 606 426 625 382C627 375 624 364 611 354C590 337 570 328 554 324C543 320 535 322 530 327C524 331 522 339 528 349C538 368 542 383 542 397C540 423 539 451 537 479C534 506 534 506 533 520C528 564 522 612 516 664C513 679 557 671 560 656Z"/><path style="--part:2" id="z23621d6" d="M406 677C397 673 384 670 367 666C358 664 352 664 349 668C344 672 345 680 351 693C370 735 386 791 395 862C397 882 402 899 415 915C428 931 436 934 440 922C442 914 445 903 445 891C444 867 444 867 443 855C442 843 427 732 426 710C426 697 418 682 406 677Z"/><path style="--part:2" id="z23621d7" d="M730 822C748 758 770 719 794 701C807 690 809 672 797 662C745 618 697 613 657 630C624 643 591 650 560 656C531 661 531 661 516 664C480 670 443 673 406 677C393 679 413 710 426 710C434 710 444 708 457 706C524 694 591 685 657 673C673 669 685 670 692 678C698 684 702 694 700 708C694 748 685 786 676 820C672 838 726 840 730 822Z"/><path style="--part:2" id="z23621d8" d="M445 891C453 893 463 893 473 892C531 881 623 872 749 866C757 865 761 861 763 855C763 849 752 838 730 822C716 811 694 817 676 820C589 836 511 848 443 855C431 857 433 889 445 891Z"/></g>
<defs><clipPath id="z23621c1"><use href="#z23621d1"/></clipPath>
	<clipPath id="z23621c2"><use href="#z23621d2"/></clipPath>
	<clipPath id="z23621c3"><use href="#z23621d3"/></clipPath>
	<clipPath id="z23621c4"><use href="#z23621d4"/></clipPath>
	<clipPath id="z23621c5"><use href="#z23621d5"/></clipPath>
	<clipPath id="z23621c6"><use href="#z23621d6"/></clipPath>
	<clipPath id="z23621c7"><use href="#z23621d7"/></clipPath>
	<clipPath id="z23621c8"><use href="#z23621d8"/></clipPath><marker id="guide-arrow" viewBox="0 0 16 16" refX="5" refY="5" markerWidth="4" markerHeight="4" orient="auto-start-reverse"><path d="M 0 0 L 10 5 L 0 10 z" fill="inherit"/></marker></defs>
<g class="strokes"><path style="--part:1" pathLength="3333" clip-path="url(#z23621c1)" d="M382 146L667 103L721 151L647 259"/><path style="--part:1" pathLength="3333" clip-path="url(#z23621c2)" d="M361 325L634 270L707 276"/><path style="--part:1" pathLength="3333" clip-path="url(#z23621c3)" d="M308 114L357 174L291 505L192 728L62 888"/><path style="--part:2" pathLength="3333" clip-path="url(#z23621c4)" d="M310 525L815 461L904 479"/><path style="--part:2" pathLength="3333" clip-path="url(#z23621c5)" d="M529 331L583 384L527 668"/><path style="--part:2" pathLength="3333" clip-path="url(#z23621c6)" d="M354 677L393 709L433 920"/><path style="--part:2" pathLength="3333" clip-path="url(#z23621c7)" d="M410 684L678 647L733 663L752 690L693 831"/><path style="--part:2" pathLength="3333" clip-path="url(#z23621c8)" d="M439 871L717 841L756 853"/></g>
<g class="guides"><text class="g1" style="--gs:1" x="382" y="146">①</text><path class="g1 aligned" style="--gs:1" d="M382,146 Q667,103 680.5,115 Q721,151 702.5,178 Q665.5,232 647,259"/><path class="g1 offset" style="--gs:1" d="M382,242 Q564.43,199 573.08,211 Q599,247 587.16,274 Q563.47,328 551.63,355"/><text class="g2" style="--gs:2" x="361" y="325">②</text><path class="g2 aligned" style="--gs:2" d="M361,325 Q634,270 643.13,270.75 Q697.88,275.25 707,276"/><path class="g2 offset" style="--gs:2" d="M361,421 Q634,366 643.13,366.75 Q697.88,371.25 707,372"/><text class="g3" style="--gs:3" x="308" y="114">③</text><path class="g3 aligned" style="--gs:3" d="M308,114 Q357,174 324,339.5 Q291,505 241.5,616.5 Q192,728 127,808 Q127,808 62,888"/><path class="g3 offset" style="--gs:3" d="M212,114 Q245.05,166.56 222.79,311.53 Q200.53,456.5 167.14,554.17 Q133.75,651.84 89.9,721.92 Q89.9,721.92 46.05,792"/><text class="g4" style="--gs:4" x="310" y="525">④</text><path class="g4 aligned" style="--gs:4" d="M310,525 Q815,461 826.13,463.25 Q892.88,476.75 904,479"/><path class="g4 offset" style="--gs:4" d="M310,621 Q815,557 826.13,559.25 Q892.88,572.75 904,575"/><text class="g5" style="--gs:5" x="529" y="331">⑤</text><path class="g5 aligned" style="--gs:5" d="M529,331 Q583,384 576,419.5 Q534,632.5 527,668"/><path class="g5 offset" style="--gs:5" d="M433,331 Q487,384 480,419.5 Q438,632.5 431,668"/><text class="g6" style="--gs:6" x="354" y="677">⑥</text><path class="g6 aligned" style="--gs:6" d="M354,677 Q393,709 398,735.38 Q428,893.63 433,920"/><path class="g6 offset" style="--gs:6" d="M439.68,608.46 Q478.68,640.46 483.68,666.83 Q513.68,825.08 518.68,851.46"/><text class="g7" style="--gs:7" x="410" y="684">⑦</text><path class="g7 aligned" style="--gs:7" d="M410,684 Q678,647 705.5,655 Q733,663 742.5,676.5 Q752,690 722.5,760.5 Q722.5,760.5 693,831"/><path class="g7 offset" style="--gs:7" d="M410,780 Q583.96,743 601.82,751 Q619.67,759 625.83,761.75 Q632,764.5 612.85,799.75 Q612.85,799.75 593.7,835"/><text class="g8" style="--gs:8" x="439" y="871">⑧</text><path class="g8 aligned" style="--gs:8" d="M439,871 L737,847"/><path class="g8 offset" style="--gs:8" d="M439,967 L737,943"/></g>
<g class="parts"><rect data-part="1" data-literal="尸" data-radical="true" role="button" tabindex="0" aria-label="Part 尸 (radical)" x="0" y="31" width="793" height="929"/><rect data-part="2" data-literal="古" role="button" tabindex="0" aria-label="Part 古" x="238" y="259" width="738" height="733"/></g>
</svg>
