<svg id="z23653" class="acjk" viewBox="0 0 1024 1024" xmlns="http://www.w3.org/2000/svg">
<style>

@keyframes zk {
	to {
		stroke-dashoffset:0;
	}
}
svg.acjk path[clip-path] {
	--t:0.8s;
	animation:zk var(--t) linear forwards var(--d);
	stroke-dasharray:3337;
	stroke-dashoffset:3339;
	stroke-width:128;
	stroke-linecap:round;
	fill:none;
	stroke:#000;
}
svg.acjk path[id] {fill:#ccc;}


    @keyframes guide-fade {
        0% { opacity: 0; }
        3% { opacity: 1; }
        95% { opacity: 1; }
        100% { opacity: 0; }
    }

    svg.acjk #guide-arrow {
        fill: #f77;
    }

    svg.acjk .guides {
        circle {
            fill: #0f6;
        }

        path {
            opacity: 0;
            animation: guide-fade var(--t) linear forwards var(--d);
            stroke-width: 16px;
            stroke-linecap: round;
            stroke: #f77;
            fill: none;
            marker-end: url(#guide-arrow);
        }

        circle,
        path {
            --t: 0.8s;
            opacity: 0;
            animation: guide-fade calc(var(--t) + 0.4s) ease-in-out forwards calc(var(--d) - 0.2s);
        }
    }
</style>
<path id="z23653d1" d="M705 187C719 162 735 149 751 139C765 129 765 113 755 102C745 91 721 77 686 60C674 53 660 52 646 58C567 87 463 112 335 129C323 131 341 164 354 162C376 161 539 125 615 110C635 105 649 107 657 115C661 119 662 125 661 133C657 149 652 166 648 182C644 201 694 202 705 187Z"/>
<path id="z23653d2" d="M329 275C339 281 350 282 363 279C437 259 555 238 716 219C722 218 727 215 728 209C728 204 720 197 705 187C689 177 667 179 648 182C531 212 426 235 333 249C324 251 321 271 329 275Z"/>
<path id="z23653d3" d="M335 129C326 121 314 115 302 108C288 100 277 95 268 100C259 103 255 113 261 123C271 140 276 191 271 257C261 381 236 491 197 585C166 658 117 740 53 832C49 837 45 840 44 845C41 852 45 856 53 855C73 851 114 811 173 733C189 711 204 686 218 658C273 546 306 419 329 275C332 258 332 258 333 249C335 236 346 184 354 162C359 150 345 137 335 129Z"/>
<path id="z23653d4" d="M395 343C389 353 365 389 325 453C319 461 323 466 331 462C345 453 377 422 431 373C440 364 449 356 461 349C471 342 473 334 466 327C458 318 447 312 434 307C421 302 411 301 405 302C398 303 397 306 400 314C403 322 401 332 395 343Z"/>
<path id="z23653d5" d="M357 615C377 595 399 571 421 544C434 526 446 513 457 505C462 500 463 494 462 486C461 479 454 468 440 455C427 443 416 437 406 437C396 436 391 443 395 455C398 467 398 479 393 491C362 550 312 617 240 688C234 693 230 696 229 700C226 706 228 708 236 708C252 706 285 684 332 639C349 623 349 623 357 615Z"/>
<path id="z23653d6" d="M332 639C352 683 350 754 325 852C317 878 324 909 345 935C351 942 362 940 374 928C390 910 385 880 386 853C387 762 391 706 397 687C401 670 399 661 395 654C384 636 371 627 357 615C348 608 328 628 332 639Z"/>
<path id="z23653d7" d="M534 401C552 384 583 348 594 332C603 319 603 319 607 312C617 295 626 284 632 278C637 270 637 263 635 259C631 252 623 248 608 246C591 243 580 244 574 246C569 247 567 251 567 260C567 296 535 352 470 429C460 440 462 442 477 438C489 434 503 427 519 414C529 405 529 405 534 401Z"/>
<path id="z23653d8" d="M594 332C612 342 644 343 692 333C722 326 754 318 787 311C803 307 813 302 816 300C820 295 821 290 819 286C814 279 803 274 787 271C770 268 753 271 736 278C717 285 659 303 607 312C599 314 587 328 594 332Z"/>
<path id="z23653d9" d="M566 410C561 407 550 404 534 401C528 400 516 408 519 414C539 450 547 491 553 543C554 558 558 571 567 582C576 593 581 596 585 588C585 587 585 586 586 585C587 577 588 570 589 563C589 562 588 543 583 507C581 493 581 493 580 486C576 463 575 447 575 437C575 428 575 414 566 410Z"/>
<path id="z23653d10" d="M706 570C714 578 721 585 729 590C735 593 742 590 750 578C756 567 765 532 778 474C781 457 790 441 803 428C809 421 810 414 804 407C795 398 779 386 756 373C740 364 711 375 566 410C557 412 566 440 575 437C605 428 647 418 701 409C713 406 721 407 725 412C731 418 733 425 733 432C726 490 718 525 710 538C704 547 698 562 706 570Z"/>
<path id="z23653d11" d="M583 507C585 506 622 500 694 487C706 484 709 479 705 474C699 467 689 461 676 460C666 458 634 468 580 486C573 489 576 508 583 507Z"/>
<path id="z23653d12" d="M586 585Q590 585 596 585Q657 575 706 570C717 568 721 540 710 538Q692 535 663 543Q623 553 589 563C582 566 579 585 586 585Z"/>
<path id="z23653d13" d="M615 644C629 621 586 606 564 604C558 603 555 608 555 616C552 666 519 714 454 761C438 772 425 779 418 787C412 792 414 796 422 796C430 796 442 793 456 787C498 766 532 739 562 710C571 701 571 701 576 696C585 686 593 679 599 670C610 653 610 653 615 644Z"/>
<path id="z23653d14" d="M705 786C722 763 738 737 754 708C762 692 773 679 787 671C799 663 801 654 795 646C788 637 776 629 759 621C746 614 731 615 714 621C700 625 684 630 666 635C652 638 635 640 615 644C605 646 589 668 599 670C617 674 639 675 662 669C681 663 691 656 695 657C707 659 710 667 706 680C695 711 683 740 667 763C659 772 652 782 644 791C602 832 537 862 449 882C440 884 439 887 446 893C448 895 463 895 491 894C523 892 559 882 598 866C626 853 653 839 675 819C685 808 695 797 705 786Z"/>
<path id="z23653d15" d="M675 819C738 875 779 912 805 914C857 917 907 907 955 895C965 892 972 889 973 886C974 882 969 878 960 876C929 867 895 859 860 850C819 839 778 830 705 786C680 771 680 771 667 763C656 756 588 704 576 696C571 692 559 704 562 710C564 716 591 743 644 791C665 810 665 810 675 819Z"/>
<defs>
	<clipPath id="z23653c1"><use href="#z23653d1"/></clipPath>
	<clipPath id="z23653c2"><use href="#z23653d2"/></clipPath>
	<clipPath id="z23653c3"><use href="#z23653d3"/></clipPath>
	<clipPath id="z23653c4"><use href="#z23653d4"/></clipPath>
	<clipPath id="z23653c5"><use href="#z23653d5"/></clipPath>
	<clipPath id="z23653c6"><use href="#z23653d6"/></clipPath>
	<clipPath id="z23653c7"><use href="#z23653d7"/></clipPath>
	<clipPath id="z23653c8"><use href="#z23653d8"/></clipPath>
	<clipPath id="z23653c9"><use href="#z23653d9"/></clipPath>
	<clipPath id="z23653c10"><use href="#z23653d10"/></clipPath>
	<clipPath id="z23653c11"><use href="#z23653d11"/></clipPath>
	<clipPath id="z23653c12"><use href="#z23653d12"/></clipPath>
	<clipPath id="z23653c13"><use href="#z23653d13"/></clipPath>
	<clipPath id="z23653c14"><use href="#z23653d14"/></clipPath>
	<clipPath id="z23653c15"><use href="#z23653d15"/></clipPath>
<marker id="guide-arrow" viewBox="0 0 16 16" refX="5" refY="5" markerWidth="4" markerHeight="4" orient="auto-start-reverse"><path d="M 0 0 L 10 5 L 0 10 z" fill="inherit"/></marker></defs>
<path style="--d:1s;" pathLength="3333" clip-path="url(#z23653c1)" d="M343 131L368 142L651 82L710 123L665 183"/>
<path style="--d:2s;" pathLength="3333" clip-path="url(#z23653c2)" d="M333 268L722 204"/>
<path style="--d:3s;" pathLength="3333" clip-path="url(#z23653c3)" d="M265 106L314 167L250 509L156 716L49 848"/>
<path style="--d:4s;" pathLength="3333" clip-path="url(#z23653c4)" d="M407 307L432 341L329 455"/>
<path style="--d:5s;" pathLength="3333" clip-path="url(#z23653c5)" d="M403 446L425 497L234 702"/>
<path style="--d:6s;" pathLength="3333" clip-path="url(#z23653c6)" d="M356 626L371 669L357 938"/>
<path style="--d:7s;" pathLength="3333" clip-path="url(#z23653c7)" d="M581 253L601 275L560 342L471 433"/>
<path style="--d:8s;" pathLength="3333" clip-path="url(#z23653c8)" d="M601 329L814 288"/>
<path style="--d:9s;" pathLength="3333" clip-path="url(#z23653c9)" d="M526 414L553 441L576 587"/>
<path style="--d:10s;" pathLength="3333" clip-path="url(#z23653c10)" d="M572 415L724 392L767 415L724 584"/>
<path style="--d:11s;" pathLength="3333" clip-path="url(#z23653c11)" d="M583 498L698 478"/>
<path style="--d:12s;" pathLength="3333" clip-path="url(#z23653c12)" d="M592 579L707 557"/>
<path style="--d:13s;" pathLength="3333" clip-path="url(#z23653c13)" d="M566 608L582 643L565 673L426 790"/>
<path style="--d:14s;" pathLength="3333" clip-path="url(#z23653c14)" d="M607 665L703 640L752 658L687 773L583 854L450 886"/>
<path style="--d:15s;" pathLength="3333" clip-path="url(#z23653c15)" d="M569 710L805 873L966 883"/>
<g class="guides"><circle style="--d: 1s" class="g1" cx="356" cy="137" r="16"/><path style="--d: 1s;" class="g1" d="M356,233 Q573.5,178 584.375,188.25 Q617,219 608.7055084745763,234 Q592.1165254237288,264 583.8220338983051,279"/><circle style="--d: 2s" class="g2" cx="333" cy="268" r="16"/><path style="--d: 2s;" class="g2" d="M333,364 L722,300"/><circle style="--d: 3s" class="g3" cx="265" cy="106" r="16"/><path style="--d: 3s;" class="g3" d="M169,106 Q200.24905660377357,159.1078167115903 179.84150943396224,307.9838274932614 Q159.43396226415095,456.8598382749326 129.46037735849058,546.9690026954178 Q99.48679245283017,637.0781671159029 65.36792452830187,694.5390835579515 Q65.36792452830187,694.5390835579515 31.24905660377358,752"/><circle style="--d: 4s" class="g4" cx="407" cy="307" r="16"/><path style="--d: 4s;" class="g4" d="M311,307 Q323.5,324 317.0625,331.125 Q278.4375,373.875 272,381"/><circle style="--d: 5s" class="g5" cx="403" cy="446" r="16"/><path style="--d: 5s;" class="g5" d="M307,446 Q318,477.875 306.0625,493.890625 Q234.4375,589.984375 222.5,606"/><circle style="--d: 6s" class="g6" cx="356" cy="626" r="16"/><path style="--d: 6s;" class="g6" d="M476,626 Q491,669 489.25,702.625 Q478.75,904.375 477,938"/><circle style="--d: 7s" class="g7" cx="591" cy="264" r="16"/><path style="--d: 7s;" class="g7" d="M495,264 Q479.5,303 473.9375,308.6875 Q440.5625,342.8125 435,348.5"/><circle style="--d: 8s" class="g8" cx="601" cy="329" r="16"/><path style="--d: 8s;" class="g8" d="M601,425 L814,384"/><circle style="--d: 9s" class="g9" cx="540" cy="428" r="16"/><path style="--d: 9s;" class="g9" d="M660,428 L696,587"/><circle style="--d: 10s" class="g10" cx="572" cy="415" r="16"/><path style="--d: 10s;" class="g10" d="M572,511 Q648,488 653.375,493.75 Q669.5,511 664.125,529.25 Q653.375,565.75 648,584"/><circle style="--d: 11s" class="g11" cx="583" cy="498" r="16"/><path style="--d: 11s;" class="g11" d="M583,594 L698,574"/><circle style="--d: 12s" class="g12" cx="592" cy="579" r="16"/><path style="--d: 12s;" class="g12" d="M592,675 L707,653"/><circle style="--d: 13s" class="g13" cx="574" cy="626" r="16"/><path style="--d: 13s;" class="g13" d="M478,626 Q473.5,649.5 464.8125,656.8125 Q412.6875,700.6875 404,708"/><circle style="--d: 14s" class="g14" cx="607" cy="665" r="16"/><path style="--d: 14s;" class="g14" d="M511,761 Q576.4834437086092,748.5 593.1953642384105,753 Q609.9072847682119,757.5 587.7384105960265,786.25 Q565.5695364238411,815 530.0993377483444,835.25 Q494.6291390728477,855.5 449.2682119205298,863.5 Q449.2682119205298,863.5 403.9072847682119,871.5"/><circle style="--d: 15s" class="g15" cx="569" cy="710" r="16"/><path style="--d: 15s;" class="g15" d="M654.68,641.456 Q839.7468010075567,778.5870520231214 855.5284508816121,779.6386705202312 Q950.2183501259445,785.9483815028901 966,787"/></g></svg>