<svg id="z23721" class="acjk" viewBox="0 0 1024 1024" xmlns="http://www.w3.org/2000/svg">
<style>

@keyframes zk {
	to {
		stroke-dashoffset:0;
	}
}
svg.acjk path[clip-path] {
	--t:0.8s;
	animation:zk var(--t) linear forwards var(--d);
	stroke-dasharray:3337;
	stroke-dashoffset:3339;
	stroke-width:128;
	stroke-linecap:round;
	fill:none;
	stroke:#000;
}
svg.acjk path[id] {fill:#ccc;}


    @keyframes guide-fade {
        0% { opacity: 0; }
        3% { opacity: 1; }
        95% { opacity: 1; }
        100% { opacity: 0; }
    }

    svg.acjk #guide-arrow {
        fill: #f77;
    }

    svg.acjk .guides {
        circle {
            fill: #0f6;
        }

        path {
            opacity: 0;
            animation: guide-fade var(--t) linear forwards var(--d);
            stroke-width: 16px;
            stroke-linecap: round;
            stroke: #f77;
            fill: none;
            marker-end: url(#guide-arrow);
        }

        circle,
        path {
            --t: 0.8s;
            opacity: 0;
            animation: guide-fade calc(var(--t) + 0.4s) ease-in-out forwards calc(var(--d) - 0.2s);
        }
    }
</style>
<path id="z23721d1" d="M544 265C546 246 555 190 576 98C577 90 574 81 561 72C539 57 519 50 504 47C493 44 485 46 480 52C475 56 474 64 480 74C492 94 500 160 500 273C500 288 541 280 544 265Z"/>
<path id="z23721d2" d="M717 242C654 246 596 255 544 265C515 270 515 270 500 273C444 283 392 293 346 307C333 310 330 304 333 289C342 234 344 201 338 194C316 166 295 155 280 159C273 160 272 169 277 181C287 209 290 237 286 265C281 291 274 311 263 322C251 333 246 343 252 352C258 362 267 371 278 378C286 383 295 383 301 378C316 362 369 343 464 318C580 287 661 272 708 278C720 280 729 242 717 242Z"/>
<path id="z23721d3" d="M708 278C708 296 709 311 713 324C716 336 723 339 733 333C752 320 764 284 783 230C794 197 810 182 815 177C822 168 824 157 818 148C808 134 792 120 773 103C766 97 758 95 748 98C743 99 738 104 740 114C741 121 747 144 742 184C738 208 727 227 717 242C711 253 708 266 708 278Z"/>
<path id="z23721d4" d="M425 483C483 475 620 460 841 460C855 460 863 457 867 451C871 442 867 432 855 423C811 388 777 387 746 394C575 430 383 449 173 476C158 477 156 485 168 497C177 507 189 514 202 518C216 522 229 521 242 518C282 506 326 496 374 490C408 485 408 485 425 483Z"/>
<path id="z23721d5" d="M367 637C423 570 444 541 447 530C447 526 444 517 443 514C436 499 431 491 425 483C415 469 374 473 374 490C376 536 329 610 232 713C213 732 130 812 73 855C68 858 64 861 64 867C63 871 66 873 70 873C122 865 296 719 332 678C355 651 355 651 367 637Z"/>
<path id="z23721d6" d="M393 648C385 642 379 640 367 637C349 633 325 661 332 678C348 720 361 773 369 838C371 860 378 879 391 895C404 911 412 914 416 902C419 892 420 879 421 865C418 839 418 839 417 826C406 755 400 707 398 682C398 671 402 655 393 648Z"/>
<path id="z23721d7" d="M707 793C727 732 751 695 774 677C788 665 789 647 777 635C765 623 738 609 699 590C686 583 671 583 654 590C585 616 498 635 393 648C382 650 387 682 398 682C408 682 420 679 433 677C499 663 565 654 630 642C646 638 658 639 665 647C671 653 674 664 672 678C664 720 655 759 645 793C637 812 699 812 707 793Z"/>
<path id="z23721d8" d="M421 865C490 857 594 844 728 838C736 837 742 833 742 827C741 816 728 800 707 793C688 785 665 789 645 793C560 807 484 818 417 826C404 829 408 868 421 865Z"/>
<defs>
	<clipPath id="z23721c1"><use href="#z23721d1"/></clipPath>
	<clipPath id="z23721c2"><use href="#z23721d2"/></clipPath>
	<clipPath id="z23721c3"><use href="#z23721d3"/></clipPath>
	<clipPath id="z23721c4"><use href="#z23721d4"/></clipPath>
	<clipPath id="z23721c5"><use href="#z23721d5"/></clipPath>
	<clipPath id="z23721c6"><use href="#z23721d6"/></clipPath>
	<clipPath id="z23721c7"><use href="#z23721d7"/></clipPath>
	<clipPath id="z23721c8"><use href="#z23721d8"/></clipPath>
<marker id="guide-arrow" viewBox="0 0 16 16" refX="5" refY="5" markerWidth="4" markerHeight="4" orient="auto-start-reverse"><path d="M 0 0 L 10 5 L 0 10 z" fill="inherit"/></marker></defs>
<path style="--d:1s;" pathLength="3333" clip-path="url(#z23721c1)" d="M486 56L535 107L513 270"/>
<path style="--d:2s;" pathLength="3333" clip-path="url(#z23721c2)" d="M283 164L312 209L291 324L306 340L709 248"/>
<path style="--d:3s;" pathLength="3333" clip-path="url(#z23721c3)" d="M748 104L782 161L730 332"/>
<path style="--d:4s;" pathLength="3333" clip-path="url(#z23721c4)" d="M170 485L224 495L775 423L864 443"/>
<path style="--d:5s;" pathLength="3333" clip-path="url(#z23721c5)" d="M380 494L405 533L322 650L72 866"/>
<path style="--d:6s;" pathLength="3333" clip-path="url(#z23721c6)" d="M369 643L408 903"/>
<path style="--d:7s;" pathLength="3333" clip-path="url(#z23721c7)" d="M399 651L681 617L730 662L678 786L657 791"/>
<path style="--d:8s;" pathLength="3333" clip-path="url(#z23721c8)" d="M424 835L734 818"/>
<g class="guides"><circle style="--d: 1s" class="g1" cx="486" cy="56" r="16"/><path style="--d: 1s;" class="g1" d="M390,56 Q439,107 436.25,127.375 Q419.75,249.625 417,270"/><circle style="--d: 2s" class="g2" cx="283" cy="164" r="16"/><path style="--d: 2s;" class="g2" d="M368.68,95.456 Q391.847323943662,133.43599999999998 383.4591549295775,181.966 Q375.07098591549294,230.49600000000004 381.0625352112676,237.24800000000002 Q387.05408450704226,244 548.0270422535211,205.176 Q548.0270422535211,205.176 708.9999999999999,166.35199999999998"/><circle style="--d: 3s" class="g3" cx="748" cy="104" r="16"/><path style="--d: 3s;" class="g3" d="M652,104 Q686,161 679.5,182.375 Q640.5,310.625 634,332"/><circle style="--d: 4s" class="g4" cx="170" cy="485" r="16"/><path style="--d: 4s;" class="g4" d="M170,581 Q224,591 361.75,573 Q775,519 797.25,524 Q841.75,534 864,539"/><circle style="--d: 5s" class="g5" cx="380" cy="494" r="16"/><path style="--d: 5s;" class="g5" d="M284,494 Q301.7927927927928,522.9354838709677 287.02477477477476,544.6370967741935 Q242.7207207207207,609.741935483871 198.23873873873873,649.8064516129032 Q109.27477477477477,729.9354838709678 64.7927927927928,770"/><circle style="--d: 6s" class="g6" cx="369" cy="643" r="16"/><path style="--d: 6s;" class="g6" d="M489,643 L528,903"/><circle style="--d: 7s" class="g7" cx="399" cy="651" r="16"/><path style="--d: 7s;" class="g7" d="M399,747 Q578.7643504531723,713 586.5732628398791,718.625 Q610,735.5 600.1193353474321,751.375 Q580.358006042296,783.125 570.477341389728,799"/><circle style="--d: 8s" class="g8" cx="424" cy="835" r="16"/><path style="--d: 8s;" class="g8" d="M424,931 L734,914"/></g></svg>