<svg id="z23798" class="acjk" viewBox="0 0 1024 1024" xmlns="http://www.w3.org/2000/svg">
<style>

@keyframes zk {
	to {
		stroke-dashoffset:0;
	}
}
svg.acjk path[clip-path] {
	--t:0.8s;
	animation:zk var(--t) linear forwards var(--d);
	stroke-dasharray:3337;
	stroke-dashoffset:3339;
	stroke-width:128;
	stroke-linecap:round;
	fill:none;
	stroke:#000;
}
svg.acjk path[id] {fill:#ccc;}


    @keyframes guide-fade {
        0% { opacity: 0; }
        3% { opacity: 1; }
        95% { opacity: 1; }
        100% { opacity: 0; }
    }

    svg.acjk #guide-arrow {
        fill: #f77;
    }

    svg.acjk .guides {
        circle {
            fill: #0f6;
        }

        path {
            opacity: 0;
            animation: guide-fade var(--t) linear forwards var(--d);
            stroke-width: 16px;
            stroke-linecap: round;
            stroke: #f77;
            fill: none;
            marker-end: url(#guide-arrow);
        }

        circle,
        path {
            --t: 0.8s;
            opacity: 0;
            animation: guide-fade calc(var(--t) + 0.4s) ease-in-out forwards calc(var(--d) - 0.2s);
        }
    }
</style>
<path id="z23798d1" d="M413 196C449 164 481 134 504 114C516 103 527 90 543 81C555 72 558 62 549 52C538 40 523 32 505 26C487 19 474 18 466 21C457 24 456 28 460 38C465 51 450 91 415 154C408 166 392 193 388 203C385 211 406 201 413 196Z"/>
<path id="z23798d2" d="M359 484C359 467 358 448 360 426C361 406 360 408 360 400C360 393 360 386 361 378C361 361 363 346 364 332C364 332 365 314 366 305C368 269 372 248 377 244C377 243 377 242 378 241C384 231 374 215 366 207C347 188 328 178 308 178C300 177 294 181 293 188C291 194 296 199 300 205C325 244 328 360 311 548C309 566 307 573 305 584C303 589 303 593 304 598C305 604 308 610 317 618C327 626 334 632 339 632C345 631 354 625 355 615C358 588 358 588 359 575C360 560 359 530 359 510C359 493 359 493 359 484Z"/>
<path id="z23798d3" d="M594 379C598 387 604 391 612 391C622 390 629 383 637 374C642 366 656 349 670 315C684 278 702 249 730 229C744 218 746 206 735 195C722 182 698 164 663 146C637 132 608 143 569 155C545 161 496 172 413 196C396 201 396 201 388 203C379 205 373 205 366 207C354 209 366 243 378 241C382 241 389 238 395 236C435 220 500 203 593 185C609 181 622 180 627 185C636 194 636 199 633 217C625 253 609 295 593 343C589 354 587 369 594 379Z"/>
<path id="z23798d4" d="M364 332C390 332 428 327 479 316C519 306 539 299 540 299C544 294 546 289 543 285C538 278 528 274 513 271C505 269 472 277 415 294C400 298 384 301 366 305C357 307 355 332 364 332Z"/>
<path id="z23798d5" d="M360 426C368 426 378 426 390 424C466 406 534 391 594 379C606 377 605 345 593 343C592 342 591 342 591 342C577 341 500 360 360 400C352 403 351 426 360 426Z"/>
<path id="z23798d6" d="M359 510C385 512 416 514 449 508C553 487 607 471 611 468C616 463 617 458 615 454C610 447 599 441 583 438C566 434 549 437 532 444C507 453 481 461 453 468C424 475 393 480 359 484C350 485 350 510 359 510Z"/>
<path id="z23798d7" d="M823 500C814 500 767 509 737 513C621 524 530 544 431 564C403 569 380 573 359 575C346 578 342 618 355 615C390 605 458 591 576 571C692 550 762 547 787 562C797 568 800 578 800 593C799 601 796 649 783 735C774 786 760 819 752 839C743 858 731 870 710 869C690 867 672 866 655 863C640 860 634 858 632 863C629 866 636 870 647 880C695 924 717 956 723 972C725 978 731 982 740 983C752 983 770 972 793 947C815 922 828 894 833 864C862 683 885 588 900 578C907 572 909 566 909 561C909 555 839 500 823 500Z"/>
<path id="z23798d8" d="M444 788C456 720 464 679 470 665C472 659 468 651 457 644C438 632 422 626 410 623C401 620 394 622 390 627C385 631 384 637 390 645C399 659 405 709 407 795C407 808 442 800 444 788Z"/>
<path id="z23798d9" d="M568 769C524 773 482 780 444 788C419 793 419 793 407 795C365 802 326 812 291 823C281 826 278 820 281 808C294 751 298 716 292 706C284 694 272 684 259 675C252 670 245 668 239 670C232 671 230 680 235 692C245 722 246 750 240 779C234 805 226 824 213 837C202 847 198 857 203 866C208 875 217 883 228 890C235 895 243 896 249 891C262 877 306 860 382 838C474 810 536 798 568 802C579 804 579 769 568 769Z"/>
<path id="z23798d10" d="M568 802C568 818 575 834 592 851C598 857 606 857 611 849C618 836 621 809 618 740C617 728 619 715 621 704C623 689 618 679 605 673C594 667 583 661 572 658C563 655 556 656 551 661C546 665 544 673 549 682C559 704 567 744 568 769C568 791 568 791 568 802Z"/>
<defs>
	<clipPath id="z23798c1"><use href="#z23798d1"/></clipPath>
	<clipPath id="z23798c2"><use href="#z23798d2"/></clipPath>
	<clipPath id="z23798c3"><use href="#z23798d3"/></clipPath>
	<clipPath id="z23798c4"><use href="#z23798d4"/></clipPath>
	<clipPath id="z23798c5"><use href="#z23798d5"/></clipPath>
	<clipPath id="z23798c6"><use href="#z23798d6"/></clipPath>
	<clipPath id="z23798c7"><use href="#z23798d7"/></clipPath>
	<clipPath id="z23798c8"><use href="#z23798d8"/></clipPath>
	<clipPath id="z23798c9"><use href="#z23798d9"/></clipPath>
	<clipPath id="z23798c10"><use href="#z23798d10"/></clipPath>
<marker id="guide-arrow" viewBox="0 0 16 16" refX="5" refY="5" markerWidth="4" markerHeight="4" orient="auto-start-reverse"><path d="M 0 0 L 10 5 L 0 10 z" fill="inherit"/></marker></defs>
<path style="--d:1s;" pathLength="3333" clip-path="url(#z23798c1)" d="M467 28L503 70L403 194"/>
<path style="--d:2s;" pathLength="3333" clip-path="url(#z23798c2)" d="M301 186L346 248L339 628"/>
<path style="--d:3s;" pathLength="3333" clip-path="url(#z23798c3)" d="M373 211L607 164L660 175L688 215L605 384"/>
<path style="--d:4s;" pathLength="3333" clip-path="url(#z23798c4)" d="M370 324L540 287"/>
<path style="--d:5s;" pathLength="3333" clip-path="url(#z23798c5)" d="M367 418L593 356"/>
<path style="--d:6s;" pathLength="3333" clip-path="url(#z23798c6)" d="M367 503L610 458"/>
<path style="--d:7s;" pathLength="3333" clip-path="url(#z23798c7)" d="M364 609L403 582L641 541L796 531L845 560L781 882L731 930L637 869"/>
<path style="--d:8s;" pathLength="3333" clip-path="url(#z23798c8)" d="M394 629L435 671L425 791"/>
<path style="--d:9s;" pathLength="3333" clip-path="url(#z23798c9)" d="M243 674L269 726L244 841L258 857L565 789"/>
<path style="--d:10s;" pathLength="3333" clip-path="url(#z23798c10)" d="M555 665L588 700L597 851"/>
<g class="guides"><circle style="--d: 1s" class="g1" cx="467" cy="28" r="16"/><path style="--d: 1s;" class="g1" d="M371,28 Q389,49 382.75,56.75 Q345.25,103.25 339,111"/><circle style="--d: 2s" class="g2" cx="301" cy="186" r="16"/><path style="--d: 2s;" class="g2" d="M205,186 Q250,248 249.125,295.5 Q243.875,580.5 243,628"/><circle style="--d: 3s" class="g3" cx="373" cy="211" r="16"/><path style="--d: 3s;" class="g3" d="M373,307 Q517.8571428571429,260 534.2619047619048,265.5 Q550.6666666666666,271 559.3333333333333,279.8727272727273 Q568,288.74545454545455 542.3095238095239,336.3727272727273 Q542.3095238095239,336.3727272727273 516.6190476190476,384"/><circle style="--d: 4s" class="g4" cx="370" cy="324" r="16"/><path style="--d: 4s;" class="g4" d="M370,420 L540,383"/><circle style="--d: 5s" class="g5" cx="367" cy="418" r="16"/><path style="--d: 5s;" class="g5" d="M367,514 L593,452"/><circle style="--d: 6s" class="g6" cx="367" cy="503" r="16"/><path style="--d: 6s;" class="g6" d="M367,599 L610,554"/><circle style="--d: 7s" class="g7" cx="364" cy="609" r="16"/><path style="--d: 7s;" class="g7" d="M278.32,677.544 Q317.32,650.544 436.32000000000005,630.044 Q555.32,609.544 632.82,604.544 Q710.32,599.544 734.82,614.044 Q759.32,628.544 727.32,717.1693834586466 Q695.32,805.7947669172933 670.32,819.8973834586466 Q645.32,834 598.32,816.07792481203 Q598.32,816.07792481203 551.32,798.1558496240601"/><circle style="--d: 8s" class="g8" cx="394" cy="629" r="16"/><path style="--d: 8s;" class="g8" d="M298,629 Q339,671 337.75,686 Q330.25,776 329,791"/><circle style="--d: 9s" class="g9" cx="243" cy="674" r="16"/><path style="--d: 9s;" class="g9" d="M363,674 Q379.3105590062112,700 371.46894409937886,728.75 Q363.6273291925466,757.5 368.01863354037266,761.5 Q372.4099378881988,765.5 468.7049689440994,748.5 Q468.7049689440994,748.5 565,731.5"/><circle style="--d: 10s" class="g10" cx="555" cy="665" r="16"/><path style="--d: 10s;" class="g10" d="M640.68,596.456 Q673.68,631.456 674.805,650.331 Q681.555,763.581 682.68,782.456"/></g></svg>