<!--
  Stroke-order data for 島, derived from AnimCJK (https://github.com/parsimonhi/animCJK),
  itself derived from the Arphic PL KaitiM fonts. Distributed under the Arphic Public License
  (see ARPHICPL.TXT). Regenerated by scripts/build-strokes.ts — do not edit by hand.
-->
<svg id="z23798" class="acjk" viewBox="0 0 1024 1024" xmlns="http://www.w3.org/2000/svg">
<g class="glyph"><path style="--part:1" id="z23798d1" d="M413 196C469 145 508 105 543 81C555 72 558 61 549 52C538 39 522 32 505 26C480 17 450 14 460 38C470 65 394 185 388 203C385 211 406 201 413 196Z"/><path style="--part:1" id="z23798d2" d="M359 484C359 467 360 441 360 426C360 409 360 409 360 400C360 377 362 354 364 332C365 314 365 314 366 305C368 269 374 251 378 241C382 230 375 215 366 207C325 166 275 167 300 205C318 233 324 302 320 410C315 539 297 576 309 612C323 653 344 641 355 615C359 602 359 596 359 575C358 553 359 523 359 510C359 493 359 493 359 484Z"/><path style="--part:1" id="z23798d3" d="M594 379C598 387 604 391 612 391C622 390 629 383 637 374C642 366 656 349 670 315C684 278 702 249 730 229C744 218 746 206 735 195C722 182 695 167 663 146C629 123 644 136 413 196C396 201 396 201 388 203C379 205 373 205 366 207C354 209 366 243 378 241C391 241 410 222 593 185C633 176 638 189 633 217C625 253 609 295 593 343C589 354 587 369 594 379Z"/><path style="--part:1" id="z23798d4" d="M364 332C414 332 519 312 540 299C555 288 536 274 513 271C486 267 476 279 366 305C357 307 355 332 364 332Z"/><path style="--part:1" id="z23798d5" d="M360 426C388 426 405 416 594 379C606 377 605 345 593 343C573 335 466 369 360 400C352 403 351 426 360 426Z"/><path style="--part:1" id="z23798d6" d="M359 510C385 512 416 514 449 508C553 487 607 471 611 468C627 452 600 441 583 438C565 434 549 437 532 444C464 469 414 477 359 484C350 485 350 510 359 510Z"/><path style="--part:1" id="z23798d7" d="M823 500C796 489 786 505 359 575C346 578 342 618 355 615C389 605 654 548 745 552C794 555 800 570 800 593C799 601 796 649 783 735C774 786 760 819 752 839C733 881 693 870 655 863C628 857 628 864 647 880C681 908 702 935 719 962C728 976 730 982 740 983C751 983 770 972 793 947C815 922 828 894 833 864C862 683 885 588 900 578C907 572 909 566 909 561C909 555 837 506 823 500Z"/><path style="--part:2" id="z23798d8" d="M444 788C470 657 483 663 457 644C439 630 421 626 410 623C394 618 379 629 390 645C399 658 405 709 407 795C407 808 442 800 444 788Z"/><path style="--part:2" id="z23798d9" d="M568 769C524 773 482 780 444 788C419 793 419 793 407 795C384 799 326 812 291 823C281 826 278 820 281 808C294 751 298 715 292 706C284 693 271 684 259 675C243 663 226 667 235 692C245 721 246 750 240 779C234 805 226 824 213 837C202 847 198 857 203 866C208 875 217 882 228 890C235 894 242 895 249 891C261 883 276 875 302 863C381 827 522 805 568 802C579 802 579 769 568 769Z"/><path style="--part:2" id="z23798d10" d="M568 802C572 820 575 834 592 851C598 857 606 857 611 849C618 836 618 787 618 748C617 727 619 715 621 704C623 689 617 679 605 673C593 667 582 661 572 658C552 651 541 666 549 682C559 703 567 744 568 769C568 791 568 791 568 802Z"/></g>
<defs><clipPath id="z23798c1"><use href="#z23798d1"/></clipPath>
	<clipPath id="z23798c2"><use href="#z23798d2"/></clipPath>
	<clipPath id="z23798c3"><use href="#z23798d3"/></clipPath>
	<clipPath id="z23798c4"><use href="#z23798d4"/></clipPath>
	<clipPath id="z23798c5"><use href="#z23798d5"/></clipPath>
	<clipPath id="z23798c6"><use href="#z23798d6"/></clipPath>
	<clipPath id="z23798c7"><use href="#z23798d7"/></clipPath>
	<clipPath id="z23798c8"><use href="#z23798d8"/></clipPath>
	<clipPath id="z23798c9"><use href="#z23798d9"/></clipPath>
	<clipPath id="z23798c10"><use href="#z23798d10"/></clipPath><marker id="guide-arrow" viewBox="0 0 16 16" refX="5" refY="5" markerWidth="4" markerHeight="4" orient="auto-start-reverse"><path d="M 0 0 L 10 5 L 0 10 z" fill="inherit"/></marker></defs>
<g class="strokes"><path style="--part:1" pathLength="3333" clip-path="url(#z23798c1)" d="M466 25L503 71L395 199"/><path style="--part:1" pathLength="3333" clip-path="url(#z23798c2)" d="M299 184L346 243L335 634"/><path style="--part:1" pathLength="3333" clip-path="url(#z23798c3)" d="M366 215L649 168L688 216L603 384"/><path style="--part:1" pathLength="3333" clip-path="url(#z23798c4)" d="M362 323L539 290"/><path style="--part:1" pathLength="3333" clip-path="url(#z23798c5)" d="M356 415L600 360"/><path style="--part:1" pathLength="3333" clip-path="url(#z23798c6)" d="M354 497L610 459"/><path style="--part:1" pathLength="3333" clip-path="url(#z23798c7)" d="M354 606L715 532L786 528L833 552L858 577L780 882L728 930L641 865"/><path style="--part:2" pathLength="3333" clip-path="url(#z23798c8)" d="M395 632L435 671L420 797"/><path style="--part:2" pathLength="3333" clip-path="url(#z23798c9)" d="M241 676L268 716L244 837L261 858L574 782"/><path style="--part:2" pathLength="3333" clip-path="url(#z23798c10)" d="M554 660L590 701L602 851"/></g>
<g class="guides"><text class="g1" style="--gs:1" x="466" y="25">①</text><path class="g1 aligned" style="--gs:1" d="M466,25 Q503,71 489.5,87 Q408.5,183 395,199"/><path class="g1 offset" style="--gs:1" d="M370,25 Q388.5,48 381.75,56 Q341.25,104 334.5,112"/><text class="g2" style="--gs:2" x="299" y="184">②</text><path class="g2 aligned" style="--gs:2" d="M299,184 Q346,243 344.63,291.88 Q336.38,585.13 335,634"/><path class="g2 offset" style="--gs:2" d="M203,184 Q250,243 248.63,291.88 Q240.38,585.13 239,634"/><text class="g3" style="--gs:3" x="366" y="215">③</text><path class="g3 aligned" style="--gs:3" d="M366,215 Q649,168 658.75,180 Q688,216 666.75,258 Q624.25,342 603,384"/><path class="g3 offset" style="--gs:3" d="M366,311 Q543.53,264 549.65,270.67 Q568,290.67 554.67,314 Q528.01,360.67 514.68,384"/><text class="g4" style="--gs:4" x="362" y="323">④</text><path class="g4 aligned" style="--gs:4" d="M362,323 L539,290"/><path class="g4 offset" style="--gs:4" d="M362,419 L539,386"/><text class="g5" style="--gs:5" x="356" y="415">⑤</text><path class="g5 aligned" style="--gs:5" d="M356,415 L600,360"/><path class="g5 offset" style="--gs:5" d="M356,511 L600,456"/><text class="g6" style="--gs:6" x="354" y="497">⑥</text><path class="g6 aligned" style="--gs:6" d="M354,497 L610,459"/><path class="g6 offset" style="--gs:6" d="M354,593 L610,555"/><text class="g7" style="--gs:7" x="354" y="606">⑦</text><path class="g7 aligned" style="--gs:7" d="M354,606 Q715,532 750.5,530 Q786,528 809.5,540 Q833,552 845.5,564.5 Q858,577 819,729.5 Q780,882 754,906 Q728,930 684.5,897.5 Q684.5,897.5 641,865"/><path class="g7 offset" style="--gs:7" d="M354,702 Q646.24,628 674.98,626 Q703.71,624 722.74,636 Q741.76,648 751.88,660.5 Q762,673 730.43,737 Q698.86,801 677.81,813 Q656.76,825 621.55,808.75 Q621.55,808.75 586.33,792.5"/><text class="g8" style="--gs:8" x="395" y="632">⑧</text><path class="g8 aligned" style="--gs:8" d="M395,632 Q435,671 433.13,686.75 Q421.88,781.25 420,797"/><path class="g8 offset" style="--gs:8" d="M299,632 Q339,671 337.13,686.75 Q325.88,781.25 324,797"/><text class="g9" style="--gs:9" x="241" y="676">⑨</text><path class="g9 aligned" style="--gs:9" d="M241,676 Q268,716 256,776.5 Q244,837 252.5,847.5 Q261,858 417.5,820 Q417.5,820 574,782"/><path class="g9 offset" style="--gs:9" d="M326.68,607.46 Q346.73,641.42 337.82,692.79 Q328.91,744.17 335.22,753.08 Q341.53,762 457.77,729.73 Q457.77,729.73 574,697.47"/><text class="g10" style="--gs:10" x="554" y="660">⑩</text><path class="g10 aligned" style="--gs:10" d="M554,660 Q590,701 591.5,719.75 Q600.5,832.25 602,851"/><path class="g10 offset" style="--gs:10" d="M639.68,591.46 Q675.68,632.46 677.18,651.21 Q686.18,763.71 687.68,782.46"/></g>
<g class="parts"><rect data-part="1" data-literal="鳥" role="button" tabindex="0" aria-label="Part 鳥" x="227" y="0" width="703" height="1002"/><rect data-part="2" data-literal="山" data-radical="true" role="button" tabindex="0" aria-label="Part 山 (radical)" x="169" y="560" width="505" height="370"/></g>
</svg>
