<svg id="z23828" class="acjk" viewBox="0 0 1024 1024" xmlns="http://www.w3.org/2000/svg">
<style>

@keyframes zk {
	to {
		stroke-dashoffset:0;
	}
}
svg.acjk path[clip-path] {
	--t:0.8s;
	animation:zk var(--t) linear forwards var(--d);
	stroke-dasharray:3337;
	stroke-dashoffset:3339;
	stroke-width:128;
	stroke-linecap:round;
	fill:none;
	stroke:#000;
}
svg.acjk path[id] {fill:#ccc;}


    @keyframes guide-fade {
        0% { opacity: 0; }
        3% { opacity: 1; }
        95% { opacity: 1; }
        100% { opacity: 0; }
    }

    svg.acjk #guide-arrow {
        fill: #f77;
    }

    svg.acjk .guides {
        circle {
            fill: #0f6;
        }

        path {
            opacity: 0;
            animation: guide-fade var(--t) linear forwards var(--d);
            stroke-width: 16px;
            stroke-linecap: round;
            stroke: #f77;
            fill: none;
            marker-end: url(#guide-arrow);
        }

        circle,
        path {
            --t: 0.8s;
            opacity: 0;
            animation: guide-fade calc(var(--t) + 0.4s) ease-in-out forwards calc(var(--d) - 0.2s);
        }
    }
</style>
<path id="z23828d1" d="M543 256C553 187 562 137 572 108C573 101 571 92 559 85C539 72 520 67 507 64C498 61 491 62 486 68C481 72 480 78 486 87C497 105 504 163 505 261C505 274 540 269 543 256Z"/>
<path id="z23828d2" d="M714 236C653 240 596 248 543 256C518 259 518 259 505 261C454 267 407 279 365 290C352 293 347 286 351 271C359 231 361 205 354 195C345 182 332 172 316 162C309 157 302 155 295 157C286 159 284 167 290 181C299 205 302 230 298 255C293 277 287 294 277 305C264 316 259 326 265 336C271 347 280 356 292 364C300 370 309 370 316 364C342 338 431 311 584 285C646 274 687 271 705 276C718 278 728 236 714 236Z"/>
<path id="z23828d3" d="M705 276C704 293 708 307 713 321C717 332 723 335 733 329C752 314 761 278 778 223C788 189 804 177 806 176C813 167 815 156 808 147C797 132 780 119 761 104C753 97 744 96 736 99C729 100 724 107 728 116C730 122 739 141 736 179C733 202 726 217 714 236C707 248 705 262 705 276Z"/>
<path id="z23828d4" d="M335 516C375 469 395 440 402 436C406 432 409 428 409 422C407 403 393 388 367 378C354 372 344 370 337 371C330 371 328 376 329 385C331 435 293 504 210 586C165 629 117 664 78 693C72 696 72 702 80 701C144 690 224 643 303 553C324 528 324 528 335 516Z"/>
<path id="z23828d5" d="M357 839C361 702 362 618 369 588C372 569 373 557 367 550C354 535 343 524 335 516C323 504 297 538 303 553C317 589 318 659 306 763C302 793 293 824 286 857C278 886 283 921 310 953C322 967 338 957 343 945C351 922 355 897 356 872C357 850 357 850 357 839Z"/>
<path id="z23828d6" d="M521 378C532 386 542 396 554 408C562 416 572 419 583 418C589 417 594 412 597 404C599 394 597 379 590 361C584 346 558 336 513 332C502 330 494 331 492 333C488 335 487 341 490 349C491 355 503 364 521 378Z"/>
<path id="z23828d7" d="M554 494C682 470 748 457 754 454C760 449 761 444 758 439C753 432 743 424 726 420C707 414 667 428 603 443C517 462 460 464 437 467C414 469 411 476 427 487C448 501 477 508 511 502C540 497 540 497 554 494Z"/>
<path id="z23828d8" d="M567 819C567 789 570 760 572 734C573 707 573 707 574 693C575 665 577 639 579 615C581 586 581 586 582 572C585 518 597 522 554 494C542 485 506 488 511 502C519 520 523 547 525 585C526 610 526 610 526 622C526 642 524 669 524 703C524 728 524 728 524 740C524 764 523 791 523 823C523 838 567 834 567 819Z"/>
<path id="z23828d9" d="M579 615C617 609 654 604 688 601C704 599 710 593 705 584C698 573 686 565 668 562C655 559 626 561 582 572C544 581 544 581 525 585C494 591 464 595 436 602C424 604 425 611 439 622C447 628 459 630 477 628C493 625 510 624 526 622C561 617 561 617 579 615Z"/>
<path id="z23828d10" d="M572 734C616 728 658 724 696 721C712 719 718 713 713 704C706 693 694 685 676 682C648 676 614 684 574 693C541 700 541 700 524 703C493 709 464 712 437 718C425 720 425 726 439 738C447 744 460 747 478 745C492 743 508 741 524 740C556 736 556 736 572 734Z"/>
<path id="z23828d11" d="M523 823C470 827 415 832 357 839C346 841 346 868 356 872C372 880 389 882 405 879C527 851 668 845 829 858C841 859 849 855 853 850C857 843 854 833 844 825C810 797 781 787 758 793C699 807 613 814 567 819C538 822 538 822 523 823Z"/>
<defs>
	<clipPath id="z23828c1"><use href="#z23828d1"/></clipPath>
	<clipPath id="z23828c2"><use href="#z23828d2"/></clipPath>
	<clipPath id="z23828c3"><use href="#z23828d3"/></clipPath>
	<clipPath id="z23828c4"><use href="#z23828d4"/></clipPath>
	<clipPath id="z23828c5"><use href="#z23828d5"/></clipPath>
	<clipPath id="z23828c6"><use href="#z23828d6"/></clipPath>
	<clipPath id="z23828c7"><use href="#z23828d7"/></clipPath>
	<clipPath id="z23828c8"><use href="#z23828d8"/></clipPath>
	<clipPath id="z23828c9"><use href="#z23828d9"/></clipPath>
	<clipPath id="z23828c10"><use href="#z23828d10"/></clipPath>
	<clipPath id="z23828c11"><use href="#z23828d11"/></clipPath>
<marker id="guide-arrow" viewBox="0 0 16 16" refX="5" refY="5" markerWidth="4" markerHeight="4" orient="auto-start-reverse"><path d="M 0 0 L 10 5 L 0 10 z" fill="inherit"/></marker></defs>
<path style="--d:1s;" pathLength="3333" clip-path="url(#z23828c1)" d="M488 69L534 115L522 266"/>
<path style="--d:2s;" pathLength="3333" clip-path="url(#z23828c2)" d="M294 162L326 204L313 312L330 328L717 249"/>
<path style="--d:3s;" pathLength="3333" clip-path="url(#z23828c3)" d="M734 106L774 163L723 326"/>
<path style="--d:4s;" pathLength="3333" clip-path="url(#z23828c4)" d="M337 378L365 426L291 531L192 629L83 694"/>
<path style="--d:5s;" pathLength="3333" clip-path="url(#z23828c5)" d="M325 518L341 574L324 956"/>
<path style="--d:6s;" pathLength="3333" clip-path="url(#z23828c6)" d="M494 337L560 372L583 414"/>
<path style="--d:7s;" pathLength="3333" clip-path="url(#z23828c7)" d="M426 477L751 443"/>
<path style="--d:8s;" pathLength="3333" clip-path="url(#z23828c8)" d="M519 500L554 536L543 830"/>
<path style="--d:9s;" pathLength="3333" clip-path="url(#z23828c9)" d="M437 610L701 586"/>
<path style="--d:10s;" pathLength="3333" clip-path="url(#z23828c10)" d="M437 726L710 709"/>
<path style="--d:11s;" pathLength="3333" clip-path="url(#z23828c11)" d="M352 853L754 823L850 841"/>
<g class="guides"><circle style="--d: 1s" class="g1" cx="488" cy="69" r="16"/><path style="--d: 1s;" class="g1" d="M392,69 Q438,115 436.5,133.875 Q427.5,247.125 426,266"/><circle style="--d: 2s" class="g2" cx="294" cy="162" r="16"/><path style="--d: 2s;" class="g2" d="M379.68,93.456 Q405.19829787234045,128.50930120481928 400.0148936170213,173.57783132530122 Q394.83148936170215,218.64636144578316 401.6097872340425,225.32318072289158 Q408.38808510638296,232 562.6940425531915,199.0332048192771 Q562.6940425531915,199.0332048192771 717,166.0664096385542"/><circle style="--d: 3s" class="g3" cx="734" cy="106" r="16"/><path style="--d: 3s;" class="g3" d="M638,106 Q678,163 671.625,183.375 Q633.375,305.625 627,326"/><circle style="--d: 4s" class="g4" cx="337" cy="378" r="16"/><path style="--d: 4s;" class="g4" d="M241,378 Q259.468085106383,411.4177215189873 235.06382978723406,447.96835443037975 Q210.6595744680851,484.5189873417722 178.01063829787233,518.632911392405 Q145.36170212765958,552.746835443038 109.41489361702128,575.373417721519 Q109.41489361702128,575.373417721519 73.46808510638297,598"/><circle style="--d: 5s" class="g5" cx="325" cy="518" r="16"/><path style="--d: 5s;" class="g5" d="M445,518 Q461,574 458.875,621.75 Q446.125,908.25 444,956"/><circle style="--d: 6s" class="g6" cx="494" cy="337" r="16"/><path style="--d: 6s;" class="g6" d="M494,433 Q527,450.5 528.4375,453.125 Q537.0625,468.875 538.5,471.5"/><circle style="--d: 7s" class="g7" cx="426" cy="477" r="16"/><path style="--d: 7s;" class="g7" d="M426,573 L751,539"/><circle style="--d: 8s" class="g8" cx="519" cy="500" r="16"/><path style="--d: 8s;" class="g8" d="M423,500 Q458,536 456.625,572.75 Q448.375,793.25 447,830"/><circle style="--d: 9s" class="g9" cx="437" cy="610" r="16"/><path style="--d: 9s;" class="g9" d="M437,706 L701,682"/><circle style="--d: 10s" class="g10" cx="437" cy="726" r="16"/><path style="--d: 10s;" class="g10" d="M437,822 L710,805"/><circle style="--d: 11s" class="g11" cx="352" cy="853" r="16"/><path style="--d: 11s;" class="g11" d="M352,949 Q754,919 766,921.25 Q838,934.75 850,937"/></g></svg>