<svg id="z23834" class="acjk" viewBox="0 0 1024 1024" xmlns="http://www.w3.org/2000/svg">
<style>

@keyframes zk {
	to {
		stroke-dashoffset:0;
	}
}
svg.acjk path[clip-path] {
	--t:0.8s;
	animation:zk var(--t) linear forwards var(--d);
	stroke-dasharray:3337;
	stroke-dashoffset:3339;
	stroke-width:128;
	stroke-linecap:round;
	fill:none;
	stroke:#000;
}
svg.acjk path[id] {fill:#ccc;}


    @keyframes guide-fade {
        0% { opacity: 0; }
        3% { opacity: 1; }
        95% { opacity: 1; }
        100% { opacity: 0; }
    }

    svg.acjk #guide-arrow {
        fill: #f77;
    }

    svg.acjk .guides {
        circle {
            fill: #0f6;
        }

        path {
            opacity: 0;
            animation: guide-fade var(--t) linear forwards var(--d);
            stroke-width: 16px;
            stroke-linecap: round;
            stroke: #f77;
            fill: none;
            marker-end: url(#guide-arrow);
        }

        circle,
        path {
            --t: 0.8s;
            opacity: 0;
            animation: guide-fade calc(var(--t) + 0.4s) ease-in-out forwards calc(var(--d) - 0.2s);
        }
    }
</style>
<path id="z23834d1" d="M253 560Q272 287 275 280Q284 238 279 231Q275 227 269 222Q235 204 213 201Q197 197 190 206Q183 213 191 227Q212 257 212 278Q219 414 213 573C213 587 253 574 253 560Z"/>
<path id="z23834d2" d="M330 539C302 545 276 552 253 560C226 569 226 569 213 573C187 581 164 589 144 598C135 601 133 596 135 587C148 501 154 457 145 445C137 433 124 424 110 416C103 412 96 410 90 412C83 414 82 422 87 434C101 470 104 507 99 544C93 578 84 603 69 619C58 629 54 640 60 648C66 657 76 664 88 671C96 675 104 674 109 669C124 649 175 622 266 592C292 582 312 578 325 576C337 574 342 537 330 539Z"/>
<path id="z23834d3" d="M325 576C325 588 330 599 335 609C338 617 344 619 351 614C365 599 371 570 378 527C386 470 396 438 402 430C406 422 407 413 401 407C391 397 377 388 361 378C354 373 347 372 341 376C336 378 332 383 336 390C348 414 350 453 337 510C336 517 334 526 332 534C327 546 324 562 325 576Z"/>
<path id="z23834d4" d="M671 284C739 269 775 260 779 258C783 253 785 247 783 243C779 235 767 228 750 225C725 219 702 230 675 238C640 247 640 247 622 252C593 259 561 261 528 266C505 268 502 277 519 287C542 300 577 303 622 294C655 287 655 287 671 284Z"/>
<path id="z23834d5" d="M661 383C663 348 668 315 671 284C674 253 674 253 675 238C679 190 685 147 697 109C699 102 694 92 681 84C659 69 639 63 624 60C613 57 605 59 600 65C595 69 593 77 600 87C611 104 618 118 619 131C620 169 622 210 622 252C622 280 622 280 622 294C622 324 621 356 620 390C620 404 661 397 661 383Z"/>
<path id="z23834d6" d="M548 436C622 418 734 406 882 406C892 406 899 403 903 398C906 392 902 383 893 376C859 351 826 351 791 358C791 358 704 375 661 383C634 388 634 388 620 390C563 399 502 407 438 417C426 418 424 423 434 433C442 441 451 446 462 449C473 451 502 446 518 443C538 438 538 438 548 436Z"/>
<path id="z23834d7" d="M523 454C523 484 487 529 424 587C420 589 417 592 417 595C417 598 418 598 421 599C449 602 482 582 540 526C550 515 561 508 571 501C575 497 576 489 574 481C568 464 559 457 550 448C542 441 522 440 523 454Z"/>
<path id="z23834d8" d="M763 532C750 525 742 518 737 507C728 486 731 472 732 451C732 435 724 432 722 417C720 409 734 409 740 409C754 409 765 414 778 421C783 424 787 432 784 438C777 450 772 468 774 480C775 490 782 500 793 504C810 510 819 510 838 507C847 505 856 501 863 494C875 480 918 502 923 514C926 522 914 525 909 528C879 538 859 544 828 545C798 545 780 542 763 532Z"/>
<path id="z23834d9" d="M632 557C629 550 620 545 608 538C596 531 585 528 578 530C573 531 565 539 564 548C552 612 469 721 354 805C342 813 344 820 360 815C446 787 534 698 549 679C561 663 561 663 567 655C581 635 601 611 615 593C623 582 640 568 632 557Z"/>
<path id="z23834d10" d="M629 763C597 801 540 854 448 885C439 887 436 891 443 896C446 899 458 900 475 897C538 881 602 856 660 800C671 788 680 775 689 762C712 722 728 685 742 650C749 630 757 615 769 604C777 595 776 585 767 577C753 566 737 558 718 550C701 542 681 560 632 557C619 557 602 590 615 593C637 596 655 593 672 592C694 590 696 600 696 616C695 660 667 703 653 730C646 741 637 752 629 763Z"/>
<path id="z23834d11" d="M549 679C565 687 588 715 629 763C650 788 650 788 660 800C689 834 730 874 786 918C802 931 827 934 853 928C887 920 917 913 943 908C951 906 958 904 966 899C971 895 968 889 961 885C951 880 910 864 835 844C788 830 739 807 689 762C665 741 665 741 653 730C635 714 617 693 598 674C588 665 579 659 567 655C558 651 541 673 549 679Z"/>
<defs>
	<clipPath id="z23834c1"><use href="#z23834d1"/></clipPath>
	<clipPath id="z23834c2"><use href="#z23834d2"/></clipPath>
	<clipPath id="z23834c3"><use href="#z23834d3"/></clipPath>
	<clipPath id="z23834c4"><use href="#z23834d4"/></clipPath>
	<clipPath id="z23834c5"><use href="#z23834d5"/></clipPath>
	<clipPath id="z23834c6"><use href="#z23834d6"/></clipPath>
	<clipPath id="z23834c7"><use href="#z23834d7"/></clipPath>
	<clipPath id="z23834c8"><use href="#z23834d8"/></clipPath>
	<clipPath id="z23834c9"><use href="#z23834d9"/></clipPath>
	<clipPath id="z23834c10"><use href="#z23834d10"/></clipPath>
	<clipPath id="z23834c11"><use href="#z23834d11"/></clipPath>
<marker id="guide-arrow" viewBox="0 0 16 16" refX="5" refY="5" markerWidth="4" markerHeight="4" orient="auto-start-reverse"><path d="M 0 0 L 10 5 L 0 10 z" fill="inherit"/></marker></defs>
<path style="--d:1s;" pathLength="3333" clip-path="url(#z23834c1)" d="M193 209L245 253L229 576"/>
<path style="--d:2s;" pathLength="3333" clip-path="url(#z23834c2)" d="M93 421L124 473L110 631L332 549"/>
<path style="--d:3s;" pathLength="3333" clip-path="url(#z23834c3)" d="M342 382L375 421L342 611"/>
<path style="--d:4s;" pathLength="3333" clip-path="url(#z23834c4)" d="M517 275L778 248"/>
<path style="--d:5s;" pathLength="3333" clip-path="url(#z23834c5)" d="M602 69L658 114L637 395"/>
<path style="--d:6s;" pathLength="3333" clip-path="url(#z23834c6)" d="M436 424L815 380L899 395"/>
<path style="--d:7s;" pathLength="3333" clip-path="url(#z23834c7)" d="M534 448L544 490L425 593"/>
<path style="--d:8s;" pathLength="3333" clip-path="url(#z23834c8)" d="M730 415L758 443L754 491L774 516L916 515"/>
<path style="--d:9s;" pathLength="3333" clip-path="url(#z23834c9)" d="M577 535L594 571L521 676L354 812"/>
<path style="--d:10s;" pathLength="3333" clip-path="url(#z23834c10)" d="M615 584L694 570L735 603L680 730L579 837L449 891"/>
<path style="--d:11s;" pathLength="3333" clip-path="url(#z23834c11)" d="M553 671L800 878L963 892"/>
<g class="guides"><circle style="--d: 1s" class="g1" cx="193" cy="209" r="16"/><path style="--d: 1s;" class="g1" d="M97,209 Q149,253 147,293.375 Q135,535.625 133,576"/><circle style="--d: 2s" class="g2" cx="93" cy="421" r="16"/><path style="--d: 2s;" class="g2" d="M178.68,352.456 Q198.56669456066945,397.6573714285714 196.32142259414226,431.99302857142857 Q189.58560669456068,535 225.1892050209205,517.1802285714286 Q296.3964016736402,481.54068571428576 332,463.72091428571434"/><circle style="--d: 3s" class="g3" cx="342" cy="382" r="16"/><path style="--d: 3s;" class="g3" d="M246,382 Q279,421 274.875,444.75 Q250.125,587.25 246,611"/><circle style="--d: 4s" class="g4" cx="517" cy="275" r="16"/><path style="--d: 4s;" class="g4" d="M517,371 L778,344"/><circle style="--d: 5s" class="g5" cx="602" cy="69" r="16"/><path style="--d: 5s;" class="g5" d="M506,69 Q562,114 559.375,149.125 Q543.625,359.875 541,395"/><circle style="--d: 6s" class="g6" cx="436" cy="424" r="16"/><path style="--d: 6s;" class="g6" d="M436,520 Q815,476 825.5,477.875 Q888.5,489.125 899,491"/><circle style="--d: 7s" class="g7" cx="534" cy="448" r="16"/><path style="--d: 7s;" class="g7" d="M438,448 Q443,469 435.5625,475.4375 Q390.9375,514.0625 383.5,520.5"/><circle style="--d: 8s" class="g8" cx="744" cy="429" r="16"/><path style="--d: 8s;" class="g8" d="M864,429 Q869,460 871.5,463.125 Q879,472.5 896.75,472.375 Q932.25,472.125 950,472"/><circle style="--d: 9s" class="g9" cx="586" cy="553" r="16"/><path style="--d: 9s;" class="g9" d="M490,553 Q457.5,630.4092664092664 447.0625,641.1081081081081 Q384.4375,705.3011583011582 374,716"/><circle style="--d: 10s" class="g10" cx="615" cy="584" r="16"/><path style="--d: 10s;" class="g10" d="M519,680 Q571.4825174825174,673 585.1013986013986,681.25 Q598.7202797202797,689.5 580.451048951049,721.25 Q562.1818181818181,753 528.6328671328671,779.75 Q495.08391608391605,806.5 451.9020979020979,820 Q451.9020979020979,820 408.72027972027973,833.5"/><circle style="--d: 11s" class="g11" cx="553" cy="671" r="16"/><path style="--d: 11s;" class="g11" d="M638.68,602.456 Q834.0630243902439,783.7392941176471 850.1801463414633,785.2718823529412 Q946.8828780487805,794.4674117647058 963,796"/></g></svg>