<!--
  Stroke-order data for 川, derived from AnimCJK (https://github.com/parsimonhi/animCJK),
  itself derived from the Arphic PL KaitiM fonts. Distributed under the Arphic Public License
  (see ARPHICPL.TXT). Regenerated by scripts/build-strokes.ts — do not edit by hand.
-->
<svg id="z24029" class="acjk" viewBox="0 0 1024 1024" xmlns="http://www.w3.org/2000/svg">
<g class="glyph"><path style="--part:1" id="z24029d1" d="M243 266C267 301 283 396 267 529C261 572 253 608 235 649C218 685 187 738 131 801C121 811 113 818 112 823C110 827 115 830 124 830C150 828 188 803 233 751C289 684 321 579 329 439C333 362 332 312 336 291C338 276 334 265 318 258C281 241 257 234 246 237C231 240 231 248 243 266Z"/><path style="--part:2" id="z24029d2" d="M458 298C484 365 488 481 462 649C457 677 461 707 484 737C490 745 501 747 508 738C527 709 535 673 533 634C527 531 528 444 536 372C537 358 538 344 541 333C545 316 540 303 526 295C513 287 501 278 488 273C479 269 471 270 464 274C456 278 453 287 458 298Z"/><path style="--part:3" id="z24029d3" d="M688 804C682 830 689 880 706 910C714 924 725 936 735 930C755 916 763 887 762 844C751 492 753 279 769 207C773 183 785 173 779 160C775 152 751 139 713 116C695 105 680 103 667 115C662 118 662 126 669 136C690 169 701 202 703 238C714 516 709 701 688 804Z"/></g>
<defs><clipPath id="z24029c1"><use href="#z24029d1"/></clipPath>
	<clipPath id="z24029c2"><use href="#z24029d2"/></clipPath>
	<clipPath id="z24029c3"><use href="#z24029d3"/></clipPath><marker id="guide-arrow" viewBox="0 0 16 16" refX="5" refY="5" markerWidth="4" markerHeight="4" orient="auto-start-reverse"><path d="M 0 0 L 10 5 L 0 10 z" fill="inherit"/></marker></defs>
<g class="strokes"><path style="--part:1" pathLength="3333" clip-path="url(#z24029c1)" d="M241 247L297 291L286 565L228 716L121 820"/><path style="--part:2" pathLength="3333" clip-path="url(#z24029c2)" d="M465 281L506 327L499 740"/><path style="--part:3" pathLength="3333" clip-path="url(#z24029c3)" d="M672 122L739 186L726 929"/></g>
<g class="guides"><text class="g1" style="--gs:1" x="241" y="247">①</text><path class="g1 aligned" style="--gs:1" d="M241,247 Q297,291 291.5,428 Q286,565 257,640.5 Q228,716 174.5,768 Q174.5,768 121,820"/><path class="g1 offset" style="--gs:1" d="M145,247 Q173,283.63 170.25,397.68 Q167.5,511.72 153,574.57 Q138.5,637.42 111.75,680.71 Q111.75,680.71 85,724"/><text class="g2" style="--gs:2" x="465" y="281">②</text><path class="g2 aligned" style="--gs:2" d="M465,281 Q506,327 505.13,378.63 Q499.88,688.38 499,740"/><path class="g2 offset" style="--gs:2" d="M369,281 Q410,327 409.13,378.63 Q403.88,688.38 403,740"/><text class="g3" style="--gs:3" x="672" y="122">③</text><path class="g3 aligned" style="--gs:3" d="M672,122 Q739,186 737.38,278.88 Q727.63,836.13 726,929"/><path class="g3 offset" style="--gs:3" d="M576,122 Q643,186 641.38,278.88 Q631.63,836.13 630,929"/></g>
<g class="parts"><rect data-part="1" data-literal="丿" role="button" tabindex="0" aria-label="Part 丿" x="49" y="175" width="320" height="717"/><rect data-part="3" data-literal="丨" role="button" tabindex="0" aria-label="Part 丨" x="600" y="50" width="211" height="951"/><rect data-part="2" data-literal="丨" role="button" tabindex="0" aria-label="Part 丨" x="393" y="209" width="185" height="603"/></g>
</svg>
