<svg id="z24030" class="acjk" viewBox="0 0 1024 1024" xmlns="http://www.w3.org/2000/svg">
<style>

@keyframes zk {
	to {
		stroke-dashoffset:0;
	}
}
svg.acjk path[clip-path] {
	--t:0.8s;
	animation:zk var(--t) linear forwards var(--d);
	stroke-dasharray:3337;
	stroke-dashoffset:3339;
	stroke-width:128;
	stroke-linecap:round;
	fill:none;
	stroke:#000;
}
svg.acjk path[id] {fill:#ccc;}


    @keyframes guide-fade {
        0% { opacity: 0; }
        3% { opacity: 1; }
        95% { opacity: 1; }
        100% { opacity: 0; }
    }

    svg.acjk #guide-arrow {
        fill: #f77;
    }

    svg.acjk .guides {
        circle {
            fill: #0f6;
        }

        path {
            opacity: 0;
            animation: guide-fade var(--t) linear forwards var(--d);
            stroke-width: 16px;
            stroke-linecap: round;
            stroke: #f77;
            fill: none;
            marker-end: url(#guide-arrow);
        }

        circle,
        path {
            --t: 0.8s;
            opacity: 0;
            animation: guide-fade calc(var(--t) + 0.4s) ease-in-out forwards calc(var(--d) - 0.2s);
        }
    }
</style>
<path id="z24030d1" d="M215 385Q193 437 162 485Q143 518 160 551Q169 569 189 556Q240 517 241 443Q245 410 239 385Q233 376 228 376Q219 377 215 385Z"/>
<path id="z24030d2" d="M273 209Q307 263 301 470Q300 555 261 657Q231 741 138 834Q125 849 121 855Q120 864 132 862Q174 859 251 771Q335 665 350 511Q362 414 359 267Q362 245 363 233Q367 211 345 201Q293 179 276 182Q254 186 273 209Z"/>
<path id="z24030d3" d="M402 403Q420 467 440 492Q449 499 460 494Q469 487 473 475Q479 436 425 381Q415 371 407 371Q403 370 400 379Q397 388 402 403Z"/>
<path id="z24030d4" d="M498 189Q529 261 527 433Q527 478 503 633Q491 687 527 735Q537 745 547 734Q578 683 572 611Q556 379 574 230Q574 224 575 220Q582 196 561 185Q543 173 526 165Q513 161 503 166Q494 173 498 189Z"/>
<path id="z24030d5" d="M623 395Q647 435 670 483Q677 496 689 501Q698 502 705 495Q714 485 715 459Q718 437 693 407Q665 382 633 357Q623 350 617 350Q611 351 609 361Q608 371 623 395Z"/>
<path id="z24030d6" d="M743 801Q731 844 762 906Q769 924 777 927Q784 934 791 926Q819 907 817 840Q814 791 808 333Q807 239 822 174Q831 158 827 144Q820 134 761 100Q736 84 715 100Q709 106 717 121Q753 169 753 224Q768 662 753 754Q749 776 743 801Z"/>
<defs>
	<clipPath id="z24030c1"><use href="#z24030d1"/></clipPath>
	<clipPath id="z24030c2"><use href="#z24030d2"/></clipPath>
	<clipPath id="z24030c3"><use href="#z24030d3"/></clipPath>
	<clipPath id="z24030c4"><use href="#z24030d4"/></clipPath>
	<clipPath id="z24030c5"><use href="#z24030d5"/></clipPath>
	<clipPath id="z24030c6"><use href="#z24030d6"/></clipPath>
<marker id="guide-arrow" viewBox="0 0 16 16" refX="5" refY="5" markerWidth="4" markerHeight="4" orient="auto-start-reverse"><path d="M 0 0 L 10 5 L 0 10 z" fill="inherit"/></marker></defs>
<path style="--d:1s;" pathLength="3333" clip-path="url(#z24030c1)" d="M228 380L170 557"/>
<path style="--d:2s;" pathLength="3333" clip-path="url(#z24030c2)" d="M272 190L325 235L315 568L246 738L129 854"/>
<path style="--d:3s;" pathLength="3333" clip-path="url(#z24030c3)" d="M409 377L450 492"/>
<path style="--d:4s;" pathLength="3333" clip-path="url(#z24030c4)" d="M508 173L544 218L531 734"/>
<path style="--d:5s;" pathLength="3333" clip-path="url(#z24030c5)" d="M616 356L674 427L692 496"/>
<path style="--d:6s;" pathLength="3333" clip-path="url(#z24030c6)" d="M718 103L786 164L780 925"/>
<g class="guides"><circle style="--d: 1s" class="g1" cx="228" cy="380" r="16"/><path style="--d: 1s;" class="g1" d="M348,380 L290,557"/><circle style="--d: 2s" class="g2" cx="272" cy="190" r="16"/><path style="--d: 2s;" class="g2" d="M176,190 Q203.0408163265306,228.49397590361446 200.48979591836735,370.921686746988 Q197.9387755102041,513.3493975903615 180.33673469387756,586.0602409638554 Q162.73469387755102,658.7710843373494 132.8877551020408,708.3855421686746 Q132.8877551020408,708.3855421686746 103.0408163265306,758"/><circle style="--d: 3s" class="g3" cx="409" cy="377" r="16"/><path style="--d: 3s;" class="g3" d="M529,377 L570,492"/><circle style="--d: 4s" class="g4" cx="508" cy="173" r="16"/><path style="--d: 4s;" class="g4" d="M412,173 Q448,218 446.375,282.5 Q436.625,669.5 435,734"/><circle style="--d: 5s" class="g5" cx="616" cy="356" r="16"/><path style="--d: 5s;" class="g5" d="M701.68,287.456 Q759.68,358.456 761.93,367.081 Q775.43,418.831 777.68,427.456"/><circle style="--d: 6s" class="g6" cx="718" cy="103" r="16"/><path style="--d: 6s;" class="g6" d="M622,103 Q690,164 689.25,259.125 Q684.75,829.875 684,925"/></g></svg>