<!--
  Stroke-order data for 巠, derived from AnimCJK (https://github.com/parsimonhi/animCJK),
  itself derived from the Arphic PL KaitiM fonts. Distributed under the Arphic Public License
  (see ARPHICPL.TXT). Regenerated by scripts/build-strokes.ts — do not edit by hand.
-->
<svg id="z24032" class="acjk" viewBox="0 0 1024 1024" xmlns="http://www.w3.org/2000/svg">
<g class="glyph"><path style="--part:1" id="z24032d1" d="M336 170Q294 177 324 196Q369 224 434 209Q534 190 639 169Q687 159 694 152Q704 143 699 134Q692 121 659 112Q632 106 508 142Q367 166 336 170Z"/><path style="--part:2" id="z24032d2" d="M311 311Q295 372 248 429Q236 441 235 449Q234 459 257 480Q294 510 343 569Q356 588 367 586Q382 586 389 568Q396 544 390 529Q380 504 289 466Q268 454 279 435Q285 423 322 383Q359 346 372 335Q384 331 386 324Q390 308 369 284Q351 262 332 256Q314 252 308 258Q305 262 310 272Q317 287 311 311Z"/><path style="--part:2" id="z24032d3" d="M480 284Q462 353 418 408Q408 417 407 426Q407 436 430 456Q464 481 511 534Q524 553 536 551Q551 550 557 532Q564 508 557 493Q548 471 460 439Q439 429 450 411Q457 398 493 357Q527 317 542 307Q552 303 555 296Q559 280 537 256Q518 234 500 229Q481 226 475 232Q472 236 478 246Q487 259 480 284Z"/><path style="--part:2" id="z24032d4" d="M659 289Q637 338 597 383Q587 395 591 408Q592 420 610 432Q677 478 738 533Q756 549 770 549Q783 548 786 524Q787 499 773 483Q757 455 659 422Q640 418 633 407Q627 398 638 385Q657 367 694 329Q716 307 733 296Q749 289 744 269Q734 232 710 215Q697 205 684 206Q672 207 676 227Q680 252 659 289Z"/><path style="--part:3" id="z24032d5" d="M505 658Q679 622 682 621Q691 614 687 604Q680 592 650 583Q629 577 495 611Q422 629 323 635Q286 639 312 658Q348 682 428 670Q444 667 463 664C491 660 491 660 505 658Z"/><path style="--part:3" id="z24032d6" d="M518 828Q525 771 531 726Q537 684 523 674Q514 664 505 658C493 651 461 650 463 664Q469 679 470 832C470 848 515 844 518 828Z"/><path style="--part:3" id="z24032d7" d="M470 832Q323 845 156 859Q131 860 148 881Q184 917 229 908Q482 850 868 872Q892 873 898 863Q905 850 886 832Q820 781 754 796Q661 809 518 828C486 831 486 831 470 832Z"/></g>
<defs><clipPath id="z24032c1"><use href="#z24032d1"/></clipPath>
	<clipPath id="z24032c2"><use href="#z24032d2"/></clipPath>
	<clipPath id="z24032c3"><use href="#z24032d3"/></clipPath>
	<clipPath id="z24032c4"><use href="#z24032d4"/></clipPath>
	<clipPath id="z24032c5"><use href="#z24032d5"/></clipPath>
	<clipPath id="z24032c6"><use href="#z24032d6"/></clipPath>
	<clipPath id="z24032c7"><use href="#z24032d7"/></clipPath><marker id="guide-arrow" viewBox="0 0 16 16" refX="5" refY="5" markerWidth="4" markerHeight="4" orient="auto-start-reverse"><path d="M 0 0 L 10 5 L 0 10 z" fill="inherit"/></marker></defs>
<g class="strokes"><path style="--part:1" pathLength="3333" clip-path="url(#z24032c1)" d="M319 180L400 187L696 139"/><path style="--part:2" pathLength="3333" clip-path="url(#z24032c2)" d="M316 262L347 321L257 455L382 575"/><path style="--part:2" pathLength="3333" clip-path="url(#z24032c3)" d="M483 234L517 290L427 429L548 542"/><path style="--part:2" pathLength="3333" clip-path="url(#z24032c4)" d="M684 211L708 271L611 408L738 491L775 543"/><path style="--part:3" pathLength="3333" clip-path="url(#z24032c5)" d="M310 648L684 604"/><path style="--part:3" pathLength="3333" clip-path="url(#z24032c6)" d="M469 662L500 704L486 840"/><path style="--part:3" pathLength="3333" clip-path="url(#z24032c7)" d="M147 868L203 882L765 830L895 846"/></g>
<g class="guides"><text class="g1" style="--gs:1" x="319" y="180">①</text><path class="g1 aligned" style="--gs:1" d="M319,180 Q400,187 437,181 Q659,145 696,139"/><path class="g1 offset" style="--gs:1" d="M319,276 Q400,283 437,277 Q659,241 696,235"/><text class="g2" style="--gs:2" x="316" y="262">②</text><path class="g2 aligned" style="--gs:2" d="M316,262 Q347,321 324.5,354.5 Q257,455 288.25,485 Q350.75,545 382,575"/><path class="g2 offset" style="--gs:2" d="M436,262 Q451.5,302.9 440.25,326.13 Q406.5,395.81 422.13,416.6 Q453.38,458.2 469,479"/><text class="g3" style="--gs:3" x="483" y="234">③</text><path class="g3 aligned" style="--gs:3" d="M483,234 Q517,290 494.5,324.75 Q427,429 457.25,457.25 Q517.75,513.75 548,542"/><path class="g3 offset" style="--gs:3" d="M568.68,165.46 Q602.68,221.46 580.18,256.21 Q512.68,360.46 542.93,388.71 Q603.43,445.21 633.68,473.46"/><text class="g4" style="--gs:4" x="684" y="211">④</text><path class="g4 aligned" style="--gs:4" d="M684,211 Q708,271 659.5,339.5 Q611,408 674.5,449.5 Q738,491 756.5,517 Q756.5,517 775,543"/><path class="g4 offset" style="--gs:4" d="M804,211 Q816,253.65 791.75,302.34 Q767.5,351.04 799.25,380.54 Q831,410.04 840.25,428.52 Q840.25,428.52 849.5,447"/><text class="g5" style="--gs:5" x="310" y="648">⑤</text><path class="g5 aligned" style="--gs:5" d="M310,648 L684,604"/><path class="g5 offset" style="--gs:5" d="M310,744 L684,700"/><text class="g6" style="--gs:6" x="469" y="662">⑥</text><path class="g6 aligned" style="--gs:6" d="M469,662 Q500,704 498.25,721 Q487.75,823 486,840"/><path class="g6 offset" style="--gs:6" d="M373,662 Q404,704 402.25,721 Q391.75,823 390,840"/><text class="g7" style="--gs:7" x="147" y="868">⑦</text><path class="g7 aligned" style="--gs:7" d="M147,868 Q203,882 343.5,869 Q765,830 797.5,834 Q862.5,842 895,846"/><path class="g7 offset" style="--gs:7" d="M147,964 Q203,978 343.5,965 Q765,926 797.5,930 Q862.5,938 895,942"/></g>
<g class="parts"><rect data-part="3" data-literal="工" role="button" tabindex="0" aria-label="Part 工" x="75" y="532" width="892" height="422"/><rect data-part="2" data-literal="巛" data-radical="true" role="button" tabindex="0" aria-label="Part 巛 (radical)" x="185" y="139" width="662" height="508"/><rect data-part="1" data-literal="一" role="button" tabindex="0" aria-label="Part 一" x="247" y="67" width="521" height="192"/></g>
</svg>
