<!--
  Stroke-order data for 巻, derived from AnimCJK (https://github.com/parsimonhi/animCJK),
  itself derived from the Arphic PL KaitiM fonts. Distributed under the Arphic Public License
  (see ARPHICPL.TXT). Regenerated by scripts/build-strokes.ts — do not edit by hand.
-->
<svg id="z24059" class="acjk" viewBox="0 0 1024 1024" xmlns="http://www.w3.org/2000/svg">
<g class="glyph"><path style="--part:1" id="z24059d1" d="M323 212C350 245 370 268 390 275C398 278 406 274 412 267C416 260 418 251 416 241C410 216 389 198 356 186C335 178 321 174 313 177C310 177 309 181 310 189C310 195 315 202 323 212Z"/><path style="--part:1" id="z24059d2" d="M632 151C622 164 600 192 567 237C558 248 563 255 574 251C612 234 645 216 673 197C686 187 700 178 717 172C731 166 736 155 729 144C721 131 707 121 690 111C673 101 661 97 653 99C644 100 642 104 644 114C646 126 641 138 632 151Z"/><path style="--part:1" id="z24059d3" d="M497 358C501 357 503 356 508 356C527 353 527 353 536 351C565 345 595 339 626 334C660 327 680 319 686 315C691 310 693 305 691 300C686 291 674 285 656 280C637 275 618 277 598 284C568 293 538 305 506 312C468 320 468 320 449 324C407 332 363 336 318 341C294 343 290 351 307 362C328 376 373 380 437 369C477 362 477 362 497 358Z"/><path style="--part:1" id="z24059d4" d="M454 478C527 465 675 446 759 450C803 452 827 447 832 440C836 432 832 422 820 414C783 388 753 381 730 387C680 398 542 427 471 439C430 446 430 446 409 449C342 459 272 468 200 481C186 483 183 490 195 501C216 520 243 525 273 516C309 504 347 496 389 489C432 482 432 482 454 478Z"/><path style="--part:1" id="z24059d5" d="M389 489C338 589 256 659 163 727C139 744 139 744 127 753C117 760 116 765 127 767C137 768 156 763 183 752C236 729 329 663 369 615C403 573 432 527 454 478C465 452 465 452 471 439C477 425 494 369 497 358C503 327 503 327 506 312C511 282 516 237 533 177C538 155 544 135 555 116C562 102 558 93 547 85C510 58 482 47 462 54C451 57 448 64 454 76C474 118 469 248 449 324C441 354 441 354 437 369C428 402 419 429 409 449C396 476 396 476 389 489Z"/><path style="--part:1" id="z24059d6" d="M508 356C537 399 656 574 752 676C766 691 787 700 814 702C862 704 910 700 961 694C972 692 979 690 981 687C982 682 979 677 969 674C857 631 797 613 739 565C691 525 574 395 536 351C530 344 502 348 508 356Z"/><path style="--part:2" id="z24059d7" d="M598 568C595 568 591 569 588 570C533 591 475 605 416 612C407 614 396 613 387 617C380 621 382 632 388 636C402 644 419 649 436 646C468 638 501 633 533 626C549 624 564 619 581 619C588 617 592 625 591 631C586 652 580 671 573 692C567 706 609 713 617 700C635 670 648 651 663 642C674 635 678 618 670 608C658 596 642 588 627 579C618 573 608 569 598 568Z"/><path style="--part:2" id="z24059d8" d="M573 692C521 705 421 727 421 727C410 729 424 759 435 757C458 752 556 739 619 734C627 735 636 730 636 721C634 711 624 706 617 700C605 691 588 689 573 692Z"/><path style="--part:2" id="z24059d9" d="M527 901C489 900 450 899 416 880C397 869 386 848 383 827C379 798 388 769 378 741C376 733 368 725 372 716C374 709 383 705 390 709C402 713 412 720 421 727C430 734 438 747 435 757C432 769 426 780 424 792C422 805 420 818 422 830C427 843 439 850 451 854C480 861 509 862 539 861C575 858 612 855 645 839C656 834 664 825 666 813C672 791 674 768 679 745C681 740 688 737 692 741C700 748 698 760 701 770C706 796 713 822 722 847C725 859 715 871 704 875C673 891 637 894 603 898C578 900 552 901 527 901Z"/></g>
<defs><clipPath id="z24059c1"><use href="#z24059d1"/></clipPath>
	<clipPath id="z24059c2"><use href="#z24059d2"/></clipPath>
	<clipPath id="z24059c3"><use href="#z24059d3"/></clipPath>
	<clipPath id="z24059c4"><use href="#z24059d4"/></clipPath>
	<clipPath id="z24059c5"><use href="#z24059d5"/></clipPath>
	<clipPath id="z24059c6"><use href="#z24059d6"/></clipPath>
	<clipPath id="z24059c7"><use href="#z24059d7"/></clipPath>
	<clipPath id="z24059c8"><use href="#z24059d8"/></clipPath>
	<clipPath id="z24059c9"><use href="#z24059d9"/></clipPath><marker id="guide-arrow" viewBox="0 0 16 16" refX="5" refY="5" markerWidth="4" markerHeight="4" orient="auto-start-reverse"><path d="M 0 0 L 10 5 L 0 10 z" fill="inherit"/></marker></defs>
<g class="strokes"><path style="--part:1" pathLength="3333" clip-path="url(#z24059c1)" d="M317 184L402 269"/><path style="--part:1" pathLength="3333" clip-path="url(#z24059c2)" d="M650 106L683 153L571 245"/><path style="--part:1" pathLength="3333" clip-path="url(#z24059c3)" d="M304 350L389 354L688 301"/><path style="--part:1" pathLength="3333" clip-path="url(#z24059c4)" d="M194 489L249 496L727 419L828 430"/><path style="--part:1" pathLength="3333" clip-path="url(#z24059c5)" d="M459 65L513 118L433 461L303 646L126 761"/><path style="--part:1" pathLength="3333" clip-path="url(#z24059c6)" d="M515 355L779 644L971 682"/><path style="--part:2" pathLength="3333" clip-path="url(#z24059c7)" d="M387 623L603 597L632 628L585 702"/><path style="--part:2" pathLength="3333" clip-path="url(#z24059c8)" d="M419 727L632 718"/><path style="--part:2" pathLength="3333" clip-path="url(#z24059c9)" d="M380 717L408 757L409 846L475 878L594 877L684 849L687 744"/></g>
<g class="guides"><text class="g1" style="--gs:1" x="317" y="184">①</text><path class="g1 aligned" style="--gs:1" d="M317,184 L402,269"/><path class="g1 offset" style="--gs:1" d="M402.68,115.46 L487.68,200.46"/><text class="g2" style="--gs:2" x="650" y="106">②</text><path class="g2 aligned" style="--gs:2" d="M650,106 Q683,153 669,164.5 Q585,233.5 571,245"/><path class="g2 offset" style="--gs:2" d="M554,106 Q570.5,129.5 563.5,135.25 Q521.5,169.75 514.5,175.5"/><text class="g3" style="--gs:3" x="304" y="350">③</text><path class="g3 aligned" style="--gs:3" d="M304,350 Q389,354 426.38,347.38 Q650.63,307.63 688,301"/><path class="g3 offset" style="--gs:3" d="M304,446 Q389,450 426.38,443.38 Q650.63,403.63 688,397"/><text class="g4" style="--gs:4" x="194" y="489">④</text><path class="g4 aligned" style="--gs:4" d="M194,489 Q249,496 368.5,476.75 Q727,419 752.25,421.75 Q802.75,427.25 828,430"/><path class="g4 offset" style="--gs:4" d="M194,585 Q249,592 368.5,572.75 Q727,515 752.25,517.75 Q802.75,523.25 828,526"/><text class="g5" style="--gs:5" x="459" y="65">⑤</text><path class="g5 aligned" style="--gs:5" d="M459,65 Q513,118 473,289.5 Q433,461 368,553.5 Q303,646 214.5,703.5 Q214.5,703.5 126,761"/><path class="g5 offset" style="--gs:5" d="M363,65 Q403.6,110.69 373.53,258.53 Q343.45,406.38 294.57,486.12 Q245.7,565.86 179.15,615.43 Q179.15,615.43 112.6,665"/><text class="g6" style="--gs:6" x="515" y="355">⑥</text><path class="g6 aligned" style="--gs:6" d="M515,355 Q779,644 803,648.75 Q947,677.25 971,682"/><path class="g6 offset" style="--gs:6" d="M600.68,286.46 Q815.08,551.19 834.57,555.54 Q951.51,581.65 971,586"/><text class="g7" style="--gs:7" x="387" y="623">⑦</text><path class="g7 aligned" style="--gs:7" d="M387,623 Q603,597 610.25,604.75 Q632,628 620.25,646.5 Q596.75,683.5 585,702"/><path class="g7 offset" style="--gs:7" d="M387,719 Q519.24,693 523.68,700.75 Q537,724 529.81,742.5 Q515.42,779.5 508.22,798"/><text class="g8" style="--gs:8" x="419" y="727">⑧</text><path class="g8 aligned" style="--gs:8" d="M419,727 L632,718"/><path class="g8 offset" style="--gs:8" d="M419,823 L632,814"/><text class="g9" style="--gs:9" x="380" y="717">⑨</text><path class="g9 aligned" style="--gs:9" d="M380,717 Q408,757 408.5,801.5 Q409,846 442,862 Q475,878 534.5,877.5 Q594,877 639,863 Q684,849 685.5,796.5 Q685.5,796.5 687,744"/><path class="g9 offset" style="--gs:9" d="M448.54,648.46 Q462.54,688.46 462.79,732.96 Q463.04,777.46 479.54,793.46 Q496.04,809.46 525.79,808.96 Q555.54,808.46 578.04,794.46 Q600.54,780.46 601.29,727.96 Q601.29,727.96 602.04,675.46"/></g>
<g class="parts"><rect data-part="1" data-literal="龹" role="button" tabindex="0" aria-label="Part 龹" x="54" y="0" width="970" height="833"/><rect data-part="2" data-literal="己" data-radical="true" role="button" tabindex="0" aria-label="Part 己 (radical)" x="308" y="525" width="451" height="425"/></g>
</svg>
