<!--
  Stroke-order data for 巽, derived from AnimCJK (https://github.com/parsimonhi/animCJK),
  itself derived from the Arphic PL KaitiM fonts. Distributed under the Arphic Public License
  (see ARPHICPL.TXT). Regenerated by scripts/build-strokes.ts — do not edit by hand.
-->
<svg id="z24061" class="acjk" viewBox="0 0 1024 1024" xmlns="http://www.w3.org/2000/svg">
<g class="glyph"><path id="z24061d1" d="M449 241C459 210 471 191 482 182C496 168 495 155 482 147C470 140 458 131 442 121C431 114 413 123 383 136C356 146 316 159 288 166C209 183 260 200 295 195C319 191 350 177 390 167C404 163 414 160 417 169C422 184 409 214 404 234C401 249 443 255 449 241Z"/><path id="z24061d2" d="M404 234C376 243 314 259 283 266C272 268 289 296 300 294C333 288 391 278 458 269C464 268 468 265 469 259C469 254 462 248 449 241C436 233 419 231 404 234Z"/><path id="z24061d3" d="M517 344C511 333 501 316 494 286C492 278 491 273 488 271C485 269 484 272 481 281C467 314 455 335 447 345C440 352 428 362 409 365C367 371 346 372 320 359C298 348 300 317 300 294C300 283 292 272 283 266C271 258 253 257 249 260C245 262 243 268 248 278C253 289 253 307 257 338C261 374 291 403 322 411C348 417 386 421 431 410C469 401 498 388 513 375C521 368 523 355 517 344Z"/><path id="z24061d4" d="M720 221C732 187 746 167 758 157C773 143 772 130 760 121C747 112 733 102 718 91C705 82 688 93 657 104C640 109 595 123 569 128C479 143 543 161 575 158C590 156 614 146 663 137C677 134 686 135 690 141C692 143 691 152 687 167C682 181 677 196 672 213C666 228 714 236 720 221Z"/><path id="z24061d5" d="M581 264C613 258 665 250 726 246C732 245 735 242 736 238C736 234 730 228 720 221C706 213 688 210 672 213C649 219 598 231 570 238C561 240 572 266 581 264Z"/><path id="z24061d6" d="M811 319C804 307 795 286 787 255C784 245 784 241 781 239C778 237 776 240 772 250C757 284 745 307 737 319C732 325 721 330 706 335C669 344 637 341 606 330C584 322 578 302 581 264C581 255 578 243 570 238C561 233 553 229 544 227C537 225 531 225 527 228C523 230 521 236 526 246C539 272 534 293 542 320C550 348 580 376 610 384C675 401 764 384 806 351C816 342 818 331 811 319Z"/><path id="z24061d7" d="M621 516C639 513 659 510 680 507C728 500 757 492 765 486C771 481 772 475 770 471C766 462 754 455 738 451C719 445 685 454 632 467C591 476 591 476 571 481C495 498 451 502 440 504C403 508 403 508 385 510C353 513 320 513 287 515C264 516 259 523 276 535C295 549 334 557 391 549C423 544 423 544 439 542C481 535 525 529 570 523C604 518 604 518 621 516Z"/><path id="z24061d8" d="M440 504C440 499 441 496 442 494C444 480 440 469 432 462C418 451 403 442 387 437C378 434 371 433 366 437C360 440 360 447 365 457C373 473 382 491 385 510C389 536 389 536 391 549C394 571 397 603 401 643C403 655 439 652 439 639C440 624 438 571 439 542C440 517 440 517 440 504Z"/><path id="z24061d9" d="M602 621C608 584 613 549 621 516C628 483 628 483 632 467C633 459 638 449 641 444C643 437 640 429 629 421C611 407 593 401 580 398C571 395 564 396 560 401C555 405 554 411 559 420C566 432 571 452 571 481C570 509 570 509 570 523C569 552 566 605 564 626C564 639 599 634 602 621Z"/><path id="z24061d10" d="M401 643C325 651 245 657 162 665C147 666 145 672 156 685C165 695 177 703 189 707C203 711 216 711 229 709C388 670 586 654 822 661C842 661 861 662 879 663C893 663 902 661 906 655C910 646 907 636 895 627C857 597 825 586 800 591C747 600 681 610 602 621C577 624 577 624 564 626C547 628 463 636 439 639C414 642 414 642 401 643Z"/><path id="z24061d11" d="M386 725C373 766 317 823 214 892C199 901 201 903 219 904C263 905 326 873 408 803C428 785 443 772 453 765C461 758 463 751 463 745C461 736 453 729 437 722C418 713 406 709 398 711C393 711 388 716 386 725Z"/><path id="z24061d12" d="M589 736C629 773 675 817 725 873C736 886 745 895 756 898C761 899 767 895 773 889C781 879 780 861 773 831C763 791 708 750 605 710C598 707 594 705 591 704C584 700 580 702 579 711C578 719 581 728 589 736Z"/></g>
<defs><clipPath id="z24061c1"><use href="#z24061d1"/></clipPath>
	<clipPath id="z24061c2"><use href="#z24061d2"/></clipPath>
	<clipPath id="z24061c3"><use href="#z24061d3"/></clipPath>
	<clipPath id="z24061c4"><use href="#z24061d4"/></clipPath>
	<clipPath id="z24061c5"><use href="#z24061d5"/></clipPath>
	<clipPath id="z24061c6"><use href="#z24061d6"/></clipPath>
	<clipPath id="z24061c7"><use href="#z24061d7"/></clipPath>
	<clipPath id="z24061c8"><use href="#z24061d8"/></clipPath>
	<clipPath id="z24061c9"><use href="#z24061d9"/></clipPath>
	<clipPath id="z24061c10"><use href="#z24061d10"/></clipPath>
	<clipPath id="z24061c11"><use href="#z24061d11"/></clipPath>
	<clipPath id="z24061c12"><use href="#z24061d12"/></clipPath><marker id="guide-arrow" viewBox="0 0 16 16" refX="5" refY="5" markerWidth="4" markerHeight="4" orient="auto-start-reverse"><path d="M 0 0 L 10 5 L 0 10 z" fill="inherit"/></marker></defs>
<g class="strokes"><path pathLength="3333" clip-path="url(#z24061c1)" d="M253 184L431 145L454 167L423 246"/><path pathLength="3333" clip-path="url(#z24061c2)" d="M285 271L461 259"/><path pathLength="3333" clip-path="url(#z24061c3)" d="M254 263L292 364L351 392L474 363L488 282"/><path pathLength="3333" clip-path="url(#z24061c4)" d="M529 144L703 115L729 144L685 225"/><path pathLength="3333" clip-path="url(#z24061c5)" d="M572 243L728 235"/><path pathLength="3333" clip-path="url(#z24061c6)" d="M531 233L582 342L661 365L779 324L779 246"/><path pathLength="3333" clip-path="url(#z24061c7)" d="M272 522L383 530L765 471"/><path pathLength="3333" clip-path="url(#z24061c8)" d="M366 441L412 490L419 648"/><path pathLength="3333" clip-path="url(#z24061c9)" d="M561 403L605 445L580 631"/><path pathLength="3333" clip-path="url(#z24061c10)" d="M155 672L220 685L801 625L904 647"/><path pathLength="3333" clip-path="url(#z24061c11)" d="M397 715L413 759L310 849L213 897"/><path pathLength="3333" clip-path="url(#z24061c12)" d="M586 712L705 798L766 893"/></g>
<g class="guides"><text class="g1" style="--gs:1" x="253" y="184">①</text><path class="g1 aligned" style="--gs:1" d="M253,184 Q431,145 436.75,150.5 Q454,167 446.25,186.75 Q430.75,226.25 423,246"/><path class="g1 offset" style="--gs:1" d="M253,280 Q342,241 344.88,246.5 Q353.5,263 349.63,270.13 Q341.88,284.38 338,291.5"/><text class="g2" style="--gs:2" x="285" y="271">②</text><path class="g2 aligned" style="--gs:2" d="M285,271 L461,259"/><path class="g2 offset" style="--gs:2" d="M285,367 L461,355"/><text class="g3" style="--gs:3" x="254" y="263">③</text><path class="g3 aligned" style="--gs:3" d="M254,263 Q292,364 321.5,378 Q351,392 412.5,377.5 Q474,363 481,322.5 Q481,322.5 488,282"/><path class="g3 offset" style="--gs:3" d="M374,263 Q412,364 441.5,378 Q471,392 532.5,377.5 Q594,363 601,322.5 Q601,322.5 608,282"/><text class="g4" style="--gs:4" x="529" y="144">④</text><path class="g4 aligned" style="--gs:4" d="M529,144 Q703,115 709.5,122.25 Q729,144 718,164.25 Q696,204.75 685,225"/><path class="g4 offset" style="--gs:4" d="M529,240 Q616,211 619.25,218.25 Q629,240 623.5,246.5 Q612.5,259.5 607,266"/><text class="g5" style="--gs:5" x="572" y="243">⑤</text><path class="g5 aligned" style="--gs:5" d="M572,243 L728,235"/><path class="g5 offset" style="--gs:5" d="M572,339 L728,331"/><text class="g6" style="--gs:6" x="531" y="233">⑥</text><path class="g6 aligned" style="--gs:6" d="M531,233 Q582,342 621.5,353.5 Q661,365 720,344.5 Q779,324 779,285 Q779,285 779,246"/><path class="g6 offset" style="--gs:6" d="M616.68,164.46 Q642.18,250.78 661.93,259.89 Q681.68,269 711.18,252.76 Q740.68,236.53 740.68,205.64 Q740.68,205.64 740.68,174.75"/><text class="g7" style="--gs:7" x="272" y="522">⑦</text><path class="g7 aligned" style="--gs:7" d="M272,522 Q383,530 430.75,522.63 Q717.25,478.38 765,471"/><path class="g7 offset" style="--gs:7" d="M272,618 Q383,626 430.75,618.63 Q717.25,574.38 765,567"/><text class="g8" style="--gs:8" x="366" y="441">⑧</text><path class="g8 aligned" style="--gs:8" d="M366,441 Q412,490 412.88,509.75 Q418.13,628.25 419,648"/><path class="g8 offset" style="--gs:8" d="M451.68,372.46 Q497.68,421.46 498.56,441.21 Q503.81,559.71 504.68,579.46"/><text class="g9" style="--gs:9" x="561" y="403">⑨</text><path class="g9 aligned" style="--gs:9" d="M561,403 Q605,445 601.88,468.25 Q583.13,607.75 580,631"/><path class="g9 offset" style="--gs:9" d="M465,403 Q509,445 505.88,468.25 Q487.13,607.75 484,631"/><text class="g10" style="--gs:10" x="155" y="672">⑩</text><path class="g10 aligned" style="--gs:10" d="M155,672 Q220,685 365.25,670 Q801,625 826.75,630.5 Q878.25,641.5 904,647"/><path class="g10 offset" style="--gs:10" d="M155,768 Q220,781 365.25,766 Q801,721 826.75,726.5 Q878.25,737.5 904,743"/><text class="g11" style="--gs:11" x="397" y="715">⑪</text><path class="g11 aligned" style="--gs:11" d="M397,715 Q413,759 387.25,781.5 Q310,849 285.75,861 Q237.25,885 213,897"/><path class="g11 offset" style="--gs:11" d="M301,715 Q309,737 296.13,748.25 Q257.5,782 245.38,788 Q221.13,800 209,806"/><text class="g12" style="--gs:12" x="586" y="712">⑫</text><path class="g12 aligned" style="--gs:12" d="M586,712 Q705,798 712.63,809.88 Q758.38,881.13 766,893"/><path class="g12 offset" style="--gs:12" d="M671.68,643.46 Q790.68,729.46 798.31,741.33 Q844.06,812.58 851.68,824.46"/></g>
</svg>
