<svg id="z24066" class="acjk" viewBox="0 0 1024 1024" xmlns="http://www.w3.org/2000/svg">
<style>

@keyframes zk {
	to {
		stroke-dashoffset:0;
	}
}
svg.acjk path[clip-path] {
	--t:0.8s;
	animation:zk var(--t) linear forwards var(--d);
	stroke-dasharray:3337;
	stroke-dashoffset:3339;
	stroke-width:128;
	stroke-linecap:round;
	fill:none;
	stroke:#000;
}
svg.acjk path[id] {fill:#ccc;}


    @keyframes guide-fade {
        0% { opacity: 0; }
        3% { opacity: 1; }
        95% { opacity: 1; }
        100% { opacity: 0; }
    }

    svg.acjk #guide-arrow {
        fill: #f77;
    }

    svg.acjk .guides {
        circle {
            fill: #0f6;
        }

        path {
            opacity: 0;
            animation: guide-fade var(--t) linear forwards var(--d);
            stroke-width: 16px;
            stroke-linecap: round;
            stroke: #f77;
            fill: none;
            marker-end: url(#guide-arrow);
        }

        circle,
        path {
            --t: 0.8s;
            opacity: 0;
            animation: guide-fade calc(var(--t) + 0.4s) ease-in-out forwards calc(var(--d) - 0.2s);
        }
    }
</style>
<path id="z24066d1" d="M461 103C480 117 499 136 521 155C531 164 542 169 555 168C562 167 569 162 572 152C575 140 572 122 565 101C557 80 519 63 453 49C440 46 432 46 428 49C423 51 422 58 425 68C427 76 440 87 461 103Z"/>
<path id="z24066d2" d="M528 261C678 241 794 235 877 241C903 242 918 239 921 236C926 227 924 218 916 211C869 168 826 161 784 173C704 194 603 205 484 222C366 237 246 253 129 264C119 264 114 268 114 276C113 284 120 292 133 302C144 310 159 317 181 325C187 327 196 324 210 321C291 298 379 280 459 270C505 264 505 264 528 261Z"/>
<path id="z24066d3" d="M327 416C315 404 297 397 275 401C266 402 263 409 268 417C293 463 291 542 277 613C271 638 262 661 282 692C288 701 298 718 308 711C327 696 336 640 337 547C337 499 337 467 339 452C341 440 337 424 327 416Z"/>
<path id="z24066d4" d="M538 419C579 412 622 406 665 404C686 402 698 410 699 424C704 538 702 602 689 616C679 624 653 622 613 616C587 611 584 621 603 634C643 660 677 682 703 703C713 711 723 711 732 701C750 676 761 637 760 586C758 515 757 458 765 416C767 401 765 391 759 385C740 368 724 355 711 348C702 343 692 350 671 357C631 368 574 381 538 388C501 395 501 395 483 398C444 404 371 412 327 416C315 418 327 454 339 452C354 449 440 434 483 428C520 422 520 422 538 419Z"/>
<path id="z24066d5" d="M484 924C486 937 493 972 511 966C521 962 528 936 533 894C539 838 541 782 539 728C537 683 538 581 538 419C538 398 538 398 538 388C538 355 546 324 551 296C554 274 542 269 528 261C508 249 450 248 459 270C472 299 483 340 483 398C483 418 483 418 483 428C483 512 481 613 480 730C478 826 479 891 484 924Z"/>
<defs>
	<clipPath id="z24066c1"><use href="#z24066d1"/></clipPath>
	<clipPath id="z24066c2"><use href="#z24066d2"/></clipPath>
	<clipPath id="z24066c3"><use href="#z24066d3"/></clipPath>
	<clipPath id="z24066c4"><use href="#z24066d4"/></clipPath>
	<clipPath id="z24066c5"><use href="#z24066d5"/></clipPath>
<marker id="guide-arrow" viewBox="0 0 16 16" refX="5" refY="5" markerWidth="4" markerHeight="4" orient="auto-start-reverse"><path d="M 0 0 L 10 5 L 0 10 z" fill="inherit"/></marker></defs>
<path style="--d:1s;" pathLength="3333" clip-path="url(#z24066c1)" d="M430 54L565 159"/>
<path style="--d:2s;" pathLength="3333" clip-path="url(#z24066c2)" d="M117 273L185 292L818 203L919 221"/>
<path style="--d:3s;" pathLength="3333" clip-path="url(#z24066c3)" d="M271 407L310 447L294 706"/>
<path style="--d:4s;" pathLength="3333" clip-path="url(#z24066c4)" d="M328 424L711 385L732 418L713 651L697 663L600 620"/>
<path style="--d:5s;" pathLength="3333" clip-path="url(#z24066c5)" d="M465 263L512 300L508 959"/>
<g class="guides"><circle style="--d: 1s" class="g1" cx="430" cy="54" r="16"/><path style="--d: 1s;" class="g1" d="M515.68,-14.543999999999997 L650.68,90.456"/><circle style="--d: 2s" class="g2" cx="117" cy="273" r="16"/><path style="--d: 2s;" class="g2" d="M117,369 Q185,388 343.25,365.75 Q818,299 843.25,303.5 Q893.75,312.5 919,317"/><circle style="--d: 3s" class="g3" cx="271" cy="407" r="16"/><path style="--d: 3s;" class="g3" d="M175,407 Q214,447 212,479.375 Q200,673.625 198,706"/><circle style="--d: 4s" class="g4" cx="328" cy="424" r="16"/><path style="--d: 4s;" class="g4" d="M328,520 Q540.3564356435644,481 546.1782178217823,497.5 Q552,514 546.7326732673267,630.5 Q541.4653465346535,747 537.029702970297,753 Q532.5940594059406,759 505.7029702970297,737.5 Q505.7029702970297,737.5 478.81188118811883,716"/><circle style="--d: 5s" class="g5" cx="465" cy="263" r="16"/><path style="--d: 5s;" class="g5" d="M369,263 Q416,300 415.5,382.375 Q412.5,876.625 412,959"/></g></svg>