<!--
  Stroke-order data for 幸, derived from AnimCJK (https://github.com/parsimonhi/animCJK),
  itself derived from the Arphic PL KaitiM fonts. Distributed under the Arphic Public License
  (see ARPHICPL.TXT). Regenerated by scripts/build-strokes.ts — do not edit by hand.
-->
<svg id="z24184" class="acjk" viewBox="0 0 1024 1024" xmlns="http://www.w3.org/2000/svg">
<g class="glyph"><path id="z24184d1" d="M547 231C635 215 683 205 690 201C696 196 698 190 695 184C690 175 678 168 658 163C636 156 601 167 551 180C514 189 514 189 495 194C468 200 396 207 347 211C322 212 318 222 336 234C359 249 399 253 455 246C467 244 481 242 496 240C530 234 530 234 547 231Z"/><path id="z24184d2" d="M538 327C540 294 544 262 547 231C550 197 550 197 551 180C552 160 554 135 562 107C567 88 568 74 562 67C559 64 556 61 553 59C530 45 511 38 496 36C485 34 477 35 472 41C467 45 466 53 472 63C482 79 489 92 490 103C491 131 494 162 495 194C496 225 496 225 496 240C496 271 496 302 496 333C496 347 538 341 538 327Z"/><path id="z24184d3" d="M647 356C693 354 772 352 884 352C898 351 907 349 911 343C915 334 911 324 899 315C855 280 820 276 789 285C725 301 641 312 538 327C510 331 510 331 496 333C384 348 263 359 134 376C119 377 117 385 128 397C137 407 149 414 162 418C176 422 190 422 202 419C280 398 362 384 450 373C492 367 542 360 600 358C631 357 631 357 647 356Z"/><path id="z24184d4" d="M353 429C378 483 398 513 412 518C420 520 429 517 436 507C441 498 441 486 438 472C434 459 424 448 411 438C389 420 375 408 365 404C359 401 355 403 352 411C349 415 349 421 353 429Z"/><path id="z24184d5" d="M587 510C609 475 650 417 662 404C672 397 675 390 670 382C665 373 657 364 647 356C634 347 600 342 600 358C604 380 579 451 548 518C543 530 579 521 587 510Z"/><path id="z24184d6" d="M543 560C567 556 621 549 707 545C713 544 722 543 727 534C730 526 720 519 707 511C685 496 647 497 587 510C561 515 561 515 548 518C524 522 438 531 306 544C287 545 284 551 298 564C316 581 341 588 374 583C408 577 445 573 486 568C524 563 524 563 543 560Z"/><path id="z24184d7" d="M543 704C586 698 684 698 835 698C849 698 859 694 863 688C867 679 863 669 851 660C813 631 780 619 752 625C698 635 628 647 543 660C504 666 504 666 484 669C393 682 295 692 190 704C174 705 171 712 184 725C194 736 206 743 219 747C234 751 248 750 260 748C383 721 452 714 483 711C523 706 523 706 543 704Z"/><path id="z24184d8" d="M483 711C479 873 487 962 503 978C510 986 518 981 526 965C536 939 542 852 543 704C543 616 543 674 543 660C543 626 543 593 543 560C543 541 486 549 486 568C485 600 484 634 484 669C483 697 483 697 483 711Z"/></g>
<defs><clipPath id="z24184c1"><use href="#z24184d1"/></clipPath>
	<clipPath id="z24184c2"><use href="#z24184d2"/></clipPath>
	<clipPath id="z24184c3"><use href="#z24184d3"/></clipPath>
	<clipPath id="z24184c4"><use href="#z24184d4"/></clipPath>
	<clipPath id="z24184c5"><use href="#z24184d5"/></clipPath>
	<clipPath id="z24184c6"><use href="#z24184d6"/></clipPath>
	<clipPath id="z24184c7"><use href="#z24184d7"/></clipPath>
	<clipPath id="z24184c8"><use href="#z24184d8"/></clipPath><marker id="guide-arrow" viewBox="0 0 16 16" refX="5" refY="5" markerWidth="4" markerHeight="4" orient="auto-start-reverse"><path d="M 0 0 L 10 5 L 0 10 z" fill="inherit"/></marker></defs>
<g class="strokes"><path pathLength="3333" clip-path="url(#z24184c1)" d="M332 219L432 226L691 186"/><path pathLength="3333" clip-path="url(#z24184c2)" d="M474 48L527 88L517 338"/><path pathLength="3333" clip-path="url(#z24184c3)" d="M128 386L195 394L816 316L907 331"/><path pathLength="3333" clip-path="url(#z24184c4)" d="M360 409L416 515"/><path pathLength="3333" clip-path="url(#z24184c5)" d="M607 357L631 399L558 518"/><path pathLength="3333" clip-path="url(#z24184c6)" d="M300 556L721 524"/><path pathLength="3333" clip-path="url(#z24184c7)" d="M183 710L242 724L758 661L860 678"/><path pathLength="3333" clip-path="url(#z24184c8)" d="M492 562L514 590L509 975"/></g>
<g class="guides"><text class="g1" style="--gs:1" x="332" y="219">①</text><path class="g1 aligned" style="--gs:1" d="M332,219 Q432,226 464.38,221 Q658.63,191 691,186"/><path class="g1 offset" style="--gs:1" d="M332,315 Q432,322 464.38,317 Q658.63,287 691,282"/><text class="g2" style="--gs:2" x="474" y="48">②</text><path class="g2 aligned" style="--gs:2" d="M474,48 Q527,88 525.75,119.25 Q518.25,306.75 517,338"/><path class="g2 offset" style="--gs:2" d="M378,48 Q431,88 429.75,119.25 Q422.25,306.75 421,338"/><text class="g3" style="--gs:3" x="128" y="386">③</text><path class="g3 aligned" style="--gs:3" d="M128,386 Q195,394 350.25,374.5 Q816,316 838.75,319.75 Q884.25,327.25 907,331"/><path class="g3 offset" style="--gs:3" d="M128,482 Q195,490 350.25,470.5 Q816,412 838.75,415.75 Q884.25,423.25 907,427"/><text class="g4" style="--gs:4" x="360" y="409">④</text><path class="g4 aligned" style="--gs:4" d="M360,409 L416,515"/><path class="g4 offset" style="--gs:4" d="M480,409 L536,515"/><text class="g5" style="--gs:5" x="607" y="357">⑤</text><path class="g5 aligned" style="--gs:5" d="M607,357 Q631,399 621.88,413.88 Q567.13,503.13 558,518"/><path class="g5 offset" style="--gs:5" d="M511,357 Q523,378 518.44,385.44 Q491.06,430.06 486.5,437.5"/><text class="g6" style="--gs:6" x="300" y="556">⑥</text><path class="g6 aligned" style="--gs:6" d="M300,556 L721,524"/><path class="g6 offset" style="--gs:6" d="M300,652 L721,620"/><text class="g7" style="--gs:7" x="183" y="710">⑦</text><path class="g7 aligned" style="--gs:7" d="M183,710 Q242,724 371,708.25 Q758,661 783.5,665.25 Q834.5,673.75 860,678"/><path class="g7 offset" style="--gs:7" d="M183,806 Q242,820 371,804.25 Q758,757 783.5,761.25 Q834.5,769.75 860,774"/><text class="g8" style="--gs:8" x="492" y="562">⑧</text><path class="g8 aligned" style="--gs:8" d="M503,576 L509,975"/><path class="g8 offset" style="--gs:8" d="M623,576 L629,975"/></g>
</svg>
