<svg id="z24195" class="acjk" viewBox="0 0 1024 1024" xmlns="http://www.w3.org/2000/svg">
<style>

@keyframes zk {
	to {
		stroke-dashoffset:0;
	}
}
svg.acjk path[clip-path] {
	--t:0.8s;
	animation:zk var(--t) linear forwards var(--d);
	stroke-dasharray:3337;
	stroke-dashoffset:3339;
	stroke-width:128;
	stroke-linecap:round;
	fill:none;
	stroke:#000;
}
svg.acjk path[id] {fill:#ccc;}


    @keyframes guide-fade {
        0% { opacity: 0; }
        3% { opacity: 1; }
        95% { opacity: 1; }
        100% { opacity: 0; }
    }

    svg.acjk #guide-arrow {
        fill: #f77;
    }

    svg.acjk .guides {
        circle {
            fill: #0f6;
        }

        path {
            opacity: 0;
            animation: guide-fade var(--t) linear forwards var(--d);
            stroke-width: 16px;
            stroke-linecap: round;
            stroke: #f77;
            fill: none;
            marker-end: url(#guide-arrow);
        }

        circle,
        path {
            --t: 0.8s;
            opacity: 0;
            animation: guide-fade calc(var(--t) + 0.4s) ease-in-out forwards calc(var(--d) - 0.2s);
        }
    }
</style>
<path id="z24195d1" d="M606 195C589 195 577 182 564 172C542 153 518 135 494 119C486 112 476 105 472 95C471 88 471 77 479 75C493 71 507 76 520 78C550 84 580 90 606 107C616 113 623 123 626 135C631 151 636 168 629 184C625 193 615 195 606 195Z"/>
<path id="z24195d2" d="M401 327C381 327 361 325 342 318C332 315 330 290 340 288C455 277 540 263 628 240C664 230 701 218 738 216C755 214 770 221 785 230C791 234 798 243 794 252C787 262 775 264 765 267C692 284 619 296 546 309C498 316 450 327 401 327Z"/>
<path id="z24195d3" d="M88 914C82 915 82 911 83 906C86 896 95 889 100 879C142 812 183 743 212 669C247 577 262 479 267 381C270 349 272 315 260 284C257 275 249 266 253 256C259 245 274 244 284 248C297 254 309 261 321 269C329 274 333 280 340 288C347 295 346 309 342 318C336 337 336 359 333 379C327 425 321 472 311 518C294 596 268 670 234 742C220 768 206 795 187 819C165 849 143 879 114 902C107 908 98 914 88 914Z"/>
<path id="z24195d4" d="M533 407C528 407 522 408 518 411C509 416 512 428 516 436C530 456 527 484 519 506C498 585 465 660 425 731C406 769 377 800 344 826C341 828 336 834 335 832C330 838 324 844 324 851C329 869 346 880 360 888C368 891 374 897 383 898C387 899 391 897 394 895C414 880 438 871 462 863C539 837 619 819 699 801C705 799 713 798 720 797C730 795 713 772 703 772C628 779 553 789 479 803C474 803 471 805 466 806C460 806 456 809 450 808C446 810 438 811 436 805C434 795 439 785 443 776C487 696 531 615 577 536C592 510 606 484 624 460C630 455 632 446 626 440C608 426 585 420 563 413C553 411 543 407 533 407Z"/>
<path id="z24195d5" d="M798 896C791 896 789 889 784 885C764 859 739 825 720 797C709 780 709 780 703 772C684 745 666 721 645 694C640 686 637 672 646 665C653 664 658 671 664 673C702 699 740 725 777 753C795 769 815 784 824 807C830 822 829 838 829 854C828 868 826 886 811 893C807 895 803 896 798 896Z"/>
<defs>
	<clipPath id="z24195c1"><use href="#z24195d1"/></clipPath>
	<clipPath id="z24195c2"><use href="#z24195d2"/></clipPath>
	<clipPath id="z24195c3"><use href="#z24195d3"/></clipPath>
	<clipPath id="z24195c4"><use href="#z24195d4"/></clipPath>
	<clipPath id="z24195c5"><use href="#z24195d5"/></clipPath>
<marker id="guide-arrow" viewBox="0 0 16 16" refX="5" refY="5" markerWidth="4" markerHeight="4" orient="auto-start-reverse"><path d="M 0 0 L 10 5 L 0 10 z" fill="inherit"/></marker></defs>
<path style="--d:1s;" pathLength="3333" clip-path="url(#z24195c1)" d="M477 86L578 134L622 188"/>
<path style="--d:2s;" pathLength="3333" clip-path="url(#z24195c2)" d="M348 291L438 301L790 241"/>
<path style="--d:3s;" pathLength="3333" clip-path="url(#z24195c3)" d="M260 260L306 307L265 589L192 770L90 906"/>
<path style="--d:4s;" pathLength="3333" clip-path="url(#z24195c4)" d="M519 415L577 466L379 838L412 853L726 787"/>
<path style="--d:5s;" pathLength="3333" clip-path="url(#z24195c5)" d="M649 671L782 815L812 890"/>
<g class="guides"><circle style="--d: 1s" class="g1" cx="477" cy="86" r="16"/><path style="--d: 1s;" class="g1" d="M562.68,17.456000000000003 Q663.68,65.456 669.18,72.206 Q702.18,112.706 707.68,119.456"/><circle style="--d: 2s" class="g2" cx="348" cy="291" r="16"/><path style="--d: 2s;" class="g2" d="M348,387 Q438,397 482,389.5 Q746,344.5 790,337"/><circle style="--d: 3s" class="g3" cx="260" cy="260" r="16"/><path style="--d: 3s;" class="g3" d="M164,260 Q189.55555555555554,300.015479876161 178.16666666666666,420.0619195046439 Q166.77777777777777,540.1083591331269 146.5,617.1594427244581 Q126.22222222222223,694.2105263157895 97.88888888888889,752.1052631578948 Q97.88888888888889,752.1052631578948 69.55555555555554,810"/><circle style="--d: 4s" class="g4" cx="519" cy="415" r="16"/><path style="--d: 4s;" class="g4" d="M604.68,346.456 Q648.3588472622478,394.2590684931507 573.8035734870316,568.5996712328767 Q499.24829971181555,742.9402739726028 511.67417867435154,749.9701369863014 Q524.1000576368875,757 642.3341786743515,726.068602739726 Q642.3341786743515,726.068602739726 760.5682997118155,695.1372054794521"/><circle style="--d: 5s" class="g5" cx="649" cy="671" r="16"/><path style="--d: 5s;" class="g5" d="M734.68,602.456 Q867.68,746.456 871.43,755.831 Q893.93,812.081 897.68,821.456"/></g></svg>