<!--
  Stroke-order data for 度, derived from AnimCJK (https://github.com/parsimonhi/animCJK),
  itself derived from the Arphic PL KaitiM fonts. Distributed under the Arphic Public License
  (see ARPHICPL.TXT). Regenerated by scripts/build-strokes.ts — do not edit by hand.
-->
<svg id="z24230" class="acjk" viewBox="0 0 1024 1024" xmlns="http://www.w3.org/2000/svg">
<g class="glyph"><path id="z24230d1" d="M513 103C526 112 538 126 553 140C563 149 575 152 587 152C595 151 601 146 604 136C606 124 605 106 597 85C590 68 558 56 505 48C493 46 484 45 480 48C475 51 474 58 477 68C479 76 492 87 513 103Z"/><path id="z24230d2" d="M334 255C354 261 376 262 401 258C631 220 754 198 771 191C773 189 775 188 777 187C783 182 785 177 782 172C777 164 766 156 748 151C729 145 710 147 690 154C637 170 582 185 525 197C461 209 349 220 313 223C300 223 321 252 334 255Z"/><path id="z24230d3" d="M313 223C285 201 263 191 249 198C240 201 237 210 243 219C256 239 260 300 258 345C250 470 228 565 195 651C167 721 125 799 68 884C64 889 61 892 60 897C57 904 60 908 68 907C88 903 125 864 178 790C193 768 205 745 218 720C266 619 298 504 312 375C317 322 324 282 334 255C339 243 323 231 313 223Z"/><path id="z24230d4" d="M658 380C690 376 726 373 766 372C802 370 821 366 824 362C827 355 824 347 814 340C780 316 739 315 692 329C684 331 676 333 669 335C630 344 630 344 610 349C558 361 517 366 489 372C456 378 456 378 440 381C404 387 367 392 330 400C318 402 315 408 326 417C345 432 368 436 394 428C410 422 427 418 445 415C476 408 476 408 491 405C505 401 580 389 606 386C641 382 641 382 658 380Z"/><path id="z24230d5" d="M489 372C486 323 489 300 484 296C472 286 452 279 439 277C430 275 424 275 421 278C416 281 416 287 421 300C429 322 435 349 440 381C443 404 443 404 445 415C454 479 458 516 465 527C471 537 478 544 487 536C490 532 493 526 494 521C498 510 495 498 495 486C495 474 492 424 491 405C490 383 490 383 489 372Z"/><path id="z24230d6" d="M669 335C671 323 676 315 679 308C681 301 684 296 687 292C689 286 687 276 676 267C658 251 641 244 627 240C618 237 611 237 606 241C601 244 598 252 603 261C609 274 611 284 613 294C614 304 613 319 610 349C607 374 607 374 606 386C603 410 600 436 598 463C598 476 634 478 636 465C642 436 651 408 658 380C665 350 665 350 669 335Z"/><path id="z24230d7" d="M494 521C498 521 503 521 509 520C539 513 587 507 656 503C662 502 667 499 668 493C668 487 658 477 638 465C627 458 611 461 598 463C565 471 524 480 495 486C484 488 482 521 494 521Z"/><path id="z24230d8" d="M589 772C615 736 637 704 660 662C670 642 683 626 699 615C713 604 717 594 708 584C699 574 684 564 663 555C646 547 628 549 608 557C587 565 563 573 536 581C507 589 470 595 424 600C413 601 406 603 403 609C400 613 405 619 419 625C445 636 476 636 512 625C554 611 580 602 588 603C600 604 605 612 601 626C587 670 574 700 545 741C537 751 528 761 519 771C471 819 378 864 266 888C255 890 253 894 262 901C266 904 286 907 320 905C358 901 390 894 455 871C488 858 526 832 558 806C569 796 579 784 589 772Z"/><path id="z24230d9" d="M558 806C660 897 726 937 745 940C749 940 754 939 760 939C818 932 870 922 917 909C941 902 951 896 949 890C947 887 935 882 910 878C788 858 693 832 627 795C613 787 601 780 589 772C560 751 560 751 545 741C524 726 504 710 484 694C456 671 430 661 408 664C396 665 388 666 388 671C386 675 392 681 404 687C434 701 472 729 519 771C545 794 545 794 558 806Z"/></g>
<defs><clipPath id="z24230c1"><use href="#z24230d1"/></clipPath>
	<clipPath id="z24230c2"><use href="#z24230d2"/></clipPath>
	<clipPath id="z24230c3"><use href="#z24230d3"/></clipPath>
	<clipPath id="z24230c4"><use href="#z24230d4"/></clipPath>
	<clipPath id="z24230c5"><use href="#z24230d5"/></clipPath>
	<clipPath id="z24230c6"><use href="#z24230d6"/></clipPath>
	<clipPath id="z24230c7"><use href="#z24230d7"/></clipPath>
	<clipPath id="z24230c8"><use href="#z24230d8"/></clipPath>
	<clipPath id="z24230c9"><use href="#z24230d9"/></clipPath><marker id="guide-arrow" viewBox="0 0 16 16" refX="5" refY="5" markerWidth="4" markerHeight="4" orient="auto-start-reverse"><path d="M 0 0 L 10 5 L 0 10 z" fill="inherit"/></marker></defs>
<g class="strokes"><path pathLength="3333" clip-path="url(#z24230c1)" d="M481 54L565 101L589 147"/><path pathLength="3333" clip-path="url(#z24230c2)" d="M323 225L383 238L779 176"/><path pathLength="3333" clip-path="url(#z24230c3)" d="M246 206L295 261L253 548L174 752L67 899"/><path pathLength="3333" clip-path="url(#z24230c4)" d="M329 410L737 346L819 356"/><path pathLength="3333" clip-path="url(#z24230c5)" d="M425 285L457 313L480 536"/><path pathLength="3333" clip-path="url(#z24230c6)" d="M610 245L650 294L611 463"/><path pathLength="3333" clip-path="url(#z24230c7)" d="M498 514L596 485L661 493"/><path pathLength="3333" clip-path="url(#z24230c8)" d="M409 613L604 579L657 609L513 809L411 864L264 894"/><path pathLength="3333" clip-path="url(#z24230c9)" d="M396 672L750 893L941 894"/></g>
<g class="guides"><text class="g1" style="--gs:1" x="481" y="54">①</text><path class="g1 aligned" style="--gs:1" d="M481,54 Q565,101 568,106.75 Q586,141.25 589,147"/><path class="g1 offset" style="--gs:1" d="M481,150 Q523,173.5 524.5,176.38 Q533.5,193.63 535,196.5"/><text class="g2" style="--gs:2" x="323" y="225">②</text><path class="g2 aligned" style="--gs:2" d="M323,225 Q383,238 432.5,230.25 Q729.5,183.75 779,176"/><path class="g2 offset" style="--gs:2" d="M323,321 Q383,334 432.5,326.25 Q729.5,279.75 779,272"/><text class="g3" style="--gs:3" x="246" y="206">③</text><path class="g3 aligned" style="--gs:3" d="M246,206 Q295,261 274,404.5 Q253,548 213.5,650 Q174,752 120.5,825.5 Q120.5,825.5 67,899"/><path class="g3 offset" style="--gs:3" d="M150,206 Q178.37,253.38 166.21,377 Q154.05,500.62 131.18,588.49 Q108.32,676.36 77.34,739.68 Q77.34,739.68 46.37,803"/><text class="g4" style="--gs:4" x="329" y="410">④</text><path class="g4 aligned" style="--gs:4" d="M329,410 Q737,346 747.25,347.25 Q808.75,354.75 819,356"/><path class="g4 offset" style="--gs:4" d="M329,506 Q737,442 747.25,443.25 Q808.75,450.75 819,452"/><text class="g5" style="--gs:5" x="425" y="285">⑤</text><path class="g5 aligned" style="--gs:5" d="M425,285 Q457,313 459.88,340.88 Q477.13,508.13 480,536"/><path class="g5 offset" style="--gs:5" d="M510.68,216.46 Q542.68,244.46 545.55,272.33 Q562.8,439.58 565.68,467.46"/><text class="g6" style="--gs:6" x="610" y="245">⑥</text><path class="g6 aligned" style="--gs:6" d="M610,245 Q650,294 645.13,315.13 Q615.88,441.88 611,463"/><path class="g6 offset" style="--gs:6" d="M514,245 Q554,294 549.13,315.13 Q519.88,441.88 515,463"/><text class="g7" style="--gs:7" x="498" y="514">⑦</text><path class="g7 aligned" style="--gs:7" d="M498,514 Q596,485 604.13,486 Q652.88,492 661,493"/><path class="g7 offset" style="--gs:7" d="M498,610 Q596,581 604.13,582 Q652.88,588 661,589"/><text class="g8" style="--gs:8" x="409" y="613">⑧</text><path class="g8 aligned" style="--gs:8" d="M409,613 Q604,579 630.5,594 Q657,609 585,709 Q513,809 462,836.5 Q411,864 337.5,879 Q337.5,879 264,894"/><path class="g8 offset" style="--gs:8" d="M313,709 Q460.37,692 480.39,699.5 Q500.42,707 446.01,757 Q391.6,807 353.05,820.75 Q314.51,834.5 258.97,842 Q258.97,842 203.42,849.5"/><text class="g9" style="--gs:9" x="396" y="672">⑨</text><path class="g9 aligned" style="--gs:9" d="M396,672 Q750,893 773.88,893.13 Q917.13,893.88 941,894"/><path class="g9 offset" style="--gs:9" d="M481.68,603.46 Q780.03,797.12 800.15,797.23 Q920.88,797.89 941,798"/></g>
</svg>
