<!--
  Stroke-order data for 廴, derived from AnimCJK (https://github.com/parsimonhi/animCJK),
  itself derived from the Arphic PL KaitiM fonts. Distributed under the Arphic Public License
  (see ARPHICPL.TXT). Regenerated by scripts/build-strokes.ts — do not edit by hand.
-->
<svg id="z24308" class="acjk" viewBox="0 0 1024 1024" xmlns="http://www.w3.org/2000/svg">
<g class="glyph"><path style="--part:1" id="z24308d1" d="M241 429C264 374 334 268 363 250C376 241 379 230 369 220C351 202 331 193 312 189C301 186 289 190 277 200C263 210 239 221 205 232C168 243 137 244 128 243C118 241 113 244 111 249C108 253 109 258 118 263C140 277 163 281 182 277C205 271 232 265 263 252C291 239 272 283 270 288C225 378 187 438 179 452C168 471 233 449 241 429Z"/><path style="--part:2" id="z24308d2" d="M302 613C318 585 332 552 349 515C357 495 368 479 381 467C385 462 386 453 381 445C378 440 368 424 354 415C342 406 337 410 317 414C286 421 261 427 241 429C219 433 187 432 179 452C175 457 178 465 190 478C197 486 207 487 219 479C240 463 266 454 283 452C311 451 303 479 299 496C289 534 278 567 264 591C250 613 250 613 243 624C211 674 147 722 60 776C50 781 49 788 56 790C64 792 78 787 98 780C162 753 212 722 250 686C260 675 272 662 283 645C296 624 296 624 302 613Z"/><path style="--part:3" id="z24308d3" d="M283 645C412 726 542 810 672 871C707 887 794 878 936 830C945 826 950 819 952 813C954 806 946 804 930 803C877 798 823 799 767 792C578 767 521 740 302 613C277 598 277 598 264 591C239 577 168 554 126 567C118 569 117 576 121 583C125 589 132 592 142 593C172 593 206 604 243 624C270 638 270 638 283 645Z"/></g>
<defs><clipPath id="z24308c1"><use href="#z24308d1"/></clipPath>
	<clipPath id="z24308c2"><use href="#z24308d2"/></clipPath>
	<clipPath id="z24308c3"><use href="#z24308d3"/></clipPath><marker id="guide-arrow" viewBox="0 0 16 16" refX="5" refY="5" markerWidth="4" markerHeight="4" orient="auto-start-reverse"><path d="M 0 0 L 10 5 L 0 10 z" fill="inherit"/></marker></defs>
<g class="strokes"><path style="--part:1" pathLength="3333" clip-path="url(#z24308c1)" d="M116 252L194 255L289 220L325 241L216 429L184 451"/><path style="--part:2" pathLength="3333" clip-path="url(#z24308c2)" d="M182 459L319 434L343 466L233 672L62 782"/><path style="--part:3" pathLength="3333" clip-path="url(#z24308c3)" d="M124 574L241 601L483 741L690 828L945 816"/></g>
<g class="guides"><text class="g1" style="--gs:1" x="116" y="252">①</text><path class="g1 aligned" style="--gs:1" d="M116,252 Q194,255 241.5,237.5 Q289,220 307,230.5 Q325,241 262.5,340.5 Q262.5,340.5 200,440"/><path class="g1 offset" style="--gs:1" d="M116,348 Q158.17,351 183.85,333.5 Q209.54,316 219.27,326.5 Q229,337 195.21,436.5 Q195.21,436.5 161.42,536"/><text class="g2" style="--gs:2" x="182" y="459">②</text><path class="g2 aligned" style="--gs:2" d="M182,459 Q319,434 331,450 Q343,466 288,569 Q233,672 147.5,727 Q147.5,727 62,782"/><path class="g2 offset" style="--gs:2" d="M86,555 Q154.5,542.5 160.5,550.5 Q166.5,558.5 139,610 Q111.5,661.5 68.75,689 Q68.75,689 26,716.5"/><text class="g3" style="--gs:3" x="124" y="574">③</text><path class="g3 aligned" style="--gs:3" d="M124,574 Q241,601 362,671 Q483,741 586.5,784.5 Q690,828 817.5,822 Q817.5,822 945,816"/><path class="g3 offset" style="--gs:3" d="M201.11,505.46 Q307.12,532.46 416.76,602.46 Q526.39,672.46 620.17,715.96 Q713.95,759.46 829.48,753.46 Q829.48,753.46 945,747.46"/></g>
<g class="parts"><rect data-part="3" data-literal="乀" role="button" tabindex="0" aria-label="Part 乀" x="52" y="502" width="965" height="398"/><rect data-part="2" data-literal="㇇" role="button" tabindex="0" aria-label="Part ㇇" x="0" y="362" width="415" height="492"/><rect data-part="1" data-literal="㇇" role="button" tabindex="0" aria-label="Part ㇇" x="44" y="148" width="353" height="375"/></g>
</svg>
