<svg id="z24320" class="acjk" viewBox="0 0 1024 1024" xmlns="http://www.w3.org/2000/svg">
<style>

@keyframes zk {
	to {
		stroke-dashoffset:0;
	}
}
svg.acjk path[clip-path] {
	--t:0.8s;
	animation:zk var(--t) linear forwards var(--d);
	stroke-dasharray:3337;
	stroke-dashoffset:3339;
	stroke-width:128;
	stroke-linecap:round;
	fill:none;
	stroke:#000;
}
svg.acjk path[id] {fill:#ccc;}


    @keyframes guide-fade {
        0% { opacity: 0; }
        3% { opacity: 1; }
        95% { opacity: 1; }
        100% { opacity: 0; }
    }

    svg.acjk #guide-arrow {
        fill: #f77;
    }

    svg.acjk .guides {
        circle {
            fill: #0f6;
        }

        path {
            opacity: 0;
            animation: guide-fade var(--t) linear forwards var(--d);
            stroke-width: 16px;
            stroke-linecap: round;
            stroke: #f77;
            fill: none;
            marker-end: url(#guide-arrow);
        }

        circle,
        path {
            --t: 0.8s;
            opacity: 0;
            animation: guide-fade calc(var(--t) + 0.4s) ease-in-out forwards calc(var(--d) - 0.2s);
        }
    }
</style>
<path id="z24320d1" d="M612 215C627 212 642 209 660 206C698 199 720 191 726 187C732 181 734 175 731 169C726 160 713 152 693 147C673 141 628 153 557 172C473 193 395 202 324 209C297 211 292 220 312 233C340 251 375 255 417 248C463 239 511 230 561 223C595 218 595 218 612 215Z"/>
<path id="z24320d2" d="M653 499C741 491 803 492 907 501C923 502 934 501 938 495C943 486 941 477 933 469C912 449 887 434 857 420C847 415 833 417 815 422C766 434 694 446 653 451C614 456 614 456 594 458C500 469 437 475 407 479C369 484 369 484 350 486C323 489 173 505 101 506C91 506 85 510 85 518C84 526 91 536 104 546C133 568 161 575 187 566C215 555 264 547 347 534C384 528 384 528 403 525C441 518 534 509 594 504C633 501 633 501 653 499Z"/>
<path id="z24320d3" d="M407 479C409 450 410 419 413 386C414 371 417 361 419 354C422 339 417 329 403 322C370 305 348 297 337 299C322 301 323 309 333 326C348 351 355 405 350 486C348 518 348 518 347 534C342 614 322 696 264 772C235 808 211 828 200 839C190 848 184 854 182 859C180 863 183 866 192 866C202 866 215 860 230 851C258 832 282 813 300 794C348 740 391 654 403 525C406 494 406 494 407 479Z"/>
<path id="z24320d4" d="M599 902C602 920 607 933 613 941C616 945 621 948 627 946C639 940 647 914 651 869C655 813 658 757 656 703C654 669 653 601 653 499C653 467 653 467 653 451C653 381 656 319 665 268C667 255 664 244 653 237C636 225 622 219 612 215C596 209 558 206 561 223C559 227 568 236 577 257C589 286 594 318 594 458C594 489 594 489 594 504C594 722 590 855 599 902Z"/>
<defs>
	<clipPath id="z24320c1"><use href="#z24320d1"/></clipPath>
	<clipPath id="z24320c2"><use href="#z24320d2"/></clipPath>
	<clipPath id="z24320c3"><use href="#z24320d3"/></clipPath>
	<clipPath id="z24320c4"><use href="#z24320d4"/></clipPath>
<marker id="guide-arrow" viewBox="0 0 16 16" refX="5" refY="5" markerWidth="4" markerHeight="4" orient="auto-start-reverse"><path d="M 0 0 L 10 5 L 0 10 z" fill="inherit"/></marker></defs>
<path style="--d:1s;" pathLength="3333" clip-path="url(#z24320c1)" d="M309 221L411 224L727 172"/>
<path style="--d:2s;" pathLength="3333" clip-path="url(#z24320c2)" d="M92 519L176 535L828 456L937 484"/>
<path style="--d:3s;" pathLength="3333" clip-path="url(#z24320c3)" d="M333 307L383 354L357 635L293 769L189 861"/>
<path style="--d:4s;" pathLength="3333" clip-path="url(#z24320c4)" d="M568 219L626 277L624 941"/>
<g class="guides"><circle style="--d: 1s" class="g1" cx="309" cy="221" r="16"/><path style="--d: 1s;" class="g1" d="M309,317 Q411,320 450.5,313.5 Q687.5,274.5 727,268"/><circle style="--d: 2s" class="g2" cx="92" cy="519" r="16"/><path style="--d: 2s;" class="g2" d="M92,615 Q176,631 339,611.25 Q828,552 855.25,559 Q909.75,573 937,580"/><circle style="--d: 3s" class="g3" cx="333" cy="307" r="16"/><path style="--d: 3s;" class="g3" d="M237,307 Q262.25773195876286,345.85559566787003 255.69072164948452,462.0090252707581 Q249.12371134020617,578.1624548736462 232.95876288659792,633.552346570397 Q216.79381443298968,688.942238267148 190.52577319587627,726.971119133574 Q190.52577319587627,726.971119133574 164.25773195876286,765"/><circle style="--d: 4s" class="g4" cx="568" cy="219" r="16"/><path style="--d: 4s;" class="g4" d="M472,219 Q530,277 529.75,360 Q528.25,858 528,941"/></g></svg>