<svg id="z24330" class="acjk" viewBox="0 0 1024 1024" xmlns="http://www.w3.org/2000/svg">
<style>

@keyframes zk {
	to {
		stroke-dashoffset:0;
	}
}
svg.acjk path[clip-path] {
	--t:0.8s;
	animation:zk var(--t) linear forwards var(--d);
	stroke-dasharray:3337;
	stroke-dashoffset:3339;
	stroke-width:128;
	stroke-linecap:round;
	fill:none;
	stroke:#000;
}
svg.acjk path[id] {fill:#ccc;}


    @keyframes guide-fade {
        0% { opacity: 0; }
        3% { opacity: 1; }
        95% { opacity: 1; }
        100% { opacity: 0; }
    }

    svg.acjk #guide-arrow {
        fill: #f77;
    }

    svg.acjk .guides {
        circle {
            fill: #0f6;
        }

        path {
            opacity: 0;
            animation: guide-fade var(--t) linear forwards var(--d);
            stroke-width: 16px;
            stroke-linecap: round;
            stroke: #f77;
            fill: none;
            marker-end: url(#guide-arrow);
        }

        circle,
        path {
            --t: 0.8s;
            opacity: 0;
            animation: guide-fade calc(var(--t) + 0.4s) ease-in-out forwards calc(var(--d) - 0.2s);
        }
    }
</style>
<path id="z24330d1" d="M392 272C396 210 402 163 419 133C422 126 422 119 414 112C382 84 356 76 340 82C331 84 328 90 333 100C362 163 357 212 357 280C357 292 392 284 392 272Z"/>
<path id="z24330d2" d="M238 203C259 225 277 245 299 253C307 255 315 250 320 243C323 236 324 227 322 218C315 194 294 179 264 173C241 168 228 168 225 169C221 170 220 173 222 181C223 187 229 193 238 203Z"/>
<path id="z24330d3" d="M468 149C459 165 445 187 430 217C422 230 436 231 444 225C482 194 511 171 532 160C541 154 544 151 542 146C537 137 530 128 518 119C506 110 493 105 481 105C472 105 468 111 471 123C472 131 472 139 468 149Z"/>
<path id="z24330d4" d="M236 306C226 296 214 289 202 285C190 280 188 292 193 302C209 336 210 398 195 488C192 500 192 511 197 521C201 531 208 540 217 547C223 551 225 550 229 547C231 543 237 531 238 521C241 469 241 402 247 337C247 326 245 313 236 306Z"/>
<path id="z24330d5" d="M247 337C284 325 324 313 357 308C379 304 379 304 390 302C436 293 462 289 473 295C480 299 486 305 488 318C491 348 490 392 487 451C486 464 481 472 468 472C454 472 438 471 428 472C401 473 423 483 446 499C464 511 477 528 490 542C495 547 503 548 509 545C527 531 540 498 540 447C540 350 536 299 541 293C546 285 548 279 543 274C538 268 531 262 517 253C496 238 481 248 468 252C445 260 405 268 392 272C369 277 369 277 357 280C316 289 275 298 236 306C225 308 237 341 247 337Z"/>
<path id="z24330d6" d="M345 327C356 349 355 365 355 376C355 420 352 457 352 490C351 505 355 520 360 530C362 537 368 539 373 534C385 522 388 494 388 455C386 327 409 331 389 319C355 296 337 313 345 327Z"/>
<path id="z24330d7" d="M262 493C281 478 292 467 310 439C316 428 324 418 331 408C334 403 333 397 328 393C312 380 299 376 291 378C287 378 284 381 286 387C291 407 279 432 249 489C242 501 250 502 262 493Z"/>
<path id="z24330d8" d="M410 371C430 415 446 440 457 444C461 446 467 444 473 437C475 431 476 423 475 413C469 392 450 372 419 354C415 352 412 353 410 358C408 360 408 365 410 371Z"/>
<path id="z24330d9" d="M635 217C651 194 670 167 688 135C696 119 702 106 710 98C715 92 715 85 712 79C709 72 700 63 684 53C669 43 656 40 647 42C636 43 633 51 640 62C645 72 647 81 645 91C630 148 604 212 559 279C542 303 560 300 574 288C585 278 600 264 617 242C629 225 629 225 635 217Z"/>
<path id="z24330d10" d="M731 235C807 214 846 201 848 200C852 195 853 190 851 186C846 179 835 173 819 171C802 168 785 172 768 180C747 188 725 195 703 202C682 208 659 213 635 217C625 219 607 238 617 242C641 250 667 252 694 245C719 238 719 238 731 235Z"/>
<path id="z24330d11" d="M706 406C729 362 737 339 747 310C750 298 754 286 761 277C767 268 766 261 758 255C749 247 741 240 731 235C720 228 689 233 694 245C710 287 692 333 672 378C667 388 661 397 655 407C632 439 604 460 557 488C550 491 549 496 556 497C590 501 651 475 682 439C690 428 699 417 706 406Z"/>
<path id="z24330d12" d="M682 439C705 466 738 497 781 532C795 544 815 545 837 541C865 534 890 529 912 525C935 517 942 513 928 506C919 502 884 489 822 472C784 461 746 439 706 406C683 387 683 387 672 378C654 363 637 345 620 327C609 316 597 309 581 308C575 307 569 307 565 312C561 315 563 319 569 323C572 325 575 328 580 330C589 334 615 359 655 407C673 428 673 428 682 439Z"/>
<path id="z24330d13" d="M682 651C730 649 783 648 841 650C897 651 929 649 935 642C940 633 936 622 923 612C879 577 834 569 787 581C756 588 722 593 684 599C642 605 642 605 621 608C527 621 463 628 430 632C387 637 387 637 366 639C281 648 192 657 99 667C82 668 79 675 92 689C113 711 140 720 171 713C231 698 296 684 365 676C404 671 404 671 423 669C463 664 529 656 622 653C662 652 662 652 682 651Z"/>
<path id="z24330d14" d="M430 632C431 623 434 614 439 606C444 593 441 586 432 580C401 558 378 550 360 557C351 560 348 566 354 576C357 582 366 602 366 639C365 664 365 664 365 676C362 772 322 845 256 890C204 924 210 934 256 917C359 876 404 764 423 669C428 644 428 644 430 632Z"/>
<path id="z24330d15" d="M636 965C643 980 651 978 659 965C671 943 679 895 679 815C678 790 678 734 682 651C683 616 683 616 684 599C684 586 688 574 691 565C693 552 690 544 681 538C660 523 644 516 634 514C607 506 592 519 604 536C613 550 620 573 621 608C622 638 622 638 622 653C623 699 622 752 623 815C623 867 620 934 636 965Z"/>
<defs>
	<clipPath id="z24330c1"><use href="#z24330d1"/></clipPath>
	<clipPath id="z24330c2"><use href="#z24330d2"/></clipPath>
	<clipPath id="z24330c3"><use href="#z24330d3"/></clipPath>
	<clipPath id="z24330c4"><use href="#z24330d4"/></clipPath>
	<clipPath id="z24330c5"><use href="#z24330d5"/></clipPath>
	<clipPath id="z24330c6"><use href="#z24330d6"/></clipPath>
	<clipPath id="z24330c7"><use href="#z24330d7"/></clipPath>
	<clipPath id="z24330c8"><use href="#z24330d8"/></clipPath>
	<clipPath id="z24330c9"><use href="#z24330d9"/></clipPath>
	<clipPath id="z24330c10"><use href="#z24330d10"/></clipPath>
	<clipPath id="z24330c11"><use href="#z24330d11"/></clipPath>
	<clipPath id="z24330c12"><use href="#z24330d12"/></clipPath>
	<clipPath id="z24330c13"><use href="#z24330d13"/></clipPath>
	<clipPath id="z24330c14"><use href="#z24330d14"/></clipPath>
	<clipPath id="z24330c15"><use href="#z24330d15"/></clipPath>
<marker id="guide-arrow" viewBox="0 0 16 16" refX="5" refY="5" markerWidth="4" markerHeight="4" orient="auto-start-reverse"><path d="M 0 0 L 10 5 L 0 10 z" fill="inherit"/></marker></defs>
<path style="--d:1s;" pathLength="3333" clip-path="url(#z24330c1)" d="M337 89L385 138L376 282"/>
<path style="--d:2s;" pathLength="3333" clip-path="url(#z24330c2)" d="M229 178L309 249"/>
<path style="--d:3s;" pathLength="3333" clip-path="url(#z24330c3)" d="M478 115L503 152L436 221"/>
<path style="--d:4s;" pathLength="3333" clip-path="url(#z24330c4)" d="M200 293L225 338L218 545"/>
<path style="--d:5s;" pathLength="3333" clip-path="url(#z24330c5)" d="M236 318L467 271L510 285L503 496L485 509L424 477"/>
<path style="--d:6s;" pathLength="3333" clip-path="url(#z24330c6)" d="M350 315L375 340L369 532"/>
<path style="--d:7s;" pathLength="3333" clip-path="url(#z24330c7)" d="M294 384L305 417L253 490"/>
<path style="--d:8s;" pathLength="3333" clip-path="url(#z24330c8)" d="M416 362L464 437"/>
<path style="--d:9s;" pathLength="3333" clip-path="url(#z24330c9)" d="M645 51L678 94L558 289"/>
<path style="--d:10s;" pathLength="3333" clip-path="url(#z24330c10)" d="M619 237L847 190"/>
<path style="--d:11s;" pathLength="3333" clip-path="url(#z24330c11)" d="M702 245L731 285L688 394L641 451L561 492"/>
<path style="--d:12s;" pathLength="3333" clip-path="url(#z24330c12)" d="M571 316L799 502L927 511"/>
<path style="--d:13s;" pathLength="3333" clip-path="url(#z24330c13)" d="M90 675L148 689L815 612L931 624"/>
<path style="--d:14s;" pathLength="3333" clip-path="url(#z24330c14)" d="M358 563L402 603L374 760L323 850L230 918"/>
<path style="--d:15s;" pathLength="3333" clip-path="url(#z24330c15)" d="M606 520L654 573L646 970"/>
<g class="guides"><circle style="--d: 1s" class="g1" cx="337" cy="89" r="16"/><path style="--d: 1s;" class="g1" d="M241,89 Q289,138 287.875,156 Q281.125,264 280,282"/><circle style="--d: 2s" class="g2" cx="229" cy="178" r="16"/><path style="--d: 2s;" class="g2" d="M314.68,109.456 L394.68,180.45600000000002"/><circle style="--d: 3s" class="g3" cx="478" cy="115" r="16"/><path style="--d: 3s;" class="g3" d="M382,115 Q394.5,133.5 390.3125,137.8125 Q365.1875,163.6875 361,168"/><circle style="--d: 4s" class="g4" cx="200" cy="293" r="16"/><path style="--d: 4s;" class="g4" d="M320,293 Q345,338 344.125,363.875 Q338.875,519.125 338,545"/><circle style="--d: 5s" class="g5" cx="236" cy="318" r="16"/><path style="--d: 5s;" class="g5" d="M236,414 Q354.02919708029196,367 365.014598540146,374 Q376,381 374.2116788321168,486.5 Q372.42335766423355,592 367.82481751824815,598.5 Q363.22627737226276,605 347.64233576642334,589 Q347.64233576642334,589 332.05839416058393,573"/><circle style="--d: 6s" class="g6" cx="363" cy="328" r="16"/><path style="--d: 6s;" class="g6" d="M483,328 L489,532"/><circle style="--d: 7s" class="g7" cx="300" cy="401" r="16"/><path style="--d: 7s;" class="g7" d="M420,401 L373,490"/><circle style="--d: 8s" class="g8" cx="416" cy="362" r="16"/><path style="--d: 8s;" class="g8" d="M501.68,293.456 L549.68,368.456"/><circle style="--d: 9s" class="g9" cx="645" cy="51" r="16"/><path style="--d: 9s;" class="g9" d="M549,51 Q565.5,76.65546218487395 558,91.19852941176471 Q513,178.45693277310926 505.5,193"/><circle style="--d: 10s" class="g10" cx="619" cy="237" r="16"/><path style="--d: 10s;" class="g10" d="M619,333 L847,286"/><circle style="--d: 11s" class="g11" cx="702" cy="245" r="16"/><path style="--d: 11s;" class="g11" d="M606,245 Q620.5,269.45344129554655 609.75,302.7712550607288 Q599,336.08906882591094 587.25,353.5121457489879 Q575.5,370.9352226720648 555.5,383.4676113360324 Q555.5,383.4676113360324 535.5,396"/><circle style="--d: 12s" class="g12" cx="571" cy="316" r="16"/><path style="--d: 12s;" class="g12" d="M656.68,247.45600000000002 Q829.8062921348314,407.2672 841.9555056179775,408.2338 Q914.850786516854,414.03340000000003 927,415"/><circle style="--d: 13s" class="g13" cx="90" cy="675" r="16"/><path style="--d: 13s;" class="g13" d="M90,771 Q148,785 314.75,765.75 Q815,708 844,711 Q902,717 931,720"/><circle style="--d: 14s" class="g14" cx="358" cy="563" r="16"/><path style="--d: 14s;" class="g14" d="M262,563 Q284,592.1830985915493 277,649.4549295774648 Q270,706.7267605633803 257.25,739.5577464788732 Q244.5,772.3887323943662 221.25,797.1943661971832 Q221.25,797.1943661971832 198,822"/><circle style="--d: 15s" class="g15" cx="606" cy="520" r="16"/><path style="--d: 15s;" class="g15" d="M510,520 Q558,573 557,622.625 Q551,920.375 550,970"/></g></svg>