<!--
  Stroke-order data for 彌, derived from AnimCJK (https://github.com/parsimonhi/animCJK),
  itself derived from the Arphic PL KaitiM fonts. Distributed under the Arphic Public License
  (see ARPHICPL.TXT). Regenerated by scripts/build-strokes.ts — do not edit by hand.
-->
<svg id="z24396" class="acjk" viewBox="0 0 1024 1024" xmlns="http://www.w3.org/2000/svg">
<g class="glyph"><path style="--part:1" id="z24396d1" d="M323 337Q348 247 376 221Q398 194 374 181Q353 171 326 153Q305 141 264 173Q219 195 185 207Q173 208 176 215Q177 219 192 226Q213 233 245 219Q299 204 303 210Q310 217 298 253Q286 290 271 332C265 349 320 354 323 337Z"/><path style="--part:1" id="z24396d2" d="M203 393Q251 377 329 362Q338 359 338 351Q338 345 323 337C308 328 288 329 271 332Q267 332 264 334Q228 349 198 359C187 363 192 397 203 393Z"/><path style="--part:1" id="z24396d3" d="M198 359Q188 349 165 338Q153 329 146 335Q136 341 146 354Q165 388 154 441Q141 511 111 538Q101 551 105 563Q112 575 121 581Q131 588 147 573Q178 537 230 533Q248 532 255 540Q265 553 263 588Q256 687 233 753Q220 789 208 802Q201 811 178 803Q153 796 131 791Q116 785 118 795Q121 807 134 818Q165 849 183 877Q199 896 217 884Q286 824 293 762Q320 566 326 554Q326 553 328 551Q338 535 328 526Q316 510 287 498Q266 489 220 507Q181 519 178 517Q175 514 203 393C205 382 207 366 198 359Z"/><path style="--part:2" id="z24396d4" d="M619 155Q779 115 788 109Q797 100 792 92Q785 80 754 74Q723 68 692 82Q649 98 600 112Q548 125 485 134Q448 141 475 157Q517 179 572 167C603 159 603 159 619 155Z"/><path style="--part:2" id="z24396d5" d="M453 227Q459 240 453 253Q420 322 351 397Q344 404 341 409Q337 416 348 416Q391 409 487 301Q500 283 513 275Q520 268 518 257Q517 247 496 227Q477 211 463 210Q448 210 453 227Z"/><path style="--part:2" id="z24396d6" d="M744 220Q787 245 841 285Q857 298 872 300Q879 300 884 289Q893 276 874 241Q859 208 798 200Q759 196 739 194Q730 191 731 202Q732 214 744 220Z"/><path style="--part:2" id="z24396d7" d="M427 426Q415 419 402 414Q395 413 389 420Q385 424 392 434Q431 569 388 751Q370 814 373 826Q380 857 390 868Q400 881 409 869Q437 833 439 729Q445 516 457 463C460 447 441 433 427 426Z"/><path style="--part:2" id="z24396d8" d="M640 421Q698 409 764 399Q786 395 797 406Q807 410 812 459Q825 621 820 804Q820 832 810 839Q797 849 724 838Q708 837 710 845Q711 852 724 857Q788 896 824 928Q843 946 856 943Q868 940 877 912Q890 869 888 806Q860 466 879 424Q889 403 879 393Q869 378 824 357Q805 348 788 353Q740 369 640 393C616 398 616 398 604 400Q517 415 427 426C411 429 443 471 457 463Q463 457 604 428C628 423 628 423 640 421Z"/><path style="--part:2" id="z24396d9" d="M604 428Q601 698 593 741Q575 822 591 857Q592 863 596 870Q602 885 609 887Q613 893 620 886Q627 882 635 864Q642 843 642 817Q641 774 640 421C640 402 640 402 640 393Q640 261 654 207Q664 186 645 171Q635 164 619 155C605 147 562 154 572 167Q600 207 601 267Q601 333 604 400C604 419 604 419 604 428Z"/><path style="--part:2" id="z24396d10" d="M539 555Q560 521 573 508Q577 504 575 497Q574 490 559 480Q546 471 537 472Q528 473 532 483Q538 496 516 542C507 557 507 557 503 565Q490 587 471 613Q467 617 465 621Q464 625 470 625Q485 621 518 581Q518 580 520 579C533 563 533 563 539 555Z"/><path style="--part:2" id="z24396d11" d="M520 579Q559 612 565 615Q569 615 572 610Q578 604 570 584Q561 565 539 555C524 546 524 546 516 542Q485 529 466 521Q462 520 461 525Q461 528 503 565C514 574 514 574 520 579Z"/><path style="--part:2" id="z24396d12" d="M532 725Q553 692 563 683Q567 679 566 672Q565 666 551 656Q539 647 531 647Q522 648 526 658Q530 668 527 678Q520 694 512 710C503 725 503 725 499 732Q498 733 497 737Q466 783 449 801Q448 805 454 805Q476 798 514 748C526 733 526 733 532 725Z"/><path style="--part:2" id="z24396d13" d="M514 748Q547 781 549 782Q553 783 556 779Q562 773 556 754Q553 736 532 725C519 715 519 715 512 710Q509 709 507 707Q476 688 458 678Q454 677 453 681Q453 685 499 732C509 743 509 743 514 748Z"/><path style="--part:2" id="z24396d14" d="M741 522Q765 486 772 482Q776 478 775 470Q774 463 759 452Q746 442 736 442Q726 443 730 454Q736 467 714 510C706 525 706 525 702 532Q689 553 671 576Q667 580 665 584Q664 590 670 589Q688 585 719 548Q719 547 721 546C734 530 734 530 741 522Z"/><path style="--part:2" id="z24396d15" d="M721 546Q781 594 788 596Q792 596 796 590Q802 583 792 562Q783 540 741 522C723 514 723 514 714 510Q683 495 663 489Q659 486 658 493C687 519 687 519 702 532C715 541 715 541 721 546Z"/><path style="--part:2" id="z24396d16" d="M748 702Q772 663 785 652Q789 646 788 639Q785 632 770 620Q757 610 746 610Q736 611 740 623Q746 636 722 687C712 704 712 704 707 713Q688 744 659 779Q655 785 653 788Q652 794 659 793Q663 793 726 730C741 711 741 711 748 702Z"/><path style="--part:2" id="z24396d17" d="M726 730Q783 782 787 784Q791 784 796 778Q803 771 795 745Q786 721 748 702C731 692 731 692 722 687Q688 669 668 661Q662 658 662 665Q662 671 707 713C720 724 720 724 726 730Z"/></g>
<defs><clipPath id="z24396c1"><use href="#z24396d1"/></clipPath>
	<clipPath id="z24396c2"><use href="#z24396d2"/></clipPath>
	<clipPath id="z24396c3"><use href="#z24396d3"/></clipPath>
	<clipPath id="z24396c4"><use href="#z24396d4"/></clipPath>
	<clipPath id="z24396c5"><use href="#z24396d5"/></clipPath>
	<clipPath id="z24396c6"><use href="#z24396d6"/></clipPath>
	<clipPath id="z24396c7"><use href="#z24396d7"/></clipPath>
	<clipPath id="z24396c8"><use href="#z24396d8"/></clipPath>
	<clipPath id="z24396c9"><use href="#z24396d9"/></clipPath>
	<clipPath id="z24396c10"><use href="#z24396d10"/></clipPath>
	<clipPath id="z24396c11"><use href="#z24396d11"/></clipPath>
	<clipPath id="z24396c12"><use href="#z24396d12"/></clipPath>
	<clipPath id="z24396c13"><use href="#z24396d13"/></clipPath>
	<clipPath id="z24396c14"><use href="#z24396d14"/></clipPath>
	<clipPath id="z24396c15"><use href="#z24396d15"/></clipPath>
	<clipPath id="z24396c16"><use href="#z24396d16"/></clipPath>
	<clipPath id="z24396c17"><use href="#z24396d17"/></clipPath><marker id="guide-arrow" viewBox="0 0 16 16" refX="5" refY="5" markerWidth="4" markerHeight="4" orient="auto-start-reverse"><path d="M 0 0 L 10 5 L 0 10 z" fill="inherit"/></marker></defs>
<g class="strokes"><path style="--part:1" pathLength="3333" clip-path="url(#z24396c1)" d="M184 215L303 179L335 195L345 214L286 333"/><path style="--part:1" pathLength="3333" clip-path="url(#z24396c2)" d="M207 386L258 357L333 351"/><path style="--part:1" pathLength="3333" clip-path="url(#z24396c3)" d="M148 341L180 400L152 542L258 514L296 548L245 804L198 847L128 795"/><path style="--part:2" pathLength="3333" clip-path="url(#z24396c4)" d="M471 145L787 96"/><path style="--part:2" pathLength="3333" clip-path="url(#z24396c5)" d="M459 217L484 263L347 409"/><path style="--part:2" pathLength="3333" clip-path="url(#z24396c6)" d="M737 201L827 237L881 292"/><path style="--part:2" pathLength="3333" clip-path="url(#z24396c7)" d="M398 424L429 470L400 870"/><path style="--part:2" pathLength="3333" clip-path="url(#z24396c8)" d="M437 430L475 439L785 376L843 410L843 876L828 892L717 845"/><path style="--part:2" pathLength="3333" clip-path="url(#z24396c9)" d="M581 171L625 203L613 884"/><path style="--part:2" pathLength="3333" clip-path="url(#z24396c10)" d="M539 475L552 507L472 619"/><path style="--part:2" pathLength="3333" clip-path="url(#z24396c11)" d="M468 527L567 604"/><path style="--part:2" pathLength="3333" clip-path="url(#z24396c12)" d="M534 655L541 688L455 799"/><path style="--part:2" pathLength="3333" clip-path="url(#z24396c13)" d="M460 684L549 776"/><path style="--part:2" pathLength="3333" clip-path="url(#z24396c14)" d="M738 448L748 485L671 582"/><path style="--part:2" pathLength="3333" clip-path="url(#z24396c15)" d="M669 497L789 586"/><path style="--part:2" pathLength="3333" clip-path="url(#z24396c16)" d="M747 613L761 651L661 785"/><path style="--part:2" pathLength="3333" clip-path="url(#z24396c17)" d="M669 667L788 775"/></g>
<g class="guides"><text class="g1" style="--gs:1" x="184" y="215">①</text><path class="g1 aligned" style="--gs:1" d="M184,215 Q303,179 319,187 Q335,195 340,204.5 Q345,214 315.5,273.5 Q315.5,273.5 286,333"/><path class="g1 offset" style="--gs:1" d="M184,311 Q243.5,275 251.5,283 Q259.5,291 262,300.5 Q264.5,310 249.75,331 Q249.75,331 235,352"/><text class="g2" style="--gs:2" x="207" y="386">②</text><path class="g2 aligned" style="--gs:2" d="M207,386 Q258,357 267.38,356.25 Q323.63,351.75 333,351"/><path class="g2 offset" style="--gs:2" d="M207,482 Q258,453 267.38,452.25 Q323.63,447.75 333,447"/><text class="g3" style="--gs:3" x="148" y="341">③</text><path class="g3 aligned" style="--gs:3" d="M148,341 Q180,400 166,471 Q152,542 205,528 Q258,514 277,531 Q296,548 270.5,676 Q245,804 221.5,825.5 Q198,847 163,821 Q163,821 128,795"/><path class="g3 offset" style="--gs:3" d="M52,341 Q68,388.81 61,446.34 Q54,503.87 80.5,492.52 Q107,481.18 116.5,494.95 Q126,508.73 113.25,612.44 Q100.5,716.16 88.75,733.58 Q77,751 59.5,729.93 Q59.5,729.93 42,708.87"/><text class="g4" style="--gs:4" x="471" y="145">④</text><path class="g4 aligned" style="--gs:4" d="M471,145 L787,96"/><path class="g4 offset" style="--gs:4" d="M471,241 L787,192"/><text class="g5" style="--gs:5" x="459" y="217">⑤</text><path class="g5 aligned" style="--gs:5" d="M459,217 Q484,263 466.88,281.25 Q364.13,390.75 347,409"/><path class="g5 offset" style="--gs:5" d="M363,217 Q375.5,240 366.94,249.13 Q315.56,303.88 307,313"/><text class="g6" style="--gs:6" x="737" y="201">⑥</text><path class="g6 aligned" style="--gs:6" d="M737,201 Q827,237 833.75,243.88 Q874.25,285.13 881,292"/><path class="g6 offset" style="--gs:6" d="M822.68,132.46 Q912.68,168.46 919.43,175.33 Q959.93,216.58 966.68,223.46"/><text class="g7" style="--gs:7" x="398" y="424">⑦</text><path class="g7 aligned" style="--gs:7" d="M398,424 Q429,470 425.38,520 Q403.63,820 400,870"/><path class="g7 offset" style="--gs:7" d="M302,424 Q333,470 329.38,520 Q307.63,820 304,870"/><text class="g8" style="--gs:8" x="437" y="430">⑧</text><path class="g8 aligned" style="--gs:8" d="M456,435 Q785,376 814,393 Q843,410 843,643 Q843,876 835.5,884 Q828,892 772.5,868.5 Q772.5,868.5 717,845"/><path class="g8 offset" style="--gs:8" d="M456,531 Q637.08,472 653.04,489 Q669,506 669,739 Q669,972 664.87,980 Q660.74,988 630.2,964.5 Q630.2,964.5 599.65,941"/><text class="g9" style="--gs:9" x="581" y="171">⑨</text><path class="g9 aligned" style="--gs:9" d="M581,171 Q625,203 623.5,288.13 Q614.5,798.88 613,884"/><path class="g9 offset" style="--gs:9" d="M485,171 Q529,203 527.5,288.13 Q518.5,798.88 517,884"/><text class="g10" style="--gs:10" x="539" y="475">⑩</text><path class="g10 aligned" style="--gs:10" d="M546,491 L472,619"/><path class="g10 offset" style="--gs:10" d="M666,491 L592,619"/><text class="g11" style="--gs:11" x="468" y="527">⑪</text><path class="g11 aligned" style="--gs:11" d="M468,527 L567,604"/><path class="g11 offset" style="--gs:11" d="M553.68,458.46 L652.68,535.46"/><text class="g12" style="--gs:12" x="534" y="655">⑫</text><path class="g12 aligned" style="--gs:12" d="M538,672 L455,799"/><path class="g12 offset" style="--gs:12" d="M623.68,740.54 L540.68,867.54"/><text class="g13" style="--gs:13" x="460" y="684">⑬</text><path class="g13 aligned" style="--gs:13" d="M460,684 L549,776"/><path class="g13 offset" style="--gs:13" d="M545.68,615.46 L634.68,707.46"/><text class="g14" style="--gs:14" x="738" y="448">⑭</text><path class="g14 aligned" style="--gs:14" d="M743,467 L671,582"/><path class="g14 offset" style="--gs:14" d="M828.68,535.54 L756.68,650.54"/><text class="g15" style="--gs:15" x="669" y="497">⑮</text><path class="g15 aligned" style="--gs:15" d="M669,497 L789,586"/><path class="g15 offset" style="--gs:15" d="M754.68,428.46 L874.68,517.46"/><text class="g16" style="--gs:16" x="747" y="613">⑯</text><path class="g16 aligned" style="--gs:16" d="M754,632 L661,785"/><path class="g16 offset" style="--gs:16" d="M839.68,700.54 L746.68,853.54"/><text class="g17" style="--gs:17" x="669" y="667">⑰</text><path class="g17 aligned" style="--gs:17" d="M669,667 L788,775"/><path class="g17 offset" style="--gs:17" d="M754.68,598.46 L873.68,706.46"/></g>
<g class="parts"><rect data-part="2" data-literal="爾" role="button" tabindex="0" aria-label="Part 爾" x="275" y="24" width="678" height="940"/><rect data-part="1" data-literal="弓" data-radical="true" role="button" tabindex="0" aria-label="Part 弓 (radical)" x="56" y="107" width="361" height="812"/></g>
</svg>
