<!--
  Stroke-order data for 彔, derived from AnimCJK (https://github.com/parsimonhi/animCJK),
  itself derived from the Arphic PL KaitiM fonts. Distributed under the Arphic Public License
  (see ARPHICPL.TXT). Regenerated by scripts/build-strokes.ts — do not edit by hand.
-->
<svg id="z24404" class="acjk" viewBox="0 0 1024 1024" xmlns="http://www.w3.org/2000/svg">
<g class="glyph"><path style="--part:1" id="z24404d1" d="M468 166Q496 133 508 125Q521 116 516 104Q510 91 466 64Q450 55 440 58Q427 62 431 84Q446 150 329 259Q307 275 276 292Q260 302 263 313Q266 329 288 353Q298 365 312 356Q346 338 497 333Q525 333 535 322Q548 310 520 308Q451 298 375 292Q368 292 366 290Q365 286 371 277Q425 213 459 176C465 169 465 169 468 166Z"/><path style="--part:1" id="z24404d2" d="M526 416Q553 391 617 317Q672 251 726 216Q745 206 734 191Q721 178 684 151Q675 147 620 157Q506 167 468 166C464 166 456 173 459 176Q471 195 532 199Q616 195 622 202Q626 206 618 222Q555 337 516 391Q503 409 500 420C497 428 519 421 526 416Z"/><path style="--part:1" id="z24404d3" d="M493 459Q589 446 864 446Q886 446 891 436Q898 423 879 408Q819 362 754 378Q664 394 526 416C509 419 509 419 500 420Q344 439 162 460Q140 461 156 481Q189 514 233 504Q336 476 451 464C479 461 479 461 493 459Z"/><path style="--part:2" id="z24404d4" d="M531 609Q531 549 543 517Q552 498 535 485Q516 469 493 459C480 454 446 451 451 464Q452 468 458 477Q480 514 479 558Q486 730 477 819Q476 838 466 845Q459 849 378 829Q366 826 367 834Q368 841 378 849Q448 915 471 952Q484 970 501 956Q537 923 538 851Q534 820 531 645C531 621 531 621 531 609Z"/><path style="--part:2" id="z24404d5" d="M293 593Q318 615 346 644Q359 657 373 656Q383 656 389 643Q393 630 386 601Q377 570 289 546Q274 542 268 545Q264 549 264 561Q268 571 293 593Z"/><path style="--part:2" id="z24404d6" d="M165 795Q152 799 152 812Q153 827 165 833Q195 843 236 855Q248 856 258 843Q268 828 402 709Q420 694 431 679Q443 667 440 658Q433 654 420 659Q215 785 165 795Z"/><path style="--part:2" id="z24404d7" d="M574 650Q595 640 709 576Q728 563 753 555Q775 548 766 529Q756 510 731 494Q709 478 697 480Q684 480 687 493Q687 515 607 598Q586 616 562 640C558 644 569 652 574 650Z"/><path style="--part:2" id="z24404d8" d="M531 645Q609 751 709 861Q728 880 757 877Q857 870 890 862Q899 861 900 855Q900 851 887 843Q740 792 665 728Q620 692 574 650C566 643 566 643 562 640Q547 625 531 609C523 601 524 635 531 645Z"/></g>
<defs><clipPath id="z24404c1"><use href="#z24404d1"/></clipPath>
	<clipPath id="z24404c2"><use href="#z24404d2"/></clipPath>
	<clipPath id="z24404c3"><use href="#z24404d3"/></clipPath>
	<clipPath id="z24404c4"><use href="#z24404d4"/></clipPath>
	<clipPath id="z24404c5"><use href="#z24404d5"/></clipPath>
	<clipPath id="z24404c6"><use href="#z24404d6"/></clipPath>
	<clipPath id="z24404c7"><use href="#z24404d7"/></clipPath>
	<clipPath id="z24404c8"><use href="#z24404d8"/></clipPath><marker id="guide-arrow" viewBox="0 0 16 16" refX="5" refY="5" markerWidth="4" markerHeight="4" orient="auto-start-reverse"><path d="M 0 0 L 10 5 L 0 10 z" fill="inherit"/></marker></defs>
<g class="strokes"><path style="--part:1" pathLength="3333" clip-path="url(#z24404c1)" d="M439 64L473 117L315 302L336 325L529 319"/><path style="--part:1" pathLength="3333" clip-path="url(#z24404c2)" d="M466 174L637 177L684 207L508 419"/><path style="--part:1" pathLength="3333" clip-path="url(#z24404c3)" d="M158 470L214 480L779 410L887 432"/><path style="--part:2" pathLength="3333" clip-path="url(#z24404c4)" d="M458 462L510 509L505 848L472 909L376 833"/><path style="--part:2" pathLength="3333" clip-path="url(#z24404c5)" d="M272 554L348 602L378 650"/><path style="--part:2" pathLength="3333" clip-path="url(#z24404c6)" d="M158 810L236 811L432 662"/><path style="--part:2" pathLength="3333" clip-path="url(#z24404c7)" d="M695 484L718 536L569 643"/><path style="--part:2" pathLength="3333" clip-path="url(#z24404c8)" d="M530 614L747 834L891 851"/></g>
<g class="guides"><text class="g1" style="--gs:1" x="439" y="64">①</text><path class="g1 aligned" style="--gs:1" d="M439,64 Q473,117 394,209.5 Q315,302 325.5,313.5 Q336,325 432.5,322 Q432.5,322 529,319"/><path class="g1 offset" style="--gs:1" d="M524.68,-4.54 Q545.07,42.88 497.7,125.65 Q450.33,208.42 456.62,218.71 Q462.92,229 520.78,226.32 Q520.78,226.32 578.65,223.63"/><text class="g2" style="--gs:2" x="466" y="174">②</text><path class="g2 aligned" style="--gs:2" d="M466,174 Q637,177 648.75,184.5 Q684,207 640,260 Q552,366 508,419"/><path class="g2 offset" style="--gs:2" d="M466,270 Q561.7,273 568.27,280.5 Q588,303 563.38,356 Q514.13,462 489.5,515"/><text class="g3" style="--gs:3" x="158" y="470">③</text><path class="g3 aligned" style="--gs:3" d="M158,470 Q214,480 355.25,462.5 Q779,410 806,415.5 Q860,426.5 887,432"/><path class="g3 offset" style="--gs:3" d="M158,566 Q214,576 355.25,558.5 Q779,506 806,511.5 Q860,522.5 887,528"/><text class="g4" style="--gs:4" x="458" y="462">④</text><path class="g4 aligned" style="--gs:4" d="M458,462 Q510,509 507.5,678.5 Q505,848 488.5,878.5 Q472,909 424,871 Q424,871 376,833"/><path class="g4 offset" style="--gs:4" d="M362,462 Q388,498.91 386.75,632 Q385.5,765.1 377.25,789.05 Q369,813 345,783.16 Q345,783.16 321,753.32"/><text class="g5" style="--gs:5" x="272" y="554">⑤</text><path class="g5 aligned" style="--gs:5" d="M272,554 Q348,602 351.75,608 Q374.25,644 378,650"/><path class="g5 offset" style="--gs:5" d="M357.68,485.46 Q433.68,533.46 437.43,539.46 Q459.93,575.46 463.68,581.46"/><text class="g6" style="--gs:6" x="158" y="810">⑥</text><path class="g6 aligned" style="--gs:6" d="M158,810 Q236,811 260.5,792.38 Q407.5,680.63 432,662"/><path class="g6 offset" style="--gs:6" d="M158,714 Q236,715 260.5,696.38 Q407.5,584.63 432,566"/><text class="g7" style="--gs:7" x="695" y="484">⑦</text><path class="g7 aligned" style="--gs:7" d="M695,484 Q718,536 699.38,549.38 Q587.63,629.63 569,643"/><path class="g7 offset" style="--gs:7" d="M599,484 Q610.5,510 601.19,516.69 Q545.31,556.81 536,563.5"/><text class="g8" style="--gs:8" x="530" y="614">⑧</text><path class="g8 aligned" style="--gs:8" d="M530,614 Q747,834 765,836.13 Q873,848.88 891,851"/><path class="g8 offset" style="--gs:8" d="M615.68,545.46 Q781.18,739.97 794.9,741.85 Q877.27,753.12 891,755"/></g>
<g class="parts"><rect data-part="2" data-literal="氺" role="button" tabindex="0" aria-label="Part 氺" x="86" y="390" width="877" height="591"/><rect data-part="1" data-literal="彑" data-radical="true" role="button" tabindex="0" aria-label="Part 彑 (radical)" x="86" y="0" width="873" height="552"/></g>
</svg>
