<svg id="z24426" class="acjk" viewBox="0 0 1024 1024" xmlns="http://www.w3.org/2000/svg">
<style>

@keyframes zk {
	to {
		stroke-dashoffset:0;
	}
}
svg.acjk path[clip-path] {
	--t:0.8s;
	animation:zk var(--t) linear forwards var(--d);
	stroke-dasharray:3337;
	stroke-dashoffset:3339;
	stroke-width:128;
	stroke-linecap:round;
	fill:none;
	stroke:#000;
}
svg.acjk path[id] {fill:#ccc;}


    @keyframes guide-fade {
        0% { opacity: 0; }
        3% { opacity: 1; }
        95% { opacity: 1; }
        100% { opacity: 0; }
    }

    svg.acjk #guide-arrow {
        fill: #f77;
    }

    svg.acjk .guides {
        circle {
            fill: #0f6;
        }

        path {
            opacity: 0;
            animation: guide-fade var(--t) linear forwards var(--d);
            stroke-width: 16px;
            stroke-linecap: round;
            stroke: #f77;
            fill: none;
            marker-end: url(#guide-arrow);
        }

        circle,
        path {
            --t: 0.8s;
            opacity: 0;
            animation: guide-fade calc(var(--t) + 0.4s) ease-in-out forwards calc(var(--d) - 0.2s);
        }
    }
</style>
<path id="z24426d1" d="M432 274Q436 231 441 193C443 172 443 172 444 162Q445 150 447 140Q450 124 452 112Q456 103 458 96Q461 86 443 73Q412 57 391 52Q378 49 370 57Q363 64 370 77Q383 93 385 107Q392 188 393 283C393 296 432 287 432 274Z"/>
<path id="z24426d2" d="M441 193Q489 193 585 161Q588 160 590 158Q597 149 592 142Q585 132 557 129Q533 129 444 162C434 166 431 193 441 193Z"/>
<path id="z24426d3" d="M252 306Q239 296 220 289Q201 279 190 284Q178 291 185 304Q203 337 203 399Q202 406 202 416Q198 662 98 834Q79 871 58 906Q54 913 51 919Q50 929 59 927Q96 920 172 782Q178 767 185 753Q242 621 255 441Q256 374 266 344Q266 343 267 342C271 330 262 314 252 306Z"/>
<path id="z24426d4" d="M267 342Q277 341 289 337Q407 307 516 287Q549 283 550 297Q551 307 535 349Q528 364 535 367Q542 371 553 359Q616 316 641 307Q660 303 659 292Q658 280 590 246Q569 237 544 244Q483 260 432 274C406 280 406 280 393 283Q332 293 252 306C239 308 254 345 267 342Z"/>
<path id="z24426d5" d="M404 443Q464 427 525 409Q525 406 528 404Q528 395 510 389Q470 379 412 406Q409 406 408 407C380 416 380 416 366 421Q303 434 281 442Q259 446 277 458Q304 473 341 461Q351 457 366 454C391 447 391 447 404 443Z"/>
<path id="z24426d6" d="M586 495Q579 476 569 422Q570 410 564 407Q560 404 556 416Q531 474 517 492Q510 499 494 504Q449 514 425 507Q413 503 410 497Q404 484 404 443C407 419 407 419 408 407Q409 394 412 379Q416 364 406 356Q396 346 376 339Q366 335 359 339Q353 343 358 357Q368 388 367 419Q366 420 366 421C366 443 366 443 366 454Q366 517 386 536Q440 569 537 543Q559 536 581 520Q594 511 586 495Z"/>
<path id="z24426d7" d="M362 630C337 613 319 607 306 612C298 614 296 620 300 629C314 649 315 689 303 750C288 798 253 843 199 887C192 891 192 895 199 897C227 897 257 882 290 852C324 824 348 775 361 706C363 688 370 672 376 658C379 648 374 638 362 630Z"/>
<path id="z24426d8" d="M471 653C465 730 467 807 486 844C523 938 652 941 764 931C800 927 883 907 934 878C946 869 949 857 943 843C924 804 913 763 909 720C906 715 903 712 900 711C897 711 894 716 891 725C879 785 865 824 849 841C804 881 682 884 630 878C588 872 555 852 542 836C513 801 517 726 521 696C522 681 525 653 530 641C533 630 538 624 532 616C523 605 515 602 500 596C485 589 465 583 455 590C438 604 472 633 471 653Z"/>
<path id="z24426d9" d="M760 152Q775 185 708 292Q677 340 634 394Q625 403 623 408Q620 417 632 415Q677 409 784 262Q800 229 830 199Q839 190 835 179Q831 169 807 148Q785 132 769 132Q753 133 760 152Z"/>
<path id="z24426d10" d="M773 352Q780 368 773 382Q745 448 656 551Q646 558 644 564Q641 573 652 572Q700 566 804 440Q813 422 838 402Q847 395 844 383Q841 373 820 352Q799 334 784 333Q768 334 773 352Z"/>
<path id="z24426d11" d="M797 512Q809 573 699 703Q696 704 695 707Q664 741 585 809Q578 813 587 816Q641 816 750 712Q754 706 761 700Q800 660 859 575Q868 565 873 559Q880 555 879 545Q878 535 866 523Q836 493 804 498Q795 499 797 512Z"/>
<defs>
	<clipPath id="z24426c1"><use href="#z24426d1"/></clipPath>
	<clipPath id="z24426c2"><use href="#z24426d2"/></clipPath>
	<clipPath id="z24426c3"><use href="#z24426d3"/></clipPath>
	<clipPath id="z24426c4"><use href="#z24426d4"/></clipPath>
	<clipPath id="z24426c5"><use href="#z24426d5"/></clipPath>
	<clipPath id="z24426c6"><use href="#z24426d6"/></clipPath>
	<clipPath id="z24426c7"><use href="#z24426d7"/></clipPath>
	<clipPath id="z24426c8"><use href="#z24426d8"/></clipPath>
	<clipPath id="z24426c9"><use href="#z24426d9"/></clipPath>
	<clipPath id="z24426c10"><use href="#z24426d10"/></clipPath>
	<clipPath id="z24426c11"><use href="#z24426d11"/></clipPath>
<marker id="guide-arrow" viewBox="0 0 16 16" refX="5" refY="5" markerWidth="4" markerHeight="4" orient="auto-start-reverse"><path d="M 0 0 L 10 5 L 0 10 z" fill="inherit"/></marker></defs>
<path style="--d:1s;" pathLength="3333" clip-path="url(#z24426c1)" d="M374 61L421 99L407 279"/>
<path style="--d:2s;" pathLength="3333" clip-path="url(#z24426c2)" d="M448 185L589 145"/>
<path style="--d:3s;" pathLength="3333" clip-path="url(#z24426c3)" d="M191 293L233 352L209 597L147 784L57 919"/>
<path style="--d:4s;" pathLength="3333" clip-path="url(#z24426c4)" d="M259 307L294 318L553 265L604 298L538 360"/>
<path style="--d:5s;" pathLength="3333" clip-path="url(#z24426c5)" d="M278 449L519 402"/>
<path style="--d:6s;" pathLength="3333" clip-path="url(#z24426c6)" d="M366 348L389 379L388 494L418 527L494 528L549 503L562 414"/>
<path style="--d:7s;" pathLength="3333" clip-path="url(#z24426c7)" d="M305 616L341 657L318 774L269 846L203 892"/>
<path style="--d:8s;" pathLength="3333" clip-path="url(#z24426c8)" d="M460 602L515 636L492 719L498 812L540 869L609 897L769 900L877 867L906 835L898 720"/>
<path style="--d:9s;" pathLength="3333" clip-path="url(#z24426c9)" d="M767 141L796 192L630 409"/>
<path style="--d:10s;" pathLength="3333" clip-path="url(#z24426c10)" d="M780 342L806 392L651 566"/>
<path style="--d:11s;" pathLength="3333" clip-path="url(#z24426c11)" d="M805 505L836 552L792 622L690 740L590 810"/>
<g class="guides"><circle style="--d: 1s" class="g1" cx="374" cy="61" r="16"/><path style="--d: 1s;" class="g1" d="M278,61 Q325,99 323.25,121.5 Q312.75,256.5 311,279"/><circle style="--d: 2s" class="g2" cx="448" cy="185" r="16"/><path style="--d: 2s;" class="g2" d="M448,281 L589,241"/><circle style="--d: 3s" class="g3" cx="191" cy="293" r="16"/><path style="--d: 3s;" class="g3" d="M95,293 Q116,342.9520766773163 110,446.6661341853035 Q104,550.3801916932907 88.5,629.5415335463258 Q73,708.702875399361 50.5,765.8514376996804 Q50.5,765.8514376996804 28,823"/><circle style="--d: 4s" class="g4" cx="277" cy="313" r="16"/><path style="--d: 4s;" class="g4" d="M277,409 Q456.7798165137615,361 465.0848623853211,369.25 Q490,394 479.2522935779816,409.5 Q457.75688073394497,440.5 447.0091743119266,456"/><circle style="--d: 5s" class="g5" cx="278" cy="449" r="16"/><path style="--d: 5s;" class="g5" d="M278,545 L519,498"/><circle style="--d: 6s" class="g6" cx="378" cy="364" r="16"/><path style="--d: 6s;" class="g6" d="M498,364 Q508,494 523,510.5 Q538,527 576,527.5 Q614,528 641.5,515.5 Q669,503 675.5,458.5 Q675.5,458.5 682,414"/><circle style="--d: 7s" class="g7" cx="305" cy="616" r="16"/><path style="--d: 7s;" class="g7" d="M209,616 Q227,642.7391304347826 221.25,680.891304347826 Q215.5,719.0434782608695 203.25,742.5217391304348 Q191,766 174.5,781 Q174.5,781 158,796"/><circle style="--d: 8s" class="g8" cx="460" cy="602" r="16"/><path style="--d: 8s;" class="g8" d="M528.544,533.456 Q563.2526995515695,567.456 555.9954260089687,608.956 Q548.7381524663678,650.456 550.6313542600897,696.956 Q552.5245560538117,743.456 565.7769686098654,771.956 Q579.0293811659193,800.456 600.8012017937219,814.456 Q622.5730224215247,828.456 673.058403587444,829.956 Q723.5437847533632,831.456 757.6214170403587,814.956 Q791.6990493273543,798.456 800.8495246636771,782.456 Q810,766.456 807.4757309417041,708.956 Q807.4757309417041,708.956 804.9514618834081,651.456"/><circle style="--d: 9s" class="g9" cx="767" cy="141" r="16"/><path style="--d: 9s;" class="g9" d="M671,141 Q685.5,173.73134328358208 675.125,191.1399253731343 Q612.875,295.5914179104478 602.5,313"/><circle style="--d: 10s" class="g10" cx="780" cy="342" r="16"/><path style="--d: 10s;" class="g10" d="M684,342 Q697,370.57142857142856 687.3125,383 Q629.1875,457.57142857142856 619.5,470"/><circle style="--d: 11s" class="g11" cx="805" cy="505" r="16"/><path style="--d: 11s;" class="g11" d="M709,505 Q727.9024390243902,537.2065573770492 714.4878048780488,561.1901639344262 Q701.0731707317074,585.1737704918032 669.9756097560976,625.6032786885246 Q638.8780487804878,666.0327868852459 608.390243902439,690.016393442623 Q608.390243902439,690.016393442623 577.9024390243902,714"/></g></svg>