<!--
  Stroke-order data for 待, derived from AnimCJK (https://github.com/parsimonhi/animCJK),
  itself derived from the Arphic PL KaitiM fonts. Distributed under the Arphic Public License
  (see ARPHICPL.TXT). Regenerated by scripts/build-strokes.ts — do not edit by hand.
-->
<svg id="z24453" class="acjk" viewBox="0 0 1024 1024" xmlns="http://www.w3.org/2000/svg">
<g class="glyph"><path style="--part:1" id="z24453d1" d="M320 127C327 149 307 194 257 263C233 294 205 326 174 359C167 365 162 369 160 374C156 380 160 383 169 383C201 379 265 330 353 231C364 218 382 199 395 188C402 181 404 173 402 165C400 156 391 142 374 127C358 113 344 105 333 105C320 103 315 112 320 127Z"/><path style="--part:1" id="z24453d2" d="M287 517C303 499 320 480 337 459C355 434 371 416 386 405C392 399 395 391 394 382C392 373 383 359 366 343C350 328 335 320 323 320C310 319 305 327 310 342C315 360 313 376 306 391C261 472 190 562 90 659C83 665 78 669 76 673C72 679 76 684 86 683C112 680 155 646 218 586C230 573 244 562 258 548C277 527 277 527 287 517Z"/><path style="--part:1" id="z24453d3" d="M258 548C276 592 273 666 255 771C253 781 248 790 246 798C245 829 256 866 274 885C284 895 295 892 302 875C311 849 314 821 315 793C315 682 317 614 323 589C326 572 326 560 321 554C310 541 299 529 287 517C277 507 253 535 258 548Z"/><path style="--part:2" id="z24453d4" d="M657 276C748 254 794 240 796 239C802 232 803 226 800 221C794 212 780 204 760 201C740 197 707 207 661 222C624 233 624 233 605 239C573 248 539 250 505 256C478 260 475 269 495 281C535 304 572 296 607 288C640 280 640 280 657 276Z"/><path style="--part:2" id="z24453d5" d="M649 383Q653 328 657 276C660 240 660 240 661 222Q661 155 679 98Q683 86 662 72Q628 53 602 49Q586 45 578 54Q571 61 579 77Q598 104 599 123Q603 178 605 239C606 272 606 272 607 288Q607 337 607 391C607 405 649 397 649 383Z"/><path style="--part:2" id="z24453d6" d="M607 391C539 403 468 416 394 431C381 433 379 439 390 449C398 457 408 462 421 465C433 467 445 466 456 463C560 427 715 402 921 387C929 386 935 386 943 386C955 385 962 382 965 377C968 369 964 360 953 353C919 332 890 324 868 330C784 349 777 358 649 383C621 388 621 388 607 391Z"/><path style="--part:2" id="z24453d7" d="M750 548C777 545 805 541 841 541C876 539 897 537 901 530C904 522 899 513 889 506C853 479 812 475 766 491C761 492 757 493 753 495C712 505 712 505 691 510C670 514 648 519 624 524C557 537 485 551 407 566C393 568 391 574 403 585C411 593 422 598 435 601C447 603 459 603 470 600C540 578 614 562 693 554C731 550 731 550 750 548Z"/><path style="--part:2" id="z24453d8" d="M658 857C637 853 616 850 595 848C586 846 582 849 583 854C583 858 588 863 596 869C644 907 675 940 695 965C704 976 716 976 726 967C747 945 760 905 758 850C753 759 747 595 750 548C752 513 752 513 753 495C753 490 755 486 757 482C763 469 759 458 748 449C729 434 710 424 690 418C677 413 667 413 662 419C657 423 660 431 667 442C680 462 689 485 691 510C692 539 692 539 693 554C698 670 698 760 695 823C694 837 689 847 682 854C675 858 668 858 658 857Z"/><path style="--part:2" id="z24453d9" d="M492 683C504 699 515 718 528 738C534 748 543 755 554 757C560 758 567 754 573 747C578 738 579 723 579 702C578 689 569 676 552 665C512 638 486 626 476 629C471 630 469 636 469 645C469 653 477 665 492 683Z"/></g>
<defs><clipPath id="z24453c1"><use href="#z24453d1"/></clipPath>
	<clipPath id="z24453c2"><use href="#z24453d2"/></clipPath>
	<clipPath id="z24453c3"><use href="#z24453d3"/></clipPath>
	<clipPath id="z24453c4"><use href="#z24453d4"/></clipPath>
	<clipPath id="z24453c5"><use href="#z24453d5"/></clipPath>
	<clipPath id="z24453c6"><use href="#z24453d6"/></clipPath>
	<clipPath id="z24453c7"><use href="#z24453d7"/></clipPath>
	<clipPath id="z24453c8"><use href="#z24453d8"/></clipPath>
	<clipPath id="z24453c9"><use href="#z24453d9"/></clipPath><marker id="guide-arrow" viewBox="0 0 16 16" refX="5" refY="5" markerWidth="4" markerHeight="4" orient="auto-start-reverse"><path d="M 0 0 L 10 5 L 0 10 z" fill="inherit"/></marker></defs>
<g class="strokes"><path style="--part:1" pathLength="3333" clip-path="url(#z24453c1)" d="M326 111L356 175L164 377"/><path style="--part:1" pathLength="3333" clip-path="url(#z24453c2)" d="M316 329L350 389L230 543L81 676"/><path style="--part:1" pathLength="3333" clip-path="url(#z24453c3)" d="M286 532L283 886"/><path style="--part:2" pathLength="3333" clip-path="url(#z24453c4)" d="M490 267L797 227"/><path style="--part:2" pathLength="3333" clip-path="url(#z24453c5)" d="M582 59L638 104L616 387"/><path style="--part:2" pathLength="3333" clip-path="url(#z24453c6)" d="M389 438L438 445L868 361L961 366"/><path style="--part:2" pathLength="3333" clip-path="url(#z24453c7)" d="M403 573L451 580L802 513L897 524"/><path style="--part:2" pathLength="3333" clip-path="url(#z24453c8)" d="M665 421L722 476L725 849L697 921L590 855"/><path style="--part:2" pathLength="3333" clip-path="url(#z24453c9)" d="M479 633L545 703L559 753"/></g>
<g class="guides"><text class="g1" style="--gs:1" x="326" y="111">①</text><path class="g1 aligned" style="--gs:1" d="M326,111 Q356,175 332,200.25 Q188,351.75 164,377"/><path class="g1 offset" style="--gs:1" d="M230,111 Q245,151.9 233,168.04 Q161,264.86 149,281"/><text class="g2" style="--gs:2" x="316" y="329">②</text><path class="g2 aligned" style="--gs:2" d="M316,329 Q350,389 320,427.5 Q230,543 192.75,576.25 Q118.25,642.75 81,676"/><path class="g2 offset" style="--gs:2" d="M220,329 Q238.83,372.4 222.22,400.25 Q172.36,483.8 151.73,507.85 Q110.47,555.95 89.83,580"/><text class="g3" style="--gs:3" x="286" y="532">③</text><path class="g3 aligned" style="--gs:3" d="M286,532 L283,886"/><path class="g3 offset" style="--gs:3" d="M406,532 L403,886"/><text class="g4" style="--gs:4" x="490" y="267">④</text><path class="g4 aligned" style="--gs:4" d="M490,267 L797,227"/><path class="g4 offset" style="--gs:4" d="M490,363 L797,323"/><text class="g5" style="--gs:5" x="582" y="59">⑤</text><path class="g5 aligned" style="--gs:5" d="M582,59 Q638,104 635.25,139.38 Q618.75,351.63 616,387"/><path class="g5 offset" style="--gs:5" d="M486,59 Q542,104 539.25,139.38 Q522.75,351.63 520,387"/><text class="g6" style="--gs:6" x="389" y="438">⑥</text><path class="g6 aligned" style="--gs:6" d="M389,438 Q438,445 545.5,424 Q868,361 891.25,362.25 Q937.75,364.75 961,366"/><path class="g6 offset" style="--gs:6" d="M389,534 Q438,541 545.5,520 Q868,457 891.25,458.25 Q937.75,460.75 961,462"/><text class="g7" style="--gs:7" x="403" y="573">⑦</text><path class="g7 aligned" style="--gs:7" d="M403,573 Q451,580 538.75,563.25 Q802,513 825.75,515.75 Q873.25,521.25 897,524"/><path class="g7 offset" style="--gs:7" d="M403,669 Q451,676 538.75,659.25 Q802,609 825.75,611.75 Q873.25,617.25 897,620"/><text class="g8" style="--gs:8" x="665" y="421">⑧</text><path class="g8 aligned" style="--gs:8" d="M665,421 Q722,476 723.5,662.5 Q725,849 711,885 Q697,921 643.5,888 Q643.5,888 590,855"/><path class="g8 offset" style="--gs:8" d="M569,421 Q597.5,465.44 598.25,616.13 Q599,766.82 592,795.91 Q585,825 558.25,798.34 Q558.25,798.34 531.5,771.67"/><text class="g9" style="--gs:9" x="479" y="633">⑨</text><path class="g9 aligned" style="--gs:9" d="M479,633 Q545,703 546.75,709.25 Q557.25,746.75 559,753"/><path class="g9 offset" style="--gs:9" d="M564.68,564.46 Q630.68,634.46 632.43,640.71 Q642.93,678.21 644.68,684.46"/></g>
<g class="parts"><rect data-part="2" data-literal="寺" role="button" tabindex="0" aria-label="Part 寺" x="317" y="0" width="707" height="993"/><rect data-part="1" data-literal="彳" data-radical="true" role="button" tabindex="0" aria-label="Part 彳 (radical)" x="9" y="39" width="419" height="919"/></g>
</svg>
