<!--
  Stroke-order data for 徽, derived from AnimCJK (https://github.com/parsimonhi/animCJK),
  itself derived from the Arphic PL KaitiM fonts. Distributed under the Arphic Public License
  (see ARPHICPL.TXT). Regenerated by scripts/build-strokes.ts — do not edit by hand.
-->
<svg id="z24509" class="acjk" viewBox="0 0 1024 1024" xmlns="http://www.w3.org/2000/svg">
<g class="glyph"><path id="z24509d1" d="M225 123C232 141 219 182 182 243C164 271 143 301 118 331C113 336 109 340 108 344C105 350 107 352 116 351C139 348 188 301 261 210C270 197 282 182 293 170C297 164 300 157 298 150C296 143 287 132 272 120C257 108 244 103 235 104C224 104 220 111 225 123Z"/><path id="z24509d2" d="M206 503C278 411 308 358 308 353C305 338 286 322 279 316C264 304 250 299 239 300C228 300 225 307 230 320C236 336 236 351 231 365C211 411 187 456 158 499C129 539 97 583 58 629C52 635 48 639 47 643C44 649 48 652 56 651C76 647 120 609 182 533C198 513 198 513 206 503Z"/><path id="z24509d3" d="M182 533Q198 549 195 634Q194 707 173 784Q169 800 176 830Q186 860 196 870Q212 883 222 860Q235 826 234 785Q238 613 245 575Q252 551 243 542Q227 524 216 512Q212 506 206 503C195 496 174 523 182 533Z"/><path id="z24509d4" d="M486 273C494 199 502 150 511 126C513 120 509 112 500 106C483 95 468 90 456 88C447 86 442 87 438 91C434 95 433 100 438 108C448 124 453 181 453 281C453 292 484 284 486 273Z"/><path id="z24509d5" d="M566 258C537 262 510 267 486 273C464 278 464 278 453 281C428 286 406 293 385 300C378 302 376 297 378 290C386 252 388 229 384 223C377 214 368 206 358 199C353 196 348 193 343 195C338 195 336 202 339 211C352 255 348 289 325 312C316 320 313 328 317 335C321 341 328 348 337 354C343 358 350 358 354 354C368 334 428 311 536 288C547 285 558 284 566 285C575 285 575 256 566 258Z"/><path id="z24509d6" d="M566 285C566 293 568 302 572 310C575 318 581 319 587 315C601 303 606 277 615 239C619 219 629 210 633 206C638 199 638 191 633 185C625 175 612 167 598 157C593 153 587 151 581 154C576 155 574 160 576 166C578 175 583 189 583 209C582 223 575 239 566 258C561 266 566 276 566 285Z"/><path id="z24509d7" d="M415 410C434 407 492 389 532 380C550 375 561 371 564 368C567 363 568 360 566 356C563 351 555 347 541 344C530 341 503 348 459 364C429 374 392 382 348 390C331 392 329 398 342 406C350 411 365 415 380 414C391 412 403 411 415 410Z"/><path id="z24509d8" d="M441 522C418 520 396 518 375 518C360 517 357 512 366 505C385 486 405 470 423 457C431 450 434 444 434 440C433 434 427 424 415 410C407 402 380 402 380 414C380 438 362 472 320 506C304 518 299 530 314 553C317 559 323 560 330 558C344 551 375 546 421 542C430 542 450 522 441 522Z"/><path id="z24509d9" d="M512 596C470 602 424 613 376 628C371 629 370 627 373 625C395 602 434 571 488 528C507 512 524 498 540 489C546 485 548 480 547 474C544 463 534 451 518 437C510 430 505 427 499 428C493 428 490 433 490 442C488 458 474 488 441 522C428 535 428 535 421 542C359 603 319 631 310 636C301 639 298 645 299 653C299 659 305 668 317 682C322 688 328 689 337 684C363 667 390 653 418 644C434 639 434 639 442 636C466 627 491 617 519 611C524 610 517 595 512 596Z"/><path id="z24509d10" d="M519 611C534 644 547 661 552 663C556 665 561 663 566 659C570 654 573 644 575 630C575 615 558 592 522 564C516 559 511 557 508 558C505 558 503 561 502 568C501 572 505 581 512 596C517 606 517 606 519 611Z"/><path id="z24509d11" d="M418 644C426 672 433 730 432 820C431 830 429 841 423 845C414 850 369 837 361 848C358 851 365 856 371 861C395 881 414 902 433 921C438 926 446 924 453 916C472 888 481 846 480 793C479 774 475 741 480 693C481 678 484 669 481 664C477 657 464 648 442 636C435 632 416 636 418 644Z"/><path id="z24509d12" d="M322 742C309 766 295 790 278 812C267 825 265 839 272 858C274 866 281 869 292 864C316 849 330 821 337 784C339 769 341 755 339 743C337 738 333 736 331 736C326 736 323 738 322 742Z"/><path id="z24509d13" d="M513 717C538 751 557 770 570 773C576 774 582 770 585 762C586 755 585 746 581 737C577 727 567 722 556 716C537 706 525 699 517 698C512 697 509 699 509 704C508 708 509 712 513 717Z"/><path id="z24509d14" d="M671 394C704 332 737 263 757 207C766 178 775 157 786 142C791 134 790 126 785 118C780 110 767 99 746 90C726 81 710 78 699 82C686 85 683 95 693 108C704 123 708 137 706 154C696 206 683 258 664 310C645 359 621 413 592 469C587 477 584 482 584 487C583 494 587 496 596 493C606 488 629 462 660 412C667 400 667 400 671 394Z"/><path id="z24509d15" d="M779 408C807 398 838 388 871 379C889 373 899 368 902 366C906 360 907 354 904 350C899 343 887 339 869 337C850 335 832 339 815 348C795 357 774 365 752 373C728 381 699 388 671 394C664 395 655 407 660 412C674 426 703 432 745 419C768 412 768 412 779 408Z"/><path id="z24509d16" d="M754 687C771 645 787 611 799 562C808 520 813 485 828 457C834 446 832 438 822 432C806 418 791 410 779 408C767 406 741 408 745 419C753 438 759 459 759 477C760 536 744 598 723 648C716 662 709 677 701 691C661 751 624 782 585 809C575 815 565 823 556 830C547 835 546 840 555 841C606 843 672 803 726 734C737 719 747 703 754 687Z"/><path id="z24509d17" d="M726 734C743 763 815 854 840 860C859 864 953 865 985 857C990 855 989 847 983 842C975 835 936 815 868 780C827 758 787 729 754 687C733 661 733 661 723 648C703 623 684 595 665 565C655 550 642 540 624 534C615 531 608 531 602 536C597 539 598 545 604 551C607 555 611 559 616 562C628 570 655 613 701 691C718 720 718 720 726 734Z"/></g>
<defs><clipPath id="z24509c1"><use href="#z24509d1"/></clipPath>
	<clipPath id="z24509c2"><use href="#z24509d2"/></clipPath>
	<clipPath id="z24509c3"><use href="#z24509d3"/></clipPath>
	<clipPath id="z24509c4"><use href="#z24509d4"/></clipPath>
	<clipPath id="z24509c5"><use href="#z24509d5"/></clipPath>
	<clipPath id="z24509c6"><use href="#z24509d6"/></clipPath>
	<clipPath id="z24509c7"><use href="#z24509d7"/></clipPath>
	<clipPath id="z24509c8"><use href="#z24509d8"/></clipPath>
	<clipPath id="z24509c9"><use href="#z24509d9"/></clipPath>
	<clipPath id="z24509c10"><use href="#z24509d10"/></clipPath>
	<clipPath id="z24509c11"><use href="#z24509d11"/></clipPath>
	<clipPath id="z24509c12"><use href="#z24509d12"/></clipPath>
	<clipPath id="z24509c13"><use href="#z24509d13"/></clipPath>
	<clipPath id="z24509c14"><use href="#z24509d14"/></clipPath>
	<clipPath id="z24509c15"><use href="#z24509d15"/></clipPath>
	<clipPath id="z24509c16"><use href="#z24509d16"/></clipPath>
	<clipPath id="z24509c17"><use href="#z24509d17"/></clipPath><marker id="guide-arrow" viewBox="0 0 16 16" refX="5" refY="5" markerWidth="4" markerHeight="4" orient="auto-start-reverse"><path d="M 0 0 L 10 5 L 0 10 z" fill="inherit"/></marker></defs>
<g class="strokes"><path pathLength="3333" clip-path="url(#z24509c1)" d="M230 111L258 165L115 346"/><path pathLength="3333" clip-path="url(#z24509c2)" d="M238 309L270 349L257 383L54 643"/><path pathLength="3333" clip-path="url(#z24509c3)" d="M199 508L220 556L204 870"/><path pathLength="3333" clip-path="url(#z24509c4)" d="M443 93L479 132L466 282"/><path pathLength="3333" clip-path="url(#z24509c5)" d="M347 205L366 243L359 327L570 269"/><path pathLength="3333" clip-path="url(#z24509c6)" d="M582 158L609 199L580 312"/><path pathLength="3333" clip-path="url(#z24509c7)" d="M341 396L561 361"/><path pathLength="3333" clip-path="url(#z24509c8)" d="M391 408L403 444L336 528L432 527"/><path pathLength="3333" clip-path="url(#z24509c9)" d="M499 434L513 476L338 640L355 657L513 604"/><path pathLength="3333" clip-path="url(#z24509c10)" d="M510 567L565 655"/><path pathLength="3333" clip-path="url(#z24509c11)" d="M426 644L454 683L452 847L429 884L366 849"/><path pathLength="3333" clip-path="url(#z24509c12)" d="M331 741L280 859"/><path pathLength="3333" clip-path="url(#z24509c13)" d="M516 705L570 768"/><path pathLength="3333" clip-path="url(#z24509c14)" d="M695 93L746 142L676 338L593 487"/><path pathLength="3333" clip-path="url(#z24509c15)" d="M663 407L902 358"/><path pathLength="3333" clip-path="url(#z24509c16)" d="M752 420L794 458L744 655L665 769L558 837"/><path pathLength="3333" clip-path="url(#z24509c17)" d="M606 542L836 809L983 849"/></g>
<g class="guides"><text class="g1" style="--gs:1" x="230" y="111">①</text><path class="g1 aligned" style="--gs:1" d="M230,111 Q258,165 240.13,187.63 Q132.88,323.38 115,346"/><path class="g1 offset" style="--gs:1" d="M134,111 Q148,142.94 139.06,156.32 Q85.44,236.62 76.5,250"/><text class="g2" style="--gs:2" x="238" y="309">②</text><path class="g2 aligned" style="--gs:2" d="M238,309 Q270,349 266.75,357.5 Q257,383 206.25,448 Q104.75,578 54,643"/><path class="g2 offset" style="--gs:2" d="M142,309 Q159.78,337.5 157.97,343.56 Q152.56,361.73 124.36,408.05 Q67.97,500.68 39.78,547"/><text class="g3" style="--gs:3" x="199" y="508">③</text><path class="g3 aligned" style="--gs:3" d="M199,508 Q220,556 218,595.25 Q206,830.75 204,870"/><path class="g3 offset" style="--gs:3" d="M319,508 Q340,556 338,595.25 Q326,830.75 324,870"/><text class="g4" style="--gs:4" x="443" y="93">④</text><path class="g4 aligned" style="--gs:4" d="M443,93 Q479,132 477.38,150.75 Q467.63,263.25 466,282"/><path class="g4 offset" style="--gs:4" d="M347,93 Q383,132 381.38,150.75 Q371.63,263.25 370,282"/><text class="g5" style="--gs:5" x="347" y="205">⑤</text><path class="g5 aligned" style="--gs:5" d="M347,205 Q366,243 364.25,264 Q359,327 411.75,312.5 Q517.25,283.5 570,269"/><path class="g5 offset" style="--gs:5" d="M467,205 Q476.5,224 475.63,234.5 Q473,266 499.38,258.75 Q552.13,244.25 578.5,237"/><text class="g6" style="--gs:6" x="582" y="158">⑥</text><path class="g6 aligned" style="--gs:6" d="M582,158 Q609,199 605.38,213.13 Q583.63,297.88 580,312"/><path class="g6 offset" style="--gs:6" d="M486,158 Q513,199 509.38,213.13 Q487.63,297.88 484,312"/><text class="g7" style="--gs:7" x="341" y="396">⑦</text><path class="g7 aligned" style="--gs:7" d="M341,396 L561,361"/><path class="g7 offset" style="--gs:7" d="M341,492 L561,457"/><text class="g8" style="--gs:8" x="391" y="408">⑧</text><path class="g8 aligned" style="--gs:8" d="M397,426 Q336,528 348,527.88 Q420,527.13 432,527"/><path class="g8 offset" style="--gs:8" d="M517,426 Q456,477 468,476.94 Q540,476.56 552,476.5"/><text class="g9" style="--gs:9" x="499" y="434">⑨</text><path class="g9 aligned" style="--gs:9" d="M499,434 Q513,476 425.5,558 Q338,640 346.5,648.5 Q355,657 434,630.5 Q434,630.5 513,604"/><path class="g9 offset" style="--gs:9" d="M619,434 Q626,457.92 582.25,504.62 Q538.5,551.32 542.75,556.16 Q547,561 586.5,545.91 Q586.5,545.91 626,530.82"/><text class="g10" style="--gs:10" x="510" y="567">⑩</text><path class="g10 aligned" style="--gs:10" d="M510,567 L565,655"/><path class="g10 offset" style="--gs:10" d="M595.68,498.46 L650.68,586.46"/><text class="g11" style="--gs:11" x="426" y="644">⑪</text><path class="g11 aligned" style="--gs:11" d="M426,644 Q454,683 453,765 Q452,847 440.5,865.5 Q429,884 397.5,866.5 Q397.5,866.5 366,849"/><path class="g11 offset" style="--gs:11" d="M330,644 Q344,667.4 343.5,716.6 Q343,765.8 337.25,776.9 Q331.5,788 315.75,777.5 Q315.75,777.5 300,767"/><text class="g12" style="--gs:12" x="331" y="741">⑫</text><path class="g12 aligned" style="--gs:12" d="M331,741 L280,859"/><path class="g12 offset" style="--gs:12" d="M451,741 L400,859"/><text class="g13" style="--gs:13" x="516" y="705">⑬</text><path class="g13 aligned" style="--gs:13" d="M516,705 L570,768"/><path class="g13 offset" style="--gs:13" d="M601.68,636.46 L655.68,699.46"/><text class="g14" style="--gs:14" x="695" y="93">⑭</text><path class="g14 aligned" style="--gs:14" d="M695,93 Q746,142 728.5,191 Q676,338 655.25,375.25 Q613.75,449.75 593,487"/><path class="g14 offset" style="--gs:14" d="M599,93 Q650,142 632.5,191 Q580,338 559.25,375.25 Q517.75,449.75 497,487"/><text class="g15" style="--gs:15" x="663" y="407">⑮</text><path class="g15 aligned" style="--gs:15" d="M663,407 L902,358"/><path class="g15 offset" style="--gs:15" d="M663,503 L902,454"/><text class="g16" style="--gs:16" x="752" y="420">⑯</text><path class="g16 aligned" style="--gs:16" d="M752,420 Q794,458 769,556.5 Q744,655 704.5,712 Q665,769 611.5,803 Q611.5,803 558,837"/><path class="g16 offset" style="--gs:16" d="M656,420 Q680.92,449.25 666.08,525.08 Q651.25,600.9 627.82,644.78 Q604.39,688.65 572.65,714.83 Q572.65,714.83 540.92,741"/><text class="g17" style="--gs:17" x="606" y="542">⑰</text><path class="g17 aligned" style="--gs:17" d="M606,542 Q836,809 854.38,814 Q964.63,844 983,849"/><path class="g17 offset" style="--gs:17" d="M691.68,473.46 Q869.41,716.58 883.61,721.13 Q968.8,748.45 983,753"/></g>
</svg>
