<svg id="z24524" class="acjk" viewBox="0 0 1024 1024" xmlns="http://www.w3.org/2000/svg">
<style>

@keyframes zk {
	to {
		stroke-dashoffset:0;
	}
}
svg.acjk path[clip-path] {
	--t:0.8s;
	animation:zk var(--t) linear forwards var(--d);
	stroke-dasharray:3337;
	stroke-dashoffset:3339;
	stroke-width:128;
	stroke-linecap:round;
	fill:none;
	stroke:#000;
}
svg.acjk path[id] {fill:#ccc;}


    @keyframes guide-fade {
        0% { opacity: 0; }
        3% { opacity: 1; }
        95% { opacity: 1; }
        100% { opacity: 0; }
    }

    svg.acjk #guide-arrow {
        fill: #f77;
    }

    svg.acjk .guides {
        circle {
            fill: #0f6;
        }

        path {
            opacity: 0;
            animation: guide-fade var(--t) linear forwards var(--d);
            stroke-width: 16px;
            stroke-linecap: round;
            stroke: #f77;
            fill: none;
            marker-end: url(#guide-arrow);
        }

        circle,
        path {
            --t: 0.8s;
            opacity: 0;
            animation: guide-fade calc(var(--t) + 0.4s) ease-in-out forwards calc(var(--d) - 0.2s);
        }
    }
</style>
<path id="z24524d1" d="M627 263Q663 188 694 171Q713 152 699 132Q681 116 626 87Q607 77 583 86Q469 129 327 145Q309 146 311 157Q314 166 334 172Q362 185 399 172Q484 156 565 141Q587 137 595 145Q602 154 599 171Q586 216 572 253C565 270 619 280 627 263Z"/>
<path id="z24524d2" d="M373 335Q487 313 638 299Q650 298 652 287Q652 280 627 263C611 253 591 253 572 253Q568 252 564 254Q447 285 354 298C340 300 359 338 373 335Z"/>
<path id="z24524d3" d="M767 451Q751 409 738 337Q737 322 729 318Q722 314 719 332Q707 422 694 438Q664 477 510 487Q429 487 393 475Q362 460 355 440Q352 428 356 397Q360 366 370 348Q371 341 373 335C378 322 366 305 354 298Q315 270 304 274Q291 280 297 295Q315 329 311 380Q307 449 330 479Q357 519 451 529Q518 536 622 525Q716 516 752 494Q780 479 767 451Z"/>
<path id="z24524d4" d="M208 623Q183 696 146 763Q125 802 147 838Q157 857 179 843Q203 824 217 787Q239 733 240 686Q244 649 235 622Q229 612 222 612Q212 613 208 623Z"/>
<path id="z24524d5" d="M302 665Q323 785 415 847Q533 925 758 905Q801 898 836 883Q866 871 867 853Q871 843 829 816Q763 765 715 713Q700 695 696 704Q692 711 699 726Q714 762 728 800Q732 819 727 828Q720 840 680 841Q484 848 401 773Q364 742 346 683Q339 658 326 653Q313 646 304 650Q298 651 302 665Z"/>
<path id="z24524d6" d="M469 623Q520 687 552 704Q568 708 579 695Q586 682 585 664Q573 616 486 583Q468 576 458 580Q451 581 453 594Q454 607 469 623Z"/>
<path id="z24524d7" d="M758 590Q822 633 901 700Q920 719 937 721Q946 721 953 709Q963 693 944 649Q922 589 754 558Q744 554 744 567Q745 580 758 590Z"/>
<defs>
	<clipPath id="z24524c1"><use href="#z24524d1"/></clipPath>
	<clipPath id="z24524c2"><use href="#z24524d2"/></clipPath>
	<clipPath id="z24524c3"><use href="#z24524d3"/></clipPath>
	<clipPath id="z24524c4"><use href="#z24524d4"/></clipPath>
	<clipPath id="z24524c5"><use href="#z24524d5"/></clipPath>
	<clipPath id="z24524c6"><use href="#z24524d6"/></clipPath>
	<clipPath id="z24524c7"><use href="#z24524d7"/></clipPath>
<marker id="guide-arrow" viewBox="0 0 16 16" refX="5" refY="5" markerWidth="4" markerHeight="4" orient="auto-start-reverse"><path d="M 0 0 L 10 5 L 0 10 z" fill="inherit"/></marker></defs>
<path style="--d:1s;" pathLength="3333" clip-path="url(#z24524c1)" d="M316 153L603 113L652 154L602 252L583 253"/>
<path style="--d:2s;" pathLength="3333" clip-path="url(#z24524c2)" d="M362 301L645 284"/>
<path style="--d:3s;" pathLength="3333" clip-path="url(#z24524c3)" d="M303 282L339 328L343 461L452 507L628 498L718 469L734 449L729 327"/>
<path style="--d:4s;" pathLength="3333" clip-path="url(#z24524c4)" d="M223 619L153 841"/>
<path style="--d:5s;" pathLength="3333" clip-path="url(#z24524c5)" d="M309 656L407 810L564 869L702 874L811 847L700 711"/>
<path style="--d:6s;" pathLength="3333" clip-path="url(#z24524c6)" d="M459 587L573 696"/>
<path style="--d:7s;" pathLength="3333" clip-path="url(#z24524c7)" d="M750 563L882 635L943 714"/>
<g class="guides"><circle style="--d: 1s" class="g1" cx="316" cy="153" r="16"/><path style="--d: 1s;" class="g1" d="M316,249 Q511.6041666666667,209 519.953125,219.25 Q545,250 534.9471726190476,274.75 Q514.8415178571429,324.25 504.7886904761905,349"/><circle style="--d: 2s" class="g2" cx="362" cy="301" r="16"/><path style="--d: 2s;" class="g2" d="M362,397 L645,380"/><circle style="--d: 3s" class="g3" cx="303" cy="282" r="16"/><path style="--d: 3s;" class="g3" d="M371.544,213.45600000000002 Q393.80018561484917,259.456 395.0366403712297,325.956 Q396.2730951276102,392.456 429.9664872389791,415.456 Q463.65987935034804,438.456 518.0638886310905,433.956 Q572.467897911833,429.456 600.2881299303945,414.956 Q628.1083619489559,400.456 633.054180974478,390.456 Q638,380.456 636.4544315545244,319.456 Q636.4544315545244,319.456 634.9088631090488,258.456"/><circle style="--d: 4s" class="g4" cx="223" cy="619" r="16"/><path style="--d: 4s;" class="g4" d="M343,619 L273,841"/><circle style="--d: 5s" class="g5" cx="309" cy="656" r="16"/><path style="--d: 5s;" class="g5" d="M240.45600000000002,724.544 Q408.55684462151396,878.544 543.2090517928286,908.044 Q677.8612589641434,937.544 796.2179760956176,940.044 Q914.5746932270916,942.544 1008.0593466135458,929.044 Q1101.5439999999999,915.544 1006.34403187251,847.544 Q1006.34403187251,847.544 911.1440637450199,779.544"/><circle style="--d: 6s" class="g6" cx="459" cy="587" r="16"/><path style="--d: 6s;" class="g6" d="M544.68,518.456 L658.68,627.456"/><circle style="--d: 7s" class="g7" cx="750" cy="563" r="16"/><path style="--d: 7s;" class="g7" d="M835.68,494.456 Q967.68,566.456 975.305,576.331 Q1021.0550000000001,635.581 1028.68,645.456"/></g></svg>