<svg id="z24535" class="acjk" viewBox="0 0 1024 1024" xmlns="http://www.w3.org/2000/svg">
<style>

@keyframes zk {
	to {
		stroke-dashoffset:0;
	}
}
svg.acjk path[clip-path] {
	--t:0.8s;
	animation:zk var(--t) linear forwards var(--d);
	stroke-dasharray:3337;
	stroke-dashoffset:3339;
	stroke-width:128;
	stroke-linecap:round;
	fill:none;
	stroke:#000;
}
svg.acjk path[id] {fill:#ccc;}


    @keyframes guide-fade {
        0% { opacity: 0; }
        3% { opacity: 1; }
        95% { opacity: 1; }
        100% { opacity: 0; }
    }

    svg.acjk #guide-arrow {
        fill: #f77;
    }

    svg.acjk .guides {
        circle {
            fill: #0f6;
        }

        path {
            opacity: 0;
            animation: guide-fade var(--t) linear forwards var(--d);
            stroke-width: 16px;
            stroke-linecap: round;
            stroke: #f77;
            fill: none;
            marker-end: url(#guide-arrow);
        }

        circle,
        path {
            --t: 0.8s;
            opacity: 0;
            animation: guide-fade calc(var(--t) + 0.4s) ease-in-out forwards calc(var(--d) - 0.2s);
        }
    }
</style>
<path id="z24535d1" d="M539 310Q615 297 695 285Q773 270 785 260Q795 251 791 242Q784 227 751 218Q717 209 682 221Q613 242 542 259C505 266 505 266 486 270Q380 289 261 295Q219 299 248 320Q291 347 375 335Q429 326 487 318C522 313 522 313 539 310Z"/>
<path id="z24535d2" d="M531 451Q535 378 539 310C541 276 541 276 542 259Q545 190 561 119Q564 107 543 93Q506 74 481 69Q465 66 456 75Q449 82 457 98Q479 129 480 152Q484 209 486 270C487 302 487 302 487 318Q487 385 486 459C486 474 531 466 531 451Z"/>
<path id="z24535d3" d="M486 459Q410 469 323 483Q304 486 318 501Q331 514 349 519Q368 523 383 519Q486 489 700 489Q719 489 723 481Q727 471 713 457Q662 418 601 436Q570 442 531 451C501 456 501 456 486 459Z"/>
<path id="z24535d4" d="M221 625Q193 692 155 754Q133 790 152 826Q159 845 183 832Q207 814 222 780Q246 731 249 688Q253 652 247 626Q241 616 235 615Q225 616 221 625Z"/>
<path id="z24535d5" d="M855 812Q849 802 827 788Q793 769 698 695Q691 689 685 690Q682 691 685 699Q706 735 728 777Q737 793 727 807Q714 819 669 824Q605 831 538 821Q433 803 402 737Q386 697 376 656Q372 628 352 616Q336 606 329 613Q326 614 350 706Q369 797 419 837Q536 921 740 882Q756 878 772 873Q806 863 844 831Q857 822 855 812Z"/>
<path id="z24535d6" d="M468 601Q519 667 553 687Q569 691 579 679Q586 666 585 649Q578 604 510 576Q474 555 458 560Q451 561 453 573Q454 586 468 601Z"/>
<path id="z24535d7" d="M734 566Q797 606 872 668Q893 687 909 689Q919 689 925 677Q935 661 915 617Q894 566 730 533Q720 529 720 543Q721 556 734 566Z"/>
<defs>
	<clipPath id="z24535c1"><use href="#z24535d1"/></clipPath>
	<clipPath id="z24535c2"><use href="#z24535d2"/></clipPath>
	<clipPath id="z24535c3"><use href="#z24535d3"/></clipPath>
	<clipPath id="z24535c4"><use href="#z24535d4"/></clipPath>
	<clipPath id="z24535c5"><use href="#z24535d5"/></clipPath>
	<clipPath id="z24535c6"><use href="#z24535d6"/></clipPath>
	<clipPath id="z24535c7"><use href="#z24535d7"/></clipPath>
<marker id="guide-arrow" viewBox="0 0 16 16" refX="5" refY="5" markerWidth="4" markerHeight="4" orient="auto-start-reverse"><path d="M 0 0 L 10 5 L 0 10 z" fill="inherit"/></marker></defs>
<path style="--d:1s;" pathLength="3333" clip-path="url(#z24535c1)" d="M247 309L379 310L787 243"/>
<path style="--d:2s;" pathLength="3333" clip-path="url(#z24535c2)" d="M460 80L519 130L502 455"/>
<path style="--d:3s;" pathLength="3333" clip-path="url(#z24535c3)" d="M321 494L628 460L720 469"/>
<path style="--d:4s;" pathLength="3333" clip-path="url(#z24535c4)" d="M235 622L166 832"/>
<path style="--d:5s;" pathLength="3333" clip-path="url(#z24535c5)" d="M337 618L400 778L520 850L686 856L774 825L794 798L689 698"/>
<path style="--d:6s;" pathLength="3333" clip-path="url(#z24535c6)" d="M458 566L568 682"/>
<path style="--d:7s;" pathLength="3333" clip-path="url(#z24535c7)" d="M727 544L850 604L917 683"/>
<g class="guides"><circle style="--d: 1s" class="g1" cx="247" cy="309" r="16"/><path style="--d: 1s;" class="g1" d="M247,405 Q379,406 430,397.625 Q736,347.375 787,339"/><circle style="--d: 2s" class="g2" cx="460" cy="80" r="16"/><path style="--d: 2s;" class="g2" d="M364,80 Q423,130 420.875,170.625 Q408.125,414.375 406,455"/><circle style="--d: 3s" class="g3" cx="321" cy="494" r="16"/><path style="--d: 3s;" class="g3" d="M321,590 Q628,556 639.5,557.125 Q708.5,563.875 720,565"/><circle style="--d: 4s" class="g4" cx="235" cy="622" r="16"/><path style="--d: 4s;" class="g4" d="M355,622 L286,832"/><circle style="--d: 5s" class="g5" cx="337" cy="618" r="16"/><path style="--d: 5s;" class="g5" d="M241,618 Q287.45733041575494,713.4621848739496 331.7024070021882,734.9411764705883 Q375.9474835886214,756.4201680672269 437.1531728665208,758.2100840336134 Q498.3588621444201,760 530.8052516411378,750.7521008403362 Q563.2516411378556,741.5042016806723 570.6258205689278,733.4495798319329 Q578,725.3949579831933 539.2855579868709,695.5630252100841 Q539.2855579868709,695.5630252100841 500.5711159737418,665.7310924369748"/><circle style="--d: 6s" class="g6" cx="458" cy="566" r="16"/><path style="--d: 6s;" class="g6" d="M543.68,497.456 L653.68,613.456"/><circle style="--d: 7s" class="g7" cx="727" cy="544" r="16"/><path style="--d: 7s;" class="g7" d="M812.68,475.456 Q935.68,535.456 944.055,545.331 Q994.305,604.581 1002.68,614.456"/></g></svg>