<svg id="z24613" class="acjk" viewBox="0 0 1024 1024" xmlns="http://www.w3.org/2000/svg">
<style>

@keyframes zk {
	to {
		stroke-dashoffset:0;
	}
}
svg.acjk path[clip-path] {
	--t:0.8s;
	animation:zk var(--t) linear forwards var(--d);
	stroke-dasharray:3337;
	stroke-dashoffset:3339;
	stroke-width:128;
	stroke-linecap:round;
	fill:none;
	stroke:#000;
}
svg.acjk path[id] {fill:#ccc;}


    @keyframes guide-fade {
        0% { opacity: 0; }
        3% { opacity: 1; }
        95% { opacity: 1; }
        100% { opacity: 0; }
    }

    svg.acjk #guide-arrow {
        fill: #f77;
    }

    svg.acjk .guides {
        circle {
            fill: #0f6;
        }

        path {
            opacity: 0;
            animation: guide-fade var(--t) linear forwards var(--d);
            stroke-width: 16px;
            stroke-linecap: round;
            stroke: #f77;
            fill: none;
            marker-end: url(#guide-arrow);
        }

        circle,
        path {
            --t: 0.8s;
            opacity: 0;
            animation: guide-fade calc(var(--t) + 0.4s) ease-in-out forwards calc(var(--d) - 0.2s);
        }
    }
</style>
<path id="z24613d1" d="M474 184C500 155 517 134 530 125C537 119 538 111 537 102C535 93 527 79 510 63C494 48 480 40 468 40C455 38 449 46 454 62C461 90 436 141 375 217C346 251 312 288 274 327C267 333 262 337 260 341C256 347 260 352 270 351C304 346 365 300 447 213C465 194 465 194 474 184Z"/>
<path id="z24613d2" d="M522 348C588 282 622 241 685 206C698 198 702 190 693 180C683 169 664 156 637 141C629 136 612 141 586 150C530 167 492 177 474 184C462 189 434 213 447 213C461 215 501 210 567 197C586 193 585 202 579 214C559 250 527 297 484 356C476 366 513 357 522 348Z"/>
<path id="z24613d3" d="M664 567C690 479 720 422 752 394C765 382 767 366 755 354C743 341 717 328 679 310C665 303 649 303 634 310C595 325 558 340 522 348C497 353 497 353 484 356C425 368 365 378 303 385C291 386 285 389 287 397C288 403 297 406 310 412C329 419 349 418 375 412C453 393 531 382 606 365C644 356 661 381 654 411C640 465 625 515 610 559C604 576 660 585 664 567Z"/>
<path id="z24613d4" d="M305 498C292 500 293 507 307 518C315 524 329 527 348 525C436 513 514 503 580 497C596 495 602 489 597 480C590 469 578 461 560 458C543 454 520 455 491 462C424 475 362 488 305 498Z"/>
<path id="z24613d5" d="M610 559C520 576 390 599 294 607C278 608 274 614 284 628C288 634 294 640 302 643C310 645 319 645 329 644C403 629 554 616 677 606C710 603 686 583 664 567C649 556 628 555 610 559Z"/>
<path id="z24613d6" d="M215 704C198 738 178 771 155 802C138 823 136 848 148 877C153 890 164 895 180 885C218 859 236 820 241 771C243 746 246 724 242 706C240 699 235 694 230 694C223 693 218 697 215 704Z"/>
<path id="z24613d7" d="M320 710C334 787 370 847 431 886C507 934 618 953 763 939C789 936 815 928 839 918C857 910 866 900 869 889C870 880 856 871 827 853C777 822 736 786 701 752C690 741 683 738 680 744C677 748 678 756 684 768C694 790 705 812 713 836C716 848 716 858 712 864C706 871 690 874 666 875C551 877 468 855 417 811C394 791 379 765 369 730C363 711 355 701 347 697C336 691 328 690 323 693C318 695 318 700 320 710Z"/>
<path id="z24613d8" d="M481 707C510 746 533 774 556 784C566 788 576 784 583 775C588 766 590 755 589 744C584 709 552 686 499 668C492 665 475 662 470 664C465 665 463 669 465 678C465 686 472 695 481 707Z"/>
<path id="z24613d9" d="M728 666C765 689 808 716 854 751C869 762 881 769 893 770C899 770 904 765 909 757C915 745 910 726 895 696C882 669 850 650 798 642C765 636 739 635 722 632C714 630 711 632 712 642C713 652 719 660 728 666Z"/>
<defs>
	<clipPath id="z24613c1"><use href="#z24613d1"/></clipPath>
	<clipPath id="z24613c2"><use href="#z24613d2"/></clipPath>
	<clipPath id="z24613c3"><use href="#z24613d3"/></clipPath>
	<clipPath id="z24613c4"><use href="#z24613d4"/></clipPath>
	<clipPath id="z24613c5"><use href="#z24613d5"/></clipPath>
	<clipPath id="z24613c6"><use href="#z24613d6"/></clipPath>
	<clipPath id="z24613c7"><use href="#z24613d7"/></clipPath>
	<clipPath id="z24613c8"><use href="#z24613d8"/></clipPath>
	<clipPath id="z24613c9"><use href="#z24613d9"/></clipPath>
<marker id="guide-arrow" viewBox="0 0 16 16" refX="5" refY="5" markerWidth="4" markerHeight="4" orient="auto-start-reverse"><path d="M 0 0 L 10 5 L 0 10 z" fill="inherit"/></marker></defs>
<path style="--d:1s;" pathLength="3333" clip-path="url(#z24613c1)" d="M461 44L492 108L387 240L266 345"/>
<path style="--d:2s;" pathLength="3333" clip-path="url(#z24613c2)" d="M451 207L606 169L642 192L492 355"/>
<path style="--d:3s;" pathLength="3333" clip-path="url(#z24613c3)" d="M297 394L669 344L709 383L620 571"/>
<path style="--d:4s;" pathLength="3333" clip-path="url(#z24613c4)" d="M305 506L593 477"/>
<path style="--d:5s;" pathLength="3333" clip-path="url(#z24613c5)" d="M286 614L629 583L686 596"/>
<path style="--d:6s;" pathLength="3333" clip-path="url(#z24613c6)" d="M230 700L165 886"/>
<path style="--d:7s;" pathLength="3333" clip-path="url(#z24613c7)" d="M328 698L405 834L474 877L592 906L720 905L814 881L686 747"/>
<path style="--d:8s;" pathLength="3333" clip-path="url(#z24613c8)" d="M471 672L578 776"/>
<path style="--d:9s;" pathLength="3333" clip-path="url(#z24613c9)" d="M718 638L835 690L904 756"/>
<g class="guides"><circle style="--d: 1s" class="g1" cx="461" cy="44" r="16"/><path style="--d: 1s;" class="g1" d="M365,44 Q380.5,87.58803986710964 367.375,110.06312292358805 Q328,177.48837209302326 312.875,195.36627906976744 Q282.625,231.12209302325581 267.5,249"/><circle style="--d: 2s" class="g2" cx="451" cy="207" r="16"/><path style="--d: 2s;" class="g2" d="M451,303 Q528.5,265 533,270.75 Q546.5,288 527.75,328.75 Q490.25,410.25 471.5,451"/><circle style="--d: 3s" class="g3" cx="297" cy="394" r="16"/><path style="--d: 3s;" class="g3" d="M297,490 Q560.6504854368932,440 567.7378640776699,449.75 Q589,479 573.2305825242719,502 Q541.6917475728155,548 525.9223300970874,571"/><circle style="--d: 4s" class="g4" cx="305" cy="506" r="16"/><path style="--d: 4s;" class="g4" d="M305,602 L593,573"/><circle style="--d: 5s" class="g5" cx="286" cy="614" r="16"/><path style="--d: 5s;" class="g5" d="M286,710 Q629,679 636.125,680.625 Q678.875,690.375 686,692"/><circle style="--d: 6s" class="g6" cx="230" cy="700" r="16"/><path style="--d: 6s;" class="g6" d="M350,700 L285,886"/><circle style="--d: 7s" class="g7" cx="328" cy="698" r="16"/><path style="--d: 7s;" class="g7" d="M232,698 Q289.98765432098764,771.2307692307693 315.96913580246917,782.8076923076924 Q341.95061728395063,794.3846153846154 386.3827160493827,802.1923076923076 Q430.8148148148148,810 479.01234567901236,809.7307692307693 Q527.2098765432099,809.4615384615385 562.604938271605,803 Q598,796.5384615384615 549.8024691358025,760.4615384615385 Q549.8024691358025,760.4615384615385 501.60493827160496,724.3846153846154"/><circle style="--d: 8s" class="g8" cx="471" cy="672" r="16"/><path style="--d: 8s;" class="g8" d="M556.68,603.456 L663.68,707.456"/><circle style="--d: 9s" class="g9" cx="718" cy="638" r="16"/><path style="--d: 9s;" class="g9" d="M803.68,569.456 Q920.68,621.456 929.305,629.706 Q981.055,679.206 989.68,687.456"/></g></svg>