<!--
  Stroke-order data for 恩, derived from AnimCJK (https://github.com/parsimonhi/animCJK),
  itself derived from the Arphic PL KaitiM fonts. Distributed under the Arphic Public License
  (see ARPHICPL.TXT). Regenerated by scripts/build-strokes.ts — do not edit by hand.
-->
<svg id="z24681" class="acjk" viewBox="0 0 1024 1024" xmlns="http://www.w3.org/2000/svg">
<g class="glyph"><path id="z24681d1" d="M323 129C314 123 304 118 294 117C288 116 283 118 280 124C278 126 280 131 284 139C314 199 326 297 310 432C303 482 297 512 300 523C302 533 313 557 321 565C329 573 334 571 341 564C346 557 351 550 353 543C356 531 356 519 357 508C358 479 358 430 356 329C353 246 352 193 354 169C354 152 336 139 323 129Z"/><path id="z24681d2" d="M648 515C652 536 661 556 678 580C701 611 719 581 728 565C740 541 737 514 736 485C733 419 732 324 732 203C731 180 736 162 748 147C754 138 755 129 748 122C734 107 708 93 672 76C659 69 648 71 637 77C593 95 536 107 470 116C402 125 353 129 323 129C306 129 337 172 354 169C358 169 444 157 610 133C634 129 652 132 665 143C678 154 679 256 670 449C669 462 664 479 656 489C651 497 646 506 648 515Z"/><path id="z24681d3" d="M524 289C598 271 636 257 640 255C644 250 646 245 643 241C638 234 628 229 613 227C595 223 569 234 531 247C500 257 500 257 484 262C457 270 428 272 397 278C378 281 375 288 390 296C410 307 440 309 478 300C509 293 509 293 524 289Z"/><path id="z24681d4" d="M511 337C513 328 519 313 524 289C529 261 529 261 531 247C535 220 539 203 542 195C544 188 543 183 539 179C534 174 523 169 505 166C492 163 483 162 479 165C472 168 471 174 474 182C479 196 490 223 484 262C480 287 480 287 478 300C470 346 438 401 396 466C393 470 393 474 397 475C413 476 438 451 472 406C484 389 492 375 503 355C505 349 509 343 511 337Z"/><path id="z24681d5" d="M503 355C534 379 565 406 589 429C597 437 605 443 613 445C617 446 620 442 624 438C629 430 628 417 621 397C612 373 577 353 511 337C505 336 498 351 503 355Z"/><path id="z24681d6" d="M353 543C364 545 433 534 648 515C657 515 663 494 656 489C633 469 605 466 581 473C502 489 421 501 357 508C345 510 341 543 353 543Z"/><path id="z24681d7" d="M196 601C177 641 154 680 131 718C116 741 115 766 127 793C133 806 144 810 160 800C177 788 190 770 201 747C214 718 221 691 224 667C226 642 227 620 222 602C219 595 215 591 210 591C203 591 198 595 196 601Z"/><path id="z24681d8" d="M309 653C322 732 356 794 416 835C471 873 541 899 666 901C724 900 842 901 863 851C865 844 853 832 829 811C789 775 756 737 730 699C721 686 715 681 712 687C708 691 708 699 711 711C716 733 720 757 726 783C729 799 729 811 725 818C717 827 699 832 668 833C543 833 456 809 404 760C381 739 365 710 355 673C350 656 343 645 335 641C324 635 317 634 312 637C307 638 307 642 309 653Z"/><path id="z24681d9" d="M472 634C506 670 532 697 557 706C567 709 577 705 583 695C587 686 588 675 586 664C578 631 543 608 485 593C472 589 463 588 457 591C452 592 451 596 453 606C454 614 461 622 472 634Z"/><path id="z24681d10" d="M785 561C821 586 862 615 906 653C919 664 930 672 942 673C947 673 952 668 957 661C963 650 959 632 948 604C934 572 879 548 782 530C774 528 771 530 772 539C772 547 776 555 785 561Z"/></g>
<defs><clipPath id="z24681c1"><use href="#z24681d1"/></clipPath>
	<clipPath id="z24681c2"><use href="#z24681d2"/></clipPath>
	<clipPath id="z24681c3"><use href="#z24681d3"/></clipPath>
	<clipPath id="z24681c4"><use href="#z24681d4"/></clipPath>
	<clipPath id="z24681c5"><use href="#z24681d5"/></clipPath>
	<clipPath id="z24681c6"><use href="#z24681d6"/></clipPath>
	<clipPath id="z24681c7"><use href="#z24681d7"/></clipPath>
	<clipPath id="z24681c8"><use href="#z24681d8"/></clipPath>
	<clipPath id="z24681c9"><use href="#z24681d9"/></clipPath>
	<clipPath id="z24681c10"><use href="#z24681d10"/></clipPath><marker id="guide-arrow" viewBox="0 0 16 16" refX="5" refY="5" markerWidth="4" markerHeight="4" orient="auto-start-reverse"><path d="M 0 0 L 10 5 L 0 10 z" fill="inherit"/></marker></defs>
<g class="strokes"><path pathLength="3333" clip-path="url(#z24681c1)" d="M286 123L321 159L331 212L331 565"/><path pathLength="3333" clip-path="url(#z24681c2)" d="M327 139L650 102L710 141L693 588"/><path pathLength="3333" clip-path="url(#z24681c3)" d="M388 285L638 244"/><path pathLength="3333" clip-path="url(#z24681c4)" d="M480 172L512 200L497 310L400 469"/><path pathLength="3333" clip-path="url(#z24681c5)" d="M507 344L621 437"/><path pathLength="3333" clip-path="url(#z24681c6)" d="M350 533L655 502"/><path pathLength="3333" clip-path="url(#z24681c7)" d="M211 598L142 800"/><path pathLength="3333" clip-path="url(#z24681c8)" d="M316 643L399 789L569 860L693 866L804 844L717 692"/><path pathLength="3333" clip-path="url(#z24681c9)" d="M458 596L580 692"/><path pathLength="3333" clip-path="url(#z24681c10)" d="M779 540L908 608L947 667"/></g>
<g class="guides"><text class="g1" style="--gs:1" x="286" y="123">①</text><path class="g1 aligned" style="--gs:1" d="M286,123 Q321,159 323.5,172.25 Q331,212 331,300.25 Q331,476.75 331,565"/><path class="g1 offset" style="--gs:1" d="M190,123 Q225,159 227.5,172.25 Q235,212 235,300.25 Q235,476.75 235,565"/><text class="g2" style="--gs:2" x="327" y="139">②</text><path class="g2 aligned" style="--gs:2" d="M327,139 Q650,102 665,111.75 Q710,141 705.75,252.75 Q697.25,476.25 693,588"/><path class="g2 offset" style="--gs:2" d="M327,235 Q548.8,198 559.1,205.82 Q590,229.3 587.08,318.97 Q581.24,498.32 578.33,588"/><text class="g3" style="--gs:3" x="388" y="285">③</text><path class="g3 aligned" style="--gs:3" d="M388,285 L638,244"/><path class="g3 offset" style="--gs:3" d="M388,381 L638,340"/><text class="g4" style="--gs:4" x="480" y="172">④</text><path class="g4 aligned" style="--gs:4" d="M480,172 Q512,200 508.25,227.5 Q497,310 472.75,349.75 Q424.25,429.25 400,469"/><path class="g4 offset" style="--gs:4" d="M384,172 Q400,190.95 398.13,209.56 Q392.5,265.39 380.38,292.3 Q356.13,346.1 344,373"/><text class="g5" style="--gs:5" x="507" y="344">⑤</text><path class="g5 aligned" style="--gs:5" d="M507,344 L621,437"/><path class="g5 offset" style="--gs:5" d="M592.68,275.46 L706.68,368.46"/><text class="g6" style="--gs:6" x="350" y="533">⑥</text><path class="g6 aligned" style="--gs:6" d="M350,533 L655,502"/><path class="g6 offset" style="--gs:6" d="M350,629 L655,598"/><text class="g7" style="--gs:7" x="211" y="598">⑦</text><path class="g7 aligned" style="--gs:7" d="M211,598 L142,800"/><path class="g7 offset" style="--gs:7" d="M331,598 L262,800"/><text class="g8" style="--gs:8" x="316" y="643">⑧</text><path class="g8 aligned" style="--gs:8" d="M316,643 Q399,789 484,824.5 Q569,860 631,863 Q693,866 748.5,855 Q804,844 760.5,768 Q760.5,768 717,692"/><path class="g8 offset" style="--gs:8" d="M401.68,574.46 Q453.78,702.48 507.13,733.61 Q560.49,764.74 599.41,767.37 Q638.32,770 673.16,760.35 Q708,750.71 680.69,684.07 Q680.69,684.07 653.39,617.42"/><text class="g9" style="--gs:9" x="458" y="596">⑨</text><path class="g9 aligned" style="--gs:9" d="M458,596 L580,692"/><path class="g9 offset" style="--gs:9" d="M543.68,527.46 L665.68,623.46"/><text class="g10" style="--gs:10" x="779" y="540">⑩</text><path class="g10 aligned" style="--gs:10" d="M779,540 Q908,608 912.88,615.38 Q942.13,659.63 947,667"/><path class="g10 offset" style="--gs:10" d="M864.68,471.46 Q993.68,539.46 998.56,546.83 Q1027.81,591.08 1032.68,598.46"/></g>
</svg>
