<!--
  Stroke-order data for 悌, derived from AnimCJK (https://github.com/parsimonhi/animCJK),
  itself derived from the Arphic PL KaitiM fonts. Distributed under the Arphic Public License
  (see ARPHICPL.TXT). Regenerated by scripts/build-strokes.ts — do not edit by hand.
-->
<svg id="z24716" class="acjk" viewBox="0 0 1024 1024" xmlns="http://www.w3.org/2000/svg">
<g class="glyph"><path style="--part:1" id="z24716d1" d="M121 338Q109 402 87 464Q75 500 98 530Q110 546 127 529Q146 508 153 474Q163 428 158 389Q157 356 144 333Q137 326 131 326Q124 329 121 338Z"/><path style="--part:1" id="z24716d2" d="M284 277Q374 329 385 329C386 329 386 329 387 329Q394 328 397 316Q398 303 387 281Q380 265 351 257Q288 248 284 251C276 253 276 273 284 277Z"/><path style="--part:1" id="z24716d3" d="M284 251Q285 178 302 126Q311 110 308 98Q301 88 247 55Q223 39 203 54Q199 58 205 74Q238 122 238 170Q239 240 242 321Q239 460 237 613Q233 689 213 760Q201 802 228 859Q235 875 243 879Q249 886 256 878Q283 854 282 798Q281 747 284 286Q284 282 284 277C284 260 284 260 284 251Z"/><path style="--part:2" id="z24716d4" d="M493 139Q526 190 552 205Q565 209 575 199Q582 189 582 172Q576 127 516 108Q513 107 510 105Q495 98 486 101Q480 101 481 113Q481 123 493 139Z"/><path style="--part:2" id="z24716d5" d="M717 83Q702 110 650 182Q641 198 657 195Q700 170 724 151Q787 103 801 97Q820 87 810 70Q797 54 770 40Q746 28 734 31Q721 34 726 46Q730 65 717 83Z"/><path style="--part:2" id="z24716d6" d="M772 347Q796 299 821 281Q837 265 823 247Q807 234 759 211Q743 204 722 212Q617 260 467 281Q451 282 453 292Q457 299 474 305Q499 315 531 302Q541 299 553 297C586 290 586 290 602 286Q653 273 704 261Q726 254 735 263Q742 270 739 284Q732 317 722 345C716 360 765 362 772 347Z"/><path style="--part:2" id="z24716d7" d="M634 404Q700 391 786 377Q796 376 797 367Q797 360 772 347C758 338 738 342 722 345Q679 357 638 369C600 380 600 380 581 385Q517 400 459 412C448 414 463 446 474 442Q474 441 476 441Q518 428 582 415C617 408 617 408 634 404Z"/><path style="--part:2" id="z24716d8" d="M630 543Q816 503 848 507Q861 508 866 519Q875 537 840 625Q836 638 823 635Q798 628 764 617Q739 607 755 632Q801 686 809 711Q816 726 829 724Q842 725 859 713Q886 686 907 615Q916 570 945 541Q961 522 950 509Q925 484 890 463Q878 454 818 470Q646 506 630 511C600 518 600 518 585 522Q534 532 499 544Q471 550 456 550Q449 549 450 535Q457 474 474 442C480 432 468 419 459 412Q446 402 426 393Q416 386 406 394Q399 400 407 417Q420 441 412 477Q399 538 382 560Q372 576 382 592Q392 617 406 623Q416 629 438 610Q471 580 556 559C605 548 605 548 630 543Z"/><path style="--part:2" id="z24716d9" d="M585 617Q585 776 567 844Q558 880 582 936Q589 952 596 955Q602 961 608 954Q615 950 624 930Q633 908 632 879Q631 843 630 543C630 522 630 522 630 511Q630 444 634 404C637 381 637 381 638 369Q639 356 644 344Q653 331 650 318Q643 309 602 286C588 277 544 283 553 297Q580 334 581 385C582 405 582 405 582 415Q583 452 586 493Q585 506 585 522C585 585 585 585 585 617Z"/><path style="--part:2" id="z24716d10" d="M556 559Q496 692 327 833Q315 846 324 847Q333 851 345 846Q465 794 567 642Q577 626 585 617C626 576 578 505 556 559Z"/></g>
<defs><clipPath id="z24716c1"><use href="#z24716d1"/></clipPath>
	<clipPath id="z24716c2"><use href="#z24716d2"/></clipPath>
	<clipPath id="z24716c3"><use href="#z24716d3"/></clipPath>
	<clipPath id="z24716c4"><use href="#z24716d4"/></clipPath>
	<clipPath id="z24716c5"><use href="#z24716d5"/></clipPath>
	<clipPath id="z24716c6"><use href="#z24716d6"/></clipPath>
	<clipPath id="z24716c7"><use href="#z24716d7"/></clipPath>
	<clipPath id="z24716c8"><use href="#z24716d8"/></clipPath>
	<clipPath id="z24716c9"><use href="#z24716d9"/></clipPath>
	<clipPath id="z24716c10"><use href="#z24716d10"/></clipPath><marker id="guide-arrow" viewBox="0 0 16 16" refX="5" refY="5" markerWidth="4" markerHeight="4" orient="auto-start-reverse"><path d="M 0 0 L 10 5 L 0 10 z" fill="inherit"/></marker></defs>
<g class="strokes"><path style="--part:1" pathLength="3333" clip-path="url(#z24716c1)" d="M133 331L106 533"/><path style="--part:1" pathLength="3333" clip-path="url(#z24716c2)" d="M290 256L390 321"/><path style="--part:1" pathLength="3333" clip-path="url(#z24716c3)" d="M208 57L269 111L248 877"/><path style="--part:2" pathLength="3333" clip-path="url(#z24716c4)" d="M488 105L571 198"/><path style="--part:2" pathLength="3333" clip-path="url(#z24716c5)" d="M732 39L760 94L654 188"/><path style="--part:2" pathLength="3333" clip-path="url(#z24716c6)" d="M463 291L742 235L784 271L733 343"/><path style="--part:2" pathLength="3333" clip-path="url(#z24716c7)" d="M467 417L790 364"/><path style="--part:2" pathLength="3333" clip-path="url(#z24716c8)" d="M411 395L444 444L414 557L431 584L672 517L879 489L911 526L844 674L755 623"/><path style="--part:2" pathLength="3333" clip-path="url(#z24716c9)" d="M561 299L613 336L604 952"/><path style="--part:2" pathLength="3333" clip-path="url(#z24716c10)" d="M580 561L485 711L330 839"/></g>
<g class="guides"><text class="g1" style="--gs:1" x="133" y="331">①</text><path class="g1 aligned" style="--gs:1" d="M133,331 L106,533"/><path class="g1 offset" style="--gs:1" d="M253,331 L226,533"/><text class="g2" style="--gs:2" x="290" y="256">②</text><path class="g2 aligned" style="--gs:2" d="M290,256 L390,321"/><path class="g2 offset" style="--gs:2" d="M375.68,187.46 L475.68,252.46"/><text class="g3" style="--gs:3" x="208" y="57">③</text><path class="g3 aligned" style="--gs:3" d="M208,57 Q269,111 266.38,206.75 Q250.63,781.25 248,877"/><path class="g3 offset" style="--gs:3" d="M112,57 Q173,111 170.38,206.75 Q154.63,781.25 152,877"/><text class="g4" style="--gs:4" x="488" y="105">④</text><path class="g4 aligned" style="--gs:4" d="M488,105 L571,198"/><path class="g4 offset" style="--gs:4" d="M573.68,36.46 L656.68,129.46"/><text class="g5" style="--gs:5" x="732" y="39">⑤</text><path class="g5 aligned" style="--gs:5" d="M732,39 Q760,94 746.75,105.75 Q667.25,176.25 654,188"/><path class="g5 offset" style="--gs:5" d="M636,39 Q650,66.5 643.38,72.38 Q603.63,107.63 597,113.5"/><text class="g6" style="--gs:6" x="463" y="291">⑥</text><path class="g6 aligned" style="--gs:6" d="M463,291 Q742,235 752.5,244 Q784,271 771.25,289 Q745.75,325 733,343"/><path class="g6 offset" style="--gs:6" d="M463,387 Q655.95,331 663.21,340 Q685,367 676.18,385 Q658.55,421 649.73,439"/><text class="g7" style="--gs:7" x="467" y="417">⑦</text><path class="g7 aligned" style="--gs:7" d="M467,417 L790,364"/><path class="g7 offset" style="--gs:7" d="M467,513 L790,460"/><text class="g8" style="--gs:8" x="411" y="395">⑧</text><path class="g8 aligned" style="--gs:8" d="M411,395 Q444,444 429,500.5 Q414,557 422.5,570.5 Q431,584 551.5,550.5 Q672,517 775.5,503 Q879,489 895,507.5 Q911,526 877.5,600 Q844,674 799.5,648.5 Q799.5,648.5 755,623"/><path class="g8 offset" style="--gs:8" d="M342.46,463.54 Q405.1,512.54 376.62,569.04 Q348.15,625.54 364.29,639.04 Q380.42,652.54 609.15,619.04 Q837.88,585.54 1034.34,571.54 Q1230.8,557.54 1261.17,576.04 Q1291.54,594.54 1227.96,668.54 Q1164.37,742.54 1079.9,717.04 Q1079.9,717.04 995.43,691.54"/><text class="g9" style="--gs:9" x="561" y="299">⑨</text><path class="g9 aligned" style="--gs:9" d="M561,299 Q613,336 611.88,413 Q605.13,875 604,952"/><path class="g9 offset" style="--gs:9" d="M465,299 Q517,336 515.88,413 Q509.13,875 508,952"/><text class="g10" style="--gs:10" x="580" y="561">⑩</text><path class="g10 aligned" style="--gs:10" d="M580,561 Q485,711 465.63,727 Q349.38,823 330,839"/><path class="g10 offset" style="--gs:10" d="M665.68,629.54 Q570.68,779.54 551.3,795.54 Q435.06,891.54 415.68,907.54"/></g>
<g class="parts"><rect data-part="2" data-literal="弟" role="button" tabindex="0" aria-label="Part 弟" x="258" y="0" width="725" height="1024"/><rect data-part="1" data-literal="忄" data-radical="true" role="button" tabindex="0" aria-label="Part 忄 (radical)" x="34" y="0" width="428" height="949"/></g>
</svg>
