<!--
  Stroke-order data for 悩, derived from AnimCJK (https://github.com/parsimonhi/animCJK),
  itself derived from the Arphic PL KaitiM fonts. Distributed under the Arphic Public License
  (see ARPHICPL.TXT). Regenerated by scripts/build-strokes.ts — do not edit by hand.
-->
<svg id="z24745" class="acjk" viewBox="0 0 1024 1024" xmlns="http://www.w3.org/2000/svg">
<g class="glyph"><path style="--part:1" id="z24745d1" d="M143 410C133 450 121 489 107 528C97 552 101 574 118 597C124 606 137 608 148 597C179 562 187 515 181 464C178 440 176 419 168 405C163 398 158 397 155 398C148 399 144 403 143 410Z"/><path style="--part:1" id="z24745d2" d="M310 402C334 420 359 440 380 459C387 466 397 468 406 468C412 467 416 463 419 456C421 447 419 433 413 417C408 405 398 395 381 390C340 377 317 375 311 377C303 379 303 397 310 402Z"/><path style="--part:1" id="z24745d3" d="M311 377C313 308 317 229 334 184C341 165 339 152 323 141C311 132 295 122 278 111C260 98 246 98 233 109C230 111 228 119 234 130C252 163 265 193 266 226C266 271 268 323 268 377C266 469 263 567 259 669C257 719 248 768 234 815C226 841 230 874 248 918C254 932 261 946 276 937C293 924 304 899 304 855C304 823 298 684 310 402C311 385 311 385 311 377Z"/><path style="--part:2" id="z24745d4" d="M523 373C502 369 492 353 483 340C463 312 443 289 424 266C416 255 408 246 411 233C411 228 413 225 419 226C439 229 460 239 480 251C499 262 524 275 536 297C542 308 543 320 544 333C545 346 544 364 531 371C528 372 524 373 523 373Z"/><path style="--part:2" id="z24745d5" d="M662 293C644 292 633 279 624 267C603 239 579 212 559 188C551 179 544 171 544 162C543 154 542 147 548 146C560 142 571 151 585 157C605 166 627 177 648 192C661 200 671 215 676 234C678 245 683 266 678 281C675 286 668 293 662 293Z"/><path style="--part:2" id="z24745d6" d="M729 346C723 343 727 335 731 331C762 289 793 249 820 204C825 195 827 182 826 169C824 158 827 153 838 151C852 147 867 156 895 182C901 188 911 197 911 208C911 218 897 220 891 225C839 262 791 301 743 341C739 344 733 348 729 346Z"/><path style="--part:3" id="z24745d7" d="M518 718C510 718 526 702 529 698C561 660 588 631 620 588C628 576 636 562 643 550C666 505 682 464 683 427C683 420 679 412 680 406C681 398 690 398 697 399C720 400 762 425 761 440C759 451 752 452 681 572C671 587 661 601 650 615C621 648 587 683 549 706C539 711 529 717 518 718Z"/><path style="--part:3" id="z24745d8" d="M727 682C701 660 676 639 650 615C639 605 630 597 620 588C589 560 539 518 529 511C521 505 516 495 522 488C525 484 530 489 534 492C547 498 581 516 643 550C656 557 668 563 681 572C709 590 729 605 743 623C755 639 771 683 754 694C745 699 733 687 727 682Z"/><path style="--part:3" id="z24745d9" d="M429 879C416 876 408 867 400 860C392 852 383 844 387 833C391 820 404 812 411 800C429 769 432 731 434 696C436 653 425 610 407 573C403 565 400 554 409 551C423 545 437 556 450 564C460 571 474 579 481 593C489 608 483 629 483 646C480 688 479 730 475 771C471 802 491 795 514 790C608 767 706 752 802 744C815 744 815 784 802 784C775 782 748 785 721 790C659 799 595 811 535 830C505 838 475 848 451 868C443 874 439 880 429 879Z"/><path style="--part:3" id="z24745d10" d="M829 838C817 837 807 813 802 784C799 771 797 756 802 744C809 728 811 711 813 695C817 652 821 607 814 567C811 554 805 544 801 534C797 526 801 518 809 516C821 511 831 517 842 524C857 533 875 542 891 557C898 563 896 577 892 587C880 610 879 637 875 662C871 686 868 710 867 734C865 764 862 794 848 821C844 828 837 838 829 838Z"/></g>
<defs><clipPath id="z24745c1"><use href="#z24745d1"/></clipPath>
	<clipPath id="z24745c2"><use href="#z24745d2"/></clipPath>
	<clipPath id="z24745c3"><use href="#z24745d3"/></clipPath>
	<clipPath id="z24745c4"><use href="#z24745d4"/></clipPath>
	<clipPath id="z24745c5"><use href="#z24745d5"/></clipPath>
	<clipPath id="z24745c6"><use href="#z24745d6"/></clipPath>
	<clipPath id="z24745c7"><use href="#z24745d7"/></clipPath>
	<clipPath id="z24745c8"><use href="#z24745d8"/></clipPath>
	<clipPath id="z24745c9"><use href="#z24745d9"/></clipPath>
	<clipPath id="z24745c10"><use href="#z24745d10"/></clipPath><marker id="guide-arrow" viewBox="0 0 16 16" refX="5" refY="5" markerWidth="4" markerHeight="4" orient="auto-start-reverse"><path d="M 0 0 L 10 5 L 0 10 z" fill="inherit"/></marker></defs>
<g class="strokes"><path style="--part:1" pathLength="3333" clip-path="url(#z24745c1)" d="M156 404L123 598"/><path style="--part:1" pathLength="3333" clip-path="url(#z24745c2)" d="M312 387L380 420L410 463"/><path style="--part:1" pathLength="3333" clip-path="url(#z24745c3)" d="M235 111L298 172L273 936"/><path style="--part:2" pathLength="3333" clip-path="url(#z24745c4)" d="M420 235L502 308L529 368"/><path style="--part:2" pathLength="3333" clip-path="url(#z24745c5)" d="M550 156L632 222L658 289"/><path style="--part:2" pathLength="3333" clip-path="url(#z24745c6)" d="M834 159L862 213L733 339"/><path style="--part:3" pathLength="3333" clip-path="url(#z24745c7)" d="M688 406L720 443L676 536L525 711"/><path style="--part:3" pathLength="3333" clip-path="url(#z24745c8)" d="M526 495L708 627L752 690"/><path style="--part:3" pathLength="3333" clip-path="url(#z24745c9)" d="M411 560L456 624L432 811L450 833L809 759"/><path style="--part:3" pathLength="3333" clip-path="url(#z24745c10)" d="M809 524L856 581L830 833"/></g>
<g class="guides"><text class="g1" style="--gs:1" x="156" y="404">①</text><path class="g1 aligned" style="--gs:1" d="M156,404 L123,598"/><path class="g1 offset" style="--gs:1" d="M276,404 L243,598"/><text class="g2" style="--gs:2" x="312" y="387">②</text><path class="g2 aligned" style="--gs:2" d="M312,387 Q380,420 383.75,425.38 Q406.25,457.63 410,463"/><path class="g2 offset" style="--gs:2" d="M397.68,318.46 Q465.68,351.46 469.43,356.83 Q491.93,389.08 495.68,394.46"/><text class="g3" style="--gs:3" x="235" y="111">③</text><path class="g3 aligned" style="--gs:3" d="M235,111 Q298,172 294.88,267.5 Q276.13,840.5 273,936"/><path class="g3 offset" style="--gs:3" d="M139,111 Q202,172 198.88,267.5 Q180.13,840.5 177,936"/><text class="g4" style="--gs:4" x="420" y="235">④</text><path class="g4 aligned" style="--gs:4" d="M420,235 Q502,308 505.38,315.5 Q525.63,360.5 529,368"/><path class="g4 offset" style="--gs:4" d="M505.68,166.46 Q587.68,239.46 591.05,246.96 Q611.3,291.96 614.68,299.46"/><text class="g5" style="--gs:5" x="550" y="156">⑤</text><path class="g5 aligned" style="--gs:5" d="M550,156 Q632,222 635.25,230.38 Q654.75,280.63 658,289"/><path class="g5 offset" style="--gs:5" d="M635.68,87.46 Q717.68,153.46 720.93,161.83 Q740.43,212.08 743.68,220.46"/><text class="g6" style="--gs:6" x="834" y="159">⑥</text><path class="g6 aligned" style="--gs:6" d="M834,159 Q862,213 845.88,228.75 Q749.13,323.25 733,339"/><path class="g6 offset" style="--gs:6" d="M738,159 Q752,186 743.94,193.88 Q695.56,241.13 687.5,249"/><text class="g7" style="--gs:7" x="688" y="406">⑦</text><path class="g7 aligned" style="--gs:7" d="M688,406 Q720,443 709,466.25 Q676,536 638.25,579.75 Q562.75,667.25 525,711"/><path class="g7 offset" style="--gs:7" d="M592,406 Q608.25,431.35 602.66,447.29 Q585.91,495.08 566.74,525.06 Q528.41,585.02 509.25,615"/><text class="g8" style="--gs:8" x="526" y="495">⑧</text><path class="g8 aligned" style="--gs:8" d="M526,495 Q708,627 713.5,634.88 Q746.5,682.13 752,690"/><path class="g8 offset" style="--gs:8" d="M611.68,426.46 Q793.68,558.46 799.18,566.33 Q832.18,613.58 837.68,621.46"/><text class="g9" style="--gs:9" x="411" y="560">⑨</text><path class="g9 aligned" style="--gs:9" d="M411,560 Q456,624 444,717.5 Q432,811 441,822 Q450,833 629.5,796 Q629.5,796 809,759"/><path class="g9 offset" style="--gs:9" d="M496.68,491.46 Q531.99,549.02 522.58,633.12 Q513.16,717.21 520.22,727.11 Q527.28,737 668.14,703.72 Q668.14,703.72 809,670.44"/><text class="g10" style="--gs:10" x="809" y="524">⑩</text><path class="g10 aligned" style="--gs:10" d="M809,524 Q856,581 852.75,612.5 Q833.25,801.5 830,833"/><path class="g10 offset" style="--gs:10" d="M713,524 Q760,581 756.75,612.5 Q737.25,801.5 734,833"/></g>
<g class="parts"><rect data-part="1" data-literal="忄" data-radical="true" role="button" tabindex="0" aria-label="Part 忄 (radical)" x="51" y="39" width="431" height="969"/><rect data-part="3" data-literal="凶" role="button" tabindex="0" aria-label="Part 凶" x="339" y="334" width="589" height="571"/><rect data-part="2" data-literal="𭕄" role="button" tabindex="0" aria-label="Part 𭕄" x="348" y="84" width="586" height="356"/></g>
</svg>
