<svg id="z24801" class="acjk" viewBox="0 0 1024 1024" xmlns="http://www.w3.org/2000/svg">
<style>

@keyframes zk {
	to {
		stroke-dashoffset:0;
	}
}
svg.acjk path[clip-path] {
	--t:0.8s;
	animation:zk var(--t) linear forwards var(--d);
	stroke-dasharray:3337;
	stroke-dashoffset:3339;
	stroke-width:128;
	stroke-linecap:round;
	fill:none;
	stroke:#000;
}
svg.acjk path[id] {fill:#ccc;}


    @keyframes guide-fade {
        0% { opacity: 0; }
        3% { opacity: 1; }
        95% { opacity: 1; }
        100% { opacity: 0; }
    }

    svg.acjk #guide-arrow {
        fill: #f77;
    }

    svg.acjk .guides {
        circle {
            fill: #0f6;
        }

        path {
            opacity: 0;
            animation: guide-fade var(--t) linear forwards var(--d);
            stroke-width: 16px;
            stroke-linecap: round;
            stroke: #f77;
            fill: none;
            marker-end: url(#guide-arrow);
        }

        circle,
        path {
            --t: 0.8s;
            opacity: 0;
            animation: guide-fade calc(var(--t) + 0.4s) ease-in-out forwards calc(var(--d) - 0.2s);
        }
    }
</style>
<path id="z24801d1" d="M599 120Q627 113 658 110Q716 100 725 93Q735 86 730 76Q723 63 695 55Q665 46 569 74Q431 101 324 107Q287 111 312 130Q345 151 390 149C417 146 417 146 430 145Q490 135 553 126C584 122 584 122 599 120Z"/>
<path id="z24801d2" d="M390 149Q397 165 404 274C404 288 445 293 445 279Q448 234 451 199Q458 163 431 146C420 138 385 136 390 149Z"/>
<path id="z24801d3" d="M404 274Q400 274 396 276Q332 295 281 306C270 308 286 335 297 335Q304 335 312 333Q358 321 458 309Q468 308 469 299Q469 292 445 279C433 272 418 271 404 274Z"/>
<path id="z24801d4" d="M281 306Q269 297 249 292Q234 288 222 298Q215 302 229 316Q248 338 255 382Q262 427 252 443Q248 458 258 473Q273 489 283 482Q302 464 357 448Q379 441 387 449Q394 456 395 546C395 564 448 555 448 537Q445 473 460 451Q473 441 463 430Q451 415 408 402Q398 398 379 409Q354 419 318 429Q302 433 301 415Q295 352 297 335C297 324 290 313 281 306Z"/>
<path id="z24801d5" d="M735 367Q735 366 736 366Q749 326 783 293Q802 275 791 262Q769 243 731 227Q715 218 698 225Q673 235 616 252Q603 256 602 242Q611 172 617 158Q624 139 610 129Q604 125 599 120C588 109 550 111 553 126Q574 207 549 260Q540 278 560 300Q573 313 587 303Q615 278 686 264Q702 263 709 273Q716 286 694 349Q693 353 690 361C685 375 728 381 735 367Z"/>
<path id="z24801d6" d="M605 416Q651 406 745 397Q755 396 756 387Q756 380 735 367C722 359 705 358 690 361Q686 361 684 362Q626 378 579 388C567 390 593 418 605 416Z"/>
<path id="z24801d7" d="M594 513Q598 474 602 443Q602 437 603 433Q607 423 605 416C603 403 588 397 579 388Q572 381 564 378Q554 374 546 377Q539 381 540 390Q546 399 553 520C553 534 591 527 594 513Z"/>
<path id="z24801d8" d="M395 546Q331 553 262 565Q244 566 258 581Q270 593 286 597Q304 601 318 597Q484 551 738 550Q754 549 759 542Q763 532 749 520Q700 484 643 502Q619 506 594 513C567 518 567 518 553 520Q522 524 488 531Q469 532 448 537C413 543 413 543 395 546Z"/>
<path id="z24801d9" d="M198 668Q173 723 137 773Q115 803 133 842Q140 861 162 849Q214 813 223 729Q229 695 222 669Q218 660 211 659Q202 660 198 668Z"/>
<path id="z24801d10" d="M322 693Q346 808 435 863Q561 936 768 906Q804 899 835 885Q862 872 863 855Q867 845 824 821Q757 775 708 724Q692 708 688 716Q706 771 724 828Q723 831 721 835Q714 847 676 848Q496 858 419 792Q385 764 367 711Q360 686 346 681Q333 674 324 678Q318 679 322 693Z"/>
<path id="z24801d11" d="M490 668Q512 689 538 713Q551 726 566 725Q576 724 581 711Q585 698 577 669Q568 642 485 622Q470 618 464 621Q460 625 461 637Q464 647 490 668Z"/>
<path id="z24801d12" d="M743 633Q803 664 877 714Q896 729 911 729Q920 728 924 717Q933 702 911 665Q883 614 736 605Q726 602 728 614Q729 627 743 633Z"/>
<defs>
	<clipPath id="z24801c1"><use href="#z24801d1"/></clipPath>
	<clipPath id="z24801c2"><use href="#z24801d2"/></clipPath>
	<clipPath id="z24801c3"><use href="#z24801d3"/></clipPath>
	<clipPath id="z24801c4"><use href="#z24801d4"/></clipPath>
	<clipPath id="z24801c5"><use href="#z24801d5"/></clipPath>
	<clipPath id="z24801c6"><use href="#z24801d6"/></clipPath>
	<clipPath id="z24801c7"><use href="#z24801d7"/></clipPath>
	<clipPath id="z24801c8"><use href="#z24801d8"/></clipPath>
	<clipPath id="z24801c9"><use href="#z24801d9"/></clipPath>
	<clipPath id="z24801c10"><use href="#z24801d10"/></clipPath>
	<clipPath id="z24801c11"><use href="#z24801d11"/></clipPath>
	<clipPath id="z24801c12"><use href="#z24801d12"/></clipPath>
<marker id="guide-arrow" viewBox="0 0 16 16" refX="5" refY="5" markerWidth="4" markerHeight="4" orient="auto-start-reverse"><path d="M 0 0 L 10 5 L 0 10 z" fill="inherit"/></marker></defs>
<path style="--d:1s;" pathLength="3333" clip-path="url(#z24801c1)" d="M313 120L724 76"/>
<path style="--d:2s;" pathLength="3333" clip-path="url(#z24801c2)" d="M399 154L425 187L428 276"/>
<path style="--d:3s;" pathLength="3333" clip-path="url(#z24801c3)" d="M289 310L462 301"/>
<path style="--d:4s;" pathLength="3333" clip-path="url(#z24801c4)" d="M228 301L270 337L284 452L395 424L426 443L412 542"/>
<path style="--d:5s;" pathLength="3333" clip-path="url(#z24801c5)" d="M560 129L589 155L585 277L694 245L751 272L707 363"/>
<path style="--d:6s;" pathLength="3333" clip-path="url(#z24801c6)" d="M586 389L749 386"/>
<path style="--d:7s;" pathLength="3333" clip-path="url(#z24801c7)" d="M550 385L576 425L566 517"/>
<path style="--d:8s;" pathLength="3333" clip-path="url(#z24801c8)" d="M261 572L643 526L755 531"/>
<path style="--d:9s;" pathLength="3333" clip-path="url(#z24801c9)" d="M212 664L135 842"/>
<path style="--d:10s;" pathLength="3333" clip-path="url(#z24801c10)" d="M329 684L420 823L573 878L708 879L806 853L693 720"/>
<path style="--d:11s;" pathLength="3333" clip-path="url(#z24801c11)" d="M468 630L545 677L571 719"/>
<path style="--d:12s;" pathLength="3333" clip-path="url(#z24801c12)" d="M734 614L874 671L915 723"/>
<g class="guides"><circle style="--d: 1s" class="g1" cx="313" cy="120" r="16"/><path style="--d: 1s;" class="g1" d="M313,216 L724,172"/><circle style="--d: 2s" class="g2" cx="399" cy="154" r="16"/><path style="--d: 2s;" class="g2" d="M484.68,85.456 Q510.68,118.456 511.055,129.58100000000002 Q513.305,196.33100000000002 513.68,207.45600000000002"/><circle style="--d: 3s" class="g3" cx="289" cy="310" r="16"/><path style="--d: 3s;" class="g3" d="M289,406 L462,397"/><circle style="--d: 4s" class="g4" cx="228" cy="301" r="16"/><path style="--d: 4s;" class="g4" d="M132,301 Q174,337 181,394.5 Q188,452 243.5,438 Q299,424 314.5,433.5 Q330,443 323,492.5 Q323,492.5 316,542"/><circle style="--d: 5s" class="g5" cx="575" cy="142" r="16"/><path style="--d: 5s;" class="g5" d="M695,142 Q705,277 759.5,261 Q814,245 842.5,258.5 Q871,272 849,317.5 Q849,317.5 827,363"/><circle style="--d: 6s" class="g6" cx="586" cy="389" r="16"/><path style="--d: 6s;" class="g6" d="M586,485 L749,482"/><circle style="--d: 7s" class="g7" cx="550" cy="385" r="16"/><path style="--d: 7s;" class="g7" d="M454,385 Q480,425 478.75,436.5 Q471.25,505.5 470,517"/><circle style="--d: 8s" class="g8" cx="261" cy="572" r="16"/><path style="--d: 8s;" class="g8" d="M261,668 Q643,622 657,622.625 Q741,626.375 755,627"/><circle style="--d: 9s" class="g9" cx="212" cy="664" r="16"/><path style="--d: 9s;" class="g9" d="M332,664 L255,842"/><circle style="--d: 10s" class="g10" cx="329" cy="684" r="16"/><path style="--d: 10s;" class="g10" d="M260.456,752.544 Q420.7243605870021,891.544 555.4554549266247,919.044 Q690.1865492662474,946.544 809.066926624738,947.044 Q927.9473039832285,947.544 1014.2456519916142,934.544 Q1100.5439999999999,921.544 1001.036721174004,855.044 Q1001.036721174004,855.044 901.5294423480083,788.544"/><circle style="--d: 11s" class="g11" cx="468" cy="630" r="16"/><path style="--d: 11s;" class="g11" d="M553.68,561.456 Q630.68,608.456 633.93,613.706 Q653.43,645.206 656.68,650.456"/><circle style="--d: 12s" class="g12" cx="734" cy="614" r="16"/><path style="--d: 12s;" class="g12" d="M819.68,545.456 Q959.68,602.456 964.805,608.956 Q995.555,647.956 1000.68,654.456"/></g></svg>