<svg id="z24807" class="acjk" viewBox="0 0 1024 1024" xmlns="http://www.w3.org/2000/svg">
<style>

@keyframes zk {
	to {
		stroke-dashoffset:0;
	}
}
svg.acjk path[clip-path] {
	--t:0.8s;
	animation:zk var(--t) linear forwards var(--d);
	stroke-dasharray:3337;
	stroke-dashoffset:3339;
	stroke-width:128;
	stroke-linecap:round;
	fill:none;
	stroke:#000;
}
svg.acjk path[id] {fill:#ccc;}


    @keyframes guide-fade {
        0% { opacity: 0; }
        3% { opacity: 1; }
        95% { opacity: 1; }
        100% { opacity: 0; }
    }

    svg.acjk #guide-arrow {
        fill: #f77;
    }

    svg.acjk .guides {
        circle {
            fill: #0f6;
        }

        path {
            opacity: 0;
            animation: guide-fade var(--t) linear forwards var(--d);
            stroke-width: 16px;
            stroke-linecap: round;
            stroke: #f77;
            fill: none;
            marker-end: url(#guide-arrow);
        }

        circle,
        path {
            --t: 0.8s;
            opacity: 0;
            animation: guide-fade calc(var(--t) + 0.4s) ease-in-out forwards calc(var(--d) - 0.2s);
        }
    }
</style>
<path id="z24807d1" d="M112 385C101 423 89 462 72 499C61 521 62 542 79 565C86 575 96 577 108 566C139 537 149 493 146 438C144 415 143 395 135 381C132 375 127 372 123 373C118 373 113 378 112 385Z"/>
<path id="z24807d2" d="M301 344Q319 356 366 398Q378 408 389 407Q398 406 401 396Q405 384 397 361Q388 334 305 314Q304 313 302 314C292 312 293 338 301 344Z"/>
<path id="z24807d3" d="M302 314C304 255 306 205 321 166C325 155 330 146 327 138C323 130 301 117 266 95C250 85 236 83 223 93C219 95 219 103 225 113C244 147 257 189 258 240C259 520 252 691 240 753C236 771 231 791 226 811C219 835 224 868 240 910C244 922 250 927 255 931C260 934 261 933 268 929C284 916 295 892 295 850C294 816 290 647 301 344C302 324 302 324 302 314Z"/>
<path id="z24807d4" d="M515 196C500 183 482 173 463 165C454 161 446 160 440 165C434 169 432 176 437 187C454 229 468 272 472 316C476 360 475 470 473 645C473 659 514 653 514 639C513 609 513 581 513 556C513 539 513 539 513 530C513 505 513 475 513 451C513 436 513 436 513 429C513 383 514 355 515 347C516 332 516 332 516 324C518 276 520 244 524 230C526 218 524 203 515 196Z"/>
<path id="z24807d5" d="M760 603Q764 261 790 222Q805 204 792 186Q782 174 729 145Q714 135 647 161Q566 188 515 196C504 198 513 234 524 230Q527 229 530 228Q636 198 681 192Q699 188 705 194Q714 210 705 611C705 630 760 622 760 603Z"/>
<path id="z24807d6" d="M515 347C530 347 615 330 649 324C663 321 667 314 661 307C654 298 642 292 626 291C603 288 566 300 516 324C509 327 507 347 515 347Z"/>
<path id="z24807d7" d="M513 451C515 451 558 445 644 432C658 429 663 423 657 415C650 406 639 400 623 399C603 397 566 408 513 429C506 431 506 452 513 451Z"/>
<path id="z24807d8" d="M655 537C669 535 674 528 669 520C662 509 650 503 633 501C607 497 567 508 513 530C505 533 504 557 513 556C608 543 608 543 655 537Z"/>
<path id="z24807d9" d="M473 645C425 652 376 656 328 663C314 664 312 669 323 681C331 689 341 696 354 700C366 703 378 703 390 700C512 664 690 646 923 647C935 647 943 643 947 638C950 631 947 623 936 614C901 585 861 579 816 591C798 595 779 600 760 603C723 608 723 608 705 611C677 615 547 634 514 639C487 643 487 643 473 645Z"/>
<path id="z24807d10" d="M488 719C476 762 420 827 314 908C300 918 301 921 319 920C375 916 455 862 560 758C568 750 571 743 570 737C568 728 558 721 541 714C522 706 508 703 499 705C494 705 490 710 488 719Z"/>
<path id="z24807d11" d="M680 761C714 796 752 838 792 890C803 904 812 915 823 918C829 919 835 915 841 909C849 899 850 880 845 849C838 814 786 774 687 730C685 729 683 729 683 729C676 724 672 726 671 736C669 744 672 753 680 761Z"/>
<defs>
	<clipPath id="z24807c1"><use href="#z24807d1"/></clipPath>
	<clipPath id="z24807c2"><use href="#z24807d2"/></clipPath>
	<clipPath id="z24807c3"><use href="#z24807d3"/></clipPath>
	<clipPath id="z24807c4"><use href="#z24807d4"/></clipPath>
	<clipPath id="z24807c5"><use href="#z24807d5"/></clipPath>
	<clipPath id="z24807c6"><use href="#z24807d6"/></clipPath>
	<clipPath id="z24807c7"><use href="#z24807d7"/></clipPath>
	<clipPath id="z24807c8"><use href="#z24807d8"/></clipPath>
	<clipPath id="z24807c9"><use href="#z24807d9"/></clipPath>
	<clipPath id="z24807c10"><use href="#z24807d10"/></clipPath>
	<clipPath id="z24807c11"><use href="#z24807d11"/></clipPath>
<marker id="guide-arrow" viewBox="0 0 16 16" refX="5" refY="5" markerWidth="4" markerHeight="4" orient="auto-start-reverse"><path d="M 0 0 L 10 5 L 0 10 z" fill="inherit"/></marker></defs>
<path style="--d:1s;" pathLength="3333" clip-path="url(#z24807c1)" d="M123 379L85 565"/>
<path style="--d:2s;" pathLength="3333" clip-path="url(#z24807c2)" d="M308 324L395 396"/>
<path style="--d:3s;" pathLength="3333" clip-path="url(#z24807c3)" d="M228 97L288 155L263 928"/>
<path style="--d:4s;" pathLength="3333" clip-path="url(#z24807c4)" d="M444 170L490 236L490 641"/>
<path style="--d:5s;" pathLength="3333" clip-path="url(#z24807c5)" d="M526 223L689 168L750 201L719 608"/>
<path style="--d:6s;" pathLength="3333" clip-path="url(#z24807c6)" d="M523 340L659 313"/>
<path style="--d:7s;" pathLength="3333" clip-path="url(#z24807c7)" d="M520 442L653 418"/>
<path style="--d:8s;" pathLength="3333" clip-path="url(#z24807c8)" d="M516 548L664 524"/>
<path style="--d:9s;" pathLength="3333" clip-path="url(#z24807c9)" d="M323 669L376 679L851 616L943 626"/>
<path style="--d:10s;" pathLength="3333" clip-path="url(#z24807c10)" d="M502 714L521 747L432 839L315 916"/>
<path style="--d:11s;" pathLength="3333" clip-path="url(#z24807c11)" d="M679 735L796 836L826 913"/>
<g class="guides"><circle style="--d: 1s" class="g1" cx="123" cy="379" r="16"/><path style="--d: 1s;" class="g1" d="M243,379 L205,565"/><circle style="--d: 2s" class="g2" cx="308" cy="324" r="16"/><path style="--d: 2s;" class="g2" d="M393.68,255.45600000000002 L480.68,327.456"/><circle style="--d: 3s" class="g3" cx="228" cy="97" r="16"/><path style="--d: 3s;" class="g3" d="M132,97 Q192,155 188.875,251.625 Q170.125,831.375 167,928"/><circle style="--d: 4s" class="g4" cx="444" cy="170" r="16"/><path style="--d: 4s;" class="g4" d="M348,170 Q394,236 394,286.625 Q394,590.375 394,641"/><circle style="--d: 5s" class="g5" cx="526" cy="223" r="16"/><path style="--d: 5s;" class="g5" d="M526,319 Q607.5,264 615.125,272.25 Q638,297 634.125,374.75 Q626.375,530.25 622.5,608"/><circle style="--d: 6s" class="g6" cx="523" cy="340" r="16"/><path style="--d: 6s;" class="g6" d="M523,436 L659,409"/><circle style="--d: 7s" class="g7" cx="520" cy="442" r="16"/><path style="--d: 7s;" class="g7" d="M520,538 L653,514"/><circle style="--d: 8s" class="g8" cx="516" cy="548" r="16"/><path style="--d: 8s;" class="g8" d="M516,644 L664,620"/><circle style="--d: 9s" class="g9" cx="323" cy="669" r="16"/><path style="--d: 9s;" class="g9" d="M323,765 Q376,775 494.75,759.25 Q851,712 874,714.5 Q920,719.5 943,722"/><circle style="--d: 10s" class="g10" cx="512" cy="731" r="16"/><path style="--d: 10s;" class="g10" d="M597.68,799.544 Q517.68,907.544 503.05499999999995,917.169 Q415.305,974.919 400.68,984.544"/><circle style="--d: 11s" class="g11" cx="679" cy="735" r="16"/><path style="--d: 11s;" class="g11" d="M764.68,666.456 Q881.68,767.456 885.43,777.081 Q907.93,834.831 911.68,844.456"/></g></svg>