<!--
  Stroke-order data for 感, derived from AnimCJK (https://github.com/parsimonhi/animCJK),
  itself derived from the Arphic PL KaitiM fonts. Distributed under the Arphic Public License
  (see ARPHICPL.TXT). Regenerated by scripts/build-strokes.ts — do not edit by hand.
-->
<svg id="z24863" class="acjk" viewBox="0 0 1024 1024" xmlns="http://www.w3.org/2000/svg">
<g class="glyph"><path style="--part:1" id="z24863d1" d="M307 262C279 242 254 235 234 244C225 247 222 255 229 264C254 301 260 371 239 475C220 563 165 640 81 708C72 714 73 720 82 720C120 717 162 687 209 637C259 582 291 509 302 417C306 377 310 308 319 290C323 281 315 268 307 262Z"/><path style="--part:1" id="z24863d2" d="M580 254C659 237 699 221 703 219C708 214 710 208 707 203C702 196 690 189 672 185C656 181 621 191 568 207C541 214 541 214 528 217C460 236 380 252 307 262C297 264 309 290 319 290C399 297 465 278 541 263C567 257 567 257 580 254Z"/><path style="--part:1" id="z24863d3" d="M350 381C338 385 340 390 356 400C361 403 368 404 381 401C433 386 480 376 520 367C536 363 541 355 534 348C525 339 512 333 494 332C478 330 430 348 350 381Z"/><path style="--part:1" id="z24863d4" d="M350 472C343 469 332 466 319 463C312 461 308 462 305 465C301 468 300 474 306 485C318 509 328 543 336 586C338 598 343 608 350 617C366 637 369 624 373 605C374 596 372 586 372 578C370 551 366 508 366 496C366 486 359 476 350 472Z"/><path style="--part:1" id="z24863d5" d="M502 554C512 519 524 497 535 486C548 470 547 456 533 449C520 441 505 433 489 424C478 417 457 428 421 446C394 459 369 464 350 472C341 475 357 500 366 496C386 489 410 481 441 474C452 470 461 472 464 476C468 482 461 501 454 551C451 567 499 570 502 554Z"/><path style="--part:1" id="z24863d6" d="M373 605C389 605 472 585 512 579C517 578 521 575 521 570C521 565 514 560 502 554C488 546 469 546 454 551C426 560 397 570 372 578C364 581 364 605 373 605Z"/><path style="--part:1" id="z24863d7" d="M670 536C712 588 754 640 819 676C865 702 897 704 911 695C922 687 926 673 920 650C914 633 905 591 899 525C897 512 897 504 894 502C891 500 889 507 886 519C867 579 848 609 834 605C789 591 748 559 701 500C690 486 679 471 671 457C640 405 608 349 580 254C575 238 570 223 568 207C561 159 559 119 563 98C565 81 554 67 527 55C504 44 487 41 477 45C465 48 461 58 472 73C509 113 506 142 528 217C537 248 537 248 541 263C558 325 599 423 645 496C653 509 660 523 670 536Z"/><path style="--part:1" id="z24863d8" d="M645 496C604 548 574 575 531 615C526 619 525 624 530 625C558 630 616 591 670 536C680 524 692 513 701 500C735 446 744 422 762 377C767 362 774 349 783 336C787 329 787 323 784 317C779 310 768 301 749 292C735 285 724 281 719 283C710 285 706 292 708 302C714 342 710 388 671 457C663 470 654 483 645 496Z"/><path style="--part:1" id="z24863d9" d="M672 127C686 138 702 152 718 167C726 174 735 178 746 177C752 176 758 172 761 164C764 154 762 139 755 121C747 102 716 89 665 81C654 79 647 78 644 81C640 83 639 89 641 97C642 104 654 113 672 127Z"/><path style="--part:2" id="z24863d10" d="M258 729C241 765 223 800 202 833C189 852 189 876 200 903C205 915 215 918 230 908C264 884 281 843 285 789C286 766 288 745 283 729C280 722 275 719 271 719C264 719 260 722 258 729Z"/><path style="--part:2" id="z24863d11" d="M334 715C344 783 373 838 425 874C493 922 593 942 721 932C741 930 761 924 781 917C797 910 806 901 809 892C810 885 798 875 775 857C733 826 701 791 674 757C664 746 654 741 656 748C662 779 682 821 681 859C680 873 652 873 631 873C528 871 456 849 415 808C395 789 383 764 376 735C372 717 364 708 358 705C348 700 342 699 337 701C333 702 332 705 334 715Z"/><path style="--part:2" id="z24863d12" d="M480 692C518 726 547 749 570 755C578 757 586 752 591 744C594 735 595 725 592 716C583 687 547 667 488 655C478 652 470 653 465 656C461 657 459 661 462 669C463 675 470 683 480 692Z"/><path style="--part:2" id="z24863d13" d="M731 723C756 744 783 769 812 796C819 803 828 807 838 807C844 806 850 803 853 795C856 786 854 772 850 755C843 728 802 703 728 679C718 676 712 675 708 677C703 678 701 683 704 692C706 698 714 708 731 723Z"/></g>
<defs><clipPath id="z24863c1"><use href="#z24863d1"/></clipPath>
	<clipPath id="z24863c2"><use href="#z24863d2"/></clipPath>
	<clipPath id="z24863c3"><use href="#z24863d3"/></clipPath>
	<clipPath id="z24863c4"><use href="#z24863d4"/></clipPath>
	<clipPath id="z24863c5"><use href="#z24863d5"/></clipPath>
	<clipPath id="z24863c6"><use href="#z24863d6"/></clipPath>
	<clipPath id="z24863c7"><use href="#z24863d7"/></clipPath>
	<clipPath id="z24863c8"><use href="#z24863d8"/></clipPath>
	<clipPath id="z24863c9"><use href="#z24863d9"/></clipPath>
	<clipPath id="z24863c10"><use href="#z24863d10"/></clipPath>
	<clipPath id="z24863c11"><use href="#z24863d11"/></clipPath>
	<clipPath id="z24863c12"><use href="#z24863d12"/></clipPath>
	<clipPath id="z24863c13"><use href="#z24863d13"/></clipPath><marker id="guide-arrow" viewBox="0 0 16 16" refX="5" refY="5" markerWidth="4" markerHeight="4" orient="auto-start-reverse"><path d="M 0 0 L 10 5 L 0 10 z" fill="inherit"/></marker></defs>
<g class="strokes"><path style="--part:1" pathLength="3333" clip-path="url(#z24863c1)" d="M233 253L283 301L254 513L191 626L83 715"/><path style="--part:1" pathLength="3333" clip-path="url(#z24863c2)" d="M309 270L704 211"/><path style="--part:1" pathLength="3333" clip-path="url(#z24863c3)" d="M350 389L532 351"/><path style="--part:1" pathLength="3333" clip-path="url(#z24863c4)" d="M308 468L342 502L362 621"/><path style="--part:1" pathLength="3333" clip-path="url(#z24863c5)" d="M353 478L466 448L500 465L471 562"/><path style="--part:1" pathLength="3333" clip-path="url(#z24863c6)" d="M375 594L514 570"/><path style="--part:1" pathLength="3333" clip-path="url(#z24863c7)" d="M473 56L529 96L592 350L729 569L825 640L880 649L892 515"/><path style="--part:1" pathLength="3333" clip-path="url(#z24863c8)" d="M717 292L748 335L693 467L539 617"/><path style="--part:1" pathLength="3333" clip-path="url(#z24863c9)" d="M647 88L726 132L746 173"/><path style="--part:2" pathLength="3333" clip-path="url(#z24863c10)" d="M271 723L207 908"/><path style="--part:2" pathLength="3333" clip-path="url(#z24863c11)" d="M342 709L421 843L558 897L670 902L752 884L661 755"/><path style="--part:2" pathLength="3333" clip-path="url(#z24863c12)" d="M467 662L587 746"/><path style="--part:2" pathLength="3333" clip-path="url(#z24863c13)" d="M710 685L810 751L843 800"/></g>
<g class="guides"><text class="g1" style="--gs:1" x="233" y="253">①</text><path class="g1 aligned" style="--gs:1" d="M233,253 Q283,301 268.5,407 Q254,513 222.5,569.5 Q191,626 137,670.5 Q137,670.5 83,715"/><path class="g1 offset" style="--gs:1" d="M137,253 Q163,291.03 155.46,375 Q147.92,458.97 131.54,503.73 Q115.16,548.49 87.08,583.75 Q87.08,583.75 59,619"/><text class="g2" style="--gs:2" x="309" y="270">②</text><path class="g2 aligned" style="--gs:2" d="M309,270 L704,211"/><path class="g2 offset" style="--gs:2" d="M309,366 L704,307"/><text class="g3" style="--gs:3" x="350" y="389">③</text><path class="g3 aligned" style="--gs:3" d="M350,389 L532,351"/><path class="g3 offset" style="--gs:3" d="M350,485 L532,447"/><text class="g4" style="--gs:4" x="308" y="468">④</text><path class="g4 aligned" style="--gs:4" d="M308,468 Q342,502 344.5,516.88 Q359.5,606.13 362,621"/><path class="g4 offset" style="--gs:4" d="M393.68,399.46 Q427.68,433.46 430.18,448.33 Q445.18,537.58 447.68,552.46"/><text class="g5" style="--gs:5" x="353" y="478">⑤</text><path class="g5 aligned" style="--gs:5" d="M353,478 Q466,448 474.5,452.25 Q500,465 492.75,489.25 Q478.25,537.75 471,562"/><path class="g5 offset" style="--gs:5" d="M353,574 Q409.5,544 413.75,548.25 Q426.5,561 422.88,571 Q415.63,591 412,601"/><text class="g6" style="--gs:6" x="375" y="594">⑥</text><path class="g6 aligned" style="--gs:6" d="M375,594 L514,570"/><path class="g6 offset" style="--gs:6" d="M375,690 L514,666"/><text class="g7" style="--gs:7" x="473" y="56">⑦</text><path class="g7 aligned" style="--gs:7" d="M473,56 Q529,96 560.5,223 Q592,350 660.5,459.5 Q729,569 777,604.5 Q825,640 852.5,644.5 Q880,649 886,582 Q886,582 892,515"/><path class="g7 offset" style="--gs:7" d="M541.54,-12.54 Q575.55,27.46 594.68,154.46 Q613.81,281.46 655.41,390.96 Q697.01,500.46 726.16,535.96 Q755.31,571.46 772.01,575.96 Q788.71,580.46 792.36,513.46 Q792.36,513.46 796,446.46"/><text class="g8" style="--gs:8" x="717" y="292">⑧</text><path class="g8 aligned" style="--gs:8" d="M717,292 Q748,335 734.25,368 Q693,467 654.5,504.5 Q577.5,579.5 539,617"/><path class="g8 offset" style="--gs:8" d="M621,292 Q637.76,322.3 630.33,345.55 Q608.02,415.31 587.21,441.73 Q545.58,494.58 524.76,521"/><text class="g9" style="--gs:9" x="647" y="88">⑨</text><path class="g9 aligned" style="--gs:9" d="M647,88 Q726,132 728.5,137.13 Q743.5,167.88 746,173"/><path class="g9 offset" style="--gs:9" d="M647,184 Q686.5,206 687.75,208.56 Q695.25,223.94 696.5,226.5"/><text class="g10" style="--gs:10" x="271" y="723">⑩</text><path class="g10 aligned" style="--gs:10" d="M271,723 L207,908"/><path class="g10 offset" style="--gs:10" d="M391,723 L327,908"/><text class="g11" style="--gs:11" x="342" y="709">⑪</text><path class="g11 aligned" style="--gs:11" d="M342,709 Q421,843 489.5,870 Q558,897 614,899.5 Q670,902 711,893 Q752,884 706.5,819.5 Q706.5,819.5 661,755"/><path class="g11 offset" style="--gs:11" d="M273.46,777.54 Q413.94,911.54 535.75,938.54 Q657.56,965.54 757.14,968.04 Q856.73,970.54 929.64,961.54 Q1002.54,952.54 921.63,888.04 Q921.63,888.04 840.72,823.54"/><text class="g12" style="--gs:12" x="467" y="662">⑫</text><path class="g12 aligned" style="--gs:12" d="M467,662 L587,746"/><path class="g12 offset" style="--gs:12" d="M552.68,593.46 L672.68,677.46"/><text class="g13" style="--gs:13" x="710" y="685">⑬</text><path class="g13 aligned" style="--gs:13" d="M710,685 Q810,751 814.13,757.13 Q838.88,793.88 843,800"/><path class="g13 offset" style="--gs:13" d="M795.68,616.46 Q895.68,682.46 899.81,688.58 Q924.56,725.33 928.68,731.46"/></g>
<g class="parts"><rect data-part="1" data-literal="咸" role="button" tabindex="0" aria-label="Part 咸" x="11" y="0" width="953" height="787"/><rect data-part="2" data-literal="心" data-radical="true" role="button" tabindex="0" aria-label="Part 心 (radical)" x="135" y="590" width="780" height="390"/></g>
</svg>
