<svg id="z24996" class="acjk" viewBox="0 0 1024 1024" xmlns="http://www.w3.org/2000/svg">
<style>

@keyframes zk {
	to {
		stroke-dashoffset:0;
	}
}
svg.acjk path[clip-path] {
	--t:0.8s;
	animation:zk var(--t) linear forwards var(--d);
	stroke-dasharray:3337;
	stroke-dashoffset:3339;
	stroke-width:128;
	stroke-linecap:round;
	fill:none;
	stroke:#000;
}
svg.acjk path[id] {fill:#ccc;}


    @keyframes guide-fade {
        0% { opacity: 0; }
        3% { opacity: 1; }
        95% { opacity: 1; }
        100% { opacity: 0; }
    }

    svg.acjk #guide-arrow {
        fill: #f77;
    }

    svg.acjk .guides {
        circle {
            fill: #0f6;
        }

        path {
            opacity: 0;
            animation: guide-fade var(--t) linear forwards var(--d);
            stroke-width: 16px;
            stroke-linecap: round;
            stroke: #f77;
            fill: none;
            marker-end: url(#guide-arrow);
        }

        circle,
        path {
            --t: 0.8s;
            opacity: 0;
            animation: guide-fade calc(var(--t) + 0.4s) ease-in-out forwards calc(var(--d) - 0.2s);
        }
    }
</style>
<path id="z24996d1" d="M140 381C128 428 115 474 98 519C88 542 92 564 107 585C114 595 124 597 136 586C169 551 179 499 175 434C173 411 172 391 164 377C160 371 155 368 151 369C146 369 141 374 140 381Z"/>
<path id="z24996d2" d="M290 337Q296 344 309 354Q325 370 344 391Q354 403 368 402Q377 402 381 391Q385 379 379 355Q372 331 306 315Q296 312 291 312C283 310 285 330 290 337Z"/>
<path id="z24996d3" d="M291 312C293 253 295 203 310 164C314 152 320 143 316 135C312 127 290 114 254 91C237 80 222 77 209 89C205 92 204 100 210 110C230 143 242 175 243 208C243 256 246 307 246 361C245 455 241 569 236 659C232 709 227 759 213 807C206 829 206 848 211 863C222 903 232 924 242 931C247 934 249 934 256 929C260 925 267 918 274 904C281 887 283 868 283 847C282 813 286 419 290 337C291 320 291 320 291 312Z"/>
<path id="z24996d4" d="M670 185C698 179 729 172 763 167C787 162 802 158 807 154C811 149 813 144 811 139C807 131 795 125 778 121C761 116 729 128 677 141C644 149 644 149 627 153C594 160 558 161 521 166C498 168 495 176 511 187C531 200 576 202 627 193C656 188 656 188 670 185Z"/>
<path id="z24996d5" d="M627 193C627 237 623 265 627 276C630 284 637 285 644 278C649 270 661 239 670 185C675 156 675 156 677 141C683 100 689 75 693 68C698 56 698 49 691 44C680 35 663 27 639 22C627 19 616 21 607 29C602 33 603 38 609 46C621 61 627 97 627 153C627 166 627 193 627 193Z"/>
<path id="z24996d6" d="M762 322C800 317 843 314 893 312C907 311 921 310 935 310C947 309 954 306 956 302C958 295 956 286 946 280C910 256 876 253 843 264C825 269 806 273 787 278C746 287 746 287 726 291C684 299 626 311 552 324C524 329 524 329 510 331C476 336 442 341 410 348C398 350 395 356 406 365C425 380 446 384 466 379C484 373 502 367 522 363C546 358 546 358 558 355C598 345 649 335 711 328C745 324 745 324 762 322Z"/>
<path id="z24996d7" d="M552 324C549 310 545 282 545 282C543 271 538 265 527 262C502 255 484 252 474 258C464 262 464 272 474 282C489 297 503 312 510 331C518 352 518 352 522 363C532 392 539 413 552 423C559 428 564 426 566 420C567 411 564 389 558 355C558 355 553 334 552 324Z"/>
<path id="z24996d8" d="M706 418C720 400 752 339 762 322C779 293 779 293 787 278C793 267 798 255 809 245C818 235 821 230 816 223C808 211 796 198 777 186C767 179 756 177 745 181C738 183 738 188 741 197C746 213 744 246 726 291C716 316 716 316 711 328C701 351 669 421 667 429C662 442 698 429 706 418Z"/>
<path id="z24996d9" d="M522 453C518 449 509 444 496 439C489 436 484 436 478 440C473 442 473 447 477 455C478 458 479 462 481 467C497 507 499 547 494 657C491 711 487 748 511 772C517 778 524 779 530 772C533 767 535 761 537 755C538 743 539 732 540 721C540 712 539 671 539 661C539 646 539 646 539 638C539 611 538 588 538 568C538 553 538 553 538 545C538 524 538 503 540 481C540 470 531 460 522 453Z"/>
<path id="z24996d10" d="M754 739C754 745 758 752 763 761C772 780 779 790 786 790C796 789 805 777 817 756C826 737 829 712 827 679C818 571 823 502 842 473C848 462 850 453 845 448C827 431 802 416 771 404C763 400 740 408 706 418C680 425 680 425 667 429C654 432 641 434 629 437C590 444 554 449 522 453C511 455 529 481 540 481C554 483 670 453 717 446C733 443 743 446 749 454C757 465 761 488 762 526C762 624 761 686 757 712C755 721 752 730 754 739Z"/>
<path id="z24996d11" d="M702 548C718 546 722 540 717 532C710 522 698 515 681 513C669 511 621 521 538 545C531 548 530 570 538 568C647 555 647 555 702 548Z"/>
<path id="z24996d12" d="M539 661C557 663 667 648 710 644C724 642 730 636 725 628C718 617 706 611 689 608C668 604 618 614 539 638C532 641 531 661 539 661Z"/>
<path id="z24996d13" d="M537 755C561 755 661 741 754 739C763 739 763 719 757 712C754 708 749 703 742 699C731 692 715 691 695 696C638 707 586 715 540 721C529 723 526 755 537 755Z"/>
<path id="z24996d14" d="M542 788C534 819 488 869 398 933C384 942 385 943 403 944C443 945 498 918 569 861C587 846 600 835 609 829C617 822 619 815 619 809C617 800 609 793 593 786C574 777 562 773 554 775C549 775 544 779 542 788Z"/>
<path id="z24996d15" d="M718 824C745 855 776 891 808 937C817 951 825 962 836 965C841 966 847 963 853 958C861 949 863 931 859 902C854 870 808 835 722 793C716 790 712 790 711 799C709 807 711 816 718 824Z"/>
<defs>
	<clipPath id="z24996c1"><use href="#z24996d1"/></clipPath>
	<clipPath id="z24996c2"><use href="#z24996d2"/></clipPath>
	<clipPath id="z24996c3"><use href="#z24996d3"/></clipPath>
	<clipPath id="z24996c4"><use href="#z24996d4"/></clipPath>
	<clipPath id="z24996c5"><use href="#z24996d5"/></clipPath>
	<clipPath id="z24996c6"><use href="#z24996d6"/></clipPath>
	<clipPath id="z24996c7"><use href="#z24996d7"/></clipPath>
	<clipPath id="z24996c8"><use href="#z24996d8"/></clipPath>
	<clipPath id="z24996c9"><use href="#z24996d9"/></clipPath>
	<clipPath id="z24996c10"><use href="#z24996d10"/></clipPath>
	<clipPath id="z24996c11"><use href="#z24996d11"/></clipPath>
	<clipPath id="z24996c12"><use href="#z24996d12"/></clipPath>
	<clipPath id="z24996c13"><use href="#z24996d13"/></clipPath>
	<clipPath id="z24996c14"><use href="#z24996d14"/></clipPath>
	<clipPath id="z24996c15"><use href="#z24996d15"/></clipPath>
<marker id="guide-arrow" viewBox="0 0 16 16" refX="5" refY="5" markerWidth="4" markerHeight="4" orient="auto-start-reverse"><path d="M 0 0 L 10 5 L 0 10 z" fill="inherit"/></marker></defs>
<path style="--d:1s;" pathLength="3333" clip-path="url(#z24996c1)" d="M152 375L124 588"/>
<path style="--d:2s;" pathLength="3333" clip-path="url(#z24996c2)" d="M297 321L372 394"/>
<path style="--d:3s;" pathLength="3333" clip-path="url(#z24996c3)" d="M212 91L278 165L246 929"/>
<path style="--d:4s;" pathLength="3333" clip-path="url(#z24996c4)" d="M509 174L804 144"/>
<path style="--d:5s;" pathLength="3333" clip-path="url(#z24996c5)" d="M611 34L659 67L637 275"/>
<path style="--d:6s;" pathLength="3333" clip-path="url(#z24996c6)" d="M409 357L860 286L951 297"/>
<path style="--d:7s;" pathLength="3333" clip-path="url(#z24996c7)" d="M477 267L519 290L561 418"/>
<path style="--d:8s;" pathLength="3333" clip-path="url(#z24996c8)" d="M744 185L780 231L676 420"/>
<path style="--d:9s;" pathLength="3333" clip-path="url(#z24996c9)" d="M481 445L516 492L516 770"/>
<path style="--d:10s;" pathLength="3333" clip-path="url(#z24996c10)" d="M532 457L746 426L797 456L781 785"/>
<path style="--d:11s;" pathLength="3333" clip-path="url(#z24996c11)" d="M546 559L714 534"/>
<path style="--d:12s;" pathLength="3333" clip-path="url(#z24996c12)" d="M544 654L721 633"/>
<path style="--d:13s;" pathLength="3333" clip-path="url(#z24996c13)" d="M547 748L753 717"/>
<path style="--d:14s;" pathLength="3333" clip-path="url(#z24996c14)" d="M556 785L576 819L479 898L400 939"/>
<path style="--d:15s;" pathLength="3333" clip-path="url(#z24996c15)" d="M718 799L821 898L844 958"/>
<g class="guides"><circle style="--d: 1s" class="g1" cx="152" cy="375" r="16"/><path style="--d: 1s;" class="g1" d="M272,375 L244,588"/><circle style="--d: 2s" class="g2" cx="297" cy="321" r="16"/><path style="--d: 2s;" class="g2" d="M382.68,252.45600000000002 L457.68,325.456"/><circle style="--d: 3s" class="g3" cx="212" cy="91" r="16"/><path style="--d: 3s;" class="g3" d="M116,91 Q182,165 178,260.5 Q154,833.5 150,929"/><circle style="--d: 4s" class="g4" cx="509" cy="174" r="16"/><path style="--d: 4s;" class="g4" d="M509,270 L804,240"/><circle style="--d: 5s" class="g5" cx="611" cy="34" r="16"/><path style="--d: 5s;" class="g5" d="M515,34 Q563,67 560.25,93 Q543.75,249 541,275"/><circle style="--d: 6s" class="g6" cx="409" cy="357" r="16"/><path style="--d: 6s;" class="g6" d="M409,453 Q860,382 871.375,383.375 Q939.625,391.625 951,393"/><circle style="--d: 7s" class="g7" cx="477" cy="267" r="16"/><path style="--d: 7s;" class="g7" d="M477,363 Q498,374.5 500.625,382.5 Q516.375,430.5 519,438.5"/><circle style="--d: 8s" class="g8" cx="744" cy="185" r="16"/><path style="--d: 8s;" class="g8" d="M648,185 Q684,231 671,254.625 Q593,396.375 580,420"/><circle style="--d: 9s" class="g9" cx="481" cy="445" r="16"/><path style="--d: 9s;" class="g9" d="M385,445 Q420,492 420,526.75 Q420,735.25 420,770"/><circle style="--d: 10s" class="g10" cx="532" cy="457" r="16"/><path style="--d: 10s;" class="g10" d="M532,553 Q649.0943396226415,522 656.0707547169811,529.5 Q677,552 674.8113207547169,610.25 Q670.433962264151,726.75 668.2452830188679,785"/><circle style="--d: 11s" class="g11" cx="546" cy="559" r="16"/><path style="--d: 11s;" class="g11" d="M546,655 L714,630"/><circle style="--d: 12s" class="g12" cx="544" cy="654" r="16"/><path style="--d: 12s;" class="g12" d="M544,750 L721,729"/><circle style="--d: 13s" class="g13" cx="547" cy="748" r="16"/><path style="--d: 13s;" class="g13" d="M547,844 L753,813"/><circle style="--d: 14s" class="g14" cx="566" cy="802" r="16"/><path style="--d: 14s;" class="g14" d="M651.68,870.544 Q564.68,966.544 554.805,971.669 Q495.555,1002.419 485.68,1007.544"/><circle style="--d: 15s" class="g15" cx="718" cy="799" r="16"/><path style="--d: 15s;" class="g15" d="M803.68,730.456 Q906.68,829.456 909.555,836.956 Q926.805,881.956 929.68,889.456"/></g></svg>