<svg id="z25096" class="acjk" viewBox="0 0 1024 1024" xmlns="http://www.w3.org/2000/svg">
<style>

@keyframes zk {
	to {
		stroke-dashoffset:0;
	}
}
svg.acjk path[clip-path] {
	--t:0.8s;
	animation:zk var(--t) linear forwards var(--d);
	stroke-dasharray:3337;
	stroke-dashoffset:3339;
	stroke-width:128;
	stroke-linecap:round;
	fill:none;
	stroke:#000;
}
svg.acjk path[id] {fill:#ccc;}


    @keyframes guide-fade {
        0% { opacity: 0; }
        3% { opacity: 1; }
        95% { opacity: 1; }
        100% { opacity: 0; }
    }

    svg.acjk #guide-arrow {
        fill: #f77;
    }

    svg.acjk .guides {
        circle {
            fill: #0f6;
        }

        path {
            opacity: 0;
            animation: guide-fade var(--t) linear forwards var(--d);
            stroke-width: 16px;
            stroke-linecap: round;
            stroke: #f77;
            fill: none;
            marker-end: url(#guide-arrow);
        }

        circle,
        path {
            --t: 0.8s;
            opacity: 0;
            animation: guide-fade calc(var(--t) + 0.4s) ease-in-out forwards calc(var(--d) - 0.2s);
        }
    }
</style>
<path id="z25096d1" d="M475 394Q595 343 599 340Q608 330 602 321Q592 308 558 305Q515 304 455 341C424 356 424 356 409 363Q289 411 193 436Q153 449 185 464Q236 483 296 460Q359 436 427 412C459 400 459 400 475 394Z"/>
<path id="z25096d2" d="M554 675Q656 832 774 901Q844 947 874 944Q896 937 885 908Q879 853 881 693Q880 666 870 665Q863 666 856 690Q840 739 826 779Q813 821 797 822Q784 825 752 807Q659 743 590 637C570 602 570 602 560 585Q520 510 475 394C462 359 462 359 455 341Q421 239 416 157Q420 111 356 99Q314 89 295 102Q274 114 289 133Q347 167 355 204Q383 289 409 363C421 396 421 396 427 412Q472 529 525 625C544 658 544 658 554 675Z"/>
<path id="z25096d3" d="M525 625Q519 629 514 636Q429 726 236 820Q226 827 232 832Q239 836 253 834Q338 818 414 778Q480 748 554 675C578 650 578 650 590 637Q627 592 669 531Q691 501 716 474Q726 465 723 453Q719 440 689 413Q667 394 656 395Q640 396 639 413Q630 497 560 585C537 612 537 612 525 625Z"/>
<path id="z25096d4" d="M615 167Q654 192 695 223Q711 236 729 233Q741 232 745 216Q748 200 734 168Q718 132 604 115Q586 114 580 117Q574 121 578 135Q584 147 615 167Z"/>
<defs>
	<clipPath id="z25096c1"><use href="#z25096d1"/></clipPath>
	<clipPath id="z25096c2"><use href="#z25096d2"/></clipPath>
	<clipPath id="z25096c3"><use href="#z25096d3"/></clipPath>
	<clipPath id="z25096c4"><use href="#z25096d4"/></clipPath>
<marker id="guide-arrow" viewBox="0 0 16 16" refX="5" refY="5" markerWidth="4" markerHeight="4" orient="auto-start-reverse"><path d="M 0 0 L 10 5 L 0 10 z" fill="inherit"/></marker></defs>
<path style="--d:1s;" pathLength="3333" clip-path="url(#z25096c1)" d="M174 449L271 441L600 326"/>
<path style="--d:2s;" pathLength="3333" clip-path="url(#z25096c2)" d="M289 114L378 158L495 511L572 657L678 787L789 865L858 890L868 672"/>
<path style="--d:3s;" pathLength="3333" clip-path="url(#z25096c3)" d="M653 398L674 466L540 649L431 740L237 830"/>
<path style="--d:4s;" pathLength="3333" clip-path="url(#z25096c4)" d="M584 124L683 170L737 223"/>
<g class="guides"><circle style="--d: 1s" class="g1" cx="174" cy="449" r="16"/><path style="--d: 1s;" class="g1" d="M174,545 Q271,537 312.125,522.625 Q558.875,436.375 600,422"/><circle style="--d: 2s" class="g2" cx="289" cy="114" r="16"/><path style="--d: 2s;" class="g2" d="M289,210 Q359.55440414507774,243.11340206185568 405.93005181347155,375.9432989690722 Q452.3056994818653,508.77319587628864 482.8264248704663,563.7113402061856 Q513.3471502590673,618.6494845360825 555.3626943005181,667.5670103092784 Q597.3782383419689,716.4845360824743 641.3756476683938,745.8350515463918 Q685.3730569948186,775.1855670103093 712.7227979274611,784.5927835051547 Q740.0725388601036,794 744.0362694300518,711.9690721649484 Q744.0362694300518,711.9690721649484 748,629.9381443298969"/><circle style="--d: 3s" class="g3" cx="653" cy="398" r="16"/><path style="--d: 3s;" class="g3" d="M557,398 Q572.2334096109839,450.8888888888889 523.6315789473683,522.0555555555555 Q475.02974828375284,593.2222222222222 435.4954233409611,628.6111111111111 Q395.9610983981693,664 325.59725400457666,699 Q325.59725400457666,699 255.23340961098398,734"/><circle style="--d: 4s" class="g4" cx="584" cy="124" r="16"/><path style="--d: 4s;" class="g4" d="M669.68,55.456 Q768.68,101.456 775.43,108.081 Q815.93,147.83100000000002 822.68,154.45600000000002"/></g></svg>