<!--
  Stroke-order data for 戍, derived from AnimCJK (https://github.com/parsimonhi/animCJK),
  itself derived from the Arphic PL KaitiM fonts. Distributed under the Arphic Public License
  (see ARPHICPL.TXT). Regenerated by scripts/build-strokes.ts — do not edit by hand.
-->
<svg id="z25101" class="acjk" viewBox="0 0 1024 1024" xmlns="http://www.w3.org/2000/svg">
<g class="glyph"><path id="z25101d1" d="M317 375C294 354 269 342 247 345C232 346 231 355 241 371C250 387 256 412 256 446C253 618 206 753 93 853C69 873 76 887 100 876C294 782 300 549 322 403C324 394 325 381 317 375Z"/><path id="z25101d2" d="M559 367C649 342 720 320 724 317C730 311 731 305 728 300C723 292 710 285 690 282C669 278 649 282 629 291C602 301 575 312 548 321C518 330 518 330 503 335C471 344 396 363 317 375C308 377 313 399 322 403C361 418 470 390 514 379C544 371 544 371 559 367Z"/><path id="z25101d3" d="M378 626C396 644 416 665 438 689C445 697 455 702 465 703C471 703 477 699 481 691C485 682 484 668 480 648C476 633 466 619 445 608C399 583 368 572 356 577C352 578 350 585 351 593C351 599 362 610 378 626Z"/><path id="z25101d4" d="M651 737C695 808 749 869 811 918C853 951 884 971 904 970C918 968 920 956 918 936C913 901 921 833 927 733C929 697 921 687 905 726C898 743 885 769 870 806C850 849 829 842 799 824C763 802 702 725 685 693C675 675 665 657 656 640C611 559 582 466 559 367C552 336 552 336 548 321C532 255 524 196 530 147C532 117 519 99 480 87C455 79 436 77 422 84C409 90 403 102 414 112C445 140 465 161 469 185C477 239 491 288 503 335C510 364 510 364 514 379C543 497 586 604 625 688C632 704 641 721 651 737Z"/><path id="z25101d5" d="M625 688C590 740 526 788 456 849C440 862 466 861 474 858C542 828 607 792 651 737C674 708 674 708 685 693C723 643 748 583 768 537C775 518 785 499 797 481C801 474 802 466 799 460C794 452 781 443 760 431C745 422 734 418 727 420C716 422 712 429 714 440C720 500 702 568 656 640C635 672 635 672 625 688Z"/><path id="z25101d6" d="M673 146Q704 165 736 190Q749 200 764 198Q774 197 777 184Q780 171 768 144Q761 125 729 115Q656 97 644 105Q640 109 642 121Q646 131 673 146Z"/></g>
<defs><clipPath id="z25101c1"><use href="#z25101d1"/></clipPath>
	<clipPath id="z25101c2"><use href="#z25101d2"/></clipPath>
	<clipPath id="z25101c3"><use href="#z25101d3"/></clipPath>
	<clipPath id="z25101c4"><use href="#z25101d4"/></clipPath>
	<clipPath id="z25101c5"><use href="#z25101d5"/></clipPath>
	<clipPath id="z25101c6"><use href="#z25101d6"/></clipPath><marker id="guide-arrow" viewBox="0 0 16 16" refX="5" refY="5" markerWidth="4" markerHeight="4" orient="auto-start-reverse"><path d="M 0 0 L 10 5 L 0 10 z" fill="inherit"/></marker></defs>
<g class="strokes"><path pathLength="3333" clip-path="url(#z25101c1)" d="M243 355L288 405L256 637L199 764L87 872"/><path pathLength="3333" clip-path="url(#z25101c2)" d="M318 387L725 307"/><path pathLength="3333" clip-path="url(#z25101c3)" d="M360 586L439 642L463 699"/><path pathLength="3333" clip-path="url(#z25101c4)" d="M414 98L493 142L579 520L721 789L803 867L891 917L919 708"/><path pathLength="3333" clip-path="url(#z25101c5)" d="M721 424L758 468L692 634L596 759L459 855"/><path pathLength="3333" clip-path="url(#z25101c6)" d="M649 112L772 188"/></g>
<g class="guides"><text class="g1" style="--gs:1" x="243" y="355">①</text><path class="g1 aligned" style="--gs:1" d="M243,355 Q288,405 272,521 Q256,637 227.5,700.5 Q199,764 143,818 Q143,818 87,872"/><path class="g1 offset" style="--gs:1" d="M147,355 Q170.51,395.72 162.15,490.18 Q153.79,584.64 138.9,636.35 Q124.01,688.05 94.76,732.03 Q94.76,732.03 65.51,776"/><text class="g2" style="--gs:2" x="318" y="387">②</text><path class="g2 aligned" style="--gs:2" d="M318,387 L725,307"/><path class="g2 offset" style="--gs:2" d="M318,483 L725,403"/><text class="g3" style="--gs:3" x="360" y="586">③</text><path class="g3 aligned" style="--gs:3" d="M360,586 Q439,642 442,649.13 Q460,691.88 463,699"/><path class="g3 offset" style="--gs:3" d="M445.68,517.46 Q524.68,573.46 527.68,580.58 Q545.68,623.33 548.68,630.46"/><text class="g4" style="--gs:4" x="414" y="98">④</text><path class="g4 aligned" style="--gs:4" d="M414,98 Q493,142 536,331 Q579,520 650,654.5 Q721,789 762,828 Q803,867 847,892 Q891,917 905,812.5 Q905,812.5 919,708"/><path class="g4 offset" style="--gs:4" d="M414,194 Q474.23,227.68 507.01,372.38 Q539.79,517.07 593.92,620.04 Q648.05,723.01 679.31,752.86 Q710.56,782.72 744.11,801.86 Q777.65,821 788.33,741 Q788.33,741 799,661"/><text class="g5" style="--gs:5" x="721" y="424">⑤</text><path class="g5 aligned" style="--gs:5" d="M721,424 Q758,468 725,551 Q692,634 644,696.5 Q596,759 527.5,807 Q527.5,807 459,855"/><path class="g5 offset" style="--gs:5" d="M625,424 Q650.12,458.2 627.72,522.71 Q605.31,587.23 572.72,635.8 Q540.13,684.38 493.63,721.69 Q493.63,721.69 447.12,759"/><text class="g6" style="--gs:6" x="649" y="112">⑥</text><path class="g6 aligned" style="--gs:6" d="M649,112 L772,188"/><path class="g6 offset" style="--gs:6" d="M734.68,43.46 L857.68,119.46"/></g>
</svg>
