<svg id="z25119" class="acjk" viewBox="0 0 1024 1024" xmlns="http://www.w3.org/2000/svg">
<style>

@keyframes zk {
	to {
		stroke-dashoffset:0;
	}
}
svg.acjk path[clip-path] {
	--t:0.8s;
	animation:zk var(--t) linear forwards var(--d);
	stroke-dasharray:3337;
	stroke-dashoffset:3339;
	stroke-width:128;
	stroke-linecap:round;
	fill:none;
	stroke:#000;
}
svg.acjk path[id] {fill:#ccc;}


    @keyframes guide-fade {
        0% { opacity: 0; }
        3% { opacity: 1; }
        95% { opacity: 1; }
        100% { opacity: 0; }
    }

    svg.acjk #guide-arrow {
        fill: #f77;
    }

    svg.acjk .guides {
        circle {
            fill: #0f6;
        }

        path {
            opacity: 0;
            animation: guide-fade var(--t) linear forwards var(--d);
            stroke-width: 16px;
            stroke-linecap: round;
            stroke: #f77;
            fill: none;
            marker-end: url(#guide-arrow);
        }

        circle,
        path {
            --t: 0.8s;
            opacity: 0;
            animation: guide-fade calc(var(--t) + 0.4s) ease-in-out forwards calc(var(--d) - 0.2s);
        }
    }
</style>
<path id="z25119d1" d="M350 250Q458 222 464 218Q471 211 467 203Q460 193 433 186Q403 182 357 201C319 214 319 214 300 220Q296 220 290 222Q239 235 179 242Q146 248 170 263Q209 282 294 262Q297 261 300 261C333 254 333 254 350 250Z"/>
<path id="z25119d2" d="M338 339Q345 293 350 250C355 217 355 217 357 201Q358 194 359 187Q368 147 373 135Q377 125 359 110Q328 92 306 87Q291 83 284 91Q277 98 284 111Q299 136 300 220C300 247 300 247 300 261Q300 303 298 350C298 364 335 353 338 339Z"/>
<path id="z25119d3" d="M204 374Q192 368 166 363Q154 360 151 365Q144 371 152 386Q180 446 194 544Q197 572 213 593Q229 614 235 599Q238 592 238 580C238 565 238 565 238 557Q237 547 236 535Q232 511 229 492C226 475 226 475 225 467Q219 425 217 407C215 395 215 378 204 374Z"/>
<path id="z25119d4" d="M368 559Q383 580 397 586Q407 593 421 573Q433 552 456 440Q463 412 484 387Q496 375 485 363Q470 347 430 325Q412 316 358 334Q354 334 338 339C311 346 311 346 298 350Q241 362 204 374C193 378 206 411 217 407Q274 388 369 367Q390 363 397 370Q407 382 406 395Q388 518 373 530C367 538 362 551 368 559Z"/>
<path id="z25119d5" d="M229 492Q232 492 239 491Q306 476 357 468Q379 462 369 451Q359 438 334 435Q310 434 225 467C217 470 221 492 229 492Z"/>
<path id="z25119d6" d="M320 567Q345 561 368 559C378 557 382 533 373 530Q370 529 363 527Q339 524 238 557C231 560 230 580 238 580Q241 580 245 580Q266 576 286 572C309 569 309 569 320 567Z"/>
<path id="z25119d7" d="M342 700Q405 684 481 671Q497 667 498 660Q499 647 480 638Q452 626 429 633Q381 645 342 657C309 666 309 666 293 670Q133 704 80 712Q67 713 64 722Q61 732 77 744Q117 771 161 756Q237 728 292 712C325 704 325 704 342 700Z"/>
<path id="z25119d8" d="M292 712Q289 802 283 819Q279 855 306 898Q316 914 323 918Q333 919 338 907Q348 879 345 852Q342 770 342 700C342 671 342 671 342 657Q342 582 341 582Q331 573 320 567C310 561 282 561 286 572Q295 590 293 670C292 698 292 698 292 712Z"/>
<path id="z25119d9" d="M655 450Q772 401 776 397Q783 387 777 379Q768 369 737 367Q710 366 645 401C618 414 618 414 605 420Q602 420 600 422Q554 441 499 456Q463 469 493 481Q535 494 615 466C642 455 642 455 655 450Z"/>
<path id="z25119d10" d="M698 717Q755 823 825 884Q883 935 913 934Q932 930 926 902Q922 856 927 722Q927 698 919 697Q913 697 878 783Q863 822 839 808Q829 802 818 793Q770 745 732 680C717 647 717 647 709 630Q700 609 655 450C648 417 648 417 645 401Q617 266 630 171Q642 131 588 111Q554 96 535 104Q516 111 525 129Q570 169 571 201Q587 325 605 420C612 451 612 451 615 466Q633 557 677 669C691 701 691 701 698 717Z"/>
<path id="z25119d11" d="M677 669Q616 733 490 811Q481 817 487 821Q494 824 506 821Q572 803 629 767Q666 745 698 717C721 692 721 692 732 680Q772 634 816 557Q831 532 849 509Q858 502 854 490Q848 480 821 459Q802 444 792 445Q779 446 778 462Q775 537 709 630C688 656 688 656 677 669Z"/>
<path id="z25119d12" d="M732 241Q760 265 791 294Q806 307 821 306Q831 305 837 292Q841 276 832 247Q820 214 726 193Q710 190 704 193Q700 197 701 210Q705 220 732 241Z"/>
<defs>
	<clipPath id="z25119c1"><use href="#z25119d1"/></clipPath>
	<clipPath id="z25119c2"><use href="#z25119d2"/></clipPath>
	<clipPath id="z25119c3"><use href="#z25119d3"/></clipPath>
	<clipPath id="z25119c4"><use href="#z25119d4"/></clipPath>
	<clipPath id="z25119c5"><use href="#z25119d5"/></clipPath>
	<clipPath id="z25119c6"><use href="#z25119d6"/></clipPath>
	<clipPath id="z25119c7"><use href="#z25119d7"/></clipPath>
	<clipPath id="z25119c8"><use href="#z25119d8"/></clipPath>
	<clipPath id="z25119c9"><use href="#z25119d9"/></clipPath>
	<clipPath id="z25119c10"><use href="#z25119d10"/></clipPath>
	<clipPath id="z25119c11"><use href="#z25119d11"/></clipPath>
	<clipPath id="z25119c12"><use href="#z25119d12"/></clipPath>
<marker id="guide-arrow" viewBox="0 0 16 16" refX="5" refY="5" markerWidth="4" markerHeight="4" orient="auto-start-reverse"><path d="M 0 0 L 10 5 L 0 10 z" fill="inherit"/></marker></defs>
<path style="--d:1s;" pathLength="3333" clip-path="url(#z25119c1)" d="M167 250L463 204"/>
<path style="--d:2s;" pathLength="3333" clip-path="url(#z25119c2)" d="M290 94L334 139L308 346"/>
<path style="--d:3s;" pathLength="3333" clip-path="url(#z25119c3)" d="M154 369L191 413L224 600"/>
<path style="--d:4s;" pathLength="3333" clip-path="url(#z25119c4)" d="M211 379L395 344L433 362L447 386L395 583"/>
<path style="--d:5s;" pathLength="3333" clip-path="url(#z25119c5)" d="M231 485L362 456"/>
<path style="--d:6s;" pathLength="3333" clip-path="url(#z25119c6)" d="M243 572L370 544"/>
<path style="--d:7s;" pathLength="3333" clip-path="url(#z25119c7)" d="M68 725L142 731L493 656"/>
<path style="--d:8s;" pathLength="3333" clip-path="url(#z25119c8)" d="M295 577L317 602L322 909"/>
<path style="--d:9s;" pathLength="3333" clip-path="url(#z25119c9)" d="M486 471L775 387"/>
<path style="--d:10s;" pathLength="3333" clip-path="url(#z25119c10)" d="M526 115L600 169L638 473L744 747L813 830L900 881L920 705"/>
<path style="--d:11s;" pathLength="3333" clip-path="url(#z25119c11)" d="M789 450L812 504L717 660L649 727L496 816"/>
<path style="--d:12s;" pathLength="3333" clip-path="url(#z25119c12)" d="M708 200L794 252L828 300"/>
<g class="guides"><circle style="--d: 1s" class="g1" cx="167" cy="250" r="16"/><path style="--d: 1s;" class="g1" d="M167,346 L463,300"/><circle style="--d: 2s" class="g2" cx="290" cy="94" r="16"/><path style="--d: 2s;" class="g2" d="M194,94 Q238,139 234.75,164.875 Q215.25,320.125 212,346"/><circle style="--d: 3s" class="g3" cx="154" cy="369" r="16"/><path style="--d: 3s;" class="g3" d="M239.68,300.456 Q276.68,344.456 280.805,367.831 Q305.555,508.081 309.68,531.456"/><circle style="--d: 4s" class="g4" cx="211" cy="379" r="16"/><path style="--d: 4s;" class="g4" d="M211,475 Q303,440 312.5,449 Q322,458 325.5,461.56485355648533 Q329,465.1297071129707 316,524.0648535564853 Q316,524.0648535564853 303,583"/><circle style="--d: 5s" class="g5" cx="231" cy="485" r="16"/><path style="--d: 5s;" class="g5" d="M231,581 L362,552"/><circle style="--d: 6s" class="g6" cx="243" cy="572" r="16"/><path style="--d: 6s;" class="g6" d="M243,668 L370,640"/><circle style="--d: 7s" class="g7" cx="68" cy="725" r="16"/><path style="--d: 7s;" class="g7" d="M68,821 Q142,827 185.875,817.625 Q449.125,761.375 493,752"/><circle style="--d: 8s" class="g8" cx="306" cy="590" r="16"/><path style="--d: 8s;" class="g8" d="M426,590 L442,909"/><circle style="--d: 9s" class="g9" cx="486" cy="471" r="16"/><path style="--d: 9s;" class="g9" d="M486,567 L775,483"/><circle style="--d: 10s" class="g10" cx="526" cy="115" r="16"/><path style="--d: 10s;" class="g10" d="M594.544,46.456 Q637.6397969543146,100.456 648.7049340101522,252.45600000000002 Q659.7700710659898,404.456 690.6359796954314,541.456 Q721.5018883248731,678.456 741.593847715736,719.956 Q761.685807106599,761.456 787.0191472081219,786.956 Q812.3524873096447,812.456 818.1762436548224,724.456 Q818.1762436548224,724.456 824,636.456"/><circle style="--d: 11s" class="g11" cx="789" cy="450" r="16"/><path style="--d: 11s;" class="g11" d="M693,450 Q707.2658227848101,489.8360655737705 677.8037974683543,547.377049180328 Q648.3417721518987,604.9180327868853 627.253164556962,629.6311475409836 Q606.1645569620254,654.344262295082 558.7151898734178,687.172131147541 Q558.7151898734178,687.172131147541 511.2658227848101,720"/><circle style="--d: 12s" class="g12" cx="708" cy="200" r="16"/><path style="--d: 12s;" class="g12" d="M793.68,131.45600000000002 Q879.68,183.45600000000002 883.93,189.45600000000002 Q909.43,225.45600000000002 913.68,231.45600000000002"/></g></svg>