<!--
  Stroke-order data for 戲, derived from AnimCJK (https://github.com/parsimonhi/animCJK),
  itself derived from the Arphic PL KaitiM fonts. Distributed under the Arphic Public License
  (see ARPHICPL.TXT). Regenerated by scripts/build-strokes.ts — do not edit by hand.
-->
<svg id="z25138" class="acjk" viewBox="0 0 1024 1024" xmlns="http://www.w3.org/2000/svg">
<g class="glyph"><path style="--part:1" id="z25138d1" d="M407 245C409 218 413 193 416 169C418 149 418 149 419 139C420 119 426 101 430 87C431 80 427 72 415 65C394 53 376 47 363 45C354 43 347 44 342 50C337 54 337 61 343 70C355 86 364 147 369 255C369 268 407 258 407 245Z"/><path style="--part:1" id="z25138d2" d="M416 169C454 158 489 150 519 143C531 139 535 133 530 127C523 118 511 115 496 114C471 112 446 120 419 139C410 144 406 171 416 169Z"/><path style="--part:1" id="z25138d3" d="M222 286C198 269 179 262 166 269C157 272 155 281 161 289C171 303 178 335 180 385C184 569 120 782 45 878C30 896 47 899 63 886C197 770 223 533 237 361C238 342 241 330 245 316C247 304 232 294 222 286Z"/><path style="--part:1" id="z25138d4" d="M245 316C329 292 408 270 484 253C502 248 512 250 514 259C514 265 510 281 500 307C490 330 497 329 516 316C554 288 581 273 597 269C608 265 614 261 614 255C613 248 592 233 549 214C536 208 522 208 508 213C471 224 438 236 407 245C382 252 382 252 369 255C325 266 276 274 222 286C210 288 233 318 245 316Z"/><path style="--part:1" id="z25138d5" d="M366 406C439 376 479 361 483 357C486 352 486 347 484 344C479 338 469 336 454 335C443 334 415 347 369 368C345 379 345 379 333 384C313 392 290 395 269 403C252 408 250 416 264 421C285 428 309 428 333 419C355 410 355 410 366 406Z"/><path style="--part:1" id="z25138d6" d="M333 419C333 447 339 466 352 475C380 495 426 498 490 482C506 477 523 467 535 459C543 453 544 444 539 435C534 426 526 407 521 377C517 357 514 357 509 372C496 404 483 425 475 434C470 438 462 441 452 445C430 451 384 460 372 440C367 432 364 420 366 406C368 381 368 381 369 368C369 357 371 346 374 335C376 326 373 320 368 315C360 308 352 302 342 299C335 296 329 297 326 300C323 301 322 307 325 316C328 330 333 352 333 384C333 407 333 407 333 419Z"/><path style="--part:1" id="z25138d7" d="M285 550C266 553 263 560 278 568C299 580 326 581 357 573C392 563 429 555 467 546C483 541 493 537 496 535C500 530 502 525 499 521C494 514 484 509 469 507C452 504 436 508 421 515C376 533 328 542 285 550Z"/><path style="--part:1" id="z25138d8" d="M297 626C292 623 281 622 264 622C257 621 253 623 252 626C249 629 250 634 256 643C270 663 285 691 298 727C301 737 305 746 314 753C330 766 335 756 333 742C331 733 330 723 328 715C320 692 314 663 312 651C310 641 306 630 297 626Z"/><path style="--part:1" id="z25138d9" d="M482 691C494 665 507 650 520 642C530 634 530 622 522 614C508 601 494 593 480 587C450 575 437 583 418 592C388 604 347 614 297 626C287 628 303 655 312 651C314 648 353 639 429 624C446 620 453 626 452 641C449 658 444 673 440 687C436 700 477 704 482 691Z"/><path style="--part:1" id="z25138d10" d="M455 721C465 719 477 718 491 716C513 711 499 703 482 691C471 682 454 684 440 687C401 696 361 706 328 715C319 718 324 744 333 742C351 738 372 732 427 725C446 722 446 722 455 721Z"/><path style="--part:1" id="z25138d11" d="M279 799C286 810 292 823 300 838C304 845 309 850 317 852C321 852 326 851 330 847C334 841 336 831 336 817C336 808 331 798 321 790C293 768 276 760 272 762C269 762 266 765 266 772C265 776 270 785 279 799Z"/><path style="--part:1" id="z25138d12" d="M440 831C484 747 505 758 455 721C447 715 425 716 427 725C435 752 426 782 415 836C413 844 436 839 440 831Z"/><path style="--part:1" id="z25138d13" d="M415 836C362 846 307 857 251 869C237 871 219 870 198 870C189 869 184 874 183 881C180 889 182 896 188 902C202 914 218 929 240 942C246 945 253 942 262 938C329 906 475 857 540 828C559 818 553 805 537 808C504 813 473 824 440 831C423 834 423 834 415 836Z"/><path style="--part:2" id="z25138d14" d="M705 483C796 450 843 427 847 423C851 417 852 411 849 407C843 400 830 394 811 394C768 393 733 422 698 437C669 449 669 449 655 455C625 467 590 475 555 486C532 493 529 503 549 510C594 524 626 511 663 498C691 488 691 488 705 483Z"/><path style="--part:2" id="z25138d15" d="M730 740C758 817 802 882 859 931C897 964 930 977 950 975C962 973 964 961 961 942C955 912 955 853 955 766C954 753 949 742 947 746C924 779 914 822 890 856C883 864 863 852 846 834C813 799 784 757 765 708C758 689 751 671 744 653C715 579 710 521 705 483C702 467 700 452 698 437C681 325 678 234 695 167C702 137 690 116 652 99C626 87 608 83 594 88C579 92 571 104 581 116C609 149 626 174 628 198C632 296 641 370 655 455C657 469 660 483 663 498C674 562 689 627 713 693C718 708 724 724 730 740Z"/><path style="--part:2" id="z25138d16" d="M713 693C660 743 624 765 594 787C577 798 603 799 610 798C636 795 675 778 730 740C742 730 754 719 765 708C806 660 819 641 837 611C843 599 851 587 861 577C866 570 868 564 866 558C863 551 852 541 833 527C820 517 810 512 804 513C795 513 790 519 790 530C790 566 778 598 744 653C735 667 725 681 713 693Z"/><path style="--part:2" id="z25138d17" d="M780 254C800 270 821 289 843 310C852 319 863 322 873 322C879 321 885 316 889 307C892 297 890 282 884 263C879 248 866 234 844 226C792 206 760 199 752 205C748 206 747 213 749 222C750 229 761 239 780 254Z"/></g>
<defs><clipPath id="z25138c1"><use href="#z25138d1"/></clipPath>
	<clipPath id="z25138c2"><use href="#z25138d2"/></clipPath>
	<clipPath id="z25138c3"><use href="#z25138d3"/></clipPath>
	<clipPath id="z25138c4"><use href="#z25138d4"/></clipPath>
	<clipPath id="z25138c5"><use href="#z25138d5"/></clipPath>
	<clipPath id="z25138c6"><use href="#z25138d6"/></clipPath>
	<clipPath id="z25138c7"><use href="#z25138d7"/></clipPath>
	<clipPath id="z25138c8"><use href="#z25138d8"/></clipPath>
	<clipPath id="z25138c9"><use href="#z25138d9"/></clipPath>
	<clipPath id="z25138c10"><use href="#z25138d10"/></clipPath>
	<clipPath id="z25138c11"><use href="#z25138d11"/></clipPath>
	<clipPath id="z25138c12"><use href="#z25138d12"/></clipPath>
	<clipPath id="z25138c13"><use href="#z25138d13"/></clipPath>
	<clipPath id="z25138c14"><use href="#z25138d14"/></clipPath>
	<clipPath id="z25138c15"><use href="#z25138d15"/></clipPath>
	<clipPath id="z25138c16"><use href="#z25138d16"/></clipPath>
	<clipPath id="z25138c17"><use href="#z25138d17"/></clipPath><marker id="guide-arrow" viewBox="0 0 16 16" refX="5" refY="5" markerWidth="4" markerHeight="4" orient="auto-start-reverse"><path d="M 0 0 L 10 5 L 0 10 z" fill="inherit"/></marker></defs>
<g class="strokes"><path style="--part:1" pathLength="3333" clip-path="url(#z25138c1)" d="M345 52L391 90L389 257"/><path style="--part:1" pathLength="3333" clip-path="url(#z25138c2)" d="M415 161L525 126"/><path style="--part:1" pathLength="3333" clip-path="url(#z25138c3)" d="M164 277L209 321L187 574L128 768L47 886"/><path style="--part:1" pathLength="3333" clip-path="url(#z25138c4)" d="M225 291L519 231L561 267L503 318"/><path style="--part:1" pathLength="3333" clip-path="url(#z25138c5)" d="M260 413L481 348"/><path style="--part:1" pathLength="3333" clip-path="url(#z25138c6)" d="M333 302L352 333L353 444L383 469L509 441L516 372"/><path style="--part:1" pathLength="3333" clip-path="url(#z25138c7)" d="M276 557L494 524"/><path style="--part:1" pathLength="3333" clip-path="url(#z25138c8)" d="M258 628L287 649L321 754"/><path style="--part:1" pathLength="3333" clip-path="url(#z25138c9)" d="M298 633L463 607L490 633L454 695"/><path style="--part:1" pathLength="3333" clip-path="url(#z25138c10)" d="M328 726L496 706"/><path style="--part:1" pathLength="3333" clip-path="url(#z25138c11)" d="M274 767L320 847"/><path style="--part:1" pathLength="3333" clip-path="url(#z25138c12)" d="M434 723L456 761L422 834"/><path style="--part:1" pathLength="3333" clip-path="url(#z25138c13)" d="M187 878L247 906L546 816"/><path style="--part:2" pathLength="3333" clip-path="url(#z25138c14)" d="M540 498L846 411"/><path style="--part:2" pathLength="3333" clip-path="url(#z25138c15)" d="M584 100L658 157L692 545L776 786L859 888L927 926L948 754"/><path style="--part:2" pathLength="3333" clip-path="url(#z25138c16)" d="M801 520L823 576L756 680L595 792"/><path style="--part:2" pathLength="3333" clip-path="url(#z25138c17)" d="M754 211L848 267L880 315"/></g>
<g class="guides"><text class="g1" style="--gs:1" x="345" y="52">①</text><path class="g1 aligned" style="--gs:1" d="M345,52 Q391,90 390.75,110.88 Q389.25,236.13 389,257"/><path class="g1 offset" style="--gs:1" d="M249,52 Q295,90 294.75,110.88 Q293.25,236.13 293,257"/><text class="g2" style="--gs:2" x="415" y="161">②</text><path class="g2 aligned" style="--gs:2" d="M415,161 L525,126"/><path class="g2 offset" style="--gs:2" d="M415,257 L525,222"/><text class="g3" style="--gs:3" x="164" y="277">③</text><path class="g3 aligned" style="--gs:3" d="M164,277 Q209,321 198,447.5 Q187,574 157.5,671 Q128,768 87.5,827 Q87.5,827 47,886"/><path class="g3 offset" style="--gs:3" d="M68,277 Q90.5,314.06 85,420.62 Q79.5,527.18 64.75,608.89 Q50,690.6 29.75,740.3 Q29.75,740.3 9.5,790"/><text class="g4" style="--gs:4" x="225" y="291">④</text><path class="g4 aligned" style="--gs:4" d="M225,291 Q519,231 529.5,240 Q561,267 546.5,279.75 Q517.5,305.25 503,318"/><path class="g4 offset" style="--gs:4" d="M225,387 Q426.25,327 433.44,336 Q455,363 445.07,375.75 Q425.22,401.25 415.3,414"/><text class="g5" style="--gs:5" x="260" y="413">⑤</text><path class="g5 aligned" style="--gs:5" d="M260,413 L481,348"/><path class="g5 offset" style="--gs:5" d="M260,509 L481,444"/><text class="g6" style="--gs:6" x="333" y="302">⑥</text><path class="g6 aligned" style="--gs:6" d="M343,318 Q353,444 368,456.5 Q383,469 446,455 Q509,441 512.5,406.5 Q512.5,406.5 516,372"/><path class="g6 offset" style="--gs:6" d="M463,318 Q473,444 488,456.5 Q503,469 566,455 Q629,441 632.5,406.5 Q632.5,406.5 636,372"/><text class="g7" style="--gs:7" x="276" y="557">⑦</text><path class="g7 aligned" style="--gs:7" d="M276,557 L494,524"/><path class="g7 offset" style="--gs:7" d="M276,653 L494,620"/><text class="g8" style="--gs:8" x="258" y="628">⑧</text><path class="g8 aligned" style="--gs:8" d="M273,639 L321,754"/><path class="g8 offset" style="--gs:8" d="M393,639 L441,754"/><text class="g9" style="--gs:9" x="298" y="633">⑨</text><path class="g9 aligned" style="--gs:9" d="M298,633 Q463,607 469.75,613.5 Q490,633 481,648.5 Q463,679.5 454,695"/><path class="g9 offset" style="--gs:9" d="M298,729 Q380.5,703 383.88,709.5 Q394,729 389.5,733.5 Q380.5,742.5 376,747"/><text class="g10" style="--gs:10" x="328" y="726">⑩</text><path class="g10 aligned" style="--gs:10" d="M328,726 L496,706"/><path class="g10 offset" style="--gs:10" d="M328,822 L496,802"/><text class="g11" style="--gs:11" x="274" y="767">⑪</text><path class="g11 aligned" style="--gs:11" d="M274,767 L320,847"/><path class="g11 offset" style="--gs:11" d="M359.68,698.46 L405.68,778.46"/><text class="g12" style="--gs:12" x="434" y="723">⑫</text><path class="g12 aligned" style="--gs:12" d="M434,723 Q456,761 451.75,770.13 Q426.25,824.88 422,834"/><path class="g12 offset" style="--gs:12" d="M338,723 Q360,761 355.75,770.13 Q330.25,824.88 326,834"/><text class="g13" style="--gs:13" x="187" y="878">⑬</text><path class="g13 aligned" style="--gs:13" d="M187,878 Q247,906 284.38,894.75 Q508.63,827.25 546,816"/><path class="g13 offset" style="--gs:13" d="M187,974 Q247,1002 284.38,990.75 Q508.63,923.25 546,912"/><text class="g14" style="--gs:14" x="540" y="498">⑭</text><path class="g14 aligned" style="--gs:14" d="M540,498 L846,411"/><path class="g14 offset" style="--gs:14" d="M540,594 L846,507"/><text class="g15" style="--gs:15" x="584" y="100">⑮</text><path class="g15 aligned" style="--gs:15" d="M584,100 Q658,157 675,351 Q692,545 734,665.5 Q776,786 817.5,837 Q859,888 893,907 Q927,926 937.5,840 Q937.5,840 948,754"/><path class="g15 offset" style="--gs:15" d="M652.54,31.46 Q693.09,88.46 702.41,282.46 Q711.72,476.46 734.74,596.96 Q757.75,717.46 780.49,768.46 Q803.23,819.46 821.86,838.46 Q840.49,857.46 846.25,771.46 Q846.25,771.46 852,685.46"/><text class="g16" style="--gs:16" x="801" y="520">⑯</text><path class="g16 aligned" style="--gs:16" d="M801,520 Q823,576 806.25,602 Q756,680 715.75,708 Q635.25,764 595,792"/><path class="g16 offset" style="--gs:16" d="M705,520 Q716,556.24 707.63,573.06 Q682.5,623.53 662.38,641.65 Q622.13,677.88 602,696"/><text class="g17" style="--gs:17" x="754" y="211">⑰</text><path class="g17 aligned" style="--gs:17" d="M754,211 Q848,267 852,273 Q876,309 880,315"/><path class="g17 offset" style="--gs:17" d="M839.68,142.46 Q933.68,198.46 937.68,204.46 Q961.68,240.46 965.68,246.46"/></g>
<g class="parts"><rect data-part="1" data-literal="䖒" role="button" tabindex="0" aria-label="Part 䖒" x="0" y="0" width="633" height="978"/><rect data-part="2" data-literal="戈" data-radical="true" role="button" tabindex="0" aria-label="Part 戈 (radical)" x="468" y="28" width="552" height="970"/></g>
</svg>
