<svg id="z25153" class="acjk" viewBox="0 0 1024 1024" xmlns="http://www.w3.org/2000/svg">
<style>

@keyframes zk {
	to {
		stroke-dashoffset:0;
	}
}
svg.acjk path[clip-path] {
	--t:0.8s;
	animation:zk var(--t) linear forwards var(--d);
	stroke-dasharray:3337;
	stroke-dashoffset:3339;
	stroke-width:128;
	stroke-linecap:round;
	fill:none;
	stroke:#000;
}
svg.acjk path[id] {fill:#ccc;}


    @keyframes guide-fade {
        0% { opacity: 0; }
        3% { opacity: 1; }
        95% { opacity: 1; }
        100% { opacity: 0; }
    }

    svg.acjk #guide-arrow {
        fill: #f77;
    }

    svg.acjk .guides {
        circle {
            fill: #0f6;
        }

        path {
            opacity: 0;
            animation: guide-fade var(--t) linear forwards var(--d);
            stroke-width: 16px;
            stroke-linecap: round;
            stroke: #f77;
            fill: none;
            marker-end: url(#guide-arrow);
        }

        circle,
        path {
            --t: 0.8s;
            opacity: 0;
            animation: guide-fade calc(var(--t) + 0.4s) ease-in-out forwards calc(var(--d) - 0.2s);
        }
    }
</style>
<path id="z25153d1" d="M389 231C413 220 537 176 584 162C626 151 649 140 621 118C609 109 598 102 580 96C555 88 556 101 544 116C525 138 459 168 374 203C364 207 379 235 389 231Z"/>
<path id="z25153d2" d="M655 379C677 335 699 312 718 300C732 290 732 273 721 262C711 252 687 239 651 221C638 214 624 214 610 221C547 248 471 272 377 292C365 294 361 329 373 327C393 322 476 305 593 274C617 267 633 277 628 299C620 327 610 352 600 375C593 392 647 395 655 379Z"/>
<path id="z25153d3" d="M346 455C356 463 369 466 385 462C445 446 539 430 670 415C676 414 681 410 682 404C682 398 673 389 655 379C639 370 618 371 600 375C509 399 427 417 353 429C344 430 339 450 346 455Z"/>
<path id="z25153d4" d="M311 556C325 517 335 493 346 455C351 438 351 438 353 429C358 408 370 346 373 327C376 304 376 304 377 292C378 276 385 247 389 231C391 221 384 211 377 204C369 195 358 188 347 180C334 172 324 167 316 170C307 172 303 179 307 190C313 208 316 322 311 356C285 505 261 568 207 671C169 741 116 809 55 878C50 882 47 886 46 890C43 896 45 900 53 900C75 900 117 865 179 794C229 735 272 661 296 597C306 570 306 570 311 556Z"/>
<path id="z25153d5" d="M338 566C333 561 324 558 311 556C297 553 293 583 296 597C310 641 314 700 299 774C290 815 292 845 311 869C316 876 321 879 328 875C344 861 353 812 353 733C352 664 350 620 351 601C351 589 348 573 338 566Z"/>
<path id="z25153d6" d="M617 549C649 543 698 537 765 533C792 530 789 562 789 578C788 672 781 746 766 800C758 826 743 832 721 832C703 831 685 829 670 825C644 817 648 830 664 848C702 890 727 922 737 943C741 952 747 956 754 956C762 954 771 947 781 933C796 910 807 885 816 859C827 822 842 739 859 609C861 585 866 566 876 555C887 540 889 534 881 528C868 519 851 507 826 493C809 483 793 481 776 487C731 500 473 543 338 566C326 568 339 603 351 601C379 594 407 588 431 583C458 577 458 577 471 574C505 566 539 561 572 556C602 551 602 551 617 549Z"/>
<path id="z25153d7" d="M628 690C656 685 683 681 710 678C724 676 730 670 725 663C718 653 707 647 691 644C676 640 656 643 632 649C599 656 599 656 582 660C561 664 508 673 493 677C463 683 463 683 448 686C427 690 407 692 387 696C376 698 376 705 390 714C411 726 428 721 450 718C479 713 479 713 493 711C521 706 550 701 580 697C612 692 612 692 628 690Z"/>
<path id="z25153d8" d="M431 583C443 608 446 657 448 686C449 707 449 707 450 718C452 756 447 804 468 838C469 841 474 842 478 841C485 837 489 820 492 791C492 785 493 758 493 711C493 688 493 688 493 677C493 592 509 590 471 574C458 569 426 570 431 583Z"/>
<path id="z25153d9" d="M576 848C577 862 580 871 584 877C586 881 589 881 594 881C598 879 602 875 605 867C610 848 618 789 628 690C631 663 631 663 632 649C639 569 658 576 617 549C605 540 566 542 572 556C585 588 583 626 582 660C581 685 581 685 580 697C575 776 574 827 576 848Z"/>
<defs>
	<clipPath id="z25153c1"><use href="#z25153d1"/></clipPath>
	<clipPath id="z25153c2"><use href="#z25153d2"/></clipPath>
	<clipPath id="z25153c3"><use href="#z25153d3"/></clipPath>
	<clipPath id="z25153c4"><use href="#z25153d4"/></clipPath>
	<clipPath id="z25153c5"><use href="#z25153d5"/></clipPath>
	<clipPath id="z25153c6"><use href="#z25153d6"/></clipPath>
	<clipPath id="z25153c7"><use href="#z25153d7"/></clipPath>
	<clipPath id="z25153c8"><use href="#z25153d8"/></clipPath>
	<clipPath id="z25153c9"><use href="#z25153d9"/></clipPath>
<marker id="guide-arrow" viewBox="0 0 16 16" refX="5" refY="5" markerWidth="4" markerHeight="4" orient="auto-start-reverse"><path d="M 0 0 L 10 5 L 0 10 z" fill="inherit"/></marker></defs>
<path style="--d:1s;" pathLength="3333" clip-path="url(#z25153c1)" d="M564 100L572 141L380 222"/>
<path style="--d:2s;" pathLength="3333" clip-path="url(#z25153c2)" d="M371 316L636 248L678 291L610 384"/>
<path style="--d:3s;" pathLength="3333" clip-path="url(#z25153c3)" d="M347 447L619 396L674 406"/>
<path style="--d:4s;" pathLength="3333" clip-path="url(#z25153c4)" d="M313 176L350 226L343 327L284 561L197 733L54 893"/>
<path style="--d:5s;" pathLength="3333" clip-path="url(#z25153c5)" d="M311 559L330 670L320 872"/>
<path style="--d:6s;" pathLength="3333" clip-path="url(#z25153c6)" d="M339 573L808 518L837 547L786 840L737 904L660 830"/>
<path style="--d:7s;" pathLength="3333" clip-path="url(#z25153c7)" d="M387 700L719 668"/>
<path style="--d:8s;" pathLength="3333" clip-path="url(#z25153c8)" d="M437 579L469 610L476 834"/>
<path style="--d:9s;" pathLength="3333" clip-path="url(#z25153c9)" d="M577 551L611 582L594 875"/>
<g class="guides"><circle style="--d: 1s" class="g1" cx="568" cy="121" r="16"/><path style="--d: 1s;" class="g1" d="M568,217 L380,318"/><circle style="--d: 2s" class="g2" cx="371" cy="316" r="16"/><path style="--d: 2s;" class="g2" d="M371,412 Q535.8697068403909,344 542.4022801302932,354.75 Q562,387 551.4234527687297,410.25 Q530.2703583061889,456.75 519.6938110749186,480"/><circle style="--d: 3s" class="g3" cx="347" cy="447" r="16"/><path style="--d: 3s;" class="g3" d="M347,543 Q619,492 625.875,493.25 Q667.125,500.75 674,502"/><circle style="--d: 4s" class="g4" cx="313" cy="176" r="16"/><path style="--d: 4s;" class="g4" d="M217,176 Q242,219.30543933054395 239.63513513513513,263.0439330543933 Q237.27027027027026,306.78242677824267 217.33783783783784,408.11715481171547 Q197.40540540540542,509.45188284518827 168.01351351351352,583.9372384937238 Q138.6216216216216,658.4225941422594 90.3108108108108,727.7112970711297 Q90.3108108108108,727.7112970711297 42,797"/><circle style="--d: 5s" class="g5" cx="311" cy="559" r="16"/><path style="--d: 5s;" class="g5" d="M431,559 Q450,670 448.75,695.25 Q441.25,846.75 440,872"/><circle style="--d: 6s" class="g6" cx="339" cy="573" r="16"/><path style="--d: 6s;" class="g6" d="M339,669 Q717.5903614457832,614 729.2951807228916,628.5 Q741,643 720.4156626506024,709 Q699.8313253012049,775 680.0542168674699,791 Q660.277108433735,807 629.198795180723,788.5 Q629.198795180723,788.5 598.1204819277109,770"/><circle style="--d: 7s" class="g7" cx="387" cy="700" r="16"/><path style="--d: 7s;" class="g7" d="M387,796 L719,764"/><circle style="--d: 8s" class="g8" cx="437" cy="579" r="16"/><path style="--d: 8s;" class="g8" d="M522.68,510.456 Q554.68,541.456 555.555,569.456 Q560.805,737.456 561.68,765.456"/><circle style="--d: 9s" class="g9" cx="577" cy="551" r="16"/><path style="--d: 9s;" class="g9" d="M481,551 Q515,582 512.875,618.625 Q500.125,838.375 498,875"/></g></svg>