<!--
  Stroke-order data for 折, derived from AnimCJK (https://github.com/parsimonhi/animCJK),
  itself derived from the Arphic PL KaitiM fonts. Distributed under the Arphic Public License
  (see ARPHICPL.TXT). Regenerated by scripts/build-strokes.ts — do not edit by hand.
-->
<svg id="z25240" class="acjk" viewBox="0 0 1024 1024" xmlns="http://www.w3.org/2000/svg">
<g class="glyph"><path style="--part:1" id="z25240d1" d="M338 346C354 341 371 335 389 330C409 323 422 318 426 315C432 308 433 301 429 296C422 287 408 282 388 280C371 277 355 279 340 286C309 299 309 299 293 306C259 320 183 339 150 347C125 353 122 363 142 373C175 388 207 388 244 375C257 369 276 364 292 360C323 351 323 351 338 346Z"/><path style="--part:1" id="z25240d2" d="M288 548C286 600 286 659 285 723C284 737 279 747 271 754C268 756 245 760 204 755C182 752 173 748 175 755C175 759 183 765 197 775C236 802 259 826 270 842C281 860 292 871 302 872C310 872 320 861 329 839C340 810 343 772 341 726C337 655 335 584 335 513C335 490 335 490 335 478C335 451 337 365 338 346C339 306 339 306 340 286C342 220 343 164 360 122C367 102 357 88 324 71C302 60 286 54 273 59C262 62 260 72 271 87C284 105 292 124 293 146C293 156 294 210 293 306C292 342 292 342 292 360C291 400 290 448 289 502C288 533 288 533 288 548Z"/><path style="--part:1" id="z25240d3" d="M289 502C231 531 177 559 127 589C102 603 81 610 65 616C55 618 50 624 49 630C47 636 51 645 62 655C75 666 90 674 107 681C113 683 127 681 142 668C182 632 229 591 288 548C319 525 319 525 335 513C351 500 367 488 384 479C398 470 409 462 416 453C421 444 419 439 412 439C408 438 382 453 335 478C304 494 304 494 289 502Z"/><path style="--part:2" id="z25240d4" d="M561 314Q664 275 717 244Q763 219 803 206Q821 203 824 194Q827 182 812 172Q788 159 739 145Q723 139 708 142Q701 146 701 159Q702 195 551 296C545 300 555 317 561 314Z"/><path style="--part:2" id="z25240d5" d="M555 453C559 371 557 325 561 314C562 307 557 300 551 296C527 281 488 270 478 273C465 275 465 283 476 299C500 336 507 424 497 561C494 597 481 637 466 681C448 728 414 779 362 832C353 840 346 846 345 852C343 856 348 858 356 858C382 855 418 830 461 780C517 712 546 615 553 490C554 465 554 465 555 453Z"/><path style="--part:2" id="z25240d6" d="M744 453C754 451 812 443 920 432C932 430 940 428 943 422C946 414 942 404 930 398C888 374 849 375 811 387C711 416 625 435 555 453C543 455 541 488 553 490C565 492 588 490 624 480C641 475 661 469 682 465C723 457 723 457 744 453Z"/><path style="--part:2" id="z25240d7" d="M702 939C704 952 707 964 714 973C717 978 722 980 727 978C739 971 744 947 748 911C751 870 754 831 753 793C748 642 752 539 764 485C766 473 762 464 753 458C749 455 747 453 744 453C724 445 674 445 682 465C690 481 697 524 698 595C700 803 698 917 702 939Z"/></g>
<defs><clipPath id="z25240c1"><use href="#z25240d1"/></clipPath>
	<clipPath id="z25240c2"><use href="#z25240d2"/></clipPath>
	<clipPath id="z25240c3"><use href="#z25240d3"/></clipPath>
	<clipPath id="z25240c4"><use href="#z25240d4"/></clipPath>
	<clipPath id="z25240c5"><use href="#z25240d5"/></clipPath>
	<clipPath id="z25240c6"><use href="#z25240d6"/></clipPath>
	<clipPath id="z25240c7"><use href="#z25240d7"/></clipPath><marker id="guide-arrow" viewBox="0 0 16 16" refX="5" refY="5" markerWidth="4" markerHeight="4" orient="auto-start-reverse"><path d="M 0 0 L 10 5 L 0 10 z" fill="inherit"/></marker></defs>
<g class="strokes"><path style="--part:1" pathLength="3333" clip-path="url(#z25240c1)" d="M137 358L425 302"/><path style="--part:1" pathLength="3333" clip-path="url(#z25240c2)" d="M271 68L327 125L312 747L285 820L181 756"/><path style="--part:1" pathLength="3333" clip-path="url(#z25240c3)" d="M54 633L111 641L412 446"/><path style="--part:2" pathLength="3333" clip-path="url(#z25240c4)" d="M712 145L748 192L557 305"/><path style="--part:2" pathLength="3333" clip-path="url(#z25240c5)" d="M475 282L524 326L513 608L463 740L354 852"/><path style="--part:2" pathLength="3333" clip-path="url(#z25240c6)" d="M557 483L785 420L939 412"/><path style="--part:2" pathLength="3333" clip-path="url(#z25240c7)" d="M691 468L728 496L731 972"/></g>
<g class="guides"><text class="g1" style="--gs:1" x="137" y="358">①</text><path class="g1 aligned" style="--gs:1" d="M137,358 L425,302"/><path class="g1 offset" style="--gs:1" d="M137,454 L425,398"/><text class="g2" style="--gs:2" x="271" y="68">②</text><path class="g2 aligned" style="--gs:2" d="M271,68 Q327,125 319.5,436 Q312,747 298.5,783.5 Q285,820 233,788 Q233,788 181,756"/><path class="g2 offset" style="--gs:2" d="M175,68 Q203,117.72 199.25,389.02 Q195.5,660.32 188.75,692.16 Q182,724 156,696.09 Q156,696.09 130,668.17"/><text class="g3" style="--gs:3" x="54" y="633">③</text><path class="g3 aligned" style="--gs:3" d="M54,633 Q111,641 148.63,616.63 Q374.38,470.38 412,446"/><path class="g3 offset" style="--gs:3" d="M54,537 Q111,545 148.63,520.63 Q374.38,374.38 412,350"/><text class="g4" style="--gs:4" x="712" y="145">④</text><path class="g4 aligned" style="--gs:4" d="M712,145 Q748,192 724.13,206.13 Q580.88,290.88 557,305"/><path class="g4 offset" style="--gs:4" d="M616,145 Q634,168.5 622.06,175.56 Q550.44,217.94 538.5,225"/><text class="g5" style="--gs:5" x="475" y="282">⑤</text><path class="g5 aligned" style="--gs:5" d="M475,282 Q524,326 518.5,467 Q513,608 488,674 Q463,740 408.5,796 Q408.5,796 354,852"/><path class="g5 offset" style="--gs:5" d="M379,282 Q403.5,318.59 400.75,435.84 Q398,553.09 385.5,607.98 Q373,662.86 345.75,709.43 Q345.75,709.43 318.5,756"/><text class="g6" style="--gs:6" x="557" y="483">⑥</text><path class="g6 aligned" style="--gs:6" d="M557,483 Q785,420 804.25,419 Q919.75,413 939,412"/><path class="g6 offset" style="--gs:6" d="M557,579 Q785,516 804.25,515 Q919.75,509 939,508"/><text class="g7" style="--gs:7" x="691" y="468">⑦</text><path class="g7 aligned" style="--gs:7" d="M691,468 Q728,496 728.38,555.5 Q730.63,912.5 731,972"/><path class="g7 offset" style="--gs:7" d="M776.68,399.46 Q813.68,427.46 814.06,486.96 Q816.31,843.96 816.68,903.46"/></g>
<g class="parts"><rect data-part="2" data-literal="斤" role="button" tabindex="0" aria-label="Part 斤" x="282" y="73" width="729" height="951"/><rect data-part="1" data-literal="扌" data-radical="true" role="button" tabindex="0" aria-label="Part 扌 (radical)" x="0" y="0" width="497" height="892"/></g>
</svg>
