<svg id="z25282" class="acjk" viewBox="0 0 1024 1024" xmlns="http://www.w3.org/2000/svg">
<style>

@keyframes zk {
	to {
		stroke-dashoffset:0;
	}
}
svg.acjk path[clip-path] {
	--t:0.8s;
	animation:zk var(--t) linear forwards var(--d);
	stroke-dasharray:3337;
	stroke-dashoffset:3339;
	stroke-width:128;
	stroke-linecap:round;
	fill:none;
	stroke:#000;
}
svg.acjk path[id] {fill:#ccc;}


    @keyframes guide-fade {
        0% { opacity: 0; }
        3% { opacity: 1; }
        95% { opacity: 1; }
        100% { opacity: 0; }
    }

    svg.acjk #guide-arrow {
        fill: #f77;
    }

    svg.acjk .guides {
        circle {
            fill: #0f6;
        }

        path {
            opacity: 0;
            animation: guide-fade var(--t) linear forwards var(--d);
            stroke-width: 16px;
            stroke-linecap: round;
            stroke: #f77;
            fill: none;
            marker-end: url(#guide-arrow);
        }

        circle,
        path {
            --t: 0.8s;
            opacity: 0;
            animation: guide-fade calc(var(--t) + 0.4s) ease-in-out forwards calc(var(--d) - 0.2s);
        }
    }
</style>
<path id="z25282d1" d="M309 335Q330 328 352 322Q380 313 385 309Q394 300 388 292Q381 280 350 275Q328 272 310 278C277 291 277 291 260 298Q185 319 135 329Q98 338 126 353Q174 374 228 356Q243 352 259 348C292 339 292 339 309 335Z"/>
<path id="z25282d2" d="M256 543Q255 622 254 723Q253 745 240 755Q237 756 177 753Q144 741 147 751Q148 758 168 773Q225 819 239 846Q255 877 270 879Q285 880 299 845Q317 799 315 726Q308 615 307 505C307 486 307 486 307 477Q306 405 309 335C310 297 310 297 310 278Q325 133 330 119Q348 89 292 67Q258 48 239 55Q221 61 237 84Q259 112 260 145Q261 161 260 298C259 331 259 331 259 348Q258 414 257 503C256 530 256 530 256 543Z"/>
<path id="z25282d3" d="M307 505Q317 495 332 488Q351 478 360 464Q367 451 357 452Q347 452 307 477C274 494 274 494 257 503Q53 609 52 611Q34 611 32 625Q31 634 44 648Q63 663 84 671Q99 675 110 664Q197 583 256 543C290 518 290 518 307 505Z"/>
<path id="z25282d4" d="M786 349Q807 292 827 277Q846 255 818 239Q793 221 767 208Q751 198 730 208Q709 215 679 224C648 230 648 230 632 233Q598 237 562 248C531 255 531 255 516 259Q467 269 438 272Q425 272 423 280Q422 287 443 298Q462 311 492 302Q504 298 518 295C547 288 547 288 561 284Q576 277 632 271C663 266 663 266 679 264Q700 260 724 257Q736 256 739 261Q748 270 734 349C731 366 780 365 786 349Z"/>
<path id="z25282d5" d="M678 401Q735 392 804 386Q814 385 816 376Q816 369 786 349C771 340 751 346 734 349Q704 355 678 362C647 369 647 369 631 373Q594 380 560 387C533 392 533 392 520 394Q480 398 445 405C433 407 450 437 462 437Q466 437 471 436Q492 430 520 426C546 421 546 421 559 418Q590 412 630 408C662 403 662 403 678 401Z"/>
<path id="z25282d6" d="M678 524Q804 503 829 509Q842 510 847 521Q851 533 814 644Q810 657 797 654Q776 650 751 645Q726 635 743 660Q777 705 783 726Q789 739 802 738Q815 739 830 729Q857 701 876 644Q891 575 921 544Q939 526 927 514Q905 490 872 469Q859 459 840 464Q800 474 717 487Q696 488 678 494C645 499 645 499 628 502Q589 506 558 514C529 520 529 520 515 523Q443 533 440 534Q434 533 436 519Q445 468 462 437C468 427 454 414 445 405Q435 396 420 388Q410 381 400 388Q393 392 401 410Q411 434 401 467Q385 521 369 540Q359 555 368 570Q377 594 389 601Q398 605 420 590Q445 569 512 552C541 546 541 546 556 543Q584 537 627 531C661 526 661 526 678 524Z"/>
<path id="z25282d7" d="M562 248Q562 215 579 173Q585 160 575 150Q554 134 518 126Q496 122 488 127Q481 134 488 145Q509 175 516 259C517 283 517 283 518 295Q519 344 520 394C520 415 520 415 520 426Q519 460 517 494Q516 507 515 523C513 542 513 542 512 552Q497 679 444 759Q420 790 385 826Q375 835 376 838Q377 842 388 840Q398 843 426 827Q540 767 556 543C557 524 557 524 558 514Q558 501 559 418C560 397 560 397 560 387Q560 333 561 284C562 260 562 260 562 248Z"/>
<path id="z25282d8" d="M624 932Q630 959 637 969Q643 976 651 974Q666 965 673 902Q685 790 681 680Q678 634 678 524C678 504 678 504 678 494Q677 451 678 401C678 375 678 375 678 362Q678 316 679 264C679 237 679 237 679 224Q679 223 680 222Q680 180 694 100Q698 81 683 72Q649 50 632 46Q619 42 602 51Q593 60 601 70Q607 83 615 97Q633 128 633 176Q633 203 632 233C632 258 632 258 632 271Q631 319 631 373C630 396 630 396 630 408Q629 453 628 502C627 521 627 521 627 531Q620 882 624 932Z"/>
<defs>
	<clipPath id="z25282c1"><use href="#z25282d1"/></clipPath>
	<clipPath id="z25282c2"><use href="#z25282d2"/></clipPath>
	<clipPath id="z25282c3"><use href="#z25282d3"/></clipPath>
	<clipPath id="z25282c4"><use href="#z25282d4"/></clipPath>
	<clipPath id="z25282c5"><use href="#z25282d5"/></clipPath>
	<clipPath id="z25282c6"><use href="#z25282d6"/></clipPath>
	<clipPath id="z25282c7"><use href="#z25282d7"/></clipPath>
	<clipPath id="z25282c8"><use href="#z25282d8"/></clipPath>
<marker id="guide-arrow" viewBox="0 0 16 16" refX="5" refY="5" markerWidth="4" markerHeight="4" orient="auto-start-reverse"><path d="M 0 0 L 10 5 L 0 10 z" fill="inherit"/></marker></defs>
<path style="--d:1s;" pathLength="3333" clip-path="url(#z25282c1)" d="M122 341L386 302"/>
<path style="--d:2s;" pathLength="3333" clip-path="url(#z25282c2)" d="M237 62L295 112L283 750L255 827L156 754"/>
<path style="--d:3s;" pathLength="3333" clip-path="url(#z25282c3)" d="M35 622L90 633L354 458"/>
<path style="--d:4s;" pathLength="3333" clip-path="url(#z25282c4)" d="M429 280L747 231L788 269L748 348"/>
<path style="--d:5s;" pathLength="3333" clip-path="url(#z25282c5)" d="M453 406L811 372"/>
<path style="--d:6s;" pathLength="3333" clip-path="url(#z25282c6)" d="M406 394L433 434L400 540L421 567L593 521L858 492L887 535L823 685L795 695L742 648"/>
<path style="--d:7s;" pathLength="3333" clip-path="url(#z25282c7)" d="M492 130L542 176L526 609L468 763L383 833"/>
<path style="--d:8s;" pathLength="3333" clip-path="url(#z25282c8)" d="M605 57L660 112L647 970"/>
<g class="guides"><circle style="--d: 1s" class="g1" cx="122" cy="341" r="16"/><path style="--d: 1s;" class="g1" d="M122,437 L386,398"/><circle style="--d: 2s" class="g2" cx="237" cy="62" r="16"/><path style="--d: 2s;" class="g2" d="M141,62 Q170,105.72549019607843 167,384.69411764705876 Q164,663.6627450980392 157,697.3313725490195 Q150,731 125.25,699.0803921568627 Q125.25,699.0803921568627 100.5,667.1607843137255"/><circle style="--d: 3s" class="g3" cx="35" cy="622" r="16"/><path style="--d: 3s;" class="g3" d="M35,526 Q90,537 123,515.125 Q321,383.875 354,362"/><circle style="--d: 4s" class="g4" cx="429" cy="280" r="16"/><path style="--d: 4s;" class="g4" d="M429,376 Q640.7047353760446,327 647.5285515320335,336.5 Q668,365 661.3426183844011,370.125 Q648.0278551532033,380.375 641.3704735376044,385.5"/><circle style="--d: 5s" class="g5" cx="453" cy="406" r="16"/><path style="--d: 5s;" class="g5" d="M453,502 L811,468"/><circle style="--d: 6s" class="g6" cx="406" cy="394" r="16"/><path style="--d: 6s;" class="g6" d="M337.456,462.544 Q388.13439014373716,502.544 357.1642628336756,555.544 Q326.19413552361397,608.544 345.90239835728954,622.044 Q365.6106611909651,635.544 527.0307186858316,612.544 Q688.4507761806982,589.544 937.1502833675565,575.044 Q1185.8497905544148,560.544 1213.0659630390142,582.044 Q1240.2821355236138,603.544 1180.2188583162215,678.544 Q1120.1555811088294,753.544 1093.8778973305953,758.544 Q1067.6002135523613,763.544 1017.8603121149897,740.044 Q1017.8603121149897,740.044 968.120410677618,716.544"/><circle style="--d: 7s" class="g7" cx="492" cy="130" r="16"/><path style="--d: 7s;" class="g7" d="M396,130 Q421,169.71834992887625 417,356.65362731152203 Q413,543.5889046941678 398.5,610.0739687055477 Q384,676.5590327169275 362.75,706.7795163584638 Q362.75,706.7795163584638 341.5,737"/><circle style="--d: 8s" class="g8" cx="605" cy="57" r="16"/><path style="--d: 8s;" class="g8" d="M509,57 Q564,112 562.375,219.25 Q552.625,862.75 551,970"/></g></svg>