<svg id="z25407" class="acjk" viewBox="0 0 1024 1024" xmlns="http://www.w3.org/2000/svg">
<style>

@keyframes zk {
	to {
		stroke-dashoffset:0;
	}
}
svg.acjk path[clip-path] {
	--t:0.8s;
	animation:zk var(--t) linear forwards var(--d);
	stroke-dasharray:3337;
	stroke-dashoffset:3339;
	stroke-width:128;
	stroke-linecap:round;
	fill:none;
	stroke:#000;
}
svg.acjk path[id] {fill:#ccc;}


    @keyframes guide-fade {
        0% { opacity: 0; }
        3% { opacity: 1; }
        95% { opacity: 1; }
        100% { opacity: 0; }
    }

    svg.acjk #guide-arrow {
        fill: #f77;
    }

    svg.acjk .guides {
        circle {
            fill: #0f6;
        }

        path {
            opacity: 0;
            animation: guide-fade var(--t) linear forwards var(--d);
            stroke-width: 16px;
            stroke-linecap: round;
            stroke: #f77;
            fill: none;
            marker-end: url(#guide-arrow);
        }

        circle,
        path {
            --t: 0.8s;
            opacity: 0;
            animation: guide-fade calc(var(--t) + 0.4s) ease-in-out forwards calc(var(--d) - 0.2s);
        }
    }
</style>
<path id="z25407d1" d="M331 336C339 333 347 330 357 328C377 321 389 316 393 313C399 307 399 301 396 296C391 288 377 281 358 279C348 277 340 277 333 280C300 291 300 291 283 297C220 318 168 332 127 341C102 346 97 356 118 365C155 381 187 375 283 349C315 340 315 340 331 336Z"/>
<path id="z25407d2" d="M282 534C282 611 282 752 282 765C281 781 276 792 268 799C261 803 250 803 236 799C218 794 201 792 185 788C161 782 153 781 155 788C156 792 163 799 177 809C222 841 249 867 262 888C275 909 288 922 299 923C307 923 317 911 327 889C339 858 345 818 342 770C336 677 330 585 330 494C330 475 330 475 330 465C330 421 329 378 331 336C332 299 332 299 333 280C335 217 336 164 351 123C358 101 347 87 312 71C288 60 271 54 259 59C247 63 245 73 257 89C271 106 279 127 281 150C281 160 283 209 283 297C283 332 283 332 283 349C283 389 282 438 282 494C282 521 282 521 282 534Z"/>
<path id="z25407d3" d="M282 494C140 579 68 619 67 620C57 624 50 628 50 635C49 641 53 649 64 657C75 666 90 673 105 678C114 681 122 677 130 670C187 611 240 568 282 534C314 507 314 507 330 494C336 488 344 482 352 478C364 470 375 461 381 452C385 443 383 439 376 440C372 440 356 448 330 465C298 484 298 484 282 494Z"/>
<path id="z25407d4" d="M773 186C783 184 790 182 793 177C795 170 793 162 785 155C771 143 749 133 721 122C710 117 700 113 692 116C686 117 684 123 684 130C683 156 618 194 493 256C486 259 489 267 494 268C505 269 533 261 588 246C609 240 609 240 620 237C668 223 749 189 773 186Z"/>
<path id="z25407d5" d="M683 399C736 389 828 383 883 383C919 382 941 380 945 373C948 365 943 356 933 349C897 324 857 321 812 334C775 344 736 354 686 363C645 370 645 370 624 373C559 383 497 397 423 411C410 413 408 419 418 429C434 445 460 450 493 441C535 428 591 414 625 409C664 402 664 402 683 399Z"/>
<path id="z25407d6" d="M477 507C467 502 452 499 441 498C436 497 432 497 430 500C425 503 427 508 433 515C458 546 475 605 487 687C489 723 507 751 530 762C543 768 547 749 546 738C544 719 544 719 543 710C540 700 514 579 510 542C507 526 492 513 477 507Z"/>
<path id="z25407d7" d="M764 715C774 730 785 737 797 743C803 745 813 744 823 731C834 715 845 662 867 576C871 555 884 539 900 523C908 515 909 507 901 499C890 488 870 473 841 459C830 454 795 459 735 468C728 469 707 472 679 476C643 481 643 481 625 483C577 489 512 502 477 507C461 510 494 545 510 542C543 534 576 527 625 520C660 515 660 515 678 512C743 502 780 496 798 511C808 520 811 530 810 540C793 633 782 678 771 685C764 692 758 707 764 715Z"/>
<path id="z25407d8" d="M675 620C701 617 731 613 755 611C769 609 774 604 769 597C762 588 751 581 737 578C723 575 698 578 675 583C641 590 641 590 624 594C597 599 580 605 555 611C545 613 544 620 558 628C573 636 596 629 623 626C658 622 658 622 675 620Z"/>
<path id="z25407d9" d="M675 725C703 721 737 717 764 715C774 715 780 690 771 685C753 673 727 676 675 687C640 694 640 694 622 698C591 704 571 705 543 710C534 712 537 738 546 738C552 739 559 737 567 737C589 734 600 733 622 731C657 727 657 727 675 725Z"/>
<path id="z25407d10" d="M622 731C622 880 622 958 636 975C644 984 654 983 660 971C671 945 675 862 675 725C675 700 675 700 675 687C675 642 675 642 675 620C675 595 675 595 675 583C675 566 677 525 678 512C679 488 679 488 679 476C679 452 681 422 683 399C685 375 685 375 686 363C688 329 694 303 701 294C706 285 700 276 688 268C670 257 648 243 620 237C609 235 595 237 588 246C581 253 583 257 592 265C617 290 623 347 624 373C625 397 625 397 625 409C625 433 625 458 625 483C625 508 625 508 625 520C625 539 624 579 624 594C623 615 623 615 623 626C621 667 622 674 622 698C622 720 622 720 622 731Z"/>
<defs>
	<clipPath id="z25407c1"><use href="#z25407d1"/></clipPath>
	<clipPath id="z25407c2"><use href="#z25407d2"/></clipPath>
	<clipPath id="z25407c3"><use href="#z25407d3"/></clipPath>
	<clipPath id="z25407c4"><use href="#z25407d4"/></clipPath>
	<clipPath id="z25407c5"><use href="#z25407d5"/></clipPath>
	<clipPath id="z25407c6"><use href="#z25407d6"/></clipPath>
	<clipPath id="z25407c7"><use href="#z25407d7"/></clipPath>
	<clipPath id="z25407c8"><use href="#z25407d8"/></clipPath>
	<clipPath id="z25407c9"><use href="#z25407d9"/></clipPath>
	<clipPath id="z25407c10"><use href="#z25407d10"/></clipPath>
<marker id="guide-arrow" viewBox="0 0 16 16" refX="5" refY="5" markerWidth="4" markerHeight="4" orient="auto-start-reverse"><path d="M 0 0 L 10 5 L 0 10 z" fill="inherit"/></marker></defs>
<path style="--d:1s;" pathLength="3333" clip-path="url(#z25407c1)" d="M113 353L393 302"/>
<path style="--d:2s;" pathLength="3333" clip-path="url(#z25407c2)" d="M258 68L316 128L310 798L281 869L163 789"/>
<path style="--d:3s;" pathLength="3333" clip-path="url(#z25407c3)" d="M58 636L111 638L376 449"/>
<path style="--d:4s;" pathLength="3333" clip-path="url(#z25407c4)" d="M697 120L734 166L498 261"/>
<path style="--d:5s;" pathLength="3333" clip-path="url(#z25407c5)" d="M422 423L835 356L942 368"/>
<path style="--d:6s;" pathLength="3333" clip-path="url(#z25407c6)" d="M434 503L485 554L535 758"/>
<path style="--d:7s;" pathLength="3333" clip-path="url(#z25407c7)" d="M483 509L767 481L838 498L857 524L790 738"/>
<path style="--d:8s;" pathLength="3333" clip-path="url(#z25407c8)" d="M558 618L761 599"/>
<path style="--d:9s;" pathLength="3333" clip-path="url(#z25407c9)" d="M550 716L766 692"/>
<path style="--d:10s;" pathLength="3333" clip-path="url(#z25407c10)" d="M591 253L662 298L648 976"/>
<g class="guides"><circle style="--d: 1s" class="g1" cx="113" cy="353" r="16"/><path style="--d: 1s;" class="g1" d="M113,449 L393,398"/><circle style="--d: 2s" class="g2" cx="258" cy="68" r="16"/><path style="--d: 2s;" class="g2" d="M162,68 Q191,120.80898876404494 189.5,415.65917602996257 Q188,710.5093632958801 180.75,741.7546816479401 Q173.5,773 144,737.7940074906367 Q144,737.7940074906367 114.5,702.5880149812734"/><circle style="--d: 3s" class="g3" cx="58" cy="636" r="16"/><path style="--d: 3s;" class="g3" d="M58,540 Q111,542 144.125,518.375 Q342.875,376.625 376,353"/><circle style="--d: 4s" class="g4" cx="697" cy="120" r="16"/><path style="--d: 4s;" class="g4" d="M601,120 Q622.9491525423729,143 605.4491525423729,148.9375 Q500.4491525423729,184.5625 482.9491525423729,190.5"/><circle style="--d: 5s" class="g5" cx="422" cy="423" r="16"/><path style="--d: 5s;" class="g5" d="M422,519 Q835,452 848.375,453.5 Q928.625,462.5 942,464"/><circle style="--d: 6s" class="g6" cx="434" cy="503" r="16"/><path style="--d: 6s;" class="g6" d="M519.68,434.456 Q570.68,485.456 576.93,510.956 Q614.43,663.956 620.68,689.456"/><circle style="--d: 7s" class="g7" cx="483" cy="509" r="16"/><path style="--d: 7s;" class="g7" d="M483,605 Q675.8770053475936,577 699.9866310160428,585.5 Q724.096256684492,594 730.548128342246,598.9688715953307 Q737,603.9377431906614 714.2486631016043,670.9688715953307 Q714.2486631016043,670.9688715953307 691.4973262032086,738"/><circle style="--d: 8s" class="g8" cx="558" cy="618" r="16"/><path style="--d: 8s;" class="g8" d="M558,714 L761,695"/><circle style="--d: 9s" class="g9" cx="550" cy="716" r="16"/><path style="--d: 9s;" class="g9" d="M550,812 L766,788"/><circle style="--d: 10s" class="g10" cx="591" cy="253" r="16"/><path style="--d: 10s;" class="g10" d="M495,253 Q566,298 564.25,382.75 Q553.75,891.25 552,976"/></g></svg>