<!--
  Stroke-order data for 掌, derived from AnimCJK (https://github.com/parsimonhi/animCJK),
  itself derived from the Arphic PL KaitiM fonts. Distributed under the Arphic Public License
  (see ARPHICPL.TXT). Regenerated by scripts/build-strokes.ts — do not edit by hand.
-->
<svg id="z25484" class="acjk" viewBox="0 0 1024 1024" xmlns="http://www.w3.org/2000/svg">
<g class="glyph"><path style="--part:1" id="z25484d1" d="M523 228C531 141 543 92 546 87C547 82 549 77 551 73C553 66 548 57 536 50C515 37 497 30 482 28C472 26 464 27 460 33C455 37 454 45 460 53C472 69 482 129 484 234C484 247 523 241 523 228Z"/><path style="--part:1" id="z25484d2" d="M327 150C350 182 368 206 388 214C395 217 404 214 411 207C416 200 418 191 417 180C415 165 408 152 398 144C372 120 347 112 325 112C322 112 320 112 318 113C314 113 312 117 313 125C313 131 319 138 327 150Z"/><path style="--part:1" id="z25484d3" d="M664 89C657 96 634 118 596 156C588 163 591 169 601 169C605 169 721 123 737 119C751 115 756 107 751 96C745 82 734 72 721 61C708 50 698 46 690 46C682 46 679 48 680 58C680 67 673 78 664 89Z"/><path style="--part:1" id="z25484d4" d="M242 267C242 252 233 240 217 229C204 220 196 224 197 241C197 261 192 286 171 314C146 345 132 366 135 380C138 402 144 418 151 429C161 445 173 445 186 427C188 423 206 376 242 287C244 281 242 274 242 267Z"/><path style="--part:1" id="z25484d5" d="M242 287C262 303 286 308 314 300C408 272 535 250 695 234C729 230 752 227 765 232C776 236 781 243 781 249C780 251 779 258 775 267C750 314 739 339 745 343C748 346 757 343 769 336C805 311 839 295 870 286C894 278 907 271 907 265C906 257 880 238 835 201C807 179 774 188 703 202C694 203 634 210 523 228C497 232 497 232 484 234C447 239 269 261 242 267C235 268 237 283 242 287Z"/><path style="--part:1" id="z25484d6" d="M402 321C395 317 382 314 362 313C354 312 350 313 348 316C345 319 346 325 352 335C365 356 378 386 390 424C392 434 397 442 405 451C415 461 423 464 426 455C426 453 427 451 427 449C426 439 426 429 426 419C425 407 416 363 414 349C412 339 411 325 402 321Z"/><path style="--part:1" id="z25484d7" d="M627 391C643 363 659 347 671 339C682 330 682 317 673 308C664 299 644 287 615 273C603 267 578 276 534 291C507 299 444 313 402 321C392 323 404 351 414 349C467 339 580 310 589 317C599 326 592 347 580 387C575 402 618 404 627 391Z"/><path style="--part:1" id="z25484d8" d="M427 449C449 447 552 431 640 424C646 423 650 420 651 415C651 410 643 402 627 391C614 382 595 384 580 387C523 401 472 411 426 419C416 421 417 451 427 449Z"/><path style="--part:2" id="z25484d9" d="M514 527C533 521 573 511 602 505C611 503 618 504 620 500C622 494 621 487 615 481C604 470 585 460 563 448C553 443 546 440 539 441C534 441 532 445 531 452C527 476 465 505 350 550C344 552 344 558 349 560C354 562 445 547 481 537C503 530 503 530 514 527Z"/><path style="--part:2" id="z25484d10" d="M560 621C580 617 602 613 626 610C660 604 681 598 686 594C691 589 692 583 690 579C686 571 675 565 658 560C638 554 605 564 557 576C520 585 520 585 501 589C470 596 380 606 326 611C303 612 299 620 315 631C340 648 370 651 404 645C436 639 471 634 508 629C543 624 543 624 560 621Z"/><path style="--part:2" id="z25484d11" d="M567 726C617 722 712 720 850 720C862 720 871 717 875 712C879 704 874 694 864 686C828 659 799 650 774 655C719 666 649 676 565 690C531 695 531 695 514 698C478 703 282 725 161 738C146 739 144 744 155 757C163 765 173 773 187 777C199 780 213 780 224 778C328 750 458 734 516 730C550 727 550 727 567 726Z"/><path style="--part:2" id="z25484d12" d="M516 730C520 796 510 840 500 861C498 863 497 865 494 867C486 869 450 868 388 864C382 863 379 864 378 867C376 869 379 873 386 879C428 909 461 936 485 963C492 970 499 973 504 972C509 970 517 966 529 956C554 933 568 896 568 842C568 815 569 776 567 726C566 714 565 702 565 690C563 656 560 633 560 621C559 606 558 591 557 576C555 559 553 548 545 543C534 536 524 531 514 527C503 523 475 527 481 537C489 549 496 565 501 589C503 602 505 615 508 629C511 649 512 672 514 698C514 708 515 719 516 730Z"/></g>
<defs><clipPath id="z25484c1"><use href="#z25484d1"/></clipPath>
	<clipPath id="z25484c2"><use href="#z25484d2"/></clipPath>
	<clipPath id="z25484c3"><use href="#z25484d3"/></clipPath>
	<clipPath id="z25484c4"><use href="#z25484d4"/></clipPath>
	<clipPath id="z25484c5"><use href="#z25484d5"/></clipPath>
	<clipPath id="z25484c6"><use href="#z25484d6"/></clipPath>
	<clipPath id="z25484c7"><use href="#z25484d7"/></clipPath>
	<clipPath id="z25484c8"><use href="#z25484d8"/></clipPath>
	<clipPath id="z25484c9"><use href="#z25484d9"/></clipPath>
	<clipPath id="z25484c10"><use href="#z25484d10"/></clipPath>
	<clipPath id="z25484c11"><use href="#z25484d11"/></clipPath>
	<clipPath id="z25484c12"><use href="#z25484d12"/></clipPath><marker id="guide-arrow" viewBox="0 0 16 16" refX="5" refY="5" markerWidth="4" markerHeight="4" orient="auto-start-reverse"><path d="M 0 0 L 10 5 L 0 10 z" fill="inherit"/></marker></defs>
<g class="strokes"><path style="--part:1" pathLength="3333" clip-path="url(#z25484c1)" d="M463 35L512 80L495 231"/><path style="--part:1" pathLength="3333" clip-path="url(#z25484c2)" d="M321 121L405 209"/><path style="--part:1" pathLength="3333" clip-path="url(#z25484c3)" d="M690 48L708 98L597 162"/><path style="--part:1" pathLength="3333" clip-path="url(#z25484c4)" d="M206 233L217 281L162 434"/><path style="--part:1" pathLength="3333" clip-path="url(#z25484c5)" d="M248 274L771 212L814 228L851 267L751 337"/><path style="--part:1" pathLength="3333" clip-path="url(#z25484c6)" d="M355 322L383 340L415 456"/><path style="--part:1" pathLength="3333" clip-path="url(#z25484c7)" d="M411 323L598 294L635 331L592 386"/><path style="--part:1" pathLength="3333" clip-path="url(#z25484c8)" d="M437 441L645 410"/><path style="--part:2" pathLength="3333" clip-path="url(#z25484c9)" d="M540 451L571 486L353 554"/><path style="--part:2" pathLength="3333" clip-path="url(#z25484c10)" d="M314 619L383 627L683 579"/><path style="--part:2" pathLength="3333" clip-path="url(#z25484c11)" d="M155 745L221 755L772 687L870 699"/><path style="--part:2" pathLength="3333" clip-path="url(#z25484c12)" d="M488 540L526 567L531 599L530 882L492 920L387 871"/></g>
<g class="guides"><text class="g1" style="--gs:1" x="463" y="35">①</text><path class="g1 aligned" style="--gs:1" d="M463,35 Q512,80 509.88,98.88 Q497.13,212.13 495,231"/><path class="g1 offset" style="--gs:1" d="M367,35 Q416,80 413.88,98.88 Q401.13,212.13 399,231"/><text class="g2" style="--gs:2" x="321" y="121">②</text><path class="g2 aligned" style="--gs:2" d="M321,121 L405,209"/><path class="g2 offset" style="--gs:2" d="M406.68,52.46 L490.68,140.46"/><text class="g3" style="--gs:3" x="690" y="48">③</text><path class="g3 aligned" style="--gs:3" d="M690,48 Q708,98 694.13,106 Q610.88,154 597,162"/><path class="g3 offset" style="--gs:3" d="M594,48 Q603,73 596.06,77 Q554.44,101 547.5,105"/><text class="g4" style="--gs:4" x="206" y="233">④</text><path class="g4 aligned" style="--gs:4" d="M206,233 Q217,281 210.13,300.13 Q168.88,414.88 162,434"/><path class="g4 offset" style="--gs:4" d="M326,233 Q337,281 330.13,300.13 Q288.88,414.88 282,434"/><text class="g5" style="--gs:5" x="248" y="274">⑤</text><path class="g5 aligned" style="--gs:5" d="M248,274 Q771,212 792.5,220 Q814,228 832.5,247.5 Q851,267 801,302 Q801,302 751,337"/><path class="g5 offset" style="--gs:5" d="M248,370 Q642.64,308 658.86,316 Q675.08,324 689.04,343.5 Q703,363 665.27,398 Q665.27,398 627.54,433"/><text class="g6" style="--gs:6" x="355" y="322">⑥</text><path class="g6 aligned" style="--gs:6" d="M369,331 L415,456"/><path class="g6 offset" style="--gs:6" d="M489,331 L535,456"/><text class="g7" style="--gs:7" x="411" y="323">⑦</text><path class="g7 aligned" style="--gs:7" d="M411,323 Q598,294 607.25,303.25 Q635,331 624.25,344.75 Q602.75,372.25 592,386"/><path class="g7 offset" style="--gs:7" d="M411,419 Q522.03,390 527.52,399.25 Q544,427 537.62,440.75 Q524.85,468.25 518.47,482"/><text class="g8" style="--gs:8" x="437" y="441">⑧</text><path class="g8 aligned" style="--gs:8" d="M437,441 L645,410"/><path class="g8 offset" style="--gs:8" d="M437,537 L645,506"/><text class="g9" style="--gs:9" x="540" y="451">⑨</text><path class="g9 aligned" style="--gs:9" d="M540,451 Q571,486 543.75,494.5 Q380.25,545.5 353,554"/><path class="g9 offset" style="--gs:9" d="M444,451 Q461.35,468.5 446.1,472.75 Q354.6,498.25 339.35,502.5"/><text class="g10" style="--gs:10" x="314" y="619">⑩</text><path class="g10 aligned" style="--gs:10" d="M314,619 Q383,627 420.5,621 Q645.5,585 683,579"/><path class="g10 offset" style="--gs:10" d="M314,715 Q383,723 420.5,717 Q645.5,681 683,675"/><text class="g11" style="--gs:11" x="155" y="745">⑪</text><path class="g11 aligned" style="--gs:11" d="M155,745 Q221,755 358.75,738 Q772,687 796.5,690 Q845.5,696 870,699"/><path class="g11 offset" style="--gs:11" d="M155,841 Q221,851 358.75,834 Q772,783 796.5,786 Q845.5,792 870,795"/><text class="g12" style="--gs:12" x="488" y="540">⑫</text><path class="g12 aligned" style="--gs:12" d="M488,540 Q526,567 528.5,583 Q531,599 530.5,740.5 Q530,882 511,901 Q492,920 439.5,895.5 Q439.5,895.5 387,871"/><path class="g12 offset" style="--gs:12" d="M392,540 Q411,560.18 412.25,572.14 Q413.5,584.09 413.25,689.85 Q413,795.6 403.5,809.8 Q394,824 367.75,805.69 Q367.75,805.69 341.5,787.38"/></g>
<g class="parts"><rect data-part="2" data-literal="手" data-radical="true" role="button" tabindex="0" aria-label="Part 手 (radical)" x="83" y="379" width="859" height="613"/><rect data-part="1" data-literal="尚" role="button" tabindex="0" aria-label="Part 尚" x="90" y="0" width="833" height="528"/></g>
</svg>
