<svg id="z25496" class="acjk" viewBox="0 0 1024 1024" xmlns="http://www.w3.org/2000/svg">
<style>

@keyframes zk {
	to {
		stroke-dashoffset:0;
	}
}
svg.acjk path[clip-path] {
	--t:0.8s;
	animation:zk var(--t) linear forwards var(--d);
	stroke-dasharray:3337;
	stroke-dashoffset:3339;
	stroke-width:128;
	stroke-linecap:round;
	fill:none;
	stroke:#000;
}
svg.acjk path[id] {fill:#ccc;}


    @keyframes guide-fade {
        0% { opacity: 0; }
        3% { opacity: 1; }
        95% { opacity: 1; }
        100% { opacity: 0; }
    }

    svg.acjk #guide-arrow {
        fill: #f77;
    }

    svg.acjk .guides {
        circle {
            fill: #0f6;
        }

        path {
            opacity: 0;
            animation: guide-fade var(--t) linear forwards var(--d);
            stroke-width: 16px;
            stroke-linecap: round;
            stroke: #f77;
            fill: none;
            marker-end: url(#guide-arrow);
        }

        circle,
        path {
            --t: 0.8s;
            opacity: 0;
            animation: guide-fade calc(var(--t) + 0.4s) ease-in-out forwards calc(var(--d) - 0.2s);
        }
    }
</style>
<path id="z25496d1" d="M325 347Q410 319 413 317Q422 308 416 300Q409 288 378 283Q353 279 328 289C295 303 295 303 279 310Q171 340 143 345Q106 355 134 369Q176 387 253 366Q263 363 278 360C309 351 309 351 325 347Z"/>
<path id="z25496d2" d="M325 788Q326 769 326 746Q320 631 321 516C321 494 321 494 321 483Q321 414 325 347C327 308 327 308 328 289Q328 214 348 150Q364 122 312 99Q281 80 262 87Q244 93 259 115Q280 140 280 174Q281 189 279 310C278 343 278 343 278 360Q277 424 273 514C272 543 272 543 272 557Q271 639 268 742Q267 764 255 773Q249 777 176 764Q145 754 147 763Q148 770 168 784Q232 832 248 859Q267 890 283 892Q296 893 310 860Q319 838 323 807C324 794 324 794 325 788Z"/>
<path id="z25496d3" d="M321 516Q339 500 357 487Q376 474 385 460Q391 447 380 448Q368 451 321 483C289 504 289 504 273 514Q84 631 74 636Q59 643 58 651Q57 660 72 673Q91 686 113 694Q129 697 138 685Q193 625 272 557C305 530 305 530 321 516Z"/>
<path id="z25496d4" d="M788 283Q815 223 845 201Q861 183 848 166Q776 108 723 134Q648 161 535 180C523 182 544 211 556 209Q568 208 583 204Q658 189 728 175Q747 171 754 178Q761 185 759 200Q749 246 735 282C728 298 781 299 788 283Z"/>
<path id="z25496d5" d="M534 354Q546 360 563 356Q639 337 804 319Q814 318 816 309Q816 300 788 283C773 274 752 279 735 282Q626 310 537 325C527 327 525 350 534 354Z"/>
<path id="z25496d6" d="M535 180Q493 153 478 159Q466 166 473 179Q488 204 488 276Q487 283 487 293Q478 452 438 572Q402 669 326 787Q325 787 325 788C321 793 318 811 323 807Q360 782 378 759Q502 624 534 354C536 335 536 335 537 325Q537 321 538 319Q547 232 556 209C560 198 545 187 535 180Z"/>
<path id="z25496d7" d="M708 772Q712 675 717 584C718 563 718 563 718 552Q721 483 737 414Q740 404 721 390Q687 372 665 369Q649 366 642 374Q635 381 643 395Q665 429 667 452Q670 504 671 562C672 585 672 585 672 596Q672 681 669 779C669 792 708 785 708 772Z"/>
<path id="z25496d8" d="M717 584Q726 580 739 578Q788 566 811 567C821 567 821 535 811 537Q762 543 718 552C687 559 687 559 671 562Q629 569 595 582Q580 585 585 568Q597 505 591 492Q579 477 560 465Q551 461 543 461Q534 464 539 480Q552 516 545 549Q539 582 525 595Q509 608 515 621Q525 634 538 643Q548 649 557 643Q579 619 672 596C702 588 702 588 717 584Z"/>
<path id="z25496d9" d="M811 567Q814 589 821 604Q828 619 840 609Q861 590 870 513Q882 480 889 472Q896 459 888 447Q872 432 843 414Q833 407 821 412Q814 415 816 427Q822 433 828 479Q825 512 811 537C806 546 809 557 811 567Z"/>
<path id="z25496d10" d="M846 753Q773 759 708 772C682 777 682 777 669 779Q615 786 568 801Q553 802 558 785Q576 722 568 707Q555 689 535 675Q525 668 516 669Q506 672 511 690Q523 729 513 764Q506 798 490 812Q472 827 478 840Q488 855 502 866Q515 873 524 867Q557 834 744 799Q826 783 844 790C856 792 858 753 846 753Z"/>
<path id="z25496d11" d="M844 790Q838 802 844 820Q853 845 864 860Q874 872 882 861Q900 837 891 766Q894 703 899 690Q903 677 893 667Q874 657 845 645Q833 641 824 647Q818 651 822 662Q834 674 846 744Q846 747 846 753C846 765 849 779 844 790Z"/>
<defs>
	<clipPath id="z25496c1"><use href="#z25496d1"/></clipPath>
	<clipPath id="z25496c2"><use href="#z25496d2"/></clipPath>
	<clipPath id="z25496c3"><use href="#z25496d3"/></clipPath>
	<clipPath id="z25496c4"><use href="#z25496d4"/></clipPath>
	<clipPath id="z25496c5"><use href="#z25496d5"/></clipPath>
	<clipPath id="z25496c6"><use href="#z25496d6"/></clipPath>
	<clipPath id="z25496c7"><use href="#z25496d7"/></clipPath>
	<clipPath id="z25496c8"><use href="#z25496d8"/></clipPath>
	<clipPath id="z25496c9"><use href="#z25496d9"/></clipPath>
	<clipPath id="z25496c10"><use href="#z25496d10"/></clipPath>
	<clipPath id="z25496c11"><use href="#z25496d11"/></clipPath>
<marker id="guide-arrow" viewBox="0 0 16 16" refX="5" refY="5" markerWidth="4" markerHeight="4" orient="auto-start-reverse"><path d="M 0 0 L 10 5 L 0 10 z" fill="inherit"/></marker></defs>
<path style="--d:1s;" pathLength="3333" clip-path="url(#z25496c1)" d="M131 358L413 300"/>
<path style="--d:2s;" pathLength="3333" clip-path="url(#z25496c2)" d="M260 96L315 145L293 780L265 841L154 764"/>
<path style="--d:3s;" pathLength="3333" clip-path="url(#z25496c3)" d="M63 651L120 653L379 453"/>
<path style="--d:4s;" pathLength="3333" clip-path="url(#z25496c4)" d="M545 183L774 155L806 191L745 278"/>
<path style="--d:5s;" pathLength="3333" clip-path="url(#z25496c5)" d="M541 348L738 304L810 308"/>
<path style="--d:6s;" pathLength="3333" clip-path="url(#z25496c6)" d="M481 164L520 219L487 484L429 649L329 799"/>
<path style="--d:7s;" pathLength="3333" clip-path="url(#z25496c7)" d="M647 380L700 423L678 774"/>
<path style="--d:8s;" pathLength="3333" clip-path="url(#z25496c8)" d="M545 465L570 516L549 597L572 614L809 554"/>
<path style="--d:9s;" pathLength="3333" clip-path="url(#z25496c9)" d="M825 415L859 461L834 608"/>
<path style="--d:10s;" pathLength="3333" clip-path="url(#z25496c10)" d="M517 678L543 720L524 817L542 835L845 768"/>
<path style="--d:11s;" pathLength="3333" clip-path="url(#z25496c11)" d="M829 654L868 690L871 861"/>
<g class="guides"><circle style="--d: 1s" class="g1" cx="131" cy="358" r="16"/><path style="--d: 1s;" class="g1" d="M131,454 L413,396"/><circle style="--d: 2s" class="g2" cx="260" cy="96" r="16"/><path style="--d: 2s;" class="g2" d="M164,96 Q191.5,138.68590604026846 186,415.2731543624161 Q180.5,691.8604026845637 173.5,718.4302013422819 Q166.5,745 138.75,711.4610738255034 Q138.75,711.4610738255034 111,677.9221476510068"/><circle style="--d: 3s" class="g3" cx="63" cy="651" r="16"/><path style="--d: 3s;" class="g3" d="M63,555 Q120,557 152.375,532 Q346.625,382 379,357"/><circle style="--d: 4s" class="g4" cx="545" cy="183" r="16"/><path style="--d: 4s;" class="g4" d="M545,279 Q678.3639846743295,251 683.0229885057471,260 Q697,287 688.1187739463602,308.75 Q670.3563218390805,352.25 661.4750957854407,374"/><circle style="--d: 5s" class="g5" cx="541" cy="348" r="16"/><path style="--d: 5s;" class="g5" d="M541,444 Q738,400 747,400.5 Q801,403.5 810,404"/><circle style="--d: 6s" class="g6" cx="481" cy="164" r="16"/><path style="--d: 6s;" class="g6" d="M385,164 Q404.5,210.68503937007875 396.25,323.1535433070866 Q388,435.62204724409446 373.5,505.64960629921256 Q359,575.6771653543307 334,639.3385826771653 Q334,639.3385826771653 309,703"/><circle style="--d: 7s" class="g7" cx="647" cy="380" r="16"/><path style="--d: 7s;" class="g7" d="M551,380 Q604,423 601.25,466.875 Q584.75,730.125 582,774"/><circle style="--d: 8s" class="g8" cx="545" cy="465" r="16"/><path style="--d: 8s;" class="g8" d="M665,465 Q678.6363636363636,490.5 672.9090909090909,510.75 Q667.1818181818181,531 673.4545454545455,535.25 Q679.7272727272727,539.5 744.3636363636364,524.5 Q744.3636363636364,524.5 809,509.5"/><circle style="--d: 9s" class="g9" cx="825" cy="415" r="16"/><path style="--d: 9s;" class="g9" d="M729,415 Q763,461 759.875,479.375 Q741.125,589.625 738,608"/><circle style="--d: 10s" class="g10" cx="517" cy="678" r="16"/><path style="--d: 10s;" class="g10" d="M602.68,609.456 Q621.8882926829268,644.1110828025478 614.8698780487805,684.1294522292994 Q607.851463414634,724.147821656051 614.500487804878,731.5739108280254 Q621.1495121951219,739 733.074756097561,711.3584458598726 Q733.074756097561,711.3584458598726 845,683.7168917197453"/><circle style="--d: 11s" class="g11" cx="829" cy="654" r="16"/><path style="--d: 11s;" class="g11" d="M914.68,585.456 Q953.68,621.456 954.055,642.831 Q956.305,771.081 956.68,792.456"/></g></svg>