<svg id="z25504" class="acjk" viewBox="0 0 1024 1024" xmlns="http://www.w3.org/2000/svg">
<style>

@keyframes zk {
	to {
		stroke-dashoffset:0;
	}
}
svg.acjk path[clip-path] {
	--t:0.8s;
	animation:zk var(--t) linear forwards var(--d);
	stroke-dasharray:3337;
	stroke-dashoffset:3339;
	stroke-width:128;
	stroke-linecap:round;
	fill:none;
	stroke:#000;
}
svg.acjk path[id] {fill:#ccc;}


    @keyframes guide-fade {
        0% { opacity: 0; }
        3% { opacity: 1; }
        95% { opacity: 1; }
        100% { opacity: 0; }
    }

    svg.acjk #guide-arrow {
        fill: #f77;
    }

    svg.acjk .guides {
        circle {
            fill: #0f6;
        }

        path {
            opacity: 0;
            animation: guide-fade var(--t) linear forwards var(--d);
            stroke-width: 16px;
            stroke-linecap: round;
            stroke: #f77;
            fill: none;
            marker-end: url(#guide-arrow);
        }

        circle,
        path {
            --t: 0.8s;
            opacity: 0;
            animation: guide-fade calc(var(--t) + 0.4s) ease-in-out forwards calc(var(--d) - 0.2s);
        }
    }
</style>
<path id="z25504d1" d="M350 358Q363 354 377 351Q411 342 416 337Q425 328 420 320Q413 308 382 302Q366 299 352 302C319 312 319 312 302 317Q227 341 141 354Q104 361 131 378Q182 400 231 385Q264 378 301 369C334 362 334 362 350 358Z"/>
<path id="z25504d2" d="M295 568Q294 656 291 770Q290 794 277 803Q274 806 205 797Q172 785 175 795Q176 802 196 817Q257 866 273 893Q291 926 306 927Q321 928 335 893Q353 848 352 775Q346 651 346 528C346 507 346 507 346 497Q346 427 350 358C351 321 351 321 352 302Q353 292 354 281Q360 193 374 148Q390 118 336 95Q303 76 283 82Q265 89 281 112Q302 139 303 173Q304 189 302 317C301 352 301 352 301 369Q300 435 296 526C295 554 295 554 295 568Z"/>
<path id="z25504d3" d="M296 526Q199 581 115 635Q79 657 55 665Q42 671 39 680Q39 690 54 704Q75 720 99 728Q117 732 127 719Q193 647 295 568C329 541 329 541 346 528Q394 488 396 485Q403 472 392 472Q382 472 346 497C313 516 313 516 296 526Z"/>
<path id="z25504d4" d="M617 143Q645 167 677 195Q693 210 711 208Q723 207 728 192Q732 174 721 141Q709 110 609 89Q591 85 584 89Q578 93 581 108Q585 121 617 143Z"/>
<path id="z25504d5" d="M459 302Q438 305 455 321Q485 348 531 333Q688 281 892 280C893 280 893 280 894 280Q913 279 917 270Q921 258 905 246Q847 209 792 229Q701 253 459 302Z"/>
<path id="z25504d6" d="M527 428Q514 424 488 420Q476 417 473 422Q466 429 476 444Q501 490 518 564Q522 586 536 601Q554 623 559 607Q560 603 561 597C560 576 560 576 560 565Q556 552 544 459C542 447 539 430 527 428Z"/>
<path id="z25504d7" d="M769 534Q794 465 823 447Q839 429 825 412Q809 399 758 374Q740 367 719 375Q659 402 527 428C515 430 532 461 544 459Q556 455 704 424Q723 420 731 426Q738 433 736 449Q727 495 716 534C713 551 762 550 769 534Z"/>
<path id="z25504d8" d="M661 582Q713 575 785 568Q795 567 796 559Q796 552 769 534C754 525 733 531 716 534Q628 555 560 565C549 567 550 597 561 597Q570 598 580 596Q596 592 621 589C648 584 648 584 661 582Z"/>
<path id="z25504d9" d="M621 589Q640 644 632 804Q629 825 626 834Q623 847 598 843Q570 836 540 830Q528 829 527 835Q526 842 536 851Q602 906 624 938Q639 951 650 949Q662 945 674 911Q692 877 689 814Q688 700 690 660Q697 618 679 597Q669 588 661 582C650 574 616 576 621 589Z"/>
<path id="z25504d10" d="M493 674Q466 722 432 763Q408 790 423 823Q427 841 448 831Q499 801 510 729Q517 701 514 676Q510 669 505 667Q498 667 493 674Z"/>
<path id="z25504d11" d="M755 678Q801 727 856 801Q872 823 887 829Q897 830 905 821Q920 808 910 761Q904 718 832 680Q786 656 759 645Q750 638 747 652Q746 665 755 678Z"/>
<defs>
	<clipPath id="z25504c1"><use href="#z25504d1"/></clipPath>
	<clipPath id="z25504c2"><use href="#z25504d2"/></clipPath>
	<clipPath id="z25504c3"><use href="#z25504d3"/></clipPath>
	<clipPath id="z25504c4"><use href="#z25504d4"/></clipPath>
	<clipPath id="z25504c5"><use href="#z25504d5"/></clipPath>
	<clipPath id="z25504c6"><use href="#z25504d6"/></clipPath>
	<clipPath id="z25504c7"><use href="#z25504d7"/></clipPath>
	<clipPath id="z25504c8"><use href="#z25504d8"/></clipPath>
	<clipPath id="z25504c9"><use href="#z25504d9"/></clipPath>
	<clipPath id="z25504c10"><use href="#z25504d10"/></clipPath>
	<clipPath id="z25504c11"><use href="#z25504d11"/></clipPath>
<marker id="guide-arrow" viewBox="0 0 16 16" refX="5" refY="5" markerWidth="4" markerHeight="4" orient="auto-start-reverse"><path d="M 0 0 L 10 5 L 0 10 z" fill="inherit"/></marker></defs>
<path style="--d:1s;" pathLength="3333" clip-path="url(#z25504c1)" d="M129 366L415 324"/>
<path style="--d:2s;" pathLength="3333" clip-path="url(#z25504c2)" d="M281 88L338 139L320 796L293 874L182 795"/>
<path style="--d:3s;" pathLength="3333" clip-path="url(#z25504c3)" d="M46 679L106 686L391 479"/>
<path style="--d:4s;" pathLength="3333" clip-path="url(#z25504c4)" d="M588 98L678 147L719 200"/>
<path style="--d:5s;" pathLength="3333" clip-path="url(#z25504c5)" d="M457 311L810 253L913 261"/>
<path style="--d:6s;" pathLength="3333" clip-path="url(#z25504c6)" d="M478 428L519 470L550 608"/>
<path style="--d:7s;" pathLength="3333" clip-path="url(#z25504c7)" d="M535 432L752 404L783 440L744 526L724 527"/>
<path style="--d:8s;" pathLength="3333" clip-path="url(#z25504c8)" d="M565 589L791 557"/>
<path style="--d:9s;" pathLength="3333" clip-path="url(#z25504c9)" d="M628 592L660 628L652 862L624 897L534 838"/>
<path style="--d:10s;" pathLength="3333" clip-path="url(#z25504c10)" d="M504 674L431 829"/>
<path style="--d:11s;" pathLength="3333" clip-path="url(#z25504c11)" d="M754 650L852 735L896 822"/>
<g class="guides"><circle style="--d: 1s" class="g1" cx="129" cy="366" r="16"/><path style="--d: 1s;" class="g1" d="M129,462 L415,420"/><circle style="--d: 2s" class="g2" cx="281" cy="88" r="16"/><path style="--d: 2s;" class="g2" d="M185,88 Q213.5,132.7709923664122 209,421.14885496183206 Q204.5,709.5267175572519 197.75,743.763358778626 Q191,778 163.25,743.324427480916 Q163.25,743.324427480916 135.5,708.6488549618321"/><circle style="--d: 3s" class="g3" cx="46" cy="679" r="16"/><path style="--d: 3s;" class="g3" d="M46,583 Q106,590 141.625,564.125 Q355.375,408.875 391,383"/><circle style="--d: 4s" class="g4" cx="588" cy="98" r="16"/><path style="--d: 4s;" class="g4" d="M673.68,29.456000000000003 Q763.68,78.456 768.805,85.081 Q799.555,124.83100000000002 804.68,131.45600000000002"/><circle style="--d: 5s" class="g5" cx="457" cy="311" r="16"/><path style="--d: 5s;" class="g5" d="M457,407 Q810,349 822.875,350 Q900.125,356 913,357"/><circle style="--d: 6s" class="g6" cx="478" cy="428" r="16"/><path style="--d: 6s;" class="g6" d="M563.68,359.456 Q604.68,401.456 608.555,418.706 Q631.805,522.206 635.68,539.456"/><circle style="--d: 7s" class="g7" cx="535" cy="432" r="16"/><path style="--d: 7s;" class="g7" d="M535,528 Q647,500 651,504.5 Q663,518 656.6774193548388,528.875 Q644.0322580645161,550.625 637.7096774193549,561.5"/><circle style="--d: 8s" class="g8" cx="565" cy="589" r="16"/><path style="--d: 8s;" class="g8" d="M565,685 L791,653"/><circle style="--d: 9s" class="g9" cx="628" cy="592" r="16"/><path style="--d: 9s;" class="g9" d="M532,592 Q548,616.6688524590164 546,696.8426229508198 Q544,777.016393442623 537,789.0081967213115 Q530,801 507.5,780.7852459016393 Q507.5,780.7852459016393 485,760.5704918032786"/><circle style="--d: 10s" class="g10" cx="504" cy="674" r="16"/><path style="--d: 10s;" class="g10" d="M624,674 L551,829"/><circle style="--d: 11s" class="g11" cx="754" cy="650" r="16"/><path style="--d: 11s;" class="g11" d="M839.68,581.456 Q937.68,666.456 943.18,677.331 Q976.18,742.581 981.68,753.456"/></g></svg>