<!--
  Stroke-order data for 推, derived from AnimCJK (https://github.com/parsimonhi/animCJK),
  itself derived from the Arphic PL KaitiM fonts. Distributed under the Arphic Public License
  (see ARPHICPL.TXT). Regenerated by scripts/build-strokes.ts — do not edit by hand.
-->
<svg id="z25512" class="acjk" viewBox="0 0 1024 1024" xmlns="http://www.w3.org/2000/svg">
<g class="glyph"><path style="--part:1" id="z25512d1" d="M330 361Q351 354 375 348Q405 338 410 333Q417 324 412 316Q405 304 374 300Q352 297 332 304C301 317 301 317 285 324Q203 351 150 361Q113 371 142 385Q185 404 259 381Q271 377 285 374C315 365 315 365 330 361Z"/><path style="--part:1" id="z25512d2" d="M282 566Q281 653 279 761Q278 786 264 795Q258 798 200 786Q169 773 171 783Q172 790 190 805Q247 854 260 882Q276 913 290 916Q305 917 319 884Q337 841 337 769Q330 649 329 531C328 511 328 511 328 501Q328 431 330 361C331 323 331 323 332 304Q338 159 353 113Q369 85 316 63Q285 45 265 51Q249 58 264 80Q283 105 285 138Q286 157 285 324C285 357 285 357 285 374Q284 440 282 526C282 553 282 553 282 566Z"/><path style="--part:1" id="z25512d3" d="M282 526Q200 569 129 612Q96 631 74 637Q61 641 60 650Q59 659 72 672Q91 687 112 695Q128 699 138 688Q187 637 282 566C313 543 313 543 329 531Q344 519 360 509Q379 497 388 484Q395 471 384 472Q365 473 328 501C297 518 297 518 282 526Z"/><path style="--part:2" id="z25512d4" d="M487 344Q559 245 601 168Q620 128 637 108Q646 98 640 85Q636 73 606 53Q579 37 561 39Q543 42 553 62Q566 87 559 109Q535 185 496 256Q459 326 404 402Q395 412 394 419Q391 429 404 426Q413 423 463 374C479 354 479 354 487 344Z"/><path style="--part:2" id="z25512d5" d="M539 743Q533 497 542 435Q549 407 539 396Q521 374 507 360Q498 350 487 344C476 337 459 362 463 374Q467 389 476 401Q494 437 499 536Q499 710 469 841Q454 890 491 938Q492 941 496 944Q515 960 527 932Q545 881 540 774C539 753 539 753 539 743Z"/><path style="--part:2" id="z25512d6" d="M677 185Q704 207 732 234Q745 244 759 244Q769 244 773 231Q777 218 768 191Q759 163 672 142Q657 138 652 141Q648 145 649 157Q653 167 677 185Z"/><path style="--part:2" id="z25512d7" d="M722 348Q771 335 825 324Q862 315 867 310Q876 303 871 295Q864 285 838 278Q811 274 732 302Q642 323 588 330Q554 336 579 351Q609 367 683 356C709 351 709 351 722 348Z"/><path style="--part:2" id="z25512d8" d="M741 713Q742 655 744 604C745 575 745 575 745 560Q746 518 748 480C749 452 749 452 749 438Q749 423 752 397Q758 379 750 370Q735 357 722 348C711 340 679 343 683 356Q695 387 701 453C701 477 701 477 701 489Q701 522 700 573C700 600 700 600 700 613Q700 659 700 720C700 734 741 727 741 713Z"/><path style="--part:2" id="z25512d9" d="M748 480Q790 471 831 465Q853 461 845 448Q835 433 809 429Q787 428 749 438C717 448 717 448 701 453Q650 466 607 479Q591 483 611 497Q617 501 701 489C732 483 732 483 748 480Z"/><path style="--part:2" id="z25512d10" d="M744 604Q793 594 838 586Q863 582 853 568Q841 553 815 549Q790 546 747 559Q746 559 745 560C715 569 715 569 700 573Q646 588 599 602Q581 606 604 621Q616 630 639 625Q669 618 700 613C729 607 729 607 744 604Z"/><path style="--part:2" id="z25512d11" d="M700 720Q625 730 539 743C529 745 530 770 540 774Q568 783 584 779Q695 748 925 747Q943 747 947 739Q951 729 937 717Q886 677 830 696Q791 702 741 713C714 718 714 718 700 720Z"/></g>
<defs><clipPath id="z25512c1"><use href="#z25512d1"/></clipPath>
	<clipPath id="z25512c2"><use href="#z25512d2"/></clipPath>
	<clipPath id="z25512c3"><use href="#z25512d3"/></clipPath>
	<clipPath id="z25512c4"><use href="#z25512d4"/></clipPath>
	<clipPath id="z25512c5"><use href="#z25512d5"/></clipPath>
	<clipPath id="z25512c6"><use href="#z25512d6"/></clipPath>
	<clipPath id="z25512c7"><use href="#z25512d7"/></clipPath>
	<clipPath id="z25512c8"><use href="#z25512d8"/></clipPath>
	<clipPath id="z25512c9"><use href="#z25512d9"/></clipPath>
	<clipPath id="z25512c10"><use href="#z25512d10"/></clipPath>
	<clipPath id="z25512c11"><use href="#z25512d11"/></clipPath><marker id="guide-arrow" viewBox="0 0 16 16" refX="5" refY="5" markerWidth="4" markerHeight="4" orient="auto-start-reverse"><path d="M 0 0 L 10 5 L 0 10 z" fill="inherit"/></marker></defs>
<g class="strokes"><path style="--part:1" pathLength="3333" clip-path="url(#z25512c1)" d="M136 372L409 318"/><path style="--part:1" pathLength="3333" clip-path="url(#z25512c2)" d="M263 57L319 112L307 778L276 862L179 784"/><path style="--part:1" pathLength="3333" clip-path="url(#z25512c3)" d="M65 648L120 658L384 479"/><path style="--part:2" pathLength="3333" clip-path="url(#z25512c4)" d="M556 49L601 100L511 273L401 419"/><path style="--part:2" pathLength="3333" clip-path="url(#z25512c5)" d="M486 352L516 446L507 945"/><path style="--part:2" pathLength="3333" clip-path="url(#z25512c6)" d="M657 147L769 234"/><path style="--part:2" pathLength="3333" clip-path="url(#z25512c7)" d="M578 339L866 301"/><path style="--part:2" pathLength="3333" clip-path="url(#z25512c8)" d="M689 357L724 389L714 717"/><path style="--part:2" pathLength="3333" clip-path="url(#z25512c9)" d="M607 487L840 455"/><path style="--part:2" pathLength="3333" clip-path="url(#z25512c10)" d="M599 609L848 571"/><path style="--part:2" pathLength="3333" clip-path="url(#z25512c11)" d="M546 746L591 757L849 719L943 732"/></g>
<g class="guides"><text class="g1" style="--gs:1" x="136" y="372">①</text><path class="g1 aligned" style="--gs:1" d="M136,372 L409,318"/><path class="g1 offset" style="--gs:1" d="M136,468 L409,414"/><text class="g2" style="--gs:2" x="263" y="57">②</text><path class="g2 aligned" style="--gs:2" d="M263,57 Q319,112 313,445 Q307,778 291.5,820 Q276,862 227.5,823 Q227.5,823 179,784"/><path class="g2 offset" style="--gs:2" d="M167,57 Q195,105.44 192,398.73 Q189,692.02 181.25,729.01 Q173.5,766 149.25,731.65 Q149.25,731.65 125,697.3"/><text class="g3" style="--gs:3" x="65" y="648">③</text><path class="g3 aligned" style="--gs:3" d="M65,648 Q120,658 153,635.63 Q351,501.38 384,479"/><path class="g3 offset" style="--gs:3" d="M65,552 Q120,562 153,539.63 Q351,405.38 384,383"/><text class="g4" style="--gs:4" x="556" y="49">④</text><path class="g4 aligned" style="--gs:4" d="M556,49 Q601,100 578.5,143.25 Q511,273 483.5,309.5 Q428.5,382.5 401,419"/><path class="g4 offset" style="--gs:4" d="M460,49 Q483.4,86.77 471.7,118.8 Q436.6,214.88 422.3,241.91 Q393.7,295.97 379.4,323"/><text class="g5" style="--gs:5" x="486" y="352">⑤</text><path class="g5 aligned" style="--gs:5" d="M486,352 Q516,446 514.88,508.38 Q508.13,882.63 507,945"/><path class="g5 offset" style="--gs:5" d="M606,352 Q636,446 634.88,508.38 Q628.13,882.63 627,945"/><text class="g6" style="--gs:6" x="657" y="147">⑥</text><path class="g6 aligned" style="--gs:6" d="M657,147 L769,234"/><path class="g6 offset" style="--gs:6" d="M742.68,78.46 L854.68,165.46"/><text class="g7" style="--gs:7" x="578" y="339">⑦</text><path class="g7 aligned" style="--gs:7" d="M578,339 L866,301"/><path class="g7 offset" style="--gs:7" d="M578,435 L866,397"/><text class="g8" style="--gs:8" x="689" y="357">⑧</text><path class="g8 aligned" style="--gs:8" d="M689,357 Q724,389 722.75,430 Q715.25,676 714,717"/><path class="g8 offset" style="--gs:8" d="M593,357 Q628,389 626.75,430 Q619.25,676 618,717"/><text class="g9" style="--gs:9" x="607" y="487">⑨</text><path class="g9 aligned" style="--gs:9" d="M607,487 L840,455"/><path class="g9 offset" style="--gs:9" d="M607,583 L840,551"/><text class="g10" style="--gs:10" x="599" y="609">⑩</text><path class="g10 aligned" style="--gs:10" d="M599,609 L848,571"/><path class="g10 offset" style="--gs:10" d="M599,705 L848,667"/><text class="g11" style="--gs:11" x="546" y="746">⑪</text><path class="g11 aligned" style="--gs:11" d="M546,746 Q591,757 655.5,747.5 Q849,719 872.5,722.25 Q919.5,728.75 943,732"/><path class="g11 offset" style="--gs:11" d="M546,842 Q591,853 655.5,843.5 Q849,815 872.5,818.25 Q919.5,824.75 943,828"/></g>
<g class="parts"><rect data-part="2" data-literal="隹" role="button" tabindex="0" aria-label="Part 隹" x="329" y="0" width="686" height="1017"/><rect data-part="1" data-literal="扌" data-radical="true" role="button" tabindex="0" aria-label="Part 扌 (radical)" x="0" y="0" width="481" height="934"/></g>
</svg>
