<!--
  Stroke-order data for 揚, derived from AnimCJK (https://github.com/parsimonhi/animCJK),
  itself derived from the Arphic PL KaitiM fonts. Distributed under the Arphic Public License
  (see ARPHICPL.TXT). Regenerated by scripts/build-strokes.ts — do not edit by hand.
-->
<svg id="z25562" class="acjk" viewBox="0 0 1024 1024" xmlns="http://www.w3.org/2000/svg">
<g class="glyph"><path id="z25562d1" d="M324 354Q348 345 373 339Q407 329 413 323Q420 316 416 307Q409 297 379 291Q352 287 326 299C292 313 292 313 275 320Q190 345 134 355Q100 364 126 378Q171 399 224 381Q246 374 274 368C307 359 307 359 324 354Z"/><path id="z25562d2" d="M270 555Q269 639 267 743Q266 767 254 775Q248 778 192 760Q161 744 162 755Q163 762 181 780Q236 835 248 865Q261 899 277 902Q292 903 308 870Q329 825 331 750Q324 629 322 510C322 488 322 488 322 477Q322 414 324 354C325 317 325 317 326 299Q338 161 346 135Q364 105 308 83Q274 64 255 71Q237 77 253 100Q275 128 276 161Q277 179 275 320C274 352 274 352 274 368Q273 429 271 510C270 540 270 540 270 555Z"/><path id="z25562d3" d="M271 510Q189 562 117 613Q84 634 63 642Q51 648 50 656Q49 665 63 677Q82 690 105 697Q121 701 130 688Q169 642 270 555C305 525 305 525 322 510Q341 492 363 477Q384 464 393 448Q399 435 388 436Q385 436 322 477C288 499 288 499 271 510Z"/><path id="z25562d4" d="M524 113Q517 110 502 107Q490 103 487 108Q480 114 488 129Q516 198 530 309Q531 342 549 365Q565 386 571 371Q572 364 574 357C575 339 575 339 575 330Q575 315 566 251C563 231 563 231 561 221Q552 158 552 138C552 125 536 118 524 113Z"/><path id="z25562d5" d="M677 343Q696 371 713 379Q723 386 738 365Q754 335 782 177Q789 147 811 123Q823 111 812 98Q797 83 756 59Q738 52 680 70Q676 70 587 95Q554 105 524 113C512 117 540 143 552 138Q603 119 692 100Q711 96 720 102Q736 114 732 137Q716 246 693 314C690 324 670 334 677 343Z"/><path id="z25562d6" d="M566 251Q624 238 668 232Q690 228 681 215Q671 202 646 199Q610 196 561 221C552 226 556 253 566 251Z"/><path id="z25562d7" d="M574 357Q631 347 677 343C688 341 702 320 693 314Q686 310 677 309Q643 305 575 330C566 333 565 359 574 357Z"/><path id="z25562d8" d="M517 486Q674 444 931 443Q950 443 955 435Q959 425 945 413Q900 379 864 387Q725 417 427 460Q408 461 422 477Q435 489 451 494Q470 498 484 494Q485 493 487 494C507 489 507 489 517 486Z"/><path id="z25562d9" d="M515 560Q515 559 516 559Q529 541 540 534Q547 527 545 518Q539 497 517 486C508 481 485 484 487 494Q496 515 446 585Q422 616 390 652Q383 658 381 662Q378 669 388 668Q413 668 497 580C509 567 509 567 515 560Z"/><path id="z25562d10" d="M702 563Q721 551 803 551Q821 551 824 558Q830 579 808 702Q787 789 753 842Q740 861 725 864Q715 867 649 850Q639 846 639 852Q638 856 649 866Q682 906 696 936Q703 954 714 954Q750 957 794 898Q836 838 890 627Q894 602 913 588Q926 576 926 568Q920 538 851 510Q829 501 746 522Q736 523 724 527Q627 548 515 560C506 562 488 577 497 580Q498 580 500 581Q521 587 545 586C569 583 569 583 581 582Q629 575 672 568C682 566 693 568 702 563Z"/><path id="z25562d11" d="M545 586Q551 649 421 768Q415 771 422 773Q452 773 527 708Q527 705 530 704Q554 679 592 628Q596 621 600 618Q606 615 605 608Q602 590 581 582C570 578 545 574 545 586Z"/><path id="z25562d12" d="M672 568Q672 569 673 573Q685 646 570 779Q567 780 566 784Q532 821 449 893Q442 897 451 900Q497 900 614 789Q621 779 631 770Q671 725 731 633Q738 621 745 616Q752 612 750 602Q749 593 737 582Q716 564 702 563C692 561 670 558 672 568Z"/></g>
<defs><clipPath id="z25562c1"><use href="#z25562d1"/></clipPath>
	<clipPath id="z25562c2"><use href="#z25562d2"/></clipPath>
	<clipPath id="z25562c3"><use href="#z25562d3"/></clipPath>
	<clipPath id="z25562c4"><use href="#z25562d4"/></clipPath>
	<clipPath id="z25562c5"><use href="#z25562d5"/></clipPath>
	<clipPath id="z25562c6"><use href="#z25562d6"/></clipPath>
	<clipPath id="z25562c7"><use href="#z25562d7"/></clipPath>
	<clipPath id="z25562c8"><use href="#z25562d8"/></clipPath>
	<clipPath id="z25562c9"><use href="#z25562d9"/></clipPath>
	<clipPath id="z25562c10"><use href="#z25562d10"/></clipPath>
	<clipPath id="z25562c11"><use href="#z25562d11"/></clipPath>
	<clipPath id="z25562c12"><use href="#z25562d12"/></clipPath><marker id="guide-arrow" viewBox="0 0 16 16" refX="5" refY="5" markerWidth="4" markerHeight="4" orient="auto-start-reverse"><path d="M 0 0 L 10 5 L 0 10 z" fill="inherit"/></marker></defs>
<g class="strokes"><path pathLength="3333" clip-path="url(#z25562c1)" d="M123 367L411 306"/><path pathLength="3333" clip-path="url(#z25562c2)" d="M253 79L311 129L298 760L263 850L168 758"/><path pathLength="3333" clip-path="url(#z25562c3)" d="M56 655L110 660L388 443"/><path pathLength="3333" clip-path="url(#z25562c4)" d="M491 113L525 150L559 370"/><path pathLength="3333" clip-path="url(#z25562c5)" d="M534 114L714 79L771 110L706 373"/><path pathLength="3333" clip-path="url(#z25562c6)" d="M569 243L675 217"/><path pathLength="3333" clip-path="url(#z25562c7)" d="M579 349L685 318"/><path pathLength="3333" clip-path="url(#z25562c8)" d="M425 467L865 415L951 426"/><path pathLength="3333" clip-path="url(#z25562c9)" d="M494 498L509 533L388 663"/><path pathLength="3333" clip-path="url(#z25562c10)" d="M507 575L824 529L875 569L773 870L713 909L644 855"/><path pathLength="3333" clip-path="url(#z25562c11)" d="M552 593L570 622L428 769"/><path pathLength="3333" clip-path="url(#z25562c12)" d="M679 572L710 612L653 707L576 800L455 896"/></g>
<g class="guides"><text class="g1" style="--gs:1" x="123" y="367">①</text><path class="g1 aligned" style="--gs:1" d="M123,367 L411,306"/><path class="g1 offset" style="--gs:1" d="M123,463 L411,402"/><text class="g2" style="--gs:2" x="253" y="79">②</text><path class="g2 aligned" style="--gs:2" d="M253,79 Q311,129 304.5,444.5 Q298,760 280.5,805 Q263,850 215.5,804 Q215.5,804 168,758"/><path class="g2 offset" style="--gs:2" d="M157,79 Q186,122.77 182.75,398.99 Q179.5,675.21 170.75,714.6 Q162,754 138.25,713.73 Q138.25,713.73 114.5,673.46"/><text class="g3" style="--gs:3" x="56" y="655">③</text><path class="g3 aligned" style="--gs:3" d="M56,655 Q110,660 144.75,632.88 Q353.25,470.13 388,443"/><path class="g3 offset" style="--gs:3" d="M56,559 Q110,564 144.75,536.88 Q353.25,374.13 388,347"/><text class="g4" style="--gs:4" x="491" y="113">④</text><path class="g4 aligned" style="--gs:4" d="M491,113 Q525,150 529.25,177.5 Q554.75,342.5 559,370"/><path class="g4 offset" style="--gs:4" d="M576.68,44.46 Q610.68,81.46 614.93,108.96 Q640.43,273.96 644.68,301.46"/><text class="g5" style="--gs:5" x="534" y="114">⑤</text><path class="g5 aligned" style="--gs:5" d="M534,114 Q714,79 728.25,86.75 Q771,110 754.75,175.75 Q722.25,307.25 706,373"/><path class="g5 offset" style="--gs:5" d="M534,210 Q624,175 631.13,182.75 Q652.5,206 644.38,247.75 Q628.13,331.25 620,373"/><text class="g6" style="--gs:6" x="569" y="243">⑥</text><path class="g6 aligned" style="--gs:6" d="M569,243 L675,217"/><path class="g6 offset" style="--gs:6" d="M569,339 L675,313"/><text class="g7" style="--gs:7" x="579" y="349">⑦</text><path class="g7 aligned" style="--gs:7" d="M579,349 L685,318"/><path class="g7 offset" style="--gs:7" d="M579,445 L685,414"/><text class="g8" style="--gs:8" x="425" y="467">⑧</text><path class="g8 aligned" style="--gs:8" d="M425,467 Q865,415 875.75,416.38 Q940.25,424.63 951,426"/><path class="g8 offset" style="--gs:8" d="M425,563 Q865,511 875.75,512.38 Q940.25,520.63 951,522"/><text class="g9" style="--gs:9" x="494" y="498">⑨</text><path class="g9 aligned" style="--gs:9" d="M502,516 L388,663"/><path class="g9 offset" style="--gs:9" d="M587.68,584.54 L473.68,731.54"/><text class="g10" style="--gs:10" x="507" y="575">⑩</text><path class="g10 aligned" style="--gs:10" d="M507,575 Q824,529 849.5,549 Q875,569 824,719.5 Q773,870 743,889.5 Q713,909 678.5,882 Q678.5,882 644,855"/><path class="g10 offset" style="--gs:10" d="M507,671 Q741.3,625 760.15,645 Q779,665 741.3,730.25 Q703.61,795.5 681.43,805.25 Q659.26,815 633.76,801.5 Q633.76,801.5 608.26,788"/><text class="g11" style="--gs:11" x="552" y="593">⑪</text><path class="g11 aligned" style="--gs:11" d="M561,608 L428,769"/><path class="g11 offset" style="--gs:11" d="M646.68,676.54 L513.68,837.54"/><text class="g12" style="--gs:12" x="679" y="572">⑫</text><path class="g12 aligned" style="--gs:12" d="M679,572 Q710,612 681.5,659.5 Q653,707 614.5,753.5 Q576,800 515.5,848 Q515.5,848 455,896"/><path class="g12 offset" style="--gs:12" d="M583,572 Q602.33,600.15 584.56,633.57 Q566.79,667 542.78,699.72 Q518.78,732.44 481.05,766.22 Q481.05,766.22 443.33,800"/></g>
</svg>
