<svg id="z25644" class="acjk" viewBox="0 0 1024 1024" xmlns="http://www.w3.org/2000/svg">
<style>

@keyframes zk {
	to {
		stroke-dashoffset:0;
	}
}
svg.acjk path[clip-path] {
	--t:0.8s;
	animation:zk var(--t) linear forwards var(--d);
	stroke-dasharray:3337;
	stroke-dashoffset:3339;
	stroke-width:128;
	stroke-linecap:round;
	fill:none;
	stroke:#000;
}
svg.acjk path[id] {fill:#ccc;}


    @keyframes guide-fade {
        0% { opacity: 0; }
        3% { opacity: 1; }
        95% { opacity: 1; }
        100% { opacity: 0; }
    }

    svg.acjk #guide-arrow {
        fill: #f77;
    }

    svg.acjk .guides {
        circle {
            fill: #0f6;
        }

        path {
            opacity: 0;
            animation: guide-fade var(--t) linear forwards var(--d);
            stroke-width: 16px;
            stroke-linecap: round;
            stroke: #f77;
            fill: none;
            marker-end: url(#guide-arrow);
        }

        circle,
        path {
            --t: 0.8s;
            opacity: 0;
            animation: guide-fade calc(var(--t) + 0.4s) ease-in-out forwards calc(var(--d) - 0.2s);
        }
    }
</style>
<path id="z25644d1" d="M274 375C285 371 296 367 310 364C328 358 338 353 341 351C345 346 347 339 344 335C339 327 326 323 307 320C295 318 285 317 276 321C246 331 246 331 231 336C183 351 141 362 106 371C83 376 79 385 98 394C135 412 163 405 230 387C259 379 259 379 274 375Z"/>
<path id="z25644d2" d="M227 540C225 604 225 679 224 763C223 777 219 789 210 795C207 796 185 797 147 789C125 784 117 780 119 787C120 791 126 797 138 807C175 837 197 861 207 878C217 897 227 908 237 909C245 909 255 899 264 878C275 850 280 813 279 769C275 678 272 588 272 499C272 477 272 477 272 466C272 435 272 405 274 375C275 339 275 339 276 321C278 255 278 198 295 155C302 134 293 122 260 107C238 96 223 91 211 96C200 100 199 109 210 123C222 139 229 158 230 179C230 189 232 240 231 336C230 370 230 370 230 387C229 417 228 453 228 494C227 525 227 525 227 540Z"/>
<path id="z25644d3" d="M228 494C186 520 98 583 53 603C43 607 37 614 37 620C36 626 41 633 51 641C63 650 77 657 93 661C99 662 111 658 123 645C150 614 184 578 227 540C257 513 257 513 272 499C293 479 320 456 325 448C329 439 327 434 320 436C309 437 295 451 272 466C243 485 243 485 228 494Z"/>
<path id="z25644d4" d="M441 291C467 259 493 222 520 181C528 168 538 157 549 146C559 135 559 125 549 119C538 111 524 107 506 104C489 101 477 102 471 106C464 110 464 114 469 121C478 135 463 192 424 295C422 300 438 296 441 291Z"/>
<path id="z25644d5" d="M424 295C404 280 386 274 372 282C365 285 363 293 369 299C380 311 389 343 392 400C394 444 393 496 391 536C389 565 389 565 388 579C381 667 343 752 291 860C281 880 294 877 305 865C382 787 415 675 430 565C433 540 433 540 434 527C436 498 436 436 438 360C438 346 440 332 443 318C445 308 432 301 424 295Z"/>
<path id="z25644d6" d="M530 529C530 695 527 773 518 788C516 791 508 791 499 789C484 785 468 779 452 775C441 772 433 774 437 778C465 806 493 827 510 850C517 860 524 867 533 870C537 871 542 870 547 865C569 835 580 807 579 783C574 710 570 620 570 516C570 499 570 499 570 490C570 354 569 332 578 311C582 299 583 293 578 288C566 278 551 268 532 262C521 257 513 258 505 263C490 271 472 280 441 291C435 292 429 293 424 295C415 299 434 322 443 318C480 305 480 305 498 299C507 295 515 295 518 302C523 315 530 388 530 502C530 520 530 520 530 529Z"/>
<path id="z25644d7" d="M452 407C470 437 486 453 498 455C504 455 510 452 513 444C514 437 513 428 510 419C507 411 498 407 489 402C474 394 463 389 457 388C452 387 449 389 449 394C448 398 449 402 452 407Z"/>
<path id="z25644d8" d="M466 743C454 743 457 723 457 716C457 689 460 671 460 649C460 640 460 631 457 624C454 618 447 607 447 600C447 594 451 589 458 589C471 588 486 601 491 615C494 624 491 631 491 644C489 663 491 696 486 717C484 722 478 743 466 743Z"/>
<path id="z25644d9" d="M430 565C461 554 516 533 530 529C557 520 557 520 570 516C641 492 635 470 570 490C543 498 543 498 530 502C499 511 467 519 434 527C405 533 405 533 391 536C345 545 315 547 303 547C296 546 291 549 291 554C289 560 291 566 296 571C306 580 311 586 327 596C336 600 345 599 352 595C363 589 373 583 388 579C416 570 416 570 430 565Z"/>
<path id="z25644d10" d="M676 220C669 215 657 207 647 204C636 200 628 199 623 203C616 206 614 213 620 219C649 285 646 367 605 453C603 457 601 460 601 463C600 469 602 470 607 469C679 417 678 344 684 254C684 242 685 227 676 220Z"/>
<path id="z25644d11" d="M945 420C953 416 956 409 951 401C943 387 930 378 922 374C914 370 904 370 890 376C872 382 848 384 836 383C823 380 816 375 812 367C805 353 805 329 810 290C812 267 822 248 846 224C856 213 855 205 845 197C829 186 813 177 798 171C790 168 782 170 772 177C743 193 711 207 676 220C665 224 673 258 684 254C696 249 757 218 764 219C770 219 772 224 772 232C767 318 766 361 768 375C769 386 773 401 791 413C806 424 833 429 868 431C902 431 927 427 945 420Z"/>
<path id="z25644d12" d="M771 703C780 689 789 671 794 660C808 625 816 593 824 564C829 542 833 525 845 514C853 505 852 496 840 487C827 478 810 471 789 465C776 461 763 462 750 471C725 486 694 500 658 508C643 511 631 512 625 518C619 522 623 527 634 532C650 538 669 537 692 530C709 523 728 518 746 513C760 508 767 513 767 529C767 573 755 636 737 668C730 679 721 690 713 700C681 735 634 770 591 787C582 790 580 793 587 798C591 801 602 799 619 796C658 789 704 766 741 736C752 726 762 715 771 703Z"/>
<path id="z25644d13" d="M741 736C771 774 800 820 829 854C837 864 849 870 864 870C942 864 984 857 990 850C992 846 990 842 985 841C901 810 829 763 771 703C748 680 748 680 737 668C717 647 692 621 671 594C664 585 657 579 648 579C631 577 619 580 615 586C612 589 615 593 621 597C639 607 655 622 668 641C682 661 698 680 713 700C732 724 732 724 741 736Z"/>
<defs>
	<clipPath id="z25644c1"><use href="#z25644d1"/></clipPath>
	<clipPath id="z25644c2"><use href="#z25644d2"/></clipPath>
	<clipPath id="z25644c3"><use href="#z25644d3"/></clipPath>
	<clipPath id="z25644c4"><use href="#z25644d4"/></clipPath>
	<clipPath id="z25644c5"><use href="#z25644d5"/></clipPath>
	<clipPath id="z25644c6"><use href="#z25644d6"/></clipPath>
	<clipPath id="z25644c7"><use href="#z25644d7"/></clipPath>
	<clipPath id="z25644c8"><use href="#z25644d8"/></clipPath>
	<clipPath id="z25644c9"><use href="#z25644d9"/></clipPath>
	<clipPath id="z25644c10"><use href="#z25644d10"/></clipPath>
	<clipPath id="z25644c11"><use href="#z25644d11"/></clipPath>
	<clipPath id="z25644c12"><use href="#z25644d12"/></clipPath>
	<clipPath id="z25644c13"><use href="#z25644d13"/></clipPath>
<marker id="guide-arrow" viewBox="0 0 16 16" refX="5" refY="5" markerWidth="4" markerHeight="4" orient="auto-start-reverse"><path d="M 0 0 L 10 5 L 0 10 z" fill="inherit"/></marker></defs>
<path style="--d:1s;" pathLength="3333" clip-path="url(#z25644c1)" d="M94 383L340 339"/>
<path style="--d:2s;" pathLength="3333" clip-path="url(#z25644c2)" d="M209 100L262 150L250 786L224 856L128 788"/>
<path style="--d:3s;" pathLength="3333" clip-path="url(#z25644c3)" d="M43 617L97 621L319 442"/>
<path style="--d:4s;" pathLength="3333" clip-path="url(#z25644c4)" d="M474 112L511 146L430 288"/>
<path style="--d:5s;" pathLength="3333" clip-path="url(#z25644c5)" d="M372 286L414 327L408 580L375 714L296 865"/>
<path style="--d:6s;" pathLength="3333" clip-path="url(#z25644c6)" d="M428 302L516 278L551 303L546 802L518 829L449 777"/>
<path style="--d:7s;" pathLength="3333" clip-path="url(#z25644c7)" d="M456 396L499 451"/>
<path style="--d:8s;" pathLength="3333" clip-path="url(#z25644c8)" d="M456 597L475 625L468 736"/>
<path style="--d:9s;" pathLength="3333" clip-path="url(#z25644c9)" d="M295 555L348 570L613 489"/>
<path style="--d:10s;" pathLength="3333" clip-path="url(#z25644c10)" d="M625 211L658 246L659 324L607 463"/>
<path style="--d:11s;" pathLength="3333" clip-path="url(#z25644c11)" d="M680 245L766 199L803 207L795 384L831 405L948 399"/>
<path style="--d:12s;" pathLength="3333" clip-path="url(#z25644c12)" d="M629 522L759 487L808 517L744 698L672 760L593 792"/>
<path style="--d:13s;" pathLength="3333" clip-path="url(#z25644c13)" d="M624 590L656 601L855 823L984 847"/>
<g class="guides"><circle style="--d: 1s" class="g1" cx="94" cy="383" r="16"/><path style="--d: 1s;" class="g1" d="M94,479 L340,435"/><circle style="--d: 2s" class="g2" cx="209" cy="100" r="16"/><path style="--d: 2s;" class="g2" d="M113,100 Q139.5,143.65079365079364 136.5,421.2698412698413 Q133.5,698.8888888888889 127,729.4444444444445 Q120.5,760 96.5,730.3174603174602 Q96.5,730.3174603174602 72.5,700.6349206349206"/><circle style="--d: 3s" class="g3" cx="43" cy="617" r="16"/><path style="--d: 3s;" class="g3" d="M43,521 Q97,525 124.75,502.625 Q291.25,368.375 319,346"/><circle style="--d: 4s" class="g4" cx="474" cy="112" r="16"/><path style="--d: 4s;" class="g4" d="M378,112 Q415,146 404.875,163.75 Q344.125,270.25 334,288"/><circle style="--d: 5s" class="g5" cx="372" cy="286" r="16"/><path style="--d: 5s;" class="g5" d="M276,286 Q318,327 315,453.5 Q312,580 295.5,647 Q279,714 239.5,789.5 Q239.5,789.5 200,865"/><circle style="--d: 6s" class="g6" cx="428" cy="302" r="16"/><path style="--d: 6s;" class="g6" d="M428,398 Q472,374 480.75,382.0535390199637 Q489.5,390.1070780399274 488.25,550.855716878403 Q487,711.6043557168784 480,720.3021778584392 Q473,729 455.75,712.2486388384755 Q455.75,712.2486388384755 438.5,695.497277676951"/><circle style="--d: 7s" class="g7" cx="456" cy="396" r="16"/><path style="--d: 7s;" class="g7" d="M541.68,327.456 L584.68,382.456"/><circle style="--d: 8s" class="g8" cx="466" cy="611" r="16"/><path style="--d: 8s;" class="g8" d="M586,611 L588,736"/><circle style="--d: 9s" class="g9" cx="295" cy="555" r="16"/><path style="--d: 9s;" class="g9" d="M295,651 Q348,666 381.125,655.875 Q579.875,595.125 613,585"/><circle style="--d: 10s" class="g10" cx="625" cy="211" r="16"/><path style="--d: 10s;" class="g10" d="M529,211 Q562,246 562.25,265.5 Q563,324 550,358.75 Q524,428.25 511,463"/><circle style="--d: 11s" class="g11" cx="680" cy="245" r="16"/><path style="--d: 11s;" class="g11" d="M680,341 Q766,295 784.5,299 Q803,303 799,391.5 Q795,480 813,490.5 Q831,501 889.5,498 Q889.5,498 948,495"/><circle style="--d: 12s" class="g12" cx="629" cy="522" r="16"/><path style="--d: 12s;" class="g12" d="M533,618 Q604.953488372093,600.5 618.5139534883721,608 Q632.0744186046511,615.5 614.3627906976744,660.75 Q596.6511627906976,706 576.7255813953489,721.5 Q556.8,737 534.9372093023255,745 Q534.9372093023255,745 513.0744186046512,753"/><circle style="--d: 13s" class="g13" cx="640" cy="596" r="16"/><path style="--d: 13s;" class="g13" d="M725.68,527.456 Q887.13,729.6252749003984 899.23875,732.2971155378486 Q971.89125,748.3281593625497 984,751"/></g></svg>