<svg id="z25711" class="acjk" viewBox="0 0 1024 1024" xmlns="http://www.w3.org/2000/svg">
<style>

@keyframes zk {
	to {
		stroke-dashoffset:0;
	}
}
svg.acjk path[clip-path] {
	--t:0.8s;
	animation:zk var(--t) linear forwards var(--d);
	stroke-dasharray:3337;
	stroke-dashoffset:3339;
	stroke-width:128;
	stroke-linecap:round;
	fill:none;
	stroke:#000;
}
svg.acjk path[id] {fill:#ccc;}


    @keyframes guide-fade {
        0% { opacity: 0; }
        3% { opacity: 1; }
        95% { opacity: 1; }
        100% { opacity: 0; }
    }

    svg.acjk #guide-arrow {
        fill: #f77;
    }

    svg.acjk .guides {
        circle {
            fill: #0f6;
        }

        path {
            opacity: 0;
            animation: guide-fade var(--t) linear forwards var(--d);
            stroke-width: 16px;
            stroke-linecap: round;
            stroke: #f77;
            fill: none;
            marker-end: url(#guide-arrow);
        }

        circle,
        path {
            --t: 0.8s;
            opacity: 0;
            animation: guide-fade calc(var(--t) + 0.4s) ease-in-out forwards calc(var(--d) - 0.2s);
        }
    }
</style>
<path id="z25711d1" d="M407 137C449 126 472 118 476 115C481 110 482 105 479 101C474 94 464 90 449 88C437 85 425 85 414 90C377 104 377 104 358 111C338 118 286 130 245 138C226 141 223 148 238 156C259 168 287 168 361 149C392 141 392 141 407 137Z"/>
<path id="z25711d2" d="M399 189C401 171 404 153 407 137C412 106 412 106 414 90C414 88 417 78 423 61C425 54 420 46 409 39C390 28 374 22 362 20C353 18 346 19 342 24C337 28 336 34 342 42C349 52 355 75 358 111C360 136 360 136 361 149C362 163 361 180 363 199C365 211 397 201 399 189Z"/>
<path id="z25711d3" d="M418 221C434 217 454 212 476 209C484 207 489 204 490 200C490 193 486 186 475 182C459 175 433 179 399 189C375 196 375 196 363 199C248 230 169 248 126 255C119 256 114 258 113 263C110 269 114 275 124 281C146 294 170 298 194 290C219 280 243 273 266 264C279 259 279 259 286 256C310 246 346 238 393 227C410 223 410 223 418 221Z"/>
<path id="z25711d4" d="M266 264Q284 316 296 333C302 342 327 334 327 323Q327 290 286 256C280 252 263 257 266 264Z"/>
<path id="z25711d5" d="M408 296C420 278 429 265 437 259C443 253 445 249 442 244C437 237 430 229 418 221C411 217 393 218 393 227C395 239 389 265 376 307C372 318 401 305 408 296Z"/>
<path id="z25711d6" d="M373 343C403 335 431 326 458 321C470 318 474 312 469 306C462 298 452 294 438 292C429 290 419 292 408 296C387 303 387 303 376 307C359 312 343 317 327 323C306 330 306 330 296 333C273 340 252 346 233 353C224 356 225 361 237 368C244 372 274 366 327 354C358 347 358 347 373 343Z"/>
<path id="z25711d7" d="M380 420C402 413 427 408 453 402C461 400 466 396 467 392C467 385 461 379 451 375C432 368 410 372 383 381C349 392 349 392 332 398C282 414 177 439 145 446C138 447 133 450 132 455C130 461 135 467 144 473C167 487 191 488 214 479C277 452 318 438 334 434C365 425 365 425 380 420Z"/>
<path id="z25711d8" d="M334 434C338 505 338 550 348 566C350 569 354 570 358 569C367 565 373 548 375 520C375 498 377 454 380 420C380 407 378 393 383 381C383 380 383 379 384 379C385 374 386 370 387 368C388 362 383 353 373 343C362 332 324 338 327 354C327 354 330 369 332 398C333 422 333 422 334 434Z"/>
<path id="z25711d9" d="M617 293C619 287 620 281 623 275C632 245 640 214 643 183C645 160 645 160 646 149C648 117 653 93 661 77C663 70 663 64 659 60C628 31 601 20 580 28C569 31 567 40 576 50C591 67 599 83 599 102C598 124 599 144 598 163C595 189 595 189 594 202C593 204 593 208 593 213C589 237 584 260 578 282C571 303 571 303 568 313C555 352 529 399 484 448C478 454 474 456 473 459C470 463 473 463 483 463C495 462 520 444 556 406C574 385 589 361 601 333C612 306 612 306 617 293Z"/>
<path id="z25711d10" d="M643 183C669 172 710 161 715 164C719 166 719 173 718 185C693 346 733 441 837 466C878 475 910 475 931 468C941 464 945 454 941 440C933 415 923 388 921 359C919 340 919 328 916 324C912 319 908 322 904 332C885 372 871 397 861 405C852 410 843 408 833 405C816 399 800 390 786 376C764 354 754 318 756 270C757 225 769 189 796 165C804 157 806 152 803 146C798 138 779 128 748 115C739 111 730 112 721 118C704 128 679 139 646 149C614 158 614 158 598 163C569 171 543 172 519 174C510 174 508 179 512 188C514 194 523 200 537 206C549 210 568 211 594 202C627 189 627 189 643 183Z"/>
<path id="z25711d11" d="M601 333C645 359 668 373 671 374C674 374 677 371 680 366C683 359 679 347 671 330C663 315 647 301 617 293C591 286 591 286 578 282C553 275 534 270 520 267C516 266 513 268 514 273C514 279 517 283 524 287C537 293 552 303 568 313C590 326 590 326 601 333Z"/>
<path id="z25711d12" d="M520 538C540 532 585 516 616 503C625 498 635 495 647 492C655 489 660 485 659 480C657 475 652 467 642 460C620 443 602 435 588 434C581 433 578 436 577 444C571 474 510 506 399 545C392 547 394 553 403 555C406 555 436 560 486 547C509 541 509 541 520 538Z"/>
<path id="z25711d13" d="M568 622C643 606 681 595 683 594C688 589 689 584 687 579C683 571 671 565 654 561C630 555 602 568 565 578C527 588 527 588 508 593C456 606 409 608 369 614C346 616 343 624 359 635C379 648 426 651 516 633C551 626 551 626 568 622Z"/>
<path id="z25711d14" d="M577 724C639 717 711 715 795 715C845 715 872 712 876 705C879 697 875 687 864 679C829 652 797 642 770 648C719 658 654 672 574 685C540 690 540 690 523 693C487 698 285 726 165 741C150 742 147 749 159 761C180 782 205 788 231 781C341 750 439 737 526 729C560 726 560 726 577 724Z"/>
<path id="z25711d15" d="M526 729C532 804 524 855 512 881C510 883 509 886 505 888C500 890 472 888 420 884C415 883 411 884 410 887C408 889 412 893 418 899C454 931 481 958 500 982C506 990 512 992 517 992C523 991 530 986 542 976C566 953 581 904 581 827C580 763 577 728 577 724C575 698 575 698 574 685C571 658 569 636 568 622C566 593 566 593 565 578C564 567 560 559 553 555C541 548 530 542 520 538C509 534 479 538 486 547C496 557 504 576 508 593C513 620 513 620 516 633C519 651 521 671 523 693C525 717 525 717 526 729Z"/>
<defs>
	<clipPath id="z25711c1"><use href="#z25711d1"/></clipPath>
	<clipPath id="z25711c2"><use href="#z25711d2"/></clipPath>
	<clipPath id="z25711c3"><use href="#z25711d3"/></clipPath>
	<clipPath id="z25711c4"><use href="#z25711d4"/></clipPath>
	<clipPath id="z25711c5"><use href="#z25711d5"/></clipPath>
	<clipPath id="z25711c6"><use href="#z25711d6"/></clipPath>
	<clipPath id="z25711c7"><use href="#z25711d7"/></clipPath>
	<clipPath id="z25711c8"><use href="#z25711d8"/></clipPath>
	<clipPath id="z25711c9"><use href="#z25711d9"/></clipPath>
	<clipPath id="z25711c10"><use href="#z25711d10"/></clipPath>
	<clipPath id="z25711c11"><use href="#z25711d11"/></clipPath>
	<clipPath id="z25711c12"><use href="#z25711d12"/></clipPath>
	<clipPath id="z25711c13"><use href="#z25711d13"/></clipPath>
	<clipPath id="z25711c14"><use href="#z25711d14"/></clipPath>
	<clipPath id="z25711c15"><use href="#z25711d15"/></clipPath>
<marker id="guide-arrow" viewBox="0 0 16 16" refX="5" refY="5" markerWidth="4" markerHeight="4" orient="auto-start-reverse"><path d="M 0 0 L 10 5 L 0 10 z" fill="inherit"/></marker></defs>
<path style="--d:1s;" pathLength="3333" clip-path="url(#z25711c1)" d="M241 148L474 110"/>
<path style="--d:2s;" pathLength="3333" clip-path="url(#z25711c2)" d="M346 31L387 61L374 195"/>
<path style="--d:3s;" pathLength="3333" clip-path="url(#z25711c3)" d="M123 267L484 195"/>
<path style="--d:4s;" pathLength="3333" clip-path="url(#z25711c4)" d="M272 265L307 328"/>
<path style="--d:5s;" pathLength="3333" clip-path="url(#z25711c5)" d="M398 235L413 267L385 300"/>
<path style="--d:6s;" pathLength="3333" clip-path="url(#z25711c6)" d="M234 359L463 309"/>
<path style="--d:7s;" pathLength="3333" clip-path="url(#z25711c7)" d="M141 456L195 460L460 386"/>
<path style="--d:8s;" pathLength="3333" clip-path="url(#z25711c8)" d="M333 358L359 384L357 564"/>
<path style="--d:9s;" pathLength="3333" clip-path="url(#z25711c9)" d="M578 36L629 79L609 244L565 365L480 458"/>
<path style="--d:10s;" pathLength="3333" clip-path="url(#z25711c10)" d="M516 180L586 185L727 140L755 152L741 342L772 398L832 435L904 429L910 332"/>
<path style="--d:11s;" pathLength="3333" clip-path="url(#z25711c11)" d="M521 275L677 363"/>
<path style="--d:12s;" pathLength="3333" clip-path="url(#z25711c12)" d="M588 446L606 473L525 516L406 549"/>
<path style="--d:13s;" pathLength="3333" clip-path="url(#z25711c13)" d="M358 623L680 584"/>
<path style="--d:14s;" pathLength="3333" clip-path="url(#z25711c14)" d="M159 749L213 759L776 681L871 690"/>
<path style="--d:15s;" pathLength="3333" clip-path="url(#z25711c15)" d="M494 548L537 588L545 886L511 940L419 889"/>
<g class="guides"><circle style="--d: 1s" class="g1" cx="241" cy="148" r="16"/><path style="--d: 1s;" class="g1" d="M241,244 L474,206"/><circle style="--d: 2s" class="g2" cx="346" cy="31" r="16"/><path style="--d: 2s;" class="g2" d="M250,31 Q291,61 289.375,77.75 Q279.625,178.25 278,195"/><circle style="--d: 3s" class="g3" cx="123" cy="267" r="16"/><path style="--d: 3s;" class="g3" d="M123,363 L484,291"/><circle style="--d: 4s" class="g4" cx="272" cy="265" r="16"/><path style="--d: 4s;" class="g4" d="M392,265 L427,328"/><circle style="--d: 5s" class="g5" cx="398" cy="235" r="16"/><path style="--d: 5s;" class="g5" d="M302,235 Q309.5,251 307.75,253.0625 Q297.25,265.4375 295.5,267.5"/><circle style="--d: 6s" class="g6" cx="234" cy="359" r="16"/><path style="--d: 6s;" class="g6" d="M234,455 L463,405"/><circle style="--d: 7s" class="g7" cx="141" cy="456" r="16"/><path style="--d: 7s;" class="g7" d="M141,552 Q195,556 228.125,546.75 Q426.875,491.25 460,482"/><circle style="--d: 8s" class="g8" cx="346" cy="371" r="16"/><path style="--d: 8s;" class="g8" d="M466,371 L477,564"/><circle style="--d: 9s" class="g9" cx="578" cy="36" r="16"/><path style="--d: 9s;" class="g9" d="M482,36 Q507.5,69.21800947867298 502.5,132.95023696682463 Q497.5,196.6824644549763 486.5,243.41943127962085 Q475.5,290.1563981042654 454.25,326.07819905213273 Q454.25,326.07819905213273 433,362"/><circle style="--d: 10s" class="g10" cx="516" cy="180" r="16"/><path style="--d: 10s;" class="g10" d="M516,276 Q564.6802030456853,278.5 613.7081218274111,267.25 Q662.736040609137,256 672.4720812182741,259 Q682.2081218274111,262 677.3401015228426,309.5 Q672.4720812182741,357 683.2512690355329,371 Q694.0304568527919,385 714.8934010152284,394.25 Q735.756345177665,403.5 760.7918781725889,402 Q785.8274111675127,400.5 787.9137055837564,376.25 Q787.9137055837564,376.25 790,352"/><circle style="--d: 11s" class="g11" cx="521" cy="275" r="16"/><path style="--d: 11s;" class="g11" d="M521,371 L677,459"/><circle style="--d: 12s" class="g12" cx="597" cy="460" r="16"/><path style="--d: 12s;" class="g12" d="M682.68,528.544 Q610.68,584.544 595.805,588.669 Q506.555,613.419 491.68,617.544"/><circle style="--d: 13s" class="g13" cx="358" cy="623" r="16"/><path style="--d: 13s;" class="g13" d="M358,719 L680,680"/><circle style="--d: 14s" class="g14" cx="159" cy="749" r="16"/><path style="--d: 14s;" class="g14" d="M159,845 Q213,855 353.75,835.5 Q776,777 799.75,779.25 Q847.25,783.75 871,786"/><circle style="--d: 15s" class="g15" cx="494" cy="548" r="16"/><path style="--d: 15s;" class="g15" d="M398,548 Q419.5,578.204081632653 421.5,690.7142857142857 Q423.5,803.2244897959183 415,823.6122448979592 Q406.5,844 383.5,824.7448979591836 Q383.5,824.7448979591836 360.5,805.4897959183673"/></g></svg>