<svg id="z25774" class="acjk" viewBox="0 0 1024 1024" xmlns="http://www.w3.org/2000/svg">
<style>

@keyframes zk {
	to {
		stroke-dashoffset:0;
	}
}
svg.acjk path[clip-path] {
	--t:0.8s;
	animation:zk var(--t) linear forwards var(--d);
	stroke-dasharray:3337;
	stroke-dashoffset:3339;
	stroke-width:128;
	stroke-linecap:round;
	fill:none;
	stroke:#000;
}
svg.acjk path[id] {fill:#ccc;}


    @keyframes guide-fade {
        0% { opacity: 0; }
        3% { opacity: 1; }
        95% { opacity: 1; }
        100% { opacity: 0; }
    }

    svg.acjk #guide-arrow {
        fill: #f77;
    }

    svg.acjk .guides {
        circle {
            fill: #0f6;
        }

        path {
            opacity: 0;
            animation: guide-fade var(--t) linear forwards var(--d);
            stroke-width: 16px;
            stroke-linecap: round;
            stroke: #f77;
            fill: none;
            marker-end: url(#guide-arrow);
        }

        circle,
        path {
            --t: 0.8s;
            opacity: 0;
            animation: guide-fade calc(var(--t) + 0.4s) ease-in-out forwards calc(var(--d) - 0.2s);
        }
    }
</style>
<path id="z25774d1" d="M299 367Q380 340 385 335Q394 328 388 319Q381 309 351 304Q326 301 301 312C269 325 269 325 253 332Q190 356 114 371Q80 380 106 394Q140 409 211 392Q230 386 253 380C284 371 284 371 299 367Z"/>
<path id="z25774d2" d="M250 544Q249 640 247 763Q246 787 233 796Q226 802 168 789Q137 777 139 787Q140 794 159 809Q216 857 230 883Q246 914 260 916Q273 917 288 884Q306 841 305 769Q298 634 297 500C297 481 297 481 297 472Q297 420 299 367C300 330 300 330 301 312Q301 201 321 137Q337 109 284 87Q253 69 233 75Q217 82 232 104Q251 129 253 162Q254 181 253 332C253 364 253 364 253 380Q252 435 251 504C250 531 250 531 250 544Z"/>
<path id="z25774d3" d="M297 500Q301 496 308 491Q326 478 333 464Q339 451 328 452Q318 456 297 472C266 493 266 493 251 504Q56 639 44 645Q29 652 28 661Q28 670 43 682Q62 695 86 700Q96 701 115 684Q172 617 250 544C281 515 281 515 297 500Z"/>
<path id="z25774d4" d="M464 148Q455 144 447 144Q435 141 433 146Q427 150 435 165Q463 225 478 321Q481 351 498 370Q514 389 518 375Q519 368 521 358C521 343 521 343 521 336Q520 324 518 312Q514 290 510 272C507 258 507 258 506 251Q497 200 495 180C493 165 478 154 464 148Z"/>
<path id="z25774d5" d="M697 341C697 343 697 346 699 350C701 358 707 363 715 363C723 362 730 357 735 348C741 339 751 310 766 263C775 230 793 206 815 188C827 178 827 168 818 159C807 148 786 134 755 118C746 113 711 118 674 123C653 125 628 126 551 138C517 143 488 146 464 148C449 148 480 183 495 180C521 172 587 163 695 156C709 155 717 157 723 161C729 164 731 174 728 194C716 258 707 299 701 316C698 333 698 333 697 341Z"/>
<path id="z25774d6" d="M510 272Q514 273 525 272Q600 260 656 254Q677 250 669 239Q659 226 637 222Q610 219 506 251C499 254 503 272 510 272Z"/>
<path id="z25774d7" d="M521 358Q528 359 541 358Q629 346 697 341C705 341 709 319 701 316Q671 298 528 335Q524 335 521 336C514 337 514 358 521 358Z"/>
<path id="z25774d8" d="M569 457Q654 441 866 440Q882 440 887 433Q891 423 877 412Q835 379 803 387Q694 411 370 454Q354 455 366 470Q373 477 383 482C395 489 413 491 426 486Q474 471 529 463C556 459 556 459 569 457Z"/>
<path id="z25774d9" d="M383 482Q395 507 398 533Q399 558 399 761C399 773 433 764 433 752Q433 712 434 677C435 657 435 657 435 647Q435 616 436 588C437 569 437 569 437 560Q437 539 439 516Q443 498 426 486C416 476 378 469 383 482Z"/>
<path id="z25774d10" d="M436 588Q475 578 504 572Q522 566 514 558Q504 548 484 547Q465 547 437 560C428 563 427 590 436 588Z"/>
<path id="z25774d11" d="M434 677Q473 665 504 660Q522 654 513 646Q504 636 484 635Q465 634 435 647C426 651 424 679 434 677Z"/>
<path id="z25774d12" d="M534 722C501 730 467 740 433 752C410 758 410 758 399 761C363 767 339 771 329 772C322 772 318 775 317 781C316 787 318 793 323 798C335 806 349 816 366 826C370 826 376 825 384 822C416 799 466 776 532 752C541 748 544 720 534 722Z"/>
<path id="z25774d13" d="M579 804C577 779 578 755 578 732C578 724 580 783 578 708C575 606 578 530 585 482C586 474 579 465 569 457C559 447 524 450 529 463C539 487 542 573 533 722C532 742 532 742 531 752C525 830 521 877 528 895C531 903 536 912 542 922C548 932 553 940 559 942C565 943 571 939 574 931C581 912 583 894 582 876C581 857 580 839 580 823C579 810 579 810 579 804Z"/>
<path id="z25774d14" d="M749 721Q779 670 798 595Q802 564 819 548Q832 535 816 522Q797 509 768 498Q749 494 730 504Q694 523 642 532Q620 533 610 540Q603 546 618 554Q639 566 723 542Q745 536 744 560Q744 617 714 687C702 710 702 710 696 721Q657 770 579 804C573 806 574 825 580 823Q581 822 586 821Q676 808 724 757C741 733 741 733 749 721Z"/>
<path id="z25774d15" d="M714 687Q684 657 654 620Q639 601 614 597Q604 596 596 600Q592 606 599 612Q633 637 696 721C715 745 715 745 724 757Q755 796 807 844Q829 863 864 857Q910 851 942 847Q952 846 963 841Q969 835 960 828Q948 821 854 787Q800 768 749 721C726 698 726 698 714 687Z"/>
<defs>
	<clipPath id="z25774c1"><use href="#z25774d1"/></clipPath>
	<clipPath id="z25774c2"><use href="#z25774d2"/></clipPath>
	<clipPath id="z25774c3"><use href="#z25774d3"/></clipPath>
	<clipPath id="z25774c4"><use href="#z25774d4"/></clipPath>
	<clipPath id="z25774c5"><use href="#z25774d5"/></clipPath>
	<clipPath id="z25774c6"><use href="#z25774d6"/></clipPath>
	<clipPath id="z25774c7"><use href="#z25774d7"/></clipPath>
	<clipPath id="z25774c8"><use href="#z25774d8"/></clipPath>
	<clipPath id="z25774c9"><use href="#z25774d9"/></clipPath>
	<clipPath id="z25774c10"><use href="#z25774d10"/></clipPath>
	<clipPath id="z25774c11"><use href="#z25774d11"/></clipPath>
	<clipPath id="z25774c12"><use href="#z25774d12"/></clipPath>
	<clipPath id="z25774c13"><use href="#z25774d13"/></clipPath>
	<clipPath id="z25774c14"><use href="#z25774d14"/></clipPath>
	<clipPath id="z25774c15"><use href="#z25774d15"/></clipPath>
<marker id="guide-arrow" viewBox="0 0 16 16" refX="5" refY="5" markerWidth="4" markerHeight="4" orient="auto-start-reverse"><path d="M 0 0 L 10 5 L 0 10 z" fill="inherit"/></marker></defs>
<path style="--d:1s;" pathLength="3333" clip-path="url(#z25774c1)" d="M103 383L383 327"/>
<path style="--d:2s;" pathLength="3333" clip-path="url(#z25774c2)" d="M232 85L287 134L275 786L246 863L147 787"/>
<path style="--d:3s;" pathLength="3333" clip-path="url(#z25774c3)" d="M36 661L88 660L328 460"/>
<path style="--d:4s;" pathLength="3333" clip-path="url(#z25774c4)" d="M437 148L471 188L507 375"/>
<path style="--d:5s;" pathLength="3333" clip-path="url(#z25774c5)" d="M474 150L713 136L758 151L777 176L709 358"/>
<path style="--d:6s;" pathLength="3333" clip-path="url(#z25774c6)" d="M511 253L665 242"/>
<path style="--d:7s;" pathLength="3333" clip-path="url(#z25774c7)" d="M525 350L698 326"/>
<path style="--d:8s;" pathLength="3333" clip-path="url(#z25774c8)" d="M370 461L806 413L883 426"/>
<path style="--d:9s;" pathLength="3333" clip-path="url(#z25774c9)" d="M391 486L418 521L412 756"/>
<path style="--d:10s;" pathLength="3333" clip-path="url(#z25774c10)" d="M442 579L510 557"/>
<path style="--d:11s;" pathLength="3333" clip-path="url(#z25774c11)" d="M441 667L511 650"/>
<path style="--d:12s;" pathLength="3333" clip-path="url(#z25774c12)" d="M323 782L376 795L525 741"/>
<path style="--d:13s;" pathLength="3333" clip-path="url(#z25774c13)" d="M538 467L560 497L561 932"/>
<path style="--d:14s;" pathLength="3333" clip-path="url(#z25774c14)" d="M616 543L750 519L784 546L714 733L582 812"/>
<path style="--d:15s;" pathLength="3333" clip-path="url(#z25774c15)" d="M602 603L818 809L957 834"/>
<g class="guides"><circle style="--d: 1s" class="g1" cx="103" cy="383" r="16"/><path style="--d: 1s;" class="g1" d="M103,479 L383,423"/><circle style="--d: 2s" class="g2" cx="232" cy="85" r="16"/><path style="--d: 2s;" class="g2" d="M136,85 Q163.5,127.95372750642673 160.5,413.7275064267352 Q157.5,699.5012853470437 150.25,733.2506426735218 Q143,767 118.25,733.6889460154241 Q118.25,733.6889460154241 93.5,700.3778920308483"/><circle style="--d: 3s" class="g3" cx="36" cy="661" r="16"/><path style="--d: 3s;" class="g3" d="M36,565 Q88,564 118,539 Q298,389 328,364"/><circle style="--d: 4s" class="g4" cx="437" cy="148" r="16"/><path style="--d: 4s;" class="g4" d="M522.68,79.456 Q556.68,119.456 561.18,142.83100000000002 Q588.18,283.081 592.68,306.456"/><circle style="--d: 5s" class="g5" cx="474" cy="150" r="16"/><path style="--d: 5s;" class="g5" d="M474,246 Q618.3465346534654,232 631.9356435643565,236.25675675675677 Q645.5247524752475,240.51351351351352 651.2623762376238,247.60810810810813 Q657,254.7027027027027 636.4653465346535,306.35135135135135 Q636.4653465346535,306.35135135135135 615.9306930693069,358"/><circle style="--d: 6s" class="g6" cx="511" cy="253" r="16"/><path style="--d: 6s;" class="g6" d="M511,349 L665,338"/><circle style="--d: 7s" class="g7" cx="525" cy="350" r="16"/><path style="--d: 7s;" class="g7" d="M525,446 L698,422"/><circle style="--d: 8s" class="g8" cx="370" cy="461" r="16"/><path style="--d: 8s;" class="g8" d="M370,557 Q806,509 815.625,510.625 Q873.375,520.375 883,522"/><circle style="--d: 9s" class="g9" cx="391" cy="486" r="16"/><path style="--d: 9s;" class="g9" d="M295,486 Q322,521 321.25,550.375 Q316.75,726.625 316,756"/><circle style="--d: 10s" class="g10" cx="442" cy="579" r="16"/><path style="--d: 10s;" class="g10" d="M442,675 L510,653"/><circle style="--d: 11s" class="g11" cx="441" cy="667" r="16"/><path style="--d: 11s;" class="g11" d="M441,763 L511,746"/><circle style="--d: 12s" class="g12" cx="323" cy="782" r="16"/><path style="--d: 12s;" class="g12" d="M323,878 Q376,891 394.625,884.25 Q506.375,843.75 525,837"/><circle style="--d: 13s" class="g13" cx="549" cy="482" r="16"/><path style="--d: 13s;" class="g13" d="M669,482 L681,932"/><circle style="--d: 14s" class="g14" cx="616" cy="543" r="16"/><path style="--d: 14s;" class="g14" d="M520,639 Q587,627 595.5,633.75 Q604,640.5 586.5,687.25 Q569,734 536,753.75 Q536,753.75 503,773.5"/><circle style="--d: 15s" class="g15" cx="602" cy="603" r="16"/><path style="--d: 15s;" class="g15" d="M687.68,534.456 Q851.5479436619718,715.9714285714285 864.7294507042253,718.7249999999999 Q943.8184929577465,735.2464285714286 957,738"/></g></svg>