<!--
  Stroke-order data for 撰, derived from AnimCJK (https://github.com/parsimonhi/animCJK),
  itself derived from the Arphic PL KaitiM fonts. Distributed under the Arphic Public License
  (see ARPHICPL.TXT). Regenerated by scripts/build-strokes.ts — do not edit by hand.
-->
<svg id="z25776" class="acjk" viewBox="0 0 1024 1024" xmlns="http://www.w3.org/2000/svg">
<g class="glyph"><path id="z25776d1" d="M298 365C319 358 358 353 373 339C377 334 379 328 376 323C371 315 359 311 339 308C326 305 312 305 300 311C270 324 270 324 255 330C209 349 165 354 126 363C103 367 100 377 118 386C135 394 154 397 173 396C201 393 229 385 254 378C283 369 283 369 298 365Z"/><path id="z25776d2" d="M251 568C251 630 249 700 248 778C247 794 242 804 234 810C229 812 207 811 167 801C145 795 137 792 139 799C140 803 146 810 158 820C196 850 219 874 229 893C239 913 250 924 260 925C268 925 278 915 287 894C298 866 304 829 303 785C299 700 295 615 295 530C295 507 295 507 295 495C295 451 296 407 298 365C299 329 299 329 300 311C303 222 312 171 319 159C328 139 317 126 284 111C262 100 247 95 235 100C224 104 223 113 234 127C246 143 253 162 254 183C254 193 256 242 255 330C254 362 254 362 254 378C253 418 251 466 251 523C251 553 251 553 251 568Z"/><path id="z25776d3" d="M251 523C115 607 47 651 47 654C46 654 46 654 46 656C45 662 50 669 60 677C72 685 86 692 101 697C111 699 120 696 126 688C166 645 207 605 251 568C280 543 280 543 295 530C318 509 347 488 365 468C369 459 367 455 360 456C356 456 334 469 295 495C266 514 266 514 251 523Z"/><path id="z25776d4" d="M567 264C577 229 589 207 600 196C611 184 609 172 599 165C588 158 576 150 563 143C549 136 534 144 511 157C488 169 460 176 431 184C423 186 433 207 441 205C459 201 492 189 518 184C530 181 538 181 541 186C542 187 539 210 529 254C527 267 564 277 567 264Z"/><path id="z25776d5" d="M431 310C442 312 462 302 571 287C577 286 581 283 581 278C581 275 576 270 567 264C556 257 542 252 529 254C508 256 462 274 432 282C423 284 422 310 431 310Z"/><path id="z25776d6" d="M615 374C609 364 601 345 594 317C592 309 591 305 588 303C585 301 583 304 581 312C563 357 545 382 528 387C499 394 474 394 458 389C448 386 445 381 443 377C435 361 429 340 431 310C432 291 432 291 432 282C432 258 435 232 441 205C443 197 436 189 431 184C426 179 419 174 410 171C404 169 399 170 396 172C393 173 392 178 395 187C401 204 403 222 403 239C400 341 406 399 425 413C456 437 505 440 569 422C583 417 597 410 611 400C619 393 621 383 615 374Z"/><path id="z25776d7" d="M810 223C818 191 829 171 839 161C852 147 850 135 838 128C826 121 813 113 799 105C788 99 770 107 742 121C720 130 698 136 676 143C668 146 679 166 687 165C709 160 731 155 755 149C765 146 771 146 775 152C776 153 774 176 767 220C764 234 807 237 810 223Z"/><path id="z25776d8" d="M675 274C693 274 706 269 823 251C828 250 832 247 833 242C833 237 825 231 810 223C798 216 781 215 767 220C733 230 703 238 677 244C667 246 665 274 675 274Z"/><path id="z25776d9" d="M894 342C887 332 876 314 867 286C864 277 863 272 860 270C856 268 856 273 853 282C840 314 828 335 820 345C815 350 806 355 792 359C756 368 726 367 705 358C693 353 687 348 685 343C677 330 672 307 675 274C676 254 676 254 677 244C678 217 683 191 687 165C689 157 682 148 676 143C670 138 661 134 653 131C645 128 641 128 637 131C633 133 632 137 636 148C642 167 645 187 644 207C637 315 649 378 679 393C685 396 693 401 707 404C778 419 841 409 890 374C900 366 901 354 894 342Z"/><path id="z25776d10" d="M709 556C729 552 748 550 774 547C786 545 821 533 814 518C810 510 799 504 784 500C760 493 740 501 717 508C682 517 682 517 665 522C611 536 572 542 548 546C519 550 519 550 504 552C479 555 454 554 429 557C408 559 404 565 419 576C441 590 475 594 508 589C535 584 535 584 548 582C584 575 623 570 663 564C694 559 694 559 709 556Z"/><path id="z25776d11" d="M548 546C548 529 549 518 551 512C553 500 550 489 542 483C529 471 514 465 501 460C492 457 486 457 482 461C478 463 476 469 481 479C490 499 500 522 504 552C507 577 507 577 508 589C510 610 511 641 515 678C517 689 549 685 549 674C548 638 548 607 548 582C548 570 548 558 548 546Z"/><path id="z25776d12" d="M690 655C696 620 703 587 709 556C714 524 714 524 717 508C719 492 725 475 735 455C737 449 733 440 724 433C705 420 690 413 678 409C669 406 663 407 658 412C653 415 651 420 656 430C663 444 668 456 668 466C667 484 665 502 665 522C664 550 664 550 663 564C661 594 657 626 654 660C654 672 688 667 690 655Z"/><path id="z25776d13" d="M515 678C465 683 413 689 360 695C347 696 344 701 354 713C362 721 371 727 384 731C395 734 408 735 419 732C524 703 689 689 911 689C923 689 931 686 934 681C937 674 934 665 924 657C890 631 855 625 815 633C779 639 737 648 690 655C666 658 666 658 654 660C643 661 575 670 549 674C526 677 526 677 515 678Z"/><path id="z25776d14" d="M503 761C489 799 442 848 361 905C348 913 350 916 366 916C414 915 468 885 529 826C543 811 556 803 564 797C571 791 573 783 573 779C572 770 563 764 549 758C531 751 520 748 513 749C508 749 505 753 503 761Z"/><path id="z25776d15" d="M676 767C712 801 753 843 795 896C805 908 813 919 825 922C828 923 834 919 841 913C849 904 849 885 843 857C834 818 778 778 678 736C670 733 667 735 667 743C665 751 668 759 676 767Z"/></g>
<defs><clipPath id="z25776c1"><use href="#z25776d1"/></clipPath>
	<clipPath id="z25776c2"><use href="#z25776d2"/></clipPath>
	<clipPath id="z25776c3"><use href="#z25776d3"/></clipPath>
	<clipPath id="z25776c4"><use href="#z25776d4"/></clipPath>
	<clipPath id="z25776c5"><use href="#z25776d5"/></clipPath>
	<clipPath id="z25776c6"><use href="#z25776d6"/></clipPath>
	<clipPath id="z25776c7"><use href="#z25776d7"/></clipPath>
	<clipPath id="z25776c8"><use href="#z25776d8"/></clipPath>
	<clipPath id="z25776c9"><use href="#z25776d9"/></clipPath>
	<clipPath id="z25776c10"><use href="#z25776d10"/></clipPath>
	<clipPath id="z25776c11"><use href="#z25776d11"/></clipPath>
	<clipPath id="z25776c12"><use href="#z25776d12"/></clipPath>
	<clipPath id="z25776c13"><use href="#z25776d13"/></clipPath>
	<clipPath id="z25776c14"><use href="#z25776d14"/></clipPath>
	<clipPath id="z25776c15"><use href="#z25776d15"/></clipPath><marker id="guide-arrow" viewBox="0 0 16 16" refX="5" refY="5" markerWidth="4" markerHeight="4" orient="auto-start-reverse"><path d="M 0 0 L 10 5 L 0 10 z" fill="inherit"/></marker></defs>
<g class="strokes"><path pathLength="3333" clip-path="url(#z25776c1)" d="M113 371L370 331"/><path pathLength="3333" clip-path="url(#z25776c2)" d="M235 108L287 157L273 808L241 870L145 801"/><path pathLength="3333" clip-path="url(#z25776c3)" d="M52 657L102 660L361 462"/><path pathLength="3333" clip-path="url(#z25776c4)" d="M433 193L552 164L573 187L549 267"/><path pathLength="3333" clip-path="url(#z25776c5)" d="M428 299L572 278"/><path pathLength="3333" clip-path="url(#z25776c6)" d="M403 174L420 206L418 347L444 404L565 395L589 373L588 312"/><path pathLength="3333" clip-path="url(#z25776c7)" d="M679 150L797 134L811 155L780 227"/><path pathLength="3333" clip-path="url(#z25776c8)" d="M672 264L828 241"/><path pathLength="3333" clip-path="url(#z25776c9)" d="M642 140L665 172L659 306L686 372L758 388L826 375L866 339L861 280"/><path pathLength="3333" clip-path="url(#z25776c10)" d="M417 565L501 571L808 518"/><path pathLength="3333" clip-path="url(#z25776c11)" d="M483 465L523 506L532 681"/><path pathLength="3333" clip-path="url(#z25776c12)" d="M658 416L701 458L665 663"/><path pathLength="3333" clip-path="url(#z25776c13)" d="M356 704L834 660L929 675"/><path pathLength="3333" clip-path="url(#z25776c14)" d="M514 753L527 791L447 866L362 908"/><path pathLength="3333" clip-path="url(#z25776c15)" d="M673 743L793 840L827 917"/></g>
<g class="guides"><text class="g1" style="--gs:1" x="113" y="371">①</text><path class="g1 aligned" style="--gs:1" d="M113,371 L370,331"/><path class="g1 offset" style="--gs:1" d="M113,467 L370,427"/><text class="g2" style="--gs:2" x="235" y="108">②</text><path class="g2 aligned" style="--gs:2" d="M235,108 Q287,157 280,482.5 Q273,808 257,839 Q241,870 193,835.5 Q193,835.5 145,801"/><path class="g2 offset" style="--gs:2" d="M139,108 Q165,150.83 161.5,435.32 Q158,719.81 150,746.91 Q142,774 118,743.85 Q118,743.85 94,713.69"/><text class="g3" style="--gs:3" x="52" y="657">③</text><path class="g3 aligned" style="--gs:3" d="M52,657 Q102,660 134.38,635.25 Q328.63,486.75 361,462"/><path class="g3 offset" style="--gs:3" d="M52,561 Q102,564 134.38,539.25 Q328.63,390.75 361,366"/><text class="g4" style="--gs:4" x="433" y="193">④</text><path class="g4 aligned" style="--gs:4" d="M433,193 Q552,164 557.25,169.75 Q573,187 567,207 Q555,247 549,267"/><path class="g4 offset" style="--gs:4" d="M433,289 Q492.5,260 495.13,265.75 Q503,283 500,290.13 Q494,304.38 491,311.5"/><text class="g5" style="--gs:5" x="428" y="299">⑤</text><path class="g5 aligned" style="--gs:5" d="M428,299 L572,278"/><path class="g5 offset" style="--gs:5" d="M428,395 L572,374"/><text class="g6" style="--gs:6" x="403" y="174">⑥</text><path class="g6 aligned" style="--gs:6" d="M412,190 Q418,347 431,375.5 Q444,404 504.5,399.5 Q565,395 577,384 Q589,373 588.5,342.5 Q588.5,342.5 588,312"/><path class="g6 offset" style="--gs:6" d="M497.68,121.46 Q500.68,258.31 507.18,283.16 Q513.68,308 543.93,304.08 Q574.18,300.15 580.18,290.57 Q586.18,280.98 585.93,254.39 Q585.93,254.39 585.68,227.8"/><text class="g7" style="--gs:7" x="679" y="150">⑦</text><path class="g7 aligned" style="--gs:7" d="M679,150 Q797,134 800.5,139.25 Q811,155 803.25,173 Q787.75,209 780,227"/><path class="g7 offset" style="--gs:7" d="M679,246 Q738,230 739.75,232.63 Q745,240.5 741.13,249.5 Q733.38,267.5 729.5,276.5"/><text class="g8" style="--gs:8" x="672" y="264">⑧</text><path class="g8 aligned" style="--gs:8" d="M672,264 L828,241"/><path class="g8 offset" style="--gs:8" d="M672,360 L828,337"/><text class="g9" style="--gs:9" x="642" y="140">⑨</text><path class="g9 aligned" style="--gs:9" d="M654,156 Q659,306 672.5,339 Q686,372 722,380 Q758,388 792,381.5 Q826,375 846,357 Q866,339 863.5,309.5 Q863.5,309.5 861,280"/><path class="g9 offset" style="--gs:9" d="M739.68,87.46 Q742.18,219.7 748.93,248.8 Q755.68,277.89 773.68,284.95 Q791.68,292 808.68,286.27 Q825.68,280.54 835.68,264.67 Q845.68,248.8 844.43,222.79 Q844.43,222.79 843.18,196.78"/><text class="g10" style="--gs:10" x="417" y="565">⑩</text><path class="g10 aligned" style="--gs:10" d="M417,565 Q501,571 539.38,564.38 Q769.63,524.63 808,518"/><path class="g10 offset" style="--gs:10" d="M417,661 Q501,667 539.38,660.38 Q769.63,620.63 808,614"/><text class="g11" style="--gs:11" x="483" y="465">⑪</text><path class="g11 aligned" style="--gs:11" d="M483,465 Q523,506 524.13,527.88 Q530.88,659.13 532,681"/><path class="g11 offset" style="--gs:11" d="M568.68,396.46 Q608.68,437.46 609.8,459.33 Q616.55,590.58 617.68,612.46"/><text class="g12" style="--gs:12" x="658" y="416">⑫</text><path class="g12 aligned" style="--gs:12" d="M658,416 Q701,458 696.5,483.63 Q669.5,637.38 665,663"/><path class="g12 offset" style="--gs:12" d="M562,416 Q605,458 600.5,483.63 Q573.5,637.38 569,663"/><text class="g13" style="--gs:13" x="356" y="704">⑬</text><path class="g13 aligned" style="--gs:13" d="M356,704 Q834,660 845.88,661.88 Q917.13,673.13 929,675"/><path class="g13 offset" style="--gs:13" d="M356,800 Q834,756 845.88,757.88 Q917.13,769.13 929,771"/><text class="g14" style="--gs:14" x="514" y="753">⑭</text><path class="g14 aligned" style="--gs:14" d="M521,772 Q447,866 436.38,871.25 Q372.63,902.75 362,908"/><path class="g14 offset" style="--gs:14" d="M606.68,840.54 Q532.68,934.54 522.05,939.79 Q458.31,971.29 447.68,976.54"/><text class="g15" style="--gs:15" x="673" y="743">⑮</text><path class="g15 aligned" style="--gs:15" d="M673,743 Q793,840 797.25,849.63 Q822.75,907.38 827,917"/><path class="g15 offset" style="--gs:15" d="M758.68,674.46 Q878.68,771.46 882.93,781.08 Q908.43,838.83 912.68,848.46"/></g>
</svg>
