<!--
  Stroke-order data for 支, derived from AnimCJK (https://github.com/parsimonhi/animCJK),
  itself derived from the Arphic PL KaitiM fonts. Distributed under the Arphic Public License
  (see ARPHICPL.TXT). Regenerated by scripts/build-strokes.ts — do not edit by hand.
-->
<svg id="z25903" class="acjk" viewBox="0 0 1024 1024" xmlns="http://www.w3.org/2000/svg">
<g class="glyph"><path id="z25903d1" d="M521 313C561 305 603 297 647 289C685 281 707 273 714 269C720 264 722 258 719 252C714 243 702 236 682 232C661 226 640 229 620 236C589 246 557 255 525 264C489 273 489 273 471 278C440 286 365 293 307 299C282 301 277 311 296 322C336 344 389 336 471 322C504 316 504 316 521 313Z"/><path id="z25903d2" d="M510 463C514 412 517 362 521 313C524 280 524 280 525 264C530 197 532 142 548 100C550 92 545 81 531 73C507 58 485 51 469 48C458 45 450 48 444 54C439 58 437 67 444 77C458 100 466 118 468 134C470 165 471 254 471 278C471 307 471 307 471 322C471 370 468 422 466 477C466 492 510 478 510 463Z"/><path id="z25903d3" d="M534 717C567 672 597 617 628 553C638 530 651 513 667 501C681 489 684 477 675 467C666 457 650 447 626 438C608 431 588 433 567 442C550 449 531 456 510 463C481 472 481 472 466 477C426 489 374 495 312 502C301 503 293 505 290 512C286 517 293 523 307 529C335 539 369 539 409 527C485 503 531 492 546 493C560 494 568 502 564 518C547 582 521 636 490 681C482 691 474 701 466 711C400 783 297 834 158 867C147 869 145 874 154 881C159 885 183 886 223 884C275 880 329 862 388 834C432 812 472 785 506 750C515 739 525 728 534 717Z"/><path id="z25903d4" d="M506 750C625 866 700 930 735 931C791 932 853 922 922 908C949 902 962 897 960 889C958 885 944 880 916 874C794 847 726 829 711 824C657 803 597 769 534 717C505 693 505 693 490 681C462 658 436 634 410 609C382 582 356 570 332 572C319 572 311 573 310 578C308 582 314 588 326 595C359 613 405 652 466 711C493 737 493 737 506 750Z"/></g>
<defs><clipPath id="z25903c1"><use href="#z25903d1"/></clipPath>
	<clipPath id="z25903c2"><use href="#z25903d2"/></clipPath>
	<clipPath id="z25903c3"><use href="#z25903d3"/></clipPath>
	<clipPath id="z25903c4"><use href="#z25903d4"/></clipPath><marker id="guide-arrow" viewBox="0 0 16 16" refX="5" refY="5" markerWidth="4" markerHeight="4" orient="auto-start-reverse"><path d="M 0 0 L 10 5 L 0 10 z" fill="inherit"/></marker></defs>
<g class="strokes"><path pathLength="3333" clip-path="url(#z25903c1)" d="M291 307L384 313L714 257"/><path pathLength="3333" clip-path="url(#z25903c2)" d="M447 55L507 106L475 473"/><path pathLength="3333" clip-path="url(#z25903c3)" d="M299 514L557 468L591 468L626 497L538 659L457 758L314 841L160 876"/><path pathLength="3333" clip-path="url(#z25903c4)" d="M319 580L383 610L702 868L954 890"/></g>
<g class="guides"><text class="g1" style="--gs:1" x="291" y="307">①</text><path class="g1 aligned" style="--gs:1" d="M291,307 Q384,313 425.25,306 Q672.75,264 714,257"/><path class="g1 offset" style="--gs:1" d="M291,403 Q384,409 425.25,402 Q672.75,360 714,353"/><text class="g2" style="--gs:2" x="447" y="55">②</text><path class="g2 aligned" style="--gs:2" d="M447,55 Q507,106 503,151.88 Q479,427.13 475,473"/><path class="g2 offset" style="--gs:2" d="M351,55 Q411,106 407,151.88 Q383,427.13 379,473"/><text class="g3" style="--gs:3" x="299" y="514">③</text><path class="g3 aligned" style="--gs:3" d="M299,514 Q557,468 574,468 Q591,468 608.5,482.5 Q626,497 582,578 Q538,659 497.5,708.5 Q457,758 385.5,799.5 Q314,841 237,858.5 Q237,858.5 160,876"/><path class="g3 offset" style="--gs:3" d="M203,610 Q407.85,585.65 421.35,585.65 Q434.85,585.65 448.74,593.32 Q462.64,601 427.7,643.88 Q392.76,686.76 360.61,712.97 Q328.45,739.18 271.68,761.15 Q214.91,783.12 153.77,792.38 Q153.77,792.38 92.64,801.65"/><text class="g4" style="--gs:4" x="319" y="580">④</text><path class="g4 aligned" style="--gs:4" d="M319,580 Q383,610 462.75,674.5 Q702,868 765,873.5 Q891,884.5 954,890"/><path class="g4 offset" style="--gs:4" d="M319,676 Q383,706 462.75,770.5 Q702,964 765,969.5 Q891,980.5 954,986"/></g>
</svg>
