<!--
  Stroke-order data for 敖, derived from AnimCJK (https://github.com/parsimonhi/animCJK),
  itself derived from the Arphic PL KaitiM fonts. Distributed under the Arphic Public License
  (see ARPHICPL.TXT). Regenerated by scripts/build-strokes.ts — do not edit by hand.
-->
<svg id="z25942" class="acjk" viewBox="0 0 1024 1024" xmlns="http://www.w3.org/2000/svg">
<g class="glyph"><path id="z25942d1" d="M386 276C407 271 428 264 450 259C474 252 488 247 492 244C496 239 497 234 495 230C490 223 479 218 463 215C446 212 423 220 390 231C355 242 355 242 337 247C313 254 274 263 218 272C197 275 194 283 210 292C228 301 250 305 275 301C296 298 318 291 338 287C370 280 370 280 386 276Z"/><path id="z25942d2" d="M377 361C380 339 383 308 386 276C389 246 389 246 390 231C393 191 396 155 408 123C410 116 405 107 392 99C370 85 351 78 337 76C326 74 318 75 314 81C309 85 308 93 314 102C324 118 331 131 332 142C334 176 336 210 337 247C338 274 338 274 338 287C338 307 337 343 337 373C337 387 374 375 377 361Z"/><path id="z25942d3" d="M302 424C346 412 408 393 489 381C495 379 503 378 507 369C509 362 500 354 485 350C445 337 406 352 377 361C350 369 350 369 337 373C303 383 244 397 162 413C144 416 141 423 157 433C176 445 201 449 231 443C243 440 258 435 275 431C293 426 293 426 302 424Z"/><path id="z25942d4" d="M369 499C371 490 372 477 368 461C363 444 340 432 302 424C293 422 269 424 275 431C295 455 317 481 340 507C346 515 367 509 369 499Z"/><path id="z25942d5" d="M331 546C367 536 409 527 455 519C465 517 469 513 470 509C470 500 465 494 454 490C434 482 406 488 369 499C350 504 350 504 340 507C214 541 129 559 86 565C79 565 74 568 73 574C70 580 74 587 84 593C107 607 132 611 157 602C205 583 246 567 281 559C314 550 314 550 331 546Z"/><path id="z25942d6" d="M337 602C356 609 385 609 395 628C403 645 392 693 365 771C351 809 333 832 312 836C307 836 298 836 288 833C264 826 252 821 250 826C246 831 252 836 262 844C281 858 292 878 299 898C302 908 308 915 315 918C322 921 337 916 356 901C387 874 411 816 429 732C437 690 447 662 462 654C468 650 473 647 474 642C475 636 466 626 455 610C446 598 436 589 411 585C391 581 372 578 355 575C344 573 327 598 337 602Z"/><path id="z25942d7" d="M355 575C355 567 347 557 331 546C316 537 281 542 281 559C281 627 218 722 93 846C88 848 89 850 95 852C163 836 244 752 337 602C343 593 357 586 355 575Z"/><path id="z25942d8" d="M586 416C606 380 657 276 673 237C683 211 696 179 710 157C714 148 714 140 710 132C705 123 692 112 670 102C650 92 633 89 621 93C608 96 605 106 615 119C646 162 609 287 501 496C496 504 492 510 492 515C490 522 495 524 504 521C517 514 544 487 576 433C583 422 583 422 586 416Z"/><path id="z25942d9" d="M690 443C801 420 856 399 860 397C866 391 867 385 864 380C859 372 846 365 826 362C805 358 785 363 765 371C740 380 714 388 688 396C654 405 600 413 586 416C580 417 570 431 576 433C600 445 626 456 651 451C677 446 677 446 690 443Z"/><path id="z25942d10" d="M680 692C704 632 715 591 727 516C729 500 732 489 736 483C740 478 741 472 737 466C729 456 713 448 690 443C677 441 646 439 651 451C673 499 668 561 641 650C636 663 631 676 624 689C598 732 555 772 509 801C497 807 484 815 471 823C456 831 458 835 477 835C566 826 626 769 656 734C666 721 673 706 680 692Z"/><path id="z25942d11" d="M656 734C723 829 773 877 803 880C857 884 907 885 954 884C977 883 989 879 988 872C986 865 926 843 897 831C817 796 765 783 680 692C654 664 654 664 641 650C625 633 611 616 598 599C577 572 555 558 533 556C522 554 515 554 513 558C510 562 514 569 524 576C547 593 581 629 624 689C645 719 645 719 656 734Z"/></g>
<defs><clipPath id="z25942c1"><use href="#z25942d1"/></clipPath>
	<clipPath id="z25942c2"><use href="#z25942d2"/></clipPath>
	<clipPath id="z25942c3"><use href="#z25942d3"/></clipPath>
	<clipPath id="z25942c4"><use href="#z25942d4"/></clipPath>
	<clipPath id="z25942c5"><use href="#z25942d5"/></clipPath>
	<clipPath id="z25942c6"><use href="#z25942d6"/></clipPath>
	<clipPath id="z25942c7"><use href="#z25942d7"/></clipPath>
	<clipPath id="z25942c8"><use href="#z25942d8"/></clipPath>
	<clipPath id="z25942c9"><use href="#z25942d9"/></clipPath>
	<clipPath id="z25942c10"><use href="#z25942d10"/></clipPath>
	<clipPath id="z25942c11"><use href="#z25942d11"/></clipPath><marker id="guide-arrow" viewBox="0 0 16 16" refX="5" refY="5" markerWidth="4" markerHeight="4" orient="auto-start-reverse"><path d="M 0 0 L 10 5 L 0 10 z" fill="inherit"/></marker></defs>
<g class="strokes"><path pathLength="3333" clip-path="url(#z25942c1)" d="M207 281L491 234"/><path pathLength="3333" clip-path="url(#z25942c2)" d="M317 83L369 125L353 376"/><path pathLength="3333" clip-path="url(#z25942c3)" d="M157 423L498 366"/><path pathLength="3333" clip-path="url(#z25942c4)" d="M283 431L341 467L353 507"/><path pathLength="3333" clip-path="url(#z25942c5)" d="M78 579L463 506"/><path pathLength="3333" clip-path="url(#z25942c6)" d="M339 596L410 607L435 645L387 788L320 876L255 830"/><path pathLength="3333" clip-path="url(#z25942c7)" d="M291 553L315 587L275 657L183 776L97 847"/><path pathLength="3333" clip-path="url(#z25942c8)" d="M617 104L668 158L595 351L498 515"/><path pathLength="3333" clip-path="url(#z25942c9)" d="M581 428L857 384"/><path pathLength="3333" clip-path="url(#z25942c10)" d="M658 449L700 484L649 696L571 781L474 830"/><path pathLength="3333" clip-path="url(#z25942c11)" d="M519 561L794 832L979 875"/></g>
<g class="guides"><text class="g1" style="--gs:1" x="207" y="281">①</text><path class="g1 aligned" style="--gs:1" d="M207,281 L491,234"/><path class="g1 offset" style="--gs:1" d="M207,377 L491,330"/><text class="g2" style="--gs:2" x="317" y="83">②</text><path class="g2 aligned" style="--gs:2" d="M317,83 Q369,125 367,156.38 Q355,344.63 353,376"/><path class="g2 offset" style="--gs:2" d="M221,83 Q273,125 271,156.38 Q259,344.63 257,376"/><text class="g3" style="--gs:3" x="157" y="423">③</text><path class="g3 aligned" style="--gs:3" d="M157,423 L498,366"/><path class="g3 offset" style="--gs:3" d="M157,519 L498,462"/><text class="g4" style="--gs:4" x="283" y="431">④</text><path class="g4 aligned" style="--gs:4" d="M283,431 L347,487"/><path class="g4 offset" style="--gs:4" d="M368.68,362.46 L432.68,418.46"/><text class="g5" style="--gs:5" x="78" y="579">⑤</text><path class="g5 aligned" style="--gs:5" d="M78,579 L463,506"/><path class="g5 offset" style="--gs:5" d="M78,675 L463,602"/><text class="g6" style="--gs:6" x="339" y="596">⑥</text><path class="g6 aligned" style="--gs:6" d="M339,596 Q410,607 422.5,626 Q435,645 411,716.5 Q387,788 353.5,832 Q320,876 287.5,853 Q287.5,853 255,830"/><path class="g6 offset" style="--gs:6" d="M243,692 Q278.5,697.5 284.75,707 Q291,716.5 279,752.25 Q267,788 250.25,810 Q233.5,832 217.25,820.5 Q217.25,820.5 201,809"/><text class="g7" style="--gs:7" x="291" y="553">⑦</text><path class="g7 aligned" style="--gs:7" d="M303,570 Q275,657 252,686.75 Q183,776 161.5,793.75 Q118.5,829.25 97,847"/><path class="g7 offset" style="--gs:7" d="M207,570 Q193,626.85 181.5,646.29 Q147,704.61 136.25,716.2 Q114.75,739.4 104,751"/><text class="g8" style="--gs:8" x="617" y="104">⑧</text><path class="g8 aligned" style="--gs:8" d="M617,104 Q668,158 649.75,206.25 Q595,351 570.75,392 Q522.25,474 498,515"/><path class="g8 offset" style="--gs:8" d="M521,104 Q572,158 553.75,206.25 Q499,351 474.75,392 Q426.25,474 402,515"/><text class="g9" style="--gs:9" x="581" y="428">⑨</text><path class="g9 aligned" style="--gs:9" d="M581,428 L857,384"/><path class="g9 offset" style="--gs:9" d="M581,524 L857,480"/><text class="g10" style="--gs:10" x="658" y="449">⑩</text><path class="g10 aligned" style="--gs:10" d="M658,449 Q700,484 674.5,590 Q649,696 610,738.5 Q571,781 522.5,805.5 Q522.5,805.5 474,830"/><path class="g10 offset" style="--gs:10" d="M562,449 Q586.16,475.18 571.49,554.47 Q556.82,633.76 534.39,665.56 Q511.96,697.35 484.06,715.67 Q484.06,715.67 456.16,734"/><text class="g11" style="--gs:11" x="519" y="561">⑪</text><path class="g11 aligned" style="--gs:11" d="M519,561 Q794,832 817.13,837.38 Q955.88,869.63 979,875"/><path class="g11 offset" style="--gs:11" d="M604.68,492.46 Q828.46,739.76 847.28,744.66 Q960.18,774.09 979,779"/></g>
</svg>
