<!--
  Stroke-order data for 斌, derived from AnimCJK (https://github.com/parsimonhi/animCJK),
  itself derived from the Arphic PL KaitiM fonts. Distributed under the Arphic Public License
  (see ARPHICPL.TXT). Regenerated by scripts/build-strokes.ts — do not edit by hand.
-->
<svg id="z25996" class="acjk" viewBox="0 0 1024 1024" xmlns="http://www.w3.org/2000/svg">
<g class="glyph"><path id="z25996d1" d="M246 165Q234 162 230 169Q226 176 235 188Q283 260 318 275Q325 276 332 274Q336 270 342 253Q346 237 342 220Q330 190 274 174Q255 167 246 165Z"/><path id="z25996d2" d="M322 406Q334 402 350 399Q390 387 396 382Q403 375 399 367Q392 357 365 350Q341 347 254 378Q172 402 95 414Q62 421 86 435Q128 456 176 441Q224 429 276 417C307 410 307 410 322 406Z"/><path id="z25996d3" d="M297 617Q303 605 336 499Q340 472 354 450Q364 434 349 425Q334 412 322 406C308 398 270 402 276 417Q297 469 257 585C242 617 242 617 235 633Q189 709 118 750Q103 760 89 770Q76 777 87 781Q135 785 210 728Q246 701 266 670C287 635 287 635 297 617Z"/><path id="z25996d4" d="M266 670Q323 736 331 740Q338 741 345 734Q355 724 348 686Q344 658 297 617C270 596 270 596 257 585Q230 558 148 509Q141 505 138 515Q137 525 145 535Q188 578 235 633C256 658 256 658 266 670Z"/><path id="z25996d5" d="M436 305Q403 315 429 327Q465 339 538 319Q562 312 591 302Q607 296 610 294Q617 285 612 278Q605 268 577 265Q561 265 485 293Q463 300 436 305Z"/><path id="z25996d6" d="M713 412Q813 387 823 378Q832 371 827 363Q820 353 794 346Q758 340 704 365C673 376 673 376 658 381Q496 423 408 434Q374 440 399 455Q435 476 491 462Q495 461 501 461C528 454 528 454 542 451Q603 436 666 422C697 415 697 415 713 412Z"/><path id="z25996d7" d="M501 461Q511 477 515 573Q516 627 519 727C519 742 561 729 561 714Q562 653 564 602C565 585 565 585 565 576Q569 474 567 471Q554 459 542 451C530 444 496 448 501 461Z"/><path id="z25996d8" d="M564 602Q568 602 575 601Q630 588 670 580Q692 574 682 563Q670 550 646 549Q606 549 565 576C558 580 555 602 564 602Z"/><path id="z25996d9" d="M462 743Q453 617 457 585Q458 564 446 553Q424 537 399 530Q386 526 378 532Q371 538 378 551Q394 579 403 609Q409 637 425 754C428 767 462 756 462 743Z"/><path id="z25996d10" d="M519 727Q491 734 462 743C437 750 437 750 425 754Q362 770 338 770Q326 771 324 780Q323 793 331 800Q352 815 381 832Q391 835 401 827Q434 802 637 718Q665 706 685 692Q697 685 697 677Q693 673 681 674Q623 693 561 714C533 723 533 723 519 727Z"/><path id="z25996d11" d="M666 422Q711 671 801 802Q820 841 883 904Q887 910 894 915Q924 940 939 941Q954 944 963 931Q972 921 964 875Q957 812 965 730Q969 699 959 697Q950 696 941 722Q911 824 892 811Q856 787 802 690Q745 579 713 412C707 381 707 381 704 365Q677 191 683 134Q698 95 668 76Q664 72 659 70Q637 54 623 53Q610 53 609 54Q585 60 604 84Q608 85 621 128Q628 159 635 199Q642 289 658 381C663 408 663 408 666 422Z"/><path id="z25996d12" d="M756 201Q746 200 743 205Q739 212 747 221Q804 296 842 306Q849 307 854 304Q858 300 862 285Q865 270 860 256Q850 226 786 209Q767 202 756 201Z"/></g>
<defs><clipPath id="z25996c1"><use href="#z25996d1"/></clipPath>
	<clipPath id="z25996c2"><use href="#z25996d2"/></clipPath>
	<clipPath id="z25996c3"><use href="#z25996d3"/></clipPath>
	<clipPath id="z25996c4"><use href="#z25996d4"/></clipPath>
	<clipPath id="z25996c5"><use href="#z25996d5"/></clipPath>
	<clipPath id="z25996c6"><use href="#z25996d6"/></clipPath>
	<clipPath id="z25996c7"><use href="#z25996d7"/></clipPath>
	<clipPath id="z25996c8"><use href="#z25996d8"/></clipPath>
	<clipPath id="z25996c9"><use href="#z25996d9"/></clipPath>
	<clipPath id="z25996c10"><use href="#z25996d10"/></clipPath>
	<clipPath id="z25996c11"><use href="#z25996d11"/></clipPath>
	<clipPath id="z25996c12"><use href="#z25996d12"/></clipPath><marker id="guide-arrow" viewBox="0 0 16 16" refX="5" refY="5" markerWidth="4" markerHeight="4" orient="auto-start-reverse"><path d="M 0 0 L 10 5 L 0 10 z" fill="inherit"/></marker></defs>
<g class="strokes"><path pathLength="3333" clip-path="url(#z25996c1)" d="M238 174L335 263"/><path pathLength="3333" clip-path="url(#z25996c2)" d="M83 422L157 424L394 365"/><path pathLength="3333" clip-path="url(#z25996c3)" d="M282 411L320 444L263 629L190 719L89 774"/><path pathLength="3333" clip-path="url(#z25996c4)" d="M145 516L295 656L335 734"/><path pathLength="3333" clip-path="url(#z25996c5)" d="M425 317L610 282"/><path pathLength="3333" clip-path="url(#z25996c6)" d="M397 442L465 446L823 370"/><path pathLength="3333" clip-path="url(#z25996c7)" d="M509 460L539 496L537 730"/><path pathLength="3333" clip-path="url(#z25996c8)" d="M564 594L676 568"/><path pathLength="3333" clip-path="url(#z25996c9)" d="M383 539L425 576L446 755"/><path pathLength="3333" clip-path="url(#z25996c10)" d="M330 781L390 797L689 680"/><path pathLength="3333" clip-path="url(#z25996c11)" d="M602 63L653 111L696 454L785 719L848 816L926 890L956 704"/><path pathLength="3333" clip-path="url(#z25996c12)" d="M750 210L857 292"/></g>
<g class="guides"><text class="g1" style="--gs:1" x="238" y="174">①</text><path class="g1 aligned" style="--gs:1" d="M238,174 L335,263"/><path class="g1 offset" style="--gs:1" d="M323.68,105.46 L420.68,194.46"/><text class="g2" style="--gs:2" x="83" y="422">②</text><path class="g2 aligned" style="--gs:2" d="M83,422 Q157,424 186.63,416.63 Q364.38,372.38 394,365"/><path class="g2 offset" style="--gs:2" d="M83,518 Q157,520 186.63,512.63 Q364.38,468.38 394,461"/><text class="g3" style="--gs:3" x="282" y="411">③</text><path class="g3 aligned" style="--gs:3" d="M282,411 Q320,444 291.5,536.5 Q263,629 226.5,674 Q190,719 139.5,746.5 Q139.5,746.5 89,774"/><path class="g3 offset" style="--gs:3" d="M186,411 Q208.21,435.27 191.55,503.31 Q174.9,571.35 153.56,604.45 Q132.23,637.55 102.72,657.77 Q102.72,657.77 73.21,678"/><text class="g4" style="--gs:4" x="145" y="516">④</text><path class="g4 aligned" style="--gs:4" d="M145,516 Q295,656 300,665.75 Q330,724.25 335,734"/><path class="g4 offset" style="--gs:4" d="M230.68,447.46 Q380.68,587.46 385.68,597.21 Q415.68,655.71 420.68,665.46"/><text class="g5" style="--gs:5" x="425" y="317">⑤</text><path class="g5 aligned" style="--gs:5" d="M425,317 L610,282"/><path class="g5 offset" style="--gs:5" d="M425,413 L610,378"/><text class="g6" style="--gs:6" x="397" y="442">⑥</text><path class="g6 aligned" style="--gs:6" d="M397,442 Q465,446 509.75,436.5 Q778.25,379.5 823,370"/><path class="g6 offset" style="--gs:6" d="M397,538 Q465,542 509.75,532.5 Q778.25,475.5 823,466"/><text class="g7" style="--gs:7" x="509" y="460">⑦</text><path class="g7 aligned" style="--gs:7" d="M509,460 Q539,496 538.75,525.25 Q537.25,700.75 537,730"/><path class="g7 offset" style="--gs:7" d="M413,460 Q443,496 442.75,525.25 Q441.25,700.75 441,730"/><text class="g8" style="--gs:8" x="564" y="594">⑧</text><path class="g8 aligned" style="--gs:8" d="M564,594 L676,568"/><path class="g8 offset" style="--gs:8" d="M564,690 L676,664"/><text class="g9" style="--gs:9" x="383" y="539">⑨</text><path class="g9 aligned" style="--gs:9" d="M383,539 Q425,576 427.63,598.38 Q443.38,732.63 446,755"/><path class="g9 offset" style="--gs:9" d="M468.68,470.46 Q510.68,507.46 513.3,529.83 Q529.05,664.08 531.68,686.46"/><text class="g10" style="--gs:10" x="330" y="781">⑩</text><path class="g10 aligned" style="--gs:10" d="M330,781 Q390,797 427.38,782.38 Q651.63,694.63 689,680"/><path class="g10 offset" style="--gs:10" d="M330,877 Q390,893 427.38,878.38 Q651.63,790.63 689,776"/><text class="g11" style="--gs:11" x="602" y="63">⑪</text><path class="g11 aligned" style="--gs:11" d="M602,63 Q653,111 674.5,282.5 Q696,454 740.5,586.5 Q785,719 816.5,767.5 Q848,816 887,853 Q926,890 941,797 Q941,797 956,704"/><path class="g11 offset" style="--gs:11" d="M670.54,-5.54 Q697.84,42.46 709.35,213.96 Q720.85,385.46 744.67,517.96 Q768.48,650.46 785.34,698.96 Q802.2,747.46 823.07,784.46 Q843.94,821.46 851.97,728.46 Q851.97,728.46 860,635.46"/><text class="g12" style="--gs:12" x="750" y="210">⑫</text><path class="g12 aligned" style="--gs:12" d="M750,210 L857,292"/><path class="g12 offset" style="--gs:12" d="M835.68,141.46 L942.68,223.46"/></g>
</svg>
