<!--
  Stroke-order data for 斗, derived from AnimCJK (https://github.com/parsimonhi/animCJK),
  itself derived from the Arphic PL KaitiM fonts. Distributed under the Arphic Public License
  (see ARPHICPL.TXT). Regenerated by scripts/build-strokes.ts — do not edit by hand.
-->
<svg id="z26007" class="acjk" viewBox="0 0 1024 1024" xmlns="http://www.w3.org/2000/svg">
<g class="glyph"><path id="z26007d1" d="M368 217C390 232 414 250 438 270C448 278 458 281 469 280C477 279 482 274 485 264C487 253 483 238 476 218C467 196 428 179 359 168C348 166 340 165 336 169C333 171 331 177 334 187C335 194 348 203 368 217Z"/><path id="z26007d2" d="M334 392C355 407 377 424 400 444C409 451 418 455 430 455C436 454 442 449 445 440C448 429 445 414 438 395C430 374 392 356 326 344C315 342 307 342 304 345C300 346 299 353 301 362C302 369 315 378 334 392Z"/><path id="z26007d3" d="M615 547C713 537 813 532 917 542C935 543 947 542 951 535C956 524 953 515 945 507C922 486 894 469 862 455C851 450 836 453 817 458C767 470 699 484 615 494C575 499 575 499 555 501C498 507 371 525 276 536C226 541 165 549 91 551C80 551 74 555 74 564C73 572 80 582 95 593C107 602 125 611 150 620C157 623 168 619 182 615C239 594 350 573 555 553C595 549 595 549 615 547Z"/><path id="z26007d4" d="M555 553C555 771 555 885 556 895C556 933 559 961 571 976C580 987 590 984 597 969C609 941 615 800 615 547C615 529 614 599 615 494C615 349 619 243 623 177C624 153 632 132 644 111C650 99 643 86 629 75C610 60 584 49 553 42C538 38 527 42 517 52C509 58 510 65 520 74C540 91 553 113 554 139C556 217 555 338 555 501C555 518 555 535 555 553Z"/></g>
<defs><clipPath id="z26007c1"><use href="#z26007d1"/></clipPath>
	<clipPath id="z26007c2"><use href="#z26007d2"/></clipPath>
	<clipPath id="z26007c3"><use href="#z26007d3"/></clipPath>
	<clipPath id="z26007c4"><use href="#z26007d4"/></clipPath><marker id="guide-arrow" viewBox="0 0 16 16" refX="5" refY="5" markerWidth="4" markerHeight="4" orient="auto-start-reverse"><path d="M 0 0 L 10 5 L 0 10 z" fill="inherit"/></marker></defs>
<g class="strokes"><path pathLength="3333" clip-path="url(#z26007c1)" d="M341 177L439 227L478 271"/><path pathLength="3333" clip-path="url(#z26007c2)" d="M310 354L438 446"/><path pathLength="3333" clip-path="url(#z26007c3)" d="M77 562L159 584L832 495L949 524"/><path pathLength="3333" clip-path="url(#z26007c4)" d="M516 60L598 112L582 977"/></g>
<g class="guides"><text class="g1" style="--gs:1" x="341" y="177">①</text><path class="g1 aligned" style="--gs:1" d="M341,177 Q439,227 443.88,232.5 Q473.13,265.5 478,271"/><path class="g1 offset" style="--gs:1" d="M426.68,108.46 Q524.68,158.46 529.55,163.96 Q558.8,196.96 563.68,202.46"/><text class="g2" style="--gs:2" x="310" y="354">②</text><path class="g2 aligned" style="--gs:2" d="M310,354 L438,446"/><path class="g2 offset" style="--gs:2" d="M395.68,285.46 L523.68,377.46"/><text class="g3" style="--gs:3" x="77" y="562">③</text><path class="g3 aligned" style="--gs:3" d="M77,562 Q159,584 327.25,561.75 Q832,495 861.25,502.25 Q919.75,516.75 949,524"/><path class="g3 offset" style="--gs:3" d="M77,658 Q159,680 327.25,657.75 Q832,591 861.25,598.25 Q919.75,612.75 949,620"/><text class="g4" style="--gs:4" x="516" y="60">④</text><path class="g4 aligned" style="--gs:4" d="M516,60 Q598,112 596,220.13 Q584,868.88 582,977"/><path class="g4 offset" style="--gs:4" d="M420,60 Q502,112 500,220.13 Q488,868.88 486,977"/></g>
</svg>
