<!--
  Stroke-order data for 斡, derived from AnimCJK (https://github.com/parsimonhi/animCJK),
  itself derived from the Arphic PL KaitiM fonts. Distributed under the Arphic Public License
  (see ARPHICPL.TXT). Regenerated by scripts/build-strokes.ts — do not edit by hand.
-->
<svg id="z26017" class="acjk" viewBox="0 0 1024 1024" xmlns="http://www.w3.org/2000/svg">
<g class="glyph"><path style="--part:1" id="z26017d1" d="M347 220Q467 187 468 186Q475 179 471 171Q464 161 437 154Q415 151 357 172C318 184 318 184 299 190Q250 202 191 210Q158 217 182 231Q215 247 286 234Q290 233 296 232C330 224 330 224 347 220Z"/><path style="--part:1" id="z26017d2" d="M328 309Q338 263 347 220C354 188 354 188 357 172Q358 151 378 105Q382 95 365 80Q335 59 314 53Q301 49 292 55Q285 62 290 76Q303 98 302 113Q301 150 299 190C297 218 297 218 296 232Q292 272 287 318C285 332 325 323 328 309Z"/><path style="--part:1" id="z26017d3" d="M186 342Q174 338 145 332Q135 328 131 333Q124 339 133 354Q161 415 177 515Q180 545 197 565Q213 586 218 571Q222 561 222 544C221 530 221 530 221 523Q220 514 219 506Q215 482 211 463C208 448 208 448 207 441Q200 390 198 371C196 361 196 344 186 342Z"/><path style="--part:1" id="z26017d4" d="M356 524Q371 546 385 554Q395 561 408 542Q420 520 446 404Q453 376 473 354Q483 344 474 331Q461 316 422 294Q410 288 333 307Q330 307 328 309C301 315 301 315 287 318Q265 322 241 329Q211 336 186 342C176 344 188 375 198 371Q256 352 359 333Q383 329 391 336Q401 349 400 363Q381 472 373 489Q369 498 360 502C354 506 352 518 356 524Z"/><path style="--part:1" id="z26017d5" d="M211 463Q214 463 223 462Q290 447 341 438Q362 434 353 423Q343 410 320 408Q293 407 207 441C200 444 204 463 211 463Z"/><path style="--part:1" id="z26017d6" d="M313 530Q334 526 356 524C363 523 366 506 360 502Q353 496 341 495Q316 494 221 523C214 525 215 544 222 544Q223 544 227 544Q251 540 275 536C300 532 300 532 313 530Z"/><path style="--part:1" id="z26017d7" d="M326 651Q374 638 437 627Q453 623 455 616Q455 603 436 594Q405 582 328 606C296 614 296 614 280 618Q124 655 64 664Q51 665 48 674Q45 684 61 696Q103 723 145 707Q223 677 279 663C310 655 310 655 326 651Z"/><path style="--part:1" id="z26017d8" d="M279 663Q279 754 266 795Q253 843 301 893C302 894 302 894 303 894Q313 895 318 884Q330 856 327 828Q326 731 326 651C327 621 327 621 328 606Q329 575 332 559Q333 549 328 542Q321 535 313 530C302 523 271 524 275 536Q281 551 280 618C279 648 279 648 279 663Z"/><path style="--part:1" id="z26017d9" d="M672 181Q693 138 711 120Q718 110 714 98Q710 88 683 69Q659 54 642 55Q626 58 634 77Q647 101 639 123Q615 196 576 265Q537 331 484 405Q477 414 474 420Q473 430 484 427Q536 411 651 220Q655 211 661 202C668 188 668 188 672 181Z"/><path style="--part:1" id="z26017d10" d="M661 202Q680 241 813 391Q829 407 855 404Q940 397 967 390Q974 387 976 383Q976 379 965 373Q848 331 781 276Q732 236 676 184Q675 181 672 181C666 176 657 195 661 202Z"/><path style="--part:2" id="z26017d11" d="M563 446Q584 459 605 477Q615 484 627 483Q634 482 637 472Q640 460 630 440Q621 419 555 412Q545 411 540 414Q536 417 539 426Q542 433 563 446Z"/><path style="--part:2" id="z26017d12" d="M538 536Q557 549 577 567Q587 576 599 575Q606 574 609 564Q612 552 604 532Q600 519 577 510Q520 498 516 502Q512 505 514 514Q517 521 538 536Z"/><path style="--part:2" id="z26017d13" d="M722 643Q789 634 889 634Q908 633 912 625Q916 613 901 601Q847 565 789 583Q759 589 722 599C687 606 687 606 670 609Q661 610 652 612Q561 628 451 647Q432 650 446 665Q459 677 477 682Q496 686 511 681Q580 660 669 649C704 645 704 645 722 643Z"/><path style="--part:2" id="z26017d14" d="M670 935Q676 960 682 969Q688 976 695 974Q713 962 716 907Q716 889 722 643C722 614 722 614 722 599Q722 449 736 397Q739 379 725 370Q694 348 678 346Q665 342 650 350Q641 357 648 368Q669 413 671 489Q671 541 670 609C669 636 669 636 669 649Q663 868 670 935Z"/></g>
<defs><clipPath id="z26017c1"><use href="#z26017d1"/></clipPath>
	<clipPath id="z26017c2"><use href="#z26017d2"/></clipPath>
	<clipPath id="z26017c3"><use href="#z26017d3"/></clipPath>
	<clipPath id="z26017c4"><use href="#z26017d4"/></clipPath>
	<clipPath id="z26017c5"><use href="#z26017d5"/></clipPath>
	<clipPath id="z26017c6"><use href="#z26017d6"/></clipPath>
	<clipPath id="z26017c7"><use href="#z26017d7"/></clipPath>
	<clipPath id="z26017c8"><use href="#z26017d8"/></clipPath>
	<clipPath id="z26017c9"><use href="#z26017d9"/></clipPath>
	<clipPath id="z26017c10"><use href="#z26017d10"/></clipPath>
	<clipPath id="z26017c11"><use href="#z26017d11"/></clipPath>
	<clipPath id="z26017c12"><use href="#z26017d12"/></clipPath>
	<clipPath id="z26017c13"><use href="#z26017d13"/></clipPath>
	<clipPath id="z26017c14"><use href="#z26017d14"/></clipPath><marker id="guide-arrow" viewBox="0 0 16 16" refX="5" refY="5" markerWidth="4" markerHeight="4" orient="auto-start-reverse"><path d="M 0 0 L 10 5 L 0 10 z" fill="inherit"/></marker></defs>
<g class="strokes"><path style="--part:1" pathLength="3333" clip-path="url(#z26017c1)" d="M180 219L467 176"/><path style="--part:1" pathLength="3333" clip-path="url(#z26017c2)" d="M296 60L340 106L294 310"/><path style="--part:1" pathLength="3333" clip-path="url(#z26017c3)" d="M136 338L172 380L206 572"/><path style="--part:1" pathLength="3333" clip-path="url(#z26017c4)" d="M193 344L394 313L435 339L380 548"/><path style="--part:1" pathLength="3333" clip-path="url(#z26017c5)" d="M220 456L347 426"/><path style="--part:1" pathLength="3333" clip-path="url(#z26017c6)" d="M225 536L356 513"/><path style="--part:1" pathLength="3333" clip-path="url(#z26017c7)" d="M51 674L116 684L449 608"/><path style="--part:1" pathLength="3333" clip-path="url(#z26017c8)" d="M283 545L306 577L304 890"/><path style="--part:1" pathLength="3333" clip-path="url(#z26017c9)" d="M641 62L677 115L588 284L482 422"/><path style="--part:1" pathLength="3333" clip-path="url(#z26017c10)" d="M678 191L843 364L968 380"/><path style="--part:2" pathLength="3333" clip-path="url(#z26017c11)" d="M548 422L627 479"/><path style="--part:2" pathLength="3333" clip-path="url(#z26017c12)" d="M518 509L600 568"/><path style="--part:2" pathLength="3333" clip-path="url(#z26017c13)" d="M450 658L815 606L909 619"/><path style="--part:2" pathLength="3333" clip-path="url(#z26017c14)" d="M652 356L698 394L691 968"/></g>
<g class="guides"><text class="g1" style="--gs:1" x="180" y="219">①</text><path class="g1 aligned" style="--gs:1" d="M180,219 L467,176"/><path class="g1 offset" style="--gs:1" d="M180,315 L467,272"/><text class="g2" style="--gs:2" x="296" y="60">②</text><path class="g2 aligned" style="--gs:2" d="M296,60 Q340,106 334.25,131.5 Q299.75,284.5 294,310"/><path class="g2 offset" style="--gs:2" d="M200,60 Q244,106 238.25,131.5 Q203.75,284.5 198,310"/><text class="g3" style="--gs:3" x="136" y="338">③</text><path class="g3 aligned" style="--gs:3" d="M136,338 Q172,380 176.25,404 Q201.75,548 206,572"/><path class="g3 offset" style="--gs:3" d="M221.68,269.46 Q257.68,311.46 261.93,335.46 Q287.43,479.46 291.68,503.46"/><text class="g4" style="--gs:4" x="193" y="344">④</text><path class="g4 aligned" style="--gs:4" d="M193,344 Q394,313 404.25,319.5 Q435,339 421.25,391.25 Q393.75,495.75 380,548"/><path class="g4 offset" style="--gs:4" d="M193,440 Q294.33,409 299.5,415.5 Q315,435 308.07,463.25 Q294.2,519.75 287.27,548"/><text class="g5" style="--gs:5" x="220" y="456">⑤</text><path class="g5 aligned" style="--gs:5" d="M220,456 L347,426"/><path class="g5 offset" style="--gs:5" d="M220,552 L347,522"/><text class="g6" style="--gs:6" x="225" y="536">⑥</text><path class="g6 aligned" style="--gs:6" d="M225,536 L356,513"/><path class="g6 offset" style="--gs:6" d="M225,632 L356,609"/><text class="g7" style="--gs:7" x="51" y="674">⑦</text><path class="g7 aligned" style="--gs:7" d="M51,674 Q116,684 157.63,674.5 Q407.38,617.5 449,608"/><path class="g7 offset" style="--gs:7" d="M51,770 Q116,780 157.63,770.5 Q407.38,713.5 449,704"/><text class="g8" style="--gs:8" x="283" y="545">⑧</text><path class="g8 aligned" style="--gs:8" d="M295,561 L304,890"/><path class="g8 offset" style="--gs:8" d="M415,561 L424,890"/><text class="g9" style="--gs:9" x="641" y="62">⑨</text><path class="g9 aligned" style="--gs:9" d="M641,62 Q677,115 654.75,157.25 Q588,284 561.5,318.5 Q508.5,387.5 482,422"/><path class="g9 offset" style="--gs:9" d="M545,62 Q563.28,100.87 551.98,131.85 Q518.09,224.8 504.64,250.1 Q477.73,300.7 464.28,326"/><text class="g10" style="--gs:10" x="678" y="191">⑩</text><path class="g10 aligned" style="--gs:10" d="M678,191 Q843,364 858.63,366 Q952.38,378 968,380"/><path class="g10 offset" style="--gs:10" d="M763.68,122.46 Q879.93,270.32 890.94,272.03 Q956.99,282.29 968,284"/><text class="g11" style="--gs:11" x="548" y="422">⑪</text><path class="g11 aligned" style="--gs:11" d="M548,422 L627,479"/><path class="g11 offset" style="--gs:11" d="M633.68,353.46 L712.68,410.46"/><text class="g12" style="--gs:12" x="518" y="509">⑫</text><path class="g12 aligned" style="--gs:12" d="M518,509 L600,568"/><path class="g12 offset" style="--gs:12" d="M603.68,440.46 L685.68,499.46"/><text class="g13" style="--gs:13" x="450" y="658">⑬</text><path class="g13 aligned" style="--gs:13" d="M450,658 Q815,606 826.75,607.63 Q897.25,617.38 909,619"/><path class="g13 offset" style="--gs:13" d="M450,754 Q815,702 826.75,703.63 Q897.25,713.38 909,715"/><text class="g14" style="--gs:14" x="652" y="356">⑭</text><path class="g14 aligned" style="--gs:14" d="M652,356 Q698,394 697.13,465.75 Q691.88,896.25 691,968"/><path class="g14 offset" style="--gs:14" d="M556,356 Q602,394 601.13,465.75 Q595.88,896.25 595,968"/></g>
<g class="parts"><rect data-part="1" data-literal="倝" role="button" tabindex="0" aria-label="Part 倝" x="0" y="0" width="1024" height="962"/><rect data-part="2" data-literal="斗" data-radical="true" role="button" tabindex="0" aria-label="Part 斗 (radical)" x="378" y="284" width="603" height="740"/></g>
</svg>
