<!--
  Stroke-order data for 旗, derived from AnimCJK (https://github.com/parsimonhi/animCJK),
  itself derived from the Arphic PL KaitiM fonts. Distributed under the Arphic Public License
  (see ARPHICPL.TXT). Regenerated by scripts/build-strokes.ts — do not edit by hand.
-->
<svg id="z26071" class="acjk" viewBox="0 0 1024 1024" xmlns="http://www.w3.org/2000/svg">
<g class="glyph"><path id="z26071d1" d="M286 159C305 174 324 192 345 211C354 219 365 223 377 223C383 222 389 217 393 208C396 197 394 181 387 161C379 140 343 122 279 109C268 106 260 106 256 109C251 111 250 117 253 127C255 133 267 143 286 159Z"/><path id="z26071d2" d="M291 370C329 360 376 349 430 340C440 338 445 334 446 330C446 322 441 314 430 310C412 302 395 301 382 305C247 339 147 362 83 371C75 372 70 374 69 380C67 386 70 394 81 401C104 416 133 419 164 409C197 398 225 386 252 380C278 373 278 373 291 370Z"/><path id="z26071d3" d="M287 480C291 484 301 489 316 492C332 495 345 500 351 512C358 527 346 582 317 676C305 712 294 737 284 751C278 758 271 763 262 767C254 769 239 766 219 757C196 746 184 742 182 746C179 750 183 756 192 765C214 786 227 809 233 831C235 841 240 848 247 852C255 856 269 852 289 838C305 825 325 800 342 763C356 730 365 686 378 636C391 582 402 548 418 538C424 534 429 531 430 526C431 520 424 509 411 494C397 478 369 469 330 463C313 460 304 456 301 456C292 454 280 474 287 480Z"/><path id="z26071d4" d="M301 456C307 445 314 437 320 430C325 423 325 414 320 405C311 388 301 377 291 370C280 362 252 367 252 380C252 472 182 586 42 721C38 724 36 727 36 732C36 734 37 737 41 737C101 728 180 646 278 495C281 489 284 484 287 480C296 464 296 464 301 456Z"/><path id="z26071d5" d="M574 192C599 156 612 130 622 120C627 114 627 107 624 100C621 93 612 83 596 73C581 63 568 59 558 60C547 61 544 68 550 80C559 98 550 137 520 197C505 225 488 255 468 286C463 292 460 296 459 300C456 306 459 308 468 307C473 305 512 280 560 212C569 199 569 199 574 192Z"/><path id="z26071d6" d="M560 212C590 228 621 230 657 222C766 195 824 183 828 179C832 174 834 168 831 163C826 156 814 149 796 146C776 142 742 151 694 167C656 179 616 186 574 192C566 194 553 208 560 212Z"/><path id="z26071d7" d="M771 385C812 377 849 364 855 360C859 355 860 350 858 346C854 339 843 332 827 329C810 325 793 328 777 334C740 345 740 345 722 351C671 366 637 376 591 383C559 388 559 388 543 390C523 392 503 393 484 396C463 399 459 406 475 416C496 429 521 434 548 429C575 423 575 423 588 420C630 410 675 402 722 394C755 388 755 388 771 385Z"/><path id="z26071d8" d="M591 383C592 368 593 357 595 351C598 338 595 327 587 319C574 306 559 298 543 292C534 288 527 288 522 292C517 295 516 301 520 311C530 335 539 361 543 390C546 416 546 416 548 429C550 445 548 548 548 666C548 678 584 673 584 661C584 661 584 625 584 607C584 590 584 590 584 581C584 557 584 535 585 515C586 497 586 497 586 488C587 458 586 435 588 420C590 395 590 395 591 383Z"/><path id="z26071d9" d="M753 637C759 549 761 464 771 385C775 351 775 351 777 334C778 322 782 301 792 271C794 264 789 255 776 247C754 233 735 227 721 224C710 221 703 223 698 229C693 234 692 241 698 250C713 274 719 286 721 305C722 317 722 335 722 351C722 380 722 380 722 394C722 472 718 578 714 643C714 656 753 650 753 637Z"/><path id="z26071d10" d="M585 515C600 513 660 499 689 494C703 491 707 486 701 479C694 470 683 465 668 464C644 462 616 470 586 488C578 493 576 517 585 515Z"/><path id="z26071d11" d="M584 607C598 605 621 598 693 586C707 583 711 578 705 571C698 562 687 557 672 556C646 554 616 562 584 581C577 585 576 609 584 607Z"/><path id="z26071d12" d="M548 666C501 672 453 676 404 683C391 684 389 691 398 701C406 710 416 716 428 719C440 722 452 722 463 720C569 692 724 677 928 677C940 677 948 674 951 669C954 662 951 653 941 645C906 617 867 613 826 623C804 628 779 632 753 637C727 641 727 641 714 643C694 646 607 657 584 661C560 664 560 664 548 666Z"/><path id="z26071d13" d="M530 746C518 787 465 845 366 916C352 925 353 928 371 928C413 927 475 896 551 827C555 822 568 807 598 785C606 778 609 771 608 764C606 755 596 748 581 742C562 734 549 730 542 732C537 732 532 737 530 746Z"/><path id="z26071d14" d="M706 766C738 802 775 844 813 895C822 908 830 918 841 921C845 922 851 919 857 914C865 906 866 888 861 860C858 845 853 831 844 821C832 808 812 794 784 778C752 759 727 746 710 737C703 733 700 734 699 743C698 751 700 759 706 766Z"/></g>
<defs><clipPath id="z26071c1"><use href="#z26071d1"/></clipPath>
	<clipPath id="z26071c2"><use href="#z26071d2"/></clipPath>
	<clipPath id="z26071c3"><use href="#z26071d3"/></clipPath>
	<clipPath id="z26071c4"><use href="#z26071d4"/></clipPath>
	<clipPath id="z26071c5"><use href="#z26071d5"/></clipPath>
	<clipPath id="z26071c6"><use href="#z26071d6"/></clipPath>
	<clipPath id="z26071c7"><use href="#z26071d7"/></clipPath>
	<clipPath id="z26071c8"><use href="#z26071d8"/></clipPath>
	<clipPath id="z26071c9"><use href="#z26071d9"/></clipPath>
	<clipPath id="z26071c10"><use href="#z26071d10"/></clipPath>
	<clipPath id="z26071c11"><use href="#z26071d11"/></clipPath>
	<clipPath id="z26071c12"><use href="#z26071d12"/></clipPath>
	<clipPath id="z26071c13"><use href="#z26071d13"/></clipPath>
	<clipPath id="z26071c14"><use href="#z26071d14"/></clipPath><marker id="guide-arrow" viewBox="0 0 16 16" refX="5" refY="5" markerWidth="4" markerHeight="4" orient="auto-start-reverse"><path d="M 0 0 L 10 5 L 0 10 z" fill="inherit"/></marker></defs>
<g class="strokes"><path pathLength="3333" clip-path="url(#z26071c1)" d="M258 115L354 173L380 217"/><path pathLength="3333" clip-path="url(#z26071c2)" d="M73 383L130 389L439 326"/><path pathLength="3333" clip-path="url(#z26071c3)" d="M289 469L364 491L391 528L330 718L290 790L255 810L189 753"/><path pathLength="3333" clip-path="url(#z26071c4)" d="M259 377L285 425L221 542L45 729"/><path pathLength="3333" clip-path="url(#z26071c5)" d="M554 64L589 107L466 299"/><path pathLength="3333" clip-path="url(#z26071c6)" d="M567 208L825 169"/><path pathLength="3333" clip-path="url(#z26071c7)" d="M473 406L543 410L851 350"/><path pathLength="3333" clip-path="url(#z26071c8)" d="M526 299L567 355L563 670"/><path pathLength="3333" clip-path="url(#z26071c9)" d="M701 236L755 280L726 646"/><path pathLength="3333" clip-path="url(#z26071c10)" d="M582 507L696 485"/><path pathLength="3333" clip-path="url(#z26071c11)" d="M582 599L702 575"/><path pathLength="3333" clip-path="url(#z26071c12)" d="M402 691L873 647L948 660"/><path pathLength="3333" clip-path="url(#z26071c13)" d="M543 736L560 776L471 862L367 921"/><path pathLength="3333" clip-path="url(#z26071c14)" d="M706 741L813 838L850 913"/></g>
<g class="guides"><text class="g1" style="--gs:1" x="258" y="115">①</text><path class="g1 aligned" style="--gs:1" d="M258,115 Q354,173 357.25,178.5 Q376.75,211.5 380,217"/><path class="g1 offset" style="--gs:1" d="M343.68,46.46 Q439.68,104.46 442.93,109.96 Q462.43,142.96 465.68,148.46"/><text class="g2" style="--gs:2" x="73" y="383">②</text><path class="g2 aligned" style="--gs:2" d="M73,383 Q130,389 168.63,381.13 Q400.38,333.88 439,326"/><path class="g2 offset" style="--gs:2" d="M73,479 Q130,485 168.63,477.13 Q400.38,429.88 439,422"/><text class="g3" style="--gs:3" x="289" y="469">③</text><path class="g3 aligned" style="--gs:3" d="M289,469 Q364,491 377.5,509.5 Q391,528 360.5,623 Q330,718 310,754 Q290,790 272.5,800 Q255,810 222,781.5 Q222,781.5 189,753"/><path class="g3 offset" style="--gs:3" d="M193,565 Q230.5,576 237.25,585.25 Q244,594.5 228.75,642 Q213.5,689.5 203.5,707.5 Q193.5,725.5 184.75,730.5 Q176,735.5 159.5,721.25 Q159.5,721.25 143,707"/><text class="g4" style="--gs:4" x="259" y="377">④</text><path class="g4 aligned" style="--gs:4" d="M259,377 Q285,425 269,454.25 Q221,542 177,588.75 Q89,682.25 45,729"/><path class="g4 offset" style="--gs:4" d="M163,377 Q176,411.91 168,433.18 Q144,497 122,531 Q78,599 56,633"/><text class="g5" style="--gs:5" x="554" y="64">⑤</text><path class="g5 aligned" style="--gs:5" d="M554,64 Q589,107 573.63,131 Q481.38,275 466,299"/><path class="g5 offset" style="--gs:5" d="M458,64 Q475.5,89.43 467.81,103.63 Q421.69,188.8 414,203"/><text class="g6" style="--gs:6" x="567" y="208">⑥</text><path class="g6 aligned" style="--gs:6" d="M567,208 L825,169"/><path class="g6 offset" style="--gs:6" d="M567,304 L825,265"/><text class="g7" style="--gs:7" x="473" y="406">⑦</text><path class="g7 aligned" style="--gs:7" d="M473,406 Q543,410 581.5,402.5 Q812.5,357.5 851,350"/><path class="g7 offset" style="--gs:7" d="M473,502 Q543,506 581.5,498.5 Q812.5,453.5 851,446"/><text class="g8" style="--gs:8" x="526" y="299">⑧</text><path class="g8 aligned" style="--gs:8" d="M526,299 Q567,355 566.5,394.38 Q563.5,630.63 563,670"/><path class="g8 offset" style="--gs:8" d="M430,299 Q471,355 470.5,394.38 Q467.5,630.63 467,670"/><text class="g9" style="--gs:9" x="701" y="236">⑨</text><path class="g9 aligned" style="--gs:9" d="M701,236 Q755,280 751.38,325.75 Q729.63,600.25 726,646"/><path class="g9 offset" style="--gs:9" d="M605,236 Q659,280 655.38,325.75 Q633.63,600.25 630,646"/><text class="g10" style="--gs:10" x="582" y="507">⑩</text><path class="g10 aligned" style="--gs:10" d="M582,507 L696,485"/><path class="g10 offset" style="--gs:10" d="M582,603 L696,581"/><text class="g11" style="--gs:11" x="582" y="599">⑪</text><path class="g11 aligned" style="--gs:11" d="M582,599 L702,575"/><path class="g11 offset" style="--gs:11" d="M582,695 L702,671"/><text class="g12" style="--gs:12" x="402" y="691">⑫</text><path class="g12 aligned" style="--gs:12" d="M402,691 Q873,647 882.38,648.63 Q938.63,658.38 948,660"/><path class="g12 offset" style="--gs:12" d="M402,787 Q873,743 882.38,744.63 Q938.63,754.38 948,756"/><text class="g13" style="--gs:13" x="543" y="736">⑬</text><path class="g13 aligned" style="--gs:13" d="M543,736 Q560,776 537.75,797.5 Q471,862 445,876.75 Q393,906.25 367,921"/><path class="g13 offset" style="--gs:13" d="M447,736 Q455.5,756 444.38,766.75 Q411,799 398,806.38 Q372,821.13 359,828.5"/><text class="g14" style="--gs:14" x="706" y="741">⑭</text><path class="g14 aligned" style="--gs:14" d="M706,741 Q813,838 817.63,847.38 Q845.38,903.63 850,913"/><path class="g14 offset" style="--gs:14" d="M791.68,672.46 Q898.68,769.46 903.31,778.83 Q931.06,835.08 935.68,844.46"/></g>
</svg>
