<!--
  Stroke-order data for 旭, derived from AnimCJK (https://github.com/parsimonhi/animCJK),
  itself derived from the Arphic PL KaitiM fonts. Distributed under the Arphic Public License
  (see ARPHICPL.TXT). Regenerated by scripts/build-strokes.ts — do not edit by hand.
-->
<svg id="z26093" class="acjk" viewBox="0 0 1024 1024" xmlns="http://www.w3.org/2000/svg">
<g class="glyph"><path id="z26093d1" d="M337 332C344 298 346 246 362 179C363 172 364 165 368 160C374 149 376 139 371 131C361 117 343 107 322 96C308 88 298 83 289 88C280 91 277 100 282 110C293 132 300 165 297 210C291 256 285 305 278 348C273 375 273 375 271 388C245 532 182 676 80 819C60 845 50 860 49 865C46 873 48 876 57 875C74 872 114 834 173 758C192 732 210 703 228 670C274 578 305 477 329 369C334 344 334 344 337 332Z"/><path id="z26093d2" d="M329 369C353 360 376 355 396 352C406 349 412 348 415 352C418 356 417 363 415 373C366 572 368 711 419 789C454 843 525 879 631 894C760 911 867 892 952 844C964 836 969 825 964 810C952 775 942 731 938 679C936 667 934 662 930 663C927 663 923 668 920 680C903 741 889 781 873 796C851 815 805 824 740 829C663 834 597 826 538 804C485 784 454 755 437 719C425 694 417 658 422 606C426 549 441 486 466 417C476 386 490 362 509 347C518 338 523 330 522 323C521 316 499 305 458 286C448 281 439 282 428 291C405 307 375 321 337 332C298 343 298 343 278 348C192 371 130 380 96 382C87 382 83 385 85 395C86 401 96 410 113 420C131 430 152 430 175 422C208 408 240 397 271 388C310 375 310 375 329 369Z"/><path id="z26093d3" d="M590 288C579 280 567 274 555 272C549 270 544 273 541 278C539 280 541 284 545 292C566 340 574 425 558 545C552 583 543 608 547 620C552 640 559 653 566 661C572 668 578 668 585 660C591 651 594 643 599 625C601 615 602 605 604 595C606 571 607 539 607 472C607 453 607 453 607 444C607 378 608 336 610 319C612 307 600 295 590 288Z"/><path id="z26093d4" d="M749 615C755 642 764 663 775 681C792 711 810 693 822 666C831 642 837 617 836 590C824 417 825 322 841 302C847 294 846 287 841 281C830 269 808 256 776 242C765 237 755 238 746 243C710 259 658 274 590 288C578 290 598 321 610 319C698 302 756 286 766 293C781 305 783 398 776 546C775 561 773 583 766 597C763 605 747 607 749 615Z"/><path id="z26093d5" d="M607 472C624 474 655 463 727 455C741 453 746 446 741 439C734 430 723 424 707 422C683 418 649 426 607 444C598 447 598 472 607 472Z"/><path id="z26093d6" d="M599 625C614 633 636 620 749 615C757 615 771 603 766 597C762 592 755 586 746 580C737 574 723 573 706 577C669 583 633 589 604 595C594 597 590 621 599 625Z"/></g>
<defs><clipPath id="z26093c1"><use href="#z26093d1"/></clipPath>
	<clipPath id="z26093c2"><use href="#z26093d2"/></clipPath>
	<clipPath id="z26093c3"><use href="#z26093d3"/></clipPath>
	<clipPath id="z26093c4"><use href="#z26093d4"/></clipPath>
	<clipPath id="z26093c5"><use href="#z26093d5"/></clipPath>
	<clipPath id="z26093c6"><use href="#z26093d6"/></clipPath><marker id="guide-arrow" viewBox="0 0 16 16" refX="5" refY="5" markerWidth="4" markerHeight="4" orient="auto-start-reverse"><path d="M 0 0 L 10 5 L 0 10 z" fill="inherit"/></marker></defs>
<g class="strokes"><path pathLength="3333" clip-path="url(#z26093c1)" d="M286 93L334 153L277 474L176 712L53 868"/><path pathLength="3333" clip-path="url(#z26093c2)" d="M95 392L168 398L423 319L469 340L417 483L403 678L445 779L537 838L705 865L874 839L928 794L930 671"/><path pathLength="3333" clip-path="url(#z26093c3)" d="M548 281L584 337L575 660"/><path pathLength="3333" clip-path="url(#z26093c4)" d="M594 293L762 265L808 296L785 689"/><path pathLength="3333" clip-path="url(#z26093c5)" d="M609 464L736 442"/><path pathLength="3333" clip-path="url(#z26093c6)" d="M600 616L762 597"/></g>
<g class="guides"><text class="g1" style="--gs:1" x="286" y="93">①</text><path class="g1 aligned" style="--gs:1" d="M286,93 Q334,153 305.5,313.5 Q277,474 226.5,593 Q176,712 114.5,790 Q114.5,790 53,868"/><path class="g1 offset" style="--gs:1" d="M190,93 Q221.6,145.57 202.84,286.19 Q184.07,426.81 150.83,531.06 Q117.58,635.32 77.09,703.66 Q77.09,703.66 36.6,772"/><text class="g2" style="--gs:2" x="95" y="392">②</text><path class="g2 aligned" style="--gs:2" d="M95,392 Q168,398 295.5,358.5 Q423,319 446,329.5 Q469,340 443,411.5 Q417,483 410,580.5 Q403,678 424,728.5 Q445,779 491,808.5 Q537,838 621,851.5 Q705,865 789.5,852 Q874,839 901,816.5 Q928,794 929,732.5 Q929,732.5 930,671"/><path class="g2 offset" style="--gs:2" d="M95,488 Q157.51,491.89 266.69,466.28 Q375.86,440.67 395.56,447.48 Q415.25,454.29 392.99,500.64 Q370.72,547 364.73,610.21 Q358.74,673.43 376.72,706.17 Q394.7,738.91 434.09,758.04 Q473.48,777.16 545.41,785.92 Q617.34,794.67 689.69,786.24 Q762.05,777.81 785.17,763.23 Q808.29,748.64 809.14,708.76 Q809.14,708.76 810,668.89"/><text class="g3" style="--gs:3" x="548" y="281">③</text><path class="g3 aligned" style="--gs:3" d="M548,281 Q584,337 582.88,377.38 Q576.13,619.63 575,660"/><path class="g3 offset" style="--gs:3" d="M452,281 Q488,337 486.88,377.38 Q480.13,619.63 479,660"/><text class="g4" style="--gs:4" x="594" y="293">④</text><path class="g4 aligned" style="--gs:4" d="M594,293 Q762,265 773.5,272.75 Q808,296 802.25,394.25 Q790.75,590.75 785,689"/><path class="g4 offset" style="--gs:4" d="M594,389 Q678,361 683.75,367 Q701,384.98 698.13,460.99 Q692.38,613 689.5,689"/><text class="g5" style="--gs:5" x="609" y="464">⑤</text><path class="g5 aligned" style="--gs:5" d="M609,464 L736,442"/><path class="g5 offset" style="--gs:5" d="M609,560 L736,538"/><text class="g6" style="--gs:6" x="600" y="616">⑥</text><path class="g6 aligned" style="--gs:6" d="M600,616 L762,597"/><path class="g6 offset" style="--gs:6" d="M600,712 L762,693"/></g>
</svg>
