<svg id="z26132" class="acjk" viewBox="0 0 1024 1024" xmlns="http://www.w3.org/2000/svg">
<style>

@keyframes zk {
	to {
		stroke-dashoffset:0;
	}
}
svg.acjk path[clip-path] {
	--t:0.8s;
	animation:zk var(--t) linear forwards var(--d);
	stroke-dasharray:3337;
	stroke-dashoffset:3339;
	stroke-width:128;
	stroke-linecap:round;
	fill:none;
	stroke:#000;
}
svg.acjk path[id] {fill:#ccc;}


    @keyframes guide-fade {
        0% { opacity: 0; }
        3% { opacity: 1; }
        95% { opacity: 1; }
        100% { opacity: 0; }
    }

    svg.acjk #guide-arrow {
        fill: #f77;
    }

    svg.acjk .guides {
        circle {
            fill: #0f6;
        }

        path {
            opacity: 0;
            animation: guide-fade var(--t) linear forwards var(--d);
            stroke-width: 16px;
            stroke-linecap: round;
            stroke: #f77;
            fill: none;
            marker-end: url(#guide-arrow);
        }

        circle,
        path {
            --t: 0.8s;
            opacity: 0;
            animation: guide-fade calc(var(--t) + 0.4s) ease-in-out forwards calc(var(--d) - 0.2s);
        }
    }
</style>
<path id="z26132d1" d="M634 288C717 275 761 263 769 258C775 253 777 246 774 241C769 231 756 224 737 218C711 210 682 218 645 228C607 238 607 238 588 243C534 257 457 268 433 271C398 274 398 274 381 276C352 278 323 278 293 281C266 282 261 291 280 305C309 324 344 328 386 323C417 319 417 319 433 317C481 310 530 303 581 296C616 291 616 291 634 288Z"/>
<path id="z26132d2" d="M433 271C433 223 435 193 437 181C439 165 433 152 424 144C407 131 390 120 371 114C360 109 352 110 346 115C340 119 338 126 344 138C363 175 375 221 381 276C384 307 384 307 386 323C389 355 391 400 395 452C395 466 438 461 438 447C435 398 433 355 433 317C433 286 433 286 433 271Z"/>
<path id="z26132d3" d="M606 426C616 378 625 332 634 288C641 248 641 248 645 228C648 210 655 174 676 122C678 115 674 105 663 95C641 77 621 68 606 64C594 61 587 61 582 66C576 70 575 78 580 89C590 111 594 128 595 143C596 160 592 208 588 243C583 278 583 278 581 296C575 338 570 384 562 432C559 447 603 441 606 426Z"/>
<path id="z26132d4" d="M395 452C305 462 211 472 115 483C98 484 94 491 108 505C128 527 156 536 187 529C357 486 585 462 871 462C887 462 903 462 922 463C937 463 947 460 951 454C955 445 952 433 939 424C899 393 864 382 836 388C775 399 698 413 606 426C577 430 577 430 562 432C545 434 462 444 438 447C409 450 409 450 395 452Z"/>
<path id="z26132d5" d="M379 583C365 572 349 563 334 560C327 558 322 560 319 566C316 569 319 573 323 581C344 620 346 702 335 798C330 837 324 854 325 870C326 890 338 904 345 913C351 920 358 920 365 912C371 903 375 892 380 876C383 863 385 851 386 839C386 819 388 793 388 739C388 719 388 719 388 709C388 664 389 633 391 616C393 604 388 590 379 583Z"/>
<path id="z26132d6" d="M596 865C609 898 622 961 650 961C662 960 673 948 684 925C696 898 697 867 695 836C692 792 686 732 683 655C682 633 687 615 700 600C706 591 706 582 700 576C687 561 661 547 627 530C613 523 603 524 592 530C544 553 473 569 379 583C368 585 380 618 391 616C407 615 457 604 574 583C590 579 603 580 612 587C618 592 625 662 623 793C622 809 620 832 610 845C606 852 593 857 596 865Z"/>
<path id="z26132d7" d="M388 739C398 743 447 739 536 726C546 724 571 722 578 716C582 711 584 706 582 702C578 695 568 686 552 685C517 681 497 691 388 709C378 711 378 737 388 739Z"/>
<path id="z26132d8" d="M380 876C386 876 394 877 402 876C438 870 519 865 596 865C604 865 615 851 610 845C605 839 597 830 584 822C573 814 556 813 534 818C481 828 426 835 386 839C374 841 368 876 380 876Z"/>
<defs>
	<clipPath id="z26132c1"><use href="#z26132d1"/></clipPath>
	<clipPath id="z26132c2"><use href="#z26132d2"/></clipPath>
	<clipPath id="z26132c3"><use href="#z26132d3"/></clipPath>
	<clipPath id="z26132c4"><use href="#z26132d4"/></clipPath>
	<clipPath id="z26132c5"><use href="#z26132d5"/></clipPath>
	<clipPath id="z26132c6"><use href="#z26132d6"/></clipPath>
	<clipPath id="z26132c7"><use href="#z26132d7"/></clipPath>
	<clipPath id="z26132c8"><use href="#z26132d8"/></clipPath>
<marker id="guide-arrow" viewBox="0 0 16 16" refX="5" refY="5" markerWidth="4" markerHeight="4" orient="auto-start-reverse"><path d="M 0 0 L 10 5 L 0 10 z" fill="inherit"/></marker></defs>
<path style="--d:1s;" pathLength="3333" clip-path="url(#z26132c1)" d="M276 289L389 299L769 245"/>
<path style="--d:2s;" pathLength="3333" clip-path="url(#z26132c2)" d="M347 122L399 174L412 458"/>
<path style="--d:3s;" pathLength="3333" clip-path="url(#z26132c3)" d="M583 68L635 124L574 438"/>
<path style="--d:4s;" pathLength="3333" clip-path="url(#z26132c4)" d="M107 490L187 502L844 424L949 445"/>
<path style="--d:5s;" pathLength="3333" clip-path="url(#z26132c5)" d="M325 566L363 616L355 911"/>
<path style="--d:6s;" pathLength="3333" clip-path="url(#z26132c6)" d="M381 589L605 553L648 576L648 956"/>
<path style="--d:7s;" pathLength="3333" clip-path="url(#z26132c7)" d="M386 728L578 708"/>
<path style="--d:8s;" pathLength="3333" clip-path="url(#z26132c8)" d="M382 867L537 841L605 853"/>
<g class="guides"><circle style="--d: 1s" class="g1" cx="276" cy="289" r="16"/><path style="--d: 1s;" class="g1" d="M276,385 Q389,395 436.5,388.25 Q721.5,347.75 769,341"/><circle style="--d: 2s" class="g2" cx="347" cy="122" r="16"/><path style="--d: 2s;" class="g2" d="M432.68,53.456 Q484.68,105.456 486.305,140.95600000000002 Q496.055,353.956 497.68,389.456"/><circle style="--d: 3s" class="g3" cx="583" cy="68" r="16"/><path style="--d: 3s;" class="g3" d="M487,68 Q539,124 531.375,163.25 Q485.625,398.75 478,438"/><circle style="--d: 4s" class="g4" cx="107" cy="490" r="16"/><path style="--d: 4s;" class="g4" d="M107,586 Q187,598 351.25,578.5 Q844,520 870.25,525.25 Q922.75,535.75 949,541"/><circle style="--d: 5s" class="g5" cx="325" cy="566" r="16"/><path style="--d: 5s;" class="g5" d="M229,566 Q267,616 266,652.875 Q260,874.125 259,911"/><circle style="--d: 6s" class="g6" cx="381" cy="589" r="16"/><path style="--d: 6s;" class="g6" d="M381,685 Q504.3258426966292,649 510.2443820224719,654.75 Q528,672 528,743 Q528,885 528,956"/><circle style="--d: 7s" class="g7" cx="386" cy="728" r="16"/><path style="--d: 7s;" class="g7" d="M386,824 L578,804"/><circle style="--d: 8s" class="g8" cx="382" cy="867" r="16"/><path style="--d: 8s;" class="g8" d="M382,963 Q537,937 545.5,938.5 Q596.5,947.5 605,949"/></g></svg>