<!--
  Stroke-order data for 晏, derived from AnimCJK (https://github.com/parsimonhi/animCJK),
  itself derived from the Arphic PL KaitiM fonts. Distributed under the Arphic Public License
  (see ARPHICPL.TXT). Regenerated by scripts/build-strokes.ts — do not edit by hand.
-->
<svg id="z26191" class="acjk" viewBox="0 0 1024 1024" xmlns="http://www.w3.org/2000/svg">
<g class="glyph"><path style="--part:1" id="z26191d1" d="M357 114C349 110 333 107 312 104C303 102 299 103 297 107C293 111 294 118 300 129C321 169 339 223 353 291C357 311 363 328 375 341C388 355 396 357 399 346C400 340 401 333 401 327C400 311 400 311 400 303C399 290 392 264 387 237C384 221 384 221 382 213C376 185 372 164 370 150C367 137 369 119 357 114Z"/><path style="--part:1" id="z26191d2" d="M570 308C582 328 593 341 604 347C610 353 619 348 631 334C641 320 656 274 678 199C684 178 695 158 712 142C721 133 723 124 715 115C704 102 685 87 656 69C645 62 614 67 562 76C547 78 479 88 357 114C344 116 357 152 370 150C404 141 490 123 578 111C596 108 609 109 616 117C623 125 625 134 624 144C610 214 598 257 590 275C585 287 562 298 570 308Z"/><path style="--part:1" id="z26191d3" d="M387 237C391 237 395 237 401 237C457 228 507 221 551 215C565 212 570 206 565 199C558 190 547 184 531 181C520 178 470 189 382 213C374 216 379 237 387 237Z"/><path style="--part:1" id="z26191d4" d="M401 327C414 328 524 312 570 308C583 308 602 280 590 275C587 274 585 273 583 273C573 271 512 281 400 303C392 304 393 327 401 327Z"/><path style="--part:2" id="z26191d5" d="M522 403C522 396 521 386 518 375C514 360 490 348 446 338C437 335 431 335 428 337C424 339 424 344 425 351C425 351 443 371 481 409C491 419 522 417 522 403Z"/><path style="--part:2" id="z26191d6" d="M283 435C274 421 266 411 259 407C246 399 239 403 241 419C243 435 240 459 220 487C194 520 189 550 211 585C221 601 231 600 243 582C251 567 259 548 265 526C271 502 276 482 281 468C285 458 290 444 283 435Z"/><path style="--part:2" id="z26191d7" d="M281 468C291 472 312 472 344 464C429 441 538 421 672 412C686 410 698 409 704 412C713 416 715 423 714 428C713 429 703 453 682 498C677 506 676 512 681 515C685 517 693 515 704 509C740 486 772 471 801 464C825 457 836 451 836 446C835 439 812 419 769 386C755 375 742 371 727 374C684 380 598 391 522 403C495 407 495 407 481 409C447 413 311 432 283 435C272 437 270 466 281 468Z"/><path style="--part:2" id="z26191d8" d="M530 804C577 829 634 868 704 919C720 931 735 937 747 937C761 936 768 929 768 917C767 903 756 881 737 852C725 834 667 804 561 765C527 752 527 752 510 746C469 730 434 720 405 714C392 711 389 703 396 691C406 669 417 650 426 635C440 610 440 610 447 598C457 578 463 559 476 548C481 542 485 537 483 531C480 522 466 508 442 488C435 482 428 480 420 482C411 484 409 490 414 501C420 517 414 552 393 604C382 629 382 629 377 642C368 661 356 676 348 691C340 702 338 713 341 721C342 727 349 732 361 735C413 747 453 763 485 780C515 796 515 796 530 804Z"/><path style="--part:2" id="z26191d9" d="M485 780C434 830 373 856 287 874C253 880 235 882 233 884C228 886 229 888 235 893C237 894 244 895 254 896C303 898 345 895 410 879C456 867 497 839 532 804C543 792 552 779 561 765C583 726 604 675 612 651C616 638 620 631 625 619C630 606 624 590 617 578C600 549 583 543 563 544C556 544 553 550 554 558C554 566 556 576 556 586C554 611 554 611 553 623C550 655 541 688 510 746C503 758 494 770 485 780Z"/><path style="--part:2" id="z26191d10" d="M625 619C683 615 750 615 824 618C844 618 864 618 883 619C897 619 906 617 910 611C914 602 911 592 899 583C861 554 829 543 803 548C753 556 691 568 617 578C576 583 576 583 556 586C523 590 487 593 447 598C411 602 411 602 393 604C315 612 232 619 146 629C131 630 128 636 140 649C149 659 161 666 174 670C188 674 201 674 213 672C264 658 319 650 377 642C410 637 410 637 426 635C498 624 541 623 553 623C601 620 601 620 625 619Z"/></g>
<defs><clipPath id="z26191c1"><use href="#z26191d1"/></clipPath>
	<clipPath id="z26191c2"><use href="#z26191d2"/></clipPath>
	<clipPath id="z26191c3"><use href="#z26191d3"/></clipPath>
	<clipPath id="z26191c4"><use href="#z26191d4"/></clipPath>
	<clipPath id="z26191c5"><use href="#z26191d5"/></clipPath>
	<clipPath id="z26191c6"><use href="#z26191d6"/></clipPath>
	<clipPath id="z26191c7"><use href="#z26191d7"/></clipPath>
	<clipPath id="z26191c8"><use href="#z26191d8"/></clipPath>
	<clipPath id="z26191c9"><use href="#z26191d9"/></clipPath>
	<clipPath id="z26191c10"><use href="#z26191d10"/></clipPath><marker id="guide-arrow" viewBox="0 0 16 16" refX="5" refY="5" markerWidth="4" markerHeight="4" orient="auto-start-reverse"><path d="M 0 0 L 10 5 L 0 10 z" fill="inherit"/></marker></defs>
<g class="strokes"><path style="--part:1" pathLength="3333" clip-path="url(#z26191c1)" d="M303 110L345 162L387 347"/><path style="--part:1" pathLength="3333" clip-path="url(#z26191c2)" d="M364 118L607 89L646 101L671 137L591 335"/><path style="--part:1" pathLength="3333" clip-path="url(#z26191c3)" d="M389 218L559 205"/><path style="--part:1" pathLength="3333" clip-path="url(#z26191c4)" d="M405 319L584 281"/><path style="--part:2" pathLength="3333" clip-path="url(#z26191c5)" d="M434 346L510 401"/><path style="--part:2" pathLength="3333" clip-path="url(#z26191c6)" d="M251 407L261 447L224 590"/><path style="--part:2" pathLength="3333" clip-path="url(#z26191c7)" d="M285 462L713 393L756 415L781 454L687 508"/><path style="--part:2" pathLength="3333" clip-path="url(#z26191c8)" d="M419 487L448 540L367 710L633 829L758 928"/><path style="--part:2" pathLength="3333" clip-path="url(#z26191c9)" d="M562 549L589 620L508 790L398 860L238 887"/><path style="--part:2" pathLength="3333" clip-path="url(#z26191c10)" d="M140 636L201 648L789 583L908 605"/></g>
<g class="guides"><text class="g1" style="--gs:1" x="303" y="110">①</text><path class="g1 aligned" style="--gs:1" d="M303,110 Q345,162 350.25,185.13 Q381.75,323.88 387,347"/><path class="g1 offset" style="--gs:1" d="M388.68,41.46 Q430.68,93.46 435.93,116.58 Q467.43,255.33 472.68,278.46"/><text class="g2" style="--gs:2" x="364" y="118">②</text><path class="g2 aligned" style="--gs:2" d="M364,118 Q607,89 626.5,95 Q646,101 658.5,119 Q671,137 631,236 Q631,236 591,335"/><path class="g2 offset" style="--gs:2" d="M364,214 Q512.02,185 523.89,191 Q535.77,197 543.39,205.63 Q551,214.27 526.64,274.63 Q526.64,274.63 502.27,335"/><text class="g3" style="--gs:3" x="389" y="218">③</text><path class="g3 aligned" style="--gs:3" d="M389,218 L559,205"/><path class="g3 offset" style="--gs:3" d="M389,314 L559,301"/><text class="g4" style="--gs:4" x="405" y="319">④</text><path class="g4 aligned" style="--gs:4" d="M405,319 L584,281"/><path class="g4 offset" style="--gs:4" d="M405,415 L584,377"/><text class="g5" style="--gs:5" x="434" y="346">⑤</text><path class="g5 aligned" style="--gs:5" d="M434,346 L510,401"/><path class="g5 offset" style="--gs:5" d="M519.68,277.46 L595.68,332.46"/><text class="g6" style="--gs:6" x="251" y="407">⑥</text><path class="g6 aligned" style="--gs:6" d="M256,427 L224,590"/><path class="g6 offset" style="--gs:6" d="M376,427 L344,590"/><text class="g7" style="--gs:7" x="285" y="462">⑦</text><path class="g7 aligned" style="--gs:7" d="M285,462 Q713,393 734.5,404 Q756,415 768.5,434.5 Q781,454 734,481 Q734,481 687,508"/><path class="g7 offset" style="--gs:7" d="M285,558 Q590.47,489 605.81,500 Q621.16,511 630.08,530.5 Q639,550 605.46,577 Q605.46,577 571.91,604"/><text class="g8" style="--gs:8" x="419" y="487">⑧</text><path class="g8 aligned" style="--gs:8" d="M419,487 Q448,540 407.5,625 Q367,710 500,769.5 Q633,829 695.5,878.5 Q695.5,878.5 758,928"/><path class="g8 offset" style="--gs:8" d="M539,487 Q559.1,528.46 531.03,594.96 Q502.96,661.46 595.14,708 Q687.32,754.55 730.64,793.28 Q730.64,793.28 773.96,832"/><text class="g9" style="--gs:9" x="562" y="549">⑨</text><path class="g9 aligned" style="--gs:9" d="M562,549 Q589,620 548.5,705 Q508,790 453,825 Q398,860 318,873.5 Q318,873.5 238,887"/><path class="g9 offset" style="--gs:9" d="M466,549 Q483.77,599.83 457.12,660.69 Q430.46,721.55 394.26,746.61 Q358.07,771.67 305.42,781.33 Q305.42,781.33 252.77,791"/><text class="g10" style="--gs:10" x="140" y="636">⑩</text><path class="g10 aligned" style="--gs:10" d="M140,636 Q201,648 348,631.75 Q789,583 818.75,588.5 Q878.25,599.5 908,605"/><path class="g10 offset" style="--gs:10" d="M140,732 Q201,744 348,727.75 Q789,679 818.75,684.5 Q878.25,695.5 908,701"/></g>
<g class="parts"><rect data-part="2" data-literal="安" role="button" tabindex="0" aria-label="Part 安" x="68" y="274" width="912" height="726"/><rect data-part="1" data-literal="日" data-radical="true" role="button" tabindex="0" aria-label="Part 日 (radical)" x="231" y="17" width="512" height="402"/></g>
</svg>
