<!--
  Stroke-order data for 智, derived from AnimCJK (https://github.com/parsimonhi/animCJK),
  itself derived from the Arphic PL KaitiM fonts. Distributed under the Arphic Public License
  (see ARPHICPL.TXT). Regenerated by scripts/build-strokes.ts — do not edit by hand.
-->
<svg id="z26234" class="acjk" viewBox="0 0 1024 1024" xmlns="http://www.w3.org/2000/svg">
<g class="glyph"><path style="--part:1" id="z26234d1" d="M303 198C322 168 342 136 361 110C366 101 366 93 357 85C332 64 311 54 295 57C288 57 285 64 286 73C286 184 215 234 169 301C163 309 166 312 175 311C206 304 249 276 290 217C299 204 299 204 303 198Z"/><path style="--part:1" id="z26234d2" d="M396 221Q531 187 536 182Q543 175 539 167Q532 157 505 151Q477 147 451 159Q420 172 385 181Q348 191 303 198C295 200 283 213 290 217Q291 217 294 219Q321 232 351 230C381 224 381 224 396 221Z"/><path style="--part:1" id="z26234d3" d="M393 358C433 349 478 343 528 337C538 335 544 331 545 327C545 318 540 310 529 305C511 296 494 295 480 299C453 304 429 309 407 315C367 324 367 324 347 329C263 348 184 357 113 366C104 367 98 369 97 375C94 381 98 389 109 397C131 412 162 417 200 407C252 392 297 378 336 370C374 362 374 362 393 358Z"/><path style="--part:1" id="z26234d4" d="M336 370C313 452 261 510 203 549C181 563 158 575 141 586C132 590 131 595 140 597C174 601 217 583 267 548C340 496 372 420 393 358C402 329 402 329 407 315C412 297 418 281 428 267C435 256 432 249 424 242C413 232 404 225 396 221C383 213 348 215 351 230C357 250 359 283 347 329C340 356 340 356 336 370Z"/><path style="--part:1" id="z26234d5" d="M417 427C444 462 465 486 483 494C490 497 498 494 504 487C508 480 510 472 509 463C505 442 479 418 431 396C422 392 415 392 410 393C405 393 404 397 405 404C405 410 410 417 417 427Z"/><path style="--part:1" id="z26234d6" d="M605 246C598 242 585 238 566 235C557 233 553 233 551 237C547 241 548 247 553 258C570 296 584 347 594 410C596 428 602 444 613 457C623 470 630 472 634 463C636 456 640 447 639 437C638 426 637 416 636 406C629 363 621 319 617 276C617 265 615 251 605 246Z"/><path style="--part:1" id="z26234d7" d="M801 382C817 331 833 299 850 283C867 265 867 250 851 240C837 231 820 219 802 206C789 197 775 196 762 204C733 219 681 234 605 246C594 248 606 278 617 276C639 273 677 266 731 257C749 253 760 257 766 264C769 268 762 307 744 383C741 402 794 400 801 382Z"/><path style="--part:1" id="z26234d8" d="M639 437C658 437 764 419 816 416C822 415 827 412 828 407C828 402 819 394 801 382C785 372 763 379 744 383C703 391 667 399 636 406C626 408 629 437 639 437Z"/><path style="--part:2" id="z26234d9" d="M401 552C388 543 375 536 361 532C356 530 351 533 347 538C344 540 347 545 351 553C373 598 377 673 359 774C352 808 347 830 350 841C355 861 363 875 370 884C377 892 382 892 389 884C394 876 401 866 404 852C406 840 409 828 410 817C411 786 411 757 413 711C414 693 414 693 414 684C415 633 416 600 419 584C421 572 411 559 401 552Z"/><path style="--part:2" id="z26234d10" d="M607 842C612 873 618 890 632 915C651 950 675 916 685 899C697 874 703 845 701 814C697 769 693 704 690 619C689 598 695 581 706 567C712 558 712 550 706 544C693 531 669 516 636 500C623 494 613 494 603 500C555 522 487 539 401 552C389 554 407 586 419 584C504 566 562 556 592 552C621 548 626 551 631 579C638 613 637 681 631 782C630 793 628 807 620 817C615 825 605 833 607 842Z"/><path style="--part:2" id="z26234d11" d="M413 711C430 712 532 700 585 696C601 694 606 688 601 680C594 669 582 662 566 659C544 654 493 663 414 684C405 687 404 711 413 711Z"/><path style="--part:2" id="z26234d12" d="M404 852C418 854 554 842 607 842C616 842 627 824 620 817C582 784 553 804 410 817C398 817 392 852 404 852Z"/></g>
<defs><clipPath id="z26234c1"><use href="#z26234d1"/></clipPath>
	<clipPath id="z26234c2"><use href="#z26234d2"/></clipPath>
	<clipPath id="z26234c3"><use href="#z26234d3"/></clipPath>
	<clipPath id="z26234c4"><use href="#z26234d4"/></clipPath>
	<clipPath id="z26234c5"><use href="#z26234d5"/></clipPath>
	<clipPath id="z26234c6"><use href="#z26234d6"/></clipPath>
	<clipPath id="z26234c7"><use href="#z26234d7"/></clipPath>
	<clipPath id="z26234c8"><use href="#z26234d8"/></clipPath>
	<clipPath id="z26234c9"><use href="#z26234d9"/></clipPath>
	<clipPath id="z26234c10"><use href="#z26234d10"/></clipPath>
	<clipPath id="z26234c11"><use href="#z26234d11"/></clipPath>
	<clipPath id="z26234c12"><use href="#z26234d12"/></clipPath><marker id="guide-arrow" viewBox="0 0 16 16" refX="5" refY="5" markerWidth="4" markerHeight="4" orient="auto-start-reverse"><path d="M 0 0 L 10 5 L 0 10 z" fill="inherit"/></marker></defs>
<g class="strokes"><path style="--part:1" pathLength="3333" clip-path="url(#z26234c1)" d="M294 65L323 105L307 141L246 238L171 303"/><path style="--part:1" pathLength="3333" clip-path="url(#z26234c2)" d="M292 211L535 169"/><path style="--part:1" pathLength="3333" clip-path="url(#z26234c3)" d="M103 378L171 385L540 318"/><path style="--part:1" pathLength="3333" clip-path="url(#z26234c4)" d="M356 223L394 261L326 452L257 532L143 590"/><path style="--part:1" pathLength="3333" clip-path="url(#z26234c5)" d="M412 402L499 487"/><path style="--part:1" pathLength="3333" clip-path="url(#z26234c6)" d="M557 241L587 266L630 460"/><path style="--part:1" pathLength="3333" clip-path="url(#z26234c7)" d="M607 251L791 240L814 272L760 393"/><path style="--part:1" pathLength="3333" clip-path="url(#z26234c8)" d="M632 420L822 406"/><path style="--part:2" pathLength="3333" clip-path="url(#z26234c9)" d="M352 537L391 584L375 884"/><path style="--part:2" pathLength="3333" clip-path="url(#z26234c10)" d="M405 561L620 524L669 562L653 926"/><path style="--part:2" pathLength="3333" clip-path="url(#z26234c11)" d="M409 700L597 686"/><path style="--part:2" pathLength="3333" clip-path="url(#z26234c12)" d="M399 839L618 822"/></g>
<g class="guides"><text class="g1" style="--gs:1" x="294" y="65">①</text><path class="g1 aligned" style="--gs:1" d="M294,65 Q323,105 315,123 Q307,141 276.5,189.5 Q246,238 208.5,270.5 Q208.5,270.5 171,303"/><path class="g1 offset" style="--gs:1" d="M198,65 Q212.5,88.87 208.5,99.61 Q204.5,110.34 189.25,139.28 Q174,168.22 155.25,187.61 Q155.25,187.61 136.5,207"/><text class="g2" style="--gs:2" x="292" y="211">②</text><path class="g2 aligned" style="--gs:2" d="M292,211 L535,169"/><path class="g2 offset" style="--gs:2" d="M292,307 L535,265"/><text class="g3" style="--gs:3" x="103" y="378">③</text><path class="g3 aligned" style="--gs:3" d="M103,378 Q171,385 217.13,376.63 Q493.88,326.38 540,318"/><path class="g3 offset" style="--gs:3" d="M103,474 Q171,481 217.13,472.63 Q493.88,422.38 540,414"/><text class="g4" style="--gs:4" x="356" y="223">④</text><path class="g4 aligned" style="--gs:4" d="M356,223 Q394,261 360,356.5 Q326,452 291.5,492 Q257,532 200,561 Q200,561 143,590"/><path class="g4 offset" style="--gs:4" d="M260,223 Q283.47,251.06 262.47,321.58 Q241.47,392.1 220.17,421.63 Q198.86,451.17 163.67,472.59 Q163.67,472.59 128.47,494"/><text class="g5" style="--gs:5" x="412" y="402">⑤</text><path class="g5 aligned" style="--gs:5" d="M412,402 L499,487"/><path class="g5 offset" style="--gs:5" d="M497.68,333.46 L584.68,418.46"/><text class="g6" style="--gs:6" x="557" y="241">⑥</text><path class="g6 aligned" style="--gs:6" d="M572,254 L630,460"/><path class="g6 offset" style="--gs:6" d="M692,254 L750,460"/><text class="g7" style="--gs:7" x="607" y="251">⑦</text><path class="g7 aligned" style="--gs:7" d="M607,251 Q791,240 796.75,248 Q814,272 800.5,302.25 Q773.5,362.75 760,393"/><path class="g7 offset" style="--gs:7" d="M607,347 Q699,336 701.88,340 Q710.5,352 703.75,367.13 Q690.25,397.38 683.5,412.5"/><text class="g8" style="--gs:8" x="632" y="420">⑧</text><path class="g8 aligned" style="--gs:8" d="M632,420 L822,406"/><path class="g8 offset" style="--gs:8" d="M632,516 L822,502"/><text class="g9" style="--gs:9" x="352" y="537">⑨</text><path class="g9 aligned" style="--gs:9" d="M352,537 Q391,584 389,621.5 Q377,846.5 375,884"/><path class="g9 offset" style="--gs:9" d="M256,537 Q295,584 293,621.5 Q281,846.5 279,884"/><text class="g10" style="--gs:10" x="405" y="561">⑩</text><path class="g10 aligned" style="--gs:10" d="M405,561 Q620,524 632.25,533.5 Q669,562 665,653 Q657,835 653,926"/><path class="g10 offset" style="--gs:10" d="M405,657 Q522.27,620 528.95,627.23 Q549,648.93 546.82,718.19 Q542.45,856.73 540.27,926"/><text class="g11" style="--gs:11" x="409" y="700">⑪</text><path class="g11 aligned" style="--gs:11" d="M409,700 L597,686"/><path class="g11 offset" style="--gs:11" d="M409,796 L597,782"/><text class="g12" style="--gs:12" x="399" y="839">⑫</text><path class="g12 aligned" style="--gs:12" d="M399,839 L618,822"/><path class="g12 offset" style="--gs:12" d="M399,935 L618,918"/></g>
<g class="parts"><rect data-part="1" data-literal="知" role="button" tabindex="0" aria-label="Part 知" x="31" y="0" width="863" height="662"/><rect data-part="2" data-literal="日" data-radical="true" role="button" tabindex="0" aria-label="Part 日 (radical)" x="280" y="452" width="461" height="546"/></g>
</svg>
