<!--
  Stroke-order data for 曆, derived from AnimCJK (https://github.com/parsimonhi/animCJK),
  itself derived from the Arphic PL KaitiM fonts. Distributed under the Arphic Public License
  (see ARPHICPL.TXT). Regenerated by scripts/build-strokes.ts — do not edit by hand.
-->
<svg id="z26310" class="acjk" viewBox="0 0 1024 1024" xmlns="http://www.w3.org/2000/svg">
<g class="glyph"><path style="--part:1" id="z26310d1" d="M318 160C338 168 372 170 418 165C508 153 599 142 693 129C739 122 765 114 773 109C779 104 781 98 778 92C773 83 761 75 743 70C723 63 678 73 606 91C535 107 410 129 307 129C296 129 308 156 318 160Z"/><path style="--part:1" id="z26310d2" d="M307 129C296 120 282 113 266 105C252 98 242 94 233 99C224 103 221 111 227 121C241 143 249 174 246 217C239 451 167 669 47 856C44 860 41 864 40 869C37 876 41 882 48 878C130 819 165 754 205 669C252 565 287 426 302 254C305 210 311 173 318 160C322 150 316 136 307 129Z"/><path style="--part:1" id="z26310d3" d="M433 277C457 269 497 255 525 245C532 242 540 240 542 237C543 232 541 225 536 221C521 209 508 201 497 197C482 193 470 190 465 207C458 228 419 249 332 296C328 298 330 303 333 304C340 304 364 297 403 286C423 280 423 280 433 277Z"/><path style="--part:1" id="z26310d4" d="M459 376C483 370 517 369 535 356C539 352 540 348 538 344C535 339 527 334 513 331C498 327 484 331 471 336C438 347 438 347 422 352C397 359 354 366 325 370C308 372 305 379 318 386C347 401 361 398 397 390C438 381 438 381 459 376Z"/><path style="--part:1" id="z26310d5" d="M457 408C457 397 457 386 459 376C464 351 464 351 466 339C473 298 484 292 433 277C423 273 398 277 403 286C413 304 421 325 422 352C423 395 423 395 423 416C424 488 415 536 415 560C414 601 440 629 452 581C459 554 451 509 456 428C457 415 457 415 457 408Z"/><path style="--part:1" id="z26310d6" d="M397 390C373 436 331 491 273 558C268 562 270 565 276 567C278 567 282 565 289 562C353 525 411 443 423 416C440 387 412 360 397 390Z"/><path style="--part:1" id="z26310d7" d="M456 428C496 454 518 468 527 468C533 467 538 462 539 454C539 447 535 440 529 433C516 416 493 408 457 408C450 408 451 424 456 428Z"/><path style="--part:1" id="z26310d8" d="M677 248C695 240 727 229 754 221C769 216 774 204 763 195C746 181 732 171 718 168C704 164 686 160 686 179C685 196 645 225 568 271C563 273 565 280 569 280C600 273 621 268 648 259C667 252 667 252 677 248Z"/><path style="--part:1" id="z26310d9" d="M705 352C749 340 796 337 844 336C852 335 858 332 861 328C863 322 860 315 851 310C829 297 805 293 780 298C755 302 730 313 708 319C680 326 680 326 666 329C635 336 603 343 571 351C561 353 560 357 569 365C597 389 624 372 653 365C688 356 688 356 705 352Z"/><path style="--part:1" id="z26310d10" d="M703 365C703 360 704 356 705 352C707 330 707 330 708 319C712 264 734 269 677 248C667 244 643 250 648 259C658 277 665 300 666 329C667 388 667 388 668 418C669 467 663 502 663 521C662 564 690 593 701 534C705 512 700 437 702 392C703 374 703 374 703 365Z"/><path style="--part:1" id="z26310d11" d="M653 365C629 421 579 482 506 549C499 554 499 559 504 559C572 550 629 477 668 418C694 374 672 317 653 365Z"/><path style="--part:1" id="z26310d12" d="M702 392C734 436 770 483 815 532C822 540 835 543 849 542C911 535 944 529 948 523C949 520 945 517 939 515C844 480 826 475 703 365C697 359 697 385 702 392Z"/><path style="--part:2" id="z26310d13" d="M419 636C406 627 392 619 378 616C372 614 367 617 363 623C361 625 365 629 368 638C384 695 391 771 374 840C369 856 369 870 373 882C379 902 385 916 393 925C399 932 406 932 413 924C417 917 423 909 425 899C427 888 430 877 431 866C433 825 434 793 434 774C434 757 434 757 434 749C434 710 435 684 437 670C440 657 429 644 419 636Z"/><path style="--part:2" id="z26310d14" d="M664 885C668 905 674 929 693 967C712 1008 733 966 742 951C754 926 761 898 760 867C758 830 754 779 752 712C751 691 757 673 769 658C775 649 775 641 770 635C757 621 734 606 699 589C686 582 676 582 666 587C606 611 523 627 419 636C406 638 424 672 437 670C469 666 537 654 640 638C660 634 675 638 685 646C695 654 697 708 694 809C693 832 692 866 675 868C669 871 663 878 664 885Z"/><path style="--part:2" id="z26310d15" d="M434 774C449 782 569 765 628 761C644 759 650 753 645 744C638 733 626 725 608 722C591 718 533 728 434 749C426 750 426 772 434 774Z"/><path style="--part:2" id="z26310d16" d="M425 899C440 901 513 892 664 885C671 885 679 873 675 868C632 822 610 851 431 866C420 866 414 899 425 899Z"/></g>
<defs><clipPath id="z26310c1"><use href="#z26310d1"/></clipPath>
	<clipPath id="z26310c2"><use href="#z26310d2"/></clipPath>
	<clipPath id="z26310c3"><use href="#z26310d3"/></clipPath>
	<clipPath id="z26310c4"><use href="#z26310d4"/></clipPath>
	<clipPath id="z26310c5"><use href="#z26310d5"/></clipPath>
	<clipPath id="z26310c6"><use href="#z26310d6"/></clipPath>
	<clipPath id="z26310c7"><use href="#z26310d7"/></clipPath>
	<clipPath id="z26310c8"><use href="#z26310d8"/></clipPath>
	<clipPath id="z26310c9"><use href="#z26310d9"/></clipPath>
	<clipPath id="z26310c10"><use href="#z26310d10"/></clipPath>
	<clipPath id="z26310c11"><use href="#z26310d11"/></clipPath>
	<clipPath id="z26310c12"><use href="#z26310d12"/></clipPath>
	<clipPath id="z26310c13"><use href="#z26310d13"/></clipPath>
	<clipPath id="z26310c14"><use href="#z26310d14"/></clipPath>
	<clipPath id="z26310c15"><use href="#z26310d15"/></clipPath>
	<clipPath id="z26310c16"><use href="#z26310d16"/></clipPath><marker id="guide-arrow" viewBox="0 0 16 16" refX="5" refY="5" markerWidth="4" markerHeight="4" orient="auto-start-reverse"><path d="M 0 0 L 10 5 L 0 10 z" fill="inherit"/></marker></defs>
<g class="strokes"><path style="--part:1" pathLength="3333" clip-path="url(#z26310c1)" d="M312 138L424 143L773 91"/><path style="--part:1" pathLength="3333" clip-path="url(#z26310c2)" d="M231 106L281 162L240 474L169 684L46 872"/><path style="--part:1" pathLength="3333" clip-path="url(#z26310c3)" d="M479 198L493 233L339 298"/><path style="--part:1" pathLength="3333" clip-path="url(#z26310c4)" d="M318 377L534 346"/><path style="--part:1" pathLength="3333" clip-path="url(#z26310c5)" d="M410 284L445 312L437 601"/><path style="--part:1" pathLength="3333" clip-path="url(#z26310c6)" d="M415 381L361 477L279 562"/><path style="--part:1" pathLength="3333" clip-path="url(#z26310c7)" d="M460 418L532 459"/><path style="--part:1" pathLength="3333" clip-path="url(#z26310c8)" d="M697 169L712 212L573 273"/><path style="--part:1" pathLength="3333" clip-path="url(#z26310c9)" d="M572 357L854 321"/><path style="--part:1" pathLength="3333" clip-path="url(#z26310c10)" d="M656 257L689 285L680 562"/><path style="--part:1" pathLength="3333" clip-path="url(#z26310c11)" d="M669 355L612 465L509 552"/><path style="--part:1" pathLength="3333" clip-path="url(#z26310c12)" d="M703 374L838 509L940 521"/><path style="--part:2" pathLength="3333" clip-path="url(#z26310c13)" d="M370 625L407 673L403 923"/><path style="--part:2" pathLength="3333" clip-path="url(#z26310c14)" d="M422 642L675 611L725 642L708 978"/><path style="--part:2" pathLength="3333" clip-path="url(#z26310c15)" d="M432 763L642 749"/><path style="--part:2" pathLength="3333" clip-path="url(#z26310c16)" d="M424 888L671 873"/></g>
<g class="guides"><text class="g1" style="--gs:1" x="312" y="138">①</text><path class="g1 aligned" style="--gs:1" d="M312,138 Q424,143 467.63,136.5 Q729.38,97.5 773,91"/><path class="g1 offset" style="--gs:1" d="M312,234 Q424,239 467.63,232.5 Q729.38,193.5 773,187"/><text class="g2" style="--gs:2" x="231" y="106">②</text><path class="g2 aligned" style="--gs:2" d="M231,106 Q281,162 260.5,318 Q240,474 204.5,579 Q169,684 107.5,778 Q107.5,778 46,872"/><path class="g2 offset" style="--gs:2" d="M135,106 Q164.57,154.98 152.45,291.43 Q140.32,427.88 119.33,519.72 Q98.33,611.56 61.95,693.78 Q61.95,693.78 25.57,776"/><text class="g3" style="--gs:3" x="479" y="198">③</text><path class="g3 aligned" style="--gs:3" d="M486,216 L339,298"/><path class="g3 offset" style="--gs:3" d="M486,312 L339,394"/><text class="g4" style="--gs:4" x="318" y="377">④</text><path class="g4 aligned" style="--gs:4" d="M318,377 L534,346"/><path class="g4 offset" style="--gs:4" d="M318,473 L534,442"/><text class="g5" style="--gs:5" x="410" y="284">⑤</text><path class="g5 aligned" style="--gs:5" d="M410,284 Q445,312 444,348.13 Q438,564.88 437,601"/><path class="g5 offset" style="--gs:5" d="M314,284 Q349,312 348,348.13 Q342,564.88 341,601"/><text class="g6" style="--gs:6" x="415" y="381">⑥</text><path class="g6 aligned" style="--gs:6" d="M415,381 Q361,477 350.75,487.63 Q289.25,551.38 279,562"/><path class="g6 offset" style="--gs:6" d="M319,381 Q292,429 286.88,434.31 Q256.13,466.19 251,471.5"/><text class="g7" style="--gs:7" x="460" y="418">⑦</text><path class="g7 aligned" style="--gs:7" d="M460,418 L532,459"/><path class="g7 offset" style="--gs:7" d="M460,514 L532,555"/><text class="g8" style="--gs:8" x="697" y="169">⑧</text><path class="g8 aligned" style="--gs:8" d="M697,169 Q712,212 694.63,219.63 Q590.38,265.38 573,273"/><path class="g8 offset" style="--gs:8" d="M601,169 Q608.5,190.5 599.81,194.31 Q547.69,217.19 539,221"/><text class="g9" style="--gs:9" x="572" y="357">⑨</text><path class="g9 aligned" style="--gs:9" d="M572,357 L854,321"/><path class="g9 offset" style="--gs:9" d="M572,453 L854,417"/><text class="g10" style="--gs:10" x="656" y="257">⑩</text><path class="g10 aligned" style="--gs:10" d="M656,257 Q689,285 687.88,319.63 Q681.13,527.38 680,562"/><path class="g10 offset" style="--gs:10" d="M560,257 Q593,285 591.88,319.63 Q585.13,527.38 584,562"/><text class="g11" style="--gs:11" x="669" y="355">⑪</text><path class="g11 aligned" style="--gs:11" d="M669,355 Q612,465 599.13,475.88 Q521.88,541.13 509,552"/><path class="g11 offset" style="--gs:11" d="M573,355 Q544.5,411.4 538.06,416.97 Q499.44,450.42 493,456"/><text class="g12" style="--gs:12" x="703" y="374">⑫</text><path class="g12 aligned" style="--gs:12" d="M703,374 Q838,509 850.75,510.5 Q927.25,519.5 940,521"/><path class="g12 offset" style="--gs:12" d="M788.68,305.46 Q874.87,415.24 883.02,416.46 Q931.86,423.78 940,425"/><text class="g13" style="--gs:13" x="370" y="625">⑬</text><path class="g13 aligned" style="--gs:13" d="M370,625 Q407,673 406.5,704.25 Q403.5,891.75 403,923"/><path class="g13 offset" style="--gs:13" d="M274,625 Q311,673 310.5,704.25 Q307.5,891.75 307,923"/><text class="g14" style="--gs:14" x="422" y="642">⑭</text><path class="g14 aligned" style="--gs:14" d="M422,642 Q675,611 687.5,618.75 Q725,642 720.75,726 Q712.25,894 708,978"/><path class="g14 offset" style="--gs:14" d="M422,738 Q574.8,707 582.35,714.75 Q605,738 602.43,798 Q597.3,918 594.73,978"/><text class="g15" style="--gs:15" x="432" y="763">⑮</text><path class="g15 aligned" style="--gs:15" d="M432,763 L642,749"/><path class="g15 offset" style="--gs:15" d="M432,859 L642,845"/><text class="g16" style="--gs:16" x="424" y="888">⑯</text><path class="g16 aligned" style="--gs:16" d="M424,888 L671,873"/><path class="g16 offset" style="--gs:16" d="M424,984 L671,969"/></g>
<g class="parts"><rect data-part="1" data-literal="厤" role="button" tabindex="0" aria-label="Part 厤" x="0" y="19" width="1012" height="925"/><rect data-part="2" data-literal="日" data-radical="true" role="button" tabindex="0" aria-label="Part 日 (radical)" x="298" y="539" width="499" height="485"/></g>
</svg>
