<!--
  Stroke-order data for 曼, derived from AnimCJK (https://github.com/parsimonhi/animCJK),
  itself derived from the Arphic PL KaitiM fonts. Distributed under the Arphic Public License
  (see ARPHICPL.TXT). Regenerated by scripts/build-strokes.ts — do not edit by hand.
-->
<svg id="z26364" class="acjk" viewBox="0 0 1024 1024" xmlns="http://www.w3.org/2000/svg">
<g class="glyph"><path style="--part:1" id="z26364d1" d="M315 99Q306 98 296 97Q284 94 281 100Q275 106 284 122Q317 179 340 274Q344 304 363 322Q382 343 387 326Q388 319 389 307C388 291 388 291 387 283Q384 264 374 226C370 209 370 209 368 201Q358 155 354 135C351 118 332 102 315 99Z"/><path style="--part:1" id="z26364d2" d="M592 280Q592 283 594 288Q598 304 612 303Q625 302 634 287Q644 277 667 217Q685 165 723 136Q742 120 726 104Q710 86 659 58Q647 51 571 64Q546 64 425 87Q340 102 315 99C297 99 336 135 354 135Q358 135 365 134Q432 115 588 97Q615 96 625 101Q632 105 628 133Q601 250 595 257C592 264 590 272 592 280Z"/><path style="--part:1" id="z26364d3" d="M374 226Q378 226 385 225Q485 209 560 197Q579 194 573 183Q563 170 541 165Q520 162 368 201C360 203 365 226 374 226Z"/><path style="--part:1" id="z26364d4" d="M389 307Q395 308 406 306Q512 290 592 280C600 279 602 261 595 257Q588 251 575 249Q556 246 387 283C379 285 381 307 389 307Z"/><path style="--part:2" id="z26364d5" d="M248 379Q235 375 204 374Q191 373 189 377Q183 384 194 399Q224 444 249 521Q255 545 271 558Q290 577 294 562Q295 556 295 550C293 529 293 529 292 519Q291 515 290 510Q272 446 265 417C262 403 262 382 248 379Z"/><path style="--part:2" id="z26364d6" d="M701 511Q704 527 716 528Q731 528 768 479Q789 430 827 404Q848 391 833 373Q817 354 771 324Q755 312 676 328Q543 337 402 360Q309 373 248 379C234 381 251 417 265 417Q269 417 274 416Q317 404 380 394C394 392 394 392 401 391Q462 381 542 372C570 369 570 369 584 368Q713 350 741 367Q747 371 741 392Q717 464 705 482C700 490 699 501 701 511Z"/><path style="--part:2" id="z26364d7" d="M380 394Q380 395 382 399Q383 408 386 416Q389 428 394 472Q397 484 412 508C417 516 440 513 440 504Q440 462 409 400Q405 394 401 391C396 386 377 387 380 394Z"/><path style="--part:2" id="z26364d8" d="M562 485Q571 464 598 410Q602 406 604 402Q608 395 598 381Q591 374 584 368C573 359 539 358 542 372Q548 393 525 492C523 504 557 497 562 485Z"/><path style="--part:2" id="z26364d9" d="M295 550Q305 551 315 550Q438 525 700 509C709 509 712 488 705 482Q701 478 692 472Q677 462 649 468Q603 477 562 485C537 490 537 490 525 492Q482 498 440 504C421 507 421 507 412 508Q348 512 292 519C282 521 285 550 295 550Z"/><path style="--part:3" id="z26364d10" d="M550 780Q593 731 632 662Q650 632 673 616Q695 601 684 585Q671 570 639 554Q611 541 553 564Q418 594 329 599Q313 600 307 608Q303 615 323 625Q363 643 420 628Q540 598 560 601Q579 602 575 624Q550 697 506 750C485 772 485 772 474 783Q383 864 179 904Q163 907 174 917Q181 921 241 919Q316 915 401 881Q462 857 512 818C537 793 537 793 550 780Z"/><path style="--part:3" id="z26364d11" d="M512 818Q683 959 736 960Q742 959 751 959Q851 949 930 931Q942 925 945 916Q949 907 926 906Q866 893 800 885Q689 867 550 780C521 760 521 760 506 750Q496 743 486 734Q389 659 335 664Q323 665 313 668Q303 672 309 682Q315 691 327 691Q369 692 473 782C474 783 474 783 474 783C499 806 499 806 512 818Z"/></g>
<defs><clipPath id="z26364c1"><use href="#z26364d1"/></clipPath>
	<clipPath id="z26364c2"><use href="#z26364d2"/></clipPath>
	<clipPath id="z26364c3"><use href="#z26364d3"/></clipPath>
	<clipPath id="z26364c4"><use href="#z26364d4"/></clipPath>
	<clipPath id="z26364c5"><use href="#z26364d5"/></clipPath>
	<clipPath id="z26364c6"><use href="#z26364d6"/></clipPath>
	<clipPath id="z26364c7"><use href="#z26364d7"/></clipPath>
	<clipPath id="z26364c8"><use href="#z26364d8"/></clipPath>
	<clipPath id="z26364c9"><use href="#z26364d9"/></clipPath>
	<clipPath id="z26364c10"><use href="#z26364d10"/></clipPath>
	<clipPath id="z26364c11"><use href="#z26364d11"/></clipPath><marker id="guide-arrow" viewBox="0 0 16 16" refX="5" refY="5" markerWidth="4" markerHeight="4" orient="auto-start-reverse"><path d="M 0 0 L 10 5 L 0 10 z" fill="inherit"/></marker></defs>
<g class="strokes"><path style="--part:1" pathLength="3333" clip-path="url(#z26364c1)" d="M285 108L327 143L377 327"/><path style="--part:1" pathLength="3333" clip-path="url(#z26364c2)" d="M321 108L593 78L658 90L679 129L605 297"/><path style="--part:1" pathLength="3333" clip-path="url(#z26364c3)" d="M369 212L570 185"/><path style="--part:1" pathLength="3333" clip-path="url(#z26364c4)" d="M385 296L595 268"/><path style="--part:2" pathLength="3333" clip-path="url(#z26364c5)" d="M196 382L232 403L280 562"/><path style="--part:2" pathLength="3333" clip-path="url(#z26364c6)" d="M250 388L750 343L791 386L708 521"/><path style="--part:2" pathLength="3333" clip-path="url(#z26364c7)" d="M388 392L431 508"/><path style="--part:2" pathLength="3333" clip-path="url(#z26364c8)" d="M549 370L572 407L538 494"/><path style="--part:2" pathLength="3333" clip-path="url(#z26364c9)" d="M288 534L705 496"/><path style="--part:3" pathLength="3333" clip-path="url(#z26364c10)" d="M312 611L575 578L612 584L632 612L472 817L327 885L176 910"/><path style="--part:3" pathLength="3333" clip-path="url(#z26364c11)" d="M314 675L402 702L723 912L941 916"/></g>
<g class="guides"><text class="g1" style="--gs:1" x="285" y="108">①</text><path class="g1 aligned" style="--gs:1" d="M285,108 Q327,143 333.25,166 Q370.75,304 377,327"/><path class="g1 offset" style="--gs:1" d="M370.68,39.46 Q412.68,74.46 418.93,97.46 Q456.43,235.46 462.68,258.46"/><text class="g2" style="--gs:2" x="321" y="108">②</text><path class="g2 aligned" style="--gs:2" d="M321,108 Q593,78 625.5,84 Q658,90 668.5,109.5 Q679,129 642,213 Q642,213 605,297"/><path class="g2 offset" style="--gs:2" d="M321,204 Q501.83,174 523.43,180 Q545.04,186 552.02,194.32 Q559,202.64 534.4,249.82 Q534.4,249.82 509.8,297"/><text class="g3" style="--gs:3" x="369" y="212">③</text><path class="g3 aligned" style="--gs:3" d="M369,212 L570,185"/><path class="g3 offset" style="--gs:3" d="M369,308 L570,281"/><text class="g4" style="--gs:4" x="385" y="296">④</text><path class="g4 aligned" style="--gs:4" d="M385,296 L595,268"/><path class="g4 offset" style="--gs:4" d="M385,392 L595,364"/><text class="g5" style="--gs:5" x="196" y="382">⑤</text><path class="g5 aligned" style="--gs:5" d="M214,393 L280,562"/><path class="g5 offset" style="--gs:5" d="M334,393 L400,562"/><text class="g6" style="--gs:6" x="250" y="388">⑥</text><path class="g6 aligned" style="--gs:6" d="M250,388 Q750,343 760.25,353.75 Q791,386 770.25,419.75 Q728.75,487.25 708,521"/><path class="g6 offset" style="--gs:6" d="M250,484 Q628.93,439 636.7,449.75 Q660,482 644.27,515.75 Q612.82,583.25 597.1,617"/><text class="g7" style="--gs:7" x="388" y="392">⑦</text><path class="g7 aligned" style="--gs:7" d="M388,392 L431,508"/><path class="g7 offset" style="--gs:7" d="M508,392 L551,508"/><text class="g8" style="--gs:8" x="549" y="370">⑧</text><path class="g8 aligned" style="--gs:8" d="M549,370 Q572,407 567.75,417.88 Q542.25,483.13 538,494"/><path class="g8 offset" style="--gs:8" d="M453,370 Q476,407 471.75,417.88 Q446.25,483.13 442,494"/><text class="g9" style="--gs:9" x="288" y="534">⑨</text><path class="g9 aligned" style="--gs:9" d="M288,534 L705,496"/><path class="g9 offset" style="--gs:9" d="M288,630 L705,592"/><text class="g10" style="--gs:10" x="312" y="611">⑩</text><path class="g10 aligned" style="--gs:10" d="M312,611 Q575,578 593.5,581 Q612,584 622,598 Q632,612 552,714.5 Q472,817 399.5,851 Q327,885 251.5,897.5 Q251.5,897.5 176,910"/><path class="g10 offset" style="--gs:10" d="M216,707 Q423.63,690.5 438.24,692 Q452.84,693.5 460.74,700.5 Q468.63,707.5 405.47,758.75 Q342.32,810 285.08,827 Q227.84,844 168.24,850.25 Q168.24,850.25 108.63,856.5"/><text class="g11" style="--gs:11" x="314" y="675">⑪</text><path class="g11 aligned" style="--gs:11" d="M314,675 Q402,702 482.25,754.5 Q723,912 777.5,913 Q886.5,915 941,916"/><path class="g11 offset" style="--gs:11" d="M314,771 Q402,798 482.25,850.5 Q723,1008 777.5,1009 Q886.5,1011 941,1012"/></g>
<g class="parts"><rect data-part="3" data-literal="又" role="button" tabindex="0" aria-label="Part 又" x="104" y="506" width="909" height="482"/><rect data-part="2" data-literal="罒" role="button" tabindex="0" aria-label="Part 罒" x="124" y="271" width="739" height="363"/><rect data-part="1" data-literal="曰" data-radical="true" role="button" tabindex="0" aria-label="Part 曰 (radical)" x="213" y="6" width="538" height="393"/></g>
</svg>
