<svg id="z26391" class="acjk" viewBox="0 0 1024 1024" xmlns="http://www.w3.org/2000/svg">
<style>

@keyframes zk {
	to {
		stroke-dashoffset:0;
	}
}
svg.acjk path[clip-path] {
	--t:0.8s;
	animation:zk var(--t) linear forwards var(--d);
	stroke-dasharray:3337;
	stroke-dashoffset:3339;
	stroke-width:128;
	stroke-linecap:round;
	fill:none;
	stroke:#000;
}
svg.acjk path[id] {fill:#ccc;}


    @keyframes guide-fade {
        0% { opacity: 0; }
        3% { opacity: 1; }
        95% { opacity: 1; }
        100% { opacity: 0; }
    }

    svg.acjk #guide-arrow {
        fill: #f77;
    }

    svg.acjk .guides {
        circle {
            fill: #0f6;
        }

        path {
            opacity: 0;
            animation: guide-fade var(--t) linear forwards var(--d);
            stroke-width: 16px;
            stroke-linecap: round;
            stroke: #f77;
            fill: none;
            marker-end: url(#guide-arrow);
        }

        circle,
        path {
            --t: 0.8s;
            opacity: 0;
            animation: guide-fade calc(var(--t) + 0.4s) ease-in-out forwards calc(var(--d) - 0.2s);
        }
    }
</style>
<path id="z26391d1" d="M326 100C364 135 395 161 422 169C432 171 442 166 447 156C451 146 451 135 448 124C439 95 401 73 337 58C324 54 315 56 309 59C304 60 303 64 306 74C308 82 315 90 326 100Z"/>
<path id="z26391d2" d="M371 514C381 526 391 534 401 539C409 543 417 538 425 524C435 503 445 440 459 335C461 314 471 296 485 280C492 270 493 262 485 255C474 244 455 231 427 219C407 210 377 219 237 271C228 275 235 303 244 300C330 266 381 252 393 263C404 272 408 285 407 298C395 410 383 470 373 480C367 490 364 505 371 514Z"/>
<path id="z26391d3" d="M239 426C274 421 312 412 345 406C360 402 364 394 358 387C350 377 337 373 320 372C295 370 269 378 240 396C231 401 229 428 239 426Z"/>
<path id="z26391d4" d="M236 538C254 535 331 519 371 514C382 512 384 484 373 480C334 466 271 498 236 508C227 512 226 540 236 538Z"/>
<path id="z26391d5" d="M377 639C352 649 312 671 255 702C234 713 233 692 234 680C234 627 236 580 236 538C236 518 236 518 236 508C236 477 238 450 239 426C240 406 240 406 240 396C241 345 242 313 244 300C246 290 246 276 237 271C217 257 194 247 178 245C165 243 158 244 155 248C150 252 151 261 160 274C180 304 194 361 195 445C196 598 179 698 146 742C140 749 134 757 128 765C120 773 117 784 123 800C129 819 137 834 147 843C155 850 165 848 174 838C209 797 279 736 387 655C392 651 383 637 377 639Z"/>
<path id="z26391d6" d="M387 655C409 690 423 711 435 715C441 716 447 714 453 707C459 698 461 684 461 665C460 643 434 615 380 584C371 579 364 576 361 577C356 578 353 583 353 592C352 597 361 613 377 639C384 650 384 650 387 655Z"/>
<path id="z26391d7" d="M599 570C602 551 609 510 614 445C615 426 615 426 616 416C619 361 621 287 627 268C629 256 618 242 607 236C576 220 555 212 545 215C530 217 530 225 541 242C556 265 561 294 563 326C577 564 525 752 364 899C311 946 373 924 394 911C502 838 569 712 593 599C597 580 597 580 599 570Z"/>
<path id="z26391d8" d="M627 268C627 268 665 259 741 241C755 237 765 237 769 245C779 272 784 383 784 575C782 727 776 812 766 832C762 836 733 831 681 818C666 813 659 814 660 821C700 857 732 889 755 917C765 931 775 939 786 943C792 945 799 943 806 937C836 899 850 861 850 824C843 703 840 545 839 351C838 308 842 277 853 259C861 244 861 233 853 226C836 212 815 199 789 189C774 183 752 196 713 210C671 223 645 230 607 236C595 238 615 270 627 268Z"/>
<path id="z26391d9" d="M614 445C634 446 695 435 727 431C741 429 746 422 741 415C734 406 723 399 707 397C682 393 652 400 616 416C607 420 604 445 614 445Z"/>
<path id="z26391d10" d="M593 599C610 599 689 591 733 588C749 586 754 580 749 572C742 561 730 553 714 551C689 546 651 553 599 570C590 574 583 599 593 599Z"/>
<defs>
	<clipPath id="z26391c1"><use href="#z26391d1"/></clipPath>
	<clipPath id="z26391c2"><use href="#z26391d2"/></clipPath>
	<clipPath id="z26391c3"><use href="#z26391d3"/></clipPath>
	<clipPath id="z26391c4"><use href="#z26391d4"/></clipPath>
	<clipPath id="z26391c5"><use href="#z26391d5"/></clipPath>
	<clipPath id="z26391c6"><use href="#z26391d6"/></clipPath>
	<clipPath id="z26391c7"><use href="#z26391d7"/></clipPath>
	<clipPath id="z26391c8"><use href="#z26391d8"/></clipPath>
	<clipPath id="z26391c9"><use href="#z26391d9"/></clipPath>
	<clipPath id="z26391c10"><use href="#z26391d10"/></clipPath>
<marker id="guide-arrow" viewBox="0 0 16 16" refX="5" refY="5" markerWidth="4" markerHeight="4" orient="auto-start-reverse"><path d="M 0 0 L 10 5 L 0 10 z" fill="inherit"/></marker></defs>
<path style="--d:1s;" pathLength="3333" clip-path="url(#z26391c1)" d="M309 69L444 154"/>
<path style="--d:2s;" pathLength="3333" clip-path="url(#z26391c2)" d="M240 292L382 239L442 264L391 531"/>
<path style="--d:3s;" pathLength="3333" clip-path="url(#z26391c3)" d="M238 418L354 391"/>
<path style="--d:4s;" pathLength="3333" clip-path="url(#z26391c4)" d="M232 529L377 500"/>
<path style="--d:5s;" pathLength="3333" clip-path="url(#z26391c5)" d="M161 255L209 292L214 341L173 790L382 645"/>
<path style="--d:6s;" pathLength="3333" clip-path="url(#z26391c6)" d="M361 582L427 660L439 710"/>
<path style="--d:7s;" pathLength="3333" clip-path="url(#z26391c7)" d="M542 225L592 288L564 617L474 806L351 923"/>
<path style="--d:8s;" pathLength="3333" clip-path="url(#z26391c8)" d="M610 243L773 213L815 249L805 849L774 890L667 820"/>
<path style="--d:9s;" pathLength="3333" clip-path="url(#z26391c9)" d="M614 436L735 415"/>
<path style="--d:10s;" pathLength="3333" clip-path="url(#z26391c10)" d="M596 590L745 576"/>
<g class="guides"><circle style="--d: 1s" class="g1" cx="309" cy="69" r="16"/><path style="--d: 1s;" class="g1" d="M394.68,0.45600000000000307 L529.68,85.456"/><circle style="--d: 2s" class="g2" cx="240" cy="292" r="16"/><path style="--d: 2s;" class="g2" d="M240,388 Q311,335 318.5,341.25 Q341,360 334.625,402.75 Q321.875,488.25 315.5,531"/><circle style="--d: 3s" class="g3" cx="238" cy="418" r="16"/><path style="--d: 3s;" class="g3" d="M238,514 L354,487"/><circle style="--d: 4s" class="g4" cx="232" cy="529" r="16"/><path style="--d: 4s;" class="g4" d="M232,625 L377,596"/><circle style="--d: 5s" class="g5" cx="161" cy="255" r="16"/><path style="--d: 5s;" class="g5" d="M246.68,186.45600000000002 Q294.68,218.23754766355142 297.18,239.28208598130843 Q299.68,260.32662429906543 279.18,453.1633121495327 Q258.68,646 363.18,583.7253457943925 Q363.18,583.7253457943925 467.68,521.450691588785"/><circle style="--d: 6s" class="g6" cx="361" cy="582" r="16"/><path style="--d: 6s;" class="g6" d="M446.68,513.456 Q512.68,591.456 514.18,597.706 Q523.18,635.206 524.68,641.456"/><circle style="--d: 7s" class="g7" cx="542" cy="225" r="16"/><path style="--d: 7s;" class="g7" d="M446,225 Q476.0829875518672,279.3352435530086 467.6597510373444,421.2106017191977 Q459.2365145228216,563.0859598853868 432.1618257261411,644.5888252148998 Q405.0871369294606,726.0916905444126 368.0850622406639,776.5458452722063 Q368.0850622406639,776.5458452722063 331.08298755186723,827"/><circle style="--d: 8s" class="g8" cx="610" cy="243" r="16"/><path style="--d: 8s;" class="g8" d="M610,339 Q696.6682926829268,309 707.8341463414633,321.3101920236337 Q719,333.62038404726735 716.3414634146342,538.7902511078287 Q713.6829268292684,743.96011816839 705.4414634146342,757.980059084195 Q697.2,772 668.7536585365854,748.0635155096012 Q668.7536585365854,748.0635155096012 640.3073170731707,724.1270310192024"/><circle style="--d: 9s" class="g9" cx="614" cy="436" r="16"/><path style="--d: 9s;" class="g9" d="M614,532 L735,511"/><circle style="--d: 10s" class="g10" cx="596" cy="590" r="16"/><path style="--d: 10s;" class="g10" d="M596,686 L745,672"/></g></svg>