<!--
  Stroke-order data for 杂, derived from AnimCJK (https://github.com/parsimonhi/animCJK),
  itself derived from the Arphic PL KaitiM fonts. Distributed under the Arphic Public License
  (see ARPHICPL.TXT). Regenerated by scripts/build-strokes.ts — do not edit by hand.
-->
<svg id="z26434" class="acjk" viewBox="0 0 1024 1024" xmlns="http://www.w3.org/2000/svg">
<g class="glyph"><path style="--part:1" id="z26434d1" d="M431 246C405 352 339 434 252 487C177 531 232 525 268 510C389 462 454 351 488 233C494 212 494 212 497 201C507 163 514 135 525 118C532 106 528 97 519 90C486 66 464 55 447 61C437 63 433 69 438 80C450 104 454 149 439 213C434 235 434 235 431 246Z"/><path style="--part:1" id="z26434d2" d="M488 233C550 218 587 215 600 226C605 229 608 237 605 248C581 332 579 391 599 427C630 485 752 490 779 490C825 490 861 483 887 474C906 466 912 456 906 443C888 406 877 361 869 310C865 291 850 278 848 300C839 364 827 402 814 417C808 423 795 430 771 433C708 440 664 434 645 415C633 403 629 384 629 364C628 343 634 320 646 293C657 267 669 250 684 242C703 230 701 217 684 205C670 196 660 186 648 178C635 168 624 170 611 175C595 180 556 188 497 201C458 209 458 209 439 213C360 229 304 238 271 241C260 241 253 246 252 255C250 260 259 268 280 277C297 285 320 284 346 273C370 262 398 253 431 246C469 237 469 237 488 233Z"/><path style="--part:2" id="z26434d3" d="M530 613C573 607 669 602 800 595C839 592 820 572 801 559C780 545 760 537 737 541C674 551 586 568 531 575C498 579 498 579 481 581C438 586 327 595 179 601C158 601 154 608 170 623C191 644 213 653 235 650C309 638 355 634 450 623C503 616 503 616 530 613Z"/><path style="--part:2" id="z26434d4" d="M479 956C485 967 497 967 507 958C529 935 533 903 532 858C531 836 526 738 530 613C531 588 531 588 531 575C532 514 551 503 494 468C457 445 448 460 454 473C464 495 481 502 481 581C481 638 481 638 481 667C481 731 472 824 466 857C461 880 461 921 479 956Z"/><path style="--part:2" id="z26434d5" d="M450 623C411 675 349 745 213 845C189 862 199 868 238 853C308 824 437 725 481 667C510 630 478 585 450 623Z"/><path style="--part:2" id="z26434d6" d="M588 693C625 726 669 765 714 813C727 827 747 848 763 827C769 817 769 799 761 769C749 730 693 694 592 662C569 654 574 680 588 693Z"/></g>
<defs><clipPath id="z26434c1"><use href="#z26434d1"/></clipPath>
	<clipPath id="z26434c2"><use href="#z26434d2"/></clipPath>
	<clipPath id="z26434c3"><use href="#z26434d3"/></clipPath>
	<clipPath id="z26434c4"><use href="#z26434d4"/></clipPath>
	<clipPath id="z26434c5"><use href="#z26434d5"/></clipPath>
	<clipPath id="z26434c6"><use href="#z26434d6"/></clipPath><marker id="guide-arrow" viewBox="0 0 16 16" refX="5" refY="5" markerWidth="4" markerHeight="4" orient="auto-start-reverse"><path d="M 0 0 L 10 5 L 0 10 z" fill="inherit"/></marker></defs>
<g class="strokes"><path style="--part:1" pathLength="3333" clip-path="url(#z26434c1)" d="M442 70L488 115L425 331L349 436L225 517"/><path style="--part:1" pathLength="3333" clip-path="url(#z26434c2)" d="M256 255L622 202L651 235L612 318L615 410L653 446L745 462L866 428L857 297"/><path style="--part:2" pathLength="3333" clip-path="url(#z26434c3)" d="M168 610L225 625L816 575"/><path style="--part:2" pathLength="3333" clip-path="url(#z26434c4)" d="M460 464L506 530L497 960"/><path style="--part:2" pathLength="3333" clip-path="url(#z26434c5)" d="M475 614L370 744L207 855"/><path style="--part:2" pathLength="3333" clip-path="url(#z26434c6)" d="M584 667L700 747L759 828"/></g>
<g class="guides"><text class="g1" style="--gs:1" x="442" y="70">①</text><path class="g1 aligned" style="--gs:1" d="M442,70 Q488,115 456.5,223 Q425,331 387,383.5 Q349,436 287,476.5 Q287,476.5 225,517"/><path class="g1 offset" style="--gs:1" d="M346,70 Q375.21,105.34 355.21,190.14 Q335.21,274.95 311.08,316.17 Q286.95,357.4 247.58,389.2 Q247.58,389.2 208.21,421"/><text class="g2" style="--gs:2" x="256" y="255">②</text><path class="g2 aligned" style="--gs:2" d="M256,255 Q622,202 636.5,218.5 Q651,235 631.5,276.5 Q612,318 613.5,364 Q615,410 634,428 Q653,446 699,454 Q745,462 805.5,445 Q866,428 861.5,362.5 Q861.5,362.5 857,297"/><path class="g2 offset" style="--gs:2" d="M256,351 Q550,298 561.65,314.5 Q573.3,331 557.63,351.08 Q541.97,371.17 543.17,400.18 Q544.38,429.2 559.64,440.55 Q574.9,451.91 611.85,456.95 Q648.8,462 697.4,451.28 Q746,440.55 742.39,399.24 Q742.39,399.24 738.77,357.92"/><text class="g3" style="--gs:3" x="168" y="610">③</text><path class="g3 aligned" style="--gs:3" d="M168,610 Q225,625 298.88,618.75 Q742.13,581.25 816,575"/><path class="g3 offset" style="--gs:3" d="M168,706 Q225,721 298.88,714.75 Q742.13,677.25 816,671"/><text class="g4" style="--gs:4" x="460" y="464">④</text><path class="g4 aligned" style="--gs:4" d="M460,464 Q506,530 504.88,583.75 Q498.13,906.25 497,960"/><path class="g4 offset" style="--gs:4" d="M364,464 Q410,530 408.88,583.75 Q402.13,906.25 401,960"/><text class="g5" style="--gs:5" x="475" y="614">⑤</text><path class="g5 aligned" style="--gs:5" d="M475,614 Q370,744 349.63,757.88 Q227.38,841.13 207,855"/><path class="g5 offset" style="--gs:5" d="M560.68,682.54 Q455.68,812.54 435.31,826.42 Q313.06,909.67 292.68,923.54"/><text class="g6" style="--gs:6" x="584" y="667">⑥</text><path class="g6 aligned" style="--gs:6" d="M584,667 Q700,747 707.38,757.13 Q751.63,817.88 759,828"/><path class="g6 offset" style="--gs:6" d="M669.68,598.46 Q785.68,678.46 793.06,688.58 Q837.31,749.33 844.68,759.46"/></g>
<g class="parts"><rect data-part="2" data-literal="朩" data-radical="true" role="button" tabindex="0" aria-label="Part 朩 (radical)" x="96" y="392" width="792" height="632"/><rect data-part="1" data-literal="九" role="button" tabindex="0" aria-label="Part 九" x="153" y="0" width="785" height="589"/></g>
</svg>
