<!--
  Stroke-order data for 束, derived from AnimCJK (https://github.com/parsimonhi/animCJK),
  itself derived from the Arphic PL KaitiM fonts. Distributed under the Arphic Public License
  (see ARPHICPL.TXT). Regenerated by scripts/build-strokes.ts — do not edit by hand.
-->
<svg id="z26463" class="acjk" viewBox="0 0 1024 1024" xmlns="http://www.w3.org/2000/svg">
<g class="glyph"><path id="z26463d1" d="M533 244C644 223 699 206 702 205C708 200 710 194 707 188C702 179 690 173 670 168C654 163 611 178 537 195C502 203 502 203 484 207C440 216 392 220 343 226C318 228 312 241 331 250C388 276 433 262 485 253C517 247 517 247 533 244Z"/><path id="z26463d2" d="M297 365C289 361 274 358 255 356C246 354 241 355 239 359C234 364 235 371 242 382C262 417 280 465 293 525C296 542 302 558 314 569C337 590 338 580 342 555C343 544 341 532 339 522C334 498 325 471 316 402C313 388 310 370 297 365Z"/><path id="z26463d3" d="M707 483C731 427 753 392 771 377C786 363 782 349 764 336C746 323 729 310 713 299C701 291 689 291 673 296C632 307 576 317 529 326C500 331 500 331 486 334C421 346 359 355 297 365C283 367 303 407 316 402C353 391 426 377 486 368C515 363 515 363 529 361C566 354 610 349 659 346C682 344 683 354 681 372C678 394 669 428 653 477C646 494 700 500 707 483Z"/><path id="z26463d4" d="M527 533C581 526 645 521 718 518C724 517 729 514 731 508C731 503 723 495 707 483C693 472 671 473 653 477C608 483 566 492 527 499C498 504 498 504 483 506C432 514 384 518 339 522C328 522 331 557 342 555C365 552 415 546 445 543C500 536 500 536 527 533Z"/><path id="z26463d5" d="M527 499C527 456 529 410 529 361C529 338 529 338 529 326C529 312 531 262 533 244C536 211 536 211 537 195C542 124 566 123 558 101C555 93 531 79 493 55C475 43 460 41 447 53C442 56 441 65 448 75C470 110 482 152 484 207C485 238 485 238 485 253C485 277 486 305 486 334C486 357 486 357 486 368C486 412 484 458 483 506C481 559 481 559 480 586C473 753 441 851 446 884C450 916 461 948 481 967C485 971 489 970 496 965C500 961 507 953 514 939C521 922 524 902 524 880C523 853 527 743 527 569C527 522 527 522 527 499Z"/><path id="z26463d6" d="M445 543C381 668 232 765 119 829C107 835 106 843 117 843C257 832 408 683 480 586C510 547 467 499 445 543Z"/><path id="z26463d7" d="M527 569C665 725 749 818 783 825C827 833 885 826 957 816C978 812 990 804 965 795C831 746 757 712 736 702C704 686 600 598 527 533C519 525 520 559 527 569Z"/></g>
<defs><clipPath id="z26463c1"><use href="#z26463d1"/></clipPath>
	<clipPath id="z26463c2"><use href="#z26463d2"/></clipPath>
	<clipPath id="z26463c3"><use href="#z26463d3"/></clipPath>
	<clipPath id="z26463c4"><use href="#z26463d4"/></clipPath>
	<clipPath id="z26463c5"><use href="#z26463d5"/></clipPath>
	<clipPath id="z26463c6"><use href="#z26463d6"/></clipPath>
	<clipPath id="z26463c7"><use href="#z26463d7"/></clipPath><marker id="guide-arrow" viewBox="0 0 16 16" refX="5" refY="5" markerWidth="4" markerHeight="4" orient="auto-start-reverse"><path d="M 0 0 L 10 5 L 0 10 z" fill="inherit"/></marker></defs>
<g class="strokes"><path pathLength="3333" clip-path="url(#z26463c1)" d="M327 236L433 239L703 189"/><path pathLength="3333" clip-path="url(#z26463c2)" d="M240 362L285 400L324 574"/><path pathLength="3333" clip-path="url(#z26463c3)" d="M297 373L686 320L731 362L668 490"/><path pathLength="3333" clip-path="url(#z26463c4)" d="M333 537L726 503"/><path pathLength="3333" clip-path="url(#z26463c5)" d="M449 58L516 122L479 964"/><path pathLength="3333" clip-path="url(#z26463c6)" d="M465 529L456 575L352 694L252 772L119 837"/><path pathLength="3333" clip-path="url(#z26463c7)" d="M528 542L770 766L973 802"/></g>
<g class="guides"><text class="g1" style="--gs:1" x="327" y="236">①</text><path class="g1 aligned" style="--gs:1" d="M327,236 Q433,239 466.75,232.75 Q669.25,195.25 703,189"/><path class="g1 offset" style="--gs:1" d="M327,332 Q433,335 466.75,328.75 Q669.25,291.25 703,285"/><text class="g2" style="--gs:2" x="240" y="362">②</text><path class="g2 aligned" style="--gs:2" d="M240,362 Q285,400 289.88,421.75 Q319.13,552.25 324,574"/><path class="g2 offset" style="--gs:2" d="M325.68,293.46 Q370.68,331.46 375.56,353.21 Q404.81,483.71 409.68,505.46"/><text class="g3" style="--gs:3" x="297" y="373">③</text><path class="g3 aligned" style="--gs:3" d="M297,373 Q686,320 697.25,330.5 Q731,362 715.25,394 Q683.75,458 668,490"/><path class="g3 offset" style="--gs:3" d="M297,469 Q578.44,416 586.58,426.5 Q611,458 599.6,468.75 Q576.81,490.25 565.42,501"/><text class="g4" style="--gs:4" x="333" y="537">④</text><path class="g4 aligned" style="--gs:4" d="M333,537 L726,503"/><path class="g4 offset" style="--gs:4" d="M333,633 L726,599"/><text class="g5" style="--gs:5" x="449" y="58">⑤</text><path class="g5 aligned" style="--gs:5" d="M449,58 Q516,122 511.38,227.25 Q483.63,858.75 479,964"/><path class="g5 offset" style="--gs:5" d="M353,58 Q420,122 415.38,227.25 Q387.63,858.75 383,964"/><text class="g6" style="--gs:6" x="465" y="529">⑥</text><path class="g6 aligned" style="--gs:6" d="M465,529 Q456,575 404,634.5 Q352,694 302,733 Q252,772 185.5,804.5 Q185.5,804.5 119,837"/><path class="g6 offset" style="--gs:6" d="M369,529 Q363.12,560.66 329.16,601.62 Q295.19,642.57 262.53,669.42 Q229.87,696.26 186.44,718.63 Q186.44,718.63 143,741"/><text class="g7" style="--gs:7" x="528" y="542">⑦</text><path class="g7 aligned" style="--gs:7" d="M528,542 Q770,766 795.38,770.5 Q947.63,797.5 973,802"/><path class="g7 offset" style="--gs:7" d="M613.68,473.46 Q809.09,673.8 829.57,677.83 Q952.51,701.98 973,706"/></g>
</svg>
