<svg id="z26465" class="acjk" viewBox="0 0 1024 1024" xmlns="http://www.w3.org/2000/svg">
<style>

@keyframes zk {
	to {
		stroke-dashoffset:0;
	}
}
svg.acjk path[clip-path] {
	--t:0.8s;
	animation:zk var(--t) linear forwards var(--d);
	stroke-dasharray:3337;
	stroke-dashoffset:3339;
	stroke-width:128;
	stroke-linecap:round;
	fill:none;
	stroke:#000;
}
svg.acjk path[id] {fill:#ccc;}


    @keyframes guide-fade {
        0% { opacity: 0; }
        3% { opacity: 1; }
        95% { opacity: 1; }
        100% { opacity: 0; }
    }

    svg.acjk #guide-arrow {
        fill: #f77;
    }

    svg.acjk .guides {
        circle {
            fill: #0f6;
        }

        path {
            opacity: 0;
            animation: guide-fade var(--t) linear forwards var(--d);
            stroke-width: 16px;
            stroke-linecap: round;
            stroke: #f77;
            fill: none;
            marker-end: url(#guide-arrow);
        }

        circle,
        path {
            --t: 0.8s;
            opacity: 0;
            animation: guide-fade calc(var(--t) + 0.4s) ease-in-out forwards calc(var(--d) - 0.2s);
        }
    }
</style>
<path id="z26465d1" d="M434 191C450 174 465 154 489 141C496 136 498 129 497 120C496 112 489 99 475 83C461 67 448 59 438 58C427 56 421 63 424 77C432 125 362 213 207 342C200 347 196 350 194 354C190 360 192 364 201 364C227 364 275 330 350 268C358 261 358 261 362 258C379 243 402 223 415 210C428 197 428 197 434 191Z"/>
<path id="z26465d2" d="M542 354C573 322 603 291 636 249C648 233 661 219 678 211C687 206 692 202 693 197C693 189 685 179 670 168C649 152 635 143 627 143C620 142 613 146 606 149C541 172 466 186 434 191C425 193 407 205 415 210C445 226 495 219 569 195C579 191 587 194 591 198C593 200 589 213 576 237C557 269 534 295 503 326C487 342 487 342 479 350C400 428 299 489 175 525C169 526 166 527 166 531C166 533 168 536 173 537C242 549 332 521 438 449C459 434 485 410 515 381C533 363 533 363 542 354Z"/>
<path id="z26465d3" d="M515 381C579 436 673 525 751 526C791 526 844 517 913 497C937 489 948 484 946 478C945 475 931 470 906 467C791 450 715 437 679 422C645 408 579 381 542 354C516 335 516 335 503 326C480 310 458 296 440 285C410 266 378 255 362 258C357 258 346 264 350 268C352 270 356 274 364 278C388 288 426 305 479 350C503 371 503 371 515 381Z"/>
<path id="z26465d4" d="M539 632C634 623 733 612 842 624C855 625 866 624 871 618C876 609 873 601 866 594C819 553 779 546 740 556C677 571 604 578 525 588C492 592 492 592 475 594C354 608 204 624 142 626C133 626 128 629 128 637C127 645 132 653 145 662C154 669 170 677 191 685C196 687 206 685 219 681C228 677 378 646 425 642C501 635 501 635 539 632Z"/>
<path id="z26465d5" d="M525 588C525 568 527 553 530 543C532 535 530 529 526 525C511 512 498 501 485 496C477 492 470 494 464 499C460 501 461 505 465 512C471 523 475 551 475 594C474 638 474 638 474 660C472 748 470 807 458 845C449 870 458 898 489 940C492 944 495 948 500 950C506 951 512 947 516 939C524 918 525 902 525 882C521 799 521 727 523 658C524 611 524 611 525 588Z"/>
<path id="z26465d6" d="M425 642C377 716 281 781 139 853C126 859 126 864 136 867C156 872 204 865 271 829C330 796 366 763 388 745C416 720 439 704 457 681C463 672 468 665 474 660C505 629 451 607 425 642Z"/>
<path id="z26465d7" d="M523 658C581 724 644 779 708 842C723 857 743 865 770 867C818 869 866 864 916 856C928 853 936 853 937 849C938 844 933 839 924 836C778 781 682 728 628 696C601 680 573 662 539 632C523 616 510 640 523 658Z"/>
<defs>
	<clipPath id="z26465c1"><use href="#z26465d1"/></clipPath>
	<clipPath id="z26465c2"><use href="#z26465d2"/></clipPath>
	<clipPath id="z26465c3"><use href="#z26465d3"/></clipPath>
	<clipPath id="z26465c4"><use href="#z26465d4"/></clipPath>
	<clipPath id="z26465c5"><use href="#z26465d5"/></clipPath>
	<clipPath id="z26465c6"><use href="#z26465d6"/></clipPath>
	<clipPath id="z26465c7"><use href="#z26465d7"/></clipPath>
<marker id="guide-arrow" viewBox="0 0 16 16" refX="5" refY="5" markerWidth="4" markerHeight="4" orient="auto-start-reverse"><path d="M 0 0 L 10 5 L 0 10 z" fill="inherit"/></marker></defs>
<path style="--d:1s;" pathLength="3333" clip-path="url(#z26465c1)" d="M432 66L449 133L314 274L201 354"/>
<path style="--d:2s;" pathLength="3333" clip-path="url(#z26465c2)" d="M423 209L607 170L640 206L421 433L287 505L173 532"/>
<path style="--d:3s;" pathLength="3333" clip-path="url(#z26465c3)" d="M358 266L724 477L937 480"/>
<path style="--d:4s;" pathLength="3333" clip-path="url(#z26465c4)" d="M133 635L201 655L749 585L869 603"/>
<path style="--d:5s;" pathLength="3333" clip-path="url(#z26465c5)" d="M470 504L501 538L498 944"/>
<path style="--d:6s;" pathLength="3333" clip-path="url(#z26465c6)" d="M468 646L276 800L138 861"/>
<path style="--d:7s;" pathLength="3333" clip-path="url(#z26465c7)" d="M531 639L743 813L931 846"/>
<g class="guides"><circle style="--d: 1s" class="g1" cx="432" cy="66" r="16"/><path style="--d: 1s;" class="g1" d="M336,66 Q344.7741935483871,110.66666666666667 327.35483870967744,134.16666666666669 Q275.0967741935484,204.66666666666669 260.51612903225805,218 Q231.3548387096774,244.66666666666669 216.77419354838707,258"/><circle style="--d: 2s" class="g2" cx="423" cy="209" r="16"/><path style="--d: 2s;" class="g2" d="M327,305 Q473.1755888650964,285.5 486.2837259100643,294.5 Q499.39186295503214,303.5 412.4014989293362,360.25 Q325.41113490364023,417 272.18415417558884,435 Q218.95717344753746,453 173.6745182012848,459.75 Q173.6745182012848,459.75 128.3918629550321,466.5"/><circle style="--d: 3s" class="g3" cx="358" cy="266" r="16"/><path style="--d: 3s;" class="g3" d="M358,362 Q724,573 750.625,573.375 Q910.375,575.625 937,576"/><circle style="--d: 4s" class="g4" cx="133" cy="635" r="16"/><path style="--d: 4s;" class="g4" d="M133,731 Q201,751 338,733.5 Q749,681 779,685.5 Q839,694.5 869,699"/><circle style="--d: 5s" class="g5" cx="470" cy="504" r="16"/><path style="--d: 5s;" class="g5" d="M374,504 Q405,538 404.625,588.75 Q402.375,893.25 402,944"/><circle style="--d: 6s" class="g6" cx="468" cy="646" r="16"/><path style="--d: 6s;" class="g6" d="M553.68,714.544 Q361.68,868.544 344.43,876.169 Q240.93,921.919 223.68,929.544"/><circle style="--d: 7s" class="g7" cx="531" cy="639" r="16"/><path style="--d: 7s;" class="g7" d="M616.68,570.456 Q783.2696,721.3770434782609 801.7358999999999,724.9549130434783 Q912.5337,746.4221304347826 930.9999999999999,750"/></g></svg>