<svg id="z26494" class="acjk" viewBox="0 0 1024 1024" xmlns="http://www.w3.org/2000/svg">
<style>

@keyframes zk {
	to {
		stroke-dashoffset:0;
	}
}
svg.acjk path[clip-path] {
	--t:0.8s;
	animation:zk var(--t) linear forwards var(--d);
	stroke-dasharray:3337;
	stroke-dashoffset:3339;
	stroke-width:128;
	stroke-linecap:round;
	fill:none;
	stroke:#000;
}
svg.acjk path[id] {fill:#ccc;}


    @keyframes guide-fade {
        0% { opacity: 0; }
        3% { opacity: 1; }
        95% { opacity: 1; }
        100% { opacity: 0; }
    }

    svg.acjk #guide-arrow {
        fill: #f77;
    }

    svg.acjk .guides {
        circle {
            fill: #0f6;
        }

        path {
            opacity: 0;
            animation: guide-fade var(--t) linear forwards var(--d);
            stroke-width: 16px;
            stroke-linecap: round;
            stroke: #f77;
            fill: none;
            marker-end: url(#guide-arrow);
        }

        circle,
        path {
            --t: 0.8s;
            opacity: 0;
            animation: guide-fade calc(var(--t) + 0.4s) ease-in-out forwards calc(var(--d) - 0.2s);
        }
    }
</style>
<path id="z26494d1" d="M331 384C347 379 366 375 386 371C412 364 428 359 432 355C438 348 439 342 436 337C430 328 416 320 396 317C374 313 353 318 333 326C306 335 306 335 293 340C229 362 169 372 117 380C90 383 87 393 107 405C142 425 173 423 275 398C312 389 312 389 331 384Z"/>
<path id="z26494d2" d="M327 498C328 462 329 424 331 384C332 345 332 345 333 326C335 255 337 193 356 142C360 130 366 122 363 114C359 107 337 93 302 70C286 59 272 58 259 68C255 70 254 78 260 88C280 123 293 155 293 188C293 238 294 289 293 340C291 391 287 441 285 493C282 543 282 594 280 648C277 700 266 751 252 799C243 827 248 859 265 898C270 909 274 915 279 919C283 922 286 921 292 917C309 904 320 880 320 838C320 812 320 708 326 528C327 508 327 508 327 498Z"/>
<path id="z26494d3" d="M275 398C237 492 162 607 54 746C49 752 52 756 60 757C64 757 69 755 76 750C161 677 232 592 286 493C333 415 309 314 275 398Z"/>
<path id="z26494d4" d="M326 528C372 574 398 601 404 601C406 601 406 601 407 601C413 601 418 598 421 591C424 583 424 570 421 555C417 536 389 517 338 500C333 498 329 498 327 498C317 498 319 521 326 528Z"/>
<path id="z26494d5" d="M509 328C515 350 503 389 467 447C466 447 465 448 465 450C454 464 436 487 409 517C404 521 405 523 411 524C449 524 501 479 565 389C568 385 575 378 583 369C586 364 590 359 588 353C583 339 569 327 548 318C536 312 524 311 515 314C510 315 506 320 509 328Z"/>
<path id="z26494d6" d="M613 181C632 195 646 215 659 238C712 337 764 420 809 490C817 503 829 511 845 513C903 517 944 517 968 516C978 515 986 514 990 510C993 506 991 502 986 499C903 450 849 412 823 386C780 342 729 276 671 185C664 174 657 167 647 165C628 160 614 161 608 168C604 171 606 176 613 181Z"/>
<path id="z26494d7" d="M742 710C680 716 615 725 549 740C542 741 536 744 535 741C531 733 562 686 620 598C653 546 667 532 669 519C670 507 643 494 605 479C593 474 583 473 577 477C568 481 566 491 572 506C585 538 561 616 501 704C487 723 465 739 441 759C431 766 429 776 432 784C436 796 447 808 466 822C472 826 483 824 500 815C532 795 610 770 734 740C742 738 749 735 755 733C763 730 751 710 742 710Z"/>
<path id="z26494d8" d="M755 733C787 789 803 821 811 826C815 828 821 827 829 822C839 815 845 796 845 766C845 729 798 676 707 604C701 599 697 600 694 608C690 616 691 625 697 634C711 657 726 682 742 710C751 725 751 725 755 733Z"/>
<defs>
	<clipPath id="z26494c1"><use href="#z26494d1"/></clipPath>
	<clipPath id="z26494c2"><use href="#z26494d2"/></clipPath>
	<clipPath id="z26494c3"><use href="#z26494d3"/></clipPath>
	<clipPath id="z26494c4"><use href="#z26494d4"/></clipPath>
	<clipPath id="z26494c5"><use href="#z26494d5"/></clipPath>
	<clipPath id="z26494c6"><use href="#z26494d6"/></clipPath>
	<clipPath id="z26494c7"><use href="#z26494d7"/></clipPath>
	<clipPath id="z26494c8"><use href="#z26494d8"/></clipPath>
<marker id="guide-arrow" viewBox="0 0 16 16" refX="5" refY="5" markerWidth="4" markerHeight="4" orient="auto-start-reverse"><path d="M 0 0 L 10 5 L 0 10 z" fill="inherit"/></marker></defs>
<path style="--d:1s;" pathLength="3333" clip-path="url(#z26494c1)" d="M105 393L433 342"/>
<path style="--d:2s;" pathLength="3333" clip-path="url(#z26494c2)" d="M264 72L326 137L284 915"/>
<path style="--d:3s;" pathLength="3333" clip-path="url(#z26494c3)" d="M285 402L214 564L61 752"/>
<path style="--d:4s;" pathLength="3333" clip-path="url(#z26494c4)" d="M333 508L415 593"/>
<path style="--d:5s;" pathLength="3333" clip-path="url(#z26494c5)" d="M519 321L546 364L416 518"/>
<path style="--d:6s;" pathLength="3333" clip-path="url(#z26494c6)" d="M616 173L653 191L847 466L980 505"/>
<path style="--d:7s;" pathLength="3333" clip-path="url(#z26494c7)" d="M581 485L619 523L594 586L484 766L508 782L749 725"/>
<path style="--d:8s;" pathLength="3333" clip-path="url(#z26494c8)" d="M701 610L811 763L816 821"/>
<g class="guides"><circle style="--d: 1s" class="g1" cx="105" cy="393" r="16"/><path style="--d: 1s;" class="g1" d="M105,489 L433,438"/><circle style="--d: 2s" class="g2" cx="264" cy="72" r="16"/><path style="--d: 2s;" class="g2" d="M168,72 Q230,137 224.75,234.25 Q193.25,817.75 188,915"/><circle style="--d: 3s" class="g3" cx="285" cy="402" r="16"/><path style="--d: 3s;" class="g3" d="M189,402 Q153.5,519.5657142857143 143.9375,536.62 Q86.5625,638.9457142857143 77,656"/><circle style="--d: 4s" class="g4" cx="333" cy="508" r="16"/><path style="--d: 4s;" class="g4" d="M418.68,439.456 L500.68,524.456"/><circle style="--d: 5s" class="g5" cx="519" cy="321" r="16"/><path style="--d: 5s;" class="g5" d="M423,321 Q436.5,343.0456852791878 428.375,352.91497461928935 Q379.625,412.13071065989845 371.5,422"/><circle style="--d: 6s" class="g6" cx="635" cy="182" r="16"/><path style="--d: 6s;" class="g6" d="M720.68,113.456 Q880.0302608695652,373.3151207430341 892.5264782608695,377.7757306501548 Q967.5037826086957,404.5393900928793 980,409"/><circle style="--d: 7s" class="g7" cx="581" cy="485" r="16"/><path style="--d: 7s;" class="g7" d="M666.68,416.456 Q692.3938113207547,450.9431111111111 683.9353207547169,479.5311111111111 Q675.4768301886792,508.1191111111111 638.2594716981132,589.7991111111112 Q601.0421132075471,671.4791111111111 609.1622641509434,678.7395555555556 Q617.2824150943396,686 698.8222641509434,660.1346666666666 Q698.8222641509434,660.1346666666666 780.3621132075472,634.2693333333333"/><circle style="--d: 8s" class="g8" cx="701" cy="610" r="16"/><path style="--d: 8s;" class="g8" d="M786.68,541.456 Q896.68,694.456 897.305,701.706 Q901.055,745.206 901.68,752.456"/></g></svg>