<svg id="z26495" class="acjk" viewBox="0 0 1024 1024" xmlns="http://www.w3.org/2000/svg">
<style>

@keyframes zk {
	to {
		stroke-dashoffset:0;
	}
}
svg.acjk path[clip-path] {
	--t:0.8s;
	animation:zk var(--t) linear forwards var(--d);
	stroke-dasharray:3337;
	stroke-dashoffset:3339;
	stroke-width:128;
	stroke-linecap:round;
	fill:none;
	stroke:#000;
}
svg.acjk path[id] {fill:#ccc;}


    @keyframes guide-fade {
        0% { opacity: 0; }
        3% { opacity: 1; }
        95% { opacity: 1; }
        100% { opacity: 0; }
    }

    svg.acjk #guide-arrow {
        fill: #f77;
    }

    svg.acjk .guides {
        circle {
            fill: #0f6;
        }

        path {
            opacity: 0;
            animation: guide-fade var(--t) linear forwards var(--d);
            stroke-width: 16px;
            stroke-linecap: round;
            stroke: #f77;
            fill: none;
            marker-end: url(#guide-arrow);
        }

        circle,
        path {
            --t: 0.8s;
            opacity: 0;
            animation: guide-fade calc(var(--t) + 0.4s) ease-in-out forwards calc(var(--d) - 0.2s);
        }
    }
</style>
<path id="z26495d1" d="M326 420C402 400 442 386 444 385C450 379 451 372 448 368C443 359 430 353 410 350C387 346 361 355 328 366C296 376 296 376 280 381C259 387 160 410 116 418C90 421 86 432 107 441C165 465 196 452 259 437C304 426 304 426 326 420Z"/>
<path id="z26495d2" d="M323 496C323 471 325 446 326 420C327 384 327 384 328 366C331 266 329 217 351 155C355 143 360 132 357 125C353 116 330 103 293 79C275 66 261 65 247 77C243 79 240 86 248 98C292 185 281 333 280 381C276 478 276 478 274 526C268 650 263 719 261 734C257 756 251 779 245 803C237 831 241 864 259 909C263 919 267 926 273 931C277 933 281 934 288 929C305 916 316 889 317 845C317 817 323 707 323 512C323 501 323 501 323 496Z"/>
<path id="z26495d3" d="M259 437C214 573 127 700 61 800C56 805 60 810 68 810C86 810 225 636 274 526C306 446 291 357 259 437Z"/>
<path id="z26495d4" d="M323 512C327 520 344 539 375 570C385 580 397 586 409 587C417 587 425 582 429 570C431 561 428 546 420 536C412 525 401 518 386 511C368 502 335 490 323 496C318 497 320 508 323 512Z"/>
<path id="z26495d5" d="M556 300C573 303 592 303 618 298C677 286 795 251 833 232C840 228 839 221 836 215C831 207 819 201 799 198C779 194 759 199 739 209C705 225 658 241 613 253C586 260 560 265 538 270C527 272 545 298 556 300Z"/>
<path id="z26495d6" d="M351 846C352 841 355 838 358 834C401 760 433 693 453 632C476 556 487 468 488 373C488 340 486 295 471 269C465 260 467 252 476 248C483 244 497 246 510 253C522 258 531 265 538 270C547 277 558 288 556 300C552 315 542 413 537 462C535 479 535 479 534 487C532 498 529 521 526 537C523 550 523 550 522 556C515 586 507 613 497 640C466 723 413 816 360 854C353 858 349 850 351 846Z"/>
<path id="z26495d7" d="M638 708C594 765 534 800 459 828C450 831 449 834 458 840C462 843 477 845 505 843C559 837 630 793 667 750C678 736 689 723 699 709C733 656 765 564 782 511C788 490 798 473 812 461C824 449 825 439 817 431C806 422 790 415 770 409C752 404 737 410 718 419C669 439 607 451 537 462C529 464 526 486 534 487C558 493 587 494 619 485C664 470 689 461 699 462C716 462 725 473 722 493C708 569 690 622 663 671C655 683 647 696 638 708Z"/>
<path id="z26495d8" d="M522 556C548 572 580 625 637 707C657 736 657 736 667 750C720 826 765 865 793 868C816 870 857 866 913 862C921 861 930 860 938 857C943 854 941 847 935 842C925 835 884 817 811 787C770 770 732 744 699 709C675 684 675 684 663 671C634 641 609 605 581 568C571 555 546 533 526 537C520 537 517 552 522 556Z"/>
<defs>
	<clipPath id="z26495c1"><use href="#z26495d1"/></clipPath>
	<clipPath id="z26495c2"><use href="#z26495d2"/></clipPath>
	<clipPath id="z26495c3"><use href="#z26495d3"/></clipPath>
	<clipPath id="z26495c4"><use href="#z26495d4"/></clipPath>
	<clipPath id="z26495c5"><use href="#z26495d5"/></clipPath>
	<clipPath id="z26495c6"><use href="#z26495d6"/></clipPath>
	<clipPath id="z26495c7"><use href="#z26495d7"/></clipPath>
	<clipPath id="z26495c8"><use href="#z26495d8"/></clipPath>
<marker id="guide-arrow" viewBox="0 0 16 16" refX="5" refY="5" markerWidth="4" markerHeight="4" orient="auto-start-reverse"><path d="M 0 0 L 10 5 L 0 10 z" fill="inherit"/></marker></defs>
<path style="--d:1s;" pathLength="3333" clip-path="url(#z26495c1)" d="M102 427L165 432L445 374"/>
<path style="--d:2s;" pathLength="3333" clip-path="url(#z26495c2)" d="M250 84L314 148L283 928"/>
<path style="--d:3s;" pathLength="3333" clip-path="url(#z26495c3)" d="M282 412L218 586L67 804"/>
<path style="--d:4s;" pathLength="3333" clip-path="url(#z26495c4)" d="M327 503L418 579"/>
<path style="--d:5s;" pathLength="3333" clip-path="url(#z26495c5)" d="M541 274L608 277L832 222"/>
<path style="--d:6s;" pathLength="3333" clip-path="url(#z26495c6)" d="M475 253L520 303L498 547L444 711L357 849"/>
<path style="--d:7s;" pathLength="3333" clip-path="url(#z26495c7)" d="M535 477L736 439L771 467L651 731L566 800L458 833"/>
<path style="--d:8s;" pathLength="3333" clip-path="url(#z26495c8)" d="M528 545L762 807L934 848"/>
<g class="guides"><circle style="--d: 1s" class="g1" cx="102" cy="427" r="16"/><path style="--d: 1s;" class="g1" d="M102,523 Q165,528 200,520.75 Q410,477.25 445,470"/><circle style="--d: 2s" class="g2" cx="250" cy="84" r="16"/><path style="--d: 2s;" class="g2" d="M154,84 Q218,148 214.125,245.5 Q190.875,830.5 187,928"/><circle style="--d: 3s" class="g3" cx="282" cy="412" r="16"/><path style="--d: 3s;" class="g3" d="M186,412 Q154,543.3877551020408 144.5625,563.9642857142858 Q87.9375,687.4234693877551 78.5,708"/><circle style="--d: 4s" class="g4" cx="327" cy="503" r="16"/><path style="--d: 4s;" class="g4" d="M412.68,434.456 L503.68,510.456"/><circle style="--d: 5s" class="g5" cx="541" cy="274" r="16"/><path style="--d: 5s;" class="g5" d="M541,370 Q608,373 636,366.125 Q804,324.875 832,318"/><circle style="--d: 6s" class="g6" cx="475" cy="253" r="16"/><path style="--d: 6s;" class="g6" d="M379,253 Q401.5,294.9463087248322 396,397.29530201342277 Q390.5,499.6442953020134 377,568.4362416107382 Q363.5,637.228187919463 341.75,695.1140939597315 Q341.75,695.1140939597315 320,753"/><circle style="--d: 7s" class="g7" cx="535" cy="477" r="16"/><path style="--d: 7s;" class="g7" d="M439,573 Q578.3514376996806,553.5177664974619 590.4840255591055,560.6954314720813 Q602.6166134185304,567.8730964467005 561.0191693290735,635.5482233502538 Q519.4217252396166,703.2233502538071 489.9568690095847,720.9111675126903 Q460.49201277955274,738.5989847715737 423.05431309904156,747.0583756345178 Q423.05431309904156,747.0583756345178 385.61661341853033,755.5177664974619"/><circle style="--d: 8s" class="g8" cx="528" cy="545" r="16"/><path style="--d: 8s;" class="g8" d="M613.68,476.456 Q798.2979310344828,714.7151683168318 815.2606896551724,719.3757722772277 Q917.0372413793103,747.339396039604 934,752"/></g></svg>