<svg id="z26519" class="acjk" viewBox="0 0 1024 1024" xmlns="http://www.w3.org/2000/svg">
<style>

@keyframes zk {
	to {
		stroke-dashoffset:0;
	}
}
svg.acjk path[clip-path] {
	--t:0.8s;
	animation:zk var(--t) linear forwards var(--d);
	stroke-dasharray:3337;
	stroke-dashoffset:3339;
	stroke-width:128;
	stroke-linecap:round;
	fill:none;
	stroke:#000;
}
svg.acjk path[id] {fill:#ccc;}


    @keyframes guide-fade {
        0% { opacity: 0; }
        3% { opacity: 1; }
        95% { opacity: 1; }
        100% { opacity: 0; }
    }

    svg.acjk #guide-arrow {
        fill: #f77;
    }

    svg.acjk .guides {
        circle {
            fill: #0f6;
        }

        path {
            opacity: 0;
            animation: guide-fade var(--t) linear forwards var(--d);
            stroke-width: 16px;
            stroke-linecap: round;
            stroke: #f77;
            fill: none;
            marker-end: url(#guide-arrow);
        }

        circle,
        path {
            --t: 0.8s;
            opacity: 0;
            animation: guide-fade calc(var(--t) + 0.4s) ease-in-out forwards calc(var(--d) - 0.2s);
        }
    }
</style>
<path id="z26519d1" d="M326 406C396 391 432 377 435 375C440 370 442 363 439 359C434 351 422 344 404 341C375 335 353 347 328 355C298 364 298 364 283 369C228 386 157 394 117 400C92 403 88 411 107 422C130 436 187 435 265 419C306 410 306 410 326 406Z"/>
<path id="z26519d2" d="M324 481C324 457 325 432 326 406C327 372 327 372 328 355C330 282 331 220 349 174C355 155 353 142 334 129C323 121 310 113 294 103C274 91 260 92 251 101C248 103 246 111 252 121C269 152 283 190 283 239C283 326 283 326 283 369C282 412 282 435 279 499C273 625 271 673 270 690C267 716 258 743 251 771C242 799 248 832 265 870C270 881 274 887 279 891C284 894 288 893 292 890C308 871 319 847 319 810C318 785 316 684 323 507C324 490 324 490 324 481Z"/>
<path id="z26519d3" d="M265 419C228 509 157 618 58 751C53 756 57 761 64 762C79 762 122 719 193 635C223 598 253 552 281 498C309 428 289 347 265 418C265 419 265 419 265 419Z"/>
<path id="z26519d4" d="M323 507C359 543 385 563 399 564C407 564 413 558 416 547C417 539 414 528 407 517C400 506 389 500 374 495C351 487 334 481 324 481C315 481 317 501 323 507Z"/>
<path id="z26519d5" d="M659 374C776 345 836 325 840 323C846 317 847 309 844 305C838 295 823 289 804 286C781 281 760 285 739 294C712 304 686 314 659 323C628 332 628 332 613 337C573 349 531 353 489 360C462 364 458 373 479 385C507 401 558 398 598 389C639 379 639 379 659 374Z"/>
<path id="z26519d6" d="M658 417C658 402 659 388 659 374C659 340 659 340 659 323C659 249 663 186 680 139C686 120 684 106 668 94C657 86 641 76 621 63C603 51 586 53 577 60C571 63 569 72 576 83C597 116 610 149 611 184C611 230 613 281 613 337C612 424 612 424 611 468C608 620 603 718 593 764C579 822 581 857 592 893C594 902 604 924 613 931C618 935 621 934 628 929C632 925 639 918 646 903C653 886 656 866 656 844C655 814 652 687 657 463C658 432 658 432 658 417Z"/>
<path id="z26519d7" d="M598 389C579 433 557 476 532 517C502 563 451 629 383 715C378 721 380 725 388 726C392 726 396 724 403 719C487 650 557 567 612 468C651 403 626 319 598 389Z"/>
<path id="z26519d8" d="M657 463C697 533 743 605 797 680C807 694 823 701 844 702C912 704 958 703 981 701C987 700 991 698 992 695C992 692 989 686 980 682C879 628 810 582 770 540C734 502 696 462 658 417C647 406 650 449 657 463Z"/>
<defs>
	<clipPath id="z26519c1"><use href="#z26519d1"/></clipPath>
	<clipPath id="z26519c2"><use href="#z26519d2"/></clipPath>
	<clipPath id="z26519c3"><use href="#z26519d3"/></clipPath>
	<clipPath id="z26519c4"><use href="#z26519d4"/></clipPath>
	<clipPath id="z26519c5"><use href="#z26519d5"/></clipPath>
	<clipPath id="z26519c6"><use href="#z26519d6"/></clipPath>
	<clipPath id="z26519c7"><use href="#z26519d7"/></clipPath>
	<clipPath id="z26519c8"><use href="#z26519d8"/></clipPath>
<marker id="guide-arrow" viewBox="0 0 16 16" refX="5" refY="5" markerWidth="4" markerHeight="4" orient="auto-start-reverse"><path d="M 0 0 L 10 5 L 0 10 z" fill="inherit"/></marker></defs>
<path style="--d:1s;" pathLength="3333" clip-path="url(#z26519c1)" d="M104 409L434 363"/>
<path style="--d:2s;" pathLength="3333" clip-path="url(#z26519c2)" d="M254 106L313 167L282 888"/>
<path style="--d:3s;" pathLength="3333" clip-path="url(#z26519c3)" d="M284 398L216 563L63 756"/>
<path style="--d:4s;" pathLength="3333" clip-path="url(#z26519c4)" d="M325 487L410 554"/>
<path style="--d:5s;" pathLength="3333" clip-path="url(#z26519c5)" d="M472 370L577 369L841 309"/>
<path style="--d:6s;" pathLength="3333" clip-path="url(#z26519c6)" d="M578 64L644 145L619 929"/>
<path style="--d:7s;" pathLength="3333" clip-path="url(#z26519c7)" d="M620 370L559 514L388 719"/>
<path style="--d:8s;" pathLength="3333" clip-path="url(#z26519c8)" d="M658 426L831 649L985 694"/>
<g class="guides"><circle style="--d: 1s" class="g1" cx="104" cy="409" r="16"/><path style="--d: 1s;" class="g1" d="M104,505 L434,459"/><circle style="--d: 2s" class="g2" cx="254" cy="106" r="16"/><path style="--d: 2s;" class="g2" d="M158,106 Q217,167 213.125,257.125 Q189.875,797.875 186,888"/><circle style="--d: 3s" class="g3" cx="284" cy="398" r="16"/><path style="--d: 3s;" class="g3" d="M188,398 Q154,518.754189944134 144.4375,536.4099162011173 Q87.0625,642.3442737430167 77.5,660"/><circle style="--d: 4s" class="g4" cx="325" cy="487" r="16"/><path style="--d: 4s;" class="g4" d="M410.68,418.456 L495.68,485.456"/><circle style="--d: 5s" class="g5" cx="472" cy="370" r="16"/><path style="--d: 5s;" class="g5" d="M472,466 Q577,465 610,457.5 Q808,412.5 841,405"/><circle style="--d: 6s" class="g6" cx="578" cy="64" r="16"/><path style="--d: 6s;" class="g6" d="M482,64 Q548,145 544.875,243 Q526.125,831 523,929"/><circle style="--d: 7s" class="g7" cx="620" cy="370" r="16"/><path style="--d: 7s;" class="g7" d="M524,370 Q493.5,474.3896848137536 482.8125,492.9659742120344 Q418.6875,604.4237106017192 408,623"/><circle style="--d: 8s" class="g8" cx="658" cy="426" r="16"/><path style="--d: 8s;" class="g8" d="M743.68,357.456 Q871.3508256880733,557.6101492537314 885.5569724770642,562.658880597015 Q970.7938532110092,592.9512686567164 985,598"/></g></svg>