<svg id="z26550" class="acjk" viewBox="0 0 1024 1024" xmlns="http://www.w3.org/2000/svg">
<style>

@keyframes zk {
	to {
		stroke-dashoffset:0;
	}
}
svg.acjk path[clip-path] {
	--t:0.8s;
	animation:zk var(--t) linear forwards var(--d);
	stroke-dasharray:3337;
	stroke-dashoffset:3339;
	stroke-width:128;
	stroke-linecap:round;
	fill:none;
	stroke:#000;
}
svg.acjk path[id] {fill:#ccc;}


    @keyframes guide-fade {
        0% { opacity: 0; }
        3% { opacity: 1; }
        95% { opacity: 1; }
        100% { opacity: 0; }
    }

    svg.acjk #guide-arrow {
        fill: #f77;
    }

    svg.acjk .guides {
        circle {
            fill: #0f6;
        }

        path {
            opacity: 0;
            animation: guide-fade var(--t) linear forwards var(--d);
            stroke-width: 16px;
            stroke-linecap: round;
            stroke: #f77;
            fill: none;
            marker-end: url(#guide-arrow);
        }

        circle,
        path {
            --t: 0.8s;
            opacity: 0;
            animation: guide-fade calc(var(--t) + 0.4s) ease-in-out forwards calc(var(--d) - 0.2s);
        }
    }
</style>
<path id="z26550d1" d="M355 236C373 231 391 227 409 225C421 223 428 224 431 228C435 234 435 247 433 266C426 316 417 353 405 375C393 395 378 403 361 400C346 396 332 391 318 387C303 382 299 388 311 402C335 428 354 449 367 468C375 480 384 480 397 473C432 451 462 395 482 301C489 265 496 241 508 231C516 223 518 215 514 209C509 202 491 191 459 177C446 171 434 173 423 181C413 187 393 194 365 202C327 212 327 212 308 217C261 229 218 233 178 237C167 237 160 240 159 246C157 250 165 256 180 264C195 272 208 274 220 271C246 262 273 255 299 249C336 240 336 240 355 236Z"/>
<path id="z26550d2" d="M299 249C276 330 213 406 136 485C132 488 129 491 126 495C121 500 121 503 126 505C130 506 136 504 143 501C181 480 214 453 245 423C288 380 330 320 355 236C362 213 362 213 365 202C367 193 372 169 390 133C393 125 394 120 390 114C385 108 373 100 353 92C338 85 328 84 322 86C314 88 311 94 313 105C319 137 319 175 308 217C302 238 302 238 299 249Z"/>
<path id="z26550d3" d="M586 203C579 199 565 195 546 191C537 189 533 190 531 193C527 196 526 202 532 214C548 251 562 301 571 362C573 380 579 396 589 409C599 422 607 425 611 415C613 408 615 399 615 389C614 367 614 367 613 356C612 347 599 251 596 231C594 221 595 207 586 203Z"/>
<path id="z26550d4" d="M763 339C777 286 792 252 809 236C825 219 825 205 810 195C797 186 781 175 763 163C750 154 737 154 724 162C697 176 651 190 586 203C576 205 586 233 596 231C626 225 659 219 697 213C713 210 723 212 728 219C732 224 732 237 728 260C723 282 717 307 710 333C707 350 760 356 763 339Z"/>
<path id="z26550d5" d="M615 389C621 389 628 388 635 387C663 380 709 375 772 371C778 370 783 367 784 361C784 356 777 349 763 339C749 328 727 330 710 333C695 337 641 350 613 356C602 358 604 389 615 389Z"/>
<path id="z26550d6" d="M548 562C622 555 718 543 842 556C856 557 866 556 870 550C875 541 873 532 866 526C818 483 780 474 749 486C733 491 660 502 531 518C498 522 498 522 482 524C448 528 410 531 310 543C269 547 218 553 158 554C149 554 144 557 144 565C143 573 149 581 161 590C171 597 187 605 207 613C213 615 222 613 235 609C288 591 356 577 439 571C512 565 512 565 548 562Z"/>
<path id="z26550d7" d="M531 518C531 503 532 491 535 482C536 474 534 468 530 465C514 452 502 441 489 436C481 432 474 435 468 440C464 442 465 446 470 453C474 458 482 491 482 524C482 572 482 572 482 596C482 726 475 803 468 830C461 852 472 881 493 916C500 928 505 936 512 938C518 939 524 934 528 926C532 914 535 881 535 829C533 763 528 679 530 579C531 538 531 538 531 518Z"/>
<path id="z26550d8" d="M439 571C393 653 294 737 143 825C131 831 130 837 141 839C166 842 215 829 279 791C337 755 375 718 400 694C410 684 443 649 482 596C508 563 458 533 439 571Z"/>
<path id="z26550d9" d="M530 579C658 733 739 814 775 823C807 830 857 829 928 820C940 818 946 817 948 814C949 809 945 805 936 801C903 786 866 772 827 757C734 721 710 706 548 562C535 549 519 564 530 579Z"/>
<defs>
	<clipPath id="z26550c1"><use href="#z26550d1"/></clipPath>
	<clipPath id="z26550c2"><use href="#z26550d2"/></clipPath>
	<clipPath id="z26550c3"><use href="#z26550d3"/></clipPath>
	<clipPath id="z26550c4"><use href="#z26550d4"/></clipPath>
	<clipPath id="z26550c5"><use href="#z26550d5"/></clipPath>
	<clipPath id="z26550c6"><use href="#z26550d6"/></clipPath>
	<clipPath id="z26550c7"><use href="#z26550d7"/></clipPath>
	<clipPath id="z26550c8"><use href="#z26550d8"/></clipPath>
	<clipPath id="z26550c9"><use href="#z26550d9"/></clipPath>
<marker id="guide-arrow" viewBox="0 0 16 16" refX="5" refY="5" markerWidth="4" markerHeight="4" orient="auto-start-reverse"><path d="M 0 0 L 10 5 L 0 10 z" fill="inherit"/></marker></defs>
<path style="--d:1s;" pathLength="3333" clip-path="url(#z26550c1)" d="M166 246L215 253L436 199L464 214L451 320L408 418L374 439L313 393"/>
<path style="--d:2s;" pathLength="3333" clip-path="url(#z26550c2)" d="M322 89L354 124L306 292L243 393L130 498"/>
<path style="--d:3s;" pathLength="3333" clip-path="url(#z26550c3)" d="M536 200L567 228L603 414"/>
<path style="--d:4s;" pathLength="3333" clip-path="url(#z26550c4)" d="M592 204L730 185L767 206L729 334"/>
<path style="--d:5s;" pathLength="3333" clip-path="url(#z26550c5)" d="M620 381L708 354L779 363"/>
<path style="--d:6s;" pathLength="3333" clip-path="url(#z26550c6)" d="M149 562L215 583L771 515L868 538"/>
<path style="--d:7s;" pathLength="3333" clip-path="url(#z26550c7)" d="M474 443L506 479L514 933"/>
<path style="--d:8s;" pathLength="3333" clip-path="url(#z26550c8)" d="M474 575L322 732L141 832"/>
<path style="--d:9s;" pathLength="3333" clip-path="url(#z26550c9)" d="M537 571L754 766L939 811"/>
<g class="guides"><circle style="--d: 1s" class="g1" cx="166" cy="246" r="16"/><path style="--d: 1s;" class="g1" d="M166,342 Q199.21476510067114,322 274.1174496644295,308.5 Q349.0201342281879,295 358.51006711409394,302.5 Q368,310 363.59395973154363,332.75 Q359.18791946308727,355.5 344.6140939597316,380 Q330.0402684563758,404.5 318.51677852348996,409.75 Q306.99328859060404,415 286.3187919463087,403.5 Q286.3187919463087,403.5 265.6442953020134,392"/><circle style="--d: 2s" class="g2" cx="322" cy="89" r="16"/><path style="--d: 2s;" class="g2" d="M226,89 Q244.28571428571428,115.78484107579462 230.57142857142856,180.0684596577017 Q216.85714285714283,244.3520782396088 198.85714285714283,282.99877750611245 Q180.85714285714283,321.6454767726161 148.57142857142856,361.82273838630806 Q148.57142857142856,361.82273838630806 116.28571428571428,402"/><circle style="--d: 3s" class="g3" cx="552" cy="214" r="16"/><path style="--d: 3s;" class="g3" d="M672,214 L723,414"/><circle style="--d: 4s" class="g4" cx="592" cy="204" r="16"/><path style="--d: 4s;" class="g4" d="M592,300 Q661,281 665.625,283.625 Q679.5,291.5 674.75,307.5 Q665.25,339.5 660.5,355.5"/><circle style="--d: 5s" class="g5" cx="620" cy="381" r="16"/><path style="--d: 5s;" class="g5" d="M620,477 Q708,450 716.875,451.125 Q770.125,457.875 779,459"/><circle style="--d: 6s" class="g6" cx="149" cy="562" r="16"/><path style="--d: 6s;" class="g6" d="M149,658 Q215,679 354,662 Q771,611 795.25,616.75 Q843.75,628.25 868,634"/><circle style="--d: 7s" class="g7" cx="474" cy="443" r="16"/><path style="--d: 7s;" class="g7" d="M559.68,374.456 Q591.68,410.456 592.68,467.206 Q598.68,807.706 599.68,864.456"/><circle style="--d: 8s" class="g8" cx="474" cy="575" r="16"/><path style="--d: 8s;" class="g8" d="M559.68,643.544 Q407.68,800.544 385.055,813.044 Q249.305,888.044 226.68,900.544"/><circle style="--d: 9s" class="g9" cx="537" cy="571" r="16"/><path style="--d: 9s;" class="g9" d="M622.68,502.456 Q793.4298507462686,675.148 811.626119402985,680.1295 Q920.8037313432835,710.0185 938.9999999999999,715"/></g></svg>