<svg id="z26556" class="acjk" viewBox="0 0 1024 1024" xmlns="http://www.w3.org/2000/svg">
<style>

@keyframes zk {
	to {
		stroke-dashoffset:0;
	}
}
svg.acjk path[clip-path] {
	--t:0.8s;
	animation:zk var(--t) linear forwards var(--d);
	stroke-dasharray:3337;
	stroke-dashoffset:3339;
	stroke-width:128;
	stroke-linecap:round;
	fill:none;
	stroke:#000;
}
svg.acjk path[id] {fill:#ccc;}


    @keyframes guide-fade {
        0% { opacity: 0; }
        3% { opacity: 1; }
        95% { opacity: 1; }
        100% { opacity: 0; }
    }

    svg.acjk #guide-arrow {
        fill: #f77;
    }

    svg.acjk .guides {
        circle {
            fill: #0f6;
        }

        path {
            opacity: 0;
            animation: guide-fade var(--t) linear forwards var(--d);
            stroke-width: 16px;
            stroke-linecap: round;
            stroke: #f77;
            fill: none;
            marker-end: url(#guide-arrow);
        }

        circle,
        path {
            --t: 0.8s;
            opacity: 0;
            animation: guide-fade calc(var(--t) + 0.4s) ease-in-out forwards calc(var(--d) - 0.2s);
        }
    }
</style>
<path id="z26556d1" d="M383 268C411 263 444 258 484 253C511 250 511 250 525 249C557 245 593 243 633 241C664 240 664 240 680 239C700 238 775 237 905 236C919 236 927 233 931 226C935 218 931 207 920 197C881 163 840 158 795 169C765 177 731 183 695 189C658 196 658 196 639 199C603 206 564 211 524 217C494 222 494 222 479 224C448 229 417 232 385 236C348 241 348 241 329 243C260 251 188 259 113 269C98 271 95 276 107 291C116 302 127 309 140 313C153 318 167 317 179 314C227 298 279 284 334 276C367 271 367 271 383 268Z"/>
<path id="z26556d2" d="M484 253C491 298 499 366 507 377C515 389 516 381 523 366C527 356 526 345 526 334C523 303 525 263 525 249C524 228 524 228 524 217C523 209 524 193 526 180C527 168 526 159 521 155C511 147 499 140 486 136C473 131 462 134 453 141C446 146 450 150 456 160C468 180 474 195 479 224C482 243 482 243 484 253Z"/>
<path id="z26556d3" d="M657 320C657 320 672 264 680 239C690 206 690 206 695 189C698 176 703 167 714 145C716 139 714 129 705 119C689 101 674 91 662 86C641 79 633 91 639 106C644 122 645 152 639 199C635 227 635 227 633 241C629 263 625 291 621 315C619 327 655 332 657 320Z"/>
<path id="z26556d4" d="M523 366C545 368 610 359 672 355C700 353 677 332 657 320C647 313 633 313 621 315C590 323 552 330 526 334C515 336 512 366 523 366Z"/>
<path id="z26556d5" d="M515 457C544 450 643 440 729 448C747 449 766 446 756 428C742 405 700 388 674 391C647 395 555 404 408 433C385 437 385 416 385 402C384 349 381 299 383 268C384 247 384 247 385 236C386 217 392 197 378 185C360 171 342 159 320 155C289 149 294 174 305 188C314 202 325 219 329 243C332 265 332 265 334 276C345 352 338 414 320 458C312 476 320 494 346 514C353 519 361 515 371 507C396 485 437 473 489 462C506 459 506 459 515 457Z"/>
<path id="z26556d6" d="M562 586C620 578 704 574 815 573C827 573 835 570 839 563C842 556 839 546 828 536C794 508 765 502 741 508C693 520 630 535 554 548C520 554 520 554 503 557C418 572 326 583 228 598C213 601 212 608 223 620C231 629 242 632 254 636C268 640 279 640 290 637C339 620 392 607 448 600C524 591 524 591 562 586Z"/>
<path id="z26556d7" d="M554 548C556 479 566 484 515 457C507 452 486 454 489 462C499 493 503 532 503 557C502 598 502 598 502 618C500 688 497 779 486 833C480 858 487 888 509 930C518 948 535 964 544 942C553 919 553 896 553 874C551 845 547 754 552 611C553 569 553 569 554 548Z"/>
<path id="z26556d8" d="M448 600C408 678 316 758 175 837C162 844 161 853 172 853C305 843 437 724 502 618C528 575 471 555 448 600Z"/>
<path id="z26556d9" d="M552 611C606 679 663 747 723 809C738 825 759 835 786 835C833 836 881 827 932 817C952 813 982 811 939 797C823 760 758 735 742 725C728 717 670 666 562 586C546 573 540 595 552 611Z"/>
<defs>
	<clipPath id="z26556c1"><use href="#z26556d1"/></clipPath>
	<clipPath id="z26556c2"><use href="#z26556d2"/></clipPath>
	<clipPath id="z26556c3"><use href="#z26556d3"/></clipPath>
	<clipPath id="z26556c4"><use href="#z26556d4"/></clipPath>
	<clipPath id="z26556c5"><use href="#z26556d5"/></clipPath>
	<clipPath id="z26556c6"><use href="#z26556d6"/></clipPath>
	<clipPath id="z26556c7"><use href="#z26556d7"/></clipPath>
	<clipPath id="z26556c8"><use href="#z26556d8"/></clipPath>
	<clipPath id="z26556c9"><use href="#z26556d9"/></clipPath>
<marker id="guide-arrow" viewBox="0 0 16 16" refX="5" refY="5" markerWidth="4" markerHeight="4" orient="auto-start-reverse"><path d="M 0 0 L 10 5 L 0 10 z" fill="inherit"/></marker></defs>
<path style="--d:1s;" pathLength="3333" clip-path="url(#z26556c1)" d="M106 275L174 288L834 200L928 216"/>
<path style="--d:2s;" pathLength="3333" clip-path="url(#z26556c2)" d="M457 147L497 175L510 372"/>
<path style="--d:3s;" pathLength="3333" clip-path="url(#z26556c3)" d="M646 91L679 145L633 322"/>
<path style="--d:4s;" pathLength="3333" clip-path="url(#z26556c4)" d="M522 355L679 344"/>
<path style="--d:5s;" pathLength="3333" clip-path="url(#z26556c5)" d="M301 162L356 218L355 446L372 473L614 422L754 431"/>
<path style="--d:6s;" pathLength="3333" clip-path="url(#z26556c6)" d="M225 606L282 614L749 540L836 557"/>
<path style="--d:7s;" pathLength="3333" clip-path="url(#z26556c7)" d="M496 461L528 506L526 948"/>
<path style="--d:8s;" pathLength="3333" clip-path="url(#z26556c8)" d="M500 585L345 754L172 847"/>
<path style="--d:9s;" pathLength="3333" clip-path="url(#z26556c9)" d="M553 592L759 782L951 807"/>
<g class="guides"><circle style="--d: 1s" class="g1" cx="106" cy="275" r="16"/><path style="--d: 1s;" class="g1" d="M106,371 Q174,384 339,362 Q834,296 857.5,300 Q904.5,308 928,312"/><circle style="--d: 2s" class="g2" cx="457" cy="147" r="16"/><path style="--d: 2s;" class="g2" d="M542.68,78.456 Q582.68,106.456 584.305,131.08100000000002 Q594.055,278.831 595.68,303.456"/><circle style="--d: 3s" class="g3" cx="646" cy="91" r="16"/><path style="--d: 3s;" class="g3" d="M550,91 Q583,145 577.25,167.125 Q542.75,299.875 537,322"/><circle style="--d: 4s" class="g4" cx="522" cy="355" r="16"/><path style="--d: 4s;" class="g4" d="M522,451 L679,440"/><circle style="--d: 5s" class="g5" cx="301" cy="162" r="16"/><path style="--d: 5s;" class="g5" d="M386.68,93.456 Q431.27735099337747,144.512154340836 430.8719205298013,248.4478971061093 Q430.46649006622516,352.3836398713826 437.35880794701984,364.69181993569134 Q444.2511258278146,377 542.365298013245,353.75121543408363 Q640.4794701986755,330.5024308681672 697.2397350993377,334.6051575562701 Q697.2397350993377,334.6051575562701 754,338.707884244373"/><circle style="--d: 6s" class="g6" cx="225" cy="606" r="16"/><path style="--d: 6s;" class="g6" d="M225,702 Q282,710 398.75,691.5 Q749,636 770.75,640.25 Q814.25,648.75 836,653"/><circle style="--d: 7s" class="g7" cx="496" cy="461" r="16"/><path style="--d: 7s;" class="g7" d="M400,461 Q432,506 431.75,561.25 Q430.25,892.75 430,948"/><circle style="--d: 8s" class="g8" cx="500" cy="585" r="16"/><path style="--d: 8s;" class="g8" d="M585.68,653.544 Q430.68,822.544 409.055,834.169 Q279.305,903.919 257.68,915.544"/><circle style="--d: 9s" class="g9" cx="553" cy="592" r="16"/><path style="--d: 9s;" class="g9" d="M638.68,523.456 Q800.3330653266331,689.1925581395349 819.166432160804,691.918488372093 Q932.1666331658291,708.2740697674419 951,711"/></g></svg>