<!--
  Stroke-order data for 某, derived from AnimCJK (https://github.com/parsimonhi/animCJK),
  itself derived from the Arphic PL KaitiM fonts. Distributed under the Arphic Public License
  (see ARPHICPL.TXT). Regenerated by scripts/build-strokes.ts — do not edit by hand.
-->
<svg id="z26576" class="acjk" viewBox="0 0 1024 1024" xmlns="http://www.w3.org/2000/svg">
<g class="glyph"><path style="--part:1" id="z26576d1" d="M646 201C699 194 749 190 795 188C825 186 820 167 795 155C742 128 691 150 655 158C618 165 618 165 599 169C538 180 471 189 416 196C379 200 379 200 361 202C315 206 267 208 218 212C199 213 196 219 210 232C226 248 253 255 289 251C313 247 339 243 367 239C400 234 400 234 417 231C471 222 531 214 596 207C629 203 629 203 646 201Z"/><path style="--part:1" id="z26576d2" d="M416 196C414 149 426 128 411 116C400 107 380 98 367 95C352 91 337 91 325 100C317 104 320 112 329 122C346 143 356 171 361 202C365 227 365 227 367 239C378 309 381 375 386 437C387 455 392 471 399 483C403 490 408 490 414 486C418 482 420 473 422 460C423 449 425 438 425 428C423 400 423 377 422 348C421 329 421 329 421 319C419 288 417 259 417 231C416 208 416 208 416 196Z"/><path style="--part:1" id="z26576d3" d="M570 442C585 470 592 485 606 478C617 472 620 457 622 437C629 316 638 238 646 201C652 172 652 172 655 158C662 120 667 110 681 91C685 84 685 75 677 66C663 50 645 39 626 30C613 23 603 21 593 24C583 26 579 33 584 44C603 90 603 111 599 169C597 194 597 194 596 207C584 352 578 391 570 407C566 418 565 432 570 442Z"/><path style="--part:1" id="z26576d4" d="M422 348C455 338 503 333 536 328C550 325 555 319 549 311C542 302 531 296 515 295C488 292 457 301 421 319C413 324 413 350 422 348Z"/><path style="--part:1" id="z26576d5" d="M422 460C450 456 527 445 570 442C582 442 581 411 570 407C531 391 523 408 425 428C414 430 411 462 422 460Z"/><path style="--part:2" id="z26576d6" d="M519 589C582 581 696 578 856 580C887 580 898 564 871 543C832 513 793 505 750 515C689 527 610 538 519 552C487 557 487 557 471 559C370 573 261 581 146 596C131 597 129 605 140 617C149 627 161 634 174 638C188 642 201 642 214 639C282 620 356 608 434 599C491 592 491 592 519 589Z"/><path style="--part:2" id="z26576d7" d="M519 595C519 592 519 590 519 589C519 564 519 564 519 552C519 524 532 520 514 502C504 493 492 483 481 480C457 472 451 481 461 496C467 505 471 526 471 559C470 611 470 611 470 637C468 770 452 840 450 849C443 873 452 902 473 936C487 960 499 966 508 947C517 926 517 906 517 886C515 822 517 661 518 632C519 607 519 607 519 595Z"/><path style="--part:2" id="z26576d8" d="M434 599C363 720 236 799 135 861C114 873 128 878 149 874C282 847 398 738 470 637C494 597 462 562 434 599Z"/><path style="--part:2" id="z26576d9" d="M518 632C654 782 737 862 770 869C813 877 868 869 936 860C958 856 971 850 944 840C809 787 733 756 717 746C671 717 605 667 519 595C509 587 511 622 518 632Z"/></g>
<defs><clipPath id="z26576c1"><use href="#z26576d1"/></clipPath>
	<clipPath id="z26576c2"><use href="#z26576d2"/></clipPath>
	<clipPath id="z26576c3"><use href="#z26576d3"/></clipPath>
	<clipPath id="z26576c4"><use href="#z26576d4"/></clipPath>
	<clipPath id="z26576c5"><use href="#z26576d5"/></clipPath>
	<clipPath id="z26576c6"><use href="#z26576d6"/></clipPath>
	<clipPath id="z26576c7"><use href="#z26576d7"/></clipPath>
	<clipPath id="z26576c8"><use href="#z26576d8"/></clipPath>
	<clipPath id="z26576c9"><use href="#z26576d9"/></clipPath><marker id="guide-arrow" viewBox="0 0 16 16" refX="5" refY="5" markerWidth="4" markerHeight="4" orient="auto-start-reverse"><path d="M 0 0 L 10 5 L 0 10 z" fill="inherit"/></marker></defs>
<g class="strokes"><path style="--part:1" pathLength="3333" clip-path="url(#z26576c1)" d="M211 223L811 172"/><path style="--part:1" pathLength="3333" clip-path="url(#z26576c2)" d="M328 107L384 143L405 484"/><path style="--part:1" pathLength="3333" clip-path="url(#z26576c3)" d="M589 34L641 90L597 475"/><path style="--part:1" pathLength="3333" clip-path="url(#z26576c4)" d="M420 339L544 313"/><path style="--part:1" pathLength="3333" clip-path="url(#z26576c5)" d="M420 452L575 428"/><path style="--part:2" pathLength="3333" clip-path="url(#z26576c6)" d="M141 607L764 545L882 564"/><path style="--part:2" pathLength="3333" clip-path="url(#z26576c7)" d="M465 485L496 523L487 952"/><path style="--part:2" pathLength="3333" clip-path="url(#z26576c8)" d="M461 589L346 741L133 869"/><path style="--part:2" pathLength="3333" clip-path="url(#z26576c9)" d="M519 601L749 808L950 847"/></g>
<g class="guides"><text class="g1" style="--gs:1" x="211" y="223">①</text><path class="g1 aligned" style="--gs:1" d="M211,223 L811,172"/><path class="g1 offset" style="--gs:1" d="M211,319 L811,268"/><text class="g2" style="--gs:2" x="328" y="107">②</text><path class="g2 aligned" style="--gs:2" d="M328,107 Q384,143 386.63,185.63 Q402.38,441.38 405,484"/><path class="g2 offset" style="--gs:2" d="M413.68,38.46 Q469.68,74.46 472.31,117.08 Q488.06,372.83 490.68,415.46"/><text class="g3" style="--gs:3" x="589" y="34">③</text><path class="g3 aligned" style="--gs:3" d="M589,34 Q641,90 635.5,138.13 Q602.5,426.88 597,475"/><path class="g3 offset" style="--gs:3" d="M493,34 Q545,90 539.5,138.13 Q506.5,426.88 501,475"/><text class="g4" style="--gs:4" x="420" y="339">④</text><path class="g4 aligned" style="--gs:4" d="M420,339 L544,313"/><path class="g4 offset" style="--gs:4" d="M420,435 L544,409"/><text class="g5" style="--gs:5" x="420" y="452">⑤</text><path class="g5 aligned" style="--gs:5" d="M420,452 L575,428"/><path class="g5 offset" style="--gs:5" d="M420,548 L575,524"/><text class="g6" style="--gs:6" x="141" y="607">⑥</text><path class="g6 aligned" style="--gs:6" d="M141,607 Q764,545 778.75,547.38 Q867.25,561.63 882,564"/><path class="g6 offset" style="--gs:6" d="M141,703 Q764,641 778.75,643.38 Q867.25,657.63 882,660"/><text class="g7" style="--gs:7" x="465" y="485">⑦</text><path class="g7 aligned" style="--gs:7" d="M465,485 Q496,523 494.88,576.63 Q488.13,898.38 487,952"/><path class="g7 offset" style="--gs:7" d="M369,485 Q400,523 398.88,576.63 Q392.13,898.38 391,952"/><text class="g8" style="--gs:8" x="461" y="589">⑧</text><path class="g8 aligned" style="--gs:8" d="M461,589 Q346,741 319.38,757 Q159.63,853 133,869"/><path class="g8 offset" style="--gs:8" d="M546.68,657.54 Q431.68,809.54 405.06,825.54 Q245.31,921.54 218.68,937.54"/><text class="g9" style="--gs:9" x="519" y="601">⑨</text><path class="g9 aligned" style="--gs:9" d="M519,601 Q749,808 774.13,812.88 Q924.88,842.13 950,847"/><path class="g9 offset" style="--gs:9" d="M604.68,532.46 Q788.96,716.35 809.09,720.68 Q929.87,746.67 950,751"/></g>
<g class="parts"><rect data-part="2" data-literal="木" data-radical="true" role="button" tabindex="0" aria-label="Part 木 (radical)" x="61" y="413" width="961" height="611"/><rect data-part="1" data-literal="甘" role="button" tabindex="0" aria-label="Part 甘" x="139" y="0" width="744" height="556"/></g>
</svg>
