<svg id="z26611" class="acjk" viewBox="0 0 1024 1024" xmlns="http://www.w3.org/2000/svg">
<style>

@keyframes zk {
	to {
		stroke-dashoffset:0;
	}
}
svg.acjk path[clip-path] {
	--t:0.8s;
	animation:zk var(--t) linear forwards var(--d);
	stroke-dasharray:3337;
	stroke-dashoffset:3339;
	stroke-width:128;
	stroke-linecap:round;
	fill:none;
	stroke:#000;
}
svg.acjk path[id] {fill:#ccc;}


    @keyframes guide-fade {
        0% { opacity: 0; }
        3% { opacity: 1; }
        95% { opacity: 1; }
        100% { opacity: 0; }
    }

    svg.acjk #guide-arrow {
        fill: #f77;
    }

    svg.acjk .guides {
        circle {
            fill: #0f6;
        }

        path {
            opacity: 0;
            animation: guide-fade var(--t) linear forwards var(--d);
            stroke-width: 16px;
            stroke-linecap: round;
            stroke: #f77;
            fill: none;
            marker-end: url(#guide-arrow);
        }

        circle,
        path {
            --t: 0.8s;
            opacity: 0;
            animation: guide-fade calc(var(--t) + 0.4s) ease-in-out forwards calc(var(--d) - 0.2s);
        }
    }
</style>
<path id="z26611d1" d="M300 339Q313 333 329 330Q360 320 365 315Q372 308 368 299Q361 289 331 284Q315 281 301 285C272 296 272 296 258 301Q162 334 106 343Q72 352 98 366Q143 384 196 368Q218 361 245 355C282 344 282 344 300 339Z"/>
<path id="z26611d2" d="M298 413Q299 377 300 339C301 303 301 303 301 285Q301 186 321 114Q336 89 306 69Q291 57 266 43Q244 27 223 41Q219 45 225 61Q256 109 257 157Q257 224 258 301C255 405 255 405 254 457Q251 643 238 700Q217 781 234 831Q235 837 240 846Q247 864 255 867Q261 874 268 865Q295 849 295 786Q294 746 298 439C298 422 298 422 298 413Z"/>
<path id="z26611d3" d="M245 355Q197 493 50 703Q44 713 56 714Q77 714 182 579Q221 528 255 457C291 367 276 262 245 354C245 355 245 355 245 355Z"/>
<path id="z26611d4" d="M298 439Q302 445 311 454Q354 505 364 508Q371 509 377 499Q383 489 379 465Q378 450 357 437Q305 410 298 413C289 413 293 432 298 439Z"/>
<path id="z26611d5" d="M460 321Q506 287 596 209Q614 193 637 181Q656 171 646 153Q633 137 606 124Q582 112 570 116Q557 117 562 131Q566 156 493 250Q471 277 446 307C441 312 455 325 460 321Z"/>
<path id="z26611d6" d="M554 484Q464 521 460 519Q453 518 454 500Q458 424 459 386Q458 358 460 334Q461 327 460 321C460 314 452 310 446 307Q430 295 414 289Q398 285 390 289Q381 295 393 311Q432 369 409 518Q403 539 387 564Q377 582 384 591Q391 603 415 612Q428 619 440 603Q458 570 546 516Q549 515 552 512C559 506 563 481 554 484Z"/>
<path id="z26611d7" d="M552 512Q552 656 454 774Q447 780 441 788Q396 831 395 837Q394 844 404 843Q468 836 552 706Q558 693 564 681Q603 579 607 363Q610 345 611 334Q617 315 597 307Q552 285 539 288Q520 292 536 312Q558 349 554 484C553 503 553 503 552 512Z"/>
<path id="z26611d8" d="M739 310Q788 294 825 288Q834 287 836 289Q846 302 847 338Q851 440 835 487Q823 515 800 515Q787 514 775 511Q750 502 768 527Q799 566 813 595Q835 613 850 593Q901 544 907 415Q907 303 921 276Q930 263 923 256Q914 247 868 234Q850 230 836 243Q815 255 731 284C723 287 731 313 739 310Z"/>
<path id="z26611d9" d="M674 935Q680 960 686 969Q692 976 699 974Q717 962 720 907Q729 823 727 741Q723 671 728 399Q731 342 739 310C741 301 737 290 731 284Q730 283 729 282Q698 260 682 258Q669 254 654 262Q645 269 652 280Q677 325 678 401Q678 539 672 741Q669 886 674 935Z"/>
<defs>
	<clipPath id="z26611c1"><use href="#z26611d1"/></clipPath>
	<clipPath id="z26611c2"><use href="#z26611d2"/></clipPath>
	<clipPath id="z26611c3"><use href="#z26611d3"/></clipPath>
	<clipPath id="z26611c4"><use href="#z26611d4"/></clipPath>
	<clipPath id="z26611c5"><use href="#z26611d5"/></clipPath>
	<clipPath id="z26611c6"><use href="#z26611d6"/></clipPath>
	<clipPath id="z26611c7"><use href="#z26611d7"/></clipPath>
	<clipPath id="z26611c8"><use href="#z26611d8"/></clipPath>
	<clipPath id="z26611c9"><use href="#z26611d9"/></clipPath>
<marker id="guide-arrow" viewBox="0 0 16 16" refX="5" refY="5" markerWidth="4" markerHeight="4" orient="auto-start-reverse"><path d="M 0 0 L 10 5 L 0 10 z" fill="inherit"/></marker></defs>
<path style="--d:1s;" pathLength="3333" clip-path="url(#z26611c1)" d="M92 353L364 302"/>
<path style="--d:2s;" pathLength="3333" clip-path="url(#z26611c2)" d="M228 46L287 106L263 864"/>
<path style="--d:3s;" pathLength="3333" clip-path="url(#z26611c3)" d="M253 359L195 519L56 707"/>
<path style="--d:4s;" pathLength="3333" clip-path="url(#z26611c4)" d="M303 419L367 503"/>
<path style="--d:5s;" pathLength="3333" clip-path="url(#z26611c5)" d="M569 123L598 170L455 311"/>
<path style="--d:6s;" pathLength="3333" clip-path="url(#z26611c6)" d="M393 295L435 344L422 554L447 564L547 492"/>
<path style="--d:7s;" pathLength="3333" clip-path="url(#z26611c7)" d="M536 298L579 330L559 621L492 757L400 835"/>
<path style="--d:8s;" pathLength="3333" clip-path="url(#z26611c8)" d="M736 285L847 262L883 283L859 512L818 559L768 515"/>
<path style="--d:9s;" pathLength="3333" clip-path="url(#z26611c9)" d="M657 269L699 299L704 331L690 968"/>
<g class="guides"><circle style="--d: 1s" class="g1" cx="92" cy="353" r="16"/><path style="--d: 1s;" class="g1" d="M92,449 L364,398"/><circle style="--d: 2s" class="g2" cx="228" cy="46" r="16"/><path style="--d: 2s;" class="g2" d="M132,46 Q191,106 188,200.75 Q170,769.25 167,864"/><circle style="--d: 3s" class="g3" cx="253" cy="359" r="16"/><path style="--d: 3s;" class="g3" d="M157,359 Q128,474.8620689655172 119.3125,491.87931034482756 Q67.1875,593.9827586206897 58.5,611"/><circle style="--d: 4s" class="g4" cx="303" cy="419" r="16"/><path style="--d: 4s;" class="g4" d="M388.68,350.456 L452.68,434.456"/><circle style="--d: 5s" class="g5" cx="569" cy="123" r="16"/><path style="--d: 5s;" class="g5" d="M473,123 Q487.5,146.5 478.5625,155.3125 Q424.9375,208.1875 416,217"/><circle style="--d: 6s" class="g6" cx="393" cy="295" r="16"/><path style="--d: 6s;" class="g6" d="M478.68,226.45600000000002 Q520.68,261.71122676579927 514.18,337.2581412639405 Q507.68,412.8050557620818 520.18,416.4025278810409 Q532.68,420 582.68,394.09820074349443 Q582.68,394.09820074349443 632.68,368.19640148698886"/><circle style="--d: 7s" class="g7" cx="536" cy="298" r="16"/><path style="--d: 7s;" class="g7" d="M440,298 Q461.5,324.27932960893855 456.5,443.768156424581 Q451.5,563.2569832402235 434.75,619.1005586592179 Q418,674.9441340782123 395,706.9720670391062 Q395,706.9720670391062 372,739"/><circle style="--d: 8s" class="g8" cx="736" cy="285" r="16"/><path style="--d: 8s;" class="g8" d="M736,381 Q791.5,358 800.5,368.5 Q809.5,379 803.5,431 Q797.5,483 787.25,494.75 Q777,506.5 764.5,495.5 Q764.5,495.5 752,484.5"/><circle style="--d: 9s" class="g9" cx="657" cy="269" r="16"/><path style="--d: 9s;" class="g9" d="M561,269 Q603,299 604.25,307 Q608,331 604.5,490.25 Q597.5,808.75 594,968"/></g></svg>