<!--
  Stroke-order data for 柵, derived from AnimCJK (https://github.com/parsimonhi/animCJK),
  itself derived from the Arphic PL KaitiM fonts. Distributed under the Arphic Public License
  (see ARPHICPL.TXT). Regenerated by scripts/build-strokes.ts — do not edit by hand.
-->
<svg id="z26613" class="acjk" viewBox="0 0 1024 1024" xmlns="http://www.w3.org/2000/svg">
<g class="glyph"><path style="--part:1" id="z26613d1" d="M278 374C288 371 299 367 313 364C333 358 345 352 349 349C355 343 355 337 352 332C347 324 334 317 314 315C300 313 289 314 279 318C252 328 252 328 238 333C180 354 128 366 83 377C58 382 55 392 74 401C101 413 157 412 217 393C230 388 230 388 236 386C264 378 264 378 278 374Z"/><path style="--part:1" id="z26613d2" d="M233 496C229 622 224 701 224 707C220 741 212 774 203 807C195 831 199 864 216 906C220 918 226 923 231 927C236 930 238 930 244 925C247 921 255 914 262 901C269 884 271 866 271 846C270 820 266 717 274 540C275 525 275 525 275 517C276 473 277 425 278 374C279 337 279 337 279 318C280 254 282 195 301 146C307 127 305 114 286 101C275 93 262 85 246 75C230 65 216 63 203 73C199 75 198 83 204 93C224 127 238 159 238 193C238 286 238 286 238 333C237 368 237 368 236 386C234 459 234 459 233 496Z"/><path style="--part:1" id="z26613d3" d="M217 393C190 474 135 601 53 728C49 734 52 738 60 738C74 738 115 695 169 614C201 564 222 520 233 496C271 400 255 297 217 393Z"/><path style="--part:1" id="z26613d4" d="M274 540C278 542 282 546 288 550C305 562 324 576 343 591C349 596 356 598 364 598C368 597 372 594 374 588C375 581 376 570 369 558C357 538 297 522 275 517C267 515 268 535 274 540Z"/><path style="--part:2" id="z26613d5" d="M462 252C440 239 422 234 412 240C405 243 403 251 409 258C430 282 443 355 435 483C433 512 433 512 432 527C426 613 393 713 339 826C336 830 334 833 334 837C333 843 336 845 342 843C364 832 394 788 429 709C447 667 468 592 474 516C476 490 476 490 477 477C478 454 478 401 479 318C479 308 479 298 481 290C483 276 475 258 462 252Z"/><path style="--part:2" id="z26613d6" d="M806 474C815 701 806 823 790 838C782 844 757 843 716 838C705 836 700 839 702 845C702 849 708 852 716 857C755 882 783 907 803 927C815 939 826 945 835 943C843 941 850 930 857 912C866 883 870 848 868 806C860 671 854 560 851 473C850 436 850 436 849 417C845 327 849 273 858 256C864 243 865 233 859 225C852 216 834 204 804 189C792 182 763 188 717 201C613 228 528 244 462 252C448 255 468 294 481 290C481 289 484 289 488 288C564 267 650 249 744 232C758 229 768 230 777 237C786 244 799 305 804 426C805 458 805 458 806 474Z"/><path style="--part:2" id="z26613d7" d="M545 502C542 590 534 654 524 692C516 722 521 749 540 775C545 783 551 783 557 776C567 762 572 722 574 657C575 593 578 539 580 496C581 474 581 474 581 463C583 376 586 332 586 331C583 321 571 311 549 302C542 299 536 298 531 301C526 303 526 308 529 316C542 362 547 414 546 468C545 491 545 491 545 502Z"/><path style="--part:2" id="z26613d8" d="M663 485C660 569 656 638 643 692C634 726 641 756 663 783C669 790 675 791 682 784C692 771 697 732 698 668C698 593 701 531 701 481C701 456 701 456 701 444C701 345 704 295 704 294C703 287 696 281 684 274C678 270 672 266 663 263C656 260 650 259 643 263C638 265 639 270 642 278C657 330 665 388 664 450C663 473 663 473 663 485Z"/><path style="--part:2" id="z26613d9" d="M851 473C875 472 912 471 960 471C972 470 979 467 983 462C986 455 982 446 972 438C935 410 895 404 851 416C850 416 850 416 849 417C819 423 819 423 804 426C772 432 737 438 701 444C676 448 676 448 664 450C636 454 608 459 581 463C558 466 558 466 546 468C530 470 499 473 477 477C449 481 449 481 435 483C406 487 377 489 348 494C334 496 332 502 343 513C351 521 361 528 374 531C379 532 400 535 432 527C460 520 460 520 474 516C496 510 520 506 545 502C568 498 568 498 580 496C606 491 633 488 663 485C688 482 688 482 701 481C731 477 766 474 806 474C836 473 836 473 851 473Z"/></g>
<defs><clipPath id="z26613c1"><use href="#z26613d1"/></clipPath>
	<clipPath id="z26613c2"><use href="#z26613d2"/></clipPath>
	<clipPath id="z26613c3"><use href="#z26613d3"/></clipPath>
	<clipPath id="z26613c4"><use href="#z26613d4"/></clipPath>
	<clipPath id="z26613c5"><use href="#z26613d5"/></clipPath>
	<clipPath id="z26613c6"><use href="#z26613d6"/></clipPath>
	<clipPath id="z26613c7"><use href="#z26613d7"/></clipPath>
	<clipPath id="z26613c8"><use href="#z26613d8"/></clipPath>
	<clipPath id="z26613c9"><use href="#z26613d9"/></clipPath><marker id="guide-arrow" viewBox="0 0 16 16" refX="5" refY="5" markerWidth="4" markerHeight="4" orient="auto-start-reverse"><path d="M 0 0 L 10 5 L 0 10 z" fill="inherit"/></marker></defs>
<g class="strokes"><path style="--part:1" pathLength="3333" clip-path="url(#z26613c1)" d="M70 390L348 339"/><path style="--part:1" pathLength="3333" clip-path="url(#z26613c2)" d="M208 76L268 135L237 923"/><path style="--part:1" pathLength="3333" clip-path="url(#z26613c3)" d="M231 398L188 547L58 729"/><path style="--part:1" pathLength="3333" clip-path="url(#z26613c4)" d="M281 524L365 593"/><path style="--part:2" pathLength="3333" clip-path="url(#z26613c5)" d="M414 246L454 298L449 548L401 728L339 836"/><path style="--part:2" pathLength="3333" clip-path="url(#z26613c6)" d="M471 257L498 267L763 209L822 241L830 846L805 894L709 846"/><path style="--part:2" pathLength="3333" clip-path="url(#z26613c7)" d="M536 309L560 338L564 402L549 776"/><path style="--part:2" pathLength="3333" clip-path="url(#z26613c8)" d="M649 271L677 304L681 370L668 783"/><path style="--part:2" pathLength="3333" clip-path="url(#z26613c9)" d="M345 505L858 443L979 450"/></g>
<g class="guides"><text class="g1" style="--gs:1" x="70" y="390">①</text><path class="g1 aligned" style="--gs:1" d="M70,390 L348,339"/><path class="g1 offset" style="--gs:1" d="M70,486 L348,435"/><text class="g2" style="--gs:2" x="208" y="76">②</text><path class="g2 aligned" style="--gs:2" d="M208,76 Q268,135 264.13,233.5 Q240.88,824.5 237,923"/><path class="g2 offset" style="--gs:2" d="M112,76 Q172,135 168.13,233.5 Q144.88,824.5 141,923"/><text class="g3" style="--gs:3" x="231" y="398">③</text><path class="g3 aligned" style="--gs:3" d="M231,398 Q188,547 171.75,569.75 Q74.25,706.25 58,729"/><path class="g3 offset" style="--gs:3" d="M135,398 Q113.5,503.79 105.38,519.94 Q56.63,616.85 48.5,633"/><text class="g4" style="--gs:4" x="281" y="524">④</text><path class="g4 aligned" style="--gs:4" d="M281,524 L365,593"/><path class="g4 offset" style="--gs:4" d="M366.68,455.46 L450.68,524.46"/><text class="g5" style="--gs:5" x="414" y="246">⑤</text><path class="g5 aligned" style="--gs:5" d="M414,246 Q454,298 451.5,423 Q449,548 425,638 Q401,728 370,782 Q370,782 339,836"/><path class="g5 offset" style="--gs:5" d="M318,246 Q358,298 355.5,423 Q353,548 329,638 Q305,728 274,782 Q274,782 243,836"/><text class="g6" style="--gs:6" x="471" y="257">⑥</text><path class="g6 aligned" style="--gs:6" d="M485,262 Q763,209 792.5,225 Q822,241 826,543.5 Q830,846 817.5,870 Q805,894 757,870 Q757,870 709,846"/><path class="g6 offset" style="--gs:6" d="M485,358 Q626.82,305 641.87,321 Q656.92,337 658.96,639.5 Q661,942 654.62,966 Q648.25,990 623.76,966 Q623.76,966 599.27,942"/><text class="g7" style="--gs:7" x="536" y="309">⑦</text><path class="g7 aligned" style="--gs:7" d="M548,324 Q564,402 562.13,448.75 Q550.88,729.25 549,776"/><path class="g7 offset" style="--gs:7" d="M668,324 Q684,402 682.13,448.75 Q670.88,729.25 669,776"/><text class="g8" style="--gs:8" x="649" y="271">⑧</text><path class="g8 aligned" style="--gs:8" d="M649,271 Q677,304 678,320.5 Q681,370 677.75,473.25 Q671.25,679.75 668,783"/><path class="g8 offset" style="--gs:8" d="M553,271 Q581,304 582,320.5 Q585,370 581.75,473.25 Q575.25,679.75 572,783"/><text class="g9" style="--gs:9" x="345" y="505">⑨</text><path class="g9 aligned" style="--gs:9" d="M345,505 Q858,443 873.13,443.88 Q963.88,449.13 979,450"/><path class="g9 offset" style="--gs:9" d="M345,601 Q858,539 873.13,539.88 Q963.88,545.13 979,546"/></g>
<g class="parts"><rect data-part="2" data-literal="冊" role="button" tabindex="0" aria-label="Part 冊" x="267" y="137" width="757" height="829"/><rect data-part="1" data-literal="木" data-radical="true" role="button" tabindex="0" aria-label="Part 木 (radical)" x="0" y="4" width="437" height="991"/></g>
</svg>
