<!--
  Stroke-order data for 査, derived from AnimCJK (https://github.com/parsimonhi/animCJK),
  itself derived from the Arphic PL KaitiM fonts. Distributed under the Arphic Public License
  (see ARPHICPL.TXT). Regenerated by scripts/build-strokes.ts — do not edit by hand.
-->
<svg id="z26619" class="acjk" viewBox="0 0 1024 1024" xmlns="http://www.w3.org/2000/svg">
<g class="glyph"><path style="--part:1" id="z26619d1" d="M536 276C562 271 630 258 745 250C753 249 762 249 767 238C770 229 759 221 744 212C713 194 679 194 638 206C603 215 567 222 532 229C500 235 500 235 484 238C442 245 401 249 363 253C326 256 287 259 246 264C224 266 221 273 238 287C262 306 284 315 304 312C344 304 388 296 437 290C468 286 468 286 483 284C514 279 514 279 530 277C534 276 534 276 536 276Z"/><path style="--part:1" id="z26619d2" d="M532 229C534 177 543 138 559 114C563 107 562 98 553 90C514 58 484 49 466 56C456 59 452 65 458 76C473 103 481 135 483 180C483 200 484 219 484 238C483 269 483 269 483 284C483 309 483 309 483 322C483 372 478 407 475 429C473 439 474 453 480 464C483 471 486 477 492 485C499 496 507 499 518 492C525 486 530 458 530 408C529 377 530 344 530 308C530 287 530 287 530 277C531 245 531 245 532 229Z"/><path style="--part:1" id="z26619d3" d="M437 290C433 302 424 315 413 331C376 377 338 416 299 449C265 476 215 511 147 552C134 559 133 564 145 567C165 570 211 559 277 521C327 491 368 457 402 422C430 391 455 356 483 322C513 284 455 245 437 290Z"/><path style="--part:1" id="z26619d4" d="M530 308C658 446 737 520 770 529C818 535 874 531 940 518C952 516 959 513 961 510C961 505 957 501 947 498C912 485 874 472 833 460C737 428 645 371 554 290C547 284 541 279 536 276C516 264 516 289 530 308Z"/><path style="--part:2" id="z26619d5" d="M386 552C371 542 357 534 344 530C335 528 328 529 322 531C316 533 314 537 316 543C330 564 336 583 338 601C339 619 341 703 341 855C341 871 388 868 388 852C388 838 389 784 390 776C391 759 391 759 391 750C391 736 392 695 392 685C392 667 392 667 392 658C392 639 393 623 394 606C394 595 394 586 395 579C397 570 394 558 386 552Z"/><path style="--part:2" id="z26619d6" d="M654 832C660 678 671 592 690 574C698 565 698 557 690 548C683 541 661 531 625 515C614 510 589 514 547 525C479 541 425 548 386 552C377 554 386 579 395 579C403 579 413 578 425 576C531 554 588 546 599 553C609 559 602 654 596 837C596 856 654 851 654 832Z"/><path style="--part:2" id="z26619d7" d="M504 631C464 633 428 646 392 658C384 661 383 685 392 685C405 685 473 673 510 668C525 665 541 666 554 659C559 657 559 649 555 646C541 634 522 632 504 631Z"/><path style="--part:2" id="z26619d8" d="M508 728C467 728 429 740 391 750C382 752 381 777 390 776C411 774 497 766 528 764C539 762 553 764 563 756C568 752 563 745 559 742C544 732 526 728 508 728Z"/><path style="--part:2" id="z26619d9" d="M341 855Q247 858 145 864Q120 865 137 882Q153 895 175 900Q200 906 220 902Q455 865 867 882Q891 883 897 876Q904 864 885 852Q822 811 749 822Q706 825 654 832C615 835 615 835 596 837Q548 840 493 845Q441 848 388 852C357 854 357 854 341 855Z"/></g>
<defs><clipPath id="z26619c1"><use href="#z26619d1"/></clipPath>
	<clipPath id="z26619c2"><use href="#z26619d2"/></clipPath>
	<clipPath id="z26619c3"><use href="#z26619d3"/></clipPath>
	<clipPath id="z26619c4"><use href="#z26619d4"/></clipPath>
	<clipPath id="z26619c5"><use href="#z26619d5"/></clipPath>
	<clipPath id="z26619c6"><use href="#z26619d6"/></clipPath>
	<clipPath id="z26619c7"><use href="#z26619d7"/></clipPath>
	<clipPath id="z26619c8"><use href="#z26619d8"/></clipPath>
	<clipPath id="z26619c9"><use href="#z26619d9"/></clipPath><marker id="guide-arrow" viewBox="0 0 16 16" refX="5" refY="5" markerWidth="4" markerHeight="4" orient="auto-start-reverse"><path d="M 0 0 L 10 5 L 0 10 z" fill="inherit"/></marker></defs>
<g class="strokes"><path style="--part:1" pathLength="3333" clip-path="url(#z26619c1)" d="M239 276L305 285L762 230"/><path style="--part:1" pathLength="3333" clip-path="url(#z26619c2)" d="M462 63L519 116L506 491"/><path style="--part:1" pathLength="3333" clip-path="url(#z26619c3)" d="M475 292L333 451L146 560"/><path style="--part:1" pathLength="3333" clip-path="url(#z26619c4)" d="M534 287L764 479L954 510"/><path style="--part:2" pathLength="3333" clip-path="url(#z26619c5)" d="M322 538L365 581L355 853"/><path style="--part:2" pathLength="3333" clip-path="url(#z26619c6)" d="M395 556L601 531L640 555L613 835"/><path style="--part:2" pathLength="3333" clip-path="url(#z26619c7)" d="M397 677L551 654"/><path style="--part:2" pathLength="3333" clip-path="url(#z26619c8)" d="M392 770L559 750"/><path style="--part:2" pathLength="3333" clip-path="url(#z26619c9)" d="M135 872L775 849L894 870"/></g>
<g class="guides"><text class="g1" style="--gs:1" x="239" y="276">①</text><path class="g1 aligned" style="--gs:1" d="M239,276 Q305,285 362.13,278.13 Q704.88,236.88 762,230"/><path class="g1 offset" style="--gs:1" d="M239,372 Q305,381 362.13,374.13 Q704.88,332.88 762,326"/><text class="g2" style="--gs:2" x="462" y="63">②</text><path class="g2 aligned" style="--gs:2" d="M462,63 Q519,116 517.38,162.88 Q507.63,444.13 506,491"/><path class="g2 offset" style="--gs:2" d="M366,63 Q423,116 421.38,162.88 Q411.63,444.13 410,491"/><text class="g3" style="--gs:3" x="475" y="292">③</text><path class="g3 aligned" style="--gs:3" d="M475,292 Q333,451 309.63,464.63 Q169.38,546.38 146,560"/><path class="g3 offset" style="--gs:3" d="M560.68,360.54 Q418.68,519.54 395.31,533.17 Q255.06,614.92 231.68,628.54"/><text class="g4" style="--gs:4" x="534" y="287">④</text><path class="g4 aligned" style="--gs:4" d="M534,287 Q764,479 787.75,482.88 Q930.25,506.13 954,510"/><path class="g4 offset" style="--gs:4" d="M619.68,218.46 Q802.76,386.82 821.67,390.21 Q935.1,410.6 954,414"/><text class="g5" style="--gs:5" x="322" y="538">⑤</text><path class="g5 aligned" style="--gs:5" d="M322,538 Q365,581 363.75,615 Q356.25,819 355,853"/><path class="g5 offset" style="--gs:5" d="M226,538 Q269,581 267.75,615 Q260.25,819 259,853"/><text class="g6" style="--gs:6" x="395" y="556">⑥</text><path class="g6 aligned" style="--gs:6" d="M395,556 Q601,531 610.75,537 Q640,555 633.25,625 Q619.75,765 613,835"/><path class="g6 offset" style="--gs:6" d="M395,652 Q500.1,627 505.08,633 Q520,651 516.56,697 Q509.67,789 506.22,835"/><text class="g7" style="--gs:7" x="397" y="677">⑦</text><path class="g7 aligned" style="--gs:7" d="M397,677 L551,654"/><path class="g7 offset" style="--gs:7" d="M397,773 L551,750"/><text class="g8" style="--gs:8" x="392" y="770">⑧</text><path class="g8 aligned" style="--gs:8" d="M392,770 L559,750"/><path class="g8 offset" style="--gs:8" d="M392,866 L559,846"/><text class="g9" style="--gs:9" x="135" y="872">⑨</text><path class="g9 aligned" style="--gs:9" d="M135,872 Q775,849 789.88,851.63 Q879.13,867.38 894,870"/><path class="g9 offset" style="--gs:9" d="M135,968 Q775,945 789.88,947.63 Q879.13,963.38 894,966"/></g>
<g class="parts"><rect data-part="1" data-literal="木" data-radical="true" role="button" tabindex="0" aria-label="Part 木 (radical)" x="74" y="0" width="950" height="632"/><rect data-part="2" data-literal="且" role="button" tabindex="0" aria-label="Part 且" x="63" y="459" width="903" height="485"/></g>
</svg>
