<!--
  Stroke-order data for 柾, derived from AnimCJK (https://github.com/parsimonhi/animCJK),
  itself derived from the Arphic PL KaitiM fonts. Distributed under the Arphic Public License
  (see ARPHICPL.TXT). Regenerated by scripts/build-strokes.ts — do not edit by hand.
-->
<svg id="z26622" class="acjk" viewBox="0 0 1024 1024" xmlns="http://www.w3.org/2000/svg">
<g class="glyph"><path style="--part:1" id="z26622d1" d="M323 409Q345 402 369 397Q409 387 416 381Q425 372 420 364Q413 352 382 345Q352 341 324 352C291 363 291 363 275 369Q179 396 105 406Q68 413 95 430Q137 448 207 435Q229 429 257 424C301 414 301 414 323 409Z"/><path style="--part:1" id="z26622d2" d="M321 522Q321 470 323 409C324 371 324 371 324 352Q324 238 344 167Q357 140 332 122Q316 110 285 91Q260 73 239 90Q233 94 240 111Q273 159 273 226Q273 296 275 369C273 462 273 462 272 508Q269 685 264 719Q240 833 243 844Q243 856 262 901Q269 920 277 923Q284 930 292 921Q299 917 310 895Q320 870 320 836Q319 799 321 555C321 533 321 533 321 522Z"/><path style="--part:1" id="z26622d3" d="M257 424Q203 550 55 734Q48 744 60 746Q84 746 185 635Q230 583 273 508C314 440 286 351 257 424Z"/><path style="--part:1" id="z26622d4" d="M321 555Q364 612 385 614Q398 615 405 598Q406 586 399 566Q390 550 369 541Q336 525 321 522C310 520 314 546 321 555Z"/><path style="--part:2" id="z26622d5" d="M671 294Q846 255 850 253Q860 246 855 236Q848 224 818 216Q796 210 693 240Q600 264 514 270Q477 276 503 294Q548 318 606 305Q613 302 625 303C656 297 656 297 671 294Z"/><path style="--part:2" id="z26622d6" d="M683 721Q687 607 690 510C691 490 691 490 691 480Q694 372 697 342Q706 317 671 294C658 286 619 288 625 303Q641 342 642 374Q643 411 639 726C639 741 683 736 683 721Z"/><path style="--part:2" id="z26622d7" d="M690 510Q717 522 786 512Q820 506 855 502Q874 498 878 495Q887 488 883 480Q876 468 848 460Q836 457 743 475Q719 479 691 480C681 480 681 506 690 510Z"/><path style="--part:2" id="z26622d8" d="M545 736Q533 564 539 511Q542 489 527 476Q505 460 477 450Q464 446 454 452Q447 458 453 473Q472 509 482 547Q489 584 504 739C506 753 545 750 545 736Z"/><path style="--part:2" id="z26622d9" d="M504 739Q446 743 386 750Q364 751 379 769Q394 784 412 790Q434 797 450 793Q618 754 892 763Q911 763 932 765Q953 766 958 757Q964 745 947 730Q892 685 827 700Q766 709 683 721C654 724 654 724 639 726Q593 730 545 736C518 738 518 738 504 739Z"/></g>
<defs><clipPath id="z26622c1"><use href="#z26622d1"/></clipPath>
	<clipPath id="z26622c2"><use href="#z26622d2"/></clipPath>
	<clipPath id="z26622c3"><use href="#z26622d3"/></clipPath>
	<clipPath id="z26622c4"><use href="#z26622d4"/></clipPath>
	<clipPath id="z26622c5"><use href="#z26622d5"/></clipPath>
	<clipPath id="z26622c6"><use href="#z26622d6"/></clipPath>
	<clipPath id="z26622c7"><use href="#z26622d7"/></clipPath>
	<clipPath id="z26622c8"><use href="#z26622d8"/></clipPath>
	<clipPath id="z26622c9"><use href="#z26622d9"/></clipPath><marker id="guide-arrow" viewBox="0 0 16 16" refX="5" refY="5" markerWidth="4" markerHeight="4" orient="auto-start-reverse"><path d="M 0 0 L 10 5 L 0 10 z" fill="inherit"/></marker></defs>
<g class="strokes"><path style="--part:1" pathLength="3333" clip-path="url(#z26622c1)" d="M92 417L415 369"/><path style="--part:1" pathLength="3333" clip-path="url(#z26622c2)" d="M242 93L307 157L285 920"/><path style="--part:1" pathLength="3333" clip-path="url(#z26622c3)" d="M269 428L203 573L61 738"/><path style="--part:1" pathLength="3333" clip-path="url(#z26622c4)" d="M326 534L387 609"/><path style="--part:2" pathLength="3333" clip-path="url(#z26622c5)" d="M500 281L852 242"/><path style="--part:2" pathLength="3333" clip-path="url(#z26622c6)" d="M634 305L668 337L661 723"/><path style="--part:2" pathLength="3333" clip-path="url(#z26622c7)" d="M696 504L880 481"/><path style="--part:2" pathLength="3333" clip-path="url(#z26622c8)" d="M456 456L506 507L531 736"/><path style="--part:2" pathLength="3333" clip-path="url(#z26622c9)" d="M379 757L436 769L852 729L955 746"/></g>
<g class="guides"><text class="g1" style="--gs:1" x="92" y="417">①</text><path class="g1 aligned" style="--gs:1" d="M92,417 L415,369"/><path class="g1 offset" style="--gs:1" d="M92,513 L415,465"/><text class="g2" style="--gs:2" x="242" y="93">②</text><path class="g2 aligned" style="--gs:2" d="M242,93 Q307,157 304.25,252.38 Q287.75,824.63 285,920"/><path class="g2 offset" style="--gs:2" d="M146,93 Q211,157 208.25,252.38 Q191.75,824.63 189,920"/><text class="g3" style="--gs:3" x="269" y="428">③</text><path class="g3 aligned" style="--gs:3" d="M269,428 Q203,573 185.25,593.63 Q78.75,717.38 61,738"/><path class="g3 offset" style="--gs:3" d="M173,428 Q140,528.1 131.13,542.33 Q77.88,627.76 69,642"/><text class="g4" style="--gs:4" x="326" y="534">④</text><path class="g4 aligned" style="--gs:4" d="M326,534 L387,609"/><path class="g4 offset" style="--gs:4" d="M411.68,465.46 L472.68,540.46"/><text class="g5" style="--gs:5" x="500" y="281">⑤</text><path class="g5 aligned" style="--gs:5" d="M500,281 L852,242"/><path class="g5 offset" style="--gs:5" d="M500,377 L852,338"/><text class="g6" style="--gs:6" x="634" y="305">⑥</text><path class="g6 aligned" style="--gs:6" d="M634,305 Q668,337 667.13,385.25 Q661.88,674.75 661,723"/><path class="g6 offset" style="--gs:6" d="M538,305 Q572,337 571.13,385.25 Q565.88,674.75 565,723"/><text class="g7" style="--gs:7" x="696" y="504">⑦</text><path class="g7 aligned" style="--gs:7" d="M696,504 L880,481"/><path class="g7 offset" style="--gs:7" d="M696,600 L880,577"/><text class="g8" style="--gs:8" x="456" y="456">⑧</text><path class="g8 aligned" style="--gs:8" d="M456,456 Q506,507 509.13,535.63 Q527.88,707.38 531,736"/><path class="g8 offset" style="--gs:8" d="M541.68,387.46 Q591.68,438.46 594.8,467.08 Q613.55,638.83 616.68,667.46"/><text class="g9" style="--gs:9" x="379" y="757">⑨</text><path class="g9 aligned" style="--gs:9" d="M379,757 Q436,769 540,759 Q852,729 877.75,733.25 Q929.25,741.75 955,746"/><path class="g9 offset" style="--gs:9" d="M379,853 Q436,865 540,855 Q852,825 877.75,829.25 Q929.25,837.75 955,842"/></g>
<g class="parts"><rect data-part="2" data-literal="正" role="button" tabindex="0" aria-label="Part 正" x="307" y="170" width="717" height="671"/><rect data-part="1" data-literal="木" data-radical="true" role="button" tabindex="0" aria-label="Part 木 (radical)" x="0" y="21" width="487" height="971"/></g>
</svg>
