<!--
  Stroke-order data for 栃, derived from AnimCJK (https://github.com/parsimonhi/animCJK),
  itself derived from the Arphic PL KaitiM fonts. Distributed under the Arphic Public License
  (see ARPHICPL.TXT). Regenerated by scripts/build-strokes.ts — do not edit by hand.
-->
<svg id="z26627" class="acjk" viewBox="0 0 1024 1024" xmlns="http://www.w3.org/2000/svg">
<g class="glyph"><path style="--part:1" id="z26627d1" d="M326 420C403 399 442 386 444 385C450 379 451 373 448 368C443 360 430 353 410 350C387 346 360 354 327 366C296 377 296 377 280 383C217 405 161 410 116 418C91 422 87 430 107 441C133 456 165 460 259 437C304 426 304 426 326 420Z"/><path style="--part:1" id="z26627d2" d="M323 496C323 471 325 446 326 420C327 384 327 384 327 366C327 351 328 335 329 319C330 254 335 199 351 155C355 143 360 132 357 125C353 116 330 103 293 79C275 66 261 65 247 77C243 79 241 86 248 98C268 130 281 179 281 247C281 329 280 375 280 383C276 478 276 478 274 526C268 650 263 719 261 734C257 756 251 779 245 803C237 831 242 865 259 909C263 919 267 927 273 931C277 934 281 933 288 929C305 915 316 889 317 845C317 818 323 707 323 512C323 501 323 501 323 496Z"/><path style="--part:1" id="z26627d3" d="M259 437C243 483 224 528 203 571C176 624 127 700 61 800C57 806 60 810 68 810C82 810 125 761 197 665C225 626 250 580 274 526C306 446 291 357 259 437Z"/><path style="--part:1" id="z26627d4" d="M323 512C327 520 344 539 375 570C385 580 397 586 409 587C417 587 425 582 429 570C431 561 422 531 386 511C358 494 340 492 323 496C318 497 320 508 323 512Z"/><path style="--part:2" id="z26627d5" d="M558 296C644 260 695 236 712 228C739 213 765 201 790 196C800 193 807 192 809 186C811 179 808 171 799 166C758 141 727 131 706 137C700 138 699 144 700 152C701 172 651 214 551 279C546 283 552 298 558 296Z"/><path style="--part:2" id="z26627d6" d="M551 279C540 269 525 260 508 253C495 246 484 244 476 248C467 252 465 259 471 269C482 286 489 316 489 357C488 440 477 555 453 632C433 692 401 760 358 834C355 838 352 841 351 846C349 852 353 855 360 854C380 850 417 808 463 726C486 682 513 599 522 556C531 510 541 429 544 406C546 385 546 385 547 374C550 342 554 315 558 296C559 290 556 283 551 279Z"/><path style="--part:2" id="z26627d7" d="M573 411C560 411 552 410 544 406C534 402 536 376 547 374C698 352 788 327 818 319C857 307 896 309 938 336C948 343 954 352 951 360C948 366 939 369 926 370C805 370 736 381 703 387C676 392 676 392 662 394C648 396 630 401 620 404C601 408 586 411 573 411Z"/><path style="--part:2" id="z26627d8" d="M703 534C713 538 737 537 774 536C790 535 802 539 809 548C821 562 815 619 789 713C776 757 760 785 742 792C732 795 712 786 686 772C662 759 649 754 646 758C641 763 644 770 656 780C683 805 701 833 711 864C713 874 718 881 727 886C735 889 751 885 773 870C800 850 821 813 836 762C843 734 850 701 857 663C866 606 875 572 889 563C895 558 899 553 899 547C899 540 889 530 873 517C845 496 828 495 784 502C758 505 733 506 712 502C701 500 692 532 703 534Z"/><path style="--part:2" id="z26627d9" d="M712 502C718 480 724 455 731 442C735 432 740 424 736 417C729 404 717 396 703 387C691 380 660 380 662 394C666 414 667 433 665 451C652 567 590 705 509 801C506 803 502 806 501 811C498 817 501 820 508 820C526 819 570 788 606 737C651 671 681 612 703 534C709 513 709 513 712 502Z"/></g>
<defs><clipPath id="z26627c1"><use href="#z26627d1"/></clipPath>
	<clipPath id="z26627c2"><use href="#z26627d2"/></clipPath>
	<clipPath id="z26627c3"><use href="#z26627d3"/></clipPath>
	<clipPath id="z26627c4"><use href="#z26627d4"/></clipPath>
	<clipPath id="z26627c5"><use href="#z26627d5"/></clipPath>
	<clipPath id="z26627c6"><use href="#z26627d6"/></clipPath>
	<clipPath id="z26627c7"><use href="#z26627d7"/></clipPath>
	<clipPath id="z26627c8"><use href="#z26627d8"/></clipPath>
	<clipPath id="z26627c9"><use href="#z26627d9"/></clipPath><marker id="guide-arrow" viewBox="0 0 16 16" refX="5" refY="5" markerWidth="4" markerHeight="4" orient="auto-start-reverse"><path d="M 0 0 L 10 5 L 0 10 z" fill="inherit"/></marker></defs>
<g class="strokes"><path style="--part:1" pathLength="3333" clip-path="url(#z26627c1)" d="M103 428L445 373"/><path style="--part:1" pathLength="3333" clip-path="url(#z26627c2)" d="M251 83L315 158L273 929"/><path style="--part:1" pathLength="3333" clip-path="url(#z26627c3)" d="M270 442L217 593L67 802"/><path style="--part:1" pathLength="3333" clip-path="url(#z26627c4)" d="M330 504L414 581"/><path style="--part:2" pathLength="3333" clip-path="url(#z26627c5)" d="M709 142L745 181L557 286"/><path style="--part:2" pathLength="3333" clip-path="url(#z26627c6)" d="M477 256L522 308L495 564L440 723L358 847"/><path style="--part:2" pathLength="3333" clip-path="url(#z26627c7)" d="M545 399L830 343L947 353"/><path style="--part:2" pathLength="3333" clip-path="url(#z26627c8)" d="M710 529L808 518L856 560L776 813L723 835L653 764"/><path style="--part:2" pathLength="3333" clip-path="url(#z26627c9)" d="M670 402L701 439L649 611L589 726L506 813"/></g>
<g class="guides"><text class="g1" style="--gs:1" x="103" y="428">①</text><path class="g1 aligned" style="--gs:1" d="M103,428 L445,373"/><path class="g1 offset" style="--gs:1" d="M103,524 L445,469"/><text class="g2" style="--gs:2" x="251" y="83">②</text><path class="g2 aligned" style="--gs:2" d="M251,83 Q315,158 309.75,254.38 Q278.25,832.63 273,929"/><path class="g2 offset" style="--gs:2" d="M155,83 Q219,158 213.75,254.38 Q182.25,832.63 177,929"/><text class="g3" style="--gs:3" x="270" y="442">③</text><path class="g3 aligned" style="--gs:3" d="M270,442 Q217,593 198.25,619.13 Q85.75,775.88 67,802"/><path class="g3 offset" style="--gs:3" d="M174,442 Q147.5,552.73 138.13,571.89 Q81.88,686.84 72.5,706"/><text class="g4" style="--gs:4" x="330" y="504">④</text><path class="g4 aligned" style="--gs:4" d="M330,504 L414,581"/><path class="g4 offset" style="--gs:4" d="M415.68,435.46 L499.68,512.46"/><text class="g5" style="--gs:5" x="709" y="142">⑤</text><path class="g5 aligned" style="--gs:5" d="M709,142 Q745,181 721.5,194.13 Q580.5,272.88 557,286"/><path class="g5 offset" style="--gs:5" d="M613,142 Q631,161.5 619.25,168.06 Q548.75,207.44 537,214"/><text class="g6" style="--gs:6" x="477" y="256">⑥</text><path class="g6 aligned" style="--gs:6" d="M477,256 Q522,308 508.5,436 Q495,564 467.5,643.5 Q440,723 399,785 Q399,785 358,847"/><path class="g6 offset" style="--gs:6" d="M381,256 Q403.5,299.55 396.75,406.76 Q390,513.97 376.25,580.56 Q362.5,647.14 342,699.07 Q342,699.07 321.5,751"/><text class="g7" style="--gs:7" x="545" y="399">⑦</text><path class="g7 aligned" style="--gs:7" d="M545,399 Q830,343 844.63,344.25 Q932.38,351.75 947,353"/><path class="g7 offset" style="--gs:7" d="M545,495 Q830,439 844.63,440.25 Q932.38,447.75 947,449"/><text class="g8" style="--gs:8" x="710" y="529">⑧</text><path class="g8 aligned" style="--gs:8" d="M710,529 Q808,518 832,539 Q856,560 816,686.5 Q776,813 749.5,824 Q723,835 688,799.5 Q688,799.5 653,764"/><path class="g8 offset" style="--gs:8" d="M614,625 Q663,619.5 675,630 Q687,640.5 667,703.75 Q647,767 633.75,772.5 Q620.5,778 603,760.25 Q603,760.25 585.5,742.5"/><text class="g9" style="--gs:9" x="670" y="402">⑨</text><path class="g9 aligned" style="--gs:9" d="M670,402 Q701,439 675,525 Q649,611 619,668.5 Q589,726 547.5,769.5 Q547.5,769.5 506,813"/><path class="g9 offset" style="--gs:9" d="M574,402 Q589.74,430.36 576.54,496.27 Q563.34,562.18 548.11,606.25 Q532.88,650.32 511.81,683.66 Q511.81,683.66 490.74,717"/></g>
<g class="parts"><rect data-part="2" data-literal="厉" role="button" tabindex="0" aria-label="Part 厉" x="286" y="70" width="733" height="849"/><rect data-part="1" data-literal="木" data-radical="true" role="button" tabindex="0" aria-label="Part 木 (radical)" x="0" y="11" width="517" height="990"/></g>
</svg>
