<!--
  Stroke-order data for 桃, derived from AnimCJK (https://github.com/parsimonhi/animCJK),
  itself derived from the Arphic PL KaitiM fonts. Distributed under the Arphic Public License
  (see ARPHICPL.TXT). Regenerated by scripts/build-strokes.ts — do not edit by hand.
-->
<svg id="z26691" class="acjk" viewBox="0 0 1024 1024" xmlns="http://www.w3.org/2000/svg">
<g class="glyph"><path id="z26691d1" d="M321 366Q342 359 364 353Q400 343 405 337Q414 328 408 320Q401 308 370 303Q345 299 323 308C294 320 294 320 280 326Q196 356 119 369Q82 378 110 393Q152 411 230 391Q245 387 263 382C302 371 302 371 321 366Z"/><path id="z26691d2" d="M318 450Q319 410 321 366C322 327 322 327 323 308Q324 205 345 137Q355 121 352 108Q345 98 290 63Q266 45 245 60Q241 66 246 81Q280 133 280 185Q280 251 280 326C276 427 276 427 274 478Q262 700 261 716Q252 768 238 819Q225 861 252 921Q258 939 266 943Q272 950 280 941Q287 937 298 916Q308 891 308 860Q308 814 317 477C318 459 318 459 318 450Z"/><path id="z26691d3" d="M263 382Q206 539 42 763Q36 773 48 774Q72 774 186 628Q232 567 275 478C323 399 292 293 263 381C263 382 263 382 263 382Z"/><path id="z26691d4" d="M317 477Q387 540 397 541C398 541 398 541 398 541Q405 541 410 531Q413 521 407 499Q403 483 378 469Q332 450 318 450C309 449 310 472 317 477Z"/><path id="z26691d5" d="M545 541Q527 691 456 768Q425 801 379 834Q369 841 368 846Q369 850 381 849Q394 852 426 837Q537 792 573 644Q585 593 601 318Q601 282 617 248Q623 235 613 224Q591 208 553 198Q529 192 521 199Q512 206 520 218Q563 284 548 505Q547 506 547 511C546 531 546 531 545 541Z"/><path id="z26691d6" d="M440 408Q456 421 472 439Q484 449 497 447Q506 447 509 436Q513 423 504 399Q500 386 478 379Q429 364 416 369Q412 373 413 383Q417 392 440 408Z"/><path id="z26691d7" d="M547 511Q402 595 374 602Q364 606 365 614Q366 626 375 630Q397 637 427 646Q436 647 444 637Q462 612 544 542Q544 541 545 541C552 534 555 505 547 511Z"/><path id="z26691d8" d="M711 518Q712 478 715 435Q715 428 715 422C716 407 716 407 717 400Q727 207 752 173Q759 152 742 139Q715 114 679 105Q660 101 653 109Q644 118 651 127Q666 140 672 161Q676 186 670 343Q651 746 701 791Q746 848 907 834Q916 831 926 830Q962 820 977 806Q992 794 979 767Q966 721 964 660Q965 650 958 641Q949 634 943 656Q892 767 876 775Q873 775 870 776Q810 794 757 773Q736 767 722 733Q709 688 711 538C711 525 711 525 711 518Z"/><path id="z26691d9" d="M715 422Q722 418 828 353Q846 338 868 330Q887 323 878 305Q868 289 844 276Q822 263 811 265Q799 266 803 278Q804 303 757 357Q738 376 717 400C712 405 709 426 715 422Z"/><path id="z26691d10" d="M711 538Q714 541 719 545Q776 581 845 635Q861 650 876 651Q883 651 888 641Q897 628 880 592Q862 544 716 518Q712 517 711 518C704 518 706 534 711 538Z"/></g>
<defs><clipPath id="z26691c1"><use href="#z26691d1"/></clipPath>
	<clipPath id="z26691c2"><use href="#z26691d2"/></clipPath>
	<clipPath id="z26691c3"><use href="#z26691d3"/></clipPath>
	<clipPath id="z26691c4"><use href="#z26691d4"/></clipPath>
	<clipPath id="z26691c5"><use href="#z26691d5"/></clipPath>
	<clipPath id="z26691c6"><use href="#z26691d6"/></clipPath>
	<clipPath id="z26691c7"><use href="#z26691d7"/></clipPath>
	<clipPath id="z26691c8"><use href="#z26691d8"/></clipPath>
	<clipPath id="z26691c9"><use href="#z26691d9"/></clipPath>
	<clipPath id="z26691c10"><use href="#z26691d10"/></clipPath><marker id="guide-arrow" viewBox="0 0 16 16" refX="5" refY="5" markerWidth="4" markerHeight="4" orient="auto-start-reverse"><path d="M 0 0 L 10 5 L 0 10 z" fill="inherit"/></marker></defs>
<g class="strokes"><path pathLength="3333" clip-path="url(#z26691c1)" d="M105 379L406 327"/><path pathLength="3333" clip-path="url(#z26691c2)" d="M250 65L313 127L274 939"/><path pathLength="3333" clip-path="url(#z26691c3)" d="M274 385L203 561L48 766"/><path pathLength="3333" clip-path="url(#z26691c4)" d="M323 456L400 536"/><path pathLength="3333" clip-path="url(#z26691c5)" d="M524 205L579 249L550 638L489 765L374 843"/><path pathLength="3333" clip-path="url(#z26691c6)" d="M420 375L504 436"/><path pathLength="3333" clip-path="url(#z26691c7)" d="M371 612L427 613L543 522"/><path pathLength="3333" clip-path="url(#z26691c8)" d="M655 114L713 166L688 486L709 761L788 807L902 800L942 769L955 645"/><path pathLength="3333" clip-path="url(#z26691c9)" d="M809 274L830 323L721 413"/><path pathLength="3333" clip-path="url(#z26691c10)" d="M718 525L820 577L882 643"/></g>
<g class="guides"><text class="g1" style="--gs:1" x="105" y="379">①</text><path class="g1 aligned" style="--gs:1" d="M105,379 L406,327"/><path class="g1 offset" style="--gs:1" d="M105,475 L406,423"/><text class="g2" style="--gs:2" x="250" y="65">②</text><path class="g2 aligned" style="--gs:2" d="M250,65 Q313,127 308.13,228.5 Q278.88,837.5 274,939"/><path class="g2 offset" style="--gs:2" d="M154,65 Q217,127 212.13,228.5 Q182.88,837.5 178,939"/><text class="g3" style="--gs:3" x="274" y="385">③</text><path class="g3 aligned" style="--gs:3" d="M274,385 Q203,561 183.63,586.63 Q67.38,740.38 48,766"/><path class="g3 offset" style="--gs:3" d="M178,385 Q142.5,516.65 132.81,535.82 Q74.69,650.83 65,670"/><text class="g4" style="--gs:4" x="323" y="456">④</text><path class="g4 aligned" style="--gs:4" d="M323,456 L400,536"/><path class="g4 offset" style="--gs:4" d="M408.68,387.46 L485.68,467.46"/><text class="g5" style="--gs:5" x="524" y="205">⑤</text><path class="g5 aligned" style="--gs:5" d="M524,205 Q579,249 564.5,443.5 Q550,638 519.5,701.5 Q489,765 431.5,804 Q431.5,804 374,843"/><path class="g5 offset" style="--gs:5" d="M428,205 Q457.24,242.38 449.53,407.61 Q441.82,572.85 425.61,626.79 Q409.39,680.74 378.82,713.87 Q378.82,713.87 348.24,747"/><text class="g6" style="--gs:6" x="420" y="375">⑥</text><path class="g6 aligned" style="--gs:6" d="M420,375 L504,436"/><path class="g6 offset" style="--gs:6" d="M505.68,306.46 L589.68,367.46"/><text class="g7" style="--gs:7" x="371" y="612">⑦</text><path class="g7 aligned" style="--gs:7" d="M371,612 Q427,613 441.5,601.63 Q528.5,533.38 543,522"/><path class="g7 offset" style="--gs:7" d="M371,516 Q427,517 441.5,505.63 Q528.5,437.38 543,426"/><text class="g8" style="--gs:8" x="655" y="114">⑧</text><path class="g8 aligned" style="--gs:8" d="M655,114 Q713,166 700.5,326 Q688,486 698.5,623.5 Q709,761 748.5,784 Q788,807 845,803.5 Q902,800 922,784.5 Q942,769 948.5,707 Q948.5,707 955,645"/><path class="g8 offset" style="--gs:8" d="M723.54,45.46 Q752.54,97.46 746.29,257.46 Q740.04,417.46 745.29,554.96 Q750.54,692.46 770.29,715.46 Q790.04,738.46 818.54,734.96 Q847.04,731.46 857.04,715.96 Q867.04,700.46 870.29,638.46 Q870.29,638.46 873.54,576.46"/><text class="g9" style="--gs:9" x="809" y="274">⑨</text><path class="g9 aligned" style="--gs:9" d="M809,274 Q830,323 816.38,334.25 Q734.63,401.75 721,413"/><path class="g9 offset" style="--gs:9" d="M713,274 Q723.5,298.5 716.69,304.13 Q675.81,337.88 669,343.5"/><text class="g10" style="--gs:10" x="718" y="525">⑩</text><path class="g10 aligned" style="--gs:10" d="M718,525 Q820,577 827.75,585.25 Q874.25,634.75 882,643"/><path class="g10 offset" style="--gs:10" d="M803.68,456.46 Q905.68,508.46 913.43,516.71 Q959.93,566.21 967.68,574.46"/></g>
</svg>
