<!--
  Stroke-order data for 桓, derived from AnimCJK (https://github.com/parsimonhi/animCJK),
  itself derived from the Arphic PL KaitiM fonts. Distributed under the Arphic Public License
  (see ARPHICPL.TXT). Regenerated by scripts/build-strokes.ts — do not edit by hand.
-->
<svg id="z26707" class="acjk" viewBox="0 0 1024 1024" xmlns="http://www.w3.org/2000/svg">
<g class="glyph"><path style="--part:1" id="z26707d1" d="M324 384C382 365 413 353 418 349C423 343 423 337 420 332C415 324 402 318 382 316C362 313 343 317 325 326C294 340 294 340 279 347C211 377 148 388 98 401C73 406 70 417 90 425C153 450 206 421 262 404C303 391 303 391 324 384Z"/><path style="--part:1" id="z26707d2" d="M321 497C322 462 323 424 324 384C325 345 325 345 325 326C326 252 328 188 347 139C353 120 352 107 335 94C324 86 308 76 289 63C271 51 256 49 243 61C238 64 238 73 244 83C292 164 281 264 279 347C276 442 276 442 275 490C271 604 274 711 244 815C235 842 241 878 258 921C273 961 295 938 307 915C314 898 316 879 316 857C315 830 314 721 320 531C321 508 321 508 321 497Z"/><path style="--part:1" id="z26707d3" d="M262 404C227 494 156 609 50 751C45 757 49 766 56 762C145 708 233 570 275 490C320 415 294 323 262 404Z"/><path style="--part:1" id="z26707d4" d="M320 531C340 541 361 555 383 571C390 576 398 577 407 576C411 575 415 571 417 564C418 556 417 543 409 530C392 501 349 499 321 497C310 497 310 526 320 531Z"/><path style="--part:2" id="z26707d5" d="M513 216C486 219 483 229 503 241C530 256 569 257 619 246C669 234 720 222 772 210C796 203 811 198 816 195C822 188 823 182 820 177C814 168 800 160 780 157C758 153 736 157 715 166C686 177 656 186 626 195C591 204 553 209 513 216Z"/><path style="--part:2" id="z26707d6" d="M496 381C489 377 477 374 461 371C438 365 438 375 446 394C468 445 483 515 491 600C493 624 498 646 512 664C532 689 535 674 540 648C541 638 542 629 541 620C537 598 533 574 527 520C525 503 525 503 524 494C519 453 514 426 514 412C514 400 507 385 496 381Z"/><path style="--part:2" id="z26707d7" d="M731 629C743 680 764 692 784 660C797 638 809 565 830 446C833 423 846 403 862 386C870 376 871 367 863 358C852 346 830 333 800 315C765 293 749 326 496 381C484 383 503 416 514 412C562 395 631 379 720 360C752 352 779 373 775 403C759 515 746 580 737 598C733 608 729 619 731 629Z"/><path style="--part:2" id="z26707d8" d="M527 520C586 521 631 508 686 499C728 491 723 471 685 462C649 453 583 486 524 494C515 495 518 520 527 520Z"/><path style="--part:2" id="z26707d9" d="M540 648C556 650 611 639 731 629C742 629 745 604 737 598C710 577 682 597 541 620C532 622 531 648 540 648Z"/><path style="--part:2" id="z26707d10" d="M390 773C375 774 372 780 383 793C392 803 403 810 416 814C430 818 443 818 454 816C596 783 750 775 917 789C926 789 941 788 946 781C950 773 946 763 935 754C899 725 868 715 843 720C750 736 599 754 390 773Z"/></g>
<defs><clipPath id="z26707c1"><use href="#z26707d1"/></clipPath>
	<clipPath id="z26707c2"><use href="#z26707d2"/></clipPath>
	<clipPath id="z26707c3"><use href="#z26707d3"/></clipPath>
	<clipPath id="z26707c4"><use href="#z26707d4"/></clipPath>
	<clipPath id="z26707c5"><use href="#z26707d5"/></clipPath>
	<clipPath id="z26707c6"><use href="#z26707d6"/></clipPath>
	<clipPath id="z26707c7"><use href="#z26707d7"/></clipPath>
	<clipPath id="z26707c8"><use href="#z26707d8"/></clipPath>
	<clipPath id="z26707c9"><use href="#z26707d9"/></clipPath>
	<clipPath id="z26707c10"><use href="#z26707d10"/></clipPath><marker id="guide-arrow" viewBox="0 0 16 16" refX="5" refY="5" markerWidth="4" markerHeight="4" orient="auto-start-reverse"><path d="M 0 0 L 10 5 L 0 10 z" fill="inherit"/></marker></defs>
<g class="strokes"><path style="--part:1" pathLength="3333" clip-path="url(#z26707c1)" d="M84 412L174 407L417 334"/><path style="--part:1" pathLength="3333" clip-path="url(#z26707c2)" d="M245 65L310 130L280 938"/><path style="--part:1" pathLength="3333" clip-path="url(#z26707c3)" d="M284 382L226 531L55 754"/><path style="--part:1" pathLength="3333" clip-path="url(#z26707c4)" d="M320 503L408 568"/><path style="--part:2" pathLength="3333" clip-path="url(#z26707c5)" d="M497 227L817 181"/><path style="--part:2" pathLength="3333" clip-path="url(#z26707c6)" d="M449 374L485 413L526 672"/><path style="--part:2" pathLength="3333" clip-path="url(#z26707c7)" d="M499 385L743 336L806 361L821 384L766 673"/><path style="--part:2" pathLength="3333" clip-path="url(#z26707c8)" d="M524 508L710 478"/><path style="--part:2" pathLength="3333" clip-path="url(#z26707c9)" d="M536 637L737 608"/><path style="--part:2" pathLength="3333" clip-path="url(#z26707c10)" d="M386 783L848 751L942 772"/></g>
<g class="guides"><text class="g1" style="--gs:1" x="84" y="412">①</text><path class="g1 aligned" style="--gs:1" d="M84,412 Q174,407 204.38,397.88 Q386.63,343.13 417,334"/><path class="g1 offset" style="--gs:1" d="M84,508 Q174,503 204.38,493.88 Q386.63,439.13 417,430"/><text class="g2" style="--gs:2" x="245" y="65">②</text><path class="g2 aligned" style="--gs:2" d="M245,65 Q310,130 306.25,231 Q283.75,837 280,938"/><path class="g2 offset" style="--gs:2" d="M149,65 Q214,130 210.25,231 Q187.75,837 184,938"/><text class="g3" style="--gs:3" x="284" y="382">③</text><path class="g3 aligned" style="--gs:3" d="M284,382 Q226,531 204.63,558.88 Q76.38,726.13 55,754"/><path class="g3 offset" style="--gs:3" d="M188,382 Q159,492.55 148.31,513.23 Q84.19,637.32 73.5,658"/><text class="g4" style="--gs:4" x="320" y="503">④</text><path class="g4 aligned" style="--gs:4" d="M320,503 L408,568"/><path class="g4 offset" style="--gs:4" d="M405.68,434.46 L493.68,499.46"/><text class="g5" style="--gs:5" x="497" y="227">⑤</text><path class="g5 aligned" style="--gs:5" d="M497,227 L817,181"/><path class="g5 offset" style="--gs:5" d="M497,323 L817,277"/><text class="g6" style="--gs:6" x="449" y="374">⑥</text><path class="g6 aligned" style="--gs:6" d="M449,374 Q485,413 490.13,445.38 Q520.88,639.63 526,672"/><path class="g6 offset" style="--gs:6" d="M534.68,305.46 Q570.68,344.46 575.8,376.83 Q606.55,571.08 611.68,603.46"/><text class="g7" style="--gs:7" x="499" y="385">⑦</text><path class="g7 aligned" style="--gs:7" d="M499,385 Q743,336 774.5,348.5 Q806,361 813.5,372.5 Q821,384 793.5,528.5 Q793.5,528.5 766,673"/><path class="g7 offset" style="--gs:7" d="M499,481 Q652.07,432 671.83,444.5 Q691.59,457 696.3,468.5 Q701,480 683.75,576.5 Q683.75,576.5 666.5,673"/><text class="g8" style="--gs:8" x="524" y="508">⑧</text><path class="g8 aligned" style="--gs:8" d="M524,508 L710,478"/><path class="g8 offset" style="--gs:8" d="M524,604 L710,574"/><text class="g9" style="--gs:9" x="536" y="637">⑨</text><path class="g9 aligned" style="--gs:9" d="M536,637 L737,608"/><path class="g9 offset" style="--gs:9" d="M536,733 L737,704"/><text class="g10" style="--gs:10" x="386" y="783">⑩</text><path class="g10 aligned" style="--gs:10" d="M386,783 Q848,751 859.75,753.63 Q930.25,769.38 942,772"/><path class="g10 offset" style="--gs:10" d="M386,879 Q848,847 859.75,849.63 Q930.25,865.38 942,868"/></g>
<g class="parts"><rect data-part="2" data-literal="亘" role="button" tabindex="0" aria-label="Part 亘" x="314" y="109" width="700" height="746"/><rect data-part="1" data-literal="木" data-radical="true" role="button" tabindex="0" aria-label="Part 木 (radical)" x="0" y="0" width="489" height="1010"/></g>
</svg>
