<!--
  Stroke-order data for 桜, derived from AnimCJK (https://github.com/parsimonhi/animCJK),
  itself derived from the Arphic PL KaitiM fonts. Distributed under the Arphic Public License
  (see ARPHICPL.TXT). Regenerated by scripts/build-strokes.ts — do not edit by hand.
-->
<svg id="z26716" class="acjk" viewBox="0 0 1024 1024" xmlns="http://www.w3.org/2000/svg">
<g class="glyph"><path style="--part:1" id="z26716d1" d="M302 365C351 352 381 340 385 338C389 333 391 327 388 323C383 315 371 310 352 307C336 304 317 311 304 316C273 326 273 326 258 331C173 358 117 364 93 369C69 373 65 381 85 391C113 405 145 406 179 397C190 393 222 384 249 378C284 369 284 369 302 365Z"/><path style="--part:1" id="z26716d2" d="M252 904C242 901 237 891 234 883C220 849 209 812 221 777C230 745 240 712 243 679C247 621 250 560 252 503C256 388 256 388 258 331C258 316 260 218 259 183C257 151 242 122 227 96C223 90 220 80 226 77C240 66 258 72 272 81C292 95 315 106 333 124C338 129 334 138 332 144C328 151 325 157 323 165C309 217 306 263 304 316C303 349 303 349 302 365C300 392 300 419 299 447C298 456 302 382 298 475C294 568 292 663 290 754C289 780 290 806 289 832C287 855 282 880 265 896C260 899 257 905 252 904Z"/><path style="--part:1" id="z26716d3" d="M66 735C60 735 59 727 63 723C134 622 234 442 249 378C268 263 312 403 252 503C226 554 195 602 163 643C138 674 112 702 81 728C76 731 72 734 66 735Z"/><path style="--part:1" id="z26716d4" d="M298 475C328 504 350 519 363 519C371 519 377 514 379 504C380 496 376 487 370 478C363 468 352 462 339 458C321 451 308 448 299 447C290 445 291 469 298 475Z"/><path style="--part:2" id="z26716d5" d="M450 257C466 276 482 298 501 323C509 334 537 359 553 331C558 320 557 302 553 278C550 263 538 249 517 235C471 205 440 190 425 194C419 195 418 203 420 214C421 222 432 236 450 257Z"/><path style="--part:2" id="z26716d6" d="M583 176C601 196 618 220 637 244C650 261 678 275 690 251C694 240 692 223 688 199C685 183 674 168 651 154C599 122 567 109 557 114C553 115 551 123 552 133C552 141 564 154 583 176Z"/><path style="--part:2" id="z26716d7" d="M706 353C684 380 696 390 726 365C809 291 878 231 901 214C930 191 913 172 890 156C845 123 821 120 818 163C815 199 788 246 706 353Z"/><path style="--part:3" id="z26716d8" d="M867 913C843 910 826 892 810 878C767 841 727 801 680 773C651 756 651 756 637 747C614 733 531 695 507 689C498 686 494 677 496 669C499 647 522 610 530 591C539 566 539 566 544 554C559 513 567 486 576 445C580 422 586 398 580 376C575 360 572 340 596 350C606 354 617 361 625 368C652 390 658 396 644 421C621 462 616 482 587 550C577 573 577 573 572 585C561 610 554 627 546 655C543 663 553 670 563 674C600 687 629 697 663 712C695 726 695 726 711 733C752 751 816 778 851 809C866 821 874 837 882 858C890 880 899 916 867 913Z"/><path style="--part:3" id="z26716d9" d="M438 881C395 885 365 881 427 859C497 834 586 804 637 747C645 737 654 724 663 712C686 674 709 622 713 572C714 552 714 544 711 534C705 517 705 505 711 504C732 496 760 505 775 524C788 540 782 552 778 568C762 618 739 680 711 733C702 748 691 761 680 773C614 843 531 870 438 881Z"/><path style="--part:3" id="z26716d10" d="M406 616C382 615 355 604 344 583C341 579 345 576 351 576C416 568 478 560 544 554C573 551 573 551 587 550C602 548 655 542 711 534C754 527 754 527 775 524C819 517 846 513 869 509C913 500 963 514 995 546C1004 555 1011 571 953 570C893 568 837 564 778 568C735 571 735 571 713 572C662 575 595 581 572 585C544 589 544 589 530 591C501 595 474 601 446 608C431 611 419 616 406 616Z"/></g>
<defs><clipPath id="z26716c1"><use href="#z26716d1"/></clipPath>
	<clipPath id="z26716c2"><use href="#z26716d2"/></clipPath>
	<clipPath id="z26716c3"><use href="#z26716d3"/></clipPath>
	<clipPath id="z26716c4"><use href="#z26716d4"/></clipPath>
	<clipPath id="z26716c5"><use href="#z26716d5"/></clipPath>
	<clipPath id="z26716c6"><use href="#z26716d6"/></clipPath>
	<clipPath id="z26716c7"><use href="#z26716d7"/></clipPath>
	<clipPath id="z26716c8"><use href="#z26716d8"/></clipPath>
	<clipPath id="z26716c9"><use href="#z26716d9"/></clipPath>
	<clipPath id="z26716c10"><use href="#z26716d10"/></clipPath><marker id="guide-arrow" viewBox="0 0 16 16" refX="5" refY="5" markerWidth="4" markerHeight="4" orient="auto-start-reverse"><path d="M 0 0 L 10 5 L 0 10 z" fill="inherit"/></marker></defs>
<g class="strokes"><path style="--part:1" pathLength="3333" clip-path="url(#z26716c1)" d="M79 378L385 329"/><path style="--part:1" pathLength="3333" clip-path="url(#z26716c2)" d="M228 80L295 142L259 898"/><path style="--part:1" pathLength="3333" clip-path="url(#z26716c3)" d="M267 345L222 506L68 729"/><path style="--part:1" pathLength="3333" clip-path="url(#z26716c4)" d="M300 453L368 515"/><path style="--part:2" pathLength="3333" clip-path="url(#z26716c5)" d="M425 199L506 269L544 338"/><path style="--part:2" pathLength="3333" clip-path="url(#z26716c6)" d="M559 118L650 201L675 261"/><path style="--part:2" pathLength="3333" clip-path="url(#z26716c7)" d="M835 135L858 206L701 372"/><path style="--part:3" pathLength="3333" clip-path="url(#z26716c8)" d="M584 353L616 405L522 671L781 804L880 907"/><path style="--part:3" pathLength="3333" clip-path="url(#z26716c9)" d="M713 508L747 558L670 746L564 827L399 874"/><path style="--part:3" pathLength="3333" clip-path="url(#z26716c10)" d="M351 581L419 591L871 537L996 553"/></g>
<g class="guides"><text class="g1" style="--gs:1" x="79" y="378">①</text><path class="g1 aligned" style="--gs:1" d="M79,378 L385,329"/><path class="g1 offset" style="--gs:1" d="M79,474 L385,425"/><text class="g2" style="--gs:2" x="228" y="80">②</text><path class="g2 aligned" style="--gs:2" d="M228,80 Q295,142 290.5,236.5 Q263.5,803.5 259,898"/><path class="g2 offset" style="--gs:2" d="M132,80 Q199,142 194.5,236.5 Q167.5,803.5 163,898"/><text class="g3" style="--gs:3" x="267" y="345">③</text><path class="g3 aligned" style="--gs:3" d="M267,345 Q222,506 202.75,533.88 Q87.25,701.13 68,729"/><path class="g3 offset" style="--gs:3" d="M171,345 Q148.5,465.75 138.88,486.66 Q81.13,612.09 71.5,633"/><text class="g4" style="--gs:4" x="300" y="453">④</text><path class="g4 aligned" style="--gs:4" d="M300,453 L368,515"/><path class="g4 offset" style="--gs:4" d="M385.68,384.46 L453.68,446.46"/><text class="g5" style="--gs:5" x="425" y="199">⑤</text><path class="g5 aligned" style="--gs:5" d="M425,199 Q506,269 510.75,277.63 Q539.25,329.38 544,338"/><path class="g5 offset" style="--gs:5" d="M510.68,130.46 Q591.68,200.46 596.43,209.08 Q624.93,260.83 629.68,269.46"/><text class="g6" style="--gs:6" x="559" y="118">⑥</text><path class="g6 aligned" style="--gs:6" d="M559,118 Q650,201 653.13,208.5 Q671.88,253.5 675,261"/><path class="g6 offset" style="--gs:6" d="M644.68,49.46 Q735.68,132.46 738.81,139.96 Q757.56,184.96 760.68,192.46"/><text class="g7" style="--gs:7" x="835" y="135">⑦</text><path class="g7 aligned" style="--gs:7" d="M835,135 Q858,206 838.38,226.75 Q720.63,351.25 701,372"/><path class="g7 offset" style="--gs:7" d="M739,135 Q750.5,177.24 740.69,189.59 Q681.81,263.66 672,276"/><text class="g8" style="--gs:8" x="584" y="353">⑧</text><path class="g8 aligned" style="--gs:8" d="M584,353 Q616,405 569,538 Q522,671 651.5,737.5 Q781,804 830.5,855.5 Q830.5,855.5 880,907"/><path class="g8 offset" style="--gs:8" d="M669.68,284.46 Q701.68,336.46 654.68,469.46 Q607.68,602.46 737.18,668.96 Q866.68,735.46 916.18,786.96 Q916.18,786.96 965.68,838.46"/><text class="g9" style="--gs:9" x="713" y="508">⑨</text><path class="g9 aligned" style="--gs:9" d="M713,508 Q747,558 708.5,652 Q670,746 617,786.5 Q564,827 481.5,850.5 Q481.5,850.5 399,874"/><path class="g9 offset" style="--gs:9" d="M617,508 Q641.62,544.89 613.74,614.23 Q585.86,683.57 547.48,713.45 Q509.1,743.33 449.36,760.66 Q449.36,760.66 389.62,778"/><text class="g10" style="--gs:10" x="351" y="581">⑩</text><path class="g10 aligned" style="--gs:10" d="M351,581 Q419,591 532,577.5 Q871,537 902.25,541 Q964.75,549 996,553"/><path class="g10 offset" style="--gs:10" d="M351,677 Q419,687 532,673.5 Q871,633 902.25,637 Q964.75,645 996,649"/></g>
<g class="parts"><rect data-part="3" data-literal="女" role="button" tabindex="0" aria-label="Part 女" x="279" y="281" width="745" height="698"/><rect data-part="1" data-literal="木" data-radical="true" role="button" tabindex="0" aria-label="Part 木 (radical)" x="0" y="8" width="457" height="962"/><rect data-part="2" data-literal="𭕄" role="button" tabindex="0" aria-label="Part 𭕄" x="353" y="46" width="577" height="398"/></g>
</svg>
