<!--
  Stroke-order data for 桧, derived from AnimCJK (https://github.com/parsimonhi/animCJK),
  itself derived from the Arphic PL KaitiM fonts. Distributed under the Arphic Public License
  (see ARPHICPL.TXT). Regenerated by scripts/build-strokes.ts — do not edit by hand.
-->
<svg id="z26727" class="acjk" viewBox="0 0 1024 1024" xmlns="http://www.w3.org/2000/svg">
<g class="glyph"><path id="z26727d1" d="M321 391C334 387 347 383 363 379C389 371 405 365 409 361C415 355 415 349 412 344C407 336 394 330 374 327C357 324 340 325 324 332C293 345 293 345 277 352C244 365 155 385 99 397C74 401 71 411 90 421C131 441 165 434 257 409C300 397 300 397 321 391Z"/><path id="z26727d2" d="M316 535C317 491 318 443 321 391C323 352 323 352 324 332C327 270 329 217 345 177C349 165 355 156 352 148C348 140 326 126 290 102C273 91 258 90 245 100C241 102 240 110 246 121C264 154 277 184 277 216C277 261 278 306 277 352C273 451 273 451 271 501C269 549 268 601 266 655C263 705 252 752 239 799C230 826 236 860 252 901C256 912 261 919 266 923C270 926 273 925 280 921C297 907 308 882 309 840C309 816 310 726 315 571C316 547 316 547 316 535Z"/><path id="z26727d3" d="M257 409C218 505 144 620 38 757C32 764 35 768 44 769C48 769 54 766 61 761C148 686 219 600 272 501C319 423 291 324 257 409Z"/><path id="z26727d4" d="M316 571Q343 593 370 620Q380 630 393 630Q402 630 405 619Q409 609 402 585Q398 567 371 553Q344 543 316 535C305 531 305 565 315 571C316 571 316 571 316 571Z"/><path id="z26727d5" d="M635 229C643 212 649 199 657 191C661 186 663 181 661 175C659 168 653 161 644 154C620 135 596 129 575 137C568 139 567 145 570 153C586 201 560 270 487 388C462 427 425 469 372 528C367 532 368 536 375 536C415 531 473 485 538 395C584 329 609 280 622 255C631 238 631 238 635 229Z"/><path id="z26727d6" d="M622 255C672 329 730 407 798 486C809 499 826 505 846 505C914 504 959 501 981 498C987 496 991 495 992 491C992 488 989 482 979 479C886 443 812 402 758 352C719 315 678 274 635 229C628 222 616 247 622 255Z"/><path id="z26727d7" d="M500 501C475 505 471 515 490 525C519 541 553 541 591 531C627 520 665 513 703 504C719 499 729 495 732 493C738 487 739 481 736 476C731 468 718 461 698 458C677 454 657 459 637 468C617 475 596 481 576 487C553 493 527 496 500 501Z"/><path id="z26727d8" d="M589 651C627 643 695 633 795 631C825 630 844 628 849 621C853 613 847 604 837 597C801 572 762 570 720 582C615 610 545 622 415 643C402 645 400 651 410 661C427 677 456 680 495 670C507 666 521 663 536 661C571 654 571 654 589 651Z"/><path id="z26727d9" d="M749 792C677 800 602 812 526 830C517 832 511 832 510 830C509 828 510 824 514 820C571 753 606 713 619 702C627 694 629 687 626 679C623 672 611 663 589 651C574 642 532 643 536 661C543 694 530 729 496 773C478 795 453 817 420 840C409 847 406 855 408 863C410 874 421 886 438 902C445 909 453 910 463 903C497 877 629 845 765 817C775 815 759 790 749 792Z"/><path id="z26727d10" d="M765 817C799 871 819 900 824 903C828 905 834 903 841 898C850 891 853 873 853 843C851 804 803 753 706 687C700 683 696 683 694 692C691 700 693 709 699 717C714 739 731 764 749 792C760 809 760 809 765 817Z"/></g>
<defs><clipPath id="z26727c1"><use href="#z26727d1"/></clipPath>
	<clipPath id="z26727c2"><use href="#z26727d2"/></clipPath>
	<clipPath id="z26727c3"><use href="#z26727d3"/></clipPath>
	<clipPath id="z26727c4"><use href="#z26727d4"/></clipPath>
	<clipPath id="z26727c5"><use href="#z26727d5"/></clipPath>
	<clipPath id="z26727c6"><use href="#z26727d6"/></clipPath>
	<clipPath id="z26727c7"><use href="#z26727d7"/></clipPath>
	<clipPath id="z26727c8"><use href="#z26727d8"/></clipPath>
	<clipPath id="z26727c9"><use href="#z26727d9"/></clipPath>
	<clipPath id="z26727c10"><use href="#z26727d10"/></clipPath><marker id="guide-arrow" viewBox="0 0 16 16" refX="5" refY="5" markerWidth="4" markerHeight="4" orient="auto-start-reverse"><path d="M 0 0 L 10 5 L 0 10 z" fill="inherit"/></marker></defs>
<g class="strokes"><path pathLength="3333" clip-path="url(#z26727c1)" d="M85 408L408 348"/><path pathLength="3333" clip-path="url(#z26727c2)" d="M249 102L313 171L273 919"/><path pathLength="3333" clip-path="url(#z26727c3)" d="M270 412L200 571L42 762"/><path pathLength="3333" clip-path="url(#z26727c4)" d="M323 543L400 619"/><path pathLength="3333" clip-path="url(#z26727c5)" d="M575 145L618 184L576 283L498 410L378 530"/><path pathLength="3333" clip-path="url(#z26727c6)" d="M639 242L827 456L985 488"/><path pathLength="3333" clip-path="url(#z26727c7)" d="M489 515L733 478"/><path pathLength="3333" clip-path="url(#z26727c8)" d="M414 654L740 605L845 611"/><path pathLength="3333" clip-path="url(#z26727c9)" d="M545 666L580 701L464 841L480 869L755 813"/><path pathLength="3333" clip-path="url(#z26727c10)" d="M701 692L814 828L836 898"/></g>
<g class="guides"><text class="g1" style="--gs:1" x="85" y="408">①</text><path class="g1 aligned" style="--gs:1" d="M85,408 L408,348"/><path class="g1 offset" style="--gs:1" d="M85,504 L408,444"/><text class="g2" style="--gs:2" x="249" y="102">②</text><path class="g2 aligned" style="--gs:2" d="M249,102 Q313,171 308,264.5 Q278,825.5 273,919"/><path class="g2 offset" style="--gs:2" d="M153,102 Q217,171 212,264.5 Q182,825.5 177,919"/><text class="g3" style="--gs:3" x="270" y="412">③</text><path class="g3 aligned" style="--gs:3" d="M270,412 Q200,571 180.25,594.88 Q61.75,738.13 42,762"/><path class="g3 offset" style="--gs:3" d="M174,412 Q139,527.39 129.13,544.72 Q69.88,648.67 60,666"/><text class="g4" style="--gs:4" x="323" y="543">④</text><path class="g4 aligned" style="--gs:4" d="M323,543 L400,619"/><path class="g4 offset" style="--gs:4" d="M408.68,474.46 L485.68,550.46"/><text class="g5" style="--gs:5" x="575" y="145">⑤</text><path class="g5 aligned" style="--gs:5" d="M575,145 Q618,184 597,233.5 Q576,283 537,346.5 Q498,410 438,470 Q438,470 378,530"/><path class="g5 offset" style="--gs:5" d="M479,145 Q504.8,174.28 492.2,211.43 Q479.6,248.59 456.2,296.26 Q432.8,343.92 396.8,388.96 Q396.8,388.96 360.8,434"/><text class="g6" style="--gs:6" x="639" y="242">⑥</text><path class="g6 aligned" style="--gs:6" d="M639,242 Q827,456 846.75,460 Q965.25,484 985,488"/><path class="g6 offset" style="--gs:6" d="M724.68,173.46 Q866.13,363.57 880.98,367.13 Q970.14,388.45 985,392"/><text class="g7" style="--gs:7" x="489" y="515">⑦</text><path class="g7 aligned" style="--gs:7" d="M489,515 L733,478"/><path class="g7 offset" style="--gs:7" d="M489,611 L733,574"/><text class="g8" style="--gs:8" x="414" y="654">⑧</text><path class="g8 aligned" style="--gs:8" d="M414,654 Q740,605 753.13,605.75 Q831.88,610.25 845,611"/><path class="g8 offset" style="--gs:8" d="M414,750 Q740,701 753.13,701.75 Q831.88,706.25 845,707"/><text class="g9" style="--gs:9" x="545" y="666">⑨</text><path class="g9 aligned" style="--gs:9" d="M545,666 Q580,701 522,771 Q464,841 472,855 Q480,869 617.5,841 Q617.5,841 755,813"/><path class="g9 offset" style="--gs:9" d="M630.68,597.46 Q655.37,627.72 614.45,688.25 Q573.53,748.79 579.17,760.89 Q584.82,773 681.83,748.79 Q681.83,748.79 778.85,724.57"/><text class="g10" style="--gs:10" x="701" y="692">⑩</text><path class="g10 aligned" style="--gs:10" d="M701,692 Q814,828 816.75,836.75 Q833.25,889.25 836,898"/><path class="g10 offset" style="--gs:10" d="M786.68,623.46 Q899.68,759.46 902.43,768.21 Q918.93,820.71 921.68,829.46"/></g>
</svg>
