<svg id="z26806" class="acjk" viewBox="0 0 1024 1024" xmlns="http://www.w3.org/2000/svg">
<style>

@keyframes zk {
	to {
		stroke-dashoffset:0;
	}
}
svg.acjk path[clip-path] {
	--t:0.8s;
	animation:zk var(--t) linear forwards var(--d);
	stroke-dasharray:3337;
	stroke-dashoffset:3339;
	stroke-width:128;
	stroke-linecap:round;
	fill:none;
	stroke:#000;
}
svg.acjk path[id] {fill:#ccc;}


    @keyframes guide-fade {
        0% { opacity: 0; }
        3% { opacity: 1; }
        95% { opacity: 1; }
        100% { opacity: 0; }
    }

    svg.acjk #guide-arrow {
        fill: #f77;
    }

    svg.acjk .guides {
        circle {
            fill: #0f6;
        }

        path {
            opacity: 0;
            animation: guide-fade var(--t) linear forwards var(--d);
            stroke-width: 16px;
            stroke-linecap: round;
            stroke: #f77;
            fill: none;
            marker-end: url(#guide-arrow);
        }

        circle,
        path {
            --t: 0.8s;
            opacity: 0;
            animation: guide-fade calc(var(--t) + 0.4s) ease-in-out forwards calc(var(--d) - 0.2s);
        }
    }
</style>
<path id="z26806d1" d="M323 375C387 357 421 347 424 345C430 339 431 333 428 328C423 320 410 313 390 310C357 304 339 314 324 320C295 330 295 330 281 335C236 350 155 364 124 370C99 374 96 382 115 393C140 407 177 413 266 390C304 380 304 380 323 375Z"/>
<path id="z26806d2" d="M320 483C321 449 322 413 323 375C324 338 324 338 324 320C325 248 327 187 345 142C351 123 349 110 330 97C319 89 306 81 290 71C274 61 260 59 247 69C243 71 242 79 248 89C267 123 281 154 281 186C281 235 281 285 281 335C280 387 280 415 277 491C271 619 266 694 263 716C259 738 253 760 247 783C238 811 244 844 261 882C266 893 270 899 275 903C280 906 282 906 288 901C291 897 299 890 306 877C313 860 315 842 315 822C314 796 313 692 319 513C320 493 320 493 320 483Z"/>
<path id="z26806d3" d="M266 390C246 444 222 497 194 548C163 602 110 680 34 782C30 788 32 792 40 793C44 793 49 791 56 785C150 700 224 602 278 491C328 408 302 301 266 390Z"/>
<path id="z26806d4" d="M319 513C336 535 374 564 390 564C398 564 406 558 408 546C409 537 405 526 398 515C386 497 353 488 320 483C310 481 313 505 319 513Z"/>
<path id="z26806d5" d="M809 266C825 224 843 198 860 183C872 171 873 156 862 147C817 107 773 104 729 121C672 142 607 153 539 165C526 168 553 193 566 193C574 193 584 190 595 188C692 169 692 169 740 159C752 156 761 157 766 162C771 167 774 175 773 187C768 213 763 237 758 260C755 277 803 282 809 266Z"/>
<path id="z26806d6" d="M550 336Q562 339 575 336Q653 317 820 299Q830 298 832 289Q832 282 809 266C795 256 775 257 758 260Q757 259 755 260Q643 290 552 305C542 307 540 334 550 336Z"/>
<path id="z26806d7" d="M539 165C532 160 524 156 516 153C503 146 492 144 484 149C475 153 474 160 479 169C501 214 499 265 499 294C498 410 481 512 453 602C433 664 394 744 338 842C335 846 332 849 331 854C329 860 333 863 340 862C362 857 400 811 452 721C461 704 468 686 477 668C516 576 541 465 550 336C551 315 551 315 552 305C553 285 559 222 563 210C565 203 566 198 566 193C566 180 549 173 539 165Z"/>
<path id="z26806d8" d="M650 453C735 423 778 402 783 402C792 400 799 398 801 394C803 388 800 381 793 376C762 353 735 342 713 346C708 346 705 352 706 358C706 380 651 416 544 474C539 476 541 483 545 484C550 485 576 478 621 463C640 456 640 456 650 453Z"/>
<path id="z26806d9" d="M671 565C770 542 820 526 824 524C828 519 829 514 827 510C822 503 811 498 795 495C778 492 761 495 744 501C722 508 700 516 677 523C646 531 646 531 631 535C606 541 580 543 555 548C534 551 531 559 546 568C567 580 595 582 628 575C657 568 657 568 671 565Z"/>
<path id="z26806d10" d="M661 676C710 665 782 651 882 651C894 651 902 648 905 642C907 635 904 627 894 620C860 596 824 595 785 609C755 619 697 632 663 639C637 644 637 644 624 647C583 655 542 662 501 672C489 674 487 680 498 689C516 703 539 706 566 699C584 693 603 688 624 684C649 679 649 679 661 676Z"/>
<path id="z26806d11" d="M981 799C972 782 960 749 952 698C950 687 949 680 945 678C941 675 938 680 935 692C918 746 905 783 893 799C875 820 834 829 772 828C748 827 726 823 709 815C692 806 681 797 677 787C666 765 658 727 661 676C662 651 662 651 663 639C664 615 667 590 671 565C675 537 675 537 677 523C678 514 679 505 682 495C684 484 682 476 676 470C669 463 660 457 650 453C641 449 616 454 621 463C632 481 632 512 631 535C629 562 629 562 628 575C626 601 624 625 624 647C624 672 624 672 624 684C624 768 632 822 658 844C707 886 787 896 896 874C898 873 900 873 902 873C926 866 951 855 975 838C987 828 989 814 981 799Z"/>
<defs>
	<clipPath id="z26806c1"><use href="#z26806d1"/></clipPath>
	<clipPath id="z26806c2"><use href="#z26806d2"/></clipPath>
	<clipPath id="z26806c3"><use href="#z26806d3"/></clipPath>
	<clipPath id="z26806c4"><use href="#z26806d4"/></clipPath>
	<clipPath id="z26806c5"><use href="#z26806d5"/></clipPath>
	<clipPath id="z26806c6"><use href="#z26806d6"/></clipPath>
	<clipPath id="z26806c7"><use href="#z26806d7"/></clipPath>
	<clipPath id="z26806c8"><use href="#z26806d8"/></clipPath>
	<clipPath id="z26806c9"><use href="#z26806d9"/></clipPath>
	<clipPath id="z26806c10"><use href="#z26806d10"/></clipPath>
	<clipPath id="z26806c11"><use href="#z26806d11"/></clipPath>
<marker id="guide-arrow" viewBox="0 0 16 16" refX="5" refY="5" markerWidth="4" markerHeight="4" orient="auto-start-reverse"><path d="M 0 0 L 10 5 L 0 10 z" fill="inherit"/></marker></defs>
<path style="--d:1s;" pathLength="3333" clip-path="url(#z26806c1)" d="M109 379L425 332"/>
<path style="--d:2s;" pathLength="3333" clip-path="url(#z26806c2)" d="M252 74L312 135L276 899"/>
<path style="--d:3s;" pathLength="3333" clip-path="url(#z26806c3)" d="M275 394L203 578L41 787"/>
<path style="--d:4s;" pathLength="3333" clip-path="url(#z26806c4)" d="M325 492L400 553"/>
<path style="--d:5s;" pathLength="3333" clip-path="url(#z26806c5)" d="M548 165L788 140L820 166L784 263"/>
<path style="--d:6s;" pathLength="3333" clip-path="url(#z26806c6)" d="M558 330L755 283L827 290"/>
<path style="--d:7s;" pathLength="3333" clip-path="url(#z26806c7)" d="M485 159L530 203L500 514L436 704L340 854"/>
<path style="--d:8s;" pathLength="3333" clip-path="url(#z26806c8)" d="M720 358L762 389L549 477"/>
<path style="--d:9s;" pathLength="3333" clip-path="url(#z26806c9)" d="M543 557L823 516"/>
<path style="--d:10s;" pathLength="3333" clip-path="url(#z26806c10)" d="M497 678L820 626L900 636"/>
<path style="--d:11s;" pathLength="3333" clip-path="url(#z26806c11)" d="M630 466L657 497L646 754L686 832L766 856L910 833L945 796L943 686"/>
<g class="guides"><circle style="--d: 1s" class="g1" cx="109" cy="379" r="16"/><path style="--d: 1s;" class="g1" d="M109,475 L425,428"/><circle style="--d: 2s" class="g2" cx="252" cy="74" r="16"/><path style="--d: 2s;" class="g2" d="M156,74 Q216,135 211.5,230.5 Q184.5,803.5 180,899"/><circle style="--d: 3s" class="g3" cx="275" cy="394" r="16"/><path style="--d: 3s;" class="g3" d="M179,394 Q143,533.0534351145038 132.875,552.7967557251909 Q72.125,671.2566793893129 62,691"/><circle style="--d: 4s" class="g4" cx="325" cy="492" r="16"/><path style="--d: 4s;" class="g4" d="M410.68,423.456 L485.68,484.456"/><circle style="--d: 5s" class="g5" cx="548" cy="165" r="16"/><path style="--d: 5s;" class="g5" d="M548,261 Q682.1176470588235,236 686.5882352941177,239.25 Q700,249 694.9705882352941,261.125 Q684.9117647058823,285.375 679.8823529411765,297.5"/><circle style="--d: 6s" class="g6" cx="558" cy="330" r="16"/><path style="--d: 6s;" class="g6" d="M558,426 Q755,379 764,379.875 Q818,385.125 827,386"/><circle style="--d: 7s" class="g7" cx="485" cy="159" r="16"/><path style="--d: 7s;" class="g7" d="M389,159 Q411.5,196.92230215827337 404,330.94316546762593 Q396.5,464.9640287769784 380.5,546.841726618705 Q364.5,628.7194244604317 340.5,693.3597122302158 Q340.5,693.3597122302158 316.5,758"/><circle style="--d: 8s" class="g8" cx="720" cy="358" r="16"/><path style="--d: 8s;" class="g8" d="M624,358 Q647.0704225352113,373.5 632.4454225352113,379 Q544.6954225352113,412 530.0704225352113,417.5"/><circle style="--d: 9s" class="g9" cx="543" cy="557" r="16"/><path style="--d: 9s;" class="g9" d="M543,653 L823,612"/><circle style="--d: 10s" class="g10" cx="497" cy="678" r="16"/><path style="--d: 10s;" class="g10" d="M497,774 Q820,722 830,723.25 Q890,730.75 900,732"/><circle style="--d: 11s" class="g11" cx="644" cy="482" r="16"/><path style="--d: 11s;" class="g11" d="M729.68,413.456 Q730.68,665.488 740.68,701.6249411764707 Q750.68,737.7618823529411 770.68,748.8809411764705 Q790.68,760 826.68,749.3442352941177 Q862.68,738.6884705882353 871.43,721.5465882352942 Q880.18,704.4047058823529 879.68,653.4423529411765 Q879.68,653.4423529411765 879.18,602.48"/></g></svg>