<!--
  Stroke-order data for 椿, derived from AnimCJK (https://github.com/parsimonhi/animCJK),
  itself derived from the Arphic PL KaitiM fonts. Distributed under the Arphic Public License
  (see ARPHICPL.TXT). Regenerated by scripts/build-strokes.ts — do not edit by hand.
-->
<svg id="z26943" class="acjk" viewBox="0 0 1024 1024" xmlns="http://www.w3.org/2000/svg">
<g class="glyph"><path id="z26943d1" d="M318 369C348 361 385 355 401 341C406 335 406 327 404 324C399 314 385 310 366 307C348 304 334 305 320 311C290 322 290 322 275 328C253 336 163 359 112 369C86 373 82 383 102 393C124 405 158 408 262 383C299 374 299 374 318 369Z"/><path id="z26943d2" d="M315 477C316 443 316 407 318 369C319 330 319 330 320 311C322 251 327 200 342 161C346 149 351 138 348 132C344 123 320 110 286 87C268 75 255 74 241 85C238 87 235 93 242 105C262 137 275 170 275 204C275 245 275 310 275 328C272 435 272 435 270 488C268 542 267 599 265 658C263 710 252 759 238 807C230 833 234 865 251 909C255 919 259 927 266 931C269 933 273 934 280 929C283 925 291 918 298 904C305 887 308 867 308 848C307 819 306 704 314 505C315 486 315 486 315 477Z"/><path id="z26943d3" d="M262 383C232 475 161 594 54 743C49 748 50 753 60 754C72 754 118 709 189 621C218 584 244 540 270 488C321 403 299 291 262 383Z"/><path id="z26943d4" d="M314 505C348 545 370 565 383 566C390 566 398 562 401 552C403 544 401 532 395 522C382 499 354 486 315 477C306 475 308 498 314 505Z"/><path id="z26943d5" d="M620 253C656 245 692 237 730 229C756 223 771 217 775 214C779 209 781 203 779 199C775 190 763 184 746 181C728 176 689 193 626 208C592 216 592 216 575 220C546 226 513 229 480 234C457 237 453 245 471 255C495 269 518 273 569 263C603 256 603 256 620 253Z"/><path id="z26943d6" d="M599 364C604 362 611 361 620 360C638 357 638 357 647 355C671 350 701 345 741 341C747 340 754 339 758 331C760 324 750 318 739 312C704 294 659 312 609 325C573 334 573 334 555 338C541 341 503 346 459 351C442 352 440 358 454 369C472 381 489 388 504 385C517 382 531 378 546 375C581 368 581 368 599 364Z"/><path id="z26943d7" d="M566 471C606 462 644 456 681 451C704 448 704 448 715 446C750 440 785 439 817 439C829 438 851 440 863 440C875 439 881 436 884 431C886 424 882 415 873 409C840 384 805 383 764 393C742 398 711 404 689 409C668 414 668 414 657 416C630 421 605 427 580 432C544 439 544 439 526 442C485 449 444 456 402 464C389 466 388 471 398 481C406 489 414 494 428 497C438 499 451 499 461 496C475 491 492 485 511 482C548 475 548 475 566 471Z"/><path id="z26943d8" d="M498 594C524 561 554 503 566 471C570 458 575 445 580 432C585 415 594 387 599 364C604 339 604 339 607 326C610 310 617 271 620 253C624 223 624 223 626 208C629 179 636 157 649 130C652 123 652 117 647 112C636 101 620 90 600 79C586 72 576 70 566 73C553 75 551 83 560 95C575 115 582 134 581 152C578 174 578 197 575 220C571 249 571 249 569 263C565 285 559 320 555 338C549 363 549 363 546 375C540 398 534 420 526 442C521 455 517 469 511 482C477 553 427 624 372 670C341 695 321 708 317 714C313 718 317 719 328 720C355 721 415 696 477 620C484 611 491 602 498 594Z"/><path id="z26943d9" d="M620 359C632 378 643 396 657 416C673 439 673 439 681 451C756 560 827 668 851 670C896 673 938 667 975 661C979 660 982 658 984 655C984 652 980 647 973 645C887 608 826 569 780 527C767 515 740 482 715 446C698 421 698 421 689 409C673 386 657 367 647 354C642 347 615 352 620 359Z"/><path id="z26943d10" d="M524 610C514 601 506 597 498 594C488 590 473 609 477 620C491 666 493 724 478 794C468 835 467 866 487 889C492 896 498 895 504 889C509 882 514 874 519 862C522 851 522 842 523 830C523 796 525 776 526 752C527 733 527 733 527 724C528 682 528 653 530 638C532 629 532 616 524 610Z"/><path id="z26943d11" d="M688 850C692 867 699 884 705 894C723 923 740 922 751 893C761 865 761 804 755 714C752 670 750 641 757 623C762 608 759 600 753 594C746 588 733 578 710 568C698 563 682 565 658 575C625 587 567 600 524 610C515 612 520 638 530 638C547 639 589 624 664 610C675 607 683 609 688 614C692 620 696 666 698 752C698 768 698 803 692 815C688 826 686 838 688 850Z"/><path id="z26943d12" d="M526 752C574 743 616 736 652 730C666 727 670 721 665 715C658 705 647 701 633 699C619 697 583 705 527 724C518 727 517 754 526 752Z"/><path id="z26943d13" d="M519 862C536 866 564 855 688 850C700 850 702 821 692 815C670 796 573 821 523 830C512 832 508 860 519 862Z"/></g>
<defs><clipPath id="z26943c1"><use href="#z26943d1"/></clipPath>
	<clipPath id="z26943c2"><use href="#z26943d2"/></clipPath>
	<clipPath id="z26943c3"><use href="#z26943d3"/></clipPath>
	<clipPath id="z26943c4"><use href="#z26943d4"/></clipPath>
	<clipPath id="z26943c5"><use href="#z26943d5"/></clipPath>
	<clipPath id="z26943c6"><use href="#z26943d6"/></clipPath>
	<clipPath id="z26943c7"><use href="#z26943d7"/></clipPath>
	<clipPath id="z26943c8"><use href="#z26943d8"/></clipPath>
	<clipPath id="z26943c9"><use href="#z26943d9"/></clipPath>
	<clipPath id="z26943c10"><use href="#z26943d10"/></clipPath>
	<clipPath id="z26943c11"><use href="#z26943d11"/></clipPath>
	<clipPath id="z26943c12"><use href="#z26943d12"/></clipPath>
	<clipPath id="z26943c13"><use href="#z26943d13"/></clipPath><marker id="guide-arrow" viewBox="0 0 16 16" refX="5" refY="5" markerWidth="4" markerHeight="4" orient="auto-start-reverse"><path d="M 0 0 L 10 5 L 0 10 z" fill="inherit"/></marker></defs>
<g class="strokes"><path pathLength="3333" clip-path="url(#z26943c1)" d="M97 380L400 331"/><path pathLength="3333" clip-path="url(#z26943c2)" d="M245 91L308 150L272 928"/><path pathLength="3333" clip-path="url(#z26943c3)" d="M288 356L220 532L58 749"/><path pathLength="3333" clip-path="url(#z26943c4)" d="M316 487L390 560"/><path pathLength="3333" clip-path="url(#z26943c5)" d="M469 244L775 201"/><path pathLength="3333" clip-path="url(#z26943c6)" d="M455 360L751 326"/><path pathLength="3333" clip-path="url(#z26943c7)" d="M399 470L771 415L879 420"/><path pathLength="3333" clip-path="url(#z26943c8)" d="M562 80L616 135L545 459L448 622L322 713"/><path pathLength="3333" clip-path="url(#z26943c9)" d="M628 358L834 611L978 654"/><path pathLength="3333" clip-path="url(#z26943c10)" d="M494 598L508 692L493 887"/><path pathLength="3333" clip-path="url(#z26943c11)" d="M524 618L690 587L724 611L724 909"/><path pathLength="3333" clip-path="url(#z26943c12)" d="M525 742L661 718"/><path pathLength="3333" clip-path="url(#z26943c13)" d="M518 852L695 831"/></g>
<g class="guides"><text class="g1" style="--gs:1" x="97" y="380">①</text><path class="g1 aligned" style="--gs:1" d="M97,380 L400,331"/><path class="g1 offset" style="--gs:1" d="M97,476 L400,427"/><text class="g2" style="--gs:2" x="245" y="91">②</text><path class="g2 aligned" style="--gs:2" d="M245,91 Q308,150 303.5,247.25 Q276.5,830.75 272,928"/><path class="g2 offset" style="--gs:2" d="M149,91 Q212,150 207.5,247.25 Q180.5,830.75 176,928"/><text class="g3" style="--gs:3" x="288" y="356">③</text><path class="g3 aligned" style="--gs:3" d="M288,356 Q220,532 199.75,559.13 Q78.25,721.88 58,749"/><path class="g3 offset" style="--gs:3" d="M192,356 Q158,489.01 147.88,509.51 Q87.13,632.5 77,653"/><text class="g4" style="--gs:4" x="316" y="487">④</text><path class="g4 aligned" style="--gs:4" d="M316,487 L390,560"/><path class="g4 offset" style="--gs:4" d="M401.68,418.46 L475.68,491.46"/><text class="g5" style="--gs:5" x="469" y="244">⑤</text><path class="g5 aligned" style="--gs:5" d="M469,244 L775,201"/><path class="g5 offset" style="--gs:5" d="M469,340 L775,297"/><text class="g6" style="--gs:6" x="455" y="360">⑥</text><path class="g6 aligned" style="--gs:6" d="M455,360 L751,326"/><path class="g6 offset" style="--gs:6" d="M455,456 L751,422"/><text class="g7" style="--gs:7" x="399" y="470">⑦</text><path class="g7 aligned" style="--gs:7" d="M399,470 Q771,415 784.5,415.63 Q865.5,419.38 879,420"/><path class="g7 offset" style="--gs:7" d="M399,566 Q771,511 784.5,511.63 Q865.5,515.38 879,516"/><text class="g8" style="--gs:8" x="562" y="80">⑧</text><path class="g8 aligned" style="--gs:8" d="M562,80 Q616,135 580.5,297 Q545,459 496.5,540.5 Q448,622 385,667.5 Q385,667.5 322,713"/><path class="g8 offset" style="--gs:8" d="M466,80 Q502.37,126.66 478.46,264.09 Q454.55,401.52 421.89,470.66 Q389.22,539.8 346.8,578.4 Q346.8,578.4 304.37,617"/><text class="g9" style="--gs:9" x="628" y="358">⑨</text><path class="g9 aligned" style="--gs:9" d="M628,358 Q834,611 852,616.38 Q960,648.63 978,654"/><path class="g9 offset" style="--gs:9" d="M713.68,289.46 Q869.25,518.99 882.84,523.86 Q964.41,553.12 978,558"/><text class="g10" style="--gs:10" x="494" y="598">⑩</text><path class="g10 aligned" style="--gs:10" d="M494,598 Q508,692 506.13,716.38 Q494.88,862.63 493,887"/><path class="g10 offset" style="--gs:10" d="M614,598 Q628,692 626.13,716.38 Q614.88,862.63 613,887"/><text class="g11" style="--gs:11" x="524" y="618">⑪</text><path class="g11 aligned" style="--gs:11" d="M524,618 Q690,587 698.5,593 Q724,611 724,685.5 Q724,834.5 724,909"/><path class="g11 offset" style="--gs:11" d="M524,714 Q607,683 611.25,689 Q624,707 624,757.5 Q624,858.5 624,909"/><text class="g12" style="--gs:12" x="525" y="742">⑫</text><path class="g12 aligned" style="--gs:12" d="M525,742 L661,718"/><path class="g12 offset" style="--gs:12" d="M525,838 L661,814"/><text class="g13" style="--gs:13" x="518" y="852">⑬</text><path class="g13 aligned" style="--gs:13" d="M518,852 L695,831"/><path class="g13 offset" style="--gs:13" d="M518,948 L695,927"/></g>
</svg>
