<!--
  Stroke-order data for 楠, derived from AnimCJK (https://github.com/parsimonhi/animCJK),
  itself derived from the Arphic PL KaitiM fonts. Distributed under the Arphic Public License
  (see ARPHICPL.TXT). Regenerated by scripts/build-strokes.ts — do not edit by hand.
-->
<svg id="z26976" class="acjk" viewBox="0 0 1024 1024" xmlns="http://www.w3.org/2000/svg">
<g class="glyph"><path style="--part:1" id="z26976d1" d="M304 401Q382 386 391 377Q401 368 395 360Q388 348 358 341Q330 337 305 346C277 356 277 356 263 361Q161 386 101 394Q64 401 91 418Q137 442 191 426Q219 419 251 414C286 405 286 405 304 401Z"/><path style="--part:1" id="z26976d2" d="M301 535Q302 474 304 401C305 364 305 364 305 346Q305 217 325 146Q340 121 310 101Q295 89 270 75Q248 59 227 73Q223 77 229 93Q260 144 262 220Q262 289 263 361C260 462 260 462 258 512Q255 678 246 723Q240 756 230 791Q220 828 244 890Q251 908 259 911Q265 918 272 909Q299 893 299 830Q298 796 301 567C301 546 301 546 301 535Z"/><path style="--part:1" id="z26976d3" d="M251 414Q223 493 182 565Q139 637 38 768Q34 778 44 778Q50 779 58 771Q185 657 259 512C292 428 279 328 251 413C251 414 251 414 251 414Z"/><path style="--part:1" id="z26976d4" d="M301 567Q340 600 353 600Q363 600 367 585Q368 575 359 560Q344 542 301 535C291 533 292 561 301 567Z"/><path style="--part:2" id="z26976d5" d="M621 338Q777 304 783 299Q792 292 787 283Q780 273 752 265Q725 259 629 290C594 299 594 299 576 303Q524 313 461 320Q427 326 451 342Q485 363 557 350Q563 349 572 348C605 341 605 341 621 338Z"/><path style="--part:2" id="z26976d6" d="M604 440Q613 388 621 338C626 306 626 306 629 290Q644 182 666 121Q670 111 652 94Q618 72 594 65Q578 61 570 68Q561 75 568 91Q587 124 586 145Q583 221 576 303C573 333 573 333 572 348Q566 396 560 449C557 464 601 455 604 440Z"/><path style="--part:2" id="z26976d7" d="M440 476Q413 458 389 460Q376 464 382 475Q424 559 389 713Q365 777 396 812Q403 825 412 819Q440 798 444 700Q447 540 450 506C450 495 448 482 440 476Z"/><path style="--part:2" id="z26976d8" d="M685 460Q728 453 795 447Q807 446 811 452Q820 458 821 500Q831 675 810 775Q804 809 774 806Q746 802 721 798Q706 791 706 798Q705 805 715 819Q779 883 795 913Q805 929 816 926Q831 923 843 897Q879 831 887 631Q887 492 901 461Q917 440 904 436Q888 420 852 406Q830 393 775 411Q690 421 604 440C575 446 575 446 560 449Q544 450 529 455Q484 467 440 476C430 478 440 510 450 506Q489 491 656 463C675 461 675 461 685 460Z"/><path style="--part:2" id="z26976d9" d="M519 523Q538 571 561 576Q571 579 578 565Q581 555 577 539Q568 515 526 503Q519 500 517 509Q514 515 519 523Z"/><path style="--part:2" id="z26976d10" d="M639 580Q663 556 684 525Q691 515 703 504Q715 497 709 488Q705 475 685 460C677 454 656 453 656 463Q660 484 627 560Q620 573 618 583Q617 584 617 585C614 592 634 585 639 580Z"/><path style="--part:2" id="z26976d11" d="M624 615Q642 611 664 607Q728 598 734 591Q735 582 718 575Q685 565 639 580C624 583 624 583 617 585Q572 594 510 603Q491 607 506 618Q527 634 560 628Q564 627 573 626C607 619 607 619 624 615Z"/><path style="--part:2" id="z26976d12" d="M625 709Q673 699 758 699Q771 698 775 692Q779 683 767 674Q722 644 670 663Q649 667 626 674C595 681 595 681 579 684Q536 690 488 700Q473 701 485 714Q503 729 549 722Q562 718 580 715C610 711 610 711 625 709Z"/><path style="--part:2" id="z26976d13" d="M587 864Q591 883 596 890Q600 894 606 893Q612 890 615 879Q619 866 625 724Q624 717 625 709C626 686 626 686 626 674Q626 665 632 635Q633 622 624 615C612 603 570 609 573 626Q574 629 579 684C580 705 580 705 580 715Q586 857 587 864Z"/></g>
<defs><clipPath id="z26976c1"><use href="#z26976d1"/></clipPath>
	<clipPath id="z26976c2"><use href="#z26976d2"/></clipPath>
	<clipPath id="z26976c3"><use href="#z26976d3"/></clipPath>
	<clipPath id="z26976c4"><use href="#z26976d4"/></clipPath>
	<clipPath id="z26976c5"><use href="#z26976d5"/></clipPath>
	<clipPath id="z26976c6"><use href="#z26976d6"/></clipPath>
	<clipPath id="z26976c7"><use href="#z26976d7"/></clipPath>
	<clipPath id="z26976c8"><use href="#z26976d8"/></clipPath>
	<clipPath id="z26976c9"><use href="#z26976d9"/></clipPath>
	<clipPath id="z26976c10"><use href="#z26976d10"/></clipPath>
	<clipPath id="z26976c11"><use href="#z26976d11"/></clipPath>
	<clipPath id="z26976c12"><use href="#z26976d12"/></clipPath>
	<clipPath id="z26976c13"><use href="#z26976d13"/></clipPath><marker id="guide-arrow" viewBox="0 0 16 16" refX="5" refY="5" markerWidth="4" markerHeight="4" orient="auto-start-reverse"><path d="M 0 0 L 10 5 L 0 10 z" fill="inherit"/></marker></defs>
<g class="strokes"><path style="--part:1" pathLength="3333" clip-path="url(#z26976c1)" d="M86 403L160 408L392 364"/><path style="--part:1" pathLength="3333" clip-path="url(#z26976c2)" d="M232 76L290 137L269 908"/><path style="--part:1" pathLength="3333" clip-path="url(#z26976c3)" d="M255 422L201 572L46 772"/><path style="--part:1" pathLength="3333" clip-path="url(#z26976c4)" d="M308 543L358 594"/><path style="--part:2" pathLength="3333" clip-path="url(#z26976c5)" d="M449 329L784 286"/><path style="--part:2" pathLength="3333" clip-path="url(#z26976c6)" d="M572 76L626 125L568 445"/><path style="--part:2" pathLength="3333" clip-path="url(#z26976c7)" d="M387 467L424 523L409 812"/><path style="--part:2" pathLength="3333" clip-path="url(#z26976c8)" d="M447 481L806 424L855 445L835 809L797 873L713 802"/><path style="--part:2" pathLength="3333" clip-path="url(#z26976c9)" d="M524 512L563 573"/><path style="--part:2" pathLength="3333" clip-path="url(#z26976c10)" d="M663 469L677 505L625 577"/><path style="--part:2" pathLength="3333" clip-path="url(#z26976c11)" d="M505 609L726 588"/><path style="--part:2" pathLength="3333" clip-path="url(#z26976c12)" d="M491 708L688 679L770 688"/><path style="--part:2" pathLength="3333" clip-path="url(#z26976c13)" d="M579 630L605 652L601 887"/></g>
<g class="guides"><text class="g1" style="--gs:1" x="86" y="403">①</text><path class="g1 aligned" style="--gs:1" d="M86,403 Q160,408 189,402.5 Q363,369.5 392,364"/><path class="g1 offset" style="--gs:1" d="M86,499 Q160,504 189,498.5 Q363,465.5 392,460"/><text class="g2" style="--gs:2" x="232" y="76">②</text><path class="g2 aligned" style="--gs:2" d="M232,76 Q290,137 287.38,233.38 Q271.63,811.63 269,908"/><path class="g2 offset" style="--gs:2" d="M136,76 Q194,137 191.38,233.38 Q175.63,811.63 173,908"/><text class="g3" style="--gs:3" x="255" y="422">③</text><path class="g3 aligned" style="--gs:3" d="M255,422 Q201,572 181.63,597 Q65.38,747 46,772"/><path class="g3 offset" style="--gs:3" d="M159,422 Q132,530.86 122.31,549 Q64.19,657.86 54.5,676"/><text class="g4" style="--gs:4" x="308" y="543">④</text><path class="g4 aligned" style="--gs:4" d="M308,543 L358,594"/><path class="g4 offset" style="--gs:4" d="M393.68,474.46 L443.68,525.46"/><text class="g5" style="--gs:5" x="449" y="329">⑤</text><path class="g5 aligned" style="--gs:5" d="M449,329 L784,286"/><path class="g5 offset" style="--gs:5" d="M449,425 L784,382"/><text class="g6" style="--gs:6" x="572" y="76">⑥</text><path class="g6 aligned" style="--gs:6" d="M572,76 Q626,125 618.75,165 Q575.25,405 568,445"/><path class="g6 offset" style="--gs:6" d="M476,76 Q530,125 522.75,165 Q479.25,405 472,445"/><text class="g7" style="--gs:7" x="387" y="467">⑦</text><path class="g7 aligned" style="--gs:7" d="M387,467 Q424,523 422.13,559.13 Q410.88,775.88 409,812"/><path class="g7 offset" style="--gs:7" d="M291,467 Q328,523 326.13,559.13 Q314.88,775.88 313,812"/><text class="g8" style="--gs:8" x="447" y="481">⑧</text><path class="g8 aligned" style="--gs:8" d="M447,481 Q806,424 830.5,434.5 Q855,445 845,627 Q835,809 816,841 Q797,873 755,837.5 Q755,837.5 713,802"/><path class="g8 offset" style="--gs:8" d="M447,577 Q721.53,520 740.26,530.5 Q759,541 751.35,630.82 Q743.71,720.65 729.18,737.32 Q714.65,754 682.53,735.5 Q682.53,735.5 650.41,717"/><text class="g9" style="--gs:9" x="524" y="512">⑨</text><path class="g9 aligned" style="--gs:9" d="M524,512 L563,573"/><path class="g9 offset" style="--gs:9" d="M609.68,443.46 L648.68,504.46"/><text class="g10" style="--gs:10" x="663" y="469">⑩</text><path class="g10 aligned" style="--gs:10" d="M670,487 L625,577"/><path class="g10 offset" style="--gs:10" d="M790,487 L745,577"/><text class="g11" style="--gs:11" x="505" y="609">⑪</text><path class="g11 aligned" style="--gs:11" d="M505,609 L726,588"/><path class="g11 offset" style="--gs:11" d="M505,705 L726,684"/><text class="g12" style="--gs:12" x="491" y="708">⑫</text><path class="g12 aligned" style="--gs:12" d="M491,708 Q688,679 698.25,680.13 Q759.75,686.88 770,688"/><path class="g12 offset" style="--gs:12" d="M491,804 Q688,775 698.25,776.13 Q759.75,782.88 770,784"/><text class="g13" style="--gs:13" x="579" y="630">⑬</text><path class="g13 aligned" style="--gs:13" d="M592,641 L601,887"/><path class="g13 offset" style="--gs:13" d="M712,641 L721,887"/></g>
<g class="parts"><rect data-part="2" data-literal="南" role="button" tabindex="0" aria-label="Part 南" x="315" y="4" width="612" height="955"/><rect data-part="1" data-literal="木" data-radical="true" role="button" tabindex="0" aria-label="Part 木 (radical)" x="0" y="4" width="464" height="976"/></g>
</svg>
