<!--
  Stroke-order data for 極, derived from AnimCJK (https://github.com/parsimonhi/animCJK),
  itself derived from the Arphic PL KaitiM fonts. Distributed under the Arphic Public License
  (see ARPHICPL.TXT). Regenerated by scripts/build-strokes.ts — do not edit by hand.
-->
<svg id="z26997" class="acjk" viewBox="0 0 1024 1024" xmlns="http://www.w3.org/2000/svg">
<g class="glyph"><path id="z26997d1" d="M324 377C354 369 390 358 417 345C424 341 423 333 420 328C414 320 402 314 382 311C362 308 343 312 325 319C294 330 294 330 279 336C229 354 165 369 127 377C101 381 99 390 118 401C164 426 219 404 263 393C304 382 304 382 324 377Z"/><path id="z26997d2" d="M316 835C315 808 313 705 320 525C321 507 321 507 321 498C321 483 323 394 324 377C325 338 325 338 325 319C325 262 331 195 346 152C349 141 355 131 352 124C348 115 325 103 290 79C272 67 258 66 245 77C242 79 239 87 246 98C290 172 281 203 279 336C276 433 276 433 275 481C272 589 273 697 245 795C238 817 240 834 243 850C244 860 246 872 251 882C257 896 263 908 274 919C277 923 281 922 288 917C292 913 299 906 306 892C313 875 316 855 316 835Z"/><path id="z26997d3" d="M263 393C219 514 139 623 73 710C52 726 46 756 79 734C164 657 227 573 276 481C319 409 294 315 263 393Z"/><path id="z26997d4" d="M320 525C330 535 340 546 351 557C359 565 367 569 377 570C382 570 389 566 392 557C393 550 391 540 386 531C380 520 369 516 359 512C341 505 329 500 321 498C312 495 314 519 320 525Z"/><path id="z26997d5" d="M606 236C662 227 719 215 779 206C815 199 836 193 842 189C847 184 850 177 847 172C842 162 829 156 810 151C789 145 769 148 749 155C707 168 664 179 620 188C570 197 516 202 459 207C434 209 429 217 448 230C457 237 470 241 486 245C503 249 528 248 562 243C591 238 591 238 606 236Z"/><path id="z26997d6" d="M562 243C562 251 559 264 556 282C549 311 537 339 517 364C510 372 508 377 510 383C512 388 520 395 534 405C540 408 547 408 556 403C586 384 607 374 619 372C629 369 637 371 642 375C647 379 650 395 649 423C641 539 631 617 621 658C614 681 603 689 583 685C568 681 555 673 541 668C525 662 523 667 536 681C561 711 579 735 588 753C592 761 596 764 601 764C613 762 627 755 641 739C655 722 665 705 668 689C675 648 683 569 693 452C695 423 702 399 717 382C726 370 729 361 724 355C717 345 703 339 685 332C673 327 661 327 648 334C633 340 616 346 598 352C587 355 580 351 585 341C597 308 606 285 617 274C622 268 624 263 621 256C618 249 613 242 606 236C595 225 562 228 562 243Z"/><path id="z26997d7" d="M402 475C414 502 426 541 433 591C434 603 437 616 447 627C463 647 467 629 469 609C469 599 467 590 466 581C460 552 455 505 455 489C455 481 455 469 448 466C441 462 428 459 413 456C393 451 397 465 402 475Z"/><path id="z26997d8" d="M564 564C574 525 585 500 597 488C608 474 607 463 596 456C585 449 572 441 560 434C549 428 539 428 530 435C503 452 475 458 448 466C440 468 447 492 455 489C474 483 498 478 517 474C545 467 539 494 536 508C532 524 528 542 524 561C522 574 561 577 564 564Z"/><path id="z26997d9" d="M469 609C506 604 545 594 576 591C599 583 585 572 564 564C552 559 536 556 524 561C510 566 481 575 466 581C457 584 460 611 469 609Z"/><path id="z26997d10" d="M766 563C750 588 733 608 711 633C692 653 694 662 717 648C746 632 771 606 790 587C800 576 808 564 817 552C835 523 851 500 866 475C875 458 887 441 905 425C911 418 913 411 911 408C908 402 889 396 857 386C845 382 836 384 827 392C818 398 807 403 793 408C770 415 748 421 726 425C716 426 712 430 722 438C732 447 750 448 771 444C781 441 789 438 797 435C828 423 823 447 816 465C806 486 797 510 784 533C772 553 772 553 766 563Z"/><path id="z26997d11" d="M790 587C810 607 832 628 856 654C864 664 872 671 880 673C884 674 888 671 893 666C898 659 898 643 892 622C881 585 857 575 817 552C795 539 795 539 784 533C758 518 738 506 723 501C706 494 715 518 722 524C735 535 751 548 766 563C782 579 782 579 790 587Z"/><path id="z26997d12" d="M378 801C363 802 361 807 372 821C380 830 390 838 405 843C418 847 433 848 445 846C497 835 550 828 609 825C718 819 799 817 894 827C923 829 939 816 911 791C891 773 872 763 858 757C844 751 831 751 816 754C767 762 701 771 619 780C546 787 466 794 378 801Z"/></g>
<defs><clipPath id="z26997c1"><use href="#z26997d1"/></clipPath>
	<clipPath id="z26997c2"><use href="#z26997d2"/></clipPath>
	<clipPath id="z26997c3"><use href="#z26997d3"/></clipPath>
	<clipPath id="z26997c4"><use href="#z26997d4"/></clipPath>
	<clipPath id="z26997c5"><use href="#z26997d5"/></clipPath>
	<clipPath id="z26997c6"><use href="#z26997d6"/></clipPath>
	<clipPath id="z26997c7"><use href="#z26997d7"/></clipPath>
	<clipPath id="z26997c8"><use href="#z26997d8"/></clipPath>
	<clipPath id="z26997c9"><use href="#z26997d9"/></clipPath>
	<clipPath id="z26997c10"><use href="#z26997d10"/></clipPath>
	<clipPath id="z26997c11"><use href="#z26997d11"/></clipPath>
	<clipPath id="z26997c12"><use href="#z26997d12"/></clipPath><marker id="guide-arrow" viewBox="0 0 16 16" refX="5" refY="5" markerWidth="4" markerHeight="4" orient="auto-start-reverse"><path d="M 0 0 L 10 5 L 0 10 z" fill="inherit"/></marker></defs>
<g class="strokes"><path pathLength="3333" clip-path="url(#z26997c1)" d="M113 389L417 336"/><path pathLength="3333" clip-path="url(#z26997c2)" d="M248 82L312 145L285 912"/><path pathLength="3333" clip-path="url(#z26997c3)" d="M284 375L216 541L63 734"/><path pathLength="3333" clip-path="url(#z26997c4)" d="M321 505L384 562"/><path pathLength="3333" clip-path="url(#z26997c5)" d="M443 216L551 221L843 175"/><path pathLength="3333" clip-path="url(#z26997c6)" d="M570 239L588 273L555 374L656 353L686 377L640 686L598 724L535 672"/><path pathLength="3333" clip-path="url(#z26997c7)" d="M405 463L433 488L459 629"/><path pathLength="3333" clip-path="url(#z26997c8)" d="M449 476L540 452L570 472L545 570"/><path pathLength="3333" clip-path="url(#z26997c9)" d="M463 597L581 579"/><path pathLength="3333" clip-path="url(#z26997c10)" d="M726 432L866 422L784 567L705 649"/><path pathLength="3333" clip-path="url(#z26997c11)" d="M723 509L844 601L881 667"/><path pathLength="3333" clip-path="url(#z26997c12)" d="M375 811L433 822L822 787L921 808"/></g>
<g class="guides"><text class="g1" style="--gs:1" x="113" y="389">①</text><path class="g1 aligned" style="--gs:1" d="M113,389 L417,336"/><path class="g1 offset" style="--gs:1" d="M113,485 L417,432"/><text class="g2" style="--gs:2" x="248" y="82">②</text><path class="g2 aligned" style="--gs:2" d="M248,82 Q312,145 308.63,240.88 Q288.38,816.13 285,912"/><path class="g2 offset" style="--gs:2" d="M152,82 Q216,145 212.63,240.88 Q192.38,816.13 189,912"/><text class="g3" style="--gs:3" x="284" y="375">③</text><path class="g3 aligned" style="--gs:3" d="M284,375 Q216,541 196.88,565.13 Q82.13,709.88 63,734"/><path class="g3 offset" style="--gs:3" d="M188,375 Q154,496.61 144.44,514.28 Q87.06,620.33 77.5,638"/><text class="g4" style="--gs:4" x="321" y="505">④</text><path class="g4 aligned" style="--gs:4" d="M321,505 L384,562"/><path class="g4 offset" style="--gs:4" d="M406.68,436.46 L469.68,493.46"/><text class="g5" style="--gs:5" x="443" y="216">⑤</text><path class="g5 aligned" style="--gs:5" d="M443,216 Q551,221 587.5,215.25 Q806.5,180.75 843,175"/><path class="g5 offset" style="--gs:5" d="M443,312 Q551,317 587.5,311.25 Q806.5,276.75 843,271"/><text class="g6" style="--gs:6" x="570" y="239">⑥</text><path class="g6 aligned" style="--gs:6" d="M579,256 Q555,374 605.5,363.5 Q656,353 671,365 Q686,377 663,531.5 Q640,686 619,705 Q598,724 566.5,698 Q566.5,698 535,672"/><path class="g6 offset" style="--gs:6" d="M483,256 Q471,349.79 496.25,341.45 Q521.5,333.1 529,342.64 Q536.5,352.18 525,474.99 Q513.5,597.79 503,612.9 Q492.5,628 476.75,607.33 Q476.75,607.33 461,586.67"/><text class="g7" style="--gs:7" x="405" y="463">⑦</text><path class="g7 aligned" style="--gs:7" d="M419,476 L459,629"/><path class="g7 offset" style="--gs:7" d="M539,476 L579,629"/><text class="g8" style="--gs:8" x="449" y="476">⑧</text><path class="g8 aligned" style="--gs:8" d="M449,476 Q540,452 547.5,457 Q570,472 563.75,496.5 Q551.25,545.5 545,570"/><path class="g8 offset" style="--gs:8" d="M449,572 Q494.5,548 498.25,553 Q509.5,568 506.38,577.75 Q500.13,597.25 497,607"/><text class="g9" style="--gs:9" x="463" y="597">⑨</text><path class="g9 aligned" style="--gs:9" d="M463,597 L581,579"/><path class="g9 offset" style="--gs:9" d="M463,693 L581,675"/><text class="g10" style="--gs:10" x="726" y="432">⑩</text><path class="g10 aligned" style="--gs:10" d="M726,432 Q866,422 845.5,458.25 Q784,567 764.25,587.5 Q724.75,628.5 705,649"/><path class="g10 offset" style="--gs:10" d="M630,528 Q700,523 689.75,541.13 Q659,595.5 649.13,605.75 Q629.38,626.25 619.5,636.5"/><text class="g11" style="--gs:11" x="723" y="509">⑪</text><path class="g11 aligned" style="--gs:11" d="M723,509 Q844,601 848.63,609.25 Q876.38,658.75 881,667"/><path class="g11 offset" style="--gs:11" d="M808.68,440.46 Q929.68,532.46 934.31,540.71 Q962.06,590.21 966.68,598.46"/><text class="g12" style="--gs:12" x="375" y="811">⑫</text><path class="g12 aligned" style="--gs:12" d="M375,811 Q433,822 530.25,813.25 Q822,787 846.75,792.25 Q896.25,802.75 921,808"/><path class="g12 offset" style="--gs:12" d="M375,907 Q433,918 530.25,909.25 Q822,883 846.75,888.25 Q896.25,898.75 921,904"/></g>
</svg>
