<svg id="z27004" class="acjk" viewBox="0 0 1024 1024" xmlns="http://www.w3.org/2000/svg">
<style>

@keyframes zk {
	to {
		stroke-dashoffset:0;
	}
}
svg.acjk path[clip-path] {
	--t:0.8s;
	animation:zk var(--t) linear forwards var(--d);
	stroke-dasharray:3337;
	stroke-dashoffset:3339;
	stroke-width:128;
	stroke-linecap:round;
	fill:none;
	stroke:#000;
}
svg.acjk path[id] {fill:#ccc;}


    @keyframes guide-fade {
        0% { opacity: 0; }
        3% { opacity: 1; }
        95% { opacity: 1; }
        100% { opacity: 0; }
    }

    svg.acjk #guide-arrow {
        fill: #f77;
    }

    svg.acjk .guides {
        circle {
            fill: #0f6;
        }

        path {
            opacity: 0;
            animation: guide-fade var(--t) linear forwards var(--d);
            stroke-width: 16px;
            stroke-linecap: round;
            stroke: #f77;
            fill: none;
            marker-end: url(#guide-arrow);
        }

        circle,
        path {
            --t: 0.8s;
            opacity: 0;
            animation: guide-fade calc(var(--t) + 0.4s) ease-in-out forwards calc(var(--d) - 0.2s);
        }
    }
</style>
<path id="z27004d1" d="M330 377Q343 373 361 369Q398 359 404 353Q413 344 408 336Q401 324 370 318Q351 314 332 320C301 331 301 331 285 336Q183 367 108 378Q71 385 99 401Q144 425 199 408Q230 401 264 393C308 382 308 382 330 377Z"/>
<path id="z27004d2" d="M326 479Q327 430 330 377C331 339 331 339 332 320Q333 229 353 169Q363 153 360 140Q353 130 298 94Q274 78 253 92Q249 96 254 113Q285 161 285 208Q285 268 285 336C281 433 281 433 279 481Q267 709 265 716Q258 753 247 791Q235 833 260 893Q266 911 274 915Q280 922 288 913Q315 895 317 832Q316 792 325 513C326 490 326 490 326 479Z"/>
<path id="z27004d3" d="M264 393Q240 463 205 528Q165 600 70 731Q64 741 76 742Q97 742 198 616Q241 561 280 481C311 404 290 313 264 392C264 393 264 393 264 393Z"/>
<path id="z27004d4" d="M325 513Q326 514 330 517Q358 542 386 574Q396 584 408 585Q417 585 421 575Q425 565 421 541Q415 511 329 479Q328 478 326 479C315 477 316 506 325 513Z"/>
<path id="z27004d5" d="M483 217Q526 272 546 274Q559 275 565 259Q566 247 558 228Q549 215 530 208Q500 195 488 193Q479 192 478 201Q477 208 483 217Z"/>
<path id="z27004d6" d="M746 163Q728 190 692 232Q686 239 691 245Q698 246 705 243Q775 200 811 184Q827 180 823 170Q819 155 802 138Q786 122 766 119Q753 119 753 136Q754 149 746 163Z"/>
<path id="z27004d7" d="M660 342Q693 333 823 316Q833 317 841 305Q842 295 820 284Q793 263 693 293Q675 297 657 302Q653 303 650 304C627 309 627 309 615 312Q572 319 534 325Q494 329 448 337Q420 341 442 357Q472 378 514 371Q541 365 576 358C632 347 632 347 660 342Z"/>
<path id="z27004d8" d="M650 304Q653 171 681 115Q687 106 676 94Q654 76 628 65Q612 58 598 63Q585 67 591 81Q618 124 615 192Q616 259 615 312C613 357 613 357 612 380Q603 473 606 484Q612 494 617 506Q627 521 641 513Q650 506 651 445Q650 415 649 364C650 324 650 324 650 304Z"/>
<path id="z27004d9" d="M576 358Q555 418 441 502Q428 512 440 514Q449 515 479 501Q507 491 534 469Q556 450 583 421Q599 399 612 380C635 349 590 322 576 358Z"/>
<path id="z27004d10" d="M649 364Q695 427 749 485Q768 504 800 506Q858 510 919 500Q935 499 936 494Q939 488 926 483Q784 434 722 391Q704 379 689 366Q673 351 660 342C647 332 639 351 649 364Z"/>
<path id="z27004d11" d="M656 813Q704 849 771 912Q793 934 810 934Q829 935 832 916Q833 897 809 852Q797 825 685 773C656 760 656 760 641 753Q604 735 575 726Q551 720 565 698Q578 665 590 643C601 620 601 620 606 609Q607 608 608 606Q615 584 626 568Q635 561 631 552Q627 539 589 514Q579 507 569 510Q557 514 564 528Q573 549 555 615C548 638 548 638 544 650Q511 725 513 729Q516 739 531 742Q570 755 611 782Q612 782 613 784C642 803 642 803 656 813Z"/>
<path id="z27004d12" d="M613 784Q553 844 408 876Q392 883 411 887Q552 908 654 816Q654 813 656 813C675 786 675 786 685 773Q715 731 733 681Q745 644 755 630C763 617 755 596 742 588Q709 567 687 573Q674 576 680 591Q681 594 683 598C685 621 685 621 686 633Q687 657 673 689Q660 725 641 753C622 774 622 774 613 784Z"/>
<path id="z27004d13" d="M755 630Q789 627 912 627Q930 627 935 619Q939 609 925 597Q874 558 814 575Q781 581 742 588C703 595 703 595 683 598Q650 599 606 609C572 613 572 613 555 615Q474 625 383 636Q364 637 378 653Q391 666 407 671Q426 675 440 671Q489 658 544 650C575 645 575 645 590 643Q614 636 686 633C732 631 732 631 755 630Z"/>
<defs>
	<clipPath id="z27004c1"><use href="#z27004d1"/></clipPath>
	<clipPath id="z27004c2"><use href="#z27004d2"/></clipPath>
	<clipPath id="z27004c3"><use href="#z27004d3"/></clipPath>
	<clipPath id="z27004c4"><use href="#z27004d4"/></clipPath>
	<clipPath id="z27004c5"><use href="#z27004d5"/></clipPath>
	<clipPath id="z27004c6"><use href="#z27004d6"/></clipPath>
	<clipPath id="z27004c7"><use href="#z27004d7"/></clipPath>
	<clipPath id="z27004c8"><use href="#z27004d8"/></clipPath>
	<clipPath id="z27004c9"><use href="#z27004d9"/></clipPath>
	<clipPath id="z27004c10"><use href="#z27004d10"/></clipPath>
	<clipPath id="z27004c11"><use href="#z27004d11"/></clipPath>
	<clipPath id="z27004c12"><use href="#z27004d12"/></clipPath>
	<clipPath id="z27004c13"><use href="#z27004d13"/></clipPath>
<marker id="guide-arrow" viewBox="0 0 16 16" refX="5" refY="5" markerWidth="4" markerHeight="4" orient="auto-start-reverse"><path d="M 0 0 L 10 5 L 0 10 z" fill="inherit"/></marker></defs>
<path style="--d:1s;" pathLength="3333" clip-path="url(#z27004c1)" d="M93 387L151 393L405 342"/>
<path style="--d:2s;" pathLength="3333" clip-path="url(#z27004c2)" d="M257 96L320 159L277 912"/>
<path style="--d:3s;" pathLength="3333" clip-path="url(#z27004c3)" d="M277 396L211 560L75 735"/>
<path style="--d:4s;" pathLength="3333" clip-path="url(#z27004c4)" d="M332 485L410 580"/>
<path style="--d:5s;" pathLength="3333" clip-path="url(#z27004c5)" d="M486 203L554 269"/>
<path style="--d:6s;" pathLength="3333" clip-path="url(#z27004c6)" d="M764 123L786 165L697 239"/>
<path style="--d:7s;" pathLength="3333" clip-path="url(#z27004c7)" d="M440 347L836 301"/>
<path style="--d:8s;" pathLength="3333" clip-path="url(#z27004c8)" d="M596 69L646 126L629 509"/>
<path style="--d:9s;" pathLength="3333" clip-path="url(#z27004c9)" d="M606 359L523 456L442 508"/>
<path style="--d:10s;" pathLength="3333" clip-path="url(#z27004c10)" d="M656 354L774 461L927 492"/>
<path style="--d:11s;" pathLength="3333" clip-path="url(#z27004c11)" d="M569 516L599 560L540 728L739 837L824 925"/>
<path style="--d:12s;" pathLength="3333" clip-path="url(#z27004c12)" d="M685 576L717 642L631 802L539 858L410 879"/>
<path style="--d:13s;" pathLength="3333" clip-path="url(#z27004c13)" d="M380 643L840 598L931 612"/>
<g class="guides"><circle style="--d: 1s" class="g1" cx="93" cy="387" r="16"/><path style="--d: 1s;" class="g1" d="M93,483 Q151,489 182.75,482.625 Q373.25,444.375 405,438"/><circle style="--d: 2s" class="g2" cx="257" cy="96" r="16"/><path style="--d: 2s;" class="g2" d="M161,96 Q224,159 218.625,253.125 Q186.375,817.875 181,912"/><circle style="--d: 3s" class="g3" cx="277" cy="396" r="16"/><path style="--d: 3s;" class="g3" d="M181,396 Q148,513.5575221238938 139.5,529.237831858407 Q88.5,623.3196902654868 80,639"/><circle style="--d: 4s" class="g4" cx="332" cy="485" r="16"/><path style="--d: 4s;" class="g4" d="M417.68,416.456 L495.68,511.456"/><circle style="--d: 5s" class="g5" cx="486" cy="203" r="16"/><path style="--d: 5s;" class="g5" d="M571.68,134.45600000000002 L639.68,200.45600000000002"/><circle style="--d: 6s" class="g6" cx="764" cy="123" r="16"/><path style="--d: 6s;" class="g6" d="M668,123 Q679,144 673.4375,148.625 Q640.0625,176.375 634.5,181"/><circle style="--d: 7s" class="g7" cx="440" cy="347" r="16"/><path style="--d: 7s;" class="g7" d="M440,443 L836,397"/><circle style="--d: 8s" class="g8" cx="596" cy="69" r="16"/><path style="--d: 8s;" class="g8" d="M500,69 Q550,126 547.875,173.875 Q535.125,461.125 533,509"/><circle style="--d: 9s" class="g9" cx="606" cy="359" r="16"/><path style="--d: 9s;" class="g9" d="M691.68,427.544 Q608.68,524.544 598.555,531.044 Q537.805,570.044 527.68,576.544"/><circle style="--d: 10s" class="g10" cx="656" cy="354" r="16"/><path style="--d: 10s;" class="g10" d="M741.68,285.456 Q822.3728413284132,371.16765217391304 835.4512361623615,374.2716956521739 Q913.9216051660517,392.89595652173915 927,396"/><circle style="--d: 11s" class="g11" cx="569" cy="516" r="16"/><path style="--d: 11s;" class="g11" d="M654.68,447.456 Q684.68,491.456 655.18,575.456 Q625.68,659.456 725.18,713.956 Q824.68,768.456 867.18,812.456 Q867.18,812.456 909.68,856.456"/><circle style="--d: 12s" class="g12" cx="685" cy="576" r="16"/><path style="--d: 12s;" class="g12" d="M589,576 Q608.4918566775244,621.0891089108911 582.299674267101,675.7425742574258 Q556.1074918566775,730.3960396039604 528.0879478827362,749.5247524752475 Q500.06840390879483,768.6534653465346 460.78013029315963,775.8267326732673 Q460.78013029315963,775.8267326732673 421.4918566775244,783"/><circle style="--d: 13s" class="g13" cx="380" cy="643" r="16"/><path style="--d: 13s;" class="g13" d="M380,739 Q840,694 851.375,695.75 Q919.625,706.25 931,708"/></g></svg>