<!--
  Stroke-order data for 樋, derived from AnimCJK (https://github.com/parsimonhi/animCJK),
  itself derived from the Arphic PL KaitiM fonts. Distributed under the Arphic Public License
  (see ARPHICPL.TXT). Regenerated by scripts/build-strokes.ts — do not edit by hand.
-->
<svg id="z27147" class="acjk" viewBox="0 0 1024 1024" xmlns="http://www.w3.org/2000/svg">
<g class="glyph"><path id="z27147d1" d="M289 382Q370 355 373 353Q382 344 376 336Q369 324 338 319Q313 315 291 324C262 336 262 336 248 342Q170 370 103 381Q66 391 94 405Q139 424 210 402Q222 398 236 396C271 387 271 387 289 382Z"/><path id="z27147d2" d="M286 490C286 456 287 420 289 382C290 343 290 343 291 324C291 256 295 196 313 150C319 131 317 118 298 105C287 97 273 89 258 79C242 68 228 66 215 77C212 79 210 87 216 97C234 130 248 161 248 194C248 293 248 293 248 342C245 448 245 448 243 501C240 545 239 592 238 640C236 690 226 739 212 787C203 815 208 847 225 886C230 897 234 903 239 907C243 910 246 909 252 905C256 901 263 894 270 881C277 864 279 846 279 826C278 801 281 700 285 522C286 501 286 501 286 490Z"/><path id="z27147d3" d="M236 396Q193 526 54 723Q48 733 60 734Q81 734 177 611Q211 565 244 501C294 418 266 304 236 395C236 396 236 396 236 396Z"/><path id="z27147d4" d="M285 522Q292 525 346 576Q356 586 369 586Q378 586 381 575Q385 565 378 541Q372 514 289 490Q288 489 286 490C275 488 276 516 285 522Z"/><path id="z27147d5" d="M745 246Q840 158 871 149Q888 142 883 127Q880 111 823 77Q805 67 787 76Q734 100 653 127Q634 134 582 134Q562 134 570 153Q576 166 593 176Q620 192 649 172Q668 163 766 121Q777 115 787 121Q797 128 793 140Q765 183 733 234C730 239 740 249 745 246Z"/><path id="z27147d6" d="M733 234Q706 216 659 216Q656 216 656 217Q652 221 654 231Q655 235 722 292Q733 302 743 300Q751 299 754 288Q758 261 745 246C737 238 737 238 733 234Z"/><path id="z27147d7" d="M601 340Q579 327 563 327Q552 331 556 341Q599 447 553 618Q525 672 555 715Q562 728 570 723Q600 702 604 595Q612 415 616 373C618 361 612 345 601 340Z"/><path id="z27147d8" d="M725 343Q774 330 829 319Q845 315 853 324Q861 328 864 370Q872 506 865 662Q864 684 857 691Q848 698 800 688Q787 684 787 693Q787 700 798 706Q840 746 862 776Q879 794 889 791Q900 790 909 763Q922 723 922 664Q906 376 922 345Q931 326 923 316Q914 303 877 282Q863 273 800 295Q625 334 601 340C589 342 605 377 616 373Q619 370 690 351C713 346 713 346 725 343Z"/><path id="z27147d9" d="M745 463Q778 454 808 448Q828 442 819 431Q810 418 787 415Q771 414 747 422C718 434 718 434 704 440Q671 452 643 463Q629 467 647 481Q656 487 672 482Q687 478 704 474C731 467 731 467 745 463Z"/><path id="z27147d10" d="M742 573Q783 564 817 559Q837 555 830 543Q821 530 799 526Q779 523 744 534Q743 534 743 535C717 544 717 544 704 548Q668 558 637 568Q623 572 640 585Q649 592 667 589Q686 585 704 582C729 576 729 576 742 573Z"/><path id="z27147d11" d="M706 679Q709 698 714 706Q717 710 723 709Q732 703 738 657Q742 624 742 573C743 548 743 548 743 535Q743 507 745 463C746 436 746 436 747 422Q747 421 748 420Q748 413 753 377Q756 364 746 356Q734 346 725 343C714 339 684 341 690 351Q704 369 704 440C704 463 704 463 704 474Q704 507 704 548C704 571 704 571 704 582Q704 654 706 679Z"/><path id="z27147d12" d="M451 165C464 177 476 191 490 207C497 215 507 220 517 220C523 220 529 215 533 207C536 198 535 184 531 165C528 154 519 143 502 136C464 119 438 112 428 117C424 118 422 125 424 133C424 139 435 150 451 165Z"/><path id="z27147d13" d="M421 299C434 311 446 325 460 341C467 349 477 354 487 354C493 354 499 349 503 341C506 332 505 318 501 299C498 288 489 277 472 270C434 253 408 246 398 251C394 252 392 259 394 267C394 273 405 284 421 299Z"/><path id="z27147d14" d="M418 553C417 567 421 584 428 597C452 648 461 696 455 720C454 720 454 721 454 722C451 729 469 728 475 724C483 719 490 711 493 700C499 676 489 633 467 594C447 559 463 525 513 464C523 451 526 444 516 435C505 425 488 416 470 407C458 401 444 408 419 421C376 442 350 449 345 449C339 448 337 449 337 453C336 455 337 458 342 461C361 472 390 469 427 455C431 453 436 454 441 461C453 475 448 491 439 508C430 523 418 537 418 553Z"/><path id="z27147d15" d="M454 722C425 719 397 722 369 732C354 736 335 739 311 741C307 741 304 744 302 750C300 754 301 760 307 766C317 776 331 785 347 793C353 797 363 794 375 785C415 749 470 748 540 783C562 793 588 806 618 822C728 882 806 906 852 894C890 883 925 867 958 846C972 837 972 833 958 833C839 825 765 817 736 811C683 798 618 775 542 743C519 733 497 726 475 724C461 723 461 723 454 722Z"/></g>
<defs><clipPath id="z27147c1"><use href="#z27147d1"/></clipPath>
	<clipPath id="z27147c2"><use href="#z27147d2"/></clipPath>
	<clipPath id="z27147c3"><use href="#z27147d3"/></clipPath>
	<clipPath id="z27147c4"><use href="#z27147d4"/></clipPath>
	<clipPath id="z27147c5"><use href="#z27147d5"/></clipPath>
	<clipPath id="z27147c6"><use href="#z27147d6"/></clipPath>
	<clipPath id="z27147c7"><use href="#z27147d7"/></clipPath>
	<clipPath id="z27147c8"><use href="#z27147d8"/></clipPath>
	<clipPath id="z27147c9"><use href="#z27147d9"/></clipPath>
	<clipPath id="z27147c10"><use href="#z27147d10"/></clipPath>
	<clipPath id="z27147c11"><use href="#z27147d11"/></clipPath>
	<clipPath id="z27147c12"><use href="#z27147d12"/></clipPath>
	<clipPath id="z27147c13"><use href="#z27147d13"/></clipPath>
	<clipPath id="z27147c14"><use href="#z27147d14"/></clipPath>
	<clipPath id="z27147c15"><use href="#z27147d15"/></clipPath><marker id="guide-arrow" viewBox="0 0 16 16" refX="5" refY="5" markerWidth="4" markerHeight="4" orient="auto-start-reverse"><path d="M 0 0 L 10 5 L 0 10 z" fill="inherit"/></marker></defs>
<g class="strokes"><path pathLength="3333" clip-path="url(#z27147c1)" d="M90 394L372 343"/><path pathLength="3333" clip-path="url(#z27147c2)" d="M219 78L280 146L247 904"/><path pathLength="3333" clip-path="url(#z27147c3)" d="M242 401L199 536L60 728"/><path pathLength="3333" clip-path="url(#z27147c4)" d="M291 498L372 579"/><path pathLength="3333" clip-path="url(#z27147c5)" d="M571 142L620 158L807 101L835 144L741 241"/><path pathLength="3333" clip-path="url(#z27147c6)" d="M659 223L750 288"/><path pathLength="3333" clip-path="url(#z27147c7)" d="M562 336L594 410L567 718"/><path pathLength="3333" clip-path="url(#z27147c8)" d="M609 345L845 300L892 329L889 705L866 741L796 695"/><path pathLength="3333" clip-path="url(#z27147c9)" d="M644 472L817 433"/><path pathLength="3333" clip-path="url(#z27147c10)" d="M637 575L824 550"/><path pathLength="3333" clip-path="url(#z27147c11)" d="M698 357L728 389L719 704"/><path pathLength="3333" clip-path="url(#z27147c12)" d="M431 124L526 210"/><path pathLength="3333" clip-path="url(#z27147c13)" d="M401 258L496 344"/><path pathLength="3333" clip-path="url(#z27147c14)" d="M344 455L448 430L485 460L440 554L474 678L467 720"/><path pathLength="3333" clip-path="url(#z27147c15)" d="M307 752L354 765L421 740L495 746L807 858L959 839"/></g>
<g class="guides"><text class="g1" style="--gs:1" x="90" y="394">①</text><path class="g1 aligned" style="--gs:1" d="M90,394 L372,343"/><path class="g1 offset" style="--gs:1" d="M90,490 L372,439"/><text class="g2" style="--gs:2" x="219" y="78">②</text><path class="g2 aligned" style="--gs:2" d="M219,78 Q280,146 275.88,240.75 Q251.13,809.25 247,904"/><path class="g2 offset" style="--gs:2" d="M123,78 Q184,146 179.88,240.75 Q155.13,809.25 151,904"/><text class="g3" style="--gs:3" x="242" y="401">③</text><path class="g3 aligned" style="--gs:3" d="M242,401 Q199,536 181.63,560 Q77.38,704 60,728"/><path class="g3 offset" style="--gs:3" d="M146,401 Q124.5,496.37 115.81,513.32 Q63.69,615.05 55,632"/><text class="g4" style="--gs:4" x="291" y="498">④</text><path class="g4 aligned" style="--gs:4" d="M291,498 L372,579"/><path class="g4 offset" style="--gs:4" d="M376.68,429.46 L457.68,510.46"/><text class="g5" style="--gs:5" x="571" y="142">⑤</text><path class="g5 aligned" style="--gs:5" d="M571,142 Q620,158 713.5,129.5 Q807,101 821,122.5 Q835,144 788,192.5 Q788,192.5 741,241"/><path class="g5 offset" style="--gs:5" d="M571,238 Q602.18,254 661.68,225.5 Q721.18,197 730.09,218.5 Q739,240 709.09,288.5 Q709.09,288.5 679.18,337"/><text class="g6" style="--gs:6" x="659" y="223">⑥</text><path class="g6 aligned" style="--gs:6" d="M659,223 L750,288"/><path class="g6 offset" style="--gs:6" d="M744.68,154.46 L835.68,219.46"/><text class="g7" style="--gs:7" x="562" y="336">⑦</text><path class="g7 aligned" style="--gs:7" d="M562,336 Q594,410 590.63,448.5 Q570.38,679.5 567,718"/><path class="g7 offset" style="--gs:7" d="M682,336 Q714,410 710.63,448.5 Q690.38,679.5 687,718"/><text class="g8" style="--gs:8" x="609" y="345">⑧</text><path class="g8 aligned" style="--gs:8" d="M609,345 Q845,300 868.5,314.5 Q892,329 890.5,517 Q889,705 877.5,723 Q866,741 831,718 Q831,718 796,695"/><path class="g8 offset" style="--gs:8" d="M609,441 Q764.94,396 780.47,410.5 Q796,425 795.01,525.76 Q794.02,626.51 786.42,636.76 Q778.82,647 755.69,633.91 Q755.69,633.91 732.57,620.82"/><text class="g9" style="--gs:9" x="644" y="472">⑨</text><path class="g9 aligned" style="--gs:9" d="M644,472 L817,433"/><path class="g9 offset" style="--gs:9" d="M644,568 L817,529"/><text class="g10" style="--gs:10" x="637" y="575">⑩</text><path class="g10 aligned" style="--gs:10" d="M637,575 L824,550"/><path class="g10 offset" style="--gs:10" d="M637,671 L824,646"/><text class="g11" style="--gs:11" x="698" y="357">⑪</text><path class="g11 aligned" style="--gs:11" d="M698,357 Q728,389 726.88,428.38 Q720.13,664.63 719,704"/><path class="g11 offset" style="--gs:11" d="M602,357 Q632,389 630.88,428.38 Q624.13,664.63 623,704"/><text class="g12" style="--gs:12" x="431" y="124">⑫</text><path class="g12 aligned" style="--gs:12" d="M431,124 L526,210"/><path class="g12 offset" style="--gs:12" d="M516.68,55.46 L611.68,141.46"/><text class="g13" style="--gs:13" x="401" y="258">⑬</text><path class="g13 aligned" style="--gs:13" d="M401,258 L496,344"/><path class="g13 offset" style="--gs:13" d="M486.68,189.46 L581.68,275.46"/><text class="g14" style="--gs:14" x="344" y="455">⑭</text><path class="g14 aligned" style="--gs:14" d="M344,455 Q448,430 466.5,445 Q485,460 462.5,507 Q440,554 457,616 Q474,678 470.5,699 Q470.5,699 467,720"/><path class="g14 offset" style="--gs:14" d="M344,551 Q396,526 405.25,536.03 Q414.5,546.07 403.25,577.51 Q392,608.95 400.5,650.43 Q409,691.9 407.25,705.95 Q407.25,705.95 405.5,720"/><text class="g15" style="--gs:15" x="307" y="752">⑮</text><path class="g15 aligned" style="--gs:15" d="M307,752 Q354,765 387.5,752.5 Q421,740 458,743 Q495,746 651,802 Q807,858 883,848.5 Q883,848.5 959,839"/><path class="g15 offset" style="--gs:15" d="M307,848 Q354,861 387.5,848.5 Q421,836 458,839 Q495,842 651,898 Q807,954 883,944.5 Q883,944.5 959,935"/></g>
</svg>
