<!--
  Stroke-order data for 横, derived from AnimCJK (https://github.com/parsimonhi/animCJK),
  itself derived from the Arphic PL KaitiM fonts. Distributed under the Arphic Public License
  (see ARPHICPL.TXT). Regenerated by scripts/build-strokes.ts — do not edit by hand.
-->
<svg id="z27178" class="acjk" viewBox="0 0 1024 1024" xmlns="http://www.w3.org/2000/svg">
<g class="glyph"><path id="z27178d1" d="M312 370C365 356 390 343 392 343C398 338 399 332 396 327C391 320 379 314 360 311C343 307 327 309 313 315C284 326 284 326 270 332C207 356 151 363 107 371C84 374 80 385 98 394C141 414 168 406 257 384C294 375 294 375 312 370Z"/><path id="z27178d2" d="M310 474C311 441 311 406 312 370C313 333 313 333 313 315C313 273 318 195 333 154C336 143 342 134 339 126C335 118 313 105 278 83C262 73 248 71 235 81C231 83 231 91 237 101C256 134 268 164 269 196C269 238 271 284 270 332C267 429 267 429 266 478C262 618 256 693 255 704C251 728 245 753 238 779C231 803 236 836 252 878C256 890 262 895 267 899C272 902 273 901 280 897C296 884 307 860 307 818C306 792 302 686 309 501C310 483 310 483 310 474Z"/><path id="z27178d3" d="M257 384C224 472 156 579 58 711C53 716 57 721 64 722C78 722 119 682 187 602C215 568 241 526 267 478C311 405 284 302 257 383C257 384 257 384 257 384Z"/><path id="z27178d4" d="M319 511C355 547 373 570 381 572C385 572 390 569 393 563C396 556 396 545 395 531C392 512 367 495 320 476C315 474 312 473 310 474C301 474 303 495 309 501C316 508 316 508 319 511Z"/><path id="z27178d5" d="M714 265C793 249 834 236 838 234C844 229 846 224 843 219C838 212 827 206 810 201C790 194 762 204 722 216C687 226 687 226 670 231C636 240 602 247 568 253C533 258 533 258 516 261C495 264 474 263 453 266C430 268 426 275 443 287C460 299 487 308 521 302C552 296 552 296 567 293C599 286 632 280 667 274C698 268 698 268 714 265Z"/><path id="z27178d6" d="M568 253C568 235 569 223 571 217C573 202 570 191 561 184C546 172 530 162 514 157C505 154 497 154 492 158C486 161 485 169 490 178C502 203 512 230 516 261C519 288 519 288 521 302C524 326 525 359 529 401C532 414 568 408 568 395C567 354 566 320 567 293C568 266 568 266 568 253Z"/><path id="z27178d7" d="M695 374C701 337 708 301 714 265C719 232 719 232 722 216C724 202 729 173 745 131C747 124 744 115 733 107C715 93 697 85 683 81C674 78 667 79 662 84C657 88 655 95 660 104C669 121 674 134 674 146C672 172 672 201 670 231C668 260 668 260 667 274C664 308 660 343 656 380C654 393 692 387 695 374Z"/><path id="z27178d8" d="M615 419C693 406 796 397 926 396C938 395 945 392 948 387C950 380 947 372 937 365C900 338 868 335 839 344C799 355 751 365 695 374C669 378 669 378 656 380C638 382 591 391 568 395C542 399 542 399 529 401C478 408 427 416 375 424C362 425 360 430 370 441C378 449 388 455 399 458C411 461 422 460 432 457C477 442 526 433 577 425C602 421 602 421 615 419Z"/><path id="z27178d9" d="M472 702C473 705 476 713 485 725C495 739 503 741 507 731C508 728 508 725 509 721C510 702 510 702 511 692C511 680 500 614 492 537C490 524 481 511 469 506C462 503 453 501 442 499C433 497 429 497 427 500C422 504 423 510 428 521C445 560 458 612 467 676C468 684 469 693 472 702Z"/><path id="z27178d10" d="M731 695C731 697 732 701 734 706C738 716 743 720 752 719C760 718 765 712 771 703C778 691 789 659 803 605C811 572 827 545 851 525C863 514 863 504 853 495C841 484 818 471 787 455C778 450 753 454 709 462C668 469 645 473 640 474C607 479 607 479 591 482C577 484 492 502 469 506C456 509 480 541 492 537C516 529 549 521 592 514C623 509 623 509 639 506C705 494 743 491 755 498C761 501 764 512 761 534C750 600 742 644 736 665C734 675 729 685 731 695Z"/><path id="z27178d11" d="M640 474C640 455 643 444 639 439C631 430 623 424 615 419C604 412 570 414 577 425C585 439 590 458 591 482C592 503 592 503 592 514C592 536 591 559 592 582C593 601 593 601 593 611C593 633 593 678 593 678C593 691 632 684 632 671C632 647 632 624 634 604C635 581 635 581 636 570C637 547 638 526 639 506C640 485 640 485 640 474Z"/><path id="z27178d12" d="M634 604C660 599 685 595 709 592C721 590 726 585 721 578C715 569 705 563 691 562C678 560 660 563 637 569C636 569 636 569 636 570C607 578 607 578 592 582C569 588 548 592 530 598C521 600 522 604 533 613C535 614 555 617 593 611C620 606 620 606 634 604Z"/><path id="z27178d13" d="M509 721C539 713 613 704 731 695C741 695 745 670 736 665C732 662 727 661 722 660C693 653 656 666 632 671C606 676 606 676 593 678C562 683 535 687 511 692C501 694 499 723 509 721Z"/><path id="z27178d14" d="M510 774C497 809 445 860 350 921C335 930 337 932 355 933C395 934 453 909 528 853C535 847 550 835 575 818C584 811 586 804 586 798C584 789 576 781 561 774C542 765 530 761 522 762C517 762 512 765 510 774Z"/><path id="z27178d15" d="M694 793C730 827 772 869 815 920C826 933 836 943 848 946C853 947 859 943 865 937C873 927 873 908 866 877C855 837 798 799 695 760C687 757 683 758 683 767C681 777 686 785 694 793Z"/></g>
<defs><clipPath id="z27178c1"><use href="#z27178d1"/></clipPath>
	<clipPath id="z27178c2"><use href="#z27178d2"/></clipPath>
	<clipPath id="z27178c3"><use href="#z27178d3"/></clipPath>
	<clipPath id="z27178c4"><use href="#z27178d4"/></clipPath>
	<clipPath id="z27178c5"><use href="#z27178d5"/></clipPath>
	<clipPath id="z27178c6"><use href="#z27178d6"/></clipPath>
	<clipPath id="z27178c7"><use href="#z27178d7"/></clipPath>
	<clipPath id="z27178c8"><use href="#z27178d8"/></clipPath>
	<clipPath id="z27178c9"><use href="#z27178d9"/></clipPath>
	<clipPath id="z27178c10"><use href="#z27178d10"/></clipPath>
	<clipPath id="z27178c11"><use href="#z27178d11"/></clipPath>
	<clipPath id="z27178c12"><use href="#z27178d12"/></clipPath>
	<clipPath id="z27178c13"><use href="#z27178d13"/></clipPath>
	<clipPath id="z27178c14"><use href="#z27178d14"/></clipPath>
	<clipPath id="z27178c15"><use href="#z27178d15"/></clipPath><marker id="guide-arrow" viewBox="0 0 16 16" refX="5" refY="5" markerWidth="4" markerHeight="4" orient="auto-start-reverse"><path d="M 0 0 L 10 5 L 0 10 z" fill="inherit"/></marker></defs>
<g class="strokes"><path pathLength="3333" clip-path="url(#z27178c1)" d="M96 380L389 335"/><path pathLength="3333" clip-path="url(#z27178c2)" d="M240 84L301 149L275 895"/><path pathLength="3333" clip-path="url(#z27178c3)" d="M262 391L211 529L65 716"/><path pathLength="3333" clip-path="url(#z27178c4)" d="M316 481L388 564"/><path pathLength="3333" clip-path="url(#z27178c5)" d="M441 276L524 280L840 225"/><path pathLength="3333" clip-path="url(#z27178c6)" d="M495 164L537 203L548 397"/><path pathLength="3333" clip-path="url(#z27178c7)" d="M665 92L710 130L667 376"/><path pathLength="3333" clip-path="url(#z27178c8)" d="M371 430L420 438L852 368L945 384"/><path pathLength="3333" clip-path="url(#z27178c9)" d="M431 503L465 545L501 731"/><path pathLength="3333" clip-path="url(#z27178c10)" d="M480 510L740 475L788 487L810 522L751 715"/><path pathLength="3333" clip-path="url(#z27178c11)" d="M585 427L616 458L613 673"/><path pathLength="3333" clip-path="url(#z27178c12)" d="M534 604L717 582"/><path pathLength="3333" clip-path="url(#z27178c13)" d="M514 712L733 679"/><path pathLength="3333" clip-path="url(#z27178c14)" d="M519 772L544 806L448 879L353 928"/><path pathLength="3333" clip-path="url(#z27178c15)" d="M689 766L801 850L863 935"/></g>
<g class="guides"><text class="g1" style="--gs:1" x="96" y="380">①</text><path class="g1 aligned" style="--gs:1" d="M96,380 L389,335"/><path class="g1 offset" style="--gs:1" d="M96,476 L389,431"/><text class="g2" style="--gs:2" x="240" y="84">②</text><path class="g2 aligned" style="--gs:2" d="M240,84 Q301,149 297.75,242.25 Q278.25,801.75 275,895"/><path class="g2 offset" style="--gs:2" d="M144,84 Q205,149 201.75,242.25 Q182.25,801.75 179,895"/><text class="g3" style="--gs:3" x="262" y="391">③</text><path class="g3 aligned" style="--gs:3" d="M262,391 Q211,529 192.75,552.38 Q83.25,692.63 65,716"/><path class="g3 offset" style="--gs:3" d="M166,391 Q140.5,488.24 131.38,504.71 Q76.63,603.53 67.5,620"/><text class="g4" style="--gs:4" x="316" y="481">④</text><path class="g4 aligned" style="--gs:4" d="M316,481 L388,564"/><path class="g4 offset" style="--gs:4" d="M401.68,412.46 L473.68,495.46"/><text class="g5" style="--gs:5" x="441" y="276">⑤</text><path class="g5 aligned" style="--gs:5" d="M441,276 Q524,280 563.5,273.13 Q800.5,231.88 840,225"/><path class="g5 offset" style="--gs:5" d="M441,372 Q524,376 563.5,369.13 Q800.5,327.88 840,321"/><text class="g6" style="--gs:6" x="495" y="164">⑥</text><path class="g6 aligned" style="--gs:6" d="M495,164 Q537,203 538.38,227.25 Q546.63,372.75 548,397"/><path class="g6 offset" style="--gs:6" d="M580.68,95.46 Q622.68,134.46 624.05,158.71 Q632.3,304.21 633.68,328.46"/><text class="g7" style="--gs:7" x="665" y="92">⑦</text><path class="g7 aligned" style="--gs:7" d="M665,92 Q710,130 704.63,160.75 Q672.38,345.25 667,376"/><path class="g7 offset" style="--gs:7" d="M569,92 Q614,130 608.63,160.75 Q576.38,345.25 571,376"/><text class="g8" style="--gs:8" x="371" y="430">⑧</text><path class="g8 aligned" style="--gs:8" d="M371,430 Q420,438 528,420.5 Q852,368 875.25,372 Q921.75,380 945,384"/><path class="g8 offset" style="--gs:8" d="M371,526 Q420,534 528,516.5 Q852,464 875.25,468 Q921.75,476 945,480"/><text class="g9" style="--gs:9" x="431" y="503">⑨</text><path class="g9 aligned" style="--gs:9" d="M431,503 Q465,545 469.5,568.25 Q496.5,707.75 501,731"/><path class="g9 offset" style="--gs:9" d="M516.68,434.46 Q550.68,476.46 555.18,499.71 Q582.18,639.21 586.68,662.46"/><text class="g10" style="--gs:10" x="480" y="510">⑩</text><path class="g10 aligned" style="--gs:10" d="M480,510 Q740,475 764,481 Q788,487 799,504.5 Q810,522 780.5,618.5 Q780.5,618.5 751,715"/><path class="g10 offset" style="--gs:10" d="M480,606 Q645.45,571 660.73,577 Q676,583 683,591.1 Q690,599.2 671.23,657.1 Q671.23,657.1 652.45,715"/><text class="g11" style="--gs:11" x="585" y="427">⑪</text><path class="g11 aligned" style="--gs:11" d="M585,427 Q616,458 615.63,484.88 Q613.38,646.13 613,673"/><path class="g11 offset" style="--gs:11" d="M489,427 Q520,458 519.63,484.88 Q517.38,646.13 517,673"/><text class="g12" style="--gs:12" x="534" y="604">⑫</text><path class="g12 aligned" style="--gs:12" d="M534,604 L717,582"/><path class="g12 offset" style="--gs:12" d="M534,700 L717,678"/><text class="g13" style="--gs:13" x="514" y="712">⑬</text><path class="g13 aligned" style="--gs:13" d="M514,712 L733,679"/><path class="g13 offset" style="--gs:13" d="M514,808 L733,775"/><text class="g14" style="--gs:14" x="519" y="772">⑭</text><path class="g14 aligned" style="--gs:14" d="M519,772 Q544,806 520,824.25 Q448,879 424.25,891.25 Q376.75,915.75 353,928"/><path class="g14 offset" style="--gs:14" d="M423,772 Q435.5,789 423.5,798.13 Q387.5,825.5 375.63,831.63 Q351.88,843.88 340,850"/><text class="g15" style="--gs:15" x="689" y="766">⑮</text><path class="g15 aligned" style="--gs:15" d="M689,766 Q801,850 808.75,860.63 Q855.25,924.38 863,935"/><path class="g15 offset" style="--gs:15" d="M774.68,697.46 Q886.68,781.46 894.43,792.08 Q940.93,855.83 948.68,866.46"/></g>
</svg>
