<!--
  Stroke-order data for 橋, derived from AnimCJK (https://github.com/parsimonhi/animCJK),
  itself derived from the Arphic PL KaitiM fonts. Distributed under the Arphic Public License
  (see ARPHICPL.TXT). Regenerated by scripts/build-strokes.ts — do not edit by hand.
-->
<svg id="z27211" class="acjk" viewBox="0 0 1024 1024" xmlns="http://www.w3.org/2000/svg">
<g class="glyph"><path style="--part:1" id="z27211d1" d="M305 346C361 332 392 322 396 319C400 314 402 307 399 303C394 295 381 289 364 286C343 282 324 287 307 294C278 304 278 304 264 309C228 321 127 338 120 340C96 345 92 351 111 362C147 383 179 376 252 359C287 350 287 350 305 346Z"/><path style="--part:1" id="z27211d2" d="M259 454C258 474 257 578 252 645C246 702 240 749 226 799C217 827 222 860 240 901C244 913 248 919 254 923C258 926 261 926 268 921C272 917 279 910 286 896C293 879 296 859 296 839C295 807 304 439 304 426C304 411 304 411 304 404C304 385 304 366 305 346C306 311 306 311 307 294C309 227 314 171 330 129C334 117 339 107 336 100C332 91 309 79 274 55C256 43 242 42 229 53C226 55 224 62 230 73C250 107 264 141 264 175C264 220 265 264 264 309C261 406 261 406 259 454Z"/><path style="--part:1" id="z27211d3" d="M252 359C220 449 148 564 42 708C37 713 40 717 48 718C51 718 56 716 62 711C145 636 212 550 260 454C307 376 286 275 252 359Z"/><path style="--part:1" id="z27211d4" d="M304 426C321 435 353 468 373 469C379 469 385 462 387 452C388 445 384 435 376 426C365 415 330 406 304 404C297 403 298 422 304 426Z"/><path style="--part:2" id="z27211d5" d="M588 165C640 147 704 114 736 104C745 100 752 100 755 95C757 88 754 80 746 74C705 46 674 36 655 42C649 43 647 48 648 56C649 81 586 124 464 193C458 196 460 203 466 204C473 204 501 193 549 178C575 169 575 169 588 165Z"/><path style="--part:2" id="z27211d6" d="M585 281C601 277 621 274 642 270C658 267 658 267 666 265C674 263 725 253 821 240C827 239 834 238 837 231C839 224 829 219 819 212C798 199 763 204 703 221C677 228 629 241 602 246C564 252 564 252 545 255C526 257 498 261 447 267C429 268 428 276 442 285C473 304 500 299 531 293C567 285 567 285 585 281Z"/><path style="--part:2" id="z27211d7" d="M519 408C549 361 574 302 585 281C596 258 596 258 602 246C621 205 642 195 588 165C576 158 542 166 549 178C559 190 559 216 545 255C536 280 536 280 531 293C496 388 440 456 374 522C366 529 366 534 373 536C374 536 380 535 388 532C426 514 479 468 500 437C513 418 513 418 519 408Z"/><path style="--part:2" id="z27211d8" d="M642 270C678 324 727 384 793 448C804 458 821 464 843 466C884 469 929 465 976 459C987 457 994 456 995 453C995 449 990 444 983 441C885 404 832 382 808 370C787 359 710 302 666 265C660 260 637 263 642 270Z"/><path style="--part:2" id="z27211d9" d="M500 437C510 457 519 484 526 518C527 529 531 538 539 547C548 556 554 559 557 552C558 547 559 539 559 532C558 521 557 510 556 500C552 477 548 440 548 431C548 390 485 399 500 437Z"/><path style="--part:2" id="z27211d10" d="M689 483C699 458 709 443 718 435C731 421 730 408 718 401C707 393 694 385 680 376C671 369 653 374 623 387C600 396 566 402 520 409C508 411 536 433 548 431C565 427 591 422 626 416C652 411 656 425 653 443C650 453 647 466 645 480C643 495 684 497 689 483Z"/><path style="--part:2" id="z27211d11" d="M559 532C576 534 663 519 705 516C711 515 715 512 716 507C716 502 707 494 689 483C676 475 660 478 645 480C614 487 583 495 556 500C545 502 548 532 559 532Z"/><path style="--part:2" id="z27211d12" d="M432 599C416 588 399 582 384 585C376 586 374 591 378 599C399 638 400 709 392 772C388 803 384 826 403 852C406 855 414 861 420 859C442 846 444 815 443 766C441 698 440 655 440 634C440 622 442 606 432 599Z"/><path style="--part:2" id="z27211d13" d="M440 634C552 604 670 592 761 584C787 581 809 606 811 625C814 668 811 730 805 810C803 826 796 836 782 836C760 835 742 832 727 831C715 830 712 831 715 839C717 844 728 854 748 870C773 888 789 912 808 933C814 941 825 940 833 936C839 932 846 918 856 897C870 862 875 811 873 746C869 652 871 602 878 593C884 584 885 574 880 569C872 559 854 550 826 540C813 534 802 537 791 542C776 548 747 551 706 557C645 565 593 575 547 583C502 590 464 595 432 599C420 601 428 636 440 634Z"/><path style="--part:2" id="z27211d14" d="M539 673C533 670 520 668 504 665C496 663 494 663 492 667C489 670 490 674 495 684C507 707 519 738 529 778C531 788 535 799 543 807C553 817 559 819 561 812C562 807 563 801 563 796C561 786 560 775 559 766C554 737 549 711 549 699C549 690 548 676 539 673Z"/><path style="--part:2" id="z27211d15" d="M702 753C712 727 724 710 734 702C749 688 749 674 735 666C724 658 710 649 694 638C682 630 663 637 632 650C614 657 570 667 539 673C530 675 540 702 549 699C563 694 592 690 636 683C665 678 669 693 664 713C661 721 658 731 656 743C653 758 696 768 702 753Z"/><path style="--part:2" id="z27211d16" d="M563 796C580 798 667 783 709 780C715 779 719 776 720 771C720 766 714 760 702 753C689 745 671 737 656 743C627 753 585 760 559 766C549 768 553 796 563 796Z"/></g>
<defs><clipPath id="z27211c1"><use href="#z27211d1"/></clipPath>
	<clipPath id="z27211c2"><use href="#z27211d2"/></clipPath>
	<clipPath id="z27211c3"><use href="#z27211d3"/></clipPath>
	<clipPath id="z27211c4"><use href="#z27211d4"/></clipPath>
	<clipPath id="z27211c5"><use href="#z27211d5"/></clipPath>
	<clipPath id="z27211c6"><use href="#z27211d6"/></clipPath>
	<clipPath id="z27211c7"><use href="#z27211d7"/></clipPath>
	<clipPath id="z27211c8"><use href="#z27211d8"/></clipPath>
	<clipPath id="z27211c9"><use href="#z27211d9"/></clipPath>
	<clipPath id="z27211c10"><use href="#z27211d10"/></clipPath>
	<clipPath id="z27211c11"><use href="#z27211d11"/></clipPath>
	<clipPath id="z27211c12"><use href="#z27211d12"/></clipPath>
	<clipPath id="z27211c13"><use href="#z27211d13"/></clipPath>
	<clipPath id="z27211c14"><use href="#z27211d14"/></clipPath>
	<clipPath id="z27211c15"><use href="#z27211d15"/></clipPath>
	<clipPath id="z27211c16"><use href="#z27211d16"/></clipPath><marker id="guide-arrow" viewBox="0 0 16 16" refX="5" refY="5" markerWidth="4" markerHeight="4" orient="auto-start-reverse"><path d="M 0 0 L 10 5 L 0 10 z" fill="inherit"/></marker></defs>
<g class="strokes"><path style="--part:1" pathLength="3333" clip-path="url(#z27211c1)" d="M107 351L395 309"/><path style="--part:1" pathLength="3333" clip-path="url(#z27211c2)" d="M232 58L297 122L260 919"/><path style="--part:1" pathLength="3333" clip-path="url(#z27211c3)" d="M276 332L200 515L47 711"/><path style="--part:1" pathLength="3333" clip-path="url(#z27211c4)" d="M307 414L381 457"/><path style="--part:2" pathLength="3333" clip-path="url(#z27211c5)" d="M655 48L701 92L471 197"/><path style="--part:2" pathLength="3333" clip-path="url(#z27211c6)" d="M442 274L831 228"/><path style="--part:2" pathLength="3333" clip-path="url(#z27211c7)" d="M554 171L588 205L533 342L457 459L375 529"/><path style="--part:2" pathLength="3333" clip-path="url(#z27211c8)" d="M649 269L818 418L988 451"/><path style="--part:2" pathLength="3333" clip-path="url(#z27211c9)" d="M522 406L549 547"/><path style="--part:2" pathLength="3333" clip-path="url(#z27211c10)" d="M529 415L662 396L690 423L660 489"/><path style="--part:2" pathLength="3333" clip-path="url(#z27211c11)" d="M550 514L708 506"/><path style="--part:2" pathLength="3333" clip-path="url(#z27211c12)" d="M383 591L415 632L411 852"/><path style="--part:2" pathLength="3333" clip-path="url(#z27211c13)" d="M431 611L766 565L830 579L832 847L804 886L722 837"/><path style="--part:2" pathLength="3333" clip-path="url(#z27211c14)" d="M498 669L524 689L557 808"/><path style="--part:2" pathLength="3333" clip-path="url(#z27211c15)" d="M539 683L677 662L704 692L677 757"/><path style="--part:2" pathLength="3333" clip-path="url(#z27211c16)" d="M556 779L713 770"/></g>
<g class="guides"><text class="g1" style="--gs:1" x="107" y="351">①</text><path class="g1 aligned" style="--gs:1" d="M107,351 L395,309"/><path class="g1 offset" style="--gs:1" d="M107,447 L395,405"/><text class="g2" style="--gs:2" x="232" y="58">②</text><path class="g2 aligned" style="--gs:2" d="M232,58 Q297,122 292.38,221.63 Q264.63,819.38 260,919"/><path class="g2 offset" style="--gs:2" d="M136,58 Q201,122 196.38,221.63 Q168.63,819.38 164,919"/><text class="g3" style="--gs:3" x="276" y="332">③</text><path class="g3 aligned" style="--gs:3" d="M276,332 Q200,515 180.88,539.5 Q66.13,686.5 47,711"/><path class="g3 offset" style="--gs:3" d="M180,332 Q142,468.65 132.44,486.94 Q75.06,596.71 65.5,615"/><text class="g4" style="--gs:4" x="307" y="414">④</text><path class="g4 aligned" style="--gs:4" d="M307,414 L381,457"/><path class="g4 offset" style="--gs:4" d="M392.68,345.46 L466.68,388.46"/><text class="g5" style="--gs:5" x="655" y="48">⑤</text><path class="g5 aligned" style="--gs:5" d="M655,48 Q701,92 672.25,105.13 Q499.75,183.88 471,197"/><path class="g5 offset" style="--gs:5" d="M559,48 Q585.8,70 569.05,76.56 Q468.55,115.94 451.8,122.5"/><text class="g6" style="--gs:6" x="442" y="274">⑥</text><path class="g6 aligned" style="--gs:6" d="M442,274 L831,228"/><path class="g6 offset" style="--gs:6" d="M442,370 L831,324"/><text class="g7" style="--gs:7" x="554" y="171">⑦</text><path class="g7 aligned" style="--gs:7" d="M554,171 Q588,205 560.5,273.5 Q533,342 495,400.5 Q457,459 416,494 Q416,494 375,529"/><path class="g7 offset" style="--gs:7" d="M458,171 Q476.68,195.88 461.57,246.01 Q446.46,296.15 425.59,338.96 Q404.72,381.77 382.2,407.39 Q382.2,407.39 359.68,433"/><text class="g8" style="--gs:8" x="649" y="269">⑧</text><path class="g8 aligned" style="--gs:8" d="M649,269 Q818,418 839.25,422.13 Q966.75,446.88 988,451"/><path class="g8 offset" style="--gs:8" d="M734.68,200.46 Q860.97,326.98 876.85,330.48 Q972.12,351.5 988,355"/><text class="g9" style="--gs:9" x="522" y="406">⑨</text><path class="g9 aligned" style="--gs:9" d="M522,406 L549,547"/><path class="g9 offset" style="--gs:9" d="M642,406 L669,547"/><text class="g10" style="--gs:10" x="529" y="415">⑩</text><path class="g10 aligned" style="--gs:10" d="M529,415 Q662,396 669,402.75 Q690,423 682.5,439.5 Q667.5,472.5 660,489"/><path class="g10 offset" style="--gs:10" d="M529,511 Q595.5,492 599,495.38 Q609.5,505.5 605.75,513.75 Q598.25,530.25 594.5,538.5"/><text class="g11" style="--gs:11" x="550" y="514">⑪</text><path class="g11 aligned" style="--gs:11" d="M550,514 L708,506"/><path class="g11 offset" style="--gs:11" d="M550,610 L708,602"/><text class="g12" style="--gs:12" x="383" y="591">⑫</text><path class="g12 aligned" style="--gs:12" d="M383,591 Q415,632 414.5,659.5 Q411.5,824.5 411,852"/><path class="g12 offset" style="--gs:12" d="M287,591 Q319,632 318.5,659.5 Q315.5,824.5 315,852"/><text class="g13" style="--gs:13" x="431" y="611">⑬</text><path class="g13 aligned" style="--gs:13" d="M431,611 Q766,565 798,572 Q830,579 831,713 Q832,847 818,866.5 Q804,886 763,861.5 Q763,861.5 722,837"/><path class="g13 offset" style="--gs:13" d="M431,707 Q685.8,661 710.14,668 Q734.48,675 735.24,738.5 Q736,802 725.35,811.75 Q714.7,821.5 683.52,809.25 Q683.52,809.25 652.33,797"/><text class="g14" style="--gs:14" x="498" y="669">⑭</text><path class="g14 aligned" style="--gs:14" d="M511,679 L557,808"/><path class="g14 offset" style="--gs:14" d="M631,679 L677,808"/><text class="g15" style="--gs:15" x="539" y="683">⑮</text><path class="g15 aligned" style="--gs:15" d="M539,683 Q677,662 683.75,669.5 Q704,692 697.25,708.25 Q683.75,740.75 677,757"/><path class="g15 offset" style="--gs:15" d="M539,779 Q608,758 611.38,761.75 Q621.5,773 618.13,781.13 Q611.38,797.38 608,805.5"/><text class="g16" style="--gs:16" x="556" y="779">⑯</text><path class="g16 aligned" style="--gs:16" d="M556,779 L713,770"/><path class="g16 offset" style="--gs:16" d="M556,875 L713,866"/></g>
<g class="parts"><rect data-part="2" data-literal="喬" role="button" tabindex="0" aria-label="Part 喬" x="303" y="0" width="721" height="958"/><rect data-part="1" data-literal="木" data-radical="true" role="button" tabindex="0" aria-label="Part 木 (radical)" x="0" y="0" width="467" height="991"/></g>
</svg>
