<svg id="z27292" class="acjk" viewBox="0 0 1024 1024" xmlns="http://www.w3.org/2000/svg">
<style>

@keyframes zk {
	to {
		stroke-dashoffset:0;
	}
}
svg.acjk path[clip-path] {
	--t:0.8s;
	animation:zk var(--t) linear forwards var(--d);
	stroke-dasharray:3337;
	stroke-dashoffset:3339;
	stroke-width:128;
	stroke-linecap:round;
	fill:none;
	stroke:#000;
}
svg.acjk path[id] {fill:#ccc;}


    @keyframes guide-fade {
        0% { opacity: 0; }
        3% { opacity: 1; }
        95% { opacity: 1; }
        100% { opacity: 0; }
    }

    svg.acjk #guide-arrow {
        fill: #f77;
    }

    svg.acjk .guides {
        circle {
            fill: #0f6;
        }

        path {
            opacity: 0;
            animation: guide-fade var(--t) linear forwards var(--d);
            stroke-width: 16px;
            stroke-linecap: round;
            stroke: #f77;
            fill: none;
            marker-end: url(#guide-arrow);
        }

        circle,
        path {
            --t: 0.8s;
            opacity: 0;
            animation: guide-fade calc(var(--t) + 0.4s) ease-in-out forwards calc(var(--d) - 0.2s);
        }
    }
</style>
<path id="z27292d1" d="M298 405C345 392 369 382 373 379C377 374 379 367 376 363C371 355 358 350 339 347C325 344 312 344 299 350C274 361 274 361 261 366C189 396 128 402 87 411C64 415 59 426 78 434C136 457 189 434 242 420C279 410 279 410 298 405Z"/>
<path id="z27292d2" d="M295 529C295 490 297 449 298 405C299 368 299 368 299 350C300 270 302 202 321 150C327 131 324 118 306 105C294 97 282 89 266 79C250 69 236 67 223 77C219 79 218 86 224 97C244 131 258 165 259 202C259 251 263 307 261 366C258 457 258 457 256 503C252 607 248 688 242 750C239 776 231 814 223 843C215 867 219 899 236 942C259 1000 287 937 291 882C292 854 295 744 295 552C295 537 295 537 295 529Z"/>
<path id="z27292d3" d="M242 420C209 514 139 628 38 768C33 773 36 777 44 778C47 778 52 776 58 771C140 694 207 605 257 503C287 428 272 345 242 420Z"/>
<path id="z27292d4" d="M295 552C329 584 353 600 365 600C371 599 377 595 379 585C380 578 377 568 370 560C355 542 317 529 295 529C287 529 289 547 295 552Z"/>
<path id="z27292d5" d="M396 445C428 416 474 355 514 296C555 235 589 176 602 156C609 144 609 144 613 138C621 123 637 113 630 97C626 89 617 77 599 65C582 53 567 49 555 50C544 50 539 58 546 72C562 106 539 177 472 288C441 338 404 392 361 447C355 454 351 458 350 463C347 469 351 471 361 470C365 469 374 464 386 454C393 448 393 448 396 445Z"/>
<path id="z27292d6" d="M602 156C660 224 719 288 786 350C799 363 818 371 843 372C886 372 921 369 966 362C976 360 992 357 994 354C996 349 991 345 983 342C872 303 816 283 775 259C738 236 685 198 613 138C608 133 598 150 602 156Z"/>
<path id="z27292d7" d="M506 328C485 332 482 339 498 348C517 358 549 359 593 349C615 343 640 337 666 332C678 329 685 326 688 324C692 319 693 314 691 310C686 303 675 298 659 295C644 292 613 300 566 316C546 322 525 324 506 328Z"/>
<path id="z27292d8" d="M431 451Q422 447 400 445Q396 444 396 445C392 445 384 450 386 454Q386 458 391 465Q419 513 439 593Q443 617 459 632Q474 648 477 635Q478 628 478 619C477 604 477 604 476 597Q475 590 473 582Q454 509 447 480C445 469 441 455 431 451Z"/>
<path id="z27292d9" d="M718 584C726 598 735 608 745 614C751 618 758 615 768 603C776 592 789 556 808 497C813 478 823 462 838 449C845 441 846 434 840 426C831 415 814 402 790 387C781 381 753 387 704 397C602 416 532 430 431 451C420 453 438 486 447 480C461 472 501 461 567 449C588 445 588 445 598 443C687 425 739 413 758 427C764 431 766 438 764 448C749 513 737 551 727 559C721 566 713 577 718 584Z"/>
<path id="z27292d10" d="M609 571C617 458 636 470 598 443C589 438 565 439 567 449C569 455 572 498 576 578C576 589 609 582 609 571Z"/>
<path id="z27292d11" d="M486 507C507 541 523 558 531 560C536 560 543 558 546 551C547 546 546 538 544 529C541 520 534 515 524 509C508 499 498 493 492 491C487 489 485 490 485 496C484 498 483 502 486 507Z"/>
<path id="z27292d12" d="M665 483C658 497 647 514 631 536C628 538 627 542 631 544C633 545 637 544 641 542C672 519 694 502 711 494C717 490 720 487 719 483C716 476 711 469 703 463C694 455 685 452 676 452C670 451 667 456 668 464C668 470 667 476 665 483Z"/>
<path id="z27292d13" d="M478 619C496 621 644 594 718 584C727 583 735 564 727 559C707 542 636 565 609 571C587 576 587 576 576 578C541 585 508 589 476 597C469 598 471 619 478 619Z"/>
<path id="z27292d14" d="M499 690C490 681 484 676 467 670C462 667 456 666 450 670C446 671 447 676 450 683C465 738 463 817 459 865C457 880 448 894 462 922C466 930 471 936 477 944C482 949 487 951 493 944C498 936 500 927 501 918C501 910 503 902 503 894C501 857 503 837 503 809C503 794 503 794 503 786C503 763 503 718 503 718C503 709 507 696 499 690Z"/>
<path id="z27292d15" d="M671 905C673 923 679 946 691 968C708 1002 729 969 738 954C750 931 755 905 754 879C751 847 748 803 746 747C745 727 749 711 760 700C765 692 766 686 760 680C749 669 728 655 698 641C687 635 677 636 669 641C632 659 575 675 499 690C490 692 494 720 503 718C505 718 556 707 657 686C669 683 679 682 687 688C696 694 695 742 693 829C691 860 689 879 683 885C679 892 669 897 671 905Z"/>
<path id="z27292d16" d="M503 809C525 813 632 794 655 788C660 786 659 779 658 776C654 771 647 765 633 763C612 759 583 774 503 786C495 787 495 809 503 809Z"/>
<path id="z27292d17" d="M501 918C520 923 643 906 671 905C679 905 689 890 683 885C649 855 636 875 503 894C495 896 493 916 501 918Z"/>
<defs>
	<clipPath id="z27292c1"><use href="#z27292d1"/></clipPath>
	<clipPath id="z27292c2"><use href="#z27292d2"/></clipPath>
	<clipPath id="z27292c3"><use href="#z27292d3"/></clipPath>
	<clipPath id="z27292c4"><use href="#z27292d4"/></clipPath>
	<clipPath id="z27292c5"><use href="#z27292d5"/></clipPath>
	<clipPath id="z27292c6"><use href="#z27292d6"/></clipPath>
	<clipPath id="z27292c7"><use href="#z27292d7"/></clipPath>
	<clipPath id="z27292c8"><use href="#z27292d8"/></clipPath>
	<clipPath id="z27292c9"><use href="#z27292d9"/></clipPath>
	<clipPath id="z27292c10"><use href="#z27292d10"/></clipPath>
	<clipPath id="z27292c11"><use href="#z27292d11"/></clipPath>
	<clipPath id="z27292c12"><use href="#z27292d12"/></clipPath>
	<clipPath id="z27292c13"><use href="#z27292d13"/></clipPath>
	<clipPath id="z27292c14"><use href="#z27292d14"/></clipPath>
	<clipPath id="z27292c15"><use href="#z27292d15"/></clipPath>
	<clipPath id="z27292c16"><use href="#z27292d16"/></clipPath>
	<clipPath id="z27292c17"><use href="#z27292d17"/></clipPath>
<marker id="guide-arrow" viewBox="0 0 16 16" refX="5" refY="5" markerWidth="4" markerHeight="4" orient="auto-start-reverse"><path d="M 0 0 L 10 5 L 0 10 z" fill="inherit"/></marker></defs>
<path style="--d:1s;" pathLength="3333" clip-path="url(#z27292c1)" d="M73 424L371 368"/>
<path style="--d:2s;" pathLength="3333" clip-path="url(#z27292c2)" d="M226 83L286 140L257 961"/>
<path style="--d:3s;" pathLength="3333" clip-path="url(#z27292c3)" d="M263 398L188 582L42 770"/>
<path style="--d:4s;" pathLength="3333" clip-path="url(#z27292c4)" d="M298 537L371 592"/>
<path style="--d:5s;" pathLength="3333" clip-path="url(#z27292c5)" d="M549 60L591 102L562 171L453 351L356 462"/>
<path style="--d:6s;" pathLength="3333" clip-path="url(#z27292c6)" d="M610 147L815 323L986 350"/>
<path style="--d:7s;" pathLength="3333" clip-path="url(#z27292c7)" d="M494 337L685 311"/>
<path style="--d:8s;" pathLength="3333" clip-path="url(#z27292c8)" d="M392 453L424 479L470 635"/>
<path style="--d:9s;" pathLength="3333" clip-path="url(#z27292c9)" d="M432 462L777 410L804 439L728 598"/>
<path style="--d:10s;" pathLength="3333" clip-path="url(#z27292c10)" d="M575 449L596 486L587 579"/>
<path style="--d:11s;" pathLength="3333" clip-path="url(#z27292c11)" d="M490 496L538 552"/>
<path style="--d:12s;" pathLength="3333" clip-path="url(#z27292c12)" d="M677 460L685 496L637 537"/>
<path style="--d:13s;" pathLength="3333" clip-path="url(#z27292c13)" d="M480 609L726 569"/>
<path style="--d:14s;" pathLength="3333" clip-path="url(#z27292c14)" d="M456 676L481 713L484 940"/>
<path style="--d:15s;" pathLength="3333" clip-path="url(#z27292c15)" d="M500 705L681 660L721 685L722 868L699 975"/>
<path style="--d:16s;" pathLength="3333" clip-path="url(#z27292c16)" d="M506 798L654 777"/>
<path style="--d:17s;" pathLength="3333" clip-path="url(#z27292c17)" d="M498 907L681 890"/>
<g class="guides"><circle style="--d: 1s" class="g1" cx="73" cy="424" r="16"/><path style="--d: 1s;" class="g1" d="M73,520 L371,464"/><circle style="--d: 2s" class="g2" cx="226" cy="83" r="16"/><path style="--d: 2s;" class="g2" d="M130,83 Q190,140 186.375,242.625 Q164.625,858.375 161,961"/><circle style="--d: 3s" class="g3" cx="263" cy="398" r="16"/><path style="--d: 3s;" class="g3" d="M167,398 Q129.5,534.516129032258 120.375,551.9516129032259 Q65.625,656.5645161290322 56.5,674"/><circle style="--d: 4s" class="g4" cx="298" cy="537" r="16"/><path style="--d: 4s;" class="g4" d="M383.68,468.456 L456.68,523.456"/><circle style="--d: 5s" class="g5" cx="549" cy="60" r="16"/><path style="--d: 5s;" class="g5" d="M453,60 Q477.8425531914894,91.97014925373134 469.26595744680856,118.23134328358209 Q460.6893617021277,144.49253731343285 428.45319148936176,213 Q396.21702127659574,281.5074626865672 367.52978723404254,323.75373134328356 Q367.52978723404254,323.75373134328356 338.84255319148934,366"/><circle style="--d: 6s" class="g6" cx="610" cy="147" r="16"/><path style="--d: 6s;" class="g6" d="M695.68,78.456 Q853.9661702127659,230.65178325123156 870.4703989361701,233.57031034482762 Q969.4957712765957,251.08147290640395 986,254"/><circle style="--d: 7s" class="g7" cx="494" cy="337" r="16"/><path style="--d: 7s;" class="g7" d="M494,433 L685,407"/><circle style="--d: 8s" class="g8" cx="408" cy="466" r="16"/><path style="--d: 8s;" class="g8" d="M528,466 L590,635"/><circle style="--d: 9s" class="g9" cx="432" cy="462" r="16"/><path style="--d: 9s;" class="g9" d="M432,558 Q665.7096774193549,506 670.2822580645161,513.25 Q684,535 671.1290322580645,551.25 Q645.3870967741935,583.75 632.516129032258,600"/><circle style="--d: 10s" class="g10" cx="575" cy="449" r="16"/><path style="--d: 10s;" class="g10" d="M695,449 Q716,486 714.875,497.625 Q708.125,567.375 707,579"/><circle style="--d: 11s" class="g11" cx="490" cy="496" r="16"/><path style="--d: 11s;" class="g11" d="M575.68,427.456 L623.68,483.456"/><circle style="--d: 12s" class="g12" cx="681" cy="478" r="16"/><path style="--d: 12s;" class="g12" d="M766.68,546.544 L722.68,605.544"/><circle style="--d: 13s" class="g13" cx="480" cy="609" r="16"/><path style="--d: 13s;" class="g13" d="M480,705 L726,665"/><circle style="--d: 14s" class="g14" cx="456" cy="676" r="16"/><path style="--d: 14s;" class="g14" d="M541.68,607.456 Q566.68,644.456 567.055,672.831 Q569.305,843.081 569.68,871.456"/><circle style="--d: 15s" class="g15" cx="500" cy="705" r="16"/><path style="--d: 15s;" class="g15" d="M500,801 Q590.5,756 600.5,768.5 Q610.5,781 610.75,840.8047619047619 Q611,900.6095238095238 605.25,937.8047619047619 Q605.25,937.8047619047619 599.5,975"/><circle style="--d: 16s" class="g16" cx="506" cy="798" r="16"/><path style="--d: 16s;" class="g16" d="M506,894 L654,873"/><circle style="--d: 17s" class="g17" cx="498" cy="907" r="16"/><path style="--d: 17s;" class="g17" d="M498,1003 L681,986"/></g></svg>