<svg id="z27454" class="acjk" viewBox="0 0 1024 1024" xmlns="http://www.w3.org/2000/svg">
<style>

@keyframes zk {
	to {
		stroke-dashoffset:0;
	}
}
svg.acjk path[clip-path] {
	--t:0.8s;
	animation:zk var(--t) linear forwards var(--d);
	stroke-dasharray:3337;
	stroke-dashoffset:3339;
	stroke-width:128;
	stroke-linecap:round;
	fill:none;
	stroke:#000;
}
svg.acjk path[id] {fill:#ccc;}


    @keyframes guide-fade {
        0% { opacity: 0; }
        3% { opacity: 1; }
        95% { opacity: 1; }
        100% { opacity: 0; }
    }

    svg.acjk #guide-arrow {
        fill: #f77;
    }

    svg.acjk .guides {
        circle {
            fill: #0f6;
        }

        path {
            opacity: 0;
            animation: guide-fade var(--t) linear forwards var(--d);
            stroke-width: 16px;
            stroke-linecap: round;
            stroke: #f77;
            fill: none;
            marker-end: url(#guide-arrow);
        }

        circle,
        path {
            --t: 0.8s;
            opacity: 0;
            animation: guide-fade calc(var(--t) + 0.4s) ease-in-out forwards calc(var(--d) - 0.2s);
        }
    }
</style>
<path id="z27454d1" d="M392 261C479 243 521 227 523 227C529 222 530 216 527 211C522 204 510 197 492 193C474 188 442 196 397 210C363 220 363 220 346 225C315 234 234 245 185 252C162 255 157 265 175 274C220 296 256 288 347 270C377 264 377 264 392 261Z"/>
<path id="z27454d2" d="M386 328C388 305 389 283 392 261C395 227 395 227 397 210C399 184 401 160 407 141C412 120 412 104 399 97C379 84 361 79 347 76C338 73 331 75 326 81C321 85 320 91 326 100C336 115 341 127 343 138C346 160 345 206 346 225C347 255 347 255 347 270C347 292 346 316 346 341C346 355 386 342 386 328Z"/>
<path id="z27454d3" d="M346 341C323 348 259 360 230 366C213 369 211 375 225 385C246 399 265 402 282 398C355 377 418 362 470 355C476 354 484 352 487 344C489 337 479 331 466 325C445 315 419 317 386 328C359 337 359 337 346 341Z"/>
<path id="z27454d4" d="M240 458C217 461 213 470 230 479C251 490 287 492 336 483C369 476 403 468 439 461C457 457 468 452 471 450C476 445 478 440 475 435C470 428 459 421 441 418C423 414 405 418 387 425C366 432 323 445 240 458Z"/>
<path id="z27454d5" d="M366 584C407 574 455 566 509 559C519 557 525 555 526 550C526 542 521 535 510 530C493 522 477 520 463 524C301 562 178 585 96 595C88 595 83 598 82 604C79 610 83 617 93 625C117 642 142 647 169 638C263 605 319 594 334 591C355 586 355 586 366 584Z"/>
<path id="z27454d6" d="M395 650C397 627 391 604 366 584C358 576 328 582 334 591C346 611 346 658 345 724C344 764 341 790 338 801C335 808 327 812 312 809C291 804 271 798 251 794C244 792 240 796 239 800C238 802 240 807 247 813C289 846 316 873 333 892C342 902 352 904 359 902C365 899 371 887 380 869C389 848 393 820 393 784C391 733 390 695 393 671C394 657 394 657 395 650Z"/>
<path id="z27454d7" d="M213 678C195 709 176 739 154 767C138 785 137 804 147 827C151 838 158 842 172 835C206 815 224 780 231 733C234 712 238 695 234 680C232 674 228 671 225 671C220 670 215 673 213 678Z"/>
<path id="z27454d8" d="M393 671C413 689 475 732 480 733C484 733 488 729 490 723C492 717 490 707 486 695C482 684 473 674 456 667C439 659 419 653 395 650C388 649 387 667 393 671Z"/>
<path id="z27454d9" d="M604 366C639 302 661 258 677 226C689 200 698 179 709 165C713 158 714 150 710 142C706 135 695 124 675 114C656 104 641 101 630 103C619 105 616 114 624 127C633 142 636 156 633 172C612 254 569 354 502 471C497 478 493 482 493 487C491 493 496 496 504 494C520 488 565 437 593 386C600 373 600 373 604 366Z"/>
<path id="z27454d10" d="M593 386C607 400 627 402 654 392C723 363 765 347 781 355C790 359 792 368 790 375C789 375 783 396 767 436C763 443 762 447 765 451C768 454 771 451 780 445C835 404 877 381 903 373C908 371 912 369 913 364C913 355 903 346 884 336C869 327 854 318 839 310C820 299 806 298 797 303C749 326 684 346 604 366C596 367 587 381 593 386Z"/>
<path id="z27454d11" d="M657 580C663 542 670 515 678 500C683 489 680 481 671 475C640 453 618 445 602 452C593 455 591 460 596 470C614 504 614 564 591 647C571 717 530 771 471 812C462 818 453 826 443 834C435 840 434 844 443 845C479 846 516 822 559 783C605 739 638 684 651 613C655 591 655 591 657 580Z"/>
<path id="z27454d12" d="M651 613C691 683 738 756 793 832C802 845 818 852 837 853C901 855 944 855 965 853C971 852 975 850 976 847C976 844 973 839 965 835C873 789 803 742 756 692C724 658 691 622 657 580C649 572 646 603 651 613Z"/>
<defs>
	<clipPath id="z27454c1"><use href="#z27454d1"/></clipPath>
	<clipPath id="z27454c2"><use href="#z27454d2"/></clipPath>
	<clipPath id="z27454c3"><use href="#z27454d3"/></clipPath>
	<clipPath id="z27454c4"><use href="#z27454d4"/></clipPath>
	<clipPath id="z27454c5"><use href="#z27454d5"/></clipPath>
	<clipPath id="z27454c6"><use href="#z27454d6"/></clipPath>
	<clipPath id="z27454c7"><use href="#z27454d7"/></clipPath>
	<clipPath id="z27454c8"><use href="#z27454d8"/></clipPath>
	<clipPath id="z27454c9"><use href="#z27454d9"/></clipPath>
	<clipPath id="z27454c10"><use href="#z27454d10"/></clipPath>
	<clipPath id="z27454c11"><use href="#z27454d11"/></clipPath>
	<clipPath id="z27454c12"><use href="#z27454d12"/></clipPath>
<marker id="guide-arrow" viewBox="0 0 16 16" refX="5" refY="5" markerWidth="4" markerHeight="4" orient="auto-start-reverse"><path d="M 0 0 L 10 5 L 0 10 z" fill="inherit"/></marker></defs>
<path style="--d:1s;" pathLength="3333" clip-path="url(#z27454c1)" d="M175 262L525 218"/>
<path style="--d:2s;" pathLength="3333" clip-path="url(#z27454c2)" d="M331 87L375 122L356 333"/>
<path style="--d:3s;" pathLength="3333" clip-path="url(#z27454c3)" d="M222 373L480 339"/>
<path style="--d:4s;" pathLength="3333" clip-path="url(#z27454c4)" d="M228 467L471 440"/>
<path style="--d:5s;" pathLength="3333" clip-path="url(#z27454c5)" d="M88 607L151 615L519 544"/>
<path style="--d:6s;" pathLength="3333" clip-path="url(#z27454c6)" d="M341 595L369 631L356 838L335 856L244 803"/>
<path style="--d:7s;" pathLength="3333" clip-path="url(#z27454c7)" d="M224 678L157 833"/>
<path style="--d:8s;" pathLength="3333" clip-path="url(#z27454c8)" d="M400 659L484 726"/>
<path style="--d:9s;" pathLength="3333" clip-path="url(#z27454c9)" d="M627 110L673 162L589 351L501 487"/>
<path style="--d:10s;" pathLength="3333" clip-path="url(#z27454c10)" d="M597 381L801 329L857 378L770 444"/>
<path style="--d:11s;" pathLength="3333" clip-path="url(#z27454c11)" d="M601 458L643 504L599 695L531 785L444 838"/>
<path style="--d:12s;" pathLength="3333" clip-path="url(#z27454c12)" d="M658 592L828 807L966 845"/>
<g class="guides"><circle style="--d: 1s" class="g1" cx="175" cy="262" r="16"/><path style="--d: 1s;" class="g1" d="M175,358 L525,314"/><circle style="--d: 2s" class="g2" cx="331" cy="87" r="16"/><path style="--d: 2s;" class="g2" d="M235,87 Q279,122 276.625,148.375 Q262.375,306.625 260,333"/><circle style="--d: 3s" class="g3" cx="222" cy="373" r="16"/><path style="--d: 3s;" class="g3" d="M222,469 L480,435"/><circle style="--d: 4s" class="g4" cx="228" cy="467" r="16"/><path style="--d: 4s;" class="g4" d="M228,563 L471,536"/><circle style="--d: 5s" class="g5" cx="88" cy="607" r="16"/><path style="--d: 5s;" class="g5" d="M88,703 Q151,711 197,702.125 Q473,648.875 519,640"/><circle style="--d: 6s" class="g6" cx="341" cy="595" r="16"/><path style="--d: 6s;" class="g6" d="M245,595 Q259,617.7586206896551 255.75,683.1896551724137 Q252.5,748.6206896551724 247.25,754.3103448275863 Q242,760 219.25,743.2471264367816 Q219.25,743.2471264367816 196.5,726.4942528735633"/><circle style="--d: 7s" class="g7" cx="224" cy="678" r="16"/><path style="--d: 7s;" class="g7" d="M344,678 L277,833"/><circle style="--d: 8s" class="g8" cx="400" cy="659" r="16"/><path style="--d: 8s;" class="g8" d="M485.68,590.456 L569.68,657.456"/><circle style="--d: 9s" class="g9" cx="627" cy="110" r="16"/><path style="--d: 9s;" class="g9" d="M531,110 Q554,148.75862068965517 543.5,183.97679045092838 Q512,289.63129973474804 501,314.973474801061 Q479,365.65782493368704 468,391"/><circle style="--d: 10s" class="g10" cx="597" cy="381" r="16"/><path style="--d: 10s;" class="g10" d="M597,477 Q699,425 706,437.25 Q727,474 716.125,490.5 Q694.375,523.5 683.5,540"/><circle style="--d: 11s" class="g11" cx="601" cy="458" r="16"/><path style="--d: 11s;" class="g11" d="M505,458 Q526.7386934673367,492.37894736842105 515.3517587939698,563.7526315789473 Q503.964824120603,635.1263157894737 486.36683417085425,668.7578947368421 Q468.7688442211055,702.3894736842105 446.2537688442211,722.1947368421053 Q446.2537688442211,722.1947368421053 423.7386934673367,742"/><circle style="--d: 12s" class="g12" cx="658" cy="592" r="16"/><path style="--d: 12s;" class="g12" d="M743.68,523.456 Q866.3890909090909,715.1238260869566 878.8404545454546,719.358347826087 Q953.5486363636363,744.7654782608696 966,749"/></g></svg>