<svg id="z27475" class="acjk" viewBox="0 0 1024 1024" xmlns="http://www.w3.org/2000/svg">
<style>

@keyframes zk {
	to {
		stroke-dashoffset:0;
	}
}
svg.acjk path[clip-path] {
	--t:0.8s;
	animation:zk var(--t) linear forwards var(--d);
	stroke-dasharray:3337;
	stroke-dashoffset:3339;
	stroke-width:128;
	stroke-linecap:round;
	fill:none;
	stroke:#000;
}
svg.acjk path[id] {fill:#ccc;}


    @keyframes guide-fade {
        0% { opacity: 0; }
        3% { opacity: 1; }
        95% { opacity: 1; }
        100% { opacity: 0; }
    }

    svg.acjk #guide-arrow {
        fill: #f77;
    }

    svg.acjk .guides {
        circle {
            fill: #0f6;
        }

        path {
            opacity: 0;
            animation: guide-fade var(--t) linear forwards var(--d);
            stroke-width: 16px;
            stroke-linecap: round;
            stroke: #f77;
            fill: none;
            marker-end: url(#guide-arrow);
        }

        circle,
        path {
            --t: 0.8s;
            opacity: 0;
            animation: guide-fade calc(var(--t) + 0.4s) ease-in-out forwards calc(var(--d) - 0.2s);
        }
    }
</style>
<path id="z27475d1" d="M255 247C272 225 288 198 305 168C315 149 324 134 334 124C339 118 340 111 337 103C334 95 324 84 306 73C289 62 275 57 265 59C253 60 250 68 257 81C267 101 255 151 215 229C197 264 174 301 147 339C142 345 138 350 137 355C135 361 138 364 147 362C165 357 193 325 237 270C249 255 249 255 255 247Z"/>
<path id="z27475d2" d="M237 270C247 274 259 280 275 282C288 283 304 281 323 277C356 268 356 268 373 264C464 240 531 227 538 222C543 216 543 211 540 206C533 198 522 191 504 189C484 185 465 191 447 199C421 210 308 241 255 247C245 249 228 266 237 270Z"/>
<path id="z27475d3" d="M324 400C410 388 462 379 510 373C550 367 573 360 580 355C584 350 587 346 585 342C581 335 570 329 553 325C534 320 516 321 498 327C455 339 400 349 354 357C315 363 315 363 295 366C249 373 181 378 129 382C107 383 102 390 119 400C143 415 170 422 205 417C221 414 249 409 269 407C306 402 306 402 324 400Z"/>
<path id="z27475d4" d="M72 661C67 661 65 659 68 654C70 650 75 645 81 639C164 548 219 485 269 407C286 380 286 380 295 366C313 337 327 294 323 277C320 261 357 255 371 264C384 272 392 283 395 299C396 307 393 316 387 322C380 327 367 338 354 357C334 386 334 386 324 400C303 429 257 486 224 525C205 547 205 547 196 558C152 608 101 653 76 661C25 676 73 661 72 661Z"/>
<path id="z27475d5" d="M223 942C219 942 215 941 211 937C210 936 226 958 208 934C185 903 178 874 187 845C202 787 209 730 211 673C211 631 205 595 196 558C193 544 214 515 224 525C256 551 267 584 262 602C257 620 257 662 254 727C253 734 251 809 251 846C251 876 246 902 238 926C233 937 229 942 223 942Z"/>
<path id="z27475d6" d="M430 472C430 466 429 457 426 445C422 433 404 424 365 415C359 413 352 412 348 414C346 416 345 420 346 424C348 429 354 435 365 442C377 451 393 462 411 478C416 483 430 479 430 472Z"/>
<path id="z27475d7" d="M438 507C506 492 545 482 547 481C550 476 552 473 550 469C547 463 538 458 523 455C511 452 478 456 430 472C417 476 417 476 411 478C388 485 351 489 326 492C306 494 304 500 318 509C334 518 365 522 395 516C424 510 424 510 438 507Z"/>
<path id="z27475d8" d="M399 765C399 741 400 718 400 700C400 677 400 677 400 666C400 638 401 620 401 603C401 580 401 580 401 569C401 543 400 528 395 516C390 502 428 497 438 507C461 527 455 539 454 555C452 580 452 580 451 592C449 614 447 633 446 655C445 680 445 680 444 693C443 706 441 728 439 755C439 769 399 779 399 765Z"/>
<path id="z27475d9" d="M451 592C467 588 491 584 510 581C526 577 536 574 539 572C543 568 544 563 542 560C539 555 531 550 517 547C495 542 471 550 454 555C419 564 419 564 401 569C380 574 350 575 329 578C311 580 311 584 322 594C339 609 359 612 401 603C434 596 434 596 451 592Z"/>
<path id="z27475d10" d="M444 691C464 686 492 682 515 678C533 674 544 670 547 668C551 664 552 659 550 656C547 651 539 644 525 641C509 636 479 647 446 655C415 662 415 662 400 666C377 671 345 672 321 676C303 678 301 686 314 694C331 704 365 707 400 700C429 694 429 694 444 691Z"/>
<path id="z27475d11" d="M399 765C362 774 304 779 262 791C255 792 252 803 261 810C276 822 290 823 306 818C369 797 447 789 540 789C550 789 557 786 559 781C561 775 557 768 549 763C512 737 476 745 439 755C412 762 412 762 399 765Z"/>
<path id="z27475d12" d="M658 354C677 313 699 265 718 209C726 182 735 162 743 148C747 139 746 131 742 124C737 117 724 107 703 99C683 91 667 88 656 92C644 95 643 105 652 117C680 154 656 264 576 447C574 450 573 453 571 458C567 466 564 472 564 476C563 482 567 484 576 481C590 475 615 442 646 379C654 362 654 362 658 354Z"/>
<path id="z27475d13" d="M646 379C658 389 677 388 704 378C748 360 777 347 787 353C798 360 795 371 792 379C790 382 784 410 762 459C758 466 757 471 761 475C763 477 767 474 776 467C833 415 876 382 904 369C910 365 913 363 913 358C912 349 903 341 885 333C837 309 806 304 787 314C754 329 710 340 658 354C649 356 639 373 646 379Z"/>
<path id="z27475d14" d="M699 604C710 554 716 508 724 495C730 483 725 477 717 468C711 461 702 455 694 448C679 436 665 435 652 440C643 442 640 449 645 459C662 491 658 579 632 662C606 739 569 804 503 846C491 852 478 860 468 868C459 875 459 879 467 880C475 881 492 877 516 868C542 858 567 843 589 823C625 787 675 703 691 638C696 615 696 615 699 604Z"/>
<path id="z27475d15" d="M873 908C859 908 849 901 841 892C797 837 781 783 691 638C684 629 692 595 699 604C710 618 749 662 767 682C827 745 888 837 978 881C983 883 983 887 982 890C974 897 945 904 873 908Z"/>
<defs>
	<clipPath id="z27475c1"><use href="#z27475d1"/></clipPath>
	<clipPath id="z27475c2"><use href="#z27475d2"/></clipPath>
	<clipPath id="z27475c3"><use href="#z27475d3"/></clipPath>
	<clipPath id="z27475c4"><use href="#z27475d4"/></clipPath>
	<clipPath id="z27475c5"><use href="#z27475d5"/></clipPath>
	<clipPath id="z27475c6"><use href="#z27475d6"/></clipPath>
	<clipPath id="z27475c7"><use href="#z27475d7"/></clipPath>
	<clipPath id="z27475c8"><use href="#z27475d8"/></clipPath>
	<clipPath id="z27475c9"><use href="#z27475d9"/></clipPath>
	<clipPath id="z27475c10"><use href="#z27475d10"/></clipPath>
	<clipPath id="z27475c11"><use href="#z27475d11"/></clipPath>
	<clipPath id="z27475c12"><use href="#z27475d12"/></clipPath>
	<clipPath id="z27475c13"><use href="#z27475d13"/></clipPath>
	<clipPath id="z27475c14"><use href="#z27475d14"/></clipPath>
	<clipPath id="z27475c15"><use href="#z27475d15"/></clipPath>
<marker id="guide-arrow" viewBox="0 0 16 16" refX="5" refY="5" markerWidth="4" markerHeight="4" orient="auto-start-reverse"><path d="M 0 0 L 10 5 L 0 10 z" fill="inherit"/></marker></defs>
<path style="--d:1s;" pathLength="3333" clip-path="url(#z27475c1)" d="M261 63L298 115L143 356"/>
<path style="--d:2s;" pathLength="3333" clip-path="url(#z27475c2)" d="M245 267L537 209"/>
<path style="--d:3s;" pathLength="3333" clip-path="url(#z27475c3)" d="M116 390L579 342"/>
<path style="--d:4s;" pathLength="3333" clip-path="url(#z27475c4)" d="M327 272L357 307L317 373L76 651"/>
<path style="--d:5s;" pathLength="3333" clip-path="url(#z27475c5)" d="M219 530L235 611L215 936"/>
<path style="--d:6s;" pathLength="3333" clip-path="url(#z27475c6)" d="M354 421L421 473"/>
<path style="--d:7s;" pathLength="3333" clip-path="url(#z27475c7)" d="M319 500L542 473"/>
<path style="--d:8s;" pathLength="3333" clip-path="url(#z27475c8)" d="M401 521L428 550L415 761"/>
<path style="--d:9s;" pathLength="3333" clip-path="url(#z27475c9)" d="M321 585L536 563"/>
<path style="--d:10s;" pathLength="3333" clip-path="url(#z27475c10)" d="M313 684L544 657"/>
<path style="--d:11s;" pathLength="3333" clip-path="url(#z27475c11)" d="M264 799L474 768L554 776"/>
<path style="--d:12s;" pathLength="3333" clip-path="url(#z27475c12)" d="M655 102L704 150L650 321L571 476"/>
<path style="--d:13s;" pathLength="3333" clip-path="url(#z27475c13)" d="M650 374L781 334L831 346L858 368L765 467"/>
<path style="--d:14s;" pathLength="3333" clip-path="url(#z27475c14)" d="M651 449L690 486L652 680L579 804L471 875"/>
<path style="--d:15s;" pathLength="3333" clip-path="url(#z27475c15)" d="M701 611L872 862L974 886"/>
<g class="guides"><circle style="--d: 1s" class="g1" cx="261" cy="63" r="16"/><path style="--d: 1s;" class="g1" d="M165,63 Q183.5,97.96245733788396 173.8125,118.21715017064847 Q115.6875,239.7453071672355 106,260"/><circle style="--d: 2s" class="g2" cx="245" cy="267" r="16"/><path style="--d: 2s;" class="g2" d="M245,363 L537,305"/><circle style="--d: 3s" class="g3" cx="116" cy="390" r="16"/><path style="--d: 3s;" class="g3" d="M116,486 L579,438"/><circle style="--d: 4s" class="g4" cx="327" cy="272" r="16"/><path style="--d: 4s;" class="g4" d="M231,272 Q250.75088967971533,298.1345646437995 244.1672597864769,310.4551451187335 Q224.41637010676158,347.4168865435356 184.75,399.3126649076517 Q105.41725978647688,503.1042216358839 65.7508896797153,555"/><circle style="--d: 5s" class="g5" cx="219" cy="530" r="16"/><path style="--d: 5s;" class="g5" d="M339,530 Q355,611 352.5,651.625 Q337.5,895.375 335,936"/><circle style="--d: 6s" class="g6" cx="354" cy="421" r="16"/><path style="--d: 6s;" class="g6" d="M439.68,352.456 L506.68,404.456"/><circle style="--d: 7s" class="g7" cx="319" cy="500" r="16"/><path style="--d: 7s;" class="g7" d="M319,596 L542,569"/><circle style="--d: 8s" class="g8" cx="415" cy="536" r="16"/><path style="--d: 8s;" class="g8" d="M535,536 L535,761"/><circle style="--d: 9s" class="g9" cx="321" cy="585" r="16"/><path style="--d: 9s;" class="g9" d="M321,681 L536,659"/><circle style="--d: 10s" class="g10" cx="313" cy="684" r="16"/><path style="--d: 10s;" class="g10" d="M313,780 L544,753"/><circle style="--d: 11s" class="g11" cx="264" cy="799" r="16"/><path style="--d: 11s;" class="g11" d="M264,895 Q474,864 484,865 Q544,871 554,872"/><circle style="--d: 12s" class="g12" cx="655" cy="102" r="16"/><path style="--d: 12s;" class="g12" d="M559,102 Q608,150 594.5,192.75 Q554,321 534.25,359.75 Q494.75,437.25 475,476"/><circle style="--d: 13s" class="g13" cx="650" cy="374" r="16"/><path style="--d: 13s;" class="g13" d="M650,470 Q720.5384615384615,430 734,436 Q747.4615384615385,442 754.7307692307693,453 Q762,464 736.9615384615385,513.5 Q736.9615384615385,513.5 711.9230769230769,563"/><circle style="--d: 14s" class="g14" cx="651" cy="449" r="16"/><path style="--d: 14s;" class="g14" d="M555,449 Q576.9041095890411,477.6619718309859 566.2328767123288,552.8028169014085 Q555.5616438356165,627.943661971831 535.0616438356165,675.9718309859155 Q514.5616438356165,724 484.2328767123288,751.5 Q484.2328767123288,751.5 453.9041095890411,779"/><circle style="--d: 15s" class="g15" cx="701" cy="611" r="16"/><path style="--d: 15s;" class="g15" d="M786.68,542.456 Q904.0123076923077,768.39616 912.7607692307693,771.09664 Q965.2515384615384,787.29952 974,790"/></g></svg>