<!--
  Stroke-order data for 歹, derived from AnimCJK (https://github.com/parsimonhi/animCJK),
  itself derived from the Arphic PL KaitiM fonts. Distributed under the Arphic Public License
  (see ARPHICPL.TXT). Regenerated by scripts/build-strokes.ts — do not edit by hand.
-->
<svg id="z27513" class="acjk" viewBox="0 0 1024 1024" xmlns="http://www.w3.org/2000/svg">
<g class="glyph"><path id="z27513d1" d="M497 194C680 171 759 170 851 180C865 181 875 180 879 174C884 165 882 157 874 150C828 109 788 102 749 112C726 117 625 132 333 170C294 175 245 180 186 182C177 182 171 185 171 193C170 201 177 209 189 218C199 225 215 233 235 241C241 243 250 241 263 237C305 222 367 210 449 200C481 196 481 196 497 194Z"/><path id="z27513d2" d="M446 389C465 363 480 338 494 316C508 291 521 273 530 262C535 254 534 244 529 234C518 215 507 202 497 194C484 184 446 184 449 200C461 248 427 326 349 434C315 480 276 525 231 570C226 574 223 578 223 583C222 587 225 588 230 588C268 582 378 479 428 413C440 397 440 397 446 389Z"/><path id="z27513d3" d="M618 476C571 643 457 790 264 906C249 914 240 918 242 924C242 928 246 930 252 929C338 911 487 830 578 692C615 634 653 561 694 472C704 448 722 430 743 417C754 409 760 403 760 396C759 385 747 374 725 362C696 345 676 336 665 336C656 336 649 343 639 347C569 372 488 385 446 389C436 391 419 408 428 413C458 433 512 429 591 402C609 395 623 394 632 399C638 402 631 428 618 476Z"/><path id="z27513d4" d="M393 545C408 564 422 586 438 610C444 620 453 627 465 629C473 630 480 626 485 619C490 609 495 592 490 572C482 544 457 523 399 495C388 489 380 487 376 489C371 490 369 496 369 505C369 513 378 526 393 545Z"/></g>
<defs><clipPath id="z27513c1"><use href="#z27513d1"/></clipPath>
	<clipPath id="z27513c2"><use href="#z27513d2"/></clipPath>
	<clipPath id="z27513c3"><use href="#z27513d3"/></clipPath>
	<clipPath id="z27513c4"><use href="#z27513d4"/></clipPath><marker id="guide-arrow" viewBox="0 0 16 16" refX="5" refY="5" markerWidth="4" markerHeight="4" orient="auto-start-reverse"><path d="M 0 0 L 10 5 L 0 10 z" fill="inherit"/></marker></defs>
<g class="strokes"><path pathLength="3333" clip-path="url(#z27513c1)" d="M176 194L246 210L774 141L877 159"/><path pathLength="3333" clip-path="url(#z27513c2)" d="M456 205L490 254L449 331L348 473L232 578"/><path pathLength="3333" clip-path="url(#z27513c3)" d="M434 410L653 370L707 411L507 739L379 856L247 921"/><path pathLength="3333" clip-path="url(#z27513c4)" d="M378 498L453 571L476 624"/></g>
<g class="guides"><text class="g1" style="--gs:1" x="176" y="194">①</text><path class="g1 aligned" style="--gs:1" d="M176,194 Q246,210 378,192.75 Q774,141 799.75,145.5 Q851.25,154.5 877,159"/><path class="g1 offset" style="--gs:1" d="M176,290 Q246,306 378,288.75 Q774,237 799.75,241.5 Q851.25,250.5 877,255"/><text class="g2" style="--gs:2" x="456" y="205">②</text><path class="g2 aligned" style="--gs:2" d="M456,205 Q490,254 469.5,292.5 Q449,331 398.5,402 Q348,473 290,525.5 Q290,525.5 232,578"/><path class="g2 offset" style="--gs:2" d="M360,205 Q381.35,241.39 368.48,269.98 Q355.6,298.57 323.9,351.3 Q292.19,404.02 255.77,443.01 Q255.77,443.01 219.35,482"/><text class="g3" style="--gs:3" x="434" y="410">③</text><path class="g3 aligned" style="--gs:3" d="M434,410 Q653,370 680,390.5 Q707,411 607,575 Q507,739 443,797.5 Q379,856 313,888.5 Q313,888.5 247,921"/><path class="g3 offset" style="--gs:3" d="M338,506 Q511.3,479.94 532.66,493.29 Q554.03,506.65 474.9,613.5 Q395.77,720.36 345.12,758.47 Q294.48,796.59 242.25,817.76 Q242.25,817.76 190.03,838.94"/><text class="g4" style="--gs:4" x="378" y="498">④</text><path class="g4 aligned" style="--gs:4" d="M378,498 Q453,571 455.88,577.63 Q473.13,617.38 476,624"/><path class="g4 offset" style="--gs:4" d="M463.68,429.46 Q538.68,502.46 541.55,509.08 Q558.8,548.83 561.68,555.46"/></g>
</svg>
