<!--
  Stroke-order data for 段, derived from AnimCJK (https://github.com/parsimonhi/animCJK),
  itself derived from the Arphic PL KaitiM fonts. Distributed under the Arphic Public License
  (see ARPHICPL.TXT). Regenerated by scripts/build-strokes.ts — do not edit by hand.
-->
<svg id="z27573" class="acjk" viewBox="0 0 1024 1024" xmlns="http://www.w3.org/2000/svg">
<g class="glyph"><path style="--part:1" id="z27573d1" d="M273 236C342 194 408 154 433 142C447 135 451 125 445 113C436 100 423 88 405 78C389 68 376 63 367 65C358 65 355 71 358 81C342 141 298 174 261 218C257 224 267 240 273 236Z"/><path style="--part:1" id="z27573d2" d="M269 612C269 572 268 532 268 492C268 471 268 471 268 460C268 417 266 380 268 349C269 330 269 330 269 320C269 292 271 255 273 236C274 229 267 223 261 218C245 204 221 193 205 189C198 187 192 189 188 196C185 199 189 204 193 214C228 304 232 537 224 626C221 661 221 661 219 678C215 716 205 755 194 795C183 832 190 866 215 895C223 905 233 906 238 895C273 802 269 735 269 656C269 656 269 626 269 612Z"/><path style="--part:1" id="z27573d3" d="M268 349C290 351 322 348 365 338C415 326 431 323 445 314C467 298 441 282 413 284C370 285 321 309 269 320C259 322 258 349 268 349Z"/><path style="--part:1" id="z27573d4" d="M268 492C292 492 349 481 406 469C415 466 434 464 440 458C456 438 429 427 409 427C378 426 318 446 268 460C258 462 257 492 268 492Z"/><path style="--part:1" id="z27573d5" d="M269 656C364 614 409 592 445 573C474 556 465 544 440 553C385 571 329 593 269 612C239 621 239 621 224 626C162 644 111 665 54 667C45 667 39 671 38 680C36 688 39 696 46 702C61 713 80 725 104 737C110 740 118 737 127 731C155 710 186 692 219 678C252 663 252 663 269 656Z"/><path style="--part:2" id="z27573d6" d="M577 182C556 165 532 156 514 161C503 163 505 169 511 183C547 267 535 375 469 441C446 463 454 468 481 456C574 416 568 316 580 219C582 207 587 189 577 182Z"/><path style="--part:2" id="z27573d7" d="M906 401C915 396 918 389 912 379C902 365 890 356 879 350C870 345 859 346 844 353C821 362 797 367 770 366C753 365 742 358 737 346C730 333 731 308 737 271C740 249 750 225 774 203C785 191 785 182 774 173C757 160 741 150 724 141C717 137 708 139 696 146C670 158 630 168 577 182C565 184 568 221 580 219C586 219 612 211 659 196C678 189 695 187 693 211C690 238 690 265 687 289C683 317 684 341 690 360C694 376 703 390 718 400C738 413 770 419 813 419C853 418 884 411 906 401Z"/><path style="--part:2" id="z27573d8" d="M678 716C706 677 730 628 748 568C752 544 762 526 777 515C787 505 787 494 775 484C761 472 742 461 720 453C705 447 690 448 676 456C634 476 584 491 527 500C508 502 495 505 488 510C482 514 485 520 498 526C516 534 538 535 565 527C634 511 634 511 669 503C681 498 688 503 689 518C689 570 672 624 638 680C621 705 621 705 612 717C549 782 452 814 385 834C374 836 372 840 379 846C383 850 396 851 416 849C520 838 596 808 644 758C667 730 667 730 678 716Z"/><path style="--part:2" id="z27573d9" d="M644 758C673 796 715 837 767 883C786 900 812 902 842 897C881 889 916 884 945 880C955 878 964 875 972 871C978 866 976 860 968 855C957 848 910 830 826 803C781 788 729 762 678 716C651 692 651 692 638 680C610 655 583 624 555 592C542 577 524 567 502 564C488 561 475 571 488 581C497 587 506 591 515 599C530 611 554 643 612 717C633 744 633 744 644 758Z"/></g>
<defs><clipPath id="z27573c1"><use href="#z27573d1"/></clipPath>
	<clipPath id="z27573c2"><use href="#z27573d2"/></clipPath>
	<clipPath id="z27573c3"><use href="#z27573d3"/></clipPath>
	<clipPath id="z27573c4"><use href="#z27573d4"/></clipPath>
	<clipPath id="z27573c5"><use href="#z27573d5"/></clipPath>
	<clipPath id="z27573c6"><use href="#z27573d6"/></clipPath>
	<clipPath id="z27573c7"><use href="#z27573d7"/></clipPath>
	<clipPath id="z27573c8"><use href="#z27573d8"/></clipPath>
	<clipPath id="z27573c9"><use href="#z27573d9"/></clipPath><marker id="guide-arrow" viewBox="0 0 16 16" refX="5" refY="5" markerWidth="4" markerHeight="4" orient="auto-start-reverse"><path d="M 0 0 L 10 5 L 0 10 z" fill="inherit"/></marker></defs>
<g class="strokes"><path style="--part:1" pathLength="3333" clip-path="url(#z27573c1)" d="M364 69L394 126L267 226"/><path style="--part:1" pathLength="3333" clip-path="url(#z27573c2)" d="M194 196L238 241L244 351L246 640L221 897"/><path style="--part:1" pathLength="3333" clip-path="url(#z27573c3)" d="M264 338L448 299"/><path style="--part:1" pathLength="3333" clip-path="url(#z27573c4)" d="M263 478L440 449"/><path style="--part:1" pathLength="3333" clip-path="url(#z27573c5)" d="M42 677L113 698L456 556"/><path style="--part:2" pathLength="3333" clip-path="url(#z27573c6)" d="M514 165L551 202L546 336L510 417L464 455"/><path style="--part:2" pathLength="3333" clip-path="url(#z27573c7)" d="M577 210L707 170L737 194L710 291L721 369L787 392L909 379"/><path style="--part:2" pathLength="3333" clip-path="url(#z27573c8)" d="M492 514L690 475L735 515L684 653L611 754L494 816L381 841"/><path style="--part:2" pathLength="3333" clip-path="url(#z27573c9)" d="M488 571L789 841L969 865"/></g>
<g class="guides"><text class="g1" style="--gs:1" x="364" y="69">①</text><path class="g1 aligned" style="--gs:1" d="M364,69 Q394,126 378.13,138.5 Q282.88,213.5 267,226"/><path class="g1 offset" style="--gs:1" d="M268,69 Q283,97.5 275.06,103.75 Q227.44,141.25 219.5,147.5"/><text class="g2" style="--gs:2" x="194" y="196">②</text><path class="g2 aligned" style="--gs:2" d="M194,196 Q238,241 241,296 Q244,351 245,495.5 Q246,640 233.5,768.5 Q233.5,768.5 221,897"/><path class="g2 offset" style="--gs:2" d="M98,196 Q142,241 145,296 Q148,351 149,495.5 Q150,640 137.5,768.5 Q137.5,768.5 125,897"/><text class="g3" style="--gs:3" x="264" y="338">③</text><path class="g3 aligned" style="--gs:3" d="M264,338 L448,299"/><path class="g3 offset" style="--gs:3" d="M264,434 L448,395"/><text class="g4" style="--gs:4" x="263" y="478">④</text><path class="g4 aligned" style="--gs:4" d="M263,478 L440,449"/><path class="g4 offset" style="--gs:4" d="M263,574 L440,545"/><text class="g5" style="--gs:5" x="42" y="677">⑤</text><path class="g5 aligned" style="--gs:5" d="M42,677 Q113,698 155.88,680.25 Q413.13,573.75 456,556"/><path class="g5 offset" style="--gs:5" d="M42,773 Q113,794 155.88,776.25 Q413.13,669.75 456,652"/><text class="g6" style="--gs:6" x="514" y="165">⑥</text><path class="g6 aligned" style="--gs:6" d="M514,165 Q551,202 548.5,269 Q546,336 528,376.5 Q510,417 487,436 Q487,436 464,455"/><path class="g6 offset" style="--gs:6" d="M418,165 Q436.5,189.75 435.25,234.57 Q434,279.39 425,306.49 Q416,333.58 404.5,346.29 Q404.5,346.29 393,359"/><text class="g7" style="--gs:7" x="577" y="210">⑦</text><path class="g7 aligned" style="--gs:7" d="M577,210 Q707,170 722,182 Q737,194 723.5,242.5 Q710,291 715.5,330 Q721,369 754,380.5 Q787,392 848,385.5 Q848,385.5 909,379"/><path class="g7 offset" style="--gs:7" d="M577,306 Q707,266 722,278 Q737,290 723.5,338.5 Q710,387 715.5,426 Q721,465 754,476.5 Q787,488 848,481.5 Q848,481.5 909,475"/><text class="g8" style="--gs:8" x="492" y="514">⑧</text><path class="g8 aligned" style="--gs:8" d="M492,514 Q690,475 712.5,495 Q735,515 709.5,584 Q684,653 647.5,703.5 Q611,754 552.5,785 Q494,816 437.5,828.5 Q437.5,828.5 381,841"/><path class="g8 offset" style="--gs:8" d="M396,610 Q540.31,590.5 556.7,600.5 Q573.1,610.5 554.52,645 Q535.93,679.5 509.33,704.75 Q482.73,730 440.09,745.5 Q397.46,761 356.28,767.25 Q356.28,767.25 315.1,773.5"/><text class="g9" style="--gs:9" x="488" y="571">⑨</text><path class="g9 aligned" style="--gs:9" d="M488,571 Q789,841 811.5,844 Q946.5,862 969,865"/><path class="g9 offset" style="--gs:9" d="M573.68,502.46 Q821.06,747.24 839.56,749.96 Q950.51,766.28 969,769"/></g>
<g class="parts"><rect data-part="2" data-literal="殳" data-radical="true" role="button" tabindex="0" aria-label="Part 殳 (radical)" x="309" y="93" width="715" height="844"/><rect data-part="1" data-literal="乍" role="button" tabindex="0" aria-label="Part 乍" x="0" y="0" width="528" height="969"/></g>
</svg>
