<svg id="z27579" class="acjk" viewBox="0 0 1024 1024" xmlns="http://www.w3.org/2000/svg">
<style>

@keyframes zk {
	to {
		stroke-dashoffset:0;
	}
}
svg.acjk path[clip-path] {
	--t:0.8s;
	animation:zk var(--t) linear forwards var(--d);
	stroke-dasharray:3337;
	stroke-dashoffset:3339;
	stroke-width:128;
	stroke-linecap:round;
	fill:none;
	stroke:#000;
}
svg.acjk path[id] {fill:#ccc;}


    @keyframes guide-fade {
        0% { opacity: 0; }
        3% { opacity: 1; }
        95% { opacity: 1; }
        100% { opacity: 0; }
    }

    svg.acjk #guide-arrow {
        fill: #f77;
    }

    svg.acjk .guides {
        circle {
            fill: #0f6;
        }

        path {
            opacity: 0;
            animation: guide-fade var(--t) linear forwards var(--d);
            stroke-width: 16px;
            stroke-linecap: round;
            stroke: #f77;
            fill: none;
            marker-end: url(#guide-arrow);
        }

        circle,
        path {
            --t: 0.8s;
            opacity: 0;
            animation: guide-fade calc(var(--t) + 0.4s) ease-in-out forwards calc(var(--d) - 0.2s);
        }
    }
</style>
<path id="z27579d1" d="M367 254C426 237 457 226 460 224C465 219 465 213 463 209C458 202 447 196 429 193C412 190 394 196 373 204C339 217 339 217 322 223C296 232 215 248 197 252C175 256 172 264 189 274C212 287 249 287 321 267C352 258 352 258 367 254Z"/>
<path id="z27579d2" d="M359 340C361 314 364 278 367 254C371 221 371 221 373 204C379 153 382 127 391 102C393 95 389 85 377 77C357 64 339 59 325 55C316 52 309 54 304 60C299 64 298 72 304 81C313 96 318 109 320 119C323 146 322 181 322 223C322 252 322 252 322 267C322 291 319 326 319 353C319 367 359 354 359 340Z"/>
<path id="z27579d3" d="M319 353C300 358 272 364 222 374C206 376 205 382 218 391C236 404 254 407 271 403C293 396 346 384 430 368C436 366 443 365 446 357C447 350 438 346 426 340C408 331 387 330 359 340C332 349 332 349 319 353Z"/>
<path id="z27579d4" d="M170 492C163 478 154 468 144 462C132 455 124 459 127 475C130 496 122 530 93 579C83 595 86 617 109 644C120 657 130 653 137 638C144 621 151 602 155 580C159 553 164 531 170 515C173 508 173 499 170 492Z"/>
<path id="z27579d5" d="M170 515C180 519 200 518 231 508C289 487 359 469 414 456C430 452 441 450 447 452C453 454 454 457 454 461C453 464 444 485 425 523C420 531 419 536 423 538C427 540 434 538 444 532C474 511 502 497 527 491C547 485 558 480 557 475C555 468 534 454 498 427C469 406 450 421 395 435C331 450 190 486 170 492C163 495 162 513 170 515Z"/>
<path id="z27579d6" d="M260 603C241 593 227 591 218 597C211 601 209 607 213 615C241 685 214 782 132 906C129 910 129 913 133 914C137 914 142 913 148 909C220 851 262 770 275 666C276 657 277 648 280 640C284 627 273 609 260 603Z"/>
<path id="z27579d7" d="M280 640C296 630 312 622 327 615C342 607 352 608 358 612C364 616 362 625 361 642C354 709 350 766 333 809C325 828 330 850 353 880C358 886 363 889 370 885C375 881 378 871 387 860C411 827 455 788 513 737C519 731 523 726 523 722C522 717 518 717 512 722C483 740 453 757 425 778C395 799 388 794 391 759C397 682 406 632 430 610C436 603 437 597 433 590C427 581 413 570 392 560C385 556 376 558 367 563C334 579 301 595 260 603C246 605 269 648 280 640Z"/>
<path id="z27579d8" d="M611 173C605 169 593 167 577 167C564 166 555 167 551 171C546 175 545 182 550 189C581 236 576 307 537 407C535 411 537 415 541 415C555 412 571 390 591 353C607 321 615 273 617 209C617 197 622 178 611 173Z"/>
<path id="z27579d9" d="M617 209C617 204 640 194 688 178C694 175 699 174 703 175C707 175 711 180 711 190C710 216 708 242 705 266C701 294 701 317 708 336C713 350 721 362 736 370C756 380 785 383 823 379C859 374 886 365 905 355C913 349 916 342 909 334C899 322 886 315 874 310C866 307 854 309 841 318C824 327 804 334 782 336C768 337 757 332 752 323C744 310 746 285 752 249C755 226 766 203 788 182C798 171 798 161 787 153C771 140 754 131 738 125C731 122 722 124 712 130C684 144 650 159 611 173C600 178 610 219 617 209Z"/>
<path id="z27579d10" d="M703 722C718 693 752 620 767 550C771 528 776 511 788 499C796 489 795 479 783 471C769 461 751 455 730 449C716 445 703 447 691 456C662 476 627 492 586 503C569 507 557 511 552 516C547 520 550 525 562 530C578 536 598 534 623 524C644 514 666 507 688 499C700 494 707 498 708 511C709 565 689 640 666 687C659 700 651 714 642 726C591 790 544 818 435 866C426 869 424 873 431 878C435 881 446 879 465 877C586 858 638 808 676 765C687 752 694 736 703 722Z"/>
<path id="z27579d11" d="M676 765C751 851 796 899 811 900C861 903 912 894 963 885C973 882 982 879 986 874C988 869 985 866 978 864C874 834 790 794 729 744C719 736 710 729 703 722C678 699 678 699 666 687C635 658 600 625 566 586C556 575 548 567 536 567C519 567 507 570 503 577C501 579 504 583 510 587C534 600 554 617 571 639C595 670 617 697 642 726C665 752 665 752 676 765Z"/>
<defs>
	<clipPath id="z27579c1"><use href="#z27579d1"/></clipPath>
	<clipPath id="z27579c2"><use href="#z27579d2"/></clipPath>
	<clipPath id="z27579c3"><use href="#z27579d3"/></clipPath>
	<clipPath id="z27579c4"><use href="#z27579d4"/></clipPath>
	<clipPath id="z27579c5"><use href="#z27579d5"/></clipPath>
	<clipPath id="z27579c6"><use href="#z27579d6"/></clipPath>
	<clipPath id="z27579c7"><use href="#z27579d7"/></clipPath>
	<clipPath id="z27579c8"><use href="#z27579d8"/></clipPath>
	<clipPath id="z27579c9"><use href="#z27579d9"/></clipPath>
	<clipPath id="z27579c10"><use href="#z27579d10"/></clipPath>
	<clipPath id="z27579c11"><use href="#z27579d11"/></clipPath>
<marker id="guide-arrow" viewBox="0 0 16 16" refX="5" refY="5" markerWidth="4" markerHeight="4" orient="auto-start-reverse"><path d="M 0 0 L 10 5 L 0 10 z" fill="inherit"/></marker></defs>
<path style="--d:1s;" pathLength="3333" clip-path="url(#z27579c1)" d="M186 261L460 216"/>
<path style="--d:2s;" pathLength="3333" clip-path="url(#z27579c2)" d="M307 61L355 111L331 348"/>
<path style="--d:3s;" pathLength="3333" clip-path="url(#z27579c3)" d="M216 382L440 353"/>
<path style="--d:4s;" pathLength="3333" clip-path="url(#z27579c4)" d="M136 468L147 515L114 644"/>
<path style="--d:5s;" pathLength="3333" clip-path="url(#z27579c5)" d="M179 508L468 438L503 486L428 532"/>
<path style="--d:6s;" pathLength="3333" clip-path="url(#z27579c6)" d="M221 599L250 644L237 740L138 906"/>
<path style="--d:7s;" pathLength="3333" clip-path="url(#z27579c7)" d="M268 607L370 586L399 609L362 804L376 836L516 725"/>
<path style="--d:8s;" pathLength="3333" clip-path="url(#z27579c8)" d="M554 178L586 192L592 262L542 408"/>
<path style="--d:9s;" pathLength="3333" clip-path="url(#z27579c9)" d="M619 199L723 151L753 177L725 280L737 341L789 358L908 338"/>
<path style="--d:10s;" pathLength="3333" clip-path="url(#z27579c10)" d="M554 520L700 473L741 485L715 633L629 786L437 874"/>
<path style="--d:11s;" pathLength="3333" clip-path="url(#z27579c11)" d="M512 578L826 857L978 870"/>
<g class="guides"><circle style="--d: 1s" class="g1" cx="186" cy="261" r="16"/><path style="--d: 1s;" class="g1" d="M186,357 L460,312"/><circle style="--d: 2s" class="g2" cx="307" cy="61" r="16"/><path style="--d: 2s;" class="g2" d="M211,61 Q259,111 256,140.625 Q238,318.375 235,348"/><circle style="--d: 3s" class="g3" cx="216" cy="382" r="16"/><path style="--d: 3s;" class="g3" d="M216,478 L440,449"/><circle style="--d: 4s" class="g4" cx="136" cy="468" r="16"/><path style="--d: 4s;" class="g4" d="M256,468 Q267,515 262.875,531.125 Q238.125,627.875 234,644"/><circle style="--d: 5s" class="g5" cx="179" cy="508" r="16"/><path style="--d: 5s;" class="g5" d="M179,604 Q358.28703703703707,534 363.7152777777778,546 Q380,582 368.36805555555554,593.5 Q345.1041666666667,616.5 333.47222222222223,628"/><circle style="--d: 6s" class="g6" cx="221" cy="599" r="16"/><path style="--d: 6s;" class="g6" d="M125,599 Q139.5,629.9283387622149 137.875,646.4234527687296 Q133,695.9087947882737 120.625,724.4315960912053 Q95.875,781.4771986970684 83.5,810"/><circle style="--d: 7s" class="g7" cx="268" cy="607" r="16"/><path style="--d: 7s;" class="g7" d="M268,511 Q370,490 384.5,501.5 Q399,513 380.5,610.5 Q362,708 369,724 Q376,740 446,684.5 Q446,684.5 516,629"/><circle style="--d: 8s" class="g8" cx="570" cy="185" r="16"/><path style="--d: 8s;" class="g8" d="M690,185 Q712,262 705.75,280.25 Q668.25,389.75 662,408"/><circle style="--d: 9s" class="g9" cx="619" cy="199" r="16"/><path style="--d: 9s;" class="g9" d="M619,295 Q723,247 738,260 Q753,273 739,324.5 Q725,376 731,406.5 Q737,437 763,445.5 Q789,454 848.5,444 Q848.5,444 908,434"/><circle style="--d: 10s" class="g10" cx="554" cy="520" r="16"/><path style="--d: 10s;" class="g10" d="M458,616 Q557.8947368421052,591.5037406483791 571.921052631579,594.6309226932668 Q585.9473684210526,597.7581047381545 577.0526315789473,636.3266832917706 Q568.1578947368421,674.8952618453866 538.7368421052631,714.7668329177058 Q509.31578947368416,754.6384039900249 443.6315789473684,777.571072319202 Q443.6315789473684,777.571072319202 377.9473684210526,800.5037406483791"/><circle style="--d: 11s" class="g11" cx="512" cy="578" r="16"/><path style="--d: 11s;" class="g11" d="M597.68,509.456 Q853.9471244635192,762.2223561643835 869.4537339055794,763.6945616438356 Q962.4933905579398,772.5277945205479 978,774"/></g></svg>