<svg id="z27627" class="acjk" viewBox="0 0 1024 1024" xmlns="http://www.w3.org/2000/svg">
<style>

@keyframes zk {
	to {
		stroke-dashoffset:0;
	}
}
svg.acjk path[clip-path] {
	--t:0.8s;
	animation:zk var(--t) linear forwards var(--d);
	stroke-dasharray:3337;
	stroke-dashoffset:3339;
	stroke-width:128;
	stroke-linecap:round;
	fill:none;
	stroke:#000;
}
svg.acjk path[id] {fill:#ccc;}


    @keyframes guide-fade {
        0% { opacity: 0; }
        3% { opacity: 1; }
        95% { opacity: 1; }
        100% { opacity: 0; }
    }

    svg.acjk #guide-arrow {
        fill: #f77;
    }

    svg.acjk .guides {
        circle {
            fill: #0f6;
        }

        path {
            opacity: 0;
            animation: guide-fade var(--t) linear forwards var(--d);
            stroke-width: 16px;
            stroke-linecap: round;
            stroke: #f77;
            fill: none;
            marker-end: url(#guide-arrow);
        }

        circle,
        path {
            --t: 0.8s;
            opacity: 0;
            animation: guide-fade calc(var(--t) + 0.4s) ease-in-out forwards calc(var(--d) - 0.2s);
        }
    }
</style>
<path id="z27627d1" d="M473 85C489 95 504 108 522 123C532 131 543 133 554 132C560 130 566 126 569 116C571 105 567 89 559 70C554 59 542 48 523 44C475 32 447 31 440 37C437 39 435 45 438 55C439 61 452 71 473 85Z"/>
<path id="z27627d2" d="M243 192C230 193 228 198 238 209C246 217 256 223 267 226C279 228 290 228 300 226C424 191 582 175 774 175C782 174 795 173 799 167C802 160 798 152 789 145C759 120 732 112 708 118C620 138 465 163 243 192Z"/>
<path id="z27627d3" d="M388 256C381 253 368 250 349 249C328 246 331 262 338 273C352 295 367 326 379 366C382 377 387 386 396 394C409 406 416 408 418 398C418 394 420 389 420 385C418 374 417 363 416 353C411 327 405 295 403 283C401 273 398 260 388 256Z"/>
<path id="z27627d4" d="M635 329C649 299 666 282 681 273C693 264 693 250 684 241C674 231 654 219 624 205C613 199 601 199 589 204C534 225 468 243 388 256C378 258 393 285 403 283C458 270 521 258 571 248C592 243 602 250 600 268C599 280 595 297 589 319C584 334 629 344 635 329Z"/>
<path id="z27627d5" d="M420 385C498 373 577 364 641 356C665 352 654 339 635 329C622 321 604 316 589 319C531 329 469 344 416 353C405 355 409 387 420 385Z"/>
<path id="z27627d6" d="M239 469C232 452 224 441 217 436C203 425 194 428 195 447C196 475 180 506 141 543C126 556 128 585 147 625C156 644 173 646 183 625C219 543 219 543 237 502C241 492 243 479 239 469Z"/>
<path id="z27627d7" d="M237 502C253 508 276 508 305 500C366 481 487 455 672 430C682 428 772 411 764 442C757 465 750 489 740 512C729 539 738 537 763 523C800 500 835 485 865 478C889 471 902 464 902 459C901 452 875 430 825 394C808 381 774 382 723 391C557 418 432 437 350 452C313 458 276 464 239 469C228 471 227 498 237 502Z"/>
<path id="z27627d8" d="M486 567C531 555 558 547 587 543C610 539 619 525 607 513C588 494 575 484 556 476C537 467 519 460 516 483C511 510 446 537 320 586C298 594 309 599 327 597C367 593 395 589 433 580C468 571 468 571 486 567Z"/>
<path id="z27627d9" d="M497 668C589 648 636 634 639 632C643 627 645 622 643 618C638 610 627 606 611 602C594 598 562 609 509 624C466 635 466 635 445 641C405 651 361 654 316 660C295 662 290 671 307 680C355 705 398 688 444 679C479 672 479 672 497 668Z"/>
<path id="z27627d10" d="M490 765C550 750 620 739 700 729C710 727 716 723 717 719C717 710 712 702 701 697C683 688 666 687 652 691C587 706 533 718 490 728C459 735 459 735 444 738C298 769 224 774 223 776C222 776 221 776 221 779C218 785 222 793 233 801C259 819 286 823 313 815C361 799 405 785 445 776C475 769 475 769 490 765Z"/>
<path id="z27627d11" d="M895 845C881 813 869 769 860 714C854 681 841 691 839 710C831 778 825 820 815 832C791 858 733 873 643 875C592 875 556 870 535 862C516 854 504 842 500 829C495 816 490 795 490 765C490 740 490 740 490 728C490 705 492 685 497 668C505 639 505 639 509 624C516 594 508 579 486 567C470 558 426 563 433 580C439 596 445 616 445 641C444 666 444 666 444 679C443 698 443 718 444 738C445 763 445 763 445 776C446 832 461 871 491 892C532 920 619 930 751 921C811 916 854 906 879 893C898 882 904 866 895 845Z"/>
<defs>
	<clipPath id="z27627c1"><use href="#z27627d1"/></clipPath>
	<clipPath id="z27627c2"><use href="#z27627d2"/></clipPath>
	<clipPath id="z27627c3"><use href="#z27627d3"/></clipPath>
	<clipPath id="z27627c4"><use href="#z27627d4"/></clipPath>
	<clipPath id="z27627c5"><use href="#z27627d5"/></clipPath>
	<clipPath id="z27627c6"><use href="#z27627d6"/></clipPath>
	<clipPath id="z27627c7"><use href="#z27627d7"/></clipPath>
	<clipPath id="z27627c8"><use href="#z27627d8"/></clipPath>
	<clipPath id="z27627c9"><use href="#z27627d9"/></clipPath>
	<clipPath id="z27627c10"><use href="#z27627d10"/></clipPath>
	<clipPath id="z27627c11"><use href="#z27627d11"/></clipPath>
<marker id="guide-arrow" viewBox="0 0 16 16" refX="5" refY="5" markerWidth="4" markerHeight="4" orient="auto-start-reverse"><path d="M 0 0 L 10 5 L 0 10 z" fill="inherit"/></marker></defs>
<path style="--d:1s;" pathLength="3333" clip-path="url(#z27627c1)" d="M442 47L521 77L549 129"/>
<path style="--d:2s;" pathLength="3333" clip-path="url(#z27627c2)" d="M240 198L795 153"/>
<path style="--d:3s;" pathLength="3333" clip-path="url(#z27627c3)" d="M340 255L377 286L410 398"/>
<path style="--d:4s;" pathLength="3333" clip-path="url(#z27627c4)" d="M392 260L603 224L645 262L604 332"/>
<path style="--d:5s;" pathLength="3333" clip-path="url(#z27627c5)" d="M414 371L647 343"/>
<path style="--d:6s;" pathLength="3333" clip-path="url(#z27627c6)" d="M204 436L214 486L166 572L161 635"/>
<path style="--d:7s;" pathLength="3333" clip-path="url(#z27627c7)" d="M236 490L767 406L804 423L846 471L743 525"/>
<path style="--d:8s;" pathLength="3333" clip-path="url(#z27627c8)" d="M530 471L550 527L318 592"/>
<path style="--d:9s;" pathLength="3333" clip-path="url(#z27627c9)" d="M307 669L637 621"/>
<path style="--d:10s;" pathLength="3333" clip-path="url(#z27627c10)" d="M226 781L287 793L712 714"/>
<path style="--d:11s;" pathLength="3333" clip-path="url(#z27627c11)" d="M440 574L477 611L477 835L537 887L729 895L850 859L850 701"/>
<g class="guides"><circle style="--d: 1s" class="g1" cx="442" cy="47" r="16"/><path style="--d: 1s;" class="g1" d="M442,143 Q481.5,158 483.25,161.25 Q493.75,180.75 495.5,184"/><circle style="--d: 2s" class="g2" cx="240" cy="198" r="16"/><path style="--d: 2s;" class="g2" d="M240,294 L795,249"/><circle style="--d: 3s" class="g3" cx="340" cy="255" r="16"/><path style="--d: 3s;" class="g3" d="M425.68,186.45600000000002 Q462.68,217.45600000000002 466.805,231.45600000000002 Q491.555,315.456 495.68,329.456"/><circle style="--d: 4s" class="g4" cx="392" cy="260" r="16"/><path style="--d: 4s;" class="g4" d="M392,356 Q502.9209486166008,320 508.4407114624506,324.75 Q525,339 519.6116600790514,347.75 Q508.8349802371541,365.25 503.4466403162055,374"/><circle style="--d: 5s" class="g5" cx="414" cy="371" r="16"/><path style="--d: 5s;" class="g5" d="M414,467 L647,439"/><circle style="--d: 6s" class="g6" cx="204" cy="436" r="16"/><path style="--d: 6s;" class="g6" d="M324,436 Q334,486 322,507.5 Q286,572 284.75,587.75 Q282.25,619.25 281,635"/><circle style="--d: 7s" class="g7" cx="236" cy="490" r="16"/><path style="--d: 7s;" class="g7" d="M236,586 Q635.5557377049181,502 649.4762295081968,510.5 Q663.3967213114754,519 679.1983606557377,543 Q695,567 656.2483606557378,594 Q656.2483606557378,594 617.4967213114754,621"/><circle style="--d: 8s" class="g8" cx="530" cy="471" r="16"/><path style="--d: 8s;" class="g8" d="M434,471 Q444,499 429.5,503.0625 Q342.5,527.4375 328,531.5"/><circle style="--d: 9s" class="g9" cx="307" cy="669" r="16"/><path style="--d: 9s;" class="g9" d="M307,765 L637,717"/><circle style="--d: 10s" class="g10" cx="226" cy="781" r="16"/><path style="--d: 10s;" class="g10" d="M226,877 Q287,889 340.125,879.125 Q658.875,819.875 712,810"/><circle style="--d: 11s" class="g11" cx="440" cy="574" r="16"/><path style="--d: 11s;" class="g11" d="M508.544,505.456 Q530.6949073170732,542.456 530.6949073170732,654.456 Q530.6949073170732,766.456 548.6551024390244,792.456 Q566.6152975609756,818.456 624.0879219512195,822.456 Q681.5605463414635,826.456 717.7802731707318,808.456 Q754,790.456 754,711.456 Q754,711.456 754,632.456"/></g></svg>