<svg id="z27664" class="acjk" viewBox="0 0 1024 1024" xmlns="http://www.w3.org/2000/svg">
<style>

@keyframes zk {
	to {
		stroke-dashoffset:0;
	}
}
svg.acjk path[clip-path] {
	--t:0.8s;
	animation:zk var(--t) linear forwards var(--d);
	stroke-dasharray:3337;
	stroke-dashoffset:3339;
	stroke-width:128;
	stroke-linecap:round;
	fill:none;
	stroke:#000;
}
svg.acjk path[id] {fill:#ccc;}


    @keyframes guide-fade {
        0% { opacity: 0; }
        3% { opacity: 1; }
        95% { opacity: 1; }
        100% { opacity: 0; }
    }

    svg.acjk #guide-arrow {
        fill: #f77;
    }

    svg.acjk .guides {
        circle {
            fill: #0f6;
        }

        path {
            opacity: 0;
            animation: guide-fade var(--t) linear forwards var(--d);
            stroke-width: 16px;
            stroke-linecap: round;
            stroke: #f77;
            fill: none;
            marker-end: url(#guide-arrow);
        }

        circle,
        path {
            --t: 0.8s;
            opacity: 0;
            animation: guide-fade calc(var(--t) + 0.4s) ease-in-out forwards calc(var(--d) - 0.2s);
        }
    }
</style>
<path id="z27664d1" d="M495 214C529 201 589 176 644 161C655 157 665 157 668 151C671 143 667 133 658 126C642 112 616 102 584 88C570 82 560 78 551 81C545 82 542 89 542 98C541 128 457 181 288 259C281 262 293 280 301 278C335 269 386 253 454 229C481 219 481 219 495 214Z"/>
<path id="z27664d2" d="M288 259C279 251 260 242 234 236C222 233 215 234 211 239C206 243 206 252 215 265C226 284 236 304 241 329C245 352 248 412 246 506C244 582 233 641 220 684C212 708 198 735 171 762C162 770 160 780 165 797C170 815 175 831 187 841C193 847 204 846 214 837C254 796 334 734 455 657C466 649 474 644 476 638C477 633 476 632 472 632C463 632 407 659 303 705C280 714 279 695 280 681C288 445 297 294 301 278C303 270 294 264 288 259Z"/>
<path id="z27664d3" d="M576 445C685 414 740 392 745 387C751 380 751 373 748 368C741 359 727 353 708 351C685 347 665 353 644 363C616 375 590 388 562 398C531 407 531 407 516 412C472 426 415 436 375 447C348 452 344 463 366 473C390 482 413 489 435 485C456 481 509 465 531 458C561 449 561 449 576 445Z"/>
<path id="z27664d4" d="M531 458C585 626 657 719 760 799C796 828 842 863 890 869C906 871 917 853 913 832C908 805 911 738 919 626C920 602 914 597 904 624C893 651 881 677 871 703C856 737 841 753 831 753C814 751 790 739 762 714C672 634 610 561 576 445C567 414 567 414 562 398C550 360 543 316 554 269C557 253 536 234 495 214C483 207 447 217 454 229C469 254 483 282 489 309C496 343 505 378 516 412C526 443 526 443 531 458Z"/>
<path id="z27664d5" d="M380 791C350 795 347 805 368 819C399 838 416 840 464 830C514 818 543 810 598 800C621 794 636 791 640 786C647 780 649 772 646 766C639 756 623 748 601 744C579 738 560 746 501 764C453 777 426 785 380 791Z"/>
<defs>
	<clipPath id="z27664c1"><use href="#z27664d1"/></clipPath>
	<clipPath id="z27664c2"><use href="#z27664d2"/></clipPath>
	<clipPath id="z27664c3"><use href="#z27664d3"/></clipPath>
	<clipPath id="z27664c4"><use href="#z27664d4"/></clipPath>
	<clipPath id="z27664c5"><use href="#z27664d5"/></clipPath>
<marker id="guide-arrow" viewBox="0 0 16 16" refX="5" refY="5" markerWidth="4" markerHeight="4" orient="auto-start-reverse"><path d="M 0 0 L 10 5 L 0 10 z" fill="inherit"/></marker></defs>
<path style="--d:1s;" pathLength="3333" clip-path="url(#z27664c1)" d="M552 89L609 147L293 269"/>
<path style="--d:2s;" pathLength="3333" clip-path="url(#z27664c2)" d="M213 243L265 283L269 330L261 601L213 787L230 798L466 641"/>
<path style="--d:3s;" pathLength="3333" clip-path="url(#z27664c3)" d="M362 460L437 458L745 376"/>
<path style="--d:4s;" pathLength="3333" clip-path="url(#z27664c4)" d="M458 227L515 267L530 375L606 578L740 739L828 799L880 816L912 614"/>
<path style="--d:5s;" pathLength="3333" clip-path="url(#z27664c5)" d="M365 805L640 768"/>
<g class="guides"><circle style="--d: 1s" class="g1" cx="552" cy="89" r="16"/><path style="--d: 1s;" class="g1" d="M456,89 Q495.6835443037975,118 468.1835443037975,125.625 Q303.1835443037975,171.375 275.6835443037975,179"/><circle style="--d: 2s" class="g2" cx="213" cy="243" r="16"/><path style="--d: 2s;" class="g2" d="M298.68,174.45600000000002 Q350.68,209.01772972972975 352.68,229.32274594594597 Q354.68,249.62776216216218 350.68,366.7056216216216 Q346.68,483.78348108108105 322.68,564.1395027027027 Q298.68,644.4955243243244 307.18,649.2477621621622 Q315.68,654 433.67999999999995,586.1726054054054 Q433.67999999999995,586.1726054054054 551.68,518.3452108108108"/><circle style="--d: 3s" class="g3" cx="362" cy="460" r="16"/><path style="--d: 3s;" class="g3" d="M362,556 Q437,554 475.5,543.75 Q706.5,482.25 745,472"/><circle style="--d: 4s" class="g4" cx="458" cy="227" r="16"/><path style="--d: 4s;" class="g4" d="M526.544,158.45600000000002 Q562.8853920704846,198.45600000000002 567.6671541850221,252.45600000000002 Q572.4489162995595,306.456 596.6765110132159,407.956 Q620.9041057268722,509.456 663.62118061674,589.956 Q706.3382555066079,670.456 734.3912599118943,700.456 Q762.4442643171807,730.456 779.0210396475771,738.956 Q795.5978149779736,747.456 805.7989074889867,646.456 Q805.7989074889867,646.456 816,545.456"/><circle style="--d: 5s" class="g5" cx="365" cy="805" r="16"/><path style="--d: 5s;" class="g5" d="M365,901 L640,864"/></g></svg>