<svg id="z27671" class="acjk" viewBox="0 0 1024 1024" xmlns="http://www.w3.org/2000/svg">
<style>

@keyframes zk {
	to {
		stroke-dashoffset:0;
	}
}
svg.acjk path[clip-path] {
	--t:0.8s;
	animation:zk var(--t) linear forwards var(--d);
	stroke-dasharray:3337;
	stroke-dashoffset:3339;
	stroke-width:128;
	stroke-linecap:round;
	fill:none;
	stroke:#000;
}
svg.acjk path[id] {fill:#ccc;}


    @keyframes guide-fade {
        0% { opacity: 0; }
        3% { opacity: 1; }
        95% { opacity: 1; }
        100% { opacity: 0; }
    }

    svg.acjk #guide-arrow {
        fill: #f77;
    }

    svg.acjk .guides {
        circle {
            fill: #0f6;
        }

        path {
            opacity: 0;
            animation: guide-fade var(--t) linear forwards var(--d);
            stroke-width: 16px;
            stroke-linecap: round;
            stroke: #f77;
            fill: none;
            marker-end: url(#guide-arrow);
        }

        circle,
        path {
            --t: 0.8s;
            opacity: 0;
            animation: guide-fade calc(var(--t) + 0.4s) ease-in-out forwards calc(var(--d) - 0.2s);
        }
    }
</style>
<path id="z27671d1" d="M359 215C406 146 431 109 431 106C429 93 412 79 383 63C372 56 363 56 353 57C345 57 342 61 343 74C347 145 304 225 220 314C210 323 192 337 158 371C149 379 153 384 165 383C178 381 195 374 215 360C267 322 312 282 346 234C355 221 355 221 359 215Z"/>
<path id="z27671d2" d="M346 234C352 240 365 245 390 251C403 253 458 247 550 228C644 208 695 194 703 189C709 184 709 177 707 172C701 162 688 157 670 153C650 148 610 160 544 180C482 198 406 209 359 215C351 217 340 229 346 234Z"/>
<path id="z27671d3" d="M319 347C296 350 293 358 310 368C335 381 369 383 411 374C461 363 512 351 567 339C592 332 608 328 612 324C616 320 618 313 615 309C610 301 597 295 581 292C560 288 544 292 527 299C498 310 467 319 435 327C399 336 360 341 319 347Z"/>
<path id="z27671d4" d="M191 494C181 494 177 499 182 510C184 518 193 524 211 532C226 537 242 539 259 535C357 508 454 481 551 456C578 448 595 447 601 451C607 455 605 464 603 479C580 622 596 725 633 795C671 865 734 909 840 920C884 924 918 921 936 913C948 907 950 895 946 879C933 827 928 773 926 717C925 694 922 681 917 676C912 671 906 674 904 686C884 772 868 827 849 845C836 855 817 853 802 850C770 843 742 831 717 810C675 775 651 715 645 635C638 556 652 495 692 450C701 439 705 433 701 427C695 418 671 406 635 392C622 387 614 390 604 397C561 422 486 444 381 468C312 483 249 492 191 494Z"/>
<path id="z27671d5" d="M433 730C464 688 493 647 517 603C529 578 560 562 545 547C528 529 504 520 482 514C452 506 458 534 458 548C454 598 426 651 385 702C376 711 366 721 355 733C278 805 193 850 154 882C137 895 182 888 193 884C260 858 341 813 399 766C416 751 424 740 433 730Z"/>
<path id="z27671d6" d="M399 766C468 818 496 862 558 889C582 900 577 855 572 842C560 811 513 777 433 730C401 711 401 711 385 702C362 689 255 615 216 612C194 610 221 638 235 647C275 675 315 703 355 733C369 744 399 766 399 766Z"/>
<defs>
	<clipPath id="z27671c1"><use href="#z27671d1"/></clipPath>
	<clipPath id="z27671c2"><use href="#z27671d2"/></clipPath>
	<clipPath id="z27671c3"><use href="#z27671d3"/></clipPath>
	<clipPath id="z27671c4"><use href="#z27671d4"/></clipPath>
	<clipPath id="z27671c5"><use href="#z27671d5"/></clipPath>
	<clipPath id="z27671c6"><use href="#z27671d6"/></clipPath>
<marker id="guide-arrow" viewBox="0 0 16 16" refX="5" refY="5" markerWidth="4" markerHeight="4" orient="auto-start-reverse"><path d="M 0 0 L 10 5 L 0 10 z" fill="inherit"/></marker></defs>
<path style="--d:1s;" pathLength="3333" clip-path="url(#z27671c1)" d="M351 67L385 111L333 208L164 375"/>
<path style="--d:2s;" pathLength="3333" clip-path="url(#z27671c2)" d="M348 228L704 176"/>
<path style="--d:3s;" pathLength="3333" clip-path="url(#z27671c3)" d="M306 356L611 313"/>
<path style="--d:4s;" pathLength="3333" clip-path="url(#z27671c4)" d="M185 500L246 513L596 424L638 431L653 450L617 600L631 717L681 816L791 880L905 866L911 682"/>
<path style="--d:5s;" pathLength="3333" clip-path="url(#z27671c5)" d="M467 522L501 567L404 722L160 884"/>
<path style="--d:6s;" pathLength="3333" clip-path="url(#z27671c6)" d="M216 619L435 760L570 883"/>
<g class="guides"><circle style="--d: 1s" class="g1" cx="351" cy="67" r="16"/><path style="--d: 1s;" class="g1" d="M255,67 Q274.2307692307692,97.28571428571429 266.8778280542986,113.97727272727273 Q244.81900452488685,164.05194805194805 220.92194570135746,192.78896103896102 Q173.12782805429862,250.26298701298703 149.23076923076923,279"/><circle style="--d: 2s" class="g2" cx="348" cy="228" r="16"/><path style="--d: 2s;" class="g2" d="M348,324 L704,272"/><circle style="--d: 3s" class="g3" cx="306" cy="356" r="16"/><path style="--d: 3s;" class="g3" d="M306,452 L611,409"/><circle style="--d: 4s" class="g4" cx="185" cy="500" r="16"/><path style="--d: 4s;" class="g4" d="M185,596 Q235.91735537190084,603.5263157894738 381.9917355371901,577.7631578947369 Q528.0661157024794,552 545.595041322314,554.0263157894738 Q563.1239669421487,556.0526315789474 569.3842975206612,561.5526315789474 Q575.6446280991736,567.0526315789474 560.6198347107438,610.4736842105262 Q545.595041322314,653.8947368421052 551.4380165289256,687.7631578947369 Q557.2809917355372,721.6315789473684 578.1487603305785,750.2894736842105 Q599.0165289256198,778.9473684210526 644.9256198347107,797.4736842105262 Q690.8347107438017,816 738.4132231404958,811.9473684210526 Q785.99173553719,807.8947368421052 788.495867768595,754.6315789473683 Q788.495867768595,754.6315789473683 791,701.3684210526316"/><circle style="--d: 5s" class="g5" cx="467" cy="522" r="16"/><path style="--d: 5s;" class="g5" d="M371,522 Q395.42815249266863,555.0662983425415 378.0051319648094,583.5400552486188 Q325.7360703812317,668.9613259668508 281.90909090909093,698.7209944751381 Q194.25513196480938,758.2403314917127 150.42815249266863,788"/><circle style="--d: 6s" class="g6" cx="216" cy="619" r="16"/><path style="--d: 6s;" class="g6" d="M301.68,550.456 Q520.68,691.456 537.555,706.831 Q638.805,799.081 655.68,814.456"/></g></svg>