<!--
  Stroke-order data for 氣, derived from AnimCJK (https://github.com/parsimonhi/animCJK),
  itself derived from the Arphic PL KaitiM fonts. Distributed under the Arphic Public License
  (see ARPHICPL.TXT). Regenerated by scripts/build-strokes.ts — do not edit by hand.
-->
<svg id="z27683" class="acjk" viewBox="0 0 1024 1024" xmlns="http://www.w3.org/2000/svg">
<g class="glyph"><path id="z27683d1" d="M406 159Q407 158 409 156Q431 125 449 109Q458 100 455 87Q451 74 427 52Q403 33 385 32Q367 32 374 53Q383 75 373 95Q345 158 301 216Q261 271 204 332Q194 341 192 346Q188 356 201 355Q256 346 390 180C401 166 401 166 406 159Z"/><path id="z27683d2" d="M390 180Q391 180 394 182Q434 200 500 184Q701 130 708 123Q717 116 712 107Q705 97 676 91Q646 87 618 100Q572 119 523 134Q469 149 406 159C397 160 382 176 390 180Z"/><path id="z27683d3" d="M393 273Q363 280 386 292Q417 308 465 296Q528 278 594 260Q624 251 629 247Q635 240 631 233Q624 224 601 220Q576 217 553 228Q519 241 482 254Q442 266 393 273Z"/><path id="z27683d4" d="M261 398Q236 399 250 416Q263 431 288 441Q313 451 344 438Q420 410 640 360Q665 354 661 379Q613 634 695 791Q707 815 725 834Q765 883 832 915Q883 939 934 938Q977 937 1002 922Q1015 915 1008 893Q983 835 963 756Q956 731 949 754Q930 853 921 864Q908 876 888 868Q768 841 720 726Q668 588 713 427Q725 390 761 364Q777 354 774 341Q770 329 708 300Q687 290 666 303Q521 381 261 398Z"/><path id="z27683d5" d="M254 536Q291 578 307 579Q317 579 321 567Q325 554 319 529Q315 516 294 507Q243 489 232 493Q228 497 228 508Q232 518 254 536Z"/><path id="z27683d6" d="M498 477Q486 501 457 545Q450 558 463 555Q491 539 508 526Q544 493 563 486Q579 477 569 464Q559 452 538 442Q519 433 509 436Q499 437 504 448Q507 461 498 477Z"/><path id="z27683d7" d="M425 630Q497 617 585 606Q601 605 601 597Q602 585 586 577Q562 567 542 571Q478 584 426 596C396 603 396 603 381 606Q215 636 149 641Q137 642 134 649Q131 659 145 669Q181 696 217 683Q283 662 337 650C396 637 396 637 425 630Z"/><path id="z27683d8" d="M382 668Q382 794 374 830Q362 864 383 916Q389 929 395 931Q399 935 405 930Q426 914 424 869Q423 844 425 630C426 607 426 607 426 596Q426 550 435 520Q442 508 439 498Q435 491 392 466Q376 454 359 466Q355 470 361 481Q377 506 379 531Q380 565 381 606C382 647 382 647 382 668Z"/><path id="z27683d9" d="M337 650Q292 749 133 861Q118 873 133 874Q143 875 178 860Q220 845 258 815Q291 788 327 746Q357 712 375 681Q378 674 382 668C404 631 353 610 337 650Z"/><path id="z27683d10" d="M473 719Q510 750 554 794Q570 810 583 814Q590 815 597 806Q607 793 594 756Q584 722 527 705Q491 695 472 692Q465 688 463 698Q463 710 473 719Z"/></g>
<defs><clipPath id="z27683c1"><use href="#z27683d1"/></clipPath>
	<clipPath id="z27683c2"><use href="#z27683d2"/></clipPath>
	<clipPath id="z27683c3"><use href="#z27683d3"/></clipPath>
	<clipPath id="z27683c4"><use href="#z27683d4"/></clipPath>
	<clipPath id="z27683c5"><use href="#z27683d5"/></clipPath>
	<clipPath id="z27683c6"><use href="#z27683d6"/></clipPath>
	<clipPath id="z27683c7"><use href="#z27683d7"/></clipPath>
	<clipPath id="z27683c8"><use href="#z27683d8"/></clipPath>
	<clipPath id="z27683c9"><use href="#z27683d9"/></clipPath>
	<clipPath id="z27683c10"><use href="#z27683d10"/></clipPath><marker id="guide-arrow" viewBox="0 0 16 16" refX="5" refY="5" markerWidth="4" markerHeight="4" orient="auto-start-reverse"><path d="M 0 0 L 10 5 L 0 10 z" fill="inherit"/></marker></defs>
<g class="strokes"><path pathLength="3333" clip-path="url(#z27683c1)" d="M382 39L414 96L283 273L198 350"/><path pathLength="3333" clip-path="url(#z27683c2)" d="M397 177L704 114"/><path pathLength="3333" clip-path="url(#z27683c3)" d="M383 281L628 240"/><path pathLength="3333" clip-path="url(#z27683c4)" d="M251 407L322 419L689 333L721 357L679 442L669 608L721 785L797 863L925 903L967 881L954 750"/><path pathLength="3333" clip-path="url(#z27683c5)" d="M233 498L313 571"/><path pathLength="3333" clip-path="url(#z27683c6)" d="M511 444L532 481L461 549"/><path pathLength="3333" clip-path="url(#z27683c7)" d="M141 649L201 661L596 595"/><path pathLength="3333" clip-path="url(#z27683c8)" d="M364 470L408 511L400 927"/><path pathLength="3333" clip-path="url(#z27683c9)" d="M375 649L261 785L133 867"/><path pathLength="3333" clip-path="url(#z27683c10)" d="M468 699L553 750L586 809"/></g>
<g class="guides"><text class="g1" style="--gs:1" x="382" y="39">①</text><path class="g1 aligned" style="--gs:1" d="M382,39 Q414,96 381.25,140.25 Q283,273 261.75,292.25 Q219.25,330.75 198,350"/><path class="g1 offset" style="--gs:1" d="M286,39 Q302,78.41 285.63,109 Q236.5,200.77 225.88,214.08 Q204.63,240.69 194,254"/><text class="g2" style="--gs:2" x="397" y="177">②</text><path class="g2 aligned" style="--gs:2" d="M397,177 L704,114"/><path class="g2 offset" style="--gs:2" d="M397,273 L704,210"/><text class="g3" style="--gs:3" x="383" y="281">③</text><path class="g3 aligned" style="--gs:3" d="M383,281 L628,240"/><path class="g3 offset" style="--gs:3" d="M383,377 L628,336"/><text class="g4" style="--gs:4" x="251" y="407">④</text><path class="g4 aligned" style="--gs:4" d="M251,407 Q322,419 505.5,376 Q689,333 705,345 Q721,357 700,399.5 Q679,442 674,525 Q669,608 695,696.5 Q721,785 759,824 Q797,863 861,883 Q925,903 946,892 Q967,881 960.5,815.5 Q960.5,815.5 954,750"/><path class="g4 offset" style="--gs:4" d="M251,503 Q310.1,500.52 462.85,464.76 Q615.59,429 628.91,441 Q642.23,453 624.75,486.32 Q607.27,519.64 603.11,588.66 Q598.94,657.68 620.59,731.28 Q642.23,804.87 673.86,837.31 Q705.49,869.74 758.77,886.37 Q812.04,903 829.52,893.85 Q847,884.71 841.59,830.24 Q841.59,830.24 836.18,775.77"/><text class="g5" style="--gs:5" x="233" y="498">⑤</text><path class="g5 aligned" style="--gs:5" d="M233,498 L313,571"/><path class="g5 offset" style="--gs:5" d="M318.68,429.46 L398.68,502.46"/><text class="g6" style="--gs:6" x="511" y="444">⑥</text><path class="g6 aligned" style="--gs:6" d="M511,444 Q532,481 523.13,489.5 Q469.88,540.5 461,549"/><path class="g6 offset" style="--gs:6" d="M415,444 Q425.5,462.5 421.06,466.75 Q394.44,492.25 390,496.5"/><text class="g7" style="--gs:7" x="141" y="649">⑦</text><path class="g7 aligned" style="--gs:7" d="M141,649 Q201,661 250.38,652.75 Q546.63,603.25 596,595"/><path class="g7 offset" style="--gs:7" d="M141,745 Q201,757 250.38,748.75 Q546.63,699.25 596,691"/><text class="g8" style="--gs:8" x="364" y="470">⑧</text><path class="g8 aligned" style="--gs:8" d="M364,470 Q408,511 407,563 Q401,875 400,927"/><path class="g8 offset" style="--gs:8" d="M268,470 Q312,511 311,563 Q305,875 304,927"/><text class="g9" style="--gs:9" x="375" y="649">⑨</text><path class="g9 aligned" style="--gs:9" d="M375,649 Q261,785 245,795.25 Q149,856.75 133,867"/><path class="g9 offset" style="--gs:9" d="M460.68,717.54 Q346.68,853.54 330.68,863.79 Q234.68,925.29 218.68,935.54"/><text class="g10" style="--gs:10" x="468" y="699">⑩</text><path class="g10 aligned" style="--gs:10" d="M468,699 Q553,750 557.13,757.38 Q581.88,801.63 586,809"/><path class="g10 offset" style="--gs:10" d="M553.68,630.46 Q638.68,681.46 642.8,688.83 Q667.56,733.08 671.68,740.46"/></g>
</svg>
