<svg id="z27683" class="acjk" viewBox="0 0 1024 1024" xmlns="http://www.w3.org/2000/svg">
<style>

@keyframes zk {
	to {
		stroke-dashoffset:0;
	}
}
svg.acjk path[clip-path] {
	--t:0.8s;
	animation:zk var(--t) linear forwards var(--d);
	stroke-dasharray:3337;
	stroke-dashoffset:3339;
	stroke-width:128;
	stroke-linecap:round;
	fill:none;
	stroke:#000;
}
svg.acjk path[id] {fill:#ccc;}


    @keyframes guide-fade {
        0% { opacity: 0; }
        3% { opacity: 1; }
        95% { opacity: 1; }
        100% { opacity: 0; }
    }

    svg.acjk #guide-arrow {
        fill: #f77;
    }

    svg.acjk .guides {
        circle {
            fill: #0f6;
        }

        path {
            opacity: 0;
            animation: guide-fade var(--t) linear forwards var(--d);
            stroke-width: 16px;
            stroke-linecap: round;
            stroke: #f77;
            fill: none;
            marker-end: url(#guide-arrow);
        }

        circle,
        path {
            --t: 0.8s;
            opacity: 0;
            animation: guide-fade calc(var(--t) + 0.4s) ease-in-out forwards calc(var(--d) - 0.2s);
        }
    }
</style>
<path id="z27683d1" d="M406 159Q407 158 409 156Q431 125 449 109Q458 100 455 87Q451 74 427 52Q403 33 385 32Q367 32 374 53Q383 75 373 95Q345 158 301 216Q261 271 204 332Q194 341 192 346Q188 356 201 355Q256 346 390 180C401 166 401 166 406 159Z"/>
<path id="z27683d2" d="M390 180Q391 180 394 182Q434 200 500 184Q701 130 708 123Q717 116 712 107Q705 97 676 91Q646 87 618 100Q572 119 523 134Q469 149 406 159C397 160 382 176 390 180Z"/>
<path id="z27683d3" d="M393 273Q363 280 386 292Q417 308 465 296Q528 278 594 260Q624 251 629 247Q635 240 631 233Q624 224 601 220Q576 217 553 228Q519 241 482 254Q442 266 393 273Z"/>
<path id="z27683d4" d="M261 398Q236 399 250 416Q263 431 288 441Q313 451 344 438Q420 410 640 360Q665 354 661 379Q613 634 695 791Q707 815 725 834Q765 883 832 915Q883 939 934 938Q977 937 1002 922Q1015 915 1008 893Q983 835 963 756Q956 731 949 754Q930 853 921 864Q908 876 888 868Q768 841 720 726Q668 588 713 427Q725 390 761 364Q777 354 774 341Q770 329 708 300Q687 290 666 303Q521 381 261 398Z"/>
<path id="z27683d5" d="M254 536Q291 578 307 579Q317 579 321 567Q325 554 319 529Q315 516 294 507Q243 489 232 493Q228 497 228 508Q232 518 254 536Z"/>
<path id="z27683d6" d="M498 477Q486 501 457 545Q450 558 463 555Q491 539 508 526Q544 493 563 486Q579 477 569 464Q559 452 538 442Q519 433 509 436Q499 437 504 448Q507 461 498 477Z"/>
<path id="z27683d7" d="M425 630Q497 617 585 606Q601 605 601 597Q602 585 586 577Q562 567 542 571Q478 584 426 596C396 603 396 603 381 606Q215 636 149 641Q137 642 134 649Q131 659 145 669Q181 696 217 683Q283 662 337 650C396 637 396 637 425 630Z"/>
<path id="z27683d8" d="M382 668Q382 794 374 830Q362 864 383 916Q389 929 395 931Q399 935 405 930Q426 914 424 869Q423 844 425 630C426 607 426 607 426 596Q426 550 435 520Q442 508 439 498Q435 491 392 466Q376 454 359 466Q355 470 361 481Q377 506 379 531Q380 565 381 606C382 647 382 647 382 668Z"/>
<path id="z27683d9" d="M337 650Q292 749 133 861Q118 873 133 874Q143 875 178 860Q220 845 258 815Q291 788 327 746Q357 712 375 681Q378 674 382 668C404 631 353 610 337 650Z"/>
<path id="z27683d10" d="M473 719Q510 750 554 794Q570 810 583 814Q590 815 597 806Q607 793 594 756Q584 722 527 705Q491 695 472 692Q465 688 463 698Q463 710 473 719Z"/>
<defs>
	<clipPath id="z27683c1"><use href="#z27683d1"/></clipPath>
	<clipPath id="z27683c2"><use href="#z27683d2"/></clipPath>
	<clipPath id="z27683c3"><use href="#z27683d3"/></clipPath>
	<clipPath id="z27683c4"><use href="#z27683d4"/></clipPath>
	<clipPath id="z27683c5"><use href="#z27683d5"/></clipPath>
	<clipPath id="z27683c6"><use href="#z27683d6"/></clipPath>
	<clipPath id="z27683c7"><use href="#z27683d7"/></clipPath>
	<clipPath id="z27683c8"><use href="#z27683d8"/></clipPath>
	<clipPath id="z27683c9"><use href="#z27683d9"/></clipPath>
	<clipPath id="z27683c10"><use href="#z27683d10"/></clipPath>
<marker id="guide-arrow" viewBox="0 0 16 16" refX="5" refY="5" markerWidth="4" markerHeight="4" orient="auto-start-reverse"><path d="M 0 0 L 10 5 L 0 10 z" fill="inherit"/></marker></defs>
<path style="--d:1s;" pathLength="3333" clip-path="url(#z27683c1)" d="M382 39L414 96L283 273L198 350"/>
<path style="--d:2s;" pathLength="3333" clip-path="url(#z27683c2)" d="M397 177L704 114"/>
<path style="--d:3s;" pathLength="3333" clip-path="url(#z27683c3)" d="M383 281L628 240"/>
<path style="--d:4s;" pathLength="3333" clip-path="url(#z27683c4)" d="M251 407L322 419L689 333L721 357L679 442L669 608L721 785L797 863L925 903L967 881L954 750"/>
<path style="--d:5s;" pathLength="3333" clip-path="url(#z27683c5)" d="M233 498L313 571"/>
<path style="--d:6s;" pathLength="3333" clip-path="url(#z27683c6)" d="M511 444L532 481L461 549"/>
<path style="--d:7s;" pathLength="3333" clip-path="url(#z27683c7)" d="M141 649L201 661L596 595"/>
<path style="--d:8s;" pathLength="3333" clip-path="url(#z27683c8)" d="M364 470L408 511L400 927"/>
<path style="--d:9s;" pathLength="3333" clip-path="url(#z27683c9)" d="M375 649L261 785L133 867"/>
<path style="--d:10s;" pathLength="3333" clip-path="url(#z27683c10)" d="M468 699L553 750L586 809"/>
<g class="guides"><circle style="--d: 1s" class="g1" cx="382" cy="39" r="16"/><path style="--d: 1s;" class="g1" d="M286,39 Q302,78.40514469453376 285.625,108.99598070739549 Q236.5,200.7684887459807 225.875,214.07636655948554 Q204.625,240.69212218649517 194,254"/><circle style="--d: 2s" class="g2" cx="397" cy="177" r="16"/><path style="--d: 2s;" class="g2" d="M397,273 L704,210"/><circle style="--d: 3s" class="g3" cx="383" cy="281" r="16"/><path style="--d: 3s;" class="g3" d="M383,377 L628,336"/><circle style="--d: 4s" class="g4" cx="251" cy="407" r="16"/><path style="--d: 4s;" class="g4" d="M251,503 Q310.1005586592179,500.5157894736842 462.84636871508377,464.7578947368421 Q615.5921787709497,429 628.9106145251396,441 Q642.2290502793296,453 624.7486033519554,486.32105263157894 Q607.268156424581,519.6421052631579 603.1061452513966,588.6631578947369 Q598.9441340782123,657.6842105263158 620.586592178771,731.2789473684211 Q642.2290502793296,804.8736842105263 673.8603351955308,837.3052631578947 Q705.4916201117319,869.7368421052631 758.7653631284916,886.3684210526316 Q812.0391061452514,903 829.5195530726257,893.8526315789474 Q847,884.7052631578947 841.5893854748604,830.2368421052631 Q841.5893854748604,830.2368421052631 836.1787709497207,775.7684210526315"/><circle style="--d: 5s" class="g5" cx="233" cy="498" r="16"/><path style="--d: 5s;" class="g5" d="M318.68,429.456 L398.68,502.456"/><circle style="--d: 6s" class="g6" cx="511" cy="444" r="16"/><path style="--d: 6s;" class="g6" d="M415,444 Q425.5,462.5 421.0625,466.75 Q394.4375,492.25 390,496.5"/><circle style="--d: 7s" class="g7" cx="141" cy="649" r="16"/><path style="--d: 7s;" class="g7" d="M141,745 Q201,757 250.375,748.75 Q546.625,699.25 596,691"/><circle style="--d: 8s" class="g8" cx="364" cy="470" r="16"/><path style="--d: 8s;" class="g8" d="M268,470 Q312,511 311,563 Q305,875 304,927"/><circle style="--d: 9s" class="g9" cx="375" cy="649" r="16"/><path style="--d: 9s;" class="g9" d="M460.68,717.544 Q346.68,853.544 330.68,863.794 Q234.68,925.294 218.68,935.544"/><circle style="--d: 10s" class="g10" cx="468" cy="699" r="16"/><path style="--d: 10s;" class="g10" d="M553.68,630.456 Q638.68,681.456 642.805,688.831 Q667.555,733.081 671.68,740.456"/></g></svg>