<!--
  Stroke-order data for 氶, derived from AnimCJK (https://github.com/parsimonhi/animCJK),
  itself derived from the Arphic PL KaitiM fonts. Distributed under the Arphic Public License
  (see ARPHICPL.TXT). Regenerated by scripts/build-strokes.ts — do not edit by hand.
-->
<svg id="z27702" class="acjk" viewBox="0 0 1024 1024" xmlns="http://www.w3.org/2000/svg">
<g class="glyph"><path id="z27702d1" d="M515 325C611 251 674 213 704 206C718 202 723 192 720 180C717 167 692 146 642 118C627 109 611 109 594 116C541 136 475 158 396 183C375 189 339 192 289 192C271 191 264 200 273 215C278 224 289 232 304 241C327 254 349 247 377 236C507 181 580 163 592 168C600 171 606 180 601 188C569 228 533 262 495 308C490 315 508 330 515 325Z"/><path id="z27702d2" d="M538 458C530 375 527 357 515 325C512 317 503 311 495 308C474 301 451 295 444 305C439 311 444 317 452 327C490 380 507 505 492 713C485 801 463 845 439 845C425 845 397 838 357 829C351 827 346 828 346 831C344 833 347 838 353 844C391 882 420 914 441 942C447 950 453 954 458 954C466 953 478 946 495 931C529 898 547 849 551 786C552 759 557 668 543 513C540 476 540 476 538 458Z"/><path id="z27702d3" d="M131 470C122 471 117 474 117 480C116 484 121 489 132 495C165 511 191 513 211 506C260 487 295 478 316 472C341 463 343 475 336 493C279 621 180 727 80 798C69 805 67 811 74 813C80 814 91 812 107 806C251 746 346 615 410 502C418 486 426 473 434 467C444 458 446 451 441 444C434 435 417 428 392 417C373 408 350 415 316 430C269 449 206 459 131 470Z"/><path id="z27702d4" d="M607 525C700 467 772 415 813 398C826 391 833 387 831 379C826 364 817 349 802 334C786 317 768 307 750 306C737 304 731 314 732 331C732 367 711 391 596 513C592 517 603 528 607 525Z"/><path id="z27702d5" d="M596 513C576 491 562 478 538 458C524 447 530 500 543 513C571 545 602 585 636 633C666 675 704 715 744 760C756 773 770 782 790 784C848 788 902 789 952 787C976 785 989 782 988 775C986 770 927 745 815 696C748 667 682 606 607 525C600 517 600 517 596 513Z"/></g>
<defs><clipPath id="z27702c1"><use href="#z27702d1"/></clipPath>
	<clipPath id="z27702c2"><use href="#z27702d2"/></clipPath>
	<clipPath id="z27702c3"><use href="#z27702d3"/></clipPath>
	<clipPath id="z27702c4"><use href="#z27702d4"/></clipPath>
	<clipPath id="z27702c5"><use href="#z27702d5"/></clipPath><marker id="guide-arrow" viewBox="0 0 16 16" refX="5" refY="5" markerWidth="4" markerHeight="4" orient="auto-start-reverse"><path d="M 0 0 L 10 5 L 0 10 z" fill="inherit"/></marker></defs>
<g class="strokes"><path pathLength="3333" clip-path="url(#z27702c1)" d="M277 203L338 219L621 146L664 189L500 318"/><path pathLength="3333" clip-path="url(#z27702c2)" d="M447 305L490 338L511 425L517 783L498 852L450 900L354 834"/><path pathLength="3333" clip-path="url(#z27702c3)" d="M122 478L200 484L349 442L391 466L256 670L79 806"/><path pathLength="3333" clip-path="url(#z27702c4)" d="M743 309L776 375L602 519"/><path pathLength="3333" clip-path="url(#z27702c5)" d="M536 465L665 626L783 733L979 776"/></g>
<g class="guides"><text class="g1" style="--gs:1" x="277" y="203">①</text><path class="g1 aligned" style="--gs:1" d="M277,203 Q338,219 479.5,182.5 Q621,146 642.5,167.5 Q664,189 582,253.5 Q582,253.5 500,318"/><path class="g1 offset" style="--gs:1" d="M277,299 Q307.5,315 378.25,278.5 Q449,242 459.75,263.5 Q470.5,285 429.5,349.5 Q429.5,349.5 388.5,414"/><text class="g2" style="--gs:2" x="447" y="305">②</text><path class="g2 aligned" style="--gs:2" d="M447,305 Q490,338 500.5,381.5 Q511,425 514,604 Q517,783 507.5,817.5 Q498,852 474,876 Q450,900 402,867 Q402,867 354,834"/><path class="g2 offset" style="--gs:2" d="M351,305 Q372.5,332.68 377.75,369.16 Q383,405.64 384.5,555.76 Q386,705.88 381.25,734.81 Q376.5,763.74 364.5,783.87 Q352.5,804 328.5,776.32 Q328.5,776.32 304.5,748.65"/><text class="g3" style="--gs:3" x="122" y="478">③</text><path class="g3 aligned" style="--gs:3" d="M122,478 Q200,484 274.5,463 Q349,442 370,454 Q391,466 323.5,568 Q256,670 167.5,738 Q167.5,738 79,806"/><path class="g3 offset" style="--gs:3" d="M26,574 Q65,577 102.25,566.5 Q139.5,556 150,562 Q160.5,568 126.75,619 Q93,670 48.75,704 Q48.75,704 4.5,738"/><text class="g4" style="--gs:4" x="743" y="309">④</text><path class="g4 aligned" style="--gs:4" d="M743,309 Q776,375 754.25,393 Q623.75,501 602,519"/><path class="g4 offset" style="--gs:4" d="M647,309 Q663.5,344.83 652.63,354.6 Q587.38,413.23 576.5,423"/><text class="g5" style="--gs:5" x="536" y="465">⑤</text><path class="g5 aligned" style="--gs:5" d="M536,465 Q665,626 694.5,652.75 Q783,733 832,743.75 Q930,765.25 979,776"/><path class="g5 offset" style="--gs:5" d="M621.68,396.46 Q725.73,543.24 749.52,567.63 Q820.91,640.8 860.43,650.6 Q939.48,670.2 979,680"/></g>
</svg>
