<svg id="z27703" class="acjk" viewBox="0 0 1024 1024" xmlns="http://www.w3.org/2000/svg">
<style>

@keyframes zk {
	to {
		stroke-dashoffset:0;
	}
}
svg.acjk path[clip-path] {
	--t:0.8s;
	animation:zk var(--t) linear forwards var(--d);
	stroke-dasharray:3337;
	stroke-dashoffset:3339;
	stroke-width:128;
	stroke-linecap:round;
	fill:none;
	stroke:#000;
}
svg.acjk path[id] {fill:#ccc;}


    @keyframes guide-fade {
        0% { opacity: 0; }
        3% { opacity: 1; }
        95% { opacity: 1; }
        100% { opacity: 0; }
    }

    svg.acjk #guide-arrow {
        fill: #f77;
    }

    svg.acjk .guides {
        circle {
            fill: #0f6;
        }

        path {
            opacity: 0;
            animation: guide-fade var(--t) linear forwards var(--d);
            stroke-width: 16px;
            stroke-linecap: round;
            stroke: #f77;
            fill: none;
            marker-end: url(#guide-arrow);
        }

        circle,
        path {
            --t: 0.8s;
            opacity: 0;
            animation: guide-fade calc(var(--t) + 0.4s) ease-in-out forwards calc(var(--d) - 0.2s);
        }
    }
</style>
<path id="z27703d1" d="M535 394Q538 201 560 138Q578 107 520 83Q486 64 465 70Q447 77 463 101Q485 129 486 164Q490 203 478 779Q477 803 463 812Q454 819 432 812Q407 806 382 801Q348 789 351 800Q352 807 373 822Q440 876 457 905Q476 941 493 942Q508 943 524 907Q543 859 541 783Q531 606 534 430C535 406 535 406 535 394Z"/>
<path id="z27703d2" d="M268 314Q325 371 363 384Q381 385 390 370Q397 354 392 335Q374 287 305 274Q266 261 249 268Q242 271 246 285Q249 298 268 314Z"/>
<path id="z27703d3" d="M117 499Q104 499 102 508Q101 515 117 523Q163 548 192 537Q309 503 320 505Q333 508 323 535Q280 644 240 695Q200 753 126 814Q111 827 122 829Q132 830 153 820Q220 786 275 728Q327 676 394 538Q404 516 416 503Q431 491 422 481Q412 468 374 455Q353 445 305 466Q215 488 117 499Z"/>
<path id="z27703d4" d="M590 454Q630 424 766 316Q787 297 814 285Q838 273 825 253Q809 234 779 219Q752 204 738 208Q723 209 729 225Q735 261 659 347Q620 392 577 441C573 445 585 458 590 454Z"/>
<path id="z27703d5" d="M577 441Q555 416 535 394C527 386 528 420 534 430Q756 739 817 740Q898 731 967 725Q995 722 996 715Q997 708 964 695Q810 647 753 605Q690 554 590 454C581 445 581 445 577 441Z"/>
<defs>
	<clipPath id="z27703c1"><use href="#z27703d1"/></clipPath>
	<clipPath id="z27703c2"><use href="#z27703d2"/></clipPath>
	<clipPath id="z27703c3"><use href="#z27703d3"/></clipPath>
	<clipPath id="z27703c4"><use href="#z27703d4"/></clipPath>
	<clipPath id="z27703c5"><use href="#z27703d5"/></clipPath>
<marker id="guide-arrow" viewBox="0 0 16 16" refX="5" refY="5" markerWidth="4" markerHeight="4" orient="auto-start-reverse"><path d="M 0 0 L 10 5 L 0 10 z" fill="inherit"/></marker></defs>
<path style="--d:1s;" pathLength="3333" clip-path="url(#z27703c1)" d="M462 78L524 134L509 798L477 890L363 805"/>
<path style="--d:2s;" pathLength="3333" clip-path="url(#z27703c2)" d="M249 276L385 372"/>
<path style="--d:3s;" pathLength="3333" clip-path="url(#z27703c3)" d="M111 507L183 515L324 481L375 501L272 694L126 821"/>
<path style="--d:4s;" pathLength="3333" clip-path="url(#z27703c4)" d="M735 216L771 273L581 445"/>
<path style="--d:5s;" pathLength="3333" clip-path="url(#z27703c5)" d="M534 398L772 664L838 699L987 713"/>
<g class="guides"><circle style="--d: 1s" class="g1" cx="462" cy="78" r="16"/><path style="--d: 1s;" class="g1" d="M366,78 Q397,127.37931034482759 393.25,420.12807881773404 Q389.5,712.8768472906404 381.5,753.4384236453202 Q373.5,794 345,756.5246305418719 Q345,756.5246305418719 316.5,719.0492610837439"/><circle style="--d: 2s" class="g2" cx="249" cy="276" r="16"/><path style="--d: 2s;" class="g2" d="M334.68,207.45600000000002 L470.68,303.456"/><circle style="--d: 3s" class="g3" cx="111" cy="507" r="16"/><path style="--d: 3s;" class="g3" d="M111,603 Q156.8181818181818,611 201.6818181818182,594 Q246.54545454545456,577 262.77272727272725,587 Q279,597 246.22727272727272,693.5 Q213.45454545454544,790 167,853.5 Q167,853.5 120.54545454545455,917"/><circle style="--d: 4s" class="g4" cx="735" cy="216" r="16"/><path style="--d: 4s;" class="g4" d="M639,216 Q657,249.1048034934498 645.125,261.59170305676855 Q573.875,336.5131004366812 562,349"/><circle style="--d: 5s" class="g5" cx="534" cy="398" r="16"/><path style="--d: 5s;" class="g5" d="M619.68,329.456 Q812.6649006622516,572.2709333333333 826.0441059602649,580.2582666666667 Q866.1817218543046,604.2202666666667 896.3862913907284,607.4152 Q956.7954304635762,613.8050666666667 987,617"/></g></svg>