<!--
  Stroke-order data for 汁, derived from AnimCJK (https://github.com/parsimonhi/animCJK),
  itself derived from the Arphic PL KaitiM fonts. Distributed under the Arphic Public License
  (see ARPHICPL.TXT). Regenerated by scripts/build-strokes.ts — do not edit by hand.
-->
<svg id="z27713" class="acjk" viewBox="0 0 1024 1024" xmlns="http://www.w3.org/2000/svg">
<g class="glyph"><path style="--part:1" id="z27713d1" d="M271 168C287 181 305 198 325 218C335 227 347 232 359 232C367 231 372 225 376 215C379 204 378 186 371 165C363 143 326 127 265 113C252 110 244 110 240 113C235 115 233 121 236 132C237 139 249 151 271 168Z"/><path style="--part:1" id="z27713d2" d="M143 338C184 380 212 409 237 418C246 421 256 417 263 407C268 398 269 387 267 376C258 345 220 318 157 297C144 292 136 293 130 295C125 296 123 300 125 310C125 318 132 326 143 338Z"/><path style="--part:1" id="z27713d3" d="M156 704C148 709 143 713 147 727C161 778 180 796 203 808C228 821 228 799 229 783C229 752 263 650 323 465C332 420 317 430 300 462C216 621 195 674 156 704Z"/><path style="--part:2" id="z27713d4" d="M657 395C711 386 785 381 859 380C899 379 921 376 925 369C928 360 923 350 912 343C870 312 833 309 801 319C763 330 715 340 658 351C619 358 619 358 599 362C528 375 452 388 372 401C357 403 354 410 367 421C387 439 420 443 460 433C502 421 548 411 599 404C638 398 638 398 657 395Z"/><path style="--part:2" id="z27713d5" d="M599 404C599 450 598 494 599 535C599 764 602 883 607 894C618 920 629 911 636 898C647 873 654 752 655 535C655 483 656 436 657 395C658 366 658 366 658 351C660 233 668 162 683 138C689 128 683 115 669 105C652 91 629 79 599 73C561 65 551 89 568 104C585 120 597 138 598 161C599 208 599 276 599 362C599 390 599 390 599 404Z"/></g>
<defs><clipPath id="z27713c1"><use href="#z27713d1"/></clipPath>
	<clipPath id="z27713c2"><use href="#z27713d2"/></clipPath>
	<clipPath id="z27713c3"><use href="#z27713d3"/></clipPath>
	<clipPath id="z27713c4"><use href="#z27713d4"/></clipPath>
	<clipPath id="z27713c5"><use href="#z27713d5"/></clipPath><marker id="guide-arrow" viewBox="0 0 16 16" refX="5" refY="5" markerWidth="4" markerHeight="4" orient="auto-start-reverse"><path d="M 0 0 L 10 5 L 0 10 z" fill="inherit"/></marker></defs>
<g class="strokes"><path style="--part:1" pathLength="3333" clip-path="url(#z27713c1)" d="M238 120L335 176L362 227"/><path style="--part:1" pathLength="3333" clip-path="url(#z27713c2)" d="M131 300L256 409"/><path style="--part:1" pathLength="3333" clip-path="url(#z27713c3)" d="M150 719L209 757L319 440"/><path style="--part:2" pathLength="3333" clip-path="url(#z27713c4)" d="M367 409L819 348L921 357"/><path style="--part:2" pathLength="3333" clip-path="url(#z27713c5)" d="M565 85L641 139L621 904"/></g>
<g class="guides"><text class="g1" style="--gs:1" x="238" y="120">①</text><path class="g1 aligned" style="--gs:1" d="M238,120 Q335,176 338.38,182.38 Q358.63,220.63 362,227"/><path class="g1 offset" style="--gs:1" d="M238,216 Q286.5,244 288.19,247.19 Q298.31,266.31 300,269.5"/><text class="g2" style="--gs:2" x="131" y="300">②</text><path class="g2 aligned" style="--gs:2" d="M131,300 L256,409"/><path class="g2 offset" style="--gs:2" d="M216.68,231.46 L341.68,340.46"/><text class="g3" style="--gs:3" x="150" y="719">③</text><path class="g3 aligned" style="--gs:3" d="M150,719 Q209,757 222.75,717.38 Q305.25,479.63 319,440"/><path class="g3 offset" style="--gs:3" d="M81.46,650.46 Q140.46,680.24 154.21,649.18 Q236.71,462.84 250.46,431.78"/><text class="g4" style="--gs:4" x="367" y="409">④</text><path class="g4 aligned" style="--gs:4" d="M367,409 Q819,348 831.75,349.13 Q908.25,355.88 921,357"/><path class="g4 offset" style="--gs:4" d="M367,505 Q819,444 831.75,445.13 Q908.25,451.88 921,453"/><text class="g5" style="--gs:5" x="565" y="85">⑤</text><path class="g5 aligned" style="--gs:5" d="M565,85 Q641,139 638.5,234.63 Q623.5,808.38 621,904"/><path class="g5 offset" style="--gs:5" d="M469,85 Q545,139 542.5,234.63 Q527.5,808.38 525,904"/></g>
<g class="parts"><rect data-part="2" data-literal="十" role="button" tabindex="0" aria-label="Part 十" x="295" y="13" width="698" height="963"/><rect data-part="1" data-literal="氵" data-radical="true" role="button" tabindex="0" aria-label="Part 氵 (radical)" x="59" y="48" width="375" height="781"/></g>
</svg>
