<svg id="z27798" class="acjk" viewBox="0 0 1024 1024" xmlns="http://www.w3.org/2000/svg">
<style>

@keyframes zk {
	to {
		stroke-dashoffset:0;
	}
}
svg.acjk path[clip-path] {
	--t:0.8s;
	animation:zk var(--t) linear forwards var(--d);
	stroke-dasharray:3337;
	stroke-dashoffset:3339;
	stroke-width:128;
	stroke-linecap:round;
	fill:none;
	stroke:#000;
}
svg.acjk path[id] {fill:#ccc;}


    @keyframes guide-fade {
        0% { opacity: 0; }
        3% { opacity: 1; }
        95% { opacity: 1; }
        100% { opacity: 0; }
    }

    svg.acjk #guide-arrow {
        fill: #f77;
    }

    svg.acjk .guides {
        circle {
            fill: #0f6;
        }

        path {
            opacity: 0;
            animation: guide-fade var(--t) linear forwards var(--d);
            stroke-width: 16px;
            stroke-linecap: round;
            stroke: #f77;
            fill: none;
            marker-end: url(#guide-arrow);
        }

        circle,
        path {
            --t: 0.8s;
            opacity: 0;
            animation: guide-fade calc(var(--t) + 0.4s) ease-in-out forwards calc(var(--d) - 0.2s);
        }
    }
</style>
<path id="z27798d1" d="M249 203C262 216 274 232 288 249C298 261 310 267 324 267C332 267 339 261 344 251C348 239 349 220 343 196C338 177 304 159 247 143C234 139 225 137 220 140C215 142 212 149 214 161C215 169 229 183 249 203Z"/>
<path id="z27798d2" d="M131 384C160 420 183 447 207 457C217 461 227 456 234 447C239 438 242 427 240 414C237 395 227 381 215 372C201 361 178 351 147 342C134 337 124 337 118 339C113 340 112 344 113 354C114 362 121 371 131 384Z"/>
<path id="z27798d3" d="M137 735C130 739 125 745 129 757C143 809 163 838 185 850C190 853 195 855 204 853C208 851 210 843 211 825C211 799 239 696 295 517C298 506 300 498 300 494C299 487 295 485 289 491C282 496 274 505 268 517C234 578 203 636 175 690C167 704 157 721 137 735Z"/>
<path id="z27798d4" d="M414 325C405 321 389 317 366 316C357 315 351 316 349 320C344 324 346 332 353 344C378 388 400 448 418 525C423 547 430 566 445 581C459 595 468 597 471 586C472 578 474 569 473 559C470 535 470 535 469 523C467 508 434 386 432 358C430 346 426 330 414 325Z"/>
<path id="z27798d5" d="M810 479C818 455 827 432 835 410C845 379 863 354 886 333C901 317 897 302 878 288C858 274 839 261 821 249C808 241 795 241 779 247C734 262 657 277 638 281C597 288 597 288 577 292C545 297 490 309 414 325C402 327 420 363 432 358C498 338 546 328 577 323C617 316 617 316 637 313C673 307 716 301 766 295C776 293 783 295 787 301C796 317 784 373 748 471C740 490 802 498 810 479Z"/>
<path id="z27798d6" d="M636 533C688 525 749 518 819 512C825 511 830 508 831 502C831 497 824 489 810 479C794 466 768 467 748 471C719 479 672 489 636 496C597 503 597 503 578 506C539 512 503 518 469 523C457 525 461 561 473 559C488 556 541 546 578 541C617 536 617 536 636 533Z"/>
<path id="z27798d7" d="M578 541C578 797 582 933 592 951C592 951 592 953 595 956C605 966 615 964 621 949C630 920 636 781 636 533C636 508 636 508 636 496C636 425 635 364 637 313C638 292 638 292 638 281C640 193 649 138 662 116C668 104 661 92 647 82C628 68 604 57 574 50C559 46 548 49 539 59C532 65 533 73 542 81C562 98 574 118 576 144C577 182 577 232 577 292C577 313 577 313 577 323C577 373 578 444 578 506C578 529 578 529 578 541Z"/>
<defs>
	<clipPath id="z27798c1"><use href="#z27798d1"/></clipPath>
	<clipPath id="z27798c2"><use href="#z27798d2"/></clipPath>
	<clipPath id="z27798c3"><use href="#z27798d3"/></clipPath>
	<clipPath id="z27798c4"><use href="#z27798d4"/></clipPath>
	<clipPath id="z27798c5"><use href="#z27798d5"/></clipPath>
	<clipPath id="z27798c6"><use href="#z27798d6"/></clipPath>
	<clipPath id="z27798c7"><use href="#z27798d7"/></clipPath>
<marker id="guide-arrow" viewBox="0 0 16 16" refX="5" refY="5" markerWidth="4" markerHeight="4" orient="auto-start-reverse"><path d="M 0 0 L 10 5 L 0 10 z" fill="inherit"/></marker></defs>
<path style="--d:1s;" pathLength="3333" clip-path="url(#z27798c1)" d="M223 149L337 256"/>
<path style="--d:2s;" pathLength="3333" clip-path="url(#z27798c2)" d="M119 346L227 450"/>
<path style="--d:3s;" pathLength="3333" clip-path="url(#z27798c3)" d="M135 746L184 802L293 494"/>
<path style="--d:4s;" pathLength="3333" clip-path="url(#z27798c4)" d="M353 324L399 365L458 588"/>
<path style="--d:5s;" pathLength="3333" clip-path="url(#z27798c5)" d="M421 326L800 272L842 321L779 468L759 470"/>
<path style="--d:6s;" pathLength="3333" clip-path="url(#z27798c6)" d="M476 530L825 500"/>
<path style="--d:7s;" pathLength="3333" clip-path="url(#z27798c7)" d="M539 65L618 116L610 956"/>
<g class="guides"><circle style="--d: 1s" class="g1" cx="223" cy="149" r="16"/><path style="--d: 1s;" class="g1" d="M308.68,80.456 L422.68,187.45600000000002"/><circle style="--d: 2s" class="g2" cx="119" cy="346" r="16"/><path style="--d: 2s;" class="g2" d="M204.68,277.456 L312.68,381.456"/><circle style="--d: 3s" class="g3" cx="135" cy="746" r="16"/><path style="--d: 3s;" class="g3" d="M66.456,677.456 Q115.456,720.9934545454546 129.08100000000002,691.0614545454546 Q210.83100000000002,511.4694545454546 224.45600000000002,481.5374545454546"/><circle style="--d: 4s" class="g4" cx="353" cy="324" r="16"/><path style="--d: 4s;" class="g4" d="M438.68,255.45600000000002 Q484.68,296.456 492.055,324.331 Q536.305,491.581 543.68,519.456"/><circle style="--d: 5s" class="g5" cx="421" cy="326" r="16"/><path style="--d: 5s;" class="g5" d="M421,422 Q691.9714964370546,368 699.478622327791,380.25 Q722,417 708.9519002375297,430 Q682.855700712589,456 669.8076009501187,469"/><circle style="--d: 6s" class="g6" cx="476" cy="530" r="16"/><path style="--d: 6s;" class="g6" d="M476,626 L825,596"/><circle style="--d: 7s" class="g7" cx="539" cy="65" r="16"/><path style="--d: 7s;" class="g7" d="M443,65 Q522,116 521,221 Q515,851 514,956"/></g></svg>