<!--
  Stroke-order data for 洗, derived from AnimCJK (https://github.com/parsimonhi/animCJK),
  itself derived from the Arphic PL KaitiM fonts. Distributed under the Arphic Public License
  (see ARPHICPL.TXT). Regenerated by scripts/build-strokes.ts — do not edit by hand.
-->
<svg id="z27927" class="acjk" viewBox="0 0 1024 1024" xmlns="http://www.w3.org/2000/svg">
<g class="glyph"><path style="--part:1" id="z27927d1" d="M226 237C244 252 262 270 281 289C291 299 302 303 314 303C322 302 328 297 332 287C335 276 335 259 328 237C320 212 284 194 221 182C209 179 200 178 196 181C191 183 189 190 192 200C193 208 206 220 226 237Z"/><path style="--part:1" id="z27927d2" d="M135 438C170 473 198 498 224 505C234 507 244 501 250 492C255 482 255 470 252 458C241 423 206 403 149 395C148 394 147 394 146 394C133 391 124 392 117 395C112 396 111 400 114 410C116 418 124 427 135 438Z"/><path style="--part:1" id="z27927d3" d="M135 750C127 754 122 759 125 771C135 821 153 850 176 863C181 866 186 868 193 867C197 865 199 857 201 840C204 809 237 711 298 544C301 533 303 526 303 522C302 515 299 514 293 519C287 523 246 585 173 708C164 721 153 738 135 750Z"/><path style="--part:2" id="z27927d4" d="M475 314C485 295 495 278 506 263C512 254 510 244 500 237C470 216 446 208 430 212C423 213 420 220 423 230C433 276 419 333 373 396C369 401 356 417 344 436C337 445 341 449 352 446C360 443 371 438 383 428C415 400 443 370 462 337C471 322 471 322 475 314Z"/><path style="--part:2" id="z27927d5" d="M632 333C735 312 785 294 787 293C793 287 794 281 791 276C786 268 774 261 754 257C733 252 712 255 692 264C673 271 654 277 635 283C599 293 599 293 581 298C549 306 513 309 475 314C466 315 454 332 462 337C472 343 485 348 502 351C515 353 535 352 582 343C615 336 615 336 632 333Z"/><path style="--part:2" id="z27927d6" d="M623 480C625 429 629 380 632 333C634 300 634 300 635 283C638 229 642 174 656 120C658 111 653 101 639 93C615 78 593 72 577 69C566 66 557 67 552 74C547 79 546 88 553 98C568 121 576 140 577 156C579 189 580 279 581 298C582 328 582 328 582 343C583 389 580 437 578 488C578 503 623 495 623 480Z"/><path style="--part:2" id="z27927d7" d="M644 514C709 504 782 502 861 502C873 501 881 498 884 493C887 485 883 476 873 469C835 444 798 441 762 451C723 461 677 470 623 480C593 485 593 485 578 488C503 501 423 513 339 527C326 529 324 535 334 545C342 553 353 559 365 562C377 564 388 564 399 561C471 538 539 528 601 520C630 516 630 516 644 514Z"/><path style="--part:2" id="z27927d8" d="M480 575C486 667 419 768 280 879C274 883 274 887 279 889C296 896 333 876 392 836C443 800 489 740 529 654C535 639 543 626 552 613C556 606 558 600 555 595C551 588 539 578 521 567C508 558 498 555 492 557C483 558 479 565 480 575Z"/><path style="--part:2" id="z27927d9" d="M983 823C974 805 964 769 956 715C954 704 953 697 949 694C945 691 941 696 938 708C919 766 903 804 890 821C881 831 865 839 842 845C787 857 736 856 692 840C673 833 663 822 659 812C641 773 643 687 668 555C671 536 664 523 644 514C632 507 596 507 601 520C608 536 614 578 612 603C601 721 603 797 612 831C615 845 622 859 636 871C678 907 755 919 866 905C876 903 886 900 897 898C923 891 950 880 977 862C990 852 991 839 983 823Z"/></g>
<defs><clipPath id="z27927c1"><use href="#z27927d1"/></clipPath>
	<clipPath id="z27927c2"><use href="#z27927d2"/></clipPath>
	<clipPath id="z27927c3"><use href="#z27927d3"/></clipPath>
	<clipPath id="z27927c4"><use href="#z27927d4"/></clipPath>
	<clipPath id="z27927c5"><use href="#z27927d5"/></clipPath>
	<clipPath id="z27927c6"><use href="#z27927d6"/></clipPath>
	<clipPath id="z27927c7"><use href="#z27927d7"/></clipPath>
	<clipPath id="z27927c8"><use href="#z27927d8"/></clipPath>
	<clipPath id="z27927c9"><use href="#z27927d9"/></clipPath><marker id="guide-arrow" viewBox="0 0 16 16" refX="5" refY="5" markerWidth="4" markerHeight="4" orient="auto-start-reverse"><path d="M 0 0 L 10 5 L 0 10 z" fill="inherit"/></marker></defs>
<g class="strokes"><path style="--part:1" pathLength="3333" clip-path="url(#z27927c1)" d="M199 188L328 291"/><path style="--part:1" pathLength="3333" clip-path="url(#z27927c2)" d="M118 401L241 495"/><path style="--part:1" pathLength="3333" clip-path="url(#z27927c3)" d="M134 761L174 812L298 525"/><path style="--part:2" pathLength="3333" clip-path="url(#z27927c4)" d="M431 218L465 252L460 278L410 375L348 438"/><path style="--part:2" pathLength="3333" clip-path="url(#z27927c5)" d="M467 334L786 278"/><path style="--part:2" pathLength="3333" clip-path="url(#z27927c6)" d="M556 77L614 127L591 485"/><path style="--part:2" pathLength="3333" clip-path="url(#z27927c7)" d="M333 534L380 542L778 475L880 482"/><path style="--part:2" pathLength="3333" clip-path="url(#z27927c8)" d="M488 565L517 610L466 719L389 811L287 882"/><path style="--part:2" pathLength="3333" clip-path="url(#z27927c9)" d="M607 522L639 550L631 806L669 860L788 882L903 859L947 819L948 704"/></g>
<g class="guides"><text class="g1" style="--gs:1" x="199" y="188">①</text><path class="g1 aligned" style="--gs:1" d="M199,188 L328,291"/><path class="g1 offset" style="--gs:1" d="M284.68,119.46 L413.68,222.46"/><text class="g2" style="--gs:2" x="118" y="401">②</text><path class="g2 aligned" style="--gs:2" d="M118,401 L241,495"/><path class="g2 offset" style="--gs:2" d="M203.68,332.46 L326.68,426.46"/><text class="g3" style="--gs:3" x="134" y="761">③</text><path class="g3 aligned" style="--gs:3" d="M134,761 Q174,812 189.5,776.13 Q282.5,560.88 298,525"/><path class="g3 offset" style="--gs:3" d="M65.46,692.46 Q105.46,731.28 120.96,703.97 Q213.96,540.13 229.46,512.82"/><text class="g4" style="--gs:4" x="431" y="218">④</text><path class="g4 aligned" style="--gs:4" d="M431,218 Q465,252 462.5,265 Q460,278 435,326.5 Q410,375 379,406.5 Q379,406.5 348,438"/><path class="g4 offset" style="--gs:4" d="M335,218 Q352,237.16 350.75,244.49 Q349.5,251.82 337,279.15 Q324.5,306.49 309,324.25 Q309,324.25 293.5,342"/><text class="g5" style="--gs:5" x="467" y="334">⑤</text><path class="g5 aligned" style="--gs:5" d="M467,334 L786,278"/><path class="g5 offset" style="--gs:5" d="M467,430 L786,374"/><text class="g6" style="--gs:6" x="556" y="77">⑥</text><path class="g6 aligned" style="--gs:6" d="M556,77 Q614,127 611.13,171.75 Q593.88,440.25 591,485"/><path class="g6 offset" style="--gs:6" d="M460,77 Q518,127 515.13,171.75 Q497.88,440.25 495,485"/><text class="g7" style="--gs:7" x="333" y="534">⑦</text><path class="g7 aligned" style="--gs:7" d="M333,534 Q380,542 479.5,525.25 Q778,475 803.5,476.75 Q854.5,480.25 880,482"/><path class="g7 offset" style="--gs:7" d="M333,630 Q380,638 479.5,621.25 Q778,571 803.5,572.75 Q854.5,576.25 880,578"/><text class="g8" style="--gs:8" x="488" y="565">⑧</text><path class="g8 aligned" style="--gs:8" d="M488,565 Q517,610 491.5,664.5 Q466,719 427.5,765 Q389,811 338,846.5 Q338,846.5 287,882"/><path class="g8 offset" style="--gs:8" d="M392,565 Q408.9,596.37 394.04,634.37 Q379.18,672.36 356.75,704.43 Q334.32,736.5 304.61,761.25 Q304.61,761.25 274.9,786"/><text class="g9" style="--gs:9" x="607" y="522">⑨</text><path class="g9 aligned" style="--gs:9" d="M607,522 Q639,550 635,678 Q631,806 650,833 Q669,860 728.5,871 Q788,882 845.5,870.5 Q903,859 925,839 Q947,819 947.5,761.5 Q947.5,761.5 948,704"/><path class="g9 offset" style="--gs:9" d="M675.54,453.46 Q692.1,481.46 690.03,609.46 Q687.96,737.46 697.8,764.46 Q707.63,791.46 738.42,802.46 Q769.21,813.46 798.96,801.96 Q828.71,790.46 840.1,770.46 Q851.48,750.46 851.74,692.96 Q851.74,692.96 852,635.46"/></g>
<g class="parts"><rect data-part="2" data-literal="先" role="button" tabindex="0" aria-label="Part 先" x="215" y="5" width="805" height="949"/><rect data-part="1" data-literal="氵" data-radical="true" role="button" tabindex="0" aria-label="Part 氵 (radical)" x="46" y="116" width="354" height="768"/></g>
</svg>
