<svg id="z27931" class="acjk" viewBox="0 0 1024 1024" xmlns="http://www.w3.org/2000/svg">
<style>

@keyframes zk {
	to {
		stroke-dashoffset:0;
	}
}
svg.acjk path[clip-path] {
	--t:0.8s;
	animation:zk var(--t) linear forwards var(--d);
	stroke-dasharray:3337;
	stroke-dashoffset:3339;
	stroke-width:128;
	stroke-linecap:round;
	fill:none;
	stroke:#000;
}
svg.acjk path[id] {fill:#ccc;}


    @keyframes guide-fade {
        0% { opacity: 0; }
        3% { opacity: 1; }
        95% { opacity: 1; }
        100% { opacity: 0; }
    }

    svg.acjk #guide-arrow {
        fill: #f77;
    }

    svg.acjk .guides {
        circle {
            fill: #0f6;
        }

        path {
            opacity: 0;
            animation: guide-fade var(--t) linear forwards var(--d);
            stroke-width: 16px;
            stroke-linecap: round;
            stroke: #f77;
            fill: none;
            marker-end: url(#guide-arrow);
        }

        circle,
        path {
            --t: 0.8s;
            opacity: 0;
            animation: guide-fade calc(var(--t) + 0.4s) ease-in-out forwards calc(var(--d) - 0.2s);
        }
    }
</style>
<path id="z27931d1" d="M242 186C263 200 283 218 305 237C315 246 327 249 339 249C347 248 353 242 356 232C358 220 355 203 348 181C343 167 329 153 305 147C249 131 216 128 208 133C203 135 202 142 205 152C207 160 220 171 242 186Z"/>
<path id="z27931d2" d="M139 380C174 410 204 436 234 445C244 448 254 442 259 432C263 422 262 411 259 400C249 371 220 352 174 343C145 337 128 336 121 339C116 340 115 344 118 354C120 362 127 370 139 380Z"/>
<path id="z27931d3" d="M121 718C114 722 109 727 111 739C118 787 135 816 159 832C164 835 169 837 177 836C181 834 183 826 185 810C188 781 223 683 289 516C293 505 295 498 295 494C294 487 291 486 285 491C272 499 231 561 161 677C152 690 140 705 121 718Z"/>
<path id="z27931d4" d="M535 223C562 184 580 156 596 142C602 135 603 127 601 119C598 110 588 98 570 84C553 71 538 65 527 66C514 66 510 74 516 88C527 116 506 172 451 256C425 294 395 336 359 379C353 385 348 390 347 394C344 400 347 404 357 403C369 401 399 381 440 337C452 324 452 324 458 317C479 293 502 267 519 245C530 230 530 230 535 223Z"/>
<path id="z27931d5" d="M613 428C645 389 678 346 712 299C726 278 746 257 772 237C782 228 784 222 782 215C779 208 757 197 713 178C700 172 683 178 657 190C619 206 577 215 535 223C526 225 511 240 519 245C539 259 574 256 627 241C640 236 650 239 655 245C658 249 653 259 645 275C624 313 600 353 571 393C556 414 556 414 548 424C486 506 395 583 290 669C279 677 280 683 291 683C297 683 317 673 351 657C388 638 428 610 471 574C509 541 548 504 586 460C604 439 604 439 613 428Z"/>
<path id="z27931d6" d="M586 460C632 504 685 561 758 615C767 621 780 622 796 622C855 618 909 612 958 602C982 596 993 591 991 585C989 580 926 567 806 536C748 520 682 485 613 428C585 405 585 405 571 393C554 379 538 364 523 350C500 329 478 318 458 317C449 316 432 334 440 337C462 347 498 376 548 424C573 448 573 448 586 460Z"/>
<path id="z27931d7" d="M457 672C449 667 433 663 412 659C403 657 397 656 395 660C390 664 391 672 397 684C416 725 431 780 440 848C442 868 447 885 459 899C472 914 479 917 483 907C485 898 489 886 488 873C487 860 486 847 485 835C478 775 470 728 468 706C466 694 468 677 457 672Z"/>
<path id="z27931d8" d="M723 818C743 764 766 730 791 711C805 699 806 684 795 672C784 660 758 645 722 626C710 619 678 626 627 641C579 654 522 663 457 672C445 674 456 708 468 706C608 686 671 673 683 678C695 682 696 700 694 711C685 747 676 779 666 809C659 827 716 836 723 818Z"/>
<path id="z27931d9" d="M488 873C502 873 526 869 736 858C744 857 748 853 750 847C750 841 741 831 723 818C708 806 685 805 666 809C604 819 540 830 485 835C473 837 475 873 488 873Z"/>
<defs>
	<clipPath id="z27931c1"><use href="#z27931d1"/></clipPath>
	<clipPath id="z27931c2"><use href="#z27931d2"/></clipPath>
	<clipPath id="z27931c3"><use href="#z27931d3"/></clipPath>
	<clipPath id="z27931c4"><use href="#z27931d4"/></clipPath>
	<clipPath id="z27931c5"><use href="#z27931d5"/></clipPath>
	<clipPath id="z27931c6"><use href="#z27931d6"/></clipPath>
	<clipPath id="z27931c7"><use href="#z27931d7"/></clipPath>
	<clipPath id="z27931c8"><use href="#z27931d8"/></clipPath>
	<clipPath id="z27931c9"><use href="#z27931d9"/></clipPath>
<marker id="guide-arrow" viewBox="0 0 16 16" refX="5" refY="5" markerWidth="4" markerHeight="4" orient="auto-start-reverse"><path d="M 0 0 L 10 5 L 0 10 z" fill="inherit"/></marker></defs>
<path style="--d:1s;" pathLength="3333" clip-path="url(#z27931c1)" d="M210 143L309 190L342 244"/>
<path style="--d:2s;" pathLength="3333" clip-path="url(#z27931c2)" d="M121 347L255 432"/>
<path style="--d:3s;" pathLength="3333" clip-path="url(#z27931c3)" d="M116 732L167 781L289 497"/>
<path style="--d:4s;" pathLength="3333" clip-path="url(#z27931c4)" d="M520 71L555 107L554 138L354 396"/>
<path style="--d:5s;" pathLength="3333" clip-path="url(#z27931c5)" d="M524 241L682 211L726 241L512 504L293 675"/>
<path style="--d:6s;" pathLength="3333" clip-path="url(#z27931c6)" d="M449 331L768 570L982 589"/>
<path style="--d:7s;" pathLength="3333" clip-path="url(#z27931c7)" d="M401 662L438 703L474 906"/>
<path style="--d:8s;" pathLength="3333" clip-path="url(#z27931c8)" d="M458 683L695 650L724 665L747 699L685 824"/>
<path style="--d:9s;" pathLength="3333" clip-path="url(#z27931c9)" d="M479 855L744 839"/>
<g class="guides"><circle style="--d: 1s" class="g1" cx="210" cy="143" r="16"/><path style="--d: 1s;" class="g1" d="M295.68,74.456 Q394.68,121.456 398.805,128.20600000000002 Q423.555,168.70600000000002 427.68,175.45600000000002"/><circle style="--d: 2s" class="g2" cx="121" cy="347" r="16"/><path style="--d: 2s;" class="g2" d="M206.68,278.456 L340.68,363.456"/><circle style="--d: 3s" class="g3" cx="116" cy="732" r="16"/><path style="--d: 3s;" class="g3" d="M47.456,663.456 Q98.456,700.6297464788732 113.706,673.6977464788732 Q205.20600000000002,512.1057464788732 220.45600000000002,485.1737464788732"/><circle style="--d: 4s" class="g4" cx="520" cy="71" r="16"/><path style="--d: 4s;" class="g4" d="M424,71 Q442.2835820895523,96.36615384615385 442.15298507462694,101.82692307692308 Q441.7611940298508,118.20923076923077 415.64179104477614,163.65692307692308 Q363.4029850746269,254.5523076923077 337.2835820895522,300"/><circle style="--d: 5s" class="g5" cx="524" cy="241" r="16"/><path style="--d: 5s;" class="g5" d="M428,337 Q515.9399538106236,319.41379310344826 528.1847575057736,328.2068965517241 Q540.4295612009238,337 480.8752886836028,414.08620689655174 Q421.32101616628177,491.17241379310343 360.3752886836028,541.2931034482758 Q360.3752886836028,541.2931034482758 299.4295612009238,591.4137931034483"/><circle style="--d: 6s" class="g6" cx="449" cy="331" r="16"/><path style="--d: 6s;" class="g6" d="M534.68,262.456 Q802.4006003752345,476.0219534883721 824.8505253283301,478.1442093023256 Q959.5500750469043,490.8777441860465 982,493"/><circle style="--d: 7s" class="g7" cx="401" cy="662" r="16"/><path style="--d: 7s;" class="g7" d="M486.68,593.456 Q523.68,634.456 528.18,659.831 Q555.18,812.081 559.68,837.456"/><circle style="--d: 8s" class="g8" cx="458" cy="683" r="16"/><path style="--d: 8s;" class="g8" d="M458,779 Q596.5916955017301,746 605.0709342560554,753.5 Q613.5501730103806,761 620.2750865051903,765.75 Q627,770.5 608.8719723183391,801.75 Q608.8719723183391,801.75 590.7439446366782,833"/><circle style="--d: 9s" class="g9" cx="479" cy="855" r="16"/><path style="--d: 9s;" class="g9" d="M479,951 L744,935"/></g></svg>