<!--
  Stroke-order data for 洞, derived from AnimCJK (https://github.com/parsimonhi/animCJK),
  itself derived from the Arphic PL KaitiM fonts. Distributed under the Arphic Public License
  (see ARPHICPL.TXT). Regenerated by scripts/build-strokes.ts — do not edit by hand.
-->
<svg id="z27934" class="acjk" viewBox="0 0 1024 1024" xmlns="http://www.w3.org/2000/svg">
<g class="glyph"><path style="--part:1" id="z27934d1" d="M216 200C229 214 242 231 257 251C265 261 276 267 289 269C297 269 303 265 308 255C312 244 314 227 310 204C306 183 274 165 217 145C206 141 197 138 192 141C187 143 185 149 186 159C187 167 198 180 216 200Z"/><path style="--part:1" id="z27934d2" d="M133 379C164 413 189 437 212 444C222 447 231 441 238 431C243 422 245 411 242 398C237 380 226 367 213 358C186 340 158 333 130 333C124 332 120 333 117 335C112 336 112 340 114 350C115 358 122 367 133 379Z"/><path style="--part:1" id="z27934d3" d="M133 714C125 718 121 724 123 736C130 786 148 817 172 833C177 836 182 838 190 837C194 836 196 827 199 810C203 775 240 676 305 513C309 502 311 494 311 490C310 483 307 482 301 487C294 491 285 499 278 511C240 568 205 622 173 673C164 686 152 702 133 714Z"/><path style="--part:2" id="z27934d4" d="M404 212C393 205 382 198 370 195C363 193 357 196 354 202C351 205 355 210 358 219C393 323 393 468 363 651C351 721 336 759 339 770C344 794 352 810 360 819C368 828 374 828 382 819C403 793 417 731 418 629C418 516 422 420 427 342C429 302 430 273 434 257C438 239 418 223 404 212Z"/><path style="--part:2" id="z27934d5" d="M434 257C438 256 442 255 446 255C642 199 749 181 770 199C777 205 784 227 788 271C798 415 797 570 789 735C787 759 783 775 775 781C764 787 733 785 683 774C671 771 665 773 666 781C666 787 673 790 682 796C728 826 760 858 785 884C799 899 812 904 822 902C830 899 840 889 848 868C859 835 865 794 864 746C855 523 850 372 851 290C851 261 854 238 863 221C871 204 871 192 864 184C855 173 834 159 799 142C783 134 754 140 710 152C590 183 487 200 404 212C386 216 416 261 434 257Z"/><path style="--part:2" id="z27934d6" d="M504 334C479 337 475 346 494 357C520 371 558 372 607 361C633 354 661 349 691 342C705 338 714 335 716 333C722 327 723 321 720 316C715 308 702 301 682 298C661 294 640 298 620 307C604 313 587 318 569 323C549 327 527 330 504 334Z"/><path style="--part:2" id="z27934d7" d="M494 475C486 472 476 470 467 468C458 465 455 466 453 469C449 473 449 479 454 489C468 520 482 562 490 614C492 629 496 642 506 653C517 666 522 668 526 659C528 652 531 643 530 633C527 612 527 612 526 601C519 550 515 517 515 503C515 491 505 479 494 475Z"/><path style="--part:2" id="z27934d8" d="M687 583C699 542 712 516 725 504C742 486 742 471 726 462C684 437 662 426 662 426C654 425 646 426 639 431C606 449 558 464 494 475C482 477 504 505 515 503C521 501 553 493 613 482C629 478 639 482 645 488C648 491 649 501 645 520C641 536 637 555 633 576C629 594 683 601 687 583Z"/><path style="--part:2" id="z27934d9" d="M530 633C534 633 540 633 547 632C577 625 627 619 696 615C702 614 707 611 708 605C708 600 701 593 687 583C673 572 650 569 633 576C612 583 557 594 526 601C515 603 519 633 530 633Z"/></g>
<defs><clipPath id="z27934c1"><use href="#z27934d1"/></clipPath>
	<clipPath id="z27934c2"><use href="#z27934d2"/></clipPath>
	<clipPath id="z27934c3"><use href="#z27934d3"/></clipPath>
	<clipPath id="z27934c4"><use href="#z27934d4"/></clipPath>
	<clipPath id="z27934c5"><use href="#z27934d5"/></clipPath>
	<clipPath id="z27934c6"><use href="#z27934d6"/></clipPath>
	<clipPath id="z27934c7"><use href="#z27934d7"/></clipPath>
	<clipPath id="z27934c8"><use href="#z27934d8"/></clipPath>
	<clipPath id="z27934c9"><use href="#z27934d9"/></clipPath><marker id="guide-arrow" viewBox="0 0 16 16" refX="5" refY="5" markerWidth="4" markerHeight="4" orient="auto-start-reverse"><path d="M 0 0 L 10 5 L 0 10 z" fill="inherit"/></marker></defs>
<g class="strokes"><path style="--part:1" pathLength="3333" clip-path="url(#z27934c1)" d="M193 146L274 213L288 265"/><path style="--part:1" pathLength="3333" clip-path="url(#z27934c2)" d="M119 339L232 433"/><path style="--part:1" pathLength="3333" clip-path="url(#z27934c3)" d="M128 728L179 781L301 490"/><path style="--part:2" pathLength="3333" clip-path="url(#z27934c4)" d="M360 204L400 249L405 347L373 821"/><path style="--part:2" pathLength="3333" clip-path="url(#z27934c5)" d="M407 220L454 229L745 167L784 170L824 207L820 795L801 851L674 780"/><path style="--part:2" pathLength="3333" clip-path="url(#z27934c6)" d="M491 344L717 324"/><path style="--part:2" pathLength="3333" clip-path="url(#z27934c7)" d="M458 473L488 502L518 658"/><path style="--part:2" pathLength="3333" clip-path="url(#z27934c8)" d="M499 480L648 456L690 480L654 590"/><path style="--part:2" pathLength="3333" clip-path="url(#z27934c9)" d="M525 620L703 598"/></g>
<g class="guides"><text class="g1" style="--gs:1" x="193" y="146">①</text><path class="g1 aligned" style="--gs:1" d="M193,146 Q274,213 275.75,219.5 Q286.25,258.5 288,265"/><path class="g1 offset" style="--gs:1" d="M278.68,77.46 Q359.68,144.46 361.43,150.96 Q371.93,189.96 373.68,196.46"/><text class="g2" style="--gs:2" x="119" y="339">②</text><path class="g2 aligned" style="--gs:2" d="M119,339 L232,433"/><path class="g2 offset" style="--gs:2" d="M204.68,270.46 L317.68,364.46"/><text class="g3" style="--gs:3" x="128" y="728">③</text><path class="g3 aligned" style="--gs:3" d="M128,728 Q179,781 194.25,744.63 Q285.75,526.38 301,490"/><path class="g3 offset" style="--gs:3" d="M59.46,659.46 Q110.46,699.97 125.71,672.17 Q217.21,505.32 232.46,477.52"/><text class="g4" style="--gs:4" x="360" y="204">④</text><path class="g4 aligned" style="--gs:4" d="M360,204 Q400,249 401.25,273.5 Q405,347 397,465.5 Q381,702.5 373,821"/><path class="g4 offset" style="--gs:4" d="M264,204 Q304,249 305.25,273.5 Q309,347 301,465.5 Q285,702.5 277,821"/><text class="g5" style="--gs:5" x="407" y="220">⑤</text><path class="g5 aligned" style="--gs:5" d="M407,220 Q454,229 599.5,198 Q745,167 764.5,168.5 Q784,170 804,188.5 Q824,207 822,501 Q820,795 810.5,823 Q801,851 737.5,815.5 Q737.5,815.5 674,780"/><path class="g5 offset" style="--gs:5" d="M407,316 Q431.68,325 508.1,294 Q584.51,263 594.75,264.5 Q604.99,266 615.5,284.5 Q626,303 624.95,597 Q623.9,891 618.91,919 Q613.92,947 580.57,911.5 Q580.57,911.5 547.22,876"/><text class="g6" style="--gs:6" x="491" y="344">⑥</text><path class="g6 aligned" style="--gs:6" d="M491,344 L717,324"/><path class="g6 offset" style="--gs:6" d="M491,440 L717,420"/><text class="g7" style="--gs:7" x="458" y="473">⑦</text><path class="g7 aligned" style="--gs:7" d="M473,488 L518,658"/><path class="g7 offset" style="--gs:7" d="M593,488 L638,658"/><text class="g8" style="--gs:8" x="499" y="480">⑧</text><path class="g8 aligned" style="--gs:8" d="M499,480 Q648,456 658.5,462 Q690,480 681,507.5 Q663,562.5 654,590"/><path class="g8 offset" style="--gs:8" d="M499,576 Q573.5,552 578.75,558 Q594.5,576 590,586.75 Q581,608.25 576.5,619"/><text class="g9" style="--gs:9" x="525" y="620">⑨</text><path class="g9 aligned" style="--gs:9" d="M525,620 L703,598"/><path class="g9 offset" style="--gs:9" d="M525,716 L703,694"/></g>
<g class="parts"><rect data-part="2" data-literal="同" role="button" tabindex="0" aria-label="Part 同" x="288" y="95" width="608" height="828"/><rect data-part="1" data-literal="氵" data-radical="true" role="button" tabindex="0" aria-label="Part 氵 (radical)" x="47" y="74" width="326" height="779"/></g>
</svg>
