<!--
  Stroke-order data for 涂, derived from AnimCJK (https://github.com/parsimonhi/animCJK),
  itself derived from the Arphic PL KaitiM fonts. Distributed under the Arphic Public License
  (see ARPHICPL.TXT). Regenerated by scripts/build-strokes.ts — do not edit by hand.
-->
<svg id="z28034" class="acjk" viewBox="0 0 1024 1024" xmlns="http://www.w3.org/2000/svg">
<g class="glyph"><path id="z28034d1" d="M245 210C264 225 282 245 303 265C312 274 323 279 335 279C343 279 348 272 352 263C355 252 354 236 348 215C343 200 331 186 309 178C258 158 227 152 216 157C211 158 209 165 212 175C213 183 226 194 245 210Z"/><path id="z28034d2" d="M136 392C169 425 194 450 218 459C228 462 237 456 243 447C247 438 248 428 246 417C238 390 205 368 148 352C136 348 127 349 121 352C117 353 116 357 118 366C119 373 125 381 136 392Z"/><path id="z28034d3" d="M115 762C107 765 102 771 105 783C114 831 133 860 156 876C161 879 166 881 173 879C177 877 179 869 181 853C182 826 211 734 269 576C272 565 275 558 275 554C274 547 269 544 265 551C154 716 145 748 115 762Z"/><path id="z28034d4" d="M561 211C564 203 572 184 591 158C594 152 597 148 596 142C590 123 573 111 545 106C531 103 520 102 513 104C506 105 506 110 508 119C520 174 490 256 416 361C385 403 340 453 284 512C279 516 280 520 287 520C323 517 382 472 456 380C495 330 525 279 549 234C557 219 557 219 561 211Z"/><path id="z28034d5" d="M549 234C613 308 681 380 753 450C767 464 787 472 813 474C857 476 903 472 952 466C964 464 970 462 972 459C973 454 969 451 960 447C925 433 888 420 850 406C725 358 685 314 561 211C554 206 544 227 549 234Z"/><path id="z28034d6" d="M544 481C627 456 672 445 677 441C683 435 683 429 680 424C674 416 662 410 642 407C621 404 601 408 581 417C558 426 535 434 511 442C484 450 454 455 423 461C398 465 395 474 414 485C440 498 473 501 513 490C534 484 534 484 544 481Z"/><path id="z28034d7" d="M582 603C621 596 670 594 729 593C760 592 780 590 784 583C787 576 783 568 773 561C740 536 700 533 653 546C632 551 609 557 583 563C547 571 547 571 529 575C469 588 405 598 330 608C317 609 315 615 326 625C334 633 344 638 355 641C367 643 378 641 389 640C435 633 477 619 530 611C565 606 565 606 582 603Z"/><path id="z28034d8" d="M487 840C473 835 457 832 440 828C431 826 428 827 429 832C429 836 432 842 439 847C477 877 508 905 534 930C539 935 548 932 556 923C576 895 588 851 587 794C584 725 580 662 582 603C583 576 583 576 583 563C584 503 601 510 544 481C534 477 509 480 513 490C526 519 528 548 529 575C530 599 530 599 530 611C533 753 530 831 522 841C516 847 503 845 487 840Z"/><path id="z28034d9" d="M379 691C362 721 342 749 322 776C305 797 304 819 314 842C319 854 328 858 342 850C377 827 393 792 399 751C401 728 405 709 402 693C400 686 396 683 392 683C386 682 381 685 379 691Z"/><path id="z28034d10" d="M672 696C704 730 741 770 781 819C792 833 801 843 812 846C817 847 823 843 829 837C837 827 838 809 832 779C824 743 771 706 675 665C667 661 664 662 663 671C662 679 664 688 672 696Z"/></g>
<defs><clipPath id="z28034c1"><use href="#z28034d1"/></clipPath>
	<clipPath id="z28034c2"><use href="#z28034d2"/></clipPath>
	<clipPath id="z28034c3"><use href="#z28034d3"/></clipPath>
	<clipPath id="z28034c4"><use href="#z28034d4"/></clipPath>
	<clipPath id="z28034c5"><use href="#z28034d5"/></clipPath>
	<clipPath id="z28034c6"><use href="#z28034d6"/></clipPath>
	<clipPath id="z28034c7"><use href="#z28034d7"/></clipPath>
	<clipPath id="z28034c8"><use href="#z28034d8"/></clipPath>
	<clipPath id="z28034c9"><use href="#z28034d9"/></clipPath>
	<clipPath id="z28034c10"><use href="#z28034d10"/></clipPath><marker id="guide-arrow" viewBox="0 0 16 16" refX="5" refY="5" markerWidth="4" markerHeight="4" orient="auto-start-reverse"><path d="M 0 0 L 10 5 L 0 10 z" fill="inherit"/></marker></defs>
<g class="strokes"><path pathLength="3333" clip-path="url(#z28034c1)" d="M216 166L307 217L333 275"/><path pathLength="3333" clip-path="url(#z28034c2)" d="M124 355L237 449"/><path pathLength="3333" clip-path="url(#z28034c3)" d="M107 775L166 819L268 557"/><path pathLength="3333" clip-path="url(#z28034c4)" d="M513 109L553 150L504 263L398 417L288 514"/><path pathLength="3333" clip-path="url(#z28034c5)" d="M557 215L782 422L965 457"/><path pathLength="3333" clip-path="url(#z28034c6)" d="M409 472L676 426"/><path pathLength="3333" clip-path="url(#z28034c7)" d="M331 619L679 567L781 578"/><path pathLength="3333" clip-path="url(#z28034c8)" d="M521 488L555 526L554 841L526 888L437 834"/><path pathLength="3333" clip-path="url(#z28034c9)" d="M394 688L324 850"/><path pathLength="3333" clip-path="url(#z28034c10)" d="M670 670L791 775L817 841"/></g>
<g class="guides"><text class="g1" style="--gs:1" x="216" y="166">①</text><path class="g1 aligned" style="--gs:1" d="M216,166 Q307,217 310.25,224.25 Q329.75,267.75 333,275"/><path class="g1 offset" style="--gs:1" d="M216,262 Q261.5,287.5 263.13,291.13 Q272.88,312.88 274.5,316.5"/><text class="g2" style="--gs:2" x="124" y="355">②</text><path class="g2 aligned" style="--gs:2" d="M124,355 L237,449"/><path class="g2 offset" style="--gs:2" d="M209.68,286.46 L322.68,380.46"/><text class="g3" style="--gs:3" x="107" y="775">③</text><path class="g3 aligned" style="--gs:3" d="M107,775 Q166,819 178.75,786.25 Q255.25,589.75 268,557"/><path class="g3 offset" style="--gs:3" d="M38.46,706.46 Q97.46,738.94 110.21,714.76 Q186.71,569.67 199.46,545.49"/><text class="g4" style="--gs:4" x="513" y="109">④</text><path class="g4 aligned" style="--gs:4" d="M513,109 Q553,150 528.5,206.5 Q504,263 451,340 Q398,417 343,465.5 Q343,465.5 288,514"/><path class="g4 offset" style="--gs:4" d="M417,109 Q442.51,140.28 426.88,183.39 Q411.26,226.5 377.46,285.24 Q343.66,343.99 308.58,381 Q308.58,381 273.51,418"/><text class="g5" style="--gs:5" x="557" y="215">⑤</text><path class="g5 aligned" style="--gs:5" d="M557,215 Q782,422 804.88,426.38 Q942.13,452.63 965,457"/><path class="g5 offset" style="--gs:5" d="M642.68,146.46 Q820.43,329.97 838.5,333.85 Q946.93,357.12 965,361"/><text class="g6" style="--gs:6" x="409" y="472">⑥</text><path class="g6 aligned" style="--gs:6" d="M409,472 L676,426"/><path class="g6 offset" style="--gs:6" d="M409,568 L676,522"/><text class="g7" style="--gs:7" x="331" y="619">⑦</text><path class="g7 aligned" style="--gs:7" d="M331,619 Q679,567 691.75,568.38 Q768.25,576.63 781,578"/><path class="g7 offset" style="--gs:7" d="M331,715 Q679,663 691.75,664.38 Q768.25,672.63 781,674"/><text class="g8" style="--gs:8" x="521" y="488">⑧</text><path class="g8 aligned" style="--gs:8" d="M521,488 Q555,526 554.5,683.5 Q554,841 540,864.5 Q526,888 481.5,861 Q481.5,861 437,834"/><path class="g8 offset" style="--gs:8" d="M425,488 Q442,516.88 441.75,636.58 Q441.5,756.28 434.5,774.14 Q427.5,792 405.25,771.48 Q405.25,771.48 383,750.96"/><text class="g9" style="--gs:9" x="394" y="688">⑨</text><path class="g9 aligned" style="--gs:9" d="M394,688 L324,850"/><path class="g9 offset" style="--gs:9" d="M514,688 L444,850"/><text class="g10" style="--gs:10" x="670" y="670">⑩</text><path class="g10 aligned" style="--gs:10" d="M670,670 Q791,775 794.25,783.25 Q813.75,832.75 817,841"/><path class="g10 offset" style="--gs:10" d="M755.68,601.46 Q876.68,706.46 879.93,714.71 Q899.43,764.21 902.68,772.46"/></g>
</svg>
