<!--
  Stroke-order data for 涌, derived from AnimCJK (https://github.com/parsimonhi/animCJK),
  itself derived from the Arphic PL KaitiM fonts. Distributed under the Arphic Public License
  (see ARPHICPL.TXT). Regenerated by scripts/build-strokes.ts — do not edit by hand.
-->
<svg id="z28044" class="acjk" viewBox="0 0 1024 1024" xmlns="http://www.w3.org/2000/svg">
<g class="glyph"><path id="z28044d1" d="M222 193C240 208 258 226 277 245C287 255 298 259 310 259C318 258 324 253 328 243C331 232 331 215 324 193C316 168 280 150 217 138C204 135 196 134 192 137C187 139 185 146 188 156C189 164 202 176 222 193Z"/><path id="z28044d2" d="M128 399C161 427 186 448 210 454C220 456 230 450 235 440C239 430 237 419 234 408C227 391 217 378 204 372C182 360 155 356 125 356C118 355 112 356 108 359C104 361 103 365 106 374C108 382 117 389 128 399Z"/><path id="z28044d3" d="M124 750C116 753 112 760 115 772C126 824 145 854 169 867C174 870 179 872 187 871C191 869 193 860 195 843C197 814 207 778 222 736C271 588 295 512 295 510C294 503 289 500 285 507C163 694 155 735 124 750Z"/><path id="z28044d4" d="M631 286C709 220 758 184 778 178C790 173 794 165 791 154C788 143 766 125 722 102C709 95 695 94 680 100C635 115 578 133 510 152C492 156 461 158 419 157C402 156 397 162 403 176C407 184 416 193 430 201C450 212 470 207 495 198C605 154 668 140 680 148C688 153 691 161 686 170C664 202 639 237 614 276C611 282 626 290 631 286Z"/><path id="z28044d5" d="M614 276C603 269 579 264 547 263C538 262 531 262 528 265C524 267 523 273 526 281C527 287 539 295 558 306C574 315 590 329 608 343C616 349 625 351 636 350C642 348 647 344 649 336C649 318 643 302 631 286C620 271 619 279 614 276Z"/><path id="z28044d6" d="M425 409C411 395 392 387 371 390C360 391 358 398 362 407C394 482 392 593 357 738C352 754 346 769 339 782C326 805 327 833 345 862C351 872 360 888 372 882C397 866 413 812 419 724C428 572 434 479 440 446C442 433 436 417 425 409Z"/><path id="z28044d7" d="M440 446C476 440 516 428 549 421C584 413 584 413 601 409C693 387 743 381 755 390C761 394 767 412 770 446C779 557 779 677 775 804C774 822 771 834 764 840C755 846 726 846 677 838C666 836 661 838 662 845C662 849 668 852 677 858C721 884 754 911 778 934C791 946 803 952 812 950C820 947 828 937 835 918C844 887 848 849 846 806C836 643 829 532 829 473C828 447 832 426 840 412C847 397 847 387 841 379C833 369 815 356 785 342C770 335 743 340 704 352C616 376 523 393 425 409C412 412 427 449 440 446Z"/><path id="z28044d8" d="M565 533C543 538 520 542 498 546C477 549 475 556 490 564C509 574 535 578 565 572C600 564 600 564 617 560C675 546 707 538 712 535C717 530 718 525 715 521C710 514 700 509 685 507C672 504 650 510 619 519C583 528 583 528 565 533Z"/><path id="z28044d9" d="M564 648C541 652 516 654 491 658C472 660 469 667 483 677C502 689 529 692 563 687C597 681 597 681 614 678C636 674 659 669 685 665C703 661 715 657 718 655C723 650 724 645 722 642C718 635 708 630 693 626C678 622 654 630 615 638C581 645 581 645 564 648Z"/><path id="z28044d10" d="M549 421C559 437 565 472 565 533C565 559 565 559 565 572C565 596 564 620 564 648C563 674 563 674 563 687C560 803 559 871 575 893C578 897 583 902 587 898C607 867 612 756 614 678C615 651 615 651 615 638C615 615 615 589 617 560C618 533 618 533 619 519C623 425 640 432 601 409C586 400 541 405 549 421Z"/></g>
<defs><clipPath id="z28044c1"><use href="#z28044d1"/></clipPath>
	<clipPath id="z28044c2"><use href="#z28044d2"/></clipPath>
	<clipPath id="z28044c3"><use href="#z28044d3"/></clipPath>
	<clipPath id="z28044c4"><use href="#z28044d4"/></clipPath>
	<clipPath id="z28044c5"><use href="#z28044d5"/></clipPath>
	<clipPath id="z28044c6"><use href="#z28044d6"/></clipPath>
	<clipPath id="z28044c7"><use href="#z28044d7"/></clipPath>
	<clipPath id="z28044c8"><use href="#z28044d8"/></clipPath>
	<clipPath id="z28044c9"><use href="#z28044d9"/></clipPath>
	<clipPath id="z28044c10"><use href="#z28044d10"/></clipPath><marker id="guide-arrow" viewBox="0 0 16 16" refX="5" refY="5" markerWidth="4" markerHeight="4" orient="auto-start-reverse"><path d="M 0 0 L 10 5 L 0 10 z" fill="inherit"/></marker></defs>
<g class="strokes"><path pathLength="3333" clip-path="url(#z28044c1)" d="M193 142L280 196L311 254"/><path pathLength="3333" clip-path="url(#z28044c2)" d="M109 367L232 439"/><path pathLength="3333" clip-path="url(#z28044c3)" d="M120 762L177 817L290 510"/><path pathLength="3333" clip-path="url(#z28044c4)" d="M406 165L462 182L679 122L711 131L738 169L621 280"/><path pathLength="3333" clip-path="url(#z28044c5)" d="M531 274L590 293L642 342"/><path pathLength="3333" clip-path="url(#z28044c6)" d="M367 397L404 430L409 490L357 876"/><path pathLength="3333" clip-path="url(#z28044c7)" d="M426 417L746 363L803 397L804 862L784 900L668 844"/><path pathLength="3333" clip-path="url(#z28044c8)" d="M490 554L709 521"/><path pathLength="3333" clip-path="url(#z28044c9)" d="M482 666L718 645"/><path pathLength="3333" clip-path="url(#z28044c10)" d="M554 413L593 456L581 894"/></g>
<g class="guides"><text class="g1" style="--gs:1" x="193" y="142">①</text><path class="g1 aligned" style="--gs:1" d="M193,142 Q280,196 283.88,203.25 Q307.13,246.75 311,254"/><path class="g1 offset" style="--gs:1" d="M278.68,73.46 Q365.68,127.46 369.56,134.71 Q392.81,178.21 396.68,185.46"/><text class="g2" style="--gs:2" x="109" y="367">②</text><path class="g2 aligned" style="--gs:2" d="M109,367 L232,439"/><path class="g2 offset" style="--gs:2" d="M194.68,298.46 L317.68,370.46"/><text class="g3" style="--gs:3" x="120" y="762">③</text><path class="g3 aligned" style="--gs:3" d="M120,762 Q177,817 191.13,778.63 Q275.88,548.38 290,510"/><path class="g3 offset" style="--gs:3" d="M51.46,693.46 Q108.46,736.18 122.58,706.37 Q207.33,527.53 221.46,497.72"/><text class="g4" style="--gs:4" x="406" y="165">④</text><path class="g4 aligned" style="--gs:4" d="M406,165 Q462,182 570.5,152 Q679,122 695,126.5 Q711,131 724.5,150 Q738,169 679.5,224.5 Q679.5,224.5 621,280"/><path class="g4 offset" style="--gs:4" d="M406,261 Q434.17,278 488.75,248 Q543.32,218 551.37,222.5 Q559.42,227 566.21,246 Q573,265 543.57,320.5 Q543.57,320.5 514.15,376"/><text class="g5" style="--gs:5" x="531" y="274">⑤</text><path class="g5 aligned" style="--gs:5" d="M531,274 Q590,293 596.5,299.13 Q635.5,335.88 642,342"/><path class="g5 offset" style="--gs:5" d="M616.68,205.46 Q675.68,224.46 682.18,230.58 Q721.18,267.33 727.68,273.46"/><text class="g6" style="--gs:6" x="367" y="397">⑥</text><path class="g6 aligned" style="--gs:6" d="M367,397 Q404,430 405.25,445 Q409,490 396,586.5 Q370,779.5 357,876"/><path class="g6 offset" style="--gs:6" d="M271,397 Q308,430 309.25,445 Q313,490 300,586.5 Q274,779.5 261,876"/><text class="g7" style="--gs:7" x="426" y="417">⑦</text><path class="g7 aligned" style="--gs:7" d="M426,417 Q746,363 774.5,380 Q803,397 803.5,629.5 Q804,862 794,881 Q784,900 726,872 Q726,872 668,844"/><path class="g7 offset" style="--gs:7" d="M426,513 Q590.23,459 604.86,476 Q619.49,493 619.74,725.5 Q620,958 614.87,977 Q609.74,996 579.97,968 Q579.97,968 550.2,940"/><text class="g8" style="--gs:8" x="490" y="554">⑧</text><path class="g8 aligned" style="--gs:8" d="M490,554 L709,521"/><path class="g8 offset" style="--gs:8" d="M490,650 L709,617"/><text class="g9" style="--gs:9" x="482" y="666">⑨</text><path class="g9 aligned" style="--gs:9" d="M482,666 L718,645"/><path class="g9 offset" style="--gs:9" d="M482,762 L718,741"/><text class="g10" style="--gs:10" x="554" y="413">⑩</text><path class="g10 aligned" style="--gs:10" d="M554,413 Q593,456 591.5,510.75 Q582.5,839.25 581,894"/><path class="g10 offset" style="--gs:10" d="M458,413 Q497,456 495.5,510.75 Q486.5,839.25 485,894"/></g>
</svg>
