<!--
  Stroke-order data for 深, derived from AnimCJK (https://github.com/parsimonhi/animCJK),
  itself derived from the Arphic PL KaitiM fonts. Distributed under the Arphic Public License
  (see ARPHICPL.TXT). Regenerated by scripts/build-strokes.ts — do not edit by hand.
-->
<svg id="z28145" class="acjk" viewBox="0 0 1024 1024" xmlns="http://www.w3.org/2000/svg">
<g class="glyph"><path style="--part:1" id="z28145d1" d="M212 178C225 191 238 208 253 225C261 235 271 239 283 240C289 240 296 236 301 227C305 217 304 201 300 180C297 168 287 156 269 148C224 128 197 120 188 125C183 127 181 133 183 142C184 150 195 161 212 178Z"/><path style="--part:1" id="z28145d2" d="M130 361C155 391 176 415 198 425C207 429 216 424 223 415C228 406 230 396 228 385C224 368 215 355 204 347C195 341 175 333 144 322C133 318 124 318 118 320C113 321 112 325 113 334C114 342 120 349 130 361Z"/><path style="--part:1" id="z28145d3" d="M133 682C125 686 121 692 124 704C135 754 154 785 177 800C182 803 187 805 195 803C199 801 201 793 203 776C205 739 238 635 302 465C306 454 307 446 307 442C305 435 303 434 297 439C290 443 248 509 173 638C164 652 152 669 133 682Z"/><path style="--part:2" id="z28145d4" d="M421 166C415 151 406 141 399 136C387 127 380 130 381 146C381 162 377 187 355 217C328 253 315 280 327 308C329 313 331 320 335 327C343 342 355 342 367 326C378 309 387 288 395 263C403 235 411 212 418 196C422 187 425 175 421 166Z"/><path style="--part:2" id="z28145d5" d="M418 196C428 202 454 202 494 191C540 178 613 164 713 154C723 153 731 151 736 154C747 160 750 168 749 175C741 202 726 256 727 260C727 263 740 260 750 252C780 227 809 209 837 199C859 190 869 183 869 178C868 171 844 154 800 124C786 115 773 113 759 116C726 121 689 127 649 133C607 138 551 147 488 156C464 159 443 163 421 166C411 168 409 192 418 196Z"/><path style="--part:2" id="z28145d6" d="M485 230C486 242 484 258 477 276C458 331 433 358 395 401C374 423 397 420 414 408C462 374 503 330 543 284C561 261 543 248 525 230C509 215 480 199 485 230Z"/><path style="--part:2" id="z28145d7" d="M641 345C626 333 622 308 621 296C617 272 621 255 622 235C622 221 617 207 613 197C611 191 618 186 624 185C636 182 659 191 670 200C681 210 685 217 680 226C663 251 661 273 663 291C663 300 668 313 678 318C706 333 740 324 760 314C793 295 804 297 830 312C856 327 842 341 830 347C810 354 794 360 774 363C733 368 677 376 641 345Z"/><path style="--part:2" id="z28145d8" d="M604 511C650 505 724 501 824 501C836 501 844 498 847 493C849 486 847 477 837 469C805 443 765 438 719 449C685 456 644 464 597 472C564 477 564 477 548 480C486 490 420 497 351 507C338 508 336 515 346 525C354 533 364 540 376 543C388 546 400 546 411 543C443 533 478 525 516 521C575 514 575 514 604 511Z"/><path style="--part:2" id="z28145d9" d="M597 472C597 448 599 429 603 417C605 408 603 402 599 398C583 384 569 373 556 368C547 364 540 366 534 371C530 373 530 378 535 385C540 392 549 424 548 480C547 542 547 542 546 573C543 676 532 771 524 801C516 826 526 856 548 891C556 903 562 912 568 914C575 915 581 911 585 903C593 881 594 859 594 839C591 736 594 578 595 545C596 496 596 496 597 472Z"/><path style="--part:2" id="z28145d10" d="M516 521C474 601 390 686 264 778C255 784 254 788 260 791C274 796 306 785 358 755C398 732 471 674 546 573C578 531 540 474 516 521Z"/><path style="--part:2" id="z28145d11" d="M595 545Q670 654 766 771Q784 792 815 791Q920 791 953 786Q963 785 964 779Q965 775 951 766Q813 712 746 655Q679 592 604 511C586 493 579 524 595 545Z"/></g>
<defs><clipPath id="z28145c1"><use href="#z28145d1"/></clipPath>
	<clipPath id="z28145c2"><use href="#z28145d2"/></clipPath>
	<clipPath id="z28145c3"><use href="#z28145d3"/></clipPath>
	<clipPath id="z28145c4"><use href="#z28145d4"/></clipPath>
	<clipPath id="z28145c5"><use href="#z28145d5"/></clipPath>
	<clipPath id="z28145c6"><use href="#z28145d6"/></clipPath>
	<clipPath id="z28145c7"><use href="#z28145d7"/></clipPath>
	<clipPath id="z28145c8"><use href="#z28145d8"/></clipPath>
	<clipPath id="z28145c9"><use href="#z28145d9"/></clipPath>
	<clipPath id="z28145c10"><use href="#z28145d10"/></clipPath>
	<clipPath id="z28145c11"><use href="#z28145d11"/></clipPath><marker id="guide-arrow" viewBox="0 0 16 16" refX="5" refY="5" markerWidth="4" markerHeight="4" orient="auto-start-reverse"><path d="M 0 0 L 10 5 L 0 10 z" fill="inherit"/></marker></defs>
<g class="strokes"><path style="--part:1" pathLength="3333" clip-path="url(#z28145c1)" d="M189 129L260 180L291 233"/><path style="--part:1" pathLength="3333" clip-path="url(#z28145c2)" d="M119 325L213 421"/><path style="--part:1" pathLength="3333" clip-path="url(#z28145c3)" d="M128 699L184 750L299 446"/><path style="--part:2" pathLength="3333" clip-path="url(#z28145c4)" d="M389 138L397 185L347 333"/><path style="--part:2" pathLength="3333" clip-path="url(#z28145c5)" d="M418 186L755 135L812 191L732 253"/><path style="--part:2" pathLength="3333" clip-path="url(#z28145c6)" d="M495 216L508 282L397 410"/><path style="--part:2" pathLength="3333" clip-path="url(#z28145c7)" d="M619 191L650 220L642 298L660 333L715 347L840 328"/><path style="--part:2" pathLength="3333" clip-path="url(#z28145c8)" d="M345 514L744 473L843 483"/><path style="--part:2" pathLength="3333" clip-path="url(#z28145c9)" d="M538 376L575 419L568 906"/><path style="--part:2" pathLength="3333" clip-path="url(#z28145c10)" d="M536 508L520 565L438 662L264 785"/><path style="--part:2" pathLength="3333" clip-path="url(#z28145c11)" d="M595 512L789 736L957 778"/></g>
<g class="guides"><text class="g1" style="--gs:1" x="189" y="129">①</text><path class="g1 aligned" style="--gs:1" d="M189,129 Q260,180 263.88,186.63 Q287.13,226.38 291,233"/><path class="g1 offset" style="--gs:1" d="M274.68,60.46 Q345.68,111.46 349.56,118.08 Q372.81,157.83 376.68,164.46"/><text class="g2" style="--gs:2" x="119" y="325">②</text><path class="g2 aligned" style="--gs:2" d="M119,325 L213,421"/><path class="g2 offset" style="--gs:2" d="M204.68,256.46 L298.68,352.46"/><text class="g3" style="--gs:3" x="128" y="699">③</text><path class="g3 aligned" style="--gs:3" d="M128,699 Q184,750 198.38,712 Q284.63,484 299,446"/><path class="g3 offset" style="--gs:3" d="M59.46,630.46 Q115.46,669.96 129.83,640.52 Q216.08,463.93 230.46,434.5"/><text class="g4" style="--gs:4" x="389" y="138">④</text><path class="g4 aligned" style="--gs:4" d="M389,138 Q397,185 390.75,203.5 Q353.25,314.5 347,333"/><path class="g4 offset" style="--gs:4" d="M509,138 Q517,185 510.75,203.5 Q473.25,314.5 467,333"/><text class="g5" style="--gs:5" x="418" y="186">⑤</text><path class="g5 aligned" style="--gs:5" d="M418,186 Q755,135 769.25,149 Q812,191 792,206.5 Q752,237.5 732,253"/><path class="g5 offset" style="--gs:5" d="M418,282 Q645.52,231 655.14,245 Q684,287 670.5,302.5 Q643.49,333.5 629.99,349"/><text class="g6" style="--gs:6" x="495" y="216">⑥</text><path class="g6 aligned" style="--gs:6" d="M495,216 Q508,282 494.13,298 Q410.88,394 397,410"/><path class="g6 offset" style="--gs:6" d="M399,216 Q405.5,249.34 398.56,257.42 Q356.94,305.92 350,314"/><text class="g7" style="--gs:7" x="619" y="191">⑦</text><path class="g7 aligned" style="--gs:7" d="M619,191 Q650,220 646,259 Q642,298 651,315.5 Q660,333 687.5,340 Q715,347 777.5,337.5 Q777.5,337.5 840,328"/><path class="g7 offset" style="--gs:7" d="M704.68,122.46 Q723.66,146.35 721.21,178.49 Q718.76,210.62 724.27,225.04 Q729.78,239.46 746.62,245.23 Q763.46,251 801.73,243.17 Q801.73,243.17 840,235.34"/><text class="g8" style="--gs:8" x="345" y="514">⑧</text><path class="g8 aligned" style="--gs:8" d="M345,514 Q744,473 756.38,474.25 Q830.63,481.75 843,483"/><path class="g8 offset" style="--gs:8" d="M345,610 Q744,569 756.38,570.25 Q830.63,577.75 843,579"/><text class="g9" style="--gs:9" x="538" y="376">⑨</text><path class="g9 aligned" style="--gs:9" d="M538,376 Q575,419 574.13,479.88 Q568.88,845.13 568,906"/><path class="g9 offset" style="--gs:9" d="M442,376 Q479,419 478.13,479.88 Q472.88,845.13 472,906"/><text class="g10" style="--gs:10" x="536" y="508">⑩</text><path class="g10 aligned" style="--gs:10" d="M536,508 Q520,565 499.5,589.25 Q438,662 394.5,692.75 Q307.5,754.25 264,785"/><path class="g10 offset" style="--gs:10" d="M440,508 Q431.06,545.25 419.6,561.09 Q385.24,608.63 360.93,628.72 Q312.31,668.91 288,689"/><text class="g11" style="--gs:11" x="595" y="512">⑪</text><path class="g11 aligned" style="--gs:11" d="M595,512 Q789,736 810,741.25 Q936,772.75 957,778"/><path class="g11 offset" style="--gs:11" d="M680.68,443.46 Q828.76,644.34 844.79,649.04 Q940.97,677.29 957,682"/></g>
<g class="parts"><rect data-part="2" data-literal="罙" role="button" tabindex="0" aria-label="Part 罙" x="192" y="63" width="832" height="915"/><rect data-part="1" data-literal="氵" data-radical="true" role="button" tabindex="0" aria-label="Part 氵 (radical)" x="47" y="57" width="324" height="765"/></g>
</svg>
