<svg id="z28145" class="acjk" viewBox="0 0 1024 1024" xmlns="http://www.w3.org/2000/svg">
<style>

@keyframes zk {
	to {
		stroke-dashoffset:0;
	}
}
svg.acjk path[clip-path] {
	--t:0.8s;
	animation:zk var(--t) linear forwards var(--d);
	stroke-dasharray:3337;
	stroke-dashoffset:3339;
	stroke-width:128;
	stroke-linecap:round;
	fill:none;
	stroke:#000;
}
svg.acjk path[id] {fill:#ccc;}


    @keyframes guide-fade {
        0% { opacity: 0; }
        3% { opacity: 1; }
        95% { opacity: 1; }
        100% { opacity: 0; }
    }

    svg.acjk #guide-arrow {
        fill: #f77;
    }

    svg.acjk .guides {
        circle {
            fill: #0f6;
        }

        path {
            opacity: 0;
            animation: guide-fade var(--t) linear forwards var(--d);
            stroke-width: 16px;
            stroke-linecap: round;
            stroke: #f77;
            fill: none;
            marker-end: url(#guide-arrow);
        }

        circle,
        path {
            --t: 0.8s;
            opacity: 0;
            animation: guide-fade calc(var(--t) + 0.4s) ease-in-out forwards calc(var(--d) - 0.2s);
        }
    }
</style>
<path id="z28145d1" d="M212 178C225 191 238 208 253 225C261 235 271 239 283 240C289 240 296 236 301 227C305 217 304 201 300 180C297 168 287 156 269 148C224 128 197 120 188 125C183 127 181 133 183 142C184 150 195 161 212 178Z"/>
<path id="z28145d2" d="M130 361C155 391 176 415 198 425C207 429 216 424 223 415C228 406 230 396 228 385C224 368 215 355 204 347C195 341 175 333 144 322C133 318 124 318 118 320C113 321 112 325 113 334C114 342 120 349 130 361Z"/>
<path id="z28145d3" d="M133 682C125 686 121 692 124 704C135 754 154 785 177 800C182 803 187 805 195 803C199 801 201 793 203 776C205 739 238 635 302 465C306 454 307 446 307 442C305 435 303 434 297 439C290 443 248 509 173 638C164 652 152 669 133 682Z"/>
<path id="z28145d4" d="M421 166C415 151 406 141 399 136C387 127 380 130 381 146C381 162 377 187 355 217C328 253 315 280 327 308C329 313 331 320 335 327C343 342 355 342 367 326C378 309 387 288 395 263C403 235 411 212 418 196C422 187 425 175 421 166Z"/>
<path id="z28145d5" d="M418 196C428 202 454 202 494 191C540 178 613 164 713 154C723 153 731 151 736 154C747 160 750 168 749 175C741 202 726 256 727 260C727 263 740 260 750 252C780 227 809 209 837 199C859 190 869 183 869 178C868 171 844 154 800 124C786 115 773 113 759 116C726 121 689 127 649 133C607 138 551 147 488 156C464 159 443 163 421 166C411 168 409 192 418 196Z"/>
<path id="z28145d6" d="M485 230C486 242 484 258 477 276C458 331 433 358 395 401C374 423 397 420 414 408C462 374 503 330 543 284C561 261 543 248 525 230C509 215 480 199 485 230Z"/>
<path id="z28145d7" d="M641 345C626 333 622 308 621 296C617 272 621 255 622 235C622 221 617 207 613 197C611 191 618 186 624 185C636 182 659 191 670 200C681 210 685 217 680 226C663 251 661 273 663 291C663 300 668 313 678 318C706 333 740 324 760 314C793 295 804 297 830 312C856 327 842 341 830 347C810 354 794 360 774 363C733 368 677 376 641 345Z"/>
<path id="z28145d8" d="M604 511C650 505 724 501 824 501C836 501 844 498 847 493C849 486 847 477 837 469C805 443 765 438 719 449C685 456 644 464 597 472C564 477 564 477 548 480C486 490 420 497 351 507C338 508 336 515 346 525C354 533 364 540 376 543C388 546 400 546 411 543C443 533 478 525 516 521C575 514 575 514 604 511Z"/>
<path id="z28145d9" d="M597 472C597 448 599 429 603 417C605 408 603 402 599 398C583 384 569 373 556 368C547 364 540 366 534 371C530 373 530 378 535 385C540 392 549 424 548 480C547 542 547 542 546 573C543 676 532 771 524 801C516 826 526 856 548 891C556 903 562 912 568 914C575 915 581 911 585 903C593 881 594 859 594 839C591 736 594 578 595 545C596 496 596 496 597 472Z"/>
<path id="z28145d10" d="M516 521C474 601 390 686 264 778C255 784 254 788 260 791C274 796 306 785 358 755C398 732 471 674 546 573C578 531 540 474 516 521Z"/>
<path id="z28145d11" d="M595 545Q670 654 766 771Q784 792 815 791Q920 791 953 786Q963 785 964 779Q965 775 951 766Q813 712 746 655Q679 592 604 511C586 493 579 524 595 545Z"/>
<defs>
	<clipPath id="z28145c1"><use href="#z28145d1"/></clipPath>
	<clipPath id="z28145c2"><use href="#z28145d2"/></clipPath>
	<clipPath id="z28145c3"><use href="#z28145d3"/></clipPath>
	<clipPath id="z28145c4"><use href="#z28145d4"/></clipPath>
	<clipPath id="z28145c5"><use href="#z28145d5"/></clipPath>
	<clipPath id="z28145c6"><use href="#z28145d6"/></clipPath>
	<clipPath id="z28145c7"><use href="#z28145d7"/></clipPath>
	<clipPath id="z28145c8"><use href="#z28145d8"/></clipPath>
	<clipPath id="z28145c9"><use href="#z28145d9"/></clipPath>
	<clipPath id="z28145c10"><use href="#z28145d10"/></clipPath>
	<clipPath id="z28145c11"><use href="#z28145d11"/></clipPath>
<marker id="guide-arrow" viewBox="0 0 16 16" refX="5" refY="5" markerWidth="4" markerHeight="4" orient="auto-start-reverse"><path d="M 0 0 L 10 5 L 0 10 z" fill="inherit"/></marker></defs>
<path style="--d:1s;" pathLength="3333" clip-path="url(#z28145c1)" d="M189 129L260 180L291 233"/>
<path style="--d:2s;" pathLength="3333" clip-path="url(#z28145c2)" d="M119 325L213 421"/>
<path style="--d:3s;" pathLength="3333" clip-path="url(#z28145c3)" d="M128 699L184 750L299 446"/>
<path style="--d:4s;" pathLength="3333" clip-path="url(#z28145c4)" d="M389 138L397 185L347 333"/>
<path style="--d:5s;" pathLength="3333" clip-path="url(#z28145c5)" d="M418 186L755 135L812 191L732 253"/>
<path style="--d:6s;" pathLength="3333" clip-path="url(#z28145c6)" d="M495 216L508 282L397 410"/>
<path style="--d:7s;" pathLength="3333" clip-path="url(#z28145c7)" d="M619 191L650 220L642 298L660 333L715 347L840 328"/>
<path style="--d:8s;" pathLength="3333" clip-path="url(#z28145c8)" d="M345 514L744 473L843 483"/>
<path style="--d:9s;" pathLength="3333" clip-path="url(#z28145c9)" d="M538 376L575 419L568 906"/>
<path style="--d:10s;" pathLength="3333" clip-path="url(#z28145c10)" d="M536 508L520 565L438 662L264 785"/>
<path style="--d:11s;" pathLength="3333" clip-path="url(#z28145c11)" d="M595 512L789 736L957 778"/>
<g class="guides"><circle style="--d: 1s" class="g1" cx="189" cy="129" r="16"/><path style="--d: 1s;" class="g1" d="M274.68,60.456 Q345.68,111.456 349.555,118.081 Q372.805,157.83100000000002 376.68,164.45600000000002"/><circle style="--d: 2s" class="g2" cx="119" cy="325" r="16"/><path style="--d: 2s;" class="g2" d="M204.68,256.456 L298.68,352.456"/><circle style="--d: 3s" class="g3" cx="128" cy="699" r="16"/><path style="--d: 3s;" class="g3" d="M59.456,630.456 Q115.456,669.9568421052631 129.83100000000002,640.5248421052631 Q216.08100000000002,463.9328421052632 230.45600000000002,434.5008421052632"/><circle style="--d: 4s" class="g4" cx="389" cy="138" r="16"/><path style="--d: 4s;" class="g4" d="M509,138 Q517,185 510.75,203.5 Q473.25,314.5 467,333"/><circle style="--d: 5s" class="g5" cx="418" cy="186" r="16"/><path style="--d: 5s;" class="g5" d="M418,282 Q645.5177664974619,231 655.1383248730965,245 Q684,287 670.497461928934,302.5 Q643.4923857868021,333.5 629.989847715736,349"/><circle style="--d: 6s" class="g6" cx="495" cy="216" r="16"/><path style="--d: 6s;" class="g6" d="M399,216 Q405.5,249.340206185567 398.5625,257.42268041237116 Q356.9375,305.91752577319585 350,314"/><circle style="--d: 7s" class="g7" cx="619" cy="191" r="16"/><path style="--d: 7s;" class="g7" d="M704.68,122.456 Q723.6615384615384,146.35199999999998 721.2123076923076,178.488 Q718.7630769230768,210.62400000000002 724.2738461538461,225.044 Q729.7846153846153,239.464 746.623076923077,245.232 Q763.4615384615385,251 801.7307692307693,243.172 Q801.7307692307693,243.172 840,235.344"/><circle style="--d: 8s" class="g8" cx="345" cy="514" r="16"/><path style="--d: 8s;" class="g8" d="M345,610 Q744,569 756.375,570.25 Q830.625,577.75 843,579"/><circle style="--d: 9s" class="g9" cx="538" cy="376" r="16"/><path style="--d: 9s;" class="g9" d="M442,376 Q479,419 478.125,479.875 Q472.875,845.125 472,906"/><circle style="--d: 10s" class="g10" cx="536" cy="508" r="16"/><path style="--d: 10s;" class="g10" d="M440,508 Q431.0588235294117,545.2454873646209 419.60294117647055,561.091155234657 Q385.2352941176471,608.6281588447654 360.9264705882353,628.721119133574 Q312.30882352941177,668.9070397111914 288,689"/><circle style="--d: 11s" class="g11" cx="595" cy="512" r="16"/><path style="--d: 11s;" class="g11" d="M680.68,443.456 Q828.7630939226519,644.3351578947369 844.7927071823204,649.0432631578948 Q940.9703867403315,677.2918947368421 957,682"/></g></svg>