<!--
  Stroke-order data for 淳, derived from AnimCJK (https://github.com/parsimonhi/animCJK),
  itself derived from the Arphic PL KaitiM fonts. Distributed under the Arphic Public License
  (see ARPHICPL.TXT). Regenerated by scripts/build-strokes.ts — do not edit by hand.
-->
<svg id="z28147" class="acjk" viewBox="0 0 1024 1024" xmlns="http://www.w3.org/2000/svg">
<g class="glyph"><path id="z28147d1" d="M273 184C283 194 294 199 306 199C314 198 320 192 324 183C327 172 326 155 320 132C316 119 304 107 284 100C234 81 204 75 196 81C191 83 189 90 192 100C193 108 207 118 226 137C257 168 257 168 273 184Z"/><path id="z28147d2" d="M135 315C160 350 180 378 204 391C213 395 224 392 231 383C236 375 239 363 238 352C236 333 228 319 217 310C201 295 176 283 143 272C137 269 131 270 126 272C121 272 120 276 121 286C121 294 126 303 135 315Z"/><path id="z28147d3" d="M109 674C101 679 96 684 99 696C110 748 129 778 153 791C158 794 163 796 171 795C175 793 177 784 179 767C181 730 213 624 278 449C281 438 283 430 283 426C281 419 279 419 273 423C267 426 225 493 149 628C140 642 129 660 109 674Z"/><path id="z28147d4" d="M572 76C597 102 617 123 639 131C648 134 657 129 663 119C667 110 668 100 666 89C662 72 652 61 640 53C621 41 597 35 569 34C564 33 560 34 557 36C553 37 552 41 554 50C555 57 561 65 572 76Z"/><path id="z28147d5" d="M398 181C386 182 384 187 394 197C401 205 411 210 422 213C433 215 444 215 454 213C548 185 674 171 834 170C846 169 853 166 855 162C857 155 854 147 845 140C811 115 780 112 751 120C655 142 537 160 398 181Z"/><path id="z28147d6" d="M474 271C467 268 456 267 442 265C435 263 430 263 428 267C425 270 426 277 432 287C446 313 460 349 472 394C475 406 480 416 489 426C500 438 507 440 510 431C511 426 513 419 512 412C510 402 509 391 508 382C502 348 494 311 493 297C491 286 484 275 474 271Z"/><path id="z28147d7" d="M714 360C734 322 753 303 768 294C780 286 781 270 772 260C763 250 741 238 710 222C698 215 670 223 624 238C577 252 527 261 474 271C463 273 482 299 493 297C547 286 608 274 658 264C670 261 678 262 683 267C688 272 682 299 666 347C660 362 707 375 714 360Z"/><path id="z28147d8" d="M512 412C528 413 555 403 717 384C723 383 727 380 728 375C728 371 723 366 714 360C701 350 682 344 666 347C612 358 556 373 508 382C498 384 502 412 512 412Z"/><path id="z28147d9" d="M625 592C691 545 737 519 763 513C777 509 780 501 777 490C773 479 752 460 709 436C696 428 682 427 667 433C624 448 572 467 510 486C494 490 465 493 426 493C409 492 404 499 411 513C415 521 424 528 438 536C458 547 479 545 503 532C516 524 564 509 642 480C657 472 680 485 673 498C654 524 632 550 610 580C606 585 620 596 625 592Z"/><path id="z28147d10" d="M603 672C621 762 623 817 600 872C592 888 575 894 554 890C531 885 509 879 488 874C480 871 477 874 481 882C484 888 493 894 506 903C535 924 553 946 564 965C570 977 579 981 590 980C598 978 612 970 630 952C680 902 694 813 658 667C654 654 650 642 647 630C642 614 633 603 625 592C621 586 615 583 610 580C596 570 564 560 552 568C543 573 542 580 553 588C570 601 588 616 594 638C597 649 600 660 603 672Z"/><path id="z28147d11" d="M658 667C717 661 788 658 869 660C913 660 938 659 943 652C947 644 943 634 932 626C897 599 867 589 842 595C791 605 726 618 647 630C612 635 612 635 594 638C503 651 405 661 301 674C286 675 284 681 295 693C303 701 314 708 327 712C340 716 353 715 364 713C441 691 521 679 603 672C640 669 640 669 658 667Z"/></g>
<defs><clipPath id="z28147c1"><use href="#z28147d1"/></clipPath>
	<clipPath id="z28147c2"><use href="#z28147d2"/></clipPath>
	<clipPath id="z28147c3"><use href="#z28147d3"/></clipPath>
	<clipPath id="z28147c4"><use href="#z28147d4"/></clipPath>
	<clipPath id="z28147c5"><use href="#z28147d5"/></clipPath>
	<clipPath id="z28147c6"><use href="#z28147d6"/></clipPath>
	<clipPath id="z28147c7"><use href="#z28147d7"/></clipPath>
	<clipPath id="z28147c8"><use href="#z28147d8"/></clipPath>
	<clipPath id="z28147c9"><use href="#z28147d9"/></clipPath>
	<clipPath id="z28147c10"><use href="#z28147d10"/></clipPath>
	<clipPath id="z28147c11"><use href="#z28147d11"/></clipPath><marker id="guide-arrow" viewBox="0 0 16 16" refX="5" refY="5" markerWidth="4" markerHeight="4" orient="auto-start-reverse"><path d="M 0 0 L 10 5 L 0 10 z" fill="inherit"/></marker></defs>
<g class="strokes"><path pathLength="3333" clip-path="url(#z28147c1)" d="M195 89L278 137L309 193"/><path pathLength="3333" clip-path="url(#z28147c2)" d="M127 279L221 387"/><path pathLength="3333" clip-path="url(#z28147c3)" d="M101 686L166 740L275 429"/><path pathLength="3333" clip-path="url(#z28147c4)" d="M559 43L659 118"/><path pathLength="3333" clip-path="url(#z28147c5)" d="M396 188L773 143L850 156"/><path pathLength="3333" clip-path="url(#z28147c6)" d="M435 273L465 296L502 430"/><path pathLength="3333" clip-path="url(#z28147c7)" d="M478 275L688 241L731 281L679 360"/><path pathLength="3333" clip-path="url(#z28147c8)" d="M505 396L723 374"/><path pathLength="3333" clip-path="url(#z28147c9)" d="M414 502L473 517L688 459L723 503L617 585"/><path pathLength="3333" clip-path="url(#z28147c10)" d="M551 575L622 638L641 855L584 934L486 880"/><path pathLength="3333" clip-path="url(#z28147c11)" d="M295 681L362 690L832 627L938 642"/></g>
<g class="guides"><text class="g1" style="--gs:1" x="195" y="89">①</text><path class="g1 aligned" style="--gs:1" d="M195,89 Q278,137 281.88,144 Q305.13,186 309,193"/><path class="g1 offset" style="--gs:1" d="M195,185 Q236.5,209 238.44,212.5 Q250.06,233.5 252,237"/><text class="g2" style="--gs:2" x="127" y="279">②</text><path class="g2 aligned" style="--gs:2" d="M127,279 L221,387"/><path class="g2 offset" style="--gs:2" d="M212.68,210.46 L306.68,318.46"/><text class="g3" style="--gs:3" x="101" y="686">③</text><path class="g3 aligned" style="--gs:3" d="M101,686 Q166,740 179.63,701.13 Q261.38,467.88 275,429"/><path class="g3 offset" style="--gs:3" d="M32.46,617.46 Q97.46,659.55 111.08,629.25 Q192.83,447.41 206.46,417.1"/><text class="g4" style="--gs:4" x="559" y="43">④</text><path class="g4 aligned" style="--gs:4" d="M559,43 L659,118"/><path class="g4 offset" style="--gs:4" d="M644.68,-25.54 L744.68,49.46"/><text class="g5" style="--gs:5" x="396" y="188">⑤</text><path class="g5 aligned" style="--gs:5" d="M396,188 Q773,143 782.63,144.63 Q840.38,154.38 850,156"/><path class="g5 offset" style="--gs:5" d="M396,284 Q773,239 782.63,240.63 Q840.38,250.38 850,252"/><text class="g6" style="--gs:6" x="435" y="273">⑥</text><path class="g6 aligned" style="--gs:6" d="M450,285 L502,430"/><path class="g6 offset" style="--gs:6" d="M570,285 L622,430"/><text class="g7" style="--gs:7" x="478" y="275">⑦</text><path class="g7 aligned" style="--gs:7" d="M478,275 Q688,241 698.75,251 Q731,281 718,300.75 Q692,340.25 679,360"/><path class="g7 offset" style="--gs:7" d="M478,371 Q605,337 611.5,347 Q631,377 623.14,396.75 Q607.42,436.25 599.55,456"/><text class="g8" style="--gs:8" x="505" y="396">⑧</text><path class="g8 aligned" style="--gs:8" d="M505,396 L723,374"/><path class="g8 offset" style="--gs:8" d="M505,492 L723,470"/><text class="g9" style="--gs:9" x="414" y="502">⑨</text><path class="g9 aligned" style="--gs:9" d="M414,502 Q473,517 580.5,488 Q688,459 705.5,481 Q723,503 670,544 Q670,544 617,585"/><path class="g9 offset" style="--gs:9" d="M414,598 Q443.6,613 497.52,584 Q551.44,555 560.22,577 Q569,599 542.41,640 Q542.41,640 515.83,681"/><text class="g10" style="--gs:10" x="551" y="575">⑩</text><path class="g10 aligned" style="--gs:10" d="M551,575 Q622,638 631.5,746.5 Q641,855 612.5,894.5 Q584,934 535,907 Q535,907 486,880"/><path class="g10 offset" style="--gs:10" d="M455,575 Q490.5,621.15 495.25,700.64 Q500,780.13 485.75,809.06 Q471.5,838 447,818.22 Q447,818.22 422.5,798.44"/><text class="g11" style="--gs:11" x="295" y="681">⑪</text><path class="g11 aligned" style="--gs:11" d="M295,681 Q362,690 479.5,674.25 Q832,627 858.5,630.75 Q911.5,638.25 938,642"/><path class="g11 offset" style="--gs:11" d="M295,777 Q362,786 479.5,770.25 Q832,723 858.5,726.75 Q911.5,734.25 938,738"/></g>
</svg>
