<!--
  Stroke-order data for 清, derived from AnimCJK (https://github.com/parsimonhi/animCJK),
  itself derived from the Arphic PL KaitiM fonts. Distributed under the Arphic Public License
  (see ARPHICPL.TXT). Regenerated by scripts/build-strokes.ts — do not edit by hand.
-->
<svg id="z28165" class="acjk" viewBox="0 0 1024 1024" xmlns="http://www.w3.org/2000/svg">
<g class="glyph"><path style="--part:1" id="z28165d1" d="M217 191Q247 216 279 249Q294 262 311 262Q323 262 328 247Q334 231 324 199Q318 177 284 160Q206 130 188 137Q182 141 184 155Q188 168 217 191Z"/><path style="--part:1" id="z28165d2" d="M123 392Q180 450 214 466Q230 469 239 455Q245 442 242 425Q227 380 138 354Q137 353 136 353Q118 347 109 352Q103 353 106 366Q107 378 123 392Z"/><path style="--part:1" id="z28165d3" d="M137 754C130 758 125 763 127 775C134 823 151 852 175 868C180 871 185 873 193 872C197 871 199 862 201 846C204 813 244 707 317 528C321 517 323 510 323 506C322 499 319 498 313 503C306 507 298 514 291 526C251 590 215 651 180 708C171 722 158 740 137 754Z"/><path style="--part:2" id="z28165d4" d="M625 208C717 189 764 174 767 173C773 168 774 162 771 156C766 147 754 141 734 137C716 132 682 145 629 158C592 167 592 167 574 171C535 180 493 184 450 190C425 192 421 203 439 214C467 231 515 229 575 218C608 211 608 211 625 208Z"/><path style="--part:2" id="z28165d5" d="M612 389C612 365 615 341 617 319C619 290 619 290 620 275C621 252 623 230 625 208C628 175 628 175 629 158C631 131 637 106 644 83C646 76 642 66 629 58C607 44 587 39 573 37C562 35 554 35 550 41C545 45 545 53 551 63C563 82 570 98 571 112C571 130 573 150 574 171C575 202 575 202 575 218C575 241 575 264 575 287C574 314 574 314 574 328C573 348 573 371 573 395C573 408 612 402 612 389Z"/><path style="--part:2" id="z28165d6" d="M617 319C699 301 741 291 743 290C747 285 749 280 747 275C743 267 731 261 714 257C692 251 662 263 620 275C590 283 590 283 575 287C560 290 503 297 465 302C442 304 439 313 455 323C475 335 505 342 574 328C603 322 603 322 617 319Z"/><path style="--part:2" id="z28165d7" d="M573 395C500 406 422 417 340 430C326 432 324 438 335 449C343 457 353 464 366 467C379 470 392 470 402 467C540 424 713 403 921 403C922 403 923 403 924 403C936 403 945 400 948 394C951 387 947 378 937 370C903 344 873 337 849 343C793 355 650 383 612 389C586 393 586 393 573 395Z"/><path style="--part:2" id="z28165d8" d="M496 727C497 698 500 673 502 652C503 634 503 634 504 625C507 585 508 557 512 542C514 532 511 521 504 514C489 499 471 491 451 494C442 495 439 501 443 509C469 567 463 667 439 785C430 825 418 843 418 845C414 861 421 879 436 902C441 909 445 913 452 910C480 892 487 847 494 766C494 762 494 758 495 754C496 736 496 736 496 727Z"/><path style="--part:2" id="z28165d9" d="M512 542C518 541 527 538 538 536C622 514 672 507 686 514C694 517 697 528 699 546C706 660 708 762 703 852C701 870 696 881 685 884C678 885 659 883 626 875C617 872 613 873 614 879C614 885 620 890 630 898C653 917 670 939 687 961C695 971 705 978 716 977C726 975 738 957 754 926C770 893 777 860 775 828C769 749 765 673 759 600C756 571 759 544 773 522C780 510 781 501 771 492C758 481 738 472 713 463C697 457 685 458 673 465C661 471 644 477 621 484C568 499 529 508 504 514C494 516 502 544 512 542Z"/><path style="--part:2" id="z28165d10" d="M502 652C505 652 508 652 512 652C532 649 595 640 631 635C645 632 650 626 645 619C638 610 627 603 611 601C594 598 558 607 504 625C496 628 493 652 502 652Z"/><path style="--part:2" id="z28165d11" d="M495 754C498 754 501 754 505 754C558 749 596 743 634 740C648 738 654 732 649 724C642 713 630 707 613 704C593 700 554 707 496 727C488 730 486 754 495 754Z"/></g>
<defs><clipPath id="z28165c1"><use href="#z28165d1"/></clipPath>
	<clipPath id="z28165c2"><use href="#z28165d2"/></clipPath>
	<clipPath id="z28165c3"><use href="#z28165d3"/></clipPath>
	<clipPath id="z28165c4"><use href="#z28165d4"/></clipPath>
	<clipPath id="z28165c5"><use href="#z28165d5"/></clipPath>
	<clipPath id="z28165c6"><use href="#z28165d6"/></clipPath>
	<clipPath id="z28165c7"><use href="#z28165d7"/></clipPath>
	<clipPath id="z28165c8"><use href="#z28165d8"/></clipPath>
	<clipPath id="z28165c9"><use href="#z28165d9"/></clipPath>
	<clipPath id="z28165c10"><use href="#z28165d10"/></clipPath>
	<clipPath id="z28165c11"><use href="#z28165d11"/></clipPath><marker id="guide-arrow" viewBox="0 0 16 16" refX="5" refY="5" markerWidth="4" markerHeight="4" orient="auto-start-reverse"><path d="M 0 0 L 10 5 L 0 10 z" fill="inherit"/></marker></defs>
<g class="strokes"><path style="--part:1" pathLength="3333" clip-path="url(#z28165c1)" d="M191 143L326 247"/><path style="--part:1" pathLength="3333" clip-path="url(#z28165c2)" d="M112 356L235 453"/><path style="--part:1" pathLength="3333" clip-path="url(#z28165c3)" d="M131 764L184 811L315 509"/><path style="--part:2" pathLength="3333" clip-path="url(#z28165c4)" d="M434 199L546 200L767 158"/><path style="--part:2" pathLength="3333" clip-path="url(#z28165c5)" d="M551 44L606 87L594 399"/><path style="--part:2" pathLength="3333" clip-path="url(#z28165c6)" d="M453 311L744 279"/><path style="--part:2" pathLength="3333" clip-path="url(#z28165c7)" d="M336 437L402 444L841 374L943 385"/><path style="--part:2" pathLength="3333" clip-path="url(#z28165c8)" d="M449 503L483 537L483 595L446 906"/><path style="--part:2" pathLength="3333" clip-path="url(#z28165c9)" d="M504 527L689 486L736 514L733 881L697 930L620 881"/><path style="--part:2" pathLength="3333" clip-path="url(#z28165c10)" d="M501 642L642 618"/><path style="--part:2" pathLength="3333" clip-path="url(#z28165c11)" d="M494 745L646 726"/></g>
<g class="guides"><text class="g1" style="--gs:1" x="191" y="143">①</text><path class="g1 aligned" style="--gs:1" d="M191,143 L326,247"/><path class="g1 offset" style="--gs:1" d="M276.68,74.46 L411.68,178.46"/><text class="g2" style="--gs:2" x="112" y="356">②</text><path class="g2 aligned" style="--gs:2" d="M112,356 L235,453"/><path class="g2 offset" style="--gs:2" d="M197.68,287.46 L320.68,384.46"/><text class="g3" style="--gs:3" x="131" y="764">③</text><path class="g3 aligned" style="--gs:3" d="M131,764 Q184,811 200.38,773.25 Q298.63,546.75 315,509"/><path class="g3 offset" style="--gs:3" d="M62.46,695.46 Q115.46,731.79 131.83,702.61 Q230.08,527.51 246.46,498.33"/><text class="g4" style="--gs:4" x="434" y="199">④</text><path class="g4 aligned" style="--gs:4" d="M434,199 Q546,200 573.63,194.75 Q739.38,163.25 767,158"/><path class="g4 offset" style="--gs:4" d="M434,295 Q546,296 573.63,290.75 Q739.38,259.25 767,254"/><text class="g5" style="--gs:5" x="551" y="44">⑤</text><path class="g5 aligned" style="--gs:5" d="M551,44 Q606,87 604.5,126 Q595.5,360 594,399"/><path class="g5 offset" style="--gs:5" d="M455,44 Q510,87 508.5,126 Q499.5,360 498,399"/><text class="g6" style="--gs:6" x="453" y="311">⑥</text><path class="g6 aligned" style="--gs:6" d="M453,311 L744,279"/><path class="g6 offset" style="--gs:6" d="M453,407 L744,375"/><text class="g7" style="--gs:7" x="336" y="437">⑦</text><path class="g7 aligned" style="--gs:7" d="M336,437 Q402,444 511.75,426.5 Q841,374 866.5,376.75 Q917.5,382.25 943,385"/><path class="g7 offset" style="--gs:7" d="M336,533 Q402,540 511.75,522.5 Q841,470 866.5,472.75 Q917.5,478.25 943,481"/><text class="g8" style="--gs:8" x="449" y="503">⑧</text><path class="g8 aligned" style="--gs:8" d="M449,503 Q483,537 483,551.5 Q483,595 473.75,672.75 Q455.25,828.25 446,906"/><path class="g8 offset" style="--gs:8" d="M353,503 Q387,537 387,551.5 Q387,595 377.75,672.75 Q359.25,828.25 350,906"/><text class="g9" style="--gs:9" x="504" y="527">⑨</text><path class="g9 aligned" style="--gs:9" d="M504,527 Q689,486 712.5,500 Q736,514 734.5,697.5 Q733,881 715,905.5 Q697,930 658.5,905.5 Q658.5,905.5 620,881"/><path class="g9 offset" style="--gs:9" d="M504,623 Q612.45,582 626.22,596 Q640,610 639.12,707.65 Q638.24,805.3 627.69,819.15 Q617.14,833 594.57,819.15 Q594.57,819.15 572,805.3"/><text class="g10" style="--gs:10" x="501" y="642">⑩</text><path class="g10 aligned" style="--gs:10" d="M501,642 L642,618"/><path class="g10 offset" style="--gs:10" d="M501,738 L642,714"/><text class="g11" style="--gs:11" x="494" y="745">⑪</text><path class="g11 aligned" style="--gs:11" d="M494,745 L646,726"/><path class="g11 offset" style="--gs:11" d="M494,841 L646,822"/></g>
<g class="parts"><rect data-part="2" data-literal="青" role="button" tabindex="0" aria-label="Part 青" x="264" y="0" width="751" height="1002"/><rect data-part="1" data-literal="氵" data-radical="true" role="button" tabindex="0" aria-label="Part 氵 (radical)" x="40" y="71" width="358" height="812"/></g>
</svg>
