<!--
  Stroke-order data for 済, derived from AnimCJK (https://github.com/parsimonhi/animCJK),
  itself derived from the Arphic PL KaitiM fonts. Distributed under the Arphic Public License
  (see ARPHICPL.TXT). Regenerated by scripts/build-strokes.ts — do not edit by hand.
-->
<svg id="z28168" class="acjk" viewBox="0 0 1024 1024" xmlns="http://www.w3.org/2000/svg">
<g class="glyph"><path style="--part:1" id="z28168d1" d="M255 185C273 198 290 216 311 235C320 244 332 247 344 247C352 246 358 241 361 232C364 221 362 204 354 183C346 162 309 146 248 133C235 130 228 130 224 133C220 135 218 140 221 151C223 158 235 169 255 185Z"/><path style="--part:1" id="z28168d2" d="M158 393C195 427 224 454 253 464C262 467 273 462 279 452C284 442 284 430 281 420C270 386 231 364 169 351C156 348 147 349 141 351C136 352 136 355 138 366C139 374 146 381 158 393Z"/><path style="--part:1" id="z28168d3" d="M149 758C141 763 136 767 139 781C149 832 168 864 194 880C199 883 204 885 213 884C217 883 219 873 221 855C224 816 258 709 322 534C326 521 327 513 327 510C325 502 323 502 317 507C306 515 264 583 190 713C181 727 169 744 149 758Z"/><path style="--part:2" id="z28168d4" d="M553 126C572 139 592 155 616 171C624 177 636 180 647 180C653 179 658 174 661 164C663 153 659 137 651 120C642 100 604 87 541 79C529 77 523 78 520 81C517 83 515 88 518 98C520 104 533 113 553 126Z"/><path style="--part:2" id="z28168d5" d="M672 256C683 254 730 245 815 239C823 238 832 237 836 228C839 219 828 212 814 204C786 188 755 191 714 200C586 227 485 238 413 246C393 248 390 254 406 268C428 286 449 293 470 289C518 277 573 271 634 262C659 258 659 258 672 256Z"/><path style="--part:2" id="z28168d6" d="M655 408C689 358 699 324 715 306C720 299 721 286 717 282C708 271 694 262 672 256C660 252 632 249 634 262C641 294 644 338 610 382C603 391 596 400 588 408C551 442 466 481 352 506C340 508 341 513 355 515C431 524 510 505 565 480C591 467 609 455 627 439C637 429 647 419 655 408Z"/><path style="--part:2" id="z28168d7" d="M627 439C704 500 757 523 783 523C817 522 867 516 935 503C957 498 967 493 965 489C964 486 951 483 929 480C795 458 731 451 655 408C625 391 625 391 610 382C586 368 563 354 540 338C513 320 490 312 468 314C457 314 450 316 449 320C447 322 452 327 464 332C480 339 495 348 508 356C531 370 559 385 588 408C614 429 614 429 627 439Z"/><path style="--part:2" id="z28168d8" d="M421 560C436 586 442 639 430 715C418 783 381 844 326 898C319 904 319 911 326 910C390 894 435 842 455 797C469 763 481 712 495 635C497 619 499 605 504 592C509 578 504 569 496 563C462 539 440 529 426 538C417 542 415 549 421 560Z"/><path style="--part:2" id="z28168d9" d="M632 659C688 647 718 642 720 641C724 637 725 633 725 629C724 624 720 620 714 616C696 605 677 600 655 607C634 613 601 622 581 628C561 633 539 634 519 634C504 634 499 641 504 648C512 658 524 670 563 672C586 673 614 662 632 659Z"/><path style="--part:2" id="z28168d10" d="M618 785C660 772 704 768 706 767C710 763 711 759 711 755C710 750 706 746 700 742C682 731 662 725 641 733C613 742 591 747 567 754C552 757 525 760 505 760C490 759 484 768 490 774C503 789 527 798 565 796C583 795 600 790 618 785Z"/><path style="--part:2" id="z28168d11" d="M732 565C747 590 749 675 737 813C736 814 734 839 733 847C724 884 745 931 772 964C782 977 793 965 797 956C803 938 804 892 801 818C796 703 796 630 801 598C802 588 799 581 796 578C783 564 764 550 752 545C742 541 736 543 730 549C726 551 727 556 732 565Z"/></g>
<defs><clipPath id="z28168c1"><use href="#z28168d1"/></clipPath>
	<clipPath id="z28168c2"><use href="#z28168d2"/></clipPath>
	<clipPath id="z28168c3"><use href="#z28168d3"/></clipPath>
	<clipPath id="z28168c4"><use href="#z28168d4"/></clipPath>
	<clipPath id="z28168c5"><use href="#z28168d5"/></clipPath>
	<clipPath id="z28168c6"><use href="#z28168d6"/></clipPath>
	<clipPath id="z28168c7"><use href="#z28168d7"/></clipPath>
	<clipPath id="z28168c8"><use href="#z28168d8"/></clipPath>
	<clipPath id="z28168c9"><use href="#z28168d9"/></clipPath>
	<clipPath id="z28168c10"><use href="#z28168d10"/></clipPath>
	<clipPath id="z28168c11"><use href="#z28168d11"/></clipPath><marker id="guide-arrow" viewBox="0 0 16 16" refX="5" refY="5" markerWidth="4" markerHeight="4" orient="auto-start-reverse"><path d="M 0 0 L 10 5 L 0 10 z" fill="inherit"/></marker></defs>
<g class="strokes"><path style="--part:1" pathLength="3333" clip-path="url(#z28168c1)" d="M228 140L356 233"/><path style="--part:1" pathLength="3333" clip-path="url(#z28168c2)" d="M143 360L275 450"/><path style="--part:1" pathLength="3333" clip-path="url(#z28168c3)" d="M148 768L187 816L319 513"/><path style="--part:2" pathLength="3333" clip-path="url(#z28168c4)" d="M524 87L657 167"/><path style="--part:2" pathLength="3333" clip-path="url(#z28168c5)" d="M402 254L462 265L750 218L829 226"/><path style="--part:2" pathLength="3333" clip-path="url(#z28168c6)" d="M642 266L681 297L594 434L491 488L355 511"/><path style="--part:2" pathLength="3333" clip-path="url(#z28168c7)" d="M458 321L750 478L958 492"/><path style="--part:2" pathLength="3333" clip-path="url(#z28168c8)" d="M425 546L469 590L441 766L385 862L330 904"/><path style="--part:2" pathLength="3333" clip-path="url(#z28168c9)" d="M508 642L720 627"/><path style="--part:2" pathLength="3333" clip-path="url(#z28168c10)" d="M494 768L706 753"/><path style="--part:2" pathLength="3333" clip-path="url(#z28168c11)" d="M732 553L771 600L780 961"/></g>
<g class="guides"><text class="g1" style="--gs:1" x="228" y="140">①</text><path class="g1 aligned" style="--gs:1" d="M228,140 L356,233"/><path class="g1 offset" style="--gs:1" d="M313.68,71.46 L441.68,164.46"/><text class="g2" style="--gs:2" x="143" y="360">②</text><path class="g2 aligned" style="--gs:2" d="M143,360 L275,450"/><path class="g2 offset" style="--gs:2" d="M228.68,291.46 L360.68,381.46"/><text class="g3" style="--gs:3" x="148" y="768">③</text><path class="g3 aligned" style="--gs:3" d="M148,768 Q187,816 203.5,778.13 Q302.5,550.88 319,513"/><path class="g3 offset" style="--gs:3" d="M79.46,699.46 Q118.46,736.6 134.96,707.29 Q233.96,531.45 250.46,502.14"/><text class="g4" style="--gs:4" x="524" y="87">④</text><path class="g4 aligned" style="--gs:4" d="M524,87 L657,167"/><path class="g4 offset" style="--gs:4" d="M609.68,18.46 L742.68,98.46"/><text class="g5" style="--gs:5" x="402" y="254">⑤</text><path class="g5 aligned" style="--gs:5" d="M402,254 Q462,265 534,253.25 Q750,218 769.75,220 Q809.25,224 829,226"/><path class="g5 offset" style="--gs:5" d="M402,350 Q462,361 534,349.25 Q750,314 769.75,316 Q809.25,320 829,322"/><text class="g6" style="--gs:6" x="642" y="266">⑥</text><path class="g6 aligned" style="--gs:6" d="M642,266 Q681,297 637.5,365.5 Q594,434 542.5,461 Q491,488 423,499.5 Q423,499.5 355,511"/><path class="g6 offset" style="--gs:6" d="M546,266 Q573.52,284.85 542.83,326.51 Q512.13,368.17 475.8,384.59 Q439.47,401.01 391.49,408.01 Q391.49,408.01 343.52,415"/><text class="g7" style="--gs:7" x="458" y="321">⑦</text><path class="g7 aligned" style="--gs:7" d="M458,321 Q750,478 776,479.75 Q932,490.25 958,492"/><path class="g7 offset" style="--gs:7" d="M458,417 Q750,574 776,575.75 Q932,586.25 958,588"/><text class="g8" style="--gs:8" x="425" y="546">⑧</text><path class="g8 aligned" style="--gs:8" d="M425,546 Q469,590 455,678 Q441,766 413,814 Q385,862 357.5,883 Q357.5,883 330,904"/><path class="g8 offset" style="--gs:8" d="M329,546 Q351,578.2 344,642.6 Q337,707.01 323,742.13 Q309,777.26 295.25,792.63 Q295.25,792.63 281.5,808"/><text class="g9" style="--gs:9" x="508" y="642">⑨</text><path class="g9 aligned" style="--gs:9" d="M508,642 L720,627"/><path class="g9 offset" style="--gs:9" d="M508,738 L720,723"/><text class="g10" style="--gs:10" x="494" y="768">⑩</text><path class="g10 aligned" style="--gs:10" d="M494,768 L706,753"/><path class="g10 offset" style="--gs:10" d="M494,864 L706,849"/><text class="g11" style="--gs:11" x="732" y="553">⑪</text><path class="g11 aligned" style="--gs:11" d="M732,553 Q771,600 772.13,645.13 Q778.88,915.88 780,961"/><path class="g11 offset" style="--gs:11" d="M817.68,484.46 Q856.68,531.46 857.81,576.58 Q864.56,847.33 865.68,892.46"/></g>
<g class="parts"><rect data-part="2" data-literal="斉" role="button" tabindex="0" aria-label="Part 斉" x="258" y="15" width="766" height="1009"/><rect data-part="1" data-literal="氵" data-radical="true" role="button" tabindex="0" aria-label="Part 氵 (radical)" x="71" y="68" width="357" height="820"/></g>
</svg>
