<svg id="z28179" class="acjk" viewBox="0 0 1024 1024" xmlns="http://www.w3.org/2000/svg">
<style>

@keyframes zk {
	to {
		stroke-dashoffset:0;
	}
}
svg.acjk path[clip-path] {
	--t:0.8s;
	animation:zk var(--t) linear forwards var(--d);
	stroke-dasharray:3337;
	stroke-dashoffset:3339;
	stroke-width:128;
	stroke-linecap:round;
	fill:none;
	stroke:#000;
}
svg.acjk path[id] {fill:#ccc;}


    @keyframes guide-fade {
        0% { opacity: 0; }
        3% { opacity: 1; }
        95% { opacity: 1; }
        100% { opacity: 0; }
    }

    svg.acjk #guide-arrow {
        fill: #f77;
    }

    svg.acjk .guides {
        circle {
            fill: #0f6;
        }

        path {
            opacity: 0;
            animation: guide-fade var(--t) linear forwards var(--d);
            stroke-width: 16px;
            stroke-linecap: round;
            stroke: #f77;
            fill: none;
            marker-end: url(#guide-arrow);
        }

        circle,
        path {
            --t: 0.8s;
            opacity: 0;
            animation: guide-fade calc(var(--t) + 0.4s) ease-in-out forwards calc(var(--d) - 0.2s);
        }
    }
</style>
<path id="z28179d1" d="M221 197C242 211 263 227 286 246C296 253 306 257 318 256C324 255 330 250 333 240C335 229 332 212 324 194C314 170 275 156 211 148C199 146 192 145 188 149C185 151 183 156 186 167C187 173 200 183 221 197Z"/>
<path id="z28179d2" d="M130 395C164 426 192 449 219 457C228 459 238 453 243 444C246 435 248 423 244 413C231 380 194 363 142 355C140 354 140 354 139 354C127 352 118 353 113 356C108 357 107 360 110 370C112 376 119 385 130 395Z"/>
<path id="z28179d3" d="M117 762C109 766 105 772 107 784C114 834 131 865 156 881C160 884 166 886 174 885C178 884 180 875 183 858C186 833 224 728 297 545C301 534 303 526 303 522C302 515 299 514 293 519C284 525 239 591 160 718C150 732 138 748 117 762Z"/>
<path id="z28179d4" d="M606 86C575 117 520 151 445 197C439 200 439 210 445 211C474 213 525 188 612 152C626 145 650 134 700 123C709 121 717 119 720 113C722 105 721 96 713 88C677 52 647 36 627 41C621 42 620 49 620 57C619 68 613 77 606 86Z"/>
<path id="z28179d5" d="M402 305C416 321 430 340 444 362C450 371 458 376 467 377C473 377 478 373 481 365C484 355 484 339 481 320C477 297 449 275 402 256C392 252 387 250 384 252C380 253 379 260 380 270C380 278 388 289 402 305Z"/>
<path id="z28179d6" d="M547 247C569 292 588 315 601 317C609 317 617 312 620 301C622 291 620 277 615 263C611 251 601 244 591 238C571 227 559 220 553 218C547 216 544 218 543 227C541 232 542 239 547 247Z"/>
<path id="z28179d7" d="M757 226C745 242 716 276 672 330C663 339 668 350 677 346C758 300 807 268 831 260C845 255 849 243 844 230C837 216 826 202 813 188C799 174 789 170 781 171C773 171 771 175 772 186C773 199 766 212 757 226Z"/>
<path id="z28179d8" d="M602 528C620 525 687 515 727 507C756 501 775 494 780 491C785 486 786 480 784 477C780 469 768 463 751 459C731 454 713 456 695 462C665 470 636 481 605 486C572 491 572 491 555 494C521 499 491 502 456 505C433 506 428 514 446 524C483 544 505 539 552 534C585 530 585 530 602 528Z"/>
<path id="z28179d9" d="M586 637C642 631 714 624 802 624C839 623 860 622 863 617C866 610 863 602 853 595C823 574 795 565 774 571C718 584 628 598 592 603C558 608 558 608 541 610C500 615 414 628 342 639C330 640 327 645 337 655C354 670 375 676 398 670C442 658 485 647 537 642C570 639 570 639 586 637Z"/>
<path id="z28179d10" d="M291 884C283 883 271 885 267 878C263 871 272 867 277 866C334 847 394 829 442 793C507 743 526 700 537 642C541 621 541 621 543 610C546 592 550 552 552 534C554 507 554 507 555 494C556 473 556 450 556 425C555 403 545 383 533 365C527 357 536 348 545 348C565 346 585 353 604 360C614 363 625 367 632 376C637 383 632 392 628 400C615 422 606 463 605 486C603 514 603 514 602 528C600 544 595 577 592 603C590 614 587 625 586 637C583 660 583 660 581 672C578 693 555 747 529 777C485 825 436 854 377 870C355 875 332 880 310 883C303 884 297 884 291 884Z"/>
<path id="z28179d11" d="M818 900C795 901 777 883 761 869C691 807 635 746 581 672C574 663 578 629 586 637C649 703 712 755 789 806C807 818 829 824 851 832C886 845 923 856 961 871C966 873 976 877 976 885C975 893 965 893 959 894C865 898 865 898 818 900Z"/>
<defs>
	<clipPath id="z28179c1"><use href="#z28179d1"/></clipPath>
	<clipPath id="z28179c2"><use href="#z28179d2"/></clipPath>
	<clipPath id="z28179c3"><use href="#z28179d3"/></clipPath>
	<clipPath id="z28179c4"><use href="#z28179d4"/></clipPath>
	<clipPath id="z28179c5"><use href="#z28179d5"/></clipPath>
	<clipPath id="z28179c6"><use href="#z28179d6"/></clipPath>
	<clipPath id="z28179c7"><use href="#z28179d7"/></clipPath>
	<clipPath id="z28179c8"><use href="#z28179d8"/></clipPath>
	<clipPath id="z28179c9"><use href="#z28179d9"/></clipPath>
	<clipPath id="z28179c10"><use href="#z28179d10"/></clipPath>
	<clipPath id="z28179c11"><use href="#z28179d11"/></clipPath>
<marker id="guide-arrow" viewBox="0 0 16 16" refX="5" refY="5" markerWidth="4" markerHeight="4" orient="auto-start-reverse"><path d="M 0 0 L 10 5 L 0 10 z" fill="inherit"/></marker></defs>
<path style="--d:1s;" pathLength="3333" clip-path="url(#z28179c1)" d="M193 155L327 247"/>
<path style="--d:2s;" pathLength="3333" clip-path="url(#z28179c2)" d="M115 363L239 443"/>
<path style="--d:3s;" pathLength="3333" clip-path="url(#z28179c3)" d="M115 776L156 827L296 524"/>
<path style="--d:4s;" pathLength="3333" clip-path="url(#z28179c4)" d="M633 50L661 97L450 201"/>
<path style="--d:5s;" pathLength="3333" clip-path="url(#z28179c5)" d="M388 261L448 317L463 373"/>
<path style="--d:6s;" pathLength="3333" clip-path="url(#z28179c6)" d="M550 224L604 312"/>
<path style="--d:7s;" pathLength="3333" clip-path="url(#z28179c7)" d="M780 179L801 235L675 339"/>
<path style="--d:8s;" pathLength="3333" clip-path="url(#z28179c8)" d="M443 513L779 482"/>
<path style="--d:9s;" pathLength="3333" clip-path="url(#z28179c9)" d="M339 646L780 597L859 610"/>
<path style="--d:10s;" pathLength="3333" clip-path="url(#z28179c10)" d="M540 358L594 400L536 721L448 816L277 874"/>
<path style="--d:11s;" pathLength="3333" clip-path="url(#z28179c11)" d="M588 648L660 736L798 853L971 883"/>
<g class="guides"><circle style="--d: 1s" class="g1" cx="193" cy="155" r="16"/><path style="--d: 1s;" class="g1" d="M278.68,86.456 L412.68,178.45600000000002"/><circle style="--d: 2s" class="g2" cx="115" cy="363" r="16"/><path style="--d: 2s;" class="g2" d="M200.68,294.456 L324.68,374.456"/><circle style="--d: 3s" class="g3" cx="115" cy="776" r="16"/><path style="--d: 3s;" class="g3" d="M46.456,707.456 Q87.456,746.9188910891089 104.956,717.6118910891089 Q209.95600000000002,541.7698910891089 227.45600000000002,512.4628910891089"/><circle style="--d: 4s" class="g4" cx="633" cy="50" r="16"/><path style="--d: 4s;" class="g4" d="M537,50 Q552.260663507109,73.5 537.885663507109,80 Q451.63566350710903,119 437.26066350710903,125.5"/><circle style="--d: 5s" class="g5" cx="388" cy="261" r="16"/><path style="--d: 5s;" class="g5" d="M473.68,192.45600000000002 Q533.68,248.45600000000002 535.555,255.45600000000002 Q546.805,297.456 548.68,304.456"/><circle style="--d: 6s" class="g6" cx="550" cy="224" r="16"/><path style="--d: 6s;" class="g6" d="M635.68,155.45600000000002 L689.68,243.45600000000002"/><circle style="--d: 7s" class="g7" cx="780" cy="179" r="16"/><path style="--d: 7s;" class="g7" d="M684,179 Q694.5,207 686.625,213.5 Q639.375,252.5 631.5,259"/><circle style="--d: 8s" class="g8" cx="443" cy="513" r="16"/><path style="--d: 8s;" class="g8" d="M443,609 L779,578"/><circle style="--d: 9s" class="g9" cx="339" cy="646" r="16"/><path style="--d: 9s;" class="g9" d="M339,742 Q780,693 789.875,694.625 Q849.125,704.375 859,706"/><circle style="--d: 10s" class="g10" cx="540" cy="358" r="16"/><path style="--d: 10s;" class="g10" d="M444,358 Q481.6466876971609,392.1860465116279 461.42902208201895,522.8255813953489 Q441.21135646687696,653.4651162790698 410.5362776025237,692.1279069767443 Q379.86119873817034,730.7906976744187 320.2539432176656,754.3953488372093 Q320.2539432176656,754.3953488372093 260.64668769716087,778"/><circle style="--d: 11s" class="g11" cx="588" cy="648" r="16"/><path style="--d: 11s;" class="g11" d="M673.68,579.456 Q729.5730548302871,657.1746042553192 756.355143603133,683.0072085106383 Q836.7014099216709,760.5050212765958 870.2760574412532,767.1287659574468 Q937.4253524804177,780.376255319149 971,787"/></g></svg>