<!--
  Stroke-order data for 渠, derived from AnimCJK (https://github.com/parsimonhi/animCJK),
  itself derived from the Arphic PL KaitiM fonts. Distributed under the Arphic Public License
  (see ARPHICPL.TXT). Regenerated by scripts/build-strokes.ts — do not edit by hand.
-->
<svg id="z28192" class="acjk" viewBox="0 0 1024 1024" xmlns="http://www.w3.org/2000/svg">
<g class="glyph"><path id="z28192d1" d="M306 129C322 141 338 156 356 171C364 178 373 181 383 181C389 180 394 176 397 168C399 159 397 145 391 127C385 110 354 96 300 85C290 82 283 82 280 85C277 87 275 93 277 101C278 108 289 116 306 129Z"/><path id="z28192d2" d="M227 246C258 275 282 296 303 302C311 304 319 300 324 292C327 284 327 275 325 266C317 241 289 223 241 214C226 211 205 205 210 225C211 231 217 237 227 246Z"/><path id="z28192d3" d="M241 468C235 470 229 474 232 485C240 527 254 552 269 563C287 576 289 555 291 545C294 522 323 449 377 323C388 295 379 292 362 315C349 331 327 361 294 406C279 428 262 457 241 468Z"/><path id="z28192d4" d="M519 234C519 207 517 180 519 155C519 146 522 134 516 128C507 118 489 111 481 107C456 95 449 106 458 122C482 167 490 265 471 409C466 439 463 452 475 479C481 495 502 500 511 479C514 470 519 451 519 431C518 409 519 384 519 365C519 346 519 346 519 337C519 283 519 283 519 256C519 241 519 241 519 234Z"/><path id="z28192d5" d="M519 155C541 157 585 154 650 139C720 122 757 111 760 108C776 89 749 79 731 79C700 78 595 112 516 128C507 130 510 155 519 155Z"/><path id="z28192d6" d="M732 310C744 278 759 259 773 249C783 240 783 227 774 218C766 210 745 200 715 187C685 174 694 197 519 234C512 235 512 255 519 256C529 260 553 259 590 252C625 244 651 240 668 237C711 228 698 249 691 300C688 314 727 323 732 310Z"/><path id="z28192d7" d="M519 365C527 367 536 367 544 365C594 349 659 342 739 341C770 340 754 322 732 310C720 303 705 297 691 300C672 302 569 325 519 337C510 339 510 363 519 365Z"/><path id="z28192d8" d="M511 479C553 467 670 441 802 439C843 438 824 409 798 398C785 392 766 391 734 396C662 409 561 430 519 431C503 431 495 482 511 479Z"/><path id="z28192d9" d="M549 624C633 617 740 604 869 620C892 622 918 614 894 591C875 573 851 557 824 545C815 541 803 543 786 547C726 560 640 568 533 581C498 585 498 585 480 587C284 609 172 612 147 614C117 615 139 642 149 650C159 658 175 666 195 674C201 676 209 673 222 670C281 652 355 638 443 632C514 627 514 627 549 624Z"/><path id="z28192d10" d="M533 581C533 559 546 556 524 537C513 527 503 518 493 515C473 508 464 517 473 532C477 539 480 560 480 587C479 614 478 670 478 670C476 728 471 773 463 805C455 833 466 866 493 904C502 918 511 921 520 903C529 882 530 862 530 843C527 772 528 707 531 644C532 602 532 602 533 581Z"/><path id="z28192d11" d="M443 632C411 688 339 749 215 812C138 850 137 866 215 844C315 815 413 756 478 670C504 635 469 597 443 632Z"/><path id="z28192d12" d="M531 644C647 766 719 834 750 836C811 840 864 828 908 821C928 817 939 810 914 802C791 763 723 738 710 730C697 722 643 686 549 624C531 613 519 627 531 644Z"/></g>
<defs><clipPath id="z28192c1"><use href="#z28192d1"/></clipPath>
	<clipPath id="z28192c2"><use href="#z28192d2"/></clipPath>
	<clipPath id="z28192c3"><use href="#z28192d3"/></clipPath>
	<clipPath id="z28192c4"><use href="#z28192d4"/></clipPath>
	<clipPath id="z28192c5"><use href="#z28192d5"/></clipPath>
	<clipPath id="z28192c6"><use href="#z28192d6"/></clipPath>
	<clipPath id="z28192c7"><use href="#z28192d7"/></clipPath>
	<clipPath id="z28192c8"><use href="#z28192d8"/></clipPath>
	<clipPath id="z28192c9"><use href="#z28192d9"/></clipPath>
	<clipPath id="z28192c10"><use href="#z28192d10"/></clipPath>
	<clipPath id="z28192c11"><use href="#z28192d11"/></clipPath>
	<clipPath id="z28192c12"><use href="#z28192d12"/></clipPath><marker id="guide-arrow" viewBox="0 0 16 16" refX="5" refY="5" markerWidth="4" markerHeight="4" orient="auto-start-reverse"><path d="M 0 0 L 10 5 L 0 10 z" fill="inherit"/></marker></defs>
<g class="strokes"><path pathLength="3333" clip-path="url(#z28192c1)" d="M284 94L364 139L387 176"/><path pathLength="3333" clip-path="url(#z28192c2)" d="M214 218L316 297"/><path pathLength="3333" clip-path="url(#z28192c3)" d="M237 477L281 508L376 309"/><path pathLength="3333" clip-path="url(#z28192c4)" d="M462 110L496 162L492 489"/><path pathLength="3333" clip-path="url(#z28192c5)" d="M513 140L759 94"/><path pathLength="3333" clip-path="url(#z28192c6)" d="M517 246L701 211L739 239L707 312"/><path pathLength="3333" clip-path="url(#z28192c7)" d="M514 351L661 324L751 331"/><path pathLength="3333" clip-path="url(#z28192c8)" d="M509 470L707 422L821 425"/><path pathLength="3333" clip-path="url(#z28192c9)" d="M140 624L201 642L796 579L898 601"/><path pathLength="3333" clip-path="url(#z28192c10)" d="M478 521L507 555L507 911"/><path pathLength="3333" clip-path="url(#z28192c11)" d="M472 623L354 755L162 847"/><path pathLength="3333" clip-path="url(#z28192c12)" d="M535 631L744 789L921 809"/></g>
<g class="guides"><text class="g1" style="--gs:1" x="284" y="94">①</text><path class="g1 aligned" style="--gs:1" d="M284,94 Q364,139 366.88,143.63 Q384.13,171.38 387,176"/><path class="g1 offset" style="--gs:1" d="M369.68,25.46 Q449.68,70.46 452.56,75.08 Q469.81,102.83 472.68,107.46"/><text class="g2" style="--gs:2" x="214" y="218">②</text><path class="g2 aligned" style="--gs:2" d="M214,218 L316,297"/><path class="g2 offset" style="--gs:2" d="M299.68,149.46 L401.68,228.46"/><text class="g3" style="--gs:3" x="237" y="477">③</text><path class="g3 aligned" style="--gs:3" d="M237,477 Q281,508 292.88,483.13 Q364.13,333.88 376,309"/><path class="g3 offset" style="--gs:3" d="M168.46,408.46 Q212.46,428.78 224.33,412.47 Q295.58,314.63 307.46,298.32"/><text class="g4" style="--gs:4" x="462" y="110">④</text><path class="g4 aligned" style="--gs:4" d="M462,110 Q496,162 495.5,202.88 Q492.5,448.13 492,489"/><path class="g4 offset" style="--gs:4" d="M366,110 Q400,162 399.5,202.88 Q396.5,448.13 396,489"/><text class="g5" style="--gs:5" x="513" y="140">⑤</text><path class="g5 aligned" style="--gs:5" d="M513,140 L759,94"/><path class="g5 offset" style="--gs:5" d="M513,236 L759,190"/><text class="g6" style="--gs:6" x="517" y="246">⑥</text><path class="g6 aligned" style="--gs:6" d="M517,246 Q701,211 710.5,218 Q739,239 731,257.25 Q715,293.75 707,312"/><path class="g6 offset" style="--gs:6" d="M517,342 Q609,307 613.75,314 Q628,335 624,340.63 Q616,351.88 612,357.5"/><text class="g7" style="--gs:7" x="514" y="351">⑦</text><path class="g7 aligned" style="--gs:7" d="M514,351 Q661,324 672.25,324.88 Q739.75,330.13 751,331"/><path class="g7 offset" style="--gs:7" d="M514,447 Q661,420 672.25,420.88 Q739.75,426.13 751,427"/><text class="g8" style="--gs:8" x="509" y="470">⑧</text><path class="g8 aligned" style="--gs:8" d="M509,470 Q707,422 721.25,422.38 Q806.75,424.63 821,425"/><path class="g8 offset" style="--gs:8" d="M509,566 Q707,518 721.25,518.38 Q806.75,520.63 821,521"/><text class="g9" style="--gs:9" x="140" y="624">⑨</text><path class="g9 aligned" style="--gs:9" d="M140,624 Q201,642 349.75,626.25 Q796,579 821.5,584.5 Q872.5,595.5 898,601"/><path class="g9 offset" style="--gs:9" d="M140,720 Q201,738 349.75,722.25 Q796,675 821.5,680.5 Q872.5,691.5 898,697"/><text class="g10" style="--gs:10" x="478" y="521">⑩</text><path class="g10 aligned" style="--gs:10" d="M478,521 Q507,555 507,599.5 Q507,866.5 507,911"/><path class="g10 offset" style="--gs:10" d="M382,521 Q411,555 411,599.5 Q411,866.5 411,911"/><text class="g11" style="--gs:11" x="472" y="623">⑪</text><path class="g11 aligned" style="--gs:11" d="M472,623 Q354,755 330,766.5 Q186,835.5 162,847"/><path class="g11 offset" style="--gs:11" d="M557.68,691.54 Q439.68,823.54 415.68,835.04 Q271.68,904.04 247.68,915.54"/><text class="g12" style="--gs:12" x="535" y="631">⑫</text><path class="g12 aligned" style="--gs:12" d="M535,631 Q744,789 766.13,791.5 Q898.88,806.5 921,809"/><path class="g12 offset" style="--gs:12" d="M620.68,562.46 Q783.29,696.08 800.5,698.2 Q903.79,710.89 921,713"/></g>
</svg>
