<svg id="z28287" class="acjk" viewBox="0 0 1024 1024" xmlns="http://www.w3.org/2000/svg">
<style>

@keyframes zk {
	to {
		stroke-dashoffset:0;
	}
}
svg.acjk path[clip-path] {
	--t:0.8s;
	animation:zk var(--t) linear forwards var(--d);
	stroke-dasharray:3337;
	stroke-dashoffset:3339;
	stroke-width:128;
	stroke-linecap:round;
	fill:none;
	stroke:#000;
}
svg.acjk path[id] {fill:#ccc;}


    @keyframes guide-fade {
        0% { opacity: 0; }
        3% { opacity: 1; }
        95% { opacity: 1; }
        100% { opacity: 0; }
    }

    svg.acjk #guide-arrow {
        fill: #f77;
    }

    svg.acjk .guides {
        circle {
            fill: #0f6;
        }

        path {
            opacity: 0;
            animation: guide-fade var(--t) linear forwards var(--d);
            stroke-width: 16px;
            stroke-linecap: round;
            stroke: #f77;
            fill: none;
            marker-end: url(#guide-arrow);
        }

        circle,
        path {
            --t: 0.8s;
            opacity: 0;
            animation: guide-fade calc(var(--t) + 0.4s) ease-in-out forwards calc(var(--d) - 0.2s);
        }
    }
</style>
<path id="z28287d1" d="M242 182C259 195 276 212 295 230C304 238 315 243 327 243C335 242 340 237 344 228C347 217 347 200 339 179C331 158 296 142 236 129C225 126 217 126 212 129C207 131 206 137 208 147C210 155 222 166 242 182Z"/>
<path id="z28287d2" d="M144 368C180 403 208 427 231 435C240 438 249 433 255 423C259 414 260 404 257 393C249 364 215 343 155 328C144 325 135 326 129 328C124 329 124 333 126 342C127 349 133 357 144 368Z"/>
<path id="z28287d3" d="M130 745C122 749 117 754 119 766C126 816 143 846 167 860C172 863 177 866 185 865C189 864 190 855 193 838C197 801 238 693 313 516C317 505 319 498 319 494C318 487 315 486 309 490C301 494 255 564 174 699C165 713 152 731 130 745Z"/>
<path id="z28287d4" d="M428 200C422 197 415 196 408 196C399 194 395 195 393 199C389 203 390 209 396 221C417 261 435 316 449 386C452 406 459 423 471 437C483 451 492 453 495 442C496 437 498 432 498 428C497 411 497 411 497 402C496 393 487 346 484 333C481 318 481 318 479 311C470 271 466 244 464 231C461 215 443 206 428 200Z"/>
<path id="z28287d5" d="M698 407C698 409 699 413 701 417C704 427 711 432 720 431C728 430 734 424 741 414C748 402 760 369 777 312C786 277 805 249 830 229C842 218 844 207 833 197C820 185 796 171 763 153C754 148 727 152 680 159C665 161 616 166 534 183C491 191 453 198 428 200C412 200 448 234 464 231C478 229 593 205 693 195C711 193 722 194 729 198C735 202 737 214 734 236C722 306 710 357 700 389C698 395 697 401 698 407Z"/>
<path id="z28287d6" d="M664 306Q685 302 677 291Q667 278 645 274Q626 271 479 311C472 313 477 334 484 333C604 315 604 315 664 306Z"/>
<path id="z28287d7" d="M498 428Q501 428 505 428Q692 404 698 407C704 407 704 393 700 389Q691 379 676 376Q660 373 497 402C488 404 489 428 498 428Z"/>
<path id="z28287d8" d="M542 791C544 654 548 565 556 526C557 519 553 511 540 504C519 493 501 487 487 486C478 485 471 487 467 492C462 496 462 503 468 512C480 528 487 541 489 553C497 627 503 708 505 795C505 807 542 803 542 791Z"/>
<path id="z28287d9" d="M656 781C670 614 682 516 693 488C695 481 691 472 679 465C659 453 640 447 627 444C618 441 611 442 606 448C601 452 600 459 606 468C617 487 624 502 625 516C627 598 625 688 619 784C619 796 656 793 656 781Z"/>
<path id="z28287d10" d="M369 643C386 659 402 678 420 698C427 706 436 710 446 711C452 711 458 707 461 699C464 690 463 676 460 659C455 638 424 619 368 600C359 597 352 595 348 597C344 598 343 604 344 612C344 618 353 628 369 643Z"/>
<path id="z28287d11" d="M777 570C762 596 738 631 706 674C702 678 701 685 707 689C711 691 717 689 723 685C783 639 826 604 857 588C868 581 874 577 871 570C866 559 857 547 842 534C827 521 812 515 796 515C785 515 779 523 782 537C783 547 783 558 777 570Z"/>
<path id="z28287d12" d="M505 795C477 798 361 808 311 808C302 807 297 810 297 818C296 824 302 832 314 842C323 850 338 857 357 865C363 867 372 866 384 862C411 851 474 843 571 833C581 831 656 827 681 825C747 819 815 821 885 830C899 831 908 830 912 825C917 816 915 808 908 802C890 785 867 770 841 758C832 753 820 755 805 759C797 760 748 773 656 781C631 783 631 783 619 784C600 785 551 790 542 791C517 794 517 794 505 795Z"/>
<defs>
	<clipPath id="z28287c1"><use href="#z28287d1"/></clipPath>
	<clipPath id="z28287c2"><use href="#z28287d2"/></clipPath>
	<clipPath id="z28287c3"><use href="#z28287d3"/></clipPath>
	<clipPath id="z28287c4"><use href="#z28287d4"/></clipPath>
	<clipPath id="z28287c5"><use href="#z28287d5"/></clipPath>
	<clipPath id="z28287c6"><use href="#z28287d6"/></clipPath>
	<clipPath id="z28287c7"><use href="#z28287d7"/></clipPath>
	<clipPath id="z28287c8"><use href="#z28287d8"/></clipPath>
	<clipPath id="z28287c9"><use href="#z28287d9"/></clipPath>
	<clipPath id="z28287c10"><use href="#z28287d10"/></clipPath>
	<clipPath id="z28287c11"><use href="#z28287d11"/></clipPath>
	<clipPath id="z28287c12"><use href="#z28287d12"/></clipPath>
<marker id="guide-arrow" viewBox="0 0 16 16" refX="5" refY="5" markerWidth="4" markerHeight="4" orient="auto-start-reverse"><path d="M 0 0 L 10 5 L 0 10 z" fill="inherit"/></marker></defs>
<path style="--d:1s;" pathLength="3333" clip-path="url(#z28287c1)" d="M211 135L338 233"/>
<path style="--d:2s;" pathLength="3333" clip-path="url(#z28287c2)" d="M131 335L247 428"/>
<path style="--d:3s;" pathLength="3333" clip-path="url(#z28287c3)" d="M130 757L166 809L312 495"/>
<path style="--d:4s;" pathLength="3333" clip-path="url(#z28287c4)" d="M399 203L438 246L483 443"/>
<path style="--d:5s;" pathLength="3333" clip-path="url(#z28287c5)" d="M438 203L482 211L725 173L767 189L786 226L715 427"/>
<path style="--d:6s;" pathLength="3333" clip-path="url(#z28287c6)" d="M487 319L674 293"/>
<path style="--d:7s;" pathLength="3333" clip-path="url(#z28287c7)" d="M504 420L693 394"/>
<path style="--d:8s;" pathLength="3333" clip-path="url(#z28287c8)" d="M471 495L522 537L516 790"/>
<path style="--d:9s;" pathLength="3333" clip-path="url(#z28287c9)" d="M609 454L657 489L632 782"/>
<path style="--d:10s;" pathLength="3333" clip-path="url(#z28287c10)" d="M353 607L426 660L445 707"/>
<path style="--d:11s;" pathLength="3333" clip-path="url(#z28287c11)" d="M791 522L826 569L712 682"/>
<path style="--d:12s;" pathLength="3333" clip-path="url(#z28287c12)" d="M303 817L370 836L824 789L909 816"/>
<g class="guides"><circle style="--d: 1s" class="g1" cx="211" cy="135" r="16"/><path style="--d: 1s;" class="g1" d="M296.68,66.456 L423.68,164.45600000000002"/><circle style="--d: 2s" class="g2" cx="131" cy="335" r="16"/><path style="--d: 2s;" class="g2" d="M216.68,266.456 L332.68,359.456"/><circle style="--d: 3s" class="g3" cx="130" cy="757" r="16"/><path style="--d: 3s;" class="g3" d="M61.456,688.456 Q97.456,729.1047643312102 115.706,698.4227643312101 Q225.20600000000002,514.3307643312102 243.45600000000002,483.64876433121015"/><circle style="--d: 4s" class="g4" cx="399" cy="203" r="16"/><path style="--d: 4s;" class="g4" d="M484.68,134.45600000000002 Q523.68,177.45600000000002 529.305,202.08100000000002 Q563.055,349.831 568.68,374.456"/><circle style="--d: 5s" class="g5" cx="438" cy="203" r="16"/><path style="--d: 5s;" class="g5" d="M438,299 Q466.82758620689657,292.6377952755905 546.4310344827586,280.81889763779526 Q626.0344827586207,269 639.7931034482758,277 Q653.551724137931,285 659.7758620689656,293.48425196850394 Q666,301.9685039370079 642.7413793103449,364.48425196850394 Q642.7413793103449,364.48425196850394 619.4827586206897,427"/><circle style="--d: 6s" class="g6" cx="487" cy="319" r="16"/><path style="--d: 6s;" class="g6" d="M487,415 L674,389"/><circle style="--d: 7s" class="g7" cx="504" cy="420" r="16"/><path style="--d: 7s;" class="g7" d="M504,516 L693,490"/><circle style="--d: 8s" class="g8" cx="471" cy="495" r="16"/><path style="--d: 8s;" class="g8" d="M375,495 Q426,537 425.25,568.625 Q420.75,758.375 420,790"/><circle style="--d: 9s" class="g9" cx="609" cy="454" r="16"/><path style="--d: 9s;" class="g9" d="M513,454 Q561,489 557.875,525.625 Q539.125,745.375 536,782"/><circle style="--d: 10s" class="g10" cx="353" cy="607" r="16"/><path style="--d: 10s;" class="g10" d="M438.68,538.456 Q511.68,591.456 514.055,597.331 Q528.305,632.581 530.68,638.456"/><circle style="--d: 11s" class="g11" cx="791" cy="522" r="16"/><path style="--d: 11s;" class="g11" d="M695,522 Q712.5,545.5 705.375,552.5625 Q662.625,594.9375 655.5,602"/><circle style="--d: 12s" class="g12" cx="303" cy="817" r="16"/><path style="--d: 12s;" class="g12" d="M303,913 Q370,932 483.5,920.25 Q824,885 845.25,891.75 Q887.75,905.25 909,912"/></g></svg>