<!--
  Stroke-order data for 溌, derived from AnimCJK (https://github.com/parsimonhi/animCJK),
  itself derived from the Arphic PL KaitiM fonts. Distributed under the Arphic Public License
  (see ARPHICPL.TXT). Regenerated by scripts/build-strokes.ts — do not edit by hand.
-->
<svg id="z28300" class="acjk" viewBox="0 0 1024 1024" xmlns="http://www.w3.org/2000/svg">
<g class="glyph"><path style="--part:1" id="z28300d1" d="M218 225C235 239 250 257 269 276C278 286 290 291 302 291C310 290 316 284 320 275C323 264 322 246 316 224C312 210 299 198 279 190C226 168 196 163 188 169C184 171 181 177 184 188C185 195 198 207 218 225Z"/><path style="--part:1" id="z28300d2" d="M148 406C178 439 202 463 225 471C234 474 245 469 251 459C255 450 256 438 254 428C250 410 240 397 228 389C190 366 160 358 136 362C134 362 133 362 133 363C128 364 127 367 129 378C130 385 136 394 148 406Z"/><path style="--part:1" id="z28300d3" d="M132 746C124 750 120 755 122 767C130 815 146 844 171 860C175 863 181 865 189 864C193 863 195 854 197 837C199 810 233 708 301 532C305 521 307 513 307 510C306 502 303 502 297 507C289 513 247 577 172 702C163 716 151 733 132 746Z"/><path style="--part:2" id="z28300d4" d="M290 597C343 540 405 471 437 410C450 385 450 385 457 372C477 333 492 291 500 261C505 239 513 230 491 238C476 243 462 250 447 252C428 254 408 247 394 234C388 229 389 218 396 214C404 211 413 212 422 211C452 207 483 201 513 191C525 187 530 182 550 196C559 202 574 207 579 223C581 232 572 240 567 246C554 263 548 286 540 306C488 435 411 557 297 618C270 632 275 613 290 597Z"/><path style="--part:2" id="z28300d5" d="M365 330C373 347 386 361 396 374C408 388 420 406 437 410C450 415 462 385 457 372C452 359 446 350 434 340C417 327 398 317 378 312C362 309 358 314 365 330Z"/><path style="--part:2" id="z28300d6" d="M695 105C688 110 690 122 687 129C678 153 654 188 634 212C629 217 641 231 646 227C670 209 705 187 732 174C737 172 747 170 746 160C745 142 734 126 723 115C718 110 701 100 695 105Z"/><path style="--part:2" id="z28300d7" d="M823 545C804 542 792 520 782 504C665 312 649 273 595 230C570 210 584 196 605 197C613 197 625 201 634 212C642 222 642 222 646 227C652 234 681 271 701 300C708 310 708 310 712 315C721 329 798 430 830 453C871 482 914 502 959 523C964 525 967 533 958 537C949 540 938 541 922 543C889 546 855 550 823 545Z"/><path style="--part:2" id="z28300d8" d="M774 192C774 198 774 205 772 209C754 241 733 269 701 300C697 304 707 318 712 315C731 304 798 264 813 258C821 255 838 256 838 243C838 218 811 191 792 183C783 180 775 185 774 192Z"/><path style="--part:2" id="z28300d9" d="M516 528C498 528 477 524 468 505C464 498 469 489 475 488C487 485 498 484 510 482C629 464 642 442 682 442C692 441 703 447 710 456C716 465 713 481 704 484C692 488 677 496 662 499C637 504 637 504 624 507C587 515 566 519 529 527C525 528 521 528 516 528Z"/><path style="--part:2" id="z28300d10" d="M408 697C393 701 372 692 358 675C352 668 356 654 363 654C392 652 457 645 500 636C539 629 539 629 558 625C583 620 602 617 636 608C667 600 667 600 683 596C703 590 724 581 744 577C766 571 790 586 802 609C820 641 796 641 772 638C741 634 706 637 676 643C649 648 649 648 635 650C595 657 583 659 545 666C508 673 508 673 490 677C456 683 439 689 408 697Z"/><path style="--part:2" id="z28300d11" d="M370 854C432 811 472 749 490 677C497 650 497 650 500 636C507 607 510 578 505 550C504 540 496 536 501 527C506 524 517 525 525 528C534 532 571 550 576 566C579 579 562 612 558 625C549 652 549 652 545 666C520 744 480 822 379 873C351 886 355 865 370 854Z"/><path style="--part:2" id="z28300d12" d="M637 786C632 753 634 684 635 650C636 622 636 622 636 608C636 589 630 525 624 507C620 495 652 491 662 499C672 508 685 515 691 531C698 546 685 579 683 596C678 627 678 627 676 643C671 675 675 771 690 800C695 810 715 823 726 825C764 832 828 840 852 806C860 793 862 776 864 761C874 686 884 650 896 737C900 768 907 799 915 831C920 847 912 867 899 874C879 886 856 889 835 888C792 887 737 885 696 869C659 854 643 822 637 786Z"/></g>
<defs><clipPath id="z28300c1"><use href="#z28300d1"/></clipPath>
	<clipPath id="z28300c2"><use href="#z28300d2"/></clipPath>
	<clipPath id="z28300c3"><use href="#z28300d3"/></clipPath>
	<clipPath id="z28300c4"><use href="#z28300d4"/></clipPath>
	<clipPath id="z28300c5"><use href="#z28300d5"/></clipPath>
	<clipPath id="z28300c6"><use href="#z28300d6"/></clipPath>
	<clipPath id="z28300c7"><use href="#z28300d7"/></clipPath>
	<clipPath id="z28300c8"><use href="#z28300d8"/></clipPath>
	<clipPath id="z28300c9"><use href="#z28300d9"/></clipPath>
	<clipPath id="z28300c10"><use href="#z28300d10"/></clipPath>
	<clipPath id="z28300c11"><use href="#z28300d11"/></clipPath>
	<clipPath id="z28300c12"><use href="#z28300d12"/></clipPath><marker id="guide-arrow" viewBox="0 0 16 16" refX="5" refY="5" markerWidth="4" markerHeight="4" orient="auto-start-reverse"><path d="M 0 0 L 10 5 L 0 10 z" fill="inherit"/></marker></defs>
<g class="strokes"><path style="--part:1" pathLength="3333" clip-path="url(#z28300c1)" d="M190 178L273 227L305 287"/><path style="--part:1" pathLength="3333" clip-path="url(#z28300c2)" d="M135 369L212 420L235 468"/><path style="--part:1" pathLength="3333" clip-path="url(#z28300c3)" d="M125 759L182 807L301 513"/><path style="--part:2" pathLength="3333" clip-path="url(#z28300c4)" d="M395 224L520 215L541 237L426 471L285 618"/><path style="--part:2" pathLength="3333" clip-path="url(#z28300c5)" d="M368 318L444 405"/><path style="--part:2" pathLength="3333" clip-path="url(#z28300c6)" d="M699 112L711 157L639 222"/><path style="--part:2" pathLength="3333" clip-path="url(#z28300c7)" d="M588 210L633 239L832 504L958 529"/><path style="--part:2" pathLength="3333" clip-path="url(#z28300c8)" d="M786 187L801 234L709 308"/><path style="--part:2" pathLength="3333" clip-path="url(#z28300c9)" d="M472 498L710 463"/><path style="--part:2" pathLength="3333" clip-path="url(#z28300c10)" d="M361 666L410 673L737 607L802 625"/><path style="--part:2" pathLength="3333" clip-path="url(#z28300c11)" d="M507 531L541 575L497 727L436 816L368 870"/><path style="--part:2" pathLength="3333" clip-path="url(#z28300c12)" d="M631 506L661 543L655 746L687 834L796 859L870 845L880 694"/></g>
<g class="guides"><text class="g1" style="--gs:1" x="190" y="178">①</text><path class="g1 aligned" style="--gs:1" d="M190,178 Q273,227 277,234.5 Q301,279.5 305,287"/><path class="g1 offset" style="--gs:1" d="M275.68,109.46 Q358.68,158.46 362.68,165.96 Q386.68,210.96 390.68,218.46"/><text class="g2" style="--gs:2" x="135" y="369">②</text><path class="g2 aligned" style="--gs:2" d="M135,369 Q212,420 214.88,426 Q232.13,462 235,468"/><path class="g2 offset" style="--gs:2" d="M220.68,300.46 Q297.68,351.46 300.56,357.46 Q317.81,393.46 320.68,399.46"/><text class="g3" style="--gs:3" x="125" y="759">③</text><path class="g3 aligned" style="--gs:3" d="M125,759 Q182,807 196.88,770.25 Q286.13,549.75 301,513"/><path class="g3 offset" style="--gs:3" d="M56.46,690.46 Q113.46,727.27 128.33,699.08 Q217.58,529.99 232.46,501.81"/><text class="g4" style="--gs:4" x="395" y="224">④</text><path class="g4 aligned" style="--gs:4" d="M395,224 Q520,215 530.5,226 Q541,237 483.5,354 Q426,471 355.5,544.5 Q355.5,544.5 285,618"/><path class="g4 offset" style="--gs:4" d="M299,320 Q361.5,315.29 366.75,321.05 Q372,326.81 343.25,388.06 Q314.5,449.32 279.25,487.81 Q279.25,487.81 244,526.29"/><text class="g5" style="--gs:5" x="368" y="318">⑤</text><path class="g5 aligned" style="--gs:5" d="M368,318 L444,405"/><path class="g5 offset" style="--gs:5" d="M453.68,249.46 L529.68,336.46"/><text class="g6" style="--gs:6" x="699" y="112">⑥</text><path class="g6 aligned" style="--gs:6" d="M699,112 Q711,157 702,165.13 Q648,213.88 639,222"/><path class="g6 offset" style="--gs:6" d="M603,112 Q609,134.5 604.5,138.56 Q577.5,162.94 573,167"/><text class="g7" style="--gs:7" x="588" y="210">⑦</text><path class="g7 aligned" style="--gs:7" d="M588,210 Q633,239 682.75,305.25 Q832,504 863.5,510.25 Q926.5,522.75 958,529"/><path class="g7 offset" style="--gs:7" d="M673.68,141.46 Q708.26,167.96 746.49,228.51 Q861.18,410.15 885.38,415.86 Q933.79,427.29 958,433"/><text class="g8" style="--gs:8" x="786" y="187">⑧</text><path class="g8 aligned" style="--gs:8" d="M786,187 Q801,234 789.5,243.25 Q720.5,298.75 709,308"/><path class="g8 offset" style="--gs:8" d="M690,187 Q697.5,210.5 691.75,215.13 Q657.25,242.88 651.5,247.5"/><text class="g9" style="--gs:9" x="472" y="498">⑨</text><path class="g9 aligned" style="--gs:9" d="M472,498 L710,463"/><path class="g9 offset" style="--gs:9" d="M472,594 L710,559"/><text class="g10" style="--gs:10" x="361" y="666">⑩</text><path class="g10 aligned" style="--gs:10" d="M361,666 Q410,673 491.75,656.5 Q737,607 753.25,611.5 Q785.75,620.5 802,625"/><path class="g10 offset" style="--gs:10" d="M361,762 Q410,769 491.75,752.5 Q737,703 753.25,707.5 Q785.75,716.5 802,721"/><text class="g11" style="--gs:11" x="507" y="531">⑪</text><path class="g11 aligned" style="--gs:11" d="M507,531 Q541,575 519,651 Q497,727 466.5,771.5 Q436,816 402,843 Q402,843 368,870"/><path class="g11 offset" style="--gs:11" d="M411,531 Q428,562.54 417,617.02 Q406,671.5 390.75,703.39 Q375.5,735.29 358.5,754.65 Q358.5,754.65 341.5,774"/><text class="g12" style="--gs:12" x="631" y="506">⑫</text><path class="g12 aligned" style="--gs:12" d="M631,506 Q661,543 658,644.5 Q655,746 671,790 Q687,834 741.5,846.5 Q796,859 833,852 Q870,845 875,769.5 Q875,769.5 880,694"/><path class="g12 offset" style="--gs:12" d="M699.54,437.46 Q714.54,474.46 713.04,575.96 Q711.54,677.46 719.54,721.46 Q727.54,765.46 754.79,777.96 Q782.04,790.46 800.54,783.46 Q819.04,776.46 821.54,700.96 Q821.54,700.96 824.04,625.46"/></g>
<g class="parts"><rect data-part="2" data-literal="発" role="button" tabindex="0" aria-label="Part 発" x="213" y="40" width="811" height="902"/><rect data-part="1" data-literal="氵" data-radical="true" role="button" tabindex="0" aria-label="Part 氵 (radical)" x="53" y="106" width="324" height="773"/></g>
</svg>
