<!--
  Stroke-order data for 滅, derived from AnimCJK (https://github.com/parsimonhi/animCJK),
  itself derived from the Arphic PL KaitiM fonts. Distributed under the Arphic Public License
  (see ARPHICPL.TXT). Regenerated by scripts/build-strokes.ts — do not edit by hand.
-->
<svg id="z28357" class="acjk" viewBox="0 0 1024 1024" xmlns="http://www.w3.org/2000/svg">
<g class="glyph"><path id="z28357d1" d="M217 236C235 250 253 267 273 286C282 295 293 298 304 298C312 297 318 293 321 283C324 273 321 257 315 237C311 224 299 211 277 203C227 184 197 180 188 185C183 187 182 193 185 203C187 209 198 220 217 236Z"/><path id="z28357d2" d="M136 448C172 483 200 507 223 515C232 518 241 513 247 503C251 494 252 484 249 473C241 444 207 423 147 408C136 405 127 406 121 408C116 409 116 413 118 422C119 429 125 437 136 448Z"/><path id="z28357d3" d="M126 777C120 781 116 786 118 797C126 843 143 869 165 882C170 885 175 887 182 886C186 884 188 877 189 861C190 836 220 742 278 578C281 567 283 561 283 557C282 551 279 550 274 555C267 559 229 619 162 737C154 749 144 764 126 777Z"/><path id="z28357d4" d="M392 367C365 350 345 343 334 349C325 352 324 360 329 369C338 387 344 412 345 446C345 574 322 682 278 771C268 789 259 808 249 826C246 830 243 834 243 839C241 845 245 850 251 847C294 818 331 758 351 712C382 639 397 545 406 433C407 416 409 405 413 399C420 388 402 375 392 367Z"/><path id="z28357d5" d="M675 345C747 325 786 310 792 305C798 299 799 293 796 288C791 280 778 273 758 270C738 266 708 276 668 292C638 303 638 303 623 309C551 335 430 362 392 367C379 370 400 396 413 399C431 403 471 398 534 382C564 374 597 366 631 357C660 349 660 349 675 345Z"/><path id="z28357d6" d="M443 481C424 485 421 493 437 500C456 509 489 505 535 493C559 486 583 478 609 470C623 465 631 461 634 459C637 454 639 449 636 445C631 438 621 434 605 433C589 431 539 453 510 463C490 469 467 475 443 481Z"/><path id="z28357d7" d="M409 599C427 637 441 657 453 662C459 664 466 662 471 654C474 647 474 638 472 627C469 618 462 611 452 603C436 591 426 582 418 579C413 577 410 579 408 585C406 589 406 593 409 599Z"/><path id="z28357d8" d="M543 620C545 620 549 621 553 619C594 593 623 573 645 565C652 562 656 559 654 554C651 547 646 539 638 531C630 522 621 516 611 516C604 515 600 520 601 529C601 539 582 566 544 611C542 613 540 620 543 620Z"/><path id="z28357d9" d="M535 672C538 660 541 635 543 620C544 614 544 614 544 611C547 582 552 564 556 556C560 546 557 539 549 535C521 519 502 513 490 519C483 521 481 527 486 535C501 559 507 606 492 675C479 731 441 782 386 828C384 829 383 830 382 832C376 838 376 842 383 842C427 837 468 802 508 745C515 734 523 710 528 696C533 680 533 680 535 672Z"/><path id="z28357d10" d="M528 696C530 698 535 702 543 707C557 716 572 728 589 741C595 745 603 747 611 747C615 746 620 743 622 736C623 728 620 717 615 704C609 691 582 680 535 672C527 671 521 691 528 696Z"/><path id="z28357d11" d="M741 718C772 786 816 847 876 894C917 926 950 941 971 938C984 935 985 922 982 903C975 872 972 811 968 720C967 705 961 692 958 698C935 734 931 782 904 817C895 828 874 810 860 796C826 762 795 724 773 678C758 646 758 646 750 630C725 578 711 517 697 451C689 414 679 379 675 345C670 310 670 310 668 292C658 222 657 165 667 125C673 95 659 74 620 59C595 48 575 45 561 51C546 55 539 67 550 79C579 110 598 134 601 159C606 213 615 263 623 309C631 358 628 341 631 357C651 481 680 587 721 675C734 704 734 704 741 718Z"/><path id="z28357d12" d="M721 675C683 733 633 780 588 828C583 832 584 836 591 836C625 832 679 794 741 718C762 691 762 691 773 678C795 650 839 573 878 500C890 476 896 463 896 462C890 443 873 431 845 426C831 423 820 422 813 424C806 425 805 430 808 439C817 475 805 544 750 630C731 660 731 660 721 675Z"/><path id="z28357d13" d="M757 161C779 176 802 194 826 213C834 219 844 222 855 222C861 221 866 216 869 208C871 198 867 184 861 166C855 152 843 139 820 132C768 114 737 110 728 117C724 119 723 125 726 133C727 139 739 148 757 161Z"/></g>
<defs><clipPath id="z28357c1"><use href="#z28357d1"/></clipPath>
	<clipPath id="z28357c2"><use href="#z28357d2"/></clipPath>
	<clipPath id="z28357c3"><use href="#z28357d3"/></clipPath>
	<clipPath id="z28357c4"><use href="#z28357d4"/></clipPath>
	<clipPath id="z28357c5"><use href="#z28357d5"/></clipPath>
	<clipPath id="z28357c6"><use href="#z28357d6"/></clipPath>
	<clipPath id="z28357c7"><use href="#z28357d7"/></clipPath>
	<clipPath id="z28357c8"><use href="#z28357d8"/></clipPath>
	<clipPath id="z28357c9"><use href="#z28357d9"/></clipPath>
	<clipPath id="z28357c10"><use href="#z28357d10"/></clipPath>
	<clipPath id="z28357c11"><use href="#z28357d11"/></clipPath>
	<clipPath id="z28357c12"><use href="#z28357d12"/></clipPath>
	<clipPath id="z28357c13"><use href="#z28357d13"/></clipPath><marker id="guide-arrow" viewBox="0 0 16 16" refX="5" refY="5" markerWidth="4" markerHeight="4" orient="auto-start-reverse"><path d="M 0 0 L 10 5 L 0 10 z" fill="inherit"/></marker></defs>
<g class="strokes"><path pathLength="3333" clip-path="url(#z28357c1)" d="M192 195L284 249L303 295"/><path pathLength="3333" clip-path="url(#z28357c2)" d="M122 415L245 499"/><path pathLength="3333" clip-path="url(#z28357c3)" d="M129 792L161 831L277 561"/><path pathLength="3333" clip-path="url(#z28357c4)" d="M335 357L377 402L361 582L319 731L250 840"/><path pathLength="3333" clip-path="url(#z28357c5)" d="M402 371L458 375L793 291"/><path pathLength="3333" clip-path="url(#z28357c6)" d="M435 490L633 449"/><path pathLength="3333" clip-path="url(#z28357c7)" d="M416 590L462 654"/><path pathLength="3333" clip-path="url(#z28357c8)" d="M611 520L623 554L552 616"/><path pathLength="3333" clip-path="url(#z28357c9)" d="M490 523L526 550L513 676L457 781L386 836"/><path pathLength="3333" clip-path="url(#z28357c10)" d="M539 676L613 739"/><path pathLength="3333" clip-path="url(#z28357c11)" d="M551 65L631 117L683 496L791 756L862 839L947 889L961 707"/><path pathLength="3333" clip-path="url(#z28357c12)" d="M815 427L852 467L784 618L689 753L592 831"/><path pathLength="3333" clip-path="url(#z28357c13)" d="M733 124L822 168L862 214"/></g>
<g class="guides"><text class="g1" style="--gs:1" x="192" y="195">①</text><path class="g1 aligned" style="--gs:1" d="M192,195 Q284,249 286.38,254.75 Q300.63,289.25 303,295"/><path class="g1 offset" style="--gs:1" d="M277.68,126.46 Q369.68,180.46 372.06,186.21 Q386.31,220.71 388.68,226.46"/><text class="g2" style="--gs:2" x="122" y="415">②</text><path class="g2 aligned" style="--gs:2" d="M122,415 L245,499"/><path class="g2 offset" style="--gs:2" d="M207.68,346.46 L330.68,430.46"/><text class="g3" style="--gs:3" x="129" y="792">③</text><path class="g3 aligned" style="--gs:3" d="M129,792 Q161,831 175.5,797.25 Q262.5,594.75 277,561"/><path class="g3 offset" style="--gs:3" d="M60.46,723.46 Q92.46,752.56 106.96,727.37 Q193.96,576.28 208.46,551.1"/><text class="g4" style="--gs:4" x="335" y="357">④</text><path class="g4 aligned" style="--gs:4" d="M335,357 Q377,402 369,492 Q361,582 340,656.5 Q319,731 284.5,785.5 Q284.5,785.5 250,840"/><path class="g4 offset" style="--gs:4" d="M239,357 Q260,393.06 256,465.17 Q252,537.28 241.5,596.97 Q231,656.66 213.75,700.33 Q213.75,700.33 196.5,744"/><text class="g5" style="--gs:5" x="402" y="371">⑤</text><path class="g5 aligned" style="--gs:5" d="M402,371 Q458,375 499.88,364.5 Q751.13,301.5 793,291"/><path class="g5 offset" style="--gs:5" d="M402,467 Q458,471 499.88,460.5 Q751.13,397.5 793,387"/><text class="g6" style="--gs:6" x="435" y="490">⑥</text><path class="g6 aligned" style="--gs:6" d="M435,490 L633,449"/><path class="g6 offset" style="--gs:6" d="M435,586 L633,545"/><text class="g7" style="--gs:7" x="416" y="590">⑦</text><path class="g7 aligned" style="--gs:7" d="M416,590 L462,654"/><path class="g7 offset" style="--gs:7" d="M501.68,521.46 L547.68,585.46"/><text class="g8" style="--gs:8" x="611" y="520">⑧</text><path class="g8 aligned" style="--gs:8" d="M617,537 L552,616"/><path class="g8 offset" style="--gs:8" d="M702.68,605.54 L637.68,684.54"/><text class="g9" style="--gs:9" x="490" y="523">⑨</text><path class="g9 aligned" style="--gs:9" d="M490,523 Q526,550 519.5,613 Q513,676 485,728.5 Q457,781 421.5,808.5 Q421.5,808.5 386,836"/><path class="g9 offset" style="--gs:9" d="M394,523 Q412,541.72 408.75,585.4 Q405.5,629.07 391.5,665.47 Q377.5,701.87 359.75,720.93 Q359.75,720.93 342,740"/><text class="g10" style="--gs:10" x="539" y="676">⑩</text><path class="g10 aligned" style="--gs:10" d="M539,676 L613,739"/><path class="g10 offset" style="--gs:10" d="M624.68,607.46 L698.68,670.46"/><text class="g11" style="--gs:11" x="551" y="65">⑪</text><path class="g11 aligned" style="--gs:11" d="M551,65 Q631,117 657,306.5 Q683,496 737,626 Q791,756 826.5,797.5 Q862,839 904.5,864 Q947,889 954,798 Q954,798 961,707"/><path class="g11 offset" style="--gs:11" d="M619.54,-3.54 Q667.44,48.46 683,237.96 Q698.57,427.46 730.9,557.46 Q763.23,687.46 784.48,728.96 Q805.73,770.46 831.17,795.46 Q856.62,820.46 860.81,729.46 Q860.81,729.46 865,638.46"/><text class="g12" style="--gs:12" x="815" y="427">⑫</text><path class="g12 aligned" style="--gs:12" d="M815,427 Q852,467 818,542.5 Q784,618 736.5,685.5 Q689,753 640.5,792 Q640.5,792 592,831"/><path class="g12 offset" style="--gs:12" d="M719,427 Q742.34,457.5 720.89,515.05 Q699.45,572.61 669.48,624.07 Q639.52,675.53 608.93,705.27 Q608.93,705.27 578.34,735"/><text class="g13" style="--gs:13" x="733" y="124">⑬</text><path class="g13 aligned" style="--gs:13" d="M733,124 Q822,168 827,173.75 Q857,208.25 862,214"/><path class="g13 offset" style="--gs:13" d="M818.68,55.46 Q907.68,99.46 912.68,105.21 Q942.68,139.71 947.68,145.46"/></g>
</svg>
