<svg id="z28382" class="acjk" viewBox="0 0 1024 1024" xmlns="http://www.w3.org/2000/svg">
<style>

@keyframes zk {
	to {
		stroke-dashoffset:0;
	}
}
svg.acjk path[clip-path] {
	--t:0.8s;
	animation:zk var(--t) linear forwards var(--d);
	stroke-dasharray:3337;
	stroke-dashoffset:3339;
	stroke-width:128;
	stroke-linecap:round;
	fill:none;
	stroke:#000;
}
svg.acjk path[id] {fill:#ccc;}


    @keyframes guide-fade {
        0% { opacity: 0; }
        3% { opacity: 1; }
        95% { opacity: 1; }
        100% { opacity: 0; }
    }

    svg.acjk #guide-arrow {
        fill: #f77;
    }

    svg.acjk .guides {
        circle {
            fill: #0f6;
        }

        path {
            opacity: 0;
            animation: guide-fade var(--t) linear forwards var(--d);
            stroke-width: 16px;
            stroke-linecap: round;
            stroke: #f77;
            fill: none;
            marker-end: url(#guide-arrow);
        }

        circle,
        path {
            --t: 0.8s;
            opacity: 0;
            animation: guide-fade calc(var(--t) + 0.4s) ease-in-out forwards calc(var(--d) - 0.2s);
        }
    }
</style>
<path id="z28382d1" d="M195 172C211 188 228 208 247 229C255 238 265 243 276 244C282 244 288 239 293 231C297 222 296 207 292 186C289 173 278 159 258 149C212 126 182 117 172 121C167 122 165 129 167 138C168 144 178 155 195 172Z"/>
<path id="z28382d2" d="M108 360C141 393 166 418 190 427C200 430 209 424 215 415C219 406 220 396 218 385C210 358 177 336 120 320C108 316 99 317 93 320C89 321 88 325 90 334C91 341 97 349 108 360Z"/>
<path id="z28382d3" d="M98 710C91 714 87 719 90 731C100 777 119 804 143 817C148 820 153 822 160 820C164 818 165 810 166 794C166 763 191 670 239 515C242 504 243 497 243 493C241 487 239 486 234 491C228 495 193 554 131 670C124 682 114 697 98 710Z"/>
<path id="z28382d4" d="M700 223C742 219 776 214 813 213C819 212 828 212 832 203C834 197 825 189 812 181C789 165 761 171 717 179C682 185 682 185 665 188C647 191 630 195 578 203C551 207 551 207 537 209C508 213 481 216 456 218C430 220 430 220 417 221C391 223 364 224 337 227C319 228 316 233 330 246C336 252 343 257 354 263C365 268 389 267 422 262C445 258 445 258 456 256C480 251 510 248 538 244C563 240 563 240 575 238C599 234 628 229 657 227C686 224 686 224 700 223Z"/>
<path id="z28382d5" d="M438 359C434 345 428 296 426 283C422 266 420 250 417 234C412 209 399 198 385 179C376 168 376 160 387 156C400 150 419 157 439 166C448 170 454 176 454 187C454 204 454 213 456 231C457 246 458 261 459 277C459 288 461 309 462 327C463 348 463 348 463 359C463 369 445 387 438 359Z"/>
<path id="z28382d6" d="M537 314C537 294 538 253 537 223C534 157 532 130 514 99C508 89 504 83 512 79C523 72 536 72 549 78C564 85 576 93 584 100C591 106 591 116 588 127C582 140 580 158 578 217C577 242 575 297 575 307C575 320 537 327 537 314Z"/>
<path id="z28382d7" d="M642 293C648 267 654 240 657 227C662 201 662 201 665 188C674 141 673 114 664 101C660 93 660 90 667 86C677 80 686 80 697 85C716 94 731 103 740 113C745 120 745 128 738 137C731 143 724 160 717 179C706 208 706 208 700 223C694 236 679 280 675 294C673 305 640 304 642 293Z"/>
<path id="z28382d8" d="M462 327C488 324 515 318 537 314C562 309 562 309 575 307C600 302 627 295 642 293C653 291 666 288 675 294C697 306 698 327 661 333C632 337 592 340 554 346C523 350 493 354 463 359C452 361 452 329 462 327Z"/>
<path id="z28382d9" d="M356 421C347 403 337 391 327 385C324 383 321 381 318 384C315 385 311 390 312 398C312 418 305 452 283 500C277 511 273 521 274 533C274 545 278 556 285 566C290 573 292 573 298 570C305 565 315 550 327 519C338 486 347 464 354 454C355 451 357 448 359 444C363 437 359 428 356 421Z"/>
<path id="z28382d10" d="M359 444C377 456 395 460 414 455C490 431 594 410 728 395C752 392 769 389 777 393C790 399 792 407 791 413C790 415 787 436 776 474C773 483 772 488 777 491C781 493 788 490 799 482C829 458 858 444 884 436C904 429 915 423 915 417C914 411 889 393 843 362C829 352 801 352 757 360C724 365 625 379 459 406C427 411 384 416 356 421C348 423 353 439 359 444Z"/>
<path id="z28382d11" d="M433 565C419 551 402 544 384 548C375 549 375 554 378 562C398 612 400 662 382 722C373 748 366 773 392 799C393 800 393 800 394 801C400 807 402 810 408 807C425 794 435 757 435 696C435 648 436 615 439 599C441 588 442 572 433 565Z"/>
<path id="z28382d12" d="M591 572C619 567 647 564 676 561C694 558 706 563 708 577C715 666 713 719 702 730C694 737 668 734 626 728C616 726 610 728 609 731C607 733 609 738 618 744C657 767 690 786 716 805C724 811 733 810 740 802C754 783 763 749 762 701C760 644 759 601 765 569C767 556 764 547 758 542C741 527 727 515 715 510C707 506 699 507 695 513C690 518 657 530 592 542C557 548 557 548 539 551C512 555 477 558 433 565C422 567 428 601 439 599C441 599 444 598 448 598C478 591 508 584 539 580C574 575 574 575 591 572Z"/>
<path id="z28382d13" d="M540 925C542 941 546 951 551 957C554 961 558 964 563 962C571 957 577 935 582 900C582 899 583 790 591 572C592 552 592 552 592 542C592 524 596 505 601 485C603 474 599 465 591 460C571 447 556 440 548 438C539 435 530 435 522 441C515 445 515 451 520 458C532 477 538 509 539 551C539 582 539 570 539 580C539 804 539 919 540 925Z"/>
<defs>
	<clipPath id="z28382c1"><use href="#z28382d1"/></clipPath>
	<clipPath id="z28382c2"><use href="#z28382d2"/></clipPath>
	<clipPath id="z28382c3"><use href="#z28382d3"/></clipPath>
	<clipPath id="z28382c4"><use href="#z28382d4"/></clipPath>
	<clipPath id="z28382c5"><use href="#z28382d5"/></clipPath>
	<clipPath id="z28382c6"><use href="#z28382d6"/></clipPath>
	<clipPath id="z28382c7"><use href="#z28382d7"/></clipPath>
	<clipPath id="z28382c8"><use href="#z28382d8"/></clipPath>
	<clipPath id="z28382c9"><use href="#z28382d9"/></clipPath>
	<clipPath id="z28382c10"><use href="#z28382d10"/></clipPath>
	<clipPath id="z28382c11"><use href="#z28382d11"/></clipPath>
	<clipPath id="z28382c12"><use href="#z28382d12"/></clipPath>
	<clipPath id="z28382c13"><use href="#z28382d13"/></clipPath>
<marker id="guide-arrow" viewBox="0 0 16 16" refX="5" refY="5" markerWidth="4" markerHeight="4" orient="auto-start-reverse"><path d="M 0 0 L 10 5 L 0 10 z" fill="inherit"/></marker></defs>
<path style="--d:1s;" pathLength="3333" clip-path="url(#z28382c1)" d="M175 131L253 185L279 237"/>
<path style="--d:2s;" pathLength="3333" clip-path="url(#z28382c2)" d="M94 326L211 415"/>
<path style="--d:3s;" pathLength="3333" clip-path="url(#z28382c3)" d="M97 722L138 761L237 497"/>
<path style="--d:4s;" pathLength="3333" clip-path="url(#z28382c4)" d="M328 233L380 246L826 199"/>
<path style="--d:5s;" pathLength="3333" clip-path="url(#z28382c5)" d="M384 165L428 195L448 369"/>
<path style="--d:6s;" pathLength="3333" clip-path="url(#z28382c6)" d="M515 82L557 120L554 310"/>
<path style="--d:7s;" pathLength="3333" clip-path="url(#z28382c7)" d="M669 92L707 131L653 290"/>
<path style="--d:8s;" pathLength="3333" clip-path="url(#z28382c8)" d="M468 352L681 312"/>
<path style="--d:9s;" pathLength="3333" clip-path="url(#z28382c9)" d="M322 388L333 441L290 566"/>
<path style="--d:10s;" pathLength="3333" clip-path="url(#z28382c10)" d="M362 422L409 434L779 373L814 381L860 427L781 487"/>
<path style="--d:11s;" pathLength="3333" clip-path="url(#z28382c11)" d="M383 553L415 605L404 803"/>
<path style="--d:12s;" pathLength="3333" clip-path="url(#z28382c12)" d="M441 569L701 536L727 552L724 761L615 735"/>
<path style="--d:13s;" pathLength="3333" clip-path="url(#z28382c13)" d="M525 448L567 487L559 957"/>
<g class="guides"><circle style="--d: 1s" class="g1" cx="175" cy="131" r="16"/><path style="--d: 1s;" class="g1" d="M260.68,62.456 Q338.68,116.456 341.93,122.956 Q361.43,161.95600000000002 364.68,168.45600000000002"/><circle style="--d: 2s" class="g2" cx="94" cy="326" r="16"/><path style="--d: 2s;" class="g2" d="M179.68,257.456 L296.68,346.456"/><circle style="--d: 3s" class="g3" cx="97" cy="722" r="16"/><path style="--d: 3s;" class="g3" d="M28.456000000000003,653.456 Q69.456,682.3301818181818 81.831,657.8981818181818 Q156.08100000000002,511.3061818181818 168.45600000000002,486.8741818181818"/><circle style="--d: 4s" class="g4" cx="328" cy="233" r="16"/><path style="--d: 4s;" class="g4" d="M328,329 Q380,342 435.75,336.125 Q770.25,300.875 826,295"/><circle style="--d: 5s" class="g5" cx="384" cy="165" r="16"/><path style="--d: 5s;" class="g5" d="M469.68,96.456 Q513.68,126.456 516.18,148.20600000000002 Q531.18,278.706 533.68,300.456"/><circle style="--d: 6s" class="g6" cx="515" cy="82" r="16"/><path style="--d: 6s;" class="g6" d="M419,82 Q461,120 460.625,143.75 Q458.375,286.25 458,310"/><circle style="--d: 7s" class="g7" cx="669" cy="92" r="16"/><path style="--d: 7s;" class="g7" d="M573,92 Q611,131 604.25,150.875 Q563.75,270.125 557,290"/><circle style="--d: 8s" class="g8" cx="468" cy="352" r="16"/><path style="--d: 8s;" class="g8" d="M468,448 L681,408"/><circle style="--d: 9s" class="g9" cx="322" cy="388" r="16"/><path style="--d: 9s;" class="g9" d="M442,388 Q453,441 447.625,456.625 Q415.375,550.375 410,566"/><circle style="--d: 10s" class="g10" cx="362" cy="422" r="16"/><path style="--d: 10s;" class="g10" d="M362,518 Q397.0140562248996,530 534.8353413654618,499.5 Q672.656626506024,469 685.6937751004016,473 Q698.7309236947791,477 715.8654618473895,500 Q733,523 703.5732931726907,553 Q703.5732931726907,553 674.1465863453815,583"/><circle style="--d: 11s" class="g11" cx="383" cy="553" r="16"/><path style="--d: 11s;" class="g11" d="M287,553 Q319,605 317.625,629.75 Q309.375,778.25 308,803"/><circle style="--d: 12s" class="g12" cx="441" cy="569" r="16"/><path style="--d: 12s;" class="g12" d="M441,665 Q571,632 577.5,640 Q584,648 583.25,752.5 Q582.5,857 555.25,844 Q555.25,844 528,831"/><circle style="--d: 13s" class="g13" cx="525" cy="448" r="16"/><path style="--d: 13s;" class="g13" d="M429,448 Q471,487 470,545.75 Q464,898.25 463,957"/></g></svg>