<!--
  Stroke-order data for 漆, derived from AnimCJK (https://github.com/parsimonhi/animCJK),
  itself derived from the Arphic PL KaitiM fonts. Distributed under the Arphic Public License
  (see ARPHICPL.TXT). Regenerated by scripts/build-strokes.ts — do not edit by hand.
-->
<svg id="z28422" class="acjk" viewBox="0 0 1024 1024" xmlns="http://www.w3.org/2000/svg">
<g class="glyph"><path id="z28422d1" d="M205 211C222 225 238 241 257 258C266 266 277 270 288 270C296 269 302 265 305 255C308 244 306 228 299 209C292 190 259 174 199 161C188 158 180 158 176 161C171 163 170 169 173 179C175 185 186 195 205 211Z"/><path id="z28422d2" d="M124 394C155 424 181 450 208 459C217 462 226 455 231 447C235 439 236 429 233 419C223 390 190 370 134 356C123 353 115 353 109 356C105 357 104 360 106 369C107 376 113 384 124 394Z"/><path id="z28422d3" d="M98 729C90 733 85 738 87 750C94 800 111 830 135 844C140 847 145 850 153 849C157 848 159 839 161 822C163 793 202 691 273 516C277 505 279 498 279 494C278 487 275 486 269 490C259 496 215 561 139 686C130 700 117 716 98 729Z"/><path id="z28422d4" d="M590 228C631 221 672 212 716 205C754 198 776 190 782 186C788 181 789 176 786 171C781 164 771 156 754 152C735 146 717 150 699 156C664 167 629 178 594 186C563 193 563 193 547 196C498 206 445 210 389 215C366 216 363 224 379 235C404 251 443 252 513 241C564 232 564 232 590 228Z"/><path id="z28422d5" d="M547 265C547 335 544 377 552 390C552 390 552 391 554 394C560 404 567 407 576 401C583 395 586 365 587 312C587 283 587 255 590 228C593 200 593 200 594 186C597 153 603 126 615 105C618 99 617 90 610 84C579 56 553 48 536 54C527 56 524 63 529 72C539 91 547 132 547 196C547 242 547 242 547 265Z"/><path id="z28422d6" d="M513 241C489 297 424 357 321 423C312 428 312 432 320 434C326 434 339 431 360 424C384 415 409 402 433 386C453 371 515 319 547 265C566 233 527 206 513 241Z"/><path id="z28422d7" d="M647 308C682 330 723 357 767 392C777 400 787 406 796 407C800 407 804 403 808 398C813 389 809 374 800 351C787 321 736 299 643 282C638 281 635 282 635 290C635 296 639 303 647 308Z"/><path id="z28422d8" d="M590 454C595 448 597 443 597 439C596 431 588 424 573 418C556 411 544 408 537 409C532 409 529 413 527 421C503 491 403 581 229 693C216 701 218 704 234 704C302 701 397 644 514 529C518 524 538 505 574 470C585 459 585 459 590 454Z"/><path id="z28422d9" d="M574 470C642 536 714 598 789 658C804 670 823 675 847 675C891 673 934 666 979 654C989 650 996 648 997 646C998 641 993 637 984 635C847 598 748 560 687 522C667 509 634 487 590 454C584 449 568 465 574 470Z"/><path id="z28422d10" d="M515 864C496 860 478 856 461 853C454 851 450 853 451 857C451 861 455 865 461 870C500 904 524 933 540 954C547 963 558 964 566 956C584 936 595 899 595 845C593 717 593 641 602 619C606 608 604 599 595 591C580 578 564 569 548 564C537 560 530 560 526 565C522 568 524 573 530 583C543 606 549 666 549 760C548 822 541 855 534 862C529 865 523 865 515 864Z"/><path id="z28422d11" d="M396 662C424 695 445 711 460 711C468 710 474 706 476 696C477 689 473 679 467 669C457 653 433 644 398 640C393 639 390 642 390 649C389 653 392 657 396 662Z"/><path id="z28422d12" d="M312 830C305 832 302 837 303 843C303 849 307 855 314 858C328 863 346 868 367 872C372 873 378 869 383 862C390 849 418 818 468 769C484 752 494 739 491 732C489 727 481 730 476 734C435 760 390 789 339 820C332 824 323 826 312 830Z"/><path id="z28422d13" d="M664 643C653 657 637 676 616 699C613 701 612 705 615 708C617 709 621 709 626 707C667 685 695 668 715 663C723 660 727 659 726 653C724 645 718 636 710 627C701 617 692 610 682 609C675 608 671 613 671 623C671 629 669 636 664 643Z"/><path id="z28422d14" d="M629 773C665 800 707 834 752 876C762 885 771 892 780 894C784 894 788 892 793 886C798 877 796 861 788 838C776 804 724 774 627 747C621 745 619 746 619 754C618 762 622 768 629 773Z"/></g>
<defs><clipPath id="z28422c1"><use href="#z28422d1"/></clipPath>
	<clipPath id="z28422c2"><use href="#z28422d2"/></clipPath>
	<clipPath id="z28422c3"><use href="#z28422d3"/></clipPath>
	<clipPath id="z28422c4"><use href="#z28422d4"/></clipPath>
	<clipPath id="z28422c5"><use href="#z28422d5"/></clipPath>
	<clipPath id="z28422c6"><use href="#z28422d6"/></clipPath>
	<clipPath id="z28422c7"><use href="#z28422d7"/></clipPath>
	<clipPath id="z28422c8"><use href="#z28422d8"/></clipPath>
	<clipPath id="z28422c9"><use href="#z28422d9"/></clipPath>
	<clipPath id="z28422c10"><use href="#z28422d10"/></clipPath>
	<clipPath id="z28422c11"><use href="#z28422d11"/></clipPath>
	<clipPath id="z28422c12"><use href="#z28422d12"/></clipPath>
	<clipPath id="z28422c13"><use href="#z28422d13"/></clipPath>
	<clipPath id="z28422c14"><use href="#z28422d14"/></clipPath><marker id="guide-arrow" viewBox="0 0 16 16" refX="5" refY="5" markerWidth="4" markerHeight="4" orient="auto-start-reverse"><path d="M 0 0 L 10 5 L 0 10 z" fill="inherit"/></marker></defs>
<g class="strokes"><path pathLength="3333" clip-path="url(#z28422c1)" d="M179 169L269 223L289 265"/><path pathLength="3333" clip-path="url(#z28422c2)" d="M110 361L227 447"/><path pathLength="3333" clip-path="url(#z28422c3)" d="M95 744L137 778L271 493"/><path pathLength="3333" clip-path="url(#z28422c4)" d="M378 224L782 176"/><path pathLength="3333" clip-path="url(#z28422c5)" d="M535 63L577 101L564 399"/><path pathLength="3333" clip-path="url(#z28422c6)" d="M541 243L448 352L324 427"/><path pathLength="3333" clip-path="url(#z28422c7)" d="M643 291L741 336L805 396"/><path pathLength="3333" clip-path="url(#z28422c8)" d="M535 415L554 440L419 585L233 699"/><path pathLength="3333" clip-path="url(#z28422c9)" d="M590 470L815 626L989 646"/><path pathLength="3333" clip-path="url(#z28422c10)" d="M534 572L571 610L565 870L534 912L459 859"/><path pathLength="3333" clip-path="url(#z28422c11)" d="M397 647L466 705"/><path pathLength="3333" clip-path="url(#z28422c12)" d="M308 839L363 841L484 739"/><path pathLength="3333" clip-path="url(#z28422c13)" d="M680 616L692 654L622 702"/><path pathLength="3333" clip-path="url(#z28422c14)" d="M629 758L751 834L779 888"/></g>
<g class="guides"><text class="g1" style="--gs:1" x="179" y="169">①</text><path class="g1 aligned" style="--gs:1" d="M179,169 Q269,223 271.5,228.25 Q286.5,259.75 289,265"/><path class="g1 offset" style="--gs:1" d="M264.68,100.46 Q354.68,154.46 357.18,159.71 Q372.18,191.21 374.68,196.46"/><text class="g2" style="--gs:2" x="110" y="361">②</text><path class="g2 aligned" style="--gs:2" d="M110,361 L227,447"/><path class="g2 offset" style="--gs:2" d="M195.68,292.46 L312.68,378.46"/><text class="g3" style="--gs:3" x="95" y="744">③</text><path class="g3 aligned" style="--gs:3" d="M95,744 Q137,778 153.75,742.38 Q254.25,528.63 271,493"/><path class="g3 offset" style="--gs:3" d="M26.46,675.46 Q68.46,701.28 85.21,674.22 Q185.71,511.88 202.46,484.82"/><text class="g4" style="--gs:4" x="378" y="224">④</text><path class="g4 aligned" style="--gs:4" d="M378,224 L782,176"/><path class="g4 offset" style="--gs:4" d="M378,320 L782,272"/><text class="g5" style="--gs:5" x="535" y="63">⑤</text><path class="g5 aligned" style="--gs:5" d="M535,63 Q577,101 575.38,138.25 Q565.63,361.75 564,399"/><path class="g5 offset" style="--gs:5" d="M439,63 Q481,101 479.38,138.25 Q469.63,361.75 468,399"/><text class="g6" style="--gs:6" x="541" y="243">⑥</text><path class="g6 aligned" style="--gs:6" d="M541,243 Q448,352 432.5,361.38 Q339.5,417.63 324,427"/><path class="g6 offset" style="--gs:6" d="M626.68,311.54 Q533.68,420.54 518.18,429.92 Q425.18,486.17 409.68,495.54"/><text class="g7" style="--gs:7" x="643" y="291">⑦</text><path class="g7 aligned" style="--gs:7" d="M643,291 Q741,336 749,343.5 Q797,388.5 805,396"/><path class="g7 offset" style="--gs:7" d="M728.68,222.46 Q826.68,267.46 834.68,274.96 Q882.68,319.96 890.68,327.46"/><text class="g8" style="--gs:8" x="535" y="415">⑧</text><path class="g8 aligned" style="--gs:8" d="M545,428 Q419,585 395.75,599.25 Q256.25,684.75 233,699"/><path class="g8 offset" style="--gs:8" d="M630.68,496.54 Q504.68,653.54 481.43,667.79 Q341.93,753.29 318.68,767.54"/><text class="g9" style="--gs:9" x="590" y="470">⑨</text><path class="g9 aligned" style="--gs:9" d="M590,470 Q815,626 836.75,628.5 Q967.25,643.5 989,646"/><path class="g9 offset" style="--gs:9" d="M675.68,401.46 Q852.36,533.12 869.44,535.23 Q971.92,547.89 989,550"/><text class="g10" style="--gs:10" x="534" y="572">⑩</text><path class="g10 aligned" style="--gs:10" d="M534,572 Q571,610 568,740 Q565,870 549.5,891 Q534,912 496.5,885.5 Q496.5,885.5 459,859"/><path class="g10 offset" style="--gs:10" d="M438,572 Q456.5,599.27 455,692.56 Q453.5,785.86 445.75,800.93 Q438,816 419.25,796.98 Q419.25,796.98 400.5,777.96"/><text class="g11" style="--gs:11" x="397" y="647">⑪</text><path class="g11 aligned" style="--gs:11" d="M397,647 L466,705"/><path class="g11 offset" style="--gs:11" d="M482.68,578.46 L551.68,636.46"/><text class="g12" style="--gs:12" x="308" y="839">⑫</text><path class="g12 aligned" style="--gs:12" d="M308,839 Q363,841 378.13,828.25 Q468.88,751.75 484,739"/><path class="g12 offset" style="--gs:12" d="M308,743 Q363,745 378.13,732.25 Q468.88,655.75 484,643"/><text class="g13" style="--gs:13" x="680" y="616">⑬</text><path class="g13 aligned" style="--gs:13" d="M686,635 L622,702"/><path class="g13 offset" style="--gs:13" d="M771.68,703.54 L707.68,770.54"/><text class="g14" style="--gs:14" x="629" y="758">⑭</text><path class="g14 aligned" style="--gs:14" d="M629,758 Q751,834 754.5,840.75 Q775.5,881.25 779,888"/><path class="g14 offset" style="--gs:14" d="M714.68,689.46 Q836.68,765.46 840.18,772.21 Q861.18,812.71 864.68,819.46"/></g>
</svg>
