<svg id="z28448" class="acjk" viewBox="0 0 1024 1024" xmlns="http://www.w3.org/2000/svg">
<style>

@keyframes zk {
	to {
		stroke-dashoffset:0;
	}
}
svg.acjk path[clip-path] {
	--t:0.8s;
	animation:zk var(--t) linear forwards var(--d);
	stroke-dasharray:3337;
	stroke-dashoffset:3339;
	stroke-width:128;
	stroke-linecap:round;
	fill:none;
	stroke:#000;
}
svg.acjk path[id] {fill:#ccc;}


    @keyframes guide-fade {
        0% { opacity: 0; }
        3% { opacity: 1; }
        95% { opacity: 1; }
        100% { opacity: 0; }
    }

    svg.acjk #guide-arrow {
        fill: #f77;
    }

    svg.acjk .guides {
        circle {
            fill: #0f6;
        }

        path {
            opacity: 0;
            animation: guide-fade var(--t) linear forwards var(--d);
            stroke-width: 16px;
            stroke-linecap: round;
            stroke: #f77;
            fill: none;
            marker-end: url(#guide-arrow);
        }

        circle,
        path {
            --t: 0.8s;
            opacity: 0;
            animation: guide-fade calc(var(--t) + 0.4s) ease-in-out forwards calc(var(--d) - 0.2s);
        }
    }
</style>
<path id="z28448d1" d="M206 204C225 218 244 234 264 252C272 259 282 263 294 262C300 261 306 256 309 248C312 237 309 222 302 203C297 190 284 179 264 172C217 155 187 150 176 157C172 158 171 165 173 174C174 181 187 190 206 204Z"/>
<path id="z28448d2" d="M115 390C145 424 169 449 193 458C203 461 212 457 219 447C224 438 225 427 223 416C215 387 183 365 129 349C116 345 107 344 101 347C97 348 95 352 97 362C97 370 105 378 115 390Z"/>
<path id="z28448d3" d="M125 750C117 754 113 759 116 771C126 819 144 849 168 863C173 866 178 868 185 867C189 865 191 857 193 840C194 814 222 720 278 560C281 549 283 542 283 538C281 531 279 530 273 535C265 540 227 598 161 711C153 723 143 738 125 750Z"/>
<path id="z28448d4" d="M675 211C717 207 770 202 835 204C843 204 849 202 852 197C854 191 852 183 844 176C804 145 758 159 690 172C657 178 657 178 641 181C600 188 558 196 514 202C485 206 485 206 470 208C435 212 399 216 363 222C347 224 344 230 356 238C377 250 409 253 450 246C458 244 467 241 477 239C504 234 504 234 517 231C537 226 575 220 632 215C661 212 661 212 675 211Z"/>
<path id="z28448d5" d="M514 202C511 182 512 164 512 149C512 136 506 129 495 125C468 114 449 109 438 114C427 118 425 127 435 140C450 160 464 182 470 208C475 229 475 229 477 239C483 266 490 287 500 297C507 304 513 303 516 296C516 294 521 272 517 231C515 212 515 212 514 202Z"/>
<path id="z28448d6" d="M690 172C699 146 709 119 725 96C732 85 733 78 728 72C719 61 705 51 684 41C673 35 663 35 653 41C646 45 647 49 651 57C660 74 657 117 641 181C635 204 635 204 632 215C623 248 617 269 619 281C619 289 625 291 635 284C641 278 658 255 675 211C685 185 685 185 690 172Z"/>
<path id="z28448d7" d="M433 345C425 342 411 340 393 337C384 335 381 336 379 339C375 344 376 350 382 360C403 397 421 448 434 511C437 529 444 545 456 558C468 570 475 572 478 563C479 559 480 554 480 550C479 535 479 535 479 527C478 510 471 490 466 465C463 452 463 452 462 445C455 412 449 389 448 376C446 365 444 349 433 345Z"/>
<path id="z28448d8" d="M657 525C667 541 678 552 689 559C695 563 704 559 714 546C723 533 737 489 758 414C763 393 774 375 790 360C798 351 799 342 791 334C781 323 762 308 735 291C722 283 711 284 700 288C679 294 655 298 629 304C594 311 554 318 509 328C482 333 457 339 433 345C422 347 437 380 448 376C498 361 568 347 657 332C677 328 692 329 699 337C706 345 708 354 707 363C691 441 678 485 668 497C663 506 651 517 657 525Z"/>
<path id="z28448d9" d="M466 465C470 465 477 465 485 464C545 453 597 443 641 436C653 433 658 429 653 422C647 413 637 408 623 407C607 404 553 417 462 445C456 448 459 465 466 465Z"/>
<path id="z28448d10" d="M551 541Q606 529 657 525C667 525 677 501 668 497Q667 496 661 494Q643 491 479 527C471 529 472 550 480 550Q498 549 516 547C539 543 539 543 551 541Z"/>
<path id="z28448d11" d="M583 677C645 669 749 663 895 663C907 662 916 660 919 654C922 647 918 638 908 630C875 603 846 594 822 600C765 612 672 626 583 640C547 645 547 645 529 648C460 658 386 664 308 675C295 676 293 682 303 693C311 702 321 708 334 712C346 715 358 716 370 713C418 700 468 690 522 684C563 679 563 679 583 677Z"/>
<path id="z28448d12" d="M583 640C591 605 594 585 598 581C602 576 603 571 599 565C593 555 567 546 551 541C540 537 512 536 516 547C516 549 520 558 528 575C531 581 537 606 529 648C524 672 524 672 522 684C508 753 454 812 390 850C367 862 337 876 301 892C285 898 286 902 305 904C315 904 332 901 357 895C386 887 414 878 439 866C462 854 484 839 503 818C528 789 556 742 569 694C578 658 578 658 583 640Z"/>
<path id="z28448d13" d="M569 694C621 762 678 834 745 907C756 919 774 923 794 922C860 916 904 911 926 906C931 904 935 903 936 899C936 896 932 890 923 887C831 854 757 819 703 777C664 747 625 713 583 677C573 667 560 682 569 694Z"/>
<defs>
	<clipPath id="z28448c1"><use href="#z28448d1"/></clipPath>
	<clipPath id="z28448c2"><use href="#z28448d2"/></clipPath>
	<clipPath id="z28448c3"><use href="#z28448d3"/></clipPath>
	<clipPath id="z28448c4"><use href="#z28448d4"/></clipPath>
	<clipPath id="z28448c5"><use href="#z28448d5"/></clipPath>
	<clipPath id="z28448c6"><use href="#z28448d6"/></clipPath>
	<clipPath id="z28448c7"><use href="#z28448d7"/></clipPath>
	<clipPath id="z28448c8"><use href="#z28448d8"/></clipPath>
	<clipPath id="z28448c9"><use href="#z28448d9"/></clipPath>
	<clipPath id="z28448c10"><use href="#z28448d10"/></clipPath>
	<clipPath id="z28448c11"><use href="#z28448d11"/></clipPath>
	<clipPath id="z28448c12"><use href="#z28448d12"/></clipPath>
	<clipPath id="z28448c13"><use href="#z28448d13"/></clipPath>
<marker id="guide-arrow" viewBox="0 0 16 16" refX="5" refY="5" markerWidth="4" markerHeight="4" orient="auto-start-reverse"><path d="M 0 0 L 10 5 L 0 10 z" fill="inherit"/></marker></defs>
<path style="--d:1s;" pathLength="3333" clip-path="url(#z28448c1)" d="M179 161L302 253"/>
<path style="--d:2s;" pathLength="3333" clip-path="url(#z28448c2)" d="M103 354L210 453"/>
<path style="--d:3s;" pathLength="3333" clip-path="url(#z28448c3)" d="M125 764L167 798L278 540"/>
<path style="--d:4s;" pathLength="3333" clip-path="url(#z28448c4)" d="M360 232L732 183L849 190"/>
<path style="--d:5s;" pathLength="3333" clip-path="url(#z28448c5)" d="M435 122L483 155L508 295"/>
<path style="--d:6s;" pathLength="3333" clip-path="url(#z28448c6)" d="M657 46L693 88L629 282"/>
<path style="--d:7s;" pathLength="3333" clip-path="url(#z28448c7)" d="M384 341L423 385L465 564"/>
<path style="--d:8s;" pathLength="3333" clip-path="url(#z28448c8)" d="M441 348L698 309L736 329L751 354L682 552"/>
<path style="--d:9s;" pathLength="3333" clip-path="url(#z28448c9)" d="M467 449L648 427"/>
<path style="--d:10s;" pathLength="3333" clip-path="url(#z28448c10)" d="M488 543L662 503"/>
<path style="--d:11s;" pathLength="3333" clip-path="url(#z28448c11)" d="M304 683L839 630L914 641"/>
<path style="--d:12s;" pathLength="3333" clip-path="url(#z28448c12)" d="M525 552L565 585L510 767L422 853L299 898"/>
<path style="--d:13s;" pathLength="3333" clip-path="url(#z28448c13)" d="M578 685L772 872L927 897"/>
<g class="guides"><circle style="--d: 1s" class="g1" cx="179" cy="161" r="16"/><path style="--d: 1s;" class="g1" d="M264.68,92.456 L387.68,184.45600000000002"/><circle style="--d: 2s" class="g2" cx="103" cy="354" r="16"/><path style="--d: 2s;" class="g2" d="M188.68,285.456 L295.68,384.456"/><circle style="--d: 3s" class="g3" cx="125" cy="764" r="16"/><path style="--d: 3s;" class="g3" d="M56.456,695.456 Q98.456,720.4230697674419 112.331,696.7410697674419 Q195.58100000000002,554.6490697674419 209.45600000000002,530.9670697674419"/><circle style="--d: 4s" class="g4" cx="360" cy="232" r="16"/><path style="--d: 4s;" class="g4" d="M360,328 Q732,279 746.625,279.875 Q834.375,285.125 849,286"/><circle style="--d: 5s" class="g5" cx="435" cy="122" r="16"/><path style="--d: 5s;" class="g5" d="M520.68,53.456 Q568.68,86.456 571.805,103.956 Q590.555,208.95600000000002 593.68,226.45600000000002"/><circle style="--d: 6s" class="g6" cx="657" cy="46" r="16"/><path style="--d: 6s;" class="g6" d="M561,46 Q597,88 589,112.25 Q541,257.75 533,282"/><circle style="--d: 7s" class="g7" cx="384" cy="341" r="16"/><path style="--d: 7s;" class="g7" d="M469.68,272.456 Q508.68,316.456 513.93,338.831 Q545.43,473.081 550.68,495.456"/><circle style="--d: 8s" class="g8" cx="441" cy="348" r="16"/><path style="--d: 8s;" class="g8" d="M441,444 Q598.516129032258,405 610.1612903225806,415 Q621.8064516129032,425 626.4032258064516,428.6111111111111 Q631,432.22222222222223 609.8548387096774,492.1111111111111 Q609.8548387096774,492.1111111111111 588.7096774193549,552"/><circle style="--d: 9s" class="g9" cx="467" cy="449" r="16"/><path style="--d: 9s;" class="g9" d="M467,545 L648,523"/><circle style="--d: 10s" class="g10" cx="488" cy="543" r="16"/><path style="--d: 10s;" class="g10" d="M488,639 L662,599"/><circle style="--d: 11s" class="g11" cx="304" cy="683" r="16"/><path style="--d: 11s;" class="g11" d="M304,779 Q839,726 848.375,727.375 Q904.625,735.625 914,737"/><circle style="--d: 12s" class="g12" cx="525" cy="552" r="16"/><path style="--d: 12s;" class="g12" d="M429,552 Q454.56390977443607,575.8439306358382 436.9887218045113,641.5953757225434 Q419.4135338345865,707.3468208092486 391.29323308270676,738.4161849710983 Q363.17293233082705,769.485549132948 323.86842105263156,785.742774566474 Q323.86842105263156,785.742774566474 284.56390977443607,802"/><circle style="--d: 13s" class="g13" cx="578" cy="685" r="16"/><path style="--d: 13s;" class="g13" d="M663.68,616.456 Q810.0527220630372,779.2377358490567 824.6711318051575,781.9580188679246 Q912.3815902578797,798.2797169811321 927,801"/></g></svg>