<!--
  Stroke-order data for 潔, derived from AnimCJK (https://github.com/parsimonhi/animCJK),
  itself derived from the Arphic PL KaitiM fonts. Distributed under the Arphic Public License
  (see ARPHICPL.TXT). Regenerated by scripts/build-strokes.ts — do not edit by hand.
-->
<svg id="z28500" class="acjk" viewBox="0 0 1024 1024" xmlns="http://www.w3.org/2000/svg">
<g class="glyph"><path style="--part:1" id="z28500d1" d="M223 182C238 195 253 212 271 229C279 237 289 241 301 241C307 240 313 236 317 227C320 217 318 202 313 183C307 164 275 148 218 134C207 131 199 130 196 133C192 135 190 141 192 150C193 157 205 166 223 182Z"/><path style="--part:1" id="z28500d2" d="M141 377C170 412 191 437 210 444C219 447 229 444 235 435C240 426 241 416 240 405C237 388 230 375 218 366C204 355 183 348 156 339C145 335 136 334 130 336C125 337 124 341 125 350C126 358 132 366 141 377Z"/><path style="--part:1" id="z28500d3" d="M138 730C130 734 125 739 127 751C134 801 152 833 176 849C181 852 186 855 194 854C198 853 200 843 203 826C207 791 242 696 305 541C309 530 311 522 311 518C310 511 307 510 301 515C295 519 253 577 176 692C167 704 156 719 138 730Z"/><path style="--part:2" id="z28500d4" d="M490 184C556 161 589 147 590 147C594 142 595 137 592 133C587 126 577 122 561 121C542 119 520 131 489 144C460 155 460 155 446 161C422 170 396 173 371 181C352 186 350 194 365 200C386 208 416 208 451 197C477 188 477 188 490 184Z"/><path style="--part:2" id="z28500d5" d="M460 347C459 340 459 305 458 289C456 267 456 267 455 256C453 238 453 211 451 197C448 173 448 173 446 161C441 127 434 94 416 69C409 59 405 54 413 50C423 43 436 41 449 46C465 51 477 58 486 65C492 70 493 79 492 90C489 102 488 120 489 144C490 171 490 171 490 184C490 200 491 226 492 242C493 266 493 266 493 278C493 294 494 320 495 336C495 348 460 359 460 347Z"/><path style="--part:2" id="z28500d6" d="M493 278C509 272 526 266 546 261C562 256 570 252 573 250C576 245 577 241 575 238C571 233 562 228 548 227C530 225 512 234 492 242C467 251 467 251 455 256C441 261 408 269 383 275C366 279 363 286 377 292C391 297 419 301 458 289C481 282 481 282 493 278Z"/><path style="--part:2" id="z28500d7" d="M496 368C513 360 531 352 551 343C579 330 597 318 597 310C597 306 589 305 583 307C554 314 526 326 495 336C472 343 472 343 460 347C428 356 395 365 362 376C351 379 337 379 321 380C314 380 309 383 309 389C307 395 309 401 315 406C326 415 340 424 358 433C363 435 370 433 376 429C404 406 434 395 462 383C485 373 485 373 496 368Z"/><path style="--part:2" id="z28500d8" d="M705 184C739 172 771 166 800 161C808 159 814 159 817 163C821 169 821 181 819 198C813 244 806 278 796 298C785 316 771 324 754 321C741 318 729 314 717 311C702 306 699 312 711 325C732 348 749 368 761 386C768 397 777 396 788 390C821 366 849 310 869 217C873 194 880 176 890 165C896 157 898 151 895 146C890 139 873 129 845 117C833 112 821 113 811 121C800 127 773 136 732 148C689 160 650 169 614 173C604 174 598 176 597 181C596 185 603 189 616 196C629 203 640 205 651 201C657 198 665 197 675 194C695 187 695 187 705 184Z"/><path style="--part:2" id="z28500d9" d="M675 194C683 228 662 283 612 358C609 361 607 363 608 367C608 369 610 370 613 369C635 360 670 320 713 247C719 235 723 226 727 221C730 215 728 209 724 204C717 195 711 188 705 184C697 178 673 184 675 194Z"/><path style="--part:2" id="z28500d10" d="M577 533C569 530 558 529 544 528C524 526 507 525 497 522C493 520 493 517 493 515C493 513 517 490 571 455C586 445 592 437 585 422C574 400 562 385 550 379C541 374 534 373 529 376C524 378 522 384 525 392C532 414 518 445 480 484C478 485 477 485 476 487C463 500 453 506 445 508C430 510 419 515 415 524C406 539 405 551 407 559C409 569 416 574 425 568C436 559 478 553 552 553C563 553 587 535 577 533Z"/><path style="--part:2" id="z28500d11" d="M590 639C628 627 668 620 709 614C716 613 705 596 698 597C642 603 581 612 515 626C510 626 509 624 513 622C539 600 584 572 644 532C667 516 687 502 705 494C713 489 716 484 715 478C712 465 701 451 686 435C678 427 672 422 666 423C659 423 656 427 655 437C650 461 624 494 577 533C560 546 560 546 552 553C458 627 429 627 429 642C428 652 441 670 447 680C451 687 458 688 468 684C497 668 529 657 561 648C580 642 580 642 590 639Z"/><path style="--part:2" id="z28500d12" d="M709 614Q736 654 747 658Q754 659 761 651Q768 641 768 617Q768 599 746 579Q691 539 680 542Q676 543 674 553Q674 557 698 597C705 608 705 608 709 614Z"/><path style="--part:2" id="z28500d13" d="M561 648C575 685 576 725 576 797C575 821 573 837 571 844C568 852 559 856 544 854C512 849 512 849 496 846C488 844 483 847 483 852C482 856 485 860 492 866C532 898 557 925 571 944C578 953 587 956 595 955C603 952 609 939 618 918C627 895 632 865 631 825C628 774 626 739 629 721C632 694 631 673 619 661C609 650 598 643 590 639C581 634 557 639 561 648Z"/><path style="--part:2" id="z28500d14" d="M407 718C388 748 367 776 345 803C329 822 328 843 335 866C338 878 347 882 361 875C395 855 415 821 425 776C429 755 433 736 430 721C428 714 424 710 421 710C415 709 410 712 407 718Z"/><path style="--part:2" id="z28500d15" d="M723 722C753 752 789 789 825 836C835 849 842 858 853 861C858 862 864 859 869 854C877 845 876 827 871 800C864 768 818 733 729 694C728 693 727 693 726 693C719 689 716 690 715 699C714 707 716 715 723 722Z"/></g>
<defs><clipPath id="z28500c1"><use href="#z28500d1"/></clipPath>
	<clipPath id="z28500c2"><use href="#z28500d2"/></clipPath>
	<clipPath id="z28500c3"><use href="#z28500d3"/></clipPath>
	<clipPath id="z28500c4"><use href="#z28500d4"/></clipPath>
	<clipPath id="z28500c5"><use href="#z28500d5"/></clipPath>
	<clipPath id="z28500c6"><use href="#z28500d6"/></clipPath>
	<clipPath id="z28500c7"><use href="#z28500d7"/></clipPath>
	<clipPath id="z28500c8"><use href="#z28500d8"/></clipPath>
	<clipPath id="z28500c9"><use href="#z28500d9"/></clipPath>
	<clipPath id="z28500c10"><use href="#z28500d10"/></clipPath>
	<clipPath id="z28500c11"><use href="#z28500d11"/></clipPath>
	<clipPath id="z28500c12"><use href="#z28500d12"/></clipPath>
	<clipPath id="z28500c13"><use href="#z28500d13"/></clipPath>
	<clipPath id="z28500c14"><use href="#z28500d14"/></clipPath>
	<clipPath id="z28500c15"><use href="#z28500d15"/></clipPath><marker id="guide-arrow" viewBox="0 0 16 16" refX="5" refY="5" markerWidth="4" markerHeight="4" orient="auto-start-reverse"><path d="M 0 0 L 10 5 L 0 10 z" fill="inherit"/></marker></defs>
<g class="strokes"><path style="--part:1" pathLength="3333" clip-path="url(#z28500c1)" d="M199 137L309 233"/><path style="--part:1" pathLength="3333" clip-path="url(#z28500c2)" d="M131 343L230 437"/><path style="--part:1" pathLength="3333" clip-path="url(#z28500c3)" d="M135 741L176 792L304 518"/><path style="--part:2" pathLength="3333" clip-path="url(#z28500c4)" d="M362 190L585 138"/><path style="--part:2" pathLength="3333" clip-path="url(#z28500c5)" d="M416 58L463 98L474 341"/><path style="--part:2" pathLength="3333" clip-path="url(#z28500c6)" d="M374 284L571 240"/><path style="--part:2" pathLength="3333" clip-path="url(#z28500c7)" d="M316 390L368 403L586 312"/><path style="--part:2" pathLength="3333" clip-path="url(#z28500c8)" d="M608 183L818 137L857 157L803 333L772 358L713 315"/><path style="--part:2" pathLength="3333" clip-path="url(#z28500c9)" d="M683 197L699 232L614 363"/><path style="--part:2" pathLength="3333" clip-path="url(#z28500c10)" d="M534 383L554 435L451 539L565 533"/><path style="--part:2" pathLength="3333" clip-path="url(#z28500c11)" d="M666 427L677 476L474 638L490 655L699 610"/><path style="--part:2" pathLength="3333" clip-path="url(#z28500c12)" d="M683 551L739 610L750 653"/><path style="--part:2" pathLength="3333" clip-path="url(#z28500c13)" d="M567 653L602 706L594 878L574 904L491 854"/><path style="--part:2" pathLength="3333" clip-path="url(#z28500c14)" d="M419 718L347 873"/><path style="--part:2" pathLength="3333" clip-path="url(#z28500c15)" d="M722 702L825 785L866 854"/></g>
<g class="guides"><text class="g1" style="--gs:1" x="199" y="137">①</text><path class="g1 aligned" style="--gs:1" d="M199,137 L309,233"/><path class="g1 offset" style="--gs:1" d="M284.68,68.46 L394.68,164.46"/><text class="g2" style="--gs:2" x="131" y="343">②</text><path class="g2 aligned" style="--gs:2" d="M131,343 L230,437"/><path class="g2 offset" style="--gs:2" d="M216.68,274.46 L315.68,368.46"/><text class="g3" style="--gs:3" x="135" y="741">③</text><path class="g3 aligned" style="--gs:3" d="M135,741 Q176,792 192,757.75 Q288,552.25 304,518"/><path class="g3 offset" style="--gs:3" d="M66.46,672.46 Q107.46,710.7 123.46,685.02 Q219.46,530.92 235.46,505.24"/><text class="g4" style="--gs:4" x="362" y="190">④</text><path class="g4 aligned" style="--gs:4" d="M362,190 L585,138"/><path class="g4 offset" style="--gs:4" d="M362,286 L585,234"/><text class="g5" style="--gs:5" x="416" y="58">⑤</text><path class="g5 aligned" style="--gs:5" d="M416,58 Q463,98 464.38,128.38 Q472.63,310.63 474,341"/><path class="g5 offset" style="--gs:5" d="M501.68,-10.54 Q548.68,29.46 550.05,59.83 Q558.3,242.08 559.68,272.46"/><text class="g6" style="--gs:6" x="374" y="284">⑥</text><path class="g6 aligned" style="--gs:6" d="M374,284 L571,240"/><path class="g6 offset" style="--gs:6" d="M374,380 L571,336"/><text class="g7" style="--gs:7" x="316" y="390">⑦</text><path class="g7 aligned" style="--gs:7" d="M316,390 Q368,403 395.25,391.63 Q558.75,323.38 586,312"/><path class="g7 offset" style="--gs:7" d="M316,486 Q368,499 395.25,487.63 Q558.75,419.38 586,408"/><text class="g8" style="--gs:8" x="608" y="183">⑧</text><path class="g8 aligned" style="--gs:8" d="M608,183 Q818,137 837.5,147 Q857,157 830,245 Q803,333 787.5,345.5 Q772,358 742.5,336.5 Q742.5,336.5 713,315"/><path class="g8 offset" style="--gs:8" d="M608,279 Q737.04,233 749.02,243 Q761,253 744.41,292 Q727.82,331 718.3,337.25 Q708.77,343.5 690.64,332.75 Q690.64,332.75 672.52,322"/><text class="g9" style="--gs:9" x="683" y="197">⑨</text><path class="g9 aligned" style="--gs:9" d="M691,215 L614,363"/><path class="g9 offset" style="--gs:9" d="M811,215 L734,363"/><text class="g10" style="--gs:10" x="534" y="383">⑩</text><path class="g10 aligned" style="--gs:10" d="M534,383 Q554,435 528.25,461 Q451,539 479.5,537.5 Q536.5,534.5 565,533"/><path class="g10 offset" style="--gs:10" d="M654,383 Q664,409 651.13,422 Q612.5,461 626.75,460.25 Q655.25,458.75 669.5,458"/><text class="g11" style="--gs:11" x="666" y="427">⑪</text><path class="g11 aligned" style="--gs:11" d="M666,427 Q677,476 575.5,557 Q474,638 482,646.5 Q490,655 594.5,632.5 Q594.5,632.5 699,610"/><path class="g11 offset" style="--gs:11" d="M786,427 Q791.5,455.37 740.75,502.26 Q690,549.16 694,554.08 Q698,559 750.25,545.97 Q750.25,545.97 802.5,532.95"/><text class="g12" style="--gs:12" x="683" y="551">⑫</text><path class="g12 aligned" style="--gs:12" d="M683,551 Q739,610 740.38,615.38 Q748.63,647.63 750,653"/><path class="g12 offset" style="--gs:12" d="M768.68,482.46 Q824.68,541.46 826.06,546.83 Q834.31,579.08 835.68,584.46"/><text class="g13" style="--gs:13" x="567" y="653">⑬</text><path class="g13 aligned" style="--gs:13" d="M567,653 Q602,706 598,792 Q594,878 584,891 Q574,904 532.5,879 Q532.5,879 491,854"/><path class="g13 offset" style="--gs:13" d="M471,653 Q488.5,685.73 486.5,738.84 Q484.5,791.94 479.5,799.97 Q474.5,808 453.75,792.56 Q453.75,792.56 433,777.12"/><text class="g14" style="--gs:14" x="419" y="718">⑭</text><path class="g14 aligned" style="--gs:14" d="M419,718 L347,873"/><path class="g14 offset" style="--gs:14" d="M539,718 L467,873"/><text class="g15" style="--gs:15" x="722" y="702">⑮</text><path class="g15 aligned" style="--gs:15" d="M722,702 Q825,785 830.13,793.63 Q860.88,845.38 866,854"/><path class="g15 offset" style="--gs:15" d="M807.68,633.46 Q910.68,716.46 915.81,725.08 Q946.56,776.83 951.68,785.46"/></g>
<g class="parts"><rect data-part="2" data-literal="絜" role="button" tabindex="0" aria-label="Part 絜" x="244" y="0" width="694" height="976"/><rect data-part="1" data-literal="氵" data-radical="true" role="button" tabindex="0" aria-label="Part 氵 (radical)" x="59" y="65" width="322" height="799"/></g>
</svg>
