<!--
  Stroke-order data for 澱, derived from AnimCJK (https://github.com/parsimonhi/animCJK),
  itself derived from the Arphic PL KaitiM fonts. Distributed under the Arphic Public License
  (see ARPHICPL.TXT). Regenerated by scripts/build-strokes.ts — do not edit by hand.
-->
<svg id="z28593" class="acjk" viewBox="0 0 1024 1024" xmlns="http://www.w3.org/2000/svg">
<g class="glyph"><path style="--part:1" id="z28593d1" d="M152 217C166 230 182 246 198 263C206 271 215 276 225 276C231 276 237 271 241 263C244 254 242 240 238 221C235 209 225 196 207 189C164 171 137 164 128 169C124 170 122 177 124 185C124 191 135 202 152 217Z"/><path style="--part:1" id="z28593d2" d="M105 425C128 449 146 467 165 473C192 481 197 456 190 432C182 406 136 390 98 368C73 353 67 368 74 385C79 398 91 410 105 425Z"/><path style="--part:1" id="z28593d3" d="M69 692C62 695 58 700 60 711C64 755 78 781 99 796C104 799 108 801 115 800C119 798 121 791 123 777C124 758 157 675 220 529C223 519 226 513 226 509C225 503 223 502 218 506C212 508 173 559 104 660C96 670 86 682 69 692Z"/><path style="--part:2" id="z28593d4" d="M523 298C535 261 550 241 565 230C575 221 575 207 565 200C501 157 503 162 456 184C435 193 386 209 340 223C330 227 349 252 359 248C363 245 400 234 469 216C486 211 494 219 492 235C489 255 485 274 481 292C478 306 518 311 523 298Z"/><path style="--part:2" id="z28593d5" d="M346 361C361 359 479 333 532 323C554 318 545 304 523 298C510 294 494 287 481 292C460 300 388 322 347 333C338 335 337 363 346 361Z"/><path style="--part:2" id="z28593d6" d="M340 223C316 206 297 199 285 205C277 208 276 216 281 224C292 242 300 276 301 327C302 549 247 705 141 884C126 908 147 903 159 891C175 875 204 844 234 793C308 665 341 495 346 361C347 342 347 342 347 333C348 294 354 269 359 248C361 238 348 229 340 223Z"/><path style="--part:2" id="z28593d7" d="M527 502C553 495 566 489 568 488C572 483 573 478 570 476C559 466 547 463 533 464C518 464 503 470 490 476C466 486 446 492 422 498C410 500 398 502 386 505C375 507 361 508 352 510C335 513 337 518 350 526C358 531 369 534 387 534C398 533 410 533 422 530C446 523 464 517 488 512C514 505 514 505 527 502Z"/><path style="--part:2" id="z28593d8" d="M422 498C422 462 429 452 420 443C409 432 399 425 389 422C383 419 377 420 374 423C371 424 368 428 371 433C375 441 384 464 386 505C387 524 387 524 387 534C387 554 389 580 392 612C394 622 422 614 422 604C422 555 422 555 422 530C422 509 422 509 422 498Z"/><path style="--part:2" id="z28593d9" d="M513 577C517 551 523 526 527 502C531 477 531 477 533 464C535 448 541 427 552 402C553 397 551 389 542 382C526 370 512 365 501 362C494 359 488 360 484 364C480 366 479 372 483 380C498 410 491 446 490 476C489 500 489 500 488 512C486 534 482 559 480 587C480 598 511 588 513 577Z"/><path style="--part:2" id="z28593d10" d="M392 612C382 614 360 617 329 623C316 625 315 630 326 638C342 648 357 652 370 649C440 628 503 612 562 604C566 603 572 601 575 595C576 589 569 584 559 580C548 575 523 573 513 577C491 584 491 584 480 587C460 592 440 599 422 604C402 609 402 609 392 612Z"/><path style="--part:2" id="z28593d11" d="M356 690C353 723 322 776 262 846C253 855 255 857 268 854C302 844 342 807 387 743C398 726 406 714 413 707C417 700 418 694 416 690C413 683 405 680 392 678C377 675 367 675 361 678C358 678 356 682 356 690Z"/><path style="--part:2" id="z28593d12" d="M479 694C490 712 502 733 514 757C518 765 524 769 531 772C535 773 541 772 546 767C551 761 553 750 554 735C554 722 548 709 534 696C520 682 504 671 487 660C480 655 475 653 472 654C469 654 466 658 466 665C465 669 470 679 479 694Z"/><path style="--part:2" id="z28593d13" d="M631 181C626 178 620 176 613 174C602 170 595 169 590 173C585 176 584 182 589 188C604 204 614 251 606 329C602 360 592 384 584 406C569 446 588 436 608 405C650 337 647 234 649 212C649 200 642 186 631 181Z"/><path style="--part:2" id="z28593d14" d="M649 212C655 211 682 204 727 184C741 177 755 170 754 189C752 221 744 251 738 279C730 311 728 339 734 362C737 378 746 391 761 401C781 413 812 419 852 419C892 418 921 411 942 402C950 398 953 392 947 383C939 370 928 362 917 356C910 352 899 352 885 359C862 369 838 373 812 373C794 372 783 366 778 354C770 337 771 308 781 266C786 239 800 212 827 188C837 178 838 170 828 161C814 148 799 138 783 131C776 128 767 129 758 134C721 152 679 168 631 181C620 185 637 214 649 212Z"/><path style="--part:2" id="z28593d15" d="M740 708C773 648 786 604 797 559C801 538 806 522 817 512C825 503 824 494 813 487C800 478 784 470 765 465C752 461 740 464 729 471C696 490 658 506 613 515C598 517 587 520 581 525C576 528 579 533 590 538C604 544 622 542 645 535C671 525 698 518 725 510C737 505 743 509 744 524C744 569 738 613 707 673C700 685 694 697 686 709C650 755 597 780 527 812C502 822 537 823 554 821C618 811 667 797 714 746C724 734 732 721 740 708Z"/><path style="--part:2" id="z28593d16" d="M714 746C745 788 776 826 805 861C813 871 825 878 841 878C925 876 969 869 974 862C976 857 974 855 969 853C928 835 894 816 864 801C824 782 796 768 740 708C718 685 718 685 707 673C685 650 664 625 642 597C635 588 627 581 618 581C602 579 592 582 588 587C585 589 586 593 592 597C606 605 636 643 686 709C705 734 705 734 714 746Z"/></g>
<defs><clipPath id="z28593c1"><use href="#z28593d1"/></clipPath>
	<clipPath id="z28593c2"><use href="#z28593d2"/></clipPath>
	<clipPath id="z28593c3"><use href="#z28593d3"/></clipPath>
	<clipPath id="z28593c4"><use href="#z28593d4"/></clipPath>
	<clipPath id="z28593c5"><use href="#z28593d5"/></clipPath>
	<clipPath id="z28593c6"><use href="#z28593d6"/></clipPath>
	<clipPath id="z28593c7"><use href="#z28593d7"/></clipPath>
	<clipPath id="z28593c8"><use href="#z28593d8"/></clipPath>
	<clipPath id="z28593c9"><use href="#z28593d9"/></clipPath>
	<clipPath id="z28593c10"><use href="#z28593d10"/></clipPath>
	<clipPath id="z28593c11"><use href="#z28593d11"/></clipPath>
	<clipPath id="z28593c12"><use href="#z28593d12"/></clipPath>
	<clipPath id="z28593c13"><use href="#z28593d13"/></clipPath>
	<clipPath id="z28593c14"><use href="#z28593d14"/></clipPath>
	<clipPath id="z28593c15"><use href="#z28593d15"/></clipPath>
	<clipPath id="z28593c16"><use href="#z28593d16"/></clipPath><marker id="guide-arrow" viewBox="0 0 16 16" refX="5" refY="5" markerWidth="4" markerHeight="4" orient="auto-start-reverse"><path d="M 0 0 L 10 5 L 0 10 z" fill="inherit"/></marker></defs>
<g class="strokes"><path style="--part:1" pathLength="3333" clip-path="url(#z28593c1)" d="M130 176L204 223L222 273"/><path style="--part:1" pathLength="3333" clip-path="url(#z28593c2)" d="M79 371L183 468"/><path style="--part:1" pathLength="3333" clip-path="url(#z28593c3)" d="M63 702L108 746L219 512"/><path style="--part:2" pathLength="3333" clip-path="url(#z28593c4)" d="M345 230L504 194L532 225L500 303"/><path style="--part:2" pathLength="3333" clip-path="url(#z28593c5)" d="M344 351L538 315"/><path style="--part:2" pathLength="3333" clip-path="url(#z28593c6)" d="M285 209L327 257L301 548L243 731L144 894"/><path style="--part:2" pathLength="3333" clip-path="url(#z28593c7)" d="M348 517L564 478"/><path style="--part:2" pathLength="3333" clip-path="url(#z28593c8)" d="M380 427L403 460L403 611"/><path style="--part:2" pathLength="3333" clip-path="url(#z28593c9)" d="M487 369L521 402L490 588"/><path style="--part:2" pathLength="3333" clip-path="url(#z28593c10)" d="M330 632L567 589"/><path style="--part:2" pathLength="3333" clip-path="url(#z28593c11)" d="M362 680L381 711L264 850"/><path style="--part:2" pathLength="3333" clip-path="url(#z28593c12)" d="M474 664L539 768"/><path style="--part:2" pathLength="3333" clip-path="url(#z28593c13)" d="M595 180L625 209L627 276L588 421"/><path style="--part:2" pathLength="3333" clip-path="url(#z28593c14)" d="M633 190L772 157L794 182L754 295L761 370L806 394L945 384"/><path style="--part:2" pathLength="3333" clip-path="url(#z28593c15)" d="M584 527L737 486L782 515L701 726L643 775L528 817"/><path style="--part:2" pathLength="3333" clip-path="url(#z28593c16)" d="M595 588L823 824L967 857"/></g>
<g class="guides"><text class="g1" style="--gs:1" x="130" y="176">①</text><path class="g1 aligned" style="--gs:1" d="M130,176 Q204,223 206.25,229.25 Q219.75,266.75 222,273"/><path class="g1 offset" style="--gs:1" d="M215.68,107.46 Q289.68,154.46 291.93,160.71 Q305.43,198.21 307.68,204.46"/><text class="g2" style="--gs:2" x="79" y="371">②</text><path class="g2 aligned" style="--gs:2" d="M79,371 L183,468"/><path class="g2 offset" style="--gs:2" d="M164.68,302.46 L268.68,399.46"/><text class="g3" style="--gs:3" x="63" y="702">③</text><path class="g3 aligned" style="--gs:3" d="M63,702 Q108,746 121.88,716.75 Q205.13,541.25 219,512"/><path class="g3 offset" style="--gs:3" d="M-5.54,633.46 Q39.46,664.57 53.33,643.89 Q136.58,519.79 150.46,499.11"/><text class="g4" style="--gs:4" x="345" y="230">④</text><path class="g4 aligned" style="--gs:4" d="M345,230 Q504,194 511,201.75 Q532,225 524,244.5 Q508,283.5 500,303"/><path class="g4 offset" style="--gs:4" d="M345,326 Q424.5,290 428,297.75 Q438.5,321 434.5,326.88 Q426.5,338.63 422.5,344.5"/><text class="g5" style="--gs:5" x="344" y="351">⑤</text><path class="g5 aligned" style="--gs:5" d="M344,351 L538,315"/><path class="g5 offset" style="--gs:5" d="M344,447 L538,411"/><text class="g6" style="--gs:6" x="285" y="209">⑥</text><path class="g6 aligned" style="--gs:6" d="M285,209 Q327,257 314,402.5 Q301,548 272,639.5 Q243,731 193.5,812.5 Q193.5,812.5 144,894"/><path class="g6 offset" style="--gs:6" d="M189,209 Q210,250.27 203.5,375.38 Q197,500.49 182.5,579.17 Q168,657.84 143.25,727.92 Q143.25,727.92 118.5,798"/><text class="g7" style="--gs:7" x="348" y="517">⑦</text><path class="g7 aligned" style="--gs:7" d="M348,517 L564,478"/><path class="g7 offset" style="--gs:7" d="M348,613 L564,574"/><text class="g8" style="--gs:8" x="380" y="427">⑧</text><path class="g8 aligned" style="--gs:8" d="M392,444 L403,611"/><path class="g8 offset" style="--gs:8" d="M512,444 L523,611"/><text class="g9" style="--gs:9" x="487" y="369">⑨</text><path class="g9 aligned" style="--gs:9" d="M487,369 Q521,402 517.13,425.25 Q493.88,564.75 490,588"/><path class="g9 offset" style="--gs:9" d="M391,369 Q425,402 421.13,425.25 Q397.88,564.75 394,588"/><text class="g10" style="--gs:10" x="330" y="632">⑩</text><path class="g10 aligned" style="--gs:10" d="M330,632 L567,589"/><path class="g10 offset" style="--gs:10" d="M330,728 L567,685"/><text class="g11" style="--gs:11" x="362" y="680">⑪</text><path class="g11 aligned" style="--gs:11" d="M372,696 L264,850"/><path class="g11 offset" style="--gs:11" d="M457.68,764.54 L349.68,918.54"/><text class="g12" style="--gs:12" x="474" y="664">⑫</text><path class="g12 aligned" style="--gs:12" d="M474,664 L539,768"/><path class="g12 offset" style="--gs:12" d="M559.68,595.46 L624.68,699.46"/><text class="g13" style="--gs:13" x="595" y="180">⑬</text><path class="g13 aligned" style="--gs:13" d="M610,195 Q627,276 622.13,294.13 Q592.88,402.88 588,421"/><path class="g13 offset" style="--gs:13" d="M730,195 Q747,276 742.13,294.13 Q712.88,402.88 708,421"/><text class="g14" style="--gs:14" x="633" y="190">⑭</text><path class="g14 aligned" style="--gs:14" d="M633,190 Q772,157 783,169.5 Q794,182 774,238.5 Q754,295 757.5,332.5 Q761,370 783.5,382 Q806,394 875.5,389 Q875.5,389 945,384"/><path class="g14 offset" style="--gs:14" d="M710.11,121.46 Q814.76,88.46 823.04,100.96 Q831.32,113.46 816.26,169.96 Q801.21,226.46 803.84,263.96 Q806.48,301.46 823.42,313.46 Q840.35,325.46 892.68,320.46 Q892.68,320.46 945,315.46"/><text class="g15" style="--gs:15" x="584" y="527">⑮</text><path class="g15 aligned" style="--gs:15" d="M584,527 Q737,486 759.5,500.5 Q782,515 741.5,620.5 Q701,726 672,750.5 Q643,775 585.5,796 Q585.5,796 528,817"/><path class="g15 offset" style="--gs:15" d="M488,623 Q583.17,602.5 597.17,609.75 Q611.17,617 585.97,669.75 Q560.78,722.5 542.74,734.75 Q524.7,747 488.93,757.5 Q488.93,757.5 453.17,768"/><text class="g16" style="--gs:16" x="595" y="588">⑯</text><path class="g16 aligned" style="--gs:16" d="M595,588 Q823,824 841,828.13 Q949,852.88 967,857"/><path class="g16 offset" style="--gs:16" d="M680.68,519.46 Q856.17,731.37 870.02,735.07 Q953.15,757.3 967,761"/></g>
<g class="parts"><rect data-part="2" data-literal="殿" role="button" tabindex="0" aria-label="Part 殿" x="72" y="85" width="952" height="881"/><rect data-part="1" data-literal="氵" data-radical="true" role="button" tabindex="0" aria-label="Part 氵 (radical)" x="0" y="104" width="294" height="714"/></g>
</svg>
