<!--
  Stroke-order data for 濁, derived from AnimCJK (https://github.com/parsimonhi/animCJK),
  itself derived from the Arphic PL KaitiM fonts. Distributed under the Arphic Public License
  (see ARPHICPL.TXT). Regenerated by scripts/build-strokes.ts — do not edit by hand.
-->
<svg id="z28609" class="acjk" viewBox="0 0 1024 1024" xmlns="http://www.w3.org/2000/svg">
<g class="glyph"><path id="z28609d1" d="M213 194C228 208 242 224 257 242C265 252 275 257 287 257C295 257 301 252 305 243C309 233 308 217 303 196C300 184 290 171 271 163C223 143 195 137 188 141C183 143 181 149 183 158C184 166 196 177 213 194Z"/><path id="z28609d2" d="M142 388C177 421 205 446 230 453C240 455 250 450 255 440C259 430 259 419 256 408C251 391 240 379 227 371C198 353 168 344 137 344C132 344 128 345 125 347C120 348 119 352 122 362C124 370 131 378 142 388Z"/><path id="z28609d3" d="M129 742C121 747 117 751 120 763C130 811 148 841 172 855C177 858 182 860 189 858C193 856 195 848 197 831C199 804 208 770 222 730C268 590 291 518 291 514C290 507 287 506 281 511C273 517 234 580 166 700C158 714 147 730 129 742Z"/><path id="z28609d4" d="M412 128C406 125 392 123 370 122C363 121 358 122 356 125C352 129 355 136 361 145C381 175 399 216 415 269C419 284 426 297 436 307C448 319 455 320 457 310C457 306 458 301 458 297C457 287 456 277 454 268C452 261 442 226 425 160C423 149 423 132 412 128Z"/><path id="z28609d5" d="M736 266C738 280 743 287 751 288C759 288 765 283 772 276C777 270 791 254 806 224C820 194 837 170 861 155C873 147 875 137 866 127C857 116 838 101 809 82C800 76 771 77 721 85C630 98 533 109 412 128C401 130 414 164 425 160C424 159 424 159 426 159C448 152 475 146 509 141C524 138 524 138 532 137C549 134 614 125 631 123C659 120 659 120 673 118C727 111 763 106 780 117C784 120 783 130 779 144C762 194 750 228 740 248C738 254 735 260 736 266Z"/><path id="z28609d6" d="M557 254C559 193 550 179 534 139C533 138 533 138 532 137C527 131 509 133 509 141C511 161 512 185 514 213C515 231 523 245 537 257C542 261 557 261 557 254Z"/><path id="z28609d7" d="M648 236C676 166 700 147 693 136C688 128 679 124 673 118C662 109 628 109 631 123C635 133 631 173 619 243C617 253 644 245 648 236Z"/><path id="z28609d8" d="M507 290C559 280 636 272 736 266C742 266 744 253 740 248C736 243 730 238 722 233C710 225 685 226 648 236C629 241 629 241 619 243C603 246 578 250 557 254C544 256 544 256 537 257C508 261 480 264 454 268C444 270 448 297 458 297C460 297 465 297 473 296C496 292 496 292 507 290Z"/><path id="z28609d9" d="M496 369C520 344 532 329 532 323C531 317 521 299 507 290C498 283 471 285 473 296C477 312 461 343 423 391C405 413 384 436 360 459C354 463 350 466 349 469C346 473 349 476 356 476C372 476 415 449 476 389C489 376 489 376 496 369Z"/><path id="z28609d10" d="M476 389C496 393 565 388 683 372C741 363 773 363 779 372C793 395 798 479 790 622C785 708 767 774 746 820C736 841 725 855 710 861C703 863 681 859 644 850C637 848 635 848 635 852C634 854 638 858 645 865C668 888 685 910 695 930C700 940 706 946 714 946C728 944 740 934 754 921C773 901 791 876 805 845C832 780 848 648 850 448C850 425 855 404 869 388C876 378 881 372 881 368C880 363 873 357 861 348C844 335 825 326 804 320C790 316 758 323 706 335C651 346 573 359 496 369C487 371 467 387 476 389Z"/><path id="z28609d11" d="M389 514C381 510 367 507 348 506C341 505 337 506 336 509C333 512 334 517 340 526C356 552 372 587 384 632C387 644 392 655 402 664C412 674 419 675 421 667C421 662 422 657 422 652C420 642 419 633 417 624C407 585 400 558 396 542C394 533 398 518 389 514Z"/><path id="z28609d12" d="M653 592C667 557 684 536 701 525C712 516 712 504 704 495C696 486 677 475 649 462C639 457 627 456 616 461C587 471 560 482 533 488C502 495 502 495 486 498C453 504 421 509 389 514C380 516 387 545 396 542C408 537 439 532 488 523C517 517 517 517 532 514C586 502 617 496 625 505C631 512 626 540 610 588C605 601 648 605 653 592Z"/><path id="z28609d13" d="M530 637C566 631 611 626 665 622C671 621 674 618 675 614C675 609 667 602 653 592C641 583 624 585 610 588C581 594 554 601 530 606C503 611 503 611 489 614C464 618 439 620 417 624C408 626 413 652 422 652C432 652 447 649 489 643C516 639 516 639 530 637Z"/><path id="z28609d14" d="M528 733C528 699 530 667 530 637C530 616 530 616 530 606C530 573 530 542 532 514C533 497 533 497 533 488C533 465 537 453 532 447C520 432 505 424 492 419C485 416 479 416 474 419C469 421 467 426 470 432C479 458 484 480 486 498C487 515 487 515 488 523C489 543 489 588 489 614C489 633 489 633 489 643C489 709 489 709 489 742C489 755 528 746 528 733Z"/><path id="z28609d15" d="M617 709C587 715 558 726 528 733C502 739 502 739 489 742C450 750 415 759 370 770C357 772 340 772 320 772C312 771 307 775 306 782C305 788 306 795 311 800C322 811 338 823 358 834C363 837 370 834 377 830C404 811 476 783 591 744C593 743 606 738 630 728C637 725 625 707 617 709Z"/><path id="z28609d16" d="M630 728C662 775 679 802 687 805C691 806 697 804 702 799C707 792 708 781 709 765C709 750 702 732 684 716C666 700 645 685 624 671C617 666 612 665 608 666C605 666 602 670 602 677C601 683 609 698 617 709C626 722 626 722 630 728Z"/></g>
<defs><clipPath id="z28609c1"><use href="#z28609d1"/></clipPath>
	<clipPath id="z28609c2"><use href="#z28609d2"/></clipPath>
	<clipPath id="z28609c3"><use href="#z28609d3"/></clipPath>
	<clipPath id="z28609c4"><use href="#z28609d4"/></clipPath>
	<clipPath id="z28609c5"><use href="#z28609d5"/></clipPath>
	<clipPath id="z28609c6"><use href="#z28609d6"/></clipPath>
	<clipPath id="z28609c7"><use href="#z28609d7"/></clipPath>
	<clipPath id="z28609c8"><use href="#z28609d8"/></clipPath>
	<clipPath id="z28609c9"><use href="#z28609d9"/></clipPath>
	<clipPath id="z28609c10"><use href="#z28609d10"/></clipPath>
	<clipPath id="z28609c11"><use href="#z28609d11"/></clipPath>
	<clipPath id="z28609c12"><use href="#z28609d12"/></clipPath>
	<clipPath id="z28609c13"><use href="#z28609d13"/></clipPath>
	<clipPath id="z28609c14"><use href="#z28609d14"/></clipPath>
	<clipPath id="z28609c15"><use href="#z28609d15"/></clipPath>
	<clipPath id="z28609c16"><use href="#z28609d16"/></clipPath><marker id="guide-arrow" viewBox="0 0 16 16" refX="5" refY="5" markerWidth="4" markerHeight="4" orient="auto-start-reverse"><path d="M 0 0 L 10 5 L 0 10 z" fill="inherit"/></marker></defs>
<g class="strokes"><path pathLength="3333" clip-path="url(#z28609c1)" d="M190 146L265 200L288 253"/><path pathLength="3333" clip-path="url(#z28609c2)" d="M127 357L247 446"/><path pathLength="3333" clip-path="url(#z28609c3)" d="M130 755L171 804L283 517"/><path pathLength="3333" clip-path="url(#z28609c4)" d="M363 130L394 149L451 307"/><path pathLength="3333" clip-path="url(#z28609c5)" d="M420 132L791 99L826 142L751 284"/><path pathLength="3333" clip-path="url(#z28609c6)" d="M526 143L539 253"/><path pathLength="3333" clip-path="url(#z28609c7)" d="M637 129L663 152L629 236"/><path pathLength="3333" clip-path="url(#z28609c8)" d="M461 275L734 255"/><path pathLength="3333" clip-path="url(#z28609c9)" d="M481 298L504 330L359 469"/><path pathLength="3333" clip-path="url(#z28609c10)" d="M489 382L780 343L834 383L812 677L779 824L709 903L643 854"/><path pathLength="3333" clip-path="url(#z28609c11)" d="M342 513L371 533L410 668"/><path pathLength="3333" clip-path="url(#z28609c12)" d="M398 518L633 481L667 519L617 583"/><path pathLength="3333" clip-path="url(#z28609c13)" d="M424 627L669 611"/><path pathLength="3333" clip-path="url(#z28609c14)" d="M478 422L508 462L501 739"/><path pathLength="3333" clip-path="url(#z28609c15)" d="M313 784L371 801L623 721"/><path pathLength="3333" clip-path="url(#z28609c16)" d="M611 673L693 799"/></g>
<g class="guides"><text class="g1" style="--gs:1" x="190" y="146">①</text><path class="g1 aligned" style="--gs:1" d="M190,146 Q265,200 267.88,206.63 Q285.13,246.38 288,253"/><path class="g1 offset" style="--gs:1" d="M275.68,77.46 Q350.68,131.46 353.56,138.08 Q370.81,177.83 373.68,184.46"/><text class="g2" style="--gs:2" x="127" y="357">②</text><path class="g2 aligned" style="--gs:2" d="M127,357 L247,446"/><path class="g2 offset" style="--gs:2" d="M212.68,288.46 L332.68,377.46"/><text class="g3" style="--gs:3" x="130" y="755">③</text><path class="g3 aligned" style="--gs:3" d="M130,755 Q171,804 185,768.13 Q269,552.88 283,517"/><path class="g3 offset" style="--gs:3" d="M61.46,686.46 Q102.46,723.75 116.46,696.45 Q200.46,532.6 214.46,505.3"/><text class="g4" style="--gs:4" x="363" y="130">④</text><path class="g4 aligned" style="--gs:4" d="M379,140 L451,307"/><path class="g4 offset" style="--gs:4" d="M499,140 L571,307"/><text class="g5" style="--gs:5" x="420" y="132">⑤</text><path class="g5 aligned" style="--gs:5" d="M420,132 Q791,99 799.75,109.75 Q826,142 807.25,177.5 Q769.75,248.5 751,284"/><path class="g5 offset" style="--gs:5" d="M420,228 Q681.34,195 687.51,200.38 Q706,216.5 692.79,234.25 Q666.38,269.75 653.17,287.5"/><text class="g6" style="--gs:6" x="526" y="143">⑥</text><path class="g6 aligned" style="--gs:6" d="M526,143 L539,253"/><path class="g6 offset" style="--gs:6" d="M646,143 L659,253"/><text class="g7" style="--gs:7" x="637" y="129">⑦</text><path class="g7 aligned" style="--gs:7" d="M650,141 L629,236"/><path class="g7 offset" style="--gs:7" d="M770,141 L749,236"/><text class="g8" style="--gs:8" x="461" y="275">⑧</text><path class="g8 aligned" style="--gs:8" d="M461,275 L734,255"/><path class="g8 offset" style="--gs:8" d="M461,371 L734,351"/><text class="g9" style="--gs:9" x="481" y="298">⑨</text><path class="g9 aligned" style="--gs:9" d="M493,314 L359,469"/><path class="g9 offset" style="--gs:9" d="M578.68,382.54 L444.68,537.54"/><text class="g10" style="--gs:10" x="489" y="382">⑩</text><path class="g10 aligned" style="--gs:10" d="M489,382 Q780,343 807,363 Q834,383 823,530 Q812,677 795.5,750.5 Q779,824 744,863.5 Q709,903 676,878.5 Q676,878.5 643,854"/><path class="g10 offset" style="--gs:10" d="M489,478 Q699.03,439 718.51,452.11 Q738,465.21 730.06,561.55 Q722.12,657.89 710.21,706.06 Q698.3,754.23 673.04,780.11 Q647.78,806 623.97,789.94 Q623.97,789.94 600.15,773.89"/><text class="g11" style="--gs:11" x="342" y="513">⑪</text><path class="g11 aligned" style="--gs:11" d="M357,523 L410,668"/><path class="g11 offset" style="--gs:11" d="M477,523 L530,668"/><text class="g12" style="--gs:12" x="398" y="518">⑫</text><path class="g12 aligned" style="--gs:12" d="M398,518 Q633,481 641.5,490.5 Q667,519 654.5,535 Q629.5,567 617,583"/><path class="g12 offset" style="--gs:12" d="M398,614 Q547.39,577 552.79,586.5 Q569,615 561.05,631 Q545.16,663 537.22,679"/><text class="g13" style="--gs:13" x="424" y="627">⑬</text><path class="g13 aligned" style="--gs:13" d="M424,627 L669,611"/><path class="g13 offset" style="--gs:13" d="M424,723 L669,707"/><text class="g14" style="--gs:14" x="478" y="422">⑭</text><path class="g14 aligned" style="--gs:14" d="M478,422 Q508,462 507.13,496.63 Q501.88,704.38 501,739"/><path class="g14 offset" style="--gs:14" d="M382,422 Q412,462 411.13,496.63 Q405.88,704.38 405,739"/><text class="g15" style="--gs:15" x="313" y="784">⑮</text><path class="g15 aligned" style="--gs:15" d="M313,784 Q371,801 402.5,791 Q591.5,731 623,721"/><path class="g15 offset" style="--gs:15" d="M313,880 Q371,897 402.5,887 Q591.5,827 623,817"/><text class="g16" style="--gs:16" x="611" y="673">⑯</text><path class="g16 aligned" style="--gs:16" d="M611,673 L693,799"/><path class="g16 offset" style="--gs:16" d="M696.68,604.46 L778.68,730.46"/></g>
</svg>
