<svg id="z28629" class="acjk" viewBox="0 0 1024 1024" xmlns="http://www.w3.org/2000/svg">
<style>

@keyframes zk {
	to {
		stroke-dashoffset:0;
	}
}
svg.acjk path[clip-path] {
	--t:0.8s;
	animation:zk var(--t) linear forwards var(--d);
	stroke-dasharray:3337;
	stroke-dashoffset:3339;
	stroke-width:128;
	stroke-linecap:round;
	fill:none;
	stroke:#000;
}
svg.acjk path[id] {fill:#ccc;}


    @keyframes guide-fade {
        0% { opacity: 0; }
        3% { opacity: 1; }
        95% { opacity: 1; }
        100% { opacity: 0; }
    }

    svg.acjk #guide-arrow {
        fill: #f77;
    }

    svg.acjk .guides {
        circle {
            fill: #0f6;
        }

        path {
            opacity: 0;
            animation: guide-fade var(--t) linear forwards var(--d);
            stroke-width: 16px;
            stroke-linecap: round;
            stroke: #f77;
            fill: none;
            marker-end: url(#guide-arrow);
        }

        circle,
        path {
            --t: 0.8s;
            opacity: 0;
            animation: guide-fade calc(var(--t) + 0.4s) ease-in-out forwards calc(var(--d) - 0.2s);
        }
    }
</style>
<path id="z28629d1" d="M219 193C234 206 248 222 265 240C273 248 284 253 296 253C302 253 309 248 313 239C316 229 313 213 309 193C305 180 295 169 275 161C228 142 200 136 192 141C187 143 186 149 188 158C190 166 201 177 219 193Z"/>
<path id="z28629d2" d="M112 388C143 419 167 442 191 451C200 454 209 449 215 439C219 430 221 420 218 409C211 384 181 348 125 348C124 348 124 348 124 348C111 348 103 345 97 348C93 349 92 353 94 362C95 369 101 377 112 388Z"/>
<path id="z28629d3" d="M113 758C106 762 101 767 104 778C115 826 133 854 155 866C160 869 164 871 171 870C175 868 177 860 179 844C180 819 212 718 274 539C277 528 279 521 279 518C278 511 275 510 269 515C261 520 221 585 152 713C143 727 132 744 113 758Z"/>
<path id="z28629d4" d="M469 153C462 150 448 147 429 144C420 142 417 143 415 147C411 151 412 157 418 168C437 202 452 248 464 307C467 323 472 338 484 350C498 364 504 368 508 346C509 338 509 331 508 324C502 297 499 277 496 257C493 243 493 243 492 236C486 209 484 191 483 181C481 171 479 157 469 153Z"/>
<path id="z28629d5" d="M708 320C711 334 718 343 728 343C736 342 742 336 748 327C753 317 765 292 779 250C789 217 806 191 829 173C841 163 841 153 831 143C820 132 799 119 768 102C757 96 731 101 686 110C603 124 549 136 469 153C459 155 473 183 483 181C561 163 638 148 701 138C734 132 742 147 739 173C734 209 724 289 711 297C706 303 706 312 708 320Z"/>
<path id="z28629d6" d="M496 257C496 257 554 248 668 230C682 227 686 222 681 215C674 206 663 200 649 198C633 195 580 208 492 236C485 239 489 258 496 257Z"/>
<path id="z28629d7" d="M508 346C531 350 561 339 708 320C716 319 718 301 711 297C678 272 653 290 508 324C501 325 501 345 508 346Z"/>
<path id="z28629d8" d="M463 519C440 518 419 516 400 516C381 515 378 511 388 499C414 463 437 430 461 402C468 393 470 387 470 383C469 376 459 364 439 348C430 341 421 337 412 340C405 341 404 346 408 354C420 381 402 430 351 496C348 499 343 503 338 508C328 515 323 521 324 527C325 537 330 546 338 556C342 561 348 562 355 559C365 553 396 546 450 538C458 536 471 519 463 519Z"/>
<path id="z28629d9" d="M508 617C483 621 456 628 428 639C414 644 412 641 421 630C487 539 533 485 559 465C565 459 567 453 564 448C557 437 545 426 527 415C518 410 510 408 505 410C498 411 498 417 499 426C500 442 492 476 463 519C454 532 454 532 450 538C401 609 367 646 355 654C346 658 344 665 346 674C347 680 355 688 370 701C377 706 383 706 392 700C430 671 472 649 516 633C522 631 514 616 508 617Z"/>
<path id="z28629d10" d="M516 633C527 655 536 669 545 673C551 675 559 674 564 666C567 659 568 650 567 639C565 626 557 616 546 605C527 586 515 573 506 568C501 565 498 567 496 573C493 577 494 581 496 587C499 596 502 606 508 617C513 628 513 628 516 633Z"/>
<path id="z28629d11" d="M725 480C725 480 677 480 654 480C638 480 634 475 643 466C664 439 684 416 703 396C710 388 712 382 712 379C711 372 702 360 684 344C676 337 667 334 659 336C653 336 652 340 655 349C660 365 647 396 621 444C615 453 607 463 595 472C586 478 582 484 583 491C583 499 587 508 595 518C599 523 605 525 612 522C645 512 664 507 712 500C720 498 733 480 725 480Z"/>
<path id="z28629d12" d="M780 591C752 595 721 599 689 609C669 614 667 611 680 596C739 518 786 463 824 431C830 425 832 418 829 413C823 402 809 391 790 379C781 373 774 371 768 373C761 375 759 380 760 389C761 409 750 440 725 480C716 493 716 493 712 500C692 529 628 609 610 620C601 625 597 631 599 641C599 648 608 658 624 671C630 676 637 677 647 671C688 642 736 621 788 607C794 605 786 590 780 591Z"/>
<path id="z28629d13" d="M788 607C803 637 813 655 822 660C826 662 832 661 838 655C843 648 845 637 848 622C849 609 845 593 830 577C797 541 774 525 765 526C762 526 758 530 757 537C756 540 764 559 780 591C785 602 785 602 788 607Z"/>
<path id="z28629d14" d="M341 746C328 779 313 812 296 844C285 862 286 882 297 905C302 915 311 917 323 908C353 882 366 844 368 797C368 776 368 759 363 745C360 740 357 736 353 736C348 735 343 739 341 746Z"/>
<path id="z28629d15" d="M475 754C491 809 506 841 522 848C530 851 538 849 545 840C549 833 551 822 550 809C546 782 525 757 488 733C483 730 479 732 476 738C473 742 473 747 475 754Z"/>
<path id="z28629d16" d="M633 755C654 805 673 832 689 838C697 840 706 837 712 827C715 819 716 807 713 794C706 769 681 749 644 732C639 729 635 731 632 738C629 742 630 748 633 755Z"/>
<path id="z28629d17" d="M784 735C808 769 835 810 863 859C872 875 880 886 891 891C896 893 902 891 909 886C919 877 922 858 921 826C919 796 898 767 855 741C828 724 806 712 792 703C785 698 781 699 779 708C776 716 777 725 784 735Z"/>
<defs>
	<clipPath id="z28629c1"><use href="#z28629d1"/></clipPath>
	<clipPath id="z28629c2"><use href="#z28629d2"/></clipPath>
	<clipPath id="z28629c3"><use href="#z28629d3"/></clipPath>
	<clipPath id="z28629c4"><use href="#z28629d4"/></clipPath>
	<clipPath id="z28629c5"><use href="#z28629d5"/></clipPath>
	<clipPath id="z28629c6"><use href="#z28629d6"/></clipPath>
	<clipPath id="z28629c7"><use href="#z28629d7"/></clipPath>
	<clipPath id="z28629c8"><use href="#z28629d8"/></clipPath>
	<clipPath id="z28629c9"><use href="#z28629d9"/></clipPath>
	<clipPath id="z28629c10"><use href="#z28629d10"/></clipPath>
	<clipPath id="z28629c11"><use href="#z28629d11"/></clipPath>
	<clipPath id="z28629c12"><use href="#z28629d12"/></clipPath>
	<clipPath id="z28629c13"><use href="#z28629d13"/></clipPath>
	<clipPath id="z28629c14"><use href="#z28629d14"/></clipPath>
	<clipPath id="z28629c15"><use href="#z28629d15"/></clipPath>
	<clipPath id="z28629c16"><use href="#z28629d16"/></clipPath>
	<clipPath id="z28629c17"><use href="#z28629d17"/></clipPath>
<marker id="guide-arrow" viewBox="0 0 16 16" refX="5" refY="5" markerWidth="4" markerHeight="4" orient="auto-start-reverse"><path d="M 0 0 L 10 5 L 0 10 z" fill="inherit"/></marker></defs>
<path style="--d:1s;" pathLength="3333" clip-path="url(#z28629c1)" d="M194 148L271 196L293 249"/>
<path style="--d:2s;" pathLength="3333" clip-path="url(#z28629c2)" d="M101 355L175 400L205 447"/>
<path style="--d:3s;" pathLength="3333" clip-path="url(#z28629c3)" d="M106 769L162 816L273 520"/>
<path style="--d:4s;" pathLength="3333" clip-path="url(#z28629c4)" d="M421 150L455 182L496 355"/>
<path style="--d:5s;" pathLength="3333" clip-path="url(#z28629c5)" d="M474 157L754 124L788 165L722 337"/>
<path style="--d:6s;" pathLength="3333" clip-path="url(#z28629c6)" d="M493 245L675 215"/>
<path style="--d:7s;" pathLength="3333" clip-path="url(#z28629c7)" d="M506 336L710 308"/>
<path style="--d:8s;" pathLength="3333" clip-path="url(#z28629c8)" d="M415 348L439 389L357 523L368 538L456 524"/>
<path style="--d:9s;" pathLength="3333" clip-path="url(#z28629c9)" d="M505 415L526 460L383 655L401 673L510 626"/>
<path style="--d:10s;" pathLength="3333" clip-path="url(#z28629c10)" d="M502 576L553 669"/>
<path style="--d:11s;" pathLength="3333" clip-path="url(#z28629c11)" d="M661 343L680 386L614 492L718 485"/>
<path style="--d:12s;" pathLength="3333" clip-path="url(#z28629c12)" d="M767 383L789 429L636 624L657 642L780 600"/>
<path style="--d:13s;" pathLength="3333" clip-path="url(#z28629c13)" d="M766 532L830 653"/>
<path style="--d:14s;" pathLength="3333" clip-path="url(#z28629c14)" d="M353 740L309 909"/>
<path style="--d:15s;" pathLength="3333" clip-path="url(#z28629c15)" d="M483 738L529 845"/>
<path style="--d:16s;" pathLength="3333" clip-path="url(#z28629c16)" d="M640 737L698 834"/>
<path style="--d:17s;" pathLength="3333" clip-path="url(#z28629c17)" d="M785 710L872 800L901 886"/>
<g class="guides"><circle style="--d: 1s" class="g1" cx="194" cy="148" r="16"/><path style="--d: 1s;" class="g1" d="M279.68,79.456 Q356.68,127.456 359.43,134.08100000000002 Q375.93,173.83100000000002 378.68,180.45600000000002"/><circle style="--d: 2s" class="g2" cx="101" cy="355" r="16"/><path style="--d: 2s;" class="g2" d="M186.68,286.456 Q260.68,331.456 264.43,337.331 Q286.93,372.581 290.68,378.456"/><circle style="--d: 3s" class="g3" cx="106" cy="769" r="16"/><path style="--d: 3s;" class="g3" d="M37.456,700.456 Q93.456,736.5723243243243 107.331,708.1403243243243 Q190.58100000000002,537.5483243243243 204.45600000000002,509.1163243243243"/><circle style="--d: 4s" class="g4" cx="421" cy="150" r="16"/><path style="--d: 4s;" class="g4" d="M506.68,81.456 Q540.68,113.456 545.805,135.08100000000002 Q576.555,264.831 581.68,286.456"/><circle style="--d: 5s" class="g5" cx="474" cy="157" r="16"/><path style="--d: 5s;" class="g5" d="M474,253 Q646.9936305732484,220 652.2452229299363,225.63028169014086 Q668,242.5211267605634 657.8057324840764,266.14084507042253 Q637.4171974522293,313.38028169014086 627.2229299363057,337"/><circle style="--d: 6s" class="g6" cx="493" cy="245" r="16"/><path style="--d: 6s;" class="g6" d="M493,341 L675,311"/><circle style="--d: 7s" class="g7" cx="506" cy="336" r="16"/><path style="--d: 7s;" class="g7" d="M506,432 L710,404"/><circle style="--d: 8s" class="g8" cx="415" cy="348" r="16"/><path style="--d: 8s;" class="g8" d="M500.68,279.456 Q512.68,314.53128421052634 492.17999999999995,371.84943157894736 Q471.68,429.16757894736844 474.43,435.5837894736842 Q477.18,442 499.17999999999995,436.0115368421053 Q499.17999999999995,436.0115368421053 521.18,430.02307368421054"/><circle style="--d: 9s" class="g9" cx="505" cy="415" r="16"/><path style="--d: 9s;" class="g9" d="M625,415 Q635.5,443.25581395348837 599.75,504.4767441860465 Q564,565.6976744186046 568.5,571.3488372093022 Q573,577 600.25,562.2441860465117 Q600.25,562.2441860465117 627.5,547.4883720930233"/><circle style="--d: 10s" class="g10" cx="502" cy="576" r="16"/><path style="--d: 10s;" class="g10" d="M622,576 L673,669"/><circle style="--d: 11s" class="g11" cx="661" cy="343" r="16"/><path style="--d: 11s;" class="g11" d="M781,343 Q790.5,364.5 782.25,377.75 Q757.5,417.5 770.5,416.625 Q796.5,414.875 809.5,414"/><circle style="--d: 12s" class="g12" cx="767" cy="383" r="16"/><path style="--d: 12s;" class="g12" d="M887,383 Q898,411.94980694980694 859.75,473.31081081081084 Q821.5,534.6718146718147 826.75,540.3359073359073 Q832,546 862.75,532.7837837837837 Q862.75,532.7837837837837 893.5,519.5675675675676"/><circle style="--d: 13s" class="g13" cx="766" cy="532" r="16"/><path style="--d: 13s;" class="g13" d="M886,532 L950,653"/><circle style="--d: 14s" class="g14" cx="353" cy="740" r="16"/><path style="--d: 14s;" class="g14" d="M473,740 L429,909"/><circle style="--d: 15s" class="g15" cx="483" cy="738" r="16"/><path style="--d: 15s;" class="g15" d="M603,738 L649,845"/><circle style="--d: 16s" class="g16" cx="640" cy="737" r="16"/><path style="--d: 16s;" class="g16" d="M725.68,668.456 L783.68,765.456"/><circle style="--d: 17s" class="g17" cx="785" cy="710" r="16"/><path style="--d: 17s;" class="g17" d="M870.68,641.456 Q957.68,731.456 961.305,742.206 Q983.055,806.706 986.68,817.456"/></g></svg>