<svg id="z28640" class="acjk" viewBox="0 0 1024 1024" xmlns="http://www.w3.org/2000/svg">
<style>

@keyframes zk {
	to {
		stroke-dashoffset:0;
	}
}
svg.acjk path[clip-path] {
	--t:0.8s;
	animation:zk var(--t) linear forwards var(--d);
	stroke-dasharray:3337;
	stroke-dashoffset:3339;
	stroke-width:128;
	stroke-linecap:round;
	fill:none;
	stroke:#000;
}
svg.acjk path[id] {fill:#ccc;}


    @keyframes guide-fade {
        0% { opacity: 0; }
        3% { opacity: 1; }
        95% { opacity: 1; }
        100% { opacity: 0; }
    }

    svg.acjk #guide-arrow {
        fill: #f77;
    }

    svg.acjk .guides {
        circle {
            fill: #0f6;
        }

        path {
            opacity: 0;
            animation: guide-fade var(--t) linear forwards var(--d);
            stroke-width: 16px;
            stroke-linecap: round;
            stroke: #f77;
            fill: none;
            marker-end: url(#guide-arrow);
        }

        circle,
        path {
            --t: 0.8s;
            opacity: 0;
            animation: guide-fade calc(var(--t) + 0.4s) ease-in-out forwards calc(var(--d) - 0.2s);
        }
    }
</style>
<path id="z28640d1" d="M223 201C240 214 256 230 275 247C285 256 296 259 308 259C316 258 322 253 325 244C328 233 325 216 318 195C310 174 275 160 216 149C203 146 196 146 192 149C188 151 186 157 189 167C191 175 203 186 223 201Z"/>
<path id="z28640d2" d="M123 376C158 408 186 433 214 441C224 443 234 438 239 428C243 418 243 406 240 396C229 364 199 349 157 340C132 334 116 330 105 335C100 336 99 340 102 350C104 358 112 365 123 376Z"/>
<path id="z28640d3" d="M112 738C105 742 100 747 103 759C113 807 131 837 156 851C161 854 166 855 173 854C177 852 179 844 181 827C182 798 210 701 266 536C269 524 271 518 271 514C269 507 267 506 261 511C255 515 216 576 148 697C140 709 130 725 112 738Z"/>
<path id="z28640d4" d="M518 91C534 100 552 111 571 124C579 129 588 131 598 130C603 128 607 124 609 116C609 107 606 94 599 79C590 62 559 53 506 51C497 50 490 50 487 53C484 55 484 60 487 68C489 74 500 81 518 91Z"/>
<path id="z28640d5" d="M414 175C391 176 387 184 403 195C427 211 457 215 492 210C560 198 630 188 701 177C733 171 752 166 758 162C762 157 764 152 762 147C758 138 747 131 730 128C688 120 578 162 414 175Z"/>
<path id="z28640d6" d="M477 263C470 260 456 257 435 253C416 248 419 263 425 273C437 295 450 325 460 363C462 373 466 382 474 391C491 410 493 394 495 376C495 366 492 356 491 347C485 315 483 301 483 289C483 280 485 266 477 263Z"/>
<path id="z28640d7" d="M670 329C682 309 696 297 710 288C721 279 721 267 713 258C704 249 685 237 657 223C647 217 635 217 624 222C591 235 543 249 477 263C468 265 474 290 483 289C489 289 533 281 615 264C649 256 630 291 624 321C621 336 661 341 670 329Z"/>
<path id="z28640d8" d="M495 376C513 375 624 360 677 354C701 351 692 340 670 329C657 321 639 318 624 321C579 329 531 339 491 347C481 349 485 376 495 376Z"/>
<path id="z28640d9" d="M380 440C374 424 366 412 357 407C346 400 338 404 340 418C341 432 338 456 318 487C295 520 289 547 301 573C302 576 303 581 307 586C315 599 326 599 336 583C337 580 349 542 375 469C379 460 384 449 380 440Z"/>
<path id="z28640d10" d="M375 469C391 475 415 474 448 466C531 445 642 422 749 416C771 414 786 419 774 442C767 453 758 472 743 496C722 527 752 512 763 507C797 486 829 473 859 468C881 463 894 458 894 452C894 445 875 422 831 391C774 350 804 377 380 440C370 442 366 465 375 469Z"/>
<path id="z28640d11" d="M518 540C565 534 669 504 671 504C676 499 677 494 675 490C670 482 659 478 643 474C626 470 609 472 592 479C539 497 485 506 435 512C414 514 413 520 427 532C441 543 458 547 477 545C504 542 504 542 518 540Z"/>
<path id="z28640d12" d="M514 584C541 559 545 549 518 540C505 535 484 533 477 545C461 581 415 626 340 679C329 686 330 688 344 688C381 687 445 645 496 600C508 589 508 589 514 584Z"/>
<path id="z28640d13" d="M603 655C573 625 550 607 514 584C507 580 489 596 496 600C503 604 511 608 517 614C530 626 543 638 556 650C560 654 565 661 570 669C585 693 586 702 590 721C597 759 586 786 574 826C559 872 543 864 486 851C462 845 464 854 480 869C506 895 525 918 536 937C542 947 550 952 560 950C570 947 582 939 591 924C631 851 639 790 629 717C626 701 622 685 615 671C611 665 607 659 603 655Z"/>
<path id="z28640d14" d="M517 614C471 692 401 739 344 776C334 782 335 786 347 784C447 760 514 691 556 650C569 637 528 600 517 614Z"/>
<path id="z28640d15" d="M570 669C515 756 439 807 357 864C325 878 316 899 357 890C453 865 542 776 590 721C598 713 577 660 570 669Z"/>
<path id="z28640d16" d="M615 671C671 640 713 616 742 608C752 604 757 603 756 596C754 585 748 574 738 562C728 549 716 540 704 539C695 537 691 543 689 555C682 589 656 605 603 655C598 660 609 674 615 671Z"/>
<path id="z28640d17" d="M629 717Q689 778 753 836Q775 857 811 855Q877 854 943 835Q959 832 961 827Q962 820 948 816Q771 771 695 725Q677 713 661 703Q633 682 615 671C601 663 618 706 629 717Z"/>
<defs>
	<clipPath id="z28640c1"><use href="#z28640d1"/></clipPath>
	<clipPath id="z28640c2"><use href="#z28640d2"/></clipPath>
	<clipPath id="z28640c3"><use href="#z28640d3"/></clipPath>
	<clipPath id="z28640c4"><use href="#z28640d4"/></clipPath>
	<clipPath id="z28640c5"><use href="#z28640d5"/></clipPath>
	<clipPath id="z28640c6"><use href="#z28640d6"/></clipPath>
	<clipPath id="z28640c7"><use href="#z28640d7"/></clipPath>
	<clipPath id="z28640c8"><use href="#z28640d8"/></clipPath>
	<clipPath id="z28640c9"><use href="#z28640d9"/></clipPath>
	<clipPath id="z28640c10"><use href="#z28640d10"/></clipPath>
	<clipPath id="z28640c11"><use href="#z28640d11"/></clipPath>
	<clipPath id="z28640c12"><use href="#z28640d12"/></clipPath>
	<clipPath id="z28640c13"><use href="#z28640d13"/></clipPath>
	<clipPath id="z28640c14"><use href="#z28640d14"/></clipPath>
	<clipPath id="z28640c15"><use href="#z28640d15"/></clipPath>
	<clipPath id="z28640c16"><use href="#z28640d16"/></clipPath>
	<clipPath id="z28640c17"><use href="#z28640d17"/></clipPath>
<marker id="guide-arrow" viewBox="0 0 16 16" refX="5" refY="5" markerWidth="4" markerHeight="4" orient="auto-start-reverse"><path d="M 0 0 L 10 5 L 0 10 z" fill="inherit"/></marker></defs>
<path style="--d:1s;" pathLength="3333" clip-path="url(#z28640c1)" d="M192 154L281 204L312 253"/>
<path style="--d:2s;" pathLength="3333" clip-path="url(#z28640c2)" d="M105 343L234 429"/>
<path style="--d:3s;" pathLength="3333" clip-path="url(#z28640c3)" d="M106 748L163 800L265 515"/>
<path style="--d:4s;" pathLength="3333" clip-path="url(#z28640c4)" d="M493 60L570 89L597 124"/>
<path style="--d:5s;" pathLength="3333" clip-path="url(#z28640c5)" d="M398 183L474 190L757 147"/>
<path style="--d:6s;" pathLength="3333" clip-path="url(#z28640c6)" d="M428 259L458 280L483 394"/>
<path style="--d:7s;" pathLength="3333" clip-path="url(#z28640c7)" d="M475 274L640 242L676 277L644 333"/>
<path style="--d:8s;" pathLength="3333" clip-path="url(#z28640c8)" d="M488 360L684 343"/>
<path style="--d:9s;" pathLength="3333" clip-path="url(#z28640c9)" d="M348 414L357 455L320 590"/>
<path style="--d:10s;" pathLength="3333" clip-path="url(#z28640c10)" d="M373 457L776 394L822 426L840 457L741 507"/>
<path style="--d:11s;" pathLength="3333" clip-path="url(#z28640c11)" d="M426 519L670 495"/>
<path style="--d:12s;" pathLength="3333" clip-path="url(#z28640c12)" d="M487 540L498 566L464 601L341 682"/>
<path style="--d:13s;" pathLength="3333" clip-path="url(#z28640c13)" d="M501 596L592 670L612 771L564 899L476 855"/>
<path style="--d:14s;" pathLength="3333" clip-path="url(#z28640c14)" d="M525 618L527 646L487 688L345 778"/>
<path style="--d:15s;" pathLength="3333" clip-path="url(#z28640c15)" d="M571 677L567 713L495 787L336 883"/>
<path style="--d:16s;" pathLength="3333" clip-path="url(#z28640c16)" d="M702 541L713 594L609 664"/>
<path style="--d:17s;" pathLength="3333" clip-path="url(#z28640c17)" d="M615 679L786 810L952 827"/>
<g class="guides"><circle style="--d: 1s" class="g1" cx="192" cy="154" r="16"/><path style="--d: 1s;" class="g1" d="M277.68,85.456 Q366.68,135.45600000000002 370.555,141.58100000000002 Q393.805,178.33100000000002 397.68,184.45600000000002"/><circle style="--d: 2s" class="g2" cx="105" cy="343" r="16"/><path style="--d: 2s;" class="g2" d="M190.68,274.456 L319.68,360.456"/><circle style="--d: 3s" class="g3" cx="106" cy="748" r="16"/><path style="--d: 3s;" class="g3" d="M37.456,679.456 Q94.456,718.9497263157895 107.206,691.8927263157894 Q183.70600000000002,529.5507263157895 196.45600000000002,502.49372631578944"/><circle style="--d: 4s" class="g4" cx="493" cy="60" r="16"/><path style="--d: 4s;" class="g4" d="M578.68,-8.543999999999997 Q655.68,20.456000000000003 659.055,24.831000000000003 Q679.305,51.081 682.68,55.456"/><circle style="--d: 5s" class="g5" cx="398" cy="183" r="16"/><path style="--d: 5s;" class="g5" d="M398,279 Q474,286 509.375,280.625 Q721.625,248.375 757,243"/><circle style="--d: 6s" class="g6" cx="443" cy="270" r="16"/><path style="--d: 6s;" class="g6" d="M563,270 L603,394"/><circle style="--d: 7s" class="g7" cx="475" cy="274" r="16"/><path style="--d: 7s;" class="g7" d="M475,370 Q557.5,338 562,342.375 Q575.5,355.5 571.5,362.5 Q563.5,376.5 559.5,383.5"/><circle style="--d: 8s" class="g8" cx="488" cy="360" r="16"/><path style="--d: 8s;" class="g8" d="M488,456 L684,439"/><circle style="--d: 9s" class="g9" cx="353" cy="435" r="16"/><path style="--d: 9s;" class="g9" d="M473,435 L440,590"/><circle style="--d: 10s" class="g10" cx="373" cy="457" r="16"/><path style="--d: 10s;" class="g10" d="M373,553 Q649.1456102783726,490 664.9057815845824,506 Q680.6659528907923,522 686.8329764453961,537.5 Q693,553 659.0813704496788,578 Q659.0813704496788,578 625.1627408993576,603"/><circle style="--d: 11s" class="g11" cx="426" cy="519" r="16"/><path style="--d: 11s;" class="g11" d="M426,615 L670,591"/><circle style="--d: 12s" class="g12" cx="493" cy="553" r="16"/><path style="--d: 12s;" class="g12" d="M578.68,621.544 Q549.68,669.544 534.305,679.669 Q442.055,740.419 426.68,750.544"/><circle style="--d: 13s" class="g13" cx="501" cy="596" r="16"/><path style="--d: 13s;" class="g13" d="M405,596 Q450.5,646.5544554455446 455.5,681.0544554455446 Q460.5,715.5544554455446 448.5,759.2772277227723 Q436.5,803 414.5,787.970297029703 Q414.5,787.970297029703 392.5,772.940594059406"/><circle style="--d: 14s" class="g14" cx="526" cy="632" r="16"/><path style="--d: 14s;" class="g14" d="M611.68,700.544 Q572.68,756.544 554.93,767.794 Q448.43,835.294 430.68,846.544"/><circle style="--d: 15s" class="g15" cx="569" cy="695" r="16"/><path style="--d: 15s;" class="g15" d="M654.68,763.544 Q580.68,855.544 560.805,867.544 Q441.555,939.544 421.68,951.544"/><circle style="--d: 16s" class="g16" cx="702" cy="541" r="16"/><path style="--d: 16s;" class="g16" d="M606,541 Q611.5,567.5 605,571.875 Q566,598.125 559.5,602.5"/><circle style="--d: 17s" class="g17" cx="615" cy="679" r="16"/><path style="--d: 17s;" class="g17" d="M700.68,610.456 Q828.2043916913946,717.1537297297298 843.6788427299703,718.8845135135135 Q936.5255489614243,729.2692162162163 952,731"/></g></svg>