<!--
  Stroke-order data for 濤, derived from AnimCJK (https://github.com/parsimonhi/animCJK),
  itself derived from the Arphic PL KaitiM fonts. Distributed under the Arphic Public License
  (see ARPHICPL.TXT). Regenerated by scripts/build-strokes.ts — do not edit by hand.
-->
<svg id="z28644" class="acjk" viewBox="0 0 1024 1024" xmlns="http://www.w3.org/2000/svg">
<g class="glyph"><path style="--part:1" id="z28644d1" d="M247 209C262 222 276 238 293 256C301 264 312 269 324 269C330 269 337 264 341 255C344 245 341 229 337 209C333 196 323 185 303 177C256 158 228 152 220 157C215 159 214 165 216 174C218 182 229 193 247 209Z"/><path style="--part:1" id="z28644d2" d="M147 402C178 433 201 457 224 466C233 469 241 464 247 455C251 447 252 437 250 427C242 400 211 380 158 365C147 362 139 362 133 364C129 365 128 368 130 377C131 384 137 392 147 402Z"/><path style="--part:1" id="z28644d3" d="M137 753C131 757 125 762 128 774C138 823 157 846 179 858C201 870 201 850 203 836C205 803 234 712 290 555C293 544 295 537 295 534C294 527 291 526 285 531C280 534 242 594 173 713C165 725 155 740 137 753Z"/><path style="--part:2" id="z28644d4" d="M632 158C725 136 770 119 771 119C775 114 777 109 775 105C770 98 760 93 745 91C729 87 694 101 637 118C600 129 600 129 581 134C544 144 505 147 466 154C447 156 443 166 458 173C503 195 542 178 584 169C616 162 616 162 632 158Z"/><path style="--part:2" id="z28644d5" d="M623 227C625 203 629 180 632 158C635 131 635 131 637 118C643 63 656 66 634 52C616 40 598 34 584 32C575 30 569 31 564 37C559 41 558 48 564 56C574 70 578 99 581 134C583 157 583 157 584 169C585 190 585 214 586 238C586 251 623 240 623 227Z"/><path style="--part:2" id="z28644d6" d="M586 238C559 245 530 249 506 254C491 256 490 262 502 270C520 282 535 284 549 281C585 270 637 258 705 246C709 245 716 243 719 236C721 230 713 224 701 220C678 212 653 218 623 227C598 234 598 234 586 238Z"/><path style="--part:2" id="z28644d7" d="M375 359C358 361 357 369 370 384C381 396 400 396 431 388C544 357 653 335 757 314C777 309 789 311 791 320C792 327 785 346 772 377C761 401 769 401 790 387C833 355 866 339 885 335C898 331 905 327 905 319C904 310 880 294 832 271C815 262 778 270 721 287C629 313 513 335 375 359Z"/><path style="--part:2" id="z28644d8" d="M615 420C630 416 657 410 686 404C690 403 696 401 699 395C700 389 693 383 683 380C664 373 633 379 590 393C550 405 512 412 481 419C468 421 466 427 478 434C510 451 537 439 568 432C599 424 599 424 615 420Z"/><path style="--part:2" id="z28644d9" d="M615 420C615 404 568 416 568 432C570 473 570 473 571 494C571 510 618 499 618 483C616 441 616 441 615 420Z"/><path style="--part:2" id="z28644d10" d="M571 494C526 504 478 512 427 524C418 525 417 530 424 537C430 543 438 547 447 549C456 550 465 549 472 547C554 517 646 502 748 502C756 501 762 498 764 494C766 489 763 483 755 478C739 467 722 461 703 462C673 464 644 476 618 483C587 490 587 490 571 494Z"/><path style="--part:2" id="z28644d11" d="M727 580C771 576 822 572 878 570C920 568 944 564 948 559C951 552 947 544 937 537C906 514 879 507 856 513C761 537 583 570 322 612C309 614 307 619 318 629C326 637 336 642 347 645C359 647 371 648 381 645C473 614 628 588 692 583C715 581 715 581 727 580Z"/><path style="--part:2" id="z28644d12" d="M383 695C375 691 360 687 339 685C319 682 323 697 330 707C344 729 358 760 370 799C373 810 378 819 386 827C406 846 406 831 407 811C407 801 404 792 402 783C395 759 389 725 388 714C387 708 389 697 383 695Z"/><path style="--part:2" id="z28644d13" d="M521 765C527 738 536 721 545 712C556 698 556 686 544 680C507 661 488 655 488 655C484 655 480 656 477 659C463 667 431 679 383 695C377 697 382 716 388 714C412 707 434 700 456 696C469 692 478 694 482 699C484 701 483 721 478 758C476 772 518 779 521 765Z"/><path style="--part:2" id="z28644d14" d="M407 811Q446 801 525 785Q532 784 533 776Q533 772 521 765C509 758 492 756 478 758Q472 758 470 760Q433 773 402 783C393 787 398 813 407 811Z"/><path style="--part:2" id="z28644d15" d="M765 697C784 693 809 691 839 690C860 689 874 687 877 681C879 675 876 667 867 663C841 651 794 647 769 655C736 664 736 664 719 669C694 675 645 688 588 699C577 700 576 705 585 713C592 719 601 723 610 725C620 726 630 726 638 724C662 716 689 708 720 704C750 699 750 699 765 697Z"/><path style="--part:2" id="z28644d16" d="M720 704C722 808 718 866 707 876C704 878 679 877 633 876C613 875 622 885 635 894C679 922 705 950 721 970C729 980 739 980 748 971C769 946 775 914 773 876C767 796 761 736 765 697C768 669 768 669 769 655C773 608 787 612 727 580C717 574 686 573 692 583C706 610 718 640 719 669C720 692 720 692 720 704Z"/><path style="--part:2" id="z28644d17" d="M595 787C605 797 614 810 625 824C630 831 637 835 645 836C649 836 654 833 658 827C661 820 661 809 659 795C656 780 635 766 596 752C589 749 584 748 580 750C577 750 575 754 576 762C576 766 583 774 595 787Z"/></g>
<defs><clipPath id="z28644c1"><use href="#z28644d1"/></clipPath>
	<clipPath id="z28644c2"><use href="#z28644d2"/></clipPath>
	<clipPath id="z28644c3"><use href="#z28644d3"/></clipPath>
	<clipPath id="z28644c4"><use href="#z28644d4"/></clipPath>
	<clipPath id="z28644c5"><use href="#z28644d5"/></clipPath>
	<clipPath id="z28644c6"><use href="#z28644d6"/></clipPath>
	<clipPath id="z28644c7"><use href="#z28644d7"/></clipPath>
	<clipPath id="z28644c8"><use href="#z28644d8"/></clipPath>
	<clipPath id="z28644c9"><use href="#z28644d9"/></clipPath>
	<clipPath id="z28644c10"><use href="#z28644d10"/></clipPath>
	<clipPath id="z28644c11"><use href="#z28644d11"/></clipPath>
	<clipPath id="z28644c12"><use href="#z28644d12"/></clipPath>
	<clipPath id="z28644c13"><use href="#z28644d13"/></clipPath>
	<clipPath id="z28644c14"><use href="#z28644d14"/></clipPath>
	<clipPath id="z28644c15"><use href="#z28644d15"/></clipPath>
	<clipPath id="z28644c16"><use href="#z28644d16"/></clipPath>
	<clipPath id="z28644c17"><use href="#z28644d17"/></clipPath><marker id="guide-arrow" viewBox="0 0 16 16" refX="5" refY="5" markerWidth="4" markerHeight="4" orient="auto-start-reverse"><path d="M 0 0 L 10 5 L 0 10 z" fill="inherit"/></marker></defs>
<g class="strokes"><path style="--part:1" pathLength="3333" clip-path="url(#z28644c1)" d="M222 164L299 212L321 265"/><path style="--part:1" pathLength="3333" clip-path="url(#z28644c2)" d="M135 370L244 452"/><path style="--part:1" pathLength="3333" clip-path="url(#z28644c3)" d="M131 768L187 802L290 536"/><path style="--part:2" pathLength="3333" clip-path="url(#z28644c4)" d="M455 161L540 161L771 108"/><path style="--part:2" pathLength="3333" clip-path="url(#z28644c5)" d="M564 39L609 74L601 240"/><path style="--part:2" pathLength="3333" clip-path="url(#z28644c6)" d="M504 262L713 229"/><path style="--part:2" pathLength="3333" clip-path="url(#z28644c7)" d="M366 367L786 291L851 330L774 389"/><path style="--part:2" pathLength="3333" clip-path="url(#z28644c8)" d="M478 425L694 394"/><path style="--part:2" pathLength="3333" clip-path="url(#z28644c9)" d="M603 417L586 499"/><path style="--part:2" pathLength="3333" clip-path="url(#z28644c10)" d="M428 531L758 488"/><path style="--part:2" pathLength="3333" clip-path="url(#z28644c11)" d="M320 621L870 540L944 548"/><path style="--part:2" pathLength="3333" clip-path="url(#z28644c12)" d="M333 694L362 711L400 828"/><path style="--part:2" pathLength="3333" clip-path="url(#z28644c13)" d="M384 703L503 684L517 705L499 770"/><path style="--part:2" pathLength="3333" clip-path="url(#z28644c14)" d="M404 802L524 774"/><path style="--part:2" pathLength="3333" clip-path="url(#z28644c15)" d="M587 706L873 672"/><path style="--part:2" pathLength="3333" clip-path="url(#z28644c16)" d="M700 580L743 628L741 891L719 927L629 881"/><path style="--part:2" pathLength="3333" clip-path="url(#z28644c17)" d="M582 756L645 830"/></g>
<g class="guides"><text class="g1" style="--gs:1" x="222" y="164">①</text><path class="g1 aligned" style="--gs:1" d="M222,164 Q299,212 301.75,218.63 Q318.25,258.38 321,265"/><path class="g1 offset" style="--gs:1" d="M307.68,95.46 Q384.68,143.46 387.43,150.08 Q403.93,189.83 406.68,196.46"/><text class="g2" style="--gs:2" x="135" y="370">②</text><path class="g2 aligned" style="--gs:2" d="M135,370 L244,452"/><path class="g2 offset" style="--gs:2" d="M220.68,301.46 L329.68,383.46"/><text class="g3" style="--gs:3" x="131" y="768">③</text><path class="g3 aligned" style="--gs:3" d="M131,768 Q187,802 199.88,768.75 Q277.13,569.25 290,536"/><path class="g3 offset" style="--gs:3" d="M62.46,699.46 Q118.46,724.69 131.33,700.01 Q208.58,551.92 221.46,527.24"/><text class="g4" style="--gs:4" x="455" y="161">④</text><path class="g4 aligned" style="--gs:4" d="M455,161 Q540,161 568.88,154.38 Q742.13,114.63 771,108"/><path class="g4 offset" style="--gs:4" d="M455,257 Q540,257 568.88,250.38 Q742.13,210.63 771,204"/><text class="g5" style="--gs:5" x="564" y="39">⑤</text><path class="g5 aligned" style="--gs:5" d="M564,39 Q609,74 608,94.75 Q602,219.25 601,240"/><path class="g5 offset" style="--gs:5" d="M468,39 Q513,74 512,94.75 Q506,219.25 505,240"/><text class="g6" style="--gs:6" x="504" y="262">⑥</text><path class="g6 aligned" style="--gs:6" d="M504,262 L713,229"/><path class="g6 offset" style="--gs:6" d="M504,358 L713,325"/><text class="g7" style="--gs:7" x="366" y="367">⑦</text><path class="g7 aligned" style="--gs:7" d="M366,367 Q786,291 802.25,300.75 Q851,330 831.75,344.75 Q793.25,374.25 774,389"/><path class="g7 offset" style="--gs:7" d="M366,463 Q677.75,387 689.81,396.75 Q726,426 711.71,440.75 Q683.13,470.25 668.85,485"/><text class="g8" style="--gs:8" x="478" y="425">⑧</text><path class="g8 aligned" style="--gs:8" d="M478,425 L694,394"/><path class="g8 offset" style="--gs:8" d="M478,521 L694,490"/><text class="g9" style="--gs:9" x="603" y="417">⑨</text><path class="g9 aligned" style="--gs:9" d="M603,417 L586,499"/><path class="g9 offset" style="--gs:9" d="M723,417 L706,499"/><text class="g10" style="--gs:10" x="428" y="531">⑩</text><path class="g10 aligned" style="--gs:10" d="M428,531 L758,488"/><path class="g10 offset" style="--gs:10" d="M428,627 L758,584"/><text class="g11" style="--gs:11" x="320" y="621">⑪</text><path class="g11 aligned" style="--gs:11" d="M320,621 Q870,540 879.25,541 Q934.75,547 944,548"/><path class="g11 offset" style="--gs:11" d="M320,717 Q870,636 879.25,637 Q934.75,643 944,644"/><text class="g12" style="--gs:12" x="333" y="694">⑫</text><path class="g12 aligned" style="--gs:12" d="M348,703 L400,828"/><path class="g12 offset" style="--gs:12" d="M468,703 L520,828"/><text class="g13" style="--gs:13" x="384" y="703">⑬</text><path class="g13 aligned" style="--gs:13" d="M384,703 Q503,684 506.5,689.25 Q517,705 512.5,721.25 Q503.5,753.75 499,770"/><path class="g13 offset" style="--gs:13" d="M384,799 Q443.5,780 445.25,782.63 Q450.5,790.5 448.25,798.63 Q443.75,814.88 441.5,823"/><text class="g14" style="--gs:14" x="404" y="802">⑭</text><path class="g14 aligned" style="--gs:14" d="M404,802 L524,774"/><path class="g14 offset" style="--gs:14" d="M404,898 L524,870"/><text class="g15" style="--gs:15" x="587" y="706">⑮</text><path class="g15 aligned" style="--gs:15" d="M587,706 L873,672"/><path class="g15 offset" style="--gs:15" d="M587,802 L873,768"/><text class="g16" style="--gs:16" x="700" y="580">⑯</text><path class="g16 aligned" style="--gs:16" d="M700,580 Q743,628 742,759.5 Q741,891 730,909 Q719,927 674,904 Q674,904 629,881"/><path class="g16 offset" style="--gs:16" d="M604,580 Q625.5,614.72 625,709.84 Q624.5,804.96 619,817.98 Q613.5,831 591,814.36 Q591,814.36 568.5,797.73"/><text class="g17" style="--gs:17" x="582" y="756">⑰</text><path class="g17 aligned" style="--gs:17" d="M582,756 L645,830"/><path class="g17 offset" style="--gs:17" d="M667.68,687.46 L730.68,761.46"/></g>
<g class="parts"><rect data-part="2" data-literal="壽" role="button" tabindex="0" aria-label="Part 壽" x="248" y="0" width="768" height="999"/><rect data-part="1" data-literal="氵" data-radical="true" role="button" tabindex="0" aria-label="Part 氵 (radical)" x="59" y="92" width="334" height="782"/></g>
</svg>
