<!--
  Stroke-order data for 灯, derived from AnimCJK (https://github.com/parsimonhi/animCJK),
  itself derived from the Arphic PL KaitiM fonts. Distributed under the Arphic Public License
  (see ARPHICPL.TXT). Regenerated by scripts/build-strokes.ts — do not edit by hand.
-->
<svg id="z28783" class="acjk" viewBox="0 0 1024 1024" xmlns="http://www.w3.org/2000/svg">
<g class="glyph"><path id="z28783d1" d="M156 323Q146 380 127 434Q115 467 141 502Q154 518 172 500Q211 449 197 375Q194 341 180 317Q173 310 167 310Q158 314 156 323Z"/><path id="z28783d2" d="M334 364Q434 309 483 289Q501 286 498 275Q494 259 478 238Q462 219 440 213Q425 212 424 231Q425 244 414 259Q384 292 332 341C327 346 327 367 334 364Z"/><path id="z28783d3" d="M319 549Q325 465 334 364C333 349 333 349 332 341Q333 215 356 158Q363 143 352 131Q328 112 287 102Q260 95 252 103Q242 110 251 123Q311 219 270 544Q243 682 179 749Q151 777 112 808Q99 817 100 821Q101 825 113 824Q126 828 160 812Q277 764 313 585Q313 581 315 577C318 558 318 558 319 549Z"/><path id="z28783d4" d="M315 577Q319 584 331 594Q368 628 406 669Q416 682 430 682Q440 682 445 671Q451 659 445 632Q438 592 331 552Q325 549 319 549C310 547 309 569 315 577Z"/><path id="z28783d5" d="M712 331Q781 321 887 318Q938 318 945 306Q951 293 932 280Q871 235 818 256Q715 280 484 324Q462 327 479 345Q515 375 555 362Q607 346 668 337C697 333 697 333 712 331Z"/><path id="z28783d6" d="M641 795Q613 788 577 780Q564 776 565 784Q566 793 577 802Q652 854 700 898Q713 907 727 890Q767 833 761 751Q746 571 754 400Q760 372 753 361Q744 348 712 331C699 323 663 323 668 337Q669 344 677 356Q689 381 689 424Q693 521 696 744Q695 781 684 795Q672 802 641 795Z"/></g>
<defs><clipPath id="z28783c1"><use href="#z28783d1"/></clipPath>
	<clipPath id="z28783c2"><use href="#z28783d2"/></clipPath>
	<clipPath id="z28783c3"><use href="#z28783d3"/></clipPath>
	<clipPath id="z28783c4"><use href="#z28783d4"/></clipPath>
	<clipPath id="z28783c5"><use href="#z28783d5"/></clipPath>
	<clipPath id="z28783c6"><use href="#z28783d6"/></clipPath><marker id="guide-arrow" viewBox="0 0 16 16" refX="5" refY="5" markerWidth="4" markerHeight="4" orient="auto-start-reverse"><path d="M 0 0 L 10 5 L 0 10 z" fill="inherit"/></marker></defs>
<g class="strokes"><path pathLength="3333" clip-path="url(#z28783c1)" d="M167 316L151 505"/><path pathLength="3333" clip-path="url(#z28783c2)" d="M435 219L457 268L336 353"/><path pathLength="3333" clip-path="url(#z28783c3)" d="M255 110L314 158L288 582L218 741L105 816"/><path pathLength="3333" clip-path="url(#z28783c4)" d="M323 556L437 675"/><path pathLength="3333" clip-path="url(#z28783c5)" d="M481 333L537 340L847 284L941 295"/><path pathLength="3333" clip-path="url(#z28783c6)" d="M676 342L721 381L725 791L691 848L572 786"/></g>
<g class="guides"><text class="g1" style="--gs:1" x="167" y="316">①</text><path class="g1 aligned" style="--gs:1" d="M167,316 L151,505"/><path class="g1 offset" style="--gs:1" d="M287,316 L271,505"/><text class="g2" style="--gs:2" x="435" y="219">②</text><path class="g2 aligned" style="--gs:2" d="M435,219 Q457,268 441.88,278.63 Q351.13,342.38 336,353"/><path class="g2 offset" style="--gs:2" d="M339,219 Q350,243.5 342.44,248.81 Q297.06,280.69 289.5,286"/><text class="g3" style="--gs:3" x="255" y="110">③</text><path class="g3 aligned" style="--gs:3" d="M255,110 Q314,158 301,370 Q288,582 253,661.5 Q218,741 161.5,778.5 Q161.5,778.5 105,816"/><path class="g3 offset" style="--gs:3" d="M159,110 Q190.9,151.47 183.87,334.65 Q176.84,517.82 157.92,586.51 Q139,655.2 108.45,687.6 Q108.45,687.6 77.9,720"/><text class="g4" style="--gs:4" x="323" y="556">④</text><path class="g4 aligned" style="--gs:4" d="M323,556 L437,675"/><path class="g4 offset" style="--gs:4" d="M408.68,487.46 L522.68,606.46"/><text class="g5" style="--gs:5" x="481" y="333">⑤</text><path class="g5 aligned" style="--gs:5" d="M481,333 Q537,340 614.5,326 Q847,284 870.5,286.75 Q917.5,292.25 941,295"/><path class="g5 offset" style="--gs:5" d="M481,429 Q537,436 614.5,422 Q847,380 870.5,382.75 Q917.5,388.25 941,391"/><text class="g6" style="--gs:6" x="676" y="342">⑥</text><path class="g6 aligned" style="--gs:6" d="M676,342 Q721,381 723,586 Q725,791 708,819.5 Q691,848 631.5,817 Q631.5,817 572,786"/><path class="g6 offset" style="--gs:6" d="M580,342 Q602.5,373.6 603.5,539.71 Q604.5,705.81 596,728.91 Q587.5,752 557.75,726.88 Q557.75,726.88 528,701.76"/></g>
</svg>
