<svg id="z28814" class="acjk" viewBox="0 0 1024 1024" xmlns="http://www.w3.org/2000/svg">
<style>

@keyframes zk {
	to {
		stroke-dashoffset:0;
	}
}
svg.acjk path[clip-path] {
	--t:0.8s;
	animation:zk var(--t) linear forwards var(--d);
	stroke-dasharray:3337;
	stroke-dashoffset:3339;
	stroke-width:128;
	stroke-linecap:round;
	fill:none;
	stroke:#000;
}
svg.acjk path[id] {fill:#ccc;}


    @keyframes guide-fade {
        0% { opacity: 0; }
        3% { opacity: 1; }
        95% { opacity: 1; }
        100% { opacity: 0; }
    }

    svg.acjk #guide-arrow {
        fill: #f77;
    }

    svg.acjk .guides {
        circle {
            fill: #0f6;
        }

        path {
            opacity: 0;
            animation: guide-fade var(--t) linear forwards var(--d);
            stroke-width: 16px;
            stroke-linecap: round;
            stroke: #f77;
            fill: none;
            marker-end: url(#guide-arrow);
        }

        circle,
        path {
            --t: 0.8s;
            opacity: 0;
            animation: guide-fade calc(var(--t) + 0.4s) ease-in-out forwards calc(var(--d) - 0.2s);
        }
    }
</style>
<path id="z28814d1" d="M275 220C302 255 324 283 347 295C355 299 364 295 371 287C376 279 378 269 377 259C373 230 343 206 291 184C280 179 272 178 266 180C262 181 260 185 261 193C261 201 266 209 275 220Z"/>
<path id="z28814d2" d="M658 141C652 147 627 172 584 219C575 228 578 235 589 232C618 223 639 212 655 205C704 181 731 170 735 169C749 164 754 155 749 144C742 131 731 121 716 110C701 99 691 94 683 95C675 95 672 99 673 108C674 120 667 130 658 141Z"/>
<path id="z28814d3" d="M453 93C471 131 468 192 441 276C415 353 369 406 310 443C299 449 289 458 280 465C271 470 270 475 279 476C313 479 353 458 402 417C426 396 445 375 459 353C481 315 498 268 507 236C514 207 520 172 527 153C530 143 532 134 537 127C543 116 540 108 531 101C501 77 478 68 460 74C451 76 448 83 453 93Z"/>
<path id="z28814d4" d="M546 320C576 340 610 364 647 395C658 404 667 410 676 411C680 411 684 407 688 402C693 393 691 377 681 354C670 330 624 311 543 294C538 293 535 294 535 302C535 308 538 315 546 320Z"/>
<path id="z28814d5" d="M230 595C263 634 289 664 316 677C325 681 336 676 343 667C348 658 349 648 348 636C345 619 337 605 325 595C306 579 280 565 245 554C234 550 225 549 218 552C213 553 212 557 213 566C214 574 220 583 230 595Z"/>
<path id="z28814d6" d="M683 496C666 511 630 539 578 582C567 590 570 599 582 597C618 588 662 571 715 549C730 542 745 535 763 533C779 530 785 521 780 508C774 493 762 480 748 468C733 455 722 449 714 449C705 448 702 452 702 461C702 473 694 485 683 496Z"/>
<path id="z28814d7" d="M496 589C510 529 515 495 520 489C524 483 526 477 522 470C518 464 504 458 483 449C458 437 441 432 430 438C421 442 422 449 428 462C449 509 450 574 423 650C388 744 353 800 228 859C204 870 176 882 145 897C126 905 128 909 150 911C164 912 192 909 222 901C258 891 288 880 320 862C345 847 375 825 400 798C437 755 469 697 488 622C493 600 493 600 496 589Z"/>
<path id="z28814d8" d="M488 622C558 726 638 826 734 919C745 930 759 934 773 933C823 927 871 921 916 917C934 915 943 911 944 907C944 902 934 894 912 887C809 852 740 824 707 798C627 736 558 665 496 589C488 581 481 613 488 622Z"/>
<defs>
	<clipPath id="z28814c1"><use href="#z28814d1"/></clipPath>
	<clipPath id="z28814c2"><use href="#z28814d2"/></clipPath>
	<clipPath id="z28814c3"><use href="#z28814d3"/></clipPath>
	<clipPath id="z28814c4"><use href="#z28814d4"/></clipPath>
	<clipPath id="z28814c5"><use href="#z28814d5"/></clipPath>
	<clipPath id="z28814c6"><use href="#z28814d6"/></clipPath>
	<clipPath id="z28814c7"><use href="#z28814d7"/></clipPath>
	<clipPath id="z28814c8"><use href="#z28814d8"/></clipPath>
<marker id="guide-arrow" viewBox="0 0 16 16" refX="5" refY="5" markerWidth="4" markerHeight="4" orient="auto-start-reverse"><path d="M 0 0 L 10 5 L 0 10 z" fill="inherit"/></marker></defs>
<path style="--d:1s;" pathLength="3333" clip-path="url(#z28814c1)" d="M267 183L363 289"/>
<path style="--d:2s;" pathLength="3333" clip-path="url(#z28814c2)" d="M682 99L702 152L587 226"/>
<path style="--d:3s;" pathLength="3333" clip-path="url(#z28814c3)" d="M460 78L502 124L444 329L386 407L280 471"/>
<path style="--d:4s;" pathLength="3333" clip-path="url(#z28814c4)" d="M543 304L640 353L684 403"/>
<path style="--d:5s;" pathLength="3333" clip-path="url(#z28814c5)" d="M219 561L339 668"/>
<path style="--d:6s;" pathLength="3333" clip-path="url(#z28814c6)" d="M711 455L728 513L579 590"/>
<path style="--d:7s;" pathLength="3333" clip-path="url(#z28814c7)" d="M431 446L481 494L456 634L410 739L313 836L144 905"/>
<path style="--d:8s;" pathLength="3333" clip-path="url(#z28814c8)" d="M496 600L617 755L746 871L936 904"/>
<g class="guides"><circle style="--d: 1s" class="g1" cx="267" cy="183" r="16"/><path style="--d: 1s;" class="g1" d="M352.68,114.456 L448.68,220.45600000000002"/><circle style="--d: 2s" class="g2" cx="682" cy="99" r="16"/><path style="--d: 2s;" class="g2" d="M586,99 Q596,125.5 588.8125,130.125 Q545.6875,157.875 538.5,162.5"/><circle style="--d: 3s" class="g3" cx="460" cy="78" r="16"/><path style="--d: 3s;" class="g3" d="M364,78 Q387.8378378378378,112.76335877862596 371.37837837837833,190.22519083969465 Q354.9189189189189,267.68702290076334 338.4594594594595,297.1603053435115 Q322,326.63358778625957 291.9189189189189,350.8167938931298 Q291.9189189189189,350.8167938931298 261.8378378378378,375"/><circle style="--d: 4s" class="g4" cx="543" cy="304" r="16"/><path style="--d: 4s;" class="g4" d="M628.68,235.45600000000002 Q725.68,284.456 731.18,290.706 Q764.18,328.206 769.68,334.456"/><circle style="--d: 5s" class="g5" cx="219" cy="561" r="16"/><path style="--d: 5s;" class="g5" d="M304.68,492.456 L424.68,599.456"/><circle style="--d: 6s" class="g6" cx="711" cy="455" r="16"/><path style="--d: 6s;" class="g6" d="M615,455 Q623.5,484 614.1875,488.8125 Q558.3125,517.6875 549,522.5"/><circle style="--d: 7s" class="g7" cx="431" cy="446" r="16"/><path style="--d: 7s;" class="g7" d="M335,446 Q370.7566765578635,483.96078431372547 361.81750741839767,539.3202614379085 Q352.8783382789318,594.6797385620915 336.43026706231456,636.1993464052288 Q319.98219584569733,677.718954248366 285.2982195845697,716.0751633986929 Q250.6142433234421,754.4313725490197 190.1854599406528,781.7156862745098 Q190.1854599406528,781.7156862745098 129.7566765578635,809"/><circle style="--d: 8s" class="g8" cx="496" cy="600" r="16"/><path style="--d: 8s;" class="g8" d="M581.68,531.456 Q679.1179999999999,672.457052631579 705.0880454545454,698.8378947368421 Q782.9981818181818,777.9804210526316 821.2486363636364,785.4853157894737 Q897.7495454545455,800.4951052631579 936,808"/></g></svg>