<svg id="z28845" class="acjk" viewBox="0 0 1024 1024" xmlns="http://www.w3.org/2000/svg">
<style>

@keyframes zk {
	to {
		stroke-dashoffset:0;
	}
}
svg.acjk path[clip-path] {
	--t:0.8s;
	animation:zk var(--t) linear forwards var(--d);
	stroke-dasharray:3337;
	stroke-dashoffset:3339;
	stroke-width:128;
	stroke-linecap:round;
	fill:none;
	stroke:#000;
}
svg.acjk path[id] {fill:#ccc;}


    @keyframes guide-fade {
        0% { opacity: 0; }
        3% { opacity: 1; }
        95% { opacity: 1; }
        100% { opacity: 0; }
    }

    svg.acjk #guide-arrow {
        fill: #f77;
    }

    svg.acjk .guides {
        circle {
            fill: #0f6;
        }

        path {
            opacity: 0;
            animation: guide-fade var(--t) linear forwards var(--d);
            stroke-width: 16px;
            stroke-linecap: round;
            stroke: #f77;
            fill: none;
            marker-end: url(#guide-arrow);
        }

        circle,
        path {
            --t: 0.8s;
            opacity: 0;
            animation: guide-fade calc(var(--t) + 0.4s) ease-in-out forwards calc(var(--d) - 0.2s);
        }
    }
</style>
<path id="z28845d1" d="M532 264C542 208 551 158 564 115C565 108 563 99 551 91C531 77 512 70 498 67C487 64 480 65 476 70C471 74 469 82 475 91C481 102 487 111 488 120C490 166 491 217 490 272C490 286 529 278 532 264Z"/>
<path id="z28845d2" d="M425 327C471 313 519 300 569 291C623 280 661 276 681 279C694 281 706 242 693 242C635 246 581 254 532 264C504 269 504 269 490 272C441 281 396 291 354 303C343 305 340 299 343 286C347 266 350 245 356 224C359 209 359 196 353 187C344 174 332 163 318 154C311 149 304 147 297 149C290 150 288 159 293 172C302 202 303 230 298 259C292 285 284 304 272 316C259 326 254 336 260 346C266 356 275 366 286 373C294 378 303 378 309 373C322 359 348 349 388 338C413 331 413 331 425 327Z"/>
<path id="z28845d3" d="M681 279C681 299 684 316 689 330C693 340 700 343 709 337C727 323 741 289 751 236C767 195 777 173 781 169C787 160 788 151 783 141C772 129 757 115 738 100C730 95 722 94 714 96C709 98 707 103 707 112C719 136 711 188 693 242C688 254 681 266 681 279Z"/>
<path id="z28845d4" d="M356 425C503 417 604 397 680 374C710 364 744 361 774 375C782 378 794 383 796 393C798 402 786 407 780 410C744 421 708 425 672 432C584 447 485 464 362 466C348 466 342 425 356 425Z"/>
<path id="z28845d5" d="M120 867C116 867 101 868 103 863C105 854 112 855 124 847C213 784 254 688 269 647C286 597 302 543 307 493C308 480 307 463 294 437C288 425 286 417 297 407C304 400 316 401 331 408C345 414 350 418 356 425C366 435 364 452 362 466C354 514 341 564 327 611C314 648 302 686 283 721C257 766 227 809 185 839C158 857 140 863 120 867Z"/>
<path id="z28845d6" d="M387 614Q403 642 420 671Q435 692 451 695Q464 699 476 682Q480 669 474 645Q467 627 446 615Q412 593 398 587Q388 583 385 595Q382 602 387 614Z"/>
<path id="z28845d7" d="M714 557Q698 582 647 642Q637 658 654 655Q705 631 753 602Q772 587 796 578Q818 569 808 551Q795 535 771 519Q749 504 735 507Q722 508 726 521Q729 540 714 557Z"/>
<path id="z28845d8" d="M580 684C590 651 599 612 608 566C611 549 613 536 618 530C621 524 623 519 619 512C615 506 602 501 583 493C560 483 543 478 534 482C525 485 527 492 532 505C558 575 526 698 500 743C459 812 384 859 285 906C268 914 270 918 290 919C344 920 405 900 471 855C485 845 547 788 572 710C577 693 577 693 580 684Z"/>
<path id="z28845d9" d="M572 710C620 776 671 839 725 900C739 916 760 925 787 928C833 932 882 930 933 925C945 923 952 922 954 919C956 914 951 910 942 906C827 858 762 828 744 816C699 786 660 757 629 729C607 709 592 693 580 684C573 678 567 703 572 710Z"/>
<defs>
	<clipPath id="z28845c1"><use href="#z28845d1"/></clipPath>
	<clipPath id="z28845c2"><use href="#z28845d2"/></clipPath>
	<clipPath id="z28845c3"><use href="#z28845d3"/></clipPath>
	<clipPath id="z28845c4"><use href="#z28845d4"/></clipPath>
	<clipPath id="z28845c5"><use href="#z28845d5"/></clipPath>
	<clipPath id="z28845c6"><use href="#z28845d6"/></clipPath>
	<clipPath id="z28845c7"><use href="#z28845d7"/></clipPath>
	<clipPath id="z28845c8"><use href="#z28845d8"/></clipPath>
	<clipPath id="z28845c9"><use href="#z28845d9"/></clipPath>
<marker id="guide-arrow" viewBox="0 0 16 16" refX="5" refY="5" markerWidth="4" markerHeight="4" orient="auto-start-reverse"><path d="M 0 0 L 10 5 L 0 10 z" fill="inherit"/></marker></defs>
<path style="--d:1s;" pathLength="3333" clip-path="url(#z28845c1)" d="M480 75L526 119L504 268"/>
<path style="--d:2s;" pathLength="3333" clip-path="url(#z28845c2)" d="M300 153L329 202L306 319L323 339L687 254"/>
<path style="--d:3s;" pathLength="3333" clip-path="url(#z28845c3)" d="M716 101L750 151L696 335"/>
<path style="--d:4s;" pathLength="3333" clip-path="url(#z28845c4)" d="M364 431L415 444L791 396"/>
<path style="--d:5s;" pathLength="3333" clip-path="url(#z28845c5)" d="M295 416L331 443L335 474L285 665L189 815L111 859"/>
<path style="--d:6s;" pathLength="3333" clip-path="url(#z28845c6)" d="M393 592L465 689"/>
<path style="--d:7s;" pathLength="3333" clip-path="url(#z28845c7)" d="M735 516L760 564L651 648"/>
<path style="--d:8s;" pathLength="3333" clip-path="url(#z28845c8)" d="M533 486L582 535L524 753L437 847L283 913"/>
<path style="--d:9s;" pathLength="3333" clip-path="url(#z28845c9)" d="M582 691L768 879L946 914"/>
<g class="guides"><circle style="--d: 1s" class="g1" cx="480" cy="75" r="16"/><path style="--d: 1s;" class="g1" d="M384,75 Q430,119 427.25,137.625 Q410.75,249.375 408,268"/><circle style="--d: 2s" class="g2" cx="300" cy="153" r="16"/><path style="--d: 2s;" class="g2" d="M385.68,84.456 Q408.25953488372096,126.22296774193548 399.3055813953489,176.0876129032258 Q390.3516279069768,225.95225806451612 396.9697674418605,234.47612903225806 Q403.5879069767442,243 545.2939534883722,206.77354838709678 Q545.2939534883722,206.77354838709678 687,170.54709677419356"/><circle style="--d: 3s" class="g3" cx="716" cy="101" r="16"/><path style="--d: 3s;" class="g3" d="M620,101 Q654,151 647.25,174 Q606.75,312 600,335"/><circle style="--d: 4s" class="g4" cx="364" cy="431" r="16"/><path style="--d: 4s;" class="g4" d="M364,527 Q415,540 462,534 Q744,498 791,492"/><circle style="--d: 5s" class="g5" cx="295" cy="416" r="16"/><path style="--d: 5s;" class="g5" d="M199,416 Q219.57142857142856,437.1489841986456 220.7142857142857,449.2900677200903 Q221.85714285714283,461.43115124153496 207.57142857142856,536.2358916478555 Q193.28571428571428,611.0406320541761 165.85714285714286,669.7878103837472 Q138.42857142857144,728.5349887133183 116.14285714285715,745.7674943566592 Q116.14285714285715,745.7674943566592 93.85714285714286,763"/><circle style="--d: 6s" class="g6" cx="393" cy="592" r="16"/><path style="--d: 6s;" class="g6" d="M478.68,523.456 L550.68,620.456"/><circle style="--d: 7s" class="g7" cx="735" cy="516" r="16"/><path style="--d: 7s;" class="g7" d="M639,516 Q651.5,540 644.6875,545.25 Q603.8125,576.75 597,582"/><circle style="--d: 8s" class="g8" cx="533" cy="486" r="16"/><path style="--d: 8s;" class="g8" d="M437,486 Q470.26755852842814,523.983606557377 450.5785953177258,608.4777517564403 Q430.88963210702343,692.9718969555036 401.3561872909699,729.4051522248244 Q371.82274247491637,765.8384074941453 319.5451505016722,791.4192037470726 Q319.5451505016722,791.4192037470726 267.2675585284281,817"/><circle style="--d: 9s" class="g9" cx="582" cy="691" r="16"/><path style="--d: 9s;" class="g9" d="M667.68,622.456 Q809.8984615384614,787.3092376681615 826.9111538461538,791.1455829596413 Q928.9873076923077,814.1636547085202 946,818"/></g></svg>