<svg id="z29033" class="acjk" viewBox="0 0 1024 1024" xmlns="http://www.w3.org/2000/svg">
<style>

@keyframes zk {
	to {
		stroke-dashoffset:0;
	}
}
svg.acjk path[clip-path] {
	--t:0.8s;
	animation:zk var(--t) linear forwards var(--d);
	stroke-dasharray:3337;
	stroke-dashoffset:3339;
	stroke-width:128;
	stroke-linecap:round;
	fill:none;
	stroke:#000;
}
svg.acjk path[id] {fill:#ccc;}


    @keyframes guide-fade {
        0% { opacity: 0; }
        3% { opacity: 1; }
        95% { opacity: 1; }
        100% { opacity: 0; }
    }

    svg.acjk #guide-arrow {
        fill: #f77;
    }

    svg.acjk .guides {
        circle {
            fill: #0f6;
        }

        path {
            opacity: 0;
            animation: guide-fade var(--t) linear forwards var(--d);
            stroke-width: 16px;
            stroke-linecap: round;
            stroke: #f77;
            fill: none;
            marker-end: url(#guide-arrow);
        }

        circle,
        path {
            --t: 0.8s;
            opacity: 0;
            animation: guide-fade calc(var(--t) + 0.4s) ease-in-out forwards calc(var(--d) - 0.2s);
        }
    }
</style>
<path id="z29033d1" d="M142 316Q136 374 120 431Q111 467 137 495Q150 510 166 491Q203 439 183 363Q179 330 164 309Q157 302 151 303Q144 307 142 316Z"/>
<path id="z29033d2" d="M308 369Q312 368 317 366Q402 303 444 279Q460 275 456 265Q452 252 434 234Q418 218 397 216Q384 217 384 234Q387 255 309 348C305 354 301 370 308 369Z"/>
<path id="z29033d3" d="M295 587Q307 508 308 369C309 355 309 355 309 348Q310 195 331 138Q338 123 326 111Q301 92 258 82Q231 76 222 84Q212 91 221 105Q270 177 258 451Q257 460 257 469Q248 634 199 715Q163 776 83 839Q71 849 72 853Q73 857 86 856Q99 860 135 842Q252 788 289 623Q289 622 289 619C293 598 293 598 295 587Z"/>
<path id="z29033d4" d="M289 619Q293 623 300 629Q331 657 362 690Q372 702 387 702Q396 703 401 691Q405 679 400 653Q394 620 299 587Q298 586 295 587C284 585 280 612 289 619Z"/>
<path id="z29033d5" d="M641 177C714 163 775 156 893 158C905 158 913 154 916 149C919 141 915 132 905 125C866 99 828 97 789 108C756 116 600 145 487 163C474 165 472 171 482 181C490 189 501 195 513 198C525 200 537 200 547 197C561 192 576 189 593 186C625 180 625 180 641 177Z"/>
<path id="z29033d6" d="M593 309Q642 248 670 221Q685 211 678 203Q657 178 641 177C625 174 588 171 593 186Q602 204 584 266Q575 287 566 314C563 323 588 316 593 309Z"/>
<path id="z29033d7" d="M529 319C524 315 516 311 507 307C500 304 494 303 488 307C483 309 483 314 486 323C487 327 488 332 491 338C506 368 511 443 500 564C493 630 488 657 488 665C487 678 499 693 511 707C517 714 523 715 530 708C534 702 538 695 539 689C542 668 542 668 543 657C544 649 544 615 544 557C544 539 544 539 544 530C544 499 545 473 546 453C547 434 547 434 547 424C548 388 549 363 551 349C553 337 539 326 529 319Z"/>
<path id="z29033d8" d="M764 665C764 671 768 677 773 685C784 705 791 714 798 714C808 712 817 700 829 677C838 657 845 641 843 628C835 571 830 498 830 410C829 384 834 359 849 338C856 326 859 317 852 311C832 293 805 278 772 265C761 260 747 262 731 269C722 272 644 299 593 309C575 312 575 312 566 314C552 316 539 316 529 319C517 321 539 349 551 349C555 349 559 349 563 348C623 332 676 321 720 313C734 310 744 311 751 320C761 333 766 361 768 407C771 535 771 612 765 637C764 637 764 637 764 638C761 647 762 656 764 665Z"/>
<path id="z29033d9" d="M546 453Q550 453 555 452Q645 436 711 425Q733 421 725 408Q715 393 689 389Q658 388 547 424C538 428 536 453 546 453Z"/>
<path id="z29033d10" d="M544 557Q548 557 555 557Q645 541 710 532Q734 528 725 516Q715 501 689 497Q659 494 544 530C536 533 535 557 544 557Z"/>
<path id="z29033d11" d="M539 689Q540 689 544 689Q614 674 764 665C773 665 770 644 764 638Q760 634 752 628Q737 619 708 626Q617 645 543 657C532 659 528 689 539 689Z"/>
<path id="z29033d12" d="M552 729C539 771 480 832 370 908C356 917 357 919 375 920C421 921 487 889 570 816C573 813 588 797 622 771C630 764 634 757 633 750C631 741 621 733 605 726C586 717 572 713 564 715C559 715 554 720 552 729Z"/>
<path id="z29033d13" d="M718 758C753 799 792 848 833 907C843 921 852 933 863 937C868 939 874 934 881 929C890 920 891 901 888 870C883 830 830 783 723 726C716 722 713 723 711 732C709 740 710 749 718 758Z"/>
<defs>
	<clipPath id="z29033c1"><use href="#z29033d1"/></clipPath>
	<clipPath id="z29033c2"><use href="#z29033d2"/></clipPath>
	<clipPath id="z29033c3"><use href="#z29033d3"/></clipPath>
	<clipPath id="z29033c4"><use href="#z29033d4"/></clipPath>
	<clipPath id="z29033c5"><use href="#z29033d5"/></clipPath>
	<clipPath id="z29033c6"><use href="#z29033d6"/></clipPath>
	<clipPath id="z29033c7"><use href="#z29033d7"/></clipPath>
	<clipPath id="z29033c8"><use href="#z29033d8"/></clipPath>
	<clipPath id="z29033c9"><use href="#z29033d9"/></clipPath>
	<clipPath id="z29033c10"><use href="#z29033d10"/></clipPath>
	<clipPath id="z29033c11"><use href="#z29033d11"/></clipPath>
	<clipPath id="z29033c12"><use href="#z29033d12"/></clipPath>
	<clipPath id="z29033c13"><use href="#z29033d13"/></clipPath>
<marker id="guide-arrow" viewBox="0 0 16 16" refX="5" refY="5" markerWidth="4" markerHeight="4" orient="auto-start-reverse"><path d="M 0 0 L 10 5 L 0 10 z" fill="inherit"/></marker></defs>
<path style="--d:1s;" pathLength="3333" clip-path="url(#z29033c1)" d="M152 312L148 497"/>
<path style="--d:2s;" pathLength="3333" clip-path="url(#z29033c2)" d="M395 220L416 263L310 359"/>
<path style="--d:3s;" pathLength="3333" clip-path="url(#z29033c3)" d="M224 90L287 140L263 621L197 764L81 847"/>
<path style="--d:4s;" pathLength="3333" clip-path="url(#z29033c4)" d="M292 592L398 692"/>
<path style="--d:5s;" pathLength="3333" clip-path="url(#z29033c5)" d="M484 171L817 130L912 142"/>
<path style="--d:6s;" pathLength="3333" clip-path="url(#z29033c6)" d="M600 185L636 221L576 311"/>
<path style="--d:7s;" pathLength="3333" clip-path="url(#z29033c7)" d="M492 311L525 367L521 706"/>
<path style="--d:8s;" pathLength="3333" clip-path="url(#z29033c8)" d="M532 324L750 287L807 331L793 708"/>
<path style="--d:9s;" pathLength="3333" clip-path="url(#z29033c9)" d="M545 444L722 412"/>
<path style="--d:10s;" pathLength="3333" clip-path="url(#z29033c10)" d="M540 545L718 516"/>
<path style="--d:11s;" pathLength="3333" clip-path="url(#z29033c11)" d="M535 679L766 654"/>
<path style="--d:12s;" pathLength="3333" clip-path="url(#z29033c12)" d="M565 719L587 753L541 802L369 915"/>
<path style="--d:13s;" pathLength="3333" clip-path="url(#z29033c13)" d="M718 732L834 845L874 932"/>
<g class="guides"><circle style="--d: 1s" class="g1" cx="152" cy="312" r="16"/><path style="--d: 1s;" class="g1" d="M272,312 L268,497"/><circle style="--d: 2s" class="g2" cx="395" cy="220" r="16"/><path style="--d: 2s;" class="g2" d="M299,220 Q309.5,241.5 302.875,247.5 Q263.125,283.5 256.5,289.5"/><circle style="--d: 3s" class="g3" cx="224" cy="90" r="16"/><path style="--d: 3s;" class="g3" d="M128,90 Q161.64077669902912,133.65918097754295 155.23300970873785,343.6598414795244 Q148.8252427184466,553.660501981506 131.20388349514562,616.0931307793924 Q113.58252427184465,678.5257595772787 82.61165048543688,714.7628797886393 Q82.61165048543688,714.7628797886393 51.64077669902912,751"/><circle style="--d: 4s" class="g4" cx="292" cy="592" r="16"/><path style="--d: 4s;" class="g4" d="M377.68,523.456 L483.68,623.456"/><circle style="--d: 5s" class="g5" cx="484" cy="171" r="16"/><path style="--d: 5s;" class="g5" d="M484,267 Q817,226 828.875,227.5 Q900.125,236.5 912,238"/><circle style="--d: 6s" class="g6" cx="600" cy="185" r="16"/><path style="--d: 6s;" class="g6" d="M504,185 Q522,203 518.25,208.625 Q495.75,242.375 492,248"/><circle style="--d: 7s" class="g7" cx="492" cy="311" r="16"/><path style="--d: 7s;" class="g7" d="M396,311 Q429,367 428.5,409.375 Q425.5,663.625 425,706"/><circle style="--d: 8s" class="g8" cx="532" cy="324" r="16"/><path style="--d: 8s;" class="g8" d="M532,420 Q654.8727272727273,383 662.9045454545454,391.4916864608076 Q687,416.9667458432304 685.0272727272727,489.7250593824228 Q681.0818181818182,635.2416864608076 679.1090909090909,708"/><circle style="--d: 9s" class="g9" cx="545" cy="444" r="16"/><path style="--d: 9s;" class="g9" d="M545,540 L722,508"/><circle style="--d: 10s" class="g10" cx="540" cy="545" r="16"/><path style="--d: 10s;" class="g10" d="M540,641 L718,612"/><circle style="--d: 11s" class="g11" cx="535" cy="679" r="16"/><path style="--d: 11s;" class="g11" d="M535,775 L766,750"/><circle style="--d: 12s" class="g12" cx="576" cy="736" r="16"/><path style="--d: 12s;" class="g12" d="M480,736 Q462.5,769 451.75,776.0625 Q387.25,818.4375 376.5,825.5"/><circle style="--d: 13s" class="g13" cx="718" cy="732" r="16"/><path style="--d: 13s;" class="g13" d="M803.68,663.456 Q919.68,776.456 924.68,787.331 Q954.68,852.581 959.68,863.456"/></g></svg>