<svg id="z29128" class="acjk" viewBox="0 0 1024 1024" xmlns="http://www.w3.org/2000/svg">
<style>

@keyframes zk {
	to {
		stroke-dashoffset:0;
	}
}
svg.acjk path[clip-path] {
	--t:0.8s;
	animation:zk var(--t) linear forwards var(--d);
	stroke-dasharray:3337;
	stroke-dashoffset:3339;
	stroke-width:128;
	stroke-linecap:round;
	fill:none;
	stroke:#000;
}
svg.acjk path[id] {fill:#ccc;}


    @keyframes guide-fade {
        0% { opacity: 0; }
        3% { opacity: 1; }
        95% { opacity: 1; }
        100% { opacity: 0; }
    }

    svg.acjk #guide-arrow {
        fill: #f77;
    }

    svg.acjk .guides {
        circle {
            fill: #0f6;
        }

        path {
            opacity: 0;
            animation: guide-fade var(--t) linear forwards var(--d);
            stroke-width: 16px;
            stroke-linecap: round;
            stroke: #f77;
            fill: none;
            marker-end: url(#guide-arrow);
        }

        circle,
        path {
            --t: 0.8s;
            opacity: 0;
            animation: guide-fade calc(var(--t) + 0.4s) ease-in-out forwards calc(var(--d) - 0.2s);
        }
    }
</style>
<path id="z29128d1" d="M129 363C126 401 119 439 111 476C105 496 111 515 127 532C134 540 144 540 152 529C175 495 177 453 166 404C161 385 157 368 148 356C144 351 140 349 137 351C132 353 129 357 129 363Z"/>
<path id="z29128d2" d="M272 406C313 376 352 341 382 326C393 320 395 312 389 304C382 295 371 288 358 282C345 275 336 273 330 275C323 276 322 279 324 287C327 303 309 333 274 377C268 385 264 412 272 406Z"/>
<path id="z29128d3" d="M255 610C260 571 265 503 272 406C273 387 273 387 274 377C280 282 281 215 298 178C301 168 301 161 293 154C278 141 257 132 232 126C215 121 204 122 199 127C193 132 192 137 198 146C240 210 253 365 209 606C185 734 130 791 54 857C47 862 43 867 44 870C44 872 48 871 57 872C66 872 80 869 102 859C181 821 236 745 253 625C254 615 254 615 255 610Z"/>
<path id="z29128d4" d="M253 625Q257 632 274 649Q299 673 326 702Q336 712 348 713Q357 713 361 703Q365 693 361 669Q355 639 273 611Q261 608 256 609Q255 609 255 610C250 611 250 621 253 625Z"/>
<path id="z29128d5" d="M597 184C602 173 613 168 607 158C603 152 586 144 553 135C544 132 535 135 523 144C504 156 470 169 423 183C414 185 414 190 422 197C428 202 441 203 460 196C502 179 526 172 529 179C536 197 529 242 494 304C479 329 479 329 472 342C433 408 379 472 331 516C319 526 317 529 329 528C371 522 422 482 480 405C516 356 547 300 572 237C577 223 582 212 587 203C594 190 594 190 597 184Z"/>
<path id="z29128d6" d="M494 304C485 286 462 270 426 258C421 256 418 258 417 265C415 273 426 293 454 327C459 333 466 338 472 342C485 350 501 317 494 304Z"/>
<path id="z29128d7" d="M646 215C698 163 735 130 758 117C768 110 771 101 764 92C756 83 743 77 728 71C713 65 703 63 697 66C690 68 688 72 691 79C695 94 675 136 633 202C630 207 642 219 646 215Z"/>
<path id="z29128d8" d="M695 263C679 249 663 232 646 215C637 206 637 206 633 202C626 195 609 186 597 184C590 183 581 199 587 203C605 213 621 227 635 245C751 390 821 468 847 472C872 475 914 465 971 452C979 449 986 447 990 442C992 438 989 435 984 433C938 417 897 399 860 381C798 350 754 312 707 273C699 266 699 266 695 263Z"/>
<path id="z29128d9" d="M707 273C717 268 751 251 809 219C821 211 834 203 850 198C862 193 866 184 861 174C854 162 843 153 828 143C813 133 803 129 796 130C788 131 786 134 787 143C788 162 756 203 695 263C691 267 702 275 707 273Z"/>
<path id="z29128d10" d="M499 446C476 449 473 457 490 467C513 479 557 478 620 465C638 460 659 456 681 451C695 447 705 444 708 442C713 437 714 432 711 427C706 420 695 413 677 410C658 406 640 411 623 418C582 433 537 439 499 446Z"/>
<path id="z29128d11" d="M491 548C484 545 472 542 454 541C447 540 442 541 440 544C436 547 438 554 444 563C458 587 472 621 484 664C487 676 492 686 501 695C516 710 523 702 524 685C524 675 521 665 520 656C515 627 507 591 506 577C504 566 501 552 491 548Z"/>
<path id="z29128d12" d="M719 636C733 605 748 587 763 576C774 566 774 553 765 543C757 534 736 522 705 507C694 501 682 501 669 507C622 524 563 538 491 548C480 550 495 579 506 577C605 559 605 559 654 550C674 546 686 555 683 574C679 594 674 614 670 632C667 648 713 651 719 636Z"/>
<path id="z29128d13" d="M708 668C714 667 720 666 728 666C734 665 738 662 739 658C739 653 732 646 719 636C706 626 686 629 670 632C615 642 565 650 520 656C510 658 514 685 524 685C535 685 633 672 678 670C698 669 698 669 708 668Z"/>
<path id="z29128d14" d="M490 766C519 801 536 822 544 824C548 825 553 821 557 815C561 808 561 797 560 781C558 770 552 759 538 751C504 731 483 724 476 726C473 726 471 730 471 738C471 744 478 752 490 766Z"/>
<path id="z29128d15" d="M664 828C704 775 728 742 740 732C749 723 751 719 748 711C738 691 726 676 708 668C699 663 676 660 678 670C683 708 670 740 628 832C624 843 657 838 664 828Z"/>
<path id="z29128d16" d="M628 832C530 842 427 852 345 859C331 860 328 865 339 877C347 885 357 892 369 897C381 901 393 901 405 899C544 866 706 857 889 870C901 870 910 867 914 862C918 855 915 846 904 837C864 805 835 800 801 808C763 815 717 822 664 828C640 831 640 831 628 832Z"/>
<defs>
	<clipPath id="z29128c1"><use href="#z29128d1"/></clipPath>
	<clipPath id="z29128c2"><use href="#z29128d2"/></clipPath>
	<clipPath id="z29128c3"><use href="#z29128d3"/></clipPath>
	<clipPath id="z29128c4"><use href="#z29128d4"/></clipPath>
	<clipPath id="z29128c5"><use href="#z29128d5"/></clipPath>
	<clipPath id="z29128c6"><use href="#z29128d6"/></clipPath>
	<clipPath id="z29128c7"><use href="#z29128d7"/></clipPath>
	<clipPath id="z29128c8"><use href="#z29128d8"/></clipPath>
	<clipPath id="z29128c9"><use href="#z29128d9"/></clipPath>
	<clipPath id="z29128c10"><use href="#z29128d10"/></clipPath>
	<clipPath id="z29128c11"><use href="#z29128d11"/></clipPath>
	<clipPath id="z29128c12"><use href="#z29128d12"/></clipPath>
	<clipPath id="z29128c13"><use href="#z29128d13"/></clipPath>
	<clipPath id="z29128c14"><use href="#z29128d14"/></clipPath>
	<clipPath id="z29128c15"><use href="#z29128d15"/></clipPath>
	<clipPath id="z29128c16"><use href="#z29128d16"/></clipPath>
<marker id="guide-arrow" viewBox="0 0 16 16" refX="5" refY="5" markerWidth="4" markerHeight="4" orient="auto-start-reverse"><path d="M 0 0 L 10 5 L 0 10 z" fill="inherit"/></marker></defs>
<path style="--d:1s;" pathLength="3333" clip-path="url(#z29128c1)" d="M139 358L138 533"/>
<path style="--d:2s;" pathLength="3333" clip-path="url(#z29128c2)" d="M331 284L352 320L273 398"/>
<path style="--d:3s;" pathLength="3333" clip-path="url(#z29128c3)" d="M201 135L260 190L226 640L163 782L54 865"/>
<path style="--d:4s;" pathLength="3333" clip-path="url(#z29128c4)" d="M259 616L354 706"/>
<path style="--d:5s;" pathLength="3333" clip-path="url(#z29128c5)" d="M424 189L534 156L570 177L460 398L329 524"/>
<path style="--d:6s;" pathLength="3333" clip-path="url(#z29128c6)" d="M423 264L487 331"/>
<path style="--d:7s;" pathLength="3333" clip-path="url(#z29128c7)" d="M697 77L723 114L638 210"/>
<path style="--d:8s;" pathLength="3333" clip-path="url(#z29128c8)" d="M591 194L837 417L983 440"/>
<path style="--d:9s;" pathLength="3333" clip-path="url(#z29128c9)" d="M795 135L811 190L699 265"/>
<path style="--d:10s;" pathLength="3333" clip-path="url(#z29128c10)" d="M489 457L707 435"/>
<path style="--d:11s;" pathLength="3333" clip-path="url(#z29128c11)" d="M447 552L479 574L511 695"/>
<path style="--d:12s;" pathLength="3333" clip-path="url(#z29128c12)" d="M494 554L691 529L727 566L684 642"/>
<path style="--d:13s;" pathLength="3333" clip-path="url(#z29128c13)" d="M517 668L734 656"/>
<path style="--d:14s;" pathLength="3333" clip-path="url(#z29128c14)" d="M478 729L546 819"/>
<path style="--d:15s;" pathLength="3333" clip-path="url(#z29128c15)" d="M686 674L711 720L636 832"/>
<path style="--d:16s;" pathLength="3333" clip-path="url(#z29128c16)" d="M340 868L817 835L911 848"/>
<g class="guides"><circle style="--d: 1s" class="g1" cx="139" cy="358" r="16"/><path style="--d: 1s;" class="g1" d="M259,358 L258,533"/><circle style="--d: 2s" class="g2" cx="342" cy="302" r="16"/><path style="--d: 2s;" class="g2" d="M427.68,370.544 L358.68,466.544"/><circle style="--d: 3s" class="g3" cx="201" cy="135" r="16"/><path style="--d: 3s;" class="g3" d="M105,135 Q136.50485436893203,182.76712328767124 127.42718446601941,378.17808219178085 Q118.3495145631068,573.5890410958904 101.52912621359224,635.2520547945205 Q84.70873786407768,696.9150684931507 55.60679611650486,732.9575342465753 Q55.60679611650486,732.9575342465753 26.504854368932044,769"/><circle style="--d: 4s" class="g4" cx="259" cy="616" r="16"/><path style="--d: 4s;" class="g4" d="M344.68,547.456 L439.68,637.456"/><circle style="--d: 5s" class="g5" cx="424" cy="189" r="16"/><path style="--d: 5s;" class="g5" d="M328,285 Q383,268.5 392,273.75 Q401,279 373.5,334.25 Q346,389.5 313.25,421 Q313.25,421 280.5,452.5"/><circle style="--d: 6s" class="g6" cx="423" cy="264" r="16"/><path style="--d: 6s;" class="g6" d="M508.68,195.45600000000002 L572.68,262.456"/><circle style="--d: 7s" class="g7" cx="697" cy="77" r="16"/><path style="--d: 7s;" class="g7" d="M601,77 Q614,95.5 608.6875,101.5 Q576.8125,137.5 571.5,143.5"/><circle style="--d: 8s" class="g8" cx="591" cy="194" r="16"/><path style="--d: 8s;" class="g8" d="M676.68,125.456 Q868.9114285714285,323.5670243902439 883.1724999999999,326.1211463414634 Q968.7389285714286,341.4458780487805 983,344"/><circle style="--d: 9s" class="g9" cx="795" cy="135" r="16"/><path style="--d: 9s;" class="g9" d="M699,135 Q707,162.5 700,167.1875 Q658,195.3125 651,200"/><circle style="--d: 10s" class="g10" cx="489" cy="457" r="16"/><path style="--d: 10s;" class="g10" d="M489,553 L707,531"/><circle style="--d: 11s" class="g11" cx="463" cy="563" r="16"/><path style="--d: 11s;" class="g11" d="M583,563 L631,695"/><circle style="--d: 12s" class="g12" cx="494" cy="554" r="16"/><path style="--d: 12s;" class="g12" d="M494,650 Q592.5,625 597,629.625 Q610.5,643.5 605.125,653 Q594.375,672 589,681.5"/><circle style="--d: 13s" class="g13" cx="517" cy="668" r="16"/><path style="--d: 13s;" class="g13" d="M517,764 L734,752"/><circle style="--d: 14s" class="g14" cx="478" cy="729" r="16"/><path style="--d: 14s;" class="g14" d="M563.68,660.456 L631.68,750.456"/><circle style="--d: 15s" class="g15" cx="686" cy="674" r="16"/><path style="--d: 15s;" class="g15" d="M590,674 Q602.5,697 597.8125,704 Q569.6875,746 565,753"/><circle style="--d: 16s" class="g16" cx="340" cy="868" r="16"/><path style="--d: 16s;" class="g16" d="M340,964 Q817,931 828.75,932.625 Q899.25,942.375 911,944"/></g></svg>