<svg id="z29242" class="acjk" viewBox="0 0 1024 1024" xmlns="http://www.w3.org/2000/svg">
<style>

@keyframes zk {
	to {
		stroke-dashoffset:0;
	}
}
svg.acjk path[clip-path] {
	--t:0.8s;
	animation:zk var(--t) linear forwards var(--d);
	stroke-dasharray:3337;
	stroke-dashoffset:3339;
	stroke-width:128;
	stroke-linecap:round;
	fill:none;
	stroke:#000;
}
svg.acjk path[id] {fill:#ccc;}


    @keyframes guide-fade {
        0% { opacity: 0; }
        3% { opacity: 1; }
        95% { opacity: 1; }
        100% { opacity: 0; }
    }

    svg.acjk #guide-arrow {
        fill: #f77;
    }

    svg.acjk .guides {
        circle {
            fill: #0f6;
        }

        path {
            opacity: 0;
            animation: guide-fade var(--t) linear forwards var(--d);
            stroke-width: 16px;
            stroke-linecap: round;
            stroke: #f77;
            fill: none;
            marker-end: url(#guide-arrow);
        }

        circle,
        path {
            --t: 0.8s;
            opacity: 0;
            animation: guide-fade calc(var(--t) + 0.4s) ease-in-out forwards calc(var(--d) - 0.2s);
        }
    }
</style>
<path id="z29242d1" d="M356 80C334 105 286 150 212 218C202 226 207 238 218 232C362 148 407 119 437 106C450 99 456 92 450 80C443 67 431 57 415 46C400 35 388 31 380 32C372 32 369 36 371 45C372 57 365 68 356 80Z"/>
<path id="z29242d2" d="M640 66C678 90 720 120 767 158C779 168 789 175 799 176C803 176 808 172 813 165C818 156 815 139 804 114C788 80 733 56 636 38C629 36 626 38 627 46C627 54 632 61 640 66Z"/>
<path id="z29242d3" d="M533 237C572 203 596 181 608 176C624 168 617 148 611 138C595 112 576 98 556 96C550 95 546 99 545 108C539 151 516 176 489 205C474 221 474 221 466 229C349 350 199 413 76 461C70 463 69 469 76 469C246 451 388 360 506 260C524 245 524 245 533 237Z"/>
<path id="z29242d4" d="M506 260C674 390 776 460 818 458C836 456 883 441 960 416C969 412 980 410 988 403C993 397 989 390 979 388C966 384 914 379 822 374C750 369 653 324 533 237C504 216 504 216 489 205C452 178 423 160 395 162C387 162 380 164 377 170C374 174 375 180 383 183C414 196 442 210 466 229C493 250 493 250 506 260Z"/>
<path id="z29242d5" d="M467 442C493 437 518 431 542 429C547 428 554 427 558 419C560 412 552 406 539 400C518 390 487 393 444 406C372 425 298 436 243 447C226 449 225 454 238 465C244 470 252 478 262 481C273 484 287 482 299 479C335 469 376 458 423 450C452 445 452 445 467 442Z"/>
<path id="z29242d6" d="M262 481C278 520 278 564 275 739C275 751 311 742 311 730C311 703 313 678 315 656C316 635 316 635 317 625C318 605 318 586 320 569C321 546 321 546 322 535C324 493 334 499 299 479C288 473 257 470 262 481Z"/>
<path id="z29242d7" d="M320 569C350 562 376 557 398 552C412 548 416 542 410 535C402 526 390 522 374 522C360 522 342 526 322 535C311 539 309 571 320 569Z"/>
<path id="z29242d8" d="M315 656C317 656 344 650 396 637C410 633 413 626 406 619C398 611 385 607 370 608C355 608 337 614 317 625C308 630 305 658 315 656Z"/>
<path id="z29242d9" d="M275 739C209 755 168 757 155 758C146 758 141 761 141 768C139 775 141 783 147 788C160 799 176 811 196 822C202 825 209 822 217 818C229 809 297 778 422 725C429 722 432 699 424 701C387 709 349 720 311 730C287 736 287 736 275 739Z"/>
<path id="z29242d10" d="M422 725C414 817 410 872 417 891C420 899 424 908 430 918C443 939 454 945 462 927C469 908 470 890 470 872C465 652 468 515 476 463C476 457 473 450 467 442C459 429 420 435 423 450C431 474 429 633 424 701C423 717 423 717 422 725Z"/>
<path id="z29242d11" d="M612 523C660 501 688 491 697 496C703 499 703 507 701 521C696 549 672 579 672 600C672 614 711 613 713 600C713 588 720 570 735 554C749 537 763 518 781 508C797 497 798 487 783 476C758 458 740 446 726 442C715 438 705 439 698 446C677 463 632 482 600 497C591 501 603 527 612 523Z"/>
<path id="z29242d12" d="M672 600C671 611 677 624 688 633C724 662 782 699 757 736C749 746 726 745 672 752C667 752 665 754 667 759C668 763 674 768 685 772C723 786 749 799 760 813C765 819 770 823 778 823C784 822 790 817 798 810C813 792 821 772 821 746C820 709 790 667 729 622C718 614 713 609 713 600C711 587 672 586 672 600Z"/>
<path id="z29242d13" d="M548 527C554 540 554 637 550 817C547 912 552 967 563 981C566 985 569 988 574 986C585 980 593 959 594 926C596 732 598 609 605 558C606 549 607 537 612 523C615 514 608 503 600 497C582 485 568 479 561 478C553 476 544 473 536 481C525 490 538 507 548 527Z"/>
<defs>
	<clipPath id="z29242c1"><use href="#z29242d1"/></clipPath>
	<clipPath id="z29242c2"><use href="#z29242d2"/></clipPath>
	<clipPath id="z29242c3"><use href="#z29242d3"/></clipPath>
	<clipPath id="z29242c4"><use href="#z29242d4"/></clipPath>
	<clipPath id="z29242c5"><use href="#z29242d5"/></clipPath>
	<clipPath id="z29242c6"><use href="#z29242d6"/></clipPath>
	<clipPath id="z29242c7"><use href="#z29242d7"/></clipPath>
	<clipPath id="z29242c8"><use href="#z29242d8"/></clipPath>
	<clipPath id="z29242c9"><use href="#z29242d9"/></clipPath>
	<clipPath id="z29242c10"><use href="#z29242d10"/></clipPath>
	<clipPath id="z29242c11"><use href="#z29242d11"/></clipPath>
	<clipPath id="z29242c12"><use href="#z29242d12"/></clipPath>
	<clipPath id="z29242c13"><use href="#z29242d13"/></clipPath>
<marker id="guide-arrow" viewBox="0 0 16 16" refX="5" refY="5" markerWidth="4" markerHeight="4" orient="auto-start-reverse"><path d="M 0 0 L 10 5 L 0 10 z" fill="inherit"/></marker></defs>
<path style="--d:1s;" pathLength="3333" clip-path="url(#z29242c1)" d="M377 36L403 87L216 225"/>
<path style="--d:2s;" pathLength="3333" clip-path="url(#z29242c2)" d="M633 45L755 107L806 166"/>
<path style="--d:3s;" pathLength="3333" clip-path="url(#z29242c3)" d="M556 100L575 157L437 288L270 395L80 463"/>
<path style="--d:4s;" pathLength="3333" clip-path="url(#z29242c4)" d="M380 173L444 194L781 407L983 398"/>
<path style="--d:5s;" pathLength="3333" clip-path="url(#z29242c5)" d="M236 453L551 414"/>
<path style="--d:6s;" pathLength="3333" clip-path="url(#z29242c6)" d="M268 480L299 513L291 741"/>
<path style="--d:7s;" pathLength="3333" clip-path="url(#z29242c7)" d="M318 560L403 538"/>
<path style="--d:8s;" pathLength="3333" clip-path="url(#z29242c8)" d="M316 647L400 625"/>
<path style="--d:9s;" pathLength="3333" clip-path="url(#z29242c9)" d="M145 766L204 787L422 709"/>
<path style="--d:10s;" pathLength="3333" clip-path="url(#z29242c10)" d="M429 441L451 475L448 933"/>
<path style="--d:11s;" pathLength="3333" clip-path="url(#z29242c11)" d="M603 508L707 468L740 487L748 503L678 603"/>
<path style="--d:12s;" pathLength="3333" clip-path="url(#z29242c12)" d="M680 599L775 689L790 740L768 780L675 757"/>
<path style="--d:13s;" pathLength="3333" clip-path="url(#z29242c13)" d="M537 486L581 525L572 983"/>
<g class="guides"><circle style="--d: 1s" class="g1" cx="377" cy="36" r="16"/><path style="--d: 1s;" class="g1" d="M281,36 Q294,61.5 282.3125,70.125 Q212.1875,121.875 200.5,130.5"/><circle style="--d: 2s" class="g2" cx="633" cy="45" r="16"/><path style="--d: 2s;" class="g2" d="M718.68,-23.543999999999997 Q840.68,38.456 847.055,45.831 Q885.305,90.081 891.68,97.456"/><circle style="--d: 3s" class="g3" cx="556" cy="100" r="16"/><path style="--d: 3s;" class="g3" d="M460,100 Q474.3939393939394,141.92561983471074 422.1212121212121,190.10330578512395 Q369.8484848484849,238.28099173553719 306.5909090909091,277.6322314049587 Q243.33333333333331,316.9834710743802 171.36363636363635,341.9917355371901 Q171.36363636363635,341.9917355371901 99.39393939393938,367"/><circle style="--d: 4s" class="g4" cx="380" cy="173" r="16"/><path style="--d: 4s;" class="g4" d="M380,269 Q444,290 528.25,343.25 Q781,503 831.5,500.75 Q932.5,496.25 983,494"/><circle style="--d: 5s" class="g5" cx="236" cy="453" r="16"/><path style="--d: 5s;" class="g5" d="M236,549 L551,510"/><circle style="--d: 6s" class="g6" cx="268" cy="480" r="16"/><path style="--d: 6s;" class="g6" d="M172,480 Q203,513 202,541.5 Q196,712.5 195,741"/><circle style="--d: 7s" class="g7" cx="318" cy="560" r="16"/><path style="--d: 7s;" class="g7" d="M318,656 L403,634"/><circle style="--d: 8s" class="g8" cx="316" cy="647" r="16"/><path style="--d: 8s;" class="g8" d="M316,743 L400,721"/><circle style="--d: 9s" class="g9" cx="145" cy="766" r="16"/><path style="--d: 9s;" class="g9" d="M145,862 Q204,883 231.25,873.25 Q394.75,814.75 422,805"/><circle style="--d: 10s" class="g10" cx="440" cy="458" r="16"/><path style="--d: 10s;" class="g10" d="M560,458 L568,933"/><circle style="--d: 11s" class="g11" cx="603" cy="508" r="16"/><path style="--d: 11s;" class="g11" d="M603,604 Q655,564 663.25,573.5 Q671.5,583 673.5,591 Q675.5,599 658,649 Q658,649 640.5,699"/><circle style="--d: 12s" class="g12" cx="680" cy="599" r="16"/><path style="--d: 12s;" class="g12" d="M584,599 Q631.5,644 635.25,656.75 Q639,669.5 633.5,679.5 Q628,689.5 604.75,683.75 Q604.75,683.75 581.5,678"/><circle style="--d: 13s" class="g13" cx="537" cy="486" r="16"/><path style="--d: 13s;" class="g13" d="M441,486 Q485,525 483.875,582.25 Q477.125,925.75 476,983"/></g></svg>