<!--
  Stroke-order data for 特, derived from AnimCJK (https://github.com/parsimonhi/animCJK),
  itself derived from the Arphic PL KaitiM fonts. Distributed under the Arphic Public License
  (see ARPHICPL.TXT). Regenerated by scripts/build-strokes.ts — do not edit by hand.
-->
<svg id="z29305" class="acjk" viewBox="0 0 1024 1024" xmlns="http://www.w3.org/2000/svg">
<g class="glyph"><path id="z29305d1" d="M214 365Q262 277 262 271Q261 267 260 265Q254 255 227 237Q202 224 186 227Q170 231 179 249Q210 297 102 484Q95 494 93 500Q92 510 104 506Q126 500 202 387C210 372 210 372 214 365Z"/><path id="z29305d2" d="M369 372Q391 365 419 359Q447 350 452 346Q459 339 455 331Q448 321 421 315Q393 311 369 324C340 334 340 334 326 339Q274 354 214 365C206 367 194 384 202 387Q244 408 294 390Q307 386 326 383C355 376 355 376 369 372Z"/><path id="z29305d3" d="M366 516Q367 450 369 372C369 340 369 340 369 324Q369 228 389 158Q404 133 374 113Q359 101 334 87Q312 71 291 85Q287 89 293 105Q324 153 325 200Q325 264 326 339C326 368 326 368 326 383Q323 459 321 539C320 568 320 568 320 583Q313 715 297 774Q282 789 291 829Q291 838 308 882Q315 900 323 903Q329 910 336 901Q363 885 363 822Q362 786 365 553C366 528 366 528 366 516Z"/><path id="z29305d4" d="M365 553Q419 513 417 498Q410 494 398 499Q382 506 366 516C336 531 336 531 321 539Q234 581 136 627Q117 637 85 641Q72 645 72 656Q72 671 83 677Q111 690 149 704Q161 705 171 695Q207 655 320 583C350 563 350 563 365 553Z"/><path id="z29305d5" d="M685 275Q722 265 760 257Q794 248 800 243Q807 236 803 227Q796 217 768 210Q734 204 689 225C650 236 650 236 630 242Q584 254 528 260Q494 267 519 282Q561 307 629 286C630 286 630 286 631 286C667 279 667 279 685 275Z"/><path id="z29305d6" d="M675 390Q679 330 685 275C688 242 688 242 689 225Q690 164 708 104Q712 92 691 77Q654 58 629 53Q613 49 604 58Q597 65 605 81Q624 109 625 128Q629 183 630 242C631 271 631 271 631 286Q631 341 630 400C630 415 675 405 675 390Z"/><path id="z29305d7" d="M715 422Q782 412 885 408Q939 404 945 397Q949 385 933 373Q881 339 820 357Q762 370 675 390C645 397 645 397 630 400Q540 416 438 435Q419 438 434 453Q461 477 519 462Q582 444 669 429C700 424 700 424 715 422Z"/><path id="z29305d8" d="M749 558Q753 555 882 540Q892 541 901 529Q902 519 880 508Q853 487 765 511Q756 512 750 515C714 524 714 524 696 528Q626 541 562 550Q516 554 464 561Q437 564 458 581Q488 605 516 599Q595 583 697 566C732 561 732 561 749 558Z"/><path id="z29305d9" d="M661 847Q624 840 586 832Q574 831 575 838Q576 845 587 852Q666 912 695 950Q711 966 726 952Q756 922 756 841Q752 790 749 558C750 529 750 529 750 515Q753 493 759 477Q768 458 751 445Q735 430 715 422C700 417 663 415 669 429Q696 483 696 528C697 553 697 553 697 566Q706 827 684 844Q675 851 661 847Z"/><path id="z29305d10" d="M488 688Q512 712 536 741Q546 754 562 754Q572 755 577 743Q583 730 577 702Q570 672 488 644Q475 640 468 641Q464 645 463 656Q466 666 488 688Z"/></g>
<defs><clipPath id="z29305c1"><use href="#z29305d1"/></clipPath>
	<clipPath id="z29305c2"><use href="#z29305d2"/></clipPath>
	<clipPath id="z29305c3"><use href="#z29305d3"/></clipPath>
	<clipPath id="z29305c4"><use href="#z29305d4"/></clipPath>
	<clipPath id="z29305c5"><use href="#z29305d5"/></clipPath>
	<clipPath id="z29305c6"><use href="#z29305d6"/></clipPath>
	<clipPath id="z29305c7"><use href="#z29305d7"/></clipPath>
	<clipPath id="z29305c8"><use href="#z29305d8"/></clipPath>
	<clipPath id="z29305c9"><use href="#z29305d9"/></clipPath>
	<clipPath id="z29305c10"><use href="#z29305d10"/></clipPath><marker id="guide-arrow" viewBox="0 0 16 16" refX="5" refY="5" markerWidth="4" markerHeight="4" orient="auto-start-reverse"><path d="M 0 0 L 10 5 L 0 10 z" fill="inherit"/></marker></defs>
<g class="strokes"><path pathLength="3333" clip-path="url(#z29305c1)" d="M182 234L222 282L102 500"/><path pathLength="3333" clip-path="url(#z29305c2)" d="M206 382L451 337"/><path pathLength="3333" clip-path="url(#z29305c3)" d="M297 90L356 148L335 899"/><path pathLength="3333" clip-path="url(#z29305c4)" d="M75 653L150 663L408 504"/><path pathLength="3333" clip-path="url(#z29305c5)" d="M519 271L797 232"/><path pathLength="3333" clip-path="url(#z29305c6)" d="M608 59L666 112L645 405"/><path pathLength="3333" clip-path="url(#z29305c7)" d="M437 445L839 381L941 388"/><path pathLength="3333" clip-path="url(#z29305c8)" d="M456 567L512 577L836 521L896 528"/><path pathLength="3333" clip-path="url(#z29305c9)" d="M675 424L726 474L718 867L687 904L580 841"/><path pathLength="3333" clip-path="url(#z29305c10)" d="M471 646L541 701L564 748"/></g>
<g class="guides"><text class="g1" style="--gs:1" x="182" y="234">①</text><path class="g1 aligned" style="--gs:1" d="M182,234 Q222,282 207,309.25 Q117,472.75 102,500"/><path class="g1 offset" style="--gs:1" d="M86,234 Q126,282 111,309.25 Q21,472.75 6,500"/><text class="g2" style="--gs:2" x="206" y="382">②</text><path class="g2 aligned" style="--gs:2" d="M206,382 L451,337"/><path class="g2 offset" style="--gs:2" d="M206,478 L451,433"/><text class="g3" style="--gs:3" x="297" y="90">③</text><path class="g3 aligned" style="--gs:3" d="M297,90 Q356,148 353.38,241.88 Q337.63,805.13 335,899"/><path class="g3 offset" style="--gs:3" d="M201,90 Q260,148 257.38,241.88 Q241.63,805.13 239,899"/><text class="g4" style="--gs:4" x="75" y="653">④</text><path class="g4 aligned" style="--gs:4" d="M75,653 Q150,663 182.25,643.13 Q375.75,523.88 408,504"/><path class="g4 offset" style="--gs:4" d="M75,557 Q150,567 182.25,547.13 Q375.75,427.88 408,408"/><text class="g5" style="--gs:5" x="519" y="271">⑤</text><path class="g5 aligned" style="--gs:5" d="M519,271 L797,232"/><path class="g5 offset" style="--gs:5" d="M519,367 L797,328"/><text class="g6" style="--gs:6" x="608" y="59">⑥</text><path class="g6 aligned" style="--gs:6" d="M608,59 Q666,112 663.38,148.63 Q647.63,368.38 645,405"/><path class="g6 offset" style="--gs:6" d="M512,59 Q570,112 567.38,148.63 Q551.63,368.38 549,405"/><text class="g7" style="--gs:7" x="437" y="445">⑦</text><path class="g7 aligned" style="--gs:7" d="M437,445 Q839,381 851.75,381.88 Q928.25,387.13 941,388"/><path class="g7 offset" style="--gs:7" d="M437,541 Q839,477 851.75,477.88 Q928.25,483.13 941,484"/><text class="g8" style="--gs:8" x="456" y="567">⑧</text><path class="g8 aligned" style="--gs:8" d="M456,567 Q512,577 593,563 Q836,521 851,522.75 Q881,526.25 896,528"/><path class="g8 offset" style="--gs:8" d="M456,663 Q512,673 593,659 Q836,617 851,618.75 Q881,622.25 896,624"/><text class="g9" style="--gs:9" x="675" y="424">⑨</text><path class="g9 aligned" style="--gs:9" d="M675,424 Q726,474 722,670.5 Q718,867 702.5,885.5 Q687,904 633.5,872.5 Q633.5,872.5 580,841"/><path class="g9 offset" style="--gs:9" d="M579,424 Q604.5,464 602.5,621.2 Q600.5,778.4 592.75,793.2 Q585,808 558.25,782.8 Q558.25,782.8 531.5,757.6"/><text class="g10" style="--gs:10" x="471" y="646">⑩</text><path class="g10 aligned" style="--gs:10" d="M471,646 Q541,701 543.88,706.88 Q561.13,742.13 564,748"/><path class="g10 offset" style="--gs:10" d="M556.68,577.46 Q626.68,632.46 629.55,638.33 Q646.8,673.58 649.68,679.46"/></g>
</svg>
