<svg id="z29357" class="acjk" viewBox="0 0 1024 1024" xmlns="http://www.w3.org/2000/svg">
<style>

@keyframes zk {
	to {
		stroke-dashoffset:0;
	}
}
svg.acjk path[clip-path] {
	--t:0.8s;
	animation:zk var(--t) linear forwards var(--d);
	stroke-dasharray:3337;
	stroke-dashoffset:3339;
	stroke-width:128;
	stroke-linecap:round;
	fill:none;
	stroke:#000;
}
svg.acjk path[id] {fill:#ccc;}


    @keyframes guide-fade {
        0% { opacity: 0; }
        3% { opacity: 1; }
        95% { opacity: 1; }
        100% { opacity: 0; }
    }

    svg.acjk #guide-arrow {
        fill: #f77;
    }

    svg.acjk .guides {
        circle {
            fill: #0f6;
        }

        path {
            opacity: 0;
            animation: guide-fade var(--t) linear forwards var(--d);
            stroke-width: 16px;
            stroke-linecap: round;
            stroke: #f77;
            fill: none;
            marker-end: url(#guide-arrow);
        }

        circle,
        path {
            --t: 0.8s;
            opacity: 0;
            animation: guide-fade calc(var(--t) + 0.4s) ease-in-out forwards calc(var(--d) - 0.2s);
        }
    }
</style>
<path id="z29357d1" d="M517 289C550 252 581 206 611 173C619 164 621 153 611 143C584 113 560 99 543 99C535 100 531 106 531 117C531 159 516 205 483 250C462 278 462 278 452 292C424 330 388 364 355 388C328 408 306 422 293 437C285 447 288 451 299 450C341 446 423 396 481 330C505 303 505 303 517 289Z"/>
<path id="z29357d2" d="M537 497C551 588 553 688 528 792C526 800 522 813 514 814C498 818 469 811 425 798C405 791 392 791 388 796C385 800 387 808 396 814C435 844 472 867 497 896C512 913 520 923 526 923C531 923 541 920 549 908C599 831 606 673 589 505C581 430 558 356 517 289C509 275 494 263 483 250C452 215 414 192 373 175C363 170 356 171 354 179C351 189 352 201 358 215C364 228 374 235 386 240C402 245 427 260 452 292C461 305 472 317 481 330C495 352 513 385 520 416C526 443 533 470 537 497Z"/>
<path id="z29357d3" d="M437 548C405 592 348 653 270 734C264 740 267 746 275 747C289 750 337 715 418 642C459 606 498 557 537 497C554 475 534 392 520 416C495 462 468 506 437 548Z"/>
<defs>
	<clipPath id="z29357c1"><use href="#z29357d1"/></clipPath>
	<clipPath id="z29357c2"><use href="#z29357d2"/></clipPath>
	<clipPath id="z29357c3"><use href="#z29357d3"/></clipPath>
<marker id="guide-arrow" viewBox="0 0 16 16" refX="5" refY="5" markerWidth="4" markerHeight="4" orient="auto-start-reverse"><path d="M 0 0 L 10 5 L 0 10 z" fill="inherit"/></marker></defs>
<path style="--d:1s;" pathLength="3333" clip-path="url(#z29357c1)" d="M541 107L570 164L530 229L418 362L298 443"/>
<path style="--d:2s;" pathLength="3333" clip-path="url(#z29357c2)" d="M361 181L510 329L569 559L564 760L531 860L393 801"/>
<path style="--d:3s;" pathLength="3333" clip-path="url(#z29357c3)" d="M527 419L516 477L451 572L273 737"/>
<g class="guides"><circle style="--d: 1s" class="g1" cx="541" cy="107" r="16"/><path style="--d: 1s;" class="g1" d="M445,107 Q461.2058823529412,147.71428571428572 450.0294117647059,170.92857142857144 Q438.8529411764706,194.14285714285714 407.55882352941177,241.6428571428571 Q376.2647058823529,289.1428571428571 342.7352941176471,318.07142857142856 Q342.7352941176471,318.07142857142856 309.20588235294116,347"/><circle style="--d: 2s" class="g2" cx="361" cy="181" r="16"/><path style="--d: 2s;" class="g2" d="M265,181 Q345.2307692307692,308.0751104565538 361.11538461538464,406.8159057437408 Q377,505.55670103092785 375.6538461538462,591.8475699558173 Q374.3076923076923,678.1384388807069 365.4230769230769,721.0692194403534 Q356.53846153846155,764 319.38461538461536,738.6708394698085 Q319.38461538461536,738.6708394698085 282.2307692307692,713.341678939617"/><circle style="--d: 3s" class="g3" cx="527" cy="419" r="16"/><path style="--d: 3s;" class="g3" d="M431,419 Q425.19685039370074,459.49056603773585 416.62401574803147,476.0707547169811 Q390.90551181102364,525.811320754717 367.42913385826773,554.6084905660377 Q320.4763779527559,612.2028301886793 297,641"/></g></svg>