<svg id="z29359" class="acjk" viewBox="0 0 1024 1024" xmlns="http://www.w3.org/2000/svg">
<style>

@keyframes zk {
	to {
		stroke-dashoffset:0;
	}
}
svg.acjk path[clip-path] {
	--t:0.8s;
	animation:zk var(--t) linear forwards var(--d);
	stroke-dasharray:3337;
	stroke-dashoffset:3339;
	stroke-width:128;
	stroke-linecap:round;
	fill:none;
	stroke:#000;
}
svg.acjk path[id] {fill:#ccc;}


    @keyframes guide-fade {
        0% { opacity: 0; }
        3% { opacity: 1; }
        95% { opacity: 1; }
        100% { opacity: 0; }
    }

    svg.acjk #guide-arrow {
        fill: #f77;
    }

    svg.acjk .guides {
        circle {
            fill: #0f6;
        }

        path {
            opacity: 0;
            animation: guide-fade var(--t) linear forwards var(--d);
            stroke-width: 16px;
            stroke-linecap: round;
            stroke: #f77;
            fill: none;
            marker-end: url(#guide-arrow);
        }

        circle,
        path {
            --t: 0.8s;
            opacity: 0;
            animation: guide-fade calc(var(--t) + 0.4s) ease-in-out forwards calc(var(--d) - 0.2s);
        }
    }
</style>
<path id="z29359d1" d="M346 307C369 278 400 235 443 189C451 180 452 169 442 158C413 127 389 114 373 116C364 116 361 122 361 133C361 171 346 213 317 258C306 273 296 289 284 303C207 389 147 425 115 455C105 464 108 468 121 468C163 464 226 427 308 349C321 335 334 321 346 307Z"/>
<path id="z29359d2" d="M337 511C341 614 328 698 305 762C301 772 295 776 290 778C281 779 266 779 244 773C221 766 209 763 206 768C203 772 204 779 212 788C233 813 253 836 268 859C280 879 290 889 298 889C304 889 313 884 324 872C375 813 395 695 388 518C386 475 380 428 375 395C370 366 361 341 346 307C338 289 328 272 317 258C284 217 247 190 194 168C183 163 177 164 175 173C172 182 173 195 180 209C186 223 196 230 209 233C231 238 257 261 284 303C293 317 301 333 308 349C315 367 321 390 326 418C330 448 335 479 337 511Z"/>
<path id="z29359d3" d="M326 418C281 515 195 618 71 712C62 720 61 725 68 727C84 733 116 719 166 687C212 658 263 607 320 534C326 525 332 517 337 511C357 487 338 389 326 418Z"/>
<path id="z29359d4" d="M551 308C555 308 559 307 564 306C612 290 654 278 691 274C699 272 703 274 705 276C710 282 712 296 712 316C710 372 706 413 695 438C685 459 669 469 650 466C635 463 621 457 609 452C591 445 586 451 600 469C625 502 644 531 659 553C668 567 681 565 693 556C725 529 756 479 769 398C779 333 784 290 799 271C806 261 809 253 804 247C798 239 776 229 741 216C727 210 714 213 702 222C677 238 624 255 542 271C529 273 538 308 551 308Z"/>
<path id="z29359d5" d="M971 703C962 684 948 648 937 593C934 581 934 573 929 570C924 567 922 573 918 586C898 645 881 683 869 702C859 716 838 728 807 736C731 754 663 749 605 721C580 708 564 693 556 677C527 620 525 498 551 308C553 296 551 280 542 271C533 262 521 254 505 249C496 246 488 246 482 250C477 252 476 260 481 274C490 302 494 329 493 355C484 535 490 649 505 699C511 719 520 739 540 757C595 805 685 824 807 812C827 810 847 805 869 799C901 789 932 772 963 749C977 738 980 722 971 703Z"/>
<defs>
	<clipPath id="z29359c1"><use href="#z29359d1"/></clipPath>
	<clipPath id="z29359c2"><use href="#z29359d2"/></clipPath>
	<clipPath id="z29359c3"><use href="#z29359d3"/></clipPath>
	<clipPath id="z29359c4"><use href="#z29359d4"/></clipPath>
	<clipPath id="z29359c5"><use href="#z29359d5"/></clipPath>
<marker id="guide-arrow" viewBox="0 0 16 16" refX="5" refY="5" markerWidth="4" markerHeight="4" orient="auto-start-reverse"><path d="M 0 0 L 10 5 L 0 10 z" fill="inherit"/></marker></defs>
<path style="--d:1s;" pathLength="3333" clip-path="url(#z29359c1)" d="M370 121L399 183L339 273L221 396L121 461"/>
<path style="--d:2s;" pathLength="3333" clip-path="url(#z29359c2)" d="M182 171L320 314L362 517L354 696L323 803L290 835L210 773"/>
<path style="--d:3s;" pathLength="3333" clip-path="url(#z29359c3)" d="M324 428L311 501L258 571L69 720"/>
<path style="--d:4s;" pathLength="3333" clip-path="url(#z29359c4)" d="M554 301L708 246L757 267L700 493L664 514L599 458"/>
<path style="--d:5s;" pathLength="3333" clip-path="url(#z29359c5)" d="M488 253L521 313L516 627L557 729L685 778L869 756L925 713L927 576"/>
<g class="guides"><circle style="--d: 1s" class="g1" cx="370" cy="121" r="16"/><path style="--d: 1s;" class="g1" d="M274,121 Q290.48201438848923,165.49411764705883 273.431654676259,197.78823529411767 Q256.38129496402877,230.08235294117648 222.84892086330936,274.21764705882356 Q189.31654676258995,318.3529411764706 160.8992805755396,341.6764705882353 Q160.8992805755396,341.6764705882353 132.4820143884892,365"/><circle style="--d: 2s" class="g2" cx="182" cy="171" r="16"/><path style="--d: 2s;" class="g2" d="M113.456,239.54399999999998 Q251.45600000000002,339.6681204819277 272.456,410.7352409638554 Q293.456,481.8023614457831 289.456,544.4674578313253 Q285.456,607.1325542168674 269.956,644.591578313253 Q254.45600000000002,682.0506024096386 237.95600000000002,693.2533012048193 Q221.45600000000002,704.456 181.45600000000002,682.7507710843374 Q181.45600000000002,682.7507710843374 141.45600000000002,661.0455421686747"/><circle style="--d: 3s" class="g3" cx="324" cy="428" r="16"/><path style="--d: 3s;" class="g3" d="M228,428 Q221.11764705882354,477 214.1029411764706,488.74657534246575 Q193.05882352941177,523.986301369863 168.04411764705884,548.9897260273972 Q118.01470588235294,598.9965753424658 93,624"/><circle style="--d: 4s" class="g4" cx="554" cy="301" r="16"/><path style="--d: 4s;" class="g4" d="M554,397 Q635.1724137931035,342 648.0862068965517,352.5 Q661,363 645.9778325123152,414.25 Q630.9556650246305,465.5 621.4679802955666,470.75 Q611.9802955665025,476 594.8497536945813,462 Q594.8497536945813,462 577.7192118226601,448"/><circle style="--d: 5s" class="g5" cx="488" cy="253" r="16"/><path style="--d: 5s;" class="g5" d="M608,253 Q641,313 638.5,470 Q636,627 656.5,678 Q677,729 741,753.5 Q805,778 897,767 Q989,756 1017,734.5 Q1045,713 1046,644.5 Q1046,644.5 1047,576"/></g></svg>