<!--
  Stroke-order data for 狂, derived from AnimCJK (https://github.com/parsimonhi/animCJK),
  itself derived from the Arphic PL KaitiM fonts. Distributed under the Arphic Public License
  (see ARPHICPL.TXT). Regenerated by scripts/build-strokes.ts — do not edit by hand.
-->
<svg id="z29378" class="acjk" viewBox="0 0 1024 1024" xmlns="http://www.w3.org/2000/svg">
<g class="glyph"><path id="z29378d1" d="M328 281Q359 232 432 150Q445 137 431 119Q386 74 359 76Q346 77 347 94Q347 158 301 229C280 258 280 258 270 272Q204 350 158 385Q113 418 91 439Q79 455 97 452Q167 449 290 323C315 295 315 295 328 281Z"/><path id="z29378d2" d="M318 485Q327 645 286 763Q277 782 266 786Q253 786 218 771Q187 758 182 764Q178 770 187 784Q223 823 244 859Q266 892 278 891Q288 891 310 867Q380 771 375 542Q366 377 328 281C310 246 310 246 301 229Q265 172 166 143Q163 142 162 142Q146 138 144 150Q144 165 155 183Q168 201 187 201Q232 210 270 272C283 306 283 306 290 323Q299 354 306 388C314 453 314 453 318 485Z"/><path id="z29378d3" d="M306 388Q243 541 67 698Q61 702 55 708Q42 721 52 723Q62 727 74 721Q194 672 308 500Q312 491 318 485C341 462 318 358 306 388Z"/><path id="z29378d4" d="M651 307Q838 270 846 264Q856 255 851 246Q844 233 811 223Q772 214 690 244Q572 271 484 279Q442 285 472 304Q520 331 594 317C632 310 632 310 651 307Z"/><path id="z29378d5" d="M659 717Q663 614 666 527C667 494 667 494 668 477Q671 372 673 357Q682 330 651 307C636 295 591 298 594 317Q606 368 609 440Q609 461 609 493C609 524 609 524 609 539Q608 612 608 723C608 740 659 734 659 717Z"/><path id="z29378d6" d="M666 527Q712 515 766 505Q809 495 815 489Q824 482 819 472Q812 460 782 453Q752 447 668 477C629 488 629 488 609 493Q554 503 494 510Q457 517 483 534Q522 555 594 541Q600 540 609 539C647 531 647 531 666 527Z"/><path id="z29378d7" d="M608 723Q511 733 402 748Q380 749 396 769Q412 785 431 791Q455 797 472 792Q617 756 896 756Q912 756 927 757Q949 758 955 748Q961 735 943 720Q886 677 844 685Q775 698 659 717C625 721 625 721 608 723Z"/></g>
<defs><clipPath id="z29378c1"><use href="#z29378d1"/></clipPath>
	<clipPath id="z29378c2"><use href="#z29378d2"/></clipPath>
	<clipPath id="z29378c3"><use href="#z29378d3"/></clipPath>
	<clipPath id="z29378c4"><use href="#z29378d4"/></clipPath>
	<clipPath id="z29378c5"><use href="#z29378d5"/></clipPath>
	<clipPath id="z29378c6"><use href="#z29378d6"/></clipPath>
	<clipPath id="z29378c7"><use href="#z29378d7"/></clipPath><marker id="guide-arrow" viewBox="0 0 16 16" refX="5" refY="5" markerWidth="4" markerHeight="4" orient="auto-start-reverse"><path d="M 0 0 L 10 5 L 0 10 z" fill="inherit"/></marker></defs>
<g class="strokes"><path pathLength="3333" clip-path="url(#z29378c1)" d="M355 82L389 138L312 258L213 366L96 447"/><path pathLength="3333" clip-path="url(#z29378c2)" d="M152 147L290 259L346 514L338 688L298 814L264 836L188 769"/><path pathLength="3333" clip-path="url(#z29378c3)" d="M305 399L292 476L251 537L157 643L54 716"/><path pathLength="3333" clip-path="url(#z29378c4)" d="M470 292L549 297L847 247"/><path pathLength="3333" clip-path="url(#z29378c5)" d="M602 324L639 355L627 720"/><path pathLength="3333" clip-path="url(#z29378c6)" d="M478 521L814 481"/><path pathLength="3333" clip-path="url(#z29378c7)" d="M397 757L463 767L846 720L951 739"/></g>
<g class="guides"><text class="g1" style="--gs:1" x="355" y="82">①</text><path class="g1 aligned" style="--gs:1" d="M355,82 Q389,138 350.5,198 Q312,258 262.5,312 Q213,366 154.5,406.5 Q154.5,406.5 96,447"/><path class="g1 offset" style="--gs:1" d="M259,82 Q281.86,123.27 255.97,167.49 Q230.09,211.71 196.81,251.51 Q163.53,291.3 124.19,321.15 Q124.19,321.15 84.86,351"/><text class="g2" style="--gs:2" x="152" y="147">②</text><path class="g2 aligned" style="--gs:2" d="M152,147 Q290,259 318,386.5 Q346,514 342,601 Q338,688 318,751 Q298,814 281,825 Q264,836 226,802.5 Q226,802.5 188,769"/><path class="g2 offset" style="--gs:2" d="M83.46,215.54 Q221.46,294.37 249.46,384.1 Q277.46,473.84 273.46,535.07 Q269.46,596.29 249.46,640.63 Q229.46,684.97 212.46,692.71 Q195.46,700.46 157.46,676.88 Q157.46,676.88 119.46,653.3"/><text class="g3" style="--gs:3" x="305" y="399">③</text><path class="g3 aligned" style="--gs:3" d="M305,399 Q292,476 271.5,506.5 Q251,537 204,590 Q157,643 105.5,679.5 Q105.5,679.5 54,716"/><path class="g3 offset" style="--gs:3" d="M209,399 Q202.22,452.68 191.52,473.94 Q180.82,495.21 156.29,532.16 Q131.76,569.11 104.88,594.55 Q104.88,594.55 78,620"/><text class="g4" style="--gs:4" x="470" y="292">④</text><path class="g4 aligned" style="--gs:4" d="M470,292 Q549,297 586.25,290.75 Q809.75,253.25 847,247"/><path class="g4 offset" style="--gs:4" d="M470,388 Q549,393 586.25,386.75 Q809.75,349.25 847,343"/><text class="g5" style="--gs:5" x="602" y="324">⑤</text><path class="g5 aligned" style="--gs:5" d="M602,324 Q639,355 637.5,400.63 Q628.5,674.38 627,720"/><path class="g5 offset" style="--gs:5" d="M506,324 Q543,355 541.5,400.63 Q532.5,674.38 531,720"/><text class="g6" style="--gs:6" x="478" y="521">⑥</text><path class="g6 aligned" style="--gs:6" d="M478,521 L814,481"/><path class="g6 offset" style="--gs:6" d="M478,617 L814,577"/><text class="g7" style="--gs:7" x="397" y="757">⑦</text><path class="g7 aligned" style="--gs:7" d="M397,757 Q463,767 558.75,755.25 Q846,720 872.25,724.75 Q924.75,734.25 951,739"/><path class="g7 offset" style="--gs:7" d="M397,853 Q463,863 558.75,851.25 Q846,816 872.25,820.75 Q924.75,830.25 951,835"/></g>
</svg>
