<!--
  Stroke-order data for 獄, derived from AnimCJK (https://github.com/parsimonhi/animCJK),
  itself derived from the Arphic PL KaitiM fonts. Distributed under the Arphic Public License
  (see ARPHICPL.TXT). Regenerated by scripts/build-strokes.ts — do not edit by hand.
-->
<svg id="z29508" class="acjk" viewBox="0 0 1024 1024" xmlns="http://www.w3.org/2000/svg">
<g class="glyph"><path id="z29508d1" d="M263 349Q285 325 305 300Q345 248 382 207Q395 195 382 178Q340 136 315 136Q302 137 303 153Q300 225 244 297C220 326 220 326 208 340Q174 379 135 409Q95 437 75 456Q65 471 81 468Q124 465 223 386C250 361 250 361 263 349Z"/><path id="z29508d2" d="M242 538Q249 673 227 768Q223 781 218 782Q206 786 174 782Q143 773 137 780Q134 786 145 798Q179 832 201 861Q220 888 230 887Q236 890 249 874Q312 778 283 455Q282 440 263 349C250 314 250 314 244 297Q204 219 136 183Q123 174 117 185Q111 200 117 220Q124 242 142 247Q178 268 208 340C218 371 218 371 223 386Q227 413 233 442C239 506 239 506 242 538Z"/><path id="z29508d3" d="M233 442Q182 559 34 741Q28 751 40 753Q59 756 164 646Q204 601 242 538C261 512 245 412 233 442Z"/><path id="z29508d4" d="M476 160Q498 181 521 205Q536 218 552 218Q562 217 569 203Q573 188 564 157Q555 130 471 110Q455 106 448 109Q442 113 444 126Q448 138 476 160Z"/><path id="z29508d5" d="M334 331Q300 340 326 354Q371 373 421 357Q479 341 541 324Q569 315 573 311Q580 304 576 295Q569 285 539 279Q521 278 439 306Q349 327 334 331Z"/><path id="z29508d6" d="M381 434Q365 440 387 452Q394 456 407 454Q470 439 517 430Q539 423 530 411Q518 398 492 396Q465 395 381 434Z"/><path id="z29508d7" d="M366 542Q350 548 371 561Q378 565 394 562Q469 544 524 533Q548 527 538 516Q526 503 500 499Q475 498 366 542Z"/><path id="z29508d8" d="M366 634Q356 628 326 624Q316 621 312 626Q308 632 315 646Q337 689 353 759Q356 780 369 794Q385 813 390 799Q394 787 392 766C389 746 389 746 388 736Q378 681 376 661C374 652 375 638 366 634Z"/><path id="z29508d9" d="M517 725Q533 673 550 659Q571 635 549 622Q531 612 506 595Q488 585 445 609Q400 624 366 634C357 638 367 665 376 661Q380 660 385 658Q422 649 452 642Q473 638 478 646Q481 649 469 714C466 730 514 741 517 725Z"/><path id="z29508d10" d="M392 766Q396 766 401 765Q438 755 519 747Q528 746 529 738Q529 732 517 725C503 717 485 711 469 714Q465 714 461 716Q421 728 388 736C378 738 382 766 392 766Z"/><path id="z29508d11" d="M694 465Q859 417 865 413Q874 404 868 396Q861 384 830 379Q799 375 769 389Q733 402 697 416C665 425 665 425 649 430Q610 437 567 445Q530 454 558 469Q591 487 645 478C678 469 678 469 694 465Z"/><path id="z29508d12" d="M683 565Q690 519 694 465C696 432 696 432 697 416Q704 211 728 150Q735 135 723 124Q701 105 659 94Q632 87 624 94Q614 101 622 114Q664 180 649 430C646 462 646 462 645 478Q632 637 566 733Q538 769 495 808Q483 817 484 821Q485 825 497 824Q509 828 539 812Q644 764 677 600C681 577 681 577 683 565Z"/><path id="z29508d13" d="M677 600Q749 751 826 853Q844 881 866 883Q924 877 974 874Q996 873 996 867Q997 860 974 845Q845 764 785 695Q721 622 683 565C676 556 673 589 677 600Z"/><path id="z29508d14" d="M814 273Q827 286 841 305Q856 320 874 319Q887 319 892 303Q898 287 888 252Q879 231 809 218Q791 214 784 217Q778 221 780 236Q784 249 814 273Z"/></g>
<defs><clipPath id="z29508c1"><use href="#z29508d1"/></clipPath>
	<clipPath id="z29508c2"><use href="#z29508d2"/></clipPath>
	<clipPath id="z29508c3"><use href="#z29508d3"/></clipPath>
	<clipPath id="z29508c4"><use href="#z29508d4"/></clipPath>
	<clipPath id="z29508c5"><use href="#z29508d5"/></clipPath>
	<clipPath id="z29508c6"><use href="#z29508d6"/></clipPath>
	<clipPath id="z29508c7"><use href="#z29508d7"/></clipPath>
	<clipPath id="z29508c8"><use href="#z29508d8"/></clipPath>
	<clipPath id="z29508c9"><use href="#z29508d9"/></clipPath>
	<clipPath id="z29508c10"><use href="#z29508d10"/></clipPath>
	<clipPath id="z29508c11"><use href="#z29508d11"/></clipPath>
	<clipPath id="z29508c12"><use href="#z29508d12"/></clipPath>
	<clipPath id="z29508c13"><use href="#z29508d13"/></clipPath>
	<clipPath id="z29508c14"><use href="#z29508d14"/></clipPath><marker id="guide-arrow" viewBox="0 0 16 16" refX="5" refY="5" markerWidth="4" markerHeight="4" orient="auto-start-reverse"><path d="M 0 0 L 10 5 L 0 10 z" fill="inherit"/></marker></defs>
<g class="strokes"><path pathLength="3333" clip-path="url(#z29508c1)" d="M312 143L342 194L277 295L182 394L79 462"/><path pathLength="3333" clip-path="url(#z29508c2)" d="M124 187L207 281L240 357L268 599L245 806L223 835L145 786"/><path pathLength="3333" clip-path="url(#z29508c3)" d="M231 453L188 575L42 745"/><path pathLength="3333" clip-path="url(#z29508c4)" d="M448 119L517 155L563 209"/><path pathLength="3333" clip-path="url(#z29508c5)" d="M322 342L572 299"/><path pathLength="3333" clip-path="url(#z29508c6)" d="M381 441L525 415"/><path pathLength="3333" clip-path="url(#z29508c7)" d="M367 551L533 522"/><path pathLength="3333" clip-path="url(#z29508c8)" d="M318 632L350 664L384 798"/><path pathLength="3333" clip-path="url(#z29508c9)" d="M372 637L510 631L499 720"/><path pathLength="3333" clip-path="url(#z29508c10)" d="M396 758L522 737"/><path pathLength="3333" clip-path="url(#z29508c11)" d="M554 457L864 399"/><path pathLength="3333" clip-path="url(#z29508c12)" d="M625 98L685 148L655 580L597 732L490 816"/><path pathLength="3333" clip-path="url(#z29508c13)" d="M685 574L764 712L871 834L987 866"/><path pathLength="3333" clip-path="url(#z29508c14)" d="M787 224L856 268L873 316"/></g>
<g class="guides"><text class="g1" style="--gs:1" x="312" y="143">①</text><path class="g1 aligned" style="--gs:1" d="M312,143 Q342,194 309.5,244.5 Q277,295 229.5,344.5 Q182,394 130.5,428 Q130.5,428 79,462"/><path class="g1 offset" style="--gs:1" d="M216,143 Q235.05,178.65 214.41,213.95 Q193.78,249.26 163.61,283.86 Q133.45,318.46 100.75,342.23 Q100.75,342.23 68.05,366"/><text class="g2" style="--gs:2" x="124" y="187">②</text><path class="g2 aligned" style="--gs:2" d="M124,187 Q207,281 223.5,319 Q240,357 254,478 Q268,599 256.5,702.5 Q245,806 234,820.5 Q223,835 184,810.5 Q184,810.5 145,786"/><path class="g2 offset" style="--gs:2" d="M55.46,255.54 Q138.46,322.55 154.96,349.64 Q171.46,376.72 185.46,462.98 Q199.46,549.23 187.96,623.01 Q176.46,696.78 165.46,707.12 Q154.46,717.46 115.46,699.99 Q115.46,699.99 76.46,682.53"/><text class="g3" style="--gs:3" x="231" y="453">③</text><path class="g3 aligned" style="--gs:3" d="M231,453 Q188,575 169.75,596.25 Q60.25,723.75 42,745"/><path class="g3 offset" style="--gs:3" d="M135,453 Q113.5,534.89 104.38,549.15 Q49.63,634.74 40.5,649"/><text class="g4" style="--gs:4" x="448" y="119">④</text><path class="g4 aligned" style="--gs:4" d="M448,119 Q517,155 522.75,161.75 Q557.25,202.25 563,209"/><path class="g4 offset" style="--gs:4" d="M533.68,50.46 Q602.68,86.46 608.43,93.21 Q642.93,133.71 648.68,140.46"/><text class="g5" style="--gs:5" x="322" y="342">⑤</text><path class="g5 aligned" style="--gs:5" d="M322,342 L572,299"/><path class="g5 offset" style="--gs:5" d="M322,438 L572,395"/><text class="g6" style="--gs:6" x="381" y="441">⑥</text><path class="g6 aligned" style="--gs:6" d="M381,441 L525,415"/><path class="g6 offset" style="--gs:6" d="M381,537 L525,511"/><text class="g7" style="--gs:7" x="367" y="551">⑦</text><path class="g7 aligned" style="--gs:7" d="M367,551 L533,522"/><path class="g7 offset" style="--gs:7" d="M367,647 L533,618"/><text class="g8" style="--gs:8" x="318" y="632">⑧</text><path class="g8 aligned" style="--gs:8" d="M318,632 Q350,664 354.25,680.75 Q379.75,781.25 384,798"/><path class="g8 offset" style="--gs:8" d="M403.68,563.46 Q435.68,595.46 439.93,612.21 Q465.43,712.71 469.68,729.46"/><text class="g9" style="--gs:9" x="372" y="637">⑨</text><path class="g9 aligned" style="--gs:9" d="M372,637 Q510,631 508.63,642.13 Q500.38,708.88 499,720"/><path class="g9 offset" style="--gs:9" d="M372,733 Q441,727 440.31,732.56 Q436.19,765.94 435.5,771.5"/><text class="g10" style="--gs:10" x="396" y="758">⑩</text><path class="g10 aligned" style="--gs:10" d="M396,758 L522,737"/><path class="g10 offset" style="--gs:10" d="M396,854 L522,833"/><text class="g11" style="--gs:11" x="554" y="457">⑪</text><path class="g11 aligned" style="--gs:11" d="M554,457 L864,399"/><path class="g11 offset" style="--gs:11" d="M554,553 L864,495"/><text class="g12" style="--gs:12" x="625" y="98">⑫</text><path class="g12 aligned" style="--gs:12" d="M625,98 Q685,148 670,364 Q655,580 626,656 Q597,732 543.5,774 Q543.5,774 490,816"/><path class="g12 offset" style="--gs:12" d="M529,98 Q559.46,141.31 551.85,328.43 Q544.23,515.55 529.51,581.39 Q514.78,647.23 487.62,683.62 Q487.62,683.62 460.46,720"/><text class="g13" style="--gs:13" x="685" y="574">⑬</text><path class="g13 aligned" style="--gs:13" d="M685,574 Q764,712 790.75,742.5 Q871,834 900,842 Q958,858 987,866"/><path class="g13 offset" style="--gs:13" d="M770.68,505.46 Q827.27,630.48 846.43,658.11 Q903.91,741.01 924.68,748.26 Q966.23,762.75 987,770"/><text class="g14" style="--gs:14" x="787" y="224">⑭</text><path class="g14 aligned" style="--gs:14" d="M787,224 Q856,268 858.13,274 Q870.88,310 873,316"/><path class="g14 offset" style="--gs:14" d="M872.68,155.46 Q941.68,199.46 943.81,205.46 Q956.56,241.46 958.68,247.46"/></g>
</svg>
