<!--
  Stroke-order data for 率, derived from AnimCJK (https://github.com/parsimonhi/animCJK),
  itself derived from the Arphic PL KaitiM fonts. Distributed under the Arphic Public License
  (see ARPHICPL.TXT). Regenerated by scripts/build-strokes.ts — do not edit by hand.
-->
<svg id="z29575" class="acjk" viewBox="0 0 1024 1024" xmlns="http://www.w3.org/2000/svg">
<g class="glyph"><path id="z29575d1" d="M491 112C505 121 518 134 534 146C543 153 553 155 563 155C569 154 574 149 577 140C579 130 576 115 568 98C560 83 530 72 480 67C470 65 463 66 460 69C457 71 455 77 458 85C459 91 472 99 491 112Z"/><path id="z29575d2" d="M491 227C544 217 599 211 655 203C693 197 715 190 721 186C726 181 728 176 726 171C722 163 711 156 694 151C679 146 634 156 558 174C477 192 401 198 330 203C307 204 304 211 320 223C340 238 374 243 423 236C433 234 444 235 456 233C479 229 479 229 491 227Z"/><path id="z29575d3" d="M532 379C503 378 477 378 453 378C435 377 431 372 441 362C466 333 489 308 511 287C519 278 522 271 522 267C520 259 511 245 491 227C483 219 454 221 456 233C462 251 448 286 415 337C408 347 398 358 386 368C375 376 369 383 370 390C371 400 376 411 384 422C388 428 395 430 403 426C419 418 493 404 513 402C523 400 542 379 532 379Z"/><path id="z29575d4" d="M509 537C525 530 562 514 626 501C633 500 620 483 613 484C568 490 520 499 469 513C456 516 454 513 463 504C487 477 529 438 587 384C608 364 626 347 644 335C652 329 654 323 652 317C646 304 634 290 615 276C606 269 598 266 592 267C585 267 583 273 583 284C582 306 565 338 532 379C519 394 519 394 513 402C448 480 401 515 388 522C379 526 375 533 376 542C376 550 385 560 399 575C406 582 413 583 423 577C437 567 453 558 471 552C496 542 496 542 509 537Z"/><path id="z29575d5" d="M626 501C651 533 667 549 672 550C676 550 682 549 686 543C689 536 689 525 689 511C688 498 681 484 665 473C625 445 602 435 596 438C593 439 591 442 591 449C590 449 596 462 613 484C622 495 622 495 626 501Z"/><path id="z29575d6" d="M249 315C283 354 308 375 325 376C333 376 341 371 344 358C345 349 342 337 335 324C329 313 317 308 302 303C279 295 263 289 253 288C246 287 243 290 243 298C242 304 244 309 249 315Z"/><path id="z29575d7" d="M198 528C191 530 187 535 189 545C190 555 201 562 218 570C235 577 247 582 257 582C263 581 264 572 271 560C284 533 314 495 355 442C358 437 360 433 357 430C354 427 351 428 347 432C271 492 227 523 216 525C210 525 204 526 198 528Z"/><path id="z29575d8" d="M741 280C726 299 704 322 676 352C672 356 670 361 675 365C678 367 684 365 689 363C741 334 778 313 804 304C814 300 819 297 818 291C815 280 808 270 798 258C787 246 775 238 763 237C754 235 749 242 749 254C749 262 747 271 741 280Z"/><path id="z29575d9" d="M682 437C714 459 751 487 791 522C802 531 811 538 820 539C824 539 828 535 832 530C837 521 835 505 826 482C813 450 764 428 679 411C673 409 671 410 671 418C671 426 675 432 682 437Z"/><path id="z29575d10" d="M546 674C628 666 726 662 841 665C863 665 883 665 903 665C917 665 927 662 931 656C935 647 931 637 919 628C881 597 838 589 791 598C726 609 645 624 546 637C509 642 509 642 490 644C379 657 259 670 130 684C115 685 112 692 124 705C134 716 146 723 159 727C174 731 188 731 200 728C295 703 393 687 491 679C528 676 528 676 546 674Z"/><path id="z29575d11" d="M499 934C503 948 507 958 511 965C513 969 518 972 523 970C531 965 538 943 542 907C542 901 546 823 546 674C546 674 546 649 546 637C546 632 547 621 550 605C551 596 552 588 554 581C556 570 552 561 544 556C530 547 518 541 509 537C496 532 466 539 471 552C481 574 488 605 490 644C491 667 491 667 491 679C495 839 496 924 499 934Z"/></g>
<defs><clipPath id="z29575c1"><use href="#z29575d1"/></clipPath>
	<clipPath id="z29575c2"><use href="#z29575d2"/></clipPath>
	<clipPath id="z29575c3"><use href="#z29575d3"/></clipPath>
	<clipPath id="z29575c4"><use href="#z29575d4"/></clipPath>
	<clipPath id="z29575c5"><use href="#z29575d5"/></clipPath>
	<clipPath id="z29575c6"><use href="#z29575d6"/></clipPath>
	<clipPath id="z29575c7"><use href="#z29575d7"/></clipPath>
	<clipPath id="z29575c8"><use href="#z29575d8"/></clipPath>
	<clipPath id="z29575c9"><use href="#z29575d9"/></clipPath>
	<clipPath id="z29575c10"><use href="#z29575d10"/></clipPath>
	<clipPath id="z29575c11"><use href="#z29575d11"/></clipPath><marker id="guide-arrow" viewBox="0 0 16 16" refX="5" refY="5" markerWidth="4" markerHeight="4" orient="auto-start-reverse"><path d="M 0 0 L 10 5 L 0 10 z" fill="inherit"/></marker></defs>
<g class="strokes"><path pathLength="3333" clip-path="url(#z29575c1)" d="M465 73L572 147"/><path pathLength="3333" clip-path="url(#z29575c2)" d="M318 212L720 176"/><path pathLength="3333" clip-path="url(#z29575c3)" d="M463 238L485 272L409 396L522 381"/><path pathLength="3333" clip-path="url(#z29575c4)" d="M593 272L614 318L420 529L440 547L618 496"/><path pathLength="3333" clip-path="url(#z29575c5)" d="M600 446L677 542"/><path pathLength="3333" clip-path="url(#z29575c6)" d="M249 297L335 369"/><path pathLength="3333" clip-path="url(#z29575c7)" d="M192 539L247 548L350 438"/><path pathLength="3333" clip-path="url(#z29575c8)" d="M759 244L778 289L681 358"/><path pathLength="3333" clip-path="url(#z29575c9)" d="M679 419L790 482L828 531"/><path pathLength="3333" clip-path="url(#z29575c10)" d="M122 690L175 705L796 630L927 642"/><path pathLength="3333" clip-path="url(#z29575c11)" d="M479 557L519 586L521 961"/></g>
<g class="guides"><text class="g1" style="--gs:1" x="465" y="73">①</text><path class="g1 aligned" style="--gs:1" d="M465,73 L572,147"/><path class="g1 offset" style="--gs:1" d="M550.68,4.46 L657.68,78.46"/><text class="g2" style="--gs:2" x="318" y="212">②</text><path class="g2 aligned" style="--gs:2" d="M318,212 L720,176"/><path class="g2 offset" style="--gs:2" d="M318,308 L720,272"/><text class="g3" style="--gs:3" x="463" y="238">③</text><path class="g3 aligned" style="--gs:3" d="M474,255 Q409,396 423.13,394.13 Q507.88,382.88 522,381"/><path class="g3 offset" style="--gs:3" d="M594,255 Q561.5,325.5 568.56,324.56 Q610.94,318.94 618,318"/><text class="g4" style="--gs:4" x="593" y="272">④</text><path class="g4 aligned" style="--gs:4" d="M593,272 Q614,318 517,423.5 Q420,529 430,538 Q440,547 529,521.5 Q529,521.5 618,496"/><path class="g4 offset" style="--gs:4" d="M713,272 Q723.5,301.94 675,370.61 Q626.5,439.28 631.5,445.14 Q636.5,451 681,434.4 Q681,434.4 725.5,417.8"/><text class="g5" style="--gs:5" x="600" y="446">⑤</text><path class="g5 aligned" style="--gs:5" d="M600,446 L677,542"/><path class="g5 offset" style="--gs:5" d="M685.68,377.46 L762.68,473.46"/><text class="g6" style="--gs:6" x="249" y="297">⑥</text><path class="g6 aligned" style="--gs:6" d="M249,297 L335,369"/><path class="g6 offset" style="--gs:6" d="M334.68,228.46 L420.68,300.46"/><text class="g7" style="--gs:7" x="192" y="539">⑦</text><path class="g7 aligned" style="--gs:7" d="M192,539 Q247,548 259.88,534.25 Q337.13,451.75 350,438"/><path class="g7 offset" style="--gs:7" d="M192,443 Q247,452 259.88,438.25 Q337.13,355.75 350,342"/><text class="g8" style="--gs:8" x="759" y="244">⑧</text><path class="g8 aligned" style="--gs:8" d="M759,244 Q778,289 765.88,297.63 Q693.13,349.38 681,358"/><path class="g8 offset" style="--gs:8" d="M663,244 Q672.5,266.5 666.44,270.81 Q630.06,296.69 624,301"/><text class="g9" style="--gs:9" x="679" y="419">⑨</text><path class="g9 aligned" style="--gs:9" d="M679,419 Q790,482 794.75,488.13 Q823.25,524.88 828,531"/><path class="g9 offset" style="--gs:9" d="M764.68,350.46 Q875.68,413.46 880.43,419.58 Q908.93,456.33 913.68,462.46"/><text class="g10" style="--gs:10" x="122" y="690">⑩</text><path class="g10 aligned" style="--gs:10" d="M122,690 Q175,705 330.25,686.25 Q796,630 828.75,633 Q894.25,639 927,642"/><path class="g10 offset" style="--gs:10" d="M122,786 Q175,801 330.25,782.25 Q796,726 828.75,729 Q894.25,735 927,738"/><text class="g11" style="--gs:11" x="479" y="557">⑪</text><path class="g11 aligned" style="--gs:11" d="M479,557 Q519,586 519.25,632.88 Q520.75,914.13 521,961"/><path class="g11 offset" style="--gs:11" d="M564.68,488.46 Q604.68,517.46 604.93,564.33 Q606.43,845.58 606.68,892.46"/></g>
</svg>
