<!--
  Stroke-order data for 玉, derived from AnimCJK (https://github.com/parsimonhi/animCJK),
  itself derived from the Arphic PL KaitiM fonts. Distributed under the Arphic Public License
  (see ARPHICPL.TXT). Regenerated by scripts/build-strokes.ts — do not edit by hand.
-->
<svg id="z29577" class="acjk" viewBox="0 0 1024 1024" xmlns="http://www.w3.org/2000/svg">
<g class="glyph"><path style="--part:1" id="z29577d1" d="M522 253Q597 240 675 228Q736 216 745 208Q755 199 751 190Q744 175 711 166Q675 157 586 186Q439 220 317 227Q275 231 304 252Q347 279 431 267Q447 264 466 262C503 256 503 256 522 253Z"/><path style="--part:1" id="z29577d2" d="M530 738Q533 617 537 514C538 480 538 480 538 463Q539 355 545 302Q554 277 522 253C509 240 459 244 466 262Q481 298 485 401Q484 429 484 475C483 507 483 507 483 523Q482 611 480 743C480 760 530 755 530 738Z"/><path style="--part:1" id="z29577d3" d="M537 514Q589 504 646 496Q701 486 709 479Q719 470 715 461Q708 448 677 439Q644 430 612 442Q575 452 538 463C502 471 502 471 484 475Q408 487 320 493Q280 497 308 517Q353 545 412 533Q446 527 483 523C519 517 519 517 537 514Z"/><path style="--part:1" id="z29577d4" d="M512 789Q566 786 617 782Q749 772 895 788Q920 792 927 782Q936 769 922 755Q891 724 844 702Q828 695 801 704Q704 722 530 738C497 741 497 741 480 743Q359 753 297 760Q228 769 125 768Q110 768 109 780Q108 793 128 809Q176 845 213 832Q243 822 400 800Q452 793 512 789Z"/><path style="--part:2" id="z29577d5" d="M732 573Q763 601 798 635Q810 648 825 648Q835 648 841 635Q845 622 838 593Q834 571 800 552Q722 522 708 525Q704 529 704 541Q707 551 732 573Z"/></g>
<defs><clipPath id="z29577c1"><use href="#z29577d1"/></clipPath>
	<clipPath id="z29577c2"><use href="#z29577d2"/></clipPath>
	<clipPath id="z29577c3"><use href="#z29577d3"/></clipPath>
	<clipPath id="z29577c4"><use href="#z29577d4"/></clipPath>
	<clipPath id="z29577c5"><use href="#z29577d5"/></clipPath><marker id="guide-arrow" viewBox="0 0 16 16" refX="5" refY="5" markerWidth="4" markerHeight="4" orient="auto-start-reverse"><path d="M 0 0 L 10 5 L 0 10 z" fill="inherit"/></marker></defs>
<g class="strokes"><path style="--part:1" pathLength="3333" clip-path="url(#z29577c1)" d="M299 237L417 243L747 190"/><path style="--part:1" pathLength="3333" clip-path="url(#z29577c2)" d="M474 266L512 297L505 740"/><path style="--part:1" pathLength="3333" clip-path="url(#z29577c3)" d="M307 505L388 512L711 466"/><path style="--part:1" pathLength="3333" clip-path="url(#z29577c4)" d="M113 781L194 801L829 740L924 777"/><path style="--part:2" pathLength="3333" clip-path="url(#z29577c5)" d="M712 534L797 588L827 642"/></g>
<g class="guides"><text class="g1" style="--gs:1" x="299" y="237">①</text><path class="g1 aligned" style="--gs:1" d="M299,237 Q417,243 458.25,236.38 Q705.75,196.63 747,190"/><path class="g1 offset" style="--gs:1" d="M299,333 Q417,339 458.25,332.38 Q705.75,292.63 747,286"/><text class="g2" style="--gs:2" x="474" y="266">②</text><path class="g2 aligned" style="--gs:2" d="M474,266 Q512,297 511.13,352.38 Q505.88,684.63 505,740"/><path class="g2 offset" style="--gs:2" d="M378,266 Q416,297 415.13,352.38 Q409.88,684.63 409,740"/><text class="g3" style="--gs:3" x="307" y="505">③</text><path class="g3 aligned" style="--gs:3" d="M307,505 Q388,512 428.38,506.25 Q670.63,471.75 711,466"/><path class="g3 offset" style="--gs:3" d="M307,601 Q388,608 428.38,602.25 Q670.63,567.75 711,562"/><text class="g4" style="--gs:4" x="113" y="781">④</text><path class="g4 aligned" style="--gs:4" d="M113,781 Q194,801 352.75,785.75 Q829,740 852.75,749.25 Q900.25,767.75 924,777"/><path class="g4 offset" style="--gs:4" d="M113,877 Q194,897 352.75,881.75 Q829,836 852.75,845.25 Q900.25,863.75 924,873"/><text class="g5" style="--gs:5" x="712" y="534">⑤</text><path class="g5 aligned" style="--gs:5" d="M712,534 Q797,588 800.75,594.75 Q823.25,635.25 827,642"/><path class="g5 offset" style="--gs:5" d="M797.68,465.46 Q882.68,519.46 886.43,526.21 Q908.93,566.71 912.68,573.46"/></g>
<g class="parts"><rect data-part="1" data-literal="王" role="button" tabindex="0" aria-label="Part 王" x="41" y="118" width="955" height="755"/><rect data-part="2" data-literal="丶" role="button" tabindex="0" aria-label="Part 丶" x="640" y="462" width="259" height="252"/></g>
</svg>
