<!--
  Stroke-order data for 玖, derived from AnimCJK (https://github.com/parsimonhi/animCJK),
  itself derived from the Arphic PL KaitiM fonts. Distributed under the Arphic Public License
  (see ARPHICPL.TXT). Regenerated by scripts/build-strokes.ts — do not edit by hand.
-->
<svg id="z29590" class="acjk" viewBox="0 0 1024 1024" xmlns="http://www.w3.org/2000/svg">
<g class="glyph"><path style="--part:1" id="z29590d1" d="M284 303C370 281 414 269 416 267C422 260 423 254 420 249C413 240 400 233 380 230C358 226 336 230 315 239C292 247 268 256 243 263C216 270 186 274 153 280C126 284 122 293 143 305C168 319 203 323 244 313C271 306 271 306 284 303Z"/><path style="--part:1" id="z29590d2" d="M313 660C313 602 316 517 317 500C318 466 318 466 319 449C320 414 319 384 323 361C327 336 298 310 284 303C272 296 237 301 244 313C256 335 265 379 265 470C265 499 265 499 265 514C265 536 265 647 265 682C265 700 313 678 313 660Z"/><path style="--part:1" id="z29590d3" d="M317 500C369 485 395 475 397 474C401 469 403 464 400 459C395 452 383 446 365 443C348 439 333 443 319 449C283 463 283 463 265 470C226 485 185 490 146 497C123 500 120 510 138 519C163 532 194 531 230 522C240 519 251 517 265 514C300 505 300 505 317 500Z"/><path style="--part:1" id="z29590d4" d="M265 682C221 702 173 720 126 742C113 747 94 751 71 755C62 756 57 762 57 770C56 780 59 788 68 793C86 802 108 813 135 823C142 825 151 821 159 814C188 784 258 744 311 707C337 688 411 639 417 635C425 628 433 620 430 614C427 609 417 610 409 614C377 627 346 644 313 660C281 675 281 675 265 682Z"/><path style="--part:2" id="z29590d5" d="M549 364Q579 313 611 248Q629 205 646 184Q655 172 648 158Q642 145 610 126Q579 110 560 113Q541 117 552 139Q567 163 555 209Q510 353 415 503Q406 515 404 522Q403 534 417 529Q460 508 535 386C544 371 544 371 549 364Z"/><path style="--part:2" id="z29590d6" d="M636 625Q685 544 735 424Q750 393 775 372Q791 363 790 353Q789 340 757 324Q717 303 702 304Q690 305 678 317Q605 350 549 364C540 365 527 383 535 386Q550 395 577 397Q601 393 641 369Q663 359 675 365Q682 369 666 429Q597 699 318 862Q308 868 310 872Q311 876 319 876Q457 861 597 680Q607 665 619 650C630 633 630 633 636 625Z"/><path style="--part:2" id="z29590d7" d="M619 650Q712 791 808 886Q830 910 853 909Q911 896 962 885Q984 881 984 875Q985 869 958 856Q828 805 746 732Q700 692 636 625C629 618 613 642 619 650Z"/></g>
<defs><clipPath id="z29590c1"><use href="#z29590d1"/></clipPath>
	<clipPath id="z29590c2"><use href="#z29590d2"/></clipPath>
	<clipPath id="z29590c3"><use href="#z29590d3"/></clipPath>
	<clipPath id="z29590c4"><use href="#z29590d4"/></clipPath>
	<clipPath id="z29590c5"><use href="#z29590d5"/></clipPath>
	<clipPath id="z29590c6"><use href="#z29590d6"/></clipPath>
	<clipPath id="z29590c7"><use href="#z29590d7"/></clipPath><marker id="guide-arrow" viewBox="0 0 16 16" refX="5" refY="5" markerWidth="4" markerHeight="4" orient="auto-start-reverse"><path d="M 0 0 L 10 5 L 0 10 z" fill="inherit"/></marker></defs>
<g class="strokes"><path style="--part:1" pathLength="3333" clip-path="url(#z29590c1)" d="M136 291L417 256"/><path style="--part:1" pathLength="3333" clip-path="url(#z29590c2)" d="M251 316L291 357L290 663"/><path style="--part:1" pathLength="3333" clip-path="url(#z29590c3)" d="M136 508L394 461"/><path style="--part:1" pathLength="3333" clip-path="url(#z29590c4)" d="M61 768L136 782L422 618"/><path style="--part:2" pathLength="3333" clip-path="url(#z29590c5)" d="M554 121L594 150L599 191L500 400L410 522"/><path style="--part:2" pathLength="3333" clip-path="url(#z29590c6)" d="M541 382L679 337L725 352L664 519L517 738L410 826L317 868"/><path style="--part:2" pathLength="3333" clip-path="url(#z29590c7)" d="M640 636L703 728L830 846L977 875"/></g>
<g class="guides"><text class="g1" style="--gs:1" x="136" y="291">①</text><path class="g1 aligned" style="--gs:1" d="M136,291 L417,256"/><path class="g1 offset" style="--gs:1" d="M136,387 L417,352"/><text class="g2" style="--gs:2" x="251" y="316">②</text><path class="g2 aligned" style="--gs:2" d="M251,316 Q291,357 290.88,395.25 Q290.13,624.75 290,663"/><path class="g2 offset" style="--gs:2" d="M155,316 Q195,357 194.88,395.25 Q194.13,624.75 194,663"/><text class="g3" style="--gs:3" x="136" y="508">③</text><path class="g3 aligned" style="--gs:3" d="M136,508 L394,461"/><path class="g3 offset" style="--gs:3" d="M136,604 L394,557"/><text class="g4" style="--gs:4" x="61" y="768">④</text><path class="g4 aligned" style="--gs:4" d="M61,768 Q136,782 171.75,761.5 Q386.25,638.5 422,618"/><path class="g4 offset" style="--gs:4" d="M61,864 Q136,878 171.75,857.5 Q386.25,734.5 422,714"/><text class="g5" style="--gs:5" x="554" y="121">⑤</text><path class="g5 aligned" style="--gs:5" d="M554,121 Q594,150 596.5,170.5 Q599,191 549.5,295.5 Q500,400 455,461 Q455,461 410,522"/><path class="g5 offset" style="--gs:5" d="M458,121 Q478,143.06 479.25,158.65 Q480.5,174.24 455.75,253.72 Q431,333.21 408.5,379.6 Q408.5,379.6 386,426"/><text class="g6" style="--gs:6" x="541" y="382">⑥</text><path class="g6 aligned" style="--gs:6" d="M541,382 Q679,337 702,344.5 Q725,352 694.5,435.5 Q664,519 590.5,628.5 Q517,738 463.5,782 Q410,826 363.5,847 Q363.5,847 317,868"/><path class="g6 offset" style="--gs:6" d="M445,478 Q550.53,449.27 568.12,454.06 Q585.71,458.85 562.38,512.16 Q539.06,565.46 482.85,635.37 Q426.65,705.28 385.74,733.37 Q344.82,761.46 309.26,774.86 Q309.26,774.86 273.71,788.27"/><text class="g7" style="--gs:7" x="640" y="636">⑦</text><path class="g7 aligned" style="--gs:7" d="M640,636 Q703,728 734.75,757.5 Q830,846 866.75,853.25 Q940.25,867.75 977,875"/><path class="g7 offset" style="--gs:7" d="M725.68,567.46 Q772.66,648.89 796.34,675 Q867.37,753.33 894.78,759.75 Q949.59,772.58 977,779"/></g>
<g class="parts"><rect data-part="2" data-literal="久" role="button" tabindex="0" aria-label="Part 久" x="245" y="49" width="779" height="898"/><rect data-part="1" data-literal="王" data-radical="true" role="button" tabindex="0" aria-label="Part 王 (radical)" x="0" y="184" width="494" height="670"/></g>
</svg>
