<!--
  Stroke-order data for 玻, derived from AnimCJK (https://github.com/parsimonhi/animCJK),
  itself derived from the Arphic PL KaitiM fonts. Distributed under the Arphic Public License
  (see ARPHICPL.TXT). Regenerated by scripts/build-strokes.ts — do not edit by hand.
-->
<svg id="z29627" class="acjk" viewBox="0 0 1024 1024" xmlns="http://www.w3.org/2000/svg">
<g class="glyph"><path style="--part:1" id="z29627d1" d="M272 319C353 296 394 282 397 281C403 275 403 269 400 264C394 256 382 250 362 247C341 244 321 248 301 258C281 266 260 273 238 280C214 286 187 291 159 297C134 301 130 312 150 321C173 332 201 338 229 331C258 323 258 323 272 319Z"/><path style="--part:1" id="z29627d2" d="M288 688Q289 606 293 535C294 502 294 502 295 486Q298 398 301 371Q310 346 272 319C260 310 223 317 229 331Q241 353 246 443Q245 468 245 507C245 535 245 535 245 549Q244 613 243 707C243 723 288 704 288 688Z"/><path style="--part:1" id="z29627d3" d="M293 535C310 530 328 523 349 518C365 513 375 509 378 506C382 500 383 494 380 490C375 483 363 477 345 476C328 474 312 479 295 486C262 499 262 499 245 505C216 515 182 523 157 529C134 534 131 543 149 551C180 565 210 558 245 549C277 540 277 540 293 535Z"/><path style="--part:1" id="z29627d4" d="M243 707C186 730 135 754 81 761C72 762 66 767 66 775C64 784 68 792 76 797C93 807 114 819 140 828C147 830 155 825 163 820C237 759 330 714 393 666C411 651 403 639 386 646C355 658 322 673 288 688C258 701 258 701 243 707Z"/><path style="--part:2" id="z29627d5" d="M491 333C470 315 438 309 429 311C416 313 415 321 425 336C448 374 452 459 433 589C417 691 358 782 291 842C261 867 286 872 308 861C406 809 457 696 480 589C496 508 497 397 501 371C504 358 501 341 491 333Z"/><path style="--part:2" id="z29627d6" d="M648 324C678 314 707 305 738 298C758 293 771 295 773 304C774 313 764 338 747 377C736 400 743 403 766 386C813 348 845 322 866 315C880 309 887 303 886 295C885 286 860 270 811 251C796 245 780 245 764 251C721 264 684 281 649 292C616 301 616 301 600 306C567 315 531 321 491 333C479 338 489 376 501 371C521 363 554 353 601 339C632 329 632 329 648 324Z"/><path style="--part:2" id="z29627d7" d="M641 499C643 439 646 380 648 324C649 303 649 303 649 292C651 222 656 160 668 109C669 102 665 92 651 84C627 69 606 63 590 61C565 57 556 72 567 90C608 154 598 241 600 306C601 328 601 328 601 339C602 393 600 451 599 511C599 526 641 514 641 499Z"/><path style="--part:2" id="z29627d8" d="M688 722C714 671 729 631 750 572C756 552 765 535 779 523C791 511 793 501 784 493C775 485 760 478 738 472C722 466 706 471 688 481C673 488 658 494 641 499C627 503 613 507 599 511C544 526 514 527 513 531C510 535 514 540 527 545C550 553 579 554 611 543C644 531 663 523 670 523C686 523 693 533 690 553C680 603 668 648 649 685C642 697 637 709 630 721C586 784 532 822 451 852C442 855 442 860 450 865C454 867 468 869 494 867C556 860 608 830 662 762C671 749 680 736 688 722Z"/><path style="--part:2" id="z29627d9" d="M662 762C731 851 782 897 815 899C870 902 922 900 968 896C992 893 1002 889 1001 883C1000 881 944 861 833 818C786 799 736 768 688 722C662 697 662 697 649 685C629 666 611 646 592 624C569 598 546 584 525 584C514 583 507 583 505 587C502 591 507 597 517 604C545 623 583 661 630 721C651 748 651 748 662 762Z"/></g>
<defs><clipPath id="z29627c1"><use href="#z29627d1"/></clipPath>
	<clipPath id="z29627c2"><use href="#z29627d2"/></clipPath>
	<clipPath id="z29627c3"><use href="#z29627d3"/></clipPath>
	<clipPath id="z29627c4"><use href="#z29627d4"/></clipPath>
	<clipPath id="z29627c5"><use href="#z29627d5"/></clipPath>
	<clipPath id="z29627c6"><use href="#z29627d6"/></clipPath>
	<clipPath id="z29627c7"><use href="#z29627d7"/></clipPath>
	<clipPath id="z29627c8"><use href="#z29627d8"/></clipPath>
	<clipPath id="z29627c9"><use href="#z29627d9"/></clipPath><marker id="guide-arrow" viewBox="0 0 16 16" refX="5" refY="5" markerWidth="4" markerHeight="4" orient="auto-start-reverse"><path d="M 0 0 L 10 5 L 0 10 z" fill="inherit"/></marker></defs>
<g class="strokes"><path style="--part:1" pathLength="3333" clip-path="url(#z29627c1)" d="M145 310L396 268"/><path style="--part:1" pathLength="3333" clip-path="url(#z29627c2)" d="M237 327L271 365L258 709"/><path style="--part:1" pathLength="3333" clip-path="url(#z29627c3)" d="M146 540L376 498"/><path style="--part:1" pathLength="3333" clip-path="url(#z29627c4)" d="M70 772L143 787L394 651"/><path style="--part:2" pathLength="3333" clip-path="url(#z29627c5)" d="M426 321L471 374L446 633L389 759L283 858"/><path style="--part:2" pathLength="3333" clip-path="url(#z29627c6)" d="M495 364L785 273L833 311L749 389"/><path style="--part:2" pathLength="3333" clip-path="url(#z29627c7)" d="M568 68L628 121L613 514"/><path style="--part:2" pathLength="3333" clip-path="url(#z29627c8)" d="M522 534L694 498L740 525L635 756L558 825L453 857"/><path style="--part:2" pathLength="3333" clip-path="url(#z29627c9)" d="M512 591L792 844L993 884"/></g>
<g class="guides"><text class="g1" style="--gs:1" x="145" y="310">①</text><path class="g1 aligned" style="--gs:1" d="M145,310 L396,268"/><path class="g1 offset" style="--gs:1" d="M145,406 L396,364"/><text class="g2" style="--gs:2" x="237" y="327">②</text><path class="g2 aligned" style="--gs:2" d="M237,327 Q271,365 269.38,408 Q259.63,666 258,709"/><path class="g2 offset" style="--gs:2" d="M141,327 Q175,365 173.38,408 Q163.63,666 162,709"/><text class="g3" style="--gs:3" x="146" y="540">③</text><path class="g3 aligned" style="--gs:3" d="M146,540 L376,498"/><path class="g3 offset" style="--gs:3" d="M146,636 L376,594"/><text class="g4" style="--gs:4" x="70" y="772">④</text><path class="g4 aligned" style="--gs:4" d="M70,772 Q143,787 174.38,770 Q362.63,668 394,651"/><path class="g4 offset" style="--gs:4" d="M70,868 Q143,883 174.38,866 Q362.63,764 394,747"/><text class="g5" style="--gs:5" x="426" y="321">⑤</text><path class="g5 aligned" style="--gs:5" d="M426,321 Q471,374 458.5,503.5 Q446,633 417.5,696 Q389,759 336,808.5 Q336,808.5 283,858"/><path class="g5 offset" style="--gs:5" d="M330,321 Q352.5,364.53 346.25,470.87 Q340,577.22 325.75,628.96 Q311.5,680.7 285,721.35 Q285,721.35 258.5,762"/><text class="g6" style="--gs:6" x="495" y="364">⑥</text><path class="g6 aligned" style="--gs:6" d="M495,364 Q785,273 797,282.5 Q833,311 812,330.5 Q770,369.5 749,389"/><path class="g6 offset" style="--gs:6" d="M495,460 Q671.75,369 679.06,378.5 Q701,407 688.2,426.5 Q662.6,465.5 649.8,485"/><text class="g7" style="--gs:7" x="568" y="68">⑦</text><path class="g7 aligned" style="--gs:7" d="M568,68 Q628,121 626.13,170.13 Q614.88,464.88 613,514"/><path class="g7 offset" style="--gs:7" d="M472,68 Q532,121 530.13,170.13 Q518.88,464.88 517,514"/><text class="g8" style="--gs:8" x="522" y="534">⑧</text><path class="g8 aligned" style="--gs:8" d="M522,534 Q694,498 717,511.5 Q740,525 687.5,640.5 Q635,756 596.5,790.5 Q558,825 505.5,841 Q505.5,841 453,857"/><path class="g8 offset" style="--gs:8" d="M426,630 Q540.47,612 555.77,618.75 Q571.08,625.5 536.14,683.25 Q501.2,741 475.58,758.25 Q449.96,775.5 415.02,783.5 Q415.02,783.5 380.08,791.5"/><text class="g9" style="--gs:9" x="512" y="591">⑨</text><path class="g9 aligned" style="--gs:9" d="M512,591 Q792,844 817.13,849 Q967.88,879 993,884"/><path class="g9 offset" style="--gs:9" d="M597.68,522.46 Q827.8,751.75 848.45,756.28 Q972.35,783.47 993,788"/></g>
<g class="parts"><rect data-part="2" data-literal="皮" role="button" tabindex="0" aria-label="Part 皮" x="211" y="0" width="813" height="956"/><rect data-part="1" data-literal="王" data-radical="true" role="button" tabindex="0" aria-label="Part 王 (radical)" x="0" y="196" width="468" height="663"/></g>
</svg>
