<!--
  Stroke-order data for 琢, derived from AnimCJK (https://github.com/parsimonhi/animCJK),
  itself derived from the Arphic PL KaitiM fonts. Distributed under the Arphic Public License
  (see ARPHICPL.TXT). Regenerated by scripts/build-strokes.ts — do not edit by hand.
-->
<svg id="z29730" class="acjk" viewBox="0 0 1024 1024" xmlns="http://www.w3.org/2000/svg">
<g class="glyph"><path style="--part:1" id="z29730d1" d="M253 238Q371 199 373 199Q380 192 376 183Q369 173 339 168Q311 164 282 178Q251 191 218 201Q181 211 138 219Q104 228 130 242Q167 258 215 248C240 241 240 241 253 238Z"/><path style="--part:1" id="z29730d2" d="M273 594Q274 507 276 433C276 403 276 403 276 388Q277 349 278 314Q281 262 277 257Q265 245 253 238C242 231 210 236 215 248Q230 276 233 405C233 432 233 432 233 446Q233 510 233 610C233 624 273 608 273 594Z"/><path style="--part:1" id="z29730d3" d="M276 433Q348 409 349 408Q356 401 352 394Q345 384 319 381Q295 378 276 388C247 399 247 399 233 405Q191 420 136 431Q105 440 129 452Q168 467 223 449Q227 448 233 446C262 437 262 437 276 433Z"/><path style="--part:1" id="z29730d4" d="M233 610Q173 632 110 657Q94 664 69 665Q56 668 55 678Q54 691 65 699Q89 712 123 727Q133 728 145 719Q173 689 302 614Q321 602 334 589Q346 580 345 571Q339 567 327 570Q299 580 273 594C246 605 246 605 233 610Z"/><path style="--part:2" id="z29730d5" d="M556 196Q757 147 768 139Q775 132 771 123Q764 113 736 106Q706 102 677 113Q628 132 574 147Q514 163 444 172Q410 179 435 194Q468 213 520 205C544 199 544 199 556 196Z"/><path style="--part:2" id="z29730d6" d="M479 346Q509 318 543 279Q561 257 575 245Q582 239 581 228Q580 219 556 196C546 188 518 193 520 205Q529 251 380 402Q371 409 369 413Q365 420 376 420Q394 420 458 364C472 352 472 352 479 346Z"/><path style="--part:2" id="z29730d7" d="M639 473Q638 469 636 466C629 456 629 456 626 451Q569 376 479 346C470 343 451 358 458 364Q459 365 465 369Q493 382 518 400C547 424 547 424 561 436Q579 455 594 478C609 519 609 519 617 539Q633 612 608 721Q595 770 580 777Q570 783 514 771Q474 762 472 768Q471 775 483 788Q541 837 564 870Q577 889 594 886Q616 877 637 843Q686 743 675 598Q668 555 667 552C648 499 648 499 639 473Z"/><path style="--part:2" id="z29730d8" d="M518 400Q508 436 458 491Q457 491 457 492C436 511 436 511 425 521Q400 540 364 571Q348 581 368 579Q398 576 445 543C471 522 471 522 484 512Q511 490 533 466Q549 447 561 436C576 424 522 382 518 400Z"/><path style="--part:2" id="z29730d9" d="M594 478Q519 622 312 769Q299 781 308 783Q332 795 415 741Q503 690 614 543Q615 540 617 539C631 522 604 459 594 478Z"/><path style="--part:2" id="z29730d10" d="M636 466Q741 375 792 339Q808 333 804 323Q797 307 778 290Q759 274 736 273Q721 274 723 293Q727 306 719 323Q688 372 626 451C622 456 631 470 636 466Z"/><path style="--part:2" id="z29730d11" d="M667 552Q725 631 796 714Q814 733 842 733Q942 732 973 726Q983 725 984 719Q984 715 971 707Q823 652 766 595Q706 543 639 473C622 451 650 530 667 552Z"/></g>
<defs><clipPath id="z29730c1"><use href="#z29730d1"/></clipPath>
	<clipPath id="z29730c2"><use href="#z29730d2"/></clipPath>
	<clipPath id="z29730c3"><use href="#z29730d3"/></clipPath>
	<clipPath id="z29730c4"><use href="#z29730d4"/></clipPath>
	<clipPath id="z29730c5"><use href="#z29730d5"/></clipPath>
	<clipPath id="z29730c6"><use href="#z29730d6"/></clipPath>
	<clipPath id="z29730c7"><use href="#z29730d7"/></clipPath>
	<clipPath id="z29730c8"><use href="#z29730d8"/></clipPath>
	<clipPath id="z29730c9"><use href="#z29730d9"/></clipPath>
	<clipPath id="z29730c10"><use href="#z29730d10"/></clipPath>
	<clipPath id="z29730c11"><use href="#z29730d11"/></clipPath><marker id="guide-arrow" viewBox="0 0 16 16" refX="5" refY="5" markerWidth="4" markerHeight="4" orient="auto-start-reverse"><path d="M 0 0 L 10 5 L 0 10 z" fill="inherit"/></marker></defs>
<g class="strokes"><path style="--part:1" pathLength="3333" clip-path="url(#z29730c1)" d="M125 229L371 189"/><path style="--part:1" pathLength="3333" clip-path="url(#z29730c2)" d="M224 253L252 277L239 601"/><path style="--part:1" pathLength="3333" clip-path="url(#z29730c3)" d="M125 441L349 396"/><path style="--part:1" pathLength="3333" clip-path="url(#z29730c4)" d="M59 676L127 689L340 577"/><path style="--part:2" pathLength="3333" clip-path="url(#z29730c5)" d="M436 184L764 128"/><path style="--part:2" pathLength="3333" clip-path="url(#z29730c6)" d="M525 209L542 245L377 414"/><path style="--part:2" pathLength="3333" clip-path="url(#z29730c7)" d="M468 363L542 396L606 459L650 624L634 751L595 825L478 775"/><path style="--part:2" pathLength="3333" clip-path="url(#z29730c8)" d="M518 410L529 438L484 489L365 574"/><path style="--part:2" pathLength="3333" clip-path="url(#z29730c9)" d="M595 486L590 534L518 623L311 779"/><path style="--part:2" pathLength="3333" clip-path="url(#z29730c10)" d="M732 278L760 329L636 458"/><path style="--part:2" pathLength="3333" clip-path="url(#z29730c11)" d="M644 484L829 689L975 718"/></g>
<g class="guides"><text class="g1" style="--gs:1" x="125" y="229">①</text><path class="g1 aligned" style="--gs:1" d="M125,229 L371,189"/><path class="g1 offset" style="--gs:1" d="M125,325 L371,285"/><text class="g2" style="--gs:2" x="224" y="253">②</text><path class="g2 aligned" style="--gs:2" d="M238,265 L239,601"/><path class="g2 offset" style="--gs:2" d="M358,265 L359,601"/><text class="g3" style="--gs:3" x="125" y="441">③</text><path class="g3 aligned" style="--gs:3" d="M125,441 L349,396"/><path class="g3 offset" style="--gs:3" d="M125,537 L349,492"/><text class="g4" style="--gs:4" x="59" y="676">④</text><path class="g4 aligned" style="--gs:4" d="M59,676 Q127,689 153.63,675 Q313.38,591 340,577"/><path class="g4 offset" style="--gs:4" d="M59,772 Q127,785 153.63,771 Q313.38,687 340,673"/><text class="g5" style="--gs:5" x="436" y="184">⑤</text><path class="g5 aligned" style="--gs:5" d="M436,184 L764,128"/><path class="g5 offset" style="--gs:5" d="M436,280 L764,224"/><text class="g6" style="--gs:6" x="525" y="209">⑥</text><path class="g6 aligned" style="--gs:6" d="M534,227 L377,414"/><path class="g6 offset" style="--gs:6" d="M619.68,295.54 L462.68,482.54"/><text class="g7" style="--gs:7" x="468" y="363">⑦</text><path class="g7 aligned" style="--gs:7" d="M468,363 Q542,396 574,427.5 Q606,459 628,541.5 Q650,624 642,687.5 Q634,751 614.5,788 Q595,825 536.5,800 Q536.5,800 478,775"/><path class="g7 offset" style="--gs:7" d="M468,459 Q505,492 521,523.5 Q537,555 548,637.5 Q559,720 555,783.5 Q551,847 541.25,884 Q531.5,921 502.25,896 Q502.25,896 473,871"/><text class="g8" style="--gs:8" x="518" y="410">⑧</text><path class="g8 aligned" style="--gs:8" d="M524,424 Q484,489 469.13,499.63 Q379.88,563.38 365,574"/><path class="g8 offset" style="--gs:8" d="M609.68,492.54 Q569.68,557.54 554.8,568.17 Q465.56,631.92 450.68,642.54"/><text class="g9" style="--gs:9" x="595" y="486">⑨</text><path class="g9 aligned" style="--gs:9" d="M595,486 Q590,534 572,556.25 Q518,623 466.25,662 Q362.75,740 311,779"/><path class="g9 offset" style="--gs:9" d="M499,486 Q496.11,518.27 485.72,533.23 Q454.54,578.11 424.65,604.33 Q364.88,656.78 335,683"/><text class="g10" style="--gs:10" x="732" y="278">⑩</text><path class="g10 aligned" style="--gs:10" d="M732,278 Q760,329 744.5,345.13 Q651.5,441.88 636,458"/><path class="g10 offset" style="--gs:10" d="M636,278 Q650,303.5 642.25,311.56 Q595.75,359.94 588,368"/><text class="g11" style="--gs:11" x="644" y="484">⑪</text><path class="g11 aligned" style="--gs:11" d="M644,484 Q829,689 847.25,692.63 Q956.75,714.38 975,718"/><path class="g11 offset" style="--gs:11" d="M729.68,415.46 Q866.79,596.4 880.32,599.6 Q961.47,618.8 975,622"/></g>
<g class="parts"><rect data-part="2" data-literal="豕" role="button" tabindex="0" aria-label="Part 豕" x="239" y="56" width="785" height="841"/><rect data-part="1" data-literal="王" data-radical="true" role="button" tabindex="0" aria-label="Part 王 (radical)" x="0" y="117" width="443" height="644"/></g>
</svg>
