<!--
  Stroke-order data for 甑, derived from AnimCJK (https://github.com/parsimonhi/animCJK),
  itself derived from the Arphic PL KaitiM fonts. Distributed under the Arphic Public License
  (see ARPHICPL.TXT). Regenerated by scripts/build-strokes.ts — do not edit by hand.
-->
<svg id="z29969" class="acjk" viewBox="0 0 1024 1024" xmlns="http://www.w3.org/2000/svg">
<g class="glyph"><path style="--part:1" id="z29969d1" d="M190 105C181 107 180 119 180 128C178 154 163 199 101 259C62 295 74 300 113 277C170 242 211 197 244 167C249 162 255 155 253 148C249 135 234 123 223 115C212 106 197 103 190 105Z"/><path style="--part:1" id="z29969d2" d="M309 95C281 95 304 109 314 117C355 151 375 179 395 210C411 234 430 241 458 238C472 236 491 235 505 228C523 217 502 209 493 205C451 184 427 169 399 146C374 125 354 106 325 98C318 96 315 94 309 95Z"/><path style="--part:1" id="z29969d3" d="M149 321C140 318 128 316 113 312C92 306 96 323 101 334C120 374 135 428 145 495C147 514 153 531 165 545C183 566 185 561 190 532C191 523 190 514 189 506C181 452 172 400 165 348C163 338 159 323 149 321Z"/><path style="--part:1" id="z29969d4" d="M414 497C431 531 443 544 469 518C480 506 491 458 512 381C517 362 527 345 543 331C550 323 551 316 545 307C536 296 519 282 493 267C463 248 463 265 366 282C351 285 351 285 343 286C275 297 213 308 149 321C139 323 155 352 165 348C195 339 233 329 278 322C299 319 299 319 309 317C364 308 403 302 428 303C452 304 469 310 465 334C450 410 436 455 428 470C424 479 409 488 414 497Z"/><path style="--part:1" id="z29969d5" d="M327 479C328 332 362 348 309 317C300 312 276 312 278 322C282 340 286 395 290 487C290 500 327 492 327 479Z"/><path style="--part:1" id="z29969d6" d="M195 395C213 429 228 448 241 452C247 453 253 450 258 441C260 434 260 425 257 415C250 396 230 384 202 375C197 373 194 375 193 381C191 385 192 389 195 395Z"/><path style="--part:1" id="z29969d7" d="M386 368C377 384 363 405 343 431C340 433 339 437 343 440C345 441 349 440 353 438C390 410 416 389 435 380C442 376 445 373 444 369C441 362 435 355 426 347C417 339 408 334 398 334C391 334 388 339 389 348C389 354 389 360 386 368Z"/><path style="--part:1" id="z29969d8" d="M190 532C204 528 279 516 414 497C424 495 437 474 428 470C396 457 397 463 327 479C302 484 302 484 290 487C254 494 220 499 189 506C180 507 181 534 190 532Z"/><path style="--part:1" id="z29969d9" d="M233 611C217 601 199 598 192 600C184 601 182 607 186 614C209 658 207 734 193 801C187 824 182 844 199 873C214 900 225 885 238 854C242 843 243 832 244 821C246 793 246 765 246 743C246 723 246 723 246 713C246 688 246 663 248 637C248 627 241 617 233 611Z"/><path style="--part:1" id="z29969d10" d="M383 846C392 881 416 932 441 889C450 871 453 833 450 770C445 685 446 636 458 622C462 615 463 608 458 603C448 592 428 580 399 567C390 563 373 567 345 579C313 591 275 601 233 611C223 613 238 639 248 637C256 636 295 627 367 610C393 603 396 621 398 640C402 668 402 719 395 790C394 802 391 817 386 827C384 833 382 840 383 846Z"/><path style="--part:1" id="z29969d11" d="M246 743C282 736 315 733 344 728C379 720 368 696 333 693C310 690 273 699 246 713C237 717 236 745 246 743Z"/><path style="--part:1" id="z29969d12" d="M238 854C276 852 342 849 383 846C389 846 391 832 386 827C348 784 362 807 244 821C233 823 227 854 238 854Z"/><path style="--part:2" id="z29969d13" d="M614 269C646 260 702 240 855 213C883 207 859 180 822 177C775 172 686 212 542 230C517 233 513 242 531 254C540 260 554 266 573 269C588 270 600 272 614 269Z"/><path style="--part:2" id="z29969d14" d="M617 554C619 536 626 486 630 455C632 437 632 437 633 428C647 295 668 303 614 269C602 262 566 257 573 269C615 325 554 704 524 772C516 791 579 774 582 754C588 723 601 650 613 579C616 562 616 562 617 554Z"/><path style="--part:2" id="z29969d15" d="M524 772C471 788 473 817 504 863C512 875 526 872 535 863C557 838 586 808 675 746C709 722 715 705 669 723C645 731 607 746 582 754C543 766 543 766 524 772Z"/><path style="--part:2" id="z29969d16" d="M630 455C650 459 682 449 729 433C750 425 742 454 742 466C740 530 734 594 733 660C730 779 771 860 856 894C883 905 913 907 944 904C971 901 968 893 961 856C954 820 957 773 956 714C954 669 942 685 938 704C916 783 900 826 889 831C868 839 840 815 831 805C792 766 776 708 779 628C781 535 800 470 841 436C848 429 849 423 843 417C833 405 817 395 795 385C773 375 758 374 749 381C718 399 679 415 633 428C624 430 621 453 630 455Z"/><path style="--part:2" id="z29969d17" d="M613 579C657 623 683 647 693 646C712 642 710 611 704 601C685 569 660 566 617 554C609 551 607 573 613 579Z"/></g>
<defs><clipPath id="z29969c1"><use href="#z29969d1"/></clipPath>
	<clipPath id="z29969c2"><use href="#z29969d2"/></clipPath>
	<clipPath id="z29969c3"><use href="#z29969d3"/></clipPath>
	<clipPath id="z29969c4"><use href="#z29969d4"/></clipPath>
	<clipPath id="z29969c5"><use href="#z29969d5"/></clipPath>
	<clipPath id="z29969c6"><use href="#z29969d6"/></clipPath>
	<clipPath id="z29969c7"><use href="#z29969d7"/></clipPath>
	<clipPath id="z29969c8"><use href="#z29969d8"/></clipPath>
	<clipPath id="z29969c9"><use href="#z29969d9"/></clipPath>
	<clipPath id="z29969c10"><use href="#z29969d10"/></clipPath>
	<clipPath id="z29969c11"><use href="#z29969d11"/></clipPath>
	<clipPath id="z29969c12"><use href="#z29969d12"/></clipPath>
	<clipPath id="z29969c13"><use href="#z29969d13"/></clipPath>
	<clipPath id="z29969c14"><use href="#z29969d14"/></clipPath>
	<clipPath id="z29969c15"><use href="#z29969d15"/></clipPath>
	<clipPath id="z29969c16"><use href="#z29969d16"/></clipPath>
	<clipPath id="z29969c17"><use href="#z29969d17"/></clipPath><marker id="guide-arrow" viewBox="0 0 16 16" refX="5" refY="5" markerWidth="4" markerHeight="4" orient="auto-start-reverse"><path d="M 0 0 L 10 5 L 0 10 z" fill="inherit"/></marker></defs>
<g class="strokes"><path style="--part:1" pathLength="3333" clip-path="url(#z29969c1)" d="M191 110L213 155L86 283"/><path style="--part:1" pathLength="3333" clip-path="url(#z29969c2)" d="M306 102L432 206L506 221"/><path style="--part:1" pathLength="3333" clip-path="url(#z29969c3)" d="M105 318L141 362L174 551"/><path style="--part:1" pathLength="3333" clip-path="url(#z29969c4)" d="M153 329L470 285L507 322L456 478L424 514"/><path style="--part:1" pathLength="3333" clip-path="url(#z29969c5)" d="M288 323L311 360L307 490"/><path style="--part:1" pathLength="3333" clip-path="url(#z29969c6)" d="M199 385L252 443"/><path style="--part:1" pathLength="3333" clip-path="url(#z29969c7)" d="M398 341L411 375L348 433"/><path style="--part:1" pathLength="3333" clip-path="url(#z29969c8)" d="M188 523L424 477"/><path style="--part:1" pathLength="3333" clip-path="url(#z29969c9)" d="M191 606L223 645L213 880"/><path style="--part:1" pathLength="3333" clip-path="url(#z29969c10)" d="M235 616L379 587L426 614L416 901"/><path style="--part:1" pathLength="3333" clip-path="url(#z29969c11)" d="M242 733L359 709"/><path style="--part:1" pathLength="3333" clip-path="url(#z29969c12)" d="M238 845L383 836"/><path style="--part:2" pathLength="3333" clip-path="url(#z29969c13)" d="M528 241L861 198"/><path style="--part:2" pathLength="3333" clip-path="url(#z29969c14)" d="M580 271L616 307L610 415L570 692L535 776"/><path style="--part:2" pathLength="3333" clip-path="url(#z29969c15)" d="M486 803L527 820L694 721"/><path style="--part:2" pathLength="3333" clip-path="url(#z29969c16)" d="M630 445L751 405L793 431L767 505L756 684L775 772L821 838L876 866L932 856L948 696"/><path style="--part:2" pathLength="3333" clip-path="url(#z29969c17)" d="M616 565L701 638"/></g>
<g class="guides"><text class="g1" style="--gs:1" x="191" y="110">①</text><path class="g1 aligned" style="--gs:1" d="M191,110 Q213,155 197.13,171 Q101.88,267 86,283"/><path class="g1 offset" style="--gs:1" d="M95,110 Q106,132.5 98.06,140.5 Q50.44,188.5 42.5,196.5"/><text class="g2" style="--gs:2" x="306" y="102">②</text><path class="g2 aligned" style="--gs:2" d="M306,102 Q432,206 441.25,207.88 Q496.75,219.13 506,221"/><path class="g2 offset" style="--gs:2" d="M391.68,33.46 Q463.7,113.46 468.99,114.9 Q500.71,123.56 506,125"/><text class="g3" style="--gs:3" x="105" y="318">③</text><path class="g3 aligned" style="--gs:3" d="M105,318 Q141,362 145.13,385.63 Q169.88,527.38 174,551"/><path class="g3 offset" style="--gs:3" d="M190.68,249.46 Q226.68,293.46 230.81,317.08 Q255.56,458.83 259.68,482.46"/><text class="g4" style="--gs:4" x="153" y="329">④</text><path class="g4 aligned" style="--gs:4" d="M153,329 Q470,285 488.5,303.5 Q507,322 481.5,400 Q456,478 440,496 Q440,496 424,514"/><path class="g4 offset" style="--gs:4" d="M153,425 Q384.03,381 397.52,399.5 Q411,418 392.42,496 Q373.83,574 362.17,592 Q362.17,592 350.51,610"/><text class="g5" style="--gs:5" x="288" y="323">⑤</text><path class="g5 aligned" style="--gs:5" d="M288,323 Q311,360 310.5,376.25 Q307.5,473.75 307,490"/><path class="g5 offset" style="--gs:5" d="M192,323 Q215,360 214.5,376.25 Q211.5,473.75 211,490"/><text class="g6" style="--gs:6" x="199" y="385">⑥</text><path class="g6 aligned" style="--gs:6" d="M199,385 L252,443"/><path class="g6 offset" style="--gs:6" d="M284.68,316.46 L337.68,374.46"/><text class="g7" style="--gs:7" x="398" y="341">⑦</text><path class="g7 aligned" style="--gs:7" d="M405,358 L348,433"/><path class="g7 offset" style="--gs:7" d="M490.68,426.54 L433.68,501.54"/><text class="g8" style="--gs:8" x="188" y="523">⑧</text><path class="g8 aligned" style="--gs:8" d="M188,523 L424,477"/><path class="g8 offset" style="--gs:8" d="M188,619 L424,573"/><text class="g9" style="--gs:9" x="191" y="606">⑨</text><path class="g9 aligned" style="--gs:9" d="M191,606 Q223,645 221.75,674.38 Q214.25,850.63 213,880"/><path class="g9 offset" style="--gs:9" d="M95,606 Q127,645 125.75,674.38 Q118.25,850.63 117,880"/><text class="g10" style="--gs:10" x="235" y="616">⑩</text><path class="g10 aligned" style="--gs:10" d="M235,616 Q379,587 390.75,593.75 Q426,614 423.5,685.75 Q418.5,829.25 416,901"/><path class="g10 offset" style="--gs:10" d="M235,712 Q307,683 312.88,689.75 Q330.5,710 329.25,757.75 Q326.75,853.25 325.5,901"/><text class="g11" style="--gs:11" x="242" y="733">⑪</text><path class="g11 aligned" style="--gs:11" d="M242,733 L359,709"/><path class="g11 offset" style="--gs:11" d="M242,829 L359,805"/><text class="g12" style="--gs:12" x="238" y="845">⑫</text><path class="g12 aligned" style="--gs:12" d="M238,845 L383,836"/><path class="g12 offset" style="--gs:12" d="M238,941 L383,932"/><text class="g13" style="--gs:13" x="528" y="241">⑬</text><path class="g13 aligned" style="--gs:13" d="M528,241 L861,198"/><path class="g13 offset" style="--gs:13" d="M528,337 L861,294"/><text class="g14" style="--gs:14" x="580" y="271">⑭</text><path class="g14 aligned" style="--gs:14" d="M580,271 Q616,307 613,361 Q610,415 590,553.5 Q570,692 552.5,734 Q552.5,734 535,776"/><path class="g14 offset" style="--gs:14" d="M484,271 Q520,307 517,361 Q514,415 494,553.5 Q474,692 456.5,734 Q456.5,734 439,776"/><text class="g15" style="--gs:15" x="486" y="803">⑮</text><path class="g15 aligned" style="--gs:15" d="M486,803 Q527,820 547.88,807.63 Q673.13,733.38 694,721"/><path class="g15 offset" style="--gs:15" d="M486,707 Q527,724 547.88,711.63 Q673.13,637.38 694,625"/><text class="g16" style="--gs:16" x="630" y="445">⑯</text><path class="g16 aligned" style="--gs:16" d="M630,445 Q751,405 772,418 Q793,431 780,468 Q767,505 761.5,594.5 Q756,684 765.5,728 Q775,772 798,805 Q821,838 848.5,852 Q876,866 904,861 Q932,856 940,776 Q940,776 948,696"/><path class="g16 offset" style="--gs:16" d="M630,541 Q705.34,517.66 718.42,525.25 Q731.49,532.83 723.4,554.42 Q715.3,576.01 711.88,628.24 Q708.45,680.46 714.37,706.13 Q720.28,731.81 734.6,751.07 Q748.92,770.32 766.05,778.49 Q783.17,786.66 800.6,783.74 Q818.04,780.82 823.02,734.14 Q823.02,734.14 828,687.46"/><text class="g17" style="--gs:17" x="616" y="565">⑰</text><path class="g17 aligned" style="--gs:17" d="M616,565 L701,638"/><path class="g17 offset" style="--gs:17" d="M701.68,496.46 L786.68,569.46"/></g>
<g class="parts"><rect data-part="1" data-literal="曾" role="button" tabindex="0" aria-label="Part 曾" x="14" y="30" width="565" height="943"/><rect data-part="2" data-literal="瓦" data-radical="true" role="button" tabindex="0" aria-label="Part 瓦 (radical)" x="414" y="126" width="606" height="812"/></g>
</svg>
