<svg id="z29980" class="acjk" viewBox="0 0 1024 1024" xmlns="http://www.w3.org/2000/svg">
<style>

@keyframes zk {
	to {
		stroke-dashoffset:0;
	}
}
svg.acjk path[clip-path] {
	--t:0.8s;
	animation:zk var(--t) linear forwards var(--d);
	stroke-dasharray:3337;
	stroke-dashoffset:3339;
	stroke-width:128;
	stroke-linecap:round;
	fill:none;
	stroke:#000;
}
svg.acjk path[id] {fill:#ccc;}


    @keyframes guide-fade {
        0% { opacity: 0; }
        3% { opacity: 1; }
        95% { opacity: 1; }
        100% { opacity: 0; }
    }

    svg.acjk #guide-arrow {
        fill: #f77;
    }

    svg.acjk .guides {
        circle {
            fill: #0f6;
        }

        path {
            opacity: 0;
            animation: guide-fade var(--t) linear forwards var(--d);
            stroke-width: 16px;
            stroke-linecap: round;
            stroke: #f77;
            fill: none;
            marker-end: url(#guide-arrow);
        }

        circle,
        path {
            --t: 0.8s;
            opacity: 0;
            animation: guide-fade calc(var(--t) + 0.4s) ease-in-out forwards calc(var(--d) - 0.2s);
        }
    }
</style>
<path id="z29980d1" d="M307 244C347 218 400 179 419 168C426 163 430 153 428 147C425 142 417 136 405 131C378 119 357 116 342 118C335 118 332 122 333 131C333 168 265 228 134 312C128 315 131 322 141 321C172 315 239 286 272 266C295 251 295 251 307 244Z"/>
<path id="z29980d2" d="M329 431C357 423 391 415 430 409C440 407 445 403 446 399C446 390 441 382 429 378C405 368 374 376 334 387C301 396 301 396 285 400C195 423 128 434 87 441C78 442 73 445 72 451C70 457 74 464 85 472C108 488 139 491 174 479C216 464 252 451 284 443C314 435 314 435 329 431Z"/>
<path id="z29980d3" d="M312 569C316 520 323 475 329 431C332 402 332 402 334 387C336 361 341 326 355 285C357 278 353 270 342 262C329 253 317 248 307 244C294 239 267 253 272 266C280 282 285 296 286 309C286 337 285 368 285 400C284 429 284 429 284 443C283 485 278 529 274 579C274 592 312 582 312 569Z"/>
<path id="z29980d4" d="M215 591C207 587 192 583 172 579C163 577 159 578 157 581C152 586 153 592 159 603C178 642 193 695 204 760C206 778 212 794 224 808C251 840 251 805 250 776C249 764 248 753 246 742C238 701 229 636 227 618C225 608 224 595 215 591Z"/>
<path id="z29980d5" d="M408 719C420 666 434 632 449 616C464 599 463 586 449 577C436 568 421 558 403 548C390 540 378 541 366 548C350 556 332 563 312 569C287 576 287 576 274 579C255 583 235 587 215 591C205 593 217 620 227 618C243 614 269 608 333 596C375 587 376 614 372 642C368 664 363 688 359 714C356 730 405 735 408 719Z"/>
<path id="z29980d6" d="M250 776C264 778 320 764 421 751C427 750 431 746 432 740C432 735 424 728 408 719C394 711 375 711 359 714C343 716 280 734 246 742C235 744 239 776 250 776Z"/>
<path id="z29980d7" d="M799 400C831 396 877 394 912 393C947 391 968 389 972 383C975 376 971 368 961 361C928 336 891 331 850 344C834 348 817 352 799 356C764 363 764 363 747 367C700 376 645 385 582 396C553 401 553 401 538 403C511 407 484 412 458 416C445 417 443 422 454 433C462 441 472 446 483 449C483 449 502 451 538 443C567 436 567 436 581 432C602 426 716 407 747 405C782 402 782 402 799 400Z"/>
<path id="z29980d8" d="M582 396C583 351 584 313 594 283C597 273 602 265 599 259C596 253 576 243 546 223C532 214 520 212 509 222C506 224 505 231 510 239C524 262 534 284 535 308C535 337 538 369 538 403C538 430 538 430 538 443C538 591 534 683 526 719C518 747 521 780 536 818C539 828 545 832 549 835C552 837 554 838 560 834C568 827 575 819 580 794C582 782 581 770 581 758C580 712 581 648 581 593C581 573 581 573 581 563C581 519 579 475 581 432C582 408 582 408 582 396Z"/>
<path id="z29980d9" d="M718 783C730 816 738 835 748 853C771 896 785 877 797 853C811 823 814 749 811 708C802 597 799 511 799 400C799 371 799 371 799 356C799 281 801 222 815 183C822 161 811 147 776 131C752 120 735 114 723 120C711 124 710 134 722 149C736 167 744 187 745 210C745 220 747 272 747 367C747 392 747 392 747 405C747 485 746 572 746 708C745 723 741 748 733 759C728 767 714 774 718 783Z"/>
<path id="z29980d10" d="M581 593C627 584 668 579 703 575C717 573 722 566 717 559C710 550 699 543 683 541C661 537 627 545 581 563C572 567 571 595 581 593Z"/>
<path id="z29980d11" d="M580 794C595 794 625 788 718 783C727 783 740 765 733 759C696 725 658 745 581 758C569 760 568 794 580 794Z"/>
<defs>
	<clipPath id="z29980c1"><use href="#z29980d1"/></clipPath>
	<clipPath id="z29980c2"><use href="#z29980d2"/></clipPath>
	<clipPath id="z29980c3"><use href="#z29980d3"/></clipPath>
	<clipPath id="z29980c4"><use href="#z29980d4"/></clipPath>
	<clipPath id="z29980c5"><use href="#z29980d5"/></clipPath>
	<clipPath id="z29980c6"><use href="#z29980d6"/></clipPath>
	<clipPath id="z29980c7"><use href="#z29980d7"/></clipPath>
	<clipPath id="z29980c8"><use href="#z29980d8"/></clipPath>
	<clipPath id="z29980c9"><use href="#z29980d9"/></clipPath>
	<clipPath id="z29980c10"><use href="#z29980d10"/></clipPath>
	<clipPath id="z29980c11"><use href="#z29980d11"/></clipPath>
<marker id="guide-arrow" viewBox="0 0 16 16" refX="5" refY="5" markerWidth="4" markerHeight="4" orient="auto-start-reverse"><path d="M 0 0 L 10 5 L 0 10 z" fill="inherit"/></marker></defs>
<path style="--d:1s;" pathLength="3333" clip-path="url(#z29980c1)" d="M341 124L371 164L141 315"/>
<path style="--d:2s;" pathLength="3333" clip-path="url(#z29980c2)" d="M80 453L133 460L440 393"/>
<path style="--d:3s;" pathLength="3333" clip-path="url(#z29980c3)" d="M277 256L320 292L290 582"/>
<path style="--d:4s;" pathLength="3333" clip-path="url(#z29980c4)" d="M161 585L198 621L236 815"/>
<path style="--d:5s;" pathLength="3333" clip-path="url(#z29980c5)" d="M216 598L363 572L402 587L415 611L378 726"/>
<path style="--d:6s;" pathLength="3333" clip-path="url(#z29980c6)" d="M243 761L425 739"/>
<path style="--d:7s;" pathLength="3333" clip-path="url(#z29980c7)" d="M457 424L877 366L967 376"/>
<path style="--d:8s;" pathLength="3333" clip-path="url(#z29980c8)" d="M512 224L566 275L556 832"/>
<path style="--d:9s;" pathLength="3333" clip-path="url(#z29980c9)" d="M721 130L779 181L766 873"/>
<path style="--d:10s;" pathLength="3333" clip-path="url(#z29980c10)" d="M576 583L714 560"/>
<path style="--d:11s;" pathLength="3333" clip-path="url(#z29980c11)" d="M575 781L727 770"/>
<g class="guides"><circle style="--d: 1s" class="g1" cx="341" cy="124" r="16"/><path style="--d: 1s;" class="g1" d="M245,124 Q262.4782608695652,144 245.7282608695652,153.4375 Q145.22826086956522,210.0625 128.47826086956522,219.5"/><circle style="--d: 2s" class="g2" cx="80" cy="453" r="16"/><path style="--d: 2s;" class="g2" d="M80,549 Q133,556 171.375,547.625 Q401.625,497.375 440,489"/><circle style="--d: 3s" class="g3" cx="277" cy="256" r="16"/><path style="--d: 3s;" class="g3" d="M181,256 Q224,292 220.25,328.25 Q197.75,545.75 194,582"/><circle style="--d: 4s" class="g4" cx="161" cy="585" r="16"/><path style="--d: 4s;" class="g4" d="M246.68,516.456 Q283.68,552.456 288.43,576.706 Q316.93,722.206 321.68,746.456"/><circle style="--d: 5s" class="g5" cx="216" cy="598" r="16"/><path style="--d: 5s;" class="g5" d="M216,694 Q289.5,668 299.25,675.5 Q309,683 312.25,685.25 Q315.5,687.5 306.25,716.25 Q306.25,716.25 297,745"/><circle style="--d: 6s" class="g6" cx="243" cy="761" r="16"/><path style="--d: 6s;" class="g6" d="M243,857 L425,835"/><circle style="--d: 7s" class="g7" cx="457" cy="424" r="16"/><path style="--d: 7s;" class="g7" d="M457,520 Q877,462 888.25,463.25 Q955.75,470.75 967,472"/><circle style="--d: 8s" class="g8" cx="512" cy="224" r="16"/><path style="--d: 8s;" class="g8" d="M416,224 Q470,275 468.75,344.625 Q461.25,762.375 460,832"/><circle style="--d: 9s" class="g9" cx="721" cy="130" r="16"/><path style="--d: 9s;" class="g9" d="M625,130 Q683,181 681.375,267.5 Q671.625,786.5 670,873"/><circle style="--d: 10s" class="g10" cx="576" cy="583" r="16"/><path style="--d: 10s;" class="g10" d="M576,679 L714,656"/><circle style="--d: 11s" class="g11" cx="575" cy="781" r="16"/><path style="--d: 11s;" class="g11" d="M575,877 L727,866"/></g></svg>