<!--
  Stroke-order data for 甥, derived from AnimCJK (https://github.com/parsimonhi/animCJK),
  itself derived from the Arphic PL KaitiM fonts. Distributed under the Arphic Public License
  (see ARPHICPL.TXT). Regenerated by scripts/build-strokes.ts — do not edit by hand.
-->
<svg id="z29989" class="acjk" viewBox="0 0 1024 1024" xmlns="http://www.w3.org/2000/svg">
<g class="glyph"><path style="--part:1" id="z29989d1" d="M209 389Q257 290 257 288Q256 284 255 282Q249 272 224 257Q200 247 185 248Q170 252 179 269Q207 317 98 518Q91 528 90 533Q89 543 99 539Q126 524 197 411C205 396 205 396 209 389Z"/><path style="--part:1" id="z29989d2" d="M365 393Q392 384 424 376Q455 366 461 362Q468 355 464 347Q457 337 429 332Q402 328 367 345C338 356 338 356 323 362Q311 363 300 368Q258 380 209 389C201 391 189 408 197 411C198 411 198 411 198 411Q240 432 289 413Q304 409 322 405C351 397 351 397 365 393Z"/><path style="--part:1" id="z29989d3" d="M354 661Q355 597 359 535C360 502 360 502 361 486Q362 438 365 393C366 361 366 361 367 345Q370 225 392 132Q396 120 375 105Q338 86 313 81Q297 77 288 86Q281 95 289 110Q320 159 321 192Q322 274 323 362C322 391 322 391 322 405Q321 451 319 502C318 532 318 532 317 547Q314 608 310 676C310 691 354 676 354 661Z"/><path style="--part:1" id="z29989d4" d="M359 535Q384 526 414 519Q441 510 445 506Q452 499 448 490Q441 480 413 476Q385 473 361 486C333 497 333 497 319 502Q276 517 213 529Q180 538 206 551Q246 570 295 553Q305 549 317 547C345 539 345 539 359 535Z"/><path style="--part:1" id="z29989d5" d="M310 676Q246 695 180 717Q162 723 132 723Q119 724 117 736Q116 749 126 758Q150 774 185 792Q195 795 208 785Q242 757 280 737Q340 709 398 678Q420 668 437 653Q450 646 450 636Q444 630 431 633Q394 646 354 661C325 671 325 671 310 676Z"/><path style="--part:2" id="z29989d6" d="M511 192C472 170 450 176 466 196C490 234 506 297 514 388C516 424 527 453 552 468C566 476 566 467 570 449C571 440 572 438 570 424C568 411 562 397 560 382C546 309 541 257 541 225C541 223 540 221 540 221C537 208 523 198 511 192Z"/><path style="--part:2" id="z29989d7" d="M742 418C754 436 765 449 777 455C783 459 792 455 802 442C812 422 827 358 851 253C855 232 866 214 882 198C890 189 891 180 884 172C873 160 854 147 826 131C814 124 781 130 727 144C701 150 577 177 511 192C498 195 527 226 540 221C564 212 596 205 634 197C658 192 658 192 670 189C739 173 779 166 791 178C801 189 804 201 802 213C781 324 766 385 754 394C748 400 737 411 742 418Z"/><path style="--part:2" id="z29989d8" d="M680 395C680 365 682 337 685 312C687 287 687 287 688 274C693 210 699 212 670 189C660 181 630 185 634 197C640 209 643 239 643 289C643 310 643 310 643 321C643 349 643 405 643 405C643 418 680 408 680 395Z"/><path style="--part:2" id="z29989d9" d="M685 312C704 307 723 305 741 302C771 296 748 274 721 271C712 269 700 269 688 274C658 284 658 284 643 289C622 295 603 302 586 308C576 311 574 323 590 325C611 327 625 324 643 321C671 315 671 315 685 312Z"/><path style="--part:2" id="z29989d10" d="M570 449C591 445 646 432 742 418C751 417 762 399 754 394C732 378 702 388 680 395C655 402 655 402 643 405C616 412 592 417 570 424C562 427 562 451 570 449Z"/><path style="--part:2" id="z29989d11" d="M648 598C690 586 730 578 766 573C810 566 799 607 794 638C780 718 763 776 741 812C728 832 713 842 695 838C674 833 656 824 639 819C622 813 618 820 632 834C662 864 686 888 703 910C714 925 728 924 743 914C764 898 783 878 799 852C817 820 833 755 848 657C853 622 860 595 875 579C882 569 885 562 881 556C875 547 854 537 821 522C806 515 794 517 781 526C764 535 724 548 662 563C622 572 622 572 602 577C558 587 516 590 478 594C466 594 458 597 457 604C455 612 497 642 525 632C545 624 566 619 588 614C628 603 628 603 648 598Z"/><path style="--part:2" id="z29989d12" d="M588 614C558 693 485 775 378 864C321 911 384 884 391 880C531 804 595 728 648 598C657 575 657 575 662 563C667 548 676 534 685 521C689 514 691 507 688 502C683 494 671 486 653 476C607 450 611 482 612 484C614 513 613 545 602 577C593 602 593 602 588 614Z"/></g>
<defs><clipPath id="z29989c1"><use href="#z29989d1"/></clipPath>
	<clipPath id="z29989c2"><use href="#z29989d2"/></clipPath>
	<clipPath id="z29989c3"><use href="#z29989d3"/></clipPath>
	<clipPath id="z29989c4"><use href="#z29989d4"/></clipPath>
	<clipPath id="z29989c5"><use href="#z29989d5"/></clipPath>
	<clipPath id="z29989c6"><use href="#z29989d6"/></clipPath>
	<clipPath id="z29989c7"><use href="#z29989d7"/></clipPath>
	<clipPath id="z29989c8"><use href="#z29989d8"/></clipPath>
	<clipPath id="z29989c9"><use href="#z29989d9"/></clipPath>
	<clipPath id="z29989c10"><use href="#z29989d10"/></clipPath>
	<clipPath id="z29989c11"><use href="#z29989d11"/></clipPath>
	<clipPath id="z29989c12"><use href="#z29989d12"/></clipPath><marker id="guide-arrow" viewBox="0 0 16 16" refX="5" refY="5" markerWidth="4" markerHeight="4" orient="auto-start-reverse"><path d="M 0 0 L 10 5 L 0 10 z" fill="inherit"/></marker></defs>
<g class="strokes"><path style="--part:1" pathLength="3333" clip-path="url(#z29989c1)" d="M185 257L219 299L99 532"/><path style="--part:1" pathLength="3333" clip-path="url(#z29989c2)" d="M201 405L459 352"/><path style="--part:1" pathLength="3333" clip-path="url(#z29989c3)" d="M291 88L353 145L323 680"/><path style="--part:1" pathLength="3333" clip-path="url(#z29989c4)" d="M201 540L444 495"/><path style="--part:1" pathLength="3333" clip-path="url(#z29989c5)" d="M122 737L191 753L443 640"/><path style="--part:2" pathLength="3333" clip-path="url(#z29989c6)" d="M469 187L512 226L551 465"/><path style="--part:2" pathLength="3333" clip-path="url(#z29989c7)" d="M516 200L777 151L821 163L844 197L770 449"/><path style="--part:2" pathLength="3333" clip-path="url(#z29989c8)" d="M640 194L666 228L655 407"/><path style="--part:2" pathLength="3333" clip-path="url(#z29989c9)" d="M586 317L747 289"/><path style="--part:2" pathLength="3333" clip-path="url(#z29989c10)" d="M571 439L752 402"/><path style="--part:2" pathLength="3333" clip-path="url(#z29989c11)" d="M467 603L523 611L786 547L839 572L796 766L754 854L715 878L629 824"/><path style="--part:2" pathLength="3333" clip-path="url(#z29989c12)" d="M619 474L650 520L588 669L512 769L363 886"/></g>
<g class="guides"><text class="g1" style="--gs:1" x="185" y="257">①</text><path class="g1 aligned" style="--gs:1" d="M185,257 Q219,299 204,328.13 Q114,502.88 99,532"/><path class="g1 offset" style="--gs:1" d="M89,257 Q123,299 108,328.13 Q18,502.88 3,532"/><text class="g2" style="--gs:2" x="201" y="405">②</text><path class="g2 aligned" style="--gs:2" d="M201,405 L459,352"/><path class="g2 offset" style="--gs:2" d="M201,501 L459,448"/><text class="g3" style="--gs:3" x="291" y="88">③</text><path class="g3 aligned" style="--gs:3" d="M291,88 Q353,145 349.25,211.88 Q326.75,613.13 323,680"/><path class="g3 offset" style="--gs:3" d="M195,88 Q257,145 253.25,211.88 Q230.75,613.13 227,680"/><text class="g4" style="--gs:4" x="201" y="540">④</text><path class="g4 aligned" style="--gs:4" d="M201,540 L444,495"/><path class="g4 offset" style="--gs:4" d="M201,636 L444,591"/><text class="g5" style="--gs:5" x="122" y="737">⑤</text><path class="g5 aligned" style="--gs:5" d="M122,737 Q191,753 222.5,738.88 Q411.5,654.13 443,640"/><path class="g5 offset" style="--gs:5" d="M122,833 Q191,849 222.5,834.88 Q411.5,750.13 443,736"/><text class="g6" style="--gs:6" x="469" y="187">⑥</text><path class="g6 aligned" style="--gs:6" d="M469,187 Q512,226 516.88,255.88 Q546.13,435.13 551,465"/><path class="g6 offset" style="--gs:6" d="M554.68,118.46 Q597.68,157.46 602.55,187.33 Q631.8,366.58 636.68,396.46"/><text class="g7" style="--gs:7" x="516" y="200">⑦</text><path class="g7 aligned" style="--gs:7" d="M516,200 Q777,151 799,157 Q821,163 832.5,180 Q844,197 807,323 Q807,323 770,449"/><path class="g7 offset" style="--gs:7" d="M516,296 Q681.51,247 695.46,253 Q709.41,259 716.71,276 Q724,293 700.54,371 Q700.54,371 677.07,449"/><text class="g8" style="--gs:8" x="640" y="194">⑧</text><path class="g8 aligned" style="--gs:8" d="M640,194 Q666,228 664.63,250.38 Q656.38,384.63 655,407"/><path class="g8 offset" style="--gs:8" d="M544,194 Q570,228 568.63,250.38 Q560.38,384.63 559,407"/><text class="g9" style="--gs:9" x="586" y="317">⑨</text><path class="g9 aligned" style="--gs:9" d="M586,317 L747,289"/><path class="g9 offset" style="--gs:9" d="M586,413 L747,385"/><text class="g10" style="--gs:10" x="571" y="439">⑩</text><path class="g10 aligned" style="--gs:10" d="M571,439 L752,402"/><path class="g10 offset" style="--gs:10" d="M571,535 L752,498"/><text class="g11" style="--gs:11" x="467" y="603">⑪</text><path class="g11 aligned" style="--gs:11" d="M467,603 Q523,611 654.5,579 Q786,547 812.5,559.5 Q839,572 817.5,669 Q796,766 775,810 Q754,854 734.5,866 Q715,878 672,851 Q672,851 629,824"/><path class="g11 offset" style="--gs:11" d="M467,699 Q508.55,675 606.11,659 Q703.68,643 723.34,655.5 Q743,668 727.05,710.25 Q711.1,752.5 695.52,774.5 Q679.94,796.5 665.47,802.5 Q651,808.5 619.1,795 Q619.1,795 587.19,781.5"/><text class="g12" style="--gs:12" x="619" y="474">⑫</text><path class="g12 aligned" style="--gs:12" d="M619,474 Q650,520 619,594.5 Q588,669 550,719 Q512,769 437.5,827.5 Q437.5,827.5 363,886"/><path class="g12 offset" style="--gs:12" d="M523,474 Q543.63,509.28 523,566.42 Q502.37,623.56 477.08,661.91 Q451.79,700.26 402.21,745.13 Q402.21,745.13 352.63,790"/></g>
<g class="parts"><rect data-part="2" data-literal="男" role="button" tabindex="0" aria-label="Part 男" x="291" y="79" width="625" height="879"/><rect data-part="1" data-literal="生" data-radical="true" role="button" tabindex="0" aria-label="Part 生 (radical)" x="27" y="16" width="504" height="809"/></g>
</svg>
