<!--
  Stroke-order data for 甬, derived from AnimCJK (https://github.com/parsimonhi/animCJK),
  itself derived from the Arphic PL KaitiM fonts. Distributed under the Arphic Public License
  (see ARPHICPL.TXT). Regenerated by scripts/build-strokes.ts — do not edit by hand.
-->
<svg id="z29996" class="acjk" viewBox="0 0 1024 1024" xmlns="http://www.w3.org/2000/svg">
<g class="glyph"><path id="z29996d1" d="M546 285Q693 195 726 190Q748 186 742 167Q741 151 675 105Q656 92 632 99Q547 123 418 148Q384 157 305 147Q280 146 288 167Q295 180 314 194Q345 213 382 195Q611 138 626 147Q638 154 633 166Q584 215 529 272C524 277 540 289 546 285Z"/><path id="z29996d2" d="M529 272Q522 265 456 249Q441 246 436 249Q432 253 433 265Q437 275 462 293Q487 314 516 339Q529 349 543 349Q553 348 557 336Q563 314 546 285C542 279 535 276 529 272Z"/><path id="z29996d3" d="M325 400Q307 382 272 382Q259 386 264 399Q316 513 264 727Q257 751 246 770Q233 797 250 838Q253 848 262 858Q269 871 280 866Q317 841 324 710Q333 493 338 441C338 427 336 409 325 400Z"/><path id="z29996d4" d="M513 407Q586 392 672 382Q697 375 710 390Q720 394 724 440Q736 593 728 766Q728 791 718 798Q702 808 625 787Q609 783 610 793Q611 800 624 807Q691 855 727 892Q749 911 761 909Q774 906 785 878Q800 832 799 767Q777 449 794 412Q807 388 797 375Q787 360 738 336Q717 326 648 346Q491 380 325 400C311 403 324 444 338 441Q345 440 352 439Q406 426 467 415C498 410 498 410 513 407Z"/><path id="z29996d5" d="M545 551Q647 529 651 526Q658 519 655 511Q648 501 622 493Q586 486 547 505C530 515 509 516 489 520Q450 527 408 530Q375 536 399 551Q432 572 489 561C526 554 526 554 545 551Z"/><path id="z29996d6" d="M543 666Q651 644 654 642Q663 635 659 627Q652 617 626 609Q599 603 543 622C507 630 507 630 489 634Q452 638 413 642Q379 646 403 663Q434 684 489 676C525 669 525 669 543 666Z"/><path id="z29996d7" d="M495 836Q499 860 506 869Q512 876 519 874Q532 865 539 809Q542 776 543 666C543 637 543 637 543 622Q543 591 545 551C546 520 546 520 547 505Q550 469 555 451Q558 435 544 425Q525 412 513 407C499 401 464 400 467 415Q467 421 478 436Q484 446 489 520C489 547 489 547 489 561Q489 595 489 634C489 662 489 662 489 676Q490 694 490 714Q491 805 495 836Z"/></g>
<defs><clipPath id="z29996c1"><use href="#z29996d1"/></clipPath>
	<clipPath id="z29996c2"><use href="#z29996d2"/></clipPath>
	<clipPath id="z29996c3"><use href="#z29996d3"/></clipPath>
	<clipPath id="z29996c4"><use href="#z29996d4"/></clipPath>
	<clipPath id="z29996c5"><use href="#z29996d5"/></clipPath>
	<clipPath id="z29996c6"><use href="#z29996d6"/></clipPath>
	<clipPath id="z29996c7"><use href="#z29996d7"/></clipPath><marker id="guide-arrow" viewBox="0 0 16 16" refX="5" refY="5" markerWidth="4" markerHeight="4" orient="auto-start-reverse"><path d="M 0 0 L 10 5 L 0 10 z" fill="inherit"/></marker></defs>
<g class="strokes"><path pathLength="3333" clip-path="url(#z29996c1)" d="M291 158L365 176L647 124L687 171L535 276"/><path pathLength="3333" clip-path="url(#z29996c2)" d="M441 258L518 300L546 342"/><path pathLength="3333" clip-path="url(#z29996c3)" d="M270 389L304 420L311 544L267 861"/><path pathLength="3333" clip-path="url(#z29996c4)" d="M324 410L697 357L754 386L754 827L733 859L619 794"/><path pathLength="3333" clip-path="url(#z29996c5)" d="M396 539L649 515"/><path pathLength="3333" clip-path="url(#z29996c6)" d="M400 651L656 631"/><path pathLength="3333" clip-path="url(#z29996c7)" d="M474 413L519 452L512 868"/></g>
<g class="guides"><text class="g1" style="--gs:1" x="291" y="158">①</text><path class="g1 aligned" style="--gs:1" d="M291,158 Q365,176 506,150 Q647,124 667,147.5 Q687,171 611,223.5 Q611,223.5 535,276"/><path class="g1 offset" style="--gs:1" d="M291,254 Q328,272 398.5,246 Q469,220 479,243.5 Q489,267 451,319.5 Q451,319.5 413,372"/><text class="g2" style="--gs:2" x="441" y="258">②</text><path class="g2 aligned" style="--gs:2" d="M441,258 Q518,300 521.5,305.25 Q542.5,336.75 546,342"/><path class="g2 offset" style="--gs:2" d="M526.68,189.46 Q603.68,231.46 607.18,236.71 Q628.18,268.21 631.68,273.46"/><text class="g3" style="--gs:3" x="270" y="389">③</text><path class="g3 aligned" style="--gs:3" d="M270,389 Q304,420 305.75,451 Q311,544 300,623.25 Q278,781.75 267,861"/><path class="g3 offset" style="--gs:3" d="M174,389 Q208,420 209.75,451 Q215,544 204,623.25 Q182,781.75 171,861"/><text class="g4" style="--gs:4" x="324" y="410">④</text><path class="g4 aligned" style="--gs:4" d="M324,410 Q697,357 725.5,371.5 Q754,386 754,606.5 Q754,827 743.5,843 Q733,859 676,826.5 Q676,826.5 619,794"/><path class="g4 offset" style="--gs:4" d="M324,506 Q613.73,453 635.86,467.5 Q658,482 658,604.66 Q658,727.32 649.84,736.66 Q641.69,746 597.41,727.03 Q597.41,727.03 553.14,708.06"/><text class="g5" style="--gs:5" x="396" y="539">⑤</text><path class="g5 aligned" style="--gs:5" d="M396,539 L649,515"/><path class="g5 offset" style="--gs:5" d="M396,635 L649,611"/><text class="g6" style="--gs:6" x="400" y="651">⑥</text><path class="g6 aligned" style="--gs:6" d="M400,651 L656,631"/><path class="g6 offset" style="--gs:6" d="M400,747 L656,727"/><text class="g7" style="--gs:7" x="474" y="413">⑦</text><path class="g7 aligned" style="--gs:7" d="M474,413 Q519,452 518.13,504 Q512.88,816 512,868"/><path class="g7 offset" style="--gs:7" d="M378,413 Q423,452 422.13,504 Q416.88,816 416,868"/></g>
</svg>
