<!--
  Stroke-order data for 田, derived from AnimCJK (https://github.com/parsimonhi/animCJK),
  itself derived from the Arphic PL KaitiM fonts. Distributed under the Arphic Public License
  (see ARPHICPL.TXT). Regenerated by scripts/build-strokes.ts — do not edit by hand.
-->
<svg id="z30000" class="acjk" viewBox="0 0 1024 1024" xmlns="http://www.w3.org/2000/svg">
<g class="glyph"><path style="--part:1" id="z30000d1" d="M225 280C209 269 191 261 175 258C146 251 157 279 165 293C205 370 229 498 231 678C231 710 235 738 247 759C276 807 294 799 301 736C302 723 301 723 297 700C290 663 257 367 261 326C261 307 241 292 225 280Z"/><path style="--part:1" id="z30000d2" d="M704 708C713 780 741 831 779 748C795 711 808 592 814 552C820 504 830 427 840 377C847 338 855 307 873 285C886 268 889 255 879 245C862 228 833 211 798 195C781 186 763 188 738 197C663 222 582 238 496 252C422 263 331 274 225 280C206 280 242 329 261 326C319 314 383 302 459 291C495 286 495 286 513 283C571 274 633 264 701 254C753 245 778 265 777 314C774 391 766 448 750 554C743 596 735 652 714 688C710 694 703 701 704 708Z"/><path style="--part:2" id="z30000d3" d="M532 464C539 303 565 322 513 283C499 272 452 274 459 291C476 324 476 357 479 474C480 501 480 501 480 515C481 567 480 680 480 680C480 695 524 689 524 674C527 604 528 535 530 507C531 478 531 478 532 464Z"/><path style="--part:2" id="z30000d4" d="M530 507C575 499 618 493 658 491C699 488 686 461 646 450C617 441 587 453 532 464C497 471 497 471 479 474C431 482 386 490 345 498C332 500 329 507 347 518C387 543 416 525 480 515C513 510 513 510 530 507Z"/><path style="--part:1" id="z30000d5" d="M301 736C316 741 343 730 704 708C711 708 719 693 714 688C675 643 644 657 524 674C495 678 495 678 480 680C422 687 322 699 297 700C285 700 289 734 301 736Z"/></g>
<defs><clipPath id="z30000c1"><use href="#z30000d1"/></clipPath>
	<clipPath id="z30000c2"><use href="#z30000d2"/></clipPath>
	<clipPath id="z30000c3"><use href="#z30000d3"/></clipPath>
	<clipPath id="z30000c4"><use href="#z30000d4"/></clipPath>
	<clipPath id="z30000c5"><use href="#z30000d5"/></clipPath><marker id="guide-arrow" viewBox="0 0 16 16" refX="5" refY="5" markerWidth="4" markerHeight="4" orient="auto-start-reverse"><path d="M 0 0 L 10 5 L 0 10 z" fill="inherit"/></marker></defs>
<g class="strokes"><path style="--part:1" pathLength="3333" clip-path="url(#z30000c1)" d="M163 267L226 344L280 784"/><path style="--part:1" pathLength="3333" clip-path="url(#z30000c2)" d="M225 283L274 301L736 224L816 255L831 279L736 786"/><path style="--part:2" pathLength="3333" clip-path="url(#z30000c3)" d="M465 284L508 325L502 686"/><path style="--part:2" pathLength="3333" clip-path="url(#z30000c4)" d="M341 503L678 475"/><path style="--part:1" pathLength="3333" clip-path="url(#z30000c5)" d="M294 714L710 686"/></g>
<g class="guides"><text class="g1" style="--gs:1" x="163" y="267">①</text><path class="g1 aligned" style="--gs:1" d="M163,267 Q226,344 232.75,399 Q273.25,729 280,784"/><path class="g1 offset" style="--gs:1" d="M248.68,198.46 Q311.68,275.46 318.43,330.46 Q358.93,660.46 365.68,715.46"/><text class="g2" style="--gs:2" x="225" y="283">②</text><path class="g2 aligned" style="--gs:2" d="M225,283 Q274,301 505,262.5 Q736,224 776,239.5 Q816,255 823.5,267 Q831,279 783.5,532.5 Q783.5,532.5 736,786"/><path class="g2 offset" style="--gs:2" d="M225,379 Q264.3,383.85 449.55,351.92 Q634.81,320 666.89,335.5 Q698.97,351 704.99,363 Q711,375 672.91,580.5 Q672.91,580.5 634.81,786"/><text class="g3" style="--gs:3" x="465" y="284">③</text><path class="g3 aligned" style="--gs:3" d="M465,284 Q508,325 507.25,370.13 Q502.75,640.88 502,686"/><path class="g3 offset" style="--gs:3" d="M369,284 Q412,325 411.25,370.13 Q406.75,640.88 406,686"/><text class="g4" style="--gs:4" x="341" y="503">④</text><path class="g4 aligned" style="--gs:4" d="M341,503 L678,475"/><path class="g4 offset" style="--gs:4" d="M341,599 L678,571"/><text class="g5" style="--gs:5" x="294" y="714">⑤</text><path class="g5 aligned" style="--gs:5" d="M294,714 L710,686"/><path class="g5 offset" style="--gs:5" d="M294,810 L710,782"/></g>
<g class="parts"><rect data-part="1" data-literal="囗" role="button" tabindex="0" aria-label="Part 囗" x="91" y="152" width="812" height="706"/><rect data-part="2" data-literal="十" role="button" tabindex="0" aria-label="Part 十" x="269" y="212" width="481" height="546"/></g>
</svg>
