<svg id="z30001" class="acjk" viewBox="0 0 1024 1024" xmlns="http://www.w3.org/2000/svg">
<style>

@keyframes zk {
	to {
		stroke-dashoffset:0;
	}
}
svg.acjk path[clip-path] {
	--t:0.8s;
	animation:zk var(--t) linear forwards var(--d);
	stroke-dasharray:3337;
	stroke-dashoffset:3339;
	stroke-width:128;
	stroke-linecap:round;
	fill:none;
	stroke:#000;
}
svg.acjk path[id] {fill:#ccc;}


    @keyframes guide-fade {
        0% { opacity: 0; }
        3% { opacity: 1; }
        95% { opacity: 1; }
        100% { opacity: 0; }
    }

    svg.acjk #guide-arrow {
        fill: #f77;
    }

    svg.acjk .guides {
        circle {
            fill: #0f6;
        }

        path {
            opacity: 0;
            animation: guide-fade var(--t) linear forwards var(--d);
            stroke-width: 16px;
            stroke-linecap: round;
            stroke: #f77;
            fill: none;
            marker-end: url(#guide-arrow);
        }

        circle,
        path {
            --t: 0.8s;
            opacity: 0;
            animation: guide-fade calc(var(--t) + 0.4s) ease-in-out forwards calc(var(--d) - 0.2s);
        }
    }
</style>
<path id="z30001d1" d="M236 393C219 382 201 375 183 370C178 368 174 369 169 374C162 379 164 384 171 394C213 460 233 576 237 739C237 784 252 820 282 846C282 846 284 848 287 849C310 847 310 827 310 811C309 798 309 789 307 774C287 630 272 516 269 438C269 419 251 404 236 393Z"/>
<path id="z30001d2" d="M479 373C441 379 331 387 236 393C217 393 252 445 269 438C273 433 343 421 480 402C512 397 512 397 528 395C574 388 625 379 679 372C709 367 731 370 741 385C749 396 752 411 752 426C750 520 738 612 720 704C716 725 715 745 697 756C690 762 674 765 676 774C680 801 685 884 719 880C730 877 739 866 748 848C775 790 791 724 798 648C802 599 810 547 816 492C819 453 830 423 848 401C860 384 862 371 853 362C836 345 809 330 773 314C757 306 738 307 713 316C655 335 593 352 529 364C496 370 496 370 479 373Z"/>
<path id="z30001d3" d="M529 364Q532 235 553 133Q557 118 534 100Q492 78 464 74Q445 70 436 80Q427 90 437 107Q474 162 475 200Q478 284 479 373C480 392 480 392 480 402Q480 478 479 558C478 583 478 583 478 596Q475 672 471 753C471 770 520 762 520 745Q521 664 524 587C525 560 525 560 525 546Q526 468 528 395C529 374 529 374 529 364Z"/>
<path id="z30001d4" d="M524 587C532 585 569 577 636 570C642 569 649 568 653 560C655 553 647 545 634 540C620 534 604 532 585 533C562 535 543 541 525 546C494 554 494 554 479 558C455 564 410 568 347 578C330 580 328 587 342 597C363 613 382 617 397 613C420 606 448 601 478 596C509 590 509 590 524 587Z"/>
<path id="z30001d5" d="M310 811C384 796 517 784 676 774C685 774 703 763 697 756C692 749 684 738 668 731C646 721 604 731 520 745C487 750 487 750 471 753C412 762 357 768 307 774C295 776 298 813 310 811Z"/>
<defs>
	<clipPath id="z30001c1"><use href="#z30001d1"/></clipPath>
	<clipPath id="z30001c2"><use href="#z30001d2"/></clipPath>
	<clipPath id="z30001c3"><use href="#z30001d3"/></clipPath>
	<clipPath id="z30001c4"><use href="#z30001d4"/></clipPath>
	<clipPath id="z30001c5"><use href="#z30001d5"/></clipPath>
<marker id="guide-arrow" viewBox="0 0 16 16" refX="5" refY="5" markerWidth="4" markerHeight="4" orient="auto-start-reverse"><path d="M 0 0 L 10 5 L 0 10 z" fill="inherit"/></marker></defs>
<path style="--d:1s;" pathLength="3333" clip-path="url(#z30001c1)" d="M170 376L234 445L284 844"/>
<path style="--d:2s;" pathLength="3333" clip-path="url(#z30001c2)" d="M239 398L286 413L731 340L801 382L711 874"/>
<path style="--d:3s;" pathLength="3333" clip-path="url(#z30001c3)" d="M439 81L511 146L487 759"/>
<path style="--d:4s;" pathLength="3333" clip-path="url(#z30001c4)" d="M343 588L646 561"/>
<path style="--d:5s;" pathLength="3333" clip-path="url(#z30001c5)" d="M303 797L692 758"/>
<g class="guides"><circle style="--d: 1s" class="g1" cx="170" cy="376" r="16"/><path style="--d: 1s;" class="g1" d="M255.68,307.456 Q319.68,376.456 325.93,426.331 Q363.43,725.581 369.68,775.456"/><circle style="--d: 2s" class="g2" cx="239" cy="398" r="16"/><path style="--d: 2s;" class="g2" d="M239,494 Q275.9644128113879,495.87640449438203 450.9555160142349,465.93820224719104 Q625.9466192170819,436 653.473309608541,457 Q681,478 645.6085409252669,676 Q645.6085409252669,676 610.2170818505338,874"/><circle style="--d: 3s" class="g3" cx="439" cy="81" r="16"/><path style="--d: 3s;" class="g3" d="M343,81 Q415,146 412,222.625 Q394,682.375 391,759"/><circle style="--d: 4s" class="g4" cx="343" cy="588" r="16"/><path style="--d: 4s;" class="g4" d="M343,684 L646,657"/><circle style="--d: 5s" class="g5" cx="303" cy="797" r="16"/><path style="--d: 5s;" class="g5" d="M303,893 L692,854"/></g></svg>