<!--
  Stroke-order data for 界, derived from AnimCJK (https://github.com/parsimonhi/animCJK),
  itself derived from the Arphic PL KaitiM fonts. Distributed under the Arphic Public License
  (see ARPHICPL.TXT). Regenerated by scripts/build-strokes.ts — do not edit by hand.
-->
<svg id="z30028" class="acjk" viewBox="0 0 1024 1024" xmlns="http://www.w3.org/2000/svg">
<g class="glyph"><path id="z30028d1" d="M293 121C285 117 270 114 248 113C239 112 234 113 233 116C229 121 231 127 237 138C263 184 286 246 303 324C308 347 316 367 331 382C343 394 352 389 356 374C360 364 357 353 355 343C353 330 339 277 308 158C305 145 305 126 293 121Z"/><path id="z30028d2" d="M611 346C621 364 633 375 644 383C651 388 661 386 673 371C684 355 702 300 731 209C738 186 751 166 770 150C779 141 781 131 773 122C762 109 743 91 713 71C701 63 672 68 627 75C551 85 485 94 413 104C370 109 330 116 293 121C280 123 295 161 308 158C348 148 398 138 458 130C486 126 486 126 500 124C600 109 658 106 670 120C678 130 680 141 678 153C654 251 635 305 621 315C613 323 604 337 611 346Z"/><path id="z30028d3" d="M513 319C513 290 515 264 517 240C519 213 519 213 520 200C521 184 521 173 524 163C526 148 520 138 500 124C489 116 455 116 458 130C462 146 467 174 469 213C470 236 470 236 470 248C470 270 470 296 471 327C471 341 513 333 513 319Z"/><path id="z30028d4" d="M517 240C547 234 575 230 603 227C617 225 622 218 617 211C610 202 600 196 585 193C563 188 549 192 520 200C486 209 486 209 469 213C434 221 401 229 371 236C360 238 360 244 374 254C381 259 393 260 409 258C429 254 450 251 470 248C501 243 501 243 517 240Z"/><path id="z30028d5" d="M549 351C567 349 588 346 611 346C622 346 629 323 621 315C618 312 615 309 612 308C598 299 566 308 513 319C485 324 485 324 471 327C430 334 391 338 355 343C345 345 346 374 356 374C362 374 369 374 377 373C398 369 398 369 409 367C437 361 475 356 523 353C540 352 540 352 549 351Z"/><path id="z30028d6" d="M377 373C377 425 318 497 220 575C178 608 135 634 63 674C57 677 56 679 64 681C101 686 175 656 259 596C342 535 390 479 411 454C418 444 426 433 440 426C444 423 447 419 448 413C448 407 445 400 439 392C427 376 417 367 409 367C398 365 377 362 377 373Z"/><path id="z30028d7" d="M523 353C605 453 677 534 748 600C778 628 819 634 957 618C969 616 975 614 977 611C978 606 975 602 965 598C837 547 777 526 758 516C706 488 673 466 549 351C543 345 518 346 523 353Z"/><path id="z30028d8" d="M354 567C369 592 374 638 358 706C342 766 310 810 269 841C260 847 251 854 243 862C235 868 234 872 243 873C271 874 304 856 342 821C383 782 405 732 415 673C423 624 431 598 433 594C437 583 435 575 426 570C395 551 374 544 360 549C352 551 348 558 354 567Z"/><path id="z30028d9" d="M556 522C572 547 574 646 563 795C562 801 558 838 557 846C548 880 563 917 600 955C605 960 617 954 621 946C629 924 629 902 628 882C619 696 620 586 625 552C626 543 624 537 620 534C603 520 589 508 576 504C567 500 559 503 554 509C550 512 551 514 556 522Z"/></g>
<defs><clipPath id="z30028c1"><use href="#z30028d1"/></clipPath>
	<clipPath id="z30028c2"><use href="#z30028d2"/></clipPath>
	<clipPath id="z30028c3"><use href="#z30028d3"/></clipPath>
	<clipPath id="z30028c4"><use href="#z30028d4"/></clipPath>
	<clipPath id="z30028c5"><use href="#z30028d5"/></clipPath>
	<clipPath id="z30028c6"><use href="#z30028d6"/></clipPath>
	<clipPath id="z30028c7"><use href="#z30028d7"/></clipPath>
	<clipPath id="z30028c8"><use href="#z30028d8"/></clipPath>
	<clipPath id="z30028c9"><use href="#z30028d9"/></clipPath><marker id="guide-arrow" viewBox="0 0 16 16" refX="5" refY="5" markerWidth="4" markerHeight="4" orient="auto-start-reverse"><path d="M 0 0 L 10 5 L 0 10 z" fill="inherit"/></marker></defs>
<g class="strokes"><path pathLength="3333" clip-path="url(#z30028c1)" d="M240 123L279 157L342 384"/><path pathLength="3333" clip-path="url(#z30028c2)" d="M293 128L695 98L727 144L635 375"/><path pathLength="3333" clip-path="url(#z30028c3)" d="M465 125L494 164L491 331"/><path pathLength="3333" clip-path="url(#z30028c4)" d="M371 241L612 213"/><path pathLength="3333" clip-path="url(#z30028c5)" d="M351 361L620 330"/><path pathLength="3333" clip-path="url(#z30028c6)" d="M384 373L406 416L315 521L189 620L68 678"/><path pathLength="3333" clip-path="url(#z30028c7)" d="M531 352L769 566L970 607"/><path pathLength="3333" clip-path="url(#z30028c8)" d="M361 559L400 589L369 747L326 811L246 866"/><path pathLength="3333" clip-path="url(#z30028c9)" d="M559 512L596 559L603 952"/></g>
<g class="guides"><text class="g1" style="--gs:1" x="240" y="123">①</text><path class="g1 aligned" style="--gs:1" d="M240,123 Q279,157 286.88,185.38 Q334.13,355.63 342,384"/><path class="g1 offset" style="--gs:1" d="M325.68,54.46 Q364.68,88.46 372.56,116.83 Q419.81,287.08 427.68,315.46"/><text class="g2" style="--gs:2" x="293" y="128">②</text><path class="g2 aligned" style="--gs:2" d="M293,128 Q695,98 703,109.5 Q727,144 704,201.75 Q658,317.25 635,375"/><path class="g2 offset" style="--gs:2" d="M293,224 Q583.85,194 589.64,201.51 Q607,224.06 590.36,261.79 Q557.08,337.26 540.44,375"/><text class="g3" style="--gs:3" x="465" y="125">③</text><path class="g3 aligned" style="--gs:3" d="M465,125 Q494,164 493.63,184.88 Q491.38,310.13 491,331"/><path class="g3 offset" style="--gs:3" d="M369,125 Q398,164 397.63,184.88 Q395.38,310.13 395,331"/><text class="g4" style="--gs:4" x="371" y="241">④</text><path class="g4 aligned" style="--gs:4" d="M371,241 L612,213"/><path class="g4 offset" style="--gs:4" d="M371,337 L612,309"/><text class="g5" style="--gs:5" x="351" y="361">⑤</text><path class="g5 aligned" style="--gs:5" d="M351,361 L620,330"/><path class="g5 offset" style="--gs:5" d="M351,457 L620,426"/><text class="g6" style="--gs:6" x="384" y="373">⑥</text><path class="g6 aligned" style="--gs:6" d="M384,373 Q406,416 360.5,468.5 Q315,521 252,570.5 Q189,620 128.5,649 Q128.5,649 68,678"/><path class="g6 offset" style="--gs:6" d="M288,373 Q302.19,402.47 272.84,438.44 Q243.5,474.42 202.86,508.34 Q162.23,542.26 123.21,562.13 Q123.21,562.13 84.19,582"/><text class="g7" style="--gs:7" x="531" y="352">⑦</text><path class="g7 aligned" style="--gs:7" d="M531,352 Q769,566 794.13,571.13 Q944.88,601.88 970,607"/><path class="g7 offset" style="--gs:7" d="M616.68,283.46 Q808.23,474.41 828.45,478.99 Q949.78,506.43 970,511"/><text class="g8" style="--gs:8" x="361" y="559">⑧</text><path class="g8 aligned" style="--gs:8" d="M361,559 Q400,589 384.5,668 Q369,747 347.5,779 Q326,811 286,838.5 Q286,838.5 246,866"/><path class="g8 offset" style="--gs:8" d="M265,559 Q284.5,579.62 276.75,633.92 Q269,688.21 258.25,710.21 Q247.5,732.2 227.5,751.1 Q227.5,751.1 207.5,770"/><text class="g9" style="--gs:9" x="559" y="512">⑨</text><path class="g9 aligned" style="--gs:9" d="M559,512 Q596,559 596.88,608.13 Q602.13,902.88 603,952"/><path class="g9 offset" style="--gs:9" d="M644.68,443.46 Q681.68,490.46 682.56,539.58 Q687.81,834.33 688.68,883.46"/></g>
</svg>
