<!--
  Stroke-order data for 畑, derived from AnimCJK (https://github.com/parsimonhi/animCJK),
  itself derived from the Arphic PL KaitiM fonts. Distributed under the Arphic Public License
  (see ARPHICPL.TXT). Regenerated by scripts/build-strokes.ts — do not edit by hand.
-->
<svg id="z30033" class="acjk" viewBox="0 0 1024 1024" xmlns="http://www.w3.org/2000/svg">
<g class="glyph"><path style="--part:1" id="z30033d1" d="M129 472C125 487 129 502 135 514C136 517 156 559 178 518C191 491 197 459 193 424C189 395 182 370 173 355C156 324 147 351 147 364C144 400 136 435 129 472Z"/><path style="--part:1" id="z30033d2" d="M382 261C378 284 358 306 318 356C312 364 308 391 316 385C370 345 412 320 441 306C470 291 432 260 427 256C404 238 386 229 382 261Z"/><path style="--part:1" id="z30033d3" d="M318 356C324 266 324 201 337 161C343 140 340 133 296 116C270 105 254 102 243 105C228 108 225 118 233 130C263 174 278 277 270 439C260 630 234 716 112 811C37 870 123 840 143 831C234 786 279 721 301 608C306 583 306 583 308 571C315 530 314 401 316 385C317 366 317 366 318 356Z"/><path style="--part:1" id="z30033d4" d="M301 608C326 639 383 705 400 708C419 711 420 668 412 643C403 617 366 597 308 571C296 566 293 598 301 608Z"/><path style="--part:2" id="z30033d5" d="M500 372C435 336 442 367 453 383C478 434 494 514 496 630C496 672 509 710 536 724C548 729 556 711 557 693C557 681 555 670 554 660C545 591 533 493 531 409C531 393 514 379 500 372Z"/><path style="--part:2" id="z30033d6" d="M806 668C808 720 833 816 872 736C886 705 892 655 903 585C908 548 912 507 919 461C923 431 930 401 946 377C952 365 956 355 955 353C952 344 941 335 925 325C908 314 894 306 882 301C863 293 843 296 825 303C740 334 632 358 500 372C484 375 516 414 531 409C535 406 570 401 634 387C667 380 667 380 684 376C731 365 770 356 803 352C815 350 855 346 855 391C854 454 847 514 838 575C834 606 830 627 817 650C813 656 806 661 806 668Z"/><path style="--part:2" id="z30033d7" d="M694 636C695 611 696 560 698 535C700 504 700 504 701 488C706 399 718 406 684 376C672 364 628 371 634 387C642 405 641 426 645 506C646 535 646 535 647 550C648 582 647 615 649 644C649 659 694 651 694 636Z"/><path style="--part:2" id="z30033d8" d="M698 535C753 518 782 510 784 509C787 506 794 493 776 485C749 473 725 480 701 488C664 500 664 500 645 506C629 510 600 518 584 520C569 521 564 528 570 535C580 546 611 560 647 550C681 540 681 540 698 535Z"/><path style="--part:2" id="z30033d9" d="M557 693C578 693 646 677 806 668C813 668 821 656 817 650C787 604 736 627 694 636C664 641 664 641 649 644C608 651 576 656 554 660C543 662 546 693 557 693Z"/></g>
<defs><clipPath id="z30033c1"><use href="#z30033d1"/></clipPath>
	<clipPath id="z30033c2"><use href="#z30033d2"/></clipPath>
	<clipPath id="z30033c3"><use href="#z30033d3"/></clipPath>
	<clipPath id="z30033c4"><use href="#z30033d4"/></clipPath>
	<clipPath id="z30033c5"><use href="#z30033d5"/></clipPath>
	<clipPath id="z30033c6"><use href="#z30033d6"/></clipPath>
	<clipPath id="z30033c7"><use href="#z30033d7"/></clipPath>
	<clipPath id="z30033c8"><use href="#z30033d8"/></clipPath>
	<clipPath id="z30033c9"><use href="#z30033d9"/></clipPath><marker id="guide-arrow" viewBox="0 0 16 16" refX="5" refY="5" markerWidth="4" markerHeight="4" orient="auto-start-reverse"><path d="M 0 0 L 10 5 L 0 10 z" fill="inherit"/></marker></defs>
<g class="strokes"><path style="--part:1" pathLength="3333" clip-path="url(#z30033c1)" d="M159 344L154 531"/><path style="--part:1" pathLength="3333" clip-path="url(#z30033c2)" d="M394 246L412 289L317 377"/><path style="--part:1" pathLength="3333" clip-path="url(#z30033c3)" d="M234 116L296 161L273 619L213 748L89 839"/><path style="--part:1" pathLength="3333" clip-path="url(#z30033c4)" d="M305 575L382 652L403 703"/><path style="--part:2" pathLength="3333" clip-path="url(#z30033c5)" d="M454 364L499 410L535 720"/><path style="--part:2" pathLength="3333" clip-path="url(#z30033c6)" d="M499 377L539 388L839 326L897 357L839 762"/><path style="--part:2" pathLength="3333" clip-path="url(#z30033c7)" d="M639 378L674 417L668 650"/><path style="--part:2" pathLength="3333" clip-path="url(#z30033c8)" d="M573 530L782 497"/><path style="--part:2" pathLength="3333" clip-path="url(#z30033c9)" d="M553 679L813 654"/></g>
<g class="guides"><text class="g1" style="--gs:1" x="159" y="344">①</text><path class="g1 aligned" style="--gs:1" d="M159,344 L154,531"/><path class="g1 offset" style="--gs:1" d="M279,344 L274,531"/><text class="g2" style="--gs:2" x="394" y="246">②</text><path class="g2 aligned" style="--gs:2" d="M394,246 Q412,289 400.13,300 Q328.88,366 317,377"/><path class="g2 offset" style="--gs:2" d="M298,246 Q307,267.5 301.06,273 Q265.44,306 259.5,311.5"/><text class="g3" style="--gs:3" x="234" y="116">③</text><path class="g3 aligned" style="--gs:3" d="M234,116 Q296,161 284.5,390 Q273,619 243,683.5 Q213,748 151,793.5 Q151,793.5 89,839"/><path class="g3 offset" style="--gs:3" d="M138,116 Q171.25,155.02 165.08,353.62 Q158.91,552.21 142.83,608.15 Q126.74,664.08 93.49,703.54 Q93.49,703.54 60.25,743"/><text class="g4" style="--gs:4" x="305" y="575">④</text><path class="g4 aligned" style="--gs:4" d="M305,575 Q382,652 384.63,658.38 Q400.38,696.63 403,703"/><path class="g4 offset" style="--gs:4" d="M390.68,506.46 Q467.68,583.46 470.31,589.83 Q486.06,628.08 488.68,634.46"/><text class="g5" style="--gs:5" x="454" y="364">⑤</text><path class="g5 aligned" style="--gs:5" d="M454,364 Q499,410 503.5,448.75 Q530.5,681.25 535,720"/><path class="g5 offset" style="--gs:5" d="M539.68,295.46 Q584.68,341.46 589.18,380.21 Q616.18,612.71 620.68,651.46"/><text class="g6" style="--gs:6" x="499" y="377">⑥</text><path class="g6 aligned" style="--gs:6" d="M519,383 Q839,326 853.5,333.75 Q897,357 882.5,458.25 Q853.5,660.75 839,762"/><path class="g6 offset" style="--gs:6" d="M519,479 Q737.41,422 747.31,429.75 Q777,453 767.1,530.25 Q747.31,684.75 737.41,762"/><text class="g7" style="--gs:7" x="639" y="378">⑦</text><path class="g7 aligned" style="--gs:7" d="M639,378 Q674,417 673.25,446.13 Q668.75,620.88 668,650"/><path class="g7 offset" style="--gs:7" d="M543,378 Q578,417 577.25,446.13 Q572.75,620.88 572,650"/><text class="g8" style="--gs:8" x="573" y="530">⑧</text><path class="g8 aligned" style="--gs:8" d="M573,530 L782,497"/><path class="g8 offset" style="--gs:8" d="M573,626 L782,593"/><text class="g9" style="--gs:9" x="553" y="679">⑨</text><path class="g9 aligned" style="--gs:9" d="M553,679 L813,654"/><path class="g9 offset" style="--gs:9" d="M553,775 L813,750"/></g>
<g class="parts"><rect data-part="1" data-literal="火" role="button" tabindex="0" aria-label="Part 火" x="17" y="44" width="467" height="867"/><rect data-part="2" data-literal="田" data-radical="true" role="button" tabindex="0" aria-label="Part 田 (radical)" x="382" y="254" width="587" height="580"/></g>
</svg>
