<svg id="z30033" class="acjk" viewBox="0 0 1024 1024" xmlns="http://www.w3.org/2000/svg">
<style>

@keyframes zk {
	to {
		stroke-dashoffset:0;
	}
}
svg.acjk path[clip-path] {
	--t:0.8s;
	animation:zk var(--t) linear forwards var(--d);
	stroke-dasharray:3337;
	stroke-dashoffset:3339;
	stroke-width:128;
	stroke-linecap:round;
	fill:none;
	stroke:#000;
}
svg.acjk path[id] {fill:#ccc;}


    @keyframes guide-fade {
        0% { opacity: 0; }
        3% { opacity: 1; }
        95% { opacity: 1; }
        100% { opacity: 0; }
    }

    svg.acjk #guide-arrow {
        fill: #f77;
    }

    svg.acjk .guides {
        circle {
            fill: #0f6;
        }

        path {
            opacity: 0;
            animation: guide-fade var(--t) linear forwards var(--d);
            stroke-width: 16px;
            stroke-linecap: round;
            stroke: #f77;
            fill: none;
            marker-end: url(#guide-arrow);
        }

        circle,
        path {
            --t: 0.8s;
            opacity: 0;
            animation: guide-fade calc(var(--t) + 0.4s) ease-in-out forwards calc(var(--d) - 0.2s);
        }
    }
</style>
<path id="z30033d1" d="M129 472C125 487 130 502 135 514C144 535 158 537 165 535C169 533 173 527 178 518C191 491 198 459 193 424C185 367 172 341 157 341C150 341 147 361 147 364C144 400 136 435 129 472Z"/>
<path id="z30033d2" d="M394 240C384 238 382 246 382 261C381 278 358 306 318 356C312 364 308 390 316 385C370 345 411 318 441 306C449 302 453 298 453 295C452 289 450 284 447 278C432 256 415 242 394 240Z"/>
<path id="z30033d3" d="M318 356C324 266 324 201 337 161C339 153 340 145 338 142C332 131 316 124 296 116C270 106 254 102 243 105C242 105 242 105 241 106C228 110 225 118 233 130C264 174 277 277 270 439C266 510 260 565 251 604C234 673 202 734 149 781C104 820 79 838 80 841C80 842 84 844 93 845C102 846 119 841 143 831C227 794 279 721 301 608C306 583 306 583 308 571C315 530 314 401 316 385C317 366 317 366 318 356Z"/>
<path id="z30033d4" d="M301 608C326 639 384 705 400 708C420 711 418 655 412 643C401 619 366 597 308 571C296 566 293 598 301 608Z"/>
<path id="z30033d5" d="M500 440C485 432 471 423 460 422C449 420 441 428 444 435C446 439 449 445 453 451C478 502 494 583 496 698C496 741 509 779 536 792C548 798 558 773 557 761C555 739 555 739 554 728C552 710 546 673 543 645C536 580 532 525 531 477C531 461 514 447 500 440Z"/>
<path id="z30033d6" d="M802 736C803 756 805 783 823 818C828 830 836 836 844 835C855 833 863 822 872 804C885 773 892 723 903 653C908 616 912 575 919 529C923 499 930 469 946 445C952 433 956 424 955 421C952 413 941 404 925 393C892 371 867 361 847 365C839 366 832 368 825 371C740 402 632 426 500 440C484 443 516 483 531 477C535 474 570 469 634 455C667 448 667 448 684 444C731 433 770 424 803 420C814 418 823 419 831 421C845 424 855 437 855 459C854 534 846 606 833 678C830 694 830 709 817 718C811 724 802 728 802 736Z"/>
<path id="z30033d7" d="M694 704C694 662 696 628 698 603C700 572 700 572 701 556C701 544 701 532 702 520C703 492 704 477 704 475C702 464 696 454 684 444C672 432 628 439 634 455C638 457 641 497 645 576C646 604 646 604 647 618C648 651 647 683 649 712C649 727 694 719 694 704Z"/>
<path id="z30033d8" d="M698 603C753 586 782 578 784 577C788 573 788 568 788 565C787 560 783 556 776 553C750 541 725 547 701 556C664 569 664 569 645 576C630 581 600 586 584 588C569 589 564 597 570 603C580 615 611 628 647 618C681 608 681 608 698 603Z"/>
<path id="z30033d9" d="M557 761C565 761 576 760 590 758C643 748 728 740 802 736C810 736 822 724 817 718C813 711 803 702 791 695C770 683 735 696 694 704C664 709 664 709 649 712C608 719 576 724 554 728C543 730 546 761 557 761Z"/>
<defs>
	<clipPath id="z30033c1"><use href="#z30033d1"/></clipPath>
	<clipPath id="z30033c2"><use href="#z30033d2"/></clipPath>
	<clipPath id="z30033c3"><use href="#z30033d3"/></clipPath>
	<clipPath id="z30033c4"><use href="#z30033d4"/></clipPath>
	<clipPath id="z30033c5"><use href="#z30033d5"/></clipPath>
	<clipPath id="z30033c6"><use href="#z30033d6"/></clipPath>
	<clipPath id="z30033c7"><use href="#z30033d7"/></clipPath>
	<clipPath id="z30033c8"><use href="#z30033d8"/></clipPath>
	<clipPath id="z30033c9"><use href="#z30033d9"/></clipPath>
<marker id="guide-arrow" viewBox="0 0 16 16" refX="5" refY="5" markerWidth="4" markerHeight="4" orient="auto-start-reverse"><path d="M 0 0 L 10 5 L 0 10 z" fill="inherit"/></marker></defs>
<path style="--d:1s;" pathLength="3333" clip-path="url(#z30033c1)" d="M159 345L150 530"/>
<path style="--d:2s;" pathLength="3333" clip-path="url(#z30033c2)" d="M392 244L411 293L318 376"/>
<path style="--d:3s;" pathLength="3333" clip-path="url(#z30033c3)" d="M235 115L297 165L274 616L201 763L89 836"/>
<path style="--d:4s;" pathLength="3333" clip-path="url(#z30033c4)" d="M305 575L408 700"/>
<path style="--d:5s;" pathLength="3333" clip-path="url(#z30033c5)" d="M449 426L500 486L534 788"/>
<path style="--d:6s;" pathLength="3333" clip-path="url(#z30033c6)" d="M502 446L539 455L840 393L893 421L843 830"/>
<path style="--d:7s;" pathLength="3333" clip-path="url(#z30033c7)" d="M640 449L672 486L669 717"/>
<path style="--d:8s;" pathLength="3333" clip-path="url(#z30033c8)" d="M575 597L784 563"/>
<path style="--d:9s;" pathLength="3333" clip-path="url(#z30033c9)" d="M551 746L813 722"/>
<g class="guides"><circle style="--d: 1s" class="g1" cx="159" cy="345" r="16"/><path style="--d: 1s;" class="g1" d="M279,345 L270,530"/><circle style="--d: 2s" class="g2" cx="392" cy="244" r="16"/><path style="--d: 2s;" class="g2" d="M296,244 Q305.5,268.5 299.6875,273.6875 Q264.8125,304.8125 259,310"/><circle style="--d: 3s" class="g3" cx="235" cy="115" r="16"/><path style="--d: 3s;" class="g3" d="M139,115 Q172.38461538461536,158.34257975034674 166.19230769230768,353.8176144244105 Q160,549.2926490984744 140.34615384615384,613.006241331484 Q120.69230769230768,676.7198335644938 90.53846153846153,708.359916782247 Q90.53846153846153,708.359916782247 60.38461538461539,740"/><circle style="--d: 4s" class="g4" cx="305" cy="575" r="16"/><path style="--d: 4s;" class="g4" d="M390.68,506.456 L493.68,631.456"/><circle style="--d: 5s" class="g5" cx="449" cy="426" r="16"/><path style="--d: 5s;" class="g5" d="M534.68,357.456 Q585.68,417.456 589.93,455.206 Q615.43,681.706 619.68,719.456"/><circle style="--d: 6s" class="g6" cx="521" cy="451" r="16"/><path style="--d: 6s;" class="g6" d="M521,547 Q737.0967741935484,489 746.0725806451613,496 Q773,517 764.5322580645161,595.25 Q747.5967741935484,751.75 739.1290322580645,830"/><circle style="--d: 7s" class="g7" cx="640" cy="449" r="16"/><path style="--d: 7s;" class="g7" d="M544,449 Q576,486 575.625,514.875 Q573.375,688.125 573,717"/><circle style="--d: 8s" class="g8" cx="575" cy="597" r="16"/><path style="--d: 8s;" class="g8" d="M575,693 L784,659"/><circle style="--d: 9s" class="g9" cx="551" cy="746" r="16"/><path style="--d: 9s;" class="g9" d="M551,842 L813,818"/></g></svg>