<svg id="z30037" class="acjk" viewBox="0 0 1024 1024" xmlns="http://www.w3.org/2000/svg">
<style>

@keyframes zk {
	to {
		stroke-dashoffset:0;
	}
}
svg.acjk path[clip-path] {
	--t:0.8s;
	animation:zk var(--t) linear forwards var(--d);
	stroke-dasharray:3337;
	stroke-dashoffset:3339;
	stroke-width:128;
	stroke-linecap:round;
	fill:none;
	stroke:#000;
}
svg.acjk path[id] {fill:#ccc;}


    @keyframes guide-fade {
        0% { opacity: 0; }
        3% { opacity: 1; }
        95% { opacity: 1; }
        100% { opacity: 0; }
    }

    svg.acjk #guide-arrow {
        fill: #f77;
    }

    svg.acjk .guides {
        circle {
            fill: #0f6;
        }

        path {
            opacity: 0;
            animation: guide-fade var(--t) linear forwards var(--d);
            stroke-width: 16px;
            stroke-linecap: round;
            stroke: #f77;
            fill: none;
            marker-end: url(#guide-arrow);
        }

        circle,
        path {
            --t: 0.8s;
            opacity: 0;
            animation: guide-fade calc(var(--t) + 0.4s) ease-in-out forwards calc(var(--d) - 0.2s);
        }
    }
</style>
<path id="z30037d1" d="M272 192C234 178 217 189 236 223C265 275 289 355 307 437C312 460 320 481 337 499C358 523 358 512 361 481C362 469 360 458 358 448C343 378 325 296 309 226C306 210 288 198 272 192Z"/>
<path id="z30037d2" d="M649 449C668 478 679 482 693 443C717 379 728 322 754 266C758 257 766 237 783 223C793 212 797 203 794 195C788 178 767 159 716 125C655 84 701 103 272 192C255 195 292 229 309 226C325 225 413 201 463 192C493 186 493 186 508 183C570 170 607 161 640 159C667 156 685 176 685 209C683 260 668 355 649 414C645 425 642 440 649 449Z"/>
<path id="z30037d3" d="M522 421C523 388 525 349 527 327C529 298 529 298 530 283C533 236 557 214 508 183C496 174 460 177 463 192C464 193 472 237 477 296C479 323 479 323 480 336C481 360 481 401 482 429C482 443 522 435 522 421Z"/>
<path id="z30037d4" d="M527 327C554 321 598 313 610 309C618 304 644 297 640 287C635 273 625 268 605 268C579 266 550 278 530 283C495 292 495 292 477 296C450 302 402 309 392 312C362 319 367 332 395 339C419 345 448 341 480 336C511 330 511 330 527 327Z"/>
<path id="z30037d5" d="M361 481C379 487 436 473 649 449C660 447 657 422 649 414C629 388 586 408 522 421C495 426 495 426 482 429C443 436 358 448 358 448C347 450 350 479 361 481Z"/>
<path id="z30037d6" d="M267 600C256 597 246 596 238 596C219 594 214 603 222 618C248 671 276 748 297 835C302 859 308 872 322 892C337 913 347 915 350 883C350 869 349 863 347 851C326 765 309 677 303 637C300 620 284 603 267 600Z"/>
<path id="z30037d7" d="M653 863C661 927 684 911 701 869C734 783 739 720 766 665C769 657 777 646 794 630C802 620 803 611 801 602C794 581 778 558 729 530C679 502 694 527 267 600C250 603 286 640 303 637C350 624 392 616 451 606C480 601 480 601 494 598C547 587 627 574 662 578C703 582 706 605 698 645C681 729 668 801 657 833C653 842 651 853 653 863Z"/>
<path id="z30037d8" d="M511 833C512 801 512 760 515 740C518 711 518 711 519 696C524 647 545 625 494 598C481 590 446 592 451 606C456 618 464 660 466 704C467 731 467 731 468 745C469 760 469 800 472 837C472 850 511 846 511 833Z"/>
<path id="z30037d9" d="M515 740C542 737 577 732 600 726C639 714 635 701 601 690C582 684 539 692 519 696C484 701 484 701 466 704C435 708 401 713 382 716C353 720 356 730 374 739C398 750 434 748 468 745C499 742 499 742 515 740Z"/>
<path id="z30037d10" d="M350 883C375 892 403 883 653 863C663 863 665 839 657 833C638 815 614 822 511 833C485 836 485 836 472 837C423 842 385 843 347 851C336 853 339 881 350 883Z"/>
<defs>
	<clipPath id="z30037c1"><use href="#z30037d1"/></clipPath>
	<clipPath id="z30037c2"><use href="#z30037d2"/></clipPath>
	<clipPath id="z30037c3"><use href="#z30037d3"/></clipPath>
	<clipPath id="z30037c4"><use href="#z30037d4"/></clipPath>
	<clipPath id="z30037c5"><use href="#z30037d5"/></clipPath>
	<clipPath id="z30037c6"><use href="#z30037d6"/></clipPath>
	<clipPath id="z30037c7"><use href="#z30037d7"/></clipPath>
	<clipPath id="z30037c8"><use href="#z30037d8"/></clipPath>
	<clipPath id="z30037c9"><use href="#z30037d9"/></clipPath>
	<clipPath id="z30037c10"><use href="#z30037d10"/></clipPath>
<marker id="guide-arrow" viewBox="0 0 16 16" refX="5" refY="5" markerWidth="4" markerHeight="4" orient="auto-start-reverse"><path d="M 0 0 L 10 5 L 0 10 z" fill="inherit"/></marker></defs>
<path style="--d:1s;" pathLength="3333" clip-path="url(#z30037c1)" d="M235 192L277 231L351 505"/>
<path style="--d:2s;" pathLength="3333" clip-path="url(#z30037c2)" d="M278 201L650 132L687 142L740 210L669 463"/>
<path style="--d:3s;" pathLength="3333" clip-path="url(#z30037c3)" d="M468 186L504 228L496 434"/>
<path style="--d:4s;" pathLength="3333" clip-path="url(#z30037c4)" d="M380 324L633 285"/>
<path style="--d:5s;" pathLength="3333" clip-path="url(#z30037c5)" d="M355 458L653 432"/>
<path style="--d:6s;" pathLength="3333" clip-path="url(#z30037c6)" d="M227 605L269 640L341 900"/>
<path style="--d:7s;" pathLength="3333" clip-path="url(#z30037c7)" d="M272 607L648 551L720 566L751 616L670 900"/>
<path style="--d:8s;" pathLength="3333" clip-path="url(#z30037c8)" d="M458 602L493 639L488 842"/>
<path style="--d:9s;" pathLength="3333" clip-path="url(#z30037c9)" d="M368 727L620 704"/>
<path style="--d:10s;" pathLength="3333" clip-path="url(#z30037c10)" d="M344 860L659 844"/>
<g class="guides"><circle style="--d: 1s" class="g1" cx="235" cy="192" r="16"/><path style="--d: 1s;" class="g1" d="M320.68,123.456 Q362.68,162.45600000000002 371.93,196.70600000000002 Q427.43,402.206 436.68,436.456"/><circle style="--d: 2s" class="g2" cx="278" cy="201" r="16"/><path style="--d: 2s;" class="g2" d="M278,297 Q553.3766233766233,228 567.0714285714286,233 Q580.7662337662338,238 600.3831168831168,260.6888217522659 Q620,283.37764350453176 593.7207792207791,373.1888217522659 Q593.7207792207791,373.1888217522659 567.4415584415584,463"/><circle style="--d: 3s" class="g3" cx="468" cy="186" r="16"/><path style="--d: 3s;" class="g3" d="M372,186 Q408,228 407,253.75 Q401,408.25 400,434"/><circle style="--d: 4s" class="g4" cx="380" cy="324" r="16"/><path style="--d: 4s;" class="g4" d="M380,420 L633,381"/><circle style="--d: 5s" class="g5" cx="355" cy="458" r="16"/><path style="--d: 5s;" class="g5" d="M355,554 L653,528"/><circle style="--d: 6s" class="g6" cx="227" cy="605" r="16"/><path style="--d: 6s;" class="g6" d="M312.68,536.456 Q354.68,571.456 363.68,603.956 Q417.68,798.956 426.68,831.456"/><circle style="--d: 7s" class="g7" cx="272" cy="607" r="16"/><path style="--d: 7s;" class="g7" d="M272,703 Q553.80375782881,647 580.7849686847599,654.5 Q607.7661795407098,662 619.3830897703549,678.0601719197707 Q631,694.1203438395415 600.6461377870564,797.0601719197707 Q600.6461377870564,797.0601719197707 570.2922755741128,900"/><circle style="--d: 8s" class="g8" cx="458" cy="602" r="16"/><path style="--d: 8s;" class="g8" d="M362,602 Q397,639 396.375,664.375 Q392.625,816.625 392,842"/><circle style="--d: 9s" class="g9" cx="368" cy="727" r="16"/><path style="--d: 9s;" class="g9" d="M368,823 L620,800"/><circle style="--d: 10s" class="g10" cx="344" cy="860" r="16"/><path style="--d: 10s;" class="g10" d="M344,956 L659,940"/></g></svg>