<svg id="z30064" class="acjk" viewBox="0 0 1024 1024" xmlns="http://www.w3.org/2000/svg">
<style>

@keyframes zk {
	to {
		stroke-dashoffset:0;
	}
}
svg.acjk path[clip-path] {
	--t:0.8s;
	animation:zk var(--t) linear forwards var(--d);
	stroke-dasharray:3337;
	stroke-dashoffset:3339;
	stroke-width:128;
	stroke-linecap:round;
	fill:none;
	stroke:#000;
}
svg.acjk path[id] {fill:#ccc;}


    @keyframes guide-fade {
        0% { opacity: 0; }
        3% { opacity: 1; }
        95% { opacity: 1; }
        100% { opacity: 0; }
    }

    svg.acjk #guide-arrow {
        fill: #f77;
    }

    svg.acjk .guides {
        circle {
            fill: #0f6;
        }

        path {
            opacity: 0;
            animation: guide-fade var(--t) linear forwards var(--d);
            stroke-width: 16px;
            stroke-linecap: round;
            stroke: #f77;
            fill: none;
            marker-end: url(#guide-arrow);
        }

        circle,
        path {
            --t: 0.8s;
            opacity: 0;
            animation: guide-fade calc(var(--t) + 0.4s) ease-in-out forwards calc(var(--d) - 0.2s);
        }
    }
</style>
<path id="z30064d1" d="M339 124C330 121 316 119 298 116C289 114 284 115 281 119C276 124 278 131 285 143C310 190 332 254 347 333C351 356 359 376 374 392C388 407 394 408 399 400C401 395 405 390 404 380C402 359 402 359 401 348C399 335 396 325 394 315C375 234 365 185 361 159C359 145 353 127 339 124Z"/>
<path id="z30064d2" d="M615 347C625 365 637 376 648 383C655 388 665 386 677 370C688 354 706 297 733 204C739 181 751 162 770 145C779 136 781 126 773 117C762 104 743 86 712 68C698 59 684 59 674 62C651 68 622 74 588 80C545 86 497 95 443 105C405 111 370 118 339 124C325 126 348 163 361 159C393 150 432 140 478 133C506 128 506 128 520 126C604 111 654 106 670 117C680 124 682 135 679 150C655 251 638 307 624 316C616 324 609 338 615 347Z"/>
<path id="z30064d3" d="M532 321C532 294 534 269 535 246C536 219 536 219 536 206C536 192 538 181 540 164C541 148 536 136 520 126C508 119 473 120 478 133C482 137 487 166 489 220C490 242 490 242 490 253C490 273 490 299 492 330C492 344 532 335 532 321Z"/>
<path id="z30064d4" d="M535 246C559 242 581 238 603 235C617 232 622 226 617 219C610 210 599 204 583 201C570 198 554 200 536 206C505 215 505 215 489 220C462 227 437 233 415 240C404 243 405 248 418 257C424 261 433 263 446 261C455 259 475 255 490 253C520 248 520 248 535 246Z"/>
<path id="z30064d5" d="M404 380C408 380 412 380 418 379C460 368 525 357 615 347C626 345 632 324 624 316C622 314 619 311 616 310C596 300 575 311 532 321C505 327 505 327 492 330C459 337 429 342 401 348C390 350 393 380 404 380Z"/>
<path id="z30064d6" d="M644 513C688 507 729 503 768 501C774 500 783 499 787 490C790 482 780 475 767 467C743 452 716 452 662 464C613 474 613 474 588 479C575 481 461 502 419 506C381 509 381 509 362 511C325 514 288 516 250 520C231 521 228 527 242 540C248 546 257 552 267 559C275 564 287 565 302 562C323 557 347 554 371 551C404 546 404 546 420 543C470 534 524 526 584 520C624 515 624 515 644 513Z"/>
<path id="z30064d7" d="M419 506C418 493 422 469 409 458C395 445 375 439 358 435C349 432 342 432 337 437C332 441 331 449 337 458C347 475 357 491 362 511C368 538 368 538 371 551C376 575 382 611 390 659C393 672 430 668 430 655C424 585 420 562 420 543C419 518 419 518 419 506Z"/>
<path id="z30064d8" d="M609 635C621 592 630 550 644 513C656 480 656 480 662 464C664 457 668 453 671 449C674 442 670 432 660 422C642 405 624 395 609 390C600 386 592 386 586 391C580 395 578 402 583 412C592 433 591 447 588 479C585 506 585 506 584 520C580 557 571 596 564 640C561 655 606 650 609 635Z"/>
<path id="z30064d9" d="M390 659C350 663 156 686 106 686C97 685 92 689 92 697C91 705 96 713 109 722C137 742 162 749 183 742C259 713 415 686 653 668C726 662 812 665 910 676C924 677 934 676 938 671C943 662 941 654 934 647C915 628 892 613 864 601C855 597 842 597 826 603C797 611 751 619 609 635C579 638 579 638 564 640C516 645 471 650 430 655C403 658 403 658 390 659Z"/>
<path id="z30064d10" d="M387 745C376 786 321 846 219 919C203 930 204 931 224 932C262 932 326 903 413 834C416 831 431 816 464 791C473 783 475 775 475 768C473 758 464 750 445 742C423 732 409 728 400 730C394 731 389 735 387 745Z"/>
<path id="z30064d11" d="M594 771C632 807 675 852 720 906C732 921 743 932 755 935C761 936 767 931 773 925C782 914 782 893 775 861C764 816 704 776 596 736C588 733 584 733 583 744C581 753 585 763 594 771Z"/>
<defs>
	<clipPath id="z30064c1"><use href="#z30064d1"/></clipPath>
	<clipPath id="z30064c2"><use href="#z30064d2"/></clipPath>
	<clipPath id="z30064c3"><use href="#z30064d3"/></clipPath>
	<clipPath id="z30064c4"><use href="#z30064d4"/></clipPath>
	<clipPath id="z30064c5"><use href="#z30064d5"/></clipPath>
	<clipPath id="z30064c6"><use href="#z30064d6"/></clipPath>
	<clipPath id="z30064c7"><use href="#z30064d7"/></clipPath>
	<clipPath id="z30064c8"><use href="#z30064d8"/></clipPath>
	<clipPath id="z30064c9"><use href="#z30064d9"/></clipPath>
	<clipPath id="z30064c10"><use href="#z30064d10"/></clipPath>
	<clipPath id="z30064c11"><use href="#z30064d11"/></clipPath>
<marker id="guide-arrow" viewBox="0 0 16 16" refX="5" refY="5" markerWidth="4" markerHeight="4" orient="auto-start-reverse"><path d="M 0 0 L 10 5 L 0 10 z" fill="inherit"/></marker></defs>
<path style="--d:1s;" pathLength="3333" clip-path="url(#z30064c1)" d="M286 121L332 171L390 399"/>
<path style="--d:2s;" pathLength="3333" clip-path="url(#z30064c2)" d="M349 126L676 88L712 110L728 142L648 380"/>
<path style="--d:3s;" pathLength="3333" clip-path="url(#z30064c3)" d="M486 135L512 167L502 325"/>
<path style="--d:4s;" pathLength="3333" clip-path="url(#z30064c4)" d="M416 248L611 223"/>
<path style="--d:5s;" pathLength="3333" clip-path="url(#z30064c5)" d="M410 372L620 327"/>
<path style="--d:6s;" pathLength="3333" clip-path="url(#z30064c6)" d="M242 527L294 540L708 480L782 487"/>
<path style="--d:7s;" pathLength="3333" clip-path="url(#z30064c7)" d="M342 445L388 492L411 656"/>
<path style="--d:8s;" pathLength="3333" clip-path="url(#z30064c8)" d="M588 399L631 448L572 632"/>
<path style="--d:9s;" pathLength="3333" clip-path="url(#z30064c9)" d="M97 696L171 714L845 634L934 665"/>
<path style="--d:10s;" pathLength="3333" clip-path="url(#z30064c10)" d="M399 739L425 777L337 857L218 925"/>
<path style="--d:11s;" pathLength="3333" clip-path="url(#z30064c11)" d="M590 744L716 840L770 926"/>
<g class="guides"><circle style="--d: 1s" class="g1" cx="286" cy="121" r="16"/><path style="--d: 1s;" class="g1" d="M371.68,52.456 Q417.68,102.456 424.93,130.95600000000002 Q468.43,301.956 475.68,330.456"/><circle style="--d: 2s" class="g2" cx="349" cy="126" r="16"/><path style="--d: 2s;" class="g2" d="M349,222 Q572.4643799472295,184 584.7651715039578,195 Q597.065963060686,206 602.532981530343,213.12328767123287 Q608,220.24657534246575 580.6649076517151,300.1232876712329 Q580.6649076517151,300.1232876712329 553.3298153034301,380"/><circle style="--d: 3s" class="g3" cx="499" cy="151" r="16"/><path style="--d: 3s;" class="g3" d="M619,151 L622,325"/><circle style="--d: 4s" class="g4" cx="416" cy="248" r="16"/><path style="--d: 4s;" class="g4" d="M416,344 L611,319"/><circle style="--d: 5s" class="g5" cx="410" cy="372" r="16"/><path style="--d: 5s;" class="g5" d="M410,468 L620,423"/><circle style="--d: 6s" class="g6" cx="242" cy="527" r="16"/><path style="--d: 6s;" class="g6" d="M242,623 Q294,636 397.5,621 Q708,576 726.5,577.75 Q763.5,581.25 782,583"/><circle style="--d: 7s" class="g7" cx="342" cy="445" r="16"/><path style="--d: 7s;" class="g7" d="M427.68,376.456 Q473.68,423.456 476.555,443.956 Q493.805,566.956 496.68,587.456"/><circle style="--d: 8s" class="g8" cx="588" cy="399" r="16"/><path style="--d: 8s;" class="g8" d="M492,399 Q535,448 527.625,471 Q483.375,609 476,632"/><circle style="--d: 9s" class="g9" cx="97" cy="696" r="16"/><path style="--d: 9s;" class="g9" d="M97,792 Q171,810 339.5,790 Q845,730 867.25,737.75 Q911.75,753.25 934,761"/><circle style="--d: 10s" class="g10" cx="399" cy="739" r="16"/><path style="--d: 10s;" class="g10" d="M303,739 Q316.94202898550725,758 305.1449275362319,768 Q269.7536231884058,798 253.80072463768118,806.5 Q221.89492753623188,823.5 205.94202898550725,832"/><circle style="--d: 11s" class="g11" cx="590" cy="744" r="16"/><path style="--d: 11s;" class="g11" d="M675.68,675.456 Q801.68,771.456 808.43,782.206 Q848.93,846.706 855.68,857.456"/></g></svg>