<svg id="z30151" class="acjk" viewBox="0 0 1024 1024" xmlns="http://www.w3.org/2000/svg">
<style>

@keyframes zk {
	to {
		stroke-dashoffset:0;
	}
}
svg.acjk path[clip-path] {
	--t:0.8s;
	animation:zk var(--t) linear forwards var(--d);
	stroke-dasharray:3337;
	stroke-dashoffset:3339;
	stroke-width:128;
	stroke-linecap:round;
	fill:none;
	stroke:#000;
}
svg.acjk path[id] {fill:#ccc;}


    @keyframes guide-fade {
        0% { opacity: 0; }
        3% { opacity: 1; }
        95% { opacity: 1; }
        100% { opacity: 0; }
    }

    svg.acjk #guide-arrow {
        fill: #f77;
    }

    svg.acjk .guides {
        circle {
            fill: #0f6;
        }

        path {
            opacity: 0;
            animation: guide-fade var(--t) linear forwards var(--d);
            stroke-width: 16px;
            stroke-linecap: round;
            stroke: #f77;
            fill: none;
            marker-end: url(#guide-arrow);
        }

        circle,
        path {
            --t: 0.8s;
            opacity: 0;
            animation: guide-fade calc(var(--t) + 0.4s) ease-in-out forwards calc(var(--d) - 0.2s);
        }
    }
</style>
<path id="z30151d1" d="M527 114Q558 136 589 164Q605 177 621 175Q631 174 637 160Q641 144 629 113Q617 80 519 64Q503 61 496 65Q490 69 493 83Q497 93 527 114Z"/>
<path id="z30151d2" d="M373 301Q412 317 459 307Q592 282 730 255Q793 242 802 233Q812 226 807 216Q800 204 770 196Q745 190 630 225Q483 261 371 270Q367 270 365 272C356 276 364 297 373 301Z"/>
<path id="z30151d3" d="M273 571Q237 721 135 880Q131 887 128 893Q125 905 136 902Q170 896 249 774Q261 750 274 726Q331 602 359 379Q363 310 373 301C378 292 372 279 365 272Q349 256 322 245Q303 233 289 239Q276 246 283 260Q299 282 300 341Q282 528 280 536C275 559 275 559 273 571Z"/>
<path id="z30151d4" d="M161 365Q194 423 222 440Q235 446 247 435Q254 423 256 407Q250 361 179 330Q164 323 154 325Q148 325 149 337Q148 349 161 365Z"/>
<path id="z30151d5" d="M280 536Q100 620 66 623Q54 627 54 636Q54 649 64 655Q88 667 121 680Q131 681 142 672Q160 650 272 572Q272 571 273 571C282 564 291 532 280 536Z"/>
<path id="z30151d6" d="M607 444Q773 408 779 403Q788 396 783 387Q776 377 748 369Q718 363 690 375Q641 391 588 404Q530 417 461 424Q425 430 451 446Q490 470 547 457Q553 456 563 454C592 447 592 447 607 444Z"/>
<path id="z30151d7" d="M622 792Q625 699 627 622C628 603 628 603 628 593Q631 467 632 467Q619 452 607 444C595 435 557 440 563 454Q575 473 579 573Q579 643 580 797C580 811 622 806 622 792Z"/>
<path id="z30151d8" d="M627 622Q661 626 760 604Q770 600 783 598Q802 592 805 590Q812 583 807 575Q800 565 773 559Q745 556 719 568Q697 577 674 583Q652 587 628 593C618 595 617 622 627 622Z"/>
<path id="z30151d9" d="M487 808Q478 661 482 624Q485 602 470 591Q448 575 422 566Q409 562 400 568Q393 574 400 588Q418 619 426 652Q433 683 448 813C450 826 487 821 487 808Z"/>
<path id="z30151d10" d="M448 813Q375 820 297 829Q275 830 291 849Q306 864 324 870Q346 876 363 871Q528 829 852 829Q870 829 889 830Q910 830 915 821Q921 809 903 795Q849 753 811 761Q738 774 622 792C594 795 594 795 580 797Q535 801 487 808C461 811 461 811 448 813Z"/>
<defs>
	<clipPath id="z30151c1"><use href="#z30151d1"/></clipPath>
	<clipPath id="z30151c2"><use href="#z30151d2"/></clipPath>
	<clipPath id="z30151c3"><use href="#z30151d3"/></clipPath>
	<clipPath id="z30151c4"><use href="#z30151d4"/></clipPath>
	<clipPath id="z30151c5"><use href="#z30151d5"/></clipPath>
	<clipPath id="z30151c6"><use href="#z30151d6"/></clipPath>
	<clipPath id="z30151c7"><use href="#z30151d7"/></clipPath>
	<clipPath id="z30151c8"><use href="#z30151d8"/></clipPath>
	<clipPath id="z30151c9"><use href="#z30151d9"/></clipPath>
	<clipPath id="z30151c10"><use href="#z30151d10"/></clipPath>
<marker id="guide-arrow" viewBox="0 0 16 16" refX="5" refY="5" markerWidth="4" markerHeight="4" orient="auto-start-reverse"><path d="M 0 0 L 10 5 L 0 10 z" fill="inherit"/></marker></defs>
<path style="--d:1s;" pathLength="3333" clip-path="url(#z30151c1)" d="M500 72L592 121L629 167"/>
<path style="--d:2s;" pathLength="3333" clip-path="url(#z30151c2)" d="M374 277L445 285L804 219"/>
<path style="--d:3s;" pathLength="3333" clip-path="url(#z30151c3)" d="M287 247L335 305L300 566L232 755L133 896"/>
<path style="--d:4s;" pathLength="3333" clip-path="url(#z30151c4)" d="M157 330L240 437"/>
<path style="--d:5s;" pathLength="3333" clip-path="url(#z30151c5)" d="M60 636L121 644L275 545"/>
<path style="--d:6s;" pathLength="3333" clip-path="url(#z30151c6)" d="M448 432L519 439L778 388"/>
<path style="--d:7s;" pathLength="3333" clip-path="url(#z30151c7)" d="M570 455L602 478L601 794"/>
<path style="--d:8s;" pathLength="3333" clip-path="url(#z30151c8)" d="M632 615L805 582"/>
<path style="--d:9s;" pathLength="3333" clip-path="url(#z30151c9)" d="M403 572L451 620L469 810"/>
<path style="--d:10s;" pathLength="3333" clip-path="url(#z30151c10)" d="M290 836L348 848L822 794L911 807"/>
<g class="guides"><circle style="--d: 1s" class="g1" cx="500" cy="72" r="16"/><path style="--d: 1s;" class="g1" d="M585.68,3.456000000000003 Q677.68,52.456 682.305,58.206 Q710.055,92.706 714.68,98.456"/><circle style="--d: 2s" class="g2" cx="374" cy="277" r="16"/><path style="--d: 2s;" class="g2" d="M374,373 Q445,381 489.875,372.75 Q759.125,323.25 804,315"/><circle style="--d: 3s" class="g3" cx="287" cy="247" r="16"/><path style="--d: 3s;" class="g3" d="M191,247 Q216.18811881188117,296.4206471494607 207.00495049504948,407.6171032357473 Q197.8217821782178,518.8135593220339 179.98019801980197,599.3351309707242 Q162.13861386138615,679.8567026194145 136.16336633663366,739.9283513097073 Q136.16336633663366,739.9283513097073 110.18811881188117,800"/><circle style="--d: 4s" class="g4" cx="157" cy="330" r="16"/><path style="--d: 4s;" class="g4" d="M242.68,261.456 L325.68,368.456"/><circle style="--d: 5s" class="g5" cx="60" cy="636" r="16"/><path style="--d: 5s;" class="g5" d="M60,540 Q121,548 140.25,535.625 Q255.75,461.375 275,449"/><circle style="--d: 6s" class="g6" cx="448" cy="432" r="16"/><path style="--d: 6s;" class="g6" d="M448,528 Q519,535 551.375,528.625 Q745.625,490.375 778,484"/><circle style="--d: 7s" class="g7" cx="586" cy="467" r="16"/><path style="--d: 7s;" class="g7" d="M706,467 L721,794"/><circle style="--d: 8s" class="g8" cx="632" cy="615" r="16"/><path style="--d: 8s;" class="g8" d="M632,711 L805,678"/><circle style="--d: 9s" class="g9" cx="403" cy="572" r="16"/><path style="--d: 9s;" class="g9" d="M488.68,503.456 Q536.68,551.456 538.93,575.206 Q552.43,717.706 554.68,741.456"/><circle style="--d: 10s" class="g10" cx="290" cy="836" r="16"/><path style="--d: 10s;" class="g10" d="M290,932 Q348,944 466.5,930.5 Q822,890 844.25,893.25 Q888.75,899.75 911,903"/></g></svg>