<!--
  Stroke-order data for 痔, derived from AnimCJK (https://github.com/parsimonhi/animCJK),
  itself derived from the Arphic PL KaitiM fonts. Distributed under the Arphic Public License
  (see ARPHICPL.TXT). Regenerated by scripts/build-strokes.ts — do not edit by hand.
-->
<svg id="z30164" class="acjk" viewBox="0 0 1024 1024" xmlns="http://www.w3.org/2000/svg">
<g class="glyph"><path id="z30164d1" d="M508 86C539 115 566 138 593 146C603 148 612 142 618 132C622 122 623 110 619 98C607 67 572 49 518 41C505 38 496 40 489 43C484 44 483 48 486 58C488 66 496 74 508 86Z"/><path id="z30164d2" d="M360 243C426 250 651 218 784 173C792 170 798 161 794 155C790 148 779 140 762 136C742 130 706 140 654 156C554 184 454 201 354 211C343 213 349 243 360 243Z"/><path id="z30164d3" d="M275 529C252 660 181 770 77 859C34 894 69 894 107 872C210 810 282 698 311 599C347 473 352 294 360 243C362 232 362 218 354 211C322 185 303 178 281 182C266 183 266 191 276 208C302 264 288 383 281 494C280 505 277 517 275 529Z"/><path id="z30164d4" d="M130 329C165 385 193 414 211 417C221 418 229 413 234 401C237 392 237 379 230 365C217 339 185 318 138 301C131 298 128 302 126 311C124 315 125 321 130 329Z"/><path id="z30164d5" d="M281 494C149 552 72 580 52 583C43 584 39 589 39 596C38 604 41 611 48 615C63 623 82 633 105 641C111 643 118 639 125 633C145 612 195 577 275 529C285 523 292 490 281 494Z"/><path id="z30164d6" d="M603 360C648 351 706 340 742 328C764 319 726 298 716 297C677 289 642 309 608 318C571 327 571 327 552 331C518 338 481 340 444 344C423 345 418 356 435 364C479 383 514 376 554 369C587 363 587 363 603 360Z"/><path id="z30164d7" d="M591 447C593 417 599 388 603 360C606 332 606 332 608 318C611 290 628 266 606 252C587 239 569 234 556 232C536 228 526 240 536 255C542 265 549 290 552 331C553 356 553 356 554 369C555 396 554 452 554 452C554 464 591 459 591 447Z"/><path id="z30164d8" d="M646 474C698 468 761 464 836 464C874 464 895 461 899 455C902 448 898 440 889 433C859 409 831 400 808 407C728 427 656 438 591 447C566 450 566 450 554 452C491 460 425 470 355 480C342 481 340 486 350 497C358 505 368 511 379 514C391 516 402 516 412 514C496 490 560 482 606 478C633 475 633 475 646 474Z"/><path id="z30164d9" d="M687 610C719 608 767 606 833 607C858 607 858 588 845 577C827 563 809 554 791 551C755 547 721 560 690 566C654 573 654 573 636 576C546 592 446 602 367 612C354 613 352 618 362 629C370 637 380 643 391 646C403 648 414 649 424 647C494 627 565 617 637 613C670 611 670 611 687 610Z"/><path id="z30164d10" d="M600 856C574 850 548 843 522 840C500 837 515 854 523 860C577 899 614 933 636 958C645 969 655 969 666 960C689 937 699 903 697 855C692 752 681 690 687 610C689 581 689 581 690 566C694 496 714 504 646 474C634 469 599 467 606 478C622 508 635 545 636 576C637 601 637 601 637 613C639 702 638 767 635 807C633 833 629 862 600 856Z"/><path id="z30164d11" d="M443 714C457 727 471 743 486 761C492 769 500 774 510 774C516 774 521 770 525 763C528 754 529 742 525 725C520 704 492 687 443 672C434 669 427 667 424 669C420 670 419 676 420 684C420 690 428 700 443 714Z"/></g>
<defs><clipPath id="z30164c1"><use href="#z30164d1"/></clipPath>
	<clipPath id="z30164c2"><use href="#z30164d2"/></clipPath>
	<clipPath id="z30164c3"><use href="#z30164d3"/></clipPath>
	<clipPath id="z30164c4"><use href="#z30164d4"/></clipPath>
	<clipPath id="z30164c5"><use href="#z30164d5"/></clipPath>
	<clipPath id="z30164c6"><use href="#z30164d6"/></clipPath>
	<clipPath id="z30164c7"><use href="#z30164d7"/></clipPath>
	<clipPath id="z30164c8"><use href="#z30164d8"/></clipPath>
	<clipPath id="z30164c9"><use href="#z30164d9"/></clipPath>
	<clipPath id="z30164c10"><use href="#z30164d10"/></clipPath>
	<clipPath id="z30164c11"><use href="#z30164d11"/></clipPath><marker id="guide-arrow" viewBox="0 0 16 16" refX="5" refY="5" markerWidth="4" markerHeight="4" orient="auto-start-reverse"><path d="M 0 0 L 10 5 L 0 10 z" fill="inherit"/></marker></defs>
<g class="strokes"><path pathLength="3333" clip-path="url(#z30164c1)" d="M489 52L578 98L608 140"/><path pathLength="3333" clip-path="url(#z30164c2)" d="M353 222L790 156"/><path pathLength="3333" clip-path="url(#z30164c3)" d="M276 189L324 243L288 587L199 761L65 880"/><path pathLength="3333" clip-path="url(#z30164c4)" d="M132 309L221 410"/><path pathLength="3333" clip-path="url(#z30164c5)" d="M43 592L104 605L280 503"/><path pathLength="3333" clip-path="url(#z30164c6)" d="M433 352L741 320"/><path pathLength="3333" clip-path="url(#z30164c7)" d="M541 241L582 283L566 455"/><path pathLength="3333" clip-path="url(#z30164c8)" d="M351 485L412 493L818 435L895 445"/><path pathLength="3333" clip-path="url(#z30164c9)" d="M363 617L413 627L780 578L849 591"/><path pathLength="3333" clip-path="url(#z30164c10)" d="M614 479L661 521L661 862L638 914L519 846"/><path pathLength="3333" clip-path="url(#z30164c11)" d="M427 675L497 730L511 769"/></g>
<g class="guides"><text class="g1" style="--gs:1" x="489" y="52">①</text><path class="g1 aligned" style="--gs:1" d="M489,52 Q578,98 581.75,103.25 Q604.25,134.75 608,140"/><path class="g1 offset" style="--gs:1" d="M574.68,-16.54 Q663.68,29.46 667.43,34.71 Q689.93,66.21 693.68,71.46"/><text class="g2" style="--gs:2" x="353" y="222">②</text><path class="g2 aligned" style="--gs:2" d="M353,222 L790,156"/><path class="g2 offset" style="--gs:2" d="M353,318 L790,252"/><text class="g3" style="--gs:3" x="276" y="189">③</text><path class="g3 aligned" style="--gs:3" d="M276,189 Q324,243 306,415 Q288,587 243.5,674 Q199,761 132,820.5 Q132,820.5 65,880"/><path class="g3 offset" style="--gs:3" d="M180,189 Q210.21,235.5 198.88,383.6 Q187.55,531.71 159.55,606.62 Q131.54,681.53 89.37,732.77 Q89.37,732.77 47.21,784"/><text class="g4" style="--gs:4" x="132" y="309">④</text><path class="g4 aligned" style="--gs:4" d="M132,309 L221,410"/><path class="g4 offset" style="--gs:4" d="M217.68,240.46 L306.68,341.46"/><text class="g5" style="--gs:5" x="43" y="592">⑤</text><path class="g5 aligned" style="--gs:5" d="M43,592 Q104,605 126,592.25 Q258,515.75 280,503"/><path class="g5 offset" style="--gs:5" d="M43,688 Q104,701 126,688.25 Q258,611.75 280,599"/><text class="g6" style="--gs:6" x="433" y="352">⑥</text><path class="g6 aligned" style="--gs:6" d="M433,352 L741,320"/><path class="g6 offset" style="--gs:6" d="M433,448 L741,416"/><text class="g7" style="--gs:7" x="541" y="241">⑦</text><path class="g7 aligned" style="--gs:7" d="M541,241 Q582,283 580,304.5 Q568,433.5 566,455"/><path class="g7 offset" style="--gs:7" d="M445,241 Q486,283 484,304.5 Q472,433.5 470,455"/><text class="g8" style="--gs:8" x="351" y="485">⑧</text><path class="g8 aligned" style="--gs:8" d="M351,485 Q412,493 513.5,478.5 Q818,435 837.25,437.5 Q875.75,442.5 895,445"/><path class="g8 offset" style="--gs:8" d="M351,581 Q412,589 513.5,574.5 Q818,531 837.25,533.5 Q875.75,538.5 895,541"/><text class="g9" style="--gs:9" x="363" y="617">⑨</text><path class="g9 aligned" style="--gs:9" d="M363,617 Q413,627 504.75,614.75 Q780,578 797.25,581.25 Q831.75,587.75 849,591"/><path class="g9 offset" style="--gs:9" d="M363,713 Q413,723 504.75,710.75 Q780,674 797.25,677.25 Q831.75,683.75 849,687"/><text class="g10" style="--gs:10" x="614" y="479">⑩</text><path class="g10 aligned" style="--gs:10" d="M614,479 Q661,521 661,691.5 Q661,862 649.5,888 Q638,914 578.5,880 Q578.5,880 519,846"/><path class="g10 offset" style="--gs:10" d="M518,479 Q541.5,511.73 541.5,644.6 Q541.5,777.48 535.75,797.74 Q530,818 500.25,791.5 Q500.25,791.5 470.5,765.01"/><text class="g11" style="--gs:11" x="427" y="675">⑪</text><path class="g11 aligned" style="--gs:11" d="M427,675 L504,750"/><path class="g11 offset" style="--gs:11" d="M512.68,606.46 L589.68,681.46"/></g>
</svg>
