<!--
  Stroke-order data for 痴, derived from AnimCJK (https://github.com/parsimonhi/animCJK),
  itself derived from the Arphic PL KaitiM fonts. Distributed under the Arphic Public License
  (see ARPHICPL.TXT). Regenerated by scripts/build-strokes.ts — do not edit by hand.
-->
<svg id="z30196" class="acjk" viewBox="0 0 1024 1024" xmlns="http://www.w3.org/2000/svg">
<g class="glyph"><path id="z30196d1" d="M509 101Q540 123 574 150Q589 162 606 160Q616 159 621 144Q624 128 612 98Q597 64 499 52Q483 49 476 53Q472 57 474 71Q478 81 509 101Z"/><path id="z30196d2" d="M356 284Q386 294 472 283Q592 264 718 242Q784 229 793 221Q803 214 799 204Q792 191 762 183Q735 177 650 201Q497 240 350 251C339 251 345 282 356 284Z"/><path id="z30196d3" d="M270 557Q234 743 77 876Q61 889 58 895Q55 902 68 902Q108 905 196 819Q289 723 320 561Q341 461 350 311Q353 295 356 284C358 273 359 258 350 251Q347 248 343 246Q294 219 277 222Q256 225 272 248Q302 305 276 520Q276 521 276 525C272 546 272 546 270 557Z"/><path id="z30196d4" d="M135 363Q163 418 192 439Q205 445 215 434Q224 424 225 409Q222 364 154 331Q141 324 131 325Q125 325 125 337Q124 347 135 363Z"/><path id="z30196d5" d="M276 525Q83 615 50 619Q38 623 38 632Q38 645 48 651Q72 663 105 676Q115 677 126 667Q153 634 270 557C279 551 286 521 276 525Z"/><path id="z30196d6" d="M440 458C475 412 497 381 513 370C524 361 525 351 516 343C487 319 460 314 440 323C433 325 432 330 436 338C442 351 427 395 392 467C379 491 363 515 351 543C346 553 353 559 360 553C386 528 404 503 420 484C433 467 433 467 440 458Z"/><path id="z30196d7" d="M494 487C505 485 530 475 604 453C618 448 627 444 630 442C634 436 635 430 632 426C627 419 615 415 597 413C578 411 560 415 543 424C526 431 509 438 491 445C474 450 457 454 440 458C429 460 410 480 420 484C428 486 439 492 454 491C481 488 481 488 494 487Z"/><path id="z30196d8" d="M511 632Q617 607 623 600Q630 593 627 586Q620 576 595 570Q568 566 520 586C483 597 483 597 465 603Q348 625 335 628Q304 634 326 648Q353 663 426 651Q439 647 459 644C494 636 494 636 511 632Z"/><path id="z30196d9" d="M494 695Q503 668 511 632C517 601 517 601 520 586Q523 544 533 523Q540 517 534 508Q528 499 494 487C482 482 451 478 454 491Q454 495 459 502Q469 563 465 603C461 630 461 630 459 644Q432 770 315 841Q293 853 267 868Q245 880 272 879Q287 880 318 869Q358 859 392 838Q446 807 487 714C492 701 492 701 494 695Z"/><path id="z30196d10" d="M487 714Q488 715 490 717Q542 763 603 829Q616 845 628 849Q635 850 641 842Q651 832 640 796Q628 747 494 695C488 692 482 709 487 714Z"/><path id="z30196d11" d="M688 500Q678 493 646 487Q634 483 631 488Q624 494 632 509Q663 585 676 707Q677 743 697 769Q713 790 719 775Q725 759 724 732C721 710 721 710 720 699Q720 698 720 695Q701 566 696 528C694 518 697 504 688 500Z"/><path id="z30196d12" d="M876 675C888 598 908 547 934 520C945 508 945 494 934 484C923 474 898 464 864 451C852 446 823 456 776 475C752 484 722 491 688 500C679 503 686 530 696 528C702 528 744 519 822 501C828 499 834 499 838 503C846 510 850 523 849 540C843 588 835 633 826 675C823 691 873 691 876 675Z"/><path id="z30196d13" d="M724 732Q734 733 747 731Q793 721 893 711Q903 710 904 701Q904 692 876 675C862 666 842 672 826 675Q765 690 720 699C709 701 713 732 724 732Z"/></g>
<defs><clipPath id="z30196c1"><use href="#z30196d1"/></clipPath>
	<clipPath id="z30196c2"><use href="#z30196d2"/></clipPath>
	<clipPath id="z30196c3"><use href="#z30196d3"/></clipPath>
	<clipPath id="z30196c4"><use href="#z30196d4"/></clipPath>
	<clipPath id="z30196c5"><use href="#z30196d5"/></clipPath>
	<clipPath id="z30196c6"><use href="#z30196d6"/></clipPath>
	<clipPath id="z30196c7"><use href="#z30196d7"/></clipPath>
	<clipPath id="z30196c8"><use href="#z30196d8"/></clipPath>
	<clipPath id="z30196c9"><use href="#z30196d9"/></clipPath>
	<clipPath id="z30196c10"><use href="#z30196d10"/></clipPath>
	<clipPath id="z30196c11"><use href="#z30196d11"/></clipPath>
	<clipPath id="z30196c12"><use href="#z30196d12"/></clipPath>
	<clipPath id="z30196c13"><use href="#z30196d13"/></clipPath><marker id="guide-arrow" viewBox="0 0 16 16" refX="5" refY="5" markerWidth="4" markerHeight="4" orient="auto-start-reverse"><path d="M 0 0 L 10 5 L 0 10 z" fill="inherit"/></marker></defs>
<g class="strokes"><path pathLength="3333" clip-path="url(#z30196c1)" d="M481 56L616 148"/><path pathLength="3333" clip-path="url(#z30196c2)" d="M358 254L430 265L796 206"/><path pathLength="3333" clip-path="url(#z30196c3)" d="M272 228L320 291L283 608L197 783L67 897"/><path pathLength="3333" clip-path="url(#z30196c4)" d="M134 331L209 436"/><path pathLength="3333" clip-path="url(#z30196c5)" d="M44 633L104 640L269 532"/><path pathLength="3333" clip-path="url(#z30196c6)" d="M443 333L473 360L355 545"/><path pathLength="3333" clip-path="url(#z30196c7)" d="M430 481L629 434"/><path pathLength="3333" clip-path="url(#z30196c8)" d="M326 639L621 583"/><path pathLength="3333" clip-path="url(#z30196c9)" d="M464 500L500 534L447 742L379 821L264 873"/><path pathLength="3333" clip-path="url(#z30196c10)" d="M496 704L599 783L631 844"/><path pathLength="3333" clip-path="url(#z30196c11)" d="M636 494L668 528L712 775"/><path pathLength="3333" clip-path="url(#z30196c12)" d="M696 507L845 475L892 507L852 668L834 669"/><path pathLength="3333" clip-path="url(#z30196c13)" d="M726 704L897 702"/></g>
<g class="guides"><text class="g1" style="--gs:1" x="481" y="56">①</text><path class="g1 aligned" style="--gs:1" d="M481,56 L616,148"/><path class="g1 offset" style="--gs:1" d="M566.68,-12.54 L701.68,79.46"/><text class="g2" style="--gs:2" x="358" y="254">②</text><path class="g2 aligned" style="--gs:2" d="M358,254 Q430,265 475.75,257.63 Q750.25,213.38 796,206"/><path class="g2 offset" style="--gs:2" d="M358,350 Q430,361 475.75,353.63 Q750.25,309.38 796,302"/><text class="g3" style="--gs:3" x="272" y="228">③</text><path class="g3 aligned" style="--gs:3" d="M272,228 Q320,291 301.5,449.5 Q283,608 240,695.5 Q197,783 132,840 Q132,840 67,897"/><path class="g3 offset" style="--gs:3" d="M176,228 Q205.79,281.96 194.31,417.72 Q182.83,553.47 156.14,628.41 Q129.46,703.36 89.12,752.18 Q89.12,752.18 48.79,801"/><text class="g4" style="--gs:4" x="134" y="331">④</text><path class="g4 aligned" style="--gs:4" d="M134,331 L209,436"/><path class="g4 offset" style="--gs:4" d="M219.68,262.46 L294.68,367.46"/><text class="g5" style="--gs:5" x="44" y="633">⑤</text><path class="g5 aligned" style="--gs:5" d="M44,633 Q104,640 124.63,626.5 Q248.38,545.5 269,532"/><path class="g5 offset" style="--gs:5" d="M44,537 Q104,544 124.63,530.5 Q248.38,449.5 269,436"/><text class="g6" style="--gs:6" x="443" y="333">⑥</text><path class="g6 aligned" style="--gs:6" d="M458,347 L355,545"/><path class="g6 offset" style="--gs:6" d="M578,347 L475,545"/><text class="g7" style="--gs:7" x="430" y="481">⑦</text><path class="g7 aligned" style="--gs:7" d="M430,481 L629,434"/><path class="g7 offset" style="--gs:7" d="M430,577 L629,530"/><text class="g8" style="--gs:8" x="326" y="639">⑧</text><path class="g8 aligned" style="--gs:8" d="M326,639 L621,583"/><path class="g8 offset" style="--gs:8" d="M326,735 L621,679"/><text class="g9" style="--gs:9" x="464" y="500">⑨</text><path class="g9 aligned" style="--gs:9" d="M464,500 Q500,534 473.5,638 Q447,742 413,781.5 Q379,821 321.5,847 Q321.5,847 264,873"/><path class="g9 offset" style="--gs:9" d="M368,500 Q389.36,525.25 373.64,602.48 Q357.92,679.72 337.75,709.05 Q317.58,738.38 283.47,757.69 Q283.47,757.69 249.36,777"/><text class="g10" style="--gs:10" x="496" y="704">⑩</text><path class="g10 aligned" style="--gs:10" d="M496,704 Q599,783 603,790.63 Q627,836.38 631,844"/><path class="g10 offset" style="--gs:10" d="M581.68,635.46 Q684.68,714.46 688.68,722.08 Q712.68,767.83 716.68,775.46"/><text class="g11" style="--gs:11" x="636" y="494">⑪</text><path class="g11 aligned" style="--gs:11" d="M636,494 Q668,528 673.5,558.88 Q706.5,744.13 712,775"/><path class="g11 offset" style="--gs:11" d="M721.68,425.46 Q753.68,459.46 759.18,490.33 Q792.18,675.58 797.68,706.46"/><text class="g12" style="--gs:12" x="696" y="507">⑫</text><path class="g12 aligned" style="--gs:12" d="M696,507 Q845,475 856.75,483 Q892,507 879.75,547.5 Q855.25,628.5 843,669"/><path class="g12 offset" style="--gs:12" d="M696,603 Q770.5,571 776.38,579 Q794,603 787.88,619.5 Q775.63,652.5 769.5,669"/><text class="g13" style="--gs:13" x="726" y="704">⑬</text><path class="g13 aligned" style="--gs:13" d="M726,704 L897,702"/><path class="g13 offset" style="--gs:13" d="M726,800 L897,798"/></g>
</svg>
