<svg id="z30219" class="acjk" viewBox="0 0 1024 1024" xmlns="http://www.w3.org/2000/svg">
<style>

@keyframes zk {
	to {
		stroke-dashoffset:0;
	}
}
svg.acjk path[clip-path] {
	--t:0.8s;
	animation:zk var(--t) linear forwards var(--d);
	stroke-dasharray:3337;
	stroke-dashoffset:3339;
	stroke-width:128;
	stroke-linecap:round;
	fill:none;
	stroke:#000;
}
svg.acjk path[id] {fill:#ccc;}


    @keyframes guide-fade {
        0% { opacity: 0; }
        3% { opacity: 1; }
        95% { opacity: 1; }
        100% { opacity: 0; }
    }

    svg.acjk #guide-arrow {
        fill: #f77;
    }

    svg.acjk .guides {
        circle {
            fill: #0f6;
        }

        path {
            opacity: 0;
            animation: guide-fade var(--t) linear forwards var(--d);
            stroke-width: 16px;
            stroke-linecap: round;
            stroke: #f77;
            fill: none;
            marker-end: url(#guide-arrow);
        }

        circle,
        path {
            --t: 0.8s;
            opacity: 0;
            animation: guide-fade calc(var(--t) + 0.4s) ease-in-out forwards calc(var(--d) - 0.2s);
        }
    }
</style>
<path id="z30219d1" d="M512 101Q536 120 562 142Q577 154 593 152Q605 151 609 136Q612 120 600 90Q590 65 503 52Q487 49 480 53Q476 57 478 71Q482 81 512 101Z"/>
<path id="z30219d2" d="M337 263C356 267 382 267 415 265C459 261 523 246 684 215C724 207 747 198 754 193C760 187 762 182 759 176C754 167 742 157 722 156C690 153 659 161 584 185C511 208 372 227 328 231C317 231 326 261 337 263Z"/>
<path id="z30219d3" d="M272 549C254 692 140 820 86 884C82 887 89 894 96 891C216 828 301 667 318 560C333 454 332 284 337 263C339 252 337 238 328 231C303 213 275 205 260 208C247 209 246 218 257 234C289 273 283 457 277 509C274 536 274 536 272 549Z"/>
<path id="z30219d4" d="M140 414C165 447 184 472 205 483C214 487 224 483 231 475C236 467 238 456 237 445C235 428 228 414 217 405C187 381 161 371 141 371C136 370 132 371 130 372C125 373 124 376 125 385C125 393 131 402 140 414Z"/>
<path id="z30219d5" d="M277 509C165 593 94 639 65 650C56 653 54 659 55 666C56 674 60 681 69 684C86 689 107 693 132 697C138 697 145 693 151 685C167 659 207 613 272 549C282 539 288 501 277 509Z"/>
<path id="z30219d6" d="M428 365C420 359 409 354 398 349C381 341 353 346 367 364C382 384 391 423 390 480C385 630 342 756 272 889C255 919 276 916 299 889C394 773 425 612 433 480C435 434 437 406 441 394C443 384 436 371 428 365Z"/>
<path id="z30219d7" d="M441 394C445 394 535 374 710 338C737 332 742 354 741 375C722 681 768 866 881 929C900 939 933 954 953 943C961 937 962 929 960 916C949 861 946 804 945 746C944 710 936 716 931 737C920 780 909 811 900 831C890 851 879 851 864 838C795 779 768 648 788 436C790 407 805 378 833 349C842 338 841 330 830 321C820 313 798 299 762 281C747 273 736 276 722 287C684 314 585 339 428 365C418 367 431 396 441 394Z"/>
<path id="z30219d8" d="M577 474C601 465 639 448 664 439C682 432 685 421 673 412C659 401 640 393 626 389C611 386 594 381 594 400C593 419 549 450 464 499C459 501 461 507 465 508C471 508 498 501 543 486C566 478 566 478 577 474Z"/>
<path id="z30219d9" d="M480 580C475 577 465 574 449 573C432 571 435 582 440 591C452 615 464 646 474 686C476 698 481 708 488 716C497 726 502 728 505 720C505 717 507 714 507 710C506 700 505 691 504 682C498 651 493 619 491 605C490 596 488 583 480 580Z"/>
<path id="z30219d10" d="M682 655C692 624 705 603 720 590C729 580 729 569 721 562C712 554 694 545 668 534C660 530 636 541 595 553C569 560 569 560 556 564C531 570 506 574 480 580C471 582 483 608 491 605C512 598 536 594 556 590C582 585 582 585 595 582C619 576 651 567 650 597C650 608 648 624 645 645C642 658 677 667 682 655Z"/>
<path id="z30219d11" d="M594 694C618 689 649 685 687 679C708 675 698 662 682 655C671 648 658 643 645 645C635 645 619 652 595 659C570 666 570 666 557 670C538 675 520 678 504 682C495 684 498 712 507 710C511 710 527 706 558 701C582 696 582 696 594 694Z"/>
<path id="z30219d12" d="M594 785C594 785 593 724 594 694C595 671 595 671 595 659C595 633 595 607 595 582C595 563 595 563 595 553C595 489 608 496 577 474C568 466 539 475 543 486C549 506 556 531 556 564C556 581 556 581 556 590C556 610 555 637 557 670C558 691 558 691 558 701C558 731 558 794 558 794C558 806 594 797 594 785Z"/>
<path id="z30219d13" d="M652 771C632 775 612 780 594 785C570 791 570 791 558 794C531 800 503 806 474 813C451 818 428 819 408 818C399 817 395 822 394 828C392 836 393 843 399 848C412 859 428 870 448 882C454 885 461 883 469 879C529 844 605 815 666 791C674 788 660 769 652 771Z"/>
<path id="z30219d14" d="M666 791C679 810 692 834 706 858C710 866 716 871 724 873C728 874 733 872 738 867C742 861 744 850 745 835C745 811 717 777 659 735C652 730 647 729 644 730C641 730 638 734 638 741C637 751 645 761 652 771C661 784 661 784 666 791Z"/>
<defs>
	<clipPath id="z30219c1"><use href="#z30219d1"/></clipPath>
	<clipPath id="z30219c2"><use href="#z30219d2"/></clipPath>
	<clipPath id="z30219c3"><use href="#z30219d3"/></clipPath>
	<clipPath id="z30219c4"><use href="#z30219d4"/></clipPath>
	<clipPath id="z30219c5"><use href="#z30219d5"/></clipPath>
	<clipPath id="z30219c6"><use href="#z30219d6"/></clipPath>
	<clipPath id="z30219c7"><use href="#z30219d7"/></clipPath>
	<clipPath id="z30219c8"><use href="#z30219d8"/></clipPath>
	<clipPath id="z30219c9"><use href="#z30219d9"/></clipPath>
	<clipPath id="z30219c10"><use href="#z30219d10"/></clipPath>
	<clipPath id="z30219c11"><use href="#z30219d11"/></clipPath>
	<clipPath id="z30219c12"><use href="#z30219d12"/></clipPath>
	<clipPath id="z30219c13"><use href="#z30219d13"/></clipPath>
	<clipPath id="z30219c14"><use href="#z30219d14"/></clipPath>
<marker id="guide-arrow" viewBox="0 0 16 16" refX="5" refY="5" markerWidth="4" markerHeight="4" orient="auto-start-reverse"><path d="M 0 0 L 10 5 L 0 10 z" fill="inherit"/></marker></defs>
<path style="--d:1s;" pathLength="3333" clip-path="url(#z30219c1)" d="M485 59L604 140"/>
<path style="--d:2s;" pathLength="3333" clip-path="url(#z30219c2)" d="M328 240L416 242L755 181"/>
<path style="--d:3s;" pathLength="3333" clip-path="url(#z30219c3)" d="M256 215L304 259L287 595L219 744L92 886"/>
<path style="--d:4s;" pathLength="3333" clip-path="url(#z30219c4)" d="M132 380L198 432L220 479"/>
<path style="--d:5s;" pathLength="3333" clip-path="url(#z30219c5)" d="M59 666L126 659L278 515"/>
<path style="--d:6s;" pathLength="3333" clip-path="url(#z30219c6)" d="M369 351L413 399L397 605L346 777L273 903"/>
<path style="--d:7s;" pathLength="3333" clip-path="url(#z30219c7)" d="M430 370L752 313L790 351L766 403L759 542L798 787L856 871L925 895L938 732"/>
<path style="--d:8s;" pathLength="3333" clip-path="url(#z30219c8)" d="M604 389L627 427L467 502"/>
<path style="--d:9s;" pathLength="3333" clip-path="url(#z30219c9)" d="M443 578L469 600L500 717"/>
<path style="--d:10s;" pathLength="3333" clip-path="url(#z30219c10)" d="M480 588L657 559L688 580L664 658"/>
<path style="--d:11s;" pathLength="3333" clip-path="url(#z30219c11)" d="M501 698L694 669"/>
<path style="--d:12s;" pathLength="3333" clip-path="url(#z30219c12)" d="M549 485L575 511L572 796"/>
<path style="--d:13s;" pathLength="3333" clip-path="url(#z30219c13)" d="M399 827L456 849L662 783"/>
<path style="--d:14s;" pathLength="3333" clip-path="url(#z30219c14)" d="M646 737L731 869"/>
<g class="guides"><circle style="--d: 1s" class="g1" cx="485" cy="59" r="16"/><path style="--d: 1s;" class="g1" d="M570.68,-9.543999999999997 L689.68,71.456"/><circle style="--d: 2s" class="g2" cx="328" cy="240" r="16"/><path style="--d: 2s;" class="g2" d="M328,336 Q416,338 458.375,330.375 Q712.625,284.625 755,277"/><circle style="--d: 3s" class="g3" cx="256" cy="215" r="16"/><path style="--d: 3s;" class="g3" d="M160,215 Q186.2641509433962,252.70491803278688 181.6132075471698,396.6691505216096 Q176.96226415094338,540.6333830104322 158.35849056603774,604.4746646795827 Q139.75471698113208,668.3159463487332 105.00943396226415,729.1579731743666 Q105.00943396226415,729.1579731743666 70.26415094339623,790"/><circle style="--d: 4s" class="g4" cx="132" cy="380" r="16"/><path style="--d: 4s;" class="g4" d="M217.68,311.456 Q283.68,363.456 286.43,369.331 Q302.93,404.581 305.68,410.456"/><circle style="--d: 5s" class="g5" cx="59" cy="666" r="16"/><path style="--d: 5s;" class="g5" d="M59,570 Q126,563 145,545 Q259,437 278,419"/><circle style="--d: 6s" class="g6" cx="369" cy="351" r="16"/><path style="--d: 6s;" class="g6" d="M273,351 Q317,399 309,502 Q301,605 275.5,691 Q250,777 213.5,840 Q213.5,840 177,903"/><circle style="--d: 7s" class="g7" cx="430" cy="370" r="16"/><path style="--d: 7s;" class="g7" d="M430,466 Q675.9370078740158,427.8041237113402 690.4488188976378,440.53608247422676 Q704.9606299212599,453.2680412371134 695.7952755905512,470.69072164948454 Q686.6299212598425,488.11340206185565 683.9566929133858,534.6855670103092 Q681.2834645669292,581.2577319587629 696.1771653543308,663.3453608247423 Q711.0708661417323,745.4329896907217 733.2204724409448,773.5773195876288 Q755.3700787401575,801.7216494845361 781.7204724409448,809.7628865979382 Q808.0708661417323,817.8041237113403 813.0354330708661,763.1907216494845 Q813.0354330708661,763.1907216494845 818,708.5773195876288"/><circle style="--d: 8s" class="g8" cx="604" cy="389" r="16"/><path style="--d: 8s;" class="g8" d="M508,389 Q519.5,408 509.5,412.6875 Q449.5,440.8125 439.5,445.5"/><circle style="--d: 9s" class="g9" cx="456" cy="589" r="16"/><path style="--d: 9s;" class="g9" d="M576,589 L620,717"/><circle style="--d: 10s" class="g10" cx="480" cy="588" r="16"/><path style="--d: 10s;" class="g10" d="M480,684 Q568.5,655 572.375,660.25 Q584,676 581,683.125 Q575,697.375 572,704.5"/><circle style="--d: 11s" class="g11" cx="501" cy="698" r="16"/><path style="--d: 11s;" class="g11" d="M501,794 L694,765"/><circle style="--d: 12s" class="g12" cx="562" cy="498" r="16"/><path style="--d: 12s;" class="g12" d="M682,498 L692,796"/><circle style="--d: 13s" class="g13" cx="399" cy="827" r="16"/><path style="--d: 13s;" class="g13" d="M399,923 Q456,945 481.75,936.75 Q636.25,887.25 662,879"/><circle style="--d: 14s" class="g14" cx="646" cy="737" r="16"/><path style="--d: 14s;" class="g14" d="M731.68,668.456 L816.68,800.456"/></g></svg>