<svg id="z30221" class="acjk" viewBox="0 0 1024 1024" xmlns="http://www.w3.org/2000/svg">
<style>

@keyframes zk {
	to {
		stroke-dashoffset:0;
	}
}
svg.acjk path[clip-path] {
	--t:0.8s;
	animation:zk var(--t) linear forwards var(--d);
	stroke-dasharray:3337;
	stroke-dashoffset:3339;
	stroke-width:128;
	stroke-linecap:round;
	fill:none;
	stroke:#000;
}
svg.acjk path[id] {fill:#ccc;}


    @keyframes guide-fade {
        0% { opacity: 0; }
        3% { opacity: 1; }
        95% { opacity: 1; }
        100% { opacity: 0; }
    }

    svg.acjk #guide-arrow {
        fill: #f77;
    }

    svg.acjk .guides {
        circle {
            fill: #0f6;
        }

        path {
            opacity: 0;
            animation: guide-fade var(--t) linear forwards var(--d);
            stroke-width: 16px;
            stroke-linecap: round;
            stroke: #f77;
            fill: none;
            marker-end: url(#guide-arrow);
        }

        circle,
        path {
            --t: 0.8s;
            opacity: 0;
            animation: guide-fade calc(var(--t) + 0.4s) ease-in-out forwards calc(var(--d) - 0.2s);
        }
    }
</style>
<path id="z30221d1" d="M528 78C545 89 563 102 582 117C590 123 599 125 607 125C612 124 616 120 619 112C620 103 618 91 611 75C607 65 596 56 577 50C533 39 508 36 501 40C499 43 498 47 499 54C502 60 511 68 528 78Z"/>
<path id="z30221d2" d="M370 204C396 214 424 216 455 210C535 196 638 180 723 164C761 156 784 150 790 145C796 141 797 135 795 128C790 120 778 113 758 107C740 100 658 120 595 137C505 155 465 166 367 173C366 173 365 174 365 174C355 176 361 200 370 204Z"/>
<path id="z30221d3" d="M278 493C254 616 199 740 115 865C112 870 110 874 108 878C106 885 108 888 116 887C140 883 177 841 229 762C239 744 250 724 262 702C310 600 340 487 352 363C356 315 362 229 370 204C373 194 372 181 365 174C354 164 340 155 323 147C310 139 299 137 291 140C282 145 280 152 285 161C299 186 302 285 298 334C295 377 290 418 284 458C280 481 280 481 278 493Z"/>
<path id="z30221d4" d="M133 345C159 377 183 398 205 408C213 411 221 408 227 399C231 391 232 382 231 372C223 346 194 325 145 310C135 308 127 307 121 309C117 310 116 314 118 321C118 328 123 336 133 345Z"/>
<path id="z30221d5" d="M284 458C156 540 78 585 52 592C45 595 42 600 42 606C42 615 46 621 54 624C70 630 90 636 114 641C120 642 127 638 133 630C145 610 192 566 274 496C274 494 276 493 278 493C287 486 293 451 284 458Z"/>
<path id="z30221d6" d="M489 260C479 255 464 251 453 251C446 249 436 257 442 271C458 305 479 384 482 402C482 418 488 432 499 443C509 455 515 457 518 448C518 446 519 443 520 439C523 431 522 423 520 415C520 411 516 392 510 357C507 342 507 342 506 334C502 312 499 295 499 285C499 276 497 263 489 260Z"/>
<path id="z30221d7" d="M627 424C637 438 646 448 656 453C662 457 670 453 678 441C684 429 695 389 711 321C715 305 724 290 738 276C744 270 744 263 739 255C730 247 714 235 691 221C683 217 660 220 622 229C620 229 583 237 533 249C504 256 504 256 489 260C480 262 491 288 499 285C528 275 580 264 634 254C644 252 653 253 659 256C665 262 667 270 666 280C654 356 643 397 633 402C628 407 622 418 627 424Z"/>
<path id="z30221d8" d="M510 357C543 351 582 345 606 341C618 339 622 335 617 327C610 320 600 316 587 314C567 312 533 320 506 334C499 338 502 359 510 357Z"/>
<path id="z30221d9" d="M520 439C524 435 566 429 627 424C635 424 638 407 633 402C631 400 628 398 626 396C616 393 574 401 520 415C512 417 513 442 520 439Z"/>
<path id="z30221d10" d="M480 534C574 515 717 505 909 505C919 505 926 503 930 498C932 492 929 485 921 477C893 457 868 448 846 451C740 473 582 496 352 520C339 521 337 526 347 536C355 544 363 549 373 551C385 554 395 554 404 552C417 548 433 544 446 541C469 536 469 536 480 534Z"/>
<path id="z30221d11" d="M466 606C468 600 478 592 495 580C499 576 502 571 502 564C501 557 494 547 480 534C472 526 446 529 446 541C448 560 412 606 340 678C332 682 327 686 325 691C322 695 324 698 331 698C345 698 384 673 449 621C455 616 463 613 466 606Z"/>
<path id="z30221d12" d="M638 615C681 605 720 601 754 601C766 601 773 604 775 608C777 613 776 623 774 639C763 704 750 769 735 802C713 844 696 866 682 868C674 870 649 866 609 856C602 854 599 854 599 858C598 861 601 865 609 870C628 896 642 917 650 936C654 946 660 951 667 953C689 955 714 940 740 909C766 880 798 790 838 671C842 657 849 647 861 639C869 631 873 625 874 620C873 616 867 608 857 598C841 584 822 572 800 562C786 556 755 558 705 570C696 571 686 573 676 576C605 590 535 600 466 606C458 606 442 618 449 621C459 625 473 629 492 631C514 630 514 630 525 629C525 629 526 628 528 628C558 624 586 621 613 619C630 616 630 616 638 615Z"/>
<path id="z30221d13" d="M492 631C492 667 449 736 363 806C357 808 353 812 353 817C352 820 353 821 355 821C386 827 438 776 512 700C512 697 520 689 538 675C542 671 543 664 540 656C535 645 530 636 525 629C519 620 492 620 492 631Z"/>
<path id="z30221d14" d="M613 619C612 620 612 621 613 622C615 668 576 747 496 827C494 828 492 829 491 830C467 852 426 884 368 924C363 926 363 928 369 930C405 930 458 900 530 842C574 798 618 733 660 680C665 673 670 668 674 665C678 663 680 659 680 653C678 640 664 627 638 615C630 612 613 611 613 619Z"/>
<defs>
	<clipPath id="z30221c1"><use href="#z30221d1"/></clipPath>
	<clipPath id="z30221c2"><use href="#z30221d2"/></clipPath>
	<clipPath id="z30221c3"><use href="#z30221d3"/></clipPath>
	<clipPath id="z30221c4"><use href="#z30221d4"/></clipPath>
	<clipPath id="z30221c5"><use href="#z30221d5"/></clipPath>
	<clipPath id="z30221c6"><use href="#z30221d6"/></clipPath>
	<clipPath id="z30221c7"><use href="#z30221d7"/></clipPath>
	<clipPath id="z30221c8"><use href="#z30221d8"/></clipPath>
	<clipPath id="z30221c9"><use href="#z30221d9"/></clipPath>
	<clipPath id="z30221c10"><use href="#z30221d10"/></clipPath>
	<clipPath id="z30221c11"><use href="#z30221d11"/></clipPath>
	<clipPath id="z30221c12"><use href="#z30221d12"/></clipPath>
	<clipPath id="z30221c13"><use href="#z30221d13"/></clipPath>
	<clipPath id="z30221c14"><use href="#z30221d14"/></clipPath>
<marker id="guide-arrow" viewBox="0 0 16 16" refX="5" refY="5" markerWidth="4" markerHeight="4" orient="auto-start-reverse"><path d="M 0 0 L 10 5 L 0 10 z" fill="inherit"/></marker></defs>
<path style="--d:1s;" pathLength="3333" clip-path="url(#z30221c1)" d="M504 46L615 117"/>
<path style="--d:2s;" pathLength="3333" clip-path="url(#z30221c2)" d="M372 180L442 188L772 132"/>
<path style="--d:3s;" pathLength="3333" clip-path="url(#z30221c3)" d="M289 146L334 203L296 532L236 700L117 881"/>
<path style="--d:4s;" pathLength="3333" clip-path="url(#z30221c4)" d="M123 312L225 396"/>
<path style="--d:5s;" pathLength="3333" clip-path="url(#z30221c5)" d="M46 606L108 606L278 467"/>
<path style="--d:6s;" pathLength="3333" clip-path="url(#z30221c6)" d="M452 263L475 289L510 446"/>
<path style="--d:7s;" pathLength="3333" clip-path="url(#z30221c7)" d="M496 263L641 238L691 251L704 271L648 446"/>
<path style="--d:8s;" pathLength="3333" clip-path="url(#z30221c8)" d="M513 350L610 332"/>
<path style="--d:9s;" pathLength="3333" clip-path="url(#z30221c9)" d="M527 429L629 409"/>
<path style="--d:10s;" pathLength="3333" clip-path="url(#z30221c10)" d="M352 530L840 478L925 487"/>
<path style="--d:11s;" pathLength="3333" clip-path="url(#z30221c11)" d="M450 547L460 581L331 692"/>
<path style="--d:12s;" pathLength="3333" clip-path="url(#z30221c12)" d="M456 620L763 580L813 604L824 626L722 880L667 910L608 861"/>
<path style="--d:13s;" pathLength="3333" clip-path="url(#z30221c13)" d="M497 639L507 674L359 814"/>
<path style="--d:14s;" pathLength="3333" clip-path="url(#z30221c14)" d="M619 623L640 664L558 787L373 924"/>
<g class="guides"><circle style="--d: 1s" class="g1" cx="504" cy="46" r="16"/><path style="--d: 1s;" class="g1" d="M589.68,-22.543999999999997 L700.68,48.456"/><circle style="--d: 2s" class="g2" cx="372" cy="180" r="16"/><path style="--d: 2s;" class="g2" d="M372,276 Q442,284 483.25,277 Q730.75,235 772,228"/><circle style="--d: 3s" class="g3" cx="289" cy="146" r="16"/><path style="--d: 3s;" class="g3" d="M193,146 Q218.0921658986175,195.55510204081634 207.49769585253455,338.56938775510207 Q196.9032258064516,481.58367346938775 180.17511520737327,554.6122448979592 Q163.44700460829495,627.6408163265306 130.26958525345623,706.3204081632653 Q130.26958525345623,706.3204081632653 97.09216589861751,785"/><circle style="--d: 4s" class="g4" cx="123" cy="312" r="16"/><path style="--d: 4s;" class="g4" d="M208.68,243.45600000000002 L310.68,327.456"/><circle style="--d: 5s" class="g5" cx="46" cy="606" r="16"/><path style="--d: 5s;" class="g5" d="M46,510 Q108,510 129.25,492.625 Q256.75,388.375 278,371"/><circle style="--d: 6s" class="g6" cx="464" cy="276" r="16"/><path style="--d: 6s;" class="g6" d="M584,276 L630,446"/><circle style="--d: 7s" class="g7" cx="496" cy="263" r="16"/><path style="--d: 7s;" class="g7" d="M496,359 Q568.5,334 581,340.5 Q593.5,347 596.75,349.38461538461536 Q600,351.7692307692308 586,398.88461538461536 Q586,398.88461538461536 572,446"/><circle style="--d: 8s" class="g8" cx="513" cy="350" r="16"/><path style="--d: 8s;" class="g8" d="M513,446 L610,428"/><circle style="--d: 9s" class="g9" cx="527" cy="429" r="16"/><path style="--d: 9s;" class="g9" d="M527,525 L629,505"/><circle style="--d: 10s" class="g10" cx="352" cy="530" r="16"/><path style="--d: 10s;" class="g10" d="M352,626 Q840,574 850.625,575.125 Q914.375,581.875 925,583"/><circle style="--d: 11s" class="g11" cx="455" cy="564" r="16"/><path style="--d: 11s;" class="g11" d="M540.68,632.544 L416.68,760.544"/><circle style="--d: 12s" class="g12" cx="456" cy="620" r="16"/><path style="--d: 12s;" class="g12" d="M456,716 Q682.9130434782609,676 701.391304347826,688 Q719.8695652173913,700 723.9347826086956,699.5 Q728,699 690.304347826087,762.5 Q652.6086956521739,826 632.2826086956522,833.5 Q611.9565217391305,841 590.1521739130435,828.75 Q590.1521739130435,828.75 568.3478260869565,816.5"/><circle style="--d: 13s" class="g13" cx="502" cy="657" r="16"/><path style="--d: 13s;" class="g13" d="M587.68,725.544 L444.68,882.544"/><circle style="--d: 14s" class="g14" cx="619" cy="623" r="16"/><path style="--d: 14s;" class="g14" d="M523,623 Q534.561797752809,650.9235880398671 523.2752808988764,671.8662790697674 Q489.4157303370787,734.6943521594684 463.9522471910112,758.0207641196013 Q413.0252808988764,804.6735880398671 387.56179775280896,828"/></g></svg>