<!--
  Stroke-order data for 盆, derived from AnimCJK (https://github.com/parsimonhi/animCJK),
  itself derived from the Arphic PL KaitiM fonts. Distributed under the Arphic Public License
  (see ARPHICPL.TXT). Regenerated by scripts/build-strokes.ts — do not edit by hand.
-->
<svg id="z30406" class="acjk" viewBox="0 0 1024 1024" xmlns="http://www.w3.org/2000/svg">
<g class="glyph"><path style="--part:1" id="z30406d1" d="M359 176C361 212 331 266 268 335C265 337 262 339 260 342C240 360 206 388 158 425C153 428 153 432 159 433C194 435 248 405 316 348C317 346 318 345 321 343C346 320 377 286 416 240C421 233 425 229 429 227C433 224 436 219 436 213C434 196 420 182 396 171C383 165 373 162 367 163C361 163 358 168 359 176Z"/><path style="--part:1" id="z30406d2" d="M533 104C559 121 598 168 654 241C718 325 765 368 793 370C845 373 894 372 938 369C960 367 970 363 969 357C968 354 958 347 937 339C821 292 745 254 709 224C675 195 640 162 607 124C584 98 563 84 541 84C530 83 523 83 521 87C518 91 523 97 533 104Z"/><path style="--part:1" id="z30406d3" d="M460 381C502 368 542 361 579 356C591 354 597 355 600 359C603 365 603 377 601 395C593 441 585 476 573 497C559 520 540 528 520 525C508 523 496 522 486 521C470 518 467 524 481 537C502 558 518 576 529 592C537 604 546 605 558 599C591 579 624 531 648 447C659 407 666 379 681 366C689 357 692 350 688 344C683 337 664 326 632 310C619 303 607 304 595 312C581 320 547 330 496 342C443 354 394 362 350 365C339 365 333 368 332 374C331 378 338 384 352 392C366 400 380 403 392 400C402 396 415 394 429 390C450 384 450 384 460 381Z"/><path style="--part:1" id="z30406d4" d="M429 390C429 444 386 515 299 603C295 606 293 609 293 613C292 615 293 617 297 617C347 605 411 542 466 470C475 457 482 448 489 441C494 434 494 426 490 419C484 408 474 395 460 381C453 373 429 379 429 390Z"/><path style="--part:2" id="z30406d5" d="M280 672C273 669 265 667 256 665C247 662 240 663 235 668C230 672 231 679 237 688C247 703 258 717 265 735C270 749 280 786 296 846C298 859 339 857 336 844C324 782 318 738 319 713C319 710 318 708 318 707C315 690 296 678 280 672Z"/><path style="--part:2" id="z30406d6" d="M732 815C750 756 765 714 784 692C790 684 794 677 791 669C786 658 764 643 725 623C714 617 704 617 694 619C569 642 431 658 280 672C263 672 302 713 318 707C328 701 356 698 401 691C417 688 417 688 425 687C463 680 502 676 543 670C566 667 566 667 577 665C637 656 675 654 691 664C695 666 698 673 697 685C692 723 684 769 672 822C668 842 728 835 732 815Z"/><path style="--part:2" id="z30406d7" d="M454 837Q457 783 429 695Q428 691 425 687C421 680 400 683 401 691Q414 829 423 838C427 848 454 847 454 837Z"/><path style="--part:2" id="z30406d8" d="M573 829C585 770 597 734 604 722C610 710 607 699 602 691C595 681 587 672 577 665C568 658 539 659 543 670C553 691 548 748 536 832C534 844 571 841 573 829Z"/><path style="--part:2" id="z30406d9" d="M506 873C638 863 788 867 879 881C893 883 903 882 908 876C913 868 912 859 905 852C859 809 813 797 767 809C755 811 743 813 732 815C692 820 692 820 672 822C644 825 591 827 573 829C548 831 548 831 536 832C516 833 464 836 454 837C433 838 433 838 423 838C389 839 360 842 336 844C309 845 309 845 296 846C251 848 198 851 136 849C127 848 122 851 121 859C120 867 125 876 137 886C147 894 162 903 182 911C188 913 197 912 210 909C220 905 250 902 298 895C360 885 429 878 506 873Z"/></g>
<defs><clipPath id="z30406c1"><use href="#z30406d1"/></clipPath>
	<clipPath id="z30406c2"><use href="#z30406d2"/></clipPath>
	<clipPath id="z30406c3"><use href="#z30406d3"/></clipPath>
	<clipPath id="z30406c4"><use href="#z30406d4"/></clipPath>
	<clipPath id="z30406c5"><use href="#z30406d5"/></clipPath>
	<clipPath id="z30406c6"><use href="#z30406d6"/></clipPath>
	<clipPath id="z30406c7"><use href="#z30406d7"/></clipPath>
	<clipPath id="z30406c8"><use href="#z30406d8"/></clipPath>
	<clipPath id="z30406c9"><use href="#z30406d9"/></clipPath><marker id="guide-arrow" viewBox="0 0 16 16" refX="5" refY="5" markerWidth="4" markerHeight="4" orient="auto-start-reverse"><path d="M 0 0 L 10 5 L 0 10 z" fill="inherit"/></marker></defs>
<g class="strokes"><path style="--part:1" pathLength="3333" clip-path="url(#z30406c1)" d="M367 173L393 219L341 287L166 427"/><path style="--part:1" pathLength="3333" clip-path="url(#z30406c2)" d="M529 91L782 318L961 358"/><path style="--part:1" pathLength="3333" clip-path="url(#z30406c3)" d="M338 374L389 381L604 331L643 353L573 542L537 563L482 526"/><path style="--part:1" pathLength="3333" clip-path="url(#z30406c4)" d="M434 395L455 438L301 610"/><path style="--part:2" pathLength="3333" clip-path="url(#z30406c5)" d="M238 670L293 725L321 844"/><path style="--part:2" pathLength="3333" clip-path="url(#z30406c6)" d="M289 673L329 686L701 640L744 678L705 806L679 816"/><path style="--part:2" pathLength="3333" clip-path="url(#z30406c7)" d="M419 693L434 836"/><path style="--part:2" pathLength="3333" clip-path="url(#z30406c8)" d="M550 675L576 720L546 827"/><path style="--part:2" pathLength="3333" clip-path="url(#z30406c9)" d="M126 861L192 881L805 838L908 866"/></g>
<g class="guides"><text class="g1" style="--gs:1" x="367" y="173">①</text><path class="g1 aligned" style="--gs:1" d="M367,173 Q393,219 380,236 Q341,287 297.25,322 Q209.75,392 166,427"/><path class="g1 offset" style="--gs:1" d="M271,173 Q284,201.61 277.5,212.19 Q258,243.91 236.13,265.69 Q192.38,309.23 170.5,331"/><text class="g2" style="--gs:2" x="529" y="91">②</text><path class="g2 aligned" style="--gs:2" d="M529,91 Q782,318 804.38,323 Q938.63,353 961,358"/><path class="g2 offset" style="--gs:2" d="M614.68,22.46 Q817.5,226.11 835.44,230.6 Q943.06,257.51 961,262"/><text class="g3" style="--gs:3" x="338" y="374">③</text><path class="g3 aligned" style="--gs:3" d="M338,374 Q389,381 496.5,356 Q604,331 623.5,342 Q643,353 608,447.5 Q573,542 555,552.5 Q537,563 509.5,544.5 Q509.5,544.5 482,526"/><path class="g3 offset" style="--gs:3" d="M338,470 Q372.95,452 446.61,439.5 Q520.28,427 533.64,438 Q547,449 523.02,490.75 Q499.03,532.5 486.7,537.75 Q474.36,543 455.52,533.75 Q455.52,533.75 436.68,524.5"/><text class="g4" style="--gs:4" x="434" y="395">④</text><path class="g4 aligned" style="--gs:4" d="M434,395 Q455,438 435.75,459.5 Q320.25,588.5 301,610"/><path class="g4 offset" style="--gs:4" d="M338,395 Q348.5,418.8 338.88,430.7 Q281.13,502.1 271.5,514"/><text class="g5" style="--gs:5" x="238" y="670">⑤</text><path class="g5 aligned" style="--gs:5" d="M238,670 Q293,725 296.5,739.88 Q317.5,829.13 321,844"/><path class="g5 offset" style="--gs:5" d="M323.68,601.46 Q378.68,656.46 382.18,671.33 Q403.18,760.58 406.68,775.46"/><text class="g6" style="--gs:6" x="289" y="673">⑥</text><path class="g6 aligned" style="--gs:6" d="M289,673 Q329,686 515,663 Q701,640 722.5,659 Q744,678 718,744.5 Q718,744.5 692,811"/><path class="g6 offset" style="--gs:6" d="M289,769 Q318.45,759 455.4,747.5 Q592.34,736 608.17,745.5 Q624,755 604.86,788.25 Q604.86,788.25 585.71,821.5"/><text class="g7" style="--gs:7" x="419" y="693">⑦</text><path class="g7 aligned" style="--gs:7" d="M419,693 L434,836"/><path class="g7 offset" style="--gs:7" d="M539,693 L554,836"/><text class="g8" style="--gs:8" x="550" y="675">⑧</text><path class="g8 aligned" style="--gs:8" d="M550,675 Q576,720 572.25,733.38 Q549.75,813.63 546,827"/><path class="g8 offset" style="--gs:8" d="M454,675 Q480,720 476.25,733.38 Q453.75,813.63 450,827"/><text class="g9" style="--gs:9" x="126" y="861">⑨</text><path class="g9 aligned" style="--gs:9" d="M126,861 Q192,881 345.25,870.25 Q805,838 830.75,845 Q882.25,859 908,866"/><path class="g9 offset" style="--gs:9" d="M126,957 Q192,977 345.25,966.25 Q805,934 830.75,941 Q882.25,955 908,962"/></g>
<g class="parts"><rect data-part="1" data-literal="分" role="button" tabindex="0" aria-label="Part 分" x="94" y="19" width="930" height="663"/><rect data-part="2" data-literal="皿" data-radical="true" role="button" tabindex="0" aria-label="Part 皿 (radical)" x="54" y="568" width="926" height="385"/></g>
</svg>
