<!--
  Stroke-order data for 看, derived from AnimCJK (https://github.com/parsimonhi/animCJK),
  itself derived from the Arphic PL KaitiM fonts. Distributed under the Arphic Public License
  (see ARPHICPL.TXT). Regenerated by scripts/build-strokes.ts — do not edit by hand.
-->
<svg id="z30475" class="acjk" viewBox="0 0 1024 1024" xmlns="http://www.w3.org/2000/svg">
<g class="glyph"><path style="--part:1" id="z30475d1" d="M493 162C580 144 633 128 657 128C669 128 676 127 679 123C683 116 680 107 674 100C643 66 614 48 588 47C580 46 579 53 578 61C574 81 514 113 393 152C362 161 327 167 291 181C284 183 284 189 289 192C299 196 389 183 444 172C477 165 477 165 493 162Z"/><path style="--part:1" id="z30475d2" d="M478 311C528 301 581 291 635 282C671 275 692 267 698 263C703 258 705 252 703 248C698 238 685 232 668 228C648 222 630 225 610 232C572 244 534 256 495 264C451 272 451 272 429 276C394 282 357 284 318 289C294 291 289 297 307 310C332 326 348 335 372 331C380 329 399 325 414 323C457 315 457 315 478 311Z"/><path style="--part:1" id="z30475d3" d="M427 444C453 440 539 423 691 417C727 415 767 413 809 413C863 412 892 409 896 403C900 394 895 383 884 375C841 344 800 340 756 351C685 367 456 406 442 408C401 413 401 413 380 416C297 426 209 438 117 452C102 454 99 460 112 473C120 482 131 489 146 493C158 496 173 496 186 493C242 476 301 462 364 453C406 447 406 447 427 444Z"/><path style="--part:1" id="z30475d4" d="M391 517C403 492 416 468 427 444C437 420 437 420 442 408C455 376 466 343 478 311C489 280 489 280 495 264C499 251 505 236 515 224C521 214 526 204 523 197C517 181 506 172 493 162C480 152 441 156 444 172C448 196 442 233 429 276C419 307 419 307 414 323C403 355 392 386 380 416C369 441 369 441 364 453C315 564 247 667 154 759C129 783 106 808 82 831C78 834 73 837 71 842C67 848 68 852 77 853C96 854 148 821 222 754C283 695 338 617 374 550C385 528 385 528 391 517Z"/><path style="--part:2" id="z30475d5" d="M417 532C409 525 400 520 391 517C380 512 372 538 374 550C389 634 383 745 368 824C361 857 364 883 386 908C393 915 398 916 405 908C411 899 418 888 421 874C423 863 425 852 426 841C427 813 430 798 430 773C430 756 430 756 430 748C430 723 431 698 431 672C431 655 431 655 431 646C431 604 432 576 435 563C437 551 427 539 417 532Z"/><path style="--part:2" id="z30475d6" d="M632 856C639 881 644 903 660 928C666 939 673 945 681 945C691 944 701 932 711 909C721 882 726 854 723 824C717 769 708 693 702 594C700 573 705 555 716 540C721 531 721 524 715 518C702 505 677 491 644 476C630 470 621 471 611 477C573 496 508 513 417 532C405 534 423 565 435 563C447 562 500 550 597 528C611 524 623 525 631 532C644 541 649 629 651 797C651 814 648 824 640 833C635 839 630 848 632 856Z"/><path style="--part:2" id="z30475d7" d="M431 672C433 672 438 673 444 672C498 662 546 654 587 649C601 646 606 639 601 632C594 620 581 615 565 613C547 610 503 622 431 646C423 649 422 672 431 672Z"/><path style="--part:2" id="z30475d8" d="M430 773C434 773 440 774 448 773C502 764 550 757 590 752C606 749 610 743 605 736C598 725 585 719 569 717C553 714 508 724 430 748C422 751 422 773 430 773Z"/><path style="--part:2" id="z30475d9" d="M421 874C425 874 429 873 433 873C461 867 518 861 568 857C589 855 611 852 632 856C640 858 646 838 640 833C634 828 626 820 616 816C604 810 595 809 576 814C523 826 470 835 426 841C415 843 410 874 421 874Z"/></g>
<defs><clipPath id="z30475c1"><use href="#z30475d1"/></clipPath>
	<clipPath id="z30475c2"><use href="#z30475d2"/></clipPath>
	<clipPath id="z30475c3"><use href="#z30475d3"/></clipPath>
	<clipPath id="z30475c4"><use href="#z30475d4"/></clipPath>
	<clipPath id="z30475c5"><use href="#z30475d5"/></clipPath>
	<clipPath id="z30475c6"><use href="#z30475d6"/></clipPath>
	<clipPath id="z30475c7"><use href="#z30475d7"/></clipPath>
	<clipPath id="z30475c8"><use href="#z30475d8"/></clipPath>
	<clipPath id="z30475c9"><use href="#z30475d9"/></clipPath><marker id="guide-arrow" viewBox="0 0 16 16" refX="5" refY="5" markerWidth="4" markerHeight="4" orient="auto-start-reverse"><path d="M 0 0 L 10 5 L 0 10 z" fill="inherit"/></marker></defs>
<g class="strokes"><path style="--part:1" pathLength="3333" clip-path="url(#z30475c1)" d="M590 51L619 115L293 186"/><path style="--part:1" pathLength="3333" clip-path="url(#z30475c2)" d="M304 298L362 308L699 253"/><path style="--part:1" pathLength="3333" clip-path="url(#z30475c3)" d="M110 460L178 469L786 379L892 394"/><path style="--part:1" pathLength="3333" clip-path="url(#z30475c4)" d="M450 170L482 216L338 562L213 730L74 845"/><path style="--part:2" pathLength="3333" clip-path="url(#z30475c5)" d="M390 522L406 574L395 908"/><path style="--part:2" pathLength="3333" clip-path="url(#z30475c6)" d="M420 538L622 500L678 536L670 938"/><path style="--part:2" pathLength="3333" clip-path="url(#z30475c7)" d="M428 662L597 635"/><path style="--part:2" pathLength="3333" clip-path="url(#z30475c8)" d="M432 763L602 737"/><path style="--part:2" pathLength="3333" clip-path="url(#z30475c9)" d="M419 863L590 833L636 846"/></g>
<g class="guides"><text class="g1" style="--gs:1" x="590" y="51">①</text><path class="g1 aligned" style="--gs:1" d="M590,51 Q619,115 578.25,123.88 Q333.75,177.13 293,186"/><path class="g1 offset" style="--gs:1" d="M494,51 Q512.33,83 486.58,87.44 Q332.08,114.06 306.33,118.5"/><text class="g2" style="--gs:2" x="304" y="298">②</text><path class="g2 aligned" style="--gs:2" d="M304,298 Q362,308 404.13,301.13 Q656.88,259.88 699,253"/><path class="g2 offset" style="--gs:2" d="M304,394 Q362,404 404.13,397.13 Q656.88,355.88 699,349"/><text class="g3" style="--gs:3" x="110" y="460">③</text><path class="g3 aligned" style="--gs:3" d="M110,460 Q178,469 330,446.5 Q786,379 812.5,382.75 Q865.5,390.25 892,394"/><path class="g3 offset" style="--gs:3" d="M110,556 Q178,565 330,542.5 Q786,475 812.5,478.75 Q865.5,486.25 892,490"/><text class="g4" style="--gs:4" x="450" y="170">④</text><path class="g4 aligned" style="--gs:4" d="M450,170 Q482,216 410,389 Q338,562 275.5,646 Q213,730 143.5,787.5 Q143.5,787.5 74,845"/><path class="g4 offset" style="--gs:4" d="M354,170 Q378.47,209.46 323.41,357.85 Q268.35,506.25 220.56,578.3 Q172.76,650.36 119.62,699.68 Q119.62,699.68 66.47,749"/><text class="g5" style="--gs:5" x="390" y="522">⑤</text><path class="g5 aligned" style="--gs:5" d="M390,522 Q406,574 404.63,615.75 Q396.38,866.25 395,908"/><path class="g5 offset" style="--gs:5" d="M510,522 Q526,574 524.63,615.75 Q516.38,866.25 515,908"/><text class="g6" style="--gs:6" x="420" y="538">⑥</text><path class="g6 aligned" style="--gs:6" d="M420,538 Q622,500 636,509 Q678,536 676,636.5 Q672,837.5 670,938"/><path class="g6 offset" style="--gs:6" d="M420,634 Q528.05,596 535.53,605 Q558,632 556.93,708.5 Q554.79,861.5 553.72,938"/><text class="g7" style="--gs:7" x="428" y="662">⑦</text><path class="g7 aligned" style="--gs:7" d="M428,662 L597,635"/><path class="g7 offset" style="--gs:7" d="M428,758 L597,731"/><text class="g8" style="--gs:8" x="432" y="763">⑧</text><path class="g8 aligned" style="--gs:8" d="M432,763 L602,737"/><path class="g8 offset" style="--gs:8" d="M432,859 L602,833"/><text class="g9" style="--gs:9" x="419" y="863">⑨</text><path class="g9 aligned" style="--gs:9" d="M419,863 Q590,833 595.75,834.63 Q630.25,844.38 636,846"/><path class="g9 offset" style="--gs:9" d="M419,959 Q590,929 595.75,930.63 Q630.25,940.38 636,942"/></g>
<g class="parts"><rect data-part="1" data-literal="龵" role="button" tabindex="0" aria-label="Part 龵" x="2" y="0" width="962" height="917"/><rect data-part="2" data-literal="目" data-radical="true" role="button" tabindex="0" aria-label="Part 目 (radical)" x="318" y="428" width="432" height="582"/></g>
</svg>
