<svg id="z30496" class="acjk" viewBox="0 0 1024 1024" xmlns="http://www.w3.org/2000/svg">
<style>

@keyframes zk {
	to {
		stroke-dashoffset:0;
	}
}
svg.acjk path[clip-path] {
	--t:0.8s;
	animation:zk var(--t) linear forwards var(--d);
	stroke-dasharray:3337;
	stroke-dashoffset:3339;
	stroke-width:128;
	stroke-linecap:round;
	fill:none;
	stroke:#000;
}
svg.acjk path[id] {fill:#ccc;}


    @keyframes guide-fade {
        0% { opacity: 0; }
        3% { opacity: 1; }
        95% { opacity: 1; }
        100% { opacity: 0; }
    }

    svg.acjk #guide-arrow {
        fill: #f77;
    }

    svg.acjk .guides {
        circle {
            fill: #0f6;
        }

        path {
            opacity: 0;
            animation: guide-fade var(--t) linear forwards var(--d);
            stroke-width: 16px;
            stroke-linecap: round;
            stroke: #f77;
            fill: none;
            marker-end: url(#guide-arrow);
        }

        circle,
        path {
            --t: 0.8s;
            opacity: 0;
            animation: guide-fade calc(var(--t) + 0.4s) ease-in-out forwards calc(var(--d) - 0.2s);
        }
    }
</style>
<path id="z30496d1" d="M166 206C159 199 148 193 133 188C126 185 118 183 112 187C106 189 107 196 111 205C113 212 115 221 119 229C138 269 143 384 131 575C129 601 123 631 116 665C107 701 114 734 137 763C143 771 151 771 158 763C167 751 167 745 172 711C173 701 173 691 174 681C174 665 175 624 175 535C175 516 175 516 175 507C175 464 177 428 177 398C177 378 177 378 177 368C177 323 178 250 181 234C183 224 174 212 166 206Z"/>
<path id="z30496d2" d="M304 700C307 712 311 720 318 731C342 769 356 750 370 714C379 687 379 657 377 624C371 557 365 451 361 305C359 266 364 237 374 218C380 205 381 195 376 189C371 182 351 173 316 163C299 158 285 160 274 166C235 185 199 198 166 206C156 208 171 236 181 234C195 231 232 219 254 212C274 205 288 205 296 212C305 220 310 244 312 282C315 411 317 516 315 598C314 616 311 655 304 665C298 675 302 689 304 700Z"/>
<path id="z30496d3" d="M177 398C189 400 203 394 273 382C288 378 292 370 286 363C278 353 265 349 248 348C216 345 192 352 177 368C170 375 167 398 177 398Z"/>
<path id="z30496d4" d="M175 535C185 537 199 531 276 521C290 518 295 512 290 504C282 493 269 488 252 487C216 484 190 491 175 507C168 514 166 535 175 535Z"/>
<path id="z30496d5" d="M172 711C183 715 204 705 304 700C316 700 315 669 304 665C276 650 197 674 174 681C164 684 162 709 172 711Z"/>
<path id="z30496d6" d="M754 256C770 216 788 193 806 180C818 170 818 154 808 145C779 119 757 109 732 102C722 99 710 103 702 108C645 134 572 155 484 171C473 173 487 203 498 201C556 188 616 175 676 163C691 160 725 149 720 182C715 208 707 234 699 258C693 275 747 273 754 256Z"/>
<path id="z30496d7" d="M640 310C674 303 717 296 770 289C776 288 780 285 780 279C780 274 771 266 754 256C738 247 717 254 699 258C622 280 553 297 491 309C481 311 482 339 492 339C509 340 523 331 597 318C626 313 626 313 640 310Z"/>
<path id="z30496d8" d="M484 171C470 159 456 150 444 145C431 140 421 139 416 144C409 148 409 155 415 166C459 255 465 435 432 705C428 731 415 759 395 788C387 798 385 811 392 827C399 845 408 858 418 865C426 870 437 867 444 855C454 835 503 777 599 687C610 676 618 668 621 662C623 655 620 651 614 652C607 652 566 676 491 726C485 729 481 729 482 725C485 648 492 578 492 512C492 503 492 503 492 499C492 442 493 388 492 339C491 319 491 319 491 309C490 288 493 225 498 201C500 190 493 178 484 171Z"/>
<path id="z30496d9" d="M689 496C718 488 747 480 778 473C806 465 823 458 828 454C832 449 834 444 831 439C826 432 815 426 797 423C778 419 760 423 743 430C743 430 702 447 681 454C651 463 651 463 636 468C595 480 552 487 507 494C500 494 495 496 492 499C488 501 488 510 492 512C511 521 537 525 568 522C595 519 619 512 644 507C674 500 674 500 689 496Z"/>
<path id="z30496d10" d="M644 507C673 633 726 719 795 789C838 833 877 862 914 870C931 873 942 859 940 837C937 815 937 761 946 671C946 662 945 655 942 654C938 652 934 658 930 667C920 686 909 704 899 722C886 744 875 754 866 754C854 752 837 741 815 720C792 697 770 670 750 636C719 584 701 545 689 496C685 482 683 468 681 454C674 410 679 387 687 364C691 350 676 332 640 310C627 302 589 305 597 318C611 344 622 371 625 396C627 420 631 439 636 468C638 481 640 494 644 507Z"/>
<defs>
	<clipPath id="z30496c1"><use href="#z30496d1"/></clipPath>
	<clipPath id="z30496c2"><use href="#z30496d2"/></clipPath>
	<clipPath id="z30496c3"><use href="#z30496d3"/></clipPath>
	<clipPath id="z30496c4"><use href="#z30496d4"/></clipPath>
	<clipPath id="z30496c5"><use href="#z30496d5"/></clipPath>
	<clipPath id="z30496c6"><use href="#z30496d6"/></clipPath>
	<clipPath id="z30496c7"><use href="#z30496d7"/></clipPath>
	<clipPath id="z30496c8"><use href="#z30496d8"/></clipPath>
	<clipPath id="z30496c9"><use href="#z30496d9"/></clipPath>
	<clipPath id="z30496c10"><use href="#z30496d10"/></clipPath>
<marker id="guide-arrow" viewBox="0 0 16 16" refX="5" refY="5" markerWidth="4" markerHeight="4" orient="auto-start-reverse"><path d="M 0 0 L 10 5 L 0 10 z" fill="inherit"/></marker></defs>
<path style="--d:1s;" pathLength="3333" clip-path="url(#z30496c1)" d="M117 198L155 266L145 765"/>
<path style="--d:2s;" pathLength="3333" clip-path="url(#z30496c2)" d="M170 211L290 184L341 211L330 744"/>
<path style="--d:3s;" pathLength="3333" clip-path="url(#z30496c3)" d="M174 390L282 370"/>
<path style="--d:4s;" pathLength="3333" clip-path="url(#z30496c4)" d="M171 524L283 507"/>
<path style="--d:5s;" pathLength="3333" clip-path="url(#z30496c5)" d="M168 700L309 682"/>
<path style="--d:6s;" pathLength="3333" clip-path="url(#z30496c6)" d="M486 177L720 130L767 168L709 266"/>
<path style="--d:7s;" pathLength="3333" clip-path="url(#z30496c7)" d="M486 325L774 279"/>
<path style="--d:8s;" pathLength="3333" clip-path="url(#z30496c8)" d="M417 150L463 196L472 345L431 789L460 811L615 661"/>
<path style="--d:9s;" pathLength="3333" clip-path="url(#z30496c9)" d="M496 504L828 446"/>
<path style="--d:10s;" pathLength="3333" clip-path="url(#z30496c10)" d="M604 315L653 362L680 550L784 732L859 797L910 816L937 662"/>
<g class="guides"><circle style="--d: 1s" class="g1" cx="117" cy="198" r="16"/><path style="--d: 1s;" class="g1" d="M237,198 Q275,266 273.75,328.375 Q266.25,702.625 265,765"/><circle style="--d: 2s" class="g2" cx="170" cy="211" r="16"/><path style="--d: 2s;" class="g2" d="M170,307 Q230,280 236.375,286.75 Q255.5,307 254.125,416.25 Q251.375,634.75 250,744"/><circle style="--d: 3s" class="g3" cx="174" cy="390" r="16"/><path style="--d: 3s;" class="g3" d="M174,486 L282,466"/><circle style="--d: 4s" class="g4" cx="171" cy="524" r="16"/><path style="--d: 4s;" class="g4" d="M171,620 L283,603"/><circle style="--d: 5s" class="g5" cx="168" cy="700" r="16"/><path style="--d: 5s;" class="g5" d="M168,796 L309,778"/><circle style="--d: 6s" class="g6" cx="486" cy="177" r="16"/><path style="--d: 6s;" class="g6" d="M486,273 Q620.0711743772242,226 626.8033807829181,235.5 Q647,264 638.6921708185054,271.5 Q622.076512455516,286.5 613.7686832740213,294"/><circle style="--d: 7s" class="g7" cx="486" cy="325" r="16"/><path style="--d: 7s;" class="g7" d="M486,421 L774,375"/><circle style="--d: 8s" class="g8" cx="417" cy="150" r="16"/><path style="--d: 8s;" class="g8" d="M502.68,81.456 Q548.68,122.20490166414523 553.18,188.20040544629353 Q557.68,254.1959092284418 537.18,450.85365204236007 Q516.68,647.5113948562783 531.18,657.2556974281392 Q545.68,667 623.18,600.5615733736763 Q623.18,600.5615733736763 700.68,534.1231467473525"/><circle style="--d: 9s" class="g9" cx="496" cy="504" r="16"/><path style="--d: 9s;" class="g9" d="M496,600 L828,542"/><circle style="--d: 10s" class="g10" cx="604" cy="315" r="16"/><path style="--d: 10s;" class="g10" d="M672.544,246.45600000000002 Q697.3318198198198,293.456 704.1611171171171,387.456 Q710.9904144144144,481.456 737.2958558558558,572.456 Q763.6012972972973,663.456 782.5715675675676,695.956 Q801.5418378378379,728.456 814.4416216216216,737.956 Q827.3414054054055,747.456 834.1707027027028,670.456 Q834.1707027027028,670.456 841,593.456"/></g></svg>