<!--
  Stroke-order data for 眸, derived from AnimCJK (https://github.com/parsimonhi/animCJK),
  itself derived from the Arphic PL KaitiM fonts. Distributed under the Arphic Public License
  (see ARPHICPL.TXT). Regenerated by scripts/build-strokes.ts — do not edit by hand.
-->
<svg id="z30520" class="acjk" viewBox="0 0 1024 1024" xmlns="http://www.w3.org/2000/svg">
<g class="glyph"><path style="--part:1" id="z30520d1" d="M170 210C160 200 146 192 132 188C124 185 118 185 111 188C106 190 105 195 109 206C123 253 130 277 132 303C141 444 133 559 114 645C105 683 113 715 137 747C143 754 151 755 159 747C168 736 171 719 173 701C173 691 174 682 175 673C175 615 175 582 175 537C175 516 175 516 175 505C175 462 176 425 177 393C178 370 178 370 178 358C179 317 178 260 182 239C184 229 178 216 170 210Z"/><path style="--part:1" id="z30520d2" d="M285 690C287 701 292 718 301 734C323 773 339 746 353 719C365 693 365 662 363 630C347 395 350 261 369 227C376 213 377 204 372 198C366 189 346 181 313 171C295 165 282 166 270 173C234 190 200 202 170 210C160 212 172 242 182 239C201 234 231 225 253 218C304 200 305 260 306 289C307 426 306 533 304 612C304 624 302 647 298 659C294 670 283 679 285 690Z"/><path style="--part:1" id="z30520d3" d="M177 393C194 392 234 383 258 378C273 374 277 366 270 359C261 350 247 345 232 345C216 344 199 349 178 358C167 362 165 393 177 393Z"/><path style="--part:1" id="z30520d4" d="M175 537C188 539 204 530 262 522C277 519 281 510 274 503C265 494 251 489 236 489C219 488 199 494 175 505C165 509 164 537 175 537Z"/><path style="--part:1" id="z30520d5" d="M173 701C186 701 213 695 285 690C296 690 308 663 298 659C258 642 204 661 175 673C166 676 164 701 173 701Z"/><path style="--part:2" id="z30520d6" d="M650 297C686 288 729 277 780 268C790 266 772 241 762 243C694 251 622 263 551 283C534 287 528 283 539 271C612 183 657 133 674 119C682 111 684 104 681 96C676 87 658 73 628 56C616 49 608 48 602 51C593 53 589 61 593 77C602 118 572 179 498 253C484 266 465 278 445 292C434 298 431 305 434 315C436 324 447 338 463 354C470 361 478 362 488 355C512 337 549 321 600 309C633 301 633 301 650 297Z"/><path style="--part:2" id="z30520d7" d="M780 268C802 298 818 315 827 317C832 318 840 314 845 307C850 298 851 283 850 264C849 248 839 232 819 217C798 202 775 190 753 178C743 173 737 171 732 173C728 174 725 179 726 188C726 197 737 208 762 243C774 260 774 260 780 268Z"/><path style="--part:2" id="z30520d8" d="M521 463C530 452 538 444 545 439C550 434 550 428 549 423C547 415 541 407 529 396C517 385 505 380 498 380C488 379 485 384 489 396C493 409 481 438 454 481C441 500 425 522 406 543C401 547 398 550 397 553C394 557 396 561 404 560C426 556 482 507 508 478C517 468 517 468 521 463Z"/><path style="--part:2" id="z30520d9" d="M682 478C708 472 737 466 767 460C791 454 806 449 811 446C816 441 817 435 815 431C811 422 799 416 782 413C764 408 731 419 682 433C645 443 645 443 627 448C603 454 551 462 521 463C514 463 503 473 508 478C536 505 548 505 628 489C664 482 664 482 682 478Z"/><path style="--part:2" id="z30520d10" d="M680 625C738 616 810 613 896 612C938 611 960 608 964 602C967 595 963 585 953 578C919 551 889 545 865 551C818 561 757 577 680 589C644 594 644 594 626 597C549 608 469 621 383 634C370 635 368 642 379 653C387 661 397 668 410 671C423 674 436 673 446 671C502 655 562 642 626 633C662 628 662 628 680 625Z"/><path style="--part:2" id="z30520d11" d="M629 926C631 942 636 954 642 961C644 965 650 968 655 966C665 960 672 936 676 896C678 874 680 783 680 625C680 601 680 601 680 589C680 569 682 493 682 478C682 448 682 448 682 433C682 393 691 329 682 317C673 304 663 302 650 297C634 292 588 297 600 309C618 327 627 373 627 448C627 475 627 475 627 489C627 503 626 557 626 597C626 621 626 621 626 633C626 769 621 865 629 926Z"/></g>
<defs><clipPath id="z30520c1"><use href="#z30520d1"/></clipPath>
	<clipPath id="z30520c2"><use href="#z30520d2"/></clipPath>
	<clipPath id="z30520c3"><use href="#z30520d3"/></clipPath>
	<clipPath id="z30520c4"><use href="#z30520d4"/></clipPath>
	<clipPath id="z30520c5"><use href="#z30520d5"/></clipPath>
	<clipPath id="z30520c6"><use href="#z30520d6"/></clipPath>
	<clipPath id="z30520c7"><use href="#z30520d7"/></clipPath>
	<clipPath id="z30520c8"><use href="#z30520d8"/></clipPath>
	<clipPath id="z30520c9"><use href="#z30520d9"/></clipPath>
	<clipPath id="z30520c10"><use href="#z30520d10"/></clipPath>
	<clipPath id="z30520c11"><use href="#z30520d11"/></clipPath><marker id="guide-arrow" viewBox="0 0 16 16" refX="5" refY="5" markerWidth="4" markerHeight="4" orient="auto-start-reverse"><path d="M 0 0 L 10 5 L 0 10 z" fill="inherit"/></marker></defs>
<g class="strokes"><path style="--part:1" pathLength="3333" clip-path="url(#z30520c1)" d="M116 193L150 233L155 291L140 745"/><path style="--part:1" pathLength="3333" clip-path="url(#z30520c2)" d="M171 216L290 192L337 221L317 746"/><path style="--part:1" pathLength="3333" clip-path="url(#z30520c3)" d="M175 383L266 368"/><path style="--part:1" pathLength="3333" clip-path="url(#z30520c4)" d="M169 522L272 509"/><path style="--part:1" pathLength="3333" clip-path="url(#z30520c5)" d="M174 693L299 670"/><path style="--part:2" pathLength="3333" clip-path="url(#z30520c6)" d="M600 58L637 111L487 290L491 310L506 322L775 263"/><path style="--part:2" pathLength="3333" clip-path="url(#z30520c7)" d="M733 177L812 255L833 310"/><path style="--part:2" pathLength="3333" clip-path="url(#z30520c8)" d="M496 385L514 431L407 550"/><path style="--part:2" pathLength="3333" clip-path="url(#z30520c9)" d="M513 473L811 431"/><path style="--part:2" pathLength="3333" clip-path="url(#z30520c10)" d="M378 641L428 650L850 583L960 591"/><path style="--part:2" pathLength="3333" clip-path="url(#z30520c11)" d="M608 305L648 329L654 364L652 962"/></g>
<g class="guides"><text class="g1" style="--gs:1" x="116" y="193">①</text><path class="g1 aligned" style="--gs:1" d="M116,193 Q150,233 151.25,247.5 Q155,291 151.25,404.5 Q143.75,631.5 140,745"/><path class="g1 offset" style="--gs:1" d="M20,193 Q54,233 55.25,247.5 Q59,291 55.25,404.5 Q47.75,631.5 44,745"/><text class="g2" style="--gs:2" x="171" y="216">②</text><path class="g2 aligned" style="--gs:2" d="M171,216 Q290,192 301.75,199.25 Q337,221 332,352.25 Q322,614.75 317,746"/><path class="g2 offset" style="--gs:2" d="M171,312 Q230.5,288 236.38,293.99 Q254,311.97 251.5,420.48 Q246.5,637.49 244,746"/><text class="g3" style="--gs:3" x="175" y="383">③</text><path class="g3 aligned" style="--gs:3" d="M175,383 L266,368"/><path class="g3 offset" style="--gs:3" d="M175,479 L266,464"/><text class="g4" style="--gs:4" x="169" y="522">④</text><path class="g4 aligned" style="--gs:4" d="M169,522 L272,509"/><path class="g4 offset" style="--gs:4" d="M169,618 L272,605"/><text class="g5" style="--gs:5" x="174" y="693">⑤</text><path class="g5 aligned" style="--gs:5" d="M174,693 L299,670"/><path class="g5 offset" style="--gs:5" d="M174,789 L299,766"/><text class="g6" style="--gs:6" x="600" y="58">⑥</text><path class="g6 aligned" style="--gs:6" d="M600,58 Q637,111 562,200.5 Q487,290 489,300 Q491,310 498.5,316 Q506,322 640.5,292.5 Q640.5,292.5 775,263"/><path class="g6 offset" style="--gs:6" d="M685.68,-10.54 Q711.67,36.94 658.98,117.14 Q606.3,197.33 607.7,206.29 Q609.11,215.25 614.38,220.62 Q619.65,226 714.13,199.57 Q714.13,199.57 808.62,173.14"/><text class="g7" style="--gs:7" x="733" y="177">⑦</text><path class="g7 aligned" style="--gs:7" d="M733,177 Q812,255 814.63,261.88 Q830.38,303.13 833,310"/><path class="g7 offset" style="--gs:7" d="M818.68,108.46 Q897.68,186.46 900.31,193.33 Q916.06,234.58 918.68,241.46"/><text class="g8" style="--gs:8" x="496" y="385">⑧</text><path class="g8 aligned" style="--gs:8" d="M496,385 Q514,431 500.63,445.88 Q420.38,535.13 407,550"/><path class="g8 offset" style="--gs:8" d="M400,385 Q409,408 402.31,415.44 Q362.19,460.06 355.5,467.5"/><text class="g9" style="--gs:9" x="513" y="473">⑨</text><path class="g9 aligned" style="--gs:9" d="M513,473 L811,431"/><path class="g9 offset" style="--gs:9" d="M513,569 L811,527"/><text class="g10" style="--gs:10" x="378" y="641">⑩</text><path class="g10 aligned" style="--gs:10" d="M378,641 Q428,650 533.5,633.25 Q850,583 877.5,585 Q932.5,589 960,591"/><path class="g10 offset" style="--gs:10" d="M378,737 Q428,746 533.5,729.25 Q850,679 877.5,681 Q932.5,685 960,687"/><text class="g11" style="--gs:11" x="608" y="305">⑪</text><path class="g11 aligned" style="--gs:11" d="M608,305 Q648,329 649.5,337.75 Q654,364 653.5,513.5 Q652.5,812.5 652,962"/><path class="g11 offset" style="--gs:11" d="M512,305 Q552,329 553.5,337.75 Q558,364 557.5,513.5 Q556.5,812.5 556,962"/></g>
<g class="parts"><rect data-part="2" data-literal="牟" role="button" tabindex="0" aria-label="Part 牟" x="306" y="0" width="718" height="1024"/><rect data-part="1" data-literal="目" data-radical="true" role="button" tabindex="0" aria-label="Part 目 (radical)" x="44" y="120" width="365" height="698"/></g>
</svg>
