<!--
  Stroke-order data for 督, derived from AnimCJK (https://github.com/parsimonhi/animCJK),
  itself derived from the Arphic PL KaitiM fonts. Distributed under the Arphic Public License
  (see ARPHICPL.TXT). Regenerated by scripts/build-strokes.ts — do not edit by hand.
-->
<svg id="z30563" class="acjk" viewBox="0 0 1024 1024" xmlns="http://www.w3.org/2000/svg">
<g class="glyph"><path style="--part:1" id="z30563d1" d="M376 266C378 234 382 203 385 174C386 159 386 159 387 151C388 134 390 119 394 106C395 99 398 93 400 89C401 82 397 72 384 65C364 52 344 47 330 45C318 43 312 44 308 50C303 54 302 61 309 71C323 89 334 157 336 275C336 289 376 280 376 266Z"/><path style="--part:1" id="z30563d2" d="M385 174C405 178 446 171 510 154C519 151 530 142 524 134C519 127 508 122 491 122C479 121 444 131 387 151C380 154 377 172 385 174Z"/><path style="--part:1" id="z30563d3" d="M362 307C404 298 451 289 505 283C515 281 520 279 521 274C521 265 516 258 506 253C488 245 473 243 459 247C428 253 400 260 376 266C349 272 349 272 336 275C226 299 145 310 93 315C84 315 79 318 78 324C76 330 78 337 89 345C112 363 138 367 165 359C255 328 310 317 327 314C350 309 350 309 362 307Z"/><path style="--part:1" id="z30563d4" d="M326 310C332 328 339 368 335 428C333 441 320 441 312 439C312 439 284 431 270 427C263 425 259 428 259 432C258 434 260 438 266 444C296 474 316 496 328 515C333 522 341 526 348 525C354 523 360 513 368 495C374 480 374 436 380 366C382 333 389 326 357 304C336 308 336 308 326 310Z"/><path style="--part:1" id="z30563d5" d="M198 383C183 411 166 439 148 466C134 484 132 503 143 524C147 533 155 537 167 530C197 509 212 475 218 435C220 415 223 398 218 384C216 378 212 376 209 376C204 376 200 378 198 383Z"/><path style="--part:1" id="z30563d6" d="M413 373C443 418 465 443 483 445C489 445 498 441 502 432C504 424 501 412 497 402C487 378 459 363 419 350C413 348 410 350 409 357C407 361 409 366 413 373Z"/><path style="--part:1" id="z30563d7" d="M716 351C751 301 771 221 815 183C827 172 829 163 819 155C805 144 789 138 773 133C756 127 741 127 725 135C709 141 687 148 660 155C628 162 596 166 565 168C554 168 546 168 545 172C541 178 548 186 562 196C577 206 604 207 641 195C689 179 715 171 721 172C725 172 729 178 728 190C719 242 704 277 678 322C671 333 661 343 653 354C621 390 564 423 526 444C517 448 515 452 520 456C524 458 533 456 548 452C599 434 651 415 683 388C695 377 706 364 716 351Z"/><path style="--part:1" id="z30563d8" d="M683 388C711 418 747 453 796 489C813 501 836 501 860 495C922 477 958 467 966 463C971 459 969 453 962 450C953 445 912 433 840 413C801 402 760 381 716 351C691 332 691 332 678 322C657 304 635 283 611 262C599 251 584 244 567 243C560 242 553 243 548 249C544 252 547 258 553 262C557 264 561 267 566 270C576 274 605 302 653 354C673 377 673 377 683 388Z"/><path style="--part:2" id="z30563d9" d="M374 567C368 561 357 555 346 551C338 548 333 547 326 551C321 553 321 557 324 567C325 570 326 574 329 580C341 605 345 674 335 783C329 837 323 865 323 869C323 883 330 898 346 919C352 926 359 928 366 920C374 909 376 899 379 884C380 874 380 864 381 854C381 836 383 806 383 785C383 769 383 769 383 761C383 734 385 711 386 692C387 676 387 676 387 668C387 652 390 621 391 600C391 588 384 574 374 567Z"/><path style="--part:2" id="z30563d10" d="M593 867C602 905 608 922 624 950C644 988 668 960 682 931C695 903 698 870 696 838C692 790 686 724 682 639C680 616 687 598 699 583C705 574 705 564 699 558C686 542 659 528 623 511C609 504 599 505 588 511C538 536 466 553 374 567C362 569 379 602 391 600C407 598 466 585 570 564C586 560 599 561 607 568C614 574 618 619 621 772C622 794 618 833 606 845C601 852 591 859 593 867Z"/><path style="--part:2" id="z30563d11" d="M386 692C405 695 425 684 548 667C562 664 566 658 561 651C553 642 542 636 527 634C510 631 464 643 387 668C380 671 378 692 386 692Z"/><path style="--part:2" id="z30563d12" d="M383 785C402 787 419 781 551 763C565 760 570 753 565 747C558 737 546 731 531 729C515 726 495 728 470 736C439 744 410 753 383 761C375 764 375 785 383 785Z"/><path style="--part:2" id="z30563d13" d="M379 884C402 889 422 879 593 867C602 867 612 851 606 845C598 835 586 828 572 826C554 823 479 832 381 854C371 856 369 882 379 884Z"/></g>
<defs><clipPath id="z30563c1"><use href="#z30563d1"/></clipPath>
	<clipPath id="z30563c2"><use href="#z30563d2"/></clipPath>
	<clipPath id="z30563c3"><use href="#z30563d3"/></clipPath>
	<clipPath id="z30563c4"><use href="#z30563d4"/></clipPath>
	<clipPath id="z30563c5"><use href="#z30563d5"/></clipPath>
	<clipPath id="z30563c6"><use href="#z30563d6"/></clipPath>
	<clipPath id="z30563c7"><use href="#z30563d7"/></clipPath>
	<clipPath id="z30563c8"><use href="#z30563d8"/></clipPath>
	<clipPath id="z30563c9"><use href="#z30563d9"/></clipPath>
	<clipPath id="z30563c10"><use href="#z30563d10"/></clipPath>
	<clipPath id="z30563c11"><use href="#z30563d11"/></clipPath>
	<clipPath id="z30563c12"><use href="#z30563d12"/></clipPath>
	<clipPath id="z30563c13"><use href="#z30563d13"/></clipPath><marker id="guide-arrow" viewBox="0 0 16 16" refX="5" refY="5" markerWidth="4" markerHeight="4" orient="auto-start-reverse"><path d="M 0 0 L 10 5 L 0 10 z" fill="inherit"/></marker></defs>
<g class="strokes"><path style="--part:1" pathLength="3333" clip-path="url(#z30563c1)" d="M311 55L361 96L354 279"/><path style="--part:1" pathLength="3333" clip-path="url(#z30563c2)" d="M384 165L519 136"/><path style="--part:1" pathLength="3333" clip-path="url(#z30563c3)" d="M83 325L144 336L516 268"/><path style="--part:1" pathLength="3333" clip-path="url(#z30563c4)" d="M334 313L358 343L349 462L329 482L265 437"/><path style="--part:1" pathLength="3333" clip-path="url(#z30563c5)" d="M208 383L152 529"/><path style="--part:1" pathLength="3333" clip-path="url(#z30563c6)" d="M417 360L492 437"/><path style="--part:1" pathLength="3333" clip-path="url(#z30563c7)" d="M551 177L735 152L776 177L670 369L527 451"/><path style="--part:1" pathLength="3333" clip-path="url(#z30563c8)" d="M553 253L817 452L960 458"/><path style="--part:2" pathLength="3333" clip-path="url(#z30563c9)" d="M329 554L364 606L351 920"/><path style="--part:2" pathLength="3333" clip-path="url(#z30563c10)" d="M377 575L601 534L651 565L643 964"/><path style="--part:2" pathLength="3333" clip-path="url(#z30563c11)" d="M384 683L556 654"/><path style="--part:2" pathLength="3333" clip-path="url(#z30563c12)" d="M381 775L559 747"/><path style="--part:2" pathLength="3333" clip-path="url(#z30563c13)" d="M379 874L602 852"/></g>
<g class="guides"><text class="g1" style="--gs:1" x="311" y="55">①</text><path class="g1 aligned" style="--gs:1" d="M311,55 Q361,96 360.13,118.88 Q354.88,256.13 354,279"/><path class="g1 offset" style="--gs:1" d="M215,55 Q265,96 264.13,118.88 Q258.88,256.13 258,279"/><text class="g2" style="--gs:2" x="384" y="165">②</text><path class="g2 aligned" style="--gs:2" d="M384,165 L519,136"/><path class="g2 offset" style="--gs:2" d="M384,261 L519,232"/><text class="g3" style="--gs:3" x="83" y="325">③</text><path class="g3 aligned" style="--gs:3" d="M83,325 Q144,336 190.5,327.5 Q469.5,276.5 516,268"/><path class="g3 offset" style="--gs:3" d="M83,421 Q144,432 190.5,423.5 Q469.5,372.5 516,364"/><text class="g4" style="--gs:4" x="334" y="313">④</text><path class="g4 aligned" style="--gs:4" d="M346,328 Q349,462 344,467 Q329,482 313,470.75 Q281,448.25 265,437"/><path class="g4 offset" style="--gs:4" d="M250,328 Q251.5,395 249,397.5 Q241.5,405 233.5,399.38 Q217.5,388.13 209.5,382.5"/><text class="g5" style="--gs:5" x="208" y="383">⑤</text><path class="g5 aligned" style="--gs:5" d="M208,383 L152,529"/><path class="g5 offset" style="--gs:5" d="M328,383 L272,529"/><text class="g6" style="--gs:6" x="417" y="360">⑥</text><path class="g6 aligned" style="--gs:6" d="M417,360 L492,437"/><path class="g6 offset" style="--gs:6" d="M502.68,291.46 L577.68,368.46"/><text class="g7" style="--gs:7" x="551" y="177">⑦</text><path class="g7 aligned" style="--gs:7" d="M551,177 Q735,152 755.5,164.5 Q776,177 723,273 Q670,369 598.5,410 Q598.5,410 527,451"/><path class="g7 offset" style="--gs:7" d="M455,273 Q547,260.5 557.25,266.75 Q567.5,273 541,321 Q514.5,369 478.75,389.5 Q478.75,389.5 443,410"/><text class="g8" style="--gs:8" x="553" y="253">⑧</text><path class="g8 aligned" style="--gs:8" d="M553,253 Q817,452 834.88,452.75 Q942.13,457.25 960,458"/><path class="g8 offset" style="--gs:8" d="M638.68,184.46 Q847.1,356.8 861.22,357.45 Q945.89,361.35 960,362"/><text class="g9" style="--gs:9" x="329" y="554">⑨</text><path class="g9 aligned" style="--gs:9" d="M329,554 Q364,606 362.38,645.25 Q352.63,880.75 351,920"/><path class="g9 offset" style="--gs:9" d="M233,554 Q268,606 266.38,645.25 Q256.63,880.75 255,920"/><text class="g10" style="--gs:10" x="377" y="575">⑩</text><path class="g10 aligned" style="--gs:10" d="M377,575 Q601,534 613.5,541.75 Q651,565 649,664.75 Q645,864.25 643,964"/><path class="g10 offset" style="--gs:10" d="M377,671 Q502.9,630 509.92,637.75 Q531,661 529.88,736.75 Q527.63,888.25 526.5,964"/><text class="g11" style="--gs:11" x="384" y="683">⑪</text><path class="g11 aligned" style="--gs:11" d="M384,683 L556,654"/><path class="g11 offset" style="--gs:11" d="M384,779 L556,750"/><text class="g12" style="--gs:12" x="381" y="775">⑫</text><path class="g12 aligned" style="--gs:12" d="M381,775 L559,747"/><path class="g12 offset" style="--gs:12" d="M381,871 L559,843"/><text class="g13" style="--gs:13" x="379" y="874">⑬</text><path class="g13 aligned" style="--gs:13" d="M379,874 L602,852"/><path class="g13 offset" style="--gs:13" d="M379,970 L602,948"/></g>
<g class="parts"><rect data-part="1" data-literal="叔" role="button" tabindex="0" aria-label="Part 叔" x="11" y="0" width="1013" height="601"/><rect data-part="2" data-literal="目" data-radical="true" role="button" tabindex="0" aria-label="Part 目 (radical)" x="257" y="462" width="466" height="562"/></g>
</svg>
