<!--
  Stroke-order data for 瞥, derived from AnimCJK (https://github.com/parsimonhi/animCJK),
  itself derived from the Arphic PL KaitiM fonts. Distributed under the Arphic Public License
  (see ARPHICPL.TXT). Regenerated by scripts/build-strokes.ts — do not edit by hand.
-->
<svg id="z30629" class="acjk" viewBox="0 0 1024 1024" xmlns="http://www.w3.org/2000/svg">
<g class="glyph"><path style="--part:1" id="z30629d1" d="M351 253C354 162 357 127 363 109C366 97 365 89 360 84C350 75 339 66 325 61C312 56 269 46 290 81C309 114 317 176 317 260C317 272 351 265 351 253Z"/><path style="--part:1" id="z30629d2" d="M156 229C143 246 150 250 168 241C213 213 252 188 268 180C277 174 281 166 276 159C268 148 258 141 246 135C244 134 210 113 212 138C214 171 175 203 156 229Z"/><path style="--part:1" id="z30629d3" d="M413 153C427 167 435 178 450 192C462 204 475 207 485 192C488 185 487 171 484 158C480 141 454 129 413 116C377 105 393 132 413 153Z"/><path style="--part:1" id="z30629d4" d="M192 282C177 275 164 270 155 272C148 272 145 277 149 284C169 327 162 420 152 462C144 490 139 511 159 538C162 543 168 547 173 544C188 532 197 501 199 453C201 378 201 331 204 313C206 302 202 286 192 282Z"/><path style="--part:1" id="z30629d5" d="M350 280C394 272 417 271 427 277C434 280 441 285 443 301C446 330 443 378 440 438C439 448 434 454 426 454C407 452 394 447 384 445C374 443 373 444 375 450C376 453 381 461 396 473C415 488 428 506 443 523C459 542 472 508 477 497C487 470 490 432 488 388C484 318 486 282 491 276C495 269 495 262 492 258C486 251 472 244 452 236C441 232 434 234 426 237C407 242 378 247 351 253C328 258 328 258 317 260C274 268 235 274 192 282C181 284 194 317 204 313C256 296 301 288 350 280Z"/><path style="--part:1" id="z30629d6" d="M302 307C313 328 312 345 312 356C312 400 309 437 309 470C308 485 312 499 317 510C319 516 325 519 330 514C342 502 345 473 345 435C343 306 365 311 346 299C311 276 294 292 302 307Z"/><path style="--part:1" id="z30629d7" d="M249 373C251 400 235 430 223 463C217 478 228 479 239 465C266 427 276 404 289 379C293 368 297 363 291 356C283 348 275 344 269 342C252 337 238 340 245 356C246 359 248 365 249 373Z"/><path style="--part:1" id="z30629d8" d="M364 338C377 373 387 398 400 404C403 405 411 405 415 398C421 381 416 363 405 351C392 336 383 328 371 324C362 321 362 332 364 338Z"/><path style="--part:1" id="z30629d9" d="M613 195C626 177 656 124 676 94C679 87 678 79 676 75C672 66 662 58 648 49C618 29 591 34 604 57C622 92 587 170 519 279C507 296 504 305 519 299C528 294 537 286 545 279C552 272 552 272 556 268C567 256 594 220 602 210C609 200 609 200 613 195Z"/><path style="--part:1" id="z30629d10" d="M730 210C756 203 785 197 816 191C836 186 848 182 851 179C864 162 842 151 825 150C808 148 781 158 735 170C656 189 634 191 613 195C607 196 596 208 602 210C634 223 670 223 700 217C720 212 720 212 730 210Z"/><path style="--part:1" id="z30629d11" d="M691 368C720 323 735 289 760 251C771 232 744 215 730 210C720 206 700 207 700 217C700 255 692 285 659 342C653 351 646 360 640 369C608 409 575 432 524 474C511 484 525 485 538 481C586 461 623 444 665 400C674 389 683 379 691 368Z"/><path style="--part:1" id="z30629d12" d="M665 400C690 431 725 464 777 503C790 513 816 515 848 508C902 495 931 488 935 486C939 482 936 476 931 473C920 467 883 456 819 439C775 426 732 402 691 368C670 351 670 351 659 342C638 325 622 306 603 287C592 276 577 267 556 268C551 268 541 276 545 279C565 293 598 316 640 369C657 390 657 390 665 400Z"/><path style="--part:2" id="z30629d13" d="M365 573C353 563 338 553 324 551C303 548 307 561 313 573C334 625 337 703 315 799C308 827 305 846 306 863C306 879 316 897 325 908C338 923 346 906 356 891C361 880 363 870 365 860C369 832 372 806 373 781C374 762 374 762 374 753C374 731 376 708 377 686C378 671 378 671 378 663C379 632 381 612 385 602C389 591 374 580 365 573Z"/><path style="--part:2" id="z30629d14" d="M626 876C636 925 662 1007 695 932C707 902 704 849 703 820C698 753 696 723 691 630C689 608 695 593 705 580C711 571 711 564 705 558C693 546 669 532 638 518C625 511 617 513 607 518C551 542 470 559 365 573C353 575 373 604 385 602C399 598 437 589 578 564C613 557 628 567 632 597C636 628 639 685 640 769C641 803 636 844 630 861C628 866 625 871 626 876Z"/><path style="--part:2" id="z30629d15" d="M377 686C430 692 501 678 547 672C586 666 603 653 557 638C541 632 525 636 511 640C483 647 421 658 378 663C370 665 369 684 377 686Z"/><path style="--part:2" id="z30629d16" d="M373 781C386 785 540 767 575 759C597 753 586 734 559 727C544 723 529 725 514 730C466 744 419 749 374 753C365 753 364 779 373 781Z"/><path style="--part:2" id="z30629d17" d="M356 891C448 883 548 877 626 876C631 876 633 865 630 861C586 809 579 839 365 860C354 862 345 891 356 891Z"/></g>
<defs><clipPath id="z30629c1"><use href="#z30629d1"/></clipPath>
	<clipPath id="z30629c2"><use href="#z30629d2"/></clipPath>
	<clipPath id="z30629c3"><use href="#z30629d3"/></clipPath>
	<clipPath id="z30629c4"><use href="#z30629d4"/></clipPath>
	<clipPath id="z30629c5"><use href="#z30629d5"/></clipPath>
	<clipPath id="z30629c6"><use href="#z30629d6"/></clipPath>
	<clipPath id="z30629c7"><use href="#z30629d7"/></clipPath>
	<clipPath id="z30629c8"><use href="#z30629d8"/></clipPath>
	<clipPath id="z30629c9"><use href="#z30629d9"/></clipPath>
	<clipPath id="z30629c10"><use href="#z30629d10"/></clipPath>
	<clipPath id="z30629c11"><use href="#z30629d11"/></clipPath>
	<clipPath id="z30629c12"><use href="#z30629d12"/></clipPath>
	<clipPath id="z30629c13"><use href="#z30629d13"/></clipPath>
	<clipPath id="z30629c14"><use href="#z30629d14"/></clipPath>
	<clipPath id="z30629c15"><use href="#z30629d15"/></clipPath>
	<clipPath id="z30629c16"><use href="#z30629d16"/></clipPath>
	<clipPath id="z30629c17"><use href="#z30629d17"/></clipPath><marker id="guide-arrow" viewBox="0 0 16 16" refX="5" refY="5" markerWidth="4" markerHeight="4" orient="auto-start-reverse"><path d="M 0 0 L 10 5 L 0 10 z" fill="inherit"/></marker></defs>
<g class="strokes"><path style="--part:1" pathLength="3333" clip-path="url(#z30629c1)" d="M291 61L333 103L334 264"/><path style="--part:1" pathLength="3333" clip-path="url(#z30629c2)" d="M219 133L240 170L155 239"/><path style="--part:1" pathLength="3333" clip-path="url(#z30629c3)" d="M398 120L475 196"/><path style="--part:1" pathLength="3333" clip-path="url(#z30629c4)" d="M154 278L181 309L171 538"/><path style="--part:1" pathLength="3333" clip-path="url(#z30629c5)" d="M191 289L429 254L461 268L459 464L436 491L383 450"/><path style="--part:1" pathLength="3333" clip-path="url(#z30629c6)" d="M307 296L332 325L321 509"/><path style="--part:1" pathLength="3333" clip-path="url(#z30629c7)" d="M250 344L271 374L228 468"/><path style="--part:1" pathLength="3333" clip-path="url(#z30629c8)" d="M371 329L406 400"/><path style="--part:1" pathLength="3333" clip-path="url(#z30629c9)" d="M607 41L642 91L515 293"/><path style="--part:1" pathLength="3333" clip-path="url(#z30629c10)" d="M607 204L849 168"/><path style="--part:1" pathLength="3333" clip-path="url(#z30629c11)" d="M705 214L729 251L680 347L530 477"/><path style="--part:1" pathLength="3333" clip-path="url(#z30629c12)" d="M555 276L779 462L930 481"/><path style="--part:2" pathLength="3333" clip-path="url(#z30629c13)" d="M314 555L354 603L337 909"/><path style="--part:2" pathLength="3333" clip-path="url(#z30629c14)" d="M371 581L612 538L670 579L664 958"/><path style="--part:2" pathLength="3333" clip-path="url(#z30629c15)" d="M376 675L577 657"/><path style="--part:2" pathLength="3333" clip-path="url(#z30629c16)" d="M369 766L583 745"/><path style="--part:2" pathLength="3333" clip-path="url(#z30629c17)" d="M355 882L563 855L628 866"/></g>
<g class="guides"><text class="g1" style="--gs:1" x="291" y="61">①</text><path class="g1 aligned" style="--gs:1" d="M291,61 Q333,103 333.13,123.13 Q333.88,243.88 334,264"/><path class="g1 offset" style="--gs:1" d="M376.68,-7.54 Q418.68,34.46 418.81,54.58 Q419.56,175.33 419.68,195.46"/><text class="g2" style="--gs:2" x="219" y="133">②</text><path class="g2 aligned" style="--gs:2" d="M219,133 Q240,170 229.38,178.63 Q165.63,230.38 155,239"/><path class="g2 offset" style="--gs:2" d="M123,133 Q133.5,151.5 128.19,155.81 Q96.31,181.69 91,186"/><text class="g3" style="--gs:3" x="398" y="120">③</text><path class="g3 aligned" style="--gs:3" d="M398,120 L475,196"/><path class="g3 offset" style="--gs:3" d="M483.68,51.46 L560.68,127.46"/><text class="g4" style="--gs:4" x="154" y="278">④</text><path class="g4 aligned" style="--gs:4" d="M168,294 L171,538"/><path class="g4 offset" style="--gs:4" d="M288,294 L291,538"/><text class="g5" style="--gs:5" x="191" y="289">⑤</text><path class="g5 aligned" style="--gs:5" d="M191,289 Q429,254 445,261 Q461,268 460,366 Q459,464 447.5,477.5 Q436,491 409.5,470.5 Q409.5,470.5 383,450"/><path class="g5 offset" style="--gs:5" d="M191,385 Q344.38,350 354.69,357 Q365,364 364.36,409.5 Q363.71,455 356.3,461.75 Q348.89,468.5 331.81,458.25 Q331.81,458.25 314.73,448"/><text class="g6" style="--gs:6" x="307" y="296">⑥</text><path class="g6 aligned" style="--gs:6" d="M320,311 L321,509"/><path class="g6 offset" style="--gs:6" d="M440,311 L441,509"/><text class="g7" style="--gs:7" x="250" y="344">⑦</text><path class="g7 aligned" style="--gs:7" d="M261,359 L228,468"/><path class="g7 offset" style="--gs:7" d="M381,359 L348,468"/><text class="g8" style="--gs:8" x="371" y="329">⑧</text><path class="g8 aligned" style="--gs:8" d="M371,329 L406,400"/><path class="g8 offset" style="--gs:8" d="M491,329 L526,400"/><text class="g9" style="--gs:9" x="607" y="41">⑨</text><path class="g9 aligned" style="--gs:9" d="M607,41 Q642,91 626.13,116.25 Q530.88,267.75 515,293"/><path class="g9 offset" style="--gs:9" d="M511,41 Q528.5,71.95 520.56,87.58 Q472.94,181.37 465,197"/><text class="g10" style="--gs:10" x="607" y="204">⑩</text><path class="g10 aligned" style="--gs:10" d="M607,204 L849,168"/><path class="g10 offset" style="--gs:10" d="M607,300 L849,264"/><text class="g11" style="--gs:11" x="705" y="214">⑪</text><path class="g11 aligned" style="--gs:11" d="M705,214 Q729,251 716.75,275 Q680,347 642.5,379.5 Q567.5,444.5 530,477"/><path class="g11 offset" style="--gs:11" d="M609,214 Q621.42,237.49 615.08,252.73 Q596.06,298.45 576.65,319.09 Q537.83,360.36 518.42,381"/><text class="g12" style="--gs:12" x="555" y="276">⑫</text><path class="g12 aligned" style="--gs:12" d="M555,276 Q779,462 797.88,464.38 Q911.13,478.63 930,481"/><path class="g12 offset" style="--gs:12" d="M640.68,207.46 Q813.5,368.54 828.06,370.6 Q915.44,382.94 930,385"/><text class="g13" style="--gs:13" x="314" y="555">⑬</text><path class="g13 aligned" style="--gs:13" d="M314,555 Q354,603 351.88,641.25 Q339.13,870.75 337,909"/><path class="g13 offset" style="--gs:13" d="M218,555 Q258,603 255.88,641.25 Q243.13,870.75 241,909"/><text class="g14" style="--gs:14" x="371" y="581">⑭</text><path class="g14 aligned" style="--gs:14" d="M371,581 Q612,538 626.5,548.25 Q670,579 668.5,673.75 Q665.5,863.25 664,958"/><path class="g14 offset" style="--gs:14" d="M371,677 Q515.28,634 523.96,644.25 Q550,675 549.1,745.75 Q547.31,887.25 546.41,958"/><text class="g15" style="--gs:15" x="376" y="675">⑮</text><path class="g15 aligned" style="--gs:15" d="M376,675 L577,657"/><path class="g15 offset" style="--gs:15" d="M376,771 L577,753"/><text class="g16" style="--gs:16" x="369" y="766">⑯</text><path class="g16 aligned" style="--gs:16" d="M369,766 L583,745"/><path class="g16 offset" style="--gs:16" d="M369,862 L583,841"/><text class="g17" style="--gs:17" x="355" y="882">⑰</text><path class="g17 aligned" style="--gs:17" d="M355,882 Q563,855 571.13,856.38 Q619.88,864.63 628,866"/><path class="g17 offset" style="--gs:17" d="M355,978 Q563,951 571.13,952.38 Q619.88,960.63 628,962"/></g>
<g class="parts"><rect data-part="1" data-literal="敝" role="button" tabindex="0" aria-label="Part 敝" x="82" y="0" width="920" height="610"/><rect data-part="2" data-literal="目" data-radical="true" role="button" tabindex="0" aria-label="Part 目 (radical)" x="242" y="466" width="500" height="558"/></g>
</svg>
