<!--
  Stroke-order data for 瞭, derived from AnimCJK (https://github.com/parsimonhi/animCJK),
  itself derived from the Arphic PL KaitiM fonts. Distributed under the Arphic Public License
  (see ARPHICPL.TXT). Regenerated by scripts/build-strokes.ts — do not edit by hand.
-->
<svg id="z30637" class="acjk" viewBox="0 0 1024 1024" xmlns="http://www.w3.org/2000/svg">
<g class="glyph"><path id="z30637d1" d="M129 196C121 188 108 181 93 176C86 173 79 172 72 176C67 178 67 184 71 193C89 244 98 313 99 399C99 521 92 609 79 665C70 701 77 733 101 763C107 771 114 771 122 763C130 753 133 740 135 725C137 702 137 702 138 691C142 640 138 589 138 539C138 516 138 516 138 505C138 467 138 429 138 391C138 369 138 369 138 358C138 314 139 269 141 224C141 214 137 202 129 196Z"/><path id="z30637d2" d="M298 522C298 347 292 246 308 218C314 205 315 196 310 190C305 183 286 175 255 164C238 158 225 159 214 165C183 178 155 188 129 196C119 198 132 228 141 224C143 223 147 222 152 221C166 218 182 213 201 208C217 203 228 204 234 210C244 220 248 246 249 287C250 455 246 586 239 680C238 688 238 695 235 699C233 704 225 708 226 713C229 731 235 747 244 763C267 803 280 777 296 744C308 716 308 684 305 649C302 620 298 584 298 542C298 529 298 529 298 522Z"/><path id="z30637d3" d="M138 391C166 386 191 384 213 380C228 377 232 370 226 363C218 354 206 349 190 348C176 347 158 350 138 358C128 362 127 393 138 391Z"/><path id="z30637d4" d="M138 539C166 534 191 531 213 528C227 525 231 518 225 511C218 502 206 496 190 495C176 493 158 497 138 505C127 509 127 541 138 539Z"/><path id="z30637d5" d="M135 725C149 720 190 716 226 713C232 713 238 703 235 699C232 694 223 685 209 679C194 673 176 678 138 691C127 695 124 727 135 725Z"/><path id="z30637d6" d="M578 209C621 199 664 189 709 179C741 171 758 164 763 160C767 155 769 150 767 146C762 139 751 133 735 130C718 126 701 129 684 136C649 148 614 163 576 171C537 179 537 179 518 183C489 188 460 191 431 196C410 199 407 207 422 216C445 230 474 231 508 224C555 214 555 214 578 209Z"/><path id="z30637d7" d="M439 457C502 398 538 314 562 224C571 189 571 189 576 171C584 138 594 111 607 92C611 85 611 78 607 73C597 60 581 47 560 33C547 24 535 20 524 22C509 24 507 32 516 46C530 68 535 89 532 109C527 135 523 160 518 183C511 210 511 210 508 224C479 340 420 425 351 483C335 495 317 508 298 522C293 526 292 544 298 542C346 521 381 504 402 489C405 486 408 485 412 482C430 465 430 465 439 457Z"/><path id="z30637d8" d="M562 224C702 366 790 448 829 453C884 459 934 447 979 437C990 434 997 432 998 430C998 425 994 422 985 419C950 407 912 396 873 384C826 370 786 352 753 332C742 325 730 320 720 313C709 306 709 306 703 302C677 285 637 260 578 209C568 202 553 215 562 224Z"/><path id="z30637d9" d="M371 313Q390 329 409 349Q419 358 430 357Q437 357 442 347Q445 337 438 315Q432 294 368 278Q356 277 352 278Q348 281 349 290Q352 297 371 313Z"/><path id="z30637d10" d="M720 313C777 284 813 255 827 250C839 245 843 237 837 228C830 217 819 208 805 200C792 192 782 188 775 190C768 190 765 195 767 203C769 219 747 252 703 302C699 307 714 316 720 313Z"/><path id="z30637d11" d="M453 461C450 459 445 457 439 457C427 455 407 471 412 482C426 516 438 560 445 617C447 634 453 648 463 662C476 681 485 673 487 652C487 642 486 631 485 622C481 601 477 584 476 568C474 553 474 553 473 546C469 521 466 505 466 490C466 479 462 466 453 461Z"/><path id="z30637d12" d="M633 635C643 651 654 660 665 666C672 669 680 667 689 654C696 641 707 600 724 532C728 513 738 496 753 481C760 472 761 465 754 457C745 446 728 432 701 418C690 412 666 416 630 425C626 425 567 437 453 461C443 463 456 492 466 490C582 459 648 449 665 461C671 465 674 473 673 484C663 560 651 603 639 611C633 617 628 628 633 635Z"/><path id="z30637d13" d="M476 568C487 572 503 566 612 550C626 548 630 541 625 535C618 525 606 520 593 518C578 515 539 525 473 546C466 549 469 567 476 568Z"/><path id="z30637d14" d="M579 640C595 638 613 635 633 635C641 635 645 616 639 611C635 608 631 604 626 601C616 595 602 596 585 600C547 608 513 616 485 622C475 624 477 654 487 652C498 651 521 645 538 644C565 641 565 641 579 640Z"/><path id="z30637d15" d="M538 644C554 673 552 717 553 789C553 831 550 857 547 868C544 875 536 877 522 875C507 871 492 868 476 866C468 864 463 867 463 872C462 876 464 881 471 887C508 921 532 948 546 967C553 976 562 980 569 979C576 977 582 963 592 942C601 919 608 889 607 849C604 782 602 736 605 713C608 686 607 665 595 653C589 647 583 644 579 640C568 632 532 632 538 644Z"/><path id="z30637d16" d="M407 722C390 749 369 774 349 799C332 817 332 839 339 862C342 874 351 878 365 871C397 852 415 820 425 780C429 759 433 740 430 725C428 718 424 714 421 714C415 713 410 716 407 722Z"/><path id="z30637d17" d="M697 745C727 775 762 813 799 859C810 873 820 883 832 886C837 887 843 883 849 877C857 867 857 848 851 817C847 800 841 785 829 774C817 764 797 754 771 742C740 727 715 719 699 712C691 709 687 710 687 719C685 728 689 737 697 745Z"/></g>
<defs><clipPath id="z30637c1"><use href="#z30637d1"/></clipPath>
	<clipPath id="z30637c2"><use href="#z30637d2"/></clipPath>
	<clipPath id="z30637c3"><use href="#z30637d3"/></clipPath>
	<clipPath id="z30637c4"><use href="#z30637d4"/></clipPath>
	<clipPath id="z30637c5"><use href="#z30637d5"/></clipPath>
	<clipPath id="z30637c6"><use href="#z30637d6"/></clipPath>
	<clipPath id="z30637c7"><use href="#z30637d7"/></clipPath>
	<clipPath id="z30637c8"><use href="#z30637d8"/></clipPath>
	<clipPath id="z30637c9"><use href="#z30637d9"/></clipPath>
	<clipPath id="z30637c10"><use href="#z30637d10"/></clipPath>
	<clipPath id="z30637c11"><use href="#z30637d11"/></clipPath>
	<clipPath id="z30637c12"><use href="#z30637d12"/></clipPath>
	<clipPath id="z30637c13"><use href="#z30637d13"/></clipPath>
	<clipPath id="z30637c14"><use href="#z30637d14"/></clipPath>
	<clipPath id="z30637c15"><use href="#z30637d15"/></clipPath>
	<clipPath id="z30637c16"><use href="#z30637d16"/></clipPath>
	<clipPath id="z30637c17"><use href="#z30637d17"/></clipPath><marker id="guide-arrow" viewBox="0 0 16 16" refX="5" refY="5" markerWidth="4" markerHeight="4" orient="auto-start-reverse"><path d="M 0 0 L 10 5 L 0 10 z" fill="inherit"/></marker></defs>
<g class="strokes"><path pathLength="3333" clip-path="url(#z30637c1)" d="M76 183L113 235L107 763"/><path pathLength="3333" clip-path="url(#z30637c2)" d="M128 202L231 182L276 209L258 775"/><path pathLength="3333" clip-path="url(#z30637c3)" d="M139 381L224 368"/><path pathLength="3333" clip-path="url(#z30637c4)" d="M131 526L221 515"/><path pathLength="3333" clip-path="url(#z30637c5)" d="M130 717L229 703"/><path pathLength="3333" clip-path="url(#z30637c6)" d="M421 206L761 147"/><path pathLength="3333" clip-path="url(#z30637c7)" d="M518 29L570 94L505 313L431 434L301 534"/><path pathLength="3333" clip-path="url(#z30637c8)" d="M565 214L817 406L989 426"/><path pathLength="3333" clip-path="url(#z30637c9)" d="M356 287L430 351"/><path pathLength="3333" clip-path="url(#z30637c10)" d="M775 195L798 236L712 303"/><path pathLength="3333" clip-path="url(#z30637c11)" d="M436 459L472 665"/><path pathLength="3333" clip-path="url(#z30637c12)" d="M456 467L662 437L698 450L715 475L655 658"/><path pathLength="3333" clip-path="url(#z30637c13)" d="M474 558L621 539"/><path pathLength="3333" clip-path="url(#z30637c14)" d="M481 634L636 620"/><path pathLength="3333" clip-path="url(#z30637c15)" d="M544 640L578 684L571 899L548 929L467 875"/><path pathLength="3333" clip-path="url(#z30637c16)" d="M421 720L343 866"/><path pathLength="3333" clip-path="url(#z30637c17)" d="M695 719L808 809L834 881"/></g>
<g class="guides"><text class="g1" style="--gs:1" x="76" y="183">①</text><path class="g1 aligned" style="--gs:1" d="M76,183 Q113,235 112.25,301 Q107.75,697 107,763"/><path class="g1 offset" style="--gs:1" d="M-20,183 Q17,235 16.25,301 Q11.75,697 11,763"/><text class="g2" style="--gs:2" x="128" y="202">②</text><path class="g2 aligned" style="--gs:2" d="M128,202 Q231,182 242.25,188.75 Q276,209 271.5,350.5 Q262.5,633.5 258,775"/><path class="g2 offset" style="--gs:2" d="M128,298 Q179.5,278 185.13,283.66 Q202,300.63 199.75,419.22 Q195.25,656.41 193,775"/><text class="g3" style="--gs:3" x="139" y="381">③</text><path class="g3 aligned" style="--gs:3" d="M139,381 L224,368"/><path class="g3 offset" style="--gs:3" d="M139,477 L224,464"/><text class="g4" style="--gs:4" x="131" y="526">④</text><path class="g4 aligned" style="--gs:4" d="M131,526 L221,515"/><path class="g4 offset" style="--gs:4" d="M131,622 L221,611"/><text class="g5" style="--gs:5" x="130" y="717">⑤</text><path class="g5 aligned" style="--gs:5" d="M130,717 L229,703"/><path class="g5 offset" style="--gs:5" d="M130,813 L229,799"/><text class="g6" style="--gs:6" x="421" y="206">⑥</text><path class="g6 aligned" style="--gs:6" d="M421,206 L761,147"/><path class="g6 offset" style="--gs:6" d="M421,302 L761,243"/><text class="g7" style="--gs:7" x="518" y="29">⑦</text><path class="g7 aligned" style="--gs:7" d="M518,29 Q570,94 537.5,203.5 Q505,313 468,373.5 Q431,434 366,484 Q366,484 301,534"/><path class="g7 offset" style="--gs:7" d="M422,29 Q455.44,81.64 434.54,170.33 Q413.64,259.01 389.84,308.01 Q366.05,357.01 324.25,397.5 Q324.25,397.5 282.44,438"/><text class="g8" style="--gs:8" x="565" y="214">⑧</text><path class="g8 aligned" style="--gs:8" d="M565,214 Q817,406 838.5,408.5 Q967.5,423.5 989,426"/><path class="g8 offset" style="--gs:8" d="M650.68,145.46 Q851.76,312.59 868.91,314.77 Q971.84,327.82 989,330"/><text class="g9" style="--gs:9" x="356" y="287">⑨</text><path class="g9 aligned" style="--gs:9" d="M356,287 L430,351"/><path class="g9 offset" style="--gs:9" d="M441.68,218.46 L515.68,282.46"/><text class="g10" style="--gs:10" x="775" y="195">⑩</text><path class="g10 aligned" style="--gs:10" d="M775,195 Q798,236 787.25,244.38 Q722.75,294.63 712,303"/><path class="g10 offset" style="--gs:10" d="M679,195 Q690.5,215.5 685.13,219.69 Q652.88,244.81 647.5,249"/><text class="g11" style="--gs:11" x="436" y="459">⑪</text><path class="g11 aligned" style="--gs:11" d="M436,459 L472,665"/><path class="g11 offset" style="--gs:11" d="M556,459 L592,665"/><text class="g12" style="--gs:12" x="456" y="467">⑫</text><path class="g12 aligned" style="--gs:12" d="M456,467 Q662,437 680,443.5 Q698,450 706.5,462.5 Q715,475 685,566.5 Q685,566.5 655,658"/><path class="g12 offset" style="--gs:12" d="M456,563 Q566.56,533 576.22,539.5 Q585.88,546 590.44,550.25 Q595,554.49 578.9,606.25 Q578.9,606.25 562.8,658"/><text class="g13" style="--gs:13" x="474" y="558">⑬</text><path class="g13 aligned" style="--gs:13" d="M474,558 L621,539"/><path class="g13 offset" style="--gs:13" d="M474,654 L621,635"/><text class="g14" style="--gs:14" x="481" y="634">⑭</text><path class="g14 aligned" style="--gs:14" d="M481,634 L636,620"/><path class="g14 offset" style="--gs:14" d="M481,730 L636,716"/><text class="g15" style="--gs:15" x="544" y="640">⑮</text><path class="g15 aligned" style="--gs:15" d="M544,640 Q578,684 574.5,791.5 Q571,899 559.5,914 Q548,929 507.5,902 Q507.5,902 467,875"/><path class="g15 offset" style="--gs:15" d="M448,640 Q465,669.38 463.25,741.17 Q461.5,812.97 455.75,822.98 Q450,833 429.75,814.97 Q429.75,814.97 409.5,796.94"/><text class="g16" style="--gs:16" x="421" y="720">⑯</text><path class="g16 aligned" style="--gs:16" d="M421,720 L343,866"/><path class="g16 offset" style="--gs:16" d="M541,720 L463,866"/><text class="g17" style="--gs:17" x="695" y="719">⑰</text><path class="g17 aligned" style="--gs:17" d="M695,719 Q808,809 811.25,818 Q830.75,872 834,881"/><path class="g17 offset" style="--gs:17" d="M780.68,650.46 Q893.68,740.46 896.93,749.46 Q916.43,803.46 919.68,812.46"/></g>
</svg>
