<!--
  Stroke-order data for 矛, derived from AnimCJK (https://github.com/parsimonhi/animCJK),
  itself derived from the Arphic PL KaitiM fonts. Distributed under the Arphic Public License
  (see ARPHICPL.TXT). Regenerated by scripts/build-strokes.ts — do not edit by hand.
-->
<svg id="z30683" class="acjk" viewBox="0 0 1024 1024" xmlns="http://www.w3.org/2000/svg">
<g class="glyph"><path id="z30683d1" d="M534 281Q660 182 711 168Q733 162 727 144Q724 125 653 83Q632 70 608 79Q530 104 414 134Q384 143 311 137Q286 136 294 159Q303 172 323 186Q357 205 394 184Q424 174 579 129Q592 123 605 130Q618 137 612 152Q567 206 515 270C510 276 528 285 534 281Z"/><path id="z30683d2" d="M515 270Q440 240 424 249Q420 253 421 265Q422 271 522 354Q535 366 550 365Q560 364 565 352Q569 337 560 309Q554 293 534 281C521 274 521 274 515 270Z"/><path id="z30683d3" d="M528 413Q646 394 764 382Q804 376 807 394Q806 413 766 479Q754 498 764 502Q771 509 788 495Q885 434 924 423Q954 419 953 401Q952 385 864 334Q837 321 803 327Q640 363 501 385Q344 404 123 425Q89 426 113 456Q132 481 192 466Q322 442 451 425C502 417 502 417 528 413Z"/><path id="z30683d4" d="M515 453Q543 526 546 626Q550 693 539 752Q530 809 515 822Q506 828 424 811Q394 802 384 808Q377 809 396 824Q465 881 503 930Q524 952 545 941Q570 926 590 863Q617 772 606 621Q602 513 577 468Q559 434 528 413C517 405 510 440 515 453Z"/><path id="z30683d5" d="M451 425Q445 450 422 483Q358 574 285 635Q224 690 100 770Q78 785 98 787Q132 793 249 731Q319 691 408 596Q459 542 488 493Q503 468 515 453C559 395 465 354 451 425Z"/></g>
<defs><clipPath id="z30683c1"><use href="#z30683d1"/></clipPath>
	<clipPath id="z30683c2"><use href="#z30683d2"/></clipPath>
	<clipPath id="z30683c3"><use href="#z30683d3"/></clipPath>
	<clipPath id="z30683c4"><use href="#z30683d4"/></clipPath>
	<clipPath id="z30683c5"><use href="#z30683d5"/></clipPath><marker id="guide-arrow" viewBox="0 0 16 16" refX="5" refY="5" markerWidth="4" markerHeight="4" orient="auto-start-reverse"><path d="M 0 0 L 10 5 L 0 10 z" fill="inherit"/></marker></defs>
<g class="strokes"><path pathLength="3333" clip-path="url(#z30683c1)" d="M300 151L365 167L629 106L672 154L524 274"/><path pathLength="3333" clip-path="url(#z30683c2)" d="M429 256L561 353"/><path pathLength="3333" clip-path="url(#z30683c3)" d="M111 437L181 444L800 354L840 364L899 410L769 499"/><path pathLength="3333" clip-path="url(#z30683c4)" d="M531 420L576 618L561 822L520 892L389 811"/><path pathLength="3333" clip-path="url(#z30683c5)" d="M519 421L306 655L96 781"/></g>
<g class="guides"><text class="g1" style="--gs:1" x="300" y="151">①</text><path class="g1 aligned" style="--gs:1" d="M300,151 Q365,167 497,136.5 Q629,106 650.5,130 Q672,154 598,214 Q598,214 524,274"/><path class="g1 offset" style="--gs:1" d="M300,247 Q332.5,263 398.5,232.5 Q464.5,202 475.25,226 Q486,250 449,310 Q449,310 412,370"/><text class="g2" style="--gs:2" x="429" y="256">②</text><path class="g2 aligned" style="--gs:2" d="M429,256 L561,353"/><path class="g2 offset" style="--gs:2" d="M514.68,187.46 L646.68,284.46"/><text class="g3" style="--gs:3" x="111" y="437">③</text><path class="g3 aligned" style="--gs:3" d="M111,437 Q181,444 490.5,399 Q800,354 820,359 Q840,364 869.5,387 Q899,410 834,454.5 Q834,454.5 769,499"/><path class="g3 offset" style="--gs:3" d="M111,533 Q165.19,540 404.78,495 Q644.36,450 659.85,455 Q675.33,460 698.16,483 Q721,506 670.68,550.5 Q670.68,550.5 620.37,595"/><text class="g4" style="--gs:4" x="531" y="420">④</text><path class="g4 aligned" style="--gs:4" d="M531,420 Q576,618 568.5,720 Q561,822 540.5,857 Q520,892 454.5,851.5 Q454.5,851.5 389,811"/><path class="g4 offset" style="--gs:4" d="M435,420 Q457.5,577.73 453.75,658.98 Q450,740.24 439.75,768.12 Q429.5,796 396.75,763.74 Q396.75,763.74 364,731.47"/><text class="g5" style="--gs:5" x="519" y="421">⑤</text><path class="g5 aligned" style="--gs:5" d="M519,421 Q306,655 279.75,670.75 Q122.25,765.25 96,781"/><path class="g5 offset" style="--gs:5" d="M604.68,489.54 Q391.68,723.54 365.43,739.29 Q207.93,833.79 181.68,849.54"/></g>
</svg>
