<!--
  Stroke-order data for 硯, derived from AnimCJK (https://github.com/parsimonhi/animCJK),
  itself derived from the Arphic PL KaitiM fonts. Distributed under the Arphic Public License
  (see ARPHICPL.TXT). Regenerated by scripts/build-strokes.ts — do not edit by hand.
-->
<svg id="z30831" class="acjk" viewBox="0 0 1024 1024" xmlns="http://www.w3.org/2000/svg">
<g class="glyph"><path style="--part:1" id="z30831d1" d="M280 257C394 228 417 221 419 219C425 213 426 206 423 202C418 193 405 187 385 184C366 181 356 186 280 208C224 223 182 229 154 234C129 238 125 246 145 257C168 270 202 276 240 267C267 260 267 260 280 257Z"/><path style="--part:1" id="z30831d2" d="M236 487C260 446 281 391 310 326C320 301 327 293 326 286C325 278 317 274 310 269C300 263 291 259 280 257C267 254 232 256 240 267C246 273 251 289 248 317C241 366 223 424 189 486C175 511 175 511 168 523C119 607 91 650 35 713C30 717 31 721 39 720C79 710 128 665 183 575C218 516 218 516 236 487Z"/><path style="--part:1" id="z30831d3" d="M189 486C185 485 180 484 176 483C168 480 163 480 161 484C156 488 156 495 162 505C164 509 166 515 168 523C178 558 178 558 183 575C189 603 196 637 201 678C202 697 207 715 219 732C229 745 237 749 241 739C245 726 246 713 245 686C244 674 242 663 241 652C232 578 226 534 226 518C226 502 205 489 189 486Z"/><path style="--part:1" id="z30831d4" d="M384 622C394 565 408 528 425 510C439 493 439 480 424 470C383 448 360 437 355 439C350 439 345 441 340 445C312 461 284 477 236 487C220 490 208 489 189 486C173 483 210 521 226 518C232 517 238 515 246 513C274 505 291 500 317 494C333 490 344 491 349 498C353 502 354 517 350 541C345 565 340 592 335 620C332 636 381 638 384 622Z"/><path style="--part:1" id="z30831d5" d="M245 686C262 685 282 677 399 653C404 651 409 648 410 642C410 637 401 630 384 622C369 616 350 614 335 620C312 628 267 643 241 652C230 656 234 686 245 686Z"/><path style="--part:2" id="z30831d6" d="M508 158C502 152 492 148 480 144C473 141 467 141 462 144C457 146 458 151 461 159C476 198 484 261 486 346C487 401 483 444 477 474C469 508 478 538 504 565C510 571 524 556 524 547C524 542 525 539 527 531C528 522 528 513 528 505C526 476 527 458 526 420C525 403 525 403 525 395C523 363 524 335 524 312C523 296 523 296 523 288C521 253 521 198 524 184C526 174 516 164 508 158Z"/><path style="--part:2" id="z30831d7" d="M708 512C711 528 714 544 724 561C744 595 757 587 771 555C779 534 782 511 781 485C770 305 773 198 791 168C798 154 799 145 794 137C788 129 768 120 733 109C714 103 700 104 688 110C622 138 561 152 508 158C498 160 514 186 524 184C532 184 573 175 648 157C678 149 698 149 709 160C715 166 719 183 721 210C725 321 723 408 721 470C720 478 720 484 718 488C716 496 706 504 708 512Z"/><path style="--part:2" id="z30831d8" d="M524 312C534 314 623 296 667 289C682 286 687 280 681 272C674 262 662 255 645 254C622 251 581 263 523 288C516 291 516 312 524 312Z"/><path style="--part:2" id="z30831d9" d="M526 420C536 424 559 415 667 401C681 399 686 392 681 384C674 373 662 367 645 365C619 361 579 372 525 395C517 398 518 418 526 420Z"/><path style="--part:2" id="z30831d10" d="M663 515C671 513 697 513 708 512C717 512 724 494 718 488C688 460 681 478 528 505C519 507 518 531 527 531C541 532 590 524 617 521C648 517 648 517 663 515Z"/><path style="--part:2" id="z30831d11" d="M504 565C512 655 454 751 332 855C326 859 326 863 331 865C346 871 381 852 436 812C481 778 521 721 557 639C562 626 569 613 578 600C582 593 584 586 580 581C565 561 545 551 524 547C515 545 504 556 504 565Z"/><path style="--part:2" id="z30831d12" d="M617 521C627 543 632 571 631 603C625 749 630 838 655 868C670 887 694 901 723 910C819 940 904 926 974 874C986 864 988 851 981 836C971 814 963 772 956 710C954 699 952 692 949 690C944 687 941 692 939 703C921 769 907 814 893 834C876 857 836 866 780 860C745 856 702 848 686 816C665 777 665 689 686 554C688 539 681 527 663 515C650 507 611 507 617 521Z"/></g>
<defs><clipPath id="z30831c1"><use href="#z30831d1"/></clipPath>
	<clipPath id="z30831c2"><use href="#z30831d2"/></clipPath>
	<clipPath id="z30831c3"><use href="#z30831d3"/></clipPath>
	<clipPath id="z30831c4"><use href="#z30831d4"/></clipPath>
	<clipPath id="z30831c5"><use href="#z30831d5"/></clipPath>
	<clipPath id="z30831c6"><use href="#z30831d6"/></clipPath>
	<clipPath id="z30831c7"><use href="#z30831d7"/></clipPath>
	<clipPath id="z30831c8"><use href="#z30831d8"/></clipPath>
	<clipPath id="z30831c9"><use href="#z30831d9"/></clipPath>
	<clipPath id="z30831c10"><use href="#z30831d10"/></clipPath>
	<clipPath id="z30831c11"><use href="#z30831d11"/></clipPath>
	<clipPath id="z30831c12"><use href="#z30831d12"/></clipPath><marker id="guide-arrow" viewBox="0 0 16 16" refX="5" refY="5" markerWidth="4" markerHeight="4" orient="auto-start-reverse"><path d="M 0 0 L 10 5 L 0 10 z" fill="inherit"/></marker></defs>
<g class="strokes"><path style="--part:1" pathLength="3333" clip-path="url(#z30831c1)" d="M139 243L213 247L420 204"/><path style="--part:1" pathLength="3333" clip-path="url(#z30831c2)" d="M245 263L287 292L238 436L138 609L43 711"/><path style="--part:1" pathLength="3333" clip-path="url(#z30831c3)" d="M166 490L197 519L233 737"/><path style="--part:1" pathLength="3333" clip-path="url(#z30831c4)" d="M195 492L237 501L342 467L388 488L352 631"/><path style="--part:1" pathLength="3333" clip-path="url(#z30831c5)" d="M236 668L405 641"/><path style="--part:2" pathLength="3333" clip-path="url(#z30831c6)" d="M467 148L496 182L507 558"/><path style="--part:2" pathLength="3333" clip-path="url(#z30831c7)" d="M514 165L704 129L755 155L746 577"/><path style="--part:2" pathLength="3333" clip-path="url(#z30831c8)" d="M524 301L678 273"/><path style="--part:2" pathLength="3333" clip-path="url(#z30831c9)" d="M523 410L677 386"/><path style="--part:2" pathLength="3333" clip-path="url(#z30831c10)" d="M524 520L716 496"/><path style="--part:2" pathLength="3333" clip-path="url(#z30831c11)" d="M514 552L542 594L488 717L335 860"/><path style="--part:2" pathLength="3333" clip-path="url(#z30831c12)" d="M624 517L657 551L656 800L704 871L830 893L922 862L944 835L946 696"/></g>
<g class="guides"><text class="g1" style="--gs:1" x="139" y="243">①</text><path class="g1 aligned" style="--gs:1" d="M139,243 Q213,247 238.88,241.63 Q394.13,209.38 420,204"/><path class="g1 offset" style="--gs:1" d="M139,339 Q213,343 238.88,337.63 Q394.13,305.38 420,300"/><text class="g2" style="--gs:2" x="245" y="263">②</text><path class="g2 aligned" style="--gs:2" d="M245,263 Q287,292 262.5,364 Q238,436 188,522.5 Q138,609 90.5,660 Q90.5,660 43,711"/><path class="g2 offset" style="--gs:2" d="M149,263 Q174.48,285.79 159.61,342.36 Q144.75,398.93 114.43,466.89 Q84.1,534.86 55.29,574.93 Q55.29,574.93 26.48,615"/><text class="g3" style="--gs:3" x="166" y="490">③</text><path class="g3 aligned" style="--gs:3" d="M166,490 Q197,519 201.5,546.25 Q228.5,709.75 233,737"/><path class="g3 offset" style="--gs:3" d="M251.68,421.46 Q282.68,450.46 287.18,477.71 Q314.18,641.21 318.68,668.46"/><text class="g4" style="--gs:4" x="195" y="492">④</text><path class="g4 aligned" style="--gs:4" d="M195,492 Q237,501 289.5,484 Q342,467 365,477.5 Q388,488 370,559.5 Q370,559.5 352,631"/><path class="g4 offset" style="--gs:4" d="M195,588 Q216,580 242.25,571.5 Q268.5,563 280,573.5 Q291.5,584 282.5,614.5 Q282.5,614.5 273.5,645"/><text class="g5" style="--gs:5" x="236" y="668">⑤</text><path class="g5 aligned" style="--gs:5" d="M236,668 L405,641"/><path class="g5 offset" style="--gs:5" d="M236,764 L405,737"/><text class="g6" style="--gs:6" x="467" y="148">⑥</text><path class="g6 aligned" style="--gs:6" d="M467,148 Q496,182 497.38,229 Q505.63,511 507,558"/><path class="g6 offset" style="--gs:6" d="M552.68,79.46 Q581.68,113.46 583.05,160.46 Q591.3,442.46 592.68,489.46"/><text class="g7" style="--gs:7" x="514" y="165">⑦</text><path class="g7 aligned" style="--gs:7" d="M514,165 Q704,129 716.75,135.5 Q755,155 752.75,260.5 Q748.25,471.5 746,577"/><path class="g7 offset" style="--gs:7" d="M514,261 Q609.39,225 615.8,231.5 Q635,251 633.87,332.5 Q631.61,495.5 630.48,577"/><text class="g8" style="--gs:8" x="524" y="301">⑧</text><path class="g8 aligned" style="--gs:8" d="M524,301 L678,273"/><path class="g8 offset" style="--gs:8" d="M524,397 L678,369"/><text class="g9" style="--gs:9" x="523" y="410">⑨</text><path class="g9 aligned" style="--gs:9" d="M523,410 L677,386"/><path class="g9 offset" style="--gs:9" d="M523,506 L677,482"/><text class="g10" style="--gs:10" x="524" y="520">⑩</text><path class="g10 aligned" style="--gs:10" d="M524,520 L716,496"/><path class="g10 offset" style="--gs:10" d="M524,616 L716,592"/><text class="g11" style="--gs:11" x="514" y="552">⑪</text><path class="g11 aligned" style="--gs:11" d="M514,552 Q542,594 528.5,624.75 Q488,717 449.75,752.75 Q373.25,824.25 335,860"/><path class="g11 offset" style="--gs:11" d="M418,552 Q433.01,580.91 425.78,602.07 Q404.06,665.57 383.55,690.18 Q342.53,739.39 322.01,764"/><text class="g12" style="--gs:12" x="624" y="517">⑫</text><path class="g12 aligned" style="--gs:12" d="M624,517 Q657,551 656.5,675.5 Q656,800 680,835.5 Q704,871 767,882 Q830,893 876,877.5 Q922,862 933,848.5 Q944,835 945,765.5 Q945,765.5 946,696"/><path class="g12 offset" style="--gs:12" d="M692.54,448.46 Q709.04,482.46 708.79,606.96 Q708.54,731.46 720.54,766.96 Q732.54,802.46 764.04,813.46 Q795.54,824.46 818.54,808.96 Q841.54,793.46 847.04,779.96 Q852.54,766.46 853.04,696.96 Q853.04,696.96 853.54,627.46"/></g>
<g class="parts"><rect data-part="2" data-literal="見" role="button" tabindex="0" aria-label="Part 見" x="263" y="57" width="755" height="908"/><rect data-part="1" data-literal="石" data-radical="true" role="button" tabindex="0" aria-label="Part 石 (radical)" x="0" y="132" width="492" height="677"/></g>
</svg>
