<!--
  Stroke-order data for 碍, derived from AnimCJK (https://github.com/parsimonhi/animCJK),
  itself derived from the Arphic PL KaitiM fonts. Distributed under the Arphic Public License
  (see ARPHICPL.TXT). Regenerated by scripts/build-strokes.ts — do not edit by hand.
-->
<svg id="z30861" class="acjk" viewBox="0 0 1024 1024" xmlns="http://www.w3.org/2000/svg">
<g class="glyph"><path style="--part:1" id="z30861d1" d="M288 281C384 257 434 240 437 237C442 231 442 225 440 220C435 211 422 206 402 203C381 200 361 204 341 213C318 222 294 230 268 238C239 246 208 250 175 257C150 261 148 268 166 281C188 296 209 300 239 293C272 285 272 285 288 281Z"/><path style="--part:1" id="z30861d2" d="M237 497C259 459 280 406 306 341C315 317 320 305 320 305C314 292 303 284 288 281C271 278 233 277 239 293C253 329 245 391 199 481C186 506 186 506 180 518C151 573 115 620 79 664C55 689 60 698 89 681C120 663 159 625 196 565C223 520 223 520 237 497Z"/><path style="--part:1" id="z30861d3" d="M199 481C165 475 165 487 180 518C191 549 191 549 196 565C206 596 213 633 218 676C220 696 225 714 237 729C247 742 255 745 259 735C263 722 264 703 261 678C258 654 258 654 256 642C247 583 242 544 241 525C240 516 242 506 233 493C226 483 212 483 199 481Z"/><path style="--part:1" id="z30861d4" d="M394 616C402 563 414 529 429 512C442 495 440 482 426 475C413 468 399 459 382 450C369 443 357 445 346 452C322 464 278 480 233 493C223 496 231 528 241 525C241 525 271 514 326 500C361 490 360 520 358 542C355 562 351 586 347 612C344 627 391 631 394 616Z"/><path style="--part:1" id="z30861d5" d="M261 678C277 677 287 667 407 647C435 642 419 621 394 616C379 613 362 606 347 612C316 622 283 634 256 642C245 646 249 680 261 678Z"/><path style="--part:2" id="z30861d6" d="M522 137C515 133 503 131 486 128C465 124 463 131 474 149C491 178 508 245 518 314C520 334 526 352 538 366C555 386 560 370 562 352C562 345 562 338 562 332C558 303 553 283 550 260C547 243 547 243 546 235C541 204 538 182 536 168C534 157 533 141 522 137Z"/><path style="--part:2" id="z30861d7" d="M703 333C713 347 723 357 733 362C739 366 747 362 757 350C765 335 778 286 796 204C800 185 809 168 824 153C831 144 832 136 826 129C816 118 798 105 772 90C748 76 734 87 688 100C651 109 609 119 522 137C511 139 525 172 536 168C568 155 613 146 706 129C729 124 750 137 747 160C733 250 720 298 710 306C704 313 697 326 703 333Z"/><path style="--part:2" id="z30861d8" d="M550 260C564 259 599 251 692 234C727 227 696 205 673 203C651 200 616 211 546 235C538 238 542 262 550 260Z"/><path style="--part:2" id="z30861d9" d="M710 306C684 294 661 314 562 332C555 333 555 353 562 352C656 339 656 339 703 333C712 331 719 309 710 306Z"/><path style="--part:2" id="z30861d10" d="M516 440C491 443 489 451 507 462C533 477 563 478 601 469C647 456 694 448 742 437C764 431 776 426 780 423C784 418 786 412 783 407C778 399 766 393 748 390C733 387 692 399 624 419C582 430 545 435 516 440Z"/><path style="--part:2" id="z30861d11" d="M777 566C828 560 882 558 945 558C971 557 972 535 957 525C919 499 882 495 846 506C828 511 807 515 785 520C738 529 738 529 715 534C623 552 522 566 443 579C430 580 428 587 438 597C446 605 456 611 469 614C481 616 492 616 503 613C584 588 657 578 719 572C758 568 758 568 777 566Z"/><path style="--part:2" id="z30861d12" d="M686 834C661 826 637 818 614 813C593 808 602 823 613 833C661 877 692 914 710 940C718 952 729 953 740 944C764 921 779 886 778 839C774 697 774 581 777 566C782 535 782 535 785 520C786 511 782 503 775 497C758 482 739 472 720 466C707 461 698 461 693 467C688 471 691 478 698 489C706 502 713 517 715 534C718 559 718 559 719 572C729 674 722 753 718 807C716 827 704 839 686 834Z"/><path style="--part:2" id="z30861d13" d="M528 689C540 701 553 715 566 730C572 737 581 741 591 742C597 742 601 739 605 731C607 723 607 710 604 693C600 676 574 661 527 647C518 644 511 642 508 645C504 646 502 652 504 660C504 666 514 675 528 689Z"/></g>
<defs><clipPath id="z30861c1"><use href="#z30861d1"/></clipPath>
	<clipPath id="z30861c2"><use href="#z30861d2"/></clipPath>
	<clipPath id="z30861c3"><use href="#z30861d3"/></clipPath>
	<clipPath id="z30861c4"><use href="#z30861d4"/></clipPath>
	<clipPath id="z30861c5"><use href="#z30861d5"/></clipPath>
	<clipPath id="z30861c6"><use href="#z30861d6"/></clipPath>
	<clipPath id="z30861c7"><use href="#z30861d7"/></clipPath>
	<clipPath id="z30861c8"><use href="#z30861d8"/></clipPath>
	<clipPath id="z30861c9"><use href="#z30861d9"/></clipPath>
	<clipPath id="z30861c10"><use href="#z30861d10"/></clipPath>
	<clipPath id="z30861c11"><use href="#z30861d11"/></clipPath>
	<clipPath id="z30861c12"><use href="#z30861d12"/></clipPath>
	<clipPath id="z30861c13"><use href="#z30861d13"/></clipPath><marker id="guide-arrow" viewBox="0 0 16 16" refX="5" refY="5" markerWidth="4" markerHeight="4" orient="auto-start-reverse"><path d="M 0 0 L 10 5 L 0 10 z" fill="inherit"/></marker></defs>
<g class="strokes"><path style="--part:1" pathLength="3333" clip-path="url(#z30861c1)" d="M161 265L213 273L436 228"/><path style="--part:1" pathLength="3333" clip-path="url(#z30861c2)" d="M245 293L282 326L234 457L149 602L70 682"/><path style="--part:1" pathLength="3333" clip-path="url(#z30861c3)" d="M178 489L214 528L250 733"/><path style="--part:1" pathLength="3333" clip-path="url(#z30861c4)" d="M232 509L344 475L391 491L367 622"/><path style="--part:1" pathLength="3333" clip-path="url(#z30861c5)" d="M256 666L417 631"/><path style="--part:2" pathLength="3333" clip-path="url(#z30861c6)" d="M476 135L509 163L549 370"/><path style="--part:2" pathLength="3333" clip-path="url(#z30861c7)" d="M527 146L716 109L776 129L787 151L726 356"/><path style="--part:2" pathLength="3333" clip-path="url(#z30861c8)" d="M550 249L703 222"/><path style="--part:2" pathLength="3333" clip-path="url(#z30861c9)" d="M560 343L710 315"/><path style="--part:2" pathLength="3333" clip-path="url(#z30861c10)" d="M504 451L777 412"/><path style="--part:2" pathLength="3333" clip-path="url(#z30861c11)" d="M437 586L492 593L861 531L963 540"/><path style="--part:2" pathLength="3333" clip-path="url(#z30861c12)" d="M698 471L750 525L742 847L704 894L610 818"/><path style="--part:2" pathLength="3333" clip-path="url(#z30861c13)" d="M511 654L596 736"/></g>
<g class="guides"><text class="g1" style="--gs:1" x="161" y="265">①</text><path class="g1 aligned" style="--gs:1" d="M161,265 Q213,273 240.88,267.38 Q408.13,233.63 436,228"/><path class="g1 offset" style="--gs:1" d="M161,361 Q213,369 240.88,363.38 Q408.13,329.63 436,324"/><text class="g2" style="--gs:2" x="245" y="293">②</text><path class="g2 aligned" style="--gs:2" d="M245,293 Q282,326 258,391.5 Q234,457 191.5,529.5 Q149,602 109.5,642 Q109.5,642 70,682"/><path class="g2 offset" style="--gs:2" d="M149,293 Q169.25,317.86 156.11,367.19 Q142.98,416.53 119.73,471.13 Q96.47,525.74 74.86,555.87 Q74.86,555.87 53.25,586"/><text class="g3" style="--gs:3" x="178" y="489">③</text><path class="g3 aligned" style="--gs:3" d="M178,489 Q214,528 218.5,553.63 Q245.5,707.38 250,733"/><path class="g3 offset" style="--gs:3" d="M263.68,420.46 Q299.68,459.46 304.18,485.08 Q331.18,638.83 335.68,664.46"/><text class="g4" style="--gs:4" x="232" y="509">④</text><path class="g4 aligned" style="--gs:4" d="M232,509 Q344,475 355.75,479 Q391,491 385,523.75 Q373,589.25 367,622"/><path class="g4 offset" style="--gs:4" d="M232,605 Q288,571 293.88,575 Q311.5,587 308.5,601.38 Q302.5,630.13 299.5,644.5"/><text class="g5" style="--gs:5" x="256" y="666">⑤</text><path class="g5 aligned" style="--gs:5" d="M256,666 L417,631"/><path class="g5 offset" style="--gs:5" d="M256,762 L417,727"/><text class="g6" style="--gs:6" x="476" y="135">⑥</text><path class="g6 aligned" style="--gs:6" d="M476,135 Q509,163 514,188.88 Q544,344.13 549,370"/><path class="g6 offset" style="--gs:6" d="M561.68,66.46 Q594.68,94.46 599.68,120.33 Q629.68,275.58 634.68,301.46"/><text class="g7" style="--gs:7" x="527" y="146">⑦</text><path class="g7 aligned" style="--gs:7" d="M527,146 Q716,109 746,119 Q776,129 781.5,140 Q787,151 756.5,253.5 Q756.5,253.5 726,356"/><path class="g7 offset" style="--gs:7" d="M527,242 Q628.77,205 644.92,215 Q661.08,225 664.04,227.84 Q667,230.68 650.58,293.34 Q650.58,293.34 634.15,356"/><text class="g8" style="--gs:8" x="550" y="249">⑧</text><path class="g8 aligned" style="--gs:8" d="M550,249 L703,222"/><path class="g8 offset" style="--gs:8" d="M550,345 L703,318"/><text class="g9" style="--gs:9" x="560" y="343">⑨</text><path class="g9 aligned" style="--gs:9" d="M560,343 L710,315"/><path class="g9 offset" style="--gs:9" d="M560,439 L710,411"/><text class="g10" style="--gs:10" x="504" y="451">⑩</text><path class="g10 aligned" style="--gs:10" d="M504,451 L777,412"/><path class="g10 offset" style="--gs:10" d="M504,547 L777,508"/><text class="g11" style="--gs:11" x="437" y="586">⑪</text><path class="g11 aligned" style="--gs:11" d="M437,586 Q492,593 584.25,577.5 Q861,531 886.5,533.25 Q937.5,537.75 963,540"/><path class="g11 offset" style="--gs:11" d="M437,682 Q492,689 584.25,673.5 Q861,627 886.5,629.25 Q937.5,633.75 963,636"/><text class="g12" style="--gs:12" x="698" y="471">⑫</text><path class="g12 aligned" style="--gs:12" d="M698,471 Q750,525 746,686 Q742,847 723,870.5 Q704,894 657,856 Q657,856 610,818"/><path class="g12 offset" style="--gs:12" d="M602,471 Q628,512.74 626,637.21 Q624,761.67 614.5,779.83 Q605,798 581.5,768.62 Q581.5,768.62 558,739.25"/><text class="g13" style="--gs:13" x="511" y="654">⑬</text><path class="g13 aligned" style="--gs:13" d="M511,654 L596,736"/><path class="g13 offset" style="--gs:13" d="M596.68,585.46 L681.68,667.46"/></g>
<g class="parts"><rect data-part="2" data-literal="㝵" role="button" tabindex="0" aria-label="Part 㝵" x="365" y="37" width="659" height="929"/><rect data-part="1" data-literal="石" data-radical="true" role="button" tabindex="0" aria-label="Part 石 (radical)" x="0" y="156" width="508" height="649"/></g>
</svg>
