<!--
  Stroke-order data for 碧, derived from AnimCJK (https://github.com/parsimonhi/animCJK),
  itself derived from the Arphic PL KaitiM fonts. Distributed under the Arphic Public License
  (see ARPHICPL.TXT). Regenerated by scripts/build-strokes.ts — do not edit by hand.
-->
<svg id="z30887" class="acjk" viewBox="0 0 1024 1024" xmlns="http://www.w3.org/2000/svg">
<g class="glyph"><path id="z30887d1" d="M366 194C394 187 422 181 452 176C472 171 484 167 487 165C492 160 494 154 491 148C486 139 474 133 454 129C433 124 413 128 392 136C369 143 345 149 320 156C292 163 261 165 229 170C204 173 200 183 219 194C246 209 286 212 323 204C352 197 352 197 366 194Z"/><path id="z30887d2" d="M378 422C378 388 380 356 382 327C383 298 383 298 384 284C388 236 389 218 382 207C378 201 370 196 366 194C353 186 318 190 323 204C327 208 330 240 333 301C334 326 334 326 334 338C334 362 334 393 335 431C335 446 378 437 378 422Z"/><path id="z30887d3" d="M382 327C397 323 412 318 429 315C449 310 461 306 464 303C468 298 470 293 467 289C462 282 452 277 437 275C412 270 397 279 384 284C350 295 350 295 333 301C316 306 261 316 230 322C209 325 207 332 222 340C244 352 281 350 334 338C366 331 366 331 382 327Z"/><path id="z30887d4" d="M335 431C311 435 257 447 219 455C206 457 190 456 170 456C161 455 156 460 154 467C151 475 152 483 160 490C174 502 192 516 215 530C221 533 229 530 238 525C256 512 325 483 445 438C461 431 475 424 488 417C496 412 504 406 503 400C501 394 492 394 485 396C450 404 414 414 378 422C349 428 349 428 335 431Z"/><path id="z30887d5" d="M625 196C679 140 694 119 713 108C725 99 727 89 717 80C707 70 692 64 674 60C657 55 645 55 638 58C630 61 629 65 633 74C639 89 626 132 595 202C594 202 594 202 594 203C589 212 619 204 625 196Z"/><path id="z30887d6" d="M568 209C556 201 545 195 533 191C529 189 523 189 521 193C516 195 516 200 521 208C539 242 550 299 551 380C551 416 562 441 582 461C583 462 583 462 583 462C590 469 601 454 601 438C601 423 601 423 601 415C601 406 597 388 596 376C594 363 592 350 592 333C591 316 591 316 591 307C590 291 587 257 591 237C593 225 578 216 568 209Z"/><path id="z30887d7" d="M737 424C749 442 761 454 773 458C779 462 787 458 796 444C804 426 814 369 829 275C831 256 841 238 855 222C862 213 863 206 855 198C845 188 827 174 800 161C787 155 776 157 767 161C741 170 699 179 625 196C604 201 604 201 594 203C585 204 576 205 568 209C557 213 580 241 591 237C625 225 674 213 737 203C751 200 760 201 765 206C775 216 779 226 778 237C767 331 758 385 750 400C747 408 732 417 737 424Z"/><path id="z30887d8" d="M592 333C594 333 598 333 604 333C648 326 688 321 723 316C737 313 742 308 737 300C730 290 718 283 701 281C683 278 646 287 591 307C583 310 583 333 592 333Z"/><path id="z30887d9" d="M601 438Q602 438 605 438Q680 428 737 424C746 424 758 405 750 400Q743 396 733 393Q721 392 601 415C593 417 593 438 601 438Z"/><path id="z30887d10" d="M483 588C545 578 650 562 799 547C805 546 815 545 820 536C823 528 812 520 798 512C772 497 739 497 695 508C567 537 439 553 312 566C300 567 288 568 277 570C257 572 254 579 270 592C290 609 316 617 346 611C372 605 400 600 432 596C466 591 466 591 483 588Z"/><path id="z30887d11" d="M423 718C467 675 491 647 501 642C505 639 508 634 509 628C509 616 500 602 483 588C471 576 435 579 432 596C429 620 408 660 363 709C299 777 231 826 167 865C143 879 115 895 83 913C77 916 76 920 84 921C116 925 181 902 273 845C319 815 352 785 377 762C408 733 408 733 423 718Z"/><path id="z30887d12" d="M427 720C426 719 425 718 423 718C406 705 369 742 377 762C389 794 401 835 411 885C414 903 420 919 431 932C443 946 451 948 455 938C458 927 461 912 458 893C454 868 454 868 452 855C444 806 439 772 438 754C438 742 438 725 427 720Z"/><path id="z30887d13" d="M729 835C749 784 771 754 790 740C804 729 804 713 793 701C782 689 756 676 720 659C707 652 692 652 677 659C620 681 537 702 427 720C415 722 426 756 438 754C444 754 516 740 656 712C672 708 682 709 689 716C693 720 696 728 695 740C691 770 684 799 676 825C672 843 722 852 729 835Z"/><path id="z30887d14" d="M458 893C462 893 467 893 473 893C529 884 618 878 740 874C748 873 752 869 754 863C754 858 746 849 729 835C715 824 694 821 676 825C629 832 516 849 452 855C439 857 445 893 458 893Z"/></g>
<defs><clipPath id="z30887c1"><use href="#z30887d1"/></clipPath>
	<clipPath id="z30887c2"><use href="#z30887d2"/></clipPath>
	<clipPath id="z30887c3"><use href="#z30887d3"/></clipPath>
	<clipPath id="z30887c4"><use href="#z30887d4"/></clipPath>
	<clipPath id="z30887c5"><use href="#z30887d5"/></clipPath>
	<clipPath id="z30887c6"><use href="#z30887d6"/></clipPath>
	<clipPath id="z30887c7"><use href="#z30887d7"/></clipPath>
	<clipPath id="z30887c8"><use href="#z30887d8"/></clipPath>
	<clipPath id="z30887c9"><use href="#z30887d9"/></clipPath>
	<clipPath id="z30887c10"><use href="#z30887d10"/></clipPath>
	<clipPath id="z30887c11"><use href="#z30887d11"/></clipPath>
	<clipPath id="z30887c12"><use href="#z30887d12"/></clipPath>
	<clipPath id="z30887c13"><use href="#z30887d13"/></clipPath>
	<clipPath id="z30887c14"><use href="#z30887d14"/></clipPath><marker id="guide-arrow" viewBox="0 0 16 16" refX="5" refY="5" markerWidth="4" markerHeight="4" orient="auto-start-reverse"><path d="M 0 0 L 10 5 L 0 10 z" fill="inherit"/></marker></defs>
<g class="strokes"><path pathLength="3333" clip-path="url(#z30887c1)" d="M217 182L488 148"/><path pathLength="3333" clip-path="url(#z30887c2)" d="M331 209L358 246L347 427"/><path pathLength="3333" clip-path="url(#z30887c3)" d="M222 332L461 293"/><path pathLength="3333" clip-path="url(#z30887c4)" d="M158 466L227 492L493 401"/><path pathLength="3333" clip-path="url(#z30887c5)" d="M638 62L676 103L604 198"/><path pathLength="3333" clip-path="url(#z30887c6)" d="M525 201L564 248L585 457"/><path pathLength="3333" clip-path="url(#z30887c7)" d="M577 213L750 183L812 208L760 448"/><path pathLength="3333" clip-path="url(#z30887c8)" d="M597 326L730 301"/><path pathLength="3333" clip-path="url(#z30887c9)" d="M605 430L744 406"/><path pathLength="3333" clip-path="url(#z30887c10)" d="M270 581L815 530"/><path pathLength="3333" clip-path="url(#z30887c11)" d="M437 603L461 637L341 762L229 848L89 917"/><path pathLength="3333" clip-path="url(#z30887c12)" d="M419 730L410 775L448 936"/><path pathLength="3333" clip-path="url(#z30887c13)" d="M436 727L696 684L747 728L694 828"/><path pathLength="3333" clip-path="url(#z30887c14)" d="M460 859L749 856"/></g>
<g class="guides"><text class="g1" style="--gs:1" x="217" y="182">①</text><path class="g1 aligned" style="--gs:1" d="M217,182 L488,148"/><path class="g1 offset" style="--gs:1" d="M217,278 L488,244"/><text class="g2" style="--gs:2" x="331" y="209">②</text><path class="g2 aligned" style="--gs:2" d="M331,209 Q358,246 356.63,268.63 Q348.38,404.38 347,427"/><path class="g2 offset" style="--gs:2" d="M235,209 Q262,246 260.63,268.63 Q252.38,404.38 251,427"/><text class="g3" style="--gs:3" x="222" y="332">③</text><path class="g3 aligned" style="--gs:3" d="M222,332 L461,293"/><path class="g3 offset" style="--gs:3" d="M222,428 L461,389"/><text class="g4" style="--gs:4" x="158" y="466">④</text><path class="g4 aligned" style="--gs:4" d="M158,466 Q227,492 260.25,480.63 Q459.75,412.38 493,401"/><path class="g4 offset" style="--gs:4" d="M158,562 Q227,588 260.25,576.63 Q459.75,508.38 493,497"/><text class="g5" style="--gs:5" x="638" y="62">⑤</text><path class="g5 aligned" style="--gs:5" d="M638,62 Q676,103 667,114.88 Q613,186.13 604,198"/><path class="g5 offset" style="--gs:5" d="M542,62 Q561,82.5 556.5,88.44 Q529.5,124.06 525,130"/><text class="g6" style="--gs:6" x="525" y="201">⑥</text><path class="g6 aligned" style="--gs:6" d="M525,201 Q564,248 566.63,274.13 Q582.38,430.88 585,457"/><path class="g6 offset" style="--gs:6" d="M610.68,132.46 Q649.68,179.46 652.3,205.58 Q668.06,362.33 670.68,388.46"/><text class="g7" style="--gs:7" x="577" y="213">⑦</text><path class="g7 aligned" style="--gs:7" d="M577,213 Q750,183 765.5,189.25 Q812,208 799,268 Q773,388 760,448"/><path class="g7 offset" style="--gs:7" d="M577,309 Q663.5,279 671.25,285.25 Q694.5,304 688,340 Q675,412 668.5,448"/><text class="g8" style="--gs:8" x="597" y="326">⑧</text><path class="g8 aligned" style="--gs:8" d="M597,326 L730,301"/><path class="g8 offset" style="--gs:8" d="M597,422 L730,397"/><text class="g9" style="--gs:9" x="605" y="430">⑨</text><path class="g9 aligned" style="--gs:9" d="M605,430 L744,406"/><path class="g9 offset" style="--gs:9" d="M605,526 L744,502"/><text class="g10" style="--gs:10" x="270" y="581">⑩</text><path class="g10 aligned" style="--gs:10" d="M270,581 L815,530"/><path class="g10 offset" style="--gs:10" d="M270,677 L815,626"/><text class="g11" style="--gs:11" x="437" y="603">⑪</text><path class="g11 aligned" style="--gs:11" d="M449,620 Q341,762 313,783.5 Q229,848 194,865.25 Q124,899.75 89,917"/><path class="g11 offset" style="--gs:11" d="M534.68,688.54 Q426.68,830.54 398.68,852.04 Q314.68,916.54 279.68,933.79 Q209.68,968.29 174.68,985.54"/><text class="g12" style="--gs:12" x="419" y="730">⑫</text><path class="g12 aligned" style="--gs:12" d="M419,730 Q410,775 414.75,795.13 Q443.25,915.88 448,936"/><path class="g12 offset" style="--gs:12" d="M539,730 Q530,775 534.75,795.13 Q563.25,915.88 568,936"/><text class="g13" style="--gs:13" x="436" y="727">⑬</text><path class="g13 aligned" style="--gs:13" d="M436,727 Q696,684 708.75,695 Q747,728 733.75,753 Q707.25,803 694,828"/><path class="g13 offset" style="--gs:13" d="M436,823 Q595.68,780 603.51,785.5 Q627,802 618.86,814.5 Q602.59,839.5 594.45,852"/><text class="g14" style="--gs:14" x="460" y="859">⑭</text><path class="g14 aligned" style="--gs:14" d="M460,859 L749,856"/><path class="g14 offset" style="--gs:14" d="M460,955 L749,952"/></g>
</svg>
