<!--
  Stroke-order data for 碩, derived from AnimCJK (https://github.com/parsimonhi/animCJK),
  itself derived from the Arphic PL KaitiM fonts. Distributed under the Arphic Public License
  (see ARPHICPL.TXT). Regenerated by scripts/build-strokes.ts — do not edit by hand.
-->
<svg id="z30889" class="acjk" viewBox="0 0 1024 1024" xmlns="http://www.w3.org/2000/svg">
<g class="glyph"><path style="--part:1" id="z30889d1" d="M296 238C398 207 450 189 453 187C457 182 459 176 456 171C451 164 439 159 419 156C404 153 364 170 295 192C226 213 188 218 186 219C163 225 160 233 178 242C195 250 221 259 252 251C281 242 281 242 296 238Z"/><path style="--part:1" id="z30889d2" d="M255 444C278 407 292 364 319 305C329 281 335 268 335 267C331 252 318 243 296 238C281 235 246 237 252 251C264 283 253 337 219 411C214 420 210 429 206 438C194 461 194 461 188 473C159 528 105 594 36 673C31 677 32 682 39 680C87 664 164 586 203 526C238 471 238 471 255 444Z"/><path style="--part:1" id="z30889d3" d="M206 438Q202 437 195 435Q185 432 181 436Q175 442 182 456Q185 463 188 473C198 508 198 508 203 526Q213 568 220 621Q221 652 238 673Q253 694 258 679Q265 663 262 630C259 608 259 608 258 597Q245 513 243 481C243 462 225 442 206 438Z"/><path style="--part:1" id="z30889d4" d="M397 572C407 520 420 485 435 469C449 453 448 440 434 432C421 425 406 417 390 407C380 401 360 414 323 426C286 437 267 442 255 444C240 445 221 444 206 438C188 431 224 485 243 481C247 480 251 479 257 477C283 469 309 462 333 456C349 451 358 452 363 459C367 464 363 500 350 568C347 583 394 587 397 572Z"/><path style="--part:1" id="z30889d5" d="M262 630C266 630 272 629 280 628C306 620 350 611 410 603C416 602 420 598 421 592C421 587 413 580 397 572C384 564 365 562 350 568C327 577 282 589 258 597C248 601 251 630 262 630Z"/><path style="--part:2" id="z30889d6" d="M645 178C695 170 872 132 878 129C884 124 886 118 883 112C878 103 866 96 846 92C824 86 786 96 731 112C653 133 582 141 519 147C494 149 490 157 508 170C533 188 566 190 607 184C632 180 632 180 645 178Z"/><path style="--part:2" id="z30889d7" d="M596 308C641 254 668 225 679 216C687 208 688 199 681 193C672 185 660 181 645 178C632 176 602 172 607 184C620 207 605 238 573 311C570 318 591 314 596 308Z"/><path style="--part:2" id="z30889d8" d="M548 314C543 309 536 306 528 303C521 300 515 299 509 303C504 305 505 310 508 318C509 322 510 327 513 332C527 362 533 433 523 543C517 601 513 635 520 648C524 655 529 663 535 671C541 679 548 679 554 672C558 665 562 658 563 650C565 630 565 630 566 620C566 613 567 588 567 546C567 529 567 529 567 521C567 495 565 470 567 445C568 429 568 429 568 421C569 395 569 368 571 342C571 330 558 321 548 314Z"/><path style="--part:2" id="z30889d9" d="M783 629C783 635 787 640 791 647C800 665 807 674 814 674C822 673 831 661 842 641C851 623 856 609 855 596C847 545 843 479 843 399C842 376 848 355 861 335C867 324 868 315 863 310C845 293 821 279 791 267C781 262 768 264 753 270C721 282 669 298 596 308C581 310 581 310 573 311C564 312 556 312 548 314C536 316 560 346 571 342C591 335 648 324 740 310C756 307 765 310 771 318C780 330 786 356 787 397C789 505 789 572 785 599C783 609 781 619 783 629Z"/><path style="--part:2" id="z30889d10" d="M567 445C569 445 574 446 580 445C636 435 686 427 728 421C742 419 746 414 741 407C734 398 723 392 709 390C695 387 648 398 568 421C561 424 559 445 567 445Z"/><path style="--part:2" id="z30889d11" d="M567 546C570 546 573 546 577 546C639 538 690 530 735 525C749 523 754 518 749 511C742 502 731 496 717 493C703 490 653 499 567 521C559 522 559 546 567 546Z"/><path style="--part:2" id="z30889d12" d="M563 650Q564 650 568 650Q691 635 783 629C793 629 794 604 785 599Q781 596 774 595Q758 592 566 620C556 622 553 650 563 650Z"/><path style="--part:2" id="z30889d13" d="M582 689C568 737 502 804 378 888C363 897 365 900 383 900C435 899 508 858 599 775C622 753 639 738 650 729C657 722 659 715 659 709C658 700 649 693 633 686C614 677 602 674 594 676C589 677 584 680 582 689Z"/><path style="--part:2" id="z30889d14" d="M738 744C771 781 809 824 848 878C857 891 865 902 876 905C881 906 887 903 893 898C901 889 902 871 898 842C892 806 840 764 742 713C736 710 732 710 731 719C729 727 731 736 738 744Z"/></g>
<defs><clipPath id="z30889c1"><use href="#z30889d1"/></clipPath>
	<clipPath id="z30889c2"><use href="#z30889d2"/></clipPath>
	<clipPath id="z30889c3"><use href="#z30889d3"/></clipPath>
	<clipPath id="z30889c4"><use href="#z30889d4"/></clipPath>
	<clipPath id="z30889c5"><use href="#z30889d5"/></clipPath>
	<clipPath id="z30889c6"><use href="#z30889d6"/></clipPath>
	<clipPath id="z30889c7"><use href="#z30889d7"/></clipPath>
	<clipPath id="z30889c8"><use href="#z30889d8"/></clipPath>
	<clipPath id="z30889c9"><use href="#z30889d9"/></clipPath>
	<clipPath id="z30889c10"><use href="#z30889d10"/></clipPath>
	<clipPath id="z30889c11"><use href="#z30889d11"/></clipPath>
	<clipPath id="z30889c12"><use href="#z30889d12"/></clipPath>
	<clipPath id="z30889c13"><use href="#z30889d13"/></clipPath>
	<clipPath id="z30889c14"><use href="#z30889d14"/></clipPath><marker id="guide-arrow" viewBox="0 0 16 16" refX="5" refY="5" markerWidth="4" markerHeight="4" orient="auto-start-reverse"><path d="M 0 0 L 10 5 L 0 10 z" fill="inherit"/></marker></defs>
<g class="strokes"><path style="--part:1" pathLength="3333" clip-path="url(#z30889c1)" d="M175 231L450 179"/><path style="--part:1" pathLength="3333" clip-path="url(#z30889c2)" d="M258 257L294 288L225 450L117 604L42 673"/><path style="--part:1" pathLength="3333" clip-path="url(#z30889c3)" d="M188 439L218 491L248 677"/><path style="--part:1" pathLength="3333" clip-path="url(#z30889c4)" d="M221 453L382 435L404 461L370 569"/><path style="--part:1" pathLength="3333" clip-path="url(#z30889c5)" d="M266 623L334 594L416 591"/><path style="--part:2" pathLength="3333" clip-path="url(#z30889c6)" d="M504 157L568 165L878 118"/><path style="--part:2" pathLength="3333" clip-path="url(#z30889c7)" d="M615 185L647 213L581 305"/><path style="--part:2" pathLength="3333" clip-path="url(#z30889c8)" d="M514 309L546 357L543 667"/><path style="--part:2" pathLength="3333" clip-path="url(#z30889c9)" d="M557 315L765 288L815 318L815 669"/><path style="--part:2" pathLength="3333" clip-path="url(#z30889c10)" d="M576 438L735 410"/><path style="--part:2" pathLength="3333" clip-path="url(#z30889c11)" d="M576 538L744 515"/><path style="--part:2" pathLength="3333" clip-path="url(#z30889c12)" d="M573 641L782 617"/><path style="--part:2" pathLength="3333" clip-path="url(#z30889c13)" d="M593 686L613 716L490 834L377 894"/><path style="--part:2" pathLength="3333" clip-path="url(#z30889c14)" d="M739 719L844 817L882 899"/></g>
<g class="guides"><text class="g1" style="--gs:1" x="175" y="231">①</text><path class="g1 aligned" style="--gs:1" d="M175,231 L450,179"/><path class="g1 offset" style="--gs:1" d="M175,327 L450,275"/><text class="g2" style="--gs:2" x="258" y="257">②</text><path class="g2 aligned" style="--gs:2" d="M258,257 Q294,288 259.5,369 Q225,450 171,527 Q117,604 79.5,638.5 Q79.5,638.5 42,673"/><path class="g2 offset" style="--gs:2" d="M162,257 Q184.29,280.85 162.93,343.15 Q141.57,405.46 108.14,464.69 Q74.71,523.92 51.5,550.46 Q51.5,550.46 28.29,577"/><text class="g3" style="--gs:3" x="188" y="439">③</text><path class="g3 aligned" style="--gs:3" d="M188,439 Q218,491 221.75,514.25 Q244.25,653.75 248,677"/><path class="g3 offset" style="--gs:3" d="M273.68,370.46 Q303.68,422.46 307.43,445.71 Q329.93,585.21 333.68,608.46"/><text class="g4" style="--gs:4" x="221" y="453">④</text><path class="g4 aligned" style="--gs:4" d="M221,453 Q382,435 387.5,441.5 Q404,461 395.5,488 Q378.5,542 370,569"/><path class="g4 offset" style="--gs:4" d="M221,549 Q301.5,531 304.25,534.25 Q312.5,544 308.25,557.5 Q299.75,584.5 295.5,598"/><text class="g5" style="--gs:5" x="266" y="623">⑤</text><path class="g5 aligned" style="--gs:5" d="M266,623 Q334,594 344.25,593.63 Q405.75,591.38 416,591"/><path class="g5 offset" style="--gs:5" d="M266,719 Q334,690 344.25,689.63 Q405.75,687.38 416,687"/><text class="g6" style="--gs:6" x="504" y="157">⑥</text><path class="g6 aligned" style="--gs:6" d="M504,157 Q568,165 606.75,159.13 Q839.25,123.88 878,118"/><path class="g6 offset" style="--gs:6" d="M504,253 Q568,261 606.75,255.13 Q839.25,219.88 878,214"/><text class="g7" style="--gs:7" x="615" y="185">⑦</text><path class="g7 aligned" style="--gs:7" d="M615,185 Q647,213 638.75,224.5 Q589.25,293.5 581,305"/><path class="g7 offset" style="--gs:7" d="M519,185 Q535,199 530.88,204.75 Q506.13,239.25 502,245"/><text class="g8" style="--gs:8" x="514" y="309">⑧</text><path class="g8 aligned" style="--gs:8" d="M514,309 Q546,357 545.63,395.75 Q543.38,628.25 543,667"/><path class="g8 offset" style="--gs:8" d="M418,309 Q450,357 449.63,395.75 Q447.38,628.25 447,667"/><text class="g9" style="--gs:9" x="557" y="315">⑨</text><path class="g9 aligned" style="--gs:9" d="M557,315 Q765,288 777.5,295.5 Q815,318 815,405.75 Q815,581.25 815,669"/><path class="g9 offset" style="--gs:9" d="M557,411 Q668.26,384 674.94,389.61 Q695,406.44 695,472.08 Q695,603.36 695,669"/><text class="g10" style="--gs:10" x="576" y="438">⑩</text><path class="g10 aligned" style="--gs:10" d="M576,438 L735,410"/><path class="g10 offset" style="--gs:10" d="M576,534 L735,506"/><text class="g11" style="--gs:11" x="576" y="538">⑪</text><path class="g11 aligned" style="--gs:11" d="M576,538 L744,515"/><path class="g11 offset" style="--gs:11" d="M576,634 L744,611"/><text class="g12" style="--gs:12" x="573" y="641">⑫</text><path class="g12 aligned" style="--gs:12" d="M573,641 L782,617"/><path class="g12 offset" style="--gs:12" d="M573,737 L782,713"/><text class="g13" style="--gs:13" x="593" y="686">⑬</text><path class="g13 aligned" style="--gs:13" d="M603,701 Q490,834 475.88,841.5 Q391.13,886.5 377,894"/><path class="g13 offset" style="--gs:13" d="M688.68,769.54 Q575.68,902.54 561.55,910.04 Q476.81,955.04 462.68,962.54"/><text class="g14" style="--gs:14" x="739" y="719">⑭</text><path class="g14 aligned" style="--gs:14" d="M739,719 Q844,817 848.75,827.25 Q877.25,888.75 882,899"/><path class="g14 offset" style="--gs:14" d="M824.68,650.46 Q929.68,748.46 934.43,758.71 Q962.93,820.21 967.68,830.46"/></g>
<g class="parts"><rect data-part="2" data-literal="頁" role="button" tabindex="0" aria-label="Part 頁" x="305" y="46" width="649" height="925"/><rect data-part="1" data-literal="石" data-radical="true" role="button" tabindex="0" aria-label="Part 石 (radical)" x="0" y="107" width="522" height="642"/></g>
</svg>
