<svg id="z31117" class="acjk" viewBox="0 0 1024 1024" xmlns="http://www.w3.org/2000/svg">
<style>

@keyframes zk {
	to {
		stroke-dashoffset:0;
	}
}
svg.acjk path[clip-path] {
	--t:0.8s;
	animation:zk var(--t) linear forwards var(--d);
	stroke-dasharray:3337;
	stroke-dashoffset:3339;
	stroke-width:128;
	stroke-linecap:round;
	fill:none;
	stroke:#000;
}
svg.acjk path[id] {fill:#ccc;}


    @keyframes guide-fade {
        0% { opacity: 0; }
        3% { opacity: 1; }
        95% { opacity: 1; }
        100% { opacity: 0; }
    }

    svg.acjk #guide-arrow {
        fill: #f77;
    }

    svg.acjk .guides {
        circle {
            fill: #0f6;
        }

        path {
            opacity: 0;
            animation: guide-fade var(--t) linear forwards var(--d);
            stroke-width: 16px;
            stroke-linecap: round;
            stroke: #f77;
            fill: none;
            marker-end: url(#guide-arrow);
        }

        circle,
        path {
            --t: 0.8s;
            opacity: 0;
            animation: guide-fade calc(var(--t) + 0.4s) ease-in-out forwards calc(var(--d) - 0.2s);
        }
    }
</style>
<path id="z31117d1" d="M303 133Q336 160 371 191Q387 204 404 203Q416 202 421 188Q425 172 414 139Q407 117 371 101Q284 73 272 81Q266 85 269 99Q273 112 303 133Z"/>
<path id="z31117d2" d="M277 516Q307 473 340 417Q371 362 415 325Q430 313 417 299Q396 284 367 276Q343 269 327 280Q252 337 101 356Q89 355 87 362Q84 372 99 381Q139 405 170 397Q303 339 308 340Q309 340 312 343Q318 350 307 374Q243 518 83 688Q68 700 72 704Q75 705 88 700Q166 658 251 552C268 528 268 528 277 516Z"/>
<path id="z31117d3" d="M251 552Q278 604 246 765Q225 825 263 874Q264 874 266 877Q282 892 294 867Q307 828 307 785Q308 625 315 589Q322 564 313 554Q283 520 277 516C267 506 246 538 251 552Z"/>
<path id="z31117d4" d="M333 498Q370 547 389 550Q399 551 405 537Q406 527 400 511Q393 499 375 492Q350 479 338 477Q331 476 329 485Q328 491 333 498Z"/>
<path id="z31117d5" d="M555 188Q539 176 518 169Q505 165 496 170Q489 176 495 191Q516 233 525 277Q531 323 542 507C542 520 580 513 580 500Q568 278 576 226C576 221 576 221 576 218C576 206 565 195 555 188Z"/>
<path id="z31117d6" d="M796 459Q803 267 853 200Q869 181 852 163Q834 151 779 131Q760 125 738 135Q675 163 555 188C543 190 565 223 576 218Q577 215 725 184Q743 180 751 187Q770 202 771 239Q770 267 767 294C765 315 765 315 764 325Q757 401 745 467C742 484 796 476 796 459Z"/>
<path id="z31117d7" d="M682 479Q682 383 688 342C690 333 687 322 681 316Q665 300 642 291Q632 287 624 291Q618 295 622 308Q635 333 640 358Q643 383 649 485C649 496 682 490 682 479Z"/>
<path id="z31117d8" d="M688 342Q725 332 764 325C774 323 777 296 767 294Q766 293 762 293Q732 290 681 316C673 319 679 344 688 342Z"/>
<path id="z31117d9" d="M475 517Q474 516 472 515Q445 502 429 504Q416 508 422 519Q459 594 427 728Q409 791 436 824Q443 837 452 831Q482 809 483 705Q486 587 489 554C489 541 486 525 475 517Z"/>
<path id="z31117d10" d="M489 554Q496 554 505 549Q596 521 824 488Q845 487 858 496Q877 503 879 534Q883 610 863 745Q863 773 837 772Q803 769 774 767Q758 766 763 775Q767 785 796 802Q836 830 863 862Q876 872 890 866Q900 860 915 824Q940 770 935 662Q931 515 943 497Q953 484 945 473Q935 461 892 443Q873 436 857 444Q838 450 796 459C762 464 762 464 745 467Q711 471 682 479C660 483 660 483 649 485Q619 489 596 496Q587 497 580 500C555 505 555 505 542 507Q505 511 475 517C462 520 476 557 489 554Z"/>
<path id="z31117d11" d="M579 600Q567 596 543 593Q533 590 530 595Q526 601 533 613Q555 652 570 715Q574 734 586 747Q602 765 605 751Q608 744 607 731C604 712 604 712 603 702Q593 645 591 626C589 617 588 602 579 600Z"/>
<path id="z31117d12" d="M749 685Q767 634 784 620Q806 596 785 583Q766 573 742 555Q724 543 683 569Q626 590 579 600C570 602 582 628 591 626Q598 625 609 622Q649 612 685 603Q709 597 714 606Q718 610 702 677C699 693 743 700 749 685Z"/>
<path id="z31117d13" d="M607 731Q616 732 628 730Q668 721 757 713Q767 712 768 703Q768 696 749 685C735 677 718 674 702 677Q696 677 696 678Q644 693 603 702C593 704 597 731 607 731Z"/>
<defs>
	<clipPath id="z31117c1"><use href="#z31117d1"/></clipPath>
	<clipPath id="z31117c2"><use href="#z31117d2"/></clipPath>
	<clipPath id="z31117c3"><use href="#z31117d3"/></clipPath>
	<clipPath id="z31117c4"><use href="#z31117d4"/></clipPath>
	<clipPath id="z31117c5"><use href="#z31117d5"/></clipPath>
	<clipPath id="z31117c6"><use href="#z31117d6"/></clipPath>
	<clipPath id="z31117c7"><use href="#z31117d7"/></clipPath>
	<clipPath id="z31117c8"><use href="#z31117d8"/></clipPath>
	<clipPath id="z31117c9"><use href="#z31117d9"/></clipPath>
	<clipPath id="z31117c10"><use href="#z31117d10"/></clipPath>
	<clipPath id="z31117c11"><use href="#z31117d11"/></clipPath>
	<clipPath id="z31117c12"><use href="#z31117d12"/></clipPath>
	<clipPath id="z31117c13"><use href="#z31117d13"/></clipPath>
<marker id="guide-arrow" viewBox="0 0 16 16" refX="5" refY="5" markerWidth="4" markerHeight="4" orient="auto-start-reverse"><path d="M 0 0 L 10 5 L 0 10 z" fill="inherit"/></marker></defs>
<path style="--d:1s;" pathLength="3333" clip-path="url(#z31117c1)" d="M275 89L416 191"/>
<path style="--d:2s;" pathLength="3333" clip-path="url(#z31117c2)" d="M93 364L158 373L328 306L371 329L231 544L81 698"/>
<path style="--d:3s;" pathLength="3333" clip-path="url(#z31117c3)" d="M277 522L276 875"/>
<path style="--d:4s;" pathLength="3333" clip-path="url(#z31117c4)" d="M336 483L394 545"/>
<path style="--d:5s;" pathLength="3333" clip-path="url(#z31117c5)" d="M499 174L545 232L557 503"/>
<path style="--d:6s;" pathLength="3333" clip-path="url(#z31117c6)" d="M563 191L752 156L812 192L757 463"/>
<path style="--d:7s;" pathLength="3333" clip-path="url(#z31117c7)" d="M628 301L660 334L661 482"/>
<path style="--d:8s;" pathLength="3333" clip-path="url(#z31117c8)" d="M687 320L764 304"/>
<path style="--d:9s;" pathLength="3333" clip-path="url(#z31117c9)" d="M428 509L463 559L449 824"/>
<path style="--d:10s;" pathLength="3333" clip-path="url(#z31117c10)" d="M485 523L829 469L897 482L912 500L891 782L864 820L771 772"/>
<path style="--d:11s;" pathLength="3333" clip-path="url(#z31117c11)" d="M535 598L565 624L599 752"/>
<path style="--d:12s;" pathLength="3333" clip-path="url(#z31117c12)" d="M588 604L726 579L755 606L721 679"/>
<path style="--d:13s;" pathLength="3333" clip-path="url(#z31117c13)" d="M609 709L760 701"/>
<g class="guides"><circle style="--d: 1s" class="g1" cx="275" cy="89" r="16"/><path style="--d: 1s;" class="g1" d="M360.68,20.456000000000003 L501.68,122.456"/><circle style="--d: 2s" class="g2" cx="93" cy="364" r="16"/><path style="--d: 2s;" class="g2" d="M-3,460 Q29.5,464.59183673469386 72,447.5 Q114.5,430.40816326530614 125.25,436.2755102040817 Q136,442.14285714285717 101,496.98979591836735 Q66,551.8367346938776 28.5,591.1224489795918 Q28.5,591.1224489795918 -9,630.4081632653061"/><circle style="--d: 3s" class="g3" cx="277" cy="522" r="16"/><path style="--d: 3s;" class="g3" d="M397,522 L396,875"/><circle style="--d: 4s" class="g4" cx="336" cy="483" r="16"/><path style="--d: 4s;" class="g4" d="M421.68,414.456 L479.68,476.456"/><circle style="--d: 5s" class="g5" cx="499" cy="174" r="16"/><path style="--d: 5s;" class="g5" d="M584.68,105.456 Q630.68,163.45600000000002 632.18,197.33100000000002 Q641.18,400.581 642.68,434.456"/><circle style="--d: 6s" class="g6" cx="563" cy="191" r="16"/><path style="--d: 6s;" class="g6" d="M563,287 Q660.9156626506024,252 668.6867469879518,258.185667752443 Q692,276.742671009772 684.8765060240964,323.307003257329 Q670.6295180722891,416.435667752443 663.5060240963855,463"/><circle style="--d: 7s" class="g7" cx="628" cy="301" r="16"/><path style="--d: 7s;" class="g7" d="M713.68,232.45600000000002 Q745.68,265.456 745.805,283.956 Q746.555,394.956 746.68,413.456"/><circle style="--d: 8s" class="g8" cx="687" cy="320" r="16"/><path style="--d: 8s;" class="g8" d="M687,416 L764,400"/><circle style="--d: 9s" class="g9" cx="428" cy="509" r="16"/><path style="--d: 9s;" class="g9" d="M332,509 Q367,559 365.25,592.125 Q354.75,790.875 353,824"/><circle style="--d: 10s" class="g10" cx="485" cy="523" r="16"/><path style="--d: 10s;" class="g10" d="M485,619 Q676.7377049180328,565 695.688524590164,571.5 Q714.639344262295,578 718.8196721311475,587 Q723,596 717.1475409836066,737 Q711.2950819672132,878 703.7704918032787,897 Q696.2459016393443,916 670.327868852459,892 Q670.327868852459,892 644.4098360655738,868"/><circle style="--d: 11s" class="g11" cx="550" cy="611" r="16"/><path style="--d: 11s;" class="g11" d="M670,611 L719,752"/><circle style="--d: 12s" class="g12" cx="588" cy="604" r="16"/><path style="--d: 12s;" class="g12" d="M588,700 Q657,675 660.625,678.375 Q671.5,688.5 667.25,697.625 Q658.75,715.875 654.5,725"/><circle style="--d: 13s" class="g13" cx="609" cy="709" r="16"/><path style="--d: 13s;" class="g13" d="M609,805 L760,797"/></g></svg>