<!--
  Stroke-order data for 秀, derived from AnimCJK (https://github.com/parsimonhi/animCJK),
  itself derived from the Arphic PL KaitiM fonts. Distributed under the Arphic Public License
  (see ARPHICPL.TXT). Regenerated by scripts/build-strokes.ts — do not edit by hand.
-->
<svg id="z31168" class="acjk" viewBox="0 0 1024 1024" xmlns="http://www.w3.org/2000/svg">
<g class="glyph"><path style="--part:1" id="z31168d1" d="M510 169C548 159 580 149 627 142C637 140 646 142 652 137C657 132 654 121 647 115C612 81 583 64 563 66C557 66 554 72 553 79C548 102 469 140 315 189C310 190 305 190 302 193C297 196 297 202 301 204C310 207 415 192 461 181C494 173 494 173 510 169Z"/><path style="--part:1" id="z31168d2" d="M537 298C591 291 656 286 731 287C771 287 795 286 800 278C803 271 799 262 788 254C750 226 715 221 683 230C643 240 593 249 534 259C497 265 497 265 478 268C395 281 305 292 208 306C194 307 192 314 203 325C211 333 221 340 234 343C247 346 260 345 270 343C324 327 383 315 447 308C507 301 507 301 537 298Z"/><path style="--part:1" id="z31168d3" d="M534 259C536 245 539 228 549 211C552 204 552 196 544 189C534 179 522 173 510 169C494 163 452 167 461 181C471 199 477 228 478 268C479 319 479 319 479 344C479 388 475 420 474 440C473 454 481 474 489 490C494 500 504 503 513 497C522 490 524 459 523 408C522 378 521 349 525 322C531 280 531 280 534 259Z"/><path style="--part:1" id="z31168d4" d="M447 308C429 344 389 390 321 439C260 482 207 511 167 534C155 540 154 543 164 546C171 547 185 544 211 538C245 528 272 517 313 494C384 453 440 400 479 344C504 311 466 271 447 308Z"/><path style="--part:1" id="z31168d5" d="M525 322C653 452 731 523 762 525C821 528 874 518 920 508C931 505 938 503 939 500C939 495 935 492 926 489C791 445 731 425 723 421C702 410 596 342 537 298C522 287 512 309 525 322Z"/><path style="--part:2" id="z31168d6" d="M406 575C413 601 395 661 359 728C319 800 279 854 214 909C209 912 206 915 204 919C200 925 201 928 209 929C233 930 273 908 327 858C328 856 330 855 332 853C376 805 418 737 458 651C466 634 484 626 479 607C474 592 461 579 445 565C435 557 403 562 406 575Z"/><path style="--part:2" id="z31168d7" d="M445 565C483 555 519 546 551 541C565 538 573 539 577 544C580 548 579 556 575 568C559 614 544 648 525 666C519 671 516 677 518 687C520 701 525 710 534 715C541 719 549 717 558 712C586 694 615 685 643 682C657 680 666 682 670 688C675 696 677 709 676 726C671 768 660 806 645 841C639 852 633 862 623 865C615 866 585 853 536 827C517 817 514 822 528 843C551 880 572 914 590 945C598 959 611 962 625 956C661 938 689 906 704 860C728 778 743 728 757 714C767 702 770 693 763 685C754 675 736 663 709 649C694 641 679 642 664 647C632 656 612 660 604 660C590 659 587 649 596 632C617 589 637 559 656 547C673 535 679 528 676 520C672 512 654 501 619 486C606 480 595 480 584 487C540 511 438 534 280 556C273 556 269 558 268 562C266 566 274 574 293 587C311 599 328 600 348 592C367 583 387 579 406 575C432 568 432 568 445 565Z"/></g>
<defs><clipPath id="z31168c1"><use href="#z31168d1"/></clipPath>
	<clipPath id="z31168c2"><use href="#z31168d2"/></clipPath>
	<clipPath id="z31168c3"><use href="#z31168d3"/></clipPath>
	<clipPath id="z31168c4"><use href="#z31168d4"/></clipPath>
	<clipPath id="z31168c5"><use href="#z31168d5"/></clipPath>
	<clipPath id="z31168c6"><use href="#z31168d6"/></clipPath>
	<clipPath id="z31168c7"><use href="#z31168d7"/></clipPath><marker id="guide-arrow" viewBox="0 0 16 16" refX="5" refY="5" markerWidth="4" markerHeight="4" orient="auto-start-reverse"><path d="M 0 0 L 10 5 L 0 10 z" fill="inherit"/></marker></defs>
<g class="strokes"><path style="--part:1" pathLength="3333" clip-path="url(#z31168c1)" d="M564 73L605 119L304 197"/><path style="--part:1" pathLength="3333" clip-path="url(#z31168c2)" d="M201 313L259 322L707 256L795 269"/><path style="--part:1" pathLength="3333" clip-path="url(#z31168c3)" d="M468 183L512 216L505 494"/><path style="--part:1" pathLength="3333" clip-path="url(#z31168c4)" d="M471 313L331 458L164 541"/><path style="--part:1" pathLength="3333" clip-path="url(#z31168c5)" d="M533 304L762 480L932 496"/><path style="--part:2" pathLength="3333" clip-path="url(#z31168c6)" d="M412 578L440 615L377 749L308 846L210 923"/><path style="--part:2" pathLength="3333" clip-path="url(#z31168c7)" d="M277 564L327 573L587 514L620 527L560 683L675 664L722 704L669 863L629 907L606 908L529 830"/></g>
<g class="guides"><text class="g1" style="--gs:1" x="564" y="73">①</text><path class="g1 aligned" style="--gs:1" d="M564,73 Q605,119 567.38,128.75 Q341.63,187.25 304,197"/><path class="g1 offset" style="--gs:1" d="M468,73 Q495.92,96 470.3,100.88 Q316.55,130.13 290.92,135"/><text class="g2" style="--gs:2" x="201" y="313">②</text><path class="g2 aligned" style="--gs:2" d="M201,313 Q259,322 371,305.5 Q707,256 729,259.25 Q773,265.75 795,269"/><path class="g2 offset" style="--gs:2" d="M201,409 Q259,418 371,401.5 Q707,352 729,355.25 Q773,361.75 795,365"/><text class="g3" style="--gs:3" x="468" y="183">③</text><path class="g3 aligned" style="--gs:3" d="M468,183 Q512,216 511.13,250.75 Q505.88,459.25 505,494"/><path class="g3 offset" style="--gs:3" d="M372,183 Q416,216 415.13,250.75 Q409.88,459.25 409,494"/><text class="g4" style="--gs:4" x="471" y="313">④</text><path class="g4 aligned" style="--gs:4" d="M471,313 Q331,458 310.13,468.38 Q184.88,530.63 164,541"/><path class="g4 offset" style="--gs:4" d="M556.68,381.54 Q416.68,526.54 395.81,536.92 Q270.56,599.17 249.68,609.54"/><text class="g5" style="--gs:5" x="533" y="304">⑤</text><path class="g5 aligned" style="--gs:5" d="M533,304 Q762,480 783.25,482 Q910.75,494 932,496"/><path class="g5 offset" style="--gs:5" d="M618.68,235.46 Q798.51,386.29 815.19,388 Q915.31,398.29 932,400"/><text class="g6" style="--gs:6" x="412" y="578">⑥</text><path class="g6 aligned" style="--gs:6" d="M412,578 Q440,615 408.5,682 Q377,749 342.5,797.5 Q308,846 259,884.5 Q259,884.5 210,923"/><path class="g6 offset" style="--gs:6" d="M316,578 Q332.31,604.7 313.96,653.06 Q295.61,701.42 275.51,736.42 Q255.41,771.43 226.86,799.21 Q226.86,799.21 198.31,827"/><text class="g7" style="--gs:7" x="277" y="564">⑦</text><path class="g7 aligned" style="--gs:7" d="M277,564 Q327,573 457,543.5 Q587,514 603.5,520.5 Q620,527 590,605 Q560,683 617.5,673.5 Q675,664 698.5,684 Q722,704 695.5,783.5 Q669,863 649,885 Q629,907 617.5,907.5 Q606,908 567.5,869 Q567.5,869 529,830"/><path class="g7 offset" style="--gs:7" d="M277,660 Q316.21,639.5 418.17,624.75 Q520.12,610 533.06,616.5 Q546,623 522.48,658.75 Q498.95,694.5 544.04,689.75 Q589.14,685 607.57,695 Q626,705 605.22,744.75 Q584.43,784.5 568.75,795.5 Q553.06,806.5 544.04,806.75 Q535.02,807 504.83,787.5 Q504.83,787.5 474.64,768"/></g>
<g class="parts"><rect data-part="1" data-literal="禾" data-radical="true" role="button" tabindex="0" aria-label="Part 禾 (radical)" x="92" y="1" width="912" height="612"/><rect data-part="2" data-literal="乃" role="button" tabindex="0" aria-label="Part 乃" x="138" y="442" width="656" height="553"/></g>
</svg>
