<!--
  Stroke-order data for 租, derived from AnimCJK (https://github.com/parsimonhi/animCJK),
  itself derived from the Arphic PL KaitiM fonts. Distributed under the Arphic Public License
  (see ARPHICPL.TXT). Regenerated by scripts/build-strokes.ts — do not edit by hand.
-->
<svg id="z31199" class="acjk" viewBox="0 0 1024 1024" xmlns="http://www.w3.org/2000/svg">
<g class="glyph"><path style="--part:1" id="z31199d1" d="M335 213C392 186 432 162 461 156C471 153 478 152 480 146C482 139 479 131 471 126C431 100 399 90 378 96C372 97 371 103 372 110C373 136 305 183 176 261C170 264 173 271 178 272C190 273 281 237 309 225C326 217 326 217 335 213Z"/><path style="--part:1" id="z31199d2" d="M364 405C396 397 432 389 473 383C483 381 489 376 490 372C490 363 484 355 472 350C450 340 415 346 367 359C339 366 339 366 325 370C225 396 150 409 100 416C91 417 85 420 84 426C81 432 86 440 97 448C123 466 151 470 181 460C225 443 265 429 300 421C343 410 343 410 364 405Z"/><path style="--part:1" id="z31199d3" d="M362 473C363 458 362 422 364 405C366 374 366 374 367 359C369 315 373 282 378 261C379 253 378 247 374 243C359 230 346 220 335 213C327 207 304 217 309 225C321 245 328 293 325 370C322 447 322 447 320 486C314 620 291 773 286 792C278 817 286 843 307 883C313 895 321 905 328 907C335 909 341 903 345 895C353 874 356 853 356 832C354 713 352 602 360 501C361 482 361 482 362 473Z"/><path style="--part:1" id="z31199d4" d="M300 421C264 505 189 615 79 751C74 757 76 761 84 762C88 762 92 760 99 755C190 680 265 590 321 486C354 431 320 359 300 420C300 421 300 421 300 421Z"/><path style="--part:1" id="z31199d5" d="M360 501C384 519 407 539 432 562C439 569 448 571 457 571C463 570 467 566 469 560C471 551 470 539 465 523C458 504 411 486 362 473C353 471 353 495 360 501Z"/><path style="--part:2" id="z31199d6" d="M575 232C566 225 558 219 549 216C541 213 534 214 528 218C522 220 520 225 523 233C527 243 534 253 539 264C546 279 548 300 549 326C551 354 552 492 554 739C554 754 599 749 599 734C599 734 599 626 599 572C599 553 599 553 599 543C599 507 599 471 599 436C599 417 599 417 599 407C599 359 600 310 602 262C602 249 586 240 575 232Z"/><path style="--part:2" id="z31199d7" d="M810 709C808 443 818 295 834 263C842 245 843 234 843 234C837 223 815 207 778 185C768 179 741 185 698 202C660 215 619 224 575 232C562 235 590 267 602 262C628 249 672 239 735 231C745 229 751 229 754 233C762 246 763 408 759 716C759 733 810 726 810 709Z"/><path style="--part:2" id="z31199d8" d="M716 417Q738 413 729 400Q719 385 693 382Q648 379 599 407C591 412 590 438 599 436C677 423 677 423 716 417Z"/><path style="--part:2" id="z31199d9" d="M599 572Q600 572 604 572Q670 560 719 553Q743 549 733 536Q723 521 697 518Q655 515 599 543C590 547 589 572 599 572Z"/><path style="--part:2" id="z31199d10" d="M554 739C509 743 463 746 417 751C403 752 400 758 411 769C419 778 429 785 441 789C454 793 466 793 477 791C615 758 774 749 953 762C965 762 974 759 978 754C982 747 979 738 968 729C930 699 891 693 850 702C837 704 824 707 810 709C776 714 776 714 759 716C732 719 623 731 599 734C569 737 569 737 554 739Z"/></g>
<defs><clipPath id="z31199c1"><use href="#z31199d1"/></clipPath>
	<clipPath id="z31199c2"><use href="#z31199d2"/></clipPath>
	<clipPath id="z31199c3"><use href="#z31199d3"/></clipPath>
	<clipPath id="z31199c4"><use href="#z31199d4"/></clipPath>
	<clipPath id="z31199c5"><use href="#z31199d5"/></clipPath>
	<clipPath id="z31199c6"><use href="#z31199d6"/></clipPath>
	<clipPath id="z31199c7"><use href="#z31199d7"/></clipPath>
	<clipPath id="z31199c8"><use href="#z31199d8"/></clipPath>
	<clipPath id="z31199c9"><use href="#z31199d9"/></clipPath>
	<clipPath id="z31199c10"><use href="#z31199d10"/></clipPath><marker id="guide-arrow" viewBox="0 0 16 16" refX="5" refY="5" markerWidth="4" markerHeight="4" orient="auto-start-reverse"><path d="M 0 0 L 10 5 L 0 10 z" fill="inherit"/></marker></defs>
<g class="strokes"><path style="--part:1" pathLength="3333" clip-path="url(#z31199c1)" d="M382 103L415 139L180 266"/><path style="--part:1" pathLength="3333" clip-path="url(#z31199c2)" d="M89 429L150 437L485 369"/><path style="--part:1" pathLength="3333" clip-path="url(#z31199c3)" d="M316 225L350 261L330 902"/><path style="--part:1" pathLength="3333" clip-path="url(#z31199c4)" d="M316 423L238 576L84 754"/><path style="--part:1" pathLength="3333" clip-path="url(#z31199c5)" d="M367 480L464 563"/><path style="--part:2" pathLength="3333" clip-path="url(#z31199c6)" d="M528 220L573 273L567 736"/><path style="--part:2" pathLength="3333" clip-path="url(#z31199c7)" d="M584 233L762 207L800 242L788 711"/><path style="--part:2" pathLength="3333" clip-path="url(#z31199c8)" d="M606 427L724 401"/><path style="--part:2" pathLength="3333" clip-path="url(#z31199c9)" d="M603 564L729 536"/><path style="--part:2" pathLength="3333" clip-path="url(#z31199c10)" d="M412 757L468 769L868 728L975 743"/></g>
<g class="guides"><text class="g1" style="--gs:1" x="382" y="103">①</text><path class="g1 aligned" style="--gs:1" d="M382,103 Q415,139 385.63,154.88 Q209.38,250.13 180,266"/><path class="g1 offset" style="--gs:1" d="M286,103 Q305.52,121 288.14,128.94 Q183.89,176.56 166.52,184.5"/><text class="g2" style="--gs:2" x="89" y="429">②</text><path class="g2 aligned" style="--gs:2" d="M89,429 Q150,437 191.88,428.5 Q443.13,377.5 485,369"/><path class="g2 offset" style="--gs:2" d="M89,525 Q150,533 191.88,524.5 Q443.13,473.5 485,465"/><text class="g3" style="--gs:3" x="316" y="225">③</text><path class="g3 aligned" style="--gs:3" d="M316,225 Q350,261 347.5,341.13 Q332.5,821.88 330,902"/><path class="g3 offset" style="--gs:3" d="M220,225 Q254,261 251.5,341.13 Q236.5,821.88 234,902"/><text class="g4" style="--gs:4" x="316" y="423">④</text><path class="g4 aligned" style="--gs:4" d="M316,423 Q238,576 218.75,598.25 Q103.25,731.75 84,754"/><path class="g4 offset" style="--gs:4" d="M220,423 Q181,531.63 171.38,547.42 Q113.63,642.2 104,658"/><text class="g5" style="--gs:5" x="367" y="480">⑤</text><path class="g5 aligned" style="--gs:5" d="M367,480 L464,563"/><path class="g5 offset" style="--gs:5" d="M452.68,411.46 L549.68,494.46"/><text class="g6" style="--gs:6" x="528" y="220">⑥</text><path class="g6 aligned" style="--gs:6" d="M528,220 Q573,273 572.25,330.88 Q567.75,678.13 567,736"/><path class="g6 offset" style="--gs:6" d="M432,220 Q477,273 476.25,330.88 Q471.75,678.13 471,736"/><text class="g7" style="--gs:7" x="584" y="233">⑦</text><path class="g7 aligned" style="--gs:7" d="M584,233 Q762,207 771.5,215.75 Q800,242 797,359.25 Q791,593.75 788,711"/><path class="g7 offset" style="--gs:7" d="M584,329 Q673,303 677.75,310.08 Q692,331.33 690.5,426.25 Q687.5,616.08 686,711"/><text class="g8" style="--gs:8" x="606" y="427">⑧</text><path class="g8 aligned" style="--gs:8" d="M606,427 L724,401"/><path class="g8 offset" style="--gs:8" d="M606,523 L724,497"/><text class="g9" style="--gs:9" x="603" y="564">⑨</text><path class="g9 aligned" style="--gs:9" d="M603,564 L729,536"/><path class="g9 offset" style="--gs:9" d="M603,660 L729,632"/><text class="g10" style="--gs:10" x="412" y="757">⑩</text><path class="g10 aligned" style="--gs:10" d="M412,757 Q468,769 568,758.75 Q868,728 894.75,731.75 Q948.25,739.25 975,743"/><path class="g10 offset" style="--gs:10" d="M412,853 Q468,865 568,854.75 Q868,824 894.75,827.75 Q948.25,835.25 975,839"/></g>
<g class="parts"><rect data-part="1" data-literal="禾" data-radical="true" role="button" tabindex="0" aria-label="Part 禾 (radical)" x="12" y="31" width="545" height="943"/><rect data-part="2" data-literal="且" role="button" tabindex="0" aria-label="Part 且" x="340" y="135" width="684" height="706"/></g>
</svg>
