<svg id="z31298" class="acjk" viewBox="0 0 1024 1024" xmlns="http://www.w3.org/2000/svg">
<style>

@keyframes zk {
	to {
		stroke-dashoffset:0;
	}
}
svg.acjk path[clip-path] {
	--t:0.8s;
	animation:zk var(--t) linear forwards var(--d);
	stroke-dasharray:3337;
	stroke-dashoffset:3339;
	stroke-width:128;
	stroke-linecap:round;
	fill:none;
	stroke:#000;
}
svg.acjk path[id] {fill:#ccc;}


    @keyframes guide-fade {
        0% { opacity: 0; }
        3% { opacity: 1; }
        95% { opacity: 1; }
        100% { opacity: 0; }
    }

    svg.acjk #guide-arrow {
        fill: #f77;
    }

    svg.acjk .guides {
        circle {
            fill: #0f6;
        }

        path {
            opacity: 0;
            animation: guide-fade var(--t) linear forwards var(--d);
            stroke-width: 16px;
            stroke-linecap: round;
            stroke: #f77;
            fill: none;
            marker-end: url(#guide-arrow);
        }

        circle,
        path {
            --t: 0.8s;
            opacity: 0;
            animation: guide-fade calc(var(--t) + 0.4s) ease-in-out forwards calc(var(--d) - 0.2s);
        }
    }
</style>
<path id="z31298d1" d="M299 248C351 221 379 205 415 190C425 185 431 184 433 180C435 173 432 166 423 161C385 138 354 129 333 136C328 137 327 143 328 150C330 178 270 223 155 297C149 300 152 307 157 308C167 308 241 276 275 260C291 252 291 252 299 248Z"/>
<path id="z31298d2" d="M327 420C351 413 379 406 411 400C421 397 427 394 427 390C427 381 420 375 409 371C392 364 365 366 329 377C304 384 304 384 292 388C194 416 128 430 94 435C86 436 81 439 80 445C78 451 81 458 92 465C118 481 144 483 169 473C209 456 244 443 273 435C309 425 309 425 327 420Z"/>
<path id="z31298d3" d="M326 482C326 462 326 441 327 420C328 391 328 391 329 377C330 338 332 309 337 289C338 281 337 275 333 272C320 261 309 253 299 248C291 243 270 252 275 260C283 272 293 314 292 388C291 462 291 462 290 499C287 651 267 787 263 802C255 825 265 853 286 885C293 895 297 904 303 906C309 908 315 903 319 895C327 875 327 855 327 837C323 718 326 608 326 506C326 506 326 490 326 482Z"/>
<path id="z31298d4" d="M273 435C235 515 162 616 56 740C51 745 53 749 60 750C64 750 68 748 75 744C162 677 234 596 290 499C322 445 296 377 273 435Z"/>
<path id="z31298d5" d="M326 506C374 552 402 575 410 576C414 576 419 573 422 567C424 560 426 549 420 537C408 513 376 494 326 482C318 480 320 501 326 506Z"/>
<path id="z31298d6" d="M677 296C755 277 794 263 796 262C800 258 801 252 799 248C794 241 783 236 767 233C747 228 717 242 678 254C648 263 648 263 633 267C601 276 564 281 530 286C508 289 506 297 522 306C540 316 572 320 635 306C663 299 663 299 677 296Z"/>
<path id="z31298d7" d="M499 424C492 422 480 418 464 416C457 415 452 417 450 419C447 422 448 428 453 438C471 475 488 542 499 602C502 619 508 634 519 646C529 658 536 661 540 651C542 645 542 636 542 625C541 618 541 611 540 605C525 530 517 467 515 455C513 444 510 426 499 424Z"/>
<path id="z31298d8" d="M751 588C761 601 770 608 779 614C785 618 793 615 803 602C809 592 821 555 837 493C841 473 850 435 866 420C873 411 874 403 867 395C857 384 838 372 812 357C790 344 767 355 675 381C648 388 648 388 635 392C633 392 581 404 499 424C488 426 504 459 515 455C545 443 590 430 635 421C661 416 661 416 674 413C727 402 767 391 779 401C785 407 788 415 787 423C778 492 765 541 752 559C747 567 745 580 751 588Z"/>
<path id="z31298d9" d="M674 509C690 505 716 499 732 497C744 494 747 489 743 484C737 477 717 473 704 472C695 470 684 472 674 476C649 484 649 484 636 488C611 495 578 505 559 512C549 514 550 520 562 527C565 529 597 525 636 517C661 512 661 512 674 509Z"/>
<path id="z31298d10" d="M673 602C695 597 728 592 751 588C760 586 762 559 752 559C730 557 698 567 673 573C648 579 648 579 635 582C605 589 566 598 540 605C533 606 535 626 542 625C542 625 580 619 635 609C660 604 660 604 673 602Z"/>
<path id="z31298d11" d="M672 574C672 546 672 534 673 507C674 479 673 487 673 478C673 460 674 431 674 413C674 391 674 391 674 380C674 362 676 339 677 296C678 268 678 268 678 254C679 210 684 181 694 150C695 143 691 134 677 126C655 113 635 108 621 106C610 103 602 106 598 111C593 116 593 123 599 132C619 162 630 210 633 267C634 293 634 293 635 306C636 341 636 373 636 392C636 411 636 411 636 421C636 439 635 469 635 487C635 496 636 486 635 514C634 541 633 554 633 582C633 595 672 587 672 574Z"/>
<path id="z31298d12" d="M426 709C413 741 397 772 381 803C369 824 372 843 382 861C387 871 395 874 407 865C435 841 448 805 451 759C452 740 452 723 447 708C445 703 441 700 437 700C432 700 428 703 426 709Z"/>
<path id="z31298d13" d="M508 739C519 793 546 835 589 862C630 888 699 905 793 898C820 895 849 891 878 879C890 873 897 865 899 858C900 851 889 842 868 826C832 798 802 767 777 736C768 725 760 722 761 728C763 763 778 797 781 834C781 843 761 847 736 848C662 849 609 834 578 807C563 794 553 776 547 755C542 740 536 732 529 729C520 725 514 723 510 726C507 727 506 731 508 739Z"/>
<path id="z31298d14" d="M617 697C640 720 658 740 680 749C688 752 696 746 700 739C703 732 704 724 702 715C698 702 691 690 681 685C645 665 619 660 605 665C602 665 601 669 602 676C602 682 608 688 617 697Z"/>
<path id="z31298d15" d="M799 673C831 693 866 719 905 751C916 760 926 766 936 767C940 767 944 763 948 757C953 748 950 732 940 708C930 686 905 669 861 659C832 652 810 648 796 646C789 644 786 646 787 654C787 662 791 668 799 673Z"/>
<defs>
	<clipPath id="z31298c1"><use href="#z31298d1"/></clipPath>
	<clipPath id="z31298c2"><use href="#z31298d2"/></clipPath>
	<clipPath id="z31298c3"><use href="#z31298d3"/></clipPath>
	<clipPath id="z31298c4"><use href="#z31298d4"/></clipPath>
	<clipPath id="z31298c5"><use href="#z31298d5"/></clipPath>
	<clipPath id="z31298c6"><use href="#z31298d6"/></clipPath>
	<clipPath id="z31298c7"><use href="#z31298d7"/></clipPath>
	<clipPath id="z31298c8"><use href="#z31298d8"/></clipPath>
	<clipPath id="z31298c9"><use href="#z31298d9"/></clipPath>
	<clipPath id="z31298c10"><use href="#z31298d10"/></clipPath>
	<clipPath id="z31298c11"><use href="#z31298d11"/></clipPath>
	<clipPath id="z31298c12"><use href="#z31298d12"/></clipPath>
	<clipPath id="z31298c13"><use href="#z31298d13"/></clipPath>
	<clipPath id="z31298c14"><use href="#z31298d14"/></clipPath>
	<clipPath id="z31298c15"><use href="#z31298d15"/></clipPath>
<marker id="guide-arrow" viewBox="0 0 16 16" refX="5" refY="5" markerWidth="4" markerHeight="4" orient="auto-start-reverse"><path d="M 0 0 L 10 5 L 0 10 z" fill="inherit"/></marker></defs>
<path style="--d:1s;" pathLength="3333" clip-path="url(#z31298c1)" d="M342 150L375 174L164 300"/>
<path style="--d:2s;" pathLength="3333" clip-path="url(#z31298c2)" d="M87 446L148 452L419 385"/>
<path style="--d:3s;" pathLength="3333" clip-path="url(#z31298c3)" d="M282 261L311 288L306 902"/>
<path style="--d:4s;" pathLength="3333" clip-path="url(#z31298c4)" d="M285 439L209 582L61 741"/>
<path style="--d:5s;" pathLength="3333" clip-path="url(#z31298c5)" d="M331 489L417 568"/>
<path style="--d:6s;" pathLength="3333" clip-path="url(#z31298c6)" d="M522 295L794 251"/>
<path style="--d:7s;" pathLength="3333" clip-path="url(#z31298c7)" d="M455 421L488 458L533 650"/>
<path style="--d:8s;" pathLength="3333" clip-path="url(#z31298c8)" d="M508 429L797 380L829 417L782 611"/>
<path style="--d:9s;" pathLength="3333" clip-path="url(#z31298c9)" d="M563 519L737 487"/>
<path style="--d:10s;" pathLength="3333" clip-path="url(#z31298c10)" d="M546 618L750 575"/>
<path style="--d:11s;" pathLength="3333" clip-path="url(#z31298c11)" d="M601 114L656 159L643 575"/>
<path style="--d:12s;" pathLength="3333" clip-path="url(#z31298c12)" d="M438 709L392 866"/>
<path style="--d:13s;" pathLength="3333" clip-path="url(#z31298c13)" d="M517 733L589 839L734 873L813 863L848 841L769 737"/>
<path style="--d:14s;" pathLength="3333" clip-path="url(#z31298c14)" d="M609 671L693 743"/>
<path style="--d:15s;" pathLength="3333" clip-path="url(#z31298c15)" d="M795 655L899 706L938 761"/>
<g class="guides"><circle style="--d: 1s" class="g1" cx="359" cy="162" r="16"/><path style="--d: 1s;" class="g1" d="M444.68,230.54399999999998 L249.68,368.544"/><circle style="--d: 2s" class="g2" cx="87" cy="446" r="16"/><path style="--d: 2s;" class="g2" d="M87,542 Q148,548 181.875,539.625 Q385.125,489.375 419,481"/><circle style="--d: 3s" class="g3" cx="297" cy="275" r="16"/><path style="--d: 3s;" class="g3" d="M417,275 L426,902"/><circle style="--d: 4s" class="g4" cx="285" cy="439" r="16"/><path style="--d: 4s;" class="g4" d="M189,439 Q151,536.5430463576159 141.75,550.100165562914 Q86.25,631.442880794702 77,645"/><circle style="--d: 5s" class="g5" cx="331" cy="489" r="16"/><path style="--d: 5s;" class="g5" d="M416.68,420.456 L502.68,499.456"/><circle style="--d: 6s" class="g6" cx="522" cy="295" r="16"/><path style="--d: 6s;" class="g6" d="M522,391 L794,347"/><circle style="--d: 7s" class="g7" cx="455" cy="421" r="16"/><path style="--d: 7s;" class="g7" d="M540.68,352.456 Q573.68,389.456 579.305,413.456 Q613.055,557.456 618.68,581.456"/><circle style="--d: 8s" class="g8" cx="508" cy="429" r="16"/><path style="--d: 8s;" class="g8" d="M508,525 Q688.9626168224299,476 693.9719626168225,485.25 Q709,513 701.642523364486,537.5 Q686.9275700934579,586.5 679.5700934579439,611"/><circle style="--d: 9s" class="g9" cx="563" cy="519" r="16"/><path style="--d: 9s;" class="g9" d="M563,615 L737,583"/><circle style="--d: 10s" class="g10" cx="546" cy="618" r="16"/><path style="--d: 10s;" class="g10" d="M546,714 L750,671"/><circle style="--d: 11s" class="g11" cx="601" cy="114" r="16"/><path style="--d: 11s;" class="g11" d="M505,114 Q560,159 558.375,211 Q548.625,523 547,575"/><circle style="--d: 12s" class="g12" cx="438" cy="709" r="16"/><path style="--d: 12s;" class="g12" d="M558,709 L512,866"/><circle style="--d: 13s" class="g13" cx="517" cy="733" r="16"/><path style="--d: 13s;" class="g13" d="M448.456,801.544 Q584.6443262839879,907.544 721.7784048338368,924.544 Q858.9124833836858,941.544 933.626912386707,936.544 Q1008.3413413897282,931.544 1041.442670694864,920.544 Q1074.5439999999999,909.544 999.8295709969789,857.544 Q999.8295709969789,857.544 925.1151419939578,805.544"/><circle style="--d: 14s" class="g14" cx="609" cy="671" r="16"/><path style="--d: 14s;" class="g14" d="M694.68,602.456 L778.68,674.456"/><circle style="--d: 15s" class="g15" cx="795" cy="655" r="16"/><path style="--d: 15s;" class="g15" d="M880.68,586.456 Q984.68,637.456 989.555,644.331 Q1018.805,685.581 1023.68,692.456"/></g></svg>