<!--
  Stroke-order data for 穏, derived from AnimCJK (https://github.com/parsimonhi/animCJK),
  itself derived from the Arphic PL KaitiM fonts. Distributed under the Arphic Public License
  (see ARPHICPL.TXT). Regenerated by scripts/build-strokes.ts — do not edit by hand.
-->
<svg id="z31311" class="acjk" viewBox="0 0 1024 1024" xmlns="http://www.w3.org/2000/svg">
<g class="glyph"><path style="--part:1" id="z31311d1" d="M296 255C364 224 420 196 445 186C455 181 467 176 470 171C472 164 468 156 459 150C444 140 421 133 392 124C381 120 371 118 363 121C357 122 356 128 357 136C358 162 288 211 156 296C149 299 153 307 158 308C170 309 206 295 267 268C286 259 286 259 296 255Z"/><path style="--part:1" id="z31311d2" d="M323 423C338 419 354 412 416 403C422 402 431 400 435 390C437 383 424 375 412 370C388 360 359 361 324 373C296 382 296 382 282 387C250 397 180 412 94 431C75 434 73 441 89 452C113 467 133 472 152 467C182 457 218 449 259 439C302 428 302 428 323 423Z"/><path style="--part:1" id="z31311d3" d="M322 488C322 466 322 444 323 423C324 390 324 390 324 373C324 339 327 313 331 295C332 286 330 280 326 277C315 268 305 261 296 255C288 249 264 258 267 268C275 286 282 325 282 387C282 465 282 465 282 504C282 608 278 702 262 783C254 823 260 843 293 888C296 892 299 896 304 898C310 899 316 894 320 886C328 865 329 845 328 826C322 714 322 610 322 516C322 497 322 497 322 488Z"/><path style="--part:1" id="z31311d4" d="M259 439C243 479 224 520 203 559C176 606 130 671 66 759C61 765 63 769 72 770C85 770 127 729 196 646C227 607 255 560 282 504C306 444 283 379 259 439Z"/><path style="--part:1" id="z31311d5" d="M322 516C362 556 387 575 398 575C406 575 413 570 416 559C417 551 414 540 408 529C401 518 386 510 374 505C358 498 333 491 322 488C313 485 315 509 322 516Z"/><path style="--part:2" id="z31311d6" d="M652 98C624 121 581 142 506 176C499 178 501 186 506 188C521 192 599 173 648 161C683 151 726 141 752 135C761 132 769 131 773 126C776 120 774 110 766 103C754 91 732 80 703 67C693 62 682 58 675 60C669 60 667 67 667 74C666 84 660 91 652 98Z"/><path style="--part:2" id="z31311d7" d="M482 288C494 300 506 314 520 331C526 339 534 344 544 344C550 344 556 340 559 333C562 325 563 312 559 295C554 274 526 258 481 246C472 243 465 241 462 243C458 244 457 250 458 258C458 264 467 274 482 288Z"/><path style="--part:2" id="z31311d8" d="M587 223C616 266 638 288 653 291C660 292 668 288 672 278C674 270 671 259 667 248C662 237 652 229 639 222C617 210 602 202 593 200C588 198 584 200 583 207C581 211 583 217 587 223Z"/><path style="--part:2" id="z31311d9" d="M805 193C794 205 758 240 698 301C688 310 692 319 703 314C820 255 879 220 883 219C897 214 901 205 896 194C889 181 877 170 862 160C847 150 837 145 829 146C820 146 817 151 819 160C820 170 814 181 805 193Z"/><path style="--part:2" id="z31311d10" d="M782 557C802 477 828 428 854 405C866 394 866 378 856 368C846 358 822 346 787 329C774 322 761 323 747 329C720 339 694 348 669 354C632 362 544 376 498 381C487 382 481 385 483 392C484 396 491 401 504 407C520 413 540 411 564 407C619 396 674 389 728 379C742 376 751 378 757 384C764 392 768 404 766 420C758 468 747 512 735 551C730 566 779 572 782 557Z"/><path style="--part:2" id="z31311d11" d="M497 489C481 491 479 498 492 507C510 520 532 524 558 520C620 508 674 498 723 494C729 493 735 492 739 484C741 477 732 473 721 466C703 455 670 462 620 470C589 474 547 481 497 489Z"/><path style="--part:2" id="z31311d12" d="M735 551C707 560 552 590 478 598C463 599 460 605 469 618C473 624 479 628 487 631C495 633 503 634 512 632C572 618 667 605 797 594C803 593 808 590 809 584C809 578 800 569 782 557C768 549 750 548 735 551Z"/><path style="--part:2" id="z31311d13" d="M424 680C406 718 388 756 365 792C352 811 349 831 361 856C365 866 376 870 389 861C424 834 442 791 448 736C450 715 451 696 447 681C445 674 440 671 436 672C431 672 426 674 424 680Z"/><path style="--part:2" id="z31311d14" d="M480 710C488 771 511 825 559 859C625 906 700 927 812 921C832 919 850 915 868 909C882 904 891 896 894 887C896 881 887 869 868 849C836 815 810 779 791 743C784 731 780 727 777 731C774 735 772 742 774 751C781 811 783 847 775 854C766 861 749 865 725 865C640 863 585 834 552 797C536 780 526 757 520 730C516 715 510 705 504 701C495 695 488 695 484 697C480 698 478 701 480 710Z"/><path style="--part:2" id="z31311d15" d="M592 670C624 719 648 746 665 749C675 750 684 746 689 733C692 723 690 709 684 695C673 670 644 653 600 641C593 639 589 642 588 651C586 657 587 663 592 670Z"/><path style="--part:2" id="z31311d16" d="M787 658C821 680 859 709 900 745C911 755 921 761 931 763C935 763 940 760 945 753C950 744 947 727 937 702C923 670 873 646 784 630C777 628 774 630 775 638C775 646 779 653 787 658Z"/></g>
<defs><clipPath id="z31311c1"><use href="#z31311d1"/></clipPath>
	<clipPath id="z31311c2"><use href="#z31311d2"/></clipPath>
	<clipPath id="z31311c3"><use href="#z31311d3"/></clipPath>
	<clipPath id="z31311c4"><use href="#z31311d4"/></clipPath>
	<clipPath id="z31311c5"><use href="#z31311d5"/></clipPath>
	<clipPath id="z31311c6"><use href="#z31311d6"/></clipPath>
	<clipPath id="z31311c7"><use href="#z31311d7"/></clipPath>
	<clipPath id="z31311c8"><use href="#z31311d8"/></clipPath>
	<clipPath id="z31311c9"><use href="#z31311d9"/></clipPath>
	<clipPath id="z31311c10"><use href="#z31311d10"/></clipPath>
	<clipPath id="z31311c11"><use href="#z31311d11"/></clipPath>
	<clipPath id="z31311c12"><use href="#z31311d12"/></clipPath>
	<clipPath id="z31311c13"><use href="#z31311d13"/></clipPath>
	<clipPath id="z31311c14"><use href="#z31311d14"/></clipPath>
	<clipPath id="z31311c15"><use href="#z31311d15"/></clipPath>
	<clipPath id="z31311c16"><use href="#z31311d16"/></clipPath><marker id="guide-arrow" viewBox="0 0 16 16" refX="5" refY="5" markerWidth="4" markerHeight="4" orient="auto-start-reverse"><path d="M 0 0 L 10 5 L 0 10 z" fill="inherit"/></marker></defs>
<g class="strokes"><path style="--part:1" pathLength="3333" clip-path="url(#z31311c1)" d="M369 132L413 168L161 299"/><path style="--part:1" pathLength="3333" clip-path="url(#z31311c2)" d="M89 441L429 387"/><path style="--part:1" pathLength="3333" clip-path="url(#z31311c3)" d="M274 267L303 297L292 807L307 893"/><path style="--part:1" pathLength="3333" clip-path="url(#z31311c4)" d="M277 442L210 590L72 762"/><path style="--part:1" pathLength="3333" clip-path="url(#z31311c5)" d="M328 496L411 563"/><path style="--part:2" pathLength="3333" clip-path="url(#z31311c6)" d="M678 70L724 109L511 181"/><path style="--part:2" pathLength="3333" clip-path="url(#z31311c7)" d="M466 252L531 300L545 340"/><path style="--part:2" pathLength="3333" clip-path="url(#z31311c8)" d="M590 210L658 286"/><path style="--part:2" pathLength="3333" clip-path="url(#z31311c9)" d="M827 155L850 202L700 308"/><path style="--part:2" pathLength="3333" clip-path="url(#z31311c10)" d="M490 390L775 358L814 393L753 553"/><path style="--part:2" pathLength="3333" clip-path="url(#z31311c11)" d="M491 496L732 482"/><path style="--part:2" pathLength="3333" clip-path="url(#z31311c12)" d="M472 609L804 581"/><path style="--part:2" pathLength="3333" clip-path="url(#z31311c13)" d="M434 678L367 857"/><path style="--part:2" pathLength="3333" clip-path="url(#z31311c14)" d="M490 701L550 824L700 886L841 872L782 740"/><path style="--part:2" pathLength="3333" clip-path="url(#z31311c15)" d="M596 646L680 741"/><path style="--part:2" pathLength="3333" clip-path="url(#z31311c16)" d="M782 636L884 691L940 755"/></g>
<g class="guides"><text class="g1" style="--gs:1" x="369" y="132">①</text><path class="g1 aligned" style="--gs:1" d="M369,132 Q413,168 381.5,184.38 Q192.5,282.63 161,299"/><path class="g1 offset" style="--gs:1" d="M273,132 Q300.24,150 280.74,158.19 Q163.74,207.31 144.24,215.5"/><text class="g2" style="--gs:2" x="89" y="441">②</text><path class="g2 aligned" style="--gs:2" d="M89,441 L429,387"/><path class="g2 offset" style="--gs:2" d="M89,537 L429,483"/><text class="g3" style="--gs:3" x="274" y="267">③</text><path class="g3 aligned" style="--gs:3" d="M289,282 Q292,807 293.88,817.75 Q305.13,882.25 307,893"/><path class="g3 offset" style="--gs:3" d="M409,282 Q412,807 413.88,817.75 Q425.13,882.25 427,893"/><text class="g4" style="--gs:4" x="277" y="442">④</text><path class="g4 aligned" style="--gs:4" d="M277,442 Q210,590 192.75,611.5 Q89.25,740.5 72,762"/><path class="g4 offset" style="--gs:4" d="M181,442 Q147.5,545.6 138.88,560.65 Q87.13,650.95 78.5,666"/><text class="g5" style="--gs:5" x="328" y="496">⑤</text><path class="g5 aligned" style="--gs:5" d="M328,496 L411,563"/><path class="g5 offset" style="--gs:5" d="M413.68,427.46 L496.68,494.46"/><text class="g6" style="--gs:6" x="678" y="70">⑥</text><path class="g6 aligned" style="--gs:6" d="M678,70 Q724,109 697.38,118 Q537.63,172 511,181"/><path class="g6 offset" style="--gs:6" d="M582,70 Q607.27,89.5 592.64,94 Q504.89,121 490.27,125.5"/><text class="g7" style="--gs:7" x="466" y="252">⑦</text><path class="g7 aligned" style="--gs:7" d="M466,252 Q531,300 532.75,305 Q543.25,335 545,340"/><path class="g7 offset" style="--gs:7" d="M551.68,183.46 Q616.68,231.46 618.43,236.46 Q628.93,266.46 630.68,271.46"/><text class="g8" style="--gs:8" x="590" y="210">⑧</text><path class="g8 aligned" style="--gs:8" d="M590,210 L658,286"/><path class="g8 offset" style="--gs:8" d="M675.68,141.46 L743.68,217.46"/><text class="g9" style="--gs:9" x="827" y="155">⑨</text><path class="g9 aligned" style="--gs:9" d="M827,155 Q850,202 831.25,215.25 Q718.75,294.75 700,308"/><path class="g9 offset" style="--gs:9" d="M731,155 Q742.5,178.5 733.13,185.13 Q676.88,224.88 667.5,231.5"/><text class="g10" style="--gs:10" x="490" y="390">⑩</text><path class="g10 aligned" style="--gs:10" d="M490,390 Q775,358 784.75,366.75 Q814,393 798.75,433 Q768.25,513 753,553"/><path class="g10 offset" style="--gs:10" d="M490,486 Q669.44,454 675.58,458.44 Q694,471.77 684.4,492.08 Q665.19,532.69 655.59,553"/><text class="g11" style="--gs:11" x="491" y="496">⑪</text><path class="g11 aligned" style="--gs:11" d="M491,496 L732,482"/><path class="g11 offset" style="--gs:11" d="M491,592 L732,578"/><text class="g12" style="--gs:12" x="472" y="609">⑫</text><path class="g12 aligned" style="--gs:12" d="M472,609 L804,581"/><path class="g12 offset" style="--gs:12" d="M472,705 L804,677"/><text class="g13" style="--gs:13" x="434" y="678">⑬</text><path class="g13 aligned" style="--gs:13" d="M434,678 L367,857"/><path class="g13 offset" style="--gs:13" d="M554,678 L487,857"/><text class="g14" style="--gs:14" x="490" y="701">⑭</text><path class="g14 aligned" style="--gs:14" d="M490,701 Q550,824 625,855 Q700,886 770.5,879 Q841,872 811.5,806 Q811.5,806 782,740"/><path class="g14 offset" style="--gs:14" d="M575.68,632.46 Q605.68,737.2 643.18,763.6 Q680.68,790 715.93,784.04 Q751.18,778.08 736.43,721.87 Q736.43,721.87 721.68,665.67"/><text class="g15" style="--gs:15" x="596" y="646">⑮</text><path class="g15 aligned" style="--gs:15" d="M596,646 L680,741"/><path class="g15 offset" style="--gs:15" d="M681.68,577.46 L765.68,672.46"/><text class="g16" style="--gs:16" x="782" y="636">⑯</text><path class="g16 aligned" style="--gs:16" d="M782,636 Q884,691 891,699 Q933,747 940,755"/><path class="g16 offset" style="--gs:16" d="M867.68,567.46 Q969.68,622.46 976.68,630.46 Q1018.68,678.46 1025.68,686.46"/></g>
<g class="parts"><rect data-part="2" data-literal="𢚩" role="button" tabindex="0" aria-label="Part 𢚩" x="295" y="0" width="717" height="958"/><rect data-part="1" data-literal="禾" data-radical="true" role="button" tabindex="0" aria-label="Part 禾 (radical)" x="0" y="60" width="501" height="905"/></g>
</svg>
