<svg id="z31319" class="acjk" viewBox="0 0 1024 1024" xmlns="http://www.w3.org/2000/svg">
<style>

@keyframes zk {
	to {
		stroke-dashoffset:0;
	}
}
svg.acjk path[clip-path] {
	--t:0.8s;
	animation:zk var(--t) linear forwards var(--d);
	stroke-dasharray:3337;
	stroke-dashoffset:3339;
	stroke-width:128;
	stroke-linecap:round;
	fill:none;
	stroke:#000;
}
svg.acjk path[id] {fill:#ccc;}


    @keyframes guide-fade {
        0% { opacity: 0; }
        3% { opacity: 1; }
        95% { opacity: 1; }
        100% { opacity: 0; }
    }

    svg.acjk #guide-arrow {
        fill: #f77;
    }

    svg.acjk .guides {
        circle {
            fill: #0f6;
        }

        path {
            opacity: 0;
            animation: guide-fade var(--t) linear forwards var(--d);
            stroke-width: 16px;
            stroke-linecap: round;
            stroke: #f77;
            fill: none;
            marker-end: url(#guide-arrow);
        }

        circle,
        path {
            --t: 0.8s;
            opacity: 0;
            animation: guide-fade calc(var(--t) + 0.4s) ease-in-out forwards calc(var(--d) - 0.2s);
        }
    }
</style>
<path id="z31319d1" d="M299 248C351 221 391 199 415 190C424 185 431 184 433 180C434 173 432 166 423 161C385 138 354 129 333 136C328 137 327 143 328 150C330 177 270 223 155 297C149 300 152 309 157 308C206 295 234 280 275 260C291 252 291 252 299 248Z"/>
<path id="z31319d2" d="M327 420C351 413 379 406 411 400C421 397 427 394 427 390C427 381 420 375 409 371C392 364 365 366 329 377C304 384 304 384 292 388C194 416 128 430 94 435C86 436 81 439 80 445C78 451 81 458 92 465C118 481 144 483 169 473C209 456 244 443 273 435C309 425 309 425 327 420Z"/>
<path id="z31319d3" d="M326 482C326 462 326 441 327 420C328 391 328 391 329 377C330 338 332 308 337 289C338 280 337 275 333 272C320 261 309 253 299 248C291 243 270 252 275 260C283 272 293 314 292 388C291 462 291 462 290 499C286 687 267 787 263 802C255 825 264 853 286 885C292 895 297 904 303 906C309 908 315 903 319 895C327 875 327 855 327 837C322 718 326 608 326 506C326 490 326 490 326 482Z"/>
<path id="z31319d4" d="M56 740C51 745 53 749 60 750C64 750 68 748 75 744C162 677 235 596 291 499C324 445 297 375 273 434C221 554 121 662 56 740Z"/>
<path id="z31319d5" d="M326 506C374 552 401 575 410 576C414 576 419 573 422 567C424 560 427 548 420 537C398 505 370 495 326 482C318 480 320 501 326 506Z"/>
<path id="z31319d6" d="M656 226C735 207 774 192 776 192C780 187 781 182 779 178C774 171 763 166 747 163C727 159 699 169 660 182C627 192 627 192 611 197C579 206 545 210 510 216C489 219 485 229 502 236C542 251 578 244 613 236C642 229 642 229 656 226Z"/>
<path id="z31319d7" d="M489 332C482 329 470 326 454 324C447 323 442 324 440 327C437 329 438 336 443 346C461 382 477 430 489 490C492 507 498 522 509 534C530 557 531 535 532 513C532 506 531 499 530 493C521 446 504 376 505 363C505 351 500 336 489 332Z"/>
<path id="z31319d8" d="M721 480C731 492 740 500 749 506C755 510 764 506 773 494C780 483 791 447 807 385C812 365 821 347 836 332C843 323 844 315 837 307C827 296 807 285 782 269C761 255 738 268 655 291C628 298 628 298 615 302C613 302 571 312 489 332C478 334 494 367 505 363C535 351 571 339 615 331C641 326 641 326 654 323C707 312 738 303 749 313C755 319 758 327 757 335C746 405 734 443 722 451C715 458 715 472 721 480Z"/>
<path id="z31319d9" d="M653 409C669 405 686 402 702 399C714 396 717 391 713 386C707 379 697 374 684 372C675 370 664 372 653 376C628 384 628 384 615 388C590 395 569 403 549 410C540 412 541 418 552 425C555 427 576 425 615 417C640 412 640 412 653 409Z"/>
<path id="z31319d10" d="M653 492C675 487 698 483 721 480C730 478 731 454 722 451C706 443 690 454 653 463C628 469 628 469 615 472C585 479 548 488 530 493C523 494 525 513 532 513C547 513 589 503 615 499C640 494 640 494 653 492Z"/>
<path id="z31319d11" d="M652 574C652 546 653 518 653 492C653 473 653 473 653 463C653 444 653 426 653 409C653 387 653 387 653 376C653 358 653 340 654 323C655 302 655 302 655 291C655 269 654 247 656 226C659 197 659 197 660 182C661 165 665 141 674 110C675 103 671 93 657 86C635 73 615 68 601 66C590 64 582 65 578 71C573 75 573 83 579 92C599 122 608 157 611 197C612 223 612 223 613 236C614 256 615 278 615 302C615 321 615 321 615 331C615 349 615 368 615 388C615 407 615 407 615 417C615 435 615 453 615 472C615 490 615 490 615 499C615 525 613 553 613 582C613 595 652 587 652 574Z"/>
<path id="z31319d12" d="M729 556C704 560 679 568 652 574C626 579 626 579 613 582C580 588 546 594 512 602C501 604 486 604 468 603C461 602 456 605 455 611C452 617 454 624 460 629C471 639 485 651 503 662C508 665 515 663 522 659C548 642 621 614 741 574C748 572 736 555 729 556Z"/>
<path id="z31319d13" d="M741 574C755 595 768 608 780 612C786 613 793 610 798 601C800 594 799 584 796 572C792 561 782 552 770 544C749 530 735 520 727 518C722 516 719 519 717 525C715 529 715 534 719 540C721 544 725 550 729 556C733 562 741 574 741 574Z"/>
<path id="z31319d14" d="M426 709C413 741 397 772 381 803C369 824 372 843 382 861C387 871 395 874 407 865C435 841 448 804 451 759C451 740 452 723 447 708C445 702 441 700 437 700C432 700 428 703 426 709Z"/>
<path id="z31319d15" d="M508 739C519 793 546 835 589 862C630 888 698 899 793 898C820 897 849 891 878 879C890 873 897 865 899 858C900 851 889 842 868 826C832 798 802 767 777 736C768 725 760 722 761 728C763 763 778 797 781 834C781 843 761 847 736 848C662 849 609 834 578 807C563 794 553 776 547 755C542 740 536 732 529 729C520 725 514 723 510 726C507 727 506 731 508 739Z"/>
<path id="z31319d16" d="M617 697C640 720 658 740 680 749C688 752 695 746 700 739C703 732 704 724 702 715C698 702 691 690 681 685C645 665 619 660 605 665C602 665 601 669 602 676C602 682 608 688 617 697Z"/>
<path id="z31319d17" d="M799 673C831 693 866 719 905 751C916 760 925 766 936 767C940 767 944 763 948 757C953 747 950 732 940 708C930 686 905 669 861 659C832 652 810 648 796 646C789 644 786 646 787 654C787 662 791 668 799 673Z"/>
<defs>
	<clipPath id="z31319c1"><use href="#z31319d1"/></clipPath>
	<clipPath id="z31319c2"><use href="#z31319d2"/></clipPath>
	<clipPath id="z31319c3"><use href="#z31319d3"/></clipPath>
	<clipPath id="z31319c4"><use href="#z31319d4"/></clipPath>
	<clipPath id="z31319c5"><use href="#z31319d5"/></clipPath>
	<clipPath id="z31319c6"><use href="#z31319d6"/></clipPath>
	<clipPath id="z31319c7"><use href="#z31319d7"/></clipPath>
	<clipPath id="z31319c8"><use href="#z31319d8"/></clipPath>
	<clipPath id="z31319c9"><use href="#z31319d9"/></clipPath>
	<clipPath id="z31319c10"><use href="#z31319d10"/></clipPath>
	<clipPath id="z31319c11"><use href="#z31319d11"/></clipPath>
	<clipPath id="z31319c12"><use href="#z31319d12"/></clipPath>
	<clipPath id="z31319c13"><use href="#z31319d13"/></clipPath>
	<clipPath id="z31319c14"><use href="#z31319d14"/></clipPath>
	<clipPath id="z31319c15"><use href="#z31319d15"/></clipPath>
	<clipPath id="z31319c16"><use href="#z31319d16"/></clipPath>
	<clipPath id="z31319c17"><use href="#z31319d17"/></clipPath>
<marker id="guide-arrow" viewBox="0 0 16 16" refX="5" refY="5" markerWidth="4" markerHeight="4" orient="auto-start-reverse"><path d="M 0 0 L 10 5 L 0 10 z" fill="inherit"/></marker></defs>
<path style="--d:1s;" pathLength="3333" clip-path="url(#z31319c1)" d="M334 143L377 181L161 301"/>
<path style="--d:2s;" pathLength="3333" clip-path="url(#z31319c2)" d="M86 447L145 452L423 387"/>
<path style="--d:3s;" pathLength="3333" clip-path="url(#z31319c3)" d="M280 254L312 301L299 898"/>
<path style="--d:4s;" pathLength="3333" clip-path="url(#z31319c4)" d="M290 420L227 559L60 744"/>
<path style="--d:5s;" pathLength="3333" clip-path="url(#z31319c5)" d="M327 490L417 567"/>
<path style="--d:6s;" pathLength="3333" clip-path="url(#z31319c6)" d="M500 226L775 180"/>
<path style="--d:7s;" pathLength="3333" clip-path="url(#z31319c7)" d="M446 332L478 359L520 536"/>
<path style="--d:8s;" pathLength="3333" clip-path="url(#z31319c8)" d="M489 339L773 296L798 321L742 500"/>
<path style="--d:9s;" pathLength="3333" clip-path="url(#z31319c9)" d="M551 417L705 386"/>
<path style="--d:10s;" pathLength="3333" clip-path="url(#z31319c10)" d="M533 503L725 467"/>
<path style="--d:11s;" pathLength="3333" clip-path="url(#z31319c11)" d="M581 78L638 127L630 585"/>
<path style="--d:12s;" pathLength="3333" clip-path="url(#z31319c12)" d="M464 617L517 631L735 565"/>
<path style="--d:13s;" pathLength="3333" clip-path="url(#z31319c13)" d="M723 524L790 605"/>
<path style="--d:14s;" pathLength="3333" clip-path="url(#z31319c14)" d="M436 706L394 866"/>
<path style="--d:15s;" pathLength="3333" clip-path="url(#z31319c15)" d="M515 732L585 836L723 872L844 850L765 735"/>
<path style="--d:16s;" pathLength="3333" clip-path="url(#z31319c16)" d="M609 672L695 742"/>
<path style="--d:17s;" pathLength="3333" clip-path="url(#z31319c17)" d="M793 654L891 701L941 760"/>
<g class="guides"><circle style="--d: 1s" class="g1" cx="334" cy="143" r="16"/><path style="--d: 1s;" class="g1" d="M238,143 Q261.8888888888889,162 246.8888888888889,169.5 Q156.88888888888889,214.5 141.88888888888889,222"/><circle style="--d: 2s" class="g2" cx="86" cy="447" r="16"/><path style="--d: 2s;" class="g2" d="M86,543 Q145,548 179.75,539.875 Q388.25,491.125 423,483"/><circle style="--d: 3s" class="g3" cx="280" cy="254" r="16"/><path style="--d: 3s;" class="g3" d="M184,254 Q216,301 214.375,375.625 Q204.625,823.375 203,898"/><circle style="--d: 4s" class="g4" cx="290" cy="420" r="16"/><path style="--d: 4s;" class="g4" d="M194,420 Q162.5,517.8148148148148 152.0625,534.0879629629629 Q89.4375,631.7268518518518 79,648"/><circle style="--d: 5s" class="g5" cx="327" cy="490" r="16"/><path style="--d: 5s;" class="g5" d="M412.68,421.456 L502.68,498.456"/><circle style="--d: 6s" class="g6" cx="500" cy="226" r="16"/><path style="--d: 6s;" class="g6" d="M500,322 L775,276"/><circle style="--d: 7s" class="g7" cx="462" cy="346" r="16"/><path style="--d: 7s;" class="g7" d="M582,346 L640,536"/><circle style="--d: 8s" class="g8" cx="489" cy="339" r="16"/><path style="--d: 8s;" class="g8" d="M489,435 Q662.7087378640776,392 666.5315533980582,398.25 Q678,417 669.4368932038835,437.75 Q652.3106796116505,479.25 643.747572815534,500"/><circle style="--d: 9s" class="g9" cx="551" cy="417" r="16"/><path style="--d: 9s;" class="g9" d="M551,513 L705,482"/><circle style="--d: 10s" class="g10" cx="533" cy="503" r="16"/><path style="--d: 10s;" class="g10" d="M533,599 L725,563"/><circle style="--d: 11s" class="g11" cx="581" cy="78" r="16"/><path style="--d: 11s;" class="g11" d="M485,78 Q542,127 541,184.25 Q535,527.75 534,585"/><circle style="--d: 12s" class="g12" cx="464" cy="617" r="16"/><path style="--d: 12s;" class="g12" d="M464,713 Q517,727 544.25,718.75 Q707.75,669.25 735,661"/><circle style="--d: 13s" class="g13" cx="723" cy="524" r="16"/><path style="--d: 13s;" class="g13" d="M808.68,455.456 L875.68,536.456"/><circle style="--d: 14s" class="g14" cx="436" cy="706" r="16"/><path style="--d: 14s;" class="g14" d="M556,706 L514,866"/><circle style="--d: 15s" class="g15" cx="515" cy="732" r="16"/><path style="--d: 15s;" class="g15" d="M446.456,800.544 Q579.2406808510639,904.544 710.1284376899696,922.544 Q841.0161945288754,940.544 955.7800972644377,929.544 Q1070.5439999999999,918.544 995.6155015197568,861.044 Q995.6155015197568,861.044 920.6870030395137,803.544"/><circle style="--d: 16s" class="g16" cx="609" cy="672" r="16"/><path style="--d: 16s;" class="g16" d="M694.68,603.456 L780.68,673.456"/><circle style="--d: 17s" class="g17" cx="793" cy="654" r="16"/><path style="--d: 17s;" class="g17" d="M878.68,585.456 Q976.68,632.456 982.93,639.831 Q1020.4300000000001,684.081 1026.68,691.456"/></g></svg>