<!--
  Stroke-order data for 穣, derived from AnimCJK (https://github.com/parsimonhi/animCJK),
  itself derived from the Arphic PL KaitiM fonts. Distributed under the Arphic Public License
  (see ARPHICPL.TXT). Regenerated by scripts/build-strokes.ts — do not edit by hand.
-->
<svg id="z31331" class="acjk" viewBox="0 0 1024 1024" xmlns="http://www.w3.org/2000/svg">
<g class="glyph"><path id="z31331d1" d="M297 234C351 214 386 196 423 186C433 183 440 182 443 176C445 169 443 161 434 155C419 144 397 135 368 125C357 121 347 117 340 120C334 121 331 127 332 135C333 161 273 200 156 264C150 267 153 275 158 276C171 277 228 258 266 245C287 238 287 238 297 234Z"/><path id="z31331d2" d="M325 409C345 402 368 396 392 390C402 387 408 383 408 379C408 370 401 363 389 359C364 350 345 356 327 363C296 373 296 373 281 378C180 410 107 431 61 441C52 442 46 446 46 452C44 458 49 466 60 472C89 488 116 488 141 477C211 443 255 430 270 426C307 415 307 415 325 409Z"/><path id="z31331d3" d="M278 516C274 664 256 777 247 808C238 835 249 867 272 902C280 914 285 924 292 927C299 929 306 923 310 914C318 891 320 869 320 848C317 724 314 609 321 505C322 494 322 494 322 488C323 470 323 443 325 409C326 378 326 378 327 363C328 326 331 298 336 279C337 270 336 264 331 260C318 249 307 240 297 234C288 228 260 236 266 245C276 261 282 305 281 378C279 470 279 470 278 516Z"/><path id="z31331d4" d="M270 426C238 506 169 609 70 739C65 744 69 749 76 750C80 750 84 747 91 742C164 681 227 606 278 516C323 442 302 346 270 426Z"/><path id="z31331d5" d="M321 505C355 539 382 555 402 553C408 552 414 547 415 537C415 530 411 522 404 513C390 496 363 487 325 487C323 487 322 487 322 488C316 489 317 501 321 505Z"/><path id="z31331d6" d="M596 112C637 134 662 147 674 145C680 143 684 137 685 128C685 118 680 104 670 88C660 73 630 67 580 69C569 69 562 70 559 73C556 75 556 81 560 89C563 95 576 101 596 112Z"/><path id="z31331d7" d="M401 225C390 227 389 232 398 241C413 255 439 258 473 248C593 212 720 193 854 193C855 193 855 193 856 193C866 193 873 189 876 184C878 177 875 170 866 164C836 143 802 139 763 150C681 171 560 195 401 225Z"/><path id="z31331d8" d="M508 292C502 302 470 344 416 417C410 424 416 430 424 425C463 398 487 377 535 337C548 327 562 314 580 303C589 296 591 290 585 284C577 276 560 264 546 259C532 254 523 253 517 255C511 256 509 258 512 265C515 273 513 282 508 292Z"/><path id="z31331d9" d="M707 252C741 275 778 304 818 341C829 351 839 357 848 359C852 359 856 356 862 351C868 343 867 328 859 304C848 274 797 250 706 227C699 225 696 225 696 233C695 241 699 247 707 252Z"/><path id="z31331d10" d="M721 425C755 418 786 412 815 410C819 409 830 409 830 401C828 388 814 379 796 376C785 374 764 378 728 388C692 398 692 398 674 403C648 410 620 418 597 422C564 427 564 427 548 430C523 434 497 435 471 440C456 442 454 448 466 457C476 465 490 468 508 469C521 470 544 463 554 461C581 455 581 455 595 452C617 447 644 439 674 434C705 428 705 428 721 425Z"/><path id="z31331d11" d="M597 422C597 421 597 420 598 419C600 407 597 397 589 390C577 379 563 371 550 367C543 364 537 364 532 368C528 370 527 376 531 385C537 398 544 413 548 430C552 451 552 451 554 461C556 472 556 488 558 511C559 533 559 533 560 544C561 560 562 578 564 599C566 610 597 603 597 592C596 572 595 553 595 537C595 514 595 514 595 502C595 485 593 468 595 452C596 432 596 432 597 422Z"/><path id="z31331d12" d="M702 569C704 549 707 530 710 513C713 486 713 486 715 472C717 455 718 439 721 425C726 400 726 400 728 388C729 380 732 374 735 369C736 364 733 356 723 348C707 336 692 330 680 328C672 326 665 326 662 331C657 335 657 342 661 349C668 362 674 379 674 403C674 424 674 424 674 434C674 450 674 466 674 482C673 507 673 507 673 520C672 538 671 556 670 576C670 587 700 580 702 569Z"/><path id="z31331d13" d="M710 513C738 507 765 501 792 498C806 496 810 491 805 484C798 474 787 468 773 465C759 462 740 465 715 472C688 479 688 479 674 482C646 488 619 496 595 502C570 508 570 508 558 511C531 517 506 521 482 528C472 530 473 535 486 544C496 551 511 553 532 550C540 548 549 546 560 544C583 539 583 539 595 537C621 531 647 524 673 520C698 515 698 515 710 513Z"/><path id="z31331d14" d="M563 627C593 619 695 603 870 586C880 585 886 582 888 578C890 572 888 565 879 559C848 537 817 536 785 547C760 554 733 562 702 569C681 574 681 574 670 576C655 579 607 589 597 592C575 597 575 597 564 599C513 609 460 620 404 631C393 633 392 636 401 645C407 652 416 657 426 659C436 661 446 660 454 658C478 648 505 640 533 634C553 629 553 629 563 627Z"/><path id="z31331d15" d="M590 642C583 635 575 631 563 627C553 623 536 624 533 634C518 694 491 730 358 813C345 821 346 824 362 824C422 824 496 764 523 737C544 716 544 716 555 705C569 690 586 675 597 664C602 659 596 647 590 642Z"/><path id="z31331d16" d="M523 737C539 791 535 840 510 884C491 912 497 941 527 970C536 977 545 973 553 961C571 935 611 889 673 824C683 814 689 807 690 802C690 792 684 792 672 800C613 836 581 853 575 852C571 849 569 842 569 830C573 787 576 760 579 750C581 737 581 722 555 705C542 697 520 722 523 737Z"/><path id="z31331d17" d="M747 747C791 717 825 696 849 688C859 684 863 681 862 675C859 665 852 654 842 642C832 630 820 623 808 622C799 621 794 627 795 639C795 651 775 684 733 737C729 741 742 750 747 747Z"/><path id="z31331d18" d="M733 737C706 718 684 694 660 671C637 649 616 636 590 642C582 643 590 660 597 664C623 679 658 719 712 778C775 849 813 884 836 885C884 887 907 876 948 869C967 865 977 860 975 855C973 849 945 843 894 828C819 806 790 777 747 747C738 740 738 740 733 737Z"/></g>
<defs><clipPath id="z31331c1"><use href="#z31331d1"/></clipPath>
	<clipPath id="z31331c2"><use href="#z31331d2"/></clipPath>
	<clipPath id="z31331c3"><use href="#z31331d3"/></clipPath>
	<clipPath id="z31331c4"><use href="#z31331d4"/></clipPath>
	<clipPath id="z31331c5"><use href="#z31331d5"/></clipPath>
	<clipPath id="z31331c6"><use href="#z31331d6"/></clipPath>
	<clipPath id="z31331c7"><use href="#z31331d7"/></clipPath>
	<clipPath id="z31331c8"><use href="#z31331d8"/></clipPath>
	<clipPath id="z31331c9"><use href="#z31331d9"/></clipPath>
	<clipPath id="z31331c10"><use href="#z31331d10"/></clipPath>
	<clipPath id="z31331c11"><use href="#z31331d11"/></clipPath>
	<clipPath id="z31331c12"><use href="#z31331d12"/></clipPath>
	<clipPath id="z31331c13"><use href="#z31331d13"/></clipPath>
	<clipPath id="z31331c14"><use href="#z31331d14"/></clipPath>
	<clipPath id="z31331c15"><use href="#z31331d15"/></clipPath>
	<clipPath id="z31331c16"><use href="#z31331d16"/></clipPath>
	<clipPath id="z31331c17"><use href="#z31331d17"/></clipPath>
	<clipPath id="z31331c18"><use href="#z31331d18"/></clipPath><marker id="guide-arrow" viewBox="0 0 16 16" refX="5" refY="5" markerWidth="4" markerHeight="4" orient="auto-start-reverse"><path d="M 0 0 L 10 5 L 0 10 z" fill="inherit"/></marker></defs>
<g class="strokes"><path pathLength="3333" clip-path="url(#z31331c1)" d="M342 134L374 167L163 270"/><path pathLength="3333" clip-path="url(#z31331c2)" d="M53 454L113 457L355 376L403 378"/><path pathLength="3333" clip-path="url(#z31331c3)" d="M276 249L307 282L287 920"/><path pathLength="3333" clip-path="url(#z31331c4)" d="M274 432L220 568L74 743"/><path pathLength="3333" clip-path="url(#z31331c5)" d="M329 495L409 544"/><path pathLength="3333" clip-path="url(#z31331c6)" d="M563 80L682 130"/><path pathLength="3333" clip-path="url(#z31331c7)" d="M400 231L791 169L873 180"/><path pathLength="3333" clip-path="url(#z31331c8)" d="M520 262L541 296L422 418"/><path pathLength="3333" clip-path="url(#z31331c9)" d="M703 236L811 295L855 353"/><path pathLength="3333" clip-path="url(#z31331c10)" d="M469 449L823 398"/><path pathLength="3333" clip-path="url(#z31331c11)" d="M536 374L571 412L578 595"/><path pathLength="3333" clip-path="url(#z31331c12)" d="M666 337L703 373L678 570"/><path pathLength="3333" clip-path="url(#z31331c13)" d="M482 534L800 484"/><path pathLength="3333" clip-path="url(#z31331c14)" d="M404 637L809 566L885 573"/><path pathLength="3333" clip-path="url(#z31331c15)" d="M542 640L556 670L440 780L363 817"/><path pathLength="3333" clip-path="url(#z31331c16)" d="M553 715L541 885L553 923L683 801"/><path pathLength="3333" clip-path="url(#z31331c17)" d="M807 626L823 671L740 737"/><path pathLength="3333" clip-path="url(#z31331c18)" d="M599 650L833 842L959 855"/></g>
<g class="guides"><text class="g1" style="--gs:1" x="342" y="134">①</text><path class="g1 aligned" style="--gs:1" d="M342,134 Q374,167 347.63,179.88 Q189.38,257.13 163,270"/><path class="g1 offset" style="--gs:1" d="M246,134 Q263.44,150.5 249.07,156.94 Q162.82,195.56 148.44,202"/><text class="g2" style="--gs:2" x="53" y="454">②</text><path class="g2 aligned" style="--gs:2" d="M53,454 Q113,457 173.5,436.75 Q355,376 367,376.5 Q391,377.5 403,378"/><path class="g2 offset" style="--gs:2" d="M53,550 Q113,553 173.5,532.75 Q355,472 367,472.5 Q391,473.5 403,474"/><text class="g3" style="--gs:3" x="276" y="249">③</text><path class="g3 aligned" style="--gs:3" d="M276,249 Q307,282 304.5,361.75 Q289.5,840.25 287,920"/><path class="g3 offset" style="--gs:3" d="M180,249 Q211,282 208.5,361.75 Q193.5,840.25 191,920"/><text class="g4" style="--gs:4" x="274" y="432">④</text><path class="g4 aligned" style="--gs:4" d="M274,432 Q220,568 201.75,589.88 Q92.25,721.13 74,743"/><path class="g4 offset" style="--gs:4" d="M178,432 Q151,526.02 141.88,541.14 Q87.13,631.88 78,647"/><text class="g5" style="--gs:5" x="329" y="495">⑤</text><path class="g5 aligned" style="--gs:5" d="M329,495 L409,544"/><path class="g5 offset" style="--gs:5" d="M414.68,426.46 L494.68,475.46"/><text class="g6" style="--gs:6" x="563" y="80">⑥</text><path class="g6 aligned" style="--gs:6" d="M563,80 L682,130"/><path class="g6 offset" style="--gs:6" d="M563,176 L682,226"/><text class="g7" style="--gs:7" x="400" y="231">⑦</text><path class="g7 aligned" style="--gs:7" d="M400,231 Q791,169 801.25,170.38 Q862.75,178.63 873,180"/><path class="g7 offset" style="--gs:7" d="M400,327 Q791,265 801.25,266.38 Q862.75,274.63 873,276"/><text class="g8" style="--gs:8" x="520" y="262">⑧</text><path class="g8 aligned" style="--gs:8" d="M531,279 L422,418"/><path class="g8 offset" style="--gs:8" d="M616.68,347.54 L507.68,486.54"/><text class="g9" style="--gs:9" x="703" y="236">⑨</text><path class="g9 aligned" style="--gs:9" d="M703,236 Q811,295 816.5,302.25 Q849.5,345.75 855,353"/><path class="g9 offset" style="--gs:9" d="M788.68,167.46 Q896.68,226.46 902.18,233.71 Q935.18,277.21 940.68,284.46"/><text class="g10" style="--gs:10" x="469" y="449">⑩</text><path class="g10 aligned" style="--gs:10" d="M469,449 L823,398"/><path class="g10 offset" style="--gs:10" d="M469,545 L823,494"/><text class="g11" style="--gs:11" x="536" y="374">⑪</text><path class="g11 aligned" style="--gs:11" d="M536,374 Q571,412 571.88,434.88 Q577.13,572.13 578,595"/><path class="g11 offset" style="--gs:11" d="M621.68,305.46 Q656.68,343.46 657.56,366.33 Q662.81,503.58 663.68,526.46"/><text class="g12" style="--gs:12" x="666" y="337">⑫</text><path class="g12 aligned" style="--gs:12" d="M666,337 Q703,373 699.88,397.63 Q681.13,545.38 678,570"/><path class="g12 offset" style="--gs:12" d="M570,337 Q607,373 603.88,397.63 Q585.13,545.38 582,570"/><text class="g13" style="--gs:13" x="482" y="534">⑬</text><path class="g13 aligned" style="--gs:13" d="M482,534 L800,484"/><path class="g13 offset" style="--gs:13" d="M482,630 L800,580"/><text class="g14" style="--gs:14" x="404" y="637">⑭</text><path class="g14 aligned" style="--gs:14" d="M404,637 Q809,566 818.5,566.88 Q875.5,572.13 885,573"/><path class="g14 offset" style="--gs:14" d="M404,733 Q809,662 818.5,662.88 Q875.5,668.13 885,669"/><text class="g15" style="--gs:15" x="542" y="640">⑮</text><path class="g15 aligned" style="--gs:15" d="M549,655 Q440,780 430.38,784.63 Q372.63,812.38 363,817"/><path class="g15 offset" style="--gs:15" d="M634.68,723.54 Q525.68,848.54 516.05,853.17 Q458.31,880.92 448.68,885.54"/><text class="g16" style="--gs:16" x="553" y="715">⑯</text><path class="g16 aligned" style="--gs:16" d="M553,715 Q541,885 544,894.5 Q553,923 585.5,892.5 Q650.5,831.5 683,801"/><path class="g16 offset" style="--gs:16" d="M457,715 Q451,806.54 452.5,811.65 Q457,827 473.25,810.58 Q505.75,777.73 522,761.31"/><text class="g17" style="--gs:17" x="807" y="626">⑰</text><path class="g17 aligned" style="--gs:17" d="M807,626 Q823,671 812.63,679.25 Q750.38,728.75 740,737"/><path class="g17 offset" style="--gs:17" d="M711,626 Q719,648.5 713.81,652.63 Q682.69,677.38 677.5,681.5"/><text class="g18" style="--gs:18" x="599" y="650">⑱</text><path class="g18 aligned" style="--gs:18" d="M599,650 Q833,842 848.75,843.63 Q943.25,853.38 959,855"/><path class="g18 offset" style="--gs:18" d="M684.68,581.46 Q862.99,747.74 874.99,749.15 Q947,757.59 959,759"/></g>
</svg>
