<!--
  Stroke-order data for 究, derived from AnimCJK (https://github.com/parsimonhi/animCJK),
  itself derived from the Arphic PL KaitiM fonts. Distributed under the Arphic Public License
  (see ARPHICPL.TXT). Regenerated by scripts/build-strokes.ts — do not edit by hand.
-->
<svg id="z31350" class="acjk" viewBox="0 0 1024 1024" xmlns="http://www.w3.org/2000/svg">
<g class="glyph"><path style="--part:1" id="z31350d1" d="M466 106C487 120 507 138 529 157C539 166 551 169 563 169C571 168 577 162 580 152C582 140 579 123 572 101C567 87 553 73 529 67C473 51 440 48 432 53C427 55 426 62 429 72C431 80 444 91 466 106Z"/><path style="--part:1" id="z31350d2" d="M278 241C271 224 263 213 256 207C243 196 234 199 234 218C232 244 220 274 187 305C160 329 152 362 171 409C178 429 192 429 209 410C222 393 233 372 244 347C256 316 271 280 278 272C283 263 282 251 278 241Z"/><path style="--part:1" id="z31350d3" d="M278 272C294 280 319 282 353 273C450 246 565 226 699 218C707 217 715 215 721 219C732 225 733 233 732 239C722 265 717 284 706 318C698 342 713 332 731 323C770 300 803 282 834 274C858 266 871 259 871 254C870 247 844 225 794 188C777 176 740 177 681 186C614 195 513 207 378 229C344 234 310 237 278 241C268 243 268 268 278 272Z"/><path style="--part:1" id="z31350d4" d="M393 275C394 283 392 296 390 305C380 332 341 388 263 461C259 464 254 466 252 470C249 474 251 480 258 478C318 451 397 381 419 363C444 341 455 337 454 319C453 308 446 296 434 281C423 268 413 262 404 261C395 260 390 265 393 275Z"/><path style="--part:1" id="z31350d5" d="M560 244C559 252 564 278 564 325C564 380 584 418 630 431C659 439 706 432 746 426C766 422 778 417 784 412C791 406 791 399 787 395C779 387 766 378 749 372C737 367 729 369 721 377C709 387 677 391 664 391C644 391 626 385 617 370C607 354 606 341 606 324C606 305 612 293 620 281C626 271 624 261 617 254C610 246 602 242 596 239C566 222 561 233 560 244Z"/><path style="--part:2" id="z31350d6" d="M407 578C382 699 309 799 190 868C179 874 168 881 157 888C148 893 147 899 155 900C194 905 244 883 305 839C329 820 361 789 395 740C421 701 443 640 468 562C477 535 477 535 481 521C484 508 491 497 498 487C505 475 502 466 494 459C464 433 441 421 423 426C414 427 410 434 414 445C421 466 423 496 415 538C410 565 410 565 407 578Z"/><path style="--part:2" id="z31350d7" d="M468 562C528 546 564 542 578 550C587 555 591 566 586 584C541 722 539 819 589 873C629 916 705 933 813 924C871 919 916 906 950 894C971 885 978 876 970 860C949 819 936 768 924 708C921 695 915 687 910 685C904 682 900 686 899 698C892 768 879 812 862 834C854 843 836 852 804 859C720 874 660 871 631 844C611 825 602 797 600 765C597 734 603 696 619 651C633 608 652 580 675 566C696 552 694 538 674 524C659 514 646 503 632 494C616 483 602 485 589 492C575 498 538 506 481 521C437 532 437 532 415 538C336 558 280 568 246 572C233 573 226 578 225 589C224 595 235 603 258 613C278 621 304 620 334 606C355 596 378 585 407 578C448 567 448 567 468 562Z"/></g>
<defs><clipPath id="z31350c1"><use href="#z31350d1"/></clipPath>
	<clipPath id="z31350c2"><use href="#z31350d2"/></clipPath>
	<clipPath id="z31350c3"><use href="#z31350d3"/></clipPath>
	<clipPath id="z31350c4"><use href="#z31350d4"/></clipPath>
	<clipPath id="z31350c5"><use href="#z31350d5"/></clipPath>
	<clipPath id="z31350c6"><use href="#z31350d6"/></clipPath>
	<clipPath id="z31350c7"><use href="#z31350d7"/></clipPath><marker id="guide-arrow" viewBox="0 0 16 16" refX="5" refY="5" markerWidth="4" markerHeight="4" orient="auto-start-reverse"><path d="M 0 0 L 10 5 L 0 10 z" fill="inherit"/></marker></defs>
<g class="strokes"><path style="--part:1" pathLength="3333" clip-path="url(#z31350c1)" d="M435 62L527 106L574 159"/><path style="--part:1" pathLength="3333" clip-path="url(#z31350c2)" d="M244 207L253 254L197 356L187 420"/><path style="--part:1" pathLength="3333" clip-path="url(#z31350c3)" d="M284 251L746 202L817 263L714 325"/><path style="--part:1" pathLength="3333" clip-path="url(#z31350c4)" d="M402 267L419 313L381 372L259 472"/><path style="--part:1" pathLength="3333" clip-path="url(#z31350c5)" d="M566 238L592 261L586 337L605 408L784 404"/><path style="--part:2" pathLength="3333" clip-path="url(#z31350c6)" d="M419 431L461 481L378 721L275 837L156 893"/><path style="--part:2" pathLength="3333" clip-path="url(#z31350c7)" d="M232 590L609 524L638 557L588 666L580 799L613 861L695 894L851 884L927 849L905 692"/></g>
<g class="guides"><text class="g1" style="--gs:1" x="435" y="62">①</text><path class="g1 aligned" style="--gs:1" d="M435,62 Q527,106 532.88,112.63 Q568.13,152.38 574,159"/><path class="g1 offset" style="--gs:1" d="M520.68,-6.54 Q612.68,37.46 618.55,44.08 Q653.8,83.83 659.68,90.46"/><text class="g2" style="--gs:2" x="244" y="207">②</text><path class="g2 aligned" style="--gs:2" d="M244,207 Q253,254 239,279.5 Q197,356 194.5,372 Q189.5,404 187,420"/><path class="g2 offset" style="--gs:2" d="M364,207 Q373,254 359,279.5 Q317,356 314.5,372 Q309.5,404 307,420"/><text class="g3" style="--gs:3" x="284" y="251">③</text><path class="g3 aligned" style="--gs:3" d="M284,251 Q746,202 763.75,217.25 Q817,263 791.25,278.5 Q739.75,309.5 714,325"/><path class="g3 offset" style="--gs:3" d="M284,347 Q615.11,298 627.84,313.25 Q666,359 647.55,374.5 Q610.64,405.5 592.18,421"/><text class="g4" style="--gs:4" x="402" y="267">④</text><path class="g4 aligned" style="--gs:4" d="M402,267 Q419,313 409.5,327.75 Q381,372 350.5,397 Q289.5,447 259,472"/><path class="g4 offset" style="--gs:4" d="M306,267 Q314.5,291.46 309.75,299.3 Q295.5,322.83 280.25,336.12 Q249.75,362.71 234.5,376"/><text class="g5" style="--gs:5" x="566" y="238">⑤</text><path class="g5 aligned" style="--gs:5" d="M579,250 Q586,337 590.75,354.75 Q605,408 649.75,407 Q739.25,405 784,404"/><path class="g5 offset" style="--gs:5" d="M699,250 Q702.5,293.5 704.88,302.38 Q712,329 734.38,328.5 Q779.13,327.5 801.5,327"/><text class="g6" style="--gs:6" x="419" y="431">⑥</text><path class="g6 aligned" style="--gs:6" d="M419,431 Q461,481 419.5,601 Q378,721 326.5,779 Q275,837 215.5,865 Q215.5,865 156,893"/><path class="g6 offset" style="--gs:6" d="M323,431 Q351.78,470.61 323.34,565.68 Q294.9,660.74 259.61,706.69 Q224.32,752.64 183.55,774.82 Q183.55,774.82 142.78,797"/><text class="g7" style="--gs:7" x="232" y="590">⑦</text><path class="g7 aligned" style="--gs:7" d="M232,590 Q609,524 623.5,540.5 Q638,557 613,611.5 Q588,666 584,732.5 Q580,799 596.5,830 Q613,861 654,877.5 Q695,894 773,889 Q851,884 889,866.5 Q927,849 916,770.5 Q916,770.5 905,692"/><path class="g7 offset" style="--gs:7" d="M232,686 Q543.91,620 555.9,636.5 Q567.9,653 547.22,689.08 Q526.53,725.16 523.22,774.4 Q519.91,823.65 533.56,846.61 Q547.22,869.56 581.14,881.78 Q615.06,894 679.59,890.3 Q744.12,886.59 775.56,873.64 Q807,860.68 797.9,802.54 Q797.9,802.54 788.8,744.41"/></g>
<g class="parts"><rect data-part="2" data-literal="九" role="button" tabindex="0" aria-label="Part 九" x="84" y="359" width="915" height="607"/><rect data-part="1" data-literal="穴" data-radical="true" role="button" tabindex="0" aria-label="Part 穴 (radical)" x="115" y="0" width="774" height="544"/></g>
</svg>
