<!--
  Stroke-order data for 突, derived from AnimCJK (https://github.com/parsimonhi/animCJK),
  itself derived from the Arphic PL KaitiM fonts. Distributed under the Arphic Public License
  (see ARPHICPL.TXT). Regenerated by scripts/build-strokes.ts — do not edit by hand.
-->
<svg id="z31361" class="acjk" viewBox="0 0 1024 1024" xmlns="http://www.w3.org/2000/svg">
<g class="glyph"><path id="z31361d1" d="M462 116C484 130 508 147 533 165C544 173 556 176 569 174C576 172 581 167 584 156C586 143 582 127 572 106C565 92 550 79 525 73C501 66 475 64 448 62C436 60 428 62 424 65C420 67 418 74 422 84C425 92 440 102 462 116Z"/><path id="z31361d2" d="M267 254C260 241 254 232 248 227C235 216 226 220 226 239C224 267 201 305 177 326C158 341 152 366 175 417C183 436 200 437 213 417C239 374 257 328 273 284C277 275 272 263 267 254Z"/><path id="z31361d3" d="M273 284C289 292 309 295 334 289C418 265 536 243 688 229C716 226 735 223 745 227C756 231 759 238 759 243C758 245 747 270 723 317C708 344 724 340 746 329C785 307 819 291 850 284C876 277 888 271 888 265C887 258 863 236 816 198C799 184 772 184 732 189C548 208 407 234 267 254C257 256 264 280 273 284Z"/><path id="z31361d4" d="M387 310C378 348 348 388 267 462C244 482 255 484 279 472C319 452 380 410 417 380C467 337 478 340 436 292C425 279 415 270 406 271C383 272 390 294 387 310Z"/><path id="z31361d5" d="M565 254C564 263 571 310 572 360C572 397 595 421 645 428C673 431 714 427 749 423C778 418 811 403 792 385C776 370 761 370 741 373C723 376 694 383 674 387C641 392 613 388 613 355C612 335 619 306 628 293C634 283 631 273 624 266C616 259 607 253 602 250C571 233 566 244 565 254Z"/><path id="z31361d6" d="M519 609C566 603 648 602 762 601C776 600 784 597 787 592C791 584 787 574 776 566C738 536 702 531 667 540C625 550 573 558 513 568C472 575 472 575 452 578C377 590 297 599 212 610C198 611 196 617 207 629C215 637 226 644 239 648C253 652 265 651 276 649C328 633 385 625 446 618C495 612 495 612 519 609Z"/><path id="z31361d7" d="M513 568C521 529 524 514 531 495C538 470 517 461 495 453C470 444 455 441 444 446C435 449 436 456 442 470C455 503 457 540 452 578C450 591 449 604 446 618C408 757 291 836 169 893C150 901 152 907 174 907C327 904 462 766 499 629C504 608 508 588 513 568Z"/><path id="z31361d8" d="M499 629C569 724 640 820 705 896C718 911 737 917 760 916C836 911 887 908 912 903C918 901 923 898 925 895C926 891 920 885 909 881C806 839 738 808 707 783C648 736 586 678 519 609C506 596 488 615 499 629Z"/></g>
<defs><clipPath id="z31361c1"><use href="#z31361d1"/></clipPath>
	<clipPath id="z31361c2"><use href="#z31361d2"/></clipPath>
	<clipPath id="z31361c3"><use href="#z31361d3"/></clipPath>
	<clipPath id="z31361c4"><use href="#z31361d4"/></clipPath>
	<clipPath id="z31361c5"><use href="#z31361d5"/></clipPath>
	<clipPath id="z31361c6"><use href="#z31361d6"/></clipPath>
	<clipPath id="z31361c7"><use href="#z31361d7"/></clipPath>
	<clipPath id="z31361c8"><use href="#z31361d8"/></clipPath><marker id="guide-arrow" viewBox="0 0 16 16" refX="5" refY="5" markerWidth="4" markerHeight="4" orient="auto-start-reverse"><path d="M 0 0 L 10 5 L 0 10 z" fill="inherit"/></marker></defs>
<g class="strokes"><path pathLength="3333" clip-path="url(#z31361c1)" d="M427 70L523 111L577 164"/><path pathLength="3333" clip-path="url(#z31361c2)" d="M235 229L245 276L184 424"/><path pathLength="3333" clip-path="url(#z31361c3)" d="M267 261L751 206L798 229L835 277L726 331"/><path pathLength="3333" clip-path="url(#z31361c4)" d="M402 274L416 340L264 474"/><path pathLength="3333" clip-path="url(#z31361c5)" d="M572 249L599 290L593 365L612 397L793 392"/><path pathLength="3333" clip-path="url(#z31361c6)" d="M208 618L263 627L684 569L783 581"/><path pathLength="3333" clip-path="url(#z31361c7)" d="M445 452L491 497L434 713L320 834L162 899"/><path pathLength="3333" clip-path="url(#z31361c8)" d="M506 611L739 860L917 895"/></g>
<g class="guides"><text class="g1" style="--gs:1" x="427" y="70">①</text><path class="g1 aligned" style="--gs:1" d="M427,70 Q523,111 529.75,117.63 Q570.25,157.38 577,164"/><path class="g1 offset" style="--gs:1" d="M512.68,1.46 Q608.68,42.46 615.43,49.08 Q655.93,88.83 662.68,95.46"/><text class="g2" style="--gs:2" x="235" y="229">②</text><path class="g2 aligned" style="--gs:2" d="M235,229 Q245,276 237.38,294.5 Q191.63,405.5 184,424"/><path class="g2 offset" style="--gs:2" d="M355,229 Q365,276 357.38,294.5 Q311.63,405.5 304,424"/><text class="g3" style="--gs:3" x="267" y="261">③</text><path class="g3 aligned" style="--gs:3" d="M267,261 Q751,206 774.5,217.5 Q798,229 816.5,253 Q835,277 780.5,304 Q780.5,304 726,331"/><path class="g3 offset" style="--gs:3" d="M267,357 Q617.22,302 634.22,313.5 Q651.23,325 664.61,349 Q678,373 638.56,400 Q638.56,400 599.13,427"/><text class="g4" style="--gs:4" x="402" y="274">④</text><path class="g4 aligned" style="--gs:4" d="M402,274 Q416,340 397,356.75 Q283,457.25 264,474"/><path class="g4 offset" style="--gs:4" d="M306,274 Q313,308.32 303.5,317.03 Q246.5,369.29 237,378"/><text class="g5" style="--gs:5" x="572" y="249">⑤</text><path class="g5 aligned" style="--gs:5" d="M572,249 Q599,290 596,327.5 Q593,365 602.5,381 Q612,397 702.5,394.5 Q702.5,394.5 793,392"/><path class="g5 offset" style="--gs:5" d="M657.68,180.46 Q674.21,213.85 672.38,244.39 Q670.54,274.94 676.36,287.97 Q682.17,301 737.59,298.96 Q737.59,298.96 793,296.93"/><text class="g6" style="--gs:6" x="208" y="618">⑥</text><path class="g6 aligned" style="--gs:6" d="M208,618 Q263,627 368.25,612.5 Q684,569 708.75,572 Q758.25,578 783,581"/><path class="g6 offset" style="--gs:6" d="M208,714 Q263,723 368.25,708.5 Q684,665 708.75,668 Q758.25,674 783,677"/><text class="g7" style="--gs:7" x="445" y="452">⑦</text><path class="g7 aligned" style="--gs:7" d="M445,452 Q491,497 462.5,605 Q434,713 377,773.5 Q320,834 241,866.5 Q241,866.5 162,899"/><path class="g7 offset" style="--gs:7" d="M349,452 Q381.58,487.34 361.39,572.14 Q341.21,656.95 300.84,704.45 Q260.47,751.96 204.53,777.48 Q204.53,777.48 148.58,803"/><text class="g8" style="--gs:8" x="506" y="611">⑧</text><path class="g8 aligned" style="--gs:8" d="M506,611 Q739,860 761.25,864.38 Q894.75,890.63 917,895"/><path class="g8 offset" style="--gs:8" d="M591.68,542.46 Q776.11,767.38 793.72,771.34 Q899.39,795.05 917,799"/></g>
</svg>
