<!--
  Stroke-order data for 竟, derived from AnimCJK (https://github.com/parsimonhi/animCJK),
  itself derived from the Arphic PL KaitiM fonts. Distributed under the Arphic Public License
  (see ARPHICPL.TXT). Regenerated by scripts/build-strokes.ts — do not edit by hand.
-->
<svg id="z31455" class="acjk" viewBox="0 0 1024 1024" xmlns="http://www.w3.org/2000/svg">
<g class="glyph"><path id="z31455d1" d="M474 81Q516 118 557 137Q572 138 579 124Q583 111 579 95Q564 56 504 46Q462 40 456 44Q450 45 454 58Q457 68 474 81Z"/><path id="z31455d2" d="M615 194Q664 187 706 183Q716 184 724 173Q725 163 704 152Q673 128 610 149Q439 179 309 197Q281 200 302 217Q332 242 360 236Q456 217 586 197C605 195 605 195 615 194Z"/><path id="z31455d3" d="M376 303Q389 321 402 342Q412 355 426 356Q435 357 441 347Q448 335 444 308Q443 295 422 281Q371 254 360 257Q356 260 355 271Q356 281 376 303Z"/><path id="z31455d4" d="M587 346Q591 340 596 335Q612 316 631 290Q640 278 654 264Q670 254 662 241Q655 222 624 200Q620 196 615 194C606 190 588 187 586 197Q583 201 587 209Q594 234 556 331Q549 343 547 353C544 366 579 357 587 346Z"/><path id="z31455d5" d="M547 353Q528 354 510 358Q339 383 137 409Q115 412 131 429Q164 459 203 449Q473 370 890 370Q891 370 894 370Q915 370 920 361Q924 349 908 335Q856 296 814 304Q726 323 587 346C560 351 560 351 547 353Z"/><path id="z31455d6" d="M356 473Q344 467 316 464Q304 460 301 466Q294 472 303 488Q331 543 348 635Q352 663 368 681Q386 703 391 687Q391 686 392 684C395 676 394 667 394 658Q394 645 391 627Q387 608 385 590C382 573 382 573 381 565Q374 523 372 505C370 493 367 477 356 473Z"/><path id="z31455d7" d="M613 659Q619 672 632 671Q645 670 653 654Q663 641 683 576Q698 524 734 494Q753 478 736 462Q718 446 668 420Q656 413 589 427Q496 442 435 457Q390 467 356 473C344 475 361 509 372 505Q441 483 596 460Q624 456 634 462Q643 466 639 495Q624 600 612 625C608 636 608 649 613 659Z"/><path id="z31455d8" d="M385 590Q391 591 401 590Q501 575 574 567Q596 563 589 551Q579 538 555 532Q540 529 381 565C373 567 377 590 385 590Z"/><path id="z31455d9" d="M574 663Q593 660 613 659C624 659 623 627 612 625Q612 624 610 624Q594 621 394 658C385 660 383 684 392 684Q398 684 407 684C422 683 422 683 430 682Q482 673 529 668C559 665 559 665 574 663Z"/><path id="z31455d10" d="M407 684Q404 687 404 693Q397 783 287 858Q284 859 283 861Q255 885 183 920Q176 924 180 929Q202 942 289 905Q361 878 440 776Q453 760 467 745Q477 738 474 728Q465 703 430 682C423 678 410 677 407 684Z"/><path id="z31455d11" d="M942 871Q930 846 916 772Q916 756 909 750Q903 746 897 764Q863 843 844 867Q831 883 792 894Q699 918 630 892Q602 880 594 864Q576 827 597 702Q603 678 574 663C561 655 523 654 529 668Q544 699 543 751Q537 886 565 917Q589 941 642 958Q814 995 934 910Q953 897 942 871Z"/></g>
<defs><clipPath id="z31455c1"><use href="#z31455d1"/></clipPath>
	<clipPath id="z31455c2"><use href="#z31455d2"/></clipPath>
	<clipPath id="z31455c3"><use href="#z31455d3"/></clipPath>
	<clipPath id="z31455c4"><use href="#z31455d4"/></clipPath>
	<clipPath id="z31455c5"><use href="#z31455d5"/></clipPath>
	<clipPath id="z31455c6"><use href="#z31455d6"/></clipPath>
	<clipPath id="z31455c7"><use href="#z31455d7"/></clipPath>
	<clipPath id="z31455c8"><use href="#z31455d8"/></clipPath>
	<clipPath id="z31455c9"><use href="#z31455d9"/></clipPath>
	<clipPath id="z31455c10"><use href="#z31455d10"/></clipPath>
	<clipPath id="z31455c11"><use href="#z31455d11"/></clipPath><marker id="guide-arrow" viewBox="0 0 16 16" refX="5" refY="5" markerWidth="4" markerHeight="4" orient="auto-start-reverse"><path d="M 0 0 L 10 5 L 0 10 z" fill="inherit"/></marker></defs>
<g class="strokes"><path pathLength="3333" clip-path="url(#z31455c1)" d="M461 53L574 124"/><path pathLength="3333" clip-path="url(#z31455c2)" d="M304 208L658 163L717 172"/><path pathLength="3333" clip-path="url(#z31455c3)" d="M364 265L430 349"/><path pathLength="3333" clip-path="url(#z31455c4)" d="M594 199L624 249L555 354"/><path pathLength="3333" clip-path="url(#z31455c5)" d="M129 417L185 427L800 338L915 355"/><path pathLength="3333" clip-path="url(#z31455c6)" d="M306 470L341 502L386 688"/><path pathLength="3333" clip-path="url(#z31455c7)" d="M358 479L659 445L691 488L624 665"/><path pathLength="3333" clip-path="url(#z31455c8)" d="M380 577L584 556"/><path pathLength="3333" clip-path="url(#z31455c9)" d="M393 674L617 643"/><path pathLength="3333" clip-path="url(#z31455c10)" d="M415 683L436 728L377 812L281 887L187 924"/><path pathLength="3333" clip-path="url(#z31455c11)" d="M536 666L568 695L570 870L646 928L747 936L864 905L902 870L906 756"/></g>
<g class="guides"><text class="g1" style="--gs:1" x="461" y="53">①</text><path class="g1 aligned" style="--gs:1" d="M461,53 L574,124"/><path class="g1 offset" style="--gs:1" d="M546.68,-15.54 L659.68,55.46"/><text class="g2" style="--gs:2" x="304" y="208">②</text><path class="g2 aligned" style="--gs:2" d="M304,208 Q658,163 665.38,164.13 Q709.63,170.88 717,172"/><path class="g2 offset" style="--gs:2" d="M304,304 Q658,259 665.38,260.13 Q709.63,266.88 717,268"/><text class="g3" style="--gs:3" x="364" y="265">③</text><path class="g3 aligned" style="--gs:3" d="M364,265 L430,349"/><path class="g3 offset" style="--gs:3" d="M449.68,196.46 L515.68,280.46"/><text class="g4" style="--gs:4" x="594" y="199">④</text><path class="g4 aligned" style="--gs:4" d="M594,199 Q624,249 615.38,262.13 Q563.63,340.88 555,354"/><path class="g4 offset" style="--gs:4" d="M498,199 Q513,224 508.69,230.56 Q482.81,269.94 478.5,276.5"/><text class="g5" style="--gs:5" x="129" y="417">⑤</text><path class="g5 aligned" style="--gs:5" d="M129,417 Q185,427 338.75,404.75 Q800,338 828.75,342.25 Q886.25,350.75 915,355"/><path class="g5 offset" style="--gs:5" d="M129,513 Q185,523 338.75,500.75 Q800,434 828.75,438.25 Q886.25,446.75 915,451"/><text class="g6" style="--gs:6" x="306" y="470">⑥</text><path class="g6 aligned" style="--gs:6" d="M306,470 Q341,502 346.63,525.25 Q380.38,664.75 386,688"/><path class="g6 offset" style="--gs:6" d="M391.68,401.46 Q426.68,433.46 432.31,456.71 Q466.06,596.21 471.68,619.46"/><text class="g7" style="--gs:7" x="358" y="479">⑦</text><path class="g7 aligned" style="--gs:7" d="M358,479 Q659,445 667,455.75 Q691,488 674.25,532.25 Q640.75,620.75 624,665"/><path class="g7 offset" style="--gs:7" d="M358,575 Q550.53,541 555.65,547.06 Q571,565.24 560.29,590.18 Q538.86,640.06 528.14,665"/><text class="g8" style="--gs:8" x="380" y="577">⑧</text><path class="g8 aligned" style="--gs:8" d="M380,577 L584,556"/><path class="g8 offset" style="--gs:8" d="M380,673 L584,652"/><text class="g9" style="--gs:9" x="393" y="674">⑨</text><path class="g9 aligned" style="--gs:9" d="M393,674 L617,643"/><path class="g9 offset" style="--gs:9" d="M393,770 L617,739"/><text class="g10" style="--gs:10" x="415" y="683">⑩</text><path class="g10 aligned" style="--gs:10" d="M415,683 Q436,728 406.5,770 Q377,812 329,849.5 Q281,887 234,905.5 Q234,905.5 187,924"/><path class="g10 offset" style="--gs:10" d="M319,683 Q329.88,710.07 314.6,735.34 Q299.31,760.61 274.45,783.18 Q249.58,805.74 225.23,816.87 Q225.23,816.87 200.88,828"/><text class="g11" style="--gs:11" x="536" y="666">⑪</text><path class="g11 aligned" style="--gs:11" d="M536,666 Q568,695 569,782.5 Q570,870 608,899 Q646,928 696.5,932 Q747,936 805.5,920.5 Q864,905 883,887.5 Q902,870 904,813 Q904,813 906,756"/><path class="g11 offset" style="--gs:11" d="M604.54,597.46 Q622.31,626.46 622.87,713.96 Q623.42,801.46 644.52,830.46 Q665.63,859.46 693.67,863.46 Q721.71,867.46 754.19,851.96 Q786.68,836.46 797.23,818.96 Q807.78,801.46 808.89,744.46 Q808.89,744.46 810,687.46"/></g>
</svg>
