<svg id="z31456" class="acjk" viewBox="0 0 1024 1024" xmlns="http://www.w3.org/2000/svg">
<style>

@keyframes zk {
	to {
		stroke-dashoffset:0;
	}
}
svg.acjk path[clip-path] {
	--t:0.8s;
	animation:zk var(--t) linear forwards var(--d);
	stroke-dasharray:3337;
	stroke-dashoffset:3339;
	stroke-width:128;
	stroke-linecap:round;
	fill:none;
	stroke:#000;
}
svg.acjk path[id] {fill:#ccc;}


    @keyframes guide-fade {
        0% { opacity: 0; }
        3% { opacity: 1; }
        95% { opacity: 1; }
        100% { opacity: 0; }
    }

    svg.acjk #guide-arrow {
        fill: #f77;
    }

    svg.acjk .guides {
        circle {
            fill: #0f6;
        }

        path {
            opacity: 0;
            animation: guide-fade var(--t) linear forwards var(--d);
            stroke-width: 16px;
            stroke-linecap: round;
            stroke: #f77;
            fill: none;
            marker-end: url(#guide-arrow);
        }

        circle,
        path {
            --t: 0.8s;
            opacity: 0;
            animation: guide-fade calc(var(--t) + 0.4s) ease-in-out forwards calc(var(--d) - 0.2s);
        }
    }
</style>
<path id="z31456d1" d="M476 88Q500 104 526 126Q539 136 553 133Q562 132 565 120Q568 107 557 82Q545 55 466 48Q453 47 448 49Q444 53 446 64Q450 73 476 88Z"/>
<path id="z31456d2" d="M616 191Q709 173 713 171Q722 164 718 156Q712 143 684 135Q651 125 568 151Q427 175 344 177Q308 181 332 199Q365 221 446 213Q513 204 583 195C605 192 605 192 616 191Z"/>
<path id="z31456d3" d="M370 261Q406 330 427 335Q437 339 447 324Q451 314 446 294Q440 278 421 266Q393 244 379 239Q372 236 369 246Q366 252 370 261Z"/>
<path id="z31456d4" d="M575 339Q581 332 620 274Q627 261 642 244Q655 234 649 224Q642 208 616 191C606 185 581 184 583 195Q583 196 584 198Q591 225 550 325Q546 334 543 343C539 353 569 348 575 339Z"/>
<path id="z31456d5" d="M543 343Q527 343 509 346Q335 365 129 385Q107 386 123 405Q138 420 156 426Q178 432 195 427Q504 349 892 370Q893 369 896 370Q917 370 922 361Q929 349 911 335Q857 293 819 301Q725 319 575 339C554 342 554 342 543 343Z"/>
<path id="z31456d6" d="M352 443Q342 439 316 437Q304 434 301 440Q295 447 304 462Q335 514 357 602Q361 629 379 646Q398 665 402 650Q403 643 404 635C403 619 403 619 403 611Q397 578 391 554C387 539 387 539 385 531Q376 491 374 474C372 462 364 448 352 443Z"/>
<path id="z31456d7" d="M594 619Q607 638 621 646Q630 653 645 635Q657 619 684 525Q693 497 716 474Q729 464 718 450Q705 434 665 408Q650 399 590 411Q578 412 565 414Q421 435 352 443C340 445 362 476 374 474Q437 458 590 444Q618 441 628 451Q637 463 635 473Q617 570 601 588C596 597 588 611 594 619Z"/>
<path id="z31456d8" d="M391 554Q392 554 395 554Q495 541 568 532Q587 529 580 518Q573 506 551 501Q533 498 385 531C377 533 383 554 391 554Z"/>
<path id="z31456d9" d="M527 625Q561 621 594 619C605 619 610 593 601 588Q597 585 590 584Q574 581 403 611C395 612 396 634 404 635Q411 636 425 636Q450 632 477 630C510 627 510 627 527 625Z"/>
<path id="z31456d10" d="M526 745Q632 738 788 743Q860 746 866 737Q872 725 855 710Q801 668 763 675Q673 690 526 707C491 711 491 711 473 713Q341 723 190 738Q168 739 183 757Q198 772 216 778Q238 785 254 781Q354 757 468 749Q469 748 472 749C508 746 508 746 526 745Z"/>
<path id="z31456d11" d="M472 749Q469 957 488 978Q498 988 509 966Q525 932 526 745C526 720 526 720 526 707Q526 667 527 625C527 608 477 613 477 630Q476 670 473 713C472 737 472 737 472 749Z"/>
<defs>
	<clipPath id="z31456c1"><use href="#z31456d1"/></clipPath>
	<clipPath id="z31456c2"><use href="#z31456d2"/></clipPath>
	<clipPath id="z31456c3"><use href="#z31456d3"/></clipPath>
	<clipPath id="z31456c4"><use href="#z31456d4"/></clipPath>
	<clipPath id="z31456c5"><use href="#z31456d5"/></clipPath>
	<clipPath id="z31456c6"><use href="#z31456d6"/></clipPath>
	<clipPath id="z31456c7"><use href="#z31456d7"/></clipPath>
	<clipPath id="z31456c8"><use href="#z31456d8"/></clipPath>
	<clipPath id="z31456c9"><use href="#z31456d9"/></clipPath>
	<clipPath id="z31456c10"><use href="#z31456d10"/></clipPath>
	<clipPath id="z31456c11"><use href="#z31456d11"/></clipPath>
<marker id="guide-arrow" viewBox="0 0 16 16" refX="5" refY="5" markerWidth="4" markerHeight="4" orient="auto-start-reverse"><path d="M 0 0 L 10 5 L 0 10 z" fill="inherit"/></marker></defs>
<path style="--d:1s;" pathLength="3333" clip-path="url(#z31456c1)" d="M452 53L557 127"/>
<path style="--d:2s;" pathLength="3333" clip-path="url(#z31456c2)" d="M329 187L714 159"/>
<path style="--d:3s;" pathLength="3333" clip-path="url(#z31456c3)" d="M375 246L433 332"/>
<path style="--d:4s;" pathLength="3333" clip-path="url(#z31456c4)" d="M591 195L615 237L553 344"/>
<path style="--d:5s;" pathLength="3333" clip-path="url(#z31456c5)" d="M123 394L180 405L826 333L918 351"/>
<path style="--d:6s;" pathLength="3333" clip-path="url(#z31456c6)" d="M307 445L341 470L391 652"/>
<path style="--d:7s;" pathLength="3333" clip-path="url(#z31456c7)" d="M355 448L650 431L679 466L617 641"/>
<path style="--d:8s;" pathLength="3333" clip-path="url(#z31456c8)" d="M386 541L577 519"/>
<path style="--d:9s;" pathLength="3333" clip-path="url(#z31456c9)" d="M401 624L601 606"/>
<path style="--d:10s;" pathLength="3333" clip-path="url(#z31456c10)" d="M186 747L767 708L863 725"/>
<path style="--d:11s;" pathLength="3333" clip-path="url(#z31456c11)" d="M515 618L499 976"/>
<g class="guides"><circle style="--d: 1s" class="g1" cx="452" cy="53" r="16"/><path style="--d: 1s;" class="g1" d="M537.68,-15.543999999999997 L642.68,58.456"/><circle style="--d: 2s" class="g2" cx="329" cy="187" r="16"/><path style="--d: 2s;" class="g2" d="M329,283 L714,255"/><circle style="--d: 3s" class="g3" cx="375" cy="246" r="16"/><path style="--d: 3s;" class="g3" d="M460.68,177.45600000000002 L518.68,263.456"/><circle style="--d: 4s" class="g4" cx="591" cy="195" r="16"/><path style="--d: 4s;" class="g4" d="M495,195 Q519,237 511.25,250.375 Q464.75,330.625 457,344"/><circle style="--d: 5s" class="g5" cx="123" cy="394" r="16"/><path style="--d: 5s;" class="g5" d="M123,490 Q180,501 341.5,483 Q826,429 849,433.5 Q895,442.5 918,447"/><circle style="--d: 6s" class="g6" cx="307" cy="445" r="16"/><path style="--d: 6s;" class="g6" d="M392.68,376.456 Q426.68,401.456 432.93,424.206 Q470.43,560.706 476.68,583.456"/><circle style="--d: 7s" class="g7" cx="355" cy="448" r="16"/><path style="--d: 7s;" class="g7" d="M355,544 Q540.7407407407408,527 545.3055555555555,531.75 Q559,546 549.2407407407408,569.75 Q529.7222222222222,617.25 519.9629629629629,641"/><circle style="--d: 8s" class="g8" cx="386" cy="541" r="16"/><path style="--d: 8s;" class="g8" d="M386,637 L577,615"/><circle style="--d: 9s" class="g9" cx="401" cy="624" r="16"/><path style="--d: 9s;" class="g9" d="M401,720 L601,702"/><circle style="--d: 10s" class="g10" cx="186" cy="747" r="16"/><path style="--d: 10s;" class="g10" d="M186,843 Q767,804 779,806.125 Q851,818.875 863,821"/><circle style="--d: 11s" class="g11" cx="515" cy="618" r="16"/><path style="--d: 11s;" class="g11" d="M635,618 L619,976"/></g></svg>