<!--
  Stroke-order data for 笙, derived from AnimCJK (https://github.com/parsimonhi/animCJK),
  itself derived from the Arphic PL KaitiM fonts. Distributed under the Arphic Public License
  (see ARPHICPL.TXT). Regenerated by scripts/build-strokes.ts — do not edit by hand.
-->
<svg id="z31513" class="acjk" viewBox="0 0 1024 1024" xmlns="http://www.w3.org/2000/svg">
<g class="glyph"><path id="z31513d1" d="M342 210Q358 182 375 161Q385 148 371 134Q326 100 303 105Q293 106 294 122Q306 204 220 311Q198 333 173 364Q166 379 180 374Q196 373 219 355Q289 301 328 234Q328 233 329 231C338 217 338 217 342 210Z"/><path id="z31513d2" d="M330 231Q364 247 434 235Q461 229 492 224Q508 220 512 218Q519 211 515 203Q508 193 481 186Q466 183 391 202Q367 206 342 210C334 212 321 228 329 231C330 231 330 231 330 231Z"/><path id="z31513d3" d="M354 332Q370 348 386 367Q398 379 411 379Q421 379 425 367Q429 354 423 329Q419 316 397 304Q343 286 332 289Q328 293 328 304Q331 314 354 332Z"/><path id="z31513d4" d="M640 187Q659 148 677 117Q687 102 670 89Q619 56 595 65Q583 69 587 84Q608 160 538 271Q523 286 508 315Q501 331 516 325Q561 316 624 216C635 197 635 197 640 187Z"/><path id="z31513d5" d="M624 216Q664 232 711 223Q843 201 850 197Q860 190 855 180Q848 168 818 160Q797 156 709 176Q708 176 640 187C629 189 614 212 624 216Z"/><path id="z31513d6" d="M646 325Q673 343 702 366Q717 376 731 375Q741 374 745 360Q748 345 736 318Q729 300 699 290Q629 272 616 281Q612 285 614 297Q618 307 646 325Z"/><path id="z31513d7" d="M364 515Q377 494 391 477Q401 464 387 450Q344 417 319 420Q309 423 310 437Q325 530 222 635Q206 651 197 664Q190 679 204 675Q252 666 323 578Q341 551 349 538C359 523 359 523 364 515Z"/><path id="z31513d8" d="M554 532Q609 520 667 511Q719 499 726 493Q736 486 731 476Q724 464 694 456Q663 449 633 460Q596 472 557 483C516 492 516 492 495 497Q432 507 364 515C355 517 341 533 349 538Q383 560 463 548Q478 545 496 542C535 535 535 535 554 532Z"/><path id="z31513d9" d="M544 811Q545 747 548 689C549 658 549 658 550 642Q551 605 553 570Q553 549 554 532C556 499 556 499 557 483Q558 438 567 414Q577 395 564 381Q530 354 501 347Q488 343 473 355Q469 362 474 373Q493 404 495 487Q495 491 495 497C496 527 496 527 496 542Q496 597 497 655C497 684 497 684 497 698Q497 753 499 815C499 830 544 826 544 811Z"/><path id="z31513d10" d="M548 689Q683 661 686 659Q695 652 691 644Q684 632 656 624Q629 618 550 642C515 651 515 651 497 655Q440 665 374 669Q338 673 363 690Q399 714 470 701Q482 698 497 698C531 692 531 692 548 689Z"/><path id="z31513d11" d="M499 815Q352 828 183 843Q159 844 176 865Q210 899 255 891Q498 833 877 855Q899 855 906 846Q913 833 894 816Q836 768 793 777Q699 793 544 811C514 814 514 814 499 815Z"/></g>
<defs><clipPath id="z31513c1"><use href="#z31513d1"/></clipPath>
	<clipPath id="z31513c2"><use href="#z31513d2"/></clipPath>
	<clipPath id="z31513c3"><use href="#z31513d3"/></clipPath>
	<clipPath id="z31513c4"><use href="#z31513d4"/></clipPath>
	<clipPath id="z31513c5"><use href="#z31513d5"/></clipPath>
	<clipPath id="z31513c6"><use href="#z31513d6"/></clipPath>
	<clipPath id="z31513c7"><use href="#z31513d7"/></clipPath>
	<clipPath id="z31513c8"><use href="#z31513d8"/></clipPath>
	<clipPath id="z31513c9"><use href="#z31513d9"/></clipPath>
	<clipPath id="z31513c10"><use href="#z31513d10"/></clipPath>
	<clipPath id="z31513c11"><use href="#z31513d11"/></clipPath><marker id="guide-arrow" viewBox="0 0 16 16" refX="5" refY="5" markerWidth="4" markerHeight="4" orient="auto-start-reverse"><path d="M 0 0 L 10 5 L 0 10 z" fill="inherit"/></marker></defs>
<g class="strokes"><path pathLength="3333" clip-path="url(#z31513c1)" d="M302 109L334 164L277 270L177 367"/><path pathLength="3333" clip-path="url(#z31513c2)" d="M338 227L511 211"/><path pathLength="3333" clip-path="url(#z31513c3)" d="M333 296L414 373"/><path pathLength="3333" clip-path="url(#z31513c4)" d="M594 71L636 117L583 237L513 318"/><path pathLength="3333" clip-path="url(#z31513c5)" d="M633 212L852 185"/><path pathLength="3333" clip-path="url(#z31513c6)" d="M619 288L740 365"/><path pathLength="3333" clip-path="url(#z31513c7)" d="M318 427L352 465L340 499L283 594L203 670"/><path pathLength="3333" clip-path="url(#z31513c8)" d="M355 534L727 484"/><path pathLength="3333" clip-path="url(#z31513c9)" d="M477 359L529 401L517 813"/><path pathLength="3333" clip-path="url(#z31513c10)" d="M363 680L688 645"/><path pathLength="3333" clip-path="url(#z31513c11)" d="M174 850L242 865L796 814L903 840"/></g>
<g class="guides"><text class="g1" style="--gs:1" x="302" y="109">①</text><path class="g1 aligned" style="--gs:1" d="M302,109 Q334,164 319.75,190.5 Q277,270 252,294.25 Q202,342.75 177,367"/><path class="g1 offset" style="--gs:1" d="M206,109 Q222,143.53 214.88,160.17 Q193.5,210.09 181,225.32 Q156,255.77 143.5,271"/><text class="g2" style="--gs:2" x="338" y="227">②</text><path class="g2 aligned" style="--gs:2" d="M338,227 L511,211"/><path class="g2 offset" style="--gs:2" d="M338,323 L511,307"/><text class="g3" style="--gs:3" x="333" y="296">③</text><path class="g3 aligned" style="--gs:3" d="M333,296 L414,373"/><path class="g3 offset" style="--gs:3" d="M418.68,227.46 L499.68,304.46"/><text class="g4" style="--gs:4" x="594" y="71">④</text><path class="g4 aligned" style="--gs:4" d="M594,71 Q636,117 622.75,147 Q583,237 565.5,257.25 Q530.5,297.75 513,318"/><path class="g4 offset" style="--gs:4" d="M498,71 Q519,99.12 512.38,117.46 Q492.5,172.48 483.75,184.86 Q466.25,209.62 457.5,222"/><text class="g5" style="--gs:5" x="633" y="212">⑤</text><path class="g5 aligned" style="--gs:5" d="M633,212 L852,185"/><path class="g5 offset" style="--gs:5" d="M633,308 L852,281"/><text class="g6" style="--gs:6" x="619" y="288">⑥</text><path class="g6 aligned" style="--gs:6" d="M619,288 L740,365"/><path class="g6 offset" style="--gs:6" d="M704.68,219.46 L825.68,296.46"/><text class="g7" style="--gs:7" x="318" y="427">⑦</text><path class="g7 aligned" style="--gs:7" d="M318,427 Q352,465 346,482 Q340,499 311.5,546.5 Q283,594 243,632 Q243,632 203,670"/><path class="g7 offset" style="--gs:7" d="M222,427 Q239,449.99 236,460.27 Q233,470.56 218.75,499.29 Q204.5,528.02 184.5,551.01 Q184.5,551.01 164.5,574"/><text class="g8" style="--gs:8" x="355" y="534">⑧</text><path class="g8 aligned" style="--gs:8" d="M355,534 L727,484"/><path class="g8 offset" style="--gs:8" d="M355,630 L727,580"/><text class="g9" style="--gs:9" x="477" y="359">⑨</text><path class="g9 aligned" style="--gs:9" d="M477,359 Q529,401 527.5,452.5 Q518.5,761.5 517,813"/><path class="g9 offset" style="--gs:9" d="M381,359 Q433,401 431.5,452.5 Q422.5,761.5 421,813"/><text class="g10" style="--gs:10" x="363" y="680">⑩</text><path class="g10 aligned" style="--gs:10" d="M363,680 L688,645"/><path class="g10 offset" style="--gs:10" d="M363,776 L688,741"/><text class="g11" style="--gs:11" x="174" y="850">⑪</text><path class="g11 aligned" style="--gs:11" d="M174,850 Q242,865 380.5,852.25 Q796,814 822.75,820.5 Q876.25,833.5 903,840"/><path class="g11 offset" style="--gs:11" d="M174,946 Q242,961 380.5,948.25 Q796,910 822.75,916.5 Q876.25,929.5 903,936"/></g>
</svg>
