<!--
  Stroke-order data for 笛, derived from AnimCJK (https://github.com/parsimonhi/animCJK),
  itself derived from the Arphic PL KaitiM fonts. Distributed under the Arphic Public License
  (see ARPHICPL.TXT). Regenerated by scripts/build-strokes.ts — do not edit by hand.
-->
<svg id="z31515" class="acjk" viewBox="0 0 1024 1024" xmlns="http://www.w3.org/2000/svg">
<g class="glyph"><path id="z31515d1" d="M339 206C348 189 357 173 368 160C374 151 373 142 363 134C333 111 310 103 295 106C288 107 285 112 287 123C295 191 265 266 193 347C175 366 160 379 153 392C147 401 150 404 160 402C171 399 185 392 202 379C229 356 253 333 273 309C294 284 309 258 323 234C334 215 334 215 339 206Z"/><path id="z31515d2" d="M323 234C349 240 396 237 466 227C476 225 488 223 500 221C514 218 523 216 526 214C532 209 534 204 531 199C526 192 515 185 498 181C479 176 461 179 443 185C407 196 372 201 339 206C328 208 312 232 323 234Z"/><path id="z31515d3" d="M331 359C342 369 352 381 364 395C371 403 380 407 390 407C396 406 402 403 405 395C408 386 407 372 403 355C400 344 391 334 376 329C338 315 314 310 308 313C304 314 302 320 304 328C304 334 315 344 331 359Z"/><path id="z31515d4" d="M671 174C681 157 691 141 702 127C708 118 707 108 696 99C666 74 641 64 624 69C615 70 613 76 615 87C624 147 600 215 539 286C534 290 519 303 501 331C494 341 497 344 508 342C518 339 531 333 547 322C593 285 626 248 656 199C666 182 666 182 671 174Z"/><path id="z31515d5" d="M656 199C682 211 719 213 768 203C840 187 877 178 880 177C886 171 886 165 883 160C877 152 866 144 846 141C825 137 804 141 784 149C746 162 707 169 671 174C661 176 647 195 656 199Z"/><path id="z31515d6" d="M662 328C678 339 694 353 712 369C721 377 731 380 742 379C748 378 754 373 757 364C759 353 756 338 749 319C741 300 709 287 654 280C643 278 635 278 632 281C628 282 627 289 630 298C631 304 643 314 662 328Z"/><path id="z31515d7" d="M277 517C260 506 242 498 225 493C220 491 216 492 212 496C207 500 208 505 214 514C247 571 265 664 268 792C269 836 281 868 308 887C322 897 327 878 330 865C332 853 331 842 329 829C325 808 322 803 321 788C304 650 299 572 299 556C299 541 289 526 277 517Z"/><path id="z31515d8" d="M475 501C419 509 336 517 277 517C262 517 284 556 299 556C303 556 308 555 314 555C360 546 414 536 476 527C511 522 511 522 529 519C571 512 617 506 667 498C691 494 710 495 721 509C728 518 730 530 730 542C730 617 722 692 709 766C707 778 707 799 686 801C671 804 666 829 669 844C672 864 675 886 691 918C697 930 703 937 711 936C721 934 729 923 738 905C760 857 774 802 779 739C782 698 787 655 792 610C795 575 805 547 822 527C834 512 836 501 828 492C812 475 787 461 755 446C742 439 724 440 700 448C647 464 592 482 533 492C494 498 494 498 475 501Z"/><path id="z31515d9" d="M533 492C535 477 539 453 547 422C549 413 544 404 530 396C507 382 487 375 470 373C459 371 451 373 446 379C441 383 440 391 447 401C462 426 472 446 473 462C473 474 474 487 475 501C476 518 476 518 476 527C477 566 478 608 477 651C476 678 476 678 476 692C475 731 477 773 475 816C475 830 517 825 517 811C519 768 519 726 521 686C522 656 522 656 523 641C524 598 523 557 529 519C532 501 532 501 533 492Z"/><path id="z31515d10" d="M521 686C555 681 591 677 624 674C640 672 646 665 641 657C633 645 620 636 602 634C587 631 551 634 523 641C492 648 492 648 477 651C439 659 405 666 373 673C360 675 361 682 376 694C384 700 396 704 413 702C434 698 454 694 476 692C506 688 506 688 521 686Z"/><path id="z31515d11" d="M330 865C334 865 339 866 346 865C412 854 528 847 669 844C684 844 699 809 686 801C669 789 601 800 517 811C489 814 489 814 475 816C422 822 373 826 329 829C317 829 318 865 330 865Z"/></g>
<defs><clipPath id="z31515c1"><use href="#z31515d1"/></clipPath>
	<clipPath id="z31515c2"><use href="#z31515d2"/></clipPath>
	<clipPath id="z31515c3"><use href="#z31515d3"/></clipPath>
	<clipPath id="z31515c4"><use href="#z31515d4"/></clipPath>
	<clipPath id="z31515c5"><use href="#z31515d5"/></clipPath>
	<clipPath id="z31515c6"><use href="#z31515d6"/></clipPath>
	<clipPath id="z31515c7"><use href="#z31515d7"/></clipPath>
	<clipPath id="z31515c8"><use href="#z31515d8"/></clipPath>
	<clipPath id="z31515c9"><use href="#z31515d9"/></clipPath>
	<clipPath id="z31515c10"><use href="#z31515d10"/></clipPath>
	<clipPath id="z31515c11"><use href="#z31515d11"/></clipPath><marker id="guide-arrow" viewBox="0 0 16 16" refX="5" refY="5" markerWidth="4" markerHeight="4" orient="auto-start-reverse"><path d="M 0 0 L 10 5 L 0 10 z" fill="inherit"/></marker></defs>
<g class="strokes"><path pathLength="3333" clip-path="url(#z31515c1)" d="M294 116L329 156L300 224L226 335L156 394"/><path pathLength="3333" clip-path="url(#z31515c2)" d="M328 227L527 205"/><path pathLength="3333" clip-path="url(#z31515c3)" d="M312 322L372 359L396 402"/><path pathLength="3333" clip-path="url(#z31515c4)" d="M623 76L660 115L642 164L596 246L505 336"/><path pathLength="3333" clip-path="url(#z31515c5)" d="M660 193L880 165"/><path pathLength="3333" clip-path="url(#z31515c6)" d="M636 289L706 322L747 372"/><path pathLength="3333" clip-path="url(#z31515c7)" d="M215 500L268 560L313 884"/><path pathLength="3333" clip-path="url(#z31515c8)" d="M280 525L328 535L701 472L761 491L781 519L704 929"/><path pathLength="3333" clip-path="url(#z31515c9)" d="M450 384L508 439L487 821"/><path pathLength="3333" clip-path="url(#z31515c10)" d="M370 678L637 662"/><path pathLength="3333" clip-path="url(#z31515c11)" d="M322 849L688 813"/></g>
<g class="guides"><text class="g1" style="--gs:1" x="294" y="116">①</text><path class="g1 aligned" style="--gs:1" d="M294,116 Q329,156 314.5,190 Q300,224 263,279.5 Q226,335 191,364.5 Q191,364.5 156,394"/><path class="g1 offset" style="--gs:1" d="M198,116 Q215.5,142.19 208.25,164.45 Q201,186.71 182.5,223.04 Q164,259.37 146.5,278.69 Q146.5,278.69 129,298"/><text class="g2" style="--gs:2" x="328" y="227">②</text><path class="g2 aligned" style="--gs:2" d="M328,227 L527,205"/><path class="g2 offset" style="--gs:2" d="M328,323 L527,301"/><text class="g3" style="--gs:3" x="312" y="322">③</text><path class="g3 aligned" style="--gs:3" d="M312,322 Q372,359 375,364.38 Q393,396.63 396,402"/><path class="g3 offset" style="--gs:3" d="M397.68,253.46 Q457.68,290.46 460.68,295.83 Q478.68,328.08 481.68,333.46"/><text class="g4" style="--gs:4" x="623" y="76">④</text><path class="g4 aligned" style="--gs:4" d="M623,76 Q660,115 651,139.5 Q642,164 619,205 Q596,246 550.5,291 Q550.5,291 505,336"/><path class="g4 offset" style="--gs:4" d="M527,76 Q545.5,100.6 541,116.05 Q536.5,131.51 525,157.37 Q513.5,183.23 490.75,211.62 Q490.75,211.62 468,240"/><text class="g5" style="--gs:5" x="660" y="193">⑤</text><path class="g5 aligned" style="--gs:5" d="M660,193 L880,165"/><path class="g5 offset" style="--gs:5" d="M660,289 L880,261"/><text class="g6" style="--gs:6" x="636" y="289">⑥</text><path class="g6 aligned" style="--gs:6" d="M636,289 Q706,322 711.13,328.25 Q741.88,365.75 747,372"/><path class="g6 offset" style="--gs:6" d="M721.68,220.46 Q791.68,253.46 796.81,259.71 Q827.56,297.21 832.68,303.46"/><text class="g7" style="--gs:7" x="215" y="500">⑦</text><path class="g7 aligned" style="--gs:7" d="M215,500 Q268,560 273.63,600.5 Q307.38,843.5 313,884"/><path class="g7 offset" style="--gs:7" d="M300.68,431.46 Q353.68,491.46 359.31,531.96 Q393.06,774.96 398.68,815.46"/><text class="g8" style="--gs:8" x="280" y="525">⑧</text><path class="g8 aligned" style="--gs:8" d="M280,525 Q328,535 514.5,503.5 Q701,472 731,481.5 Q761,491 771,505 Q781,519 742.5,724 Q742.5,724 704,929"/><path class="g8 offset" style="--gs:8" d="M280,621 Q316.5,617.77 458.33,592.88 Q600.16,568 622.98,577.5 Q645.79,587 653.4,601 Q661,615 631.72,772 Q631.72,772 602.44,929"/><text class="g9" style="--gs:9" x="450" y="384">⑨</text><path class="g9 aligned" style="--gs:9" d="M450,384 Q508,439 505.38,486.75 Q489.63,773.25 487,821"/><path class="g9 offset" style="--gs:9" d="M354,384 Q412,439 409.38,486.75 Q393.63,773.25 391,821"/><text class="g10" style="--gs:10" x="370" y="678">⑩</text><path class="g10 aligned" style="--gs:10" d="M370,678 L637,662"/><path class="g10 offset" style="--gs:10" d="M370,774 L637,758"/><text class="g11" style="--gs:11" x="322" y="849">⑪</text><path class="g11 aligned" style="--gs:11" d="M322,849 L688,813"/><path class="g11 offset" style="--gs:11" d="M322,945 L688,909"/></g>
</svg>
