<!--
  Stroke-order data for 箇, derived from AnimCJK (https://github.com/parsimonhi/animCJK),
  itself derived from the Arphic PL KaitiM fonts. Distributed under the Arphic Public License
  (see ARPHICPL.TXT). Regenerated by scripts/build-strokes.ts — do not edit by hand.
-->
<svg id="z31623" class="acjk" viewBox="0 0 1024 1024" xmlns="http://www.w3.org/2000/svg">
<g class="glyph"><path style="--part:1" id="z31623d1" d="M322 184C336 163 351 144 366 128C372 121 373 111 364 102C339 77 318 68 304 70C297 70 293 74 294 85C297 150 261 218 184 286C165 302 150 314 142 325C135 333 137 336 147 335C158 333 173 328 189 318C237 285 277 248 307 206C317 191 317 191 322 184Z"/><path style="--part:1" id="z31623d2" d="M307 206C331 218 356 219 386 214C451 202 451 202 484 196C498 193 507 190 511 188C515 183 517 178 515 174C510 166 499 160 483 157C466 153 449 156 432 162C415 167 397 172 378 176C360 179 341 181 322 184C313 185 299 203 307 206Z"/><path style="--part:1" id="z31623d3" d="M340 292C353 303 367 317 384 331C390 337 400 339 409 339C415 338 418 335 421 328C423 319 422 306 416 291C409 272 381 259 334 253C324 251 319 251 316 253C312 254 311 259 313 267C314 272 324 280 340 292Z"/><path style="--part:1" id="z31623d4" d="M642 159C656 134 671 113 686 96C692 87 691 78 682 70C655 48 634 39 617 41C610 41 606 46 608 57C615 110 589 176 525 249C523 250 504 266 485 292C478 300 482 305 492 303C502 300 515 295 530 284C569 253 604 222 627 184C637 167 637 167 642 159Z"/><path style="--part:1" id="z31623d5" d="M627 184C647 192 682 195 733 188C819 174 863 163 866 162C872 157 873 151 870 147C865 139 854 132 838 128C818 122 801 125 783 132C761 139 738 145 714 149C691 152 667 155 642 159C632 161 618 180 627 184Z"/><path style="--part:1" id="z31623d6" d="M665 268C680 278 697 289 715 303C723 308 732 311 741 310C747 309 752 304 753 296C754 287 751 273 744 258C736 241 705 232 654 227C644 226 638 226 635 229C631 231 632 235 635 244C637 249 647 257 665 268Z"/><path style="--part:2" id="z31623d7" d="M274 391C256 378 235 368 220 375C213 377 214 383 217 393C234 444 242 470 243 489C244 689 235 724 214 801C198 854 200 895 231 928C238 936 247 938 256 930C266 918 268 904 271 892C273 879 274 866 276 853C284 704 293 445 300 434C305 418 287 401 274 391Z"/><path style="--part:2" id="z31623d8" d="M721 872C727 898 732 918 746 947C760 976 784 969 797 948C817 912 816 893 810 781C795 532 801 444 817 426C823 419 834 408 834 399C833 390 820 379 798 365C759 341 744 332 727 332C720 331 712 333 706 335C693 339 670 345 633 349C532 359 461 372 340 389C317 392 295 392 274 391C257 391 284 437 300 434C355 418 398 412 439 407C540 393 611 385 689 382C705 381 714 384 720 392C734 408 741 457 742 637C742 710 742 822 734 854C733 861 720 865 721 872Z"/><path style="--part:2" id="z31623d9" d="M523 554C620 534 674 526 678 523C682 518 684 513 682 510C678 503 667 499 652 495C637 491 594 502 528 517C493 524 493 524 476 528C440 535 401 537 360 541C339 542 334 551 351 559C388 575 431 571 477 563C508 557 508 557 523 554Z"/><path style="--part:2" id="z31623d10" d="M511 628C515 610 520 569 523 554C526 529 526 529 528 517C529 502 534 495 540 470C541 463 538 454 526 447C504 434 492 428 478 424C468 421 460 421 456 426C451 429 450 436 456 445C466 460 474 483 476 528C477 551 477 551 477 563C477 588 476 602 473 634C473 647 508 641 511 628Z"/><path style="--part:2" id="z31623d11" d="M407 640C400 636 387 634 371 630C363 628 359 628 357 631C353 633 353 638 358 649C370 675 381 712 388 757C389 769 393 780 402 790C412 802 418 805 422 797C424 791 427 785 427 777C426 758 426 758 425 749C421 704 418 676 418 663C418 655 415 643 407 640Z"/><path style="--part:2" id="z31623d12" d="M609 734C623 702 636 682 649 673C665 660 665 648 652 639C639 631 626 620 610 610C598 602 585 602 573 608C552 618 537 623 511 628C486 632 486 632 473 634C455 636 425 638 407 640C399 641 410 663 418 663C424 663 463 657 537 647C556 644 569 647 575 654C578 657 578 665 573 680C568 695 563 710 559 726C556 743 603 750 609 734Z"/><path style="--part:2" id="z31623d13" d="M427 777C451 776 522 765 612 761C616 760 626 760 627 753C627 748 621 742 609 734C595 725 576 726 559 726C557 726 557 726 556 726C508 736 464 744 425 749C416 751 418 777 427 777Z"/><path style="--part:2" id="z31623d14" d="M271 892C283 896 327 882 721 872C728 872 739 860 734 854C705 821 682 814 644 819C492 837 396 850 276 853C263 853 258 889 271 892Z"/></g>
<defs><clipPath id="z31623c1"><use href="#z31623d1"/></clipPath>
	<clipPath id="z31623c2"><use href="#z31623d2"/></clipPath>
	<clipPath id="z31623c3"><use href="#z31623d3"/></clipPath>
	<clipPath id="z31623c4"><use href="#z31623d4"/></clipPath>
	<clipPath id="z31623c5"><use href="#z31623d5"/></clipPath>
	<clipPath id="z31623c6"><use href="#z31623d6"/></clipPath>
	<clipPath id="z31623c7"><use href="#z31623d7"/></clipPath>
	<clipPath id="z31623c8"><use href="#z31623d8"/></clipPath>
	<clipPath id="z31623c9"><use href="#z31623d9"/></clipPath>
	<clipPath id="z31623c10"><use href="#z31623d10"/></clipPath>
	<clipPath id="z31623c11"><use href="#z31623d11"/></clipPath>
	<clipPath id="z31623c12"><use href="#z31623d12"/></clipPath>
	<clipPath id="z31623c13"><use href="#z31623d13"/></clipPath>
	<clipPath id="z31623c14"><use href="#z31623d14"/></clipPath><marker id="guide-arrow" viewBox="0 0 16 16" refX="5" refY="5" markerWidth="4" markerHeight="4" orient="auto-start-reverse"><path d="M 0 0 L 10 5 L 0 10 z" fill="inherit"/></marker></defs>
<g class="strokes"><path style="--part:1" pathLength="3333" clip-path="url(#z31623c1)" d="M302 80L330 125L295 184L145 328"/><path style="--part:1" pathLength="3333" clip-path="url(#z31623c2)" d="M311 201L511 176"/><path style="--part:1" pathLength="3333" clip-path="url(#z31623c3)" d="M318 261L417 329"/><path style="--part:1" pathLength="3333" clip-path="url(#z31623c4)" d="M615 47L647 94L580 212L490 297"/><path style="--part:1" pathLength="3333" clip-path="url(#z31623c5)" d="M628 177L864 147"/><path style="--part:1" pathLength="3333" clip-path="url(#z31623c6)" d="M640 237L749 299"/><path style="--part:2" pathLength="3333" clip-path="url(#z31623c7)" d="M221 384L268 437L238 928"/><path style="--part:2" pathLength="3333" clip-path="url(#z31623c8)" d="M278 399L310 412L708 357L775 400L774 962"/><path style="--part:2" pathLength="3333" clip-path="url(#z31623c9)" d="M348 548L678 513"/><path style="--part:2" pathLength="3333" clip-path="url(#z31623c10)" d="M457 430L505 475L487 638"/><path style="--part:2" pathLength="3333" clip-path="url(#z31623c11)" d="M361 636L392 662L415 795"/><path style="--part:2" pathLength="3333" clip-path="url(#z31623c12)" d="M412 646L594 633L618 664L576 739"/><path style="--part:2" pathLength="3333" clip-path="url(#z31623c13)" d="M421 761L622 750"/><path style="--part:2" pathLength="3333" clip-path="url(#z31623c14)" d="M267 879L645 846L729 863"/></g>
<g class="guides"><text class="g1" style="--gs:1" x="302" y="80">①</text><path class="g1 aligned" style="--gs:1" d="M302,80 Q330,125 321.25,139.75 Q295,184 257.5,220 Q182.5,292 145,328"/><path class="g1 offset" style="--gs:1" d="M206,80 Q220,107.58 215.63,116.62 Q202.5,143.74 183.75,165.81 Q146.25,209.94 127.5,232"/><text class="g2" style="--gs:2" x="311" y="201">②</text><path class="g2 aligned" style="--gs:2" d="M311,201 L511,176"/><path class="g2 offset" style="--gs:2" d="M311,297 L511,272"/><text class="g3" style="--gs:3" x="318" y="261">③</text><path class="g3 aligned" style="--gs:3" d="M318,261 L417,329"/><path class="g3 offset" style="--gs:3" d="M403.68,192.46 L502.68,260.46"/><text class="g4" style="--gs:4" x="615" y="47">④</text><path class="g4 aligned" style="--gs:4" d="M615,47 Q647,94 630.25,123.5 Q580,212 557.5,233.25 Q512.5,275.75 490,297"/><path class="g4 offset" style="--gs:4" d="M519,47 Q535,75.95 526.63,94.12 Q501.5,148.64 490.25,161.73 Q467.75,187.91 456.5,201"/><text class="g5" style="--gs:5" x="628" y="177">⑤</text><path class="g5 aligned" style="--gs:5" d="M628,177 L864,147"/><path class="g5 offset" style="--gs:5" d="M628,273 L864,243"/><text class="g6" style="--gs:6" x="640" y="237">⑥</text><path class="g6 aligned" style="--gs:6" d="M640,237 L749,299"/><path class="g6 offset" style="--gs:6" d="M640,333 L749,395"/><text class="g7" style="--gs:7" x="221" y="384">⑦</text><path class="g7 aligned" style="--gs:7" d="M221,384 Q268,437 264.25,498.38 Q241.75,866.63 238,928"/><path class="g7 offset" style="--gs:7" d="M125,384 Q172,437 168.25,498.38 Q145.75,866.63 142,928"/><text class="g8" style="--gs:8" x="278" y="399">⑧</text><path class="g8 aligned" style="--gs:8" d="M294,406 Q708,357 724.75,367.75 Q775,400 774.75,540.5 Q774.25,821.5 774,962"/><path class="g8 offset" style="--gs:8" d="M294,502 Q604.72,453 617.29,463.75 Q655,496 654.81,612.5 Q654.44,845.5 654.25,962"/><text class="g9" style="--gs:9" x="348" y="548">⑨</text><path class="g9 aligned" style="--gs:9" d="M348,548 L678,513"/><path class="g9 offset" style="--gs:9" d="M348,644 L678,609"/><text class="g10" style="--gs:10" x="457" y="430">⑩</text><path class="g10 aligned" style="--gs:10" d="M457,430 Q505,475 502.75,495.38 Q489.25,617.63 487,638"/><path class="g10 offset" style="--gs:10" d="M361,430 Q409,475 406.75,495.38 Q393.25,617.63 391,638"/><text class="g11" style="--gs:11" x="361" y="636">⑪</text><path class="g11 aligned" style="--gs:11" d="M377,649 L415,795"/><path class="g11 offset" style="--gs:11" d="M497,649 L535,795"/><text class="g12" style="--gs:12" x="412" y="646">⑫</text><path class="g12 aligned" style="--gs:12" d="M412,646 Q594,633 600,640.75 Q618,664 607.5,682.75 Q586.5,720.25 576,739"/><path class="g12 offset" style="--gs:12" d="M412,742 Q503,729 506,732.88 Q515,744.5 509.75,753.88 Q499.25,772.63 494,782"/><text class="g13" style="--gs:13" x="421" y="761">⑬</text><path class="g13 aligned" style="--gs:13" d="M421,761 L622,750"/><path class="g13 offset" style="--gs:13" d="M421,857 L622,846"/><text class="g14" style="--gs:14" x="267" y="879">⑭</text><path class="g14 aligned" style="--gs:14" d="M267,879 Q645,846 655.5,848.13 Q718.5,860.88 729,863"/><path class="g14 offset" style="--gs:14" d="M267,975 Q645,942 655.5,944.13 Q718.5,956.88 729,959"/></g>
<g class="parts"><rect data-part="2" data-literal="固" role="button" tabindex="0" aria-label="Part 固" x="149" y="285" width="698" height="739"/><rect data-part="1" data-literal="𥫗" data-radical="true" role="button" tabindex="0" aria-label="Part 𥫗 (radical)" x="73" y="0" width="863" height="401"/></g>
</svg>
