<!--
  Stroke-order data for 箋, derived from AnimCJK (https://github.com/parsimonhi/animCJK),
  itself derived from the Arphic PL KaitiM fonts. Distributed under the Arphic Public License
  (see ARPHICPL.TXT). Regenerated by scripts/build-strokes.ts — do not edit by hand.
-->
<svg id="z31627" class="acjk" viewBox="0 0 1024 1024" xmlns="http://www.w3.org/2000/svg">
<g class="glyph"><path id="z31627d1" d="M342 136Q351 121 361 109Q370 97 357 84Q318 56 296 58Q286 61 288 74Q300 155 211 259Q202 262 173 301Q166 314 179 311Q233 301 307 195Q313 180 329 158C338 143 338 143 342 136Z"/><path id="z31627d2" d="M329 158Q365 170 441 157Q457 153 477 150Q493 146 495 144Q502 137 499 130Q492 120 467 114Q454 111 380 130Q362 133 342 136C334 137 321 156 329 158Z"/><path id="z31627d3" d="M358 221Q386 254 408 263Q418 264 424 255Q428 248 426 235Q422 219 410 211Q395 201 366 195Q356 191 349 194Q345 195 346 204Q347 211 358 221Z"/><path id="z31627d4" d="M619 98Q626 86 634 76Q643 64 629 52Q589 22 568 28Q558 31 561 43Q573 113 509 194Q493 213 484 225Q478 238 491 234Q536 228 595 137Q598 125 606 118C615 105 615 105 619 98Z"/><path id="z31627d5" d="M606 118Q646 139 696 128Q742 119 790 110Q812 106 815 102Q822 95 819 87Q812 77 786 70Q759 64 683 88Q653 94 619 98C611 100 599 114 606 118Z"/><path id="z31627d6" d="M627 206Q691 255 702 255Q709 254 713 244Q716 232 708 209Q702 193 676 182Q613 164 604 170Q600 173 602 183Q605 190 627 206Z"/><path id="z31627d7" d="M522 377Q528 374 537 372Q577 359 582 352Q589 345 584 338Q577 328 551 325Q511 322 494 339C459 355 459 355 441 363Q339 396 292 407Q261 416 285 428Q322 441 396 418Q430 406 470 395C505 383 505 383 522 377Z"/><path id="z31627d8" d="M562 478Q634 535 712 554Q782 567 802 558Q815 551 795 522Q783 506 764 458Q757 427 743 419Q733 412 734 428Q731 492 720 499Q707 506 665 492Q620 476 598 453C579 437 579 437 570 429Q545 407 522 377C512 365 499 354 494 339Q487 323 483 306Q479 275 434 275Q385 274 364 287Q358 291 359 301Q360 308 373 314Q403 320 441 363C460 384 460 384 470 395Q501 429 535 457C553 471 553 471 562 478Z"/><path id="z31627d9" d="M535 457Q507 478 446 515Q439 518 447 522Q492 522 562 478C586 461 586 461 598 453Q632 426 683 377Q701 359 701 357Q702 350 694 338Q673 311 649 310Q642 310 642 320Q642 356 570 429C547 448 547 448 535 457Z"/><path id="z31627d10" d="M753 309Q781 328 811 351Q821 358 832 358Q839 357 842 348Q843 338 836 318Q830 302 803 290Q740 272 732 278Q728 281 730 289Q734 296 753 309Z"/><path id="z31627d11" d="M478 660Q541 636 546 631Q553 622 548 615Q541 605 511 601Q468 598 450 616C439 627 421 631 406 636Q304 672 257 683Q223 693 249 706Q291 724 344 704Q387 689 433 675C463 665 463 665 478 660Z"/><path id="z31627d12" d="M538 801Q671 934 809 965Q891 980 905 960Q918 947 902 914Q889 887 859 785Q856 764 850 762Q846 762 844 781Q825 884 801 890Q698 890 574 772C549 746 549 746 536 733Q535 730 532 728Q502 694 478 660C459 631 459 631 450 616Q419 537 417 529Q414 502 367 499Q328 495 314 506Q298 516 319 535Q350 556 406 636C424 662 424 662 433 675Q467 721 504 764C527 789 527 789 538 801Z"/><path id="z31627d13" d="M504 764Q402 849 185 945Q175 946 185 953Q266 963 435 871Q498 832 538 801C562 782 562 782 574 772Q673 688 684 683Q694 680 695 669Q696 659 687 643Q663 603 629 598Q619 598 618 611Q612 656 536 733C515 754 515 754 504 764Z"/><path id="z31627d14" d="M510 548Q564 584 578 582Q588 581 590 565Q589 555 577 541Q567 532 549 530Q521 526 509 526Q502 527 503 536Q503 543 510 548Z"/></g>
<defs><clipPath id="z31627c1"><use href="#z31627d1"/></clipPath>
	<clipPath id="z31627c2"><use href="#z31627d2"/></clipPath>
	<clipPath id="z31627c3"><use href="#z31627d3"/></clipPath>
	<clipPath id="z31627c4"><use href="#z31627d4"/></clipPath>
	<clipPath id="z31627c5"><use href="#z31627d5"/></clipPath>
	<clipPath id="z31627c6"><use href="#z31627d6"/></clipPath>
	<clipPath id="z31627c7"><use href="#z31627d7"/></clipPath>
	<clipPath id="z31627c8"><use href="#z31627d8"/></clipPath>
	<clipPath id="z31627c9"><use href="#z31627d9"/></clipPath>
	<clipPath id="z31627c10"><use href="#z31627d10"/></clipPath>
	<clipPath id="z31627c11"><use href="#z31627d11"/></clipPath>
	<clipPath id="z31627c12"><use href="#z31627d12"/></clipPath>
	<clipPath id="z31627c13"><use href="#z31627d13"/></clipPath>
	<clipPath id="z31627c14"><use href="#z31627d14"/></clipPath><marker id="guide-arrow" viewBox="0 0 16 16" refX="5" refY="5" markerWidth="4" markerHeight="4" orient="auto-start-reverse"><path d="M 0 0 L 10 5 L 0 10 z" fill="inherit"/></marker></defs>
<g class="strokes"><path pathLength="3333" clip-path="url(#z31627c1)" d="M296 64L325 100L311 139L254 234L178 303"/><path pathLength="3333" clip-path="url(#z31627c2)" d="M340 155L493 133"/><path pathLength="3333" clip-path="url(#z31627c3)" d="M354 199L418 255"/><path pathLength="3333" clip-path="url(#z31627c4)" d="M568 35L599 76L491 228"/><path pathLength="3333" clip-path="url(#z31627c5)" d="M615 115L811 93"/><path pathLength="3333" clip-path="url(#z31627c6)" d="M609 176L708 242"/><path pathLength="3333" clip-path="url(#z31627c7)" d="M280 418L581 344"/><path pathLength="3333" clip-path="url(#z31627c8)" d="M363 295L445 313L553 444L674 519L766 520L743 426"/><path pathLength="3333" clip-path="url(#z31627c9)" d="M651 314L668 349L617 409L453 517"/><path pathLength="3333" clip-path="url(#z31627c10)" d="M733 283L833 351"/><path pathLength="3333" clip-path="url(#z31627c11)" d="M247 694L544 619"/><path pathLength="3333" clip-path="url(#z31627c12)" d="M314 515L380 538L528 758L718 903L817 929L863 923L852 773"/><path pathLength="3333" clip-path="url(#z31627c13)" d="M627 605L648 662L502 797L333 898L188 947"/><path pathLength="3333" clip-path="url(#z31627c14)" d="M512 537L585 569"/></g>
<g class="guides"><text class="g1" style="--gs:1" x="296" y="64">①</text><path class="g1 aligned" style="--gs:1" d="M296,64 Q325,100 318,119.5 Q311,139 282.5,186.5 Q254,234 216,268.5 Q216,268.5 178,303"/><path class="g1 offset" style="--gs:1" d="M200,64 Q214.5,85.54 211,97.21 Q207.5,108.87 193.25,137.29 Q179,165.72 160,186.36 Q160,186.36 141,207"/><text class="g2" style="--gs:2" x="340" y="155">②</text><path class="g2 aligned" style="--gs:2" d="M340,155 L493,133"/><path class="g2 offset" style="--gs:2" d="M340,251 L493,229"/><text class="g3" style="--gs:3" x="354" y="199">③</text><path class="g3 aligned" style="--gs:3" d="M354,199 L418,255"/><path class="g3 offset" style="--gs:3" d="M439.68,130.46 L503.68,186.46"/><text class="g4" style="--gs:4" x="568" y="35">④</text><path class="g4 aligned" style="--gs:4" d="M568,35 Q599,76 585.5,95 Q504.5,209 491,228"/><path class="g4 offset" style="--gs:4" d="M472,35 Q487.5,55.61 480.75,65.16 Q440.25,122.45 433.5,132"/><text class="g5" style="--gs:5" x="615" y="115">⑤</text><path class="g5 aligned" style="--gs:5" d="M615,115 L811,93"/><path class="g5 offset" style="--gs:5" d="M615,211 L811,189"/><text class="g6" style="--gs:6" x="609" y="176">⑥</text><path class="g6 aligned" style="--gs:6" d="M609,176 L708,242"/><path class="g6 offset" style="--gs:6" d="M694.68,107.46 L793.68,173.46"/><text class="g7" style="--gs:7" x="280" y="418">⑦</text><path class="g7 aligned" style="--gs:7" d="M280,418 L581,344"/><path class="g7 offset" style="--gs:7" d="M280,514 L581,440"/><text class="g8" style="--gs:8" x="363" y="295">⑧</text><path class="g8 aligned" style="--gs:8" d="M363,295 Q445,313 499,378.5 Q553,444 613.5,481.5 Q674,519 720,519.5 Q766,520 754.5,473 Q754.5,473 743,426"/><path class="g8 offset" style="--gs:8" d="M363,391 Q420.58,400 458.5,432.75 Q496.42,465.5 538.91,484.25 Q581.39,503 613.7,503.25 Q646,503.5 637.92,480 Q637.92,480 629.85,456.5"/><text class="g9" style="--gs:9" x="651" y="314">⑨</text><path class="g9 aligned" style="--gs:9" d="M660,332 Q617,409 596.5,422.5 Q473.5,503.5 453,517"/><path class="g9 offset" style="--gs:9" d="M564,332 Q542.5,370.5 532.25,377.25 Q470.75,417.75 460.5,424.5"/><text class="g10" style="--gs:10" x="733" y="283">⑩</text><path class="g10 aligned" style="--gs:10" d="M733,283 L833,351"/><path class="g10 offset" style="--gs:10" d="M818.68,214.46 L918.68,282.46"/><text class="g11" style="--gs:11" x="247" y="694">⑪</text><path class="g11 aligned" style="--gs:11" d="M247,694 L544,619"/><path class="g11 offset" style="--gs:11" d="M247,790 L544,715"/><text class="g12" style="--gs:12" x="314" y="515">⑫</text><path class="g12 aligned" style="--gs:12" d="M314,515 Q380,538 454,648 Q528,758 623,830.5 Q718,903 767.5,916 Q817,929 840,926 Q863,923 857.5,848 Q857.5,848 852,773"/><path class="g12 offset" style="--gs:12" d="M314,611 Q365.57,623.33 423.4,682.32 Q481.22,741.3 555.46,780.18 Q629.69,819.06 668.37,826.03 Q707.05,833 725.03,831.39 Q743,829.78 738.7,789.57 Q738.7,789.57 734.4,749.35"/><text class="g13" style="--gs:13" x="627" y="605">⑬</text><path class="g13 aligned" style="--gs:13" d="M627,605 Q648,662 575,729.5 Q502,797 417.5,847.5 Q333,898 260.5,922.5 Q260.5,922.5 188,947"/><path class="g13 offset" style="--gs:13" d="M531,605 Q546.52,646 492.57,694.55 Q438.61,743.11 376.15,779.43 Q313.7,815.75 260.11,833.38 Q260.11,833.38 206.52,851"/><text class="g14" style="--gs:14" x="512" y="537">⑭</text><path class="g14 aligned" style="--gs:14" d="M512,537 L585,569"/><path class="g14 offset" style="--gs:14" d="M512,633 L585,665"/></g>
</svg>
