<!--
  Stroke-order data for 箔, derived from AnimCJK (https://github.com/parsimonhi/animCJK),
  itself derived from the Arphic PL KaitiM fonts. Distributed under the Arphic Public License
  (see ARPHICPL.TXT). Regenerated by scripts/build-strokes.ts — do not edit by hand.
-->
<svg id="z31636" class="acjk" viewBox="0 0 1024 1024" xmlns="http://www.w3.org/2000/svg">
<g class="glyph"><path style="--part:1" id="z31636d1" d="M345 202C353 186 362 171 371 159C377 150 377 140 367 133C339 111 317 104 301 107C294 108 291 112 293 123C301 192 271 268 200 347C182 366 168 380 161 392C155 401 158 404 168 402C179 398 193 391 209 379C262 333 300 282 330 229C340 211 340 211 345 202Z"/><path style="--part:1" id="z31636d2" d="M330 229Q357 239 431 231Q462 225 498 220Q519 216 522 214Q531 207 527 199Q520 189 494 181Q466 174 439 185Q415 192 390 196Q368 199 345 202C335 204 320 225 330 229Z"/><path style="--part:1" id="z31636d3" d="M386 366C393 372 402 376 412 376C418 375 422 371 425 364C427 355 426 342 421 325C417 314 407 304 391 299C351 285 326 281 320 285C316 286 312 293 317 300C334 325 363 346 386 366Z"/><path style="--part:1" id="z31636d4" d="M634 188C635 184 646 157 674 109C679 99 678 91 667 84C639 65 616 57 600 62C593 63 590 70 593 79C606 135 588 202 533 278C525 287 512 300 500 324C494 334 497 337 507 334C540 323 581 283 622 210C630 195 630 195 634 188Z"/><path style="--part:1" id="z31636d5" d="M623 210Q662 234 717 217Q765 207 814 196Q836 190 840 187Q847 180 843 171Q836 161 808 154Q789 151 708 174Q674 181 634 188C626 189 615 206 622 210C623 210 623 210 623 210Z"/><path style="--part:1" id="z31636d6" d="M666 312C681 325 696 340 714 357C722 365 732 369 742 369C748 368 753 363 757 355C759 346 758 332 753 313C747 294 716 279 661 266C650 263 643 262 640 265C636 267 635 273 637 281C638 287 649 297 666 312Z"/><path style="--part:2" id="z31636d7" d="M248 452C274 477 295 494 314 499C322 500 330 496 335 488C338 479 338 469 336 460C332 445 323 435 311 429C278 412 253 408 235 415C234 415 233 415 233 416C229 417 227 421 230 429C231 435 238 442 248 452Z"/><path style="--part:2" id="z31636d8" d="M179 580C199 610 217 635 239 646C247 649 256 647 263 639C268 631 271 621 270 611C266 584 240 563 197 545C196 544 195 544 195 544C184 539 176 538 170 540C166 541 164 544 165 553C165 560 171 568 179 580Z"/><path style="--part:2" id="z31636d9" d="M200 797C192 800 187 805 189 817C194 865 209 894 229 910C233 913 238 916 246 915C250 914 252 905 256 890C262 853 303 762 375 615C379 605 382 598 382 594C382 587 379 586 373 590C361 598 317 655 241 761C232 773 219 786 200 797Z"/><path style="--part:2" id="z31636d10" d="M537 521C577 476 607 441 632 424C641 417 645 413 641 406C635 397 624 388 610 379C595 370 580 365 565 368C556 369 551 378 556 391C560 405 546 449 509 525C505 534 531 529 537 521Z"/><path style="--part:2" id="z31636d11" d="M476 526C456 511 445 508 428 502C422 500 420 501 416 504C410 507 410 511 416 522C442 573 450 666 445 797C442 846 454 879 479 896C494 906 499 879 502 863C503 850 502 838 502 826C499 774 497 741 496 706C495 687 495 687 495 678C493 637 496 578 498 562C501 548 487 534 476 526Z"/><path style="--part:2" id="z31636d12" d="M509 525C497 526 487 526 476 526C462 526 484 564 498 562C511 561 524 557 536 555C674 528 720 516 733 532C754 557 758 630 748 747C746 772 740 805 731 818C727 825 722 834 723 842C726 862 726 883 746 917C764 946 785 917 790 900C808 854 809 801 808 743C806 706 809 666 809 622C811 590 820 564 834 545C844 531 845 520 837 512C822 498 799 485 769 473C756 467 739 468 718 477C662 497 601 511 537 521C518 524 518 524 509 525Z"/><path style="--part:2" id="z31636d13" d="M496 706C510 709 565 697 673 683C689 680 695 674 689 665C681 654 667 647 649 643C630 639 579 650 495 678C486 681 487 706 496 706Z"/><path style="--part:2" id="z31636d14" d="M502 863C515 868 559 854 723 842C731 842 738 823 731 818C687 779 652 803 502 826C490 828 490 861 502 863Z"/></g>
<defs><clipPath id="z31636c1"><use href="#z31636d1"/></clipPath>
	<clipPath id="z31636c2"><use href="#z31636d2"/></clipPath>
	<clipPath id="z31636c3"><use href="#z31636d3"/></clipPath>
	<clipPath id="z31636c4"><use href="#z31636d4"/></clipPath>
	<clipPath id="z31636c5"><use href="#z31636d5"/></clipPath>
	<clipPath id="z31636c6"><use href="#z31636d6"/></clipPath>
	<clipPath id="z31636c7"><use href="#z31636d7"/></clipPath>
	<clipPath id="z31636c8"><use href="#z31636d8"/></clipPath>
	<clipPath id="z31636c9"><use href="#z31636d9"/></clipPath>
	<clipPath id="z31636c10"><use href="#z31636d10"/></clipPath>
	<clipPath id="z31636c11"><use href="#z31636d11"/></clipPath>
	<clipPath id="z31636c12"><use href="#z31636d12"/></clipPath>
	<clipPath id="z31636c13"><use href="#z31636d13"/></clipPath>
	<clipPath id="z31636c14"><use href="#z31636d14"/></clipPath><marker id="guide-arrow" viewBox="0 0 16 16" refX="5" refY="5" markerWidth="4" markerHeight="4" orient="auto-start-reverse"><path d="M 0 0 L 10 5 L 0 10 z" fill="inherit"/></marker></defs>
<g class="strokes"><path style="--part:1" pathLength="3333" clip-path="url(#z31636c1)" d="M301 112L334 153L307 220L240 326L165 397"/><path style="--part:1" pathLength="3333" clip-path="url(#z31636c2)" d="M331 221L521 201"/><path style="--part:1" pathLength="3333" clip-path="url(#z31636c3)" d="M321 291L418 366"/><path style="--part:1" pathLength="3333" clip-path="url(#z31636c4)" d="M601 69L636 105L625 143L572 254L504 328"/><path style="--part:1" pathLength="3333" clip-path="url(#z31636c5)" d="M625 204L837 171"/><path style="--part:1" pathLength="3333" clip-path="url(#z31636c6)" d="M643 270L749 362"/><path style="--part:2" pathLength="3333" clip-path="url(#z31636c7)" d="M235 420L332 486"/><path style="--part:2" pathLength="3333" clip-path="url(#z31636c8)" d="M172 544L253 643"/><path style="--part:2" pathLength="3333" clip-path="url(#z31636c9)" d="M192 810L246 856L375 595"/><path style="--part:2" pathLength="3333" clip-path="url(#z31636c10)" d="M564 372L596 420L517 524"/><path style="--part:2" pathLength="3333" clip-path="url(#z31636c11)" d="M418 508L466 564L484 893"/><path style="--part:2" pathLength="3333" clip-path="url(#z31636c12)" d="M480 531L518 541L729 498L789 530L758 924"/><path style="--part:2" pathLength="3333" clip-path="url(#z31636c13)" d="M491 693L686 669"/><path style="--part:2" pathLength="3333" clip-path="url(#z31636c14)" d="M496 847L730 827"/></g>
<g class="guides"><text class="g1" style="--gs:1" x="301" y="112">①</text><path class="g1 aligned" style="--gs:1" d="M301,112 Q334,153 320.5,186.5 Q307,220 273.5,273 Q240,326 202.5,361.5 Q202.5,361.5 165,397"/><path class="g1 offset" style="--gs:1" d="M205,112 Q221.5,139.19 214.75,161.41 Q208,183.62 191.25,218.77 Q174.5,253.92 155.75,277.46 Q155.75,277.46 137,301"/><text class="g2" style="--gs:2" x="331" y="221">②</text><path class="g2 aligned" style="--gs:2" d="M331,221 L521,201"/><path class="g2 offset" style="--gs:2" d="M331,317 L521,297"/><text class="g3" style="--gs:3" x="321" y="291">③</text><path class="g3 aligned" style="--gs:3" d="M321,291 L418,366"/><path class="g3 offset" style="--gs:3" d="M406.68,222.46 L503.68,297.46"/><text class="g4" style="--gs:4" x="601" y="69">④</text><path class="g4 aligned" style="--gs:4" d="M601,69 Q636,105 630.5,124 Q625,143 598.5,198.5 Q572,254 538,291 Q538,291 504,328"/><path class="g4 offset" style="--gs:4" d="M505,69 Q522.5,91.66 519.75,103.61 Q517,115.57 503.75,150.5 Q490.5,185.43 473.5,208.71 Q473.5,208.71 456.5,232"/><text class="g5" style="--gs:5" x="625" y="204">⑤</text><path class="g5 aligned" style="--gs:5" d="M625,204 L837,171"/><path class="g5 offset" style="--gs:5" d="M625,300 L837,267"/><text class="g6" style="--gs:6" x="643" y="270">⑥</text><path class="g6 aligned" style="--gs:6" d="M643,270 L749,362"/><path class="g6 offset" style="--gs:6" d="M728.68,201.46 L834.68,293.46"/><text class="g7" style="--gs:7" x="235" y="420">⑦</text><path class="g7 aligned" style="--gs:7" d="M235,420 L332,486"/><path class="g7 offset" style="--gs:7" d="M320.68,351.46 L417.68,417.46"/><text class="g8" style="--gs:8" x="172" y="544">⑧</text><path class="g8 aligned" style="--gs:8" d="M172,544 L253,643"/><path class="g8 offset" style="--gs:8" d="M257.68,475.46 L338.68,574.46"/><text class="g9" style="--gs:9" x="192" y="810">⑨</text><path class="g9 aligned" style="--gs:9" d="M192,810 Q246,856 262.13,823.38 Q358.88,627.63 375,595"/><path class="g9 offset" style="--gs:9" d="M123.46,741.46 Q177.46,775.38 193.58,751.32 Q290.33,606.98 306.46,582.92"/><text class="g10" style="--gs:10" x="564" y="372">⑩</text><path class="g10 aligned" style="--gs:10" d="M564,372 Q596,420 586.13,433 Q526.88,511 517,524"/><path class="g10 offset" style="--gs:10" d="M468,372 Q484,396 479.06,402.5 Q449.44,441.5 444.5,448"/><text class="g11" style="--gs:11" x="418" y="508">⑪</text><path class="g11 aligned" style="--gs:11" d="M418,508 Q466,564 468.25,605.13 Q481.75,851.88 484,893"/><path class="g11 offset" style="--gs:11" d="M503.68,439.46 Q551.68,495.46 553.93,536.58 Q567.43,783.33 569.68,824.46"/><text class="g12" style="--gs:12" x="480" y="531">⑫</text><path class="g12 aligned" style="--gs:12" d="M499,536 Q729,498 744,506 Q789,530 781.25,628.5 Q765.75,825.5 758,924"/><path class="g12 offset" style="--gs:12" d="M499,632 Q633.83,594 642.62,602 Q669,626 664.46,700.5 Q655.37,849.5 650.83,924"/><text class="g13" style="--gs:13" x="491" y="693">⑬</text><path class="g13 aligned" style="--gs:13" d="M491,693 L686,669"/><path class="g13 offset" style="--gs:13" d="M491,789 L686,765"/><text class="g14" style="--gs:14" x="496" y="847">⑭</text><path class="g14 aligned" style="--gs:14" d="M496,847 L730,827"/><path class="g14 offset" style="--gs:14" d="M496,943 L730,923"/></g>
<g class="parts"><rect data-part="2" data-literal="泊" role="button" tabindex="0" aria-label="Part 泊" x="100" y="300" width="761" height="696"/><rect data-part="1" data-literal="𥫗" data-radical="true" role="button" tabindex="0" aria-label="Part 𥫗 (radical)" x="93" y="0" width="816" height="469"/></g>
</svg>
