<!--
  Stroke-order data for 簡, derived from AnimCJK (https://github.com/parsimonhi/animCJK),
  itself derived from the Arphic PL KaitiM fonts. Distributed under the Arphic Public License
  (see ARPHICPL.TXT). Regenerated by scripts/build-strokes.ts — do not edit by hand.
-->
<svg id="z31777" class="acjk" viewBox="0 0 1024 1024" xmlns="http://www.w3.org/2000/svg">
<g class="glyph"><path style="--part:1" id="z31777d1" d="M324 196C336 177 349 162 362 147C367 140 364 129 356 121C332 99 313 91 297 93C290 93 287 97 288 108C293 159 270 219 212 279C209 281 188 298 177 317C171 325 174 328 183 327C192 325 204 320 218 311C256 282 288 250 312 214C320 202 320 202 324 196Z"/><path style="--part:1" id="z31777d2" d="M312 214Q349 236 398 221Q509 194 512 192Q519 185 515 178Q508 168 483 163Q458 159 432 170Q408 179 383 185Q355 192 324 196C317 197 306 211 312 214Z"/><path style="--part:1" id="z31777d3" d="M350 275C384 306 408 322 424 321C431 320 438 314 439 304C439 295 435 286 427 276C413 259 387 252 350 251C345 250 343 253 343 261C342 265 344 270 350 275Z"/><path style="--part:1" id="z31777d4" d="M613 166C624 145 637 129 649 111C653 103 651 89 642 83C615 63 593 57 580 61C573 62 571 67 573 76C582 128 561 189 509 256C497 271 485 282 480 293C475 301 478 304 487 302C495 299 507 294 520 283C554 253 581 221 601 187C609 173 609 173 613 166Z"/><path style="--part:1" id="z31777d5" d="M601 187C627 195 650 200 692 195C727 190 762 179 799 171C815 167 824 163 827 162C832 157 834 152 831 147C826 140 815 133 797 130C779 126 761 129 743 137C713 149 658 161 613 166C605 168 593 185 601 187Z"/><path style="--part:1" id="z31777d6" d="M629 253C645 263 662 275 679 288C685 292 692 294 700 294C704 293 708 290 710 284C711 277 710 268 703 254C697 244 689 235 673 231C637 219 615 217 608 222C605 223 603 227 606 233C607 237 616 244 629 253Z"/><path style="--part:2" id="z31777d7" d="M256 384C242 372 227 362 211 359C204 357 198 359 195 365C192 368 195 373 199 382C223 448 227 579 206 736C195 813 179 843 180 852C180 870 189 892 201 907C208 916 213 916 222 908C243 885 255 829 256 740C256 689 257 639 260 588C261 572 261 572 261 564C261 540 262 519 264 501C265 483 265 483 266 474C267 459 269 417 273 408C276 399 264 390 256 384Z"/><path style="--part:2" id="z31777d8" d="M372 568C383 585 400 585 411 574C419 564 425 541 429 506C433 458 441 423 455 404C462 393 463 383 454 375C443 365 429 355 411 346C402 341 392 343 383 347C344 362 302 375 256 384C246 386 264 412 273 408C296 399 356 375 383 386C388 387 389 397 389 411C386 451 383 488 381 523C380 533 377 540 371 543C364 548 367 561 372 568Z"/><path style="--part:2" id="z31777d9" d="M264 501Q310 491 347 484Q365 480 357 470Q348 460 328 457Q304 456 266 474C258 477 255 503 264 501Z"/><path style="--part:2" id="z31777d10" d="M260 588C271 587 299 579 372 568C380 567 379 546 371 543C360 538 349 540 340 542C322 545 296 552 261 564C254 567 252 590 260 588Z"/><path style="--part:2" id="z31777d11" d="M594 334C581 323 567 315 553 309C548 307 545 307 542 310C537 312 538 316 542 324C558 356 564 409 561 482C559 524 567 551 588 562C596 566 602 556 605 542C606 533 606 523 606 515C604 498 604 475 604 455C604 440 604 440 604 433C604 407 604 384 606 364C606 353 603 340 594 334Z"/><path style="--part:2" id="z31777d12" d="M755 523C760 679 759 782 753 830C751 845 748 855 746 860C743 864 735 864 721 862C703 859 684 857 667 853C654 849 644 852 649 857C684 890 719 913 741 937C751 948 759 957 770 960C776 961 783 959 788 953C814 915 826 879 824 848C815 743 809 607 804 439C802 400 805 372 815 355C822 342 823 332 815 325C800 312 780 301 756 292C743 287 732 286 723 292C690 310 647 324 594 334C583 336 595 366 606 364C612 364 647 355 712 339C722 336 731 337 738 344C744 350 750 401 754 496C755 514 755 514 755 523Z"/><path style="--part:2" id="z31777d13" d="M604 455Q603 456 610 455Q667 446 709 440Q728 437 721 426Q712 414 691 411Q660 408 604 433C597 436 597 455 604 455Z"/><path style="--part:2" id="z31777d14" d="M605 538C618 540 625 535 755 523C764 522 762 499 754 496C745 492 737 493 730 494C710 496 668 503 606 515C598 517 597 538 605 538Z"/><path style="--part:2" id="z31777d15" d="M422 619Q407 609 390 603Q383 602 378 608Q375 612 381 620Q408 698 382 787Q376 808 380 822Q387 847 396 858Q405 868 412 857Q418 850 422 837C426 820 426 820 428 812Q431 791 432 735C433 718 433 718 433 709Q434 658 437 645C439 635 430 625 422 619Z"/><path style="--part:2" id="z31777d16" d="M550 827C555 845 564 864 577 882C591 902 608 899 619 869C626 847 627 808 622 752C615 684 618 645 629 632C634 625 633 618 629 614C619 602 599 593 574 581C558 574 546 585 512 595C452 611 452 611 422 619C412 621 427 647 437 645C448 644 545 616 563 623C573 626 573 675 572 756C570 772 571 800 561 809C557 815 549 820 550 827Z"/><path style="--part:2" id="z31777d17" d="M432 735Q426 736 435 735Q490 728 532 722Q553 718 545 707Q535 694 513 691Q485 687 433 709C425 712 432 744 432 735Z"/><path style="--part:2" id="z31777d18" d="M422 837C434 841 449 836 550 827C557 826 565 814 561 809C554 800 544 795 531 793C506 789 470 795 428 812C420 815 414 835 422 837Z"/></g>
<defs><clipPath id="z31777c1"><use href="#z31777d1"/></clipPath>
	<clipPath id="z31777c2"><use href="#z31777d2"/></clipPath>
	<clipPath id="z31777c3"><use href="#z31777d3"/></clipPath>
	<clipPath id="z31777c4"><use href="#z31777d4"/></clipPath>
	<clipPath id="z31777c5"><use href="#z31777d5"/></clipPath>
	<clipPath id="z31777c6"><use href="#z31777d6"/></clipPath>
	<clipPath id="z31777c7"><use href="#z31777d7"/></clipPath>
	<clipPath id="z31777c8"><use href="#z31777d8"/></clipPath>
	<clipPath id="z31777c9"><use href="#z31777d9"/></clipPath>
	<clipPath id="z31777c10"><use href="#z31777d10"/></clipPath>
	<clipPath id="z31777c11"><use href="#z31777d11"/></clipPath>
	<clipPath id="z31777c12"><use href="#z31777d12"/></clipPath>
	<clipPath id="z31777c13"><use href="#z31777d13"/></clipPath>
	<clipPath id="z31777c14"><use href="#z31777d14"/></clipPath>
	<clipPath id="z31777c15"><use href="#z31777d15"/></clipPath>
	<clipPath id="z31777c16"><use href="#z31777d16"/></clipPath>
	<clipPath id="z31777c17"><use href="#z31777d17"/></clipPath>
	<clipPath id="z31777c18"><use href="#z31777d18"/></clipPath><marker id="guide-arrow" viewBox="0 0 16 16" refX="5" refY="5" markerWidth="4" markerHeight="4" orient="auto-start-reverse"><path d="M 0 0 L 10 5 L 0 10 z" fill="inherit"/></marker></defs>
<g class="strokes"><path style="--part:1" pathLength="3333" clip-path="url(#z31777c1)" d="M297 103L323 150L267 242L182 319"/><path style="--part:1" pathLength="3333" clip-path="url(#z31777c2)" d="M316 209L510 180"/><path style="--part:1" pathLength="3333" clip-path="url(#z31777c3)" d="M353 261L430 314"/><path style="--part:1" pathLength="3333" clip-path="url(#z31777c4)" d="M580 69L610 116L553 224L484 294"/><path style="--part:1" pathLength="3333" clip-path="url(#z31777c5)" d="M604 182L828 152"/><path style="--part:1" pathLength="3333" clip-path="url(#z31777c6)" d="M615 230L703 284"/><path style="--part:2" pathLength="3333" clip-path="url(#z31777c7)" d="M201 368L242 419L210 907"/><path style="--part:2" pathLength="3333" clip-path="url(#z31777c8)" d="M257 388L390 364L415 379L401 538L379 574"/><path style="--part:2" pathLength="3333" clip-path="url(#z31777c9)" d="M262 492L354 472"/><path style="--part:2" pathLength="3333" clip-path="url(#z31777c10)" d="M258 578L372 558"/><path style="--part:2" pathLength="3333" clip-path="url(#z31777c11)" d="M546 316L581 362L591 556"/><path style="--part:2" pathLength="3333" clip-path="url(#z31777c12)" d="M596 339L736 314L781 346L783 874L760 911L655 856"/><path style="--part:2" pathLength="3333" clip-path="url(#z31777c13)" d="M606 446L716 427"/><path style="--part:2" pathLength="3333" clip-path="url(#z31777c14)" d="M604 529L757 511"/><path style="--part:2" pathLength="3333" clip-path="url(#z31777c15)" d="M388 612L413 644L403 853"/><path style="--part:2" pathLength="3333" clip-path="url(#z31777c16)" d="M428 626L563 600L600 628L594 890"/><path style="--part:2" pathLength="3333" clip-path="url(#z31777c17)" d="M436 728L542 707"/><path style="--part:2" pathLength="3333" clip-path="url(#z31777c18)" d="M425 829L558 812"/></g>
<g class="guides"><text class="g1" style="--gs:1" x="297" y="103">①</text><path class="g1 aligned" style="--gs:1" d="M297,103 Q323,150 309,173 Q267,242 245.75,261.25 Q203.25,299.75 182,319"/><path class="g1 offset" style="--gs:1" d="M201,103 Q214,129.11 207,141.89 Q186,180.22 175.38,190.92 Q154.13,212.31 143.5,223"/><text class="g2" style="--gs:2" x="316" y="209">②</text><path class="g2 aligned" style="--gs:2" d="M316,209 L510,180"/><path class="g2 offset" style="--gs:2" d="M316,305 L510,276"/><text class="g3" style="--gs:3" x="353" y="261">③</text><path class="g3 aligned" style="--gs:3" d="M353,261 L430,314"/><path class="g3 offset" style="--gs:3" d="M438.68,192.46 L515.68,245.46"/><text class="g4" style="--gs:4" x="580" y="69">④</text><path class="g4 aligned" style="--gs:4" d="M580,69 Q610,116 595.75,143 Q553,224 535.75,241.5 Q501.25,276.5 484,294"/><path class="g4 offset" style="--gs:4" d="M484,69 Q499,95.95 491.88,111.43 Q470.5,157.87 461.88,167.9 Q444.63,187.97 436,198"/><text class="g5" style="--gs:5" x="604" y="182">⑤</text><path class="g5 aligned" style="--gs:5" d="M604,182 L828,152"/><path class="g5 offset" style="--gs:5" d="M604,278 L828,248"/><text class="g6" style="--gs:6" x="615" y="230">⑥</text><path class="g6 aligned" style="--gs:6" d="M615,230 L703,284"/><path class="g6 offset" style="--gs:6" d="M700.68,161.46 L788.68,215.46"/><text class="g7" style="--gs:7" x="201" y="368">⑦</text><path class="g7 aligned" style="--gs:7" d="M201,368 Q242,419 238,480 Q214,846 210,907"/><path class="g7 offset" style="--gs:7" d="M105,368 Q146,419 142,480 Q118,846 114,907"/><text class="g8" style="--gs:8" x="257" y="388">⑧</text><path class="g8 aligned" style="--gs:8" d="M257,388 Q390,364 402.5,371.5 Q415,379 408,458.5 Q401,538 390,556 Q390,556 379,574"/><path class="g8 offset" style="--gs:8" d="M257,484 Q323.5,460 329.75,467.5 Q336,475 332.5,554.5 Q329,634 323.5,652 Q323.5,652 318,670"/><text class="g9" style="--gs:9" x="262" y="492">⑨</text><path class="g9 aligned" style="--gs:9" d="M262,492 L354,472"/><path class="g9 offset" style="--gs:9" d="M262,588 L354,568"/><text class="g10" style="--gs:10" x="258" y="578">⑩</text><path class="g10 aligned" style="--gs:10" d="M258,578 L372,558"/><path class="g10 offset" style="--gs:10" d="M258,674 L372,654"/><text class="g11" style="--gs:11" x="546" y="316">⑪</text><path class="g11 aligned" style="--gs:11" d="M546,316 Q581,362 582.25,386.25 Q589.75,531.75 591,556"/><path class="g11 offset" style="--gs:11" d="M631.68,247.46 Q666.68,293.46 667.93,317.71 Q675.43,463.21 676.68,487.46"/><text class="g12" style="--gs:12" x="596" y="339">⑫</text><path class="g12 aligned" style="--gs:12" d="M596,339 Q736,314 758.5,330 Q781,346 782,610 Q783,874 771.5,892.5 Q760,911 707.5,883.5 Q707.5,883.5 655,856"/><path class="g12 offset" style="--gs:12" d="M596,435 Q666,410 677.25,426 Q688.5,442 689,706 Q689.5,970 683.75,988.5 Q678,1007 651.75,979.5 Q651.75,979.5 625.5,952"/><text class="g13" style="--gs:13" x="606" y="446">⑬</text><path class="g13 aligned" style="--gs:13" d="M606,446 L716,427"/><path class="g13 offset" style="--gs:13" d="M606,542 L716,523"/><text class="g14" style="--gs:14" x="604" y="529">⑭</text><path class="g14 aligned" style="--gs:14" d="M604,529 L757,511"/><path class="g14 offset" style="--gs:14" d="M604,625 L757,607"/><text class="g15" style="--gs:15" x="388" y="612">⑮</text><path class="g15 aligned" style="--gs:15" d="M401,628 L403,853"/><path class="g15 offset" style="--gs:15" d="M521,628 L523,853"/><text class="g16" style="--gs:16" x="428" y="626">⑯</text><path class="g16 aligned" style="--gs:16" d="M428,626 Q563,600 572.25,607 Q600,628 598.5,693.5 Q595.5,824.5 594,890"/><path class="g16 offset" style="--gs:16" d="M428,722 Q495.5,696 500.13,700.68 Q514,714.73 513.25,758.55 Q511.75,846.18 511,890"/><text class="g17" style="--gs:17" x="436" y="728">⑰</text><path class="g17 aligned" style="--gs:17" d="M436,728 L542,707"/><path class="g17 offset" style="--gs:17" d="M436,824 L542,803"/><text class="g18" style="--gs:18" x="425" y="829">⑱</text><path class="g18 aligned" style="--gs:18" d="M425,829 L558,812"/><path class="g18 offset" style="--gs:18" d="M425,925 L558,908"/></g>
<g class="parts"><rect data-part="2" data-literal="間" role="button" tabindex="0" aria-label="Part 間" x="129" y="242" width="726" height="741"/><rect data-part="1" data-literal="𥫗" data-radical="true" role="button" tabindex="0" aria-label="Part 𥫗 (radical)" x="110" y="0" width="790" height="391"/></g>
</svg>
