<svg id="z31896" class="acjk" viewBox="0 0 1024 1024" xmlns="http://www.w3.org/2000/svg">
<style>

@keyframes zk {
	to {
		stroke-dashoffset:0;
	}
}
svg.acjk path[clip-path] {
	--t:0.8s;
	animation:zk var(--t) linear forwards var(--d);
	stroke-dasharray:3337;
	stroke-dashoffset:3339;
	stroke-width:128;
	stroke-linecap:round;
	fill:none;
	stroke:#000;
}
svg.acjk path[id] {fill:#ccc;}


    @keyframes guide-fade {
        0% { opacity: 0; }
        3% { opacity: 1; }
        95% { opacity: 1; }
        100% { opacity: 0; }
    }

    svg.acjk #guide-arrow {
        fill: #f77;
    }

    svg.acjk .guides {
        circle {
            fill: #0f6;
        }

        path {
            opacity: 0;
            animation: guide-fade var(--t) linear forwards var(--d);
            stroke-width: 16px;
            stroke-linecap: round;
            stroke: #f77;
            fill: none;
            marker-end: url(#guide-arrow);
        }

        circle,
        path {
            --t: 0.8s;
            opacity: 0;
            animation: guide-fade calc(var(--t) + 0.4s) ease-in-out forwards calc(var(--d) - 0.2s);
        }
    }
</style>
<path id="z31896d1" d="M157 308Q178 336 199 367Q208 380 221 384Q231 385 237 375Q244 363 242 337Q239 307 163 266Q150 260 144 261Q140 264 138 275Q139 285 157 308Z"/>
<path id="z31896d2" d="M428 249Q415 280 382 329Q378 336 383 341Q390 342 396 337Q460 282 492 260Q507 254 502 245Q496 232 478 219Q460 206 441 205Q428 206 431 223Q435 235 428 249Z"/>
<path id="z31896d3" d="M339 462Q394 449 462 436Q478 433 478 426Q479 414 461 406Q430 394 340 423C312 430 312 430 298 434Q142 471 87 479Q75 480 72 488Q71 498 85 509Q121 533 185 510Q230 494 268 482C315 469 315 469 339 462Z"/>
<path id="z31896d4" d="M293 538Q289 688 276 750Q254 837 267 873Q271 885 277 898Q283 916 291 919Q297 925 304 917Q311 913 322 893Q332 868 331 838Q331 795 339 462C340 436 340 436 340 423Q340 231 365 146Q380 121 350 101Q335 89 310 75Q288 57 267 73Q263 77 268 93Q301 141 301 222Q301 342 298 434C295 503 295 503 293 538Z"/>
<path id="z31896d5" d="M268 482Q217 600 59 787Q53 797 64 798Q70 799 80 791Q213 688 294 538C324 487 287 425 268 481C268 482 268 482 268 482Z"/>
<path id="z31896d6" d="M359 541Q398 607 419 612Q431 615 438 600Q442 590 436 570Q430 554 410 543Q380 524 367 518Q360 515 357 525Q354 532 359 541Z"/>
<path id="z31896d7" d="M658 573Q662 470 668 373C669 355 669 355 669 346Q670 268 690 165Q694 153 672 137Q635 118 608 113Q590 110 582 119Q575 128 583 143Q610 182 610 208Q620 380 614 581C614 596 658 588 658 573Z"/>
<path id="z31896d8" d="M668 373Q696 382 769 367Q802 360 839 351Q861 345 864 342Q871 335 867 327Q860 317 833 311Q805 307 779 318Q754 327 727 334Q700 341 669 346C660 348 659 371 668 373Z"/>
<path id="z31896d9" d="M514 592Q504 588 481 583Q468 579 465 584Q458 590 466 606Q493 670 506 775Q507 806 524 828Q540 850 547 835Q551 823 552 806C551 783 551 783 550 772Q550 769 550 767Q535 655 534 623C534 611 525 597 514 592Z"/>
<path id="z31896d10" d="M795 746Q825 650 860 627Q878 608 863 589Q788 526 740 550Q695 562 658 573C629 578 629 578 614 581Q565 587 514 592C502 594 522 625 534 623Q541 622 551 619Q642 606 729 593Q751 589 761 599Q771 609 768 630Q756 691 741 741C734 758 788 763 795 746Z"/>
<path id="z31896d11" d="M552 806Q562 809 578 807Q651 792 810 784Q820 783 823 774Q823 765 795 746C779 737 759 737 741 741Q635 763 550 772C539 774 541 804 552 806Z"/>
<defs>
	<clipPath id="z31896c1"><use href="#z31896d1"/></clipPath>
	<clipPath id="z31896c2"><use href="#z31896d2"/></clipPath>
	<clipPath id="z31896c3"><use href="#z31896d3"/></clipPath>
	<clipPath id="z31896c4"><use href="#z31896d4"/></clipPath>
	<clipPath id="z31896c5"><use href="#z31896d5"/></clipPath>
	<clipPath id="z31896c6"><use href="#z31896d6"/></clipPath>
	<clipPath id="z31896c7"><use href="#z31896d7"/></clipPath>
	<clipPath id="z31896c8"><use href="#z31896d8"/></clipPath>
	<clipPath id="z31896c9"><use href="#z31896d9"/></clipPath>
	<clipPath id="z31896c10"><use href="#z31896d10"/></clipPath>
	<clipPath id="z31896c11"><use href="#z31896d11"/></clipPath>
<marker id="guide-arrow" viewBox="0 0 16 16" refX="5" refY="5" markerWidth="4" markerHeight="4" orient="auto-start-reverse"><path d="M 0 0 L 10 5 L 0 10 z" fill="inherit"/></marker></defs>
<path style="--d:1s;" pathLength="3333" clip-path="url(#z31896c1)" d="M146 269L227 378"/>
<path style="--d:2s;" pathLength="3333" clip-path="url(#z31896c2)" d="M438 215L461 259L386 335"/>
<path style="--d:3s;" pathLength="3333" clip-path="url(#z31896c3)" d="M76 488L152 493L472 417"/>
<path style="--d:4s;" pathLength="3333" clip-path="url(#z31896c4)" d="M272 77L331 142L293 916"/>
<path style="--d:5s;" pathLength="3333" clip-path="url(#z31896c5)" d="M288 482L209 629L64 792"/>
<path style="--d:6s;" pathLength="3333" clip-path="url(#z31896c6)" d="M364 526L429 605"/>
<path style="--d:7s;" pathLength="3333" clip-path="url(#z31896c7)" d="M586 124L648 173L625 577"/>
<path style="--d:8s;" pathLength="3333" clip-path="url(#z31896c8)" d="M673 367L864 330"/>
<path style="--d:9s;" pathLength="3333" clip-path="url(#z31896c9)" d="M471 592L506 632L539 835"/>
<path style="--d:10s;" pathLength="3333" clip-path="url(#z31896c10)" d="M523 593L781 575L819 611L755 742"/>
<path style="--d:11s;" pathLength="3333" clip-path="url(#z31896c11)" d="M556 775L816 767"/>
<g class="guides"><circle style="--d: 1s" class="g1" cx="146" cy="269" r="16"/><path style="--d: 1s;" class="g1" d="M231.68,200.45600000000002 L312.68,309.456"/><circle style="--d: 2s" class="g2" cx="438" cy="215" r="16"/><path style="--d: 2s;" class="g2" d="M342,215 Q353.5,237 348.8125,241.75 Q320.6875,270.25 316,275"/><circle style="--d: 3s" class="g3" cx="76" cy="488" r="16"/><path style="--d: 3s;" class="g3" d="M76,584 Q152,589 192,579.5 Q432,522.5 472,513"/><circle style="--d: 4s" class="g4" cx="272" cy="77" r="16"/><path style="--d: 4s;" class="g4" d="M176,77 Q235,142 230.25,238.75 Q201.75,819.25 197,916"/><circle style="--d: 5s" class="g5" cx="288" cy="482" r="16"/><path style="--d: 5s;" class="g5" d="M192,482 Q152.5,583.4774193548387 143.4375,597.542741935484 Q89.0625,681.9346774193548 80,696"/><circle style="--d: 6s" class="g6" cx="364" cy="526" r="16"/><path style="--d: 6s;" class="g6" d="M449.68,457.456 L514.68,536.456"/><circle style="--d: 7s" class="g7" cx="586" cy="124" r="16"/><path style="--d: 7s;" class="g7" d="M490,124 Q552,173 549.125,223.5 Q531.875,526.5 529,577"/><circle style="--d: 8s" class="g8" cx="673" cy="367" r="16"/><path style="--d: 8s;" class="g8" d="M673,463 L864,426"/><circle style="--d: 9s" class="g9" cx="471" cy="592" r="16"/><path style="--d: 9s;" class="g9" d="M556.68,523.456 Q591.68,563.456 595.805,588.831 Q620.555,741.081 624.68,766.456"/><circle style="--d: 10s" class="g10" cx="523" cy="593" r="16"/><path style="--d: 10s;" class="g10" d="M523,689 Q676.4054054054054,671 682.0540540540541,675.5 Q699,689 689.4864864864865,705.375 Q670.4594594594595,738.125 660.9459459459459,754.5"/><circle style="--d: 11s" class="g11" cx="556" cy="775" r="16"/><path style="--d: 11s;" class="g11" d="M556,871 L816,863"/></g></svg>