<!--
  Stroke-order data for 糠, derived from AnimCJK (https://github.com/parsimonhi/animCJK),
  itself derived from the Arphic PL KaitiM fonts. Distributed under the Arphic Public License
  (see ARPHICPL.TXT). Regenerated by scripts/build-strokes.ts — do not edit by hand.
-->
<svg id="z31968" class="acjk" viewBox="0 0 1024 1024" xmlns="http://www.w3.org/2000/svg">
<g class="glyph"><path style="--part:1" id="z31968d1" d="M122 314C140 347 158 375 181 391C187 395 197 392 204 386C209 380 212 372 212 362C211 335 186 309 140 283C131 278 124 276 118 277C115 277 113 280 113 288C112 294 115 302 122 314Z"/><path style="--part:1" id="z31968d2" d="M352 273C344 293 331 318 314 350C311 354 310 359 315 361C318 362 322 359 326 356C362 319 389 292 409 279C416 273 421 269 418 265C402 241 382 230 360 233C353 233 350 240 353 250C355 256 355 264 352 273Z"/><path style="--part:1" id="z31968d3" d="M288 453C337 441 363 441 383 426C388 421 389 414 387 410C382 402 371 397 355 394C339 390 318 397 290 406C262 414 262 414 248 418C197 432 117 449 79 456C58 459 53 469 70 476C125 496 171 479 222 468C266 458 266 458 288 453Z"/><path style="--part:1" id="z31968d4" d="M286 519C286 498 287 476 288 453C289 422 289 422 290 406C294 303 294 225 312 176C318 158 315 145 298 132C287 124 274 116 259 106C243 96 230 95 218 105C214 107 213 114 219 124C237 154 249 194 250 246C250 335 248 391 248 418C246 489 246 489 245 524C241 642 237 726 222 773C210 807 211 844 230 887C234 897 238 903 243 907C247 910 250 910 256 906C260 902 266 895 273 882C280 866 282 848 282 829C281 805 282 710 286 545C287 450 286 527 286 519Z"/><path style="--part:1" id="z31968d5" d="M70 747C140 685 200 612 246 524C275 476 233 413 222 468C212 510 140 637 70 721C41 754 48 765 70 747Z"/><path style="--part:1" id="z31968d6" d="M286 545C290 547 311 566 351 604C357 609 363 613 371 613C375 612 379 609 382 603C384 596 386 585 380 573C365 547 318 526 286 519C278 517 279 540 286 545Z"/><path style="--part:2" id="z31968d7" d="M593 106C608 116 624 130 642 145C650 152 660 154 671 154C677 153 682 148 685 140C687 130 685 115 677 97C669 80 638 67 585 60C574 58 566 59 564 61C560 63 559 69 562 77C563 83 574 93 593 106Z"/><path style="--part:2" id="z31968d8" d="M511 244C537 254 564 255 592 249C652 235 714 223 777 210C805 203 822 198 827 194C831 189 833 183 831 179C827 171 815 164 798 161C747 150 608 217 504 220C496 220 503 241 511 244Z"/><path style="--part:2" id="z31968d9" d="M485 472C491 424 498 354 502 300C503 276 506 258 511 244C514 236 511 225 504 220C494 211 481 203 465 197C437 185 419 191 431 212C441 229 450 257 450 300C449 499 400 686 303 838C276 879 301 881 327 851C412 750 467 605 483 487C484 477 484 477 485 472Z"/><path style="--part:2" id="z31968d10" d="M772 518C778 496 782 472 793 446C798 430 805 416 814 402C821 389 829 380 838 372C848 362 849 350 839 341C822 326 807 317 791 310C760 297 750 314 685 333C649 343 649 343 631 348C603 355 573 356 544 363C518 368 539 381 550 385C581 394 603 383 632 377C665 370 665 370 681 366C747 351 771 353 757 417C752 440 752 440 749 451C743 473 735 496 729 518C726 532 769 532 772 518Z"/><path style="--part:2" id="z31968d11" d="M793 446C835 441 870 439 910 437C932 435 942 426 919 411C886 389 856 390 814 402C776 412 776 412 757 417C734 422 699 431 678 435C648 440 648 440 633 443C583 451 498 464 485 472C480 474 479 484 483 487C498 498 521 502 538 497C568 486 599 477 634 471C663 466 663 466 678 463C698 459 721 454 749 451C778 448 778 448 793 446Z"/><path style="--part:2" id="z31968d12" d="M680 568C710 562 747 559 789 553C819 548 803 532 772 518C760 511 742 513 729 518C714 525 695 527 679 532C650 539 650 539 635 543C599 551 566 556 537 562C524 564 519 573 530 580C561 599 602 582 636 576C665 571 665 571 680 568Z"/><path style="--part:2" id="z31968d13" d="M682 629C681 608 680 588 680 568C679 544 679 544 679 532C678 509 678 486 678 463C678 444 678 444 678 435C678 412 678 387 681 366C684 344 684 344 685 333C689 294 701 284 656 263C635 253 620 249 609 254C599 258 598 267 608 280C617 292 629 314 631 348C632 367 632 367 632 377C632 393 632 415 633 443C634 462 634 462 634 471C634 491 634 515 635 543C636 565 636 565 636 576C637 640 638 718 640 811C640 856 575 833 558 828C521 817 521 824 550 846C589 876 614 897 626 915C653 956 664 959 683 916C694 889 698 854 695 811C691 764 685 719 684 675C683 644 683 644 682 629Z"/><path style="--part:2" id="z31968d14" d="M506 635C518 645 531 658 547 673C552 678 559 680 567 681C571 681 575 677 578 671C580 664 579 654 575 641C570 626 546 612 503 602C496 600 491 600 488 602C484 603 483 607 485 613C486 617 494 624 506 635Z"/><path style="--part:2" id="z31968d15" d="M432 793C425 795 422 799 423 805C423 811 427 816 434 819C448 823 465 828 484 831C489 831 496 827 500 821C507 808 533 777 581 728C587 721 592 714 597 708C601 701 604 696 602 692C600 689 594 690 589 695C500 754 448 787 432 793Z"/><path style="--part:2" id="z31968d16" d="M737 694C805 644 830 626 853 616C863 611 867 603 861 594C855 584 843 576 829 569C816 562 806 559 800 561C793 561 794 565 793 573C786 610 765 633 726 682C722 686 733 697 737 694Z"/><path style="--part:2" id="z31968d17" d="M726 682C708 662 694 644 682 629C672 617 676 662 684 675C770 807 827 875 855 873C889 870 910 869 953 862C994 854 964 844 951 839C875 805 821 776 790 747C770 728 753 712 737 694C730 686 730 686 726 682Z"/></g>
<defs><clipPath id="z31968c1"><use href="#z31968d1"/></clipPath>
	<clipPath id="z31968c2"><use href="#z31968d2"/></clipPath>
	<clipPath id="z31968c3"><use href="#z31968d3"/></clipPath>
	<clipPath id="z31968c4"><use href="#z31968d4"/></clipPath>
	<clipPath id="z31968c5"><use href="#z31968d5"/></clipPath>
	<clipPath id="z31968c6"><use href="#z31968d6"/></clipPath>
	<clipPath id="z31968c7"><use href="#z31968d7"/></clipPath>
	<clipPath id="z31968c8"><use href="#z31968d8"/></clipPath>
	<clipPath id="z31968c9"><use href="#z31968d9"/></clipPath>
	<clipPath id="z31968c10"><use href="#z31968d10"/></clipPath>
	<clipPath id="z31968c11"><use href="#z31968d11"/></clipPath>
	<clipPath id="z31968c12"><use href="#z31968d12"/></clipPath>
	<clipPath id="z31968c13"><use href="#z31968d13"/></clipPath>
	<clipPath id="z31968c14"><use href="#z31968d14"/></clipPath>
	<clipPath id="z31968c15"><use href="#z31968d15"/></clipPath>
	<clipPath id="z31968c16"><use href="#z31968d16"/></clipPath>
	<clipPath id="z31968c17"><use href="#z31968d17"/></clipPath><marker id="guide-arrow" viewBox="0 0 16 16" refX="5" refY="5" markerWidth="4" markerHeight="4" orient="auto-start-reverse"><path d="M 0 0 L 10 5 L 0 10 z" fill="inherit"/></marker></defs>
<g class="strokes"><path style="--part:1" pathLength="3333" clip-path="url(#z31968c1)" d="M121 284L197 388"/><path style="--part:1" pathLength="3333" clip-path="url(#z31968c2)" d="M360 241L383 275L319 352"/><path style="--part:1" pathLength="3333" clip-path="url(#z31968c3)" d="M67 465L382 415"/><path style="--part:1" pathLength="3333" clip-path="url(#z31968c4)" d="M220 108L278 177L251 901"/><path style="--part:1" pathLength="3333" clip-path="url(#z31968c5)" d="M238 451L194 574L58 749"/><path style="--part:1" pathLength="3333" clip-path="url(#z31968c6)" d="M287 526L375 607"/><path style="--part:2" pathLength="3333" clip-path="url(#z31968c7)" d="M567 67L651 112L674 149"/><path style="--part:2" pathLength="3333" clip-path="url(#z31968c8)" d="M508 227L578 231L826 180"/><path style="--part:2" pathLength="3333" clip-path="url(#z31968c9)" d="M434 200L478 240L451 529L396 702L302 863"/><path style="--part:2" pathLength="3333" clip-path="url(#z31968c10)" d="M540 371L746 335L793 352L803 370L739 525"/><path style="--part:2" pathLength="3333" clip-path="url(#z31968c11)" d="M485 477L851 417L926 424"/><path style="--part:2" pathLength="3333" clip-path="url(#z31968c12)" d="M533 571L797 539"/><path style="--part:2" pathLength="3333" clip-path="url(#z31968c13)" d="M608 261L658 314L666 843L638 894L539 831"/><path style="--part:2" pathLength="3333" clip-path="url(#z31968c14)" d="M490 608L573 670"/><path style="--part:2" pathLength="3333" clip-path="url(#z31968c15)" d="M425 804L482 799L596 697"/><path style="--part:2" pathLength="3333" clip-path="url(#z31968c16)" d="M799 568L820 610L733 689"/><path style="--part:2" pathLength="3333" clip-path="url(#z31968c17)" d="M682 639L841 825L965 850"/></g>
<g class="guides"><text class="g1" style="--gs:1" x="121" y="284">①</text><path class="g1 aligned" style="--gs:1" d="M121,284 L197,388"/><path class="g1 offset" style="--gs:1" d="M206.68,215.46 L282.68,319.46"/><text class="g2" style="--gs:2" x="360" y="241">②</text><path class="g2 aligned" style="--gs:2" d="M372,258 L319,352"/><path class="g2 offset" style="--gs:2" d="M492,258 L439,352"/><text class="g3" style="--gs:3" x="67" y="465">③</text><path class="g3 aligned" style="--gs:3" d="M67,465 L382,415"/><path class="g3 offset" style="--gs:3" d="M67,561 L382,511"/><text class="g4" style="--gs:4" x="220" y="108">④</text><path class="g4 aligned" style="--gs:4" d="M220,108 Q278,177 274.63,267.5 Q254.38,810.5 251,901"/><path class="g4 offset" style="--gs:4" d="M124,108 Q182,177 178.63,267.5 Q158.38,810.5 155,901"/><text class="g5" style="--gs:5" x="238" y="451">⑤</text><path class="g5 aligned" style="--gs:5" d="M238,451 Q194,574 177,595.88 Q75,727.13 58,749"/><path class="g5 offset" style="--gs:5" d="M142,451 Q120,534.38 111.5,549.2 Q60.5,638.17 52,653"/><text class="g6" style="--gs:6" x="287" y="526">⑥</text><path class="g6 aligned" style="--gs:6" d="M287,526 L375,607"/><path class="g6 offset" style="--gs:6" d="M372.68,457.46 L460.68,538.46"/><text class="g7" style="--gs:7" x="567" y="67">⑦</text><path class="g7 aligned" style="--gs:7" d="M567,67 Q651,112 653.88,116.63 Q671.13,144.38 674,149"/><path class="g7 offset" style="--gs:7" d="M652.68,-1.54 Q736.68,43.46 739.56,48.08 Q756.81,75.83 759.68,80.46"/><text class="g8" style="--gs:8" x="508" y="227">⑧</text><path class="g8 aligned" style="--gs:8" d="M508,227 Q578,231 609,224.63 Q795,186.38 826,180"/><path class="g8 offset" style="--gs:8" d="M508,323 Q578,327 609,320.63 Q795,282.38 826,276"/><text class="g9" style="--gs:9" x="434" y="200">⑨</text><path class="g9 aligned" style="--gs:9" d="M434,200 Q478,240 464.5,384.5 Q451,529 423.5,615.5 Q396,702 349,782.5 Q349,782.5 302,863"/><path class="g9 offset" style="--gs:9" d="M338,200 Q382,240 368.5,384.5 Q355,529 327.5,615.5 Q300,702 253,782.5 Q253,782.5 206,863"/><text class="g10" style="--gs:10" x="540" y="371">⑩</text><path class="g10 aligned" style="--gs:10" d="M540,371 Q746,335 769.5,343.5 Q793,352 798,361 Q803,370 771,447.5 Q771,447.5 739,525"/><path class="g10 offset" style="--gs:10" d="M540,467 Q652.01,431 664.79,439.5 Q677.56,448 680.28,457 Q683,466 665.6,496 Q665.6,496 648.2,526"/><text class="g11" style="--gs:11" x="485" y="477">⑪</text><path class="g11 aligned" style="--gs:11" d="M485,477 Q851,417 860.38,417.88 Q916.63,423.13 926,424"/><path class="g11 offset" style="--gs:11" d="M485,573 Q851,513 860.38,513.88 Q916.63,519.13 926,520"/><text class="g12" style="--gs:12" x="533" y="571">⑫</text><path class="g12 aligned" style="--gs:12" d="M533,571 L797,539"/><path class="g12 offset" style="--gs:12" d="M533,667 L797,635"/><text class="g13" style="--gs:13" x="608" y="261">⑬</text><path class="g13 aligned" style="--gs:13" d="M608,261 Q658,314 662,578.5 Q666,843 652,868.5 Q638,894 588.5,862.5 Q588.5,862.5 539,831"/><path class="g13 offset" style="--gs:13" d="M512,261 Q537,305.96 539,530.35 Q541,754.73 534,776.37 Q527,798 502.25,771.28 Q502.25,771.28 477.5,744.55"/><text class="g14" style="--gs:14" x="490" y="608">⑭</text><path class="g14 aligned" style="--gs:14" d="M490,608 L573,670"/><path class="g14 offset" style="--gs:14" d="M575.68,539.46 L658.68,601.46"/><text class="g15" style="--gs:15" x="425" y="804">⑮</text><path class="g15 aligned" style="--gs:15" d="M425,804 Q482,799 496.25,786.25 Q581.75,709.75 596,697"/><path class="g15 offset" style="--gs:15" d="M425,708 Q482,703 496.25,690.25 Q581.75,613.75 596,601"/><text class="g16" style="--gs:16" x="799" y="568">⑯</text><path class="g16 aligned" style="--gs:16" d="M799,568 Q820,610 809.13,619.88 Q743.88,679.13 733,689"/><path class="g16 offset" style="--gs:16" d="M703,568 Q713.5,589 708.06,593.94 Q675.44,623.56 670,628.5"/><text class="g17" style="--gs:17" x="682" y="639">⑰</text><path class="g17 aligned" style="--gs:17" d="M682,639 Q841,825 856.5,828.13 Q949.5,846.88 965,850"/><path class="g17 offset" style="--gs:17" d="M767.68,570.46 Q878.54,732.25 889.35,734.97 Q954.19,751.28 965,754"/></g>
<g class="parts"><rect data-part="2" data-literal="康" role="button" tabindex="0" aria-label="Part 康" x="230" y="0" width="794" height="966"/><rect data-part="1" data-literal="米" data-radical="true" role="button" tabindex="0" aria-label="Part 米 (radical)" x="0" y="36" width="455" height="937"/></g>
</svg>
