<!--
  Stroke-order data for 素, derived from AnimCJK (https://github.com/parsimonhi/animCJK),
  itself derived from the Arphic PL KaitiM fonts. Distributed under the Arphic Public License
  (see ARPHICPL.TXT). Regenerated by scripts/build-strokes.ts — do not edit by hand.
-->
<svg id="z32032" class="acjk" viewBox="0 0 1024 1024" xmlns="http://www.w3.org/2000/svg">
<g class="glyph"><path style="--part:1" id="z32032d1" d="M539 200Q710 167 713 166Q722 159 718 151Q712 139 686 132Q659 125 631 134Q586 147 542 158C503 166 503 166 483 170Q417 179 342 183Q308 187 331 203Q368 227 420 218Q451 212 485 208C521 203 521 203 539 200Z"/><path style="--part:1" id="z32032d2" d="M524 375Q527 339 530 305C532 278 532 278 533 265Q534 231 539 200C541 172 541 172 542 158Q543 137 556 99Q559 89 540 75Q507 56 485 52Q469 49 462 57Q455 64 462 78Q481 103 481 121Q482 145 483 170C484 195 484 195 485 208Q486 239 486 274C486 299 486 299 486 312Q485 343 485 380C485 393 524 388 524 375Z"/><path style="--part:1" id="z32032d3" d="M530 305Q692 272 694 272Q701 266 698 258Q692 248 668 240Q643 234 616 243Q574 255 533 265C502 271 502 271 486 274Q422 284 349 289Q318 293 339 308Q369 327 442 318Q463 314 486 312C515 307 515 307 530 305Z"/><path style="--part:1" id="z32032d4" d="M470 412Q579 397 905 398Q926 398 930 389Q937 377 919 363Q859 317 796 335Q690 353 524 375C498 378 498 378 485 380Q319 396 125 417Q103 418 119 437Q134 452 152 458Q174 464 191 459Q302 431 428 417C456 414 456 414 470 412Z"/><path style="--part:2" id="z32032d5" d="M504 558Q447 554 400 552Q379 551 391 538Q436 498 476 470Q492 458 491 451Q491 439 470 412C461 401 431 403 428 417Q422 462 347 528Q299 544 326 593Q333 603 345 599Q376 586 475 581C487 581 516 558 504 558Z"/><path style="--part:2" id="z32032d6" d="M524 680Q523 679 525 679Q595 663 667 654C675 652 659 636 651 636Q552 643 438 662Q425 663 435 656Q481 619 587 548Q624 520 653 506Q668 500 664 489Q660 467 633 441Q620 428 611 428Q601 429 598 444Q592 480 512 553Q508 554 504 558C485 573 485 573 475 581Q366 656 358 661Q342 667 341 682Q340 695 360 718Q367 731 384 724Q439 699 494 686C504 684 515 685 524 680Z"/><path style="--part:2" id="z32032d7" d="M667 654Q697 693 711 696Q720 697 725 687Q731 675 728 651Q727 630 699 609Q630 570 620 573Q616 576 615 587Q616 596 635 617Q642 626 651 636C662 648 662 648 667 654Z"/><path style="--part:2" id="z32032d8" d="M494 686Q506 713 507 852Q506 855 505 858Q501 871 477 868Q452 862 423 858Q413 857 411 863Q410 869 420 878Q481 926 503 955Q518 968 528 965Q538 961 549 929Q565 898 562 840Q559 780 560 758Q567 721 550 701Q535 686 524 680C515 675 490 677 494 686Z"/><path style="--part:2" id="z32032d9" d="M319 758Q294 801 261 839Q239 869 251 903Q255 921 277 911Q328 880 337 816Q346 785 342 761Q338 752 333 750Q324 751 319 758Z"/><path style="--part:2" id="z32032d10" d="M653 771Q701 816 758 881Q774 902 789 906Q798 907 805 897Q818 884 805 841Q793 790 654 740Q645 736 643 747Q642 760 653 771Z"/></g>
<defs><clipPath id="z32032c1"><use href="#z32032d1"/></clipPath>
	<clipPath id="z32032c2"><use href="#z32032d2"/></clipPath>
	<clipPath id="z32032c3"><use href="#z32032d3"/></clipPath>
	<clipPath id="z32032c4"><use href="#z32032d4"/></clipPath>
	<clipPath id="z32032c5"><use href="#z32032d5"/></clipPath>
	<clipPath id="z32032c6"><use href="#z32032d6"/></clipPath>
	<clipPath id="z32032c7"><use href="#z32032d7"/></clipPath>
	<clipPath id="z32032c8"><use href="#z32032d8"/></clipPath>
	<clipPath id="z32032c9"><use href="#z32032d9"/></clipPath>
	<clipPath id="z32032c10"><use href="#z32032d10"/></clipPath><marker id="guide-arrow" viewBox="0 0 16 16" refX="5" refY="5" markerWidth="4" markerHeight="4" orient="auto-start-reverse"><path d="M 0 0 L 10 5 L 0 10 z" fill="inherit"/></marker></defs>
<g class="strokes"><path style="--part:1" pathLength="3333" clip-path="url(#z32032c1)" d="M331 192L427 197L712 155"/><path style="--part:1" pathLength="3333" clip-path="url(#z32032c2)" d="M466 62L518 105L496 377"/><path style="--part:1" pathLength="3333" clip-path="url(#z32032c3)" d="M339 298L694 260"/><path style="--part:1" pathLength="3333" clip-path="url(#z32032c4)" d="M117 424L185 435L811 364L927 383"/><path style="--part:2" pathLength="3333" clip-path="url(#z32032c5)" d="M465 417L355 565L493 563"/><path style="--part:2" pathLength="3333" clip-path="url(#z32032c6)" d="M610 434L621 489L389 675L407 694L658 652"/><path style="--part:2" pathLength="3333" clip-path="url(#z32032c7)" d="M622 580L723 686"/><path style="--part:2" pathLength="3333" clip-path="url(#z32032c8)" d="M501 689L532 731L530 881L505 916L418 866"/><path style="--part:2" pathLength="3333" clip-path="url(#z32032c9)" d="M330 759L257 907"/><path style="--part:2" pathLength="3333" clip-path="url(#z32032c10)" d="M650 748L764 836L798 900"/></g>
<g class="guides"><text class="g1" style="--gs:1" x="331" y="192">①</text><path class="g1 aligned" style="--gs:1" d="M331,192 Q427,197 462.63,191.75 Q676.38,160.25 712,155"/><path class="g1 offset" style="--gs:1" d="M331,288 Q427,293 462.63,287.75 Q676.38,256.25 712,251"/><text class="g2" style="--gs:2" x="466" y="62">②</text><path class="g2 aligned" style="--gs:2" d="M466,62 Q518,105 515.25,139 Q498.75,343 496,377"/><path class="g2 offset" style="--gs:2" d="M370,62 Q422,105 419.25,139 Q402.75,343 400,377"/><text class="g3" style="--gs:3" x="339" y="298">③</text><path class="g3 aligned" style="--gs:3" d="M339,298 L694,260"/><path class="g3 offset" style="--gs:3" d="M339,394 L694,356"/><text class="g4" style="--gs:4" x="117" y="424">④</text><path class="g4 aligned" style="--gs:4" d="M117,424 Q185,435 341.5,417.25 Q811,364 840,368.75 Q898,378.25 927,383"/><path class="g4 offset" style="--gs:4" d="M117,520 Q185,531 341.5,513.25 Q811,460 840,464.75 Q898,474.25 927,479"/><text class="g5" style="--gs:5" x="465" y="417">⑤</text><path class="g5 aligned" style="--gs:5" d="M465,417 Q355,565 372.25,564.75 Q475.75,563.25 493,563"/><path class="g5 offset" style="--gs:5" d="M585,417 Q475,491 492.25,490.88 Q595.75,490.13 613,490"/><text class="g6" style="--gs:6" x="610" y="434">⑥</text><path class="g6 aligned" style="--gs:6" d="M610,434 Q621,489 505,582 Q389,675 398,684.5 Q407,694 532.5,673 Q532.5,673 658,652"/><path class="g6 offset" style="--gs:6" d="M730,434 Q736.09,468.69 671.84,527.35 Q607.59,586.02 612.57,592.01 Q617.56,598 687.07,584.75 Q687.07,584.75 756.59,571.51"/><text class="g7" style="--gs:7" x="622" y="580">⑦</text><path class="g7 aligned" style="--gs:7" d="M622,580 L723,686"/><path class="g7 offset" style="--gs:7" d="M707.68,511.46 L808.68,617.46"/><text class="g8" style="--gs:8" x="501" y="689">⑧</text><path class="g8 aligned" style="--gs:8" d="M501,689 Q532,731 531,806 Q530,881 517.5,898.5 Q505,916 461.5,891 Q461.5,891 418,866"/><path class="g8 offset" style="--gs:8" d="M405,689 Q420.5,713.24 420,756.52 Q419.5,799.8 413.25,809.9 Q407,820 385.25,805.57 Q385.25,805.57 363.5,791.15"/><text class="g9" style="--gs:9" x="330" y="759">⑨</text><path class="g9 aligned" style="--gs:9" d="M330,759 L257,907"/><path class="g9 offset" style="--gs:9" d="M450,759 L377,907"/><text class="g10" style="--gs:10" x="650" y="748">⑩</text><path class="g10 aligned" style="--gs:10" d="M650,748 Q764,836 768.25,844 Q793.75,892 798,900"/><path class="g10 offset" style="--gs:10" d="M735.68,679.46 Q849.68,767.46 853.93,775.46 Q879.43,823.46 883.68,831.46"/></g>
<g class="parts"><rect data-part="1" data-literal="龶" role="button" tabindex="0" aria-label="Part 龶" x="45" y="0" width="954" height="507"/><rect data-part="2" data-literal="糸" data-radical="true" role="button" tabindex="0" aria-label="Part 糸 (radical)" x="185" y="345" width="685" height="643"/></g>
</svg>
