<!--
  Stroke-order data for 紡, derived from AnimCJK (https://github.com/parsimonhi/animCJK),
  itself derived from the Arphic PL KaitiM fonts. Distributed under the Arphic Public License
  (see ARPHICPL.TXT). Regenerated by scripts/build-strokes.ts — do not edit by hand.
-->
<svg id="z32033" class="acjk" viewBox="0 0 1024 1024" xmlns="http://www.w3.org/2000/svg">
<g class="glyph"><path id="z32033d1" d="M324 385Q272 389 229 394Q201 397 214 378Q284 254 354 161Q367 143 365 135Q362 120 322 89Q306 76 286 79Q274 83 281 98Q300 149 196 335Q177 363 147 392Q128 408 130 420Q136 439 152 458Q162 468 176 460Q201 442 307 412C317 410 335 385 324 385Z"/><path id="z32033d2" d="M381 512Q326 527 265 553Q246 562 257 544Q296 489 386 378Q414 338 439 316Q452 306 445 296Q435 277 399 257Q383 248 373 251Q363 255 365 271Q366 304 324 385C313 403 313 403 307 412Q208 556 180 575Q167 585 170 599Q171 612 199 631Q211 641 225 629Q285 578 390 531C397 528 388 511 381 512Z"/><path id="z32033d3" d="M390 531Q409 564 425 570Q438 574 448 559Q452 547 448 526Q439 496 384 471Q377 467 372 478Q369 485 381 512C387 525 387 525 390 531Z"/><path id="z32033d4" d="M139 759Q155 793 173 833Q180 852 196 857Q206 861 217 850Q227 838 231 806Q232 770 154 711Q141 701 133 701Q126 702 123 716Q122 729 139 759Z"/><path id="z32033d5" d="M261 694Q282 736 304 754Q314 758 324 751Q331 742 332 729Q329 693 278 668Q266 661 258 662Q254 662 253 672Q252 681 261 694Z"/><path id="z32033d6" d="M363 643Q399 700 411 702Q418 703 425 695Q432 685 431 661Q428 639 368 606Q358 602 352 602Q348 603 346 614Q347 623 363 643Z"/><path id="z32033d7" d="M609 162Q640 190 675 222Q691 237 710 236Q723 235 728 219Q734 201 723 167Q716 143 679 127Q595 97 576 104Q570 108 572 125Q576 138 609 162Z"/><path id="z32033d8" d="M655 391Q766 364 929 340Q941 341 949 328Q950 315 926 305Q890 283 800 313Q616 358 490 377Q475 378 460 382Q430 386 453 404Q489 428 529 419Q566 410 610 401C640 394 640 394 655 391Z"/><path id="z32033d9" d="M650 517Q659 535 724 549Q764 556 763 594Q724 732 722 736Q719 739 718 745Q690 811 661 821Q646 827 605 810Q566 791 562 798Q556 808 574 820Q619 865 625 896Q631 914 642 921Q655 927 691 905Q751 860 795 699Q816 615 841 601Q853 597 855 587Q856 577 833 549Q800 516 750 516Q708 512 663 493C655 490 645 510 650 517Z"/><path id="z32033d10" d="M663 493Q678 463 694 445Q701 439 699 429Q698 419 684 407Q671 397 655 391C641 385 607 386 610 401Q628 483 497 664Q491 670 486 677Q446 726 345 824Q336 830 347 832Q407 823 518 707Q581 635 650 517C659 501 659 501 663 493Z"/></g>
<defs><clipPath id="z32033c1"><use href="#z32033d1"/></clipPath>
	<clipPath id="z32033c2"><use href="#z32033d2"/></clipPath>
	<clipPath id="z32033c3"><use href="#z32033d3"/></clipPath>
	<clipPath id="z32033c4"><use href="#z32033d4"/></clipPath>
	<clipPath id="z32033c5"><use href="#z32033d5"/></clipPath>
	<clipPath id="z32033c6"><use href="#z32033d6"/></clipPath>
	<clipPath id="z32033c7"><use href="#z32033d7"/></clipPath>
	<clipPath id="z32033c8"><use href="#z32033d8"/></clipPath>
	<clipPath id="z32033c9"><use href="#z32033d9"/></clipPath>
	<clipPath id="z32033c10"><use href="#z32033d10"/></clipPath><marker id="guide-arrow" viewBox="0 0 16 16" refX="5" refY="5" markerWidth="4" markerHeight="4" orient="auto-start-reverse"><path d="M 0 0 L 10 5 L 0 10 z" fill="inherit"/></marker></defs>
<g class="strokes"><path pathLength="3333" clip-path="url(#z32033c1)" d="M287 87L323 142L171 408L185 427L316 392"/><path pathLength="3333" clip-path="url(#z32033c2)" d="M376 256L401 309L215 573L239 594L383 522"/><path pathLength="3333" clip-path="url(#z32033c3)" d="M380 479L435 564"/><path pathLength="3333" clip-path="url(#z32033c4)" d="M133 708L191 790L203 853"/><path pathLength="3333" clip-path="url(#z32033c5)" d="M259 669L314 751"/><path pathLength="3333" clip-path="url(#z32033c6)" d="M353 608L415 698"/><path pathLength="3333" clip-path="url(#z32033c7)" d="M579 111L666 161L722 225"/><path pathLength="3333" clip-path="url(#z32033c8)" d="M449 389L516 397L942 323"/><path pathLength="3333" clip-path="url(#z32033c9)" d="M658 516L765 540L809 588L736 780L685 856L644 870L567 805"/><path pathLength="3333" clip-path="url(#z32033c10)" d="M616 407L653 446L582 580L486 710L350 827"/></g>
<g class="guides"><text class="g1" style="--gs:1" x="287" y="87">①</text><path class="g1 aligned" style="--gs:1" d="M287,87 Q323,142 247,275 Q171,408 178,417.5 Q185,427 250.5,409.5 Q250.5,409.5 316,392"/><path class="g1 offset" style="--gs:1" d="M372.68,18.46 Q390.68,69.01 352.68,191.27 Q314.68,313.53 318.18,322.27 Q321.68,331 354.43,314.91 Q354.43,314.91 387.18,298.83"/><text class="g2" style="--gs:2" x="376" y="256">②</text><path class="g2 aligned" style="--gs:2" d="M376,256 Q401,309 308,441 Q215,573 227,583.5 Q239,594 311,558 Q311,558 383,522"/><path class="g2 offset" style="--gs:2" d="M496,256 Q508.5,293.95 462,388.46 Q415.5,482.96 421.5,490.48 Q427.5,498 463.5,472.22 Q463.5,472.22 499.5,446.45"/><text class="g3" style="--gs:3" x="380" y="479">③</text><path class="g3 aligned" style="--gs:3" d="M380,479 L435,564"/><path class="g3 offset" style="--gs:3" d="M465.68,410.46 L520.68,495.46"/><text class="g4" style="--gs:4" x="133" y="708">④</text><path class="g4 aligned" style="--gs:4" d="M133,708 Q191,790 192.5,797.88 Q201.5,845.13 203,853"/><path class="g4 offset" style="--gs:4" d="M218.68,639.46 Q276.68,721.46 278.18,729.33 Q287.18,776.58 288.68,784.46"/><text class="g5" style="--gs:5" x="259" y="669">⑤</text><path class="g5 aligned" style="--gs:5" d="M259,669 L314,751"/><path class="g5 offset" style="--gs:5" d="M344.68,600.46 L399.68,682.46"/><text class="g6" style="--gs:6" x="353" y="608">⑥</text><path class="g6 aligned" style="--gs:6" d="M353,608 L415,698"/><path class="g6 offset" style="--gs:6" d="M438.68,539.46 L500.68,629.46"/><text class="g7" style="--gs:7" x="579" y="111">⑦</text><path class="g7 aligned" style="--gs:7" d="M579,111 Q666,161 673,169 Q715,217 722,225"/><path class="g7 offset" style="--gs:7" d="M664.68,42.46 Q751.68,92.46 758.68,100.46 Q800.68,148.46 807.68,156.46"/><text class="g8" style="--gs:8" x="449" y="389">⑧</text><path class="g8 aligned" style="--gs:8" d="M449,389 Q516,397 569.25,387.75 Q888.75,332.25 942,323"/><path class="g8 offset" style="--gs:8" d="M449,485 Q516,493 569.25,483.75 Q888.75,428.25 942,419"/><text class="g9" style="--gs:9" x="658" y="516">⑨</text><path class="g9 aligned" style="--gs:9" d="M658,516 Q765,540 787,564 Q809,588 772.5,684 Q736,780 710.5,818 Q685,856 664.5,863 Q644,870 605.5,837.5 Q605.5,837.5 567,805"/><path class="g9 offset" style="--gs:9" d="M562,612 Q615.5,624 626.5,636 Q637.5,648 619.25,696 Q601,744 588.25,763 Q575.5,782 565.25,785.5 Q555,789 535.75,772.75 Q535.75,772.75 516.5,756.5"/><text class="g10" style="--gs:10" x="616" y="407">⑩</text><path class="g10 aligned" style="--gs:10" d="M616,407 Q653,446 617.5,513 Q582,580 534,645 Q486,710 418,768.5 Q418,768.5 350,827"/><path class="g10 offset" style="--gs:10" d="M520,407 Q545.28,437.09 521.02,488.77 Q496.77,540.46 463.98,590.6 Q431.19,640.74 384.73,685.87 Q384.73,685.87 338.28,731"/></g>
</svg>
