<svg id="z32034" class="acjk" viewBox="0 0 1024 1024" xmlns="http://www.w3.org/2000/svg">
<style>

@keyframes zk {
	to {
		stroke-dashoffset:0;
	}
}
svg.acjk path[clip-path] {
	--t:0.8s;
	animation:zk var(--t) linear forwards var(--d);
	stroke-dasharray:3337;
	stroke-dashoffset:3339;
	stroke-width:128;
	stroke-linecap:round;
	fill:none;
	stroke:#000;
}
svg.acjk path[id] {fill:#ccc;}


    @keyframes guide-fade {
        0% { opacity: 0; }
        3% { opacity: 1; }
        95% { opacity: 1; }
        100% { opacity: 0; }
    }

    svg.acjk #guide-arrow {
        fill: #f77;
    }

    svg.acjk .guides {
        circle {
            fill: #0f6;
        }

        path {
            opacity: 0;
            animation: guide-fade var(--t) linear forwards var(--d);
            stroke-width: 16px;
            stroke-linecap: round;
            stroke: #f77;
            fill: none;
            marker-end: url(#guide-arrow);
        }

        circle,
        path {
            --t: 0.8s;
            opacity: 0;
            animation: guide-fade calc(var(--t) + 0.4s) ease-in-out forwards calc(var(--d) - 0.2s);
        }
    }
</style>
<path id="z32034d1" d="M542 200Q707 169 714 163Q723 156 719 148Q712 136 684 128Q660 122 550 153C511 162 511 162 491 166Q430 176 362 181Q326 185 351 202Q390 229 448 215Q467 211 490 209C525 203 525 203 542 200Z"/>
<path id="z32034d2" d="M526 299Q533 247 542 200C547 169 547 169 550 153Q550 129 569 81Q573 71 555 56Q524 37 501 30Q485 26 478 34Q471 41 477 55Q490 77 491 92Q492 128 491 166C490 195 490 195 490 209Q489 254 485 304C485 318 523 313 526 299Z"/>
<path id="z32034d3" d="M255 333Q245 308 234 299Q216 283 213 309Q217 339 167 395Q124 431 151 493Q164 521 186 494Q205 470 220 433Q239 388 252 363C256 354 259 342 255 333Z"/>
<path id="z32034d4" d="M499 333Q721 299 761 307Q779 320 776 328Q776 332 753 397Q746 410 753 415Q760 419 777 406Q829 370 872 358Q908 346 907 338Q906 328 832 276Q811 260 734 272Q629 282 526 299C499 302 499 302 485 304Q431 310 369 320Q311 327 255 333C245 335 243 358 252 363Q279 379 314 369Q425 338 459 338C486 335 486 335 499 333Z"/>
<path id="z32034d5" d="M504 514Q494 510 474 508Q432 501 408 496Q402 492 403 488Q403 485 506 402Q545 386 499 333C489 323 456 325 459 338Q465 362 426 417Q375 474 352 478Q310 479 310 523Q309 527 311 531Q314 547 329 540Q347 528 475 534Q476 534 478 535C489 537 514 518 504 514Z"/>
<path id="z32034d6" d="M515 637Q582 621 648 611C655 610 642 594 635 594Q538 603 423 625Q414 626 420 621Q466 584 573 512Q609 485 637 472Q650 466 648 456Q644 435 618 410Q605 397 596 397Q586 398 584 413Q578 449 504 514C487 528 487 528 478 535Q364 622 345 628Q332 634 331 646Q330 659 350 681Q357 694 373 686Q425 661 482 646C504 640 504 640 515 637Z"/>
<path id="z32034d7" d="M648 611Q666 633 685 660Q694 673 706 675Q715 676 721 667Q728 657 726 631Q723 595 630 542Q618 536 612 537Q608 540 606 550Q607 560 625 581Q629 587 635 594C644 605 644 605 648 611Z"/>
<path id="z32034d8" d="M482 646Q482 647 484 651Q497 685 494 793Q493 841 488 852Q484 865 459 862Q425 853 387 845Q377 845 375 851Q374 858 384 866Q457 920 483 952Q501 967 512 963Q522 959 535 926Q551 893 548 833Q547 748 548 717Q555 677 539 657Q526 644 515 637C505 631 478 635 482 646Z"/>
<path id="z32034d9" d="M326 732Q295 780 254 820Q230 847 239 885Q243 904 266 896Q321 869 341 794Q351 763 350 737Q346 727 341 725Q332 725 326 732Z"/>
<path id="z32034d10" d="M649 760Q697 803 753 869Q769 890 784 894Q793 895 801 885Q814 872 802 827Q789 770 651 728Q641 722 639 735Q638 748 649 760Z"/>
<defs>
	<clipPath id="z32034c1"><use href="#z32034d1"/></clipPath>
	<clipPath id="z32034c2"><use href="#z32034d2"/></clipPath>
	<clipPath id="z32034c3"><use href="#z32034d3"/></clipPath>
	<clipPath id="z32034c4"><use href="#z32034d4"/></clipPath>
	<clipPath id="z32034c5"><use href="#z32034d5"/></clipPath>
	<clipPath id="z32034c6"><use href="#z32034d6"/></clipPath>
	<clipPath id="z32034c7"><use href="#z32034d7"/></clipPath>
	<clipPath id="z32034c8"><use href="#z32034d8"/></clipPath>
	<clipPath id="z32034c9"><use href="#z32034d9"/></clipPath>
	<clipPath id="z32034c10"><use href="#z32034d10"/></clipPath>
<marker id="guide-arrow" viewBox="0 0 16 16" refX="5" refY="5" markerWidth="4" markerHeight="4" orient="auto-start-reverse"><path d="M 0 0 L 10 5 L 0 10 z" fill="inherit"/></marker></defs>
<path style="--d:1s;" pathLength="3333" clip-path="url(#z32034c1)" d="M351 192L716 153"/>
<path style="--d:2s;" pathLength="3333" clip-path="url(#z32034c2)" d="M481 37L530 85L496 301"/>
<path style="--d:3s;" pathLength="3333" clip-path="url(#z32034c3)" d="M222 298L227 355L162 502"/>
<path style="--d:4s;" pathLength="3333" clip-path="url(#z32034c4)" d="M256 357L763 287L819 312L850 352L759 407"/>
<path style="--d:5s;" pathLength="3333" clip-path="url(#z32034c5)" d="M466 341L487 381L358 511L493 516"/>
<path style="--d:6s;" pathLength="3333" clip-path="url(#z32034c6)" d="M595 404L607 456L380 642L394 657L639 606"/>
<path style="--d:7s;" pathLength="3333" clip-path="url(#z32034c7)" d="M614 543L710 669"/>
<path style="--d:8s;" pathLength="3333" clip-path="url(#z32034c8)" d="M489 650L521 693L506 898L485 912L382 852"/>
<path style="--d:9s;" pathLength="3333" clip-path="url(#z32034c9)" d="M339 733L247 890"/>
<path style="--d:10s;" pathLength="3333" clip-path="url(#z32034c10)" d="M645 733L757 819L793 888"/>
<g class="guides"><circle style="--d: 1s" class="g1" cx="351" cy="192" r="16"/><path style="--d: 1s;" class="g1" d="M351,288 L716,249"/><circle style="--d: 2s" class="g2" cx="481" cy="37" r="16"/><path style="--d: 2s;" class="g2" d="M385,37 Q434,85 429.75,112 Q404.25,274 400,301"/><circle style="--d: 3s" class="g3" cx="222" cy="298" r="16"/><path style="--d: 3s;" class="g3" d="M342,298 Q347,355 338.875,373.375 Q290.125,483.625 282,502"/><circle style="--d: 4s" class="g4" cx="256" cy="357" r="16"/><path style="--d: 4s;" class="g4" d="M256,453 Q644.3585858585859,383 665.8063973063973,395.5 Q687.2542087542088,408 699.1271043771044,428 Q711,448 676.1473063973065,475.5 Q676.1473063973065,475.5 641.2946127946128,503"/><circle style="--d: 5s" class="g5" cx="466" cy="341" r="16"/><path style="--d: 5s;" class="g5" d="M586,341 Q596.5,361 580.375,377.25 Q532,426 548.875,426.625 Q582.625,427.875 599.5,428.5"/><circle style="--d: 6s" class="g6" cx="595" cy="404" r="16"/><path style="--d: 6s;" class="g6" d="M715,404 Q721.4401544401544,436.2687747035573 660.527027027027,493.98023715415025 Q599.6138996138995,551.6916996047431 603.3706563706563,556.3458498023715 Q607.1274131274131,561 672.8706563706564,545.1758893280632 Q672.8706563706564,545.1758893280632 738.6138996138997,529.3517786561265"/><circle style="--d: 7s" class="g7" cx="614" cy="543" r="16"/><path style="--d: 7s;" class="g7" d="M699.68,474.456 L795.68,600.456"/><circle style="--d: 8s" class="g8" cx="489" cy="650" r="16"/><path style="--d: 8s;" class="g8" d="M393,650 Q409,677.2442748091603 405.25,742.1870229007634 Q401.5,807.1297709923664 396.25,811.5648854961833 Q391,816 365.25,796.9923664122138 Q365.25,796.9923664122138 339.5,777.9847328244275"/><circle style="--d: 9s" class="g9" cx="339" cy="733" r="16"/><path style="--d: 9s;" class="g9" d="M459,733 L367,890"/><circle style="--d: 10s" class="g10" cx="645" cy="733" r="16"/><path style="--d: 10s;" class="g10" d="M730.68,664.456 Q842.68,750.456 847.18,759.081 Q874.18,810.831 878.68,819.456"/></g></svg>