<svg id="z32043" class="acjk" viewBox="0 0 1024 1024" xmlns="http://www.w3.org/2000/svg">
<style>

@keyframes zk {
	to {
		stroke-dashoffset:0;
	}
}
svg.acjk path[clip-path] {
	--t:0.8s;
	animation:zk var(--t) linear forwards var(--d);
	stroke-dasharray:3337;
	stroke-dashoffset:3339;
	stroke-width:128;
	stroke-linecap:round;
	fill:none;
	stroke:#000;
}
svg.acjk path[id] {fill:#ccc;}


    @keyframes guide-fade {
        0% { opacity: 0; }
        3% { opacity: 1; }
        95% { opacity: 1; }
        100% { opacity: 0; }
    }

    svg.acjk #guide-arrow {
        fill: #f77;
    }

    svg.acjk .guides {
        circle {
            fill: #0f6;
        }

        path {
            opacity: 0;
            animation: guide-fade var(--t) linear forwards var(--d);
            stroke-width: 16px;
            stroke-linecap: round;
            stroke: #f77;
            fill: none;
            marker-end: url(#guide-arrow);
        }

        circle,
        path {
            --t: 0.8s;
            opacity: 0;
            animation: guide-fade calc(var(--t) + 0.4s) ease-in-out forwards calc(var(--d) - 0.2s);
        }
    }
</style>
<path id="z32043d1" d="M393 339Q394 293 396 251C397 228 397 228 398 217Q398 189 409 123Q410 114 395 102Q365 89 346 86Q333 83 326 91Q320 97 328 109Q344 130 345 145Q355 239 359 349C359 361 393 351 393 339Z"/>
<path id="z32043d2" d="M396 251Q451 235 495 224Q516 218 506 207Q494 195 470 194Q422 194 398 217C390 225 385 253 396 251Z"/>
<path id="z32043d3" d="M279 371Q273 247 271 242Q268 238 265 236Q244 221 220 214Q208 210 200 216Q194 222 200 235Q215 257 223 281Q227 303 242 381C244 394 279 384 279 371Z"/>
<path id="z32043d4" d="M460 345Q499 324 502 313Q498 309 485 310Q440 323 393 339C370 346 370 346 359 349Q319 359 279 371C254 378 254 378 242 381Q169 393 162 394Q150 395 149 404Q146 416 155 424Q176 439 205 456Q214 460 225 452Q270 419 434 356C451 349 451 349 460 345Z"/>
<path id="z32043d5" d="M595 265Q647 246 680 230Q756 194 779 189Q801 185 795 166Q786 147 765 129Q746 111 733 111Q721 110 723 123Q720 147 614 228Q604 234 595 242C590 247 588 268 595 265Z"/>
<path id="z32043d6" d="M896 343Q883 307 877 246Q876 231 869 226Q862 222 858 239Q836 312 823 324Q813 336 786 344Q693 368 628 347Q598 331 595 265C595 250 595 250 595 242Q595 175 617 124Q629 97 611 82Q566 46 552 50Q539 54 545 71Q561 105 557 155Q550 326 576 360Q594 384 658 395Q707 402 783 400Q853 397 880 382Q905 370 896 343Z"/>
<path id="z32043d7" d="M482 529Q430 525 386 522Q364 519 377 507Q432 453 480 416Q495 404 494 397Q495 385 468 353Q464 349 460 345C453 338 434 347 434 356Q437 389 365 472Q349 491 322 506Q304 516 304 526Q305 542 314 559Q321 569 333 566Q363 554 457 551C468 551 493 529 482 529Z"/>
<path id="z32043d8" d="M525 646Q586 630 648 622Q649 621 656 621C663 621 651 603 644 603Q547 610 430 632Q412 636 425 624Q468 585 568 511Q602 481 632 466Q645 459 642 448Q636 427 608 402Q595 389 585 390Q575 391 573 407Q569 458 482 529C465 544 465 544 457 551Q361 629 346 635Q331 642 332 655Q331 668 353 691Q360 704 377 695Q429 670 482 656C511 649 511 649 525 646Z"/>
<path id="z32043d9" d="M656 621Q680 660 694 662Q703 663 709 655Q716 645 715 619Q715 598 690 576Q630 531 616 534Q612 535 610 546Q610 552 644 603C652 615 652 615 656 621Z"/>
<path id="z32043d10" d="M482 656Q492 693 492 789Q492 844 487 856Q483 869 461 864Q437 860 412 854Q400 853 399 859Q398 866 408 875Q466 926 486 956Q499 969 510 967Q520 963 533 930Q549 897 547 837Q543 746 545 713Q552 673 535 653Q531 649 525 646C512 638 479 642 482 656Z"/>
<path id="z32043d11" d="M287 726Q260 772 225 811Q203 841 215 874Q219 893 241 883Q292 852 305 784Q314 753 310 729Q306 720 301 718Q292 718 287 726Z"/>
<path id="z32043d12" d="M649 742Q701 788 762 854Q778 873 793 878Q802 879 809 869Q821 856 808 813Q804 791 786 775Q767 760 725 741Q676 720 650 712Q641 706 639 719Q639 732 649 742Z"/>
<defs>
	<clipPath id="z32043c1"><use href="#z32043d1"/></clipPath>
	<clipPath id="z32043c2"><use href="#z32043d2"/></clipPath>
	<clipPath id="z32043c3"><use href="#z32043d3"/></clipPath>
	<clipPath id="z32043c4"><use href="#z32043d4"/></clipPath>
	<clipPath id="z32043c5"><use href="#z32043d5"/></clipPath>
	<clipPath id="z32043c6"><use href="#z32043d6"/></clipPath>
	<clipPath id="z32043c7"><use href="#z32043d7"/></clipPath>
	<clipPath id="z32043c8"><use href="#z32043d8"/></clipPath>
	<clipPath id="z32043c9"><use href="#z32043d9"/></clipPath>
	<clipPath id="z32043c10"><use href="#z32043d10"/></clipPath>
	<clipPath id="z32043c11"><use href="#z32043d11"/></clipPath>
	<clipPath id="z32043c12"><use href="#z32043d12"/></clipPath>
<marker id="guide-arrow" viewBox="0 0 16 16" refX="5" refY="5" markerWidth="4" markerHeight="4" orient="auto-start-reverse"><path d="M 0 0 L 10 5 L 0 10 z" fill="inherit"/></marker></defs>
<path style="--d:1s;" pathLength="3333" clip-path="url(#z32043c1)" d="M331 95L376 133L368 344"/>
<path style="--d:2s;" pathLength="3333" clip-path="url(#z32043c2)" d="M399 243L504 213"/>
<path style="--d:3s;" pathLength="3333" clip-path="url(#z32043c3)" d="M204 220L244 256L253 376"/>
<path style="--d:4s;" pathLength="3333" clip-path="url(#z32043c4)" d="M153 404L214 421L491 315"/>
<path style="--d:5s;" pathLength="3333" clip-path="url(#z32043c5)" d="M733 114L747 168L598 253"/>
<path style="--d:6s;" pathLength="3333" clip-path="url(#z32043c6)" d="M551 55L588 105L576 276L615 363L715 378L834 361L861 344L869 232"/>
<path style="--d:7s;" pathLength="3333" clip-path="url(#z32043c7)" d="M460 352L456 399L340 525L352 543L473 532"/>
<path style="--d:8s;" pathLength="3333" clip-path="url(#z32043c8)" d="M584 396L602 449L380 650L399 665L648 616"/>
<path style="--d:9s;" pathLength="3333" clip-path="url(#z32043c9)" d="M619 543L702 656"/>
<path style="--d:10s;" pathLength="3333" clip-path="url(#z32043c10)" d="M490 664L518 696L507 894L489 914L405 862"/>
<path style="--d:11s;" pathLength="3333" clip-path="url(#z32043c11)" d="M297 727L224 880"/>
<path style="--d:12s;" pathLength="3333" clip-path="url(#z32043c12)" d="M646 719L766 806L801 871"/>
<g class="guides"><circle style="--d: 1s" class="g1" cx="331" cy="95" r="16"/><path style="--d: 1s;" class="g1" d="M235,95 Q280,133 279,159.375 Q273,317.625 272,344"/><circle style="--d: 2s" class="g2" cx="399" cy="243" r="16"/><path style="--d: 2s;" class="g2" d="M399,339 L504,309"/><circle style="--d: 3s" class="g3" cx="204" cy="220" r="16"/><path style="--d: 3s;" class="g3" d="M289.68,151.45600000000002 Q329.68,187.45600000000002 330.805,202.45600000000002 Q337.555,292.456 338.68,307.456"/><circle style="--d: 4s" class="g4" cx="153" cy="404" r="16"/><path style="--d: 4s;" class="g4" d="M153,500 Q214,517 248.625,503.75 Q456.375,424.25 491,411"/><circle style="--d: 5s" class="g5" cx="733" cy="114" r="16"/><path style="--d: 5s;" class="g5" d="M637,114 Q644,141 634.6875,146.3125 Q578.8125,178.1875 569.5,183.5"/><circle style="--d: 6s" class="g6" cx="551" cy="55" r="16"/><path style="--d: 6s;" class="g6" d="M619.544,-13.543999999999997 Q638.044,36.456 635.044,121.956 Q632.044,207.45600000000002 641.794,250.95600000000002 Q651.544,294.456 676.544,301.956 Q701.544,309.456 731.294,300.956 Q761.044,292.456 767.794,283.956 Q774.544,275.456 776.544,219.45600000000002 Q776.544,219.45600000000002 778.544,163.45600000000002"/><circle style="--d: 7s" class="g7" cx="460" cy="352" r="16"/><path style="--d: 7s;" class="g7" d="M580,352 Q578,375.5 549,407 Q520,438.5 523,443 Q526,447.5 556.25,444.75 Q556.25,444.75 586.5,442"/><circle style="--d: 8s" class="g8" cx="584" cy="396" r="16"/><path style="--d: 8s;" class="g8" d="M704,396 Q713.9402985074627,430.08550185873605 652.641791044776,494.7193308550186 Q591.3432835820895,559.3531598513011 596.5895522388059,564.1765799256506 Q601.8358208955224,569 670.5895522388059,553.2434944237918 Q670.5895522388059,553.2434944237918 739.3432835820895,537.4869888475837"/><circle style="--d: 9s" class="g9" cx="619" cy="543" r="16"/><path style="--d: 9s;" class="g9" d="M704.68,474.456 L787.68,587.456"/><circle style="--d: 10s" class="g10" cx="490" cy="664" r="16"/><path style="--d: 10s;" class="g10" d="M394,664 Q408,683.712 405.25,744.696 Q402.5,805.6800000000001 398,811.84 Q393.5,818 372.5,801.9839999999999 Q372.5,801.9839999999999 351.5,785.968"/><circle style="--d: 11s" class="g11" cx="297" cy="727" r="16"/><path style="--d: 11s;" class="g11" d="M417,727 L344,880"/><circle style="--d: 12s" class="g12" cx="646" cy="719" r="16"/><path style="--d: 12s;" class="g12" d="M731.68,650.456 Q851.68,737.456 856.055,745.581 Q882.305,794.331 886.68,802.456"/></g></svg>