<!--
  Stroke-order data for 絞, derived from AnimCJK (https://github.com/parsimonhi/animCJK),
  itself derived from the Arphic PL KaitiM fonts. Distributed under the Arphic Public License
  (see ARPHICPL.TXT). Regenerated by scripts/build-strokes.ts — do not edit by hand.
-->
<svg id="z32094" class="acjk" viewBox="0 0 1024 1024" xmlns="http://www.w3.org/2000/svg">
<g class="glyph"><path id="z32094d1" d="M318 414C289 413 263 413 240 413C216 413 212 407 223 391C273 312 317 240 364 181C373 168 378 160 377 156C374 146 360 129 334 108C323 99 311 95 298 98C289 99 288 106 293 117C305 145 279 215 218 328C203 353 183 379 155 403C142 413 136 422 138 430C140 442 145 456 156 469C161 475 171 476 183 471C207 458 246 446 302 440C312 438 328 414 318 414Z"/><path id="z32094d2" d="M372 547C340 553 305 564 268 580C253 586 250 582 259 569C283 532 327 476 386 399C406 372 423 349 441 334C449 326 451 318 447 312C438 299 422 286 398 273C387 267 378 264 371 267C364 269 361 276 363 288C365 310 345 368 318 414C307 431 307 431 302 440C240 540 194 591 178 602C167 608 165 616 168 627C170 636 180 646 199 660C208 667 215 667 226 658C251 633 303 603 381 565C387 562 379 546 372 547Z"/><path id="z32094d3" d="M381 565C387 578 398 586 409 590C417 593 426 589 432 579C435 571 435 559 432 546C426 525 404 508 368 491C363 488 359 490 356 498C354 502 358 519 372 547C378 559 378 559 381 565Z"/><path id="z32094d4" d="M138 776C145 790 150 807 157 825C161 837 169 844 180 849C186 851 194 849 201 842C208 834 213 819 215 798C216 782 195 758 154 727C145 720 138 716 133 717C128 717 123 722 122 732C120 740 127 755 138 776Z"/><path id="z32094d5" d="M262 722C291 757 308 778 316 780C320 781 325 777 329 771C333 764 333 753 332 737C330 726 324 715 310 707C276 687 255 680 248 682C245 682 243 686 243 694C243 700 250 708 262 722Z"/><path id="z32094d6" d="M377 680C386 690 394 703 404 716C410 724 418 728 427 729C433 729 437 725 441 719C445 711 444 699 442 683C440 674 434 664 420 657C386 639 365 633 360 637C357 638 355 643 355 651C355 657 363 665 377 680Z"/><path id="z32094d7" d="M631 171C646 182 660 197 677 212C687 221 698 224 709 223C715 222 721 217 725 208C728 197 726 181 718 161C710 142 678 129 623 121C612 119 604 118 600 121C595 123 594 129 597 139C599 145 611 155 631 171Z"/><path id="z32094d8" d="M540 326C515 330 512 338 531 349C559 365 592 366 631 357C695 340 762 325 831 308C861 300 879 293 884 289C890 283 891 277 888 272C883 264 870 257 850 254C830 250 787 267 717 288C621 315 561 322 540 326Z"/><path id="z32094d9" d="M544 430C543 456 515 505 455 573C445 583 446 585 462 582C493 575 540 536 602 463C609 453 619 444 616 434C613 426 603 421 588 418C571 414 559 413 552 416C547 417 544 421 544 430Z"/><path id="z32094d10" d="M754 441C780 454 806 470 835 487C845 493 855 494 865 492C871 490 876 484 877 476C878 466 873 452 864 435C856 421 841 409 816 405C758 393 725 393 719 401C716 403 715 409 719 417C722 424 734 431 754 441Z"/><path id="z32094d11" d="M699 685C714 651 722 632 732 601C740 573 746 555 753 547C759 539 758 532 753 526C745 517 734 511 717 505C703 500 691 496 680 500C671 502 670 508 675 518C691 550 684 597 660 654C655 665 649 676 643 687C604 745 543 785 454 818C441 822 427 825 415 831C403 836 405 841 418 842C524 847 612 808 677 724C686 712 692 698 699 685Z"/><path id="z32094d12" d="M677 724C753 806 801 850 822 857C856 867 910 865 984 856C996 854 1003 853 1004 850C1006 845 1002 841 992 837C859 779 791 747 786 744C768 732 737 715 699 685C673 664 673 664 660 654C646 643 633 630 620 617C580 578 556 554 545 546C538 541 534 543 534 553C533 563 570 607 643 687C666 712 666 712 677 724Z"/></g>
<defs><clipPath id="z32094c1"><use href="#z32094d1"/></clipPath>
	<clipPath id="z32094c2"><use href="#z32094d2"/></clipPath>
	<clipPath id="z32094c3"><use href="#z32094d3"/></clipPath>
	<clipPath id="z32094c4"><use href="#z32094d4"/></clipPath>
	<clipPath id="z32094c5"><use href="#z32094d5"/></clipPath>
	<clipPath id="z32094c6"><use href="#z32094d6"/></clipPath>
	<clipPath id="z32094c7"><use href="#z32094d7"/></clipPath>
	<clipPath id="z32094c8"><use href="#z32094d8"/></clipPath>
	<clipPath id="z32094c9"><use href="#z32094d9"/></clipPath>
	<clipPath id="z32094c10"><use href="#z32094d10"/></clipPath>
	<clipPath id="z32094c11"><use href="#z32094d11"/></clipPath>
	<clipPath id="z32094c12"><use href="#z32094d12"/></clipPath><marker id="guide-arrow" viewBox="0 0 16 16" refX="5" refY="5" markerWidth="4" markerHeight="4" orient="auto-start-reverse"><path d="M 0 0 L 10 5 L 0 10 z" fill="inherit"/></marker></defs>
<g class="strokes"><path pathLength="3333" clip-path="url(#z32094c1)" d="M298 102L335 156L180 421L194 442L307 418"/><path pathLength="3333" clip-path="url(#z32094c2)" d="M373 269L400 329L212 604L236 624L376 557"/><path pathLength="3333" clip-path="url(#z32094c3)" d="M365 495L419 584"/><path pathLength="3333" clip-path="url(#z32094c4)" d="M131 726L180 793L184 846"/><path pathLength="3333" clip-path="url(#z32094c5)" d="M250 687L324 773"/><path pathLength="3333" clip-path="url(#z32094c6)" d="M361 643L434 723"/><path pathLength="3333" clip-path="url(#z32094c7)" d="M604 128L680 169L714 217"/><path pathLength="3333" clip-path="url(#z32094c8)" d="M526 335L601 338L885 278"/><path pathLength="3333" clip-path="url(#z32094c9)" d="M554 425L577 447L456 579"/><path pathLength="3333" clip-path="url(#z32094c10)" d="M724 407L829 444L867 485"/><path pathLength="3333" clip-path="url(#z32094c11)" d="M679 505L720 544L645 725L548 800L416 835"/><path pathLength="3333" clip-path="url(#z32094c12)" d="M541 552L799 794L995 847"/></g>
<g class="guides"><text class="g1" style="--gs:1" x="298" y="102">①</text><path class="g1 aligned" style="--gs:1" d="M298,102 Q335,156 257.5,288.5 Q180,421 187,431.5 Q194,442 250.5,430 Q250.5,430 307,418"/><path class="g1 offset" style="--gs:1" d="M383.68,33.46 Q402.18,83.1 363.43,204.9 Q324.68,326.7 328.18,336.35 Q331.68,346 359.93,334.97 Q359.93,334.97 388.18,323.94"/><text class="g2" style="--gs:2" x="373" y="269">②</text><path class="g2 aligned" style="--gs:2" d="M373,269 Q400,329 306,466.5 Q212,604 224,614 Q236,624 306,590.5 Q306,590.5 376,557"/><path class="g2 offset" style="--gs:2" d="M493,269 Q506.5,312.77 459.5,413.09 Q412.5,513.41 418.5,520.7 Q424.5,528 459.5,503.56 Q459.5,503.56 494.5,479.12"/><text class="g3" style="--gs:3" x="365" y="495">③</text><path class="g3 aligned" style="--gs:3" d="M365,495 L419,584"/><path class="g3 offset" style="--gs:3" d="M450.68,426.46 L504.68,515.46"/><text class="g4" style="--gs:4" x="131" y="726">④</text><path class="g4 aligned" style="--gs:4" d="M131,726 Q180,793 180.5,799.63 Q183.5,839.38 184,846"/><path class="g4 offset" style="--gs:4" d="M216.68,657.46 Q265.68,724.46 266.18,731.08 Q269.18,770.83 269.68,777.46"/><text class="g5" style="--gs:5" x="250" y="687">⑤</text><path class="g5 aligned" style="--gs:5" d="M250,687 L324,773"/><path class="g5 offset" style="--gs:5" d="M335.68,618.46 L409.68,704.46"/><text class="g6" style="--gs:6" x="361" y="643">⑥</text><path class="g6 aligned" style="--gs:6" d="M361,643 L434,723"/><path class="g6 offset" style="--gs:6" d="M446.68,574.46 L519.68,654.46"/><text class="g7" style="--gs:7" x="604" y="128">⑦</text><path class="g7 aligned" style="--gs:7" d="M604,128 Q680,169 684.25,175 Q709.75,211 714,217"/><path class="g7 offset" style="--gs:7" d="M689.68,59.46 Q765.68,100.46 769.93,106.46 Q795.43,142.46 799.68,148.46"/><text class="g8" style="--gs:8" x="526" y="335">⑧</text><path class="g8 aligned" style="--gs:8" d="M526,335 Q601,338 636.5,330.5 Q849.5,285.5 885,278"/><path class="g8 offset" style="--gs:8" d="M526,431 Q601,434 636.5,426.5 Q849.5,381.5 885,374"/><text class="g9" style="--gs:9" x="554" y="425">⑨</text><path class="g9 aligned" style="--gs:9" d="M566,436 L456,579"/><path class="g9 offset" style="--gs:9" d="M651.68,504.54 L541.68,647.54"/><text class="g10" style="--gs:10" x="724" y="407">⑩</text><path class="g10 aligned" style="--gs:10" d="M724,407 Q829,444 833.75,449.13 Q862.25,479.88 867,485"/><path class="g10 offset" style="--gs:10" d="M809.68,338.46 Q914.68,375.46 919.43,380.58 Q947.93,411.33 952.68,416.46"/><text class="g11" style="--gs:11" x="679" y="505">⑪</text><path class="g11 aligned" style="--gs:11" d="M679,505 Q720,544 682.5,634.5 Q645,725 596.5,762.5 Q548,800 482,817.5 Q482,817.5 416,835"/><path class="g11 offset" style="--gs:11" d="M583,505 Q611.05,532.65 585.39,596.83 Q559.74,661 526.55,687.59 Q493.37,714.18 448.21,726.59 Q448.21,726.59 403.05,739"/><text class="g12" style="--gs:12" x="541" y="552">⑫</text><path class="g12 aligned" style="--gs:12" d="M541,552 Q799,794 823.5,800.63 Q970.5,840.38 995,847"/><path class="g12 offset" style="--gs:12" d="M626.68,483.46 Q835.99,702.93 855.87,708.94 Q975.12,744.99 995,751"/></g>
</svg>
