<!--
  Stroke-order data for 絵, derived from AnimCJK (https://github.com/parsimonhi/animCJK),
  itself derived from the Arphic PL KaitiM fonts. Distributed under the Arphic Public License
  (see ARPHICPL.TXT). Regenerated by scripts/build-strokes.ts — do not edit by hand.
-->
<svg id="z32117" class="acjk" viewBox="0 0 1024 1024" xmlns="http://www.w3.org/2000/svg">
<g class="glyph"><path style="--part:1" id="z32117d1" d="M283 376Q282 376 198 379Q170 380 184 363Q253 251 319 169Q332 153 330 146Q329 133 292 101Q276 88 259 91Q247 94 254 109Q269 151 180 304Q161 340 122 373Q104 388 106 399Q110 418 124 434Q134 444 146 438Q165 425 235 405Q256 401 269 397C277 394 291 376 283 376Z"/><path style="--part:1" id="z32117d2" d="M313 525C283 531 249 538 214 551C198 556 196 554 205 541C290 416 353 338 393 305C401 298 402 292 399 286C392 274 378 261 357 250C347 244 338 243 333 245C326 246 325 252 326 262C327 282 317 323 283 376C274 390 274 390 269 397C244 433 150 557 133 568C124 573 121 581 123 590C124 598 133 607 150 620C157 625 164 626 174 619C214 585 262 558 320 540C325 538 318 524 313 525Z"/><path style="--part:1" id="z32117d3" d="M320 540Q329 561 343 575Q352 579 361 574Q368 568 370 557Q370 532 322 482Q313 475 306 475Q302 474 301 483Q300 492 313 525C318 535 318 535 320 540Z"/><path style="--part:1" id="z32117d4" d="M87 731Q100 762 114 800Q120 818 134 823Q143 827 153 818Q163 808 169 778Q172 759 152 733Q130 711 103 688Q91 678 85 677Q79 678 75 690Q74 702 87 731Z"/><path style="--part:1" id="z32117d5" d="M210 687Q234 736 244 740Q251 741 258 735Q264 726 265 705Q266 693 251 679Q215 651 204 650Q200 651 198 660Q198 667 210 687Z"/><path style="--part:1" id="z32117d6" d="M304 643Q314 659 324 679Q330 689 341 693Q348 694 354 687Q360 678 360 657Q357 639 310 611Q301 605 296 606Q292 607 291 616Q291 623 304 643Z"/><path style="--part:2" id="z32117d7" d="M621 187C629 169 635 156 645 148C649 143 651 137 649 131C647 124 641 117 632 110C621 101 609 96 596 94C581 91 570 90 563 93C556 94 555 99 558 108C572 161 551 225 476 337C457 364 423 405 364 472C359 476 360 481 367 480C406 474 459 431 521 351C558 302 586 255 608 213C617 196 617 196 621 187Z"/><path style="--part:2" id="z32117d8" d="M608 213C718 361 786 440 815 442C866 445 913 438 954 430C960 428 963 425 964 423C964 420 960 415 951 412C855 376 786 340 742 301C704 268 663 231 621 187C614 180 602 205 608 213Z"/><path style="--part:2" id="z32117d9" d="M487 457C462 463 459 471 478 481C506 497 540 498 579 486C609 478 640 470 672 462C686 458 695 455 697 453C703 447 704 441 700 436C695 428 682 422 662 419C641 416 621 419 601 429C573 439 533 450 487 457Z"/><path style="--part:2" id="z32117d10" d="M577 605C614 597 680 587 778 585C806 584 824 582 829 575C832 568 828 559 818 553C778 527 741 527 706 538C676 547 640 553 597 563C544 574 487 584 426 596C413 598 412 603 422 613C430 621 440 626 452 629C457 630 485 624 535 614C563 608 563 608 577 605Z"/><path style="--part:2" id="z32117d11" d="M719 744C654 754 588 764 521 775C516 775 512 775 511 774C510 773 510 770 514 766C559 701 591 660 609 644C617 635 619 628 614 622C607 614 595 608 577 605C563 602 535 600 535 614C539 652 517 708 454 771C421 803 396 812 398 823C398 829 401 838 406 848C412 860 420 868 429 872C433 874 440 874 448 870C505 834 599 798 731 765C739 764 727 742 719 744Z"/><path style="--part:2" id="z32117d12" d="M731 765C770 834 793 870 800 874C804 876 810 874 817 870C827 862 831 845 831 815C830 778 784 728 694 663C688 659 684 659 682 668C678 676 680 685 686 693C696 709 708 725 719 744C727 758 727 758 731 765Z"/></g>
<defs><clipPath id="z32117c1"><use href="#z32117d1"/></clipPath>
	<clipPath id="z32117c2"><use href="#z32117d2"/></clipPath>
	<clipPath id="z32117c3"><use href="#z32117d3"/></clipPath>
	<clipPath id="z32117c4"><use href="#z32117d4"/></clipPath>
	<clipPath id="z32117c5"><use href="#z32117d5"/></clipPath>
	<clipPath id="z32117c6"><use href="#z32117d6"/></clipPath>
	<clipPath id="z32117c7"><use href="#z32117d7"/></clipPath>
	<clipPath id="z32117c8"><use href="#z32117d8"/></clipPath>
	<clipPath id="z32117c9"><use href="#z32117d9"/></clipPath>
	<clipPath id="z32117c10"><use href="#z32117d10"/></clipPath>
	<clipPath id="z32117c11"><use href="#z32117d11"/></clipPath>
	<clipPath id="z32117c12"><use href="#z32117d12"/></clipPath><marker id="guide-arrow" viewBox="0 0 16 16" refX="5" refY="5" markerWidth="4" markerHeight="4" orient="auto-start-reverse"><path d="M 0 0 L 10 5 L 0 10 z" fill="inherit"/></marker></defs>
<g class="strokes"><path style="--part:1" pathLength="3333" clip-path="url(#z32117c1)" d="M260 96L291 147L148 387L166 409L273 380"/><path style="--part:1" pathLength="3333" clip-path="url(#z32117c2)" d="M334 249L360 294L162 566L182 588L311 535"/><path style="--part:1" pathLength="3333" clip-path="url(#z32117c3)" d="M308 485L354 570"/><path style="--part:1" pathLength="3333" clip-path="url(#z32117c4)" d="M87 681L137 772L139 820"/><path style="--part:1" pathLength="3333" clip-path="url(#z32117c5)" d="M205 655L254 732"/><path style="--part:1" pathLength="3333" clip-path="url(#z32117c6)" d="M299 612L344 687"/><path style="--part:2" pathLength="3333" clip-path="url(#z32117c7)" d="M564 97L605 141L558 248L484 363L368 473"/><path style="--part:2" pathLength="3333" clip-path="url(#z32117c8)" d="M624 202L812 396L955 422"/><path style="--part:2" pathLength="3333" clip-path="url(#z32117c9)" d="M473 468L696 440"/><path style="--part:2" pathLength="3333" clip-path="url(#z32117c10)" d="M424 603L726 559L824 565"/><path style="--part:2" pathLength="3333" clip-path="url(#z32117c11)" d="M542 620L575 644L449 801L460 830L723 760"/><path style="--part:2" pathLength="3333" clip-path="url(#z32117c12)" d="M689 667L790 797L813 870"/></g>
<g class="guides"><text class="g1" style="--gs:1" x="260" y="96">①</text><path class="g1 aligned" style="--gs:1" d="M260,96 Q291,147 219.5,267 Q148,387 157,398 Q166,409 219.5,394.5 Q219.5,394.5 273,380"/><path class="g1 offset" style="--gs:1" d="M345.68,27.46 Q361.18,73.98 325.43,183.46 Q289.68,292.93 294.18,302.96 Q298.68,313 325.43,299.77 Q325.43,299.77 352.18,286.54"/><text class="g2" style="--gs:2" x="334" y="249">②</text><path class="g2 aligned" style="--gs:2" d="M334,249 Q360,294 261,430 Q162,566 172,577 Q182,588 246.5,561.5 Q246.5,561.5 311,535"/><path class="g2 offset" style="--gs:2" d="M419.68,180.46 Q434.43,221.81 378.27,346.8 Q322.11,471.78 327.78,481.89 Q333.45,492 370.04,467.65 Q370.04,467.65 406.63,443.29"/><text class="g3" style="--gs:3" x="308" y="485">③</text><path class="g3 aligned" style="--gs:3" d="M308,485 L354,570"/><path class="g3 offset" style="--gs:3" d="M428,485 L474,570"/><text class="g4" style="--gs:4" x="87" y="681">④</text><path class="g4 aligned" style="--gs:4" d="M87,681 Q137,772 137.25,778 Q138.75,814 139,820"/><path class="g4 offset" style="--gs:4" d="M207,681 Q257,772 257.25,778 Q258.75,814 259,820"/><text class="g5" style="--gs:5" x="205" y="655">⑤</text><path class="g5 aligned" style="--gs:5" d="M205,655 L254,732"/><path class="g5 offset" style="--gs:5" d="M290.68,586.46 L339.68,663.46"/><text class="g6" style="--gs:6" x="299" y="612">⑥</text><path class="g6 aligned" style="--gs:6" d="M299,612 L344,687"/><path class="g6 offset" style="--gs:6" d="M384.68,543.46 L429.68,618.46"/><text class="g7" style="--gs:7" x="564" y="97">⑦</text><path class="g7 aligned" style="--gs:7" d="M564,97 Q605,141 581.5,194.5 Q558,248 521,305.5 Q484,363 426,418 Q426,418 368,473"/><path class="g7 offset" style="--gs:7" d="M468,97 Q492.39,129.77 478.41,169.61 Q464.43,209.45 442.42,252.27 Q420.41,295.09 385.9,336.04 Q385.9,336.04 351.39,377"/><text class="g8" style="--gs:8" x="624" y="202">⑧</text><path class="g8 aligned" style="--gs:8" d="M624,202 Q812,396 829.88,399.25 Q937.13,418.75 955,422"/><path class="g8 offset" style="--gs:8" d="M709.68,133.46 Q849.02,303.24 862.26,306.09 Q941.75,323.16 955,326"/><text class="g9" style="--gs:9" x="473" y="468">⑨</text><path class="g9 aligned" style="--gs:9" d="M473,468 L696,440"/><path class="g9 offset" style="--gs:9" d="M473,564 L696,536"/><text class="g10" style="--gs:10" x="424" y="603">⑩</text><path class="g10 aligned" style="--gs:10" d="M424,603 Q726,559 738.25,559.75 Q811.75,564.25 824,565"/><path class="g10 offset" style="--gs:10" d="M424,699 Q726,655 738.25,655.75 Q811.75,660.25 824,661"/><text class="g11" style="--gs:11" x="542" y="620">⑪</text><path class="g11 aligned" style="--gs:11" d="M559,632 Q449,801 451.75,808.25 Q460,830 525.75,812.5 Q657.25,777.5 723,760"/><path class="g11 offset" style="--gs:11" d="M679,632 Q569,719.06 571.75,722.8 Q580,734 645.75,724.98 Q777.25,706.95 843,697.94"/><text class="g12" style="--gs:12" x="689" y="667">⑫</text><path class="g12 aligned" style="--gs:12" d="M689,667 Q790,797 792.88,806.13 Q810.13,860.88 813,870"/><path class="g12 offset" style="--gs:12" d="M774.68,598.46 Q875.68,728.46 878.56,737.58 Q895.81,792.33 898.68,801.46"/></g>
<g class="parts"><rect data-part="2" data-literal="会" role="button" tabindex="0" aria-label="Part 会" x="296" y="25" width="728" height="917"/><rect data-part="1" data-literal="糹" data-radical="true" role="button" tabindex="0" aria-label="Part 糹 (radical)" x="15" y="24" width="417" height="868"/></g>
</svg>
