<!--
  Stroke-order data for 綱, derived from AnimCJK (https://github.com/parsimonhi/animCJK),
  itself derived from the Arphic PL KaitiM fonts. Distributed under the Arphic Public License
  (see ARPHICPL.TXT). Regenerated by scripts/build-strokes.ts — do not edit by hand.
-->
<svg id="z32177" class="acjk" viewBox="0 0 1024 1024" xmlns="http://www.w3.org/2000/svg">
<g class="glyph"><path id="z32177d1" d="M301 383Q300 382 298 383Q255 383 221 384Q187 385 204 364Q270 252 333 167Q346 149 344 142Q341 129 302 97Q286 84 268 88Q256 91 263 106Q281 148 196 306Q178 342 140 377Q121 392 123 404Q127 422 142 440Q151 449 175 437Q193 428 286 407C295 405 310 383 301 383Z"/><path id="z32177d2" d="M350 515Q307 524 256 541Q229 553 245 529Q281 474 366 362Q391 325 416 302Q428 292 421 282Q409 263 376 246Q360 239 351 241Q341 245 344 260Q347 299 301 383C291 399 291 399 286 407Q196 543 171 560Q158 570 161 583Q162 596 190 614Q200 624 215 612Q272 567 357 533C358 533 358 533 359 533C366 532 357 514 350 515Z"/><path id="z32177d3" d="M359 533Q371 554 384 558Q394 562 404 549Q408 539 405 521Q398 493 347 464Q340 460 336 469Q333 476 350 515C356 527 356 527 359 533Z"/><path id="z32177d4" d="M108 722Q126 768 143 820Q147 836 160 842Q167 846 177 838Q187 829 194 803Q203 767 125 684Q115 674 109 674Q103 675 99 685Q98 695 108 722Z"/><path id="z32177d5" d="M223 690Q257 753 267 756Q274 759 282 751Q289 742 289 719Q290 704 272 686Q226 647 216 650Q212 651 210 661Q210 668 223 690Z"/><path id="z32177d6" d="M320 634Q335 658 350 686Q357 698 368 701Q375 702 382 695Q388 685 389 663Q389 641 327 599Q317 593 312 594Q308 595 306 605Q306 612 320 634Z"/><path id="z32177d7" d="M501 210Q482 194 459 187Q449 186 443 193Q439 199 447 210Q498 348 452 632Q443 672 429 714Q422 741 425 760Q434 794 445 807Q455 822 466 808Q500 771 502 620Q502 350 520 247C523 233 512 218 501 210Z"/><path id="z32177d8" d="M520 247Q661 211 792 191Q810 188 818 199Q833 206 838 271Q857 487 848 731Q848 768 834 777Q821 787 755 774Q737 770 738 781Q739 790 753 796Q814 844 845 880Q867 901 882 898Q895 894 907 863Q923 814 922 741Q889 272 913 225Q926 203 915 191Q905 175 856 150Q835 138 765 160Q636 191 501 210C487 213 506 250 520 247Z"/><path id="z32177d9" d="M575 318Q608 367 621 370Q628 371 634 363Q638 354 637 333Q636 315 579 285Q569 281 564 282Q560 283 559 293Q560 300 575 318Z"/><path id="z32177d10" d="M714 272Q701 306 673 362Q670 369 675 373Q681 373 686 368Q743 301 772 274Q784 267 779 260Q755 227 720 231Q710 235 713 249Q717 258 714 272Z"/><path id="z32177d11" d="M668 438Q692 432 784 417Q791 418 798 408Q799 399 781 392Q757 376 694 398Q684 399 673 403Q651 409 550 426Q529 430 546 442Q567 460 596 454Q615 448 640 444C659 440 659 440 668 438Z"/><path id="z32177d12" d="M681 613Q688 490 692 478Q698 460 668 438C660 432 637 435 640 444Q649 456 649 620C649 631 681 624 681 613Z"/><path id="z32177d13" d="M752 601Q713 605 681 613C660 618 660 618 649 620Q622 624 602 633Q586 637 589 618Q592 548 586 537Q561 512 541 515Q534 519 540 532Q556 566 554 600Q553 633 539 648Q526 661 532 671Q541 681 554 689Q564 693 571 688Q592 658 713 633Q731 629 743 629C753 629 762 599 752 601Z"/><path id="z32177d14" d="M743 629Q743 650 755 674Q762 687 771 678Q789 659 795 596Q804 536 814 523Q820 511 812 501Q799 489 774 474Q764 468 755 473Q749 476 751 486Q769 511 753 599Q752 599 752 601C748 610 743 619 743 629Z"/></g>
<defs><clipPath id="z32177c1"><use href="#z32177d1"/></clipPath>
	<clipPath id="z32177c2"><use href="#z32177d2"/></clipPath>
	<clipPath id="z32177c3"><use href="#z32177d3"/></clipPath>
	<clipPath id="z32177c4"><use href="#z32177d4"/></clipPath>
	<clipPath id="z32177c5"><use href="#z32177d5"/></clipPath>
	<clipPath id="z32177c6"><use href="#z32177d6"/></clipPath>
	<clipPath id="z32177c7"><use href="#z32177d7"/></clipPath>
	<clipPath id="z32177c8"><use href="#z32177d8"/></clipPath>
	<clipPath id="z32177c9"><use href="#z32177d9"/></clipPath>
	<clipPath id="z32177c10"><use href="#z32177d10"/></clipPath>
	<clipPath id="z32177c11"><use href="#z32177d11"/></clipPath>
	<clipPath id="z32177c12"><use href="#z32177d12"/></clipPath>
	<clipPath id="z32177c13"><use href="#z32177d13"/></clipPath>
	<clipPath id="z32177c14"><use href="#z32177d14"/></clipPath><marker id="guide-arrow" viewBox="0 0 16 16" refX="5" refY="5" markerWidth="4" markerHeight="4" orient="auto-start-reverse"><path d="M 0 0 L 10 5 L 0 10 z" fill="inherit"/></marker></defs>
<g class="strokes"><path pathLength="3333" clip-path="url(#z32177c1)" d="M267 93L303 150L163 390L181 412L290 387"/><path pathLength="3333" clip-path="url(#z32177c2)" d="M353 247L379 298L203 558L225 581L352 524"/><path pathLength="3333" clip-path="url(#z32177c3)" d="M343 471L390 554"/><path pathLength="3333" clip-path="url(#z32177c4)" d="M109 682L168 838"/><path pathLength="3333" clip-path="url(#z32177c5)" d="M219 657L275 751"/><path pathLength="3333" clip-path="url(#z32177c6)" d="M315 603L375 694"/><path pathLength="3333" clip-path="url(#z32177c7)" d="M449 197L491 280L457 810"/><path pathLength="3333" clip-path="url(#z32177c8)" d="M511 213L536 224L805 170L873 208L879 792L855 849L747 783"/><path pathLength="3333" clip-path="url(#z32177c9)" d="M568 291L630 362"/><path pathLength="3333" clip-path="url(#z32177c10)" d="M720 235L746 269L676 365"/><path pathLength="3333" clip-path="url(#z32177c11)" d="M546 432L788 407"/><path pathLength="3333" clip-path="url(#z32177c12)" d="M647 447L670 483L659 616"/><path pathLength="3333" clip-path="url(#z32177c13)" d="M546 524L569 554L572 660L743 610"/><path pathLength="3333" clip-path="url(#z32177c14)" d="M758 479L788 515L765 672"/></g>
<g class="guides"><text class="g1" style="--gs:1" x="267" y="93">①</text><path class="g1 aligned" style="--gs:1" d="M267,93 Q303,150 233,270 Q163,390 172,401 Q181,412 235.5,399.5 Q235.5,399.5 290,387"/><path class="g1 offset" style="--gs:1" d="M352.68,24.46 Q370.68,76.55 335.68,186.22 Q300.68,295.89 305.18,305.95 Q309.68,316 336.93,304.58 Q336.93,304.58 364.18,293.15"/><text class="g2" style="--gs:2" x="353" y="247">②</text><path class="g2 aligned" style="--gs:2" d="M353,247 Q379,298 291,428 Q203,558 214,569.5 Q225,581 288.5,552.5 Q288.5,552.5 352,524"/><path class="g2 offset" style="--gs:2" d="M473,247 Q486,283.34 442,375.98 Q398,468.61 403.5,476.81 Q409,485 440.75,464.69 Q440.75,464.69 472.5,444.38"/><text class="g3" style="--gs:3" x="343" y="471">③</text><path class="g3 aligned" style="--gs:3" d="M343,471 L390,554"/><path class="g3 offset" style="--gs:3" d="M463,471 L510,554"/><text class="g4" style="--gs:4" x="109" y="682">④</text><path class="g4 aligned" style="--gs:4" d="M109,682 L168,838"/><path class="g4 offset" style="--gs:4" d="M229,682 L288,838"/><text class="g5" style="--gs:5" x="219" y="657">⑤</text><path class="g5 aligned" style="--gs:5" d="M219,657 L275,751"/><path class="g5 offset" style="--gs:5" d="M304.68,588.46 L360.68,682.46"/><text class="g6" style="--gs:6" x="315" y="603">⑥</text><path class="g6 aligned" style="--gs:6" d="M315,603 L375,694"/><path class="g6 offset" style="--gs:6" d="M400.68,534.46 L460.68,625.46"/><text class="g7" style="--gs:7" x="449" y="197">⑦</text><path class="g7 aligned" style="--gs:7" d="M449,197 Q491,280 486.75,346.25 Q461.25,743.75 457,810"/><path class="g7 offset" style="--gs:7" d="M569,197 Q611,280 606.75,346.25 Q581.25,743.75 577,810"/><text class="g8" style="--gs:8" x="511" y="213">⑧</text><path class="g8 aligned" style="--gs:8" d="M524,219 Q805,170 839,189 Q873,208 876,500 Q879,792 867,820.5 Q855,849 801,816 Q801,816 747,783"/><path class="g8 offset" style="--gs:8" d="M524,315 Q729.01,266 753.82,285 Q778.62,304 780.81,499.81 Q783,695.63 774.25,715.31 Q765.49,735 726.09,712.21 Q726.09,712.21 686.7,689.41"/><text class="g9" style="--gs:9" x="568" y="291">⑨</text><path class="g9 aligned" style="--gs:9" d="M568,291 L630,362"/><path class="g9 offset" style="--gs:9" d="M653.68,222.46 L715.68,293.46"/><text class="g10" style="--gs:10" x="720" y="235">⑩</text><path class="g10 aligned" style="--gs:10" d="M720,235 Q746,269 737.25,281 Q684.75,353 676,365"/><path class="g10 offset" style="--gs:10" d="M624,235 Q637,252 632.63,258 Q606.38,294 602,300"/><text class="g11" style="--gs:11" x="546" y="432">⑪</text><path class="g11 aligned" style="--gs:11" d="M546,432 L788,407"/><path class="g11 offset" style="--gs:11" d="M546,528 L788,503"/><text class="g12" style="--gs:12" x="647" y="447">⑫</text><path class="g12 aligned" style="--gs:12" d="M647,447 Q670,483 668.63,499.63 Q660.38,599.38 659,616"/><path class="g12 offset" style="--gs:12" d="M551,447 Q574,483 572.63,499.63 Q564.38,599.38 563,616"/><text class="g13" style="--gs:13" x="546" y="524">⑬</text><path class="g13 aligned" style="--gs:13" d="M558,539 Q572,660 593.38,653.75 Q721.63,616.25 743,610"/><path class="g13 offset" style="--gs:13" d="M678,539 Q685,599.5 695.69,596.38 Q759.81,577.63 770.5,574.5"/><text class="g14" style="--gs:14" x="758" y="479">⑭</text><path class="g14 aligned" style="--gs:14" d="M758,479 Q788,515 785.13,534.63 Q767.88,652.38 765,672"/><path class="g14 offset" style="--gs:14" d="M662,479 Q692,515 689.13,534.63 Q671.88,652.38 669,672"/></g>
</svg>
