<!--
  Stroke-order data for 網, derived from AnimCJK (https://github.com/parsimonhi/animCJK),
  itself derived from the Arphic PL KaitiM fonts. Distributed under the Arphic Public License
  (see ARPHICPL.TXT). Regenerated by scripts/build-strokes.ts — do not edit by hand.
-->
<svg id="z32178" class="acjk" viewBox="0 0 1024 1024" xmlns="http://www.w3.org/2000/svg">
<g class="glyph"><path id="z32178d1" d="M307 355C272 357 241 362 214 367C196 369 192 364 200 352C243 278 284 211 326 155C334 143 338 133 337 130C334 119 319 105 294 86C276 72 243 68 255 95C259 104 261 120 258 138C251 170 228 222 191 294C178 317 160 341 135 365C123 375 117 384 120 393C123 404 129 417 141 429C146 435 155 436 164 431C185 416 266 387 290 385C301 383 318 355 307 355Z"/><path id="z32178d2" d="M350 492C318 500 284 512 250 527C235 532 233 529 242 517C273 469 385 318 411 294C418 286 420 280 417 274C408 261 393 248 372 238C362 233 337 221 340 252C341 270 324 324 307 355C296 375 296 375 290 385C264 429 221 509 168 548C158 554 157 561 159 571C160 578 169 587 188 601C195 607 202 608 213 599C248 566 297 537 359 511C366 509 357 491 350 492Z"/><path id="z32178d3" d="M359 511C367 527 375 538 384 544C397 553 412 537 414 521C415 501 403 478 376 460C356 445 345 442 343 442C340 442 338 444 337 451C334 460 341 473 350 492C353 498 359 511 359 511Z"/><path id="z32178d4" d="M119 697C121 725 124 757 126 792C126 803 129 813 138 820C142 824 149 826 158 822C166 817 176 806 185 788C195 766 182 722 148 661C134 636 124 646 120 655C116 661 117 674 119 697Z"/><path id="z32178d5" d="M241 661C251 701 258 725 266 729C281 737 293 711 298 696C300 687 297 675 289 663C268 635 253 620 245 618C241 617 237 620 235 627C232 632 236 643 241 661Z"/><path id="z32178d6" d="M341 617C345 628 349 642 354 659C356 666 361 673 370 678C379 683 394 671 399 643C401 628 385 607 355 582C345 574 337 569 332 584C330 589 334 599 341 617Z"/><path id="z32178d7" d="M492 207C466 188 422 169 441 211C458 249 463 292 463 336C462 506 450 633 421 718C414 736 412 750 416 765C422 788 428 804 436 815C443 824 450 824 458 815C481 787 493 728 496 635C502 398 511 269 517 246C520 231 504 216 492 207Z"/><path id="z32178d8" d="M517 246C599 223 691 204 792 187C827 180 838 214 843 270C855 417 857 577 851 748C849 774 851 798 820 798C808 798 792 796 771 792C739 784 754 801 768 813C802 842 823 873 842 897C867 929 891 914 905 883C919 850 925 808 923 762C912 528 904 371 904 286C904 259 907 236 916 220C923 204 924 193 918 185C910 173 890 159 857 144C840 135 813 141 772 153C680 178 586 193 492 207C477 210 502 249 517 246Z"/><path id="z32178d9" d="M572 311C589 337 599 356 611 359C614 359 633 357 630 317C628 303 609 289 577 274C564 268 556 265 555 282C554 287 562 295 572 311Z"/><path id="z32178d10" d="M703 270C698 284 686 313 667 360C662 370 668 375 676 369C728 321 745 287 775 266C785 258 786 248 778 242C768 233 754 229 740 225C714 217 696 222 704 237C709 245 706 257 703 270Z"/><path id="z32178d11" d="M535 416C524 418 524 424 538 433C545 438 560 440 579 437C665 418 739 402 803 391C835 384 811 362 783 358C767 355 748 358 722 366C655 384 593 401 535 416Z"/><path id="z32178d12" d="M679 505C681 498 683 487 683 477C681 463 664 453 638 439C628 433 620 429 619 444C618 448 650 500 656 509C660 516 677 513 679 505Z"/><path id="z32178d13" d="M601 551C630 544 744 525 815 516C839 512 827 500 813 491C804 486 792 481 777 484C746 488 708 499 679 505C664 508 664 508 656 509C628 513 551 525 515 530C500 532 500 534 510 546C517 555 531 562 546 562C561 561 582 555 601 551Z"/><path id="z32178d14" d="M546 562C555 579 556 595 558 641C559 686 595 702 631 706C664 711 707 707 761 694C782 688 797 684 803 678C809 671 810 665 804 659C797 652 782 644 762 638C750 634 741 637 732 646C717 658 697 665 673 669C654 671 604 673 600 637C597 612 600 593 607 578C612 566 609 557 601 551C588 538 538 545 546 562Z"/></g>
<defs><clipPath id="z32178c1"><use href="#z32178d1"/></clipPath>
	<clipPath id="z32178c2"><use href="#z32178d2"/></clipPath>
	<clipPath id="z32178c3"><use href="#z32178d3"/></clipPath>
	<clipPath id="z32178c4"><use href="#z32178d4"/></clipPath>
	<clipPath id="z32178c5"><use href="#z32178d5"/></clipPath>
	<clipPath id="z32178c6"><use href="#z32178d6"/></clipPath>
	<clipPath id="z32178c7"><use href="#z32178d7"/></clipPath>
	<clipPath id="z32178c8"><use href="#z32178d8"/></clipPath>
	<clipPath id="z32178c9"><use href="#z32178d9"/></clipPath>
	<clipPath id="z32178c10"><use href="#z32178d10"/></clipPath>
	<clipPath id="z32178c11"><use href="#z32178d11"/></clipPath>
	<clipPath id="z32178c12"><use href="#z32178d12"/></clipPath>
	<clipPath id="z32178c13"><use href="#z32178d13"/></clipPath>
	<clipPath id="z32178c14"><use href="#z32178d14"/></clipPath><marker id="guide-arrow" viewBox="0 0 16 16" refX="5" refY="5" markerWidth="4" markerHeight="4" orient="auto-start-reverse"><path d="M 0 0 L 10 5 L 0 10 z" fill="inherit"/></marker></defs>
<g class="strokes"><path pathLength="3333" clip-path="url(#z32178c1)" d="M261 83L297 134L161 376L178 401L305 367"/><path pathLength="3333" clip-path="url(#z32178c2)" d="M347 240L376 284L198 547L221 567L356 504"/><path pathLength="3333" clip-path="url(#z32178c3)" d="M344 447L394 541"/><path pathLength="3333" clip-path="url(#z32178c4)" d="M132 650L152 820"/><path pathLength="3333" clip-path="url(#z32178c5)" d="M242 628L273 723"/><path pathLength="3333" clip-path="url(#z32178c6)" d="M340 581L377 673"/><path pathLength="3333" clip-path="url(#z32178c7)" d="M444 196L486 246L447 814"/><path pathLength="3333" clip-path="url(#z32178c8)" d="M493 217L818 164L877 204L884 796L858 863L759 797"/><path pathLength="3333" clip-path="url(#z32178c9)" d="M562 275L617 353"/><path pathLength="3333" clip-path="url(#z32178c10)" d="M710 229L743 262L671 366"/><path pathLength="3333" clip-path="url(#z32178c11)" d="M537 422L813 376"/><path pathLength="3333" clip-path="url(#z32178c12)" d="M626 440L670 507"/><path pathLength="3333" clip-path="url(#z32178c13)" d="M512 538L824 503"/><path pathLength="3333" clip-path="url(#z32178c14)" d="M552 557L581 578L582 654L608 680L680 688L801 660"/></g>
<g class="guides"><text class="g1" style="--gs:1" x="261" y="83">①</text><path class="g1 aligned" style="--gs:1" d="M261,83 Q297,134 229,255 Q161,376 169.5,388.5 Q178,401 241.5,384 Q241.5,384 305,367"/><path class="g1 offset" style="--gs:1" d="M346.68,14.46 Q364.68,61.05 330.68,171.61 Q296.68,282.16 300.93,293.58 Q305.18,305 336.93,289.47 Q336.93,289.47 368.68,273.94"/><text class="g2" style="--gs:2" x="347" y="240">②</text><path class="g2 aligned" style="--gs:2" d="M347,240 Q376,284 287,415.5 Q198,547 209.5,557 Q221,567 288.5,535.5 Q288.5,535.5 356,504"/><path class="g2 offset" style="--gs:2" d="M432.68,171.46 Q447.72,211.76 401.56,332.22 Q355.4,452.68 361.37,461.84 Q367.33,471 402.34,442.14 Q402.34,442.14 437.35,413.29"/><text class="g3" style="--gs:3" x="344" y="447">③</text><path class="g3 aligned" style="--gs:3" d="M344,447 L394,541"/><path class="g3 offset" style="--gs:3" d="M464,447 L514,541"/><text class="g4" style="--gs:4" x="132" y="650">④</text><path class="g4 aligned" style="--gs:4" d="M132,650 L152,820"/><path class="g4 offset" style="--gs:4" d="M252,650 L272,820"/><text class="g5" style="--gs:5" x="242" y="628">⑤</text><path class="g5 aligned" style="--gs:5" d="M242,628 L273,723"/><path class="g5 offset" style="--gs:5" d="M362,628 L393,723"/><text class="g6" style="--gs:6" x="340" y="581">⑥</text><path class="g6 aligned" style="--gs:6" d="M340,581 L377,673"/><path class="g6 offset" style="--gs:6" d="M460,581 L497,673"/><text class="g7" style="--gs:7" x="444" y="196">⑦</text><path class="g7 aligned" style="--gs:7" d="M444,196 Q486,246 481.13,317 Q451.88,743 447,814"/><path class="g7 offset" style="--gs:7" d="M348,196 Q390,246 385.13,317 Q355.88,743 351,814"/><text class="g8" style="--gs:8" x="493" y="217">⑧</text><path class="g8 aligned" style="--gs:8" d="M493,217 Q818,164 847.5,184 Q877,204 880.5,500 Q884,796 871,829.5 Q858,863 808.5,830 Q808.5,830 759,797"/><path class="g8 offset" style="--gs:8" d="M493,313 Q738.2,260 760.46,280 Q782.72,300 785.36,501.06 Q788,702.13 778.19,725.56 Q768.38,749 731.04,725.91 Q731.04,725.91 693.69,702.83"/><text class="g9" style="--gs:9" x="562" y="275">⑨</text><path class="g9 aligned" style="--gs:9" d="M562,275 L617,353"/><path class="g9 offset" style="--gs:9" d="M647.68,206.46 L702.68,284.46"/><text class="g10" style="--gs:10" x="710" y="229">⑩</text><path class="g10 aligned" style="--gs:10" d="M710,229 Q743,262 734,275 Q680,353 671,366"/><path class="g10 offset" style="--gs:10" d="M614,229 Q630.5,245.5 626,252 Q599,291 594.5,297.5"/><text class="g11" style="--gs:11" x="537" y="422">⑪</text><path class="g11 aligned" style="--gs:11" d="M537,422 L813,376"/><path class="g11 offset" style="--gs:11" d="M537,518 L813,472"/><text class="g12" style="--gs:12" x="626" y="440">⑫</text><path class="g12 aligned" style="--gs:12" d="M626,440 L670,507"/><path class="g12 offset" style="--gs:12" d="M711.68,371.46 L755.68,438.46"/><text class="g13" style="--gs:13" x="512" y="538">⑬</text><path class="g13 aligned" style="--gs:13" d="M512,538 L824,503"/><path class="g13 offset" style="--gs:13" d="M512,634 L824,599"/><text class="g14" style="--gs:14" x="552" y="557">⑭</text><path class="g14 aligned" style="--gs:14" d="M567,568 Q582,654 595,667 Q608,680 644,684 Q680,688 740.5,674 Q740.5,674 801,660"/><path class="g14 offset" style="--gs:14" d="M687,568 Q694.5,611 701,617.5 Q707.5,624 725.5,626 Q743.5,628 773.75,621 Q773.75,621 804,614"/></g>
</svg>
