<!--
  Stroke-order data for 綻, derived from AnimCJK (https://github.com/parsimonhi/animCJK),
  itself derived from the Arphic PL KaitiM fonts. Distributed under the Arphic Public License
  (see ARPHICPL.TXT). Regenerated by scripts/build-strokes.ts — do not edit by hand.
-->
<svg id="z32187" class="acjk" viewBox="0 0 1024 1024" xmlns="http://www.w3.org/2000/svg">
<g class="glyph"><path id="z32187d1" d="M296 365Q256 366 223 368Q192 371 206 350Q261 247 315 170Q328 152 326 145Q322 132 282 102Q266 89 247 94Q237 98 243 113Q264 164 176 326Q161 345 142 366Q126 382 127 393Q133 412 148 429Q158 439 171 431Q213 401 279 392C289 390 307 365 296 365Z"/><path id="z32187d2" d="M342 488Q296 500 243 523Q227 530 237 516Q273 462 359 354Q387 315 412 292Q424 282 417 271Q407 252 371 234Q355 224 345 228Q335 232 338 247Q339 278 296 365C285 383 285 383 279 392Q185 531 160 547Q147 557 151 571Q152 584 181 602Q193 614 206 600Q254 552 349 505C355 503 348 487 342 488Z"/><path id="z32187d3" d="M349 505Q370 541 380 545Q390 549 400 537Q404 527 403 509Q394 476 343 444Q336 440 332 449Q328 455 332 464Q336 476 342 488C347 499 347 499 349 505Z"/><path id="z32187d4" d="M106 711Q119 751 132 797Q136 813 149 821Q159 825 169 818Q181 808 188 780Q195 758 175 726Q121 657 109 658Q103 658 98 670Q95 680 106 711Z"/><path id="z32187d5" d="M229 682Q241 698 253 720Q262 733 274 735Q283 736 289 727Q296 717 294 691Q291 670 234 642Q222 636 216 637Q212 640 210 650Q211 660 229 682Z"/><path id="z32187d6" d="M321 627Q334 645 350 667Q360 680 374 681Q383 682 389 671Q395 659 391 632Q390 619 368 605Q314 578 304 581Q300 584 299 595Q300 605 321 627Z"/><path id="z32187d7" d="M577 112Q604 134 633 162Q648 175 664 174Q676 174 681 159Q685 144 675 113Q669 94 637 79Q562 54 548 61Q542 65 545 79Q549 89 577 112Z"/><path id="z32187d8" d="M491 273Q490 272 490 269Q480 250 469 243Q453 233 452 254Q458 275 446 296Q436 315 418 335Q405 353 429 398Q445 417 456 395Q466 376 475 347Q482 316 488 298C491 290 493 281 491 273Z"/><path id="z32187d9" d="M488 298Q516 311 540 303Q615 267 762 238Q769 237 775 237Q791 246 786 255Q776 298 765 343C766 344 766 344 767 344Q776 347 791 333Q840 293 881 278Q915 265 914 256Q910 246 838 203Q813 185 704 218Q701 218 556 256Q523 266 491 273C483 275 480 295 488 298Z"/><path id="z32187d10" d="M641 439Q690 426 744 415Q775 406 780 402Q787 395 783 387Q776 377 749 370Q724 366 635 397Q535 416 527 418Q494 424 518 439Q551 455 601 448C628 442 628 442 641 439Z"/><path id="z32187d11" d="M653 689Q657 620 661 564C662 542 662 542 663 531Q669 465 665 459Q653 447 641 439C629 432 598 435 601 448Q610 478 611 666C611 682 653 705 653 689Z"/><path id="z32187d12" d="M661 564Q682 567 776 551Q786 550 788 547Q797 540 792 531Q785 521 756 515Q720 509 675 529Q669 529 663 531C652 533 650 564 661 564Z"/><path id="z32187d13" d="M532 616Q542 597 551 587Q558 577 549 562Q533 535 516 525Q503 513 487 514Q471 514 477 534Q492 594 405 729Q366 787 314 844Q307 850 307 856Q308 860 313 861Q358 852 450 740Q451 737 454 735Q493 683 519 639C528 624 528 624 532 616Z"/><path id="z32187d14" d="M519 639Q750 837 807 844Q877 844 978 810Q997 804 998 799Q999 792 983 788Q926 775 862 764Q769 746 653 689C625 674 625 674 611 666Q589 650 532 616C524 611 512 634 519 639Z"/></g>
<defs><clipPath id="z32187c1"><use href="#z32187d1"/></clipPath>
	<clipPath id="z32187c2"><use href="#z32187d2"/></clipPath>
	<clipPath id="z32187c3"><use href="#z32187d3"/></clipPath>
	<clipPath id="z32187c4"><use href="#z32187d4"/></clipPath>
	<clipPath id="z32187c5"><use href="#z32187d5"/></clipPath>
	<clipPath id="z32187c6"><use href="#z32187d6"/></clipPath>
	<clipPath id="z32187c7"><use href="#z32187d7"/></clipPath>
	<clipPath id="z32187c8"><use href="#z32187d8"/></clipPath>
	<clipPath id="z32187c9"><use href="#z32187d9"/></clipPath>
	<clipPath id="z32187c10"><use href="#z32187d10"/></clipPath>
	<clipPath id="z32187c11"><use href="#z32187d11"/></clipPath>
	<clipPath id="z32187c12"><use href="#z32187d12"/></clipPath>
	<clipPath id="z32187c13"><use href="#z32187d13"/></clipPath>
	<clipPath id="z32187c14"><use href="#z32187d14"/></clipPath><marker id="guide-arrow" viewBox="0 0 16 16" refX="5" refY="5" markerWidth="4" markerHeight="4" orient="auto-start-reverse"><path d="M 0 0 L 10 5 L 0 10 z" fill="inherit"/></marker></defs>
<g class="strokes"><path pathLength="3333" clip-path="url(#z32187c1)" d="M247 103L285 152L168 379L185 401L288 371"/><path pathLength="3333" clip-path="url(#z32187c2)" d="M347 233L375 280L195 544L216 566L343 497"/><path pathLength="3333" clip-path="url(#z32187c3)" d="M338 451L390 542"/><path pathLength="3333" clip-path="url(#z32187c4)" d="M110 662L154 757L153 817"/><path pathLength="3333" clip-path="url(#z32187c5)" d="M218 645L276 729"/><path pathLength="3333" clip-path="url(#z32187c6)" d="M307 588L380 676"/><path pathLength="3333" clip-path="url(#z32187c7)" d="M552 71L637 119L669 168"/><path pathLength="3333" clip-path="url(#z32187c8)" d="M460 247L470 285L440 402"/><path pathLength="3333" clip-path="url(#z32187c9)" d="M491 292L791 218L860 264L773 339"/><path pathLength="3333" clip-path="url(#z32187c10)" d="M515 426L778 385"/><path pathLength="3333" clip-path="url(#z32187c11)" d="M607 451L636 481L641 682"/><path pathLength="3333" clip-path="url(#z32187c12)" d="M668 557L790 536"/><path pathLength="3333" clip-path="url(#z32187c13)" d="M484 522L516 575L480 652L314 856"/><path pathLength="3333" clip-path="url(#z32187c14)" d="M533 623L793 793L989 798"/></g>
<g class="guides"><text class="g1" style="--gs:1" x="247" y="103">①</text><path class="g1 aligned" style="--gs:1" d="M247,103 Q285,152 226.5,265.5 Q168,379 176.5,390 Q185,401 236.5,386 Q236.5,386 288,371"/><path class="g1 offset" style="--gs:1" d="M332.68,34.46 Q351.68,78.94 322.43,181.98 Q293.18,285.03 297.43,295.01 Q301.68,305 327.43,291.38 Q327.43,291.38 353.18,277.76"/><text class="g2" style="--gs:2" x="347" y="233">②</text><path class="g2 aligned" style="--gs:2" d="M347,233 Q375,280 285,412 Q195,544 205.5,555 Q216,566 279.5,531.5 Q279.5,531.5 343,497"/><path class="g2 offset" style="--gs:2" d="M432.68,164.46 Q447.35,207.58 400.19,328.7 Q353.03,449.81 358.53,459.91 Q364.04,470 397.31,438.34 Q397.31,438.34 430.58,406.69"/><text class="g3" style="--gs:3" x="338" y="451">③</text><path class="g3 aligned" style="--gs:3" d="M338,451 L390,542"/><path class="g3 offset" style="--gs:3" d="M423.68,382.46 L475.68,473.46"/><text class="g4" style="--gs:4" x="110" y="662">④</text><path class="g4 aligned" style="--gs:4" d="M110,662 Q154,757 153.88,764.5 Q153.13,809.5 153,817"/><path class="g4 offset" style="--gs:4" d="M230,662 Q274,757 273.88,764.5 Q273.13,809.5 273,817"/><text class="g5" style="--gs:5" x="218" y="645">⑤</text><path class="g5 aligned" style="--gs:5" d="M218,645 L276,729"/><path class="g5 offset" style="--gs:5" d="M303.68,576.46 L361.68,660.46"/><text class="g6" style="--gs:6" x="307" y="588">⑥</text><path class="g6 aligned" style="--gs:6" d="M307,588 L380,676"/><path class="g6 offset" style="--gs:6" d="M392.68,519.46 L465.68,607.46"/><text class="g7" style="--gs:7" x="552" y="71">⑦</text><path class="g7 aligned" style="--gs:7" d="M552,71 Q637,119 641,125.13 Q665,161.88 669,168"/><path class="g7 offset" style="--gs:7" d="M637.68,2.46 Q722.68,50.46 726.68,56.58 Q750.68,93.33 754.68,99.46"/><text class="g8" style="--gs:8" x="460" y="247">⑧</text><path class="g8 aligned" style="--gs:8" d="M465,266 L440,402"/><path class="g8 offset" style="--gs:8" d="M585,266 L560,402"/><text class="g9" style="--gs:9" x="491" y="292">⑨</text><path class="g9 aligned" style="--gs:9" d="M491,292 Q791,218 808.25,229.5 Q860,264 838.25,282.75 Q794.75,320.25 773,339"/><path class="g9 offset" style="--gs:9" d="M491,388 Q681.24,314 692.18,325.5 Q725,360 711.21,378.75 Q683.62,416.25 669.83,435"/><text class="g10" style="--gs:10" x="515" y="426">⑩</text><path class="g10 aligned" style="--gs:10" d="M515,426 L778,385"/><path class="g10 offset" style="--gs:10" d="M515,522 L778,481"/><text class="g11" style="--gs:11" x="607" y="451">⑪</text><path class="g11 aligned" style="--gs:11" d="M622,466 L641,682"/><path class="g11 offset" style="--gs:11" d="M742,466 L761,682"/><text class="g12" style="--gs:12" x="668" y="557">⑫</text><path class="g12 aligned" style="--gs:12" d="M668,557 L790,536"/><path class="g12 offset" style="--gs:12" d="M668,653 L790,632"/><text class="g13" style="--gs:13" x="484" y="522">⑬</text><path class="g13 aligned" style="--gs:13" d="M484,522 Q516,575 507,594.25 Q480,652 438.5,703 Q355.5,805 314,856"/><path class="g13 offset" style="--gs:13" d="M388,522 Q404.79,559.77 400.07,573.48 Q385.9,614.63 364.12,650.98 Q320.57,723.66 298.79,760"/><text class="g14" style="--gs:14" x="533" y="623">⑭</text><path class="g14 aligned" style="--gs:14" d="M533,623 Q793,793 817.5,793.63 Q964.5,797.38 989,798"/><path class="g14 offset" style="--gs:14" d="M618.68,554.46 Q829.83,697.78 849.72,698.31 Q969.1,701.47 989,702"/></g>
</svg>
