<!--
  Stroke-order data for 編, derived from AnimCJK (https://github.com/parsimonhi/animCJK),
  itself derived from the Arphic PL KaitiM fonts. Distributed under the Arphic Public License
  (see ARPHICPL.TXT). Regenerated by scripts/build-strokes.ts — do not edit by hand.
-->
<svg id="z32232" class="acjk" viewBox="0 0 1024 1024" xmlns="http://www.w3.org/2000/svg">
<g class="glyph"><path id="z32232d1" d="M299 385C267 387 238 389 214 391C194 392 189 386 198 373C237 307 274 249 313 201C321 190 324 182 323 177C321 168 307 154 283 134C271 125 261 122 250 125C243 126 241 133 245 143C255 169 236 228 187 323C176 343 159 364 136 386C125 395 119 403 121 412C123 423 128 435 140 447C145 453 154 455 162 450C182 436 223 423 284 411C294 409 309 385 299 385Z"/><path id="z32232d2" d="M332 526C301 532 266 542 228 558C217 562 215 559 222 550C246 513 289 460 350 388C368 365 384 346 401 333C408 326 410 319 407 314C400 301 386 289 365 278C354 271 347 270 341 272C335 274 333 279 334 290C335 306 325 339 299 385C289 402 289 402 284 411C273 429 167 563 150 576C141 582 139 588 141 598C142 604 150 614 167 627C174 633 181 634 191 626C235 585 303 557 340 540C345 538 337 525 332 526Z"/><path id="z32232d3" d="M340 540C351 559 358 573 369 577C373 578 378 575 382 571C386 565 388 555 388 541C388 527 369 509 334 487C327 483 323 481 320 482C317 482 315 486 315 492C314 496 326 516 332 526C337 535 337 535 340 540Z"/><path id="z32232d4" d="M96 731C106 757 117 786 127 818C130 829 136 837 146 842C152 844 158 843 165 838C172 831 179 818 183 799C188 773 164 735 115 689C107 681 101 678 97 678C92 678 88 682 86 690C84 696 88 710 96 731Z"/><path id="z32232d5" d="M220 675C233 704 244 726 260 737C266 740 273 739 280 734C285 729 288 722 289 713C289 691 271 670 237 649C230 644 224 642 218 642C215 642 213 645 213 652C212 658 215 665 220 675Z"/><path id="z32232d6" d="M305 627C316 650 326 667 339 674C345 677 352 676 357 671C361 666 363 660 363 652C362 641 359 631 353 624C347 617 338 613 330 609C315 601 306 598 302 599C299 599 297 601 297 607C296 611 300 617 305 627Z"/><path id="z32232d7" d="M496 167C474 170 471 181 489 194C511 208 545 211 587 201C625 191 666 180 708 168C728 162 739 156 742 153C747 146 748 139 745 134C740 124 728 118 710 114C692 110 656 122 600 144C569 156 534 160 496 167Z"/><path id="z32232d8" d="M755 387C771 344 791 319 810 304C822 294 822 279 812 269C802 259 778 247 744 232C731 225 703 236 658 255C621 270 575 280 523 293C512 295 524 326 535 324C593 310 688 289 715 282C723 279 726 297 724 307C717 335 710 361 702 385C696 402 748 403 755 387Z"/><path id="z32232d9" d="M503 450C513 458 526 461 540 458C586 446 662 431 766 417C772 416 776 413 776 407C776 402 769 395 755 387C740 378 719 382 702 385C631 405 567 420 509 430C508 430 508 430 508 431C502 433 498 446 503 450Z"/><path id="z32232d10" d="M466 582C471 568 491 494 503 450C506 437 506 437 508 431C517 394 528 333 535 324C539 314 531 301 523 293C516 286 506 280 498 275C486 268 478 265 471 268C464 270 461 275 465 285C472 304 476 328 473 354C450 502 412 620 365 708C336 759 284 826 268 846C265 848 262 851 261 856C258 861 261 864 267 864C279 863 312 836 362 778C378 759 392 737 407 713C424 683 440 649 454 613C462 592 462 592 466 582Z"/><path id="z32232d11" d="M472 584C470 583 468 582 466 582C456 578 450 603 454 613C474 673 466 751 451 801C446 815 440 829 454 856C455 860 459 864 463 870C467 876 472 879 477 876C493 864 501 830 501 777C501 689 502 634 506 613C509 598 486 590 472 584Z"/><path id="z32232d12" d="M706 567C772 554 809 550 824 558C834 564 844 575 845 597C847 647 839 718 827 810C825 823 820 831 807 831C789 829 775 827 764 825C752 822 748 824 750 831C750 837 761 848 779 866C800 887 813 911 827 932C833 941 844 942 854 937C860 933 868 918 880 894C893 863 903 820 902 762C899 643 899 576 909 562C915 553 917 545 912 539C905 529 887 520 860 509C849 504 830 511 798 518C692 541 511 580 472 584C457 586 492 619 506 613C520 608 538 603 560 598C578 593 578 593 587 591C609 585 636 579 668 574C693 569 693 569 706 567Z"/><path id="z32232d13" d="M722 683C744 679 767 676 790 674C804 672 809 665 805 659C797 649 786 643 771 640C758 637 744 639 726 643C694 650 694 650 678 653C662 656 631 663 609 668C586 673 586 673 574 675C556 678 539 680 523 684C512 686 512 691 526 702C527 703 545 710 575 706C598 703 598 703 609 701C631 697 663 692 677 690C707 685 707 685 722 683Z"/><path id="z32232d14" d="M560 598C564 602 572 627 574 675C575 696 575 696 575 706C576 752 582 776 585 782C591 793 597 796 601 789C605 781 609 751 609 701C609 679 609 679 609 668C609 641 609 624 610 616C610 607 603 598 587 591C578 588 554 591 560 598Z"/><path id="z32232d15" d="M677 690C674 780 674 834 685 853C687 856 690 858 694 857C702 853 708 836 712 808C714 792 715 750 722 683C725 656 725 656 726 643C726 641 728 626 734 600C735 591 733 584 727 580C718 574 712 569 706 567C694 562 663 562 668 574C678 591 678 640 678 652C677 677 677 677 677 690Z"/></g>
<defs><clipPath id="z32232c1"><use href="#z32232d1"/></clipPath>
	<clipPath id="z32232c2"><use href="#z32232d2"/></clipPath>
	<clipPath id="z32232c3"><use href="#z32232d3"/></clipPath>
	<clipPath id="z32232c4"><use href="#z32232d4"/></clipPath>
	<clipPath id="z32232c5"><use href="#z32232d5"/></clipPath>
	<clipPath id="z32232c6"><use href="#z32232d6"/></clipPath>
	<clipPath id="z32232c7"><use href="#z32232d7"/></clipPath>
	<clipPath id="z32232c8"><use href="#z32232d8"/></clipPath>
	<clipPath id="z32232c9"><use href="#z32232d9"/></clipPath>
	<clipPath id="z32232c10"><use href="#z32232d10"/></clipPath>
	<clipPath id="z32232c11"><use href="#z32232d11"/></clipPath>
	<clipPath id="z32232c12"><use href="#z32232d12"/></clipPath>
	<clipPath id="z32232c13"><use href="#z32232d13"/></clipPath>
	<clipPath id="z32232c14"><use href="#z32232d14"/></clipPath>
	<clipPath id="z32232c15"><use href="#z32232d15"/></clipPath><marker id="guide-arrow" viewBox="0 0 16 16" refX="5" refY="5" markerWidth="4" markerHeight="4" orient="auto-start-reverse"><path d="M 0 0 L 10 5 L 0 10 z" fill="inherit"/></marker></defs>
<g class="strokes"><path pathLength="3333" clip-path="url(#z32232c1)" d="M251 130L283 187L160 401L179 420L290 389"/><path pathLength="3333" clip-path="url(#z32232c2)" d="M342 279L368 323L183 567L205 595L331 538"/><path pathLength="3333" clip-path="url(#z32232c3)" d="M323 490L371 570"/><path pathLength="3333" clip-path="url(#z32232c4)" d="M98 684L145 772L153 839"/><path pathLength="3333" clip-path="url(#z32232c5)" d="M221 647L270 734"/><path pathLength="3333" clip-path="url(#z32232c6)" d="M304 607L350 671"/><path pathLength="3333" clip-path="url(#z32232c7)" d="M486 183L743 141"/><path pathLength="3333" clip-path="url(#z32232c8)" d="M531 298L732 258L771 293L711 382"/><path pathLength="3333" clip-path="url(#z32232c9)" d="M507 446L770 407"/><path pathLength="3333" clip-path="url(#z32232c10)" d="M471 275L504 324L447 570L381 718L267 856"/><path pathLength="3333" clip-path="url(#z32232c11)" d="M468 589L485 682L472 868"/><path pathLength="3333" clip-path="url(#z32232c12)" d="M481 585L522 593L815 533L872 554L850 859L825 887L758 832"/><path pathLength="3333" clip-path="url(#z32232c13)" d="M526 691L800 661"/><path pathLength="3333" clip-path="url(#z32232c14)" d="M567 601L590 625L595 785"/><path pathLength="3333" clip-path="url(#z32232c15)" d="M677 581L705 611L692 849"/></g>
<g class="guides"><text class="g1" style="--gs:1" x="251" y="130">①</text><path class="g1 aligned" style="--gs:1" d="M251,130 Q283,187 221.5,294 Q160,401 169.5,410.5 Q179,420 234.5,404.5 Q234.5,404.5 290,389"/><path class="g1 offset" style="--gs:1" d="M371,130 Q387,168.13 356.25,239.71 Q325.5,311.29 330.25,317.64 Q335,324 362.75,313.63 Q362.75,313.63 390.5,303.26"/><text class="g2" style="--gs:2" x="342" y="279">②</text><path class="g2 aligned" style="--gs:2" d="M342,279 Q368,323 275.5,445 Q183,567 194,581 Q205,595 268,566.5 Q268,566.5 331,538"/><path class="g2 offset" style="--gs:2" d="M427.68,210.46 Q441.64,250.63 391.98,362.03 Q342.32,473.43 348.22,486.22 Q354.13,499 387.95,472.98 Q387.95,472.98 421.77,446.95"/><text class="g3" style="--gs:3" x="323" y="490">③</text><path class="g3 aligned" style="--gs:3" d="M323,490 L371,570"/><path class="g3 offset" style="--gs:3" d="M408.68,421.46 L456.68,501.46"/><text class="g4" style="--gs:4" x="98" y="684">④</text><path class="g4 aligned" style="--gs:4" d="M98,684 Q145,772 146,780.38 Q152,830.63 153,839"/><path class="g4 offset" style="--gs:4" d="M218,684 Q265,772 266,780.38 Q272,830.63 273,839"/><text class="g5" style="--gs:5" x="221" y="647">⑤</text><path class="g5 aligned" style="--gs:5" d="M221,647 L270,734"/><path class="g5 offset" style="--gs:5" d="M341,647 L390,734"/><text class="g6" style="--gs:6" x="304" y="607">⑥</text><path class="g6 aligned" style="--gs:6" d="M304,607 L350,671"/><path class="g6 offset" style="--gs:6" d="M389.68,538.46 L435.68,602.46"/><text class="g7" style="--gs:7" x="486" y="183">⑦</text><path class="g7 aligned" style="--gs:7" d="M486,183 L743,141"/><path class="g7 offset" style="--gs:7" d="M486,279 L743,237"/><text class="g8" style="--gs:8" x="531" y="298">⑧</text><path class="g8 aligned" style="--gs:8" d="M531,298 Q732,258 741.75,266.75 Q771,293 756,315.25 Q726,359.75 711,382"/><path class="g8 offset" style="--gs:8" d="M531,394 Q651.6,354 657.45,362.75 Q675,389 666,411.25 Q648,455.75 639,478"/><text class="g9" style="--gs:9" x="507" y="446">⑨</text><path class="g9 aligned" style="--gs:9" d="M507,446 L770,407"/><path class="g9 offset" style="--gs:9" d="M507,542 L770,503"/><text class="g10" style="--gs:10" x="471" y="275">⑩</text><path class="g10 aligned" style="--gs:10" d="M471,275 Q504,324 475.5,447 Q447,570 414,644 Q381,718 324,787 Q324,787 267,856"/><path class="g10 offset" style="--gs:10" d="M375,275 Q394.63,315.9 377.68,418.58 Q360.72,521.26 341.09,583.03 Q321.46,644.8 287.54,702.4 Q287.54,702.4 253.63,760"/><text class="g11" style="--gs:11" x="468" y="589">⑪</text><path class="g11 aligned" style="--gs:11" d="M468,589 Q485,682 483.38,705.25 Q473.63,844.75 472,868"/><path class="g11 offset" style="--gs:11" d="M588,589 Q605,682 603.38,705.25 Q593.63,844.75 592,868"/><text class="g12" style="--gs:12" x="481" y="585">⑫</text><path class="g12 aligned" style="--gs:12" d="M502,589 Q815,533 843.5,543.5 Q872,554 861,706.5 Q850,859 837.5,873 Q825,887 791.5,859.5 Q791.5,859.5 758,832"/><path class="g12 offset" style="--gs:12" d="M502,685 Q733.79,629 754.89,639.5 Q776,650 767.85,721 Q759.71,792 750.45,799 Q741.19,806 716.39,792.25 Q716.39,792.25 691.58,778.5"/><text class="g13" style="--gs:13" x="526" y="691">⑬</text><path class="g13 aligned" style="--gs:13" d="M526,691 L800,661"/><path class="g13 offset" style="--gs:13" d="M526,787 L800,757"/><text class="g14" style="--gs:14" x="567" y="601">⑭</text><path class="g14 aligned" style="--gs:14" d="M579,613 L595,785"/><path class="g14 offset" style="--gs:14" d="M699,613 L715,785"/><text class="g15" style="--gs:15" x="677" y="581">⑮</text><path class="g15 aligned" style="--gs:15" d="M691,596 L692,849"/><path class="g15 offset" style="--gs:15" d="M811,596 L812,849"/></g>
</svg>
