<svg id="z32239" class="acjk" viewBox="0 0 1024 1024" xmlns="http://www.w3.org/2000/svg">
<style>

@keyframes zk {
	to {
		stroke-dashoffset:0;
	}
}
svg.acjk path[clip-path] {
	--t:0.8s;
	animation:zk var(--t) linear forwards var(--d);
	stroke-dasharray:3337;
	stroke-dashoffset:3339;
	stroke-width:128;
	stroke-linecap:round;
	fill:none;
	stroke:#000;
}
svg.acjk path[id] {fill:#ccc;}


    @keyframes guide-fade {
        0% { opacity: 0; }
        3% { opacity: 1; }
        95% { opacity: 1; }
        100% { opacity: 0; }
    }

    svg.acjk #guide-arrow {
        fill: #f77;
    }

    svg.acjk .guides {
        circle {
            fill: #0f6;
        }

        path {
            opacity: 0;
            animation: guide-fade var(--t) linear forwards var(--d);
            stroke-width: 16px;
            stroke-linecap: round;
            stroke: #f77;
            fill: none;
            marker-end: url(#guide-arrow);
        }

        circle,
        path {
            --t: 0.8s;
            opacity: 0;
            animation: guide-fade calc(var(--t) + 0.4s) ease-in-out forwards calc(var(--d) - 0.2s);
        }
    }
</style>
<path id="z32239d1" d="M291 362C264 362 240 364 218 365C197 366 193 360 202 346C249 266 292 195 337 137C346 124 350 116 349 111C346 101 332 85 306 65C295 56 283 52 270 55C261 56 260 63 265 74C277 103 251 183 180 310C170 327 153 343 135 360C122 371 116 380 118 388C120 400 127 413 138 425C145 433 153 434 162 429C177 418 214 406 272 391C283 389 303 362 291 362Z"/>
<path id="z32239d2" d="M362 473C324 483 283 496 242 514C228 519 226 517 234 505C312 384 373 301 419 258C426 250 428 245 424 238C416 225 402 213 380 202C369 197 360 195 355 197C348 199 347 205 348 216C351 245 333 296 291 362C278 381 278 381 272 391C212 481 171 527 160 536C151 542 149 550 151 559C152 567 162 575 180 589C188 595 194 596 205 587C248 548 304 516 371 490C377 488 368 472 362 473Z"/>
<path id="z32239d3" d="M371 490Q392 526 403 530Q413 534 424 521Q428 511 426 491Q417 452 359 420Q352 416 348 426Q344 432 348 441C357 462 357 462 362 473C368 484 368 484 371 490Z"/>
<path id="z32239d4" d="M120 707Q136 750 151 798Q155 814 170 822Q179 826 189 818Q201 808 207 779Q216 743 139 665Q127 655 121 654Q115 654 110 666Q109 676 120 707Z"/>
<path id="z32239d5" d="M238 664Q254 692 269 723Q275 736 286 740Q293 743 302 735Q309 725 311 701Q312 685 293 664Q245 619 232 622Q228 623 225 633Q225 642 238 664Z"/>
<path id="z32239d6" d="M339 620Q366 675 378 681Q387 682 394 675Q401 665 402 641Q403 628 386 611Q340 577 332 578Q328 579 325 589Q325 598 339 620Z"/>
<path id="z32239d7" d="M664 172C666 155 671 123 688 78C690 71 687 61 675 52C655 36 636 29 621 26C610 23 603 24 598 29C593 33 591 40 596 50C605 67 611 80 611 91C610 119 609 150 608 183C607 204 607 204 607 215C606 243 602 273 599 305C596 319 640 312 642 298C646 266 652 235 658 206C662 183 662 183 664 172Z"/>
<path id="z32239d8" d="M802 271C814 247 829 230 845 217C856 207 857 194 848 183C839 173 817 161 785 145C774 139 761 140 748 145C717 155 690 166 664 172C627 179 627 179 608 183C573 189 539 192 505 197C494 198 488 201 490 207C491 211 498 216 510 221C534 230 544 225 567 221C579 218 593 217 607 215C641 209 641 209 658 206C680 202 704 196 729 192C743 189 752 191 758 197C762 201 763 208 762 218C757 240 752 261 746 281C739 299 794 288 802 271Z"/>
<path id="z32239d9" d="M599 305C546 313 490 320 431 328C418 329 416 334 426 345C434 354 444 359 455 362C467 364 478 364 488 362C598 331 743 315 923 315C923 315 924 315 925 315C937 315 944 312 947 307C949 300 946 292 937 285C897 254 856 261 802 271C765 278 765 278 746 281C720 285 648 296 642 298C613 303 613 303 599 305Z"/>
<path id="z32239d10" d="M542 405Q532 399 502 397Q492 394 488 399Q484 405 492 419Q513 453 530 511Q534 527 545 539Q561 557 566 543Q567 536 568 525C565 505 565 505 564 495Q555 450 554 432C554 422 551 409 542 405Z"/>
<path id="z32239d11" d="M774 466C788 444 801 432 812 426C823 418 823 405 815 396C807 387 788 376 761 362C751 356 739 356 728 361C679 379 618 394 542 405C532 407 544 434 554 432C659 412 659 412 711 402C723 399 732 400 737 405C739 407 741 412 740 420C736 436 730 452 726 466C720 481 764 479 774 466Z"/>
<path id="z32239d12" d="M647 513Q701 504 789 498Q798 497 799 490Q800 483 774 466C761 456 742 463 726 466Q635 485 564 495C554 497 558 525 568 525Q575 525 581 524Q591 521 607 519C634 515 634 515 647 513Z"/>
<path id="z32239d13" d="M679 618C693 615 733 605 800 598C806 597 814 596 818 588C820 581 811 574 798 568C767 552 726 565 683 576C646 585 646 585 627 589C619 590 588 593 535 602C518 604 516 611 530 621C548 634 571 638 598 634C606 632 616 630 627 628C662 621 662 621 679 618Z"/>
<path id="z32239d14" d="M506 755C493 690 484 683 472 666C467 659 467 652 472 649C475 645 481 645 490 647C504 650 512 651 525 659C532 664 536 674 535 686C534 696 533 712 538 750C540 761 508 766 506 755Z"/>
<path id="z32239d15" d="M869 767C879 767 886 765 889 759C891 753 890 743 881 734C856 709 822 704 782 714C751 720 687 731 616 740C590 743 561 746 538 750C517 753 517 753 506 755C482 758 447 761 422 765C411 766 410 771 418 782C424 790 432 797 442 801C452 805 461 804 470 802C503 790 558 782 599 778C692 768 789 760 869 767Z"/>
<path id="z32239d16" d="M626 749Q626 953 638 972C639 973 639 973 639 973Q643 980 651 977Q657 974 662 961Q674 931 675 752Q675 748 675 745C676 718 676 718 676 705Q677 666 679 618C682 590 682 590 683 576Q684 564 688 555Q691 539 679 531Q660 518 647 513C634 508 604 506 607 519Q606 523 618 542Q627 560 627 589C627 615 627 615 627 628Q627 665 626 711C626 736 626 736 626 749Z"/>
<defs>
	<clipPath id="z32239c1"><use href="#z32239d1"/></clipPath>
	<clipPath id="z32239c2"><use href="#z32239d2"/></clipPath>
	<clipPath id="z32239c3"><use href="#z32239d3"/></clipPath>
	<clipPath id="z32239c4"><use href="#z32239d4"/></clipPath>
	<clipPath id="z32239c5"><use href="#z32239d5"/></clipPath>
	<clipPath id="z32239c6"><use href="#z32239d6"/></clipPath>
	<clipPath id="z32239c7"><use href="#z32239d7"/></clipPath>
	<clipPath id="z32239c8"><use href="#z32239d8"/></clipPath>
	<clipPath id="z32239c9"><use href="#z32239d9"/></clipPath>
	<clipPath id="z32239c10"><use href="#z32239d10"/></clipPath>
	<clipPath id="z32239c11"><use href="#z32239d11"/></clipPath>
	<clipPath id="z32239c12"><use href="#z32239d12"/></clipPath>
	<clipPath id="z32239c13"><use href="#z32239d13"/></clipPath>
	<clipPath id="z32239c14"><use href="#z32239d14"/></clipPath>
	<clipPath id="z32239c15"><use href="#z32239d15"/></clipPath>
	<clipPath id="z32239c16"><use href="#z32239d16"/></clipPath>
<marker id="guide-arrow" viewBox="0 0 16 16" refX="5" refY="5" markerWidth="4" markerHeight="4" orient="auto-start-reverse"><path d="M 0 0 L 10 5 L 0 10 z" fill="inherit"/></marker></defs>
<path style="--d:1s;" pathLength="3333" clip-path="url(#z32239c1)" d="M271 64L306 120L161 374L180 398L283 368"/>
<path style="--d:2s;" pathLength="3333" clip-path="url(#z32239c2)" d="M356 203L384 248L190 536L212 554L365 481"/>
<path style="--d:3s;" pathLength="3333" clip-path="url(#z32239c3)" d="M355 426L414 525"/>
<path style="--d:4s;" pathLength="3333" clip-path="url(#z32239c4)" d="M121 660L172 759L178 817"/>
<path style="--d:5s;" pathLength="3333" clip-path="url(#z32239c5)" d="M234 630L294 734"/>
<path style="--d:6s;" pathLength="3333" clip-path="url(#z32239c6)" d="M335 588L385 675"/>
<path style="--d:7s;" pathLength="3333" clip-path="url(#z32239c7)" d="M600 36L649 81L609 301"/>
<path style="--d:8s;" pathLength="3333" clip-path="url(#z32239c8)" d="M498 204L770 170L808 206L753 274"/>
<path style="--d:9s;" pathLength="3333" clip-path="url(#z32239c9)" d="M426 333L481 342L844 288L943 297"/>
<path style="--d:10s;" pathLength="3333" clip-path="url(#z32239c10)" d="M493 402L531 441L555 542"/>
<path style="--d:11s;" pathLength="3333" clip-path="url(#z32239c11)" d="M552 409L743 381L779 415L735 462"/>
<path style="--d:12s;" pathLength="3333" clip-path="url(#z32239c12)" d="M572 498L791 485"/>
<path style="--d:13s;" pathLength="3333" clip-path="url(#z32239c13)" d="M528 611L813 586"/>
<path style="--d:14s;" pathLength="3333" clip-path="url(#z32239c14)" d="M475 652L508 676L519 754"/>
<path style="--d:15s;" pathLength="3333" clip-path="url(#z32239c15)" d="M421 770L470 781L813 736L886 749"/>
<path style="--d:16s;" pathLength="3333" clip-path="url(#z32239c16)" d="M616 523L656 555L646 974"/>
<g class="guides"><circle style="--d: 1s" class="g1" cx="271" cy="64" r="16"/><path style="--d: 1s;" class="g1" d="M356.68,-4.543999999999997 Q374.18,46.85259880239521 337.93,163.41274251497003 Q301.68,279.9728862275449 306.43,290.98644311377245 Q311.18,302 336.93,288.2330538922156 Q336.93,288.2330538922156 362.68,274.46610778443113"/><circle style="--d: 2s" class="g2" cx="356" cy="203" r="16"/><path style="--d: 2s;" class="g2" d="M441.68,134.45600000000002 Q457.3138144329897,175.93599999999998 403.15381443298975,308.672 Q348.9938144329897,441.408 355.1356701030928,449.704 Q361.27752577319586,458 403.99134020618555,424.3551111111111 Q403.99134020618555,424.3551111111111 446.70515463917525,390.7102222222222"/><circle style="--d: 3s" class="g3" cx="355" cy="426" r="16"/><path style="--d: 3s;" class="g3" d="M440.68,357.456 L499.68,456.456"/><circle style="--d: 4s" class="g4" cx="121" cy="660" r="16"/><path style="--d: 4s;" class="g4" d="M241,660 Q292,759 292.75,766.25 Q297.25,809.75 298,817"/><circle style="--d: 5s" class="g5" cx="234" cy="630" r="16"/><path style="--d: 5s;" class="g5" d="M319.68,561.456 L379.68,665.456"/><circle style="--d: 6s" class="g6" cx="335" cy="588" r="16"/><path style="--d: 6s;" class="g6" d="M420.68,519.456 L470.68,606.456"/><circle style="--d: 7s" class="g7" cx="600" cy="36" r="16"/><path style="--d: 7s;" class="g7" d="M504,36 Q553,81 548,108.5 Q518,273.5 513,301"/><circle style="--d: 8s" class="g8" cx="498" cy="204" r="16"/><path style="--d: 8s;" class="g8" d="M498,300 Q679.6258064516129,266 685.9693548387097,275 Q705,302 695.8185483870968,319 Q677.4556451612902,353 668.2741935483871,370"/><circle style="--d: 9s" class="g9" cx="426" cy="333" r="16"/><path style="--d: 9s;" class="g9" d="M426,429 Q481,438 571.75,424.5 Q844,384 868.75,386.25 Q918.25,390.75 943,393"/><circle style="--d: 10s" class="g10" cx="493" cy="402" r="16"/><path style="--d: 10s;" class="g10" d="M578.68,333.456 Q616.68,372.456 619.68,385.081 Q637.68,460.831 640.68,473.456"/><circle style="--d: 11s" class="g11" cx="552" cy="409" r="16"/><path style="--d: 11s;" class="g11" d="M552,505 Q665.5903083700441,477 670.9427312775331,485.5 Q687,511 680.4581497797357,522.75 Q667.3744493392071,546.25 660.8325991189428,558"/><circle style="--d: 12s" class="g12" cx="572" cy="498" r="16"/><path style="--d: 12s;" class="g12" d="M572,594 L791,581"/><circle style="--d: 13s" class="g13" cx="528" cy="611" r="16"/><path style="--d: 13s;" class="g13" d="M528,707 L813,682"/><circle style="--d: 14s" class="g14" cx="492" cy="664" r="16"/><path style="--d: 14s;" class="g14" d="M612,664 L639,754"/><circle style="--d: 15s" class="g15" cx="421" cy="770" r="16"/><path style="--d: 15s;" class="g15" d="M421,866 Q470,877 555.75,865.75 Q813,832 831.25,835.25 Q867.75,841.75 886,845"/><circle style="--d: 16s" class="g16" cx="616" cy="523" r="16"/><path style="--d: 16s;" class="g16" d="M520,523 Q560,555 558.75,607.375 Q551.25,921.625 550,974"/></g></svg>