<svg id="z32244" class="acjk" viewBox="0 0 1024 1024" xmlns="http://www.w3.org/2000/svg">
<style>

@keyframes zk {
	to {
		stroke-dashoffset:0;
	}
}
svg.acjk path[clip-path] {
	--t:0.8s;
	animation:zk var(--t) linear forwards var(--d);
	stroke-dasharray:3337;
	stroke-dashoffset:3339;
	stroke-width:128;
	stroke-linecap:round;
	fill:none;
	stroke:#000;
}
svg.acjk path[id] {fill:#ccc;}


    @keyframes guide-fade {
        0% { opacity: 0; }
        3% { opacity: 1; }
        95% { opacity: 1; }
        100% { opacity: 0; }
    }

    svg.acjk #guide-arrow {
        fill: #f77;
    }

    svg.acjk .guides {
        circle {
            fill: #0f6;
        }

        path {
            opacity: 0;
            animation: guide-fade var(--t) linear forwards var(--d);
            stroke-width: 16px;
            stroke-linecap: round;
            stroke: #f77;
            fill: none;
            marker-end: url(#guide-arrow);
        }

        circle,
        path {
            --t: 0.8s;
            opacity: 0;
            animation: guide-fade calc(var(--t) + 0.4s) ease-in-out forwards calc(var(--d) - 0.2s);
        }
    }
</style>
<path id="z32244d1" d="M260 375C233 377 208 379 186 382C169 384 165 379 172 368C212 302 251 244 289 195C298 183 301 174 300 170C297 161 284 146 258 125C247 116 236 113 224 116C216 117 214 124 219 134C231 160 210 221 159 317C147 338 131 360 108 381C95 391 89 401 92 409C95 421 102 434 113 445C120 452 129 452 137 447C150 436 180 422 230 406C233 404 238 404 244 403C255 401 271 375 260 375Z"/>
<path id="z32244d2" d="M303 518C272 524 239 534 206 547C189 553 186 550 196 536C220 501 260 449 315 378C334 352 351 331 368 316C375 309 377 302 373 295C365 282 350 270 327 258C315 252 307 249 301 252C294 254 291 261 293 272C295 290 287 326 260 375C249 394 249 394 244 403C213 455 136 555 118 567C108 573 105 581 108 591C109 599 120 609 138 623C146 630 154 630 164 622C204 587 255 559 315 537C322 534 310 517 303 518Z"/>
<path id="z32244d3" d="M315 537Q339 561 349 564Q362 567 371 551Q374 538 368 518Q361 500 340 489Q307 467 292 462Q285 459 281 470Q278 477 303 518C311 531 311 531 315 537Z"/>
<path id="z32244d4" d="M69 755C79 776 90 800 101 826C105 836 112 844 122 848C128 850 134 848 141 842C147 835 153 822 155 802C156 778 132 747 84 711C75 704 68 700 65 701C60 701 56 706 55 715C53 721 59 734 69 755Z"/>
<path id="z32244d5" d="M193 700C214 733 227 753 237 755C242 756 248 753 253 747C258 739 260 726 259 709C257 694 236 678 199 659C190 654 183 651 180 653C176 654 174 659 174 667C173 673 182 683 193 700Z"/>
<path id="z32244d6" d="M303 645C324 673 337 690 347 692C351 692 356 689 361 683C365 676 365 664 364 647C363 638 356 630 344 623C314 606 295 598 288 601C284 602 283 607 283 615C283 621 291 629 303 645Z"/>
<path id="z32244d7" d="M625 239C693 221 727 207 729 206C733 201 735 196 732 191C727 184 715 179 697 176C678 173 656 181 629 191C595 203 595 203 578 209C557 216 517 223 486 229C463 232 460 241 478 251C505 265 538 261 579 251C610 243 610 243 625 239Z"/>
<path id="z32244d8" d="M429 347C420 344 410 341 398 340C391 339 386 340 384 343C381 346 382 353 387 362C407 400 424 451 436 515C439 533 445 549 457 562C467 574 475 576 478 567C479 562 481 556 481 549C479 529 479 529 478 519C477 514 477 509 476 504C462 441 453 399 449 378C447 366 440 352 429 347Z"/>
<path id="z32244d9" d="M711 519C713 529 719 535 728 536C736 535 744 530 751 521C759 513 774 486 793 442C807 408 827 382 852 365C865 355 866 344 857 334C846 321 824 306 793 286C781 278 750 280 696 291C686 292 661 298 622 307C595 313 595 313 581 316C566 319 459 342 429 347C417 349 437 378 449 378C455 378 462 378 469 376C495 366 533 357 581 347C608 341 608 341 622 338C701 320 748 315 761 323C767 326 766 339 761 358C738 428 724 470 717 484C716 486 715 488 713 491C708 499 709 510 711 519Z"/>
<path id="z32244d10" d="M622 435C643 431 663 427 683 425C697 423 702 416 697 408C690 397 678 391 661 389C650 387 637 389 622 393C595 400 595 400 582 403C552 410 527 420 503 427C492 430 493 435 507 445C513 449 521 450 533 449C549 446 566 443 582 441C609 437 609 437 622 435Z"/>
<path id="z32244d11" d="M620 528C646 523 677 521 711 519C720 519 722 494 713 491C695 481 664 486 621 495C592 500 592 500 578 503C543 509 510 515 478 519C468 521 471 549 481 549C491 550 518 543 562 537C601 531 601 531 620 528Z"/>
<path id="z32244d12" d="M619 545C619 539 619 533 620 528C621 506 621 506 621 495C621 472 622 394 622 338C622 317 622 317 622 307C622 300 621 277 625 239C628 207 628 207 629 191C631 162 635 136 644 115C648 103 653 93 650 85C646 77 623 63 585 39C567 27 553 26 539 38C535 40 533 48 540 59C563 96 576 145 578 209C579 237 579 237 579 251C579 261 581 306 581 316C581 337 581 337 581 347C581 397 579 449 578 503C576 576 576 576 575 612C572 716 562 790 549 836C539 868 543 906 562 953C567 965 572 971 577 975C582 978 585 977 591 973C596 968 603 961 610 947C617 930 620 910 620 888C619 861 619 760 619 586C619 559 619 559 619 545Z"/>
<path id="z32244d13" d="M562 537C524 625 441 721 315 824C311 827 307 830 303 834C295 842 294 845 300 847C306 848 312 849 320 846C399 813 471 749 548 649C557 637 565 624 575 612C617 560 587 475 562 537Z"/>
<path id="z32244d14" d="M619 586C665 648 715 708 768 767C782 783 804 793 832 796C882 800 932 798 985 793C997 791 1005 790 1007 786C1009 781 1005 776 994 772C875 721 813 696 810 694C745 652 687 605 633 557C627 551 622 548 619 545C608 536 611 575 619 586Z"/>
<defs>
	<clipPath id="z32244c1"><use href="#z32244d1"/></clipPath>
	<clipPath id="z32244c2"><use href="#z32244d2"/></clipPath>
	<clipPath id="z32244c3"><use href="#z32244d3"/></clipPath>
	<clipPath id="z32244c4"><use href="#z32244d4"/></clipPath>
	<clipPath id="z32244c5"><use href="#z32244d5"/></clipPath>
	<clipPath id="z32244c6"><use href="#z32244d6"/></clipPath>
	<clipPath id="z32244c7"><use href="#z32244d7"/></clipPath>
	<clipPath id="z32244c8"><use href="#z32244d8"/></clipPath>
	<clipPath id="z32244c9"><use href="#z32244d9"/></clipPath>
	<clipPath id="z32244c10"><use href="#z32244d10"/></clipPath>
	<clipPath id="z32244c11"><use href="#z32244d11"/></clipPath>
	<clipPath id="z32244c12"><use href="#z32244d12"/></clipPath>
	<clipPath id="z32244c13"><use href="#z32244d13"/></clipPath>
	<clipPath id="z32244c14"><use href="#z32244d14"/></clipPath>
<marker id="guide-arrow" viewBox="0 0 16 16" refX="5" refY="5" markerWidth="4" markerHeight="4" orient="auto-start-reverse"><path d="M 0 0 L 10 5 L 0 10 z" fill="inherit"/></marker></defs>
<path style="--d:1s;" pathLength="3333" clip-path="url(#z32244c1)" d="M224 121L258 178L131 392L146 415L258 385"/>
<path style="--d:2s;" pathLength="3333" clip-path="url(#z32244c2)" d="M300 256L331 309L150 571L171 588L312 530"/>
<path style="--d:3s;" pathLength="3333" clip-path="url(#z32244c3)" d="M288 467L365 553"/>
<path style="--d:4s;" pathLength="3333" clip-path="url(#z32244c4)" d="M63 708L131 843"/>
<path style="--d:5s;" pathLength="3333" clip-path="url(#z32244c5)" d="M182 662L243 749"/>
<path style="--d:6s;" pathLength="3333" clip-path="url(#z32244c6)" d="M290 609L358 682"/>
<path style="--d:7s;" pathLength="3333" clip-path="url(#z32244c7)" d="M474 239L727 197"/>
<path style="--d:8s;" pathLength="3333" clip-path="url(#z32244c8)" d="M391 349L423 379L468 566"/>
<path style="--d:9s;" pathLength="3333" clip-path="url(#z32244c9)" d="M431 351L780 306L813 347L722 531"/>
<path style="--d:10s;" pathLength="3333" clip-path="url(#z32244c10)" d="M505 436L693 410"/>
<path style="--d:11s;" pathLength="3333" clip-path="url(#z32244c11)" d="M477 535L715 499"/>
<path style="--d:12s;" pathLength="3333" clip-path="url(#z32244c12)" d="M541 43L608 106L583 971"/>
<path style="--d:13s;" pathLength="3333" clip-path="url(#z32244c13)" d="M581 524L557 598L475 703L307 838"/>
<path style="--d:14s;" pathLength="3333" clip-path="url(#z32244c14)" d="M617 549L801 738L1001 782"/>
<g class="guides"><circle style="--d: 1s" class="g1" cx="224" cy="121" r="16"/><path style="--d: 1s;" class="g1" d="M309.68,52.456 Q326.68,104.13289795918367 294.93,201.1404081632653 Q263.18,298.14791836734696 266.93,308.5739591836735 Q270.68,319 298.68,305.4008163265306 Q298.68,305.4008163265306 326.68,291.80163265306123"/><circle style="--d: 2s" class="g2" cx="300" cy="256" r="16"/><path style="--d: 2s;" class="g2" d="M385.68,187.45600000000002 Q402.0055248618785,236.07296385542168 354.34552486187846,356.239421686747 Q306.68552486187843,476.4058795180723 312.21513812154694,484.20293975903616 Q317.74475138121545,492 354.8721546961326,465.398265060241 Q354.8721546961326,465.398265060241 391.9995580110497,438.7965301204819"/><circle style="--d: 3s" class="g3" cx="288" cy="467" r="16"/><path style="--d: 3s;" class="g3" d="M373.68,398.456 L450.68,484.456"/><circle style="--d: 4s" class="g4" cx="63" cy="708" r="16"/><path style="--d: 4s;" class="g4" d="M183,708 L251,843"/><circle style="--d: 5s" class="g5" cx="182" cy="662" r="16"/><path style="--d: 5s;" class="g5" d="M267.68,593.456 L328.68,680.456"/><circle style="--d: 6s" class="g6" cx="290" cy="609" r="16"/><path style="--d: 6s;" class="g6" d="M375.68,540.456 L443.68,613.456"/><circle style="--d: 7s" class="g7" cx="474" cy="239" r="16"/><path style="--d: 7s;" class="g7" d="M474,335 L727,293"/><circle style="--d: 8s" class="g8" cx="391" cy="349" r="16"/><path style="--d: 8s;" class="g8" d="M476.68,280.456 Q508.68,310.456 514.305,333.831 Q548.055,474.081 553.68,497.456"/><circle style="--d: 9s" class="g9" cx="431" cy="351" r="16"/><path style="--d: 9s;" class="g9" d="M431,447 Q670.3664921465969,402 676.0248691099476,412.25 Q693,443 677.3965968586388,465 Q646.1897905759163,509 630.586387434555,531"/><circle style="--d: 10s" class="g10" cx="505" cy="436" r="16"/><path style="--d: 10s;" class="g10" d="M505,532 L693,506"/><circle style="--d: 11s" class="g11" cx="477" cy="535" r="16"/><path style="--d: 11s;" class="g11" d="M477,631 L715,595"/><circle style="--d: 12s" class="g12" cx="541" cy="43" r="16"/><path style="--d: 12s;" class="g12" d="M445,43 Q512,106 508.875,214.125 Q490.125,862.875 487,971"/><circle style="--d: 13s" class="g13" cx="581" cy="524" r="16"/><path style="--d: 13s;" class="g13" d="M485,524 Q471.51094890510944,575.375796178344 459.98905109489044,593.6003184713376 Q425.42335766423355,648.2738853503184 401.81751824817513,671.7054140127389 Q354.6058394160584,718.5684713375796 331,742"/><circle style="--d: 14s" class="g14" cx="617" cy="549" r="16"/><path style="--d: 14s;" class="g14" d="M702.68,480.456 Q845.625,647.1848240343348 865.046875,652.0367210300429 Q981.578125,681.1481030042919 1001,686"/></g></svg>