<!--
  Stroke-order data for 縁, derived from AnimCJK (https://github.com/parsimonhi/animCJK),
  itself derived from the Arphic PL KaitiM fonts. Distributed under the Arphic Public License
  (see ARPHICPL.TXT). Regenerated by scripts/build-strokes.ts — do not edit by hand.
-->
<svg id="z32257" class="acjk" viewBox="0 0 1024 1024" xmlns="http://www.w3.org/2000/svg">
<g class="glyph"><path style="--part:1" id="z32257d1" d="M276 378Q228 382 190 387Q163 390 176 371Q236 265 294 187Q307 169 305 162Q302 147 262 118Q246 105 227 109Q217 112 223 127Q241 166 163 318Q147 352 111 385Q93 401 96 413Q102 432 117 449Q127 459 140 451Q162 435 238 410Q248 407 258 405C269 403 287 378 276 378Z"/><path style="--part:1" id="z32257d2" d="M327 496C297 502 264 511 229 523C214 529 211 526 221 513C243 480 282 431 336 365C352 341 369 322 385 309C393 302 395 296 391 290C384 278 370 266 349 255C339 249 331 247 325 249C318 251 316 257 318 267C320 289 306 326 276 378C264 396 264 396 258 405C198 487 161 532 149 540C140 546 137 553 139 562C139 570 148 580 166 592C172 598 180 598 190 591C226 563 276 536 336 512C342 510 333 495 327 496Z"/><path style="--part:1" id="z32257d3" d="M336 512Q345 531 361 538Q371 542 379 530Q383 520 381 503Q377 485 358 472Q331 447 318 440Q311 436 308 445Q304 452 327 496C333 507 333 507 336 512Z"/><path style="--part:1" id="z32257d4" d="M100 735Q118 781 135 834Q139 850 154 858Q163 862 173 854Q183 844 191 815Q197 790 175 756Q150 725 119 693Q107 683 101 682Q95 682 90 694Q89 704 100 735Z"/><path style="--part:1" id="z32257d5" d="M203 680Q216 702 228 728Q235 741 246 745Q255 746 261 739Q268 729 270 705Q270 678 212 644Q202 637 196 638Q192 639 190 649Q189 658 203 680Z"/><path style="--part:1" id="z32257d6" d="M291 600Q318 654 340 660Q350 663 358 649Q362 639 357 620Q345 593 299 579Q292 576 289 585Q286 592 291 600Z"/><path style="--part:2" id="z32257d7" d="M654 355C666 317 690 237 698 191C700 175 696 163 690 157C685 151 643 156 563 170C524 176 500 176 490 173C478 168 471 164 470 159C468 153 474 150 485 149C523 145 560 139 596 131C623 125 651 116 680 105C693 100 706 98 718 104C751 118 774 131 784 141C794 151 793 165 782 176C758 196 724 274 705 345C702 362 651 372 654 355Z"/><path style="--part:2" id="z32257d8" d="M474 264Q446 268 466 282Q499 300 583 281Q605 277 629 272Q648 268 651 265Q658 258 655 251Q648 242 625 237Q601 233 577 242Q526 258 474 264Z"/><path style="--part:2" id="z32257d9" d="M551 409C631 391 734 379 860 380C872 380 881 377 884 371C887 364 883 355 873 349C822 317 788 328 705 345C671 352 671 352 654 355C576 370 460 388 398 400C385 402 384 407 394 417C402 425 412 430 423 433C435 435 447 436 457 433C475 427 493 421 514 417C539 412 539 412 551 409Z"/><path style="--part:3" id="z32257d10" d="M513 497Q568 449 569 443C569 441 569 441 569 440Q569 431 553 411C552 410 552 410 551 409C542 400 519 405 514 417Q502 463 393 556Q384 560 382 565Q378 572 388 573Q412 573 491 515C506 503 506 503 513 497Z"/><path style="--part:3" id="z32257d11" d="M642 587Q641 586 641 587C632 576 632 576 627 571Q579 520 513 497C504 494 483 510 491 515Q500 521 511 527C544 549 544 549 560 560Q573 572 586 586C601 601 613 621 616 642Q634 708 607 804Q597 844 584 850Q577 854 518 846Q478 837 476 844Q475 851 487 865Q544 914 566 948Q581 967 597 964Q648 937 669 816Q681 738 668 654C663 631 659 604 642 587Z"/><path style="--part:3" id="z32257d12" d="M511 527Q493 593 344 710Q328 722 349 719Q415 713 519 604Q538 583 560 560C574 546 515 508 511 527Z"/><path style="--part:3" id="z32257d13" d="M586 586Q526 718 336 853Q323 865 332 867Q351 876 427 832Q497 793 579 691Q615 648 614 645Q615 644 616 642C627 624 594 566 586 586Z"/><path style="--part:3" id="z32257d14" d="M641 587Q732 523 780 498Q799 494 795 482Q789 466 770 446Q751 427 728 424Q712 424 713 444Q714 459 705 475Q677 512 627 571C623 577 635 591 641 587Z"/><path style="--part:3" id="z32257d15" d="M668 654Q735 733 815 816Q834 832 861 830Q957 818 986 810Q995 807 996 803Q996 799 983 792Q845 750 758 683Q704 641 642 587C625 570 654 635 668 654Z"/></g>
<defs><clipPath id="z32257c1"><use href="#z32257d1"/></clipPath>
	<clipPath id="z32257c2"><use href="#z32257d2"/></clipPath>
	<clipPath id="z32257c3"><use href="#z32257d3"/></clipPath>
	<clipPath id="z32257c4"><use href="#z32257d4"/></clipPath>
	<clipPath id="z32257c5"><use href="#z32257d5"/></clipPath>
	<clipPath id="z32257c6"><use href="#z32257d6"/></clipPath>
	<clipPath id="z32257c7"><use href="#z32257d7"/></clipPath>
	<clipPath id="z32257c8"><use href="#z32257d8"/></clipPath>
	<clipPath id="z32257c9"><use href="#z32257d9"/></clipPath>
	<clipPath id="z32257c10"><use href="#z32257d10"/></clipPath>
	<clipPath id="z32257c11"><use href="#z32257d11"/></clipPath>
	<clipPath id="z32257c12"><use href="#z32257d12"/></clipPath>
	<clipPath id="z32257c13"><use href="#z32257d13"/></clipPath>
	<clipPath id="z32257c14"><use href="#z32257d14"/></clipPath>
	<clipPath id="z32257c15"><use href="#z32257d15"/></clipPath><marker id="guide-arrow" viewBox="0 0 16 16" refX="5" refY="5" markerWidth="4" markerHeight="4" orient="auto-start-reverse"><path d="M 0 0 L 10 5 L 0 10 z" fill="inherit"/></marker></defs>
<g class="strokes"><path style="--part:1" pathLength="3333" clip-path="url(#z32257c1)" d="M228 115L263 172L137 401L155 420L268 385"/><path style="--part:1" pathLength="3333" clip-path="url(#z32257c2)" d="M326 254L352 302L184 542L203 560L328 507"/><path style="--part:1" pathLength="3333" clip-path="url(#z32257c3)" d="M315 444L372 534"/><path style="--part:1" pathLength="3333" clip-path="url(#z32257c4)" d="M101 688L167 853"/><path style="--part:1" pathLength="3333" clip-path="url(#z32257c5)" d="M199 645L251 740"/><path style="--part:1" pathLength="3333" clip-path="url(#z32257c6)" d="M297 589L351 651"/><path style="--part:2" pathLength="3333" clip-path="url(#z32257c7)" d="M481 158L696 129L733 153L743 176L663 351"/><path style="--part:2" pathLength="3333" clip-path="url(#z32257c8)" d="M466 272L649 254"/><path style="--part:2" pathLength="3333" clip-path="url(#z32257c9)" d="M396 406L449 413L782 354L879 365"/><path style="--part:3" pathLength="3333" clip-path="url(#z32257c10)" d="M520 423L539 446L389 567"/><path style="--part:3" pathLength="3333" clip-path="url(#z32257c11)" d="M499 513L615 591L644 657L648 740L628 848L591 906L485 846"/><path style="--part:3" pathLength="3333" clip-path="url(#z32257c12)" d="M512 538L524 565L487 607L346 715"/><path style="--part:3" pathLength="3333" clip-path="url(#z32257c13)" d="M585 597L588 638L519 726L333 859"/><path style="--part:3" pathLength="3333" clip-path="url(#z32257c14)" d="M722 428L750 480L640 581"/><path style="--part:3" pathLength="3333" clip-path="url(#z32257c15)" d="M648 598L844 785L988 803"/></g>
<g class="guides"><text class="g1" style="--gs:1" x="228" y="115">①</text><path class="g1 aligned" style="--gs:1" d="M228,115 Q263,172 200,286.5 Q137,401 146,410.5 Q155,420 211.5,402.5 Q211.5,402.5 268,385"/><path class="g1 offset" style="--gs:1" d="M313.68,46.46 Q331.18,98.32 299.68,202.52 Q268.18,306.71 272.68,315.36 Q277.18,324 305.43,308.08 Q305.43,308.08 333.68,292.15"/><text class="g2" style="--gs:2" x="326" y="254">②</text><path class="g2 aligned" style="--gs:2" d="M326,254 Q352,302 268,422 Q184,542 193.5,551 Q203,560 265.5,533.5 Q265.5,533.5 328,507"/><path class="g2 offset" style="--gs:2" d="M446,254 Q459,286.94 417,369.29 Q375,451.65 379.75,457.82 Q384.5,464 415.75,445.81 Q415.75,445.81 447,427.63"/><text class="g3" style="--gs:3" x="315" y="444">③</text><path class="g3 aligned" style="--gs:3" d="M315,444 L372,534"/><path class="g3 offset" style="--gs:3" d="M400.68,375.46 L457.68,465.46"/><text class="g4" style="--gs:4" x="101" y="688">④</text><path class="g4 aligned" style="--gs:4" d="M101,688 L167,853"/><path class="g4 offset" style="--gs:4" d="M221,688 L287,853"/><text class="g5" style="--gs:5" x="199" y="645">⑤</text><path class="g5 aligned" style="--gs:5" d="M199,645 L251,740"/><path class="g5 offset" style="--gs:5" d="M319,645 L371,740"/><text class="g6" style="--gs:6" x="297" y="589">⑥</text><path class="g6 aligned" style="--gs:6" d="M297,589 L351,651"/><path class="g6 offset" style="--gs:6" d="M382.68,520.46 L436.68,582.46"/><text class="g7" style="--gs:7" x="481" y="158">⑦</text><path class="g7 aligned" style="--gs:7" d="M481,158 Q696,129 714.5,141 Q733,153 738,164.5 Q743,176 703,263.5 Q703,263.5 663,351"/><path class="g7 offset" style="--gs:7" d="M481,254 Q597.53,225 607.55,237 Q617.58,249 620.29,250.34 Q623,251.68 601.32,301.34 Q601.32,301.34 579.64,351"/><text class="g8" style="--gs:8" x="466" y="272">⑧</text><path class="g8 aligned" style="--gs:8" d="M466,272 L649,254"/><path class="g8 offset" style="--gs:8" d="M466,368 L649,350"/><text class="g9" style="--gs:9" x="396" y="406">⑨</text><path class="g9 aligned" style="--gs:9" d="M396,406 Q449,413 532.25,398.25 Q782,354 806.25,356.75 Q854.75,362.25 879,365"/><path class="g9 offset" style="--gs:9" d="M396,502 Q449,509 532.25,494.25 Q782,450 806.25,452.75 Q854.75,458.25 879,461"/><text class="g10" style="--gs:10" x="520" y="423">⑩</text><path class="g10 aligned" style="--gs:10" d="M530,435 L389,567"/><path class="g10 offset" style="--gs:10" d="M615.68,503.54 L474.68,635.54"/><text class="g11" style="--gs:11" x="499" y="513">⑪</text><path class="g11 aligned" style="--gs:11" d="M499,513 Q615,591 629.5,624 Q644,657 646,698.5 Q648,740 638,794 Q628,848 609.5,877 Q591,906 538,876 Q538,876 485,846"/><path class="g11 offset" style="--gs:11" d="M403,513 Q461,571.95 468.25,596.89 Q475.5,621.82 476.5,653.19 Q477.5,684.55 472.5,725.36 Q467.5,766.17 458.25,788.08 Q449,810 422.5,787.33 Q422.5,787.33 396,764.66"/><text class="g12" style="--gs:12" x="512" y="538">⑫</text><path class="g12 aligned" style="--gs:12" d="M518,552 Q487,607 469.38,620.5 Q363.63,701.5 346,715"/><path class="g12 offset" style="--gs:12" d="M422,552 Q406.5,579.5 397.69,586.25 Q344.81,626.75 336,633.5"/><text class="g13" style="--gs:13" x="585" y="597">⑬</text><path class="g13 aligned" style="--gs:13" d="M587,618 Q519,726 495.75,742.63 Q356.25,842.38 333,859"/><path class="g13 offset" style="--gs:13" d="M672.68,686.54 Q604.68,794.54 581.43,811.17 Q441.93,910.92 418.68,927.54"/><text class="g14" style="--gs:14" x="722" y="428">⑭</text><path class="g14 aligned" style="--gs:14" d="M722,428 Q750,480 736.25,492.63 Q653.75,568.38 640,581"/><path class="g14 offset" style="--gs:14" d="M626,428 Q640,454 633.13,460.31 Q591.88,498.19 585,504.5"/><text class="g15" style="--gs:15" x="648" y="598">⑮</text><path class="g15 aligned" style="--gs:15" d="M648,598 Q844,785 862,787.25 Q970,800.75 988,803"/><path class="g15 offset" style="--gs:15" d="M733.68,529.46 Q880.29,691.41 893.75,693.36 Q974.54,705.05 988,707"/></g>
<g class="parts"><rect data-part="3" data-literal="𧰨" role="button" tabindex="0" aria-label="Part 𧰨" x="261" y="351" width="763" height="627"/><rect data-part="1" data-literal="糹" data-radical="true" role="button" tabindex="0" aria-label="Part 糹 (radical)" x="29" y="43" width="415" height="882"/><rect data-part="2" data-literal="彐" role="button" tabindex="0" aria-label="Part 彐" x="324" y="57" width="627" height="428"/></g>
</svg>
