<svg id="z32305" class="acjk" viewBox="0 0 1024 1024" xmlns="http://www.w3.org/2000/svg">
<style>

@keyframes zk {
	to {
		stroke-dashoffset:0;
	}
}
svg.acjk path[clip-path] {
	--t:0.8s;
	animation:zk var(--t) linear forwards var(--d);
	stroke-dasharray:3337;
	stroke-dashoffset:3339;
	stroke-width:128;
	stroke-linecap:round;
	fill:none;
	stroke:#000;
}
svg.acjk path[id] {fill:#ccc;}


    @keyframes guide-fade {
        0% { opacity: 0; }
        3% { opacity: 1; }
        95% { opacity: 1; }
        100% { opacity: 0; }
    }

    svg.acjk #guide-arrow {
        fill: #f77;
    }

    svg.acjk .guides {
        circle {
            fill: #0f6;
        }

        path {
            opacity: 0;
            animation: guide-fade var(--t) linear forwards var(--d);
            stroke-width: 16px;
            stroke-linecap: round;
            stroke: #f77;
            fill: none;
            marker-end: url(#guide-arrow);
        }

        circle,
        path {
            --t: 0.8s;
            opacity: 0;
            animation: guide-fade calc(var(--t) + 0.4s) ease-in-out forwards calc(var(--d) - 0.2s);
        }
    }
</style>
<path id="z32305d1" d="M238 400Q195 406 161 412Q136 415 147 397Q201 291 255 210Q267 194 264 186Q261 173 223 147Q207 137 191 140Q181 144 187 158Q206 200 122 372Q109 391 88 413Q72 428 75 438Q81 456 95 471Q105 480 117 472Q139 456 219 429Q220 428 224 428C234 426 248 398 238 400Z"/>
<path id="z32305d2" d="M274 539Q231 551 185 570Q164 580 176 561Q209 509 286 402Q310 366 331 346Q341 336 335 327Q325 311 293 296Q278 289 270 292Q261 295 264 309Q267 333 238 400C229 419 229 419 224 428Q221 431 220 435Q133 576 109 590Q97 600 101 612Q104 624 128 639Q138 649 151 636Q214 582 280 556C286 554 280 538 274 539Z"/>
<path id="z32305d3" d="M280 556Q286 574 297 579Q306 585 317 575Q323 566 323 548Q320 515 278 486Q272 482 267 489Q263 492 274 539C278 550 278 550 280 556Z"/>
<path id="z32305d4" d="M72 750Q82 789 93 833Q96 849 108 856Q115 860 126 854Q136 847 145 820Q152 801 135 769Q92 706 77 702Q71 702 66 712Q63 722 72 750Z"/>
<path id="z32305d5" d="M172 710Q202 761 212 765Q219 766 226 759Q232 749 232 727Q232 708 179 675Q169 669 164 670Q160 671 158 681Q158 688 172 710Z"/>
<path id="z32305d6" d="M266 647Q293 705 313 711Q323 714 331 701Q334 692 331 675Q322 648 274 627Q267 624 264 633Q263 639 266 647Z"/>
<path id="z32305d7" d="M440 139Q452 163 410 252Q389 292 359 337Q352 344 351 350Q350 357 359 355Q395 349 482 208Q492 186 504 175Q510 168 506 157Q502 148 481 133Q460 120 446 122Q433 123 440 139Z"/>
<path id="z32305d8" d="M431 484Q447 459 466 428Q479 403 491 390Q497 383 493 372Q490 363 469 349Q450 337 436 338Q423 339 429 355Q439 371 433 386Q409 465 331 578Q324 585 323 590Q322 597 331 596Q352 593 408 516C423 495 423 495 431 484Z"/>
<path id="z32305d9" d="M408 516Q421 579 422 592Q410 736 399 784Q380 856 416 894Q432 907 442 884Q455 850 454 809Q461 601 469 555Q476 531 467 522Q451 504 440 492Q436 488 431 484C422 475 405 503 408 516Z"/>
<path id="z32305d10" d="M587 325Q608 297 630 256Q640 235 650 224Q657 215 652 205Q648 196 624 181Q602 169 588 171Q575 174 582 190Q604 223 515 384Q508 393 506 397Q505 406 515 403Q531 397 576 340C583 330 583 330 587 325Z"/>
<path id="z32305d11" d="M576 340Q625 389 633 390Q639 390 642 383Q645 376 641 359Q637 341 587 325C581 323 572 336 576 340Z"/>
<path id="z32305d12" d="M751 295Q770 264 792 223Q802 198 815 184Q821 175 816 165Q812 156 788 141Q766 129 752 131Q739 134 746 150Q764 177 717 280Q695 326 662 380Q655 389 654 393Q653 402 663 399Q685 392 736 318Q737 317 738 314C747 301 747 301 751 295Z"/>
<path id="z32305d13" d="M738 314Q742 320 752 328Q783 355 815 387Q824 396 834 396Q841 396 846 387Q849 377 844 357Q837 324 751 295C744 292 733 308 738 314Z"/>
<path id="z32305d14" d="M697 713Q700 622 704 548C705 527 705 527 705 517Q705 499 707 481Q714 465 705 455Q683 433 662 423Q652 420 643 424Q634 428 638 437Q650 467 654 552Q654 601 655 694C655 709 697 728 697 713Z"/>
<path id="z32305d15" d="M704 548Q707 547 711 547Q772 537 819 530Q844 526 834 512Q821 497 795 494Q744 491 705 517C696 522 694 550 704 548Z"/>
<path id="z32305d16" d="M565 646Q571 616 595 560Q599 548 586 539Q546 521 526 529Q517 533 522 544Q552 619 489 732Q473 759 466 774Q463 787 474 781Q516 762 558 665C563 652 563 652 565 646Z"/>
<path id="z32305d17" d="M558 665Q588 695 785 827Q809 837 842 834Q909 824 976 795Q994 789 994 784Q995 777 979 775Q930 768 875 762Q811 755 761 736Q730 726 697 713C669 700 669 700 655 694Q645 690 636 684Q584 654 565 646C559 643 553 661 558 665Z"/>
<defs>
	<clipPath id="z32305c1"><use href="#z32305d1"/></clipPath>
	<clipPath id="z32305c2"><use href="#z32305d2"/></clipPath>
	<clipPath id="z32305c3"><use href="#z32305d3"/></clipPath>
	<clipPath id="z32305c4"><use href="#z32305d4"/></clipPath>
	<clipPath id="z32305c5"><use href="#z32305d5"/></clipPath>
	<clipPath id="z32305c6"><use href="#z32305d6"/></clipPath>
	<clipPath id="z32305c7"><use href="#z32305d7"/></clipPath>
	<clipPath id="z32305c8"><use href="#z32305d8"/></clipPath>
	<clipPath id="z32305c9"><use href="#z32305d9"/></clipPath>
	<clipPath id="z32305c10"><use href="#z32305d10"/></clipPath>
	<clipPath id="z32305c11"><use href="#z32305d11"/></clipPath>
	<clipPath id="z32305c12"><use href="#z32305d12"/></clipPath>
	<clipPath id="z32305c13"><use href="#z32305d13"/></clipPath>
	<clipPath id="z32305c14"><use href="#z32305d14"/></clipPath>
	<clipPath id="z32305c15"><use href="#z32305d15"/></clipPath>
	<clipPath id="z32305c16"><use href="#z32305d16"/></clipPath>
	<clipPath id="z32305c17"><use href="#z32305d17"/></clipPath>
<marker id="guide-arrow" viewBox="0 0 16 16" refX="5" refY="5" markerWidth="4" markerHeight="4" orient="auto-start-reverse"><path d="M 0 0 L 10 5 L 0 10 z" fill="inherit"/></marker></defs>
<path style="--d:1s;" pathLength="3333" clip-path="url(#z32305c1)" d="M191 146L225 199L110 421L122 442L231 408"/>
<path style="--d:2s;" pathLength="3333" clip-path="url(#z32305c2)" d="M271 300L297 342L140 590L161 607L276 548"/>
<path style="--d:3s;" pathLength="3333" clip-path="url(#z32305c3)" d="M273 491L309 575"/>
<path style="--d:4s;" pathLength="3333" clip-path="url(#z32305c4)" d="M75 709L116 800L116 852"/>
<path style="--d:5s;" pathLength="3333" clip-path="url(#z32305c5)" d="M167 677L220 758"/>
<path style="--d:6s;" pathLength="3333" clip-path="url(#z32305c6)" d="M272 636L318 706"/>
<path style="--d:7s;" pathLength="3333" clip-path="url(#z32305c7)" d="M448 131L471 175L358 348"/>
<path style="--d:8s;" pathLength="3333" clip-path="url(#z32305c8)" d="M438 347L461 390L328 588"/>
<path style="--d:9s;" pathLength="3333" clip-path="url(#z32305c9)" d="M429 493L444 545L424 894"/>
<path style="--d:10s;" pathLength="3333" clip-path="url(#z32305c10)" d="M589 180L618 221L512 397"/>
<path style="--d:11s;" pathLength="3333" clip-path="url(#z32305c11)" d="M582 336L635 383"/>
<path style="--d:12s;" pathLength="3333" clip-path="url(#z32305c12)" d="M752 137L784 177L660 392"/>
<path style="--d:13s;" pathLength="3333" clip-path="url(#z32305c13)" d="M749 316L838 389"/>
<path style="--d:14s;" pathLength="3333" clip-path="url(#z32305c14)" d="M643 430L678 470L685 707"/>
<path style="--d:15s;" pathLength="3333" clip-path="url(#z32305c15)" d="M710 539L832 514"/>
<path style="--d:16s;" pathLength="3333" clip-path="url(#z32305c16)" d="M525 533L563 568L528 690L471 774"/>
<path style="--d:17s;" pathLength="3333" clip-path="url(#z32305c17)" d="M568 656L800 790L985 785"/>
<g class="guides"><circle style="--d: 1s" class="g1" cx="191" cy="146" r="16"/><path style="--d: 1s;" class="g1" d="M276.68,77.456 Q293.68,125.53989189189188 264.93,226.2438918918919 Q236.18,326.9478918918919 239.18,336.47394594594596 Q242.18,346 269.43,330.5768648648649 Q269.43,330.5768648648649 296.68,315.1537297297297"/><circle style="--d: 2s" class="g2" cx="271" cy="300" r="16"/><path style="--d: 2s;" class="g2" d="M356.68,231.45600000000002 Q369.68,269.6998045602606 330.43,382.6100846905538 Q291.18,495.5203648208469 296.43,503.26018241042345 Q301.68,511 330.43,484.13828013029314 Q330.43,484.13828013029314 359.18,457.2765602605863"/><circle style="--d: 3s" class="g3" cx="273" cy="491" r="16"/><path style="--d: 3s;" class="g3" d="M393,491 L429,575"/><circle style="--d: 4s" class="g4" cx="75" cy="709" r="16"/><path style="--d: 4s;" class="g4" d="M195,709 Q236,800 236,806.5 Q236,845.5 236,852"/><circle style="--d: 5s" class="g5" cx="167" cy="677" r="16"/><path style="--d: 5s;" class="g5" d="M252.68,608.456 L305.68,689.456"/><circle style="--d: 6s" class="g6" cx="272" cy="636" r="16"/><path style="--d: 6s;" class="g6" d="M357.68,567.456 L403.68,637.456"/><circle style="--d: 7s" class="g7" cx="448" cy="131" r="16"/><path style="--d: 7s;" class="g7" d="M352,131 Q363.5,155.53456221198155 356.4375,167.59274193548384 Q314.0625,239.9418202764977 307,252"/><circle style="--d: 8s" class="g8" cx="438" cy="347" r="16"/><path style="--d: 8s;" class="g8" d="M342,347 Q353.5,372.8713692946058 345.1875,387.7624481327801 Q295.3125,477.1089211618257 287,492"/><circle style="--d: 9s" class="g9" cx="429" cy="493" r="16"/><path style="--d: 9s;" class="g9" d="M549,493 Q564,545 561.5,588.625 Q546.5,850.375 544,894"/><circle style="--d: 10s" class="g10" cx="589" cy="180" r="16"/><path style="--d: 10s;" class="g10" d="M493,180 Q507.5,202.86175115207374 500.875,215.1290322580645 Q461.125,288.7327188940092 454.5,301"/><circle style="--d: 11s" class="g11" cx="582" cy="336" r="16"/><path style="--d: 11s;" class="g11" d="M667.68,267.456 L720.68,314.456"/><circle style="--d: 12s" class="g12" cx="752" cy="137" r="16"/><path style="--d: 12s;" class="g12" d="M656,137 Q688,177 672.5,203.875 Q579.5,365.125 564,392"/><circle style="--d: 13s" class="g13" cx="749" cy="316" r="16"/><path style="--d: 13s;" class="g13" d="M834.68,247.45600000000002 L923.68,320.456"/><circle style="--d: 14s" class="g14" cx="643" cy="430" r="16"/><path style="--d: 14s;" class="g14" d="M728.68,361.456 Q763.68,401.456 764.555,431.081 Q769.805,608.831 770.68,638.456"/><circle style="--d: 15s" class="g15" cx="710" cy="539" r="16"/><path style="--d: 15s;" class="g15" d="M710,635 L832,610"/><circle style="--d: 16s" class="g16" cx="525" cy="533" r="16"/><path style="--d: 16s;" class="g16" d="M429,533 Q448,554.0580912863071 443.625,572.4087136929461 Q430.5,627.4605809128631 423.375,640.0954356846473 Q409.125,665.3651452282157 402,678"/><circle style="--d: 17s" class="g17" cx="568" cy="656" r="16"/><path style="--d: 17s;" class="g17" d="M568,752 Q800,886 823.125,885.375 Q961.875,881.625 985,881"/></g></svg>