<!--
  Stroke-order data for 置, derived from AnimCJK (https://github.com/parsimonhi/animCJK),
  itself derived from the Arphic PL KaitiM fonts. Distributed under the Arphic Public License
  (see ARPHICPL.TXT). Regenerated by scripts/build-strokes.ts — do not edit by hand.
-->
<svg id="z32622" class="acjk" viewBox="0 0 1024 1024" xmlns="http://www.w3.org/2000/svg">
<g class="glyph"><path style="--part:1" id="z32622d1" d="M295 151C287 148 276 147 264 146C255 144 251 145 249 149C245 154 246 160 253 171C272 202 289 245 303 299C307 315 312 328 323 339C336 352 343 354 346 343C346 338 348 331 348 324C346 306 346 306 345 297C343 284 333 246 322 182C320 168 308 154 295 151Z"/><path style="--part:1" id="z32622d2" d="M688 283C696 299 706 311 716 317C722 321 731 318 741 306C747 297 761 267 780 217C787 198 797 178 813 164C821 156 823 148 816 139C807 128 790 113 763 96C751 88 740 88 730 91C701 98 666 103 624 108C571 113 511 121 444 131C389 139 339 146 295 151C282 154 309 185 322 182C350 175 383 168 421 162C436 159 436 159 444 158C480 151 520 144 567 139C591 136 591 136 603 135C673 127 715 125 728 140C733 146 734 153 733 159C720 213 709 247 701 257C696 265 684 274 688 283Z"/><path style="--part:1" id="z32622d3" d="M469 280C471 257 467 226 456 191C454 185 448 162 444 158C440 151 420 154 421 162C425 198 426 225 434 264C436 273 440 280 443 284C448 292 469 289 469 280Z"/><path style="--part:1" id="z32622d4" d="M580 263C592 237 602 216 608 202C611 193 615 182 624 171C629 163 630 158 626 154C620 146 613 141 603 135C593 129 563 128 567 139C583 178 561 232 553 268C551 277 577 271 580 263Z"/><path style="--part:1" id="z32622d5" d="M488 308C545 300 629 289 688 283C698 281 709 262 701 257C674 237 621 255 580 263C562 266 562 266 553 268C524 273 496 275 469 280C452 283 452 283 443 284C408 289 374 294 345 297C336 299 339 324 348 324C350 324 376 323 451 313C476 310 476 310 488 308Z"/><path style="--part:2" id="z32622d6" d="M491 420C551 412 629 403 726 405C762 405 783 405 787 398C790 391 786 383 777 376C747 353 721 345 700 350C653 360 588 373 505 385C468 390 468 390 449 393C392 401 331 408 267 417C254 418 252 423 262 433C269 441 278 447 289 450C301 453 312 452 321 450C358 439 399 431 442 426C475 422 475 422 491 420Z"/><path style="--part:2" id="z32622d7" d="M460 500C470 472 480 445 491 420C500 397 500 397 505 385C509 375 515 364 523 353C525 348 524 339 515 330C505 320 496 314 488 308C477 302 449 301 451 313C453 323 459 336 458 347C455 361 452 377 449 393C444 415 444 415 442 426C436 450 429 477 423 506C421 518 455 512 460 500Z"/><path style="--part:2" id="z32622d8" d="M398 755C401 733 402 718 402 701C402 684 402 684 402 675C402 639 402 639 402 621C402 605 402 605 402 597C402 566 402 546 404 538C406 526 393 515 383 509C374 502 364 497 353 496C348 495 344 496 341 501C338 503 340 507 344 514C365 559 364 641 352 716C350 724 343 735 348 755C350 767 355 783 362 791C375 805 385 796 391 781C394 772 396 763 398 755Z"/><path style="--part:2" id="z32622d9" d="M610 464C598 464 587 468 575 473C565 476 527 489 460 500C435 504 435 504 423 506C409 508 395 507 383 509C371 511 392 540 404 538C418 538 526 512 581 504C585 503 588 503 592 503C602 503 608 506 613 513C619 521 623 542 624 575C624 653 623 705 621 730C621 740 615 751 617 761C617 767 621 772 625 780C634 797 640 806 646 806C654 805 664 795 674 775C682 759 685 736 683 707C675 612 680 554 698 530C705 520 705 511 700 506C668 477 638 464 610 464Z"/><path style="--part:2" id="z32622d10" d="M402 621C420 625 510 607 559 601C573 599 578 594 573 587C566 578 555 571 541 569C522 565 476 575 402 597C394 600 394 619 402 621Z"/><path style="--part:2" id="z32622d11" d="M402 701C421 703 510 686 559 679C573 676 578 670 573 663C566 654 555 647 539 645C521 642 475 653 402 675C394 677 393 701 402 701Z"/><path style="--part:2" id="z32622d12" d="M621 730C608 727 585 726 562 730C503 739 448 747 398 755C389 757 382 781 391 781C395 781 402 781 411 781C489 772 557 765 617 761C627 761 631 732 621 730Z"/><path style="--part:2" id="z32622d13" d="M256 655C260 644 256 635 248 628C232 613 215 602 193 596C182 593 174 595 170 601C166 605 166 612 175 624C188 642 194 666 196 695C198 777 191 840 165 881C157 892 153 899 157 908C161 921 170 935 182 947C190 955 199 953 213 946C274 909 387 885 554 875C651 868 764 872 888 892C906 894 918 895 926 891C932 887 932 880 929 870C924 859 907 844 879 826C860 814 821 817 759 821C552 834 388 843 270 864C252 867 244 867 241 863C235 856 234 848 235 833C241 741 246 681 256 655Z"/></g>
<defs><clipPath id="z32622c1"><use href="#z32622d1"/></clipPath>
	<clipPath id="z32622c2"><use href="#z32622d2"/></clipPath>
	<clipPath id="z32622c3"><use href="#z32622d3"/></clipPath>
	<clipPath id="z32622c4"><use href="#z32622d4"/></clipPath>
	<clipPath id="z32622c5"><use href="#z32622d5"/></clipPath>
	<clipPath id="z32622c6"><use href="#z32622d6"/></clipPath>
	<clipPath id="z32622c7"><use href="#z32622d7"/></clipPath>
	<clipPath id="z32622c8"><use href="#z32622d8"/></clipPath>
	<clipPath id="z32622c9"><use href="#z32622d9"/></clipPath>
	<clipPath id="z32622c10"><use href="#z32622d10"/></clipPath>
	<clipPath id="z32622c11"><use href="#z32622d11"/></clipPath>
	<clipPath id="z32622c12"><use href="#z32622d12"/></clipPath>
	<clipPath id="z32622c13"><use href="#z32622d13"/></clipPath><marker id="guide-arrow" viewBox="0 0 16 16" refX="5" refY="5" markerWidth="4" markerHeight="4" orient="auto-start-reverse"><path d="M 0 0 L 10 5 L 0 10 z" fill="inherit"/></marker></defs>
<g class="strokes"><path style="--part:1" pathLength="3333" clip-path="url(#z32622c1)" d="M254 153L294 187L337 345"/><path style="--part:1" pathLength="3333" clip-path="url(#z32622c2)" d="M300 155L737 114L776 151L714 311"/><path style="--part:1" pathLength="3333" clip-path="url(#z32622c3)" d="M433 157L459 284"/><path style="--part:1" pathLength="3333" clip-path="url(#z32622c4)" d="M575 135L600 167L564 267"/><path style="--part:1" pathLength="3333" clip-path="url(#z32622c5)" d="M344 312L698 261"/><path style="--part:2" pathLength="3333" clip-path="url(#z32622c6)" d="M268 427L700 377L783 388"/><path style="--part:2" pathLength="3333" clip-path="url(#z32622c7)" d="M458 309L490 349L434 509"/><path style="--part:2" pathLength="3333" clip-path="url(#z32622c8)" d="M350 505L380 556L373 790"/><path style="--part:2" pathLength="3333" clip-path="url(#z32622c9)" d="M387 515L603 484L648 507L662 526L642 799"/><path style="--part:2" pathLength="3333" clip-path="url(#z32622c10)" d="M399 609L565 588"/><path style="--part:2" pathLength="3333" clip-path="url(#z32622c11)" d="M398 690L568 660"/><path style="--part:2" pathLength="3333" clip-path="url(#z32622c12)" d="M396 772L624 746"/><path style="--part:2" pathLength="3333" clip-path="url(#z32622c13)" d="M172 606L224 654L201 870L217 908L347 875L622 850L845 851L928 879"/></g>
<g class="guides"><text class="g1" style="--gs:1" x="254" y="153">①</text><path class="g1 aligned" style="--gs:1" d="M254,153 Q294,187 299.38,206.75 Q331.63,325.25 337,345"/><path class="g1 offset" style="--gs:1" d="M339.68,84.46 Q379.68,118.46 385.06,138.21 Q417.31,256.71 422.68,276.46"/><text class="g2" style="--gs:2" x="300" y="155">②</text><path class="g2 aligned" style="--gs:2" d="M300,155 Q737,114 746.75,123.25 Q776,151 760.5,191 Q729.5,271 714,311"/><path class="g2 offset" style="--gs:2" d="M300,251 Q626.83,210 634.12,219.25 Q656,247 644.41,263 Q621.22,295 609.63,311"/><text class="g3" style="--gs:3" x="433" y="157">③</text><path class="g3 aligned" style="--gs:3" d="M433,157 L459,284"/><path class="g3 offset" style="--gs:3" d="M553,157 L579,284"/><text class="g4" style="--gs:4" x="575" y="135">④</text><path class="g4 aligned" style="--gs:4" d="M588,151 L564,267"/><path class="g4 offset" style="--gs:4" d="M708,151 L684,267"/><text class="g5" style="--gs:5" x="344" y="312">⑤</text><path class="g5 aligned" style="--gs:5" d="M344,312 L698,261"/><path class="g5 offset" style="--gs:5" d="M344,408 L698,357"/><text class="g6" style="--gs:6" x="268" y="427">⑥</text><path class="g6 aligned" style="--gs:6" d="M268,427 Q700,377 710.38,378.38 Q772.63,386.63 783,388"/><path class="g6 offset" style="--gs:6" d="M268,523 Q700,473 710.38,474.38 Q772.63,482.63 783,484"/><text class="g7" style="--gs:7" x="458" y="309">⑦</text><path class="g7 aligned" style="--gs:7" d="M458,309 Q490,349 483,369 Q441,489 434,509"/><path class="g7 offset" style="--gs:7" d="M362,309 Q394,349 387,369 Q345,489 338,509"/><text class="g8" style="--gs:8" x="350" y="505">⑧</text><path class="g8 aligned" style="--gs:8" d="M350,505 Q380,556 379.13,585.25 Q373.88,760.75 373,790"/><path class="g8 offset" style="--gs:8" d="M254,505 Q284,556 283.13,585.25 Q277.88,760.75 277,790"/><text class="g9" style="--gs:9" x="387" y="515">⑨</text><path class="g9 aligned" style="--gs:9" d="M387,515 Q603,484 625.5,495.5 Q648,507 655,516.5 Q662,526 652,662.5 Q652,662.5 642,799"/><path class="g9 offset" style="--gs:9" d="M387,611 Q508.75,580 521.43,591.5 Q534.11,603 538.05,606.1 Q542,609.2 536.36,704.1 Q536.36,704.1 530.73,799"/><text class="g10" style="--gs:10" x="399" y="609">⑩</text><path class="g10 aligned" style="--gs:10" d="M399,609 L565,588"/><path class="g10 offset" style="--gs:10" d="M399,705 L565,684"/><text class="g11" style="--gs:11" x="398" y="690">⑪</text><path class="g11 aligned" style="--gs:11" d="M398,690 L568,660"/><path class="g11 offset" style="--gs:11" d="M398,786 L568,756"/><text class="g12" style="--gs:12" x="396" y="772">⑫</text><path class="g12 aligned" style="--gs:12" d="M396,772 L624,746"/><path class="g12 offset" style="--gs:12" d="M396,868 L624,842"/><text class="g13" style="--gs:13" x="172" y="606">⑬</text><path class="g13 aligned" style="--gs:13" d="M172,606 Q224,654 212.5,762 Q201,870 209,889 Q217,908 282,891.5 Q347,875 484.5,862.5 Q622,850 733.5,850.5 Q845,851 886.5,865 Q886.5,865 928,879"/><path class="g13 offset" style="--gs:13" d="M257.68,537.46 Q303.79,581.09 293.59,679.27 Q283.39,777.45 290.49,794.73 Q297.58,812 355.21,797 Q412.85,782 534.76,770.64 Q656.68,759.27 755.54,759.73 Q854.41,760.18 891.2,772.91 Q891.2,772.91 928,785.64"/></g>
<g class="parts"><rect data-part="2" data-literal="直" role="button" tabindex="0" aria-label="Part 直" x="100" y="237" width="900" height="743"/><rect data-part="1" data-literal="罒" data-radical="true" role="button" tabindex="0" aria-label="Part 罒 (radical)" x="182" y="42" width="666" height="375"/></g>
</svg>
