<!--
  Stroke-order data for 罰, derived from AnimCJK (https://github.com/parsimonhi/animCJK),
  itself derived from the Arphic PL KaitiM fonts. Distributed under the Arphic Public License
  (see ARPHICPL.TXT). Regenerated by scripts/build-strokes.ts — do not edit by hand.
-->
<svg id="z32624" class="acjk" viewBox="0 0 1024 1024" xmlns="http://www.w3.org/2000/svg">
<g class="glyph"><path id="z32624d1" d="M275 110Q269 109 263 109Q250 106 247 112Q241 119 251 135Q279 178 302 253Q306 275 322 289Q343 311 347 294Q348 290 348 286C347 265 347 265 346 255Q346 251 345 245Q329 173 324 148C320 128 295 114 275 110Z"/><path id="z32624d2" d="M688 249Q692 262 704 264Q719 264 758 217Q780 168 821 142Q842 129 827 111Q811 92 765 60Q747 45 678 62Q573 69 444 94Q347 109 275 110C254 110 303 148 324 148Q331 149 340 147Q371 137 415 130C430 127 430 127 437 125Q492 115 564 106C588 103 588 103 600 102Q708 83 732 98Q738 102 731 123Q704 198 695 212Q691 216 690 223C688 232 685 241 688 249Z"/><path id="z32624d3" d="M466 241Q472 193 444 134Q441 128 437 125C432 120 414 123 415 130C416 131 416 131 416 131Q423 221 430 230Q434 237 439 244C445 251 464 250 466 241Z"/><path id="z32624d4" d="M580 220Q581 217 583 215Q596 196 609 173Q615 163 625 149Q638 139 630 130Q623 117 600 102C590 95 560 95 564 106Q564 107 566 110Q575 132 546 223Q545 224 545 227C543 239 575 231 580 220Z"/><path id="z32624d5" d="M348 286Q358 287 368 285Q468 263 688 249C697 249 697 227 690 223Q684 219 676 212Q658 200 580 220C557 225 557 225 545 227Q505 233 466 241C448 243 448 243 439 244Q390 248 346 255C336 257 338 286 348 286Z"/><path id="z32624d6" d="M410 400Q411 397 413 395Q417 382 412 355Q405 331 340 315Q327 311 320 313Q316 317 316 328Q319 338 342 359Q381 401 386 405C392 410 406 407 410 400Z"/><path id="z32624d7" d="M386 405Q185 444 98 452Q85 453 81 461Q78 473 93 484Q135 512 177 500Q330 451 503 430Q521 429 521 420Q522 407 504 397Q471 382 410 400C394 403 394 403 386 405Z"/><path id="z32624d8" d="M268 529Q240 536 261 548Q298 564 340 550Q383 537 429 524Q450 518 453 515Q460 508 455 501Q448 492 425 489Q404 486 332 514Q302 523 268 529Z"/><path id="z32624d9" d="M281 607Q250 614 274 628Q310 643 378 624Q405 617 436 608Q454 604 457 600Q464 593 459 586Q452 576 427 572Q408 569 337 595Q310 602 281 607Z"/><path id="z32624d10" d="M257 702Q245 696 208 693Q195 692 193 697Q187 704 197 719Q228 768 252 853Q258 878 275 894Q294 913 298 898Q304 879 294 842Q293 841 293 840C287 817 287 817 284 805Q271 753 268 731C266 721 267 706 257 702Z"/><path id="z32624d11" d="M451 778Q466 732 490 717Q503 699 490 684Q418 639 373 665Q319 686 257 702C247 704 258 733 268 731Q274 730 285 725Q399 698 405 702Q411 706 410 719Q407 747 402 774C399 790 445 793 451 778Z"/><path id="z32624d12" d="M293 840Q302 831 465 811Q475 810 477 800Q477 793 451 778C437 770 417 768 402 774Q401 774 399 775Q335 794 284 805C272 807 282 845 293 840Z"/><path id="z32624d13" d="M574 414Q599 481 580 620Q574 654 600 682Q609 692 618 682Q639 652 637 613Q633 529 644 443Q651 422 631 411Q592 387 578 393Q571 400 574 414Z"/><path id="z32624d14" d="M751 387Q755 412 761 809Q761 825 752 833Q746 836 689 823Q656 810 659 819Q660 826 679 842Q737 894 751 923Q767 957 782 959Q795 960 811 925Q832 871 821 742Q794 469 820 358Q836 327 780 307Q746 289 727 297Q709 304 726 326Q748 353 751 387Z"/></g>
<defs><clipPath id="z32624c1"><use href="#z32624d1"/></clipPath>
	<clipPath id="z32624c2"><use href="#z32624d2"/></clipPath>
	<clipPath id="z32624c3"><use href="#z32624d3"/></clipPath>
	<clipPath id="z32624c4"><use href="#z32624d4"/></clipPath>
	<clipPath id="z32624c5"><use href="#z32624d5"/></clipPath>
	<clipPath id="z32624c6"><use href="#z32624d6"/></clipPath>
	<clipPath id="z32624c7"><use href="#z32624d7"/></clipPath>
	<clipPath id="z32624c8"><use href="#z32624d8"/></clipPath>
	<clipPath id="z32624c9"><use href="#z32624d9"/></clipPath>
	<clipPath id="z32624c10"><use href="#z32624d10"/></clipPath>
	<clipPath id="z32624c11"><use href="#z32624d11"/></clipPath>
	<clipPath id="z32624c12"><use href="#z32624d12"/></clipPath>
	<clipPath id="z32624c13"><use href="#z32624d13"/></clipPath>
	<clipPath id="z32624c14"><use href="#z32624d14"/></clipPath><marker id="guide-arrow" viewBox="0 0 16 16" refX="5" refY="5" markerWidth="4" markerHeight="4" orient="auto-start-reverse"><path d="M 0 0 L 10 5 L 0 10 z" fill="inherit"/></marker></defs>
<g class="strokes"><path pathLength="3333" clip-path="url(#z32624c1)" d="M252 115L300 166L343 292"/><path pathLength="3333" clip-path="url(#z32624c2)" d="M285 111L340 127L739 75L780 130L697 258"/><path pathLength="3333" clip-path="url(#z32624c3)" d="M433 129L449 241"/><path pathLength="3333" clip-path="url(#z32624c4)" d="M573 111L598 149L554 224"/><path pathLength="3333" clip-path="url(#z32624c5)" d="M352 278L687 235"/><path pathLength="3333" clip-path="url(#z32624c6)" d="M325 321L380 359L399 400"/><path pathLength="3333" clip-path="url(#z32624c7)" d="M89 465L158 474L516 411"/><path pathLength="3333" clip-path="url(#z32624c8)" d="M262 539L453 504"/><path pathLength="3333" clip-path="url(#z32624c9)" d="M271 616L456 588"/><path pathLength="3333" clip-path="url(#z32624c10)" d="M200 703L233 721L292 896"/><path pathLength="3333" clip-path="url(#z32624c11)" d="M265 707L422 681L452 710L415 774"/><path pathLength="3333" clip-path="url(#z32624c12)" d="M299 831L364 804L469 798"/><path pathLength="3333" clip-path="url(#z32624c13)" d="M582 397L614 439L608 683"/><path pathLength="3333" clip-path="url(#z32624c14)" d="M723 306L785 357L792 826L766 907L666 824"/></g>
<g class="guides"><text class="g1" style="--gs:1" x="252" y="115">①</text><path class="g1 aligned" style="--gs:1" d="M252,115 Q300,166 305.38,181.75 Q337.63,276.25 343,292"/><path class="g1 offset" style="--gs:1" d="M337.68,46.46 Q385.68,97.46 391.06,113.21 Q423.31,207.71 428.68,223.46"/><text class="g2" style="--gs:2" x="285" y="111">②</text><path class="g2 aligned" style="--gs:2" d="M285,111 Q340,127 539.5,101 Q739,75 759.5,102.5 Q780,130 738.5,194 Q738.5,194 697,258"/><path class="g2 offset" style="--gs:2" d="M285,207 Q325.44,223 472.15,197 Q618.85,171 633.93,198.5 Q649,226 618.48,290 Q618.48,290 587.97,354"/><text class="g3" style="--gs:3" x="433" y="129">③</text><path class="g3 aligned" style="--gs:3" d="M433,129 L449,241"/><path class="g3 offset" style="--gs:3" d="M553,129 L569,241"/><text class="g4" style="--gs:4" x="573" y="111">④</text><path class="g4 aligned" style="--gs:4" d="M573,111 Q598,149 592.5,158.38 Q559.5,214.63 554,224"/><path class="g4 offset" style="--gs:4" d="M477,111 Q502,149 496.5,158.38 Q463.5,214.63 458,224"/><text class="g5" style="--gs:5" x="352" y="278">⑤</text><path class="g5 aligned" style="--gs:5" d="M352,278 L687,235"/><path class="g5 offset" style="--gs:5" d="M352,374 L687,331"/><text class="g6" style="--gs:6" x="325" y="321">⑥</text><path class="g6 aligned" style="--gs:6" d="M325,321 Q380,359 382.38,364.13 Q396.63,394.88 399,400"/><path class="g6 offset" style="--gs:6" d="M410.68,252.46 Q465.68,290.46 468.06,295.58 Q482.31,326.33 484.68,331.46"/><text class="g7" style="--gs:7" x="89" y="465">⑦</text><path class="g7 aligned" style="--gs:7" d="M89,465 Q158,474 202.75,466.13 Q471.25,418.88 516,411"/><path class="g7 offset" style="--gs:7" d="M89,561 Q158,570 202.75,562.13 Q471.25,514.88 516,507"/><text class="g8" style="--gs:8" x="262" y="539">⑧</text><path class="g8 aligned" style="--gs:8" d="M262,539 L453,504"/><path class="g8 offset" style="--gs:8" d="M262,635 L453,600"/><text class="g9" style="--gs:9" x="271" y="616">⑨</text><path class="g9 aligned" style="--gs:9" d="M271,616 L456,588"/><path class="g9 offset" style="--gs:9" d="M271,712 L456,684"/><text class="g10" style="--gs:10" x="200" y="703">⑩</text><path class="g10 aligned" style="--gs:10" d="M217,712 L292,896"/><path class="g10 offset" style="--gs:10" d="M337,712 L412,896"/><text class="g11" style="--gs:11" x="265" y="707">⑪</text><path class="g11 aligned" style="--gs:11" d="M265,707 Q422,681 429.5,688.25 Q452,710 442.75,726 Q424.25,758 415,774"/><path class="g11 offset" style="--gs:11" d="M265,803 Q343.5,777 347.25,780.63 Q358.5,791.5 353.88,799.5 Q344.63,815.5 340,823.5"/><text class="g12" style="--gs:12" x="299" y="831">⑫</text><path class="g12 aligned" style="--gs:12" d="M299,831 Q364,804 377.13,803.25 Q455.88,798.75 469,798"/><path class="g12 offset" style="--gs:12" d="M299,927 Q364,900 377.13,899.25 Q455.88,894.75 469,894"/><text class="g13" style="--gs:13" x="582" y="397">⑬</text><path class="g13 aligned" style="--gs:13" d="M582,397 Q614,439 613.25,469.5 Q608.75,652.5 608,683"/><path class="g13 offset" style="--gs:13" d="M486,397 Q518,439 517.25,469.5 Q512.75,652.5 512,683"/><text class="g14" style="--gs:14" x="723" y="306">⑭</text><path class="g14 aligned" style="--gs:14" d="M723,306 Q785,357 788.5,591.5 Q792,826 779,866.5 Q766,907 716,865.5 Q716,865.5 666,824"/><path class="g14 offset" style="--gs:14" d="M627,306 Q658,348.85 659.75,545.9 Q661.5,742.94 655,776.97 Q648.5,811 623.5,776.13 Q623.5,776.13 598.5,741.26"/></g>
</svg>
