<!--
  Stroke-order data for 羊, derived from AnimCJK (https://github.com/parsimonhi/animCJK),
  itself derived from the Arphic PL KaitiM fonts. Distributed under the Arphic Public License
  (see ARPHICPL.TXT). Regenerated by scripts/build-strokes.ts — do not edit by hand.
-->
<svg id="z32650" class="acjk" viewBox="0 0 1024 1024" xmlns="http://www.w3.org/2000/svg">
<g class="glyph"><path style="--part:1" id="z32650d1" d="M366 131C383 146 400 164 419 184C434 200 481 215 462 139C456 118 422 99 362 82C339 75 334 80 336 98C336 104 348 115 366 131Z"/><path style="--part:1" id="z32650d2" d="M551 189C542 199 548 209 558 203C657 142 692 115 726 102C761 87 726 56 697 39C661 18 651 23 649 42C645 77 615 112 551 189Z"/><path style="--part:1" id="z32650d3" d="M539 296C667 275 733 258 737 255C760 233 729 219 705 215C682 210 642 219 583 235C488 259 399 270 316 277C289 279 284 288 304 301C359 335 421 314 482 305C520 299 520 299 539 296Z"/><path style="--part:2" id="z32650d4" d="M539 455C567 449 659 430 686 421C698 416 699 395 654 384C614 374 577 395 539 405C500 414 500 414 480 419C436 429 388 434 339 439C314 441 309 451 328 462C373 488 429 475 479 466C519 459 519 459 539 455Z"/><path style="--part:2" id="z32650d5" d="M539 611C677 601 798 594 903 604C924 605 937 603 941 600C941 599 945 581 937 573C888 528 843 517 799 529C743 542 656 550 539 564C498 569 498 569 478 571C354 585 233 600 109 602C93 602 82 620 112 642C137 659 159 671 192 663C285 638 381 621 478 615C519 612 519 612 539 611Z"/><path style="--part:2" id="z32650d6" d="M478 615C478 766 481 868 488 921C498 997 521 965 529 920C537 865 539 758 539 611C539 611 539 579 539 564C539 527 539 491 539 455C539 438 539 421 539 405C539 368 539 296 539 296C539 277 482 286 482 305C481 341 480 379 480 419C479 450 479 450 479 466C478 500 478 535 478 571C478 585 478 600 478 615Z"/></g>
<defs><clipPath id="z32650c1"><use href="#z32650d1"/></clipPath>
	<clipPath id="z32650c2"><use href="#z32650d2"/></clipPath>
	<clipPath id="z32650c3"><use href="#z32650d3"/></clipPath>
	<clipPath id="z32650c4"><use href="#z32650d4"/></clipPath>
	<clipPath id="z32650c5"><use href="#z32650d5"/></clipPath>
	<clipPath id="z32650c6"><use href="#z32650d6"/></clipPath><marker id="guide-arrow" viewBox="0 0 16 16" refX="5" refY="5" markerWidth="4" markerHeight="4" orient="auto-start-reverse"><path d="M 0 0 L 10 5 L 0 10 z" fill="inherit"/></marker></defs>
<g class="strokes"><path style="--part:1" pathLength="3333" clip-path="url(#z32650c1)" d="M342 85L429 146L451 193"/><path style="--part:1" pathLength="3333" clip-path="url(#z32650c2)" d="M660 31L688 83L554 199"/><path style="--part:1" pathLength="3333" clip-path="url(#z32650c3)" d="M299 288L383 295L741 243"/><path style="--part:2" pathLength="3333" clip-path="url(#z32650c4)" d="M320 448L410 454L689 409"/><path style="--part:2" pathLength="3333" clip-path="url(#z32650c5)" d="M97 614L180 632L821 562L939 582"/><path style="--part:2" pathLength="3333" clip-path="url(#z32650c6)" d="M524 288L508 960"/></g>
<g class="guides"><text class="g1" style="--gs:1" x="342" y="85">①</text><path class="g1 aligned" style="--gs:1" d="M342,85 Q429,146 431.75,151.88 Q448.25,187.13 451,193"/><path class="g1 offset" style="--gs:1" d="M427.68,16.46 Q514.68,77.46 517.43,83.33 Q533.93,118.58 536.68,124.46"/><text class="g2" style="--gs:2" x="660" y="31">②</text><path class="g2 aligned" style="--gs:2" d="M660,31 Q688,83 671.25,97.5 Q570.75,184.5 554,199"/><path class="g2 offset" style="--gs:2" d="M564,31 Q578,57 569.63,64.25 Q519.38,107.75 511,115"/><text class="g3" style="--gs:3" x="299" y="288">③</text><path class="g3 aligned" style="--gs:3" d="M299,288 Q383,295 427.75,288.5 Q696.25,249.5 741,243"/><path class="g3 offset" style="--gs:3" d="M299,384 Q383,391 427.75,384.5 Q696.25,345.5 741,339"/><text class="g4" style="--gs:4" x="320" y="448">④</text><path class="g4 aligned" style="--gs:4" d="M320,448 Q410,454 444.88,448.38 Q654.13,414.63 689,409"/><path class="g4 offset" style="--gs:4" d="M320,544 Q410,550 444.88,544.38 Q654.13,510.63 689,505"/><text class="g5" style="--gs:5" x="97" y="614">⑤</text><path class="g5 aligned" style="--gs:5" d="M97,614 Q180,632 340.25,614.5 Q821,562 850.5,567 Q909.5,577 939,582"/><path class="g5 offset" style="--gs:5" d="M97,710 Q180,728 340.25,710.5 Q821,658 850.5,663 Q909.5,673 939,678"/><text class="g6" style="--gs:6" x="524" y="288">⑥</text><path class="g6 aligned" style="--gs:6" d="M524,288 L508,960"/><path class="g6 offset" style="--gs:6" d="M644,288 L628,960"/></g>
<g class="parts"><rect data-part="2" data-literal="𰀁" role="button" tabindex="0" aria-label="Part 𰀁" x="25" y="216" width="986" height="808"/><rect data-part="1" data-literal="䒑" role="button" tabindex="0" aria-label="Part 䒑" x="227" y="0" width="586" height="367"/></g>
</svg>
