<svg id="z32768" class="acjk" viewBox="0 0 1024 1024" xmlns="http://www.w3.org/2000/svg">
<style>

@keyframes zk {
	to {
		stroke-dashoffset:0;
	}
}
svg.acjk path[clip-path] {
	--t:0.8s;
	animation:zk var(--t) linear forwards var(--d);
	stroke-dasharray:3337;
	stroke-dashoffset:3339;
	stroke-width:128;
	stroke-linecap:round;
	fill:none;
	stroke:#000;
}
svg.acjk path[id] {fill:#ccc;}


    @keyframes guide-fade {
        0% { opacity: 0; }
        3% { opacity: 1; }
        95% { opacity: 1; }
        100% { opacity: 0; }
    }

    svg.acjk #guide-arrow {
        fill: #f77;
    }

    svg.acjk .guides {
        circle {
            fill: #0f6;
        }

        path {
            opacity: 0;
            animation: guide-fade var(--t) linear forwards var(--d);
            stroke-width: 16px;
            stroke-linecap: round;
            stroke: #f77;
            fill: none;
            marker-end: url(#guide-arrow);
        }

        circle,
        path {
            --t: 0.8s;
            opacity: 0;
            animation: guide-fade calc(var(--t) + 0.4s) ease-in-out forwards calc(var(--d) - 0.2s);
        }
    }
</style>
<path id="z32768d1" d="M320 404Q330 301 337 206Q340 178 351 141Q354 131 336 118Q305 100 282 96Q267 93 260 101Q253 108 260 121Q278 146 279 164Q286 279 281 415C281 429 320 418 320 404Z"/>
<path id="z32768d2" d="M160 311Q175 330 190 354Q200 367 214 368Q223 369 229 359Q236 347 232 320Q231 305 209 291Q155 263 144 265Q140 268 139 279Q140 289 160 311Z"/>
<path id="z32768d3" d="M377 250C368 270 363 295 344 327C341 330 341 335 345 337C348 338 352 335 356 333C394 296 411 269 431 257C438 252 442 250 439 245C434 238 428 230 418 223C408 215 397 212 387 213C380 213 377 218 379 228C380 234 380 242 377 250Z"/>
<path id="z32768d4" d="M297 450Q340 437 396 427Q409 424 410 417Q411 405 394 398Q364 388 320 404C294 411 294 411 281 415Q155 448 98 457Q86 458 84 466Q83 476 96 485Q126 506 176 490Q219 472 256 462C283 454 283 454 297 450Z"/>
<path id="z32768d5" d="M303 516Q310 503 317 496Q323 486 316 474Q306 459 297 450C288 439 254 448 256 462Q274 552 74 775Q59 784 60 793Q60 797 65 797Q146 784 284 552Q285 548 288 545Q289 541 292 537C299 523 299 523 303 516Z"/>
<path id="z32768d6" d="M292 537Q305 568 305 597Q304 697 295 729Q292 757 281 772Q271 791 279 811Q289 839 306 850Q316 857 327 839Q354 794 449 680Q462 664 463 657Q463 645 446 658Q347 734 343 734Q339 733 337 721Q346 601 353 571Q357 555 346 543Q324 519 308 516Q305 515 303 516C295 516 289 530 292 537Z"/>
<path id="z32768d7" d="M463 136C453 137 448 137 447 141C445 144 447 148 458 154C470 161 491 163 515 158C555 147 573 139 586 147C602 157 594 190 593 212C591 237 591 237 590 250C587 284 585 299 583 310C580 320 581 335 585 343C589 351 594 356 601 355C607 353 612 347 616 339C622 324 626 285 635 222C638 193 652 177 670 158C679 147 678 139 669 132C657 123 637 114 609 103C599 99 573 105 506 125C488 130 473 134 463 136Z"/>
<path id="z32768d8" d="M590 250C531 268 512 274 496 274C485 274 451 265 460 254C475 233 556 225 593 212C605 207 602 248 590 250Z"/>
<path id="z32768d9" d="M585 343C543 348 518 373 480 374C472 374 444 369 452 354C459 338 543 321 583 310C594 308 596 341 585 343Z"/>
<path id="z32768d10" d="M711 98C701 99 696 101 694 104C691 107 694 111 706 118C720 126 741 128 763 123C801 113 813 110 822 114C829 117 832 131 829 155C814 241 805 267 799 285C794 295 792 308 796 320C799 328 804 334 813 333C821 332 826 326 832 318C841 302 851 256 863 214C871 181 891 157 913 138C924 127 922 117 914 109C902 99 881 86 851 71C841 66 824 68 796 76C776 80 767 83 751 88C734 93 721 96 711 98Z"/>
<path id="z32768d11" d="M818 220C780 223 760 239 728 240C704 240 673 236 684 218C695 197 796 188 826 176C840 170 833 220 818 220Z"/>
<path id="z32768d12" d="M796 320C748 330 748 336 716 340C654 346 676 312 713 302C748 294 785 289 799 285C797 271 800 332 796 320Z"/>
<path id="z32768d13" d="M512 530Q515 526 584 448Q593 438 590 430Q586 420 564 414Q540 407 530 410Q524 411 522 423Q516 480 391 597Q375 610 397 607Q430 604 483 555C502 538 502 538 512 530Z"/>
<path id="z32768d14" d="M483 555Q498 606 500 653Q499 662 499 672Q498 756 476 840Q466 882 495 924Q496 927 499 929Q515 944 526 919Q538 885 538 846C539 826 539 826 539 816Q543 644 550 602Q557 577 548 568Q532 549 520 537Q516 533 512 530C502 522 480 542 483 555Z"/>
<path id="z32768d15" d="M687 411Q706 426 727 445Q737 454 747 453Q754 453 758 444Q761 434 754 413Q750 400 728 390Q680 374 668 378Q664 381 666 389Q667 396 687 411Z"/>
<path id="z32768d16" d="M710 525Q836 498 843 491Q850 484 847 477Q840 468 817 463Q793 459 769 468Q732 481 691 493Q648 503 594 510Q566 514 586 528Q619 546 667 534Q668 534 672 534C697 528 697 528 710 525Z"/>
<path id="z32768d17" d="M720 790Q721 751 723 716C724 692 724 692 725 680Q726 649 728 620C730 595 730 595 731 583Q735 550 731 544Q721 532 710 525C700 517 665 523 672 534Q681 549 682 595C682 618 682 618 682 629Q682 654 682 691C682 713 682 713 682 724Q682 755 682 796C682 809 720 803 720 790Z"/>
<path id="z32768d18" d="M728 620Q761 611 792 607Q819 601 823 597Q830 591 826 585Q822 576 799 570Q774 564 731 583C698 591 698 591 682 595Q648 601 610 604Q582 608 602 621Q632 639 675 630Q676 629 682 629C713 623 713 623 728 620Z"/>
<path id="z32768d19" d="M723 716Q837 689 839 689Q846 683 842 677Q838 668 815 662Q793 658 725 680C696 687 696 687 682 691Q646 695 606 700Q578 704 598 717Q628 735 673 725Q676 724 682 724C709 719 709 719 723 716Z"/>
<path id="z32768d20" d="M538 846Q565 850 612 843Q712 822 909 821Q927 821 931 814Q935 804 921 792Q870 755 817 772Q777 779 720 790C695 794 695 794 682 796Q613 803 539 816C529 818 528 844 538 846Z"/>
<defs>
	<clipPath id="z32768c1"><use href="#z32768d1"/></clipPath>
	<clipPath id="z32768c2"><use href="#z32768d2"/></clipPath>
	<clipPath id="z32768c3"><use href="#z32768d3"/></clipPath>
	<clipPath id="z32768c4"><use href="#z32768d4"/></clipPath>
	<clipPath id="z32768c5"><use href="#z32768d5"/></clipPath>
	<clipPath id="z32768c6"><use href="#z32768d6"/></clipPath>
	<clipPath id="z32768c7"><use href="#z32768d7"/></clipPath>
	<clipPath id="z32768c8"><use href="#z32768d8"/></clipPath>
	<clipPath id="z32768c9"><use href="#z32768d9"/></clipPath>
	<clipPath id="z32768c10"><use href="#z32768d10"/></clipPath>
	<clipPath id="z32768c11"><use href="#z32768d11"/></clipPath>
	<clipPath id="z32768c12"><use href="#z32768d12"/></clipPath>
	<clipPath id="z32768c13"><use href="#z32768d13"/></clipPath>
	<clipPath id="z32768c14"><use href="#z32768d14"/></clipPath>
	<clipPath id="z32768c15"><use href="#z32768d15"/></clipPath>
	<clipPath id="z32768c16"><use href="#z32768d16"/></clipPath>
	<clipPath id="z32768c17"><use href="#z32768d17"/></clipPath>
	<clipPath id="z32768c18"><use href="#z32768d18"/></clipPath>
	<clipPath id="z32768c19"><use href="#z32768d19"/></clipPath>
	<clipPath id="z32768c20"><use href="#z32768d20"/></clipPath>
<marker id="guide-arrow" viewBox="0 0 16 16" refX="5" refY="5" markerWidth="4" markerHeight="4" orient="auto-start-reverse"><path d="M 0 0 L 10 5 L 0 10 z" fill="inherit"/></marker></defs>
<path style="--d:1s;" pathLength="3333" clip-path="url(#z32768c1)" d="M263 103L314 146L289 409"/>
<path style="--d:2s;" pathLength="3333" clip-path="url(#z32768c2)" d="M148 275L220 360"/>
<path style="--d:3s;" pathLength="3333" clip-path="url(#z32768c3)" d="M387 217L407 253L349 330"/>
<path style="--d:4s;" pathLength="3333" clip-path="url(#z32768c4)" d="M88 468L154 471L405 412"/>
<path style="--d:5s;" pathLength="3333" clip-path="url(#z32768c5)" d="M262 467L285 502L239 590L67 790"/>
<path style="--d:6s;" pathLength="3333" clip-path="url(#z32768c6)" d="M309 521L328 569L320 793L455 659"/>
<path style="--d:7s;" pathLength="3333" clip-path="url(#z32768c7)" d="M455 142L587 124L634 153L596 351"/>
<path style="--d:8s;" pathLength="3333" clip-path="url(#z32768c8)" d="M470 258L582 244"/>
<path style="--d:9s;" pathLength="3333" clip-path="url(#z32768c9)" d="M461 355L577 340"/>
<path style="--d:10s;" pathLength="3333" clip-path="url(#z32768c10)" d="M700 106L827 91L873 120L811 319"/>
<path style="--d:11s;" pathLength="3333" clip-path="url(#z32768c11)" d="M693 217L808 214"/>
<path style="--d:12s;" pathLength="3333" clip-path="url(#z32768c12)" d="M689 324L788 315"/>
<path style="--d:13s;" pathLength="3333" clip-path="url(#z32768c13)" d="M535 416L552 446L493 520L392 602"/>
<path style="--d:14s;" pathLength="3333" clip-path="url(#z32768c14)" d="M515 540L509 930"/>
<path style="--d:15s;" pathLength="3333" clip-path="url(#z32768c15)" d="M671 386L746 449"/>
<path style="--d:16s;" pathLength="3333" clip-path="url(#z32768c16)" d="M587 518L840 483"/>
<path style="--d:17s;" pathLength="3333" clip-path="url(#z32768c17)" d="M681 539L707 569L706 791"/>
<path style="--d:18s;" pathLength="3333" clip-path="url(#z32768c18)" d="M603 612L819 589"/>
<path style="--d:19s;" pathLength="3333" clip-path="url(#z32768c19)" d="M600 709L835 679"/>
<path style="--d:20s;" pathLength="3333" clip-path="url(#z32768c20)" d="M543 839L834 795L927 807"/>
<g class="guides"><circle style="--d: 1s" class="g1" cx="263" cy="103" r="16"/><path style="--d: 1s;" class="g1" d="M167,103 Q218,146 214.875,178.875 Q196.125,376.125 193,409"/><circle style="--d: 2s" class="g2" cx="148" cy="275" r="16"/><path style="--d: 2s;" class="g2" d="M233.68,206.45600000000002 L305.68,291.456"/><circle style="--d: 3s" class="g3" cx="397" cy="235" r="16"/><path style="--d: 3s;" class="g3" d="M517,235 L469,330"/><circle style="--d: 4s" class="g4" cx="88" cy="468" r="16"/><path style="--d: 4s;" class="g4" d="M88,564 Q154,567 185.375,559.625 Q373.625,515.375 405,508"/><circle style="--d: 5s" class="g5" cx="274" cy="485" r="16"/><path style="--d: 5s;" class="g5" d="M178,485 Q160.5,556.9508196721312 149.75,574.0819672131148 Q85.25,676.8688524590164 74.5,694"/><circle style="--d: 6s" class="g6" cx="309" cy="521" r="16"/><path style="--d: 6s;" class="g6" d="M429,521 Q438.5,552.0588235294117 437.5,588.2941176470588 Q434.5,697 451.375,675.3235294117646 Q485.125,631.9705882352941 502,610.2941176470588"/><circle style="--d: 7s" class="g7" cx="455" cy="142" r="16"/><path style="--d: 7s;" class="g7" d="M455,238 Q521,220 526.875,224.18392070484583 Q544.5,236.73568281938327 539.75,265.30176211453744 Q530.25,322.43392070484583 525.5,351"/><circle style="--d: 8s" class="g8" cx="470" cy="258" r="16"/><path style="--d: 8s;" class="g8" d="M470,354 L582,340"/><circle style="--d: 9s" class="g9" cx="461" cy="355" r="16"/><path style="--d: 9s;" class="g9" d="M461,451 L577,436"/><circle style="--d: 10s" class="g10" cx="700" cy="106" r="16"/><path style="--d: 10s;" class="g10" d="M700,202 Q763.5,187 769.25,191.19736842105263 Q786.5,203.78947368421052 778.75,232.5921052631579 Q763.25,290.1973684210526 755.5,319"/><circle style="--d: 11s" class="g11" cx="693" cy="217" r="16"/><path style="--d: 11s;" class="g11" d="M693,313 L808,310"/><circle style="--d: 12s" class="g12" cx="689" cy="324" r="16"/><path style="--d: 12s;" class="g12" d="M689,420 L788,411"/><circle style="--d: 13s" class="g13" cx="544" cy="431" r="16"/><path style="--d: 13s;" class="g13" d="M448,431 Q422.5,475.5 416.1875,480.625 Q378.3125,511.375 372,516.5"/><circle style="--d: 14s" class="g14" cx="515" cy="540" r="16"/><path style="--d: 14s;" class="g14" d="M635,540 L629,930"/><circle style="--d: 15s" class="g15" cx="671" cy="386" r="16"/><path style="--d: 15s;" class="g15" d="M756.68,317.456 L831.68,380.456"/><circle style="--d: 16s" class="g16" cx="587" cy="518" r="16"/><path style="--d: 16s;" class="g16" d="M587,614 L840,579"/><circle style="--d: 17s" class="g17" cx="694" cy="554" r="16"/><path style="--d: 17s;" class="g17" d="M814,554 L826,791"/><circle style="--d: 18s" class="g18" cx="603" cy="612" r="16"/><path style="--d: 18s;" class="g18" d="M603,708 L819,685"/><circle style="--d: 19s" class="g19" cx="600" cy="709" r="16"/><path style="--d: 19s;" class="g19" d="M600,805 L835,775"/><circle style="--d: 20s" class="g20" cx="543" cy="839" r="16"/><path style="--d: 20s;" class="g20" d="M543,935 Q834,891 845.625,892.5 Q915.375,901.5 927,903"/></g></svg>