<!--
  Stroke-order data for 聊, derived from AnimCJK (https://github.com/parsimonhi/animCJK),
  itself derived from the Arphic PL KaitiM fonts. Distributed under the Arphic Public License
  (see ARPHICPL.TXT). Regenerated by scripts/build-strokes.ts — do not edit by hand.
-->
<svg id="z32842" class="acjk" viewBox="0 0 1024 1024" xmlns="http://www.w3.org/2000/svg">
<g class="glyph"><path id="z32842d1" d="M358 161C384 156 409 151 432 149C438 148 446 146 450 137C452 130 443 124 429 117C406 105 377 107 339 119C266 141 186 154 127 165C109 168 106 175 121 185C141 198 156 205 165 204C192 198 192 198 205 195C240 187 291 172 324 167C347 163 347 163 358 161Z"/><path id="z32842d2" d="M165 204C193 248 181 511 180 625C180 639 221 625 221 611C221 565 222 521 224 480C225 456 225 456 225 444C225 409 227 376 228 344C229 320 229 320 229 308C231 214 240 217 205 195C193 188 159 192 165 204Z"/><path id="z32842d3" d="M228 344C254 337 277 332 298 328C312 324 316 318 310 311C302 302 290 298 274 298C261 298 246 301 229 308C218 312 216 346 228 344Z"/><path id="z32842d4" d="M224 480C250 473 273 468 294 464C308 460 312 454 306 447C298 438 286 434 270 434C257 434 242 437 225 444C214 448 212 482 224 480Z"/><path id="z32842d5" d="M331 573C295 586 258 598 221 611C194 620 194 620 180 625C143 637 110 648 76 649C67 649 62 653 62 661C61 669 63 677 70 682C84 693 102 704 126 715C132 717 140 714 148 708C168 691 229 659 329 608C339 602 342 569 331 573Z"/><path id="z32842d6" d="M377 556C377 394 380 305 382 253C385 179 400 188 358 162C348 156 320 156 324 167C334 183 345 318 331 573C330 596 330 596 329 608C321 740 323 805 329 820C338 844 352 853 361 839C378 809 380 784 380 754C377 641 377 608 377 583C377 565 377 565 377 556Z"/><path id="z32842d7" d="M494 265C599 187 642 154 671 139C685 132 689 123 682 111C673 100 660 89 642 79C625 70 612 67 604 69C595 69 592 74 596 84C586 129 523 200 479 251C475 256 489 269 494 265Z"/><path id="z32842d8" d="M590 443C568 455 545 467 522 482C500 494 489 488 490 468C491 373 493 314 499 290C501 279 499 271 494 265C490 259 484 255 479 251C468 242 458 238 451 237C442 235 437 235 434 239C428 243 430 248 436 257C456 292 460 361 451 459C448 487 440 507 433 520C424 532 423 545 429 559C435 577 443 591 454 599C460 603 466 599 475 588C492 564 531 527 589 473C597 467 599 439 590 443Z"/><path id="z32842d9" d="M589 473C585 569 530 664 436 758C429 764 429 769 438 769C446 769 460 761 480 749C586 678 633 565 638 438C640 371 641 326 648 304C651 291 648 284 638 280C603 264 580 260 566 268C558 272 556 278 563 287C582 313 592 365 590 443C589 463 589 463 589 473Z"/><path id="z32842d10" d="M762 311C800 296 833 283 861 277C882 271 880 311 881 321C881 379 876 422 865 450C857 468 844 478 829 477C816 475 805 470 795 467C779 461 774 468 787 483C810 510 826 533 840 552C850 565 862 562 873 553C906 523 930 462 936 366C938 320 940 287 953 269C959 259 961 252 957 248C950 240 930 233 898 223C885 219 874 222 863 231C847 243 808 258 746 277C734 281 750 316 762 311Z"/><path id="z32842d11" d="M703 908C704 924 709 935 714 941C717 945 722 948 727 946C736 940 743 918 747 881C752 828 753 775 753 722C752 712 752 600 752 387C751 361 755 335 762 311C766 299 757 283 746 277C728 265 714 259 707 258C698 256 689 255 680 262C673 266 674 272 679 280C692 301 702 335 703 343C704 520 701 647 700 722C698 814 699 876 703 908Z"/></g>
<defs><clipPath id="z32842c1"><use href="#z32842d1"/></clipPath>
	<clipPath id="z32842c2"><use href="#z32842d2"/></clipPath>
	<clipPath id="z32842c3"><use href="#z32842d3"/></clipPath>
	<clipPath id="z32842c4"><use href="#z32842d4"/></clipPath>
	<clipPath id="z32842c5"><use href="#z32842d5"/></clipPath>
	<clipPath id="z32842c6"><use href="#z32842d6"/></clipPath>
	<clipPath id="z32842c7"><use href="#z32842d7"/></clipPath>
	<clipPath id="z32842c8"><use href="#z32842d8"/></clipPath>
	<clipPath id="z32842c9"><use href="#z32842d9"/></clipPath>
	<clipPath id="z32842c10"><use href="#z32842d10"/></clipPath>
	<clipPath id="z32842c11"><use href="#z32842d11"/></clipPath><marker id="guide-arrow" viewBox="0 0 16 16" refX="5" refY="5" markerWidth="4" markerHeight="4" orient="auto-start-reverse"><path d="M 0 0 L 10 5 L 0 10 z" fill="inherit"/></marker></defs>
<g class="strokes"><path pathLength="3333" clip-path="url(#z32842c1)" d="M118 173L441 135"/><path pathLength="3333" clip-path="url(#z32842c2)" d="M171 198L204 244L194 627"/><path pathLength="3333" clip-path="url(#z32842c3)" d="M227 334L308 313"/><path pathLength="3333" clip-path="url(#z32842c4)" d="M223 470L304 449"/><path pathLength="3333" clip-path="url(#z32842c5)" d="M67 661L134 677L334 584"/><path pathLength="3333" clip-path="url(#z32842c6)" d="M332 169L360 203L348 839"/><path pathLength="3333" clip-path="url(#z32842c7)" d="M603 76L632 123L485 256"/><path pathLength="3333" clip-path="url(#z32842c8)" d="M437 245L474 287L467 532L477 548L589 452"/><path pathLength="3333" clip-path="url(#z32842c9)" d="M566 275L614 308L602 536L542 664L439 763"/><path pathLength="3333" clip-path="url(#z32842c10)" d="M745 289L878 250L917 271L883 481L841 518L790 473"/><path pathLength="3333" clip-path="url(#z32842c11)" d="M681 266L731 321L719 940"/></g>
<g class="guides"><text class="g1" style="--gs:1" x="118" y="173">①</text><path class="g1 aligned" style="--gs:1" d="M118,173 L441,135"/><path class="g1 offset" style="--gs:1" d="M118,269 L441,231"/><text class="g2" style="--gs:2" x="171" y="198">②</text><path class="g2 aligned" style="--gs:2" d="M171,198 Q204,244 202.75,291.88 Q195.25,579.13 194,627"/><path class="g2 offset" style="--gs:2" d="M75,198 Q108,244 106.75,291.88 Q99.25,579.13 98,627"/><text class="g3" style="--gs:3" x="227" y="334">③</text><path class="g3 aligned" style="--gs:3" d="M227,334 L308,313"/><path class="g3 offset" style="--gs:3" d="M227,430 L308,409"/><text class="g4" style="--gs:4" x="223" y="470">④</text><path class="g4 aligned" style="--gs:4" d="M223,470 L304,449"/><path class="g4 offset" style="--gs:4" d="M223,566 L304,545"/><text class="g5" style="--gs:5" x="67" y="661">⑤</text><path class="g5 aligned" style="--gs:5" d="M67,661 Q134,677 159,665.38 Q309,595.63 334,584"/><path class="g5 offset" style="--gs:5" d="M67,757 Q134,773 159,761.38 Q309,691.63 334,680"/><text class="g6" style="--gs:6" x="332" y="169">⑥</text><path class="g6 aligned" style="--gs:6" d="M332,169 Q360,203 358.5,282.5 Q349.5,759.5 348,839"/><path class="g6 offset" style="--gs:6" d="M236,169 Q264,203 262.5,282.5 Q253.5,759.5 252,839"/><text class="g7" style="--gs:7" x="603" y="76">⑦</text><path class="g7 aligned" style="--gs:7" d="M603,76 Q632,123 613.63,139.63 Q503.38,239.38 485,256"/><path class="g7 offset" style="--gs:7" d="M507,76 Q521.5,99.5 512.31,107.81 Q457.19,157.69 448,166"/><text class="g8" style="--gs:8" x="437" y="245">⑧</text><path class="g8 aligned" style="--gs:8" d="M437,245 Q474,287 470.5,409.5 Q467,532 472,540 Q477,548 533,500 Q533,500 589,452"/><path class="g8 offset" style="--gs:8" d="M522.68,176.46 Q559.68,208 556.18,299.99 Q552.68,391.98 557.68,397.99 Q562.68,404 618.68,367.95 Q618.68,367.95 674.68,331.91"/><text class="g9" style="--gs:9" x="566" y="275">⑨</text><path class="g9 aligned" style="--gs:9" d="M566,275 Q614,308 608,422 Q602,536 572,600 Q542,664 490.5,713.5 Q490.5,713.5 439,763"/><path class="g9 offset" style="--gs:9" d="M470,275 Q494,301.51 491,393.08 Q488,484.66 473,536.07 Q458,587.48 432.25,627.24 Q432.25,627.24 406.5,667"/><text class="g10" style="--gs:10" x="745" y="289">⑩</text><path class="g10 aligned" style="--gs:10" d="M745,289 Q878,250 897.5,260.5 Q917,271 900,376 Q883,481 862,499.5 Q841,518 815.5,495.5 Q815.5,495.5 790,473"/><path class="g10 offset" style="--gs:10" d="M745,385 Q811.5,346 821.25,356.5 Q831,367 822.5,414.25 Q814,461.5 803.5,470.75 Q793,480 780.25,468.75 Q780.25,468.75 767.5,457.5"/><text class="g11" style="--gs:11" x="681" y="266">⑪</text><path class="g11 aligned" style="--gs:11" d="M681,266 Q731,321 729.5,398.38 Q720.5,862.63 719,940"/><path class="g11 offset" style="--gs:11" d="M585,266 Q635,321 633.5,398.38 Q624.5,862.63 623,940"/></g>
</svg>
