<svg id="z32858" class="acjk" viewBox="0 0 1024 1024" xmlns="http://www.w3.org/2000/svg">
<style>

@keyframes zk {
	to {
		stroke-dashoffset:0;
	}
}
svg.acjk path[clip-path] {
	--t:0.8s;
	animation:zk var(--t) linear forwards var(--d);
	stroke-dasharray:3337;
	stroke-dashoffset:3339;
	stroke-width:128;
	stroke-linecap:round;
	fill:none;
	stroke:#000;
}
svg.acjk path[id] {fill:#ccc;}


    @keyframes guide-fade {
        0% { opacity: 0; }
        3% { opacity: 1; }
        95% { opacity: 1; }
        100% { opacity: 0; }
    }

    svg.acjk #guide-arrow {
        fill: #f77;
    }

    svg.acjk .guides {
        circle {
            fill: #0f6;
        }

        path {
            opacity: 0;
            animation: guide-fade var(--t) linear forwards var(--d);
            stroke-width: 16px;
            stroke-linecap: round;
            stroke: #f77;
            fill: none;
            marker-end: url(#guide-arrow);
        }

        circle,
        path {
            --t: 0.8s;
            opacity: 0;
            animation: guide-fade calc(var(--t) + 0.4s) ease-in-out forwards calc(var(--d) - 0.2s);
        }
    }
</style>
<path id="z32858d1" d="M470 128C494 125 518 121 540 120C565 117 558 104 539 91C522 79 486 81 429 94C346 112 261 121 196 128C179 129 177 134 190 145C206 158 229 165 259 160C282 156 282 156 294 154C333 147 376 136 426 132C455 129 455 129 470 128Z"/>
<path id="z32858d2" d="M259 160C283 194 273 225 274 411C274 424 311 417 311 404C311 379 312 356 313 335C314 318 314 318 314 309C314 288 316 268 317 250C318 235 318 235 318 227C320 169 332 175 294 154C284 148 252 151 259 160Z"/>
<path id="z32858d3" d="M317 250C347 247 379 241 406 237C418 234 422 228 417 222C410 214 400 209 386 208C360 204 337 212 318 227C311 231 309 252 317 250Z"/>
<path id="z32858d4" d="M313 335C342 326 381 322 410 317C422 314 426 309 421 302C414 293 404 289 390 288C367 285 342 293 314 309C307 313 304 337 313 335Z"/>
<path id="z32858d5" d="M479 391C518 376 539 352 480 366C450 373 450 373 435 376C394 384 354 395 311 404C286 409 286 409 274 411C230 419 193 426 154 424C145 423 140 428 139 434C137 442 138 449 144 455C156 467 172 480 194 493C200 496 207 494 215 490C246 469 320 449 430 409C463 397 463 397 479 391Z"/>
<path id="z32858d6" d="M480 366C482 314 487 192 492 167C494 152 492 142 470 128C457 120 418 119 426 132C447 159 441 330 435 376C432 398 432 398 430 409C426 428 430 446 442 473C445 480 448 484 452 487C455 488 457 489 461 486C463 483 468 478 473 469C476 460 477 434 479 391C480 374 480 374 480 366Z"/>
<path id="z32858d7" d="M643 319C620 339 599 354 550 377C520 390 549 389 570 385C612 375 642 365 679 341C693 331 706 318 716 304C746 254 768 209 794 182C805 172 806 161 797 155C759 127 725 127 692 141C654 156 609 163 561 168C550 169 542 169 541 173C538 179 544 187 558 196C574 206 600 206 637 194C677 179 700 172 705 172C709 172 714 177 713 187C707 223 695 247 672 286C664 298 653 308 643 319Z"/>
<path id="z32858d8" d="M679 341C722 367 770 397 819 433C830 441 839 447 848 448C852 448 856 444 860 438C864 429 860 414 850 391C839 367 795 336 716 304C687 292 687 292 672 286C621 265 580 250 551 242C544 240 542 242 543 250C543 256 547 263 555 268C582 283 612 300 643 319C667 334 667 334 679 341Z"/>
<path id="z32858d9" d="M511 531C544 521 590 512 630 503C652 497 657 484 645 472C627 454 613 444 600 436C579 425 564 419 561 441C556 467 469 507 306 557C269 567 272 576 305 573C314 571 330 573 349 569C371 564 371 564 382 562C388 560 420 556 476 541C499 534 499 534 511 531Z"/>
<path id="z32858d10" d="M535 600C536 562 538 552 511 531C502 522 472 529 476 541C490 575 492 665 475 811C473 825 469 839 469 854C467 884 472 913 501 953C510 966 522 962 528 951C536 930 536 910 536 890C533 838 530 752 534 634C535 611 535 611 535 600Z"/>
<path id="z32858d11" d="M349 569C336 609 286 661 197 722C185 730 185 732 201 732C241 732 297 700 368 638C386 621 399 609 407 603C413 597 416 591 415 586C410 572 394 564 382 562C371 560 353 559 349 569Z"/>
<path id="z32858d12" d="M366 693C353 738 289 801 170 880C155 889 156 891 175 892C215 892 284 858 379 781C396 766 414 748 433 733C440 726 443 719 443 713C441 704 433 697 417 690C398 681 386 677 378 679C373 679 368 684 366 693Z"/>
<path id="z32858d13" d="M614 666C685 620 741 584 786 567C799 561 805 559 803 551C798 538 790 524 778 510C765 495 750 486 733 484C722 482 716 490 716 505C716 515 712 526 706 538C694 559 661 592 600 654C596 658 609 670 614 666Z"/>
<path id="z32858d14" d="M600 654C569 627 548 609 535 600C526 593 526 626 534 634C596 704 662 772 730 838C746 854 768 863 796 864C846 865 896 859 949 851C972 847 984 838 956 829C836 787 763 761 739 747C686 715 643 690 614 666C605 658 605 658 600 654Z"/>
<defs>
	<clipPath id="z32858c1"><use href="#z32858d1"/></clipPath>
	<clipPath id="z32858c2"><use href="#z32858d2"/></clipPath>
	<clipPath id="z32858c3"><use href="#z32858d3"/></clipPath>
	<clipPath id="z32858c4"><use href="#z32858d4"/></clipPath>
	<clipPath id="z32858c5"><use href="#z32858d5"/></clipPath>
	<clipPath id="z32858c6"><use href="#z32858d6"/></clipPath>
	<clipPath id="z32858c7"><use href="#z32858d7"/></clipPath>
	<clipPath id="z32858c8"><use href="#z32858d8"/></clipPath>
	<clipPath id="z32858c9"><use href="#z32858d9"/></clipPath>
	<clipPath id="z32858c10"><use href="#z32858d10"/></clipPath>
	<clipPath id="z32858c11"><use href="#z32858d11"/></clipPath>
	<clipPath id="z32858c12"><use href="#z32858d12"/></clipPath>
	<clipPath id="z32858c13"><use href="#z32858d13"/></clipPath>
	<clipPath id="z32858c14"><use href="#z32858d14"/></clipPath>
<marker id="guide-arrow" viewBox="0 0 16 16" refX="5" refY="5" markerWidth="4" markerHeight="4" orient="auto-start-reverse"><path d="M 0 0 L 10 5 L 0 10 z" fill="inherit"/></marker></defs>
<path style="--d:1s;" pathLength="3333" clip-path="url(#z32858c1)" d="M192 137L548 105"/>
<path style="--d:2s;" pathLength="3333" clip-path="url(#z32858c2)" d="M266 160L297 195L286 414"/>
<path style="--d:3s;" pathLength="3333" clip-path="url(#z32858c3)" d="M317 241L413 224"/>
<path style="--d:4s;" pathLength="3333" clip-path="url(#z32858c4)" d="M315 326L417 309"/>
<path style="--d:5s;" pathLength="3333" clip-path="url(#z32858c5)" d="M143 433L205 457L506 367"/>
<path style="--d:6s;" pathLength="3333" clip-path="url(#z32858c6)" d="M434 131L465 166L454 481"/>
<path style="--d:7s;" pathLength="3333" clip-path="url(#z32858c7)" d="M546 175L593 183L708 153L758 178L684 308L549 384"/>
<path style="--d:8s;" pathLength="3333" clip-path="url(#z32858c8)" d="M550 251L762 357L851 441"/>
<path style="--d:9s;" pathLength="3333" clip-path="url(#z32858c9)" d="M574 430L587 482L290 567"/>
<path style="--d:10s;" pathLength="3333" clip-path="url(#z32858c10)" d="M481 536L509 567L514 956"/>
<path style="--d:11s;" pathLength="3333" clip-path="url(#z32858c11)" d="M358 566L370 601L199 727"/>
<path style="--d:12s;" pathLength="3333" clip-path="url(#z32858c12)" d="M379 685L396 722L348 771L169 884"/>
<path style="--d:13s;" pathLength="3333" clip-path="url(#z32858c13)" d="M726 490L752 550L606 656"/>
<path style="--d:14s;" pathLength="3333" clip-path="url(#z32858c14)" d="M534 611L763 808L963 839"/>
<g class="guides"><circle style="--d: 1s" class="g1" cx="192" cy="137" r="16"/><path style="--d: 1s;" class="g1" d="M192,233 L548,201"/><circle style="--d: 2s" class="g2" cx="266" cy="160" r="16"/><path style="--d: 2s;" class="g2" d="M170,160 Q201,195 199.625,222.375 Q191.375,386.625 190,414"/><circle style="--d: 3s" class="g3" cx="317" cy="241" r="16"/><path style="--d: 3s;" class="g3" d="M317,337 L413,320"/><circle style="--d: 4s" class="g4" cx="315" cy="326" r="16"/><path style="--d: 4s;" class="g4" d="M315,422 L417,405"/><circle style="--d: 5s" class="g5" cx="143" cy="433" r="16"/><path style="--d: 5s;" class="g5" d="M143,529 Q205,553 242.625,541.75 Q468.375,474.25 506,463"/><circle style="--d: 6s" class="g6" cx="434" cy="131" r="16"/><path style="--d: 6s;" class="g6" d="M338,131 Q369,166 367.625,205.375 Q359.375,441.625 358,481"/><circle style="--d: 7s" class="g7" cx="546" cy="175" r="16"/><path style="--d: 7s;" class="g7" d="M546,271 Q571.7169811320755,279 603.1792452830189,264 Q634.6415094339623,249 648.3207547169811,261.5 Q662,274 641.7547169811321,339 Q621.5094339622642,404 584.5754716981132,442 Q584.5754716981132,442 547.6415094339623,480"/><circle style="--d: 8s" class="g8" cx="550" cy="251" r="16"/><path style="--d: 8s;" class="g8" d="M635.68,182.45600000000002 Q847.68,288.456 858.805,298.956 Q925.555,361.956 936.68,372.456"/><circle style="--d: 9s" class="g9" cx="574" cy="430" r="16"/><path style="--d: 9s;" class="g9" d="M478,430 Q485.7474747474747,456 463.6224747474747,461.3125 Q330.87247474747477,493.1875 308.74747474747477,498.5"/><circle style="--d: 10s" class="g10" cx="495" cy="552" r="16"/><path style="--d: 10s;" class="g10" d="M615,552 L634,956"/><circle style="--d: 11s" class="g11" cx="364" cy="584" r="16"/><path style="--d: 11s;" class="g11" d="M449.68,652.544 L284.68,795.544"/><circle style="--d: 12s" class="g12" cx="388" cy="704" r="16"/><path style="--d: 12s;" class="g12" d="M473.68,772.544 Q433.68,839.544 411.305,853.669 Q277.055,938.419 254.68,952.544"/><circle style="--d: 13s" class="g13" cx="726" cy="490" r="16"/><path style="--d: 13s;" class="g13" d="M630,490 Q643,520 633.875,526.625 Q579.125,566.375 570,573"/><circle style="--d: 14s" class="g14" cx="534" cy="611" r="16"/><path style="--d: 14s;" class="g14" d="M619.68,542.456 Q802.9440559440559,715.733052631579 822.951048951049,719.1414210526316 Q942.9930069930069,739.5916315789474 963,743"/></g></svg>