<!--
  Stroke-order data for 聡, derived from AnimCJK (https://github.com/parsimonhi/animCJK),
  itself derived from the Arphic PL KaitiM fonts. Distributed under the Arphic Public License
  (see ARPHICPL.TXT). Regenerated by scripts/build-strokes.ts — do not edit by hand.
-->
<svg id="z32865" class="acjk" viewBox="0 0 1024 1024" xmlns="http://www.w3.org/2000/svg">
<g class="glyph"><path id="z32865d1" d="M381 218Q391 214 404 213Q450 204 458 198Q467 191 462 183Q456 173 430 164Q402 158 375 168Q321 184 264 197Q200 210 125 215Q92 219 115 235Q119 238 157 251C173 256 191 251 208 248Q272 235 341 224C368 220 368 220 381 218Z"/><path id="z32865d2" d="M157 251Q178 293 178 326Q179 363 180 679C180 694 222 680 222 665Q222 604 223 549C224 525 224 525 224 513Q224 461 226 414C226 393 226 393 226 382Q227 354 228 328Q231 268 219 256Q213 252 208 248C194 238 149 236 157 251Z"/><path id="z32865d3" d="M226 414Q278 402 317 396Q339 390 330 379Q318 366 294 364Q248 361 226 382C218 389 216 416 226 414Z"/><path id="z32865d4" d="M223 549Q275 536 313 530Q335 523 326 511Q313 498 288 497Q264 496 225 512Q224 512 224 513C214 519 211 551 223 549Z"/><path id="z32865d5" d="M345 622C305 636 264 650 222 665C194 674 194 674 180 679C116 695 77 703 65 705C56 705 51 709 50 717C49 725 52 732 58 738C72 748 91 759 114 771C120 773 128 771 136 765C162 744 231 708 344 656C355 652 356 618 345 622Z"/><path id="z32865d6" d="M396 839Q392 821 391 631C391 614 391 614 391 606Q392 474 392 335Q391 253 394 240Q397 230 388 222Q385 219 381 218C368 213 339 211 341 224Q353 266 345 622C344 645 344 645 344 656Q335 887 345 906Q348 913 356 922Q368 935 377 919Q389 895 396 856C396 845 396 845 396 839Z"/><path id="z32865d7" d="M441 443C435 445 429 436 434 432C501 374 564 246 565 210C565 197 564 190 563 178C562 171 571 163 579 164C600 164 620 175 632 192C637 199 633 208 628 216C608 239 593 280 582 302C567 330 523 388 489 416C472 429 458 436 441 443Z"/><path id="z32865d8" d="M817 372C806 367 794 354 787 346C739 290 716 224 682 160C668 135 646 116 624 100C617 95 624 84 634 84C657 83 679 94 691 114C726 172 754 231 804 278C837 309 871 324 912 342C927 348 942 353 957 361C960 363 963 370 958 373C946 377 933 376 912 379C864 383 852 385 817 372Z"/><path id="z32865d9" d="M540 589C530 588 523 579 517 573C508 565 499 554 503 544C507 530 518 525 528 517C543 504 556 490 568 474C590 442 612 410 622 372C624 360 623 348 620 336C617 327 626 316 636 316C648 314 659 323 670 329C681 334 695 340 700 353C703 360 696 368 692 374C655 415 628 456 596 500C588 510 581 517 585 522C589 528 655 509 684 503C713 496 719 494 749 491C755 499 760 507 765 515C748 523 737 523 719 528C662 540 609 556 576 571C562 577 548 589 540 589Z"/><path id="z32865d10" d="M817 586C808 586 804 576 799 570C769 529 747 486 718 447C711 438 707 422 718 416C724 411 731 419 737 423C771 445 802 465 826 500C834 511 841 531 841 546C840 560 839 575 827 583C823 584 821 586 817 586Z"/><path id="z32865d11" d="M488 698C475 738 458 778 438 817C426 837 426 859 440 881C446 891 455 892 468 884C502 852 518 808 517 752C519 731 517 713 511 697C507 692 503 689 500 688C495 688 491 692 488 698Z"/><path id="z32865d12" d="M555 726C565 786 591 832 635 865C699 907 759 923 871 915C887 912 903 908 919 902C933 897 941 890 943 881C945 875 936 863 914 845C880 810 851 775 828 741C821 730 816 727 813 731C810 735 810 741 812 751C818 773 824 797 829 823C831 837 831 846 828 852C822 858 806 862 781 862C693 860 660 841 626 806C610 791 599 770 593 744C590 729 585 720 577 717C569 712 562 711 558 713C555 713 554 718 555 726Z"/><path id="z32865d13" d="M673 690Q697 709 722 731Q735 741 748 740Q758 739 761 728Q765 715 755 689Q749 673 723 662Q660 644 648 649Q644 653 646 664Q649 674 673 690Z"/><path id="z32865d14" d="M821 644Q867 680 921 734Q936 750 950 754Q959 755 965 745Q975 733 961 694Q948 649 821 615Q812 611 811 623Q811 635 821 644Z"/></g>
<defs><clipPath id="z32865c1"><use href="#z32865d1"/></clipPath>
	<clipPath id="z32865c2"><use href="#z32865d2"/></clipPath>
	<clipPath id="z32865c3"><use href="#z32865d3"/></clipPath>
	<clipPath id="z32865c4"><use href="#z32865d4"/></clipPath>
	<clipPath id="z32865c5"><use href="#z32865d5"/></clipPath>
	<clipPath id="z32865c6"><use href="#z32865d6"/></clipPath>
	<clipPath id="z32865c7"><use href="#z32865d7"/></clipPath>
	<clipPath id="z32865c8"><use href="#z32865d8"/></clipPath>
	<clipPath id="z32865c9"><use href="#z32865d9"/></clipPath>
	<clipPath id="z32865c10"><use href="#z32865d10"/></clipPath>
	<clipPath id="z32865c11"><use href="#z32865d11"/></clipPath>
	<clipPath id="z32865c12"><use href="#z32865d12"/></clipPath>
	<clipPath id="z32865c13"><use href="#z32865d13"/></clipPath>
	<clipPath id="z32865c14"><use href="#z32865d14"/></clipPath><marker id="guide-arrow" viewBox="0 0 16 16" refX="5" refY="5" markerWidth="4" markerHeight="4" orient="auto-start-reverse"><path d="M 0 0 L 10 5 L 0 10 z" fill="inherit"/></marker></defs>
<g class="strokes"><path pathLength="3333" clip-path="url(#z32865c1)" d="M113 223L197 228L459 185"/><path pathLength="3333" clip-path="url(#z32865c2)" d="M166 254L202 295L188 675"/><path pathLength="3333" clip-path="url(#z32865c3)" d="M229 406L325 382"/><path pathLength="3333" clip-path="url(#z32865c4)" d="M226 541L321 514"/><path pathLength="3333" clip-path="url(#z32865c5)" d="M54 719L122 732L335 644"/><path pathLength="3333" clip-path="url(#z32865c6)" d="M350 231L370 257L365 923"/><path pathLength="3333" clip-path="url(#z32865c7)" d="M575 174L598 212L546 337L437 435"/><path pathLength="3333" clip-path="url(#z32865c8)" d="M628 93L666 110L817 330L953 367"/><path pathLength="3333" clip-path="url(#z32865c9)" d="M630 323L662 364L546 543L561 556L749 508"/><path pathLength="3333" clip-path="url(#z32865c10)" d="M720 424L806 524L823 581"/><path pathLength="3333" clip-path="url(#z32865c11)" d="M500 693L452 886"/><path pathLength="3333" clip-path="url(#z32865c12)" d="M564 721L640 843L761 888L892 865L816 739"/><path pathLength="3333" clip-path="url(#z32865c13)" d="M652 655L754 732"/><path pathLength="3333" clip-path="url(#z32865c14)" d="M820 626L922 691L955 747"/></g>
<g class="guides"><text class="g1" style="--gs:1" x="113" y="223">①</text><path class="g1 aligned" style="--gs:1" d="M113,223 Q197,228 229.75,222.63 Q426.25,190.38 459,185"/><path class="g1 offset" style="--gs:1" d="M113,319 Q197,324 229.75,318.63 Q426.25,286.38 459,281"/><text class="g2" style="--gs:2" x="166" y="254">②</text><path class="g2 aligned" style="--gs:2" d="M166,254 Q202,295 200.25,342.5 Q189.75,627.5 188,675"/><path class="g2 offset" style="--gs:2" d="M70,254 Q106,295 104.25,342.5 Q93.75,627.5 92,675"/><text class="g3" style="--gs:3" x="229" y="406">③</text><path class="g3 aligned" style="--gs:3" d="M229,406 L325,382"/><path class="g3 offset" style="--gs:3" d="M229,502 L325,478"/><text class="g4" style="--gs:4" x="226" y="541">④</text><path class="g4 aligned" style="--gs:4" d="M226,541 L321,514"/><path class="g4 offset" style="--gs:4" d="M226,637 L321,610"/><text class="g5" style="--gs:5" x="54" y="719">⑤</text><path class="g5 aligned" style="--gs:5" d="M54,719 Q122,732 148.63,721 Q308.38,655 335,644"/><path class="g5 offset" style="--gs:5" d="M54,815 Q122,828 148.63,817 Q308.38,751 335,740"/><text class="g6" style="--gs:6" x="350" y="231">⑥</text><path class="g6 aligned" style="--gs:6" d="M360,244 L365,923"/><path class="g6 offset" style="--gs:6" d="M480,244 L485,923"/><text class="g7" style="--gs:7" x="575" y="174">⑦</text><path class="g7 aligned" style="--gs:7" d="M575,174 Q598,212 585,243.25 Q546,337 518.75,361.5 Q464.25,410.5 437,435"/><path class="g7 offset" style="--gs:7" d="M479,174 Q490.5,198.02 484,217.78 Q464.5,277.05 450.88,292.53 Q423.63,323.51 410,339"/><text class="g8" style="--gs:8" x="628" y="93">⑧</text><path class="g8 aligned" style="--gs:8" d="M647,102 Q817,330 834,334.63 Q936,362.38 953,367"/><path class="g8 offset" style="--gs:8" d="M732.68,33.46 Q855.08,237.83 867.32,241.98 Q940.76,266.85 953,271"/><text class="g9" style="--gs:9" x="630" y="323">⑨</text><path class="g9 aligned" style="--gs:9" d="M630,323 Q662,364 604,453.5 Q546,543 553.5,549.5 Q561,556 655,532 Q655,532 749,508"/><path class="g9 offset" style="--gs:9" d="M715.68,254.46 Q734.17,290.62 700.65,369.58 Q667.13,448.53 671.47,454.27 Q675.8,460 730.13,438.83 Q730.13,438.83 784.45,417.66"/><text class="g10" style="--gs:10" x="720" y="424">⑩</text><path class="g10 aligned" style="--gs:10" d="M720,424 Q806,524 808.13,531.13 Q820.88,573.88 823,581"/><path class="g10 offset" style="--gs:10" d="M805.68,355.46 Q891.68,455.46 893.81,462.58 Q906.56,505.33 908.68,512.46"/><text class="g11" style="--gs:11" x="500" y="693">⑪</text><path class="g11 aligned" style="--gs:11" d="M500,693 L452,886"/><path class="g11 offset" style="--gs:11" d="M620,693 L572,886"/><text class="g12" style="--gs:12" x="564" y="721">⑫</text><path class="g12 aligned" style="--gs:12" d="M564,721 Q640,843 700.5,865.5 Q761,888 826.5,876.5 Q892,865 854,802 Q854,802 816,739"/><path class="g12 offset" style="--gs:12" d="M495.46,789.54 Q638.44,911.54 752.26,934.04 Q866.09,956.54 989.31,945.04 Q1112.54,933.54 1041.05,870.54 Q1041.05,870.54 969.56,807.54"/><text class="g13" style="--gs:13" x="652" y="655">⑬</text><path class="g13 aligned" style="--gs:13" d="M652,655 L754,732"/><path class="g13 offset" style="--gs:13" d="M737.68,586.46 L839.68,663.46"/><text class="g14" style="--gs:14" x="820" y="626">⑭</text><path class="g14 aligned" style="--gs:14" d="M820,626 Q922,691 926.13,698 Q950.88,740 955,747"/><path class="g14 offset" style="--gs:14" d="M905.68,557.46 Q1007.68,622.46 1011.81,629.46 Q1036.56,671.46 1040.68,678.46"/></g>
</svg>
