<!--
  Stroke-order data for 職, derived from AnimCJK (https://github.com/parsimonhi/animCJK),
  itself derived from the Arphic PL KaitiM fonts. Distributed under the Arphic Public License
  (see ARPHICPL.TXT). Regenerated by scripts/build-strokes.ts — do not edit by hand.
-->
<svg id="z32887" class="acjk" viewBox="0 0 1024 1024" xmlns="http://www.w3.org/2000/svg">
<g class="glyph"><path style="--part:1" id="z32887d1" d="M331 231C341 228 353 225 367 222C393 215 407 210 411 207C416 201 418 196 415 191C410 184 399 176 380 173C360 168 340 172 321 180C292 190 262 200 231 208C196 216 157 222 116 228C93 231 90 240 107 250C117 256 129 261 144 263C160 264 176 264 193 262C201 260 235 250 295 239C307 236 319 233 331 231Z"/><path style="--part:1" id="z32887d2" d="M144 263C156 291 162 315 163 335C163 359 163 472 162 674C162 687 200 674 200 661C200 618 199 577 201 538C202 518 202 518 202 508C203 475 202 444 203 414C204 393 204 393 204 383C205 345 204 315 207 296C208 285 204 274 193 262C183 249 138 248 144 263Z"/><path style="--part:1" id="z32887d3" d="M203 414Q246 407 278 402Q297 398 289 387Q279 374 256 372Q235 371 204 383C194 387 193 416 203 414Z"/><path style="--part:1" id="z32887d4" d="M201 538Q244 531 277 526Q298 522 289 511Q279 498 256 496Q235 495 202 508C193 512 191 540 201 538Z"/><path style="--part:1" id="z32887d5" d="M308 621C273 633 237 648 200 661C175 670 175 670 162 674C121 688 94 689 87 691C77 692 73 697 73 703C72 711 74 718 81 723C94 731 113 743 136 753C141 755 149 751 157 746C181 725 230 695 305 657C316 653 319 617 308 621Z"/><path style="--part:1" id="z32887d6" d="M350 604C350 444 351 331 359 267C360 257 349 245 331 231C321 224 290 228 295 239C306 258 312 326 311 444C311 494 311 584 308 621C306 645 306 645 305 657C297 750 291 802 288 814C280 835 290 864 313 900C320 911 325 920 332 922C338 923 344 918 348 910C356 889 357 869 356 850C351 773 350 700 350 632C350 613 350 613 350 604Z"/><path style="--part:2" id="z32887d7" d="M479 136C502 167 520 188 538 195C546 198 554 194 560 187C564 180 565 172 564 162C561 147 554 136 545 128C522 110 501 100 479 100C475 99 471 100 469 101C466 101 464 105 465 113C465 119 471 126 479 136Z"/><path style="--part:2" id="z32887d8" d="M581 266Q591 262 603 259Q628 250 633 247Q640 240 635 233Q628 224 605 220Q584 217 522 243Q474 258 420 269Q392 276 413 288Q441 303 512 284Q533 278 556 273C573 268 573 268 581 266Z"/><path style="--part:2" id="z32887d9" d="M423 334C435 374 446 396 458 401C464 403 470 402 476 395C479 389 481 380 480 370C479 361 471 353 463 344C449 329 440 320 433 317C428 314 426 316 424 321C422 324 421 327 423 334Z"/><path style="--part:2" id="z32887d10" d="M560 413C562 410 575 385 599 340C601 332 607 322 615 312C621 305 622 299 618 294C613 286 599 274 581 266C573 263 553 265 556 273C565 293 561 332 545 389C542 399 539 408 539 418C539 425 557 419 560 413Z"/><path style="--part:2" id="z32887d11" d="M539 418C492 429 443 439 393 452C381 454 379 460 390 469C407 483 428 487 450 480C519 455 594 434 677 424C704 421 704 421 718 419C732 417 768 412 826 407C836 406 843 403 846 398C848 391 844 383 834 377C802 355 764 356 713 372C686 380 686 380 673 384C656 389 580 408 560 413C546 416 546 416 539 418Z"/><path style="--part:2" id="z32887d12" d="M441 535C435 529 423 524 415 522C409 520 403 517 400 522C393 531 400 541 403 545C414 563 417 633 412 713C409 753 404 780 425 804C430 810 434 810 440 804C444 797 447 790 448 783C449 763 449 763 450 753C452 723 449 692 449 662C449 647 449 647 449 639C449 613 449 586 450 560C450 551 448 540 441 535Z"/><path style="--part:2" id="z32887d13" d="M557 772C581 812 595 835 600 836C605 837 611 829 616 817C623 796 625 754 622 690C617 607 616 558 622 543C625 532 624 524 618 519C613 514 601 507 582 498C570 492 482 530 441 535C432 536 441 561 450 560C456 559 463 558 472 555C494 546 519 539 548 533C556 531 562 531 565 535C570 541 573 591 574 685C574 717 574 737 571 745C569 749 564 751 560 751C553 752 553 766 557 772Z"/><path style="--part:2" id="z32887d14" d="M449 662C467 661 514 653 538 649C550 646 554 640 549 634C542 626 532 621 518 620C496 617 473 624 449 639C442 643 441 662 449 662Z"/><path style="--part:2" id="z32887d15" d="M448 783Q455 784 465 782Q493 775 557 772C564 772 566 755 560 751Q527 726 453 752Q452 752 450 753C441 757 438 783 448 783Z"/><path style="--part:2" id="z32887d16" d="M677 424C683 496 695 568 716 642C719 653 722 665 726 677C753 767 794 842 852 899C888 934 918 951 937 950C951 948 954 936 952 918C947 888 949 829 951 741C951 726 948 718 943 718C938 717 934 724 930 738C921 760 912 781 905 800C896 819 889 830 883 830C874 829 861 822 848 806C820 774 790 721 761 648C755 633 751 618 748 604C737 560 727 498 718 419C716 403 714 387 713 372C706 288 707 218 724 166C731 140 722 120 688 103C665 91 648 87 636 91C623 94 615 103 624 115C647 146 661 169 662 191C663 261 668 326 673 384C674 397 675 410 677 424Z"/><path style="--part:2" id="z32887d17" d="M716 642C675 680 650 699 646 705C639 713 641 716 651 715C665 713 691 702 726 677C738 668 750 659 761 648C785 620 805 593 881 504C887 496 888 488 880 479C857 454 836 443 820 445C813 445 810 450 811 460C811 500 791 547 748 604C738 617 728 630 716 642Z"/><path style="--part:2" id="z32887d18" d="M787 166C807 183 827 203 848 224C856 232 864 236 874 236C880 235 886 231 889 223C892 214 890 201 886 183C882 169 871 155 850 146C804 125 774 116 764 121C760 122 759 128 760 136C761 142 771 152 787 166Z"/></g>
<defs><clipPath id="z32887c1"><use href="#z32887d1"/></clipPath>
	<clipPath id="z32887c2"><use href="#z32887d2"/></clipPath>
	<clipPath id="z32887c3"><use href="#z32887d3"/></clipPath>
	<clipPath id="z32887c4"><use href="#z32887d4"/></clipPath>
	<clipPath id="z32887c5"><use href="#z32887d5"/></clipPath>
	<clipPath id="z32887c6"><use href="#z32887d6"/></clipPath>
	<clipPath id="z32887c7"><use href="#z32887d7"/></clipPath>
	<clipPath id="z32887c8"><use href="#z32887d8"/></clipPath>
	<clipPath id="z32887c9"><use href="#z32887d9"/></clipPath>
	<clipPath id="z32887c10"><use href="#z32887d10"/></clipPath>
	<clipPath id="z32887c11"><use href="#z32887d11"/></clipPath>
	<clipPath id="z32887c12"><use href="#z32887d12"/></clipPath>
	<clipPath id="z32887c13"><use href="#z32887d13"/></clipPath>
	<clipPath id="z32887c14"><use href="#z32887d14"/></clipPath>
	<clipPath id="z32887c15"><use href="#z32887d15"/></clipPath>
	<clipPath id="z32887c16"><use href="#z32887d16"/></clipPath>
	<clipPath id="z32887c17"><use href="#z32887d17"/></clipPath>
	<clipPath id="z32887c18"><use href="#z32887d18"/></clipPath><marker id="guide-arrow" viewBox="0 0 16 16" refX="5" refY="5" markerWidth="4" markerHeight="4" orient="auto-start-reverse"><path d="M 0 0 L 10 5 L 0 10 z" fill="inherit"/></marker></defs>
<g class="strokes"><path style="--part:1" pathLength="3333" clip-path="url(#z32887c1)" d="M107 239L412 201"/><path style="--part:1" pathLength="3333" clip-path="url(#z32887c2)" d="M152 265L179 285L184 326L171 665"/><path style="--part:1" pathLength="3333" clip-path="url(#z32887c3)" d="M208 405L286 391"/><path style="--part:1" pathLength="3333" clip-path="url(#z32887c4)" d="M207 529L286 517"/><path style="--part:1" pathLength="3333" clip-path="url(#z32887c5)" d="M78 704L140 716L297 636"/><path style="--part:1" pathLength="3333" clip-path="url(#z32887c6)" d="M302 243L332 273L320 827L337 917"/><path style="--part:2" pathLength="3333" clip-path="url(#z32887c7)" d="M473 107L555 186"/><path style="--part:2" pathLength="3333" clip-path="url(#z32887c8)" d="M413 279L633 236"/><path style="--part:2" pathLength="3333" clip-path="url(#z32887c9)" d="M429 325L467 395"/><path style="--part:2" pathLength="3333" clip-path="url(#z32887c10)" d="M564 280L589 316L549 412"/><path style="--part:2" pathLength="3333" clip-path="url(#z32887c11)" d="M390 459L738 390L841 388"/><path style="--part:2" pathLength="3333" clip-path="url(#z32887c12)" d="M405 528L430 564L432 803"/><path style="--part:2" pathLength="3333" clip-path="url(#z32887c13)" d="M450 538L565 515L593 531L601 829"/><path style="--part:2" pathLength="3333" clip-path="url(#z32887c14)" d="M457 654L545 638"/><path style="--part:2" pathLength="3333" clip-path="url(#z32887c15)" d="M453 776L555 761"/><path style="--part:2" pathLength="3333" clip-path="url(#z32887c16)" d="M628 104L694 159L708 506L787 762L864 864L923 898L943 727"/><path style="--part:2" pathLength="3333" clip-path="url(#z32887c17)" d="M819 453L845 497L807 557L652 709"/><path style="--part:2" pathLength="3333" clip-path="url(#z32887c18)" d="M767 126L850 182L877 229"/></g>
<g class="guides"><text class="g1" style="--gs:1" x="107" y="239">①</text><path class="g1 aligned" style="--gs:1" d="M107,239 L412,201"/><path class="g1 offset" style="--gs:1" d="M107,335 L412,297"/><text class="g2" style="--gs:2" x="152" y="265">②</text><path class="g2 aligned" style="--gs:2" d="M166,275 Q184,326 182.38,368.38 Q172.63,622.63 171,665"/><path class="g2 offset" style="--gs:2" d="M286,275 Q304,326 302.38,368.38 Q292.63,622.63 291,665"/><text class="g3" style="--gs:3" x="208" y="405">③</text><path class="g3 aligned" style="--gs:3" d="M208,405 L286,391"/><path class="g3 offset" style="--gs:3" d="M208,501 L286,487"/><text class="g4" style="--gs:4" x="207" y="529">④</text><path class="g4 aligned" style="--gs:4" d="M207,529 L286,517"/><path class="g4 offset" style="--gs:4" d="M207,625 L286,613"/><text class="g5" style="--gs:5" x="78" y="704">⑤</text><path class="g5 aligned" style="--gs:5" d="M78,704 Q140,716 159.63,706 Q277.38,646 297,636"/><path class="g5 offset" style="--gs:5" d="M78,800 Q140,812 159.63,802 Q277.38,742 297,732"/><text class="g6" style="--gs:6" x="302" y="243">⑥</text><path class="g6 aligned" style="--gs:6" d="M302,243 Q332,273 329,411.5 Q320,827 324.25,849.5 Q332.75,894.5 337,917"/><path class="g6 offset" style="--gs:6" d="M387.68,174.46 Q417.68,204.46 414.68,342.96 Q405.68,758.46 409.93,780.96 Q418.43,825.96 422.68,848.46"/><text class="g7" style="--gs:7" x="473" y="107">⑦</text><path class="g7 aligned" style="--gs:7" d="M473,107 L555,186"/><path class="g7 offset" style="--gs:7" d="M558.68,38.46 L640.68,117.46"/><text class="g8" style="--gs:8" x="413" y="279">⑧</text><path class="g8 aligned" style="--gs:8" d="M413,279 L633,236"/><path class="g8 offset" style="--gs:8" d="M413,375 L633,332"/><text class="g9" style="--gs:9" x="429" y="325">⑨</text><path class="g9 aligned" style="--gs:9" d="M429,325 L467,395"/><path class="g9 offset" style="--gs:9" d="M549,325 L587,395"/><text class="g10" style="--gs:10" x="564" y="280">⑩</text><path class="g10 aligned" style="--gs:10" d="M564,280 Q589,316 584,328 Q554,400 549,412"/><path class="g10 offset" style="--gs:10" d="M468,280 Q493,316 488,328 Q458,400 453,412"/><text class="g11" style="--gs:11" x="390" y="459">⑪</text><path class="g11 aligned" style="--gs:11" d="M390,459 Q738,390 750.88,389.75 Q828.13,388.25 841,388"/><path class="g11 offset" style="--gs:11" d="M390,555 Q738,486 750.88,485.75 Q828.13,484.25 841,484"/><text class="g12" style="--gs:12" x="405" y="528">⑫</text><path class="g12 aligned" style="--gs:12" d="M405,528 Q430,564 430.25,593.88 Q431.75,773.13 432,803"/><path class="g12 offset" style="--gs:12" d="M490.68,459.46 Q515.68,495.46 515.93,525.33 Q517.43,704.58 517.68,734.46"/><text class="g13" style="--gs:13" x="450" y="538">⑬</text><path class="g13 aligned" style="--gs:13" d="M450,538 Q565,515 572,519 Q593,531 595,605.5 Q599,754.5 601,829"/><path class="g13 offset" style="--gs:13" d="M450,634 Q507.5,622.5 511,624.5 Q521.5,630.5 522.5,667.75 Q524.5,742.25 525.5,779.5"/><text class="g14" style="--gs:14" x="457" y="654">⑭</text><path class="g14 aligned" style="--gs:14" d="M457,654 L545,638"/><path class="g14 offset" style="--gs:14" d="M457,750 L545,734"/><text class="g15" style="--gs:15" x="453" y="776">⑮</text><path class="g15 aligned" style="--gs:15" d="M453,776 L555,761"/><path class="g15 offset" style="--gs:15" d="M453,872 L555,857"/><text class="g16" style="--gs:16" x="628" y="104">⑯</text><path class="g16 aligned" style="--gs:16" d="M628,104 Q694,159 701,332.5 Q708,506 747.5,634 Q787,762 825.5,813 Q864,864 893.5,881 Q923,898 933,812.5 Q933,812.5 943,727"/><path class="g16 offset" style="--gs:16" d="M696.54,35.46 Q729.54,90.46 733.04,263.96 Q736.54,437.46 756.29,565.46 Q776.04,693.46 795.29,744.46 Q814.54,795.46 829.29,812.46 Q844.04,829.46 849.04,743.96 Q849.04,743.96 854.04,658.46"/><text class="g17" style="--gs:17" x="819" y="453">⑰</text><path class="g17 aligned" style="--gs:17" d="M819,453 Q845,497 835.5,512 Q807,557 768.25,595 Q690.75,671 652,709"/><path class="g17 offset" style="--gs:17" d="M723,453 Q736.07,480.5 731.29,489.88 Q716.97,518 697.49,541.75 Q658.54,589.25 639.07,613"/><text class="g18" style="--gs:18" x="767" y="126">⑱</text><path class="g18 aligned" style="--gs:18" d="M767,126 Q850,182 853.38,187.88 Q873.63,223.13 877,229"/><path class="g18 offset" style="--gs:18" d="M852.68,57.46 Q935.68,113.46 939.06,119.33 Q959.31,154.58 962.68,160.46"/></g>
<g class="parts"><rect data-part="2" data-literal="戠" role="button" tabindex="0" aria-label="Part 戠" x="318" y="32" width="697" height="938"/><rect data-part="1" data-literal="耳" data-radical="true" role="button" tabindex="0" aria-label="Part 耳 (radical)" x="6" y="129" width="478" height="860"/></g>
</svg>
