<!--
  Stroke-order data for 肚, derived from AnimCJK (https://github.com/parsimonhi/animCJK),
  itself derived from the Arphic PL KaitiM fonts. Distributed under the Arphic Public License
  (see ARPHICPL.TXT). Regenerated by scripts/build-strokes.ts — do not edit by hand.
-->
<svg id="z32922" class="acjk" viewBox="0 0 1024 1024" xmlns="http://www.w3.org/2000/svg">
<g class="glyph"><path style="--part:1" id="z32922d1" d="M230 192Q215 182 193 174Q174 167 163 172Q153 179 160 191Q181 221 186 279Q186 492 171 575Q167 591 163 609Q133 720 68 847Q64 854 62 859Q61 869 71 866Q86 863 117 812Q181 725 217 563C221 540 221 540 223 528Q229 492 235 406C236 383 236 383 236 372Q236 267 240 222C240 211 238 198 230 192Z"/><path style="--part:1" id="z32922d2" d="M405 729Q398 555 400 293Q399 238 411 215Q423 196 411 186Q390 170 356 155Q337 146 295 172Q277 179 230 192C220 194 230 224 240 222Q247 221 316 200Q334 193 339 202Q354 247 352 527Q349 753 333 780Q329 783 263 776Q244 772 245 781Q297 821 327 852Q340 870 355 874Q364 878 372 868Q405 823 406 751C405 736 405 736 405 729Z"/><path style="--part:1" id="z32922d3" d="M235 406Q278 397 313 392Q335 386 326 375Q314 362 290 360Q269 359 236 372C225 376 224 408 235 406Z"/><path style="--part:1" id="z32922d4" d="M217 563Q220 563 225 563Q280 553 320 547Q344 541 334 528Q321 513 294 511Q269 510 227 525Q224 526 223 528C213 534 205 563 217 563Z"/><path style="--part:2" id="z32922d5" d="M688 489Q847 459 858 452Q868 443 863 434Q856 421 823 411Q789 404 754 416Q723 426 690 435C656 443 656 443 639 447Q578 457 508 463Q466 469 496 488Q547 518 608 503Q621 499 638 498C671 492 671 492 688 489Z"/><path style="--part:2" id="z32922d6" d="M677 695Q681 589 688 489C689 453 689 453 690 435Q699 224 720 161Q724 146 702 128Q660 106 632 101Q613 97 604 107Q595 116 605 133Q638 184 638 218Q641 327 639 447C638 481 638 481 638 498Q635 595 628 702C628 718 677 711 677 695Z"/><path style="--part:2" id="z32922d7" d="M628 702Q409 723 405 729C398 732 400 746 406 751Q440 781 491 769Q620 736 935 737Q957 738 963 728Q969 715 951 700Q885 651 824 671Q764 680 677 695C644 700 644 700 628 702Z"/></g>
<defs><clipPath id="z32922c1"><use href="#z32922d1"/></clipPath>
	<clipPath id="z32922c2"><use href="#z32922d2"/></clipPath>
	<clipPath id="z32922c3"><use href="#z32922d3"/></clipPath>
	<clipPath id="z32922c4"><use href="#z32922d4"/></clipPath>
	<clipPath id="z32922c5"><use href="#z32922d5"/></clipPath>
	<clipPath id="z32922c6"><use href="#z32922d6"/></clipPath>
	<clipPath id="z32922c7"><use href="#z32922d7"/></clipPath><marker id="guide-arrow" viewBox="0 0 16 16" refX="5" refY="5" markerWidth="4" markerHeight="4" orient="auto-start-reverse"><path d="M 0 0 L 10 5 L 0 10 z" fill="inherit"/></marker></defs>
<g class="strokes"><path style="--part:1" pathLength="3333" clip-path="url(#z32922c1)" d="M165 177L209 223L202 515L153 705L71 859"/><path style="--part:1" pathLength="3333" clip-path="url(#z32922c2)" d="M230 200L340 175L380 209L367 791L341 827L254 780"/><path style="--part:1" pathLength="3333" clip-path="url(#z32922c3)" d="M232 398L321 377"/><path style="--part:1" pathLength="3333" clip-path="url(#z32922c4)" d="M219 556L331 538"/><path style="--part:2" pathLength="3333" clip-path="url(#z32922c5)" d="M494 476L584 481L859 436"/><path style="--part:2" pathLength="3333" clip-path="url(#z32922c6)" d="M607 111L676 172L647 708"/><path style="--part:2" pathLength="3333" clip-path="url(#z32922c7)" d="M407 738L853 701L959 719"/></g>
<g class="guides"><text class="g1" style="--gs:1" x="165" y="177">①</text><path class="g1 aligned" style="--gs:1" d="M165,177 Q209,223 205.5,369 Q202,515 177.5,610 Q153,705 112,782 Q112,782 71,859"/><path class="g1 offset" style="--gs:1" d="M69,177 Q113,223 109.5,369 Q106,515 81.5,610 Q57,705 16,782 Q16,782 -25,859"/><text class="g2" style="--gs:2" x="230" y="200">②</text><path class="g2 aligned" style="--gs:2" d="M230,200 Q340,175 360,192 Q380,209 373.5,500 Q367,791 354,809 Q341,827 297.5,803.5 Q297.5,803.5 254,780"/><path class="g2 offset" style="--gs:2" d="M230,296 Q285,271 295,288 Q305,305 301.75,596 Q298.5,887 292,905 Q285.5,923 263.75,899.5 Q263.75,899.5 242,876"/><text class="g3" style="--gs:3" x="232" y="398">③</text><path class="g3 aligned" style="--gs:3" d="M232,398 L321,377"/><path class="g3 offset" style="--gs:3" d="M232,494 L321,473"/><text class="g4" style="--gs:4" x="219" y="556">④</text><path class="g4 aligned" style="--gs:4" d="M219,556 L331,538"/><path class="g4 offset" style="--gs:4" d="M219,652 L331,634"/><text class="g5" style="--gs:5" x="494" y="476">⑤</text><path class="g5 aligned" style="--gs:5" d="M494,476 Q584,481 618.38,475.38 Q824.63,441.63 859,436"/><path class="g5 offset" style="--gs:5" d="M494,572 Q584,577 618.38,571.38 Q824.63,537.63 859,532"/><text class="g6" style="--gs:6" x="607" y="111">⑥</text><path class="g6 aligned" style="--gs:6" d="M607,111 Q676,172 672.38,239 Q650.63,641 647,708"/><path class="g6 offset" style="--gs:6" d="M511,111 Q580,172 576.38,239 Q554.63,641 551,708"/><text class="g7" style="--gs:7" x="407" y="738">⑦</text><path class="g7 aligned" style="--gs:7" d="M407,738 Q853,701 866.25,703.25 Q945.75,716.75 959,719"/><path class="g7 offset" style="--gs:7" d="M407,834 Q853,797 866.25,799.25 Q945.75,812.75 959,815"/></g>
<g class="parts"><rect data-part="2" data-literal="土" role="button" tabindex="0" aria-label="Part 土" x="335" y="39" width="689" height="771"/><rect data-part="1" data-literal="月" data-radical="true" role="button" tabindex="0" aria-label="Part 月 (radical)" x="0" y="103" width="452" height="828"/></g>
</svg>
