<!--
  Stroke-order data for 肴, derived from AnimCJK (https://github.com/parsimonhi/animCJK),
  itself derived from the Arphic PL KaitiM fonts. Distributed under the Arphic Public License
  (see ARPHICPL.TXT). Regenerated by scripts/build-strokes.ts — do not edit by hand.
-->
<svg id="z32948" class="acjk" viewBox="0 0 1024 1024" xmlns="http://www.w3.org/2000/svg">
<g class="glyph"><path id="z32948d1" d="M553 169Q628 102 630 100Q631 90 623 77Q599 40 570 40Q561 39 561 51Q558 90 495 153C474 172 474 172 463 182Q412 224 288 290Q279 293 288 297Q348 306 475 229Q479 225 510 203C539 180 539 180 553 169Z"/><path id="z32948d2" d="M510 203Q580 234 658 274Q674 284 687 284Q693 283 696 274Q702 261 681 233Q663 200 553 169C514 158 514 158 495 153Q413 129 365 121Q358 120 359 129Q362 139 372 144Q415 160 463 182C494 196 494 196 510 203Z"/><path id="z32948d3" d="M379 484C398 454 411 429 429 400C442 377 442 377 449 366C460 345 470 330 479 319C485 310 486 302 484 297C480 288 469 284 452 282C433 278 419 277 412 281C407 282 404 288 404 297C402 319 396 346 382 376C371 398 371 398 366 409C348 446 322 486 292 530C262 572 197 645 99 747C87 759 89 762 107 757C175 733 263 653 362 509C373 492 373 492 379 484Z"/><path id="z32948d4" d="M859 369C873 369 884 366 888 360C891 352 887 342 876 334C840 308 810 300 786 305C657 331 560 349 449 366C404 373 404 373 382 376C301 388 216 399 128 410C114 411 111 417 123 429C142 448 167 455 193 448C248 432 305 417 366 409C408 403 408 403 429 400C581 378 735 368 859 369Z"/><path id="z32948d5" d="M412 722C413 691 417 665 419 643C420 624 420 624 421 615C423 576 426 550 429 536C431 526 430 512 422 505C412 495 397 488 379 484C369 482 358 500 362 509C388 581 372 697 348 809C337 859 325 891 347 922C352 930 357 933 364 930C388 916 403 868 409 786C409 772 410 759 411 747C412 730 412 730 412 722Z"/><path id="z32948d6" d="M429 536C439 536 498 525 605 500C633 492 635 513 637 535C644 653 644 749 641 822C640 840 636 854 631 863C628 866 620 866 606 864C589 860 572 858 556 854C541 849 531 852 536 857C569 892 601 918 621 944C630 956 639 964 651 969C657 971 664 969 670 963C698 930 715 894 712 855C696 660 693 548 711 518C719 503 719 493 711 487C696 474 676 461 650 451C637 445 625 445 615 451C562 478 498 497 422 505C412 507 418 536 429 536Z"/><path id="z32948d7" d="M419 643C431 647 478 643 560 632C572 630 580 628 582 627C586 622 588 617 586 614C582 607 572 601 557 597C549 594 518 599 464 610C450 612 435 613 421 615C412 617 410 641 419 643Z"/><path id="z32948d8" d="M411 747C425 753 460 752 518 744C532 741 548 739 566 737C574 735 601 731 594 718C590 711 580 705 565 701C557 698 525 704 471 715C451 718 431 720 412 722C404 724 403 744 411 747Z"/></g>
<defs><clipPath id="z32948c1"><use href="#z32948d1"/></clipPath>
	<clipPath id="z32948c2"><use href="#z32948d2"/></clipPath>
	<clipPath id="z32948c3"><use href="#z32948d3"/></clipPath>
	<clipPath id="z32948c4"><use href="#z32948d4"/></clipPath>
	<clipPath id="z32948c5"><use href="#z32948d5"/></clipPath>
	<clipPath id="z32948c6"><use href="#z32948d6"/></clipPath>
	<clipPath id="z32948c7"><use href="#z32948d7"/></clipPath>
	<clipPath id="z32948c8"><use href="#z32948d8"/></clipPath><marker id="guide-arrow" viewBox="0 0 16 16" refX="5" refY="5" markerWidth="4" markerHeight="4" orient="auto-start-reverse"><path d="M 0 0 L 10 5 L 0 10 z" fill="inherit"/></marker></defs>
<g class="strokes"><path pathLength="3333" clip-path="url(#z32948c1)" d="M570 44L588 93L526 158L401 248L293 291"/><path pathLength="3333" clip-path="url(#z32948c2)" d="M367 129L602 214L690 275"/><path pathLength="3333" clip-path="url(#z32948c3)" d="M412 290L440 323L335 508L241 628L100 754"/><path pathLength="3333" clip-path="url(#z32948c4)" d="M125 418L177 427L784 337L885 351"/><path pathLength="3333" clip-path="url(#z32948c5)" d="M375 489L399 590L359 925"/><path pathLength="3333" clip-path="url(#z32948c6)" d="M422 514L626 473L675 510L672 872L642 917L541 856"/><path pathLength="3333" clip-path="url(#z32948c7)" d="M416 631L578 617"/><path pathLength="3333" clip-path="url(#z32948c8)" d="M408 736L589 719"/></g>
<g class="guides"><text class="g1" style="--gs:1" x="570" y="44">①</text><path class="g1 aligned" style="--gs:1" d="M570,44 Q588,93 557,125.5 Q526,158 463.5,203 Q401,248 347,269.5 Q347,269.5 293,291"/><path class="g1 offset" style="--gs:1" d="M474,44 Q484.68,73.96 466.29,93.82 Q447.9,113.69 410.82,141.2 Q373.75,168.71 341.71,181.86 Q341.71,181.86 309.68,195"/><text class="g2" style="--gs:2" x="367" y="129">②</text><path class="g2 aligned" style="--gs:2" d="M367,129 Q602,214 613,221.63 Q679,267.38 690,275"/><path class="g2 offset" style="--gs:2" d="M452.68,60.46 Q687.68,145.46 698.68,153.08 Q764.68,198.83 775.68,206.46"/><text class="g3" style="--gs:3" x="412" y="290">③</text><path class="g3 aligned" style="--gs:3" d="M412,290 Q440,323 387.5,415.5 Q335,508 288,568 Q241,628 170.5,691 Q170.5,691 100,754"/><path class="g3 offset" style="--gs:3" d="M316,290 Q336.09,316.17 298.42,389.53 Q260.74,462.9 227.01,510.48 Q193.28,558.07 142.69,608.03 Q142.69,608.03 92.09,658"/><text class="g4" style="--gs:4" x="125" y="418">④</text><path class="g4 aligned" style="--gs:4" d="M125,418 Q177,427 328.75,404.5 Q784,337 809.25,340.5 Q859.75,347.5 885,351"/><path class="g4 offset" style="--gs:4" d="M125,514 Q177,523 328.75,500.5 Q784,433 809.25,436.5 Q859.75,443.5 885,447"/><text class="g5" style="--gs:5" x="375" y="489">⑤</text><path class="g5 aligned" style="--gs:5" d="M375,489 Q399,590 394,631.88 Q364,883.13 359,925"/><path class="g5 offset" style="--gs:5" d="M495,489 Q519,590 514,631.88 Q484,883.13 479,925"/><text class="g6" style="--gs:6" x="422" y="514">⑥</text><path class="g6 aligned" style="--gs:6" d="M422,514 Q626,473 650.5,491.5 Q675,510 673.5,691 Q672,872 657,894.5 Q642,917 591.5,886.5 Q591.5,886.5 541,856"/><path class="g6 offset" style="--gs:6" d="M422,610 Q548.59,569 563.8,587.5 Q579,606 578.07,694.89 Q577.14,783.78 567.83,795.89 Q558.52,808 527.18,791.58 Q527.18,791.58 495.85,775.16"/><text class="g7" style="--gs:7" x="416" y="631">⑦</text><path class="g7 aligned" style="--gs:7" d="M416,631 L578,617"/><path class="g7 offset" style="--gs:7" d="M416,727 L578,713"/><text class="g8" style="--gs:8" x="408" y="736">⑧</text><path class="g8 aligned" style="--gs:8" d="M408,736 L589,719"/><path class="g8 offset" style="--gs:8" d="M408,832 L589,815"/></g>
</svg>
