<svg id="z32997" class="acjk" viewBox="0 0 1024 1024" xmlns="http://www.w3.org/2000/svg">
<style>

@keyframes zk {
	to {
		stroke-dashoffset:0;
	}
}
svg.acjk path[clip-path] {
	--t:0.8s;
	animation:zk var(--t) linear forwards var(--d);
	stroke-dasharray:3337;
	stroke-dashoffset:3339;
	stroke-width:128;
	stroke-linecap:round;
	fill:none;
	stroke:#000;
}
svg.acjk path[id] {fill:#ccc;}


    @keyframes guide-fade {
        0% { opacity: 0; }
        3% { opacity: 1; }
        95% { opacity: 1; }
        100% { opacity: 0; }
    }

    svg.acjk #guide-arrow {
        fill: #f77;
    }

    svg.acjk .guides {
        circle {
            fill: #0f6;
        }

        path {
            opacity: 0;
            animation: guide-fade var(--t) linear forwards var(--d);
            stroke-width: 16px;
            stroke-linecap: round;
            stroke: #f77;
            fill: none;
            marker-end: url(#guide-arrow);
        }

        circle,
        path {
            --t: 0.8s;
            opacity: 0;
            animation: guide-fade calc(var(--t) + 0.4s) ease-in-out forwards calc(var(--d) - 0.2s);
        }
    }
</style>
<path id="z32997d1" d="M515 140Q572 130 629 123Q662 119 664 133Q664 145 642 188Q632 203 640 207Q646 211 660 201Q733 161 760 154Q782 153 782 140Q782 127 710 85Q685 70 597 92Q464 116 314 131Q286 132 306 156Q321 177 369 165Q418 155 468 148C499 143 499 143 515 140Z"/>
<path id="z32997d2" d="M522 376Q525 327 528 284C529 267 529 267 529 258Q530 200 535 184Q542 163 515 140C503 130 462 133 468 148Q475 155 478 361C478 376 522 391 522 376Z"/>
<path id="z32997d3" d="M528 284Q555 294 629 286Q650 283 673 279Q689 276 691 274Q698 267 695 259Q688 249 662 241Q643 237 574 254Q553 257 529 258C520 258 520 281 528 284Z"/>
<path id="z32997d4" d="M369 315Q372 305 387 290Q394 286 393 275Q392 266 378 255Q365 242 346 237Q327 230 315 233Q308 234 309 247Q325 302 227 432Q224 433 223 436Q195 470 125 537Q118 541 127 544Q226 520 355 335C364 322 364 322 369 315Z"/>
<path id="z32997d5" d="M355 335Q550 429 747 507Q775 520 812 509Q876 488 939 451Q955 442 955 437Q955 430 939 430Q707 420 700 419Q625 407 522 376C493 366 493 366 478 361Q411 331 369 315C361 312 347 332 355 335Z"/>
<path id="z32997d6" d="M387 731Q388 689 393 657C394 640 394 640 394 631Q397 571 402 548C403 539 400 529 395 522Q391 516 384 513Q356 497 338 498Q325 502 330 514Q373 619 326 791Q296 867 327 906Q334 919 344 914Q383 887 385 764Q385 760 386 758C387 740 387 740 387 731Z"/>
<path id="z32997d7" d="M402 548Q415 547 430 544Q565 520 586 530Q599 534 601 562Q614 722 606 848Q605 873 590 878Q580 881 526 863Q514 860 514 867Q515 876 529 885Q563 918 589 950Q604 966 620 966Q636 963 655 918Q679 872 674 826Q667 714 658 613Q654 573 671 540Q683 525 669 511Q653 495 614 481Q593 471 576 482Q557 489 522 499Q437 515 395 522C386 524 393 548 402 548Z"/>
<path id="z32997d8" d="M393 657Q397 657 402 657Q481 645 539 639Q561 635 553 623Q543 610 519 605Q492 599 394 631C386 634 384 657 393 657Z"/>
<path id="z32997d9" d="M386 758Q390 759 400 758Q484 746 546 740Q568 737 561 724Q551 709 525 704Q495 698 387 731C379 734 377 758 386 758Z"/>
<defs>
	<clipPath id="z32997c1"><use href="#z32997d1"/></clipPath>
	<clipPath id="z32997c2"><use href="#z32997d2"/></clipPath>
	<clipPath id="z32997c3"><use href="#z32997d3"/></clipPath>
	<clipPath id="z32997c4"><use href="#z32997d4"/></clipPath>
	<clipPath id="z32997c5"><use href="#z32997d5"/></clipPath>
	<clipPath id="z32997c6"><use href="#z32997d6"/></clipPath>
	<clipPath id="z32997c7"><use href="#z32997d7"/></clipPath>
	<clipPath id="z32997c8"><use href="#z32997d8"/></clipPath>
	<clipPath id="z32997c9"><use href="#z32997d9"/></clipPath>
<marker id="guide-arrow" viewBox="0 0 16 16" refX="5" refY="5" markerWidth="4" markerHeight="4" orient="auto-start-reverse"><path d="M 0 0 L 10 5 L 0 10 z" fill="inherit"/></marker></defs>
<path style="--d:1s;" pathLength="3333" clip-path="url(#z32997c1)" d="M305 140L667 101L727 142L643 201"/>
<path style="--d:2s;" pathLength="3333" clip-path="url(#z32997c2)" d="M472 141L504 176L506 379"/>
<path style="--d:3s;" pathLength="3333" clip-path="url(#z32997c3)" d="M526 269L692 264"/>
<path style="--d:4s;" pathLength="3333" clip-path="url(#z32997c4)" d="M316 241L349 287L319 339L244 442L130 539"/>
<path style="--d:5s;" pathLength="3333" clip-path="url(#z32997c5)" d="M358 327L748 464L949 437"/>
<path style="--d:6s;" pathLength="3333" clip-path="url(#z32997c6)" d="M334 504L373 559L339 911"/>
<path style="--d:7s;" pathLength="3333" clip-path="url(#z32997c7)" d="M398 530L591 502L636 532L634 878L601 921L520 867"/>
<path style="--d:8s;" pathLength="3333" clip-path="url(#z32997c8)" d="M389 646L547 626"/>
<path style="--d:9s;" pathLength="3333" clip-path="url(#z32997c9)" d="M387 748L557 730"/>
<g class="guides"><circle style="--d: 1s" class="g1" cx="305" cy="140" r="16"/><path style="--d: 1s;" class="g1" d="M305,236 Q553.7677725118483,197 564.0758293838862,207.25 Q595,238 580.568720379147,252.75 Q551.7061611374407,282.25 537.2748815165877,297"/><circle style="--d: 2s" class="g2" cx="472" cy="141" r="16"/><path style="--d: 2s;" class="g2" d="M557.68,72.456 Q589.68,107.456 589.93,132.83100000000002 Q591.43,285.081 591.68,310.456"/><circle style="--d: 3s" class="g3" cx="526" cy="269" r="16"/><path style="--d: 3s;" class="g3" d="M526,365 L692,360"/><circle style="--d: 4s" class="g4" cx="316" cy="241" r="16"/><path style="--d: 4s;" class="g4" d="M220,241 Q238.53424657534248,272.18120805369125 230.1095890410959,289.80536912751677 Q221.6849315068493,307.4295302013423 200.62328767123287,342.3389261744967 Q179.56164383561645,377.24832214765104 147.54794520547946,410.1241610738255 Q147.54794520547946,410.1241610738255 115.53424657534248,443"/><circle style="--d: 5s" class="g5" cx="358" cy="327" r="16"/><path style="--d: 5s;" class="g5" d="M358,423 Q748,560 773.125,556.625 Q923.875,536.375 949,533"/><circle style="--d: 6s" class="g6" cx="334" cy="504" r="16"/><path style="--d: 6s;" class="g6" d="M238,504 Q277,559 272.75,603 Q247.25,867 243,911"/><circle style="--d: 7s" class="g7" cx="398" cy="530" r="16"/><path style="--d: 7s;" class="g7" d="M398,626 Q513.1512605042017,598 526.5756302521008,605.9116945107398 Q540,613.8233890214797 539.4033613445379,705.071599045346 Q538.8067226890756,796.3198090692124 528.9621848739496,807.6599045346062 Q519.1176470588235,819 494.953781512605,804.7589498806683 Q494.953781512605,804.7589498806683 470.78991596638656,790.5178997613365"/><circle style="--d: 8s" class="g8" cx="389" cy="646" r="16"/><path style="--d: 8s;" class="g8" d="M389,742 L547,722"/><circle style="--d: 9s" class="g9" cx="387" cy="748" r="16"/><path style="--d: 9s;" class="g9" d="M387,844 L557,826"/></g></svg>