<!--
  Stroke-order data for 能, derived from AnimCJK (https://github.com/parsimonhi/animCJK),
  itself derived from the Arphic PL KaitiM fonts. Distributed under the Arphic Public License
  (see ARPHICPL.TXT). Regenerated by scripts/build-strokes.ts — do not edit by hand.
-->
<svg id="z33021" class="acjk" viewBox="0 0 1024 1024" xmlns="http://www.w3.org/2000/svg">
<g class="glyph"><path id="z33021d1" d="M415 297C356 305 293 320 225 342C214 345 211 342 217 334C227 318 249 291 282 254C332 196 362 163 372 157C378 152 383 148 386 143C389 134 383 124 371 114C348 95 328 85 311 84C302 83 295 84 291 89C287 93 290 98 295 105C305 118 303 142 286 173C235 262 192 320 157 345C133 361 123 379 132 406C136 420 143 426 151 426C155 425 161 422 171 416C223 379 300 348 428 320C437 318 424 295 415 297Z"/><path id="z33021d2" d="M428 320C444 349 456 366 464 369C470 371 475 369 481 363C487 356 490 343 491 325C491 311 485 294 469 279C432 243 406 227 396 229C393 229 390 234 389 242C388 246 396 264 415 297C424 312 424 312 428 320Z"/><path id="z33021d3" d="M241 690C243 657 246 628 248 604C249 587 249 587 250 578C252 546 253 516 256 507C258 497 253 486 245 480C232 467 206 460 195 462C186 463 183 469 187 477C215 543 205 656 179 766C167 816 160 849 180 878C185 885 189 889 196 886C224 868 238 814 238 725C238 722 238 719 239 717C240 699 240 699 241 690Z"/><path id="z33021d4" d="M256 507C277 502 328 488 359 481C370 478 379 479 381 485C395 526 399 630 391 795C390 809 386 821 382 828C381 828 361 829 322 825C308 823 300 823 305 828C332 857 359 877 376 897C384 907 392 914 402 918C406 920 412 919 418 913C442 882 454 850 452 819C438 628 436 521 450 496C456 485 457 476 450 470C437 458 420 449 398 440C387 435 377 435 368 440C335 457 295 471 245 480C235 482 246 509 256 507Z"/><path id="z33021d5" d="M248 604C263 604 321 597 348 594C362 592 366 586 361 579C354 570 343 564 329 562C308 558 282 564 250 578C242 581 239 604 248 604Z"/><path id="z33021d6" d="M239 717C260 715 321 710 351 707C365 705 370 698 365 691C358 682 347 676 331 673C315 670 285 676 241 690C233 693 230 717 239 717Z"/><path id="z33021d7" d="M586 289C610 279 662 255 744 217C758 210 772 205 788 201C802 197 808 188 803 177C797 164 786 153 773 141C760 129 749 124 741 124C732 124 729 127 730 136C730 156 705 183 658 218C635 234 611 252 587 270C582 274 580 291 586 289Z"/><path id="z33021d8" d="M867 389C858 371 845 348 835 316C832 307 829 301 825 298C820 295 818 300 816 313C808 349 800 371 794 379C782 393 745 401 685 401C652 400 604 388 596 368C589 352 584 325 586 289C587 276 587 276 587 270C589 217 598 180 609 156C617 138 615 123 603 113C573 89 553 79 544 82C535 84 531 92 537 103C547 126 551 153 549 187C541 308 542 378 568 405C579 417 602 430 642 439C671 445 711 448 759 448C803 448 833 444 851 435C869 424 876 408 867 389Z"/><path id="z33021d9" d="M600 679C670 656 740 631 812 609C827 604 834 598 830 585C825 570 815 557 801 543C787 529 777 523 768 522C759 521 755 524 755 534C753 554 725 581 672 614C649 627 625 641 602 657C596 661 593 682 600 679Z"/><path id="z33021d10" d="M948 823C936 792 925 751 919 699C917 688 915 680 910 678C904 674 900 680 898 693C887 757 877 795 868 806C847 826 800 837 726 838C684 838 621 833 608 797C602 782 594 742 600 679C601 664 601 664 602 657C605 614 614 582 624 562C633 542 631 525 618 515C585 488 563 476 552 480C541 483 538 492 544 503C556 528 560 558 558 596C550 732 558 811 575 835C590 856 621 872 673 881C709 887 758 890 818 889C870 887 908 881 930 870C950 859 956 843 948 823Z"/></g>
<defs><clipPath id="z33021c1"><use href="#z33021d1"/></clipPath>
	<clipPath id="z33021c2"><use href="#z33021d2"/></clipPath>
	<clipPath id="z33021c3"><use href="#z33021d3"/></clipPath>
	<clipPath id="z33021c4"><use href="#z33021d4"/></clipPath>
	<clipPath id="z33021c5"><use href="#z33021d5"/></clipPath>
	<clipPath id="z33021c6"><use href="#z33021d6"/></clipPath>
	<clipPath id="z33021c7"><use href="#z33021d7"/></clipPath>
	<clipPath id="z33021c8"><use href="#z33021d8"/></clipPath>
	<clipPath id="z33021c9"><use href="#z33021d9"/></clipPath>
	<clipPath id="z33021c10"><use href="#z33021d10"/></clipPath><marker id="guide-arrow" viewBox="0 0 16 16" refX="5" refY="5" markerWidth="4" markerHeight="4" orient="auto-start-reverse"><path d="M 0 0 L 10 5 L 0 10 z" fill="inherit"/></marker></defs>
<g class="strokes"><path pathLength="3333" clip-path="url(#z33021c1)" d="M296 91L342 144L181 345L177 376L419 315"/><path pathLength="3333" clip-path="url(#z33021c2)" d="M397 236L471 362"/><path pathLength="3333" clip-path="url(#z33021c3)" d="M193 470L228 513L229 573L190 881"/><path pathLength="3333" clip-path="url(#z33021c4)" d="M254 483L375 458L420 491L416 840L394 873L317 829"/><path pathLength="3333" clip-path="url(#z33021c5)" d="M256 596L356 585"/><path pathLength="3333" clip-path="url(#z33021c6)" d="M247 709L359 696"/><path pathLength="3333" clip-path="url(#z33021c7)" d="M739 130L756 183L593 280"/><path pathLength="3333" clip-path="url(#z33021c8)" d="M543 88L581 136L566 297L591 398L706 424L823 406L822 305"/><path pathLength="3333" clip-path="url(#z33021c9)" d="M763 532L779 586L606 673"/><path pathLength="3333" clip-path="url(#z33021c10)" d="M550 489L593 543L582 781L623 844L754 863L901 835L910 684"/></g>
<g class="guides"><text class="g1" style="--gs:1" x="296" y="91">①</text><path class="g1 aligned" style="--gs:1" d="M296,91 Q342,144 261.5,244.5 Q181,345 179,360.5 Q177,376 298,345.5 Q298,345.5 419,315"/><path class="g1 offset" style="--gs:1" d="M381.68,22.46 Q411.39,70.35 359.39,161.17 Q307.4,251.99 306.1,265.99 Q304.81,280 382.97,252.44 Q382.97,252.44 461.13,224.88"/><text class="g2" style="--gs:2" x="397" y="236">②</text><path class="g2 aligned" style="--gs:2" d="M397,236 L471,362"/><path class="g2 offset" style="--gs:2" d="M482.68,167.46 L556.68,293.46"/><text class="g3" style="--gs:3" x="193" y="470">③</text><path class="g3 aligned" style="--gs:3" d="M193,470 Q228,513 228.25,528 Q229,573 219.25,650 Q199.75,804 190,881"/><path class="g3 offset" style="--gs:3" d="M97,470 Q132,513 132.25,528 Q133,573 123.25,650 Q103.75,804 94,881"/><text class="g4" style="--gs:4" x="254" y="483">④</text><path class="g4 aligned" style="--gs:4" d="M254,483 Q375,458 397.5,474.5 Q420,491 418,665.5 Q416,840 405,856.5 Q394,873 355.5,851 Q355.5,851 317,829"/><path class="g4 offset" style="--gs:4" d="M254,579 Q314.5,554 325.75,563.03 Q337,572.05 336,667.5 Q335,762.95 329.5,771.97 Q324,781 304.75,768.97 Q304.75,768.97 285.5,756.93"/><text class="g5" style="--gs:5" x="256" y="596">⑤</text><path class="g5 aligned" style="--gs:5" d="M256,596 L356,585"/><path class="g5 offset" style="--gs:5" d="M256,692 L356,681"/><text class="g6" style="--gs:6" x="247" y="709">⑥</text><path class="g6 aligned" style="--gs:6" d="M247,709 L359,696"/><path class="g6 offset" style="--gs:6" d="M247,805 L359,792"/><text class="g7" style="--gs:7" x="739" y="130">⑦</text><path class="g7 aligned" style="--gs:7" d="M739,130 Q756,183 735.63,195.13 Q613.38,267.88 593,280"/><path class="g7 offset" style="--gs:7" d="M643,130 Q651.5,156.5 641.31,162.56 Q580.19,198.94 570,205"/><text class="g8" style="--gs:8" x="543" y="88">⑧</text><path class="g8 aligned" style="--gs:8" d="M543,88 Q581,136 573.5,216.5 Q566,297 578.5,347.5 Q591,398 648.5,411 Q706,424 764.5,415 Q823,406 822.5,355.5 Q822.5,355.5 822,305"/><path class="g8 offset" style="--gs:8" d="M611.54,19.46 Q630.54,67.46 626.79,147.96 Q623.04,228.46 629.29,278.96 Q635.54,329.46 664.29,342.46 Q693.04,355.46 722.29,346.46 Q751.54,337.46 751.29,286.96 Q751.29,286.96 751.04,236.46"/><text class="g9" style="--gs:9" x="763" y="532">⑨</text><path class="g9 aligned" style="--gs:9" d="M763,532 Q779,586 757.38,596.88 Q627.63,662.13 606,673"/><path class="g9 offset" style="--gs:9" d="M667,532 Q675,559 664.19,564.44 Q599.31,597.06 588.5,602.5"/><text class="g10" style="--gs:10" x="550" y="489">⑩</text><path class="g10 aligned" style="--gs:10" d="M550,489 Q593,543 587.5,662 Q582,781 602.5,812.5 Q623,844 688.5,853.5 Q754,863 827.5,849 Q901,835 905.5,759.5 Q905.5,759.5 910,684"/><path class="g10 offset" style="--gs:10" d="M618.54,420.46 Q641.89,474.46 638.9,593.46 Q635.92,712.46 647.05,743.96 Q658.18,775.46 693.74,784.96 Q729.3,794.46 769.21,780.46 Q809.11,766.46 811.56,690.96 Q811.56,690.96 814,615.46"/></g>
</svg>
