<svg id="z33032" class="acjk" viewBox="0 0 1024 1024" xmlns="http://www.w3.org/2000/svg">
<style>

@keyframes zk {
	to {
		stroke-dashoffset:0;
	}
}
svg.acjk path[clip-path] {
	--t:0.8s;
	animation:zk var(--t) linear forwards var(--d);
	stroke-dasharray:3337;
	stroke-dashoffset:3339;
	stroke-width:128;
	stroke-linecap:round;
	fill:none;
	stroke:#000;
}
svg.acjk path[id] {fill:#ccc;}


    @keyframes guide-fade {
        0% { opacity: 0; }
        3% { opacity: 1; }
        95% { opacity: 1; }
        100% { opacity: 0; }
    }

    svg.acjk #guide-arrow {
        fill: #f77;
    }

    svg.acjk .guides {
        circle {
            fill: #0f6;
        }

        path {
            opacity: 0;
            animation: guide-fade var(--t) linear forwards var(--d);
            stroke-width: 16px;
            stroke-linecap: round;
            stroke: #f77;
            fill: none;
            marker-end: url(#guide-arrow);
        }

        circle,
        path {
            --t: 0.8s;
            opacity: 0;
            animation: guide-fade calc(var(--t) + 0.4s) ease-in-out forwards calc(var(--d) - 0.2s);
        }
    }
</style>
<path id="z33032d1" d="M197 535Q197 528 199 523Q206 468 208 415C209 391 209 391 210 379Q210 360 210 340Q206 238 215 229C219 218 205 206 195 200Q183 193 165 186Q146 179 135 184Q125 191 132 204Q153 228 158 290Q158 303 159 321Q166 489 137 619Q110 728 44 855Q40 862 38 867Q37 877 47 874Q62 871 93 820Q162 727 191 570C195 547 195 547 197 535Z"/>
<path id="z33032d2" d="M215 229Q242 220 276 208Q291 204 299 210Q311 222 310 260Q317 567 303 751Q302 772 296 781Q292 785 277 783Q256 776 234 768Q216 758 216 768Q259 820 282 856Q292 875 307 880Q316 884 324 875Q366 827 367 781Q358 598 360 301Q359 246 371 223Q381 204 371 194Q350 178 316 163Q298 156 285 163Q260 179 242 187Q226 193 195 200C183 202 204 233 215 229Z"/>
<path id="z33032d3" d="M208 415Q247 406 278 400Q300 394 290 383Q278 370 254 369Q235 369 210 379C199 383 196 417 208 415Z"/>
<path id="z33032d4" d="M191 570Q239 560 277 556Q299 552 289 539Q279 526 254 523Q232 522 197 535C186 539 179 572 191 570Z"/>
<path id="z33032d5" d="M523 242Q556 224 677 153Q699 138 725 130Q749 123 739 103Q727 84 702 65Q678 49 665 49Q652 50 654 64Q655 97 580 164Q546 192 508 226C503 231 516 245 523 242Z"/>
<path id="z33032d6" d="M508 226Q495 217 473 211Q455 204 445 209Q435 216 442 228Q463 249 468 309Q468 319 470 333Q482 471 460 601Q439 698 383 816Q379 822 378 828Q377 838 386 834Q399 831 427 783Q535 627 521 350Q518 289 521 257Q524 250 523 242C523 235 514 230 508 226Z"/>
<path id="z33032d7" d="M771 190C765 190 762 195 762 205C761 219 750 238 727 262C681 305 637 345 566 389C552 396 554 410 561 412C564 412 568 413 572 412C585 412 596 404 607 397C636 380 665 363 695 346C715 334 737 318 761 301C778 287 793 278 805 273C812 269 814 264 815 257C815 249 813 237 805 223C797 208 785 193 776 191C774 190 772 190 771 190Z"/>
<path id="z33032d8" d="M600 927C597 927 593 925 590 920C584 911 577 887 572 864C567 845 566 819 569 799C581 723 588 650 589 577C590 510 581 442 572 412C567 400 597 389 607 397C617 404 626 414 633 430C640 452 635 471 634 489C630 527 626 630 624 800C624 839 621 875 614 906C610 920 605 927 600 927Z"/>
<path id="z33032d9" d="M719 484C796 430 840 391 840 374C840 365 843 362 852 362C860 362 870 368 883 381C896 393 906 405 911 418C915 430 909 438 896 441C880 443 848 456 798 478C781 485 758 494 732 503C725 506 713 489 719 484Z"/>
<path id="z33032d10" d="M646 400C640 403 644 411 657 436C700 516 758 649 817 735C826 749 841 757 860 758C923 761 964 760 986 758C992 757 995 756 996 752C996 748 993 742 985 738C897 694 859 677 815 614C791 579 757 540 732 503C723 490 723 490 719 484C675 419 659 389 646 400Z"/>
<defs>
	<clipPath id="z33032c1"><use href="#z33032d1"/></clipPath>
	<clipPath id="z33032c2"><use href="#z33032d2"/></clipPath>
	<clipPath id="z33032c3"><use href="#z33032d3"/></clipPath>
	<clipPath id="z33032c4"><use href="#z33032d4"/></clipPath>
	<clipPath id="z33032c5"><use href="#z33032d5"/></clipPath>
	<clipPath id="z33032c6"><use href="#z33032d6"/></clipPath>
	<clipPath id="z33032c7"><use href="#z33032d7"/></clipPath>
	<clipPath id="z33032c8"><use href="#z33032d8"/></clipPath>
	<clipPath id="z33032c9"><use href="#z33032d9"/></clipPath>
	<clipPath id="z33032c10"><use href="#z33032d10"/></clipPath>
<marker id="guide-arrow" viewBox="0 0 16 16" refX="5" refY="5" markerWidth="4" markerHeight="4" orient="auto-start-reverse"><path d="M 0 0 L 10 5 L 0 10 z" fill="inherit"/></marker></defs>
<path style="--d:1s;" pathLength="3333" clip-path="url(#z33032c1)" d="M137 189L183 237L176 524L134 700L46 867"/>
<path style="--d:2s;" pathLength="3333" clip-path="url(#z33032c2)" d="M203 202L297 184L342 220L332 786L303 832L226 770"/>
<path style="--d:3s;" pathLength="3333" clip-path="url(#z33032c3)" d="M212 406L288 386"/>
<path style="--d:4s;" pathLength="3333" clip-path="url(#z33032c4)" d="M202 561L287 545"/>
<path style="--d:5s;" pathLength="3333" clip-path="url(#z33032c5)" d="M662 57L688 113L519 232"/>
<path style="--d:6s;" pathLength="3333" clip-path="url(#z33032c6)" d="M448 217L491 255L493 527L461 675L385 826"/>
<path style="--d:7s;" pathLength="3333" clip-path="url(#z33032c7)" d="M771 197L776 256L562 401"/>
<path style="--d:8s;" pathLength="3333" clip-path="url(#z33032c8)" d="M607 403L596 919"/>
<path style="--d:9s;" pathLength="3333" clip-path="url(#z33032c9)" d="M849 370L863 420L725 493"/>
<path style="--d:10s;" pathLength="3333" clip-path="url(#z33032c10)" d="M652 402L842 703L989 749"/>
<g class="guides"><circle style="--d: 1s" class="g1" cx="137" cy="189" r="16"/><path style="--d: 1s;" class="g1" d="M41,189 Q87,237 83.5,380.5 Q80,524 59,612 Q38,700 -6,783.5 Q-6,783.5 -50,867"/><circle style="--d: 2s" class="g2" cx="203" cy="202" r="16"/><path style="--d: 2s;" class="g2" d="M203,298 Q250,280 261.25,292.27777777777777 Q272.5,304.55555555555554 270,497.5895061728395 Q267.5,690.6234567901234 260.25,706.3117283950617 Q253,722 233.75,700.854938271605 Q233.75,700.854938271605 214.5,679.7098765432099"/><circle style="--d: 3s" class="g3" cx="212" cy="406" r="16"/><path style="--d: 3s;" class="g3" d="M212,502 L288,482"/><circle style="--d: 4s" class="g4" cx="202" cy="561" r="16"/><path style="--d: 4s;" class="g4" d="M202,657 L287,641"/><circle style="--d: 5s" class="g5" cx="662" cy="57" r="16"/><path style="--d: 5s;" class="g5" d="M566,57 Q579,85 568.4375,92.4375 Q505.0625,137.0625 494.5,144.5"/><circle style="--d: 6s" class="g6" cx="448" cy="217" r="16"/><path style="--d: 6s;" class="g6" d="M352,217 Q395,255 396,391 Q397,527 381,601 Q365,675 327,750.5 Q327,750.5 289,826"/><circle style="--d: 7s" class="g7" cx="771" cy="197" r="16"/><path style="--d: 7s;" class="g7" d="M675,197 Q677.5,228.23529411764707 664.125,237.8308823529412 Q583.875,295.40441176470586 570.5,305"/><circle style="--d: 8s" class="g8" cx="607" cy="403" r="16"/><path style="--d: 8s;" class="g8" d="M727,403 L716,919"/><circle style="--d: 9s" class="g9" cx="849" cy="370" r="16"/><path style="--d: 9s;" class="g9" d="M753,370 Q760,395 751.375,399.5625 Q699.625,426.9375 691,431.5"/><circle style="--d: 10s" class="g10" cx="652" cy="402" r="16"/><path style="--d: 10s;" class="g10" d="M737.68,333.456 Q879.373768545994,610.6397002881845 893.0770474777448,615.9347377521615 Q975.2967210682492,647.704962536023 989,653"/></g></svg>