<!--
  Stroke-order data for 脊, derived from AnimCJK (https://github.com/parsimonhi/animCJK),
  itself derived from the Arphic PL KaitiM fonts. Distributed under the Arphic Public License
  (see ARPHICPL.TXT). Regenerated by scripts/build-strokes.ts — do not edit by hand.
-->
<svg id="z33034" class="acjk" viewBox="0 0 1024 1024" xmlns="http://www.w3.org/2000/svg">
<g class="glyph"><path style="--part:1" id="z33034d1" d="M361 511C425 437 464 352 498 271C504 255 504 255 507 247C522 208 542 154 555 138C563 126 562 115 552 107C522 75 496 61 476 65C465 67 461 74 465 86C483 139 464 227 408 350C404 357 400 365 396 373C338 473 253 550 143 602C118 615 118 615 105 622C94 628 93 633 102 635C112 637 131 635 158 629C206 617 249 597 287 569C303 559 319 548 333 537C352 520 352 520 361 511Z"/><path style="--part:1" id="z33034d2" d="M498 271C581 362 676 459 772 557C786 573 806 580 831 578C913 574 951 569 977 564C985 562 989 559 990 555C990 551 984 546 972 542C852 512 800 484 773 465C743 448 591 328 507 247C501 241 493 264 498 271Z"/><path style="--part:2" id="z33034d3" d="M242 232C272 231 364 219 384 215C412 209 413 186 374 174C344 164 252 188 215 204C195 212 201 233 242 232Z"/><path style="--part:2" id="z33034d4" d="M243 354C265 352 354 342 380 337C414 332 400 304 367 295C337 287 255 311 223 321C189 330 194 356 243 354Z"/><path style="--part:3" id="z33034d5" d="M631 198C660 196 744 189 777 181C796 176 797 156 774 144C747 130 663 146 613 168C583 181 588 200 631 198Z"/><path style="--part:3" id="z33034d6" d="M634 317C671 315 742 309 779 302C796 299 804 274 778 263C753 252 672 263 618 284C578 299 603 319 634 317Z"/><path style="--part:4" id="z33034d7" d="M384 738C385 716 387 690 390 662C391 643 391 643 392 634C394 598 397 573 399 559C399 554 399 554 399 551C399 541 394 532 387 525C385 521 376 517 361 511C349 506 328 525 333 537C355 607 352 697 322 806C307 841 301 863 303 872C303 892 309 908 321 922C325 930 331 933 338 930C366 912 378 841 382 767C383 748 383 748 384 738Z"/><path style="--part:4" id="z33034d8" d="M399 551C511 529 574 520 589 527C597 530 600 543 602 562C610 673 615 771 611 857C610 875 604 885 595 889C588 890 569 890 540 886C530 884 515 886 545 909C566 924 584 947 600 967C608 977 617 982 627 981C637 979 648 964 663 932C678 895 680 867 678 835C670 759 665 676 665 613C664 595 663 554 672 538C677 526 679 517 670 508C658 497 642 488 617 478C604 472 584 480 552 489C452 515 396 523 387 525C378 527 390 553 399 551Z"/><path style="--part:4" id="z33034d9" d="M401 662C453 654 500 648 540 644C556 641 561 636 555 628C548 618 536 611 519 608C501 604 458 612 392 634C383 637 381 662 390 662C397 662 397 662 401 662Z"/><path style="--part:4" id="z33034d10" d="M393 767C453 758 506 752 551 748C567 746 572 740 567 732C560 722 548 715 531 711C511 707 462 716 384 738C374 740 372 767 382 767C389 767 389 767 393 767Z"/></g>
<defs><clipPath id="z33034c1"><use href="#z33034d1"/></clipPath>
	<clipPath id="z33034c2"><use href="#z33034d2"/></clipPath>
	<clipPath id="z33034c3"><use href="#z33034d3"/></clipPath>
	<clipPath id="z33034c4"><use href="#z33034d4"/></clipPath>
	<clipPath id="z33034c5"><use href="#z33034d5"/></clipPath>
	<clipPath id="z33034c6"><use href="#z33034d6"/></clipPath>
	<clipPath id="z33034c7"><use href="#z33034d7"/></clipPath>
	<clipPath id="z33034c8"><use href="#z33034d8"/></clipPath>
	<clipPath id="z33034c9"><use href="#z33034d9"/></clipPath>
	<clipPath id="z33034c10"><use href="#z33034d10"/></clipPath><marker id="guide-arrow" viewBox="0 0 16 16" refX="5" refY="5" markerWidth="4" markerHeight="4" orient="auto-start-reverse"><path d="M 0 0 L 10 5 L 0 10 z" fill="inherit"/></marker></defs>
<g class="strokes"><path style="--part:1" pathLength="3333" clip-path="url(#z33034c1)" d="M471 72L516 125L388 433L262 558L104 630"/><path style="--part:1" pathLength="3333" clip-path="url(#z33034c2)" d="M507 257L805 531L983 552"/><path style="--part:2" pathLength="3333" clip-path="url(#z33034c3)" d="M211 219L400 198"/><path style="--part:2" pathLength="3333" clip-path="url(#z33034c4)" d="M209 339L396 323"/><path style="--part:3" pathLength="3333" clip-path="url(#z33034c5)" d="M599 186L786 160"/><path style="--part:3" pathLength="3333" clip-path="url(#z33034c6)" d="M605 301L791 280"/><path style="--part:4" pathLength="3333" clip-path="url(#z33034c7)" d="M355 514L369 645L330 926"/><path style="--part:4" pathLength="3333" clip-path="url(#z33034c8)" d="M390 533L594 501L636 528L639 891L609 935L535 893"/><path style="--part:4" pathLength="3333" clip-path="url(#z33034c9)" d="M390 653L552 629"/><path style="--part:4" pathLength="3333" clip-path="url(#z33034c10)" d="M377 755L562 736"/></g>
<g class="guides"><text class="g1" style="--gs:1" x="471" y="72">①</text><path class="g1 aligned" style="--gs:1" d="M471,72 Q516,125 452,279 Q388,433 325,495.5 Q262,558 183,594 Q183,594 104,630"/><path class="g1 offset" style="--gs:1" d="M375,72 Q409.51,115.88 360.43,243.39 Q311.34,370.89 263.02,422.64 Q214.7,474.39 154.11,504.19 Q154.11,504.19 93.51,534"/><text class="g2" style="--gs:2" x="507" y="257">②</text><path class="g2 aligned" style="--gs:2" d="M507,257 Q805,531 827.25,533.63 Q960.75,549.38 983,552"/><path class="g2 offset" style="--gs:2" d="M592.68,188.46 Q837.04,436.95 855.29,439.34 Q964.76,453.62 983,456"/><text class="g3" style="--gs:3" x="211" y="219">③</text><path class="g3 aligned" style="--gs:3" d="M211,219 L400,198"/><path class="g3 offset" style="--gs:3" d="M211,315 L400,294"/><text class="g4" style="--gs:4" x="209" y="339">④</text><path class="g4 aligned" style="--gs:4" d="M209,339 L396,323"/><path class="g4 offset" style="--gs:4" d="M209,435 L396,419"/><text class="g5" style="--gs:5" x="599" y="186">⑤</text><path class="g5 aligned" style="--gs:5" d="M599,186 L786,160"/><path class="g5 offset" style="--gs:5" d="M599,282 L786,256"/><text class="g6" style="--gs:6" x="605" y="301">⑥</text><path class="g6 aligned" style="--gs:6" d="M605,301 L791,280"/><path class="g6 offset" style="--gs:6" d="M605,397 L791,376"/><text class="g7" style="--gs:7" x="355" y="514">⑦</text><path class="g7 aligned" style="--gs:7" d="M355,514 Q369,645 364.13,680.13 Q334.88,890.88 330,926"/><path class="g7 offset" style="--gs:7" d="M475,514 Q489,645 484.13,680.13 Q454.88,890.88 450,926"/><text class="g8" style="--gs:8" x="390" y="533">⑧</text><path class="g8 aligned" style="--gs:8" d="M390,533 Q594,501 615,514.5 Q636,528 637.5,709.5 Q639,891 624,913 Q609,935 572,914 Q572,914 535,893"/><path class="g8 offset" style="--gs:8" d="M390,629 Q515.35,597 528.25,610.5 Q541.16,624 542.08,721.93 Q543,819.86 533.78,832.43 Q524.57,845 501.83,833 Q501.83,833 479.1,821"/><text class="g9" style="--gs:9" x="390" y="653">⑨</text><path class="g9 aligned" style="--gs:9" d="M390,653 L552,629"/><path class="g9 offset" style="--gs:9" d="M390,749 L552,725"/><text class="g10" style="--gs:10" x="377" y="755">⑩</text><path class="g10 aligned" style="--gs:10" d="M377,755 L562,736"/><path class="g10 offset" style="--gs:10" d="M377,851 L562,832"/></g>
<g class="parts"><rect data-part="1" data-literal="人" role="button" tabindex="0" aria-label="Part 人" x="32" y="0" width="992" height="702"/><rect data-part="4" data-literal="月" data-radical="true" role="button" tabindex="0" aria-label="Part 月 (radical)" x="258" y="429" width="453" height="578"/><rect data-part="3" data-literal="二" role="button" tabindex="0" aria-label="Part 二" x="527" y="88" width="336" height="285"/><rect data-part="2" data-literal="二" role="button" tabindex="0" aria-label="Part 二" x="137" y="126" width="335" height="285"/></g>
</svg>
