<!--
  Stroke-order data for 腸, derived from AnimCJK (https://github.com/parsimonhi/animCJK),
  itself derived from the Arphic PL KaitiM fonts. Distributed under the Arphic Public License
  (see ARPHICPL.TXT). Regenerated by scripts/build-strokes.ts — do not edit by hand.
-->
<svg id="z33144" class="acjk" viewBox="0 0 1024 1024" xmlns="http://www.w3.org/2000/svg">
<g class="glyph"><path style="--part:1" id="z33144d1" d="M227 171C216 162 201 155 184 150C171 145 160 143 153 148C145 151 144 159 150 168C154 175 159 182 166 192C170 198 174 209 175 223C176 243 176 265 178 289C180 347 180 401 176 453C171 505 164 552 154 595C139 653 117 706 94 756C80 784 69 812 56 838C53 842 50 846 50 851C48 857 52 859 59 858C65 856 71 850 80 839C89 826 98 814 107 802C134 762 161 715 181 658C195 614 207 567 214 518C217 494 217 494 219 482C224 445 227 409 228 374C229 349 229 349 229 336C229 327 228 221 233 204C235 193 236 178 227 171Z"/><path style="--part:1" id="z33144d2" d="M322 232C327 432 326 593 318 715C316 733 314 745 309 753C306 756 298 756 285 754C270 750 254 749 238 745C225 741 216 744 221 749C253 781 283 804 301 826C310 837 319 844 329 848C335 850 340 848 345 843C352 834 363 820 373 800C380 783 383 764 382 744C376 625 373 468 372 273C371 237 373 210 382 195C389 181 390 173 382 167C368 156 349 146 327 137C315 132 304 131 296 137C280 147 268 157 257 161C237 168 237 168 227 171C216 175 223 210 233 204C235 202 239 201 244 200C259 194 273 188 289 182C297 178 305 177 311 182C319 189 321 206 322 232Z"/><path style="--part:1" id="z33144d3" d="M228 374C248 369 268 365 287 361C301 357 304 350 298 343C290 334 278 330 262 330C253 329 242 332 229 336C217 341 216 376 228 374Z"/><path style="--part:1" id="z33144d4" d="M214 518C244 511 272 508 297 504C312 501 316 494 310 487C302 478 290 473 274 472C260 471 241 474 219 482C208 486 202 520 214 518Z"/><path style="--part:2" id="z33144d5" d="M543 125C531 116 519 109 507 105C503 103 499 103 497 107C492 109 492 114 497 122C507 142 513 165 516 191C520 229 520 267 519 307C518 325 521 344 530 364C535 376 541 386 548 390C555 393 562 387 564 375C566 358 566 358 567 349C568 339 562 299 562 262C562 241 562 241 562 230C562 203 562 179 564 158C564 153 564 153 564 151C564 140 552 132 543 125Z"/><path style="--part:2" id="z33144d6" d="M696 87C648 104 597 116 543 125C532 127 553 153 564 151C569 150 619 136 639 132C667 125 685 125 695 131C701 134 703 145 701 166C695 221 690 273 685 320C684 326 683 331 681 335C678 343 662 350 667 358C669 360 671 365 675 371C688 391 703 393 717 377C727 364 733 351 735 338C738 305 743 270 748 232C752 199 760 172 775 152C783 139 784 128 775 120C763 108 747 97 727 87C716 81 706 83 696 87Z"/><path style="--part:2" id="z33144d7" d="M562 262C596 254 627 249 653 244C667 241 672 234 666 227C658 218 646 213 630 212C615 211 595 215 570 225C567 225 564 227 562 230C554 238 552 264 562 262Z"/><path style="--part:2" id="z33144d8" d="M564 375Q621 365 667 358C676 356 689 340 681 335Q674 329 659 327Q640 326 605 335Q584 342 567 349C559 352 555 377 564 375Z"/><path style="--part:2" id="z33144d9" d="M633 462C695 454 779 449 883 449C896 449 910 449 924 449C936 449 944 446 947 441C949 434 947 425 937 417C919 403 903 394 890 390C878 386 865 386 853 389C804 399 737 411 653 424C578 434 496 443 408 455C395 456 393 463 402 473C410 482 420 488 432 491C444 494 456 494 467 492C475 489 484 488 494 486C515 481 515 481 526 478C560 469 596 466 633 462Z"/><path style="--part:2" id="z33144d10" d="M494 486C494 498 492 510 488 523C483 535 475 549 465 565C454 580 443 594 430 607C419 616 410 624 405 631C399 637 401 639 410 639C416 638 425 635 436 629C464 611 489 591 507 568C514 559 514 559 517 554C527 539 539 526 550 515C555 509 554 502 548 495C541 488 534 482 526 478C517 472 494 475 494 486Z"/><path style="--part:2" id="z33144d11" d="M507 568C513 577 530 592 546 591C569 588 569 588 581 587C596 585 635 575 655 572C683 567 683 567 697 565C723 560 749 557 775 556C787 555 795 556 798 561C805 573 803 595 796 628C776 716 754 780 729 818C714 838 698 847 681 842C664 836 649 829 635 824C619 817 614 824 627 840C651 871 670 897 684 919C695 937 711 936 728 925C751 908 773 888 791 860C811 826 832 756 852 650C859 612 868 583 884 567C892 557 896 550 892 544C886 535 866 523 833 506C820 499 807 500 794 508C779 516 742 524 684 535C625 545 537 552 517 554C511 554 504 563 507 568Z"/><path style="--part:2" id="z33144d12" d="M546 591C542 623 509 668 495 686C478 706 459 727 438 747C435 749 433 751 433 754C432 756 434 758 437 758C441 757 445 756 449 754C467 745 502 718 526 697C544 679 560 661 572 645C580 634 586 627 591 622C594 617 594 611 592 605C588 597 584 592 581 587C575 577 548 579 546 591Z"/><path style="--part:2" id="z33144d13" d="M655 572C657 580 658 593 655 608C646 642 630 671 615 698C596 729 577 757 556 782C535 806 499 844 445 894C441 897 440 899 447 900C451 900 460 894 475 887C497 875 519 862 540 846C565 825 593 798 620 766C645 735 675 689 713 627C717 619 721 613 726 610C729 607 731 602 730 596C729 590 725 583 717 577C710 572 703 568 697 565C685 558 652 558 655 572Z"/></g>
<defs><clipPath id="z33144c1"><use href="#z33144d1"/></clipPath>
	<clipPath id="z33144c2"><use href="#z33144d2"/></clipPath>
	<clipPath id="z33144c3"><use href="#z33144d3"/></clipPath>
	<clipPath id="z33144c4"><use href="#z33144d4"/></clipPath>
	<clipPath id="z33144c5"><use href="#z33144d5"/></clipPath>
	<clipPath id="z33144c6"><use href="#z33144d6"/></clipPath>
	<clipPath id="z33144c7"><use href="#z33144d7"/></clipPath>
	<clipPath id="z33144c8"><use href="#z33144d8"/></clipPath>
	<clipPath id="z33144c9"><use href="#z33144d9"/></clipPath>
	<clipPath id="z33144c10"><use href="#z33144d10"/></clipPath>
	<clipPath id="z33144c11"><use href="#z33144d11"/></clipPath>
	<clipPath id="z33144c12"><use href="#z33144d12"/></clipPath>
	<clipPath id="z33144c13"><use href="#z33144d13"/></clipPath><marker id="guide-arrow" viewBox="0 0 16 16" refX="5" refY="5" markerWidth="4" markerHeight="4" orient="auto-start-reverse"><path d="M 0 0 L 10 5 L 0 10 z" fill="inherit"/></marker></defs>
<g class="strokes"><path style="--part:1" pathLength="3333" clip-path="url(#z33144c1)" d="M156 155L202 205L194 500L145 693L58 851"/><path style="--part:1" pathLength="3333" clip-path="url(#z33144c2)" d="M236 197L303 156L353 186L350 668L347 753L320 802L232 751"/><path style="--part:1" pathLength="3333" clip-path="url(#z33144c3)" d="M234 365L294 346"/><path style="--part:1" pathLength="3333" clip-path="url(#z33144c4)" d="M220 511L306 492"/><path style="--part:2" pathLength="3333" clip-path="url(#z33144c5)" d="M503 109L538 164L553 384"/><path style="--part:2" pathLength="3333" clip-path="url(#z33144c6)" d="M552 125L706 107L739 136L689 380"/><path style="--part:2" pathLength="3333" clip-path="url(#z33144c7)" d="M565 254L661 229"/><path style="--part:2" pathLength="3333" clip-path="url(#z33144c8)" d="M569 367L675 341"/><path style="--part:2" pathLength="3333" clip-path="url(#z33144c9)" d="M407 465L861 418L943 428"/><path style="--part:2" pathLength="3333" clip-path="url(#z33144c10)" d="M499 489L519 519L412 632"/><path style="--part:2" pathLength="3333" clip-path="url(#z33144c11)" d="M512 565L805 529L847 565L752 850L699 887L628 828"/><path style="--part:2" pathLength="3333" clip-path="url(#z33144c12)" d="M552 599L567 614L520 680L440 751"/><path style="--part:2" pathLength="3333" clip-path="url(#z33144c13)" d="M662 576L690 611L623 727L452 892"/></g>
<g class="guides"><text class="g1" style="--gs:1" x="156" y="155">①</text><path class="g1 aligned" style="--gs:1" d="M156,155 Q202,205 198,352.5 Q194,500 169.5,596.5 Q145,693 101.5,772 Q101.5,772 58,851"/><path class="g1 offset" style="--gs:1" d="M60,155 Q106,205 102,352.5 Q98,500 73.5,596.5 Q49,693 5.5,772 Q5.5,772 -38,851"/><text class="g2" style="--gs:2" x="236" y="197">②</text><path class="g2 aligned" style="--gs:2" d="M236,197 Q303,156 328,171 Q353,186 351.5,427 Q350,668 348.5,710.5 Q347,753 333.5,777.5 Q320,802 276,776.5 Q276,776.5 232,751"/><path class="g2 offset" style="--gs:2" d="M150.32,265.54 Q217.32,224.54 242.32,239.54 Q267.32,254.54 265.82,430.34 Q264.32,606.13 262.82,637.81 Q261.32,669.48 247.82,687.74 Q234.32,706 190.32,687 Q190.32,687 146.32,667.99"/><text class="g3" style="--gs:3" x="234" y="365">③</text><path class="g3 aligned" style="--gs:3" d="M234,365 L294,346"/><path class="g3 offset" style="--gs:3" d="M234,461 L294,442"/><text class="g4" style="--gs:4" x="220" y="511">④</text><path class="g4 aligned" style="--gs:4" d="M220,511 L306,492"/><path class="g4 offset" style="--gs:4" d="M220,607 L306,588"/><text class="g5" style="--gs:5" x="503" y="109">⑤</text><path class="g5 aligned" style="--gs:5" d="M503,109 Q538,164 539.88,191.5 Q551.13,356.5 553,384"/><path class="g5 offset" style="--gs:5" d="M588.68,40.46 Q623.68,95.46 625.55,122.96 Q636.8,287.96 638.68,315.46"/><text class="g6" style="--gs:6" x="552" y="125">⑥</text><path class="g6 aligned" style="--gs:6" d="M552,125 Q706,107 714.25,114.25 Q739,136 726.5,197 Q701.5,319 689,380"/><path class="g6 offset" style="--gs:6" d="M552,221 Q629,203 633.13,207.7 Q645.5,221.8 639.25,261.35 Q626.75,340.45 620.5,380"/><text class="g7" style="--gs:7" x="565" y="254">⑦</text><path class="g7 aligned" style="--gs:7" d="M565,254 L661,229"/><path class="g7 offset" style="--gs:7" d="M565,350 L661,325"/><text class="g8" style="--gs:8" x="569" y="367">⑧</text><path class="g8 aligned" style="--gs:8" d="M569,367 L675,341"/><path class="g8 offset" style="--gs:8" d="M569,463 L675,437"/><text class="g9" style="--gs:9" x="407" y="465">⑨</text><path class="g9 aligned" style="--gs:9" d="M407,465 Q861,418 871.25,419.25 Q932.75,426.75 943,428"/><path class="g9 offset" style="--gs:9" d="M407,561 Q861,514 871.25,515.25 Q932.75,522.75 943,524"/><text class="g10" style="--gs:10" x="499" y="489">⑩</text><path class="g10 aligned" style="--gs:10" d="M509,504 L412,632"/><path class="g10 offset" style="--gs:10" d="M594.68,572.54 L497.68,700.54"/><text class="g11" style="--gs:11" x="512" y="565">⑪</text><path class="g11 aligned" style="--gs:11" d="M512,565 Q805,529 826,547 Q847,565 799.5,707.5 Q752,850 725.5,868.5 Q699,887 663.5,857.5 Q663.5,857.5 628,828"/><path class="g11 offset" style="--gs:11" d="M512,661 Q721.04,625 736.02,643 Q751,661 717.11,723.25 Q683.22,785.5 664.32,794.75 Q645.41,804 620.09,789.25 Q620.09,789.25 594.76,774.5"/><text class="g12" style="--gs:12" x="552" y="599">⑫</text><path class="g12 aligned" style="--gs:12" d="M560,607 Q520,680 510,688.88 Q450,742.13 440,751"/><path class="g12 offset" style="--gs:12" d="M464,607 Q444,643.5 439,647.94 Q409,674.56 404,679"/><text class="g13" style="--gs:13" x="662" y="576">⑬</text><path class="g13 aligned" style="--gs:13" d="M662,576 Q690,611 673.25,640 Q623,727 580.25,768.25 Q494.75,850.75 452,892"/><path class="g13 offset" style="--gs:13" d="M566,576 Q582.71,600.37 572.71,620.56 Q542.73,681.13 517.22,709.84 Q466.21,767.28 440.71,796"/></g>
<g class="parts"><rect data-part="2" data-literal="昜" role="button" tabindex="0" aria-label="Part 昜" x="335" y="35" width="680" height="929"/><rect data-part="1" data-literal="月" data-radical="true" role="button" tabindex="0" aria-label="Part 月 (radical)" x="0" y="83" width="425" height="840"/></g>
</svg>
