<!--
  Stroke-order data for 臨, derived from AnimCJK (https://github.com/parsimonhi/animCJK),
  itself derived from the Arphic PL KaitiM fonts. Distributed under the Arphic Public License
  (see ARPHICPL.TXT). Regenerated by scripts/build-strokes.ts — do not edit by hand.
-->
<svg id="z33256" class="acjk" viewBox="0 0 1024 1024" xmlns="http://www.w3.org/2000/svg">
<g class="glyph"><path id="z33256d1" d="M157 810C161 820 164 825 173 830C177 832 182 833 187 829C195 822 202 813 204 801C208 774 208 774 210 761C212 743 215 700 215 572C215 558 215 558 215 551C215 477 215 477 215 440C215 422 215 422 215 413C215 384 217 260 218 228C218 216 225 203 219 193C210 177 195 169 182 163C162 154 148 152 134 163C129 165 128 174 135 184C150 205 166 240 167 273C173 516 167 656 151 737C144 766 143 779 157 810Z"/><path id="z33256d2" d="M219 193C273 183 304 174 331 165C377 148 396 137 441 135C460 134 472 144 476 151C479 156 479 161 473 166C449 186 378 198 342 207C317 213 317 213 305 216C296 218 253 225 218 228C206 230 208 195 219 193Z"/><path id="z33256d3" d="M310 387C314 335 314 286 313 242C313 235 311 226 305 216C298 205 330 202 342 207C349 210 354 214 361 219C371 228 374 235 372 240C361 277 354 321 344 372C344 373 344 373 344 373C342 385 310 399 310 387Z"/><path id="z33256d4" d="M419 519C433 469 450 438 468 423C479 412 479 397 468 389C425 359 389 351 367 360C358 363 351 369 345 372C322 382 322 382 310 387C292 394 242 407 215 413C206 414 206 442 215 440C221 440 270 428 362 405C370 402 377 402 381 406C387 412 385 448 373 510C370 525 416 534 419 519Z"/><path id="z33256d5" d="M339 558C363 553 392 548 426 545C432 544 436 541 437 535C437 530 431 525 419 519C406 511 388 505 373 510C348 518 249 545 215 551C208 552 209 569 215 572C227 578 240 579 248 577C262 572 282 568 307 564C328 560 328 560 339 558Z"/><path id="z33256d6" d="M307 733C313 634 312 591 313 579C313 575 309 568 307 564C303 554 331 551 339 558C348 566 358 574 368 585C372 590 369 599 367 610C362 630 348 704 346 726C343 739 307 746 307 733Z"/><path id="z33256d7" d="M210 761C260 748 284 737 307 733C333 728 333 728 346 726C359 723 371 725 380 727C400 730 414 740 416 756C417 772 362 776 339 780C315 783 278 788 204 801C191 804 197 764 210 761Z"/><path id="z33256d8" d="M606 218C618 200 630 181 643 160C653 141 662 127 671 117C676 110 676 102 674 95C671 88 661 77 643 65C626 54 612 49 601 51C590 52 585 61 592 73C610 108 576 192 484 328C479 334 475 339 474 343C472 349 476 351 484 350C498 347 562 281 591 240C601 225 601 225 606 218Z"/><path id="z33256d9" d="M591 240C613 247 658 259 695 251C808 223 868 211 871 209C877 203 878 197 875 192C870 184 858 177 838 173C820 168 785 177 732 194C686 207 644 214 606 218C597 219 582 238 591 240Z"/><path id="z33256d10" d="M568 379Q559 375 539 372Q529 369 526 374Q522 378 528 392Q552 441 566 519Q569 543 582 558Q598 577 602 563Q603 556 604 547C606 537 602 528 602 518C602 514 602 514 602 512Q589 436 586 409C584 397 579 383 568 379Z"/><path id="z33256d11" d="M777 494C795 448 815 421 834 408C846 399 848 383 837 374C790 331 750 326 717 342C678 359 627 368 568 379C556 381 575 411 586 409C686 388 740 379 745 384C750 388 751 396 749 408C742 438 734 466 726 490C721 506 771 510 777 494Z"/><path id="z33256d12" d="M604 547Q616 550 628 547Q679 535 789 525Q799 524 800 515Q800 508 777 494C762 485 743 487 726 490Q656 509 602 518C592 520 594 545 604 547Z"/><path id="z33256d13" d="M453 652Q444 648 424 644Q414 640 410 645Q406 649 412 664Q434 716 447 800Q448 825 463 842Q476 861 482 848Q486 836 486 818C484 799 484 799 483 790Q470 703 469 678C469 668 462 656 453 652Z"/><path id="z33256d14" d="M603 772C613 723 626 692 640 677C654 661 653 648 639 640C600 618 579 609 576 609C570 609 564 611 559 615C538 627 503 639 453 652C443 654 459 681 469 678C485 672 509 667 542 662C554 659 561 661 566 666C569 669 570 680 567 703C563 722 560 744 556 767C553 783 600 787 603 772Z"/><path id="z33256d15" d="M486 818C492 820 499 819 508 817C530 811 566 806 614 801C620 800 624 797 625 791C625 786 617 780 603 772C589 764 571 761 556 767C535 775 504 784 483 790C474 792 477 816 486 818Z"/><path id="z33256d16" d="M703 624Q693 620 671 615Q661 612 657 617Q651 621 658 637Q683 695 696 790Q697 818 714 837Q729 858 734 843Q738 830 739 809C736 788 736 788 735 778Q722 682 719 653C717 642 713 628 703 624Z"/><path id="z33256d17" d="M889 763C903 706 921 671 941 654C953 642 953 627 942 618C893 579 864 574 830 591C801 604 757 614 703 624C692 626 708 655 719 653C769 641 836 627 847 632C855 635 857 647 856 660C852 694 845 726 838 756C835 773 886 780 889 763Z"/><path id="z33256d18" d="M739 809Q748 809 760 808Q803 798 897 792Q907 791 908 783Q908 776 889 763C874 754 855 753 838 756C837 756 837 756 836 756Q781 771 735 778C725 780 729 809 739 809Z"/></g>
<defs><clipPath id="z33256c1"><use href="#z33256d1"/></clipPath>
	<clipPath id="z33256c2"><use href="#z33256d2"/></clipPath>
	<clipPath id="z33256c3"><use href="#z33256d3"/></clipPath>
	<clipPath id="z33256c4"><use href="#z33256d4"/></clipPath>
	<clipPath id="z33256c5"><use href="#z33256d5"/></clipPath>
	<clipPath id="z33256c6"><use href="#z33256d6"/></clipPath>
	<clipPath id="z33256c7"><use href="#z33256d7"/></clipPath>
	<clipPath id="z33256c8"><use href="#z33256d8"/></clipPath>
	<clipPath id="z33256c9"><use href="#z33256d9"/></clipPath>
	<clipPath id="z33256c10"><use href="#z33256d10"/></clipPath>
	<clipPath id="z33256c11"><use href="#z33256d11"/></clipPath>
	<clipPath id="z33256c12"><use href="#z33256d12"/></clipPath>
	<clipPath id="z33256c13"><use href="#z33256d13"/></clipPath>
	<clipPath id="z33256c14"><use href="#z33256d14"/></clipPath>
	<clipPath id="z33256c15"><use href="#z33256d15"/></clipPath>
	<clipPath id="z33256c16"><use href="#z33256d16"/></clipPath>
	<clipPath id="z33256c17"><use href="#z33256d17"/></clipPath>
	<clipPath id="z33256c18"><use href="#z33256d18"/></clipPath><marker id="guide-arrow" viewBox="0 0 16 16" refX="5" refY="5" markerWidth="4" markerHeight="4" orient="auto-start-reverse"><path d="M 0 0 L 10 5 L 0 10 z" fill="inherit"/></marker></defs>
<g class="strokes"><path pathLength="3333" clip-path="url(#z33256c1)" d="M135 168L185 203L192 253L172 825"/><path pathLength="3333" clip-path="url(#z33256c2)" d="M221 220L469 150"/><path pathLength="3333" clip-path="url(#z33256c3)" d="M313 219L342 247L317 380"/><path pathLength="3333" clip-path="url(#z33256c4)" d="M221 431L392 382L429 416L392 513"/><path pathLength="3333" clip-path="url(#z33256c5)" d="M215 566L432 532"/><path pathLength="3333" clip-path="url(#z33256c6)" d="M317 567L341 605L318 730"/><path pathLength="3333" clip-path="url(#z33256c7)" d="M212 793L411 747"/><path pathLength="3333" clip-path="url(#z33256c8)" d="M596 56L635 108L480 345"/><path pathLength="3333" clip-path="url(#z33256c9)" d="M598 237L870 193"/><path pathLength="3333" clip-path="url(#z33256c10)" d="M531 380L563 415L591 560"/><path pathLength="3333" clip-path="url(#z33256c11)" d="M577 381L746 358L779 371L795 401L739 488"/><path pathLength="3333" clip-path="url(#z33256c12)" d="M610 541L724 511L794 516"/><path pathLength="3333" clip-path="url(#z33256c13)" d="M417 653L445 685L471 847"/><path pathLength="3333" clip-path="url(#z33256c14)" d="M461 654L567 636L599 652L574 768"/><path pathLength="3333" clip-path="url(#z33256c15)" d="M488 812L618 789"/><path pathLength="3333" clip-path="url(#z33256c16)" d="M662 623L697 672L723 843"/><path pathLength="3333" clip-path="url(#z33256c17)" d="M712 627L846 607L891 626L902 648L858 758"/><path pathLength="3333" clip-path="url(#z33256c18)" d="M742 783L901 784"/></g>
<g class="guides"><text class="g1" style="--gs:1" x="135" y="168">①</text><path class="g1 aligned" style="--gs:1" d="M135,168 Q185,203 186.75,215.5 Q192,253 187,396 Q177,682 172,825"/><path class="g1 offset" style="--gs:1" d="M39,168 Q89,203 90.75,215.5 Q96,253 91,396 Q81,682 76,825"/><text class="g2" style="--gs:2" x="221" y="220">②</text><path class="g2 aligned" style="--gs:2" d="M221,220 L469,150"/><path class="g2 offset" style="--gs:2" d="M221,316 L469,246"/><text class="g3" style="--gs:3" x="313" y="219">③</text><path class="g3 aligned" style="--gs:3" d="M328,233 L317,380"/><path class="g3 offset" style="--gs:3" d="M448,233 L437,380"/><text class="g4" style="--gs:4" x="221" y="431">④</text><path class="g4 aligned" style="--gs:4" d="M221,431 Q392,382 401.25,390.5 Q429,416 419.75,440.25 Q401.25,488.75 392,513"/><path class="g4 offset" style="--gs:4" d="M221,527 Q306.5,478 311.13,486.5 Q325,512 320.38,519.88 Q311.13,535.63 306.5,543.5"/><text class="g5" style="--gs:5" x="215" y="566">⑤</text><path class="g5 aligned" style="--gs:5" d="M215,566 L432,532"/><path class="g5 offset" style="--gs:5" d="M215,662 L432,628"/><text class="g6" style="--gs:6" x="317" y="567">⑥</text><path class="g6 aligned" style="--gs:6" d="M317,567 Q341,605 338.13,620.63 Q320.88,714.38 318,730"/><path class="g6 offset" style="--gs:6" d="M221,567 Q245,605 242.13,620.63 Q224.88,714.38 222,730"/><text class="g7" style="--gs:7" x="212" y="793">⑦</text><path class="g7 aligned" style="--gs:7" d="M212,793 L411,747"/><path class="g7 offset" style="--gs:7" d="M212,889 L411,843"/><text class="g8" style="--gs:8" x="596" y="56">⑧</text><path class="g8 aligned" style="--gs:8" d="M596,56 Q635,108 615.63,137.63 Q499.38,315.38 480,345"/><path class="g8 offset" style="--gs:8" d="M500,56 Q519.5,90.73 509.81,110.51 Q451.69,229.22 442,249"/><text class="g9" style="--gs:9" x="598" y="237">⑨</text><path class="g9 aligned" style="--gs:9" d="M598,237 L870,193"/><path class="g9 offset" style="--gs:9" d="M598,333 L870,289"/><text class="g10" style="--gs:10" x="531" y="380">⑩</text><path class="g10 aligned" style="--gs:10" d="M531,380 Q563,415 566.5,433.13 Q587.5,541.88 591,560"/><path class="g10 offset" style="--gs:10" d="M616.68,311.46 Q648.68,346.46 652.18,364.58 Q673.18,473.33 676.68,491.46"/><text class="g11" style="--gs:11" x="577" y="381">⑪</text><path class="g11 aligned" style="--gs:11" d="M577,381 Q746,358 762.5,364.5 Q779,371 787,386 Q795,401 767,444.5 Q767,444.5 739,488"/><path class="g11 offset" style="--gs:11" d="M577,477 Q671.58,454 680.81,460.5 Q690.05,467 694.52,482 Q699,497 683.33,540.5 Q683.33,540.5 667.66,584"/><text class="g12" style="--gs:12" x="610" y="541">⑫</text><path class="g12 aligned" style="--gs:12" d="M610,541 Q724,511 732.75,511.63 Q785.25,515.38 794,516"/><path class="g12 offset" style="--gs:12" d="M610,637 Q724,607 732.75,607.63 Q785.25,611.38 794,612"/><text class="g13" style="--gs:13" x="417" y="653">⑬</text><path class="g13 aligned" style="--gs:13" d="M417,653 Q445,685 448.25,705.25 Q467.75,826.75 471,847"/><path class="g13 offset" style="--gs:13" d="M502.68,584.46 Q530.68,616.46 533.93,636.71 Q553.43,758.21 556.68,778.46"/><text class="g14" style="--gs:14" x="461" y="654">⑭</text><path class="g14 aligned" style="--gs:14" d="M461,654 Q567,636 575,640 Q599,652 592.75,681 Q580.25,739 574,768"/><path class="g14 offset" style="--gs:14" d="M461,750 Q514,732 518,736 Q530,748 526.88,760.5 Q520.63,785.5 517.5,798"/><text class="g15" style="--gs:15" x="488" y="812">⑮</text><path class="g15 aligned" style="--gs:15" d="M488,812 L618,789"/><path class="g15 offset" style="--gs:15" d="M488,908 L618,885"/><text class="g16" style="--gs:16" x="662" y="623">⑯</text><path class="g16 aligned" style="--gs:16" d="M662,623 Q697,672 700.25,693.38 Q719.75,821.63 723,843"/><path class="g16 offset" style="--gs:16" d="M747.68,554.46 Q782.68,603.46 785.93,624.83 Q805.43,753.08 808.68,774.46"/><text class="g17" style="--gs:17" x="712" y="627">⑰</text><path class="g17 aligned" style="--gs:17" d="M712,627 Q846,607 868.5,616.5 Q891,626 896.5,637 Q902,648 880,703 Q880,703 858,758"/><path class="g17 offset" style="--gs:17" d="M712,723 Q779,703 790.25,712.5 Q801.5,722 804.25,722.75 Q807,723.5 796,751 Q796,751 785,778.5"/><text class="g18" style="--gs:18" x="742" y="783">⑱</text><path class="g18 aligned" style="--gs:18" d="M742,783 L901,784"/><path class="g18 offset" style="--gs:18" d="M742,879 L901,880"/></g>
</svg>
