<!--
  Stroke-order data for 舍, derived from AnimCJK (https://github.com/parsimonhi/animCJK),
  itself derived from the Arphic PL KaitiM fonts. Distributed under the Arphic Public License
  (see ARPHICPL.TXT). Regenerated by scripts/build-strokes.ts — do not edit by hand.
-->
<svg id="z33293" class="acjk" viewBox="0 0 1024 1024" xmlns="http://www.w3.org/2000/svg">
<g class="glyph"><path id="z33293d1" d="M516 172Q553 121 554 117Q553 107 539 93Q505 59 469 63Q459 66 461 79Q479 181 289 384Q280 390 274 398Q219 453 82 559Q72 565 84 568Q153 561 287 450Q377 369 502 193C511 179 511 179 516 172Z"/><path id="z33293d2" d="M502 193Q742 457 799 470Q866 480 973 459Q992 456 994 451Q997 444 980 438Q773 359 760 352Q658 292 526 180Q520 176 516 172C510 166 497 186 502 193Z"/><path id="z33293d3" d="M494 429Q624 399 627 398Q634 391 631 383Q624 373 598 365Q571 359 497 384Q383 403 368 406Q335 412 359 427Q392 448 446 438C478 432 478 432 494 429Z"/><path id="z33293d4" d="M505 575Q589 566 739 567Q758 567 763 558Q769 548 752 534Q694 491 640 511Q586 520 511 535C476 540 476 540 459 543Q353 558 232 574Q211 577 227 593Q240 606 258 611Q277 617 294 612Q369 591 458 581C489 577 489 577 505 575Z"/><path id="z33293d5" d="M488 682Q495 627 505 575C509 548 509 548 511 535Q514 504 522 484Q532 454 517 441Q504 434 494 429C479 423 438 424 446 438Q459 462 460 525Q459 532 459 543C458 568 458 568 458 581Q457 632 451 688C449 700 486 694 488 682Z"/><path id="z33293d6" d="M347 699Q335 692 299 688Q286 684 283 690Q276 697 286 713Q317 774 337 874Q341 905 359 924Q378 946 383 930Q387 917 386 896C383 872 383 872 381 860Q362 763 359 731C357 720 357 704 347 699Z"/><path id="z33293d7" d="M647 837Q674 756 709 734Q727 715 712 696Q696 681 643 654Q625 645 602 652Q541 671 488 682C463 686 463 686 451 688Q399 694 347 699C336 701 348 733 359 731Q365 731 576 701Q601 697 610 707Q620 717 617 735Q607 787 595 830C592 847 641 853 647 837Z"/><path id="z33293d8" d="M386 896Q393 897 402 896Q484 881 661 876Q673 875 674 866Q675 857 647 837C632 828 612 827 595 830C594 830 594 830 594 830Q476 852 381 860C369 860 374 896 386 896Z"/></g>
<defs><clipPath id="z33293c1"><use href="#z33293d1"/></clipPath>
	<clipPath id="z33293c2"><use href="#z33293d2"/></clipPath>
	<clipPath id="z33293c3"><use href="#z33293d3"/></clipPath>
	<clipPath id="z33293c4"><use href="#z33293d4"/></clipPath>
	<clipPath id="z33293c5"><use href="#z33293d5"/></clipPath>
	<clipPath id="z33293c6"><use href="#z33293d6"/></clipPath>
	<clipPath id="z33293c7"><use href="#z33293d7"/></clipPath>
	<clipPath id="z33293c8"><use href="#z33293d8"/></clipPath><marker id="guide-arrow" viewBox="0 0 16 16" refX="5" refY="5" markerWidth="4" markerHeight="4" orient="auto-start-reverse"><path d="M 0 0 L 10 5 L 0 10 z" fill="inherit"/></marker></defs>
<g class="strokes"><path pathLength="3333" clip-path="url(#z33293c1)" d="M469 70L506 121L378 318L240 460L87 562"/><path pathLength="3333" clip-path="url(#z33293c2)" d="M511 178L784 412L985 447"/><path pathLength="3333" clip-path="url(#z33293c3)" d="M356 415L624 388"/><path pathLength="3333" clip-path="url(#z33293c4)" d="M226 582L278 591L662 536L759 551"/><path pathLength="3333" clip-path="url(#z33293c5)" d="M451 432L491 466L468 691"/><path pathLength="3333" clip-path="url(#z33293c6)" d="M289 692L326 723L376 928"/><path pathLength="3333" clip-path="url(#z33293c7)" d="M349 705L624 679L668 717L613 843"/><path pathLength="3333" clip-path="url(#z33293c8)" d="M377 870L668 863"/></g>
<g class="guides"><text class="g1" style="--gs:1" x="469" y="70">①</text><path class="g1 aligned" style="--gs:1" d="M469,70 Q506,121 442,219.5 Q378,318 309,389 Q240,460 163.5,511 Q163.5,511 87,562"/><path class="g1 offset" style="--gs:1" d="M373,70 Q401.52,111.05 352.19,190.33 Q302.85,269.61 249.66,326.76 Q196.47,383.9 137.5,424.95 Q137.5,424.95 78.52,466"/><text class="g2" style="--gs:2" x="511" y="178">②</text><path class="g2 aligned" style="--gs:2" d="M511,178 Q784,412 809.13,416.38 Q959.88,442.63 985,447"/><path class="g2 offset" style="--gs:2" d="M596.68,109.46 Q820.33,319.57 840.92,323.5 Q964.42,347.07 985,351"/><text class="g3" style="--gs:3" x="356" y="415">③</text><path class="g3 aligned" style="--gs:3" d="M356,415 L624,388"/><path class="g3 offset" style="--gs:3" d="M356,511 L624,484"/><text class="g4" style="--gs:4" x="226" y="582">④</text><path class="g4 aligned" style="--gs:4" d="M226,582 Q278,591 374,577.25 Q662,536 686.25,539.75 Q734.75,547.25 759,551"/><path class="g4 offset" style="--gs:4" d="M226,678 Q278,687 374,673.25 Q662,632 686.25,635.75 Q734.75,643.25 759,647"/><text class="g5" style="--gs:5" x="451" y="432">⑤</text><path class="g5 aligned" style="--gs:5" d="M451,432 Q491,466 488.13,494.13 Q470.88,662.88 468,691"/><path class="g5 offset" style="--gs:5" d="M355,432 Q395,466 392.13,494.13 Q374.88,662.88 372,691"/><text class="g6" style="--gs:6" x="289" y="692">⑥</text><path class="g6 aligned" style="--gs:6" d="M289,692 Q326,723 332.25,748.63 Q369.75,902.38 376,928"/><path class="g6 offset" style="--gs:6" d="M374.68,623.46 Q411.68,654.46 417.93,680.08 Q455.43,833.83 461.68,859.46"/><text class="g7" style="--gs:7" x="349" y="705">⑦</text><path class="g7 aligned" style="--gs:7" d="M349,705 Q624,679 635,688.5 Q668,717 654.25,748.5 Q626.75,811.5 613,843"/><path class="g7 offset" style="--gs:7" d="M349,801 Q520.55,775 527.41,779.75 Q548,794 539.42,809.75 Q522.27,841.25 513.69,857"/><text class="g8" style="--gs:8" x="377" y="870">⑧</text><path class="g8 aligned" style="--gs:8" d="M377,870 L668,863"/><path class="g8 offset" style="--gs:8" d="M377,966 L668,959"/></g>
</svg>
