<!--
  Stroke-order data for 舶, derived from AnimCJK (https://github.com/parsimonhi/animCJK),
  itself derived from the Arphic PL KaitiM fonts. Distributed under the Arphic Public License
  (see ARPHICPL.TXT). Regenerated by scripts/build-strokes.ts — do not edit by hand.
-->
<svg id="z33334" class="acjk" viewBox="0 0 1024 1024" xmlns="http://www.w3.org/2000/svg">
<g class="glyph"><path id="z33334d1" d="M309 276C353 213 397 150 422 113C430 100 432 91 423 85C410 76 394 72 377 70C347 64 328 71 339 89C349 105 320 194 287 281C284 288 304 282 309 276Z"/><path id="z33334d2" d="M282 282C248 255 194 256 216 283C238 311 253 396 239 535C236 568 236 568 234 584C225 668 192 759 146 856C100 954 130 927 176 863C218 803 269 708 282 570C285 541 285 541 286 527C289 488 294 345 297 311C297 300 291 289 282 282Z"/><path id="z33334d3" d="M425 526C431 703 424 806 412 822C400 836 384 825 343 817C310 810 330 827 342 839C366 862 388 880 404 899C420 918 435 933 450 917C477 884 491 846 489 813C481 689 474 536 474 512C474 495 474 495 474 487C474 405 475 322 486 304C493 291 493 280 486 274C470 260 450 249 427 241C411 234 392 250 355 263C343 266 324 272 309 276C294 279 294 279 287 281C285 281 283 281 282 282C271 284 286 313 297 311C303 311 332 303 384 288C396 284 405 282 409 292C416 307 419 376 424 498C425 517 425 517 425 526Z"/><path id="z33334d4" d="M319 396C342 434 358 457 372 460C383 462 398 448 388 420C379 396 355 384 327 375C317 372 311 383 319 396Z"/><path id="z33334d5" d="M337 778C321 777 324 754 325 748C326 711 328 681 330 654C330 643 327 632 325 625C321 617 315 613 315 605C315 598 320 592 327 592C342 590 359 606 365 624C367 634 367 650 366 666C363 709 363 726 360 746C358 753 348 778 337 778Z"/><path id="z33334d6" d="M282 570C373 543 420 527 425 526C442 521 459 516 474 512C545 490 569 466 474 487C441 494 441 494 424 498C380 507 334 518 286 527C255 532 255 532 239 535C181 544 126 557 68 553C48 551 45 575 56 586C68 598 85 613 109 628C113 631 123 630 133 625C165 607 198 594 234 584C266 575 266 575 282 570Z"/><path id="z33334d7" d="M635 411C659 373 696 306 746 210C754 193 765 177 778 163C808 127 747 117 722 115C687 111 671 116 677 140C696 221 645 319 612 415C610 422 630 417 635 411Z"/><path id="z33334d8" d="M591 418C557 390 511 374 530 410C562 472 570 576 564 721C562 742 567 765 578 788C583 801 591 812 600 817C617 824 622 788 621 771C620 752 620 752 619 742C617 715 609 614 609 605C609 587 609 587 609 578C609 530 608 489 609 452C609 439 601 426 591 418Z"/><path id="z33334d9" d="M800 758C806 811 833 886 872 819C900 764 892 708 891 643C890 600 891 555 893 508C894 474 904 448 918 429C928 414 929 403 922 396C906 381 882 368 852 356C838 350 807 359 755 378C708 394 647 408 635 411C620 414 620 414 612 415C606 416 596 417 591 418C578 420 596 454 609 452C623 452 797 396 815 412C823 420 826 433 828 446C833 521 831 595 825 671C822 695 819 722 808 734C803 741 798 750 800 758Z"/><path id="z33334d10" d="M609 605C621 614 635 604 762 586C799 580 769 552 739 548C714 544 671 555 609 578C601 581 601 601 609 605Z"/><path id="z33334d11" d="M621 771C640 774 707 762 800 758C808 758 815 739 808 734C759 694 671 728 619 742C609 744 611 771 621 771Z"/></g>
<defs><clipPath id="z33334c1"><use href="#z33334d1"/></clipPath>
	<clipPath id="z33334c2"><use href="#z33334d2"/></clipPath>
	<clipPath id="z33334c3"><use href="#z33334d3"/></clipPath>
	<clipPath id="z33334c4"><use href="#z33334d4"/></clipPath>
	<clipPath id="z33334c5"><use href="#z33334d5"/></clipPath>
	<clipPath id="z33334c6"><use href="#z33334d6"/></clipPath>
	<clipPath id="z33334c7"><use href="#z33334d7"/></clipPath>
	<clipPath id="z33334c8"><use href="#z33334d8"/></clipPath>
	<clipPath id="z33334c9"><use href="#z33334d9"/></clipPath>
	<clipPath id="z33334c10"><use href="#z33334d10"/></clipPath>
	<clipPath id="z33334c11"><use href="#z33334d11"/></clipPath><marker id="guide-arrow" viewBox="0 0 16 16" refX="5" refY="5" markerWidth="4" markerHeight="4" orient="auto-start-reverse"><path d="M 0 0 L 10 5 L 0 10 z" fill="inherit"/></marker></defs>
<g class="strokes"><path pathLength="3333" clip-path="url(#z33334c1)" d="M344 79L382 115L294 278"/><path pathLength="3333" clip-path="url(#z33334c2)" d="M219 273L265 319L259 572L222 731L129 912"/><path pathLength="3333" clip-path="url(#z33334c3)" d="M285 288L413 263L452 295L451 829L417 876L334 823"/><path pathLength="3333" clip-path="url(#z33334c4)" d="M323 381L383 454"/><path pathLength="3333" clip-path="url(#z33334c5)" d="M323 597L348 644L337 772"/><path pathLength="3333" clip-path="url(#z33334c6)" d="M54 562L123 591L529 486"/><path pathLength="3333" clip-path="url(#z33334c7)" d="M682 122L732 167L620 412"/><path pathLength="3333" clip-path="url(#z33334c8)" d="M533 398L581 473L601 813"/><path pathLength="3333" clip-path="url(#z33334c9)" d="M592 429L822 382L874 418L840 842"/><path pathLength="3333" clip-path="url(#z33334c10)" d="M605 592L774 571"/><path pathLength="3333" clip-path="url(#z33334c11)" d="M618 759L806 745"/></g>
<g class="guides"><text class="g1" style="--gs:1" x="344" y="79">①</text><path class="g1 aligned" style="--gs:1" d="M344,79 Q382,115 371,135.38 Q305,257.63 294,278"/><path class="g1 offset" style="--gs:1" d="M248,79 Q286,115 275,135.38 Q209,257.63 198,278"/><text class="g2" style="--gs:2" x="219" y="273">②</text><path class="g2 aligned" style="--gs:2" d="M219,273 Q265,319 262,445.5 Q259,572 240.5,651.5 Q222,731 175.5,821.5 Q175.5,821.5 129,912"/><path class="g2 offset" style="--gs:2" d="M123,273 Q169,319 166,445.5 Q163,572 144.5,651.5 Q126,731 79.5,821.5 Q79.5,821.5 33,912"/><text class="g3" style="--gs:3" x="285" y="288">③</text><path class="g3 aligned" style="--gs:3" d="M285,288 Q413,263 432.5,279 Q452,295 451.5,562 Q451,829 434,852.5 Q417,876 375.5,849.5 Q375.5,849.5 334,823"/><path class="g3 offset" style="--gs:3" d="M285,384 Q349,359 358.75,369.86 Q368.5,380.72 368.25,561.91 Q368,743.1 359.5,759.05 Q351,775 330.25,757.02 Q330.25,757.02 309.5,739.03"/><text class="g4" style="--gs:4" x="323" y="381">④</text><path class="g4 aligned" style="--gs:4" d="M323,381 L383,454"/><path class="g4 offset" style="--gs:4" d="M408.68,312.46 L468.68,385.46"/><text class="g5" style="--gs:5" x="323" y="597">⑤</text><path class="g5 aligned" style="--gs:5" d="M323,597 Q348,644 346.63,660 Q338.38,756 337,772"/><path class="g5 offset" style="--gs:5" d="M443,597 Q468,644 466.63,660 Q458.38,756 457,772"/><text class="g6" style="--gs:6" x="54" y="562">⑥</text><path class="g6 aligned" style="--gs:6" d="M54,562 Q123,591 173.75,577.88 Q478.25,499.13 529,486"/><path class="g6 offset" style="--gs:6" d="M54,658 Q123,687 173.75,673.88 Q478.25,595.13 529,582"/><text class="g7" style="--gs:7" x="682" y="122">⑦</text><path class="g7 aligned" style="--gs:7" d="M682,122 Q732,167 718,197.63 Q634,381.38 620,412"/><path class="g7 offset" style="--gs:7" d="M586,122 Q636,167 622,197.63 Q538,381.38 524,412"/><text class="g8" style="--gs:8" x="533" y="398">⑧</text><path class="g8 aligned" style="--gs:8" d="M533,398 Q581,473 583.5,515.5 Q598.5,770.5 601,813"/><path class="g8 offset" style="--gs:8" d="M618.68,329.46 Q666.68,404.46 669.18,446.96 Q684.18,701.96 686.68,744.46"/><text class="g9" style="--gs:9" x="592" y="429">⑨</text><path class="g9 aligned" style="--gs:9" d="M592,429 Q822,382 835,391 Q874,418 865.5,524 Q848.5,736 840,842"/><path class="g9 offset" style="--gs:9" d="M592,525 Q724.13,478 731.6,487 Q754,514 749.12,596 Q739.35,760 734.47,842"/><text class="g10" style="--gs:10" x="605" y="592">⑩</text><path class="g10 aligned" style="--gs:10" d="M605,592 L774,571"/><path class="g10 offset" style="--gs:10" d="M605,688 L774,667"/><text class="g11" style="--gs:11" x="618" y="759">⑪</text><path class="g11 aligned" style="--gs:11" d="M618,759 L806,745"/><path class="g11 offset" style="--gs:11" d="M618,855 L806,841"/></g>
</svg>
