<!--
  Stroke-order data for 芹, derived from AnimCJK (https://github.com/parsimonhi/animCJK),
  itself derived from the Arphic PL KaitiM fonts. Distributed under the Arphic Public License
  (see ARPHICPL.TXT). Regenerated by scripts/build-strokes.ts — do not edit by hand.
-->
<svg id="z33465" class="acjk" viewBox="0 0 1024 1024" xmlns="http://www.w3.org/2000/svg">
<g class="glyph"><path style="--part:1" id="z33465d1" d="M624 202C673 198 732 198 797 201C846 202 874 199 878 193C882 186 878 177 868 169C831 141 793 136 752 145C719 151 682 156 643 162C608 167 608 167 590 169C531 176 475 183 421 189C390 192 390 192 375 194C302 201 226 208 148 216C135 217 132 221 142 233C150 241 160 250 172 254C184 258 195 257 206 255C261 240 336 229 382 224C409 221 409 221 423 219C448 215 546 207 580 205C609 203 609 203 624 202Z"/><path style="--part:1" id="z33465d2" d="M421 189C419 166 417 147 417 130C417 117 411 110 399 106C373 95 354 89 340 95C329 99 327 109 338 122C355 142 367 166 375 194C380 214 380 214 382 224C385 235 386 244 389 256C392 268 398 280 408 289C416 296 422 295 425 288C427 280 426 259 423 219C422 199 422 199 421 189Z"/><path style="--part:1" id="z33465d3" d="M643 162C667 110 692 101 679 82C671 70 656 60 635 47C623 40 614 39 603 45C596 48 596 53 600 62C606 75 605 112 590 169C583 193 583 193 580 205C573 229 565 244 567 261C567 268 573 270 583 264C593 257 606 238 624 202C637 175 637 175 643 162Z"/><path style="--part:2" id="z33465d4" d="M359 418C411 411 603 363 659 355C682 351 698 337 687 323C673 305 625 279 604 275C591 272 584 283 583 290C574 321 504 351 354 400C348 402 353 419 359 418Z"/><path style="--part:2" id="z33465d5" d="M344 514C347 483 353 431 359 418C361 412 359 404 354 400C351 397 348 395 345 393C314 376 294 368 284 369C271 369 270 377 279 394C298 432 297 510 274 627C268 655 256 684 241 717C224 751 192 792 141 838C131 846 124 851 123 856C120 860 124 863 132 863C156 863 190 844 232 804C271 765 300 708 321 634C331 599 336 570 341 538C343 522 343 522 344 514Z"/><path style="--part:2" id="z33465d6" d="M600 515C656 507 742 503 860 503C872 503 879 499 883 494C886 487 883 478 872 470C838 445 809 436 785 442C737 452 590 476 344 514C336 515 335 533 341 538C357 552 381 557 411 549C450 538 492 529 540 523C580 518 580 518 600 515Z"/><path style="--part:2" id="z33465d7" d="M562 939C564 955 569 967 574 973C577 977 582 980 587 978C605 967 616 910 615 812C613 721 615 635 627 553C630 530 616 524 600 515C583 505 530 506 540 523C549 539 556 557 557 574C559 636 559 717 559 816C558 876 558 917 562 939Z"/></g>
<defs><clipPath id="z33465c1"><use href="#z33465d1"/></clipPath>
	<clipPath id="z33465c2"><use href="#z33465d2"/></clipPath>
	<clipPath id="z33465c3"><use href="#z33465d3"/></clipPath>
	<clipPath id="z33465c4"><use href="#z33465d4"/></clipPath>
	<clipPath id="z33465c5"><use href="#z33465d5"/></clipPath>
	<clipPath id="z33465c6"><use href="#z33465d6"/></clipPath>
	<clipPath id="z33465c7"><use href="#z33465d7"/></clipPath><marker id="guide-arrow" viewBox="0 0 16 16" refX="5" refY="5" markerWidth="4" markerHeight="4" orient="auto-start-reverse"><path d="M 0 0 L 10 5 L 0 10 z" fill="inherit"/></marker></defs>
<g class="strokes"><path style="--part:1" pathLength="3333" clip-path="url(#z33465c1)" d="M145 223L193 234L756 171L875 186"/><path style="--part:1" pathLength="3333" clip-path="url(#z33465c2)" d="M337 106L386 133L415 286"/><path style="--part:1" pathLength="3333" clip-path="url(#z33465c3)" d="M604 49L642 94L572 258"/><path style="--part:2" pathLength="3333" clip-path="url(#z33465c4)" d="M597 280L627 335L359 408"/><path style="--part:2" pathLength="3333" clip-path="url(#z33465c5)" d="M281 377L324 421L289 660L234 770L132 855"/><path style="--part:2" pathLength="3333" clip-path="url(#z33465c6)" d="M341 523L796 471L880 485"/><path style="--part:2" pathLength="3333" clip-path="url(#z33465c7)" d="M545 517L591 551L584 974"/></g>
<g class="guides"><text class="g1" style="--gs:1" x="145" y="223">①</text><path class="g1 aligned" style="--gs:1" d="M145,223 Q193,234 333.75,218.25 Q756,171 785.75,174.75 Q845.25,182.25 875,186"/><path class="g1 offset" style="--gs:1" d="M145,319 Q193,330 333.75,314.25 Q756,267 785.75,270.75 Q845.25,278.25 875,282"/><text class="g2" style="--gs:2" x="337" y="106">②</text><path class="g2 aligned" style="--gs:2" d="M337,106 Q386,133 389.63,152.13 Q411.38,266.88 415,286"/><path class="g2 offset" style="--gs:2" d="M337,202 Q361.5,215.5 363.31,225.06 Q374.19,282.44 376,292"/><text class="g3" style="--gs:3" x="604" y="49">③</text><path class="g3 aligned" style="--gs:3" d="M604,49 Q642,94 633.25,114.5 Q580.75,237.5 572,258"/><path class="g3 offset" style="--gs:3" d="M508,49 Q546,94 537.25,114.5 Q484.75,237.5 476,258"/><text class="g4" style="--gs:4" x="597" y="280">④</text><path class="g4 aligned" style="--gs:4" d="M597,280 Q627,335 593.5,344.13 Q392.5,398.88 359,408"/><path class="g4 offset" style="--gs:4" d="M501,280 Q517.57,307.5 499.07,312.06 Q388.07,339.44 369.57,344"/><text class="g5" style="--gs:5" x="281" y="377">⑤</text><path class="g5 aligned" style="--gs:5" d="M281,377 Q324,421 306.5,540.5 Q289,660 261.5,715 Q234,770 183,812.5 Q183,812.5 132,855"/><path class="g5 offset" style="--gs:5" d="M185,377 Q206.5,412.16 197.75,507.66 Q189,603.16 175.25,647.12 Q161.5,691.07 136,725.04 Q136,725.04 110.5,759"/><text class="g6" style="--gs:6" x="341" y="523">⑥</text><path class="g6 aligned" style="--gs:6" d="M341,523 Q796,471 806.5,472.75 Q869.5,483.25 880,485"/><path class="g6 offset" style="--gs:6" d="M341,619 Q796,567 806.5,568.75 Q869.5,579.25 880,581"/><text class="g7" style="--gs:7" x="545" y="517">⑦</text><path class="g7 aligned" style="--gs:7" d="M545,517 Q591,551 590.13,603.88 Q584.88,921.13 584,974"/><path class="g7 offset" style="--gs:7" d="M449,517 Q495,551 494.13,603.88 Q488.88,921.13 488,974"/></g>
<g class="parts"><rect data-part="2" data-literal="斤" role="button" tabindex="0" aria-label="Part 斤" x="60" y="208" width="892" height="816"/><rect data-part="1" data-literal="艹" data-radical="true" role="button" tabindex="0" aria-label="Part 艹 (radical)" x="73" y="0" width="874" height="358"/></g>
</svg>
