<svg id="z33467" class="acjk" viewBox="0 0 1024 1024" xmlns="http://www.w3.org/2000/svg">
<style>

@keyframes zk {
	to {
		stroke-dashoffset:0;
	}
}
svg.acjk path[clip-path] {
	--t:0.8s;
	animation:zk var(--t) linear forwards var(--d);
	stroke-dasharray:3337;
	stroke-dashoffset:3339;
	stroke-width:128;
	stroke-linecap:round;
	fill:none;
	stroke:#000;
}
svg.acjk path[id] {fill:#ccc;}


    @keyframes guide-fade {
        0% { opacity: 0; }
        3% { opacity: 1; }
        95% { opacity: 1; }
        100% { opacity: 0; }
    }

    svg.acjk #guide-arrow {
        fill: #f77;
    }

    svg.acjk .guides {
        circle {
            fill: #0f6;
        }

        path {
            opacity: 0;
            animation: guide-fade var(--t) linear forwards var(--d);
            stroke-width: 16px;
            stroke-linecap: round;
            stroke: #f77;
            fill: none;
            marker-end: url(#guide-arrow);
        }

        circle,
        path {
            --t: 0.8s;
            opacity: 0;
            animation: guide-fade calc(var(--t) + 0.4s) ease-in-out forwards calc(var(--d) - 0.2s);
        }
    }
</style>
<path id="z33467d1" d="M346 205C399 155 418 139 443 123C452 117 453 110 450 103C447 95 436 83 415 71C395 59 388 53 374 53C360 52 355 59 357 73C362 117 280 214 163 327C138 351 153 353 171 345C188 337 300 247 324 226C339 212 339 212 346 205Z"/>
<path id="z33467d2" d="M324 226C345 245 366 248 389 243C459 226 577 212 690 198C715 194 735 216 729 258C724 290 715 332 698 385C693 398 682 403 664 402C650 400 636 400 625 400C590 398 636 426 641 431C656 445 659 457 669 471C676 479 686 480 695 478C703 476 714 466 728 450C742 433 758 403 768 357C786 273 790 224 804 215C812 209 817 203 812 196C807 188 789 171 762 156C731 138 717 146 667 160C492 202 372 200 346 205C336 207 316 220 324 226Z"/>
<path id="z33467d3" d="M454 379C466 376 514 369 552 367C562 367 574 341 564 341C537 343 490 347 467 351C430 357 430 357 411 360C389 363 358 368 338 373C330 375 327 370 330 364C341 337 340 319 334 310C325 292 311 281 290 282C284 282 283 288 286 298C293 316 292 332 288 349C283 365 277 376 270 383C259 392 254 398 259 404C265 411 273 417 283 422C292 426 300 426 305 422C319 412 349 401 399 391C436 383 436 383 454 379Z"/>
<path id="z33467d4" d="M552 367C552 379 555 389 560 398C564 404 570 405 578 401C586 396 595 381 608 353C630 305 645 311 624 289C617 281 608 275 599 271C593 267 587 267 580 268C574 268 571 273 571 281C571 285 573 305 564 341C562 350 552 357 552 367Z"/>
<path id="z33467d5" d="M399 391C391 411 340 462 314 486C290 508 323 496 347 483C375 466 442 404 454 379C463 360 463 360 467 351C499 281 511 286 449 263C439 259 431 256 423 259C416 261 416 265 417 272C425 308 420 337 411 360C403 381 403 381 399 391Z"/>
<path id="z33467d6" d="M365 559C375 549 412 514 406 505C403 499 393 495 376 493C357 490 348 490 340 493C337 494 335 497 334 504C324 549 253 618 158 692C147 700 152 708 167 703C231 679 308 612 341 582C357 567 357 567 365 559Z"/>
<path id="z33467d7" d="M341 582C357 594 374 601 395 600C447 596 540 563 728 534C767 527 763 578 758 597C740 676 728 775 700 810C688 824 673 832 655 829C638 825 618 819 604 814C587 807 581 812 593 826C618 853 637 876 652 893C667 909 685 906 702 896C729 880 754 864 769 836C785 804 803 671 815 611C822 578 830 553 847 538C855 530 858 525 854 520C847 513 826 500 789 488C775 483 761 484 747 491C709 507 434 563 365 559C354 559 332 575 341 582Z"/>
<path id="z33467d8" d="M496 743C534 734 592 732 603 735C613 737 624 705 613 705C585 707 530 710 508 714C467 721 467 721 446 725C416 730 369 737 345 743C337 744 336 741 339 734C351 705 354 687 350 679C342 663 328 649 301 648C295 647 291 654 294 664C301 683 303 701 295 719C289 735 280 747 269 754C257 761 253 769 259 776C264 783 274 789 285 795C294 799 302 800 308 796C322 784 371 771 435 757C476 748 476 748 496 743Z"/>
<path id="z33467d9" d="M603 735C607 745 608 754 613 761C616 765 619 765 627 761C641 751 653 739 656 726C665 686 671 668 682 651C688 642 684 631 674 624C665 617 661 613 652 609C646 605 639 605 631 607C626 608 622 613 623 620C626 636 627 664 613 705C610 715 599 725 603 735Z"/>
<path id="z33467d10" d="M435 757C419 815 348 873 277 917C267 923 260 927 257 930C256 934 259 936 267 937C288 937 315 926 359 902C404 874 469 815 496 743C504 724 504 724 508 714C513 690 524 670 531 656C536 645 532 637 519 631C486 615 466 607 455 608C440 608 438 615 447 628C459 652 454 677 446 725C439 746 439 746 435 757Z"/>
<defs>
	<clipPath id="z33467c1"><use href="#z33467d1"/></clipPath>
	<clipPath id="z33467c2"><use href="#z33467d2"/></clipPath>
	<clipPath id="z33467c3"><use href="#z33467d3"/></clipPath>
	<clipPath id="z33467c4"><use href="#z33467d4"/></clipPath>
	<clipPath id="z33467c5"><use href="#z33467d5"/></clipPath>
	<clipPath id="z33467c6"><use href="#z33467d6"/></clipPath>
	<clipPath id="z33467c7"><use href="#z33467d7"/></clipPath>
	<clipPath id="z33467c8"><use href="#z33467d8"/></clipPath>
	<clipPath id="z33467c9"><use href="#z33467d9"/></clipPath>
	<clipPath id="z33467c10"><use href="#z33467d10"/></clipPath>
<marker id="guide-arrow" viewBox="0 0 16 16" refX="5" refY="5" markerWidth="4" markerHeight="4" orient="auto-start-reverse"><path d="M 0 0 L 10 5 L 0 10 z" fill="inherit"/></marker></defs>
<path style="--d:1s;" pathLength="3333" clip-path="url(#z33467c1)" d="M367 59L399 113L158 341"/>
<path style="--d:2s;" pathLength="3333" clip-path="url(#z33467c2)" d="M326 221L742 183L770 220L717 411L683 440L622 407"/>
<path style="--d:3s;" pathLength="3333" clip-path="url(#z33467c3)" d="M293 288L314 326L306 397L562 351"/>
<path style="--d:4s;" pathLength="3333" clip-path="url(#z33467c4)" d="M578 274L601 310L568 399"/>
<path style="--d:5s;" pathLength="3333" clip-path="url(#z33467c5)" d="M424 264L457 296L437 360L315 491"/>
<path style="--d:6s;" pathLength="3333" clip-path="url(#z33467c6)" d="M343 496L364 519L322 570L161 698"/>
<path style="--d:7s;" pathLength="3333" clip-path="url(#z33467c7)" d="M346 577L746 512L807 539L734 824L672 866L594 818"/>
<path style="--d:8s;" pathLength="3333" clip-path="url(#z33467c8)" d="M302 657L326 694L300 754L317 770L613 715"/>
<path style="--d:9s;" pathLength="3333" clip-path="url(#z33467c9)" d="M630 613L654 649L613 757"/>
<path style="--d:10s;" pathLength="3333" clip-path="url(#z33467c10)" d="M448 615L493 659L451 782L376 868L265 928"/>
<g class="guides"><circle style="--d: 1s" class="g1" cx="367" cy="59" r="16"/><path style="--d: 1s;" class="g1" d="M271,59 Q290.253112033195,94.61702127659575 272.128112033195,113.41489361702128 Q163.378112033195,226.20212765957447 145.253112033195,245"/><circle style="--d: 2s" class="g2" cx="326" cy="221" r="16"/><path style="--d: 2s;" class="g2" d="M326,317 Q558.3603603603603,279 566.1801801801802,297.5 Q574,316 559.1981981981983,411.5 Q544.3963963963964,507 534.900900900901,521.5 Q525.4054054054054,536 508.3693693693694,519.5 Q508.3693693693694,519.5 491.33333333333337,503"/><circle style="--d: 3s" class="g3" cx="293" cy="288" r="16"/><path style="--d: 3s;" class="g3" d="M413,288 Q424.63197026022306,307 423.52416356877325,315.875 Q420.2007434944238,342.5 455.65055762081784,336.75 Q526.550185873606,325.25 562,319.5"/><circle style="--d: 4s" class="g4" cx="578" cy="274" r="16"/><path style="--d: 4s;" class="g4" d="M482,274 Q505,310 500.875,321.125 Q476.125,387.875 472,399"/><circle style="--d: 5s" class="g5" cx="424" cy="264" r="16"/><path style="--d: 5s;" class="g5" d="M328,264 Q344.5,282.4669603524229 342,291.7004405286344 Q334.5,319.40088105726875 319.25,338.3006607929516 Q288.75,376.10022026431716 273.5,395"/><circle style="--d: 6s" class="g6" cx="354" cy="508" r="16"/><path style="--d: 6s;" class="g6" d="M258,508 Q242,539 231.9375,547 Q171.5625,595 161.5,603"/><circle style="--d: 7s" class="g7" cx="346" cy="577" r="16"/><path style="--d: 7s;" class="g7" d="M346,673 Q662.702819956616,608 686.8514099783081,621.5 Q711,635 682.1008676789588,699.5 Q653.2017353579175,764 628.6572668112798,774.5 Q604.112798264642,785 573.234273318872,773 Q573.234273318872,773 542.355748373102,761"/><circle style="--d: 8s" class="g8" cx="302" cy="657" r="16"/><path style="--d: 8s;" class="g8" d="M387.68,588.456 Q405.1102875399361,616.465982300885 395.6688817891374,639.176778761062 Q386.2274760383387,661.887575221239 392.40070287539936,667.9437876106194 Q398.5739297124601,674 506.06070287539933,653.1817699115045 Q506.06070287539933,653.1817699115045 613.5474760383386,632.3635398230089"/><circle style="--d: 9s" class="g9" cx="630" cy="613" r="16"/><path style="--d: 9s;" class="g9" d="M534,613 Q558,649 552.875,662.5 Q522.125,743.5 517,757"/><circle style="--d: 10s" class="g10" cx="448" cy="615" r="16"/><path style="--d: 10s;" class="g10" d="M352,615 Q378.0526315789474,645.5047923322684 365.8947368421053,688.1421725239617 Q353.7368421052632,730.779552715655 332.0263157894737,760.591054313099 Q310.3157894736842,790.4025559105431 278.18421052631584,811.2012779552715 Q278.18421052631584,811.2012779552715 246.0526315789474,832"/></g></svg>