<!--
  Stroke-order data for 苛, derived from AnimCJK (https://github.com/parsimonhi/animCJK),
  itself derived from the Arphic PL KaitiM fonts. Distributed under the Arphic Public License
  (see ARPHICPL.TXT). Regenerated by scripts/build-strokes.ts — do not edit by hand.
-->
<svg id="z33499" class="acjk" viewBox="0 0 1024 1024" xmlns="http://www.w3.org/2000/svg">
<g class="glyph"><path id="z33499d1" d="M617 225Q705 216 782 221Q798 222 803 213Q807 201 795 186Q737 143 643 170Q640 170 639 171C598 178 598 178 577 182Q495 194 407 207C374 212 374 212 358 214Q294 221 227 229Q197 233 218 249Q263 276 322 264Q341 258 365 254C394 249 394 249 409 246Q460 233 565 228C600 226 600 226 617 225Z"/><path id="z33499d2" d="M407 207Q406 170 406 139Q407 120 388 112Q348 90 325 97Q306 104 320 125Q350 167 358 214C363 241 363 241 365 254Q372 315 388 332Q401 344 406 331Q412 310 409 246C408 220 408 220 407 207Z"/><path id="z33499d3" d="M639 171Q651 144 671 110Q687 94 675 82Q662 63 624 44Q605 34 586 43Q576 50 584 62Q594 86 590 114Q586 144 577 182C569 213 569 213 565 228Q544 291 546 315Q547 331 565 319Q580 306 617 225C632 189 632 189 639 171Z"/><path id="z33499d4" d="M641 408Q729 404 838 405Q872 406 903 405Q925 406 931 396Q937 383 919 368Q862 325 820 333Q589 375 102 428Q80 429 96 449Q112 465 131 471Q155 477 172 472Q361 423 589 410C624 409 624 409 641 408Z"/><path id="z33499d5" d="M293 530Q281 524 253 519Q240 515 237 521Q230 527 239 543Q264 595 278 681Q281 706 296 724Q314 746 319 731Q323 718 323 696C320 674 320 674 319 663Q307 582 307 558C307 548 303 534 293 530Z"/><path id="z33499d6" d="M460 640Q476 576 497 556Q519 531 496 517Q433 484 430 484Q421 484 413 489Q380 510 293 530C283 532 297 560 307 558Q358 546 392 539Q414 535 420 543Q426 547 421 575Q415 605 409 640C406 657 457 657 460 640Z"/><path id="z33499d7" d="M323 696Q333 697 344 694Q386 684 477 675Q487 674 489 664Q489 657 460 640C445 631 426 637 409 640Q358 653 319 663C308 665 312 696 323 696Z"/><path id="z33499d8" d="M551 874Q526 868 493 863Q480 862 481 868Q482 877 494 885Q567 934 614 975Q627 984 641 967Q681 910 674 827Q667 559 673 472Q680 444 673 433Q666 423 641 408C626 399 586 393 589 410Q590 417 597 427Q607 452 608 843Q605 862 597 874Q584 883 551 874Z"/></g>
<defs><clipPath id="z33499c1"><use href="#z33499d1"/></clipPath>
	<clipPath id="z33499c2"><use href="#z33499d2"/></clipPath>
	<clipPath id="z33499c3"><use href="#z33499d3"/></clipPath>
	<clipPath id="z33499c4"><use href="#z33499d4"/></clipPath>
	<clipPath id="z33499c5"><use href="#z33499d5"/></clipPath>
	<clipPath id="z33499c6"><use href="#z33499d6"/></clipPath>
	<clipPath id="z33499c7"><use href="#z33499d7"/></clipPath>
	<clipPath id="z33499c8"><use href="#z33499d8"/></clipPath><marker id="guide-arrow" viewBox="0 0 16 16" refX="5" refY="5" markerWidth="4" markerHeight="4" orient="auto-start-reverse"><path d="M 0 0 L 10 5 L 0 10 z" fill="inherit"/></marker></defs>
<g class="strokes"><path pathLength="3333" clip-path="url(#z33499c1)" d="M216 237L300 244L707 189L799 206"/><path pathLength="3333" clip-path="url(#z33499c2)" d="M320 105L375 153L398 330"/><path pathLength="3333" clip-path="url(#z33499c3)" d="M587 50L635 97L557 315"/><path pathLength="3333" clip-path="url(#z33499c4)" d="M94 435L148 449L811 369L928 388"/><path pathLength="3333" clip-path="url(#z33499c5)" d="M242 524L277 560L306 729"/><path pathLength="3333" clip-path="url(#z33499c6)" d="M301 533L411 513L455 530L465 548L422 638"/><path pathLength="3333" clip-path="url(#z33499c7)" d="M329 689L481 663"/><path pathLength="3333" clip-path="url(#z33499c8)" d="M598 414L638 450L636 880L603 927L489 869"/></g>
<g class="guides"><text class="g1" style="--gs:1" x="216" y="237">①</text><path class="g1 aligned" style="--gs:1" d="M216,237 Q300,244 401.75,230.25 Q707,189 730,193.25 Q776,201.75 799,206"/><path class="g1 offset" style="--gs:1" d="M216,333 Q300,340 401.75,326.25 Q707,285 730,289.25 Q776,297.75 799,302"/><text class="g2" style="--gs:2" x="320" y="105">②</text><path class="g2 aligned" style="--gs:2" d="M320,105 Q375,153 377.88,175.13 Q395.13,307.88 398,330"/><path class="g2 offset" style="--gs:2" d="M405.68,36.46 Q460.68,84.46 463.56,106.58 Q480.81,239.33 483.68,261.46"/><text class="g3" style="--gs:3" x="587" y="50">③</text><path class="g3 aligned" style="--gs:3" d="M587,50 Q635,97 625.25,124.25 Q566.75,287.75 557,315"/><path class="g3 offset" style="--gs:3" d="M491,50 Q539,97 529.25,124.25 Q470.75,287.75 461,315"/><text class="g4" style="--gs:4" x="94" y="435">④</text><path class="g4 aligned" style="--gs:4" d="M94,435 Q148,449 313.75,429 Q811,369 840.25,373.75 Q898.75,383.25 928,388"/><path class="g4 offset" style="--gs:4" d="M94,531 Q148,545 313.75,525 Q811,465 840.25,469.75 Q898.75,479.25 928,484"/><text class="g5" style="--gs:5" x="242" y="524">⑤</text><path class="g5 aligned" style="--gs:5" d="M242,524 Q277,560 280.63,581.13 Q302.38,707.88 306,729"/><path class="g5 offset" style="--gs:5" d="M327.68,455.46 Q362.68,491.46 366.31,512.58 Q388.06,639.33 391.68,660.46"/><text class="g6" style="--gs:6" x="301" y="533">⑥</text><path class="g6 aligned" style="--gs:6" d="M301,533 Q411,513 433,521.5 Q455,530 460,539 Q465,548 443.5,593 Q443.5,593 422,638"/><path class="g6 offset" style="--gs:6" d="M301,629 Q356,609 367,617.5 Q378,626 380.5,626.25 Q383,626.5 372.25,649 Q372.25,649 361.5,671.5"/><text class="g7" style="--gs:7" x="329" y="689">⑦</text><path class="g7 aligned" style="--gs:7" d="M329,689 L481,663"/><path class="g7 offset" style="--gs:7" d="M329,785 L481,759"/><text class="g8" style="--gs:8" x="598" y="414">⑧</text><path class="g8 aligned" style="--gs:8" d="M598,414 Q638,450 637,665 Q636,880 619.5,903.5 Q603,927 546,898 Q546,898 489,869"/><path class="g8 offset" style="--gs:8" d="M502,414 Q522,443.26 521.5,618.03 Q521,792.8 512.75,811.9 Q504.5,831 476,807.43 Q476,807.43 447.5,783.85"/></g>
</svg>
