<svg id="z33530" class="acjk" viewBox="0 0 1024 1024" xmlns="http://www.w3.org/2000/svg">
<style>

@keyframes zk {
	to {
		stroke-dashoffset:0;
	}
}
svg.acjk path[clip-path] {
	--t:0.8s;
	animation:zk var(--t) linear forwards var(--d);
	stroke-dasharray:3337;
	stroke-dashoffset:3339;
	stroke-width:128;
	stroke-linecap:round;
	fill:none;
	stroke:#000;
}
svg.acjk path[id] {fill:#ccc;}


    @keyframes guide-fade {
        0% { opacity: 0; }
        3% { opacity: 1; }
        95% { opacity: 1; }
        100% { opacity: 0; }
    }

    svg.acjk #guide-arrow {
        fill: #f77;
    }

    svg.acjk .guides {
        circle {
            fill: #0f6;
        }

        path {
            opacity: 0;
            animation: guide-fade var(--t) linear forwards var(--d);
            stroke-width: 16px;
            stroke-linecap: round;
            stroke: #f77;
            fill: none;
            marker-end: url(#guide-arrow);
        }

        circle,
        path {
            --t: 0.8s;
            opacity: 0;
            animation: guide-fade calc(var(--t) + 0.4s) ease-in-out forwards calc(var(--d) - 0.2s);
        }
    }
</style>
<path id="z33530d1" d="M625 217C713 213 784 211 840 217C850 218 858 214 862 208C866 200 864 189 854 181C817 149 765 144 702 158C682 162 662 164 644 167C604 173 604 173 584 176C534 183 482 188 428 195C391 200 391 200 373 202C310 209 245 212 177 219C156 221 152 228 167 239C196 259 241 264 301 252C327 246 354 241 382 237C413 232 413 232 428 230C473 223 523 221 575 219C608 218 608 218 625 217Z"/>
<path id="z33530d2" d="M428 195C428 178 426 153 427 141C428 126 421 119 408 113C380 99 359 90 343 97C329 102 328 113 339 127C354 147 367 178 373 202C379 225 379 225 382 237C391 272 396 307 407 319C415 328 422 328 426 319C430 305 428 268 428 230C428 207 428 207 428 195Z"/>
<path id="z33530d3" d="M644 167C649 152 658 125 671 109C679 97 681 90 675 83C665 72 649 61 625 49C613 43 602 41 590 49C582 53 583 59 588 67C595 80 594 124 584 176C578 205 578 205 575 219C566 261 561 287 562 298C563 308 569 310 580 301C587 294 606 266 625 217C638 184 638 184 644 167Z"/>
<path id="z33530d4" d="M405 361C394 350 381 340 366 332C351 323 343 324 339 331C335 338 336 344 341 353C354 377 357 404 353 432C346 472 338 498 327 536C318 566 318 566 313 581C307 597 300 616 291 633C273 666 258 686 224 716C210 727 202 738 204 751C206 763 215 775 229 789C241 801 255 800 274 787C306 764 375 754 479 753C549 751 585 757 594 759C641 765 641 765 665 768C707 773 749 782 793 795C805 798 817 800 829 797C837 794 841 786 837 775C831 760 821 749 808 737C795 725 779 718 758 718C741 718 696 715 671 714C626 712 626 712 604 711C529 707 436 711 325 720C312 721 307 712 313 698C329 654 348 622 364 574C368 560 378 532 378 532C407 443 417 404 418 394C420 382 414 368 405 361Z"/>
<path id="z33530d5" d="M686 507C689 438 699 410 711 397C724 380 725 367 717 359C700 342 678 331 653 322C639 317 626 316 610 321C546 339 477 352 405 361C393 363 406 396 418 394C446 389 499 379 575 363C593 359 608 361 620 370C630 377 635 398 633 431C631 463 630 482 628 512C626 540 626 540 625 554C620 622 613 666 604 711C604 711 597 743 594 759C584 807 581 820 572 839C565 852 552 853 536 850C490 840 468 836 471 834C448 829 446 835 464 853C488 877 510 903 530 930C545 951 560 956 574 948C626 915 653 869 665 768C665 768 669 732 671 714C673 696 679 649 684 551C685 522 685 522 686 507Z"/>
<path id="z33530d6" d="M475 433C497 477 508 493 525 498C533 500 542 496 547 485C550 476 549 465 545 452C541 441 535 437 523 429C503 417 493 413 484 409C479 407 475 408 473 416C471 420 471 426 475 433Z"/>
<path id="z33530d7" d="M447 616C470 664 483 681 499 685C507 687 517 684 524 672C528 664 527 650 522 635C518 623 511 619 499 611C477 596 467 592 458 589C451 586 447 589 445 597C443 601 443 608 447 616Z"/>
<path id="z33530d8" d="M684 551C758 547 840 551 928 563C944 565 953 564 958 558C963 549 963 541 955 533C936 514 912 497 883 483C874 478 861 480 843 484C790 494 738 502 686 507C647 510 647 510 628 512C565 517 516 520 482 523C443 525 408 529 378 532C344 535 344 535 327 536C306 537 288 538 273 540C221 546 156 549 79 548C70 547 64 550 64 558C62 566 68 576 81 586C91 594 107 603 128 612C134 614 144 614 157 609C165 605 217 594 313 581C347 576 347 576 364 574C364 573 448 567 615 554C617 553 621 554 625 554C664 552 664 552 684 551Z"/>
<defs>
	<clipPath id="z33530c1"><use href="#z33530d1"/></clipPath>
	<clipPath id="z33530c2"><use href="#z33530d2"/></clipPath>
	<clipPath id="z33530c3"><use href="#z33530d3"/></clipPath>
	<clipPath id="z33530c4"><use href="#z33530d4"/></clipPath>
	<clipPath id="z33530c5"><use href="#z33530d5"/></clipPath>
	<clipPath id="z33530c6"><use href="#z33530d6"/></clipPath>
	<clipPath id="z33530c7"><use href="#z33530d7"/></clipPath>
	<clipPath id="z33530c8"><use href="#z33530d8"/></clipPath>
<marker id="guide-arrow" viewBox="0 0 16 16" refX="5" refY="5" markerWidth="4" markerHeight="4" orient="auto-start-reverse"><path d="M 0 0 L 10 5 L 0 10 z" fill="inherit"/></marker></defs>
<path style="--d:1s;" pathLength="3333" clip-path="url(#z33530c1)" d="M167 227L268 234L735 182L859 196"/>
<path style="--d:2s;" pathLength="3333" clip-path="url(#z33530c2)" d="M338 106L395 150L413 318"/>
<path style="--d:3s;" pathLength="3333" clip-path="url(#z33530c3)" d="M593 55L635 100L570 301"/>
<path style="--d:4s;" pathLength="3333" clip-path="url(#z33530c4)" d="M345 333L386 403L334 591L260 731L275 758L582 732L765 752L832 787"/>
<path style="--d:5s;" pathLength="3333" clip-path="url(#z33530c5)" d="M413 367L613 342L677 382L605 856L553 901L461 838"/>
<path style="--d:6s;" pathLength="3333" clip-path="url(#z33530c6)" d="M481 419L538 489"/>
<path style="--d:7s;" pathLength="3333" clip-path="url(#z33530c7)" d="M451 595L510 682"/>
<path style="--d:8s;" pathLength="3333" clip-path="url(#z33530c8)" d="M68 558L141 580L851 518L957 549"/>
<g class="guides"><circle style="--d: 1s" class="g1" cx="167" cy="227" r="16"/><path style="--d: 1s;" class="g1" d="M167,323 Q268,330 384.75,317 Q735,278 766,281.5 Q828,288.5 859,292"/><circle style="--d: 2s" class="g2" cx="338" cy="106" r="16"/><path style="--d: 2s;" class="g2" d="M423.68,37.456 Q480.68,81.456 482.93,102.456 Q496.43,228.45600000000002 498.68,249.45600000000002"/><circle style="--d: 3s" class="g3" cx="593" cy="55" r="16"/><path style="--d: 3s;" class="g3" d="M497,55 Q539,100 530.875,125.125 Q482.125,275.875 474,301"/><circle style="--d: 4s" class="g4" cx="345" cy="333" r="16"/><path style="--d: 4s;" class="g4" d="M430.68,264.456 Q465.53860139860143,330.2226960352423 443.43314685314687,418.5379735682819 Q421.3276923076923,506.8532511013216 389.8699300699301,572.619947136564 Q358.4121678321678,638.3866431718062 364.78874125874125,651.0702202643172 Q371.1653146853147,663.7537973568282 501.67251748251743,651.5399823788546 Q632.1797202797202,639.3261674008811 709.973916083916,648.72140969163 Q787.7681118881119,658.1166519823788 816.2501398601398,674.5583259911893 Q816.2501398601398,674.5583259911893 844.7321678321678,691"/><circle style="--d: 5s" class="g5" cx="413" cy="367" r="16"/><path style="--d: 5s;" class="g5" d="M413,463 Q540.2727272727273,438 560.6363636363636,450.5939177101968 Q581,463.1878354203936 558.0909090909091,612.4257602862255 Q535.1818181818182,761.6636851520573 518.6363636363637,775.8318425760286 Q502.0909090909091,790 472.81818181818187,770.16457960644 Q472.81818181818187,770.16457960644 443.54545454545456,750.3291592128801"/><circle style="--d: 6s" class="g6" cx="481" cy="419" r="16"/><path style="--d: 6s;" class="g6" d="M566.68,350.456 L623.68,420.456"/><circle style="--d: 7s" class="g7" cx="451" cy="595" r="16"/><path style="--d: 7s;" class="g7" d="M536.68,526.456 L595.68,613.456"/><circle style="--d: 8s" class="g8" cx="68" cy="558" r="16"/><path style="--d: 8s;" class="g8" d="M68,654 Q141,676 318.5,660.5 Q851,614 877.5,621.75 Q930.5,637.25 957,645"/></g></svg>