<svg id="z33538" class="acjk" viewBox="0 0 1024 1024" xmlns="http://www.w3.org/2000/svg">
<style>

@keyframes zk {
	to {
		stroke-dashoffset:0;
	}
}
svg.acjk path[clip-path] {
	--t:0.8s;
	animation:zk var(--t) linear forwards var(--d);
	stroke-dasharray:3337;
	stroke-dashoffset:3339;
	stroke-width:128;
	stroke-linecap:round;
	fill:none;
	stroke:#000;
}
svg.acjk path[id] {fill:#ccc;}


    @keyframes guide-fade {
        0% { opacity: 0; }
        3% { opacity: 1; }
        95% { opacity: 1; }
        100% { opacity: 0; }
    }

    svg.acjk #guide-arrow {
        fill: #f77;
    }

    svg.acjk .guides {
        circle {
            fill: #0f6;
        }

        path {
            opacity: 0;
            animation: guide-fade var(--t) linear forwards var(--d);
            stroke-width: 16px;
            stroke-linecap: round;
            stroke: #f77;
            fill: none;
            marker-end: url(#guide-arrow);
        }

        circle,
        path {
            --t: 0.8s;
            opacity: 0;
            animation: guide-fade calc(var(--t) + 0.4s) ease-in-out forwards calc(var(--d) - 0.2s);
        }
    }
</style>
<path id="z33538d1" d="M646 211Q730 199 861 207Q877 208 883 198Q887 186 874 171Q822 126 724 151Q696 155 668 161C623 168 623 168 600 171Q515 183 424 196C387 201 387 201 368 203Q283 210 192 221Q161 224 183 240Q229 270 287 259Q333 247 378 239C411 233 411 233 427 230Q472 221 590 214C627 212 627 212 646 211Z"/>
<path id="z33538d2" d="M424 196Q423 171 421 151Q422 130 401 124Q362 103 335 111Q316 121 332 141Q356 169 368 203C375 227 375 227 378 239Q385 267 390 294Q397 316 411 332Q424 342 430 330Q437 309 432 285Q429 255 427 230C425 207 425 207 424 196Z"/>
<path id="z33538d3" d="M668 161Q675 140 692 116Q708 98 696 87Q683 68 643 48Q624 38 604 47Q592 54 602 67Q614 94 600 171C593 200 593 200 590 214Q572 286 574 299Q575 315 593 302Q609 289 646 211C661 178 661 178 668 161Z"/>
<path id="z33538d4" d="M336 480Q288 447 260 457Q247 463 254 478Q287 530 256 668Q226 774 102 876Q89 886 102 888Q165 882 228 817Q303 748 323 623Q323 580 338 530Q339 520 345 511C351 502 345 486 336 480Z"/>
<path id="z33538d5" d="M567 479Q702 443 707 439Q716 432 711 423Q704 413 676 405Q643 401 561 432C524 443 524 443 506 449Q374 474 336 480C325 482 334 511 345 511Q394 515 472 499Q494 495 518 489C551 482 551 482 567 479Z"/>
<path id="z33538d6" d="M626 745Q699 874 816 943Q897 977 916 960Q935 948 924 912Q912 876 897 747Q896 725 890 722Q886 721 882 741Q863 846 843 866Q833 872 800 852Q710 792 662 711C643 678 643 678 634 661Q585 562 567 479C563 448 563 448 561 432Q560 404 563 384Q569 357 523 339Q486 323 469 329Q450 333 464 359Q483 383 506 449C514 476 514 476 518 489Q563 630 600 698C617 729 617 729 626 745Z"/>
<path id="z33538d7" d="M600 698Q531 761 399 834Q389 840 396 844Q423 860 544 800Q590 778 626 745C650 722 650 722 662 711Q702 668 747 600Q763 576 783 554Q793 547 790 534Q786 522 757 498Q738 480 727 481Q712 482 710 498Q703 579 634 661C611 686 611 686 600 698Z"/>
<path id="z33538d8" d="M710 334Q738 350 771 370Q786 380 801 376Q811 373 813 360Q814 345 800 319Q791 303 760 295Q687 285 675 293Q671 297 675 310Q681 319 710 334Z"/>
<defs>
	<clipPath id="z33538c1"><use href="#z33538d1"/></clipPath>
	<clipPath id="z33538c2"><use href="#z33538d2"/></clipPath>
	<clipPath id="z33538c3"><use href="#z33538d3"/></clipPath>
	<clipPath id="z33538c4"><use href="#z33538d4"/></clipPath>
	<clipPath id="z33538c5"><use href="#z33538d5"/></clipPath>
	<clipPath id="z33538c6"><use href="#z33538d6"/></clipPath>
	<clipPath id="z33538c7"><use href="#z33538d7"/></clipPath>
	<clipPath id="z33538c8"><use href="#z33538d8"/></clipPath>
<marker id="guide-arrow" viewBox="0 0 16 16" refX="5" refY="5" markerWidth="4" markerHeight="4" orient="auto-start-reverse"><path d="M 0 0 L 10 5 L 0 10 z" fill="inherit"/></marker></defs>
<path style="--d:1s;" pathLength="3333" clip-path="url(#z33538c1)" d="M182 229L277 236L776 173L881 190"/>
<path style="--d:2s;" pathLength="3333" clip-path="url(#z33538c2)" d="M330 123L387 156L420 331"/>
<path style="--d:3s;" pathLength="3333" clip-path="url(#z33538c3)" d="M605 55L654 98L586 301"/>
<path style="--d:4s;" pathLength="3333" clip-path="url(#z33538c4)" d="M258 466L306 521L276 696L209 803L106 881"/>
<path style="--d:5s;" pathLength="3333" clip-path="url(#z33538c5)" d="M344 484L424 486L705 429"/>
<path style="--d:6s;" pathLength="3333" clip-path="url(#z33538c6)" d="M464 336L522 380L612 671L737 844L821 903L883 917L889 730"/>
<path style="--d:7s;" pathLength="3333" clip-path="url(#z33538c7)" d="M722 487L746 540L657 676L535 779L399 839"/>
<path style="--d:8s;" pathLength="3333" clip-path="url(#z33538c8)" d="M678 298L765 329L803 371"/>
<g class="guides"><circle style="--d: 1s" class="g1" cx="182" cy="229" r="16"/><path style="--d: 1s;" class="g1" d="M182,325 Q277,332 401.75,316.25 Q776,269 802.25,273.25 Q854.75,281.75 881,286"/><circle style="--d: 2s" class="g2" cx="330" cy="123" r="16"/><path style="--d: 2s;" class="g2" d="M330,219 Q358.5,235.5 360.5625,246.4375 Q372.9375,312.0625 375,323"/><circle style="--d: 3s" class="g3" cx="605" cy="55" r="16"/><path style="--d: 3s;" class="g3" d="M509,55 Q558,98 549.5,123.375 Q498.5,275.625 490,301"/><circle style="--d: 4s" class="g4" cx="258" cy="466" r="16"/><path style="--d: 4s;" class="g4" d="M162,466 Q186.95999999999998,508.27710843373495 179.16,575.5361445783133 Q171.36,642.7951807228916 153.94,683.9192771084338 Q136.52,725.0433734939759 109.74,755.0216867469879 Q109.74,755.0216867469879 82.95999999999998,785"/><circle style="--d: 5s" class="g5" cx="344" cy="484" r="16"/><path style="--d: 5s;" class="g5" d="M344,580 Q424,582 459.125,574.875 Q669.875,532.125 705,525"/><circle style="--d: 6s" class="g6" cx="464" cy="336" r="16"/><path style="--d: 6s;" class="g6" d="M532.544,267.456 Q568.0885835294117,311.456 595.6662776470588,456.956 Q623.2439717647059,602.456 661.5463247058824,688.956 Q699.8486776470588,775.456 725.5878588235294,804.956 Q751.32704,834.456 770.3250070588235,841.456 Q789.322974117647,848.456 791.1614870588235,754.956 Q791.1614870588235,754.956 793,661.456"/><circle style="--d: 7s" class="g7" cx="722" cy="487" r="16"/><path style="--d: 7s;" class="g7" d="M626,487 Q641.700288184438,525.5454545454545 612.5893371757925,575 Q583.4783861671469,624.4545454545455 543.5734870317003,661.909090909091 Q503.6685878962536,699.3636363636364 459.1844380403458,721.1818181818182 Q459.1844380403458,721.1818181818182 414.700288184438,743"/><circle style="--d: 8s" class="g8" cx="678" cy="298" r="16"/><path style="--d: 8s;" class="g8" d="M763.68,229.45600000000002 Q850.68,260.456 855.43,265.706 Q883.93,297.206 888.68,302.456"/></g></svg>