<!--
  Stroke-order data for 荏, derived from AnimCJK (https://github.com/parsimonhi/animCJK),
  itself derived from the Arphic PL KaitiM fonts. Distributed under the Arphic Public License
  (see ARPHICPL.TXT). Regenerated by scripts/build-strokes.ts — do not edit by hand.
-->
<svg id="z33615" class="acjk" viewBox="0 0 1024 1024" xmlns="http://www.w3.org/2000/svg">
<g class="glyph"><path style="--part:1" id="z33615d1" d="M627 238C695 232 761 233 824 237C834 237 843 235 847 228C850 219 847 208 838 199C804 167 755 161 692 176C677 179 662 181 648 184C612 189 612 189 594 192C539 200 481 209 419 217C385 221 385 221 368 223C317 228 264 233 209 240C188 242 184 249 199 260C228 280 270 286 322 276C340 272 358 267 378 264C407 259 407 259 422 257C447 253 498 248 580 242C611 239 611 239 627 238Z"/><path style="--part:1" id="z33615d2" d="M419 217C417 190 414 167 414 147C414 133 406 126 393 120C366 108 344 101 327 108C313 113 313 124 325 138C339 156 358 183 368 223C375 250 375 250 378 264C383 285 388 305 403 320C410 327 418 326 422 318C427 304 424 283 422 257C420 230 420 230 419 217Z"/><path style="--part:1" id="z33615d3" d="M648 184C654 166 662 142 681 116C689 104 691 98 685 91C675 79 660 68 638 56C626 50 615 49 604 56C597 59 597 64 602 73C611 91 610 132 594 192C585 225 585 225 580 242C568 284 561 310 562 321C562 329 568 331 579 324C587 317 606 290 627 238C641 202 641 202 648 184Z"/><path style="--part:2" id="z33615d4" d="M291 546C347 485 377 445 393 434C400 428 402 419 401 410C400 401 391 388 374 371C358 356 344 347 332 347C319 346 314 354 318 369C321 385 320 406 307 430C261 511 185 599 83 695C75 701 69 705 68 709C64 715 68 720 78 719C104 716 191 652 262 577C281 556 281 556 291 546Z"/><path style="--part:2" id="z33615d5" d="M262 577C273 607 282 723 257 819C251 841 247 868 271 911C272 913 274 917 278 921C288 931 299 928 306 911C316 885 318 857 319 829C319 714 321 643 327 617C330 600 330 588 325 582C318 574 307 562 291 546C281 536 257 564 262 577Z"/><path style="--part:2" id="z33615d6" d="M608 466C670 442 716 418 753 413C764 411 772 409 775 404C778 396 775 387 766 381C751 369 727 359 696 346C684 341 675 336 666 339C660 340 657 346 657 355C655 387 573 435 413 511C406 514 408 523 414 524C431 525 521 498 568 481C595 471 595 471 608 466Z"/><path style="--part:2" id="z33615d7" d="M635 654C686 647 764 645 867 645C879 644 889 642 892 636C895 628 891 618 880 610C840 581 801 576 765 587C730 596 687 603 637 612C601 618 601 618 583 621C514 632 440 643 360 654C346 655 343 661 355 673C374 691 401 697 435 689C480 677 529 668 583 661C618 656 618 656 635 654Z"/><path style="--part:2" id="z33615d8" d="M629 818C631 759 632 704 635 654C636 626 636 626 637 612C640 532 644 498 640 491C632 478 618 472 608 466C596 459 561 469 568 481C578 497 583 543 583 621C583 648 583 648 583 661C583 703 582 757 582 824C582 840 629 834 629 818Z"/><path style="--part:2" id="z33615d9" d="M582 824C532 830 478 835 420 843C407 844 405 850 415 861C423 870 433 876 445 880C458 884 470 884 481 882C539 867 641 861 787 861C795 861 802 861 810 862C822 862 830 859 834 854C837 847 835 838 824 830C789 802 752 795 713 803C689 807 661 813 629 818C598 822 598 822 582 824Z"/></g>
<defs><clipPath id="z33615c1"><use href="#z33615d1"/></clipPath>
	<clipPath id="z33615c2"><use href="#z33615d2"/></clipPath>
	<clipPath id="z33615c3"><use href="#z33615d3"/></clipPath>
	<clipPath id="z33615c4"><use href="#z33615d4"/></clipPath>
	<clipPath id="z33615c5"><use href="#z33615d5"/></clipPath>
	<clipPath id="z33615c6"><use href="#z33615d6"/></clipPath>
	<clipPath id="z33615c7"><use href="#z33615d7"/></clipPath>
	<clipPath id="z33615c8"><use href="#z33615d8"/></clipPath>
	<clipPath id="z33615c9"><use href="#z33615d9"/></clipPath><marker id="guide-arrow" viewBox="0 0 16 16" refX="5" refY="5" markerWidth="4" markerHeight="4" orient="auto-start-reverse"><path d="M 0 0 L 10 5 L 0 10 z" fill="inherit"/></marker></defs>
<g class="strokes"><path style="--part:1" pathLength="3333" clip-path="url(#z33615c1)" d="M198 248L304 254L736 201L845 218"/><path style="--part:1" pathLength="3333" clip-path="url(#z33615c2)" d="M324 120L380 156L413 320"/><path style="--part:1" pathLength="3333" clip-path="url(#z33615c3)" d="M605 60L648 101L572 323"/><path style="--part:2" pathLength="3333" clip-path="url(#z33615c4)" d="M324 352L357 418L204 604L74 712"/><path style="--part:2" pathLength="3333" clip-path="url(#z33615c5)" d="M286 551L288 921"/><path style="--part:2" pathLength="3333" clip-path="url(#z33615c6)" d="M668 341L715 404L417 517"/><path style="--part:2" pathLength="3333" clip-path="url(#z33615c7)" d="M357 662L794 613L888 624"/><path style="--part:2" pathLength="3333" clip-path="url(#z33615c8)" d="M573 473L609 505L603 831"/><path style="--part:2" pathLength="3333" clip-path="url(#z33615c9)" d="M418 852L742 830L831 845"/></g>
<g class="guides"><text class="g1" style="--gs:1" x="198" y="248">①</text><path class="g1 aligned" style="--gs:1" d="M198,248 Q304,254 412,240.75 Q736,201 763.25,205.25 Q817.75,213.75 845,218"/><path class="g1 offset" style="--gs:1" d="M198,344 Q304,350 412,336.75 Q736,297 763.25,301.25 Q817.75,309.75 845,314"/><text class="g2" style="--gs:2" x="324" y="120">②</text><path class="g2 aligned" style="--gs:2" d="M324,120 Q380,156 384.13,176.5 Q408.88,299.5 413,320"/><path class="g2 offset" style="--gs:2" d="M409.68,51.46 Q465.68,87.46 469.81,107.96 Q494.56,230.96 498.68,251.46"/><text class="g3" style="--gs:3" x="605" y="60">③</text><path class="g3 aligned" style="--gs:3" d="M605,60 Q648,101 638.5,128.75 Q581.5,295.25 572,323"/><path class="g3 offset" style="--gs:3" d="M509,60 Q552,101 542.5,128.75 Q485.5,295.25 476,323"/><text class="g4" style="--gs:4" x="324" y="352">④</text><path class="g4 aligned" style="--gs:4" d="M324,352 Q357,418 318.75,464.5 Q204,604 171.5,631 Q106.5,685 74,712"/><path class="g4 offset" style="--gs:4" d="M228,352 Q247.01,400.4 224.98,434.5 Q158.88,536.8 140.16,556.6 Q102.73,596.2 84.01,616"/><text class="g5" style="--gs:5" x="286" y="551">⑤</text><path class="g5 aligned" style="--gs:5" d="M286,551 L288,921"/><path class="g5 offset" style="--gs:5" d="M406,551 L408,921"/><text class="g6" style="--gs:6" x="668" y="341">⑥</text><path class="g6 aligned" style="--gs:6" d="M668,341 Q715,404 677.75,418.13 Q454.25,502.88 417,517"/><path class="g6 offset" style="--gs:6" d="M572,341 Q603.86,372.5 578.61,379.56 Q427.11,421.94 401.86,429"/><text class="g7" style="--gs:7" x="357" y="662">⑦</text><path class="g7 aligned" style="--gs:7" d="M357,662 Q794,613 805.75,614.38 Q876.25,622.63 888,624"/><path class="g7 offset" style="--gs:7" d="M357,758 Q794,709 805.75,710.38 Q876.25,718.63 888,720"/><text class="g8" style="--gs:8" x="573" y="473">⑧</text><path class="g8 aligned" style="--gs:8" d="M573,473 Q609,505 608.25,545.75 Q603.75,790.25 603,831"/><path class="g8 offset" style="--gs:8" d="M477,473 Q513,505 512.25,545.75 Q507.75,790.25 507,831"/><text class="g9" style="--gs:9" x="418" y="852">⑨</text><path class="g9 aligned" style="--gs:9" d="M418,852 Q742,830 753.13,831.88 Q819.88,843.13 831,845"/><path class="g9 offset" style="--gs:9" d="M418,948 Q742,926 753.13,927.88 Q819.88,939.13 831,941"/></g>
<g class="parts"><rect data-part="2" data-literal="任" role="button" tabindex="0" aria-label="Part 任" x="2" y="269" width="958" height="724"/><rect data-part="1" data-literal="艹" data-radical="true" role="button" tabindex="0" aria-label="Part 艹 (radical)" x="126" y="0" width="791" height="395"/></g>
</svg>
