<!--
  Stroke-order data for 荷, derived from AnimCJK (https://github.com/parsimonhi/animCJK),
  itself derived from the Arphic PL KaitiM fonts. Distributed under the Arphic Public License
  (see ARPHICPL.TXT). Regenerated by scripts/build-strokes.ts — do not edit by hand.
-->
<svg id="z33655" class="acjk" viewBox="0 0 1024 1024" xmlns="http://www.w3.org/2000/svg">
<g class="glyph"><path style="--part:1" id="z33655d1" d="M658 224C676 222 734 218 799 222C820 223 871 215 839 190C794 155 739 164 677 175C638 182 638 182 618 185C560 194 498 203 434 211C401 215 401 215 385 217C329 223 271 227 211 235C192 237 188 243 202 253C231 271 264 278 298 270C330 262 362 253 393 249C422 245 422 245 436 243C479 236 580 228 607 227C641 225 641 225 658 224Z"/><path style="--part:1" id="z33655d2" d="M434 211C432 187 430 168 430 152C430 139 423 132 412 127C352 98 328 117 348 142C365 164 378 189 385 217C390 238 390 238 393 249C402 285 408 309 419 320C426 326 434 326 437 319C439 311 438 284 436 243C435 222 435 222 434 211Z"/><path style="--part:1" id="z33655d3" d="M677 175C683 159 690 133 711 103C719 90 720 84 715 77C704 65 688 52 665 40C645 29 613 34 626 58C637 80 633 124 618 185C611 213 611 213 607 227C593 277 585 307 586 320C586 329 592 332 604 323C614 314 635 282 658 224C671 191 671 191 677 175Z"/><path style="--part:2" id="z33655d4" d="M278 517C311 485 354 436 402 394C419 377 404 353 387 335C354 300 328 303 334 330C338 349 335 366 326 381C271 463 191 551 79 641C55 659 56 673 90 658C130 641 202 587 248 545C268 526 268 526 278 517Z"/><path style="--part:2" id="z33655d5" d="M248 545C272 589 264 693 249 798C245 822 239 848 263 891C271 907 288 916 298 891C308 865 311 836 311 809C310 689 309 615 315 589C321 558 316 551 278 517C268 507 242 533 248 545Z"/><path style="--part:2" id="z33655d6" d="M739 421C769 418 817 416 847 416C867 415 936 411 897 382C863 356 833 349 809 355C731 373 595 398 403 430C390 432 388 438 399 449C422 472 457 468 466 466C534 446 639 430 678 427C719 423 719 423 739 421Z"/><path style="--part:2" id="z33655d7" d="M434 566C392 542 374 552 386 576C400 605 412 646 419 699C420 712 425 729 432 739C448 763 455 746 458 719C458 709 456 699 456 690C454 667 446 604 446 590C446 581 442 570 434 566Z"/><path style="--part:2" id="z33655d8" d="M592 675C604 632 617 604 630 591C644 575 643 561 630 553C612 542 595 533 583 527C574 523 556 523 551 527C526 543 487 556 434 566C425 568 437 591 446 590C466 587 514 578 538 575C556 572 566 573 558 612C554 628 549 647 545 669C542 685 589 690 592 675Z"/><path style="--part:2" id="z33655d9" d="M458 719C468 722 501 714 601 705C619 703 619 693 592 675C578 667 561 666 545 669C518 676 481 684 456 690C446 692 448 717 458 719Z"/><path style="--part:2" id="z33655d10" d="M581 860C561 855 561 866 581 882C623 916 661 946 692 974C699 981 710 978 719 966C747 926 756 880 755 828C748 669 748 551 757 477C761 441 769 443 739 421C721 410 667 409 678 427C686 440 691 460 691 499C690 575 690 688 690 820C689 897 630 871 581 860Z"/></g>
<defs><clipPath id="z33655c1"><use href="#z33655d1"/></clipPath>
	<clipPath id="z33655c2"><use href="#z33655d2"/></clipPath>
	<clipPath id="z33655c3"><use href="#z33655d3"/></clipPath>
	<clipPath id="z33655c4"><use href="#z33655d4"/></clipPath>
	<clipPath id="z33655c5"><use href="#z33655d5"/></clipPath>
	<clipPath id="z33655c6"><use href="#z33655d6"/></clipPath>
	<clipPath id="z33655c7"><use href="#z33655d7"/></clipPath>
	<clipPath id="z33655c8"><use href="#z33655d8"/></clipPath>
	<clipPath id="z33655c9"><use href="#z33655d9"/></clipPath>
	<clipPath id="z33655c10"><use href="#z33655d10"/></clipPath><marker id="guide-arrow" viewBox="0 0 16 16" refX="5" refY="5" markerWidth="4" markerHeight="4" orient="auto-start-reverse"><path d="M 0 0 L 10 5 L 0 10 z" fill="inherit"/></marker></defs>
<g class="strokes"><path style="--part:1" pathLength="3333" clip-path="url(#z33655c1)" d="M202 245L841 199"/><path style="--part:1" pathLength="3333" clip-path="url(#z33655c2)" d="M348 123L400 161L428 321"/><path style="--part:1" pathLength="3333" clip-path="url(#z33655c3)" d="M629 42L675 95L595 323"/><path style="--part:2" pathLength="3333" clip-path="url(#z33655c4)" d="M341 317L367 382L207 554L70 657"/><path style="--part:2" pathLength="3333" clip-path="url(#z33655c5)" d="M260 522L288 575L276 903"/><path style="--part:2" pathLength="3333" clip-path="url(#z33655c6)" d="M399 437L902 391"/><path style="--part:2" pathLength="3333" clip-path="url(#z33655c7)" d="M390 564L420 590L443 746"/><path style="--part:2" pathLength="3333" clip-path="url(#z33655c8)" d="M436 570L558 549L591 565L569 682"/><path style="--part:2" pathLength="3333" clip-path="url(#z33655c9)" d="M453 705L606 692"/><path style="--part:2" pathLength="3333" clip-path="url(#z33655c10)" d="M685 423L724 450L719 859L677 927L572 865"/></g>
<g class="guides"><text class="g1" style="--gs:1" x="202" y="245">①</text><path class="g1 aligned" style="--gs:1" d="M202,245 L841,199"/><path class="g1 offset" style="--gs:1" d="M202,341 L841,295"/><text class="g2" style="--gs:2" x="348" y="123">②</text><path class="g2 aligned" style="--gs:2" d="M348,123 Q400,161 403.5,181 Q424.5,301 428,321"/><path class="g2 offset" style="--gs:2" d="M433.68,54.46 Q485.68,92.46 489.18,112.46 Q510.18,232.46 513.68,252.46"/><text class="g3" style="--gs:3" x="629" y="42">③</text><path class="g3 aligned" style="--gs:3" d="M629,42 Q675,95 665,123.5 Q605,294.5 595,323"/><path class="g3 offset" style="--gs:3" d="M533,42 Q579,95 569,123.5 Q509,294.5 499,323"/><text class="g4" style="--gs:4" x="341" y="317">④</text><path class="g4 aligned" style="--gs:4" d="M341,317 Q367,382 327,425 Q207,554 172.75,579.75 Q104.25,631.25 70,657"/><path class="g4 offset" style="--gs:4" d="M245,317 Q260.49,363.65 236.66,394.51 Q165.14,487.08 144.73,505.56 Q103.91,542.52 83.49,561"/><text class="g5" style="--gs:5" x="260" y="522">⑤</text><path class="g5 aligned" style="--gs:5" d="M260,522 Q288,575 286.5,616 Q277.5,862 276,903"/><path class="g5 offset" style="--gs:5" d="M380,522 Q408,575 406.5,616 Q397.5,862 396,903"/><text class="g6" style="--gs:6" x="399" y="437">⑥</text><path class="g6 aligned" style="--gs:6" d="M399,437 L902,391"/><path class="g6 offset" style="--gs:6" d="M399,533 L902,487"/><text class="g7" style="--gs:7" x="390" y="564">⑦</text><path class="g7 aligned" style="--gs:7" d="M405,577 L443,746"/><path class="g7 offset" style="--gs:7" d="M525,577 L563,746"/><text class="g8" style="--gs:8" x="436" y="570">⑧</text><path class="g8 aligned" style="--gs:8" d="M436,570 Q558,549 566.25,553 Q591,565 585.5,594.25 Q574.5,652.75 569,682"/><path class="g8 offset" style="--gs:8" d="M436,666 Q497,645 501.13,649 Q513.5,661 510.75,673.63 Q505.25,698.88 502.5,711.5"/><text class="g9" style="--gs:9" x="453" y="705">⑨</text><path class="g9 aligned" style="--gs:9" d="M453,705 L606,692"/><path class="g9 offset" style="--gs:9" d="M453,801 L606,788"/><text class="g10" style="--gs:10" x="685" y="423">⑩</text><path class="g10 aligned" style="--gs:10" d="M685,423 Q724,450 721.5,654.5 Q719,859 698,893 Q677,927 624.5,896 Q624.5,896 572,865"/><path class="g10 offset" style="--gs:10" d="M589,423 Q608.5,444.86 607.25,610.4 Q606,775.95 595.5,803.48 Q585,831 558.75,805.9 Q558.75,805.9 532.5,780.81"/></g>
<g class="parts"><rect data-part="2" data-literal="何" role="button" tabindex="0" aria-label="Part 何" x="0" y="245" width="974" height="754"/><rect data-part="1" data-literal="艹" data-radical="true" role="button" tabindex="0" aria-label="Part 艹 (radical)" x="130" y="0" width="783" height="395"/></g>
</svg>
