<svg id="z33713" class="acjk" viewBox="0 0 1024 1024" xmlns="http://www.w3.org/2000/svg">
<style>

@keyframes zk {
	to {
		stroke-dashoffset:0;
	}
}
svg.acjk path[clip-path] {
	--t:0.8s;
	animation:zk var(--t) linear forwards var(--d);
	stroke-dasharray:3337;
	stroke-dashoffset:3339;
	stroke-width:128;
	stroke-linecap:round;
	fill:none;
	stroke:#000;
}
svg.acjk path[id] {fill:#ccc;}


    @keyframes guide-fade {
        0% { opacity: 0; }
        3% { opacity: 1; }
        95% { opacity: 1; }
        100% { opacity: 0; }
    }

    svg.acjk #guide-arrow {
        fill: #f77;
    }

    svg.acjk .guides {
        circle {
            fill: #0f6;
        }

        path {
            opacity: 0;
            animation: guide-fade var(--t) linear forwards var(--d);
            stroke-width: 16px;
            stroke-linecap: round;
            stroke: #f77;
            fill: none;
            marker-end: url(#guide-arrow);
        }

        circle,
        path {
            --t: 0.8s;
            opacity: 0;
            animation: guide-fade calc(var(--t) + 0.4s) ease-in-out forwards calc(var(--d) - 0.2s);
        }
    }
</style>
<path id="z33713d1" d="M623 209C729 202 813 210 829 204C839 199 824 181 820 178C794 157 767 147 738 148C706 149 673 158 645 163C607 169 607 169 588 172C536 180 479 188 417 195C386 198 386 198 370 200C311 206 250 211 188 219C175 220 173 226 183 237C191 246 201 252 213 256C226 260 238 260 249 258C289 247 332 239 378 233C406 229 406 229 420 227C454 222 550 213 576 212C607 210 607 210 623 209Z"/>
<path id="z33713d2" d="M417 195C415 174 413 157 414 142C414 129 408 122 396 118C368 107 349 101 336 107C325 111 323 121 334 134C350 154 364 175 370 200C375 222 375 222 378 233C386 269 396 290 404 297C412 303 418 303 421 296C423 286 423 262 420 227C418 206 418 206 417 195Z"/>
<path id="z33713d3" d="M645 163C656 138 665 119 675 108C683 97 686 91 680 83C671 72 656 60 635 47C624 40 613 40 601 46C594 49 594 53 598 63C605 81 603 118 588 172C580 199 580 199 576 212C563 254 558 278 559 284C559 293 565 295 576 288C584 282 601 254 623 209C638 178 638 178 645 163Z"/>
<path id="z33713d4" d="M521 376C611 361 660 350 666 346C671 341 672 336 670 331C666 322 655 316 638 312C619 307 601 309 583 315C562 321 541 327 521 332C488 339 488 339 471 342C428 350 382 354 334 359C311 360 306 371 323 379C377 404 420 392 472 384C505 379 505 379 521 376Z"/>
<path id="z33713d5" d="M332 481C346 494 360 509 374 526C380 533 389 538 399 538C405 538 410 534 413 527C416 518 415 505 412 489C407 470 380 454 331 439C322 436 315 434 312 437C308 438 306 444 308 452C308 458 318 467 332 481Z"/>
<path id="z33713d6" d="M630 418C616 437 595 461 568 492C564 496 562 501 567 505C570 507 576 505 581 503C633 473 671 450 697 442C708 438 713 435 711 428C707 418 701 406 690 394C679 382 666 374 652 373C643 372 638 377 638 390C638 398 636 408 630 418Z"/>
<path id="z33713d7" d="M531 593C618 582 729 580 855 586C869 586 879 582 883 576C887 567 883 557 871 548C833 519 799 507 772 513C707 525 624 543 520 556C487 560 487 560 471 562C370 574 262 587 146 600C131 601 128 608 140 621C161 643 187 651 217 644C285 626 359 613 439 604C500 597 500 597 531 593Z"/>
<path id="z33713d8" d="M469 651C467 728 464 805 457 882C454 909 462 935 479 957C486 967 494 966 501 954C514 927 522 890 521 844C519 795 520 722 520 623C520 578 520 578 520 556C520 520 521 460 521 376C521 347 521 347 521 332C521 316 531 288 520 279C511 272 498 263 480 255C473 251 465 252 462 256C458 260 459 265 462 271C467 281 470 303 471 342C472 370 472 370 472 384C473 441 472 501 471 562C470 621 470 621 469 651Z"/>
<path id="z33713d9" d="M439 604C411 678 314 758 159 861C126 882 188 870 207 863C304 822 410 738 469 651C499 614 457 560 439 604Z"/>
<path id="z33713d10" d="M520 623C570 697 628 775 695 856C707 870 724 875 745 875C815 872 862 869 885 866C891 864 895 863 896 859C896 855 892 850 883 846C782 803 710 763 667 725C624 686 579 642 531 593C515 577 506 605 520 623Z"/>
<defs>
	<clipPath id="z33713c1"><use href="#z33713d1"/></clipPath>
	<clipPath id="z33713c2"><use href="#z33713d2"/></clipPath>
	<clipPath id="z33713c3"><use href="#z33713d3"/></clipPath>
	<clipPath id="z33713c4"><use href="#z33713d4"/></clipPath>
	<clipPath id="z33713c5"><use href="#z33713d5"/></clipPath>
	<clipPath id="z33713c6"><use href="#z33713d6"/></clipPath>
	<clipPath id="z33713c7"><use href="#z33713d7"/></clipPath>
	<clipPath id="z33713c8"><use href="#z33713d8"/></clipPath>
	<clipPath id="z33713c9"><use href="#z33713d9"/></clipPath>
	<clipPath id="z33713c10"><use href="#z33713d10"/></clipPath>
<marker id="guide-arrow" viewBox="0 0 16 16" refX="5" refY="5" markerWidth="4" markerHeight="4" orient="auto-start-reverse"><path d="M 0 0 L 10 5 L 0 10 z" fill="inherit"/></marker></defs>
<path style="--d:1s;" pathLength="3333" clip-path="url(#z33713c1)" d="M183 225L236 236L725 177L824 196"/>
<path style="--d:2s;" pathLength="3333" clip-path="url(#z33713c2)" d="M333 118L386 153L410 294"/>
<path style="--d:3s;" pathLength="3333" clip-path="url(#z33713c3)" d="M602 51L642 94L567 286"/>
<path style="--d:4s;" pathLength="3333" clip-path="url(#z33713c4)" d="M323 369L666 334"/>
<path style="--d:5s;" pathLength="3333" clip-path="url(#z33713c5)" d="M315 445L407 529"/>
<path style="--d:6s;" pathLength="3333" clip-path="url(#z33713c6)" d="M650 376L670 426L572 499"/>
<path style="--d:7s;" pathLength="3333" clip-path="url(#z33713c7)" d="M141 609L208 619L771 548L879 564"/>
<path style="--d:8s;" pathLength="3333" clip-path="url(#z33713c8)" d="M466 257L497 296L488 956"/>
<path style="--d:9s;" pathLength="3333" clip-path="url(#z33713c9)" d="M458 592L449 639L370 730L158 867"/>
<path style="--d:10s;" pathLength="3333" clip-path="url(#z33713c10)" d="M523 596L727 822L888 855"/>
<g class="guides"><circle style="--d: 1s" class="g1" cx="183" cy="225" r="16"/><path style="--d: 1s;" class="g1" d="M183,321 Q236,332 358.25,317.25 Q725,273 749.75,277.75 Q799.25,287.25 824,292"/><circle style="--d: 2s" class="g2" cx="333" cy="118" r="16"/><path style="--d: 2s;" class="g2" d="M418.68,49.456 Q471.68,84.456 474.68,102.081 Q492.68,207.83100000000002 495.68,225.45600000000002"/><circle style="--d: 3s" class="g3" cx="602" cy="51" r="16"/><path style="--d: 3s;" class="g3" d="M506,51 Q546,94 536.625,118 Q480.375,262 471,286"/><circle style="--d: 4s" class="g4" cx="323" cy="369" r="16"/><path style="--d: 4s;" class="g4" d="M323,465 L666,430"/><circle style="--d: 5s" class="g5" cx="315" cy="445" r="16"/><path style="--d: 5s;" class="g5" d="M400.68,376.456 L492.68,460.456"/><circle style="--d: 6s" class="g6" cx="650" cy="376" r="16"/><path style="--d: 6s;" class="g6" d="M554,376 Q564,401 557.875,405.5625 Q521.125,432.9375 515,437.5"/><circle style="--d: 7s" class="g7" cx="141" cy="609" r="16"/><path style="--d: 7s;" class="g7" d="M141,705 Q208,715 348.75,697.25 Q771,644 798,648 Q852,656 879,660"/><circle style="--d: 8s" class="g8" cx="466" cy="257" r="16"/><path style="--d: 8s;" class="g8" d="M370,257 Q401,296 399.875,378.5 Q393.125,873.5 392,956"/><circle style="--d: 9s" class="g9" cx="458" cy="592" r="16"/><path style="--d: 9s;" class="g9" d="M362,592 Q356.6,622.5927272727273 344.75,637.4009090909092 Q309.2,681.8254545454546 277.4,704.1190909090909 Q213.8,748.7063636363637 182,771"/><circle style="--d: 10s" class="g10" cx="523" cy="596" r="16"/><path style="--d: 10s;" class="g10" d="M608.68,527.456 Q764.7930958904109,729.4982548262549 780.1939589041095,733.185972972973 Q872.5991369863013,755.3122818532819 888,759"/></g></svg>