<!--
  Stroke-order data for 菅, derived from AnimCJK (https://github.com/parsimonhi/animCJK),
  itself derived from the Arphic PL KaitiM fonts. Distributed under the Arphic Public License
  (see ARPHICPL.TXT). Regenerated by scripts/build-strokes.ts — do not edit by hand.
-->
<svg id="z33733" class="acjk" viewBox="0 0 1024 1024" xmlns="http://www.w3.org/2000/svg">
<g class="glyph"><path style="--part:1" id="z33733d1" d="M624 190Q702 181 794 187Q810 188 815 179Q819 169 807 154Q756 112 654 138Q651 138 650 139C612 145 612 145 593 148Q511 158 423 172C392 176 392 176 377 178Q302 185 223 195Q195 198 214 213Q256 240 336 223Q361 217 388 213C414 209 414 209 427 207Q451 198 580 192C609 191 609 191 624 190Z"/><path style="--part:1" id="z33733d2" d="M423 172Q420 141 419 117Q420 98 400 93Q361 75 341 84Q323 93 339 111Q376 150 377 178C377 190 386 201 388 213Q394 243 411 261Q424 271 428 259Q434 234 427 207C424 184 424 184 423 172Z"/><path style="--part:1" id="z33733d3" d="M650 139Q657 120 674 99Q689 86 679 74Q669 58 635 39Q620 29 603 37Q593 43 600 54Q609 75 593 148C584 177 584 177 580 192Q568 237 567 249Q568 262 583 252Q592 246 624 190C641 156 641 156 650 139Z"/><path style="--part:2" id="z33733d4" d="M483 279Q508 300 534 325Q546 335 560 336Q569 335 573 323Q577 310 569 285Q565 267 537 255Q474 233 460 237Q456 241 457 252Q460 262 483 279Z"/><path style="--part:2" id="z33733d5" d="M260 384Q254 350 233 337Q215 324 213 349Q216 376 192 416Q146 473 147 491Q147 515 163 545Q178 570 198 544Q216 516 229 476Q239 439 250 414C254 404 262 394 260 384Z"/><path style="--part:2" id="z33733d6" d="M250 414Q275 429 316 421Q458 379 688 360Q731 356 747 359Q763 369 762 378Q762 379 738 445Q731 458 737 463Q744 467 762 455Q817 422 860 412Q897 402 896 394Q895 384 820 327Q796 309 722 322Q592 335 366 371Q312 378 260 384C250 386 241 409 250 414Z"/><path style="--part:2" id="z33733d7" d="M411 703Q411 654 413 624C414 603 414 603 414 593Q415 523 421 500C423 488 411 477 402 469Q383 454 360 447Q351 446 345 454Q342 458 349 470Q389 566 358 783Q339 867 341 879Q350 912 361 924Q371 937 381 924Q394 911 399 881C403 856 403 856 405 844Q405 843 411 734C411 713 411 713 411 703Z"/><path style="--part:2" id="z33733d8" d="M616 565Q641 511 669 493Q685 477 671 460Q656 447 608 422Q590 413 525 440Q471 455 402 469C390 471 409 502 421 500Q454 491 560 471Q576 467 582 474Q589 481 587 494Q578 530 568 560C562 575 610 580 616 565Z"/><path style="--part:2" id="z33733d9" d="M413 624Q420 625 432 623Q493 610 629 596Q639 595 640 587Q640 580 616 565C602 557 584 557 568 560Q483 582 414 593C404 595 403 624 413 624Z"/><path style="--part:2" id="z33733d10" d="M668 816Q695 752 722 737Q740 718 725 699Q647 635 585 666Q497 690 411 703C401 705 401 734 411 734Q426 734 595 704Q614 700 622 708Q634 721 608 816C602 835 661 835 668 816Z"/><path style="--part:2" id="z33733d11" d="M399 881Q427 866 689 860Q699 859 702 850Q703 841 672 818Q671 817 668 816C649 809 628 813 608 816Q496 835 405 844C393 846 387 886 399 881Z"/></g>
<defs><clipPath id="z33733c1"><use href="#z33733d1"/></clipPath>
	<clipPath id="z33733c2"><use href="#z33733d2"/></clipPath>
	<clipPath id="z33733c3"><use href="#z33733d3"/></clipPath>
	<clipPath id="z33733c4"><use href="#z33733d4"/></clipPath>
	<clipPath id="z33733c5"><use href="#z33733d5"/></clipPath>
	<clipPath id="z33733c6"><use href="#z33733d6"/></clipPath>
	<clipPath id="z33733c7"><use href="#z33733d7"/></clipPath>
	<clipPath id="z33733c8"><use href="#z33733d8"/></clipPath>
	<clipPath id="z33733c9"><use href="#z33733d9"/></clipPath>
	<clipPath id="z33733c10"><use href="#z33733d10"/></clipPath>
	<clipPath id="z33733c11"><use href="#z33733d11"/></clipPath><marker id="guide-arrow" viewBox="0 0 16 16" refX="5" refY="5" markerWidth="4" markerHeight="4" orient="auto-start-reverse"><path d="M 0 0 L 10 5 L 0 10 z" fill="inherit"/></marker></defs>
<g class="strokes"><path style="--part:1" pathLength="3333" clip-path="url(#z33733c1)" d="M212 203L692 157L812 173"/><path style="--part:1" pathLength="3333" clip-path="url(#z33733c2)" d="M336 96L391 125L416 258"/><path style="--part:1" pathLength="3333" clip-path="url(#z33733c3)" d="M604 40L642 90L574 249"/><path style="--part:2" pathLength="3333" clip-path="url(#z33733c4)" d="M465 244L566 329"/><path style="--part:2" pathLength="3333" clip-path="url(#z33733c5)" d="M222 338L234 382L184 491L181 552"/><path style="--part:2" pathLength="3333" clip-path="url(#z33733c6)" d="M256 411L750 338L794 352L842 405L740 457"/><path style="--part:2" pathLength="3333" clip-path="url(#z33733c7)" d="M350 454L391 510L368 925"/><path style="--part:2" pathLength="3333" clip-path="url(#z33733c8)" d="M409 471L595 447L632 483L578 559"/><path style="--part:2" pathLength="3333" clip-path="url(#z33733c9)" d="M422 616L631 586"/><path style="--part:2" pathLength="3333" clip-path="url(#z33733c10)" d="M415 726L605 680L650 688L678 725L624 815"/><path style="--part:2" pathLength="3333" clip-path="url(#z33733c11)" d="M406 872L695 839"/></g>
<g class="guides"><text class="g1" style="--gs:1" x="212" y="203">①</text><path class="g1 aligned" style="--gs:1" d="M212,203 Q692,157 707,159 Q797,171 812,173"/><path class="g1 offset" style="--gs:1" d="M212,299 Q692,253 707,255 Q797,267 812,269"/><text class="g2" style="--gs:2" x="336" y="96">②</text><path class="g2 aligned" style="--gs:2" d="M336,96 Q391,125 394.13,141.63 Q412.88,241.38 416,258"/><path class="g2 offset" style="--gs:2" d="M336,192 Q363.5,206.5 365.06,214.81 Q374.44,264.69 376,273"/><text class="g3" style="--gs:3" x="604" y="40">③</text><path class="g3 aligned" style="--gs:3" d="M604,40 Q642,90 633.5,109.88 Q582.5,229.13 574,249"/><path class="g3 offset" style="--gs:3" d="M508,40 Q546,90 537.5,109.88 Q486.5,229.13 478,249"/><text class="g4" style="--gs:4" x="465" y="244">④</text><path class="g4 aligned" style="--gs:4" d="M465,244 L566,329"/><path class="g4 offset" style="--gs:4" d="M550.68,175.46 L651.68,260.46"/><text class="g5" style="--gs:5" x="222" y="338">⑤</text><path class="g5 aligned" style="--gs:5" d="M222,338 Q234,382 221.5,409.25 Q184,491 183.25,506.25 Q181.75,536.75 181,552"/><path class="g5 offset" style="--gs:5" d="M342,338 Q354,382 341.5,409.25 Q304,491 303.25,506.25 Q301.75,536.75 301,552"/><text class="g6" style="--gs:6" x="256" y="411">⑥</text><path class="g6 aligned" style="--gs:6" d="M256,411 Q750,338 772,345 Q794,352 818,378.5 Q842,405 791,431 Q791,431 740,457"/><path class="g6 offset" style="--gs:6" d="M256,507 Q623.55,434 639.92,441 Q656.29,448 674.14,474.5 Q692,501 654.05,527 Q654.05,527 616.11,553"/><text class="g7" style="--gs:7" x="350" y="454">⑦</text><path class="g7 aligned" style="--gs:7" d="M350,454 Q391,510 388.13,561.88 Q370.88,873.13 368,925"/><path class="g7 offset" style="--gs:7" d="M254,454 Q295,510 292.13,561.88 Q274.88,873.13 272,925"/><text class="g8" style="--gs:8" x="409" y="471">⑧</text><path class="g8 aligned" style="--gs:8" d="M409,471 Q595,447 604.25,456 Q632,483 618.5,502 Q591.5,540 578,559"/><path class="g8 offset" style="--gs:8" d="M409,567 Q514.93,543 520.2,552 Q536,579 528.31,598 Q512.93,636 505.25,655"/><text class="g9" style="--gs:9" x="422" y="616">⑨</text><path class="g9 aligned" style="--gs:9" d="M422,616 L631,586"/><path class="g9 offset" style="--gs:9" d="M422,712 L631,682"/><text class="g10" style="--gs:10" x="415" y="726">⑩</text><path class="g10 aligned" style="--gs:10" d="M415,726 Q605,680 627.5,684 Q650,688 664,706.5 Q678,725 651,770 Q651,770 624,815"/><path class="g10 offset" style="--gs:10" d="M415,822 Q535.65,776 549.93,780 Q564.22,784 573.11,802.5 Q582,821 564.86,866 Q564.86,866 547.71,911"/><text class="g11" style="--gs:11" x="406" y="872">⑪</text><path class="g11 aligned" style="--gs:11" d="M406,872 L695,839"/><path class="g11 offset" style="--gs:11" d="M406,968 L695,935"/></g>
<g class="parts"><rect data-part="2" data-literal="官" role="button" tabindex="0" aria-label="Part 官" x="109" y="172" width="805" height="825"/><rect data-part="1" data-literal="艹" data-radical="true" role="button" tabindex="0" aria-label="Part 艹 (radical)" x="140" y="0" width="744" height="330"/></g>
</svg>
