<!--
  Stroke-order data for 菜, derived from AnimCJK (https://github.com/parsimonhi/animCJK),
  itself derived from the Arphic PL KaitiM fonts. Distributed under the Arphic Public License
  (see ARPHICPL.TXT). Regenerated by scripts/build-strokes.ts — do not edit by hand.
-->
<svg id="z33756" class="acjk" viewBox="0 0 1024 1024" xmlns="http://www.w3.org/2000/svg">
<g class="glyph"><path style="--part:1" id="z33756d1" d="M634 192C756 186 820 190 825 185C825 184 825 184 826 184C830 177 827 169 817 161C781 133 744 128 707 138C690 142 673 144 656 147C619 153 619 153 601 156C553 163 490 172 413 181C381 184 381 184 365 186C314 191 260 197 203 204C190 205 188 210 198 221C206 230 216 236 227 239C239 242 250 242 260 240C296 230 333 222 373 217C401 213 401 213 415 211C461 204 519 197 591 194C620 193 620 193 634 192Z"/><path style="--part:1" id="z33756d2" d="M413 181C411 163 410 147 410 134C409 121 404 114 392 110C364 99 344 93 332 99C320 104 320 114 330 126C345 144 359 163 365 186C370 207 370 207 373 217C381 251 390 273 399 281C406 288 413 287 416 280C418 271 417 248 415 211C414 191 414 191 413 181Z"/><path style="--part:1" id="z33756d3" d="M656 147C661 134 667 119 679 104C686 94 688 88 683 81C675 70 661 59 640 48C629 42 619 42 609 47C602 50 601 54 606 63C611 73 612 86 611 101C608 117 606 135 601 156C594 181 594 181 591 194C584 219 577 238 579 253C580 261 585 263 595 256C605 248 617 226 634 192C649 162 649 162 656 147Z"/><path style="--part:2" id="z33756d4" d="M490 277C458 299 402 321 326 353C320 355 320 362 325 364C342 369 397 361 487 335C506 329 536 317 581 313C591 312 598 311 601 307C604 300 602 292 595 286C563 256 535 240 513 242C507 242 504 248 504 255C502 263 498 271 490 277Z"/><path style="--part:2" id="z33756d5" d="M288 452C304 468 322 487 340 509C346 517 355 521 366 522C372 522 377 519 381 511C385 502 385 488 381 470C376 448 345 427 288 408C279 405 272 403 268 405C264 406 262 412 263 420C263 426 273 437 288 452Z"/><path style="--part:2" id="z33756d6" d="M439 389C467 437 489 464 503 468C511 470 518 466 523 456C525 449 525 439 521 426C517 413 506 405 494 396C472 380 457 371 447 367C442 365 439 366 437 373C435 377 435 383 439 389Z"/><path style="--part:2" id="z33756d7" d="M660 362C651 373 621 406 571 463C563 472 567 480 577 476C610 461 635 445 655 433C699 404 727 388 739 384C753 379 758 370 751 359C744 347 730 337 715 327C700 317 690 314 682 315C673 316 671 319 673 328C674 339 668 350 660 362Z"/><path style="--part:2" id="z33756d8" d="M528 599C575 593 669 592 806 592C818 592 827 589 831 584C835 576 831 566 820 558C785 531 755 521 730 527C679 537 613 549 531 561C496 566 496 566 479 568C391 579 295 590 193 602C178 603 176 609 187 621C195 630 206 637 219 641C232 644 245 644 256 642C314 626 375 616 441 609C499 602 499 602 528 599Z"/><path style="--part:2" id="z33756d9" d="M528 603C528 601 527 599 528 599C530 574 530 574 531 561C532 537 534 528 530 521C523 508 502 497 489 492C481 488 474 490 468 495C464 497 464 501 469 508C475 517 479 538 479 568C479 623 479 623 479 651C479 663 478 676 478 690C473 782 466 836 461 853C453 876 463 905 485 940C492 951 497 960 504 962C510 963 516 959 520 951C528 930 529 910 529 890C527 862 528 778 528 639C528 615 528 615 528 603Z"/><path style="--part:2" id="z33756d10" d="M441 609C437 621 429 633 418 648C383 692 346 729 309 759C276 785 228 817 163 856C150 863 149 868 161 871C181 874 224 862 289 829C325 810 366 779 409 735C433 708 455 679 479 651C513 617 459 564 441 609Z"/><path style="--part:2" id="z33756d11" d="M528 639C582 709 639 775 700 840C715 856 736 866 764 869C814 873 864 871 917 864C929 862 937 861 939 857C941 852 936 847 926 843C793 790 699 744 645 703C626 688 540 612 528 603C519 596 521 629 528 639Z"/></g>
<defs><clipPath id="z33756c1"><use href="#z33756d1"/></clipPath>
	<clipPath id="z33756c2"><use href="#z33756d2"/></clipPath>
	<clipPath id="z33756c3"><use href="#z33756d3"/></clipPath>
	<clipPath id="z33756c4"><use href="#z33756d4"/></clipPath>
	<clipPath id="z33756c5"><use href="#z33756d5"/></clipPath>
	<clipPath id="z33756c6"><use href="#z33756d6"/></clipPath>
	<clipPath id="z33756c7"><use href="#z33756d7"/></clipPath>
	<clipPath id="z33756c8"><use href="#z33756d8"/></clipPath>
	<clipPath id="z33756c9"><use href="#z33756d9"/></clipPath>
	<clipPath id="z33756c10"><use href="#z33756d10"/></clipPath>
	<clipPath id="z33756c11"><use href="#z33756d11"/></clipPath><marker id="guide-arrow" viewBox="0 0 16 16" refX="5" refY="5" markerWidth="4" markerHeight="4" orient="auto-start-reverse"><path d="M 0 0 L 10 5 L 0 10 z" fill="inherit"/></marker></defs>
<g class="strokes"><path style="--part:1" pathLength="3333" clip-path="url(#z33756c1)" d="M200 210L256 219L730 162L821 171"/><path style="--part:1" pathLength="3333" clip-path="url(#z33756c2)" d="M329 108L379 138L406 278"/><path style="--part:1" pathLength="3333" clip-path="url(#z33756c3)" d="M611 53L648 92L586 252"/><path style="--part:2" pathLength="3333" clip-path="url(#z33756c4)" d="M512 249L539 292L333 356"/><path style="--part:2" pathLength="3333" clip-path="url(#z33756c5)" d="M273 415L349 473L366 518"/><path style="--part:2" pathLength="3333" clip-path="url(#z33756c6)" d="M444 376L509 461"/><path style="--part:2" pathLength="3333" clip-path="url(#z33756c7)" d="M679 321L707 367L574 470"/><path style="--part:2" pathLength="3333" clip-path="url(#z33756c8)" d="M188 610L245 620L742 559L826 577"/><path style="--part:2" pathLength="3333" clip-path="url(#z33756c9)" d="M473 497L505 537L508 955"/><path style="--part:2" pathLength="3333" clip-path="url(#z33756c10)" d="M471 613L347 759L160 865"/><path style="--part:2" pathLength="3333" clip-path="url(#z33756c11)" d="M532 611L733 809L931 853"/></g>
<g class="guides"><text class="g1" style="--gs:1" x="200" y="210">①</text><path class="g1 aligned" style="--gs:1" d="M200,210 Q256,219 374.5,204.75 Q730,162 752.75,164.25 Q798.25,168.75 821,171"/><path class="g1 offset" style="--gs:1" d="M200,306 Q256,315 374.5,300.75 Q730,258 752.75,260.25 Q798.25,264.75 821,267"/><text class="g2" style="--gs:2" x="329" y="108">②</text><path class="g2 aligned" style="--gs:2" d="M329,108 Q379,138 382.38,155.5 Q402.63,260.5 406,278"/><path class="g2 offset" style="--gs:2" d="M414.68,39.46 Q464.68,69.46 468.06,86.96 Q488.31,191.96 491.68,209.46"/><text class="g3" style="--gs:3" x="611" y="53">③</text><path class="g3 aligned" style="--gs:3" d="M611,53 Q648,92 640.25,112 Q593.75,232 586,252"/><path class="g3 offset" style="--gs:3" d="M515,53 Q552,92 544.25,112 Q497.75,232 490,252"/><text class="g4" style="--gs:4" x="512" y="249">④</text><path class="g4 aligned" style="--gs:4" d="M512,249 Q539,292 513.25,300 Q358.75,348 333,356"/><path class="g4 offset" style="--gs:4" d="M416,249 Q430.42,270.5 416.67,274.5 Q334.17,298.5 320.42,302.5"/><text class="g5" style="--gs:5" x="273" y="415">⑤</text><path class="g5 aligned" style="--gs:5" d="M273,415 Q349,473 351.13,478.63 Q363.88,512.38 366,518"/><path class="g5 offset" style="--gs:5" d="M358.68,346.46 Q434.68,404.46 436.81,410.08 Q449.56,443.83 451.68,449.46"/><text class="g6" style="--gs:6" x="444" y="376">⑥</text><path class="g6 aligned" style="--gs:6" d="M444,376 L509,461"/><path class="g6 offset" style="--gs:6" d="M529.68,307.46 L594.68,392.46"/><text class="g7" style="--gs:7" x="679" y="321">⑦</text><path class="g7 aligned" style="--gs:7" d="M679,321 Q707,367 690.38,379.88 Q590.63,457.13 574,470"/><path class="g7 offset" style="--gs:7" d="M583,321 Q597,344 588.69,350.44 Q538.81,389.06 530.5,395.5"/><text class="g8" style="--gs:8" x="188" y="610">⑧</text><path class="g8 aligned" style="--gs:8" d="M188,610 Q245,620 369.25,604.75 Q742,559 763,563.5 Q805,572.5 826,577"/><path class="g8 offset" style="--gs:8" d="M188,706 Q245,716 369.25,700.75 Q742,655 763,659.5 Q805,668.5 826,673"/><text class="g9" style="--gs:9" x="473" y="497">⑨</text><path class="g9 aligned" style="--gs:9" d="M473,497 Q505,537 505.38,589.25 Q507.63,902.75 508,955"/><path class="g9 offset" style="--gs:9" d="M558.68,428.46 Q590.68,468.46 591.05,520.71 Q593.3,834.21 593.68,886.46"/><text class="g10" style="--gs:10" x="471" y="613">⑩</text><path class="g10 aligned" style="--gs:10" d="M471,613 Q347,759 323.63,772.25 Q183.38,851.75 160,865"/><path class="g10 offset" style="--gs:10" d="M556.68,681.54 Q432.68,827.54 409.31,840.79 Q269.06,920.29 245.68,933.54"/><text class="g11" style="--gs:11" x="532" y="611">⑪</text><path class="g11 aligned" style="--gs:11" d="M532,611 Q733,809 757.75,814.5 Q906.25,847.5 931,853"/><path class="g11 offset" style="--gs:11" d="M617.68,542.46 Q775.52,717.99 794.95,722.87 Q911.56,752.12 931,757"/></g>
<g class="parts"><rect data-part="2" data-literal="采" role="button" tabindex="0" aria-label="Part 采" x="88" y="177" width="915" height="847"/><rect data-part="1" data-literal="艹" data-radical="true" role="button" tabindex="0" aria-label="Part 艹 (radical)" x="128" y="0" width="765" height="350"/></g>
</svg>
