<svg id="z33802" class="acjk" viewBox="0 0 1024 1024" xmlns="http://www.w3.org/2000/svg">
<style>

@keyframes zk {
	to {
		stroke-dashoffset:0;
	}
}
svg.acjk path[clip-path] {
	--t:0.8s;
	animation:zk var(--t) linear forwards var(--d);
	stroke-dasharray:3337;
	stroke-dashoffset:3339;
	stroke-width:128;
	stroke-linecap:round;
	fill:none;
	stroke:#000;
}
svg.acjk path[id] {fill:#ccc;}


    @keyframes guide-fade {
        0% { opacity: 0; }
        3% { opacity: 1; }
        95% { opacity: 1; }
        100% { opacity: 0; }
    }

    svg.acjk #guide-arrow {
        fill: #f77;
    }

    svg.acjk .guides {
        circle {
            fill: #0f6;
        }

        path {
            opacity: 0;
            animation: guide-fade var(--t) linear forwards var(--d);
            stroke-width: 16px;
            stroke-linecap: round;
            stroke: #f77;
            fill: none;
            marker-end: url(#guide-arrow);
        }

        circle,
        path {
            --t: 0.8s;
            opacity: 0;
            animation: guide-fade calc(var(--t) + 0.4s) ease-in-out forwards calc(var(--d) - 0.2s);
        }
    }
</style>
<path id="z33802d1" d="M644 235C661 234 710 231 800 239C810 239 818 236 822 230C826 222 824 212 814 203C791 182 763 172 732 172C714 171 691 176 664 181C623 188 623 188 602 191C541 200 477 210 409 217C374 220 374 220 357 222C308 226 256 231 201 237C180 239 176 246 191 257C221 278 256 284 295 276C319 270 344 265 370 261C399 256 399 256 414 254C433 250 494 241 595 237C628 236 628 236 644 235Z"/>
<path id="z33802d2" d="M409 217C406 200 404 184 404 170C404 157 397 151 385 146C358 135 338 130 323 137C310 142 309 152 321 165C336 182 349 200 357 222C366 248 366 248 370 261C385 308 392 339 403 349C411 356 417 355 420 347C422 339 421 307 414 254C411 229 411 229 409 217Z"/>
<path id="z33802d3" d="M664 181C668 168 674 154 684 141C691 129 693 122 687 115C677 103 661 92 637 81C625 75 614 73 602 81C594 85 595 91 600 99C608 114 608 145 602 191C597 222 597 222 595 237C587 289 577 319 578 324C578 334 585 336 596 327C608 315 626 282 644 235C657 199 657 199 664 181Z"/>
<path id="z33802d4" d="M628 346C592 347 564 361 530 368C493 375 493 375 474 378C457 381 356 395 322 399C298 401 309 413 321 419C363 439 402 427 476 416C510 411 510 411 527 408C548 404 598 394 645 384C658 381 671 377 675 368C677 360 668 355 662 353C651 349 640 345 628 346Z"/>
<path id="z33802d5" d="M316 457C309 457 303 464 305 472C311 508 291 544 269 571C249 595 225 614 203 634C197 639 188 644 187 653C185 658 193 658 197 658C224 651 247 634 269 618C291 600 310 583 326 561C336 548 336 548 341 541C351 525 366 510 378 496C384 488 376 479 370 476C354 465 336 457 316 457Z"/>
<path id="z33802d6" d="M326 561C351 574 370 589 394 603C401 607 412 608 420 602C428 595 423 582 420 574C414 559 397 552 383 549C367 545 356 543 341 541C333 539 319 557 326 561Z"/>
<path id="z33802d7" d="M655 404C646 403 640 410 642 419C648 448 633 479 616 503C604 520 590 536 575 549C564 558 553 567 545 578C542 582 543 588 548 588C572 586 615 557 638 536C649 526 649 526 654 521C666 509 677 495 688 481C697 468 708 457 718 445C724 436 714 427 708 423C691 413 674 404 655 404Z"/>
<path id="z33802d8" d="M638 536C645 546 653 549 664 555C692 570 721 585 751 601C757 604 768 605 775 600C786 589 777 570 770 561C757 545 737 539 719 534C696 527 678 524 654 521C647 520 634 530 638 536Z"/>
<path id="z33802d9" d="M482 278C474 278 463 279 460 286C454 293 463 302 467 309C474 325 474 352 474 378C475 403 475 403 476 416C477 476 477 514 476 570C475 626 475 626 474 654C472 709 469 766 460 821C456 841 447 860 447 880C445 906 453 932 468 953C471 958 477 962 483 963C489 964 493 960 497 957C515 943 520 918 520 896C519 812 521 672 521 649C521 629 521 629 521 619C521 579 521 541 522 502C522 468 523 441 527 408C529 381 529 381 530 368C532 355 533 343 539 335C543 328 548 317 542 311C528 297 495 277 482 278Z"/>
<path id="z33802d10" d="M253 776C219 798 185 817 150 837C144 840 136 844 135 852C136 856 141 856 145 858C157 860 168 854 179 851C277 822 364 762 437 692C450 679 461 668 474 654C494 634 493 548 476 570C409 658 320 731 253 776Z"/>
<path id="z33802d11" d="M521 649C591 715 660 775 735 834C753 846 776 845 796 843C839 838 882 835 925 828C930 826 937 824 937 818C934 811 925 810 919 807C858 794 796 780 738 756C709 744 684 726 657 711C610 681 567 652 521 619C513 613 513 643 521 649Z"/>
<defs>
	<clipPath id="z33802c1"><use href="#z33802d1"/></clipPath>
	<clipPath id="z33802c2"><use href="#z33802d2"/></clipPath>
	<clipPath id="z33802c3"><use href="#z33802d3"/></clipPath>
	<clipPath id="z33802c4"><use href="#z33802d4"/></clipPath>
	<clipPath id="z33802c5"><use href="#z33802d5"/></clipPath>
	<clipPath id="z33802c6"><use href="#z33802d6"/></clipPath>
	<clipPath id="z33802c7"><use href="#z33802d7"/></clipPath>
	<clipPath id="z33802c8"><use href="#z33802d8"/></clipPath>
	<clipPath id="z33802c9"><use href="#z33802d9"/></clipPath>
	<clipPath id="z33802c10"><use href="#z33802d10"/></clipPath>
	<clipPath id="z33802c11"><use href="#z33802d11"/></clipPath>
<marker id="guide-arrow" viewBox="0 0 16 16" refX="5" refY="5" markerWidth="4" markerHeight="4" orient="auto-start-reverse"><path d="M 0 0 L 10 5 L 0 10 z" fill="inherit"/></marker></defs>
<path style="--d:1s;" pathLength="3333" clip-path="url(#z33802c1)" d="M190 245L274 254L703 203L819 216"/>
<path style="--d:2s;" pathLength="3333" clip-path="url(#z33802c2)" d="M317 148L372 176L411 347"/>
<path style="--d:3s;" pathLength="3333" clip-path="url(#z33802c3)" d="M604 88L648 132L587 327"/>
<path style="--d:4s;" pathLength="3333" clip-path="url(#z33802c4)" d="M316 406L395 408L667 364"/>
<path style="--d:5s;" pathLength="3333" clip-path="url(#z33802c5)" d="M314 465L342 494L311 546L196 650"/>
<path style="--d:6s;" pathLength="3333" clip-path="url(#z33802c6)" d="M329 557L381 569L411 597"/>
<path style="--d:7s;" pathLength="3333" clip-path="url(#z33802c7)" d="M651 410L680 439L668 465L617 532L552 579"/>
<path style="--d:8s;" pathLength="3333" clip-path="url(#z33802c8)" d="M644 535L723 559L771 597"/>
<path style="--d:9s;" pathLength="3333" clip-path="url(#z33802c9)" d="M470 296L508 327L485 958"/>
<path style="--d:10s;" pathLength="3333" clip-path="url(#z33802c10)" d="M474 581L451 643L384 708L262 795L142 850"/>
<path style="--d:11s;" pathLength="3333" clip-path="url(#z33802c11)" d="M521 626L752 800L929 819"/>
<g class="guides"><circle style="--d: 1s" class="g1" cx="190" cy="245" r="16"/><path style="--d: 1s;" class="g1" d="M190,341 Q274,350 381.25,337.25 Q703,299 732,302.25 Q790,308.75 819,312"/><circle style="--d: 2s" class="g2" cx="317" cy="148" r="16"/><path style="--d: 2s;" class="g2" d="M317,244 Q344.5,258 346.9375,268.6875 Q361.5625,332.8125 364,343.5"/><circle style="--d: 3s" class="g3" cx="604" cy="88" r="16"/><path style="--d: 3s;" class="g3" d="M508,88 Q552,132 544.375,156.375 Q498.625,302.625 491,327"/><circle style="--d: 4s" class="g4" cx="316" cy="406" r="16"/><path style="--d: 4s;" class="g4" d="M316,502 Q395,504 429,498.5 Q633,465.5 667,460"/><circle style="--d: 5s" class="g5" cx="328" cy="480" r="16"/><path style="--d: 5s;" class="g5" d="M232,480 Q223.5,513 216.3125,519.5 Q173.1875,558.5 166,565"/><circle style="--d: 6s" class="g6" cx="329" cy="557" r="16"/><path style="--d: 6s;" class="g6" d="M329,653 L396,679"/><circle style="--d: 7s" class="g7" cx="666" cy="425" r="16"/><path style="--d: 7s;" class="g7" d="M570,425 Q571,445 564.625,453.375 Q545.5,478.5 537.375,484.375 Q521.125,496.125 513,502"/><circle style="--d: 8s" class="g8" cx="644" cy="535" r="16"/><path style="--d: 8s;" class="g8" d="M729.68,466.456 Q808.68,490.456 814.68,495.206 Q850.68,523.706 856.68,528.456"/><circle style="--d: 9s" class="g9" cx="470" cy="296" r="16"/><path style="--d: 9s;" class="g9" d="M374,296 Q412,327 409.125,405.875 Q391.875,879.125 389,958"/><circle style="--d: 10s" class="g10" cx="474" cy="581" r="16"/><path style="--d: 10s;" class="g10" d="M378,581 Q363.3132530120482,620.8736059479554 341.921686746988,641.775092936803 Q320.5301204819277,662.6765799256506 281.5783132530121,690.6524163568773 Q242.6265060240964,718.6282527881041 204.3132530120482,736.314126394052 Q204.3132530120482,736.314126394052 166,754"/><circle style="--d: 11s" class="g11" cx="521" cy="626" r="16"/><path style="--d: 11s;" class="g11" d="M606.68,557.456 Q789.17,706.7029222797928 806.64875,708.7400569948187 Q911.52125,720.9628652849741 929,723"/></g></svg>