<!--
  Stroke-order data for 葉, derived from AnimCJK (https://github.com/parsimonhi/animCJK),
  itself derived from the Arphic PL KaitiM fonts. Distributed under the Arphic Public License
  (see ARPHICPL.TXT). Regenerated by scripts/build-strokes.ts — do not edit by hand.
-->
<svg id="z33865" class="acjk" viewBox="0 0 1024 1024" xmlns="http://www.w3.org/2000/svg">
<g class="glyph"><path style="--part:1" id="z33865d1" d="M629 177C672 175 773 169 867 176C878 176 886 174 891 168C895 161 891 150 881 142C859 125 831 116 798 114C769 113 678 130 651 134C611 139 611 139 591 141C555 145 454 158 402 165C365 170 365 170 347 172C306 177 221 181 154 188C133 190 128 197 144 207C176 226 225 229 289 217C309 213 334 206 360 203C393 198 393 198 409 196C424 193 538 180 581 179C613 178 613 178 629 177Z"/><path style="--part:1" id="z33865d2" d="M402 165C399 152 396 136 396 127C394 114 388 108 375 105C343 97 322 93 311 100C299 106 299 116 311 127C325 140 339 154 347 172C356 193 356 193 360 203C368 222 383 256 396 266C404 272 411 270 414 262C415 254 414 220 409 196C404 175 404 175 402 165Z"/><path style="--part:1" id="z33865d3" d="M651 132C655 123 660 114 668 106C676 96 677 90 672 84C663 73 649 63 628 52C617 46 606 46 596 51C588 54 588 58 593 66C600 79 600 105 591 141C584 166 584 166 581 179C571 215 565 237 566 246C566 248 566 251 568 252C573 253 573 253 575 253C595 255 610 215 629 177C644 147 644 147 651 132Z"/><path style="--part:2" id="z33865d4" d="M383 366C411 362 444 356 484 353C511 350 511 350 525 349C557 345 593 343 633 342C664 341 664 341 680 340C700 339 775 338 905 338C919 337 927 335 931 329C935 321 931 312 920 303C881 272 840 265 795 276C765 282 731 288 695 294C658 300 658 300 639 303C603 308 564 313 524 319C494 323 494 323 479 325C448 329 417 332 385 336C348 340 348 340 329 342C260 349 188 356 113 365C98 366 95 372 107 385C116 395 128 401 140 405C154 409 167 410 179 407C227 393 279 380 334 373C367 368 367 368 383 366Z"/><path style="--part:2" id="z33865d5" d="M484 353C491 393 500 453 507 464C509 468 513 469 518 466C520 463 522 459 523 454C527 444 526 433 526 422C527 409 525 362 525 349C524 329 524 329 524 319C523 312 524 297 526 286C527 275 527 267 521 263C512 256 500 250 486 246C474 242 462 244 453 251C446 255 450 259 456 268C468 286 474 299 479 325C482 344 482 344 484 353Z"/><path style="--part:2" id="z33865d6" d="M657 409C657 409 672 363 680 340C690 309 690 309 695 294C698 282 703 274 714 254C716 249 714 240 705 231C689 215 674 206 662 202C654 199 647 199 642 202C637 204 635 210 639 220C644 234 645 261 639 303C635 329 635 329 633 342C629 362 625 383 621 405C619 417 653 420 657 409Z"/><path style="--part:2" id="z33865d7" d="M523 454C529 454 535 454 544 453C581 448 613 445 672 444C678 443 682 440 683 435C683 430 674 421 657 409C648 401 633 403 621 405C590 412 552 418 526 422C515 424 512 454 523 454Z"/><path style="--part:2" id="z33865d8" d="M515 533C544 527 644 517 729 525C741 526 750 525 755 522C758 519 759 514 756 507C753 500 741 491 719 479C707 472 694 470 680 473C662 476 640 478 615 480C545 484 475 493 408 508C399 509 396 509 394 508C388 503 385 495 385 481C384 433 381 394 383 366C384 346 384 346 385 336C385 327 386 320 388 316C390 305 387 296 378 290C361 277 342 268 320 263C309 260 301 263 297 270C294 274 296 282 305 293C315 305 325 321 329 342C332 363 332 363 334 373C345 441 338 495 320 534C312 550 320 567 346 584C353 589 361 585 371 578C396 558 437 547 489 538C506 535 506 535 515 533Z"/><path style="--part:2" id="z33865d9" d="M562 650Q650 640 815 639Q834 639 839 630Q845 620 828 606Q777 569 741 577Q669 593 554 613C520 618 520 618 503 621Q376 637 228 658Q207 661 223 677Q236 690 254 695Q275 701 290 696Q365 674 448 663C524 654 524 654 562 650Z"/><path style="--part:2" id="z33865d10" d="M554 613C555 580 558 572 554 563C546 545 526 539 515 533C507 528 488 529 489 538C488 540 489 543 493 548C495 552 503 576 503 621C502 660 502 660 502 679C501 689 501 702 501 717C497 799 492 849 486 869C478 891 486 919 509 956C516 967 521 976 528 978C534 979 540 975 544 967C552 946 553 926 553 906C551 880 547 802 552 675C553 634 553 634 554 613Z"/><path style="--part:2" id="z33865d11" d="M448 663C408 733 316 802 175 873C162 879 162 884 172 887C192 892 238 887 303 852C362 819 395 788 413 774C439 751 477 712 502 679C531 640 477 624 448 663Z"/><path style="--part:2" id="z33865d12" d="M552 675C606 735 663 794 723 850C738 864 760 872 786 873C834 873 882 867 932 857C944 854 950 852 952 849C953 844 949 840 939 837C825 800 759 778 742 769C729 762 670 722 562 650C546 640 541 660 552 675Z"/></g>
<defs><clipPath id="z33865c1"><use href="#z33865d1"/></clipPath>
	<clipPath id="z33865c2"><use href="#z33865d2"/></clipPath>
	<clipPath id="z33865c3"><use href="#z33865d3"/></clipPath>
	<clipPath id="z33865c4"><use href="#z33865d4"/></clipPath>
	<clipPath id="z33865c5"><use href="#z33865d5"/></clipPath>
	<clipPath id="z33865c6"><use href="#z33865d6"/></clipPath>
	<clipPath id="z33865c7"><use href="#z33865d7"/></clipPath>
	<clipPath id="z33865c8"><use href="#z33865d8"/></clipPath>
	<clipPath id="z33865c9"><use href="#z33865d9"/></clipPath>
	<clipPath id="z33865c10"><use href="#z33865d10"/></clipPath>
	<clipPath id="z33865c11"><use href="#z33865d11"/></clipPath>
	<clipPath id="z33865c12"><use href="#z33865d12"/></clipPath><marker id="guide-arrow" viewBox="0 0 16 16" refX="5" refY="5" markerWidth="4" markerHeight="4" orient="auto-start-reverse"><path d="M 0 0 L 10 5 L 0 10 z" fill="inherit"/></marker></defs>
<g class="strokes"><path style="--part:1" pathLength="3333" clip-path="url(#z33865c1)" d="M144 199L770 144L887 162"/><path style="--part:1" pathLength="3333" clip-path="url(#z33865c2)" d="M308 107L366 137L404 264"/><path style="--part:1" pathLength="3333" clip-path="url(#z33865c3)" d="M597 56L636 98L574 249"/><path style="--part:2" pathLength="3333" clip-path="url(#z33865c4)" d="M106 373L172 383L829 304L927 318"/><path style="--part:2" pathLength="3333" clip-path="url(#z33865c5)" d="M453 257L499 285L511 461"/><path style="--part:2" pathLength="3333" clip-path="url(#z33865c6)" d="M647 204L679 254L638 406"/><path style="--part:2" pathLength="3333" clip-path="url(#z33865c7)" d="M528 446L677 434"/><path style="--part:2" pathLength="3333" clip-path="url(#z33865c8)" d="M303 273L356 317L354 521L372 546L559 505L754 511"/><path style="--part:2" pathLength="3333" clip-path="url(#z33865c9)" d="M221 665L273 675L748 608L835 620"/><path style="--part:2" pathLength="3333" clip-path="url(#z33865c10)" d="M499 544L527 580L528 973"/><path style="--part:2" pathLength="3333" clip-path="url(#z33865c11)" d="M498 665L322 814L171 881"/><path style="--part:2" pathLength="3333" clip-path="url(#z33865c12)" d="M557 659L751 819L942 845"/></g>
<g class="guides"><text class="g1" style="--gs:1" x="144" y="199">①</text><path class="g1 aligned" style="--gs:1" d="M144,199 Q770,144 784.63,146.25 Q872.38,159.75 887,162"/><path class="g1 offset" style="--gs:1" d="M144,295 Q770,240 784.63,242.25 Q872.38,255.75 887,258"/><text class="g2" style="--gs:2" x="308" y="107">②</text><path class="g2 aligned" style="--gs:2" d="M308,107 Q366,137 370.75,152.88 Q399.25,248.13 404,264"/><path class="g2 offset" style="--gs:2" d="M308,203 Q337,218 339.38,225.94 Q353.63,273.56 356,281.5"/><text class="g3" style="--gs:3" x="597" y="56">③</text><path class="g3 aligned" style="--gs:3" d="M597,56 Q636,98 628.25,116.88 Q581.75,230.13 574,249"/><path class="g3 offset" style="--gs:3" d="M501,56 Q540,98 532.25,116.88 Q485.75,230.13 478,249"/><text class="g4" style="--gs:4" x="106" y="373">④</text><path class="g4 aligned" style="--gs:4" d="M106,373 Q172,383 336.25,363.25 Q829,304 853.5,307.5 Q902.5,314.5 927,318"/><path class="g4 offset" style="--gs:4" d="M106,469 Q172,479 336.25,459.25 Q829,400 853.5,403.5 Q902.5,410.5 927,414"/><text class="g5" style="--gs:5" x="453" y="257">⑤</text><path class="g5 aligned" style="--gs:5" d="M453,257 Q499,285 500.5,307 Q509.5,439 511,461"/><path class="g5 offset" style="--gs:5" d="M538.68,188.46 Q584.68,216.46 586.18,238.46 Q595.18,370.46 596.68,392.46"/><text class="g6" style="--gs:6" x="647" y="204">⑥</text><path class="g6 aligned" style="--gs:6" d="M647,204 Q679,254 673.88,273 Q643.13,387 638,406"/><path class="g6 offset" style="--gs:6" d="M551,204 Q583,254 577.88,273 Q547.13,387 542,406"/><text class="g7" style="--gs:7" x="528" y="446">⑦</text><path class="g7 aligned" style="--gs:7" d="M528,446 L677,434"/><path class="g7 offset" style="--gs:7" d="M528,542 L677,530"/><text class="g8" style="--gs:8" x="303" y="273">⑧</text><path class="g8 aligned" style="--gs:8" d="M303,273 Q356,317 355,419 Q354,521 363,533.5 Q372,546 465.5,525.5 Q559,505 656.5,508 Q656.5,508 754,511"/><path class="g8 offset" style="--gs:8" d="M388.68,204.46 Q431.61,244.03 430.8,335.77 Q429.99,427.51 437.28,438.76 Q444.57,450 520.31,431.56 Q596.05,413.12 675.02,415.82 Q675.02,415.82 754,418.52"/><text class="g9" style="--gs:9" x="221" y="665">⑨</text><path class="g9 aligned" style="--gs:9" d="M221,665 Q273,675 391.75,658.25 Q748,608 769.75,611 Q813.25,617 835,620"/><path class="g9 offset" style="--gs:9" d="M221,761 Q273,771 391.75,754.25 Q748,704 769.75,707 Q813.25,713 835,716"/><text class="g10" style="--gs:10" x="499" y="544">⑩</text><path class="g10 aligned" style="--gs:10" d="M499,544 Q527,580 527.13,629.13 Q527.88,923.88 528,973"/><path class="g10 offset" style="--gs:10" d="M584.68,475.46 Q612.68,511.46 612.8,560.58 Q613.55,855.33 613.68,904.46"/><text class="g11" style="--gs:11" x="498" y="665">⑪</text><path class="g11 aligned" style="--gs:11" d="M498,665 Q322,814 303.13,822.38 Q189.88,872.63 171,881"/><path class="g11 offset" style="--gs:11" d="M583.68,733.54 Q407.68,882.54 388.81,890.92 Q275.56,941.17 256.68,949.54"/><text class="g12" style="--gs:12" x="557" y="659">⑫</text><path class="g12 aligned" style="--gs:12" d="M557,659 Q751,819 774.88,822.25 Q918.13,841.75 942,845"/><path class="g12 offset" style="--gs:12" d="M642.68,590.46 Q793.51,726.84 812.07,729.61 Q923.44,746.23 942,749"/></g>
<g class="parts"><rect data-part="2" data-literal="枼" role="button" tabindex="0" aria-label="Part 枼" x="34" y="132" width="980" height="892"/><rect data-part="1" data-literal="艹" data-radical="true" role="button" tabindex="0" aria-label="Part 艹 (radical)" x="72" y="0" width="887" height="336"/></g>
</svg>
