<!--
  Stroke-order data for 著, derived from AnimCJK (https://github.com/parsimonhi/animCJK),
  itself derived from the Arphic PL KaitiM fonts. Distributed under the Arphic Public License
  (see ARPHICPL.TXT). Regenerated by scripts/build-strokes.ts — do not edit by hand.
-->
<svg id="z33879" class="acjk" viewBox="0 0 1024 1024" xmlns="http://www.w3.org/2000/svg">
<g class="glyph"><path id="z33879d1" d="M625 191C646 189 694 184 775 190C784 190 792 188 795 182C798 175 794 165 787 158C756 129 705 131 645 142C606 149 606 149 587 152C551 158 484 169 430 176C401 179 401 179 386 181C335 186 280 193 222 200C203 202 199 206 214 217C234 230 273 237 324 228C347 223 370 219 394 215C419 210 419 210 432 208C459 202 551 195 577 194C609 192 609 192 625 191Z"/><path id="z33879d2" d="M430 176C428 150 425 129 426 110C426 97 418 90 408 86C378 75 360 69 348 75C336 79 335 89 346 102C364 123 378 148 386 181C391 204 391 204 394 215C398 233 404 250 416 261C423 267 430 267 433 260C437 243 433 225 432 208C431 187 431 187 430 176Z"/><path id="z33879d3" d="M645 142C650 128 656 111 669 96C678 84 678 76 673 70C663 59 648 47 626 36C614 29 603 29 592 36C585 39 585 43 590 53C597 67 598 102 587 152C579 184 580 180 577 194C567 236 561 260 562 269C562 276 568 279 579 272C587 265 605 239 625 191C638 158 638 158 645 142Z"/><path id="z33879d4" d="M521 399C582 389 614 380 618 378C623 374 624 367 622 363C618 355 606 349 590 344C566 337 547 344 526 350C488 360 488 360 469 365C432 374 373 380 334 383C311 384 305 392 323 403C363 428 385 421 472 407C505 402 505 402 521 399Z"/><path id="z33879d5" d="M512 490C514 459 517 429 521 399C524 366 524 366 526 350C527 333 532 319 538 304C540 297 534 287 523 281C502 268 484 263 471 260C461 258 455 259 450 265C445 269 445 276 451 285C459 297 466 323 469 365C471 393 471 393 472 407C473 432 473 463 473 495C473 508 512 503 512 490Z"/><path id="z33879d6" d="M582 517C622 514 728 511 904 512C917 512 927 509 931 503C935 494 930 483 919 475C881 445 850 436 823 441C771 450 708 462 633 473C576 481 576 481 548 485C535 486 523 488 512 490C486 493 486 493 473 495C363 508 247 518 122 532C107 533 103 540 116 553C136 574 162 583 190 576C278 552 384 530 508 522C557 519 557 519 582 517Z"/><path id="z33879d7" d="M474 609C517 573 550 544 582 517C616 488 616 488 633 473C672 438 722 378 769 363C779 359 786 353 786 346C786 341 781 336 774 331C753 316 731 305 715 300C702 296 693 300 689 312C676 343 634 405 548 485C521 510 521 510 508 522C478 549 443 577 407 608C390 623 390 623 381 630C288 708 181 778 83 835C78 837 76 838 77 843C77 844 80 846 86 845C136 834 170 820 202 804C266 770 328 725 392 675C447 631 447 631 474 609Z"/><path id="z33879d8" d="M407 608C397 604 388 602 382 604C373 606 372 611 376 618C377 620 378 624 381 630C388 660 388 660 392 675C392 761 385 816 373 843C361 866 368 889 389 916C393 922 398 926 404 923C410 918 419 905 424 889C427 877 430 865 431 853C431 827 434 777 435 761C436 740 436 740 436 730C437 688 438 668 440 647C443 630 423 614 407 608Z"/><path id="z33879d9" d="M627 868C632 886 645 923 658 947C676 982 699 962 711 930C720 903 723 877 720 846C716 807 710 752 707 683C705 660 711 645 722 632C728 623 729 615 723 609C710 596 686 583 654 567C642 561 632 560 622 566C604 575 526 600 474 609C455 613 426 611 407 608C390 605 423 647 440 647C452 647 507 635 606 615C620 611 632 610 639 618C653 634 654 703 652 805C651 827 650 847 641 853C636 858 626 861 627 868Z"/><path id="z33879d10" d="M435 761C452 765 458 754 582 742C598 740 602 733 597 724C590 713 577 707 559 704C536 700 496 708 436 730C426 733 425 759 435 761Z"/><path id="z33879d11" d="M424 889C436 899 456 887 627 868C634 867 645 858 641 853C636 846 626 837 612 829C601 821 587 821 567 826C530 835 514 838 431 853C419 855 413 884 424 889Z"/></g>
<defs><clipPath id="z33879c1"><use href="#z33879d1"/></clipPath>
	<clipPath id="z33879c2"><use href="#z33879d2"/></clipPath>
	<clipPath id="z33879c3"><use href="#z33879d3"/></clipPath>
	<clipPath id="z33879c4"><use href="#z33879d4"/></clipPath>
	<clipPath id="z33879c5"><use href="#z33879d5"/></clipPath>
	<clipPath id="z33879c6"><use href="#z33879d6"/></clipPath>
	<clipPath id="z33879c7"><use href="#z33879d7"/></clipPath>
	<clipPath id="z33879c8"><use href="#z33879d8"/></clipPath>
	<clipPath id="z33879c9"><use href="#z33879d9"/></clipPath>
	<clipPath id="z33879c10"><use href="#z33879d10"/></clipPath>
	<clipPath id="z33879c11"><use href="#z33879d11"/></clipPath><marker id="guide-arrow" viewBox="0 0 16 16" refX="5" refY="5" markerWidth="4" markerHeight="4" orient="auto-start-reverse"><path d="M 0 0 L 10 5 L 0 10 z" fill="inherit"/></marker></defs>
<g class="strokes"><path pathLength="3333" clip-path="url(#z33879c1)" d="M213 206L694 161L791 170"/><path pathLength="3333" clip-path="url(#z33879c2)" d="M344 82L396 117L421 261"/><path pathLength="3333" clip-path="url(#z33879c3)" d="M595 45L635 91L570 269"/><path pathLength="3333" clip-path="url(#z33879c4)" d="M322 392L617 364"/><path pathLength="3333" clip-path="url(#z33879c5)" d="M451 269L501 313L496 499"/><path pathLength="3333" clip-path="url(#z33879c6)" d="M115 540L182 552L827 476L928 492"/><path pathLength="3333" clip-path="url(#z33879c7)" d="M701 306L730 349L509 551L280 733L87 839"/><path pathLength="3333" clip-path="url(#z33879c8)" d="M381 610L415 664L398 918"/><path pathLength="3333" clip-path="url(#z33879c9)" d="M409 613L457 628L631 587L686 625L680 960"/><path pathLength="3333" clip-path="url(#z33879c10)" d="M436 751L594 732"/><path pathLength="3333" clip-path="url(#z33879c11)" d="M423 879L637 850"/></g>
<g class="guides"><text class="g1" style="--gs:1" x="213" y="206">①</text><path class="g1 aligned" style="--gs:1" d="M213,206 Q694,161 706.13,162.13 Q778.88,168.88 791,170"/><path class="g1 offset" style="--gs:1" d="M213,302 Q694,257 706.13,258.13 Q778.88,264.88 791,266"/><text class="g2" style="--gs:2" x="344" y="82">②</text><path class="g2 aligned" style="--gs:2" d="M344,82 Q396,117 399.13,135 Q417.88,243 421,261"/><path class="g2 offset" style="--gs:2" d="M429.68,13.46 Q481.68,48.46 484.81,66.46 Q503.56,174.46 506.68,192.46"/><text class="g3" style="--gs:3" x="595" y="45">③</text><path class="g3 aligned" style="--gs:3" d="M595,45 Q635,91 626.88,113.25 Q578.13,246.75 570,269"/><path class="g3 offset" style="--gs:3" d="M499,45 Q539,91 530.88,113.25 Q482.13,246.75 474,269"/><text class="g4" style="--gs:4" x="322" y="392">④</text><path class="g4 aligned" style="--gs:4" d="M322,392 L617,364"/><path class="g4 offset" style="--gs:4" d="M322,488 L617,460"/><text class="g5" style="--gs:5" x="451" y="269">⑤</text><path class="g5 aligned" style="--gs:5" d="M451,269 Q501,313 500.38,336.25 Q496.63,475.75 496,499"/><path class="g5 offset" style="--gs:5" d="M355,269 Q405,313 404.38,336.25 Q400.63,475.75 400,499"/><text class="g6" style="--gs:6" x="115" y="540">⑥</text><path class="g6 aligned" style="--gs:6" d="M115,540 Q182,552 343.25,533 Q827,476 852.25,480 Q902.75,488 928,492"/><path class="g6 offset" style="--gs:6" d="M115,636 Q182,648 343.25,629 Q827,572 852.25,576 Q902.75,584 928,588"/><text class="g7" style="--gs:7" x="701" y="306">⑦</text><path class="g7 aligned" style="--gs:7" d="M701,306 Q730,349 619.5,450 Q509,551 394.5,642 Q280,733 183.5,786 Q183.5,786 87,839"/><path class="g7 offset" style="--gs:7" d="M605,306 Q629.67,341.26 535.67,424.06 Q441.67,506.87 344.26,581.48 Q246.86,656.09 164.76,699.55 Q164.76,699.55 82.67,743"/><text class="g8" style="--gs:8" x="381" y="610">⑧</text><path class="g8 aligned" style="--gs:8" d="M381,610 Q415,664 412.88,695.75 Q400.13,886.25 398,918"/><path class="g8 offset" style="--gs:8" d="M285,610 Q319,664 316.88,695.75 Q304.13,886.25 302,918"/><text class="g9" style="--gs:9" x="409" y="613">⑨</text><path class="g9 aligned" style="--gs:9" d="M409,613 Q457,628 544,607.5 Q631,587 658.5,606 Q686,625 683,792.5 Q683,792.5 680,960"/><path class="g9 offset" style="--gs:9" d="M409,709 Q436.21,713.45 485.52,698.22 Q534.83,683 550.41,697.11 Q566,711.22 564.3,835.61 Q564.3,835.61 562.6,960"/><text class="g10" style="--gs:10" x="436" y="751">⑩</text><path class="g10 aligned" style="--gs:10" d="M436,751 L594,732"/><path class="g10 offset" style="--gs:10" d="M436,847 L594,828"/><text class="g11" style="--gs:11" x="423" y="879">⑪</text><path class="g11 aligned" style="--gs:11" d="M423,879 L637,850"/><path class="g11 offset" style="--gs:11" d="M423,975 L637,946"/></g>
</svg>
