<svg id="z34154" class="acjk" viewBox="0 0 1024 1024" xmlns="http://www.w3.org/2000/svg">
<style>

@keyframes zk {
	to {
		stroke-dashoffset:0;
	}
}
svg.acjk path[clip-path] {
	--t:0.8s;
	animation:zk var(--t) linear forwards var(--d);
	stroke-dasharray:3337;
	stroke-dashoffset:3339;
	stroke-width:128;
	stroke-linecap:round;
	fill:none;
	stroke:#000;
}
svg.acjk path[id] {fill:#ccc;}


    @keyframes guide-fade {
        0% { opacity: 0; }
        3% { opacity: 1; }
        95% { opacity: 1; }
        100% { opacity: 0; }
    }

    svg.acjk #guide-arrow {
        fill: #f77;
    }

    svg.acjk .guides {
        circle {
            fill: #0f6;
        }

        path {
            opacity: 0;
            animation: guide-fade var(--t) linear forwards var(--d);
            stroke-width: 16px;
            stroke-linecap: round;
            stroke: #f77;
            fill: none;
            marker-end: url(#guide-arrow);
        }

        circle,
        path {
            --t: 0.8s;
            opacity: 0;
            animation: guide-fade calc(var(--t) + 0.4s) ease-in-out forwards calc(var(--d) - 0.2s);
        }
    }
</style>
<path id="z34154d1" d="M634 212C672 210 748 208 814 213C823 213 832 211 835 205C838 197 835 186 826 178C806 158 781 148 746 150C713 151 687 157 658 163C619 170 619 170 599 173C574 177 463 190 417 196C385 200 385 200 369 202C310 209 268 215 204 222C183 224 178 231 194 241C216 255 239 261 270 258C307 253 338 246 376 239C405 234 405 234 419 231C461 223 565 214 587 214C618 213 618 213 634 212Z"/>
<path id="z34154d2" d="M417 196C415 172 414 152 414 133C414 120 407 112 396 107C369 94 349 88 335 94C322 98 320 108 331 122C351 147 364 176 369 202C374 227 374 227 376 239C382 270 389 290 400 300C407 306 414 306 417 299C421 286 420 264 419 231C418 208 418 208 417 196Z"/>
<path id="z34154d3" d="M658 163C664 149 671 130 685 114C693 103 695 97 690 89C681 78 666 66 645 53C633 46 622 44 611 51C603 54 604 59 608 68C615 85 613 121 599 173C591 200 591 200 587 214C578 242 571 263 573 278C573 287 579 289 590 282C596 278 612 255 634 212C650 179 650 179 658 163Z"/>
<path id="z34154d4" d="M469 348C496 324 525 309 525 286C524 277 516 271 501 266C484 259 472 256 465 258C460 258 456 262 455 271C446 306 400 358 313 425C300 434 302 437 318 436C344 433 390 415 446 368C461 355 461 355 469 348Z"/>
<path id="z34154d5" d="M446 368C470 382 499 385 530 379C578 369 628 361 679 352C701 347 714 343 718 340C722 335 724 329 722 326C718 318 707 313 692 309C677 305 640 316 575 331C511 345 475 346 469 348C459 350 437 363 446 368Z"/>
<path id="z34154d6" d="M723 531C765 527 806 520 847 520C854 519 862 520 867 510C870 502 859 495 847 487C823 472 789 472 738 483C698 491 698 491 678 495C649 500 621 505 595 510C566 515 566 515 551 517C522 521 494 524 467 528C438 531 438 531 423 533C407 534 375 536 359 538C326 541 326 541 310 542C279 544 247 545 214 548C195 549 192 554 206 568C224 584 245 593 269 590C283 587 300 584 319 582C350 577 350 577 365 575C385 571 406 567 428 565C455 562 455 562 468 560C494 556 522 553 551 549C578 545 578 545 592 543C626 538 653 536 672 535C706 532 706 532 723 531Z"/>
<path id="z34154d7" d="M359 538C356 524 359 497 350 491C334 480 319 472 306 470C299 468 293 470 288 474C283 476 281 481 286 487C297 502 305 520 310 542C316 569 316 569 319 582C325 610 334 651 346 704C348 716 386 712 384 700C377 654 371 612 365 575C361 550 361 550 359 538Z"/>
<path id="z34154d8" d="M467 528C466 512 469 492 473 469C473 464 469 457 458 452C439 442 423 439 412 439C403 438 398 440 395 445C392 449 391 456 397 462C408 474 417 497 423 533C426 554 426 554 428 565C434 605 437 648 443 694C445 704 474 701 474 691C472 645 469 601 468 560C467 539 467 539 467 528Z"/>
<path id="z34154d9" d="M595 510C596 490 603 467 611 450C612 445 609 437 599 430C583 418 567 413 556 411C547 409 542 410 538 414C534 418 532 424 537 431C546 448 551 476 551 517C551 538 551 538 551 549C551 591 546 635 543 683C543 694 573 690 575 679C581 632 587 587 592 543C594 521 594 521 595 510Z"/>
<path id="z34154d10" d="M686 666C698 619 709 573 723 531C733 499 733 499 738 483C742 470 750 458 756 445C758 439 757 429 747 420C729 403 712 395 700 390C691 386 684 386 678 391C673 394 671 400 675 410C680 426 684 454 678 495C674 522 674 522 672 535C665 577 655 623 645 671C643 685 683 680 686 666Z"/>
<path id="z34154d11" d="M346 704C271 711 194 717 114 725C99 726 95 732 107 745C115 755 126 762 140 766C153 770 167 770 179 768C387 715 631 696 916 710C929 710 938 707 942 701C946 693 942 682 931 674C894 643 854 636 812 645C775 652 733 660 686 666C659 669 659 669 645 671C622 673 599 676 575 679C554 682 554 682 543 683C519 685 495 688 474 691C453 693 453 693 443 694C423 695 403 697 384 700C359 703 359 703 346 704Z"/>
<path id="z34154d12" d="M255 789C234 819 212 848 188 876C171 893 168 914 175 938C178 950 186 954 201 948C217 940 230 926 243 908C257 887 265 866 271 847C276 826 281 808 278 793C276 785 272 782 269 782C263 781 258 784 255 789Z"/>
<path id="z34154d13" d="M374 816C389 856 401 886 419 902C425 908 435 907 444 902C451 896 456 888 457 878C458 852 437 821 397 787C389 780 382 778 376 778C371 778 369 780 368 788C366 794 369 803 374 816Z"/>
<path id="z34154d14" d="M537 808C563 848 583 876 602 885C611 889 621 886 627 879C632 871 635 861 635 851C632 820 604 795 555 774C544 769 536 767 530 768C525 768 524 772 525 781C525 788 529 797 537 808Z"/>
<path id="z34154d15" d="M718 807C750 837 787 874 828 918C839 930 849 939 860 942C866 943 871 939 877 933C885 923 884 905 876 875C865 837 812 805 718 776C711 773 707 774 707 783C706 791 710 799 718 807Z"/>
<defs>
	<clipPath id="z34154c1"><use href="#z34154d1"/></clipPath>
	<clipPath id="z34154c2"><use href="#z34154d2"/></clipPath>
	<clipPath id="z34154c3"><use href="#z34154d3"/></clipPath>
	<clipPath id="z34154c4"><use href="#z34154d4"/></clipPath>
	<clipPath id="z34154c5"><use href="#z34154d5"/></clipPath>
	<clipPath id="z34154c6"><use href="#z34154d6"/></clipPath>
	<clipPath id="z34154c7"><use href="#z34154d7"/></clipPath>
	<clipPath id="z34154c8"><use href="#z34154d8"/></clipPath>
	<clipPath id="z34154c9"><use href="#z34154d9"/></clipPath>
	<clipPath id="z34154c10"><use href="#z34154d10"/></clipPath>
	<clipPath id="z34154c11"><use href="#z34154d11"/></clipPath>
	<clipPath id="z34154c12"><use href="#z34154d12"/></clipPath>
	<clipPath id="z34154c13"><use href="#z34154d13"/></clipPath>
	<clipPath id="z34154c14"><use href="#z34154d14"/></clipPath>
	<clipPath id="z34154c15"><use href="#z34154d15"/></clipPath>
<marker id="guide-arrow" viewBox="0 0 16 16" refX="5" refY="5" markerWidth="4" markerHeight="4" orient="auto-start-reverse"><path d="M 0 0 L 10 5 L 0 10 z" fill="inherit"/></marker></defs>
<path style="--d:1s;" pathLength="3333" clip-path="url(#z34154c1)" d="M193 230L728 180L831 188"/>
<path style="--d:2s;" pathLength="3333" clip-path="url(#z34154c2)" d="M330 103L381 137L408 298"/>
<path style="--d:3s;" pathLength="3333" clip-path="url(#z34154c3)" d="M611 56L651 109L582 279"/>
<path style="--d:4s;" pathLength="3333" clip-path="url(#z34154c4)" d="M464 262L477 304L315 431"/>
<path style="--d:5s;" pathLength="3333" clip-path="url(#z34154c5)" d="M452 364L717 324"/>
<path style="--d:6s;" pathLength="3333" clip-path="url(#z34154c6)" d="M204 556L272 567L862 504"/>
<path style="--d:7s;" pathLength="3333" clip-path="url(#z34154c7)" d="M290 479L330 513L366 709"/>
<path style="--d:8s;" pathLength="3333" clip-path="url(#z34154c8)" d="M401 450L443 483L459 697"/>
<path style="--d:9s;" pathLength="3333" clip-path="url(#z34154c9)" d="M544 421L579 456L554 685"/>
<path style="--d:10s;" pathLength="3333" clip-path="url(#z34154c10)" d="M680 395L719 443L655 676"/>
<path style="--d:11s;" pathLength="3333" clip-path="url(#z34154c11)" d="M107 733L175 743L817 675L939 693"/>
<path style="--d:12s;" pathLength="3333" clip-path="url(#z34154c12)" d="M266 789L179 941"/>
<path style="--d:13s;" pathLength="3333" clip-path="url(#z34154c13)" d="M375 782L432 903"/>
<path style="--d:14s;" pathLength="3333" clip-path="url(#z34154c14)" d="M532 774L620 882"/>
<path style="--d:15s;" pathLength="3333" clip-path="url(#z34154c15)" d="M714 781L831 868L867 936"/>
<g class="guides"><circle style="--d: 1s" class="g1" cx="193" cy="230" r="16"/><path style="--d: 1s;" class="g1" d="M193,326 Q728,276 740.875,277 Q818.125,283 831,284"/><circle style="--d: 2s" class="g2" cx="330" cy="103" r="16"/><path style="--d: 2s;" class="g2" d="M415.68,34.456 Q466.68,68.456 470.055,88.581 Q490.305,209.33100000000002 493.68,229.45600000000002"/><circle style="--d: 3s" class="g3" cx="611" cy="56" r="16"/><path style="--d: 3s;" class="g3" d="M515,56 Q555,109 546.375,130.25 Q494.625,257.75 486,279"/><circle style="--d: 4s" class="g4" cx="464" cy="262" r="16"/><path style="--d: 4s;" class="g4" d="M368,262 Q374.5,283 364.375,290.9375 Q303.625,338.5625 293.5,346.5"/><circle style="--d: 5s" class="g5" cx="452" cy="364" r="16"/><path style="--d: 5s;" class="g5" d="M452,460 L717,420"/><circle style="--d: 6s" class="g6" cx="204" cy="556" r="16"/><path style="--d: 6s;" class="g6" d="M204,652 Q272,663 345.75,655.125 Q788.25,607.875 862,600"/><circle style="--d: 7s" class="g7" cx="290" cy="479" r="16"/><path style="--d: 7s;" class="g7" d="M375.68,410.456 Q415.68,444.456 420.18,468.956 Q447.18,615.956 451.68,640.456"/><circle style="--d: 8s" class="g8" cx="401" cy="450" r="16"/><path style="--d: 8s;" class="g8" d="M486.68,381.456 Q528.68,414.456 530.68,441.206 Q542.68,601.706 544.68,628.456"/><circle style="--d: 9s" class="g9" cx="544" cy="421" r="16"/><path style="--d: 9s;" class="g9" d="M448,421 Q483,456 479.875,484.625 Q461.125,656.375 458,685"/><circle style="--d: 10s" class="g10" cx="680" cy="395" r="16"/><path style="--d: 10s;" class="g10" d="M584,395 Q623,443 615,472.125 Q567,646.875 559,676"/><circle style="--d: 11s" class="g11" cx="107" cy="733" r="16"/><path style="--d: 11s;" class="g11" d="M107,829 Q175,839 335.5,822 Q817,771 847.5,775.5 Q908.5,784.5 939,789"/><circle style="--d: 12s" class="g12" cx="266" cy="789" r="16"/><path style="--d: 12s;" class="g12" d="M386,789 L299,941"/><circle style="--d: 13s" class="g13" cx="375" cy="782" r="16"/><path style="--d: 13s;" class="g13" d="M495,782 L552,903"/><circle style="--d: 14s" class="g14" cx="532" cy="774" r="16"/><path style="--d: 14s;" class="g14" d="M617.68,705.456 L705.68,813.456"/><circle style="--d: 15s" class="g15" cx="714" cy="781" r="16"/><path style="--d: 15s;" class="g15" d="M799.68,712.456 Q916.68,799.456 921.18,807.956 Q948.18,858.956 952.68,867.456"/></g></svg>