<svg id="z34180" class="acjk" viewBox="0 0 1024 1024" xmlns="http://www.w3.org/2000/svg">
<style>

@keyframes zk {
	to {
		stroke-dashoffset:0;
	}
}
svg.acjk path[clip-path] {
	--t:0.8s;
	animation:zk var(--t) linear forwards var(--d);
	stroke-dasharray:3337;
	stroke-dashoffset:3339;
	stroke-width:128;
	stroke-linecap:round;
	fill:none;
	stroke:#000;
}
svg.acjk path[id] {fill:#ccc;}


    @keyframes guide-fade {
        0% { opacity: 0; }
        3% { opacity: 1; }
        95% { opacity: 1; }
        100% { opacity: 0; }
    }

    svg.acjk #guide-arrow {
        fill: #f77;
    }

    svg.acjk .guides {
        circle {
            fill: #0f6;
        }

        path {
            opacity: 0;
            animation: guide-fade var(--t) linear forwards var(--d);
            stroke-width: 16px;
            stroke-linecap: round;
            stroke: #f77;
            fill: none;
            marker-end: url(#guide-arrow);
        }

        circle,
        path {
            --t: 0.8s;
            opacity: 0;
            animation: guide-fade calc(var(--t) + 0.4s) ease-in-out forwards calc(var(--d) - 0.2s);
        }
    }
</style>
<path id="z34180d1" d="M639 170C658 168 711 162 801 169C809 169 815 167 818 163C821 156 819 147 812 141C775 109 725 117 658 128C621 134 621 134 602 137C584 139 493 151 435 158C403 161 403 161 387 163C332 168 275 173 217 178C200 179 196 185 209 194C232 211 270 215 321 205C345 199 370 196 396 193C424 189 424 189 438 187C486 180 539 176 595 173C624 171 624 171 639 170Z"/>
<path id="z34180d2" d="M435 158C433 141 430 127 430 115C430 102 424 95 412 92C384 83 365 78 354 84C342 89 342 98 353 110C367 126 381 143 387 163C393 183 393 183 396 193C409 237 419 260 427 266C435 272 443 275 444 260C444 239 441 221 438 187C436 168 436 168 435 158Z"/>
<path id="z34180d3" d="M605 227C612 219 624 201 639 170C652 142 652 142 658 128C663 116 664 113 671 106C678 96 680 89 675 83C667 73 653 63 633 53C622 47 613 46 603 52C596 56 595 60 600 67C607 78 608 103 602 137C597 161 597 161 595 173C593 183 588 209 588 218C587 235 591 241 605 227Z"/>
<path id="z34180d4" d="M268 322C284 334 300 348 318 364C326 371 336 375 347 374C353 373 358 368 361 360C363 350 361 335 354 317C349 306 339 294 320 289C273 274 246 272 240 277C236 279 235 285 237 293C238 300 250 308 268 322Z"/>
<path id="z34180d5" d="M183 460C210 490 232 514 254 522C264 525 273 520 279 511C283 502 284 492 282 481C278 464 270 452 258 444C219 418 190 412 169 420C165 421 164 425 166 434C167 441 173 449 183 460Z"/>
<path id="z34180d6" d="M154 781C146 785 142 790 144 801C151 849 168 878 190 892C195 895 200 897 207 896C211 894 212 886 215 871C219 836 256 740 321 583C325 572 327 565 327 562C326 555 323 553 317 558C308 563 267 625 194 741C185 753 173 768 154 781Z"/>
<path id="z34180d7" d="M608 332Q737 304 738 303Q745 296 742 289Q736 280 713 273Q689 269 665 277Q638 284 611 293C577 302 577 302 560 306Q511 313 455 318Q427 322 447 337Q474 353 541 344Q548 343 560 341C592 335 592 335 608 332Z"/>
<path id="z34180d8" d="M432 409C425 404 411 399 390 394C382 391 377 391 375 395C370 399 370 406 376 416C392 456 403 508 409 572C409 590 415 606 425 620C435 634 443 637 447 627C449 623 450 619 451 612C452 590 452 590 452 579C445 514 440 458 439 438C439 428 440 415 432 409Z"/>
<path id="z34180d9" d="M604 405C669 393 709 389 725 398C729 400 733 406 733 424C726 488 720 526 715 540C711 550 709 561 713 571C716 580 723 587 731 587C739 585 746 579 750 571C756 562 763 538 773 498C781 465 796 439 818 421C828 410 829 400 819 392C807 382 785 370 755 356C739 348 709 358 605 377C574 382 574 382 559 385C542 387 457 404 432 409C422 411 429 438 439 438C443 438 449 438 456 437C480 428 514 420 558 413C589 408 589 408 604 405Z"/>
<path id="z34180d10" d="M602 495C624 491 642 487 664 485C676 483 681 477 677 470C671 460 661 454 647 452C634 449 621 451 602 458C572 467 572 467 557 472C536 478 515 481 498 487C488 489 488 496 501 504C505 506 521 509 557 503C587 498 587 498 602 495Z"/>
<path id="z34180d11" d="M452 579C483 573 545 561 558 558C585 552 585 552 598 549C629 542 654 536 671 536C685 535 703 538 715 540C725 542 723 571 713 571C692 569 649 575 578 589C550 595 472 609 451 612C440 614 441 581 452 579Z"/>
<path id="z34180d12" d="M598 549C599 523 606 366 607 351C608 329 609 309 611 293C611 286 615 275 617 268C619 258 616 253 609 247C600 239 580 228 571 227C563 225 556 224 548 228C543 232 542 237 546 243C554 261 558 284 560 306C564 358 558 533 558 558C558 572 598 563 598 549Z"/>
<path id="z34180d13" d="M723 224C760 258 787 273 803 273C811 272 818 267 819 255C819 247 815 236 807 226C791 206 763 198 723 198C717 198 714 201 715 209C715 213 717 218 723 224Z"/>
<path id="z34180d14" d="M727 683C777 682 809 681 844 682C884 682 906 682 910 676C913 669 910 660 901 652C866 622 835 621 806 627C790 630 761 635 736 639C694 645 694 645 673 648C651 651 435 674 339 684C326 685 323 691 334 702C351 719 377 725 407 718C487 699 591 685 675 684C710 683 710 683 727 683Z"/>
<path id="z34180d15" d="M574 853C565 851 562 852 563 858C563 862 567 865 574 871C619 908 649 939 667 963C675 973 686 975 696 966C721 941 730 895 727 833C721 743 722 706 727 683C733 654 733 654 736 639C738 627 739 618 729 609C713 595 695 585 677 578C666 573 657 572 652 578C647 582 649 589 656 599C665 613 672 629 673 648C674 672 674 672 675 684C679 768 670 853 659 863C653 867 645 866 636 865C595 857 595 857 574 853Z"/>
<path id="z34180d16" d="M496 765C526 797 544 817 555 818C561 818 566 814 569 807C572 799 572 786 569 769C565 752 540 737 495 724C486 721 479 719 476 721C472 722 471 728 472 736C472 742 482 750 496 765Z"/>
<defs>
	<clipPath id="z34180c1"><use href="#z34180d1"/></clipPath>
	<clipPath id="z34180c2"><use href="#z34180d2"/></clipPath>
	<clipPath id="z34180c3"><use href="#z34180d3"/></clipPath>
	<clipPath id="z34180c4"><use href="#z34180d4"/></clipPath>
	<clipPath id="z34180c5"><use href="#z34180d5"/></clipPath>
	<clipPath id="z34180c6"><use href="#z34180d6"/></clipPath>
	<clipPath id="z34180c7"><use href="#z34180d7"/></clipPath>
	<clipPath id="z34180c8"><use href="#z34180d8"/></clipPath>
	<clipPath id="z34180c9"><use href="#z34180d9"/></clipPath>
	<clipPath id="z34180c10"><use href="#z34180d10"/></clipPath>
	<clipPath id="z34180c11"><use href="#z34180d11"/></clipPath>
	<clipPath id="z34180c12"><use href="#z34180d12"/></clipPath>
	<clipPath id="z34180c13"><use href="#z34180d13"/></clipPath>
	<clipPath id="z34180c14"><use href="#z34180d14"/></clipPath>
	<clipPath id="z34180c15"><use href="#z34180d15"/></clipPath>
	<clipPath id="z34180c16"><use href="#z34180d16"/></clipPath>
<marker id="guide-arrow" viewBox="0 0 16 16" refX="5" refY="5" markerWidth="4" markerHeight="4" orient="auto-start-reverse"><path d="M 0 0 L 10 5 L 0 10 z" fill="inherit"/></marker></defs>
<path style="--d:1s;" pathLength="3333" clip-path="url(#z34180c1)" d="M209 185L724 141L815 155"/>
<path style="--d:2s;" pathLength="3333" clip-path="url(#z34180c2)" d="M351 95L402 123L433 265"/>
<path style="--d:3s;" pathLength="3333" clip-path="url(#z34180c3)" d="M605 56L642 95L593 231"/>
<path style="--d:4s;" pathLength="3333" clip-path="url(#z34180c4)" d="M245 286L321 325L349 368"/>
<path style="--d:5s;" pathLength="3333" clip-path="url(#z34180c5)" d="M170 426L273 511"/>
<path style="--d:6s;" pathLength="3333" clip-path="url(#z34180c6)" d="M155 795L189 839L321 564"/>
<path style="--d:7s;" pathLength="3333" clip-path="url(#z34180c7)" d="M449 328L737 294"/>
<path style="--d:8s;" pathLength="3333" clip-path="url(#z34180c8)" d="M379 398L414 446L440 625"/>
<path style="--d:9s;" pathLength="3333" clip-path="url(#z34180c9)" d="M441 414L699 376L760 388L778 409L729 582"/>
<path style="--d:10s;" pathLength="3333" clip-path="url(#z34180c10)" d="M502 496L670 469"/>
<path style="--d:11s;" pathLength="3333" clip-path="url(#z34180c11)" d="M457 605L712 553"/>
<path style="--d:12s;" pathLength="3333" clip-path="url(#z34180c12)" d="M553 237L587 268L574 554"/>
<path style="--d:13s;" pathLength="3333" clip-path="url(#z34180c13)" d="M721 208L812 263"/>
<path style="--d:14s;" pathLength="3333" clip-path="url(#z34180c14)" d="M335 691L823 651L905 665"/>
<path style="--d:15s;" pathLength="3333" clip-path="url(#z34180c15)" d="M658 584L705 633L691 885L663 918L570 860"/>
<path style="--d:16s;" pathLength="3333" clip-path="url(#z34180c16)" d="M479 727L540 773L555 812"/>
<g class="guides"><circle style="--d: 1s" class="g1" cx="209" cy="185" r="16"/><path style="--d: 1s;" class="g1" d="M209,281 Q724,237 735.375,238.75 Q803.625,249.25 815,251"/><circle style="--d: 2s" class="g2" cx="351" cy="95" r="16"/><path style="--d: 2s;" class="g2" d="M351,191 Q376.5,205 378.4375,213.875 Q390.0625,267.125 392,276"/><circle style="--d: 3s" class="g3" cx="605" cy="56" r="16"/><path style="--d: 3s;" class="g3" d="M509,56 Q546,95 539.875,112 Q503.125,214 497,231"/><circle style="--d: 4s" class="g4" cx="245" cy="286" r="16"/><path style="--d: 4s;" class="g4" d="M330.68,217.45600000000002 Q406.68,256.456 410.18,261.831 Q431.18,294.081 434.68,299.456"/><circle style="--d: 5s" class="g5" cx="170" cy="426" r="16"/><path style="--d: 5s;" class="g5" d="M255.68,357.456 L358.68,442.456"/><circle style="--d: 6s" class="g6" cx="155" cy="795" r="16"/><path style="--d: 6s;" class="g6" d="M86.456,726.456 Q120.456,759.48896 136.95600000000002,733.68196 Q235.95600000000002,578.83996 252.45600000000002,553.03296"/><circle style="--d: 7s" class="g7" cx="449" cy="328" r="16"/><path style="--d: 7s;" class="g7" d="M449,424 L737,390"/><circle style="--d: 8s" class="g8" cx="379" cy="398" r="16"/><path style="--d: 8s;" class="g8" d="M464.68,329.456 Q499.68,377.456 502.93,399.831 Q522.43,534.081 525.68,556.456"/><circle style="--d: 9s" class="g9" cx="441" cy="414" r="16"/><path style="--d: 9s;" class="g9" d="M441,510 Q607.1305637982196,472 626.7700296735904,478 Q646.4094955489614,484 652.2047477744807,494.5 Q658,505 642.2240356083087,543.5 Q642.2240356083087,543.5 626.4480712166172,582"/><circle style="--d: 10s" class="g10" cx="502" cy="496" r="16"/><path style="--d: 10s;" class="g10" d="M502,592 L670,565"/><circle style="--d: 11s" class="g11" cx="457" cy="605" r="16"/><path style="--d: 11s;" class="g11" d="M457,701 L712,649"/><circle style="--d: 12s" class="g12" cx="553" cy="237" r="16"/><path style="--d: 12s;" class="g12" d="M457,237 Q491,268 489.375,303.75 Q479.625,518.25 478,554"/><circle style="--d: 13s" class="g13" cx="721" cy="208" r="16"/><path style="--d: 13s;" class="g13" d="M806.68,139.45600000000002 L897.68,194.45600000000002"/><circle style="--d: 14s" class="g14" cx="335" cy="691" r="16"/><path style="--d: 14s;" class="g14" d="M335,787 Q823,747 833.25,748.75 Q894.75,759.25 905,761"/><circle style="--d: 15s" class="g15" cx="658" cy="584" r="16"/><path style="--d: 15s;" class="g15" d="M562,584 Q585.5,618.9161676646706 582,708.7005988023952 Q578.5,798.4850299401197 571.5,810.2425149700598 Q564.5,822 541.25,801.3353293413174 Q541.25,801.3353293413174 518,780.6706586826348"/><circle style="--d: 16s" class="g16" cx="479" cy="727" r="16"/><path style="--d: 16s;" class="g16" d="M564.68,658.456 L633.68,724.456"/></g></svg>