<svg id="z34269" class="acjk" viewBox="0 0 1024 1024" xmlns="http://www.w3.org/2000/svg">
<style>

@keyframes zk {
	to {
		stroke-dashoffset:0;
	}
}
svg.acjk path[clip-path] {
	--t:0.8s;
	animation:zk var(--t) linear forwards var(--d);
	stroke-dasharray:3337;
	stroke-dashoffset:3339;
	stroke-width:128;
	stroke-linecap:round;
	fill:none;
	stroke:#000;
}
svg.acjk path[id] {fill:#ccc;}


    @keyframes guide-fade {
        0% { opacity: 0; }
        3% { opacity: 1; }
        95% { opacity: 1; }
        100% { opacity: 0; }
    }

    svg.acjk #guide-arrow {
        fill: #f77;
    }

    svg.acjk .guides {
        circle {
            fill: #0f6;
        }

        path {
            opacity: 0;
            animation: guide-fade var(--t) linear forwards var(--d);
            stroke-width: 16px;
            stroke-linecap: round;
            stroke: #f77;
            fill: none;
            marker-end: url(#guide-arrow);
        }

        circle,
        path {
            --t: 0.8s;
            opacity: 0;
            animation: guide-fade calc(var(--t) + 0.4s) ease-in-out forwards calc(var(--d) - 0.2s);
        }
    }
</style>
<path id="z34269d1" d="M625 149C659 147 758 139 842 145C850 145 860 143 863 137C866 129 862 118 854 112C815 80 753 88 648 104C611 109 611 109 593 112C533 120 505 124 442 132C413 135 413 135 399 137C345 143 248 149 192 156C171 158 164 164 182 175C206 191 247 195 287 189C308 185 389 173 406 171C432 167 432 167 445 165C463 162 560 151 580 151C610 150 610 150 625 149Z"/>
<path id="z34269d2" d="M442 132C437 82 443 79 422 71C398 62 381 58 370 63C359 67 358 76 368 87C381 102 393 118 399 137C404 160 404 160 406 171C415 202 422 214 432 222C439 228 445 227 447 221C448 214 448 204 445 165C443 143 443 143 442 132Z"/>
<path id="z34269d3" d="M646 104C661 73 676 71 668 59C661 49 648 38 630 27C621 21 611 19 601 24C594 26 595 31 598 39C603 52 605 71 593 112C584 138 584 138 580 151C569 186 562 205 563 215C563 221 568 225 576 221C584 215 604 187 625 149C639 119 639 119 646 104Z"/>
<path id="z34269d4" d="M367 333C386 328 407 322 432 317C450 312 461 308 464 305C467 300 469 296 467 293C463 286 453 281 439 279C423 276 401 285 372 294C342 303 342 303 327 307C300 314 273 320 245 324C226 326 223 332 238 341C258 353 290 351 329 342C354 336 354 336 367 333Z"/>
<path id="z34269d5" d="M362 374C362 359 365 345 367 333C370 307 370 307 372 294C374 275 378 259 383 248C384 243 381 235 371 229C355 219 340 214 329 212C322 210 316 210 312 215C307 218 307 224 312 232C318 242 324 265 327 307C328 330 328 330 329 342C329 355 329 382 329 382C329 393 362 385 362 374Z"/>
<path id="z34269d6" d="M242 439C277 426 328 412 397 398C420 393 420 393 431 391C444 388 457 386 472 384C480 382 485 379 486 376C486 369 481 362 472 358C453 349 418 360 362 374C340 379 340 379 329 382C226 406 150 424 98 432C91 432 87 435 86 440C84 446 86 452 96 458C117 470 142 472 169 464C184 458 199 453 216 448C233 442 233 442 242 439Z"/>
<path id="z34269d7" d="M216 448C216 480 191 521 143 573C140 576 140 583 145 582C183 569 219 537 246 501C254 489 266 476 260 464C254 453 248 445 242 439C236 433 216 439 216 448Z"/>
<path id="z34269d8" d="M397 398C414 420 404 441 411 459C423 494 493 487 516 464C528 450 518 435 501 439C474 443 457 452 444 445C435 440 438 419 441 411C445 401 440 397 431 391C421 385 390 389 397 398Z"/>
<path id="z34269d9" d="M363 552C407 541 430 533 432 532C436 528 436 524 434 520C431 515 423 510 409 508C400 506 383 509 366 515C337 524 337 524 322 528C302 533 281 538 260 542C243 544 240 551 253 558C273 569 296 568 322 562C349 555 349 555 363 552Z"/>
<path id="z34269d10" d="M359 605C359 586 361 568 363 552C365 527 365 527 366 515C366 503 374 470 369 465C357 452 345 441 334 437C324 432 307 436 312 448C316 461 322 485 322 528C322 551 322 551 322 562C322 598 322 598 322 616C322 629 359 618 359 605Z"/>
<path id="z34269d11" d="M322 616C289 625 256 633 223 643C213 645 200 646 185 646C178 646 174 649 174 655C173 661 174 667 179 671C189 679 203 688 220 697C224 699 229 697 236 693C283 665 382 625 430 598C444 588 441 580 427 584C404 589 382 598 359 605C334 612 334 612 322 616Z"/>
<path id="z34269d12" d="M616 459C625 430 639 360 642 333C644 312 644 312 645 301C645 299 645 287 651 268C653 256 651 249 641 244C616 231 601 225 594 226C584 226 582 232 590 245C596 255 603 278 600 314C598 337 598 337 597 349C593 391 588 415 581 440C578 449 575 458 571 468C548 512 524 544 495 568C475 583 479 591 498 583C541 566 570 537 599 496C606 484 611 471 616 459Z"/>
<path id="z34269d13" d="M642 333C686 317 710 307 716 311C720 313 721 319 720 330C681 535 744 639 908 639C918 638 926 637 932 635C944 629 948 617 941 600C929 573 914 546 910 515C907 500 894 468 890 492C880 538 874 569 864 578C855 585 843 581 833 578C814 571 796 561 781 546C756 520 745 480 748 428C749 377 764 338 793 313C801 305 804 299 800 294C795 287 777 277 748 265C739 261 731 262 723 268C706 279 680 290 645 301C615 310 615 310 600 314C564 324 531 329 503 332C494 332 493 336 497 345C499 351 507 356 520 361C532 365 545 366 559 362C571 357 583 353 597 349C627 338 627 338 642 333Z"/>
<path id="z34269d14" d="M599 496C629 526 645 542 650 544C653 545 656 542 660 538C664 532 665 521 660 503C654 486 639 471 616 459C593 446 593 446 581 440C564 431 550 425 541 421C536 419 534 420 534 426C533 430 546 443 571 468C590 487 590 487 599 496Z"/>
<path id="z34269d15" d="M422 650C403 652 400 660 414 668C435 680 466 681 505 672C530 665 557 660 586 655C600 652 608 649 611 647C615 642 617 637 615 633C610 626 600 622 585 619C573 616 540 624 486 640C466 645 444 646 422 650Z"/>
<path id="z34269d16" d="M455 759C489 754 583 734 748 734C760 734 768 731 772 726C775 719 771 711 761 704C729 683 703 676 684 681C609 699 462 726 242 761C230 762 228 767 238 777C246 785 255 790 266 793C277 795 288 795 298 792C334 779 375 770 420 764C443 761 443 761 455 759Z"/>
<path id="z34269d17" d="M621 849C539 861 456 874 373 886C361 887 356 885 366 879C421 838 461 816 481 807C491 801 496 793 492 787C484 775 468 766 455 759C445 753 422 752 420 764C418 776 415 789 410 799C396 826 364 854 312 875C271 890 249 899 249 910C248 918 250 927 254 940C258 954 265 964 274 969C278 971 285 972 293 969C353 937 455 905 600 874C613 871 622 870 634 867C641 866 628 848 621 849Z"/>
<path id="z34269d18" d="M634 867C688 942 718 979 720 980C725 982 731 979 737 974C746 965 748 947 745 918C740 879 691 834 594 778C588 774 584 774 582 783C579 791 583 800 589 808C598 820 610 833 621 849C630 861 630 861 634 867Z"/>
<defs>
	<clipPath id="z34269c1"><use href="#z34269d1"/></clipPath>
	<clipPath id="z34269c2"><use href="#z34269d2"/></clipPath>
	<clipPath id="z34269c3"><use href="#z34269d3"/></clipPath>
	<clipPath id="z34269c4"><use href="#z34269d4"/></clipPath>
	<clipPath id="z34269c5"><use href="#z34269d5"/></clipPath>
	<clipPath id="z34269c6"><use href="#z34269d6"/></clipPath>
	<clipPath id="z34269c7"><use href="#z34269d7"/></clipPath>
	<clipPath id="z34269c8"><use href="#z34269d8"/></clipPath>
	<clipPath id="z34269c9"><use href="#z34269d9"/></clipPath>
	<clipPath id="z34269c10"><use href="#z34269d10"/></clipPath>
	<clipPath id="z34269c11"><use href="#z34269d11"/></clipPath>
	<clipPath id="z34269c12"><use href="#z34269d12"/></clipPath>
	<clipPath id="z34269c13"><use href="#z34269d13"/></clipPath>
	<clipPath id="z34269c14"><use href="#z34269d14"/></clipPath>
	<clipPath id="z34269c15"><use href="#z34269d15"/></clipPath>
	<clipPath id="z34269c16"><use href="#z34269d16"/></clipPath>
	<clipPath id="z34269c17"><use href="#z34269d17"/></clipPath>
	<clipPath id="z34269c18"><use href="#z34269d18"/></clipPath>
<marker id="guide-arrow" viewBox="0 0 16 16" refX="5" refY="5" markerWidth="4" markerHeight="4" orient="auto-start-reverse"><path d="M 0 0 L 10 5 L 0 10 z" fill="inherit"/></marker></defs>
<path style="--d:1s;" pathLength="3333" clip-path="url(#z34269c1)" d="M179 163L738 117L860 127"/>
<path style="--d:2s;" pathLength="3333" clip-path="url(#z34269c2)" d="M367 72L415 102L437 220"/>
<path style="--d:3s;" pathLength="3333" clip-path="url(#z34269c3)" d="M604 29L635 72L570 217"/>
<path style="--d:4s;" pathLength="3333" clip-path="url(#z34269c4)" d="M238 331L464 296"/>
<path style="--d:5s;" pathLength="3333" clip-path="url(#z34269c5)" d="M318 220L351 250L340 384"/>
<path style="--d:6s;" pathLength="3333" clip-path="url(#z34269c6)" d="M92 443L478 373"/>
<path style="--d:7s;" pathLength="3333" clip-path="url(#z34269c7)" d="M228 442L232 484L148 573"/>
<path style="--d:8s;" pathLength="3333" clip-path="url(#z34269c8)" d="M407 395L438 462L517 450"/>
<path style="--d:9s;" pathLength="3333" clip-path="url(#z34269c9)" d="M255 551L429 522"/>
<path style="--d:10s;" pathLength="3333" clip-path="url(#z34269c10)" d="M319 442L345 476L336 618"/>
<path style="--d:11s;" pathLength="3333" clip-path="url(#z34269c11)" d="M177 655L228 669L431 589"/>
<path style="--d:12s;" pathLength="3333" clip-path="url(#z34269c12)" d="M594 235L625 262L596 456L559 521L490 579"/>
<path style="--d:13s;" pathLength="3333" clip-path="url(#z34269c13)" d="M501 338L555 343L734 290L760 305L728 423L757 553L824 601L903 599L895 491"/>
<path style="--d:14s;" pathLength="3333" clip-path="url(#z34269c14)" d="M541 428L635 500L646 537"/>
<path style="--d:15s;" pathLength="3333" clip-path="url(#z34269c15)" d="M412 659L609 636"/>
<path style="--d:16s;" pathLength="3333" clip-path="url(#z34269c16)" d="M240 768L687 707L767 722"/>
<path style="--d:17s;" pathLength="3333" clip-path="url(#z34269c17)" d="M427 764L450 799L309 891L317 931L630 860"/>
<path style="--d:18s;" pathLength="3333" clip-path="url(#z34269c18)" d="M589 783L707 909L726 976"/>
<g class="guides"><circle style="--d: 1s" class="g1" cx="179" cy="163" r="16"/><path style="--d: 1s;" class="g1" d="M179,259 Q738,213 753.25,214.25 Q844.75,221.75 860,223"/><circle style="--d: 2s" class="g2" cx="367" cy="72" r="16"/><path style="--d: 2s;" class="g2" d="M452.68,3.456000000000003 Q500.68,33.456 503.43,48.206 Q519.93,136.70600000000002 522.68,151.45600000000002"/><circle style="--d: 3s" class="g3" cx="604" cy="29" r="16"/><path style="--d: 3s;" class="g3" d="M508,29 Q539,72 530.875,90.125 Q482.125,198.875 474,217"/><circle style="--d: 4s" class="g4" cx="238" cy="331" r="16"/><path style="--d: 4s;" class="g4" d="M238,427 L464,392"/><circle style="--d: 5s" class="g5" cx="318" cy="220" r="16"/><path style="--d: 5s;" class="g5" d="M222,220 Q255,250 253.625,266.75 Q245.375,367.25 244,384"/><circle style="--d: 6s" class="g6" cx="92" cy="443" r="16"/><path style="--d: 6s;" class="g6" d="M92,539 L478,469"/><circle style="--d: 7s" class="g7" cx="228" cy="442" r="16"/><path style="--d: 7s;" class="g7" d="M132,442 Q134,463 128.75,468.5625 Q97.25,501.9375 92,507.5"/><circle style="--d: 8s" class="g8" cx="407" cy="395" r="16"/><path style="--d: 8s;" class="g8" d="M527,395 Q542.5,428.5 547.4375,427.75 Q577.0625,423.25 582,422.5"/><circle style="--d: 9s" class="g9" cx="255" cy="551" r="16"/><path style="--d: 9s;" class="g9" d="M255,647 L429,618"/><circle style="--d: 10s" class="g10" cx="319" cy="442" r="16"/><path style="--d: 10s;" class="g10" d="M223,442 Q249,476 247.875,493.75 Q241.125,600.25 240,618"/><circle style="--d: 11s" class="g11" cx="177" cy="655" r="16"/><path style="--d: 11s;" class="g11" d="M177,751 Q228,765 253.375,755 Q405.625,695 431,685"/><circle style="--d: 12s" class="g12" cx="610" cy="249" r="16"/><path style="--d: 12s;" class="g12" d="M514,249 Q507,395.78181818181815 502.375,407.3045454545454 Q488.5,441.8727272727273 479.875,452.1545454545454 Q462.625,472.71818181818185 454,483"/><circle style="--d: 13s" class="g13" cx="501" cy="338" r="16"/><path style="--d: 13s;" class="g13" d="M501,434 Q538.8805970149253,422.63987138263667 601.6641791044776,404.31993569131834 Q664.4477611940299,386 673.5671641791046,393.5 Q682.6865671641791,401 671.4626865671642,439.4726688102894 Q660.2388059701493,477.94533762057875 670.4104477611941,522.8810289389068 Q680.5820895522388,567.8167202572347 704.0820895522388,584.4083601286173 Q727.5820895522388,601 755.2910447761194,600.3086816720257 Q783,599.6173633440515 780.1940298507463,562.2861736334405 Q780.1940298507463,562.2861736334405 777.3880597014926,524.9549839228296"/><circle style="--d: 14s" class="g14" cx="541" cy="428" r="16"/><path style="--d: 14s;" class="g14" d="M626.68,359.456 L726.68,450.456"/><circle style="--d: 15s" class="g15" cx="412" cy="659" r="16"/><path style="--d: 15s;" class="g15" d="M412,755 L609,732"/><circle style="--d: 16s" class="g16" cx="240" cy="768" r="16"/><path style="--d: 16s;" class="g16" d="M240,864 Q687,803 697,804.875 Q757,816.125 767,818"/><circle style="--d: 17s" class="g17" cx="439" cy="782" r="16"/><path style="--d: 17s;" class="g17" d="M559,782 Q429,836.5 431,841.5 Q437,856.5 515.25,847.625 Q671.75,829.875 750,821"/><circle style="--d: 18s" class="g18" cx="589" cy="783" r="16"/><path style="--d: 18s;" class="g18" d="M674.68,714.456 Q792.68,840.456 795.055,848.831 Q809.305,899.081 811.68,907.456"/></g></svg>