<svg id="z34427" class="acjk" viewBox="0 0 1024 1024" xmlns="http://www.w3.org/2000/svg">
<style>

@keyframes zk {
	to {
		stroke-dashoffset:0;
	}
}
svg.acjk path[clip-path] {
	--t:0.8s;
	animation:zk var(--t) linear forwards var(--d);
	stroke-dasharray:3337;
	stroke-dashoffset:3339;
	stroke-width:128;
	stroke-linecap:round;
	fill:none;
	stroke:#000;
}
svg.acjk path[id] {fill:#ccc;}


    @keyframes guide-fade {
        0% { opacity: 0; }
        3% { opacity: 1; }
        95% { opacity: 1; }
        100% { opacity: 0; }
    }

    svg.acjk #guide-arrow {
        fill: #f77;
    }

    svg.acjk .guides {
        circle {
            fill: #0f6;
        }

        path {
            opacity: 0;
            animation: guide-fade var(--t) linear forwards var(--d);
            stroke-width: 16px;
            stroke-linecap: round;
            stroke: #f77;
            fill: none;
            marker-end: url(#guide-arrow);
        }

        circle,
        path {
            --t: 0.8s;
            opacity: 0;
            animation: guide-fade calc(var(--t) + 0.4s) ease-in-out forwards calc(var(--d) - 0.2s);
        }
    }
</style>
<path id="z34427d1" d="M125 407C118 404 107 402 92 400C60 395 73 412 80 424C97 456 112 500 125 556C128 572 134 586 144 597C166 621 172 598 170 579C168 568 167 557 166 547C158 502 149 451 148 436C146 424 136 412 125 407Z"/>
<path id="z34427d2" d="M411 496C427 447 447 419 466 405C478 395 477 380 467 370C457 360 434 349 400 335C388 330 375 331 362 337C339 347 317 357 296 364C263 374 263 374 247 379C207 391 166 399 125 407C113 409 137 441 148 436C180 426 217 417 248 410C280 402 280 402 296 398C321 391 340 385 354 384C376 382 384 391 381 411C375 443 368 471 361 497C356 513 405 511 411 496Z"/>
<path id="z34427d3" d="M293 555C331 547 376 540 429 531C461 524 431 506 411 496C396 490 377 494 361 497C338 503 316 511 294 517C264 525 264 525 249 529C220 536 192 541 166 547C155 549 159 579 170 579C186 579 204 573 249 564C278 558 278 558 293 555Z"/>
<path id="z34427d4" d="M290 694C290 647 291 601 293 555C294 530 294 530 294 517C295 476 296 436 296 398C296 375 296 375 296 364C296 292 302 227 316 170C318 161 313 150 297 142C271 127 248 120 231 118C195 112 190 133 206 150C249 196 242 243 247 379C248 400 248 400 248 410C249 448 249 488 249 529C249 552 249 552 249 564C249 610 247 659 245 709C245 725 290 710 290 694Z"/>
<path id="z34427d5" d="M380 661C351 671 321 683 290 694C260 704 260 704 245 709C157 738 123 748 80 753C60 754 63 777 74 786C88 797 106 808 130 819C136 821 143 818 152 813C212 771 297 735 391 683C398 679 388 658 380 661Z"/>
<path id="z34427d6" d="M391 683Q418 732 431 738Q441 741 449 731Q458 719 459 691Q460 672 438 650Q383 605 369 605Q363 606 360 619C373 647 373 647 380 661C387 676 387 676 391 683Z"/>
<path id="z34427d7" d="M623 203C644 221 664 242 686 264C696 274 708 279 721 279C729 278 736 273 740 263C744 251 743 233 736 210C728 185 688 164 618 146C605 142 596 141 592 144C587 146 585 153 588 164C589 172 602 185 623 203Z"/>
<path id="z34427d8" d="M567 489C634 473 741 448 893 436C906 434 915 432 918 426C920 418 917 408 906 402C866 378 829 376 793 388C715 412 608 436 474 466C461 468 459 475 470 485C483 496 499 504 514 501C549 493 549 493 567 489Z"/>
<path id="z34427d9" d="M514 501C530 517 538 542 539 579C539 746 538 800 628 814C691 825 760 822 876 786C941 765 891 728 841 727C828 727 815 733 804 737C757 756 702 763 647 761C616 759 598 739 593 716C587 693 592 567 601 537C607 513 583 498 567 489C551 480 503 487 514 501Z"/>
<defs>
	<clipPath id="z34427c1"><use href="#z34427d1"/></clipPath>
	<clipPath id="z34427c2"><use href="#z34427d2"/></clipPath>
	<clipPath id="z34427c3"><use href="#z34427d3"/></clipPath>
	<clipPath id="z34427c4"><use href="#z34427d4"/></clipPath>
	<clipPath id="z34427c5"><use href="#z34427d5"/></clipPath>
	<clipPath id="z34427c6"><use href="#z34427d6"/></clipPath>
	<clipPath id="z34427c7"><use href="#z34427d7"/></clipPath>
	<clipPath id="z34427c8"><use href="#z34427d8"/></clipPath>
	<clipPath id="z34427c9"><use href="#z34427d9"/></clipPath>
<marker id="guide-arrow" viewBox="0 0 16 16" refX="5" refY="5" markerWidth="4" markerHeight="4" orient="auto-start-reverse"><path d="M 0 0 L 10 5 L 0 10 z" fill="inherit"/></marker></defs>
<path style="--d:1s;" pathLength="3333" clip-path="url(#z34427c1)" d="M79 407L119 438L154 602"/>
<path style="--d:2s;" pathLength="3333" clip-path="url(#z34427c2)" d="M130 413L385 360L427 402L376 505"/>
<path style="--d:3s;" pathLength="3333" clip-path="url(#z34427c3)" d="M162 564L438 519"/>
<path style="--d:4s;" pathLength="3333" clip-path="url(#z34427c4)" d="M203 130L275 189L258 710"/>
<path style="--d:5s;" pathLength="3333" clip-path="url(#z34427c5)" d="M70 769L131 782L389 671"/>
<path style="--d:6s;" pathLength="3333" clip-path="url(#z34427c6)" d="M368 611L439 734"/>
<path style="--d:7s;" pathLength="3333" clip-path="url(#z34427c7)" d="M593 150L691 214L721 275"/>
<path style="--d:8s;" pathLength="3333" clip-path="url(#z34427c8)" d="M471 473L829 411L914 416"/>
<path style="--d:9s;" pathLength="3333" clip-path="url(#z34427c9)" d="M520 500L568 532L568 722L598 774L717 789L902 755"/>
<g class="guides"><circle style="--d: 1s" class="g1" cx="79" cy="407" r="16"/><path style="--d: 1s;" class="g1" d="M164.68,338.456 Q204.68,369.456 209.055,389.956 Q235.305,512.956 239.68,533.456"/><circle style="--d: 2s" class="g2" cx="130" cy="413" r="16"/><path style="--d: 2s;" class="g2" d="M130,509 Q281.969696969697,456 288.22727272727275,466.5 Q307,498 299.4015151515151,505.625 Q284.2045454545455,520.875 276.6060606060606,528.5"/><circle style="--d: 3s" class="g3" cx="162" cy="564" r="16"/><path style="--d: 3s;" class="g3" d="M162,660 L438,615"/><circle style="--d: 4s" class="g4" cx="203" cy="130" r="16"/><path style="--d: 4s;" class="g4" d="M107,130 Q179,189 176.875,254.125 Q164.125,644.875 162,710"/><circle style="--d: 5s" class="g5" cx="70" cy="769" r="16"/><path style="--d: 5s;" class="g5" d="M70,865 Q131,878 163.25,864.125 Q356.75,780.875 389,767"/><circle style="--d: 6s" class="g6" cx="368" cy="611" r="16"/><path style="--d: 6s;" class="g6" d="M453.68,542.456 L524.68,665.456"/><circle style="--d: 7s" class="g7" cx="593" cy="150" r="16"/><path style="--d: 7s;" class="g7" d="M678.68,81.456 Q776.68,145.45600000000002 780.43,153.08100000000002 Q802.93,198.83100000000002 806.68,206.45600000000002"/><circle style="--d: 8s" class="g8" cx="471" cy="473" r="16"/><path style="--d: 8s;" class="g8" d="M471,569 Q829,507 839.625,507.625 Q903.375,511.375 914,512"/><circle style="--d: 9s" class="g9" cx="520" cy="500" r="16"/><path style="--d: 9s;" class="g9" d="M605.68,431.456 Q642.9139267015706,460.41588927335647 642.9139267015706,546.3905605536332 Q642.9139267015706,632.36523183391 654.5495287958115,655.8951418685122 Q666.1851308900523,679.4250519031142 712.3396858638744,686.2125259515572 Q758.4942408376963,693 830.2471204188482,677.6150588235294 Q830.2471204188482,677.6150588235294 902,662.2301176470588"/></g></svg>