<!--
  Stroke-order data for 蚤, derived from AnimCJK (https://github.com/parsimonhi/animCJK),
  itself derived from the Arphic PL KaitiM fonts. Distributed under the Arphic Public License
  (see ARPHICPL.TXT). Regenerated by scripts/build-strokes.ts — do not edit by hand.
-->
<svg id="z34468" class="acjk" viewBox="0 0 1024 1024" xmlns="http://www.w3.org/2000/svg">
<g class="glyph"><path style="--part:1" id="z34468d1" d="M526 359Q589 292 658 197Q676 172 702 157Q718 150 718 141Q719 128 693 110Q660 85 647 84Q637 84 624 91Q588 101 498 118Q401 133 374 133Q337 133 335 141Q334 145 340 150Q388 193 584 138Q603 134 609 141Q615 145 593 186Q556 258 483 332C466 349 466 349 457 358Q319 490 116 552Q106 555 106 560Q106 564 113 565Q230 583 410 460Q447 433 486 398Q490 394 496 389C516 369 516 369 526 359Z"/><path style="--part:1" id="z34468d2" d="M413 216Q465 258 486 257Q496 256 498 241Q498 231 487 217Q477 205 457 202Q426 195 413 195Q406 195 407 204Q407 211 413 216Z"/><path style="--part:1" id="z34468d3" d="M496 389Q698 543 771 542Q772 541 776 541Q873 529 948 510Q960 506 963 496Q966 487 944 487Q877 474 802 466Q685 450 526 359C497 341 497 341 483 332Q464 319 444 304Q329 217 267 230Q261 230 257 232Q247 236 253 246Q259 255 270 255Q328 258 457 358C483 379 483 379 496 389Z"/><path style="--part:1" id="z34468d4" d="M259 348Q319 398 344 397Q355 395 358 378Q358 366 345 349Q333 335 310 332Q274 324 259 324Q250 324 252 334Q252 342 259 348Z"/><path style="--part:2" id="z34468d5" d="M336 582Q324 576 289 573Q277 572 275 576Q269 583 279 597Q306 642 328 717Q332 741 348 754Q367 773 370 758Q371 752 371 745C369 724 369 724 368 714Q367 711 345 614C343 603 346 586 336 582Z"/><path style="--part:2" id="z34468d6" d="M670 677Q694 613 722 596Q738 580 725 562Q710 549 661 524Q645 517 624 524Q575 540 529 553C492 560 492 560 473 564Q406 574 336 582C325 584 334 616 345 614Q429 596 474 591C508 585 508 585 525 582Q559 575 593 570Q621 563 633 576Q640 583 639 599Q632 636 623 670C620 686 664 692 670 677Z"/><path style="--part:2" id="z34468d7" d="M520 724Q587 714 680 708Q690 707 691 699Q691 692 670 677C657 667 639 667 623 670Q622 669 620 670Q566 680 521 691C492 696 492 696 478 699Q420 706 368 714C358 716 361 745 371 745Q377 746 384 745Q421 736 478 729C506 726 506 726 520 724Z"/><path style="--part:2" id="z34468d8" d="M515 816Q516 768 520 724C521 702 521 702 521 691Q522 634 525 582C528 563 528 563 529 553Q529 538 540 501Q543 491 524 477Q493 461 470 457Q455 454 448 462Q441 469 449 483Q471 513 471 533Q472 548 473 564C474 582 474 582 474 591Q477 643 478 699C478 719 478 719 478 729Q478 772 477 822C477 835 515 829 515 816Z"/><path style="--part:2" id="z34468d9" d="M653 793Q586 803 515 816C490 820 490 820 477 822Q291 849 258 846Q233 837 225 852Q221 865 229 874Q248 893 278 917Q288 921 301 916Q362 886 520 852Q661 816 668 813C676 810 661 791 653 793Z"/><path style="--part:2" id="z34468d10" d="M668 813Q699 858 735 915Q747 937 761 943Q768 946 777 938Q790 928 787 885Q783 828 646 747Q639 740 634 751Q631 761 653 793C663 806 663 806 668 813Z"/></g>
<defs><clipPath id="z34468c1"><use href="#z34468d1"/></clipPath>
	<clipPath id="z34468c2"><use href="#z34468d2"/></clipPath>
	<clipPath id="z34468c3"><use href="#z34468d3"/></clipPath>
	<clipPath id="z34468c4"><use href="#z34468d4"/></clipPath>
	<clipPath id="z34468c5"><use href="#z34468d5"/></clipPath>
	<clipPath id="z34468c6"><use href="#z34468d6"/></clipPath>
	<clipPath id="z34468c7"><use href="#z34468d7"/></clipPath>
	<clipPath id="z34468c8"><use href="#z34468d8"/></clipPath>
	<clipPath id="z34468c9"><use href="#z34468d9"/></clipPath>
	<clipPath id="z34468c10"><use href="#z34468d10"/></clipPath><marker id="guide-arrow" viewBox="0 0 16 16" refX="5" refY="5" markerWidth="4" markerHeight="4" orient="auto-start-reverse"><path d="M 0 0 L 10 5 L 0 10 z" fill="inherit"/></marker></defs>
<g class="strokes"><path style="--part:1" pathLength="3333" clip-path="url(#z34468c1)" d="M342 142L439 147L610 114L662 147L516 334L383 450L237 529L113 558"/><path style="--part:1" pathLength="3333" clip-path="url(#z34468c2)" d="M412 203L489 250"/><path style="--part:1" pathLength="3333" clip-path="url(#z34468c3)" d="M258 238L366 273L709 484L958 498"/><path style="--part:1" pathLength="3333" clip-path="url(#z34468c4)" d="M259 331L354 383"/><path style="--part:2" pathLength="3333" clip-path="url(#z34468c5)" d="M282 581L316 603L362 759"/><path style="--part:2" pathLength="3333" clip-path="url(#z34468c6)" d="M335 589L640 547L684 589L639 682"/><path style="--part:2" pathLength="3333" clip-path="url(#z34468c7)" d="M366 731L682 693"/><path style="--part:2" pathLength="3333" clip-path="url(#z34468c8)" d="M454 468L503 504L490 826"/><path style="--part:2" pathLength="3333" clip-path="url(#z34468c9)" d="M231 858L295 881L663 807"/><path style="--part:2" pathLength="3333" clip-path="url(#z34468c10)" d="M640 753L743 864L769 936"/></g>
<g class="guides"><text class="g1" style="--gs:1" x="342" y="142">①</text><path class="g1 aligned" style="--gs:1" d="M342,142 Q439,147 524.5,130.5 Q610,114 636,130.5 Q662,147 589,240.5 Q516,334 449.5,392 Q383,450 310,489.5 Q237,529 175,543.5 Q175,543.5 113,558"/><path class="g1 offset" style="--gs:1" d="M246,238 Q326.04,240.84 396.59,231.47 Q467.14,222.11 488.59,231.47 Q510.04,240.84 449.81,293.91 Q389.57,346.97 334.7,379.89 Q279.83,412.81 219.6,435.23 Q159.36,457.65 108.2,465.88 Q108.2,465.88 57.04,474.11"/><text class="g2" style="--gs:2" x="412" y="203">②</text><path class="g2 aligned" style="--gs:2" d="M412,203 L489,250"/><path class="g2 offset" style="--gs:2" d="M497.68,134.46 L574.68,181.46"/><text class="g3" style="--gs:3" x="258" y="238">③</text><path class="g3 aligned" style="--gs:3" d="M258,238 Q366,273 451.75,325.75 Q709,484 771.25,487.5 Q895.75,494.5 958,498"/><path class="g3 offset" style="--gs:3" d="M258,334 Q366,369 451.75,421.75 Q709,580 771.25,583.5 Q895.75,590.5 958,594"/><text class="g4" style="--gs:4" x="259" y="331">④</text><path class="g4 aligned" style="--gs:4" d="M259,331 L354,383"/><path class="g4 offset" style="--gs:4" d="M259,427 L354,479"/><text class="g5" style="--gs:5" x="282" y="581">⑤</text><path class="g5 aligned" style="--gs:5" d="M299,592 L362,759"/><path class="g5 offset" style="--gs:5" d="M419,592 L482,759"/><text class="g6" style="--gs:6" x="335" y="589">⑥</text><path class="g6 aligned" style="--gs:6" d="M335,589 Q640,547 651,557.5 Q684,589 672.75,612.25 Q650.25,658.75 639,682"/><path class="g6 offset" style="--gs:6" d="M335,685 Q535.13,643 542.35,653.5 Q564,685 556.62,691.38 Q541.85,704.13 534.47,710.5"/><text class="g7" style="--gs:7" x="366" y="731">⑦</text><path class="g7 aligned" style="--gs:7" d="M366,731 L682,693"/><path class="g7 offset" style="--gs:7" d="M366,827 L682,789"/><text class="g8" style="--gs:8" x="454" y="468">⑧</text><path class="g8 aligned" style="--gs:8" d="M454,468 Q503,504 501.38,544.25 Q491.63,785.75 490,826"/><path class="g8 offset" style="--gs:8" d="M358,468 Q407,504 405.38,544.25 Q395.63,785.75 394,826"/><text class="g9" style="--gs:9" x="231" y="858">⑨</text><path class="g9 aligned" style="--gs:9" d="M231,858 Q295,881 341,871.75 Q617,816.25 663,807"/><path class="g9 offset" style="--gs:9" d="M231,954 Q295,977 341,967.75 Q617,912.25 663,903"/><text class="g10" style="--gs:10" x="640" y="753">⑩</text><path class="g10 aligned" style="--gs:10" d="M640,753 Q743,864 746.25,873 Q765.75,927 769,936"/><path class="g10 offset" style="--gs:10" d="M725.68,684.46 Q828.68,795.46 831.93,804.46 Q851.43,858.46 854.68,867.46"/></g>
<g class="parts"><rect data-part="1" data-literal="㕚" role="button" tabindex="0" aria-label="Part 㕚" x="41" y="42" width="983" height="588"/><rect data-part="2" data-literal="虫" data-radical="true" role="button" tabindex="0" aria-label="Part 虫 (radical)" x="159" y="396" width="682" height="612"/></g>
</svg>
