<svg id="z34562" class="acjk" viewBox="0 0 1024 1024" xmlns="http://www.w3.org/2000/svg">
<style>

@keyframes zk {
	to {
		stroke-dashoffset:0;
	}
}
svg.acjk path[clip-path] {
	--t:0.8s;
	animation:zk var(--t) linear forwards var(--d);
	stroke-dasharray:3337;
	stroke-dashoffset:3339;
	stroke-width:128;
	stroke-linecap:round;
	fill:none;
	stroke:#000;
}
svg.acjk path[id] {fill:#ccc;}


    @keyframes guide-fade {
        0% { opacity: 0; }
        3% { opacity: 1; }
        95% { opacity: 1; }
        100% { opacity: 0; }
    }

    svg.acjk #guide-arrow {
        fill: #f77;
    }

    svg.acjk .guides {
        circle {
            fill: #0f6;
        }

        path {
            opacity: 0;
            animation: guide-fade var(--t) linear forwards var(--d);
            stroke-width: 16px;
            stroke-linecap: round;
            stroke: #f77;
            fill: none;
            marker-end: url(#guide-arrow);
        }

        circle,
        path {
            --t: 0.8s;
            opacity: 0;
            animation: guide-fade calc(var(--t) + 0.4s) ease-in-out forwards calc(var(--d) - 0.2s);
        }
    }
</style>
<path id="z34562d1" d="M114 340Q104 336 82 331Q70 328 67 333Q60 339 68 354Q90 400 105 478Q108 502 121 517Q137 538 143 523Q144 516 146 506C145 487 145 487 145 477Q145 476 145 473Q135 391 133 368C131 357 124 344 114 340Z"/>
<path id="z34562d2" d="M361 432Q385 369 411 351Q427 335 413 318Q397 305 350 284Q334 277 263 305C230 315 230 315 213 320Q164 330 114 340C103 342 122 370 133 368Q143 367 156 363Q184 356 214 351C246 344 246 344 262 340Q278 336 299 331Q318 327 325 334Q332 340 331 354Q324 396 314 429C309 444 355 447 361 432Z"/>
<path id="z34562d3" d="M256 481Q305 469 371 459Q381 458 381 450Q381 444 361 432C348 424 329 423 314 429Q286 438 258 447C228 456 228 456 213 461Q177 468 145 477C136 481 137 508 146 506Q147 506 212 490C241 484 241 484 256 481Z"/>
<path id="z34562d4" d="M250 610Q253 543 256 481C257 458 257 458 258 447Q259 392 262 340C263 317 263 317 263 305Q264 268 284 155Q288 145 267 129Q230 110 205 105Q189 101 180 111Q173 118 181 134Q209 176 210 205Q211 260 213 320C214 341 214 341 214 351Q214 403 213 461C212 480 212 480 212 490Q211 554 206 624C206 639 250 625 250 610Z"/>
<path id="z34562d5" d="M322 586Q286 596 250 610C221 619 221 619 206 624Q155 639 102 656Q86 662 57 661Q44 662 42 673Q41 686 50 694Q72 710 106 727Q116 730 128 721Q149 703 315 618Q322 612 333 609C341 606 330 584 322 586Z"/>
<path id="z34562d6" d="M333 609Q351 651 364 656Q373 660 381 651Q390 641 393 614Q394 590 334 545Q322 538 317 538Q311 539 308 550Q308 560 322 586C329 601 329 601 333 609Z"/>
<path id="z34562d7" d="M572 148Q591 115 609 88Q618 76 605 64Q566 37 544 39Q534 42 536 55Q549 145 456 252Q444 256 417 297Q410 310 423 306Q447 302 503 246C512 237 512 237 516 232Q541 201 562 167C569 154 569 154 572 148Z"/>
<path id="z34562d8" d="M639 308Q739 190 765 171Q778 162 774 154Q773 145 720 121Q704 111 685 122Q669 129 644 136Q607 143 572 148C565 149 556 163 562 167Q590 185 646 167Q665 163 670 171Q673 178 660 197Q635 240 599 286C587 301 587 301 581 308Q491 404 366 495Q353 505 365 507Q455 492 616 333C631 316 631 316 639 308Z"/>
<path id="z34562d9" d="M616 333Q794 465 834 468Q897 468 981 435Q997 431 998 426Q999 419 985 416Q784 373 773 369Q668 324 639 308C626 300 610 297 599 286Q598 283 593 281Q538 244 516 232C511 229 498 242 503 246Q509 252 581 308C604 325 604 325 616 333Z"/>
<path id="z34562d10" d="M629 512Q666 503 705 497Q745 488 751 483Q758 476 754 469Q748 460 725 454Q703 448 634 471C595 482 595 482 575 487Q521 497 463 502Q433 506 455 521Q482 539 546 527Q559 524 575 522C611 515 611 515 629 512Z"/>
<path id="z34562d11" d="M626 609Q662 600 700 594Q737 585 743 580Q750 573 747 566Q740 556 715 549Q691 545 627 566C592 575 592 575 575 580Q523 590 464 596Q433 600 455 616Q492 635 549 623Q559 620 574 619C609 612 609 612 626 609Z"/>
<path id="z34562d12" d="M624 718Q687 711 863 711Q882 711 887 702Q891 692 876 678Q821 635 763 654Q705 664 624 679C590 684 590 684 573 686Q468 699 348 715Q329 716 343 733Q356 746 374 752Q393 756 410 753Q486 732 573 724C607 720 607 720 624 718Z"/>
<path id="z34562d13" d="M575 948Q579 972 586 981Q592 988 599 986Q612 977 619 921Q623 879 624 718C624 692 624 692 624 679Q624 648 626 609C627 580 627 580 627 566Q628 536 629 512C632 485 632 485 634 471Q635 461 639 451Q642 435 628 425Q597 404 583 402Q571 398 556 406Q547 413 554 423Q572 462 575 487C575 510 575 510 575 522Q575 549 575 580C574 606 574 606 574 619Q574 650 573 686C573 711 573 711 573 724Q567 871 575 948Z"/>
<defs>
	<clipPath id="z34562c1"><use href="#z34562d1"/></clipPath>
	<clipPath id="z34562c2"><use href="#z34562d2"/></clipPath>
	<clipPath id="z34562c3"><use href="#z34562d3"/></clipPath>
	<clipPath id="z34562c4"><use href="#z34562d4"/></clipPath>
	<clipPath id="z34562c5"><use href="#z34562d5"/></clipPath>
	<clipPath id="z34562c6"><use href="#z34562d6"/></clipPath>
	<clipPath id="z34562c7"><use href="#z34562d7"/></clipPath>
	<clipPath id="z34562c8"><use href="#z34562d8"/></clipPath>
	<clipPath id="z34562c9"><use href="#z34562d9"/></clipPath>
	<clipPath id="z34562c10"><use href="#z34562d10"/></clipPath>
	<clipPath id="z34562c11"><use href="#z34562d11"/></clipPath>
	<clipPath id="z34562c12"><use href="#z34562d12"/></clipPath>
	<clipPath id="z34562c13"><use href="#z34562d13"/></clipPath>
<marker id="guide-arrow" viewBox="0 0 16 16" refX="5" refY="5" markerWidth="4" markerHeight="4" orient="auto-start-reverse"><path d="M 0 0 L 10 5 L 0 10 z" fill="inherit"/></marker></defs>
<path style="--d:1s;" pathLength="3333" clip-path="url(#z34562c1)" d="M72 340L106 374L135 522"/>
<path style="--d:2s;" pathLength="3333" clip-path="url(#z34562c2)" d="M122 342L335 308L374 339L327 429"/>
<path style="--d:3s;" pathLength="3333" clip-path="url(#z34562c3)" d="M149 497L376 446"/>
<path style="--d:4s;" pathLength="3333" clip-path="url(#z34562c4)" d="M185 117L246 172L214 620"/>
<path style="--d:5s;" pathLength="3333" clip-path="url(#z34562c5)" d="M45 673L112 691L327 597"/>
<path style="--d:6s;" pathLength="3333" clip-path="url(#z34562c6)" d="M315 546L371 653"/>
<path style="--d:7s;" pathLength="3333" clip-path="url(#z34562c7)" d="M544 42L574 84L546 151L422 300"/>
<path style="--d:8s;" pathLength="3333" clip-path="url(#z34562c8)" d="M570 163L691 146L721 169L563 356L366 500"/>
<path style="--d:9s;" pathLength="3333" clip-path="url(#z34562c9)" d="M511 240L807 417L992 423"/>
<path style="--d:10s;" pathLength="3333" clip-path="url(#z34562c10)" d="M453 508L525 513L748 469"/>
<path style="--d:11s;" pathLength="3333" clip-path="url(#z34562c11)" d="M455 604L743 570"/>
<path style="--d:12s;" pathLength="3333" clip-path="url(#z34562c12)" d="M344 722L399 731L798 679L883 693"/>
<path style="--d:13s;" pathLength="3333" clip-path="url(#z34562c13)" d="M560 413L606 459L597 979"/>
<g class="guides"><circle style="--d: 1s" class="g1" cx="72" cy="340" r="16"/><path style="--d: 1s;" class="g1" d="M157.68,271.456 Q191.68,305.456 195.305,323.956 Q217.055,434.956 220.68,453.456"/><circle style="--d: 2s" class="g2" cx="122" cy="342" r="16"/><path style="--d: 2s;" class="g2" d="M122,438 Q233.57142857142856,404 238.67857142857142,411.75 Q254,435 247.8452380952381,442.375 Q235.53571428571428,457.125 229.38095238095238,464.5"/><circle style="--d: 3s" class="g3" cx="149" cy="497" r="16"/><path style="--d: 3s;" class="g3" d="M149,593 L376,542"/><circle style="--d: 4s" class="g4" cx="185" cy="117" r="16"/><path style="--d: 4s;" class="g4" d="M89,117 Q150,172 146,228 Q122,564 118,620"/><circle style="--d: 5s" class="g5" cx="45" cy="673" r="16"/><path style="--d: 5s;" class="g5" d="M45,769 Q112,787 138.875,775.25 Q300.125,704.75 327,693"/><circle style="--d: 6s" class="g6" cx="315" cy="546" r="16"/><path style="--d: 6s;" class="g6" d="M435,546 L491,653"/><circle style="--d: 7s" class="g7" cx="544" cy="42" r="16"/><path style="--d: 7s;" class="g7" d="M448,42 Q463,68.37209302325581 459.5,78.88953488372093 Q449,110.44186046511628 433.5,133.83139534883722 Q402.5,180.61046511627907 387,204"/><circle style="--d: 8s" class="g8" cx="570" cy="163" r="16"/><path style="--d: 8s;" class="g8" d="M474,259 Q534.5,250.5 542,256.25 Q549.5,262 510,308.75 Q470.5,355.5 421.25,391.5 Q421.25,391.5 372,427.5"/><circle style="--d: 9s" class="g9" cx="511" cy="240" r="16"/><path style="--d: 9s;" class="g9" d="M596.68,171.45600000000002 Q839.9538461538461,321.9001967213115 858.9596153846154,322.53767213114753 Q972.9942307692307,326.36252459016396 992,327"/><circle style="--d: 10s" class="g10" cx="453" cy="508" r="16"/><path style="--d: 10s;" class="g10" d="M453,604 Q525,609 552.875,603.5 Q720.125,570.5 748,565"/><circle style="--d: 11s" class="g11" cx="455" cy="604" r="16"/><path style="--d: 11s;" class="g11" d="M455,700 L743,666"/><circle style="--d: 12s" class="g12" cx="344" cy="722" r="16"/><path style="--d: 12s;" class="g12" d="M344,818 Q399,827 498.75,814 Q798,775 819.25,778.5 Q861.75,785.5 883,789"/><circle style="--d: 13s" class="g13" cx="560" cy="413" r="16"/><path style="--d: 13s;" class="g13" d="M464,413 Q510,459 508.875,524 Q502.125,914 501,979"/></g></svg>