<svg id="z34880" class="acjk" viewBox="0 0 1024 1024" xmlns="http://www.w3.org/2000/svg">
<style>

@keyframes zk {
	to {
		stroke-dashoffset:0;
	}
}
svg.acjk path[clip-path] {
	--t:0.8s;
	animation:zk var(--t) linear forwards var(--d);
	stroke-dasharray:3337;
	stroke-dashoffset:3339;
	stroke-width:128;
	stroke-linecap:round;
	fill:none;
	stroke:#000;
}
svg.acjk path[id] {fill:#ccc;}


    @keyframes guide-fade {
        0% { opacity: 0; }
        3% { opacity: 1; }
        95% { opacity: 1; }
        100% { opacity: 0; }
    }

    svg.acjk #guide-arrow {
        fill: #f77;
    }

    svg.acjk .guides {
        circle {
            fill: #0f6;
        }

        path {
            opacity: 0;
            animation: guide-fade var(--t) linear forwards var(--d);
            stroke-width: 16px;
            stroke-linecap: round;
            stroke: #f77;
            fill: none;
            marker-end: url(#guide-arrow);
        }

        circle,
        path {
            --t: 0.8s;
            opacity: 0;
            animation: guide-fade calc(var(--t) + 0.4s) ease-in-out forwards calc(var(--d) - 0.2s);
        }
    }
</style>
<path id="z34880d1" d="M349 458C381 415 434 341 507 235C518 218 530 203 546 190C560 177 561 164 549 155C535 144 515 137 492 132C471 127 456 128 447 133C437 137 436 143 442 153C454 174 439 229 398 315C375 361 336 439 325 461C321 468 344 464 349 458Z"/>
<path id="z34880d2" d="M274 468C259 459 243 453 227 449C216 446 208 447 203 452C198 456 197 464 204 475C220 502 234 530 244 561C252 590 266 666 286 788C289 802 332 798 329 784C307 634 297 543 299 512C299 495 287 478 274 468Z"/>
<path id="z34880d3" d="M744 739C768 610 793 519 825 470C831 459 835 452 832 444C826 431 801 415 755 395C741 389 731 388 720 391C606 417 463 443 349 458C333 460 333 460 325 461C312 462 287 465 274 468C257 471 282 515 299 512C310 510 346 498 391 490C405 487 405 487 412 486C451 478 491 469 534 462C571 456 571 456 589 453C657 441 700 433 719 445C726 449 730 462 729 483C722 555 704 644 681 748C677 769 740 760 744 739Z"/>
<path id="z34880d4" d="M443 774C463 752 456 668 430 523C427 509 422 495 412 486C407 481 391 483 391 490C391 496 393 514 397 544C400 568 400 593 400 621C398 699 408 750 431 775C434 778 441 777 443 774Z"/>
<path id="z34880d5" d="M555 763C563 737 578 672 603 571C616 514 624 495 624 486C623 476 609 466 589 453C573 443 527 445 534 462C552 498 549 585 527 726C524 740 524 753 526 766C528 776 553 773 555 763Z"/>
<path id="z34880d6" d="M286 788C231 793 175 795 117 801C99 802 96 809 109 825C119 837 132 846 148 851C165 856 181 856 195 853C379 810 618 797 910 812C926 812 937 809 942 802C947 792 942 781 929 770C881 731 833 721 785 732C771 734 757 737 744 739C702 745 702 745 681 748C642 753 600 758 555 763C536 765 536 765 526 766C505 768 463 772 443 774C435 775 435 775 431 775C397 777 363 780 329 784C300 787 300 787 286 788Z"/>
<defs>
	<clipPath id="z34880c1"><use href="#z34880d1"/></clipPath>
	<clipPath id="z34880c2"><use href="#z34880d2"/></clipPath>
	<clipPath id="z34880c3"><use href="#z34880d3"/></clipPath>
	<clipPath id="z34880c4"><use href="#z34880d4"/></clipPath>
	<clipPath id="z34880c5"><use href="#z34880d5"/></clipPath>
	<clipPath id="z34880c6"><use href="#z34880d6"/></clipPath>
<marker id="guide-arrow" viewBox="0 0 16 16" refX="5" refY="5" markerWidth="4" markerHeight="4" orient="auto-start-reverse"><path d="M 0 0 L 10 5 L 0 10 z" fill="inherit"/></marker></defs>
<path style="--d:1s;" pathLength="3333" clip-path="url(#z34880c1)" d="M444 140L503 180L334 456"/>
<path style="--d:2s;" pathLength="3333" clip-path="url(#z34880c2)" d="M205 454L268 526L306 785"/>
<path style="--d:3s;" pathLength="3333" clip-path="url(#z34880c3)" d="M285 472L322 485L706 416L755 431L781 466L718 720L689 743"/>
<path style="--d:4s;" pathLength="3333" clip-path="url(#z34880c4)" d="M408 492L438 770"/>
<path style="--d:5s;" pathLength="3333" clip-path="url(#z34880c5)" d="M543 466L585 503L540 764"/>
<path style="--d:6s;" pathLength="3333" clip-path="url(#z34880c6)" d="M109 809L179 825L804 768L939 786"/>
<g class="guides"><circle style="--d: 1s" class="g1" cx="444" cy="140" r="16"/><path style="--d: 1s;" class="g1" d="M348,140 Q377.5,167.84810126582278 366.9375,191.86708860759492 Q303.5625,335.9810126582278 293,360"/><circle style="--d: 2s" class="g2" cx="205" cy="454" r="16"/><path style="--d: 2s;" class="g2" d="M290.68,385.456 Q353.68,457.456 358.43,489.831 Q386.93,684.081 391.68,716.456"/><circle style="--d: 3s" class="g3" cx="304" cy="479" r="16"/><path style="--d: 3s;" class="g3" d="M304,575 Q604.8679245283018,512 623.2044025157232,519.5 Q641.5408805031446,527 651.2704402515724,544.5 Q661,562 632.1855345911949,647 Q632.1855345911949,647 603.3710691823899,732"/><circle style="--d: 4s" class="g4" cx="408" cy="492" r="16"/><path style="--d: 4s;" class="g4" d="M528,492 L558,770"/><circle style="--d: 5s" class="g5" cx="543" cy="466" r="16"/><path style="--d: 5s;" class="g5" d="M447,466 Q489,503 483.375,535.625 Q449.625,731.375 444,764"/><circle style="--d: 6s" class="g6" cx="109" cy="809" r="16"/><path style="--d: 6s;" class="g6" d="M109,905 Q179,921 335.25,906.75 Q804,864 837.75,868.5 Q905.25,877.5 939,882"/></g></svg>