<!--
  Stroke-order data for 衛, derived from AnimCJK (https://github.com/parsimonhi/animCJK),
  itself derived from the Arphic PL KaitiM fonts. Distributed under the Arphic Public License
  (see ARPHICPL.TXT). Regenerated by scripts/build-strokes.ts — do not edit by hand.
-->
<svg id="z34907" class="acjk" viewBox="0 0 1024 1024" xmlns="http://www.w3.org/2000/svg">
<g class="glyph"><path id="z34907d1" d="M276 67C283 85 270 123 235 182C218 208 198 237 174 266C168 272 165 276 164 280C161 286 164 288 172 287C202 282 253 237 319 147C329 133 336 122 345 116C351 110 352 103 350 95C347 88 339 77 323 64C308 52 295 47 285 47C274 47 270 54 276 67Z"/><path id="z34907d2" d="M230 457C251 432 273 404 297 372C314 348 327 329 341 317C347 311 349 303 347 295C344 286 336 274 319 260C302 246 288 240 277 240C265 240 261 248 266 262C282 312 218 418 72 580C65 586 61 590 60 594C57 600 60 604 69 603C89 600 142 557 203 488C221 467 221 467 230 457Z"/><path id="z34907d3" d="M203 488C213 510 219 544 220 592C220 658 212 719 198 777C189 809 200 837 221 867C229 878 243 876 250 859C260 833 262 805 263 777C263 644 265 562 271 533C274 516 274 504 269 498C248 475 236 461 230 457C220 447 198 475 203 488Z"/><path id="z34907d4" d="M460 259C458 281 454 306 452 333C452 345 486 337 488 325C492 298 497 272 502 247C506 226 506 226 508 216C515 178 521 143 535 111C537 105 534 96 524 89C506 76 490 68 478 65C469 62 463 63 458 68C453 71 451 77 456 86C463 101 468 112 468 122C467 156 464 191 462 229C461 249 461 249 460 259Z"/><path id="z34907d5" d="M617 295C625 271 635 256 645 247C658 233 657 220 644 212C632 204 618 196 602 186C591 179 579 179 568 187C551 197 528 210 508 216C477 225 477 225 462 229C446 233 427 236 408 239C400 240 397 240 398 245C399 248 403 252 413 257C423 262 439 264 460 259C488 251 488 251 502 247C516 242 531 239 545 236C561 232 572 233 577 240C577 240 574 263 566 308C563 325 610 311 617 295Z"/><path id="z34907d6" d="M452 333C420 340 386 345 352 352C342 353 341 357 349 365C355 371 363 376 372 378C382 380 391 378 399 376C486 345 585 331 693 331C693 331 688 331 695 331C703 330 710 328 712 324C714 318 711 311 703 306C673 286 645 287 617 295C583 304 583 304 566 308C536 315 510 320 488 325C464 330 464 330 452 333Z"/><path id="z34907d7" d="M409 427C404 424 393 423 376 422C369 421 365 422 364 425C361 428 362 433 368 442C379 458 391 479 401 508C404 516 408 522 414 528C425 538 431 539 433 531C433 529 434 526 434 524C436 515 433 507 431 498C429 485 423 460 423 452C423 442 418 431 409 427Z"/><path id="z34907d8" d="M596 478C606 462 619 454 630 447C640 440 640 428 633 420C627 412 610 402 584 388C575 383 565 383 555 387C528 397 504 406 481 412C458 417 434 421 409 427C400 429 414 456 423 452C425 450 466 441 544 426C552 424 559 424 564 429C565 430 561 445 555 472C553 486 588 489 596 478Z"/><path id="z34907d9" d="M509 514C535 510 567 506 606 504C612 503 615 500 615 496C615 492 608 486 596 478C584 471 569 469 555 472C508 482 467 491 431 498C422 499 425 526 434 524C441 522 459 520 469 519C496 516 496 516 509 514Z"/><path id="z34907d10" d="M540 613C556 610 573 605 592 603C660 592 613 569 597 566C570 559 556 567 544 571C507 580 507 580 488 585C469 589 382 603 355 606C336 607 327 618 360 635C374 642 385 643 405 639C428 633 459 627 489 622C523 616 523 616 540 613Z"/><path id="z34907d11" d="M378 736C369 665 365 646 360 635C354 621 396 627 405 639C423 661 408 653 407 732C407 742 380 746 378 736Z"/><path id="z34907d12" d="M536 750C583 744 621 738 709 747C719 747 726 745 729 739C731 733 730 723 721 714C702 695 678 688 651 689C641 690 574 703 537 710C505 716 505 716 489 719C471 722 433 728 407 732C388 735 388 735 378 736C361 738 337 741 320 745C309 746 308 751 316 762C322 770 330 777 340 781C350 785 359 784 368 782C401 770 448 761 489 756C520 752 520 752 536 750Z"/><path id="z34907d13" d="M489 756C489 866 493 909 503 926C505 930 509 931 514 929C518 927 522 922 525 914C531 897 535 856 536 750C537 723 537 723 537 710C537 687 539 622 540 613C543 585 543 585 544 571C545 554 556 542 538 530C527 522 517 518 509 514C497 509 467 506 469 519C468 521 471 528 479 540C485 550 488 565 488 585C489 610 489 610 489 622C489 687 489 687 489 719C489 744 489 744 489 756Z"/><path id="z34907d14" d="M721 229C694 234 690 245 711 256C742 272 779 273 822 262C850 254 880 248 912 241C926 237 935 234 937 232C943 225 944 219 940 213C934 204 920 197 898 194C882 191 847 200 792 216C764 223 740 225 721 229Z"/><path id="z34907d15" d="M807 424C835 418 871 409 955 406C979 405 993 402 997 396C999 389 996 382 986 376C954 355 919 354 881 366C844 377 773 393 669 417C657 419 655 424 665 433C678 444 698 447 724 442C731 440 753 435 768 432C794 427 794 427 807 424Z"/><path id="z34907d16" d="M768 432C782 462 785 484 786 511C787 565 790 656 790 782C790 802 787 818 779 826C772 832 757 830 740 825C725 820 710 816 693 812C684 810 680 811 681 816C681 820 684 826 692 833C732 867 764 899 790 926C797 933 807 930 816 919C843 885 855 841 852 788C845 674 841 574 848 489C849 470 852 458 848 452C842 443 828 434 807 424C795 419 763 420 768 432Z"/></g>
<defs><clipPath id="z34907c1"><use href="#z34907d1"/></clipPath>
	<clipPath id="z34907c2"><use href="#z34907d2"/></clipPath>
	<clipPath id="z34907c3"><use href="#z34907d3"/></clipPath>
	<clipPath id="z34907c4"><use href="#z34907d4"/></clipPath>
	<clipPath id="z34907c5"><use href="#z34907d5"/></clipPath>
	<clipPath id="z34907c6"><use href="#z34907d6"/></clipPath>
	<clipPath id="z34907c7"><use href="#z34907d7"/></clipPath>
	<clipPath id="z34907c8"><use href="#z34907d8"/></clipPath>
	<clipPath id="z34907c9"><use href="#z34907d9"/></clipPath>
	<clipPath id="z34907c10"><use href="#z34907d10"/></clipPath>
	<clipPath id="z34907c11"><use href="#z34907d11"/></clipPath>
	<clipPath id="z34907c12"><use href="#z34907d12"/></clipPath>
	<clipPath id="z34907c13"><use href="#z34907d13"/></clipPath>
	<clipPath id="z34907c14"><use href="#z34907d14"/></clipPath>
	<clipPath id="z34907c15"><use href="#z34907d15"/></clipPath>
	<clipPath id="z34907c16"><use href="#z34907d16"/></clipPath><marker id="guide-arrow" viewBox="0 0 16 16" refX="5" refY="5" markerWidth="4" markerHeight="4" orient="auto-start-reverse"><path d="M 0 0 L 10 5 L 0 10 z" fill="inherit"/></marker></defs>
<g class="strokes"><path pathLength="3333" clip-path="url(#z34907c1)" d="M282 55L311 105L170 280"/><path pathLength="3333" clip-path="url(#z34907c2)" d="M272 246L306 296L298 318L67 599"/><path pathLength="3333" clip-path="url(#z34907c3)" d="M222 461L244 525L230 870"/><path pathLength="3333" clip-path="url(#z34907c4)" d="M459 74L501 113L466 336"/><path pathLength="3333" clip-path="url(#z34907c5)" d="M403 244L586 211L615 238L575 312"/><path pathLength="3333" clip-path="url(#z34907c6)" d="M350 357L707 317"/><path pathLength="3333" clip-path="url(#z34907c7)" d="M371 431L401 452L423 531"/><path pathLength="3333" clip-path="url(#z34907c8)" d="M413 430L573 407L600 436L570 482"/><path pathLength="3333" clip-path="url(#z34907c9)" d="M429 512L610 493"/><path pathLength="3333" clip-path="url(#z34907c10)" d="M347 614L621 586"/><path pathLength="3333" clip-path="url(#z34907c11)" d="M367 633L390 660L392 739"/><path pathLength="3333" clip-path="url(#z34907c12)" d="M317 754L647 716L725 732"/><path pathLength="3333" clip-path="url(#z34907c13)" d="M475 516L517 557L509 925"/><path pathLength="3333" clip-path="url(#z34907c14)" d="M702 241L938 219"/><path pathLength="3333" clip-path="url(#z34907c15)" d="M666 423L907 384L992 393"/><path pathLength="3333" clip-path="url(#z34907c16)" d="M774 428L817 476L818 826L783 879L686 818"/></g>
<g class="guides"><text class="g1" style="--gs:1" x="282" y="55">①</text><path class="g1 aligned" style="--gs:1" d="M282,55 Q311,105 293.38,126.88 Q187.63,258.13 170,280"/><path class="g1 offset" style="--gs:1" d="M186,55 Q200.5,83.67 191.69,96.21 Q138.81,171.46 130,184"/><text class="g2" style="--gs:2" x="272" y="246">②</text><path class="g2 aligned" style="--gs:2" d="M272,246 Q306,296 304,301.5 Q298,318 240.25,388.25 Q124.75,528.75 67,599"/><path class="g2 offset" style="--gs:2" d="M176,246 Q196.34,282.4 195.15,286.41 Q191.56,298.42 157,349.56 Q87.9,451.85 53.34,503"/><text class="g3" style="--gs:3" x="222" y="461">③</text><path class="g3 aligned" style="--gs:3" d="M222,461 Q244,525 242.25,568.13 Q231.75,826.88 230,870"/><path class="g3 offset" style="--gs:3" d="M342,461 Q364,525 362.25,568.13 Q351.75,826.88 350,870"/><text class="g4" style="--gs:4" x="459" y="74">④</text><path class="g4 aligned" style="--gs:4" d="M459,74 Q501,113 496.63,140.88 Q470.38,308.13 466,336"/><path class="g4 offset" style="--gs:4" d="M363,74 Q405,113 400.63,140.88 Q374.38,308.13 370,336"/><text class="g5" style="--gs:5" x="403" y="244">⑤</text><path class="g5 aligned" style="--gs:5" d="M403,244 Q586,211 593.25,217.75 Q615,238 605,256.5 Q585,293.5 575,312"/><path class="g5 offset" style="--gs:5" d="M403,340 Q494.5,307 498.13,313.75 Q509,334 504,339.88 Q494,351.63 489,357.5"/><text class="g6" style="--gs:6" x="350" y="357">⑥</text><path class="g6 aligned" style="--gs:6" d="M350,357 L707,317"/><path class="g6 offset" style="--gs:6" d="M350,453 L707,413"/><text class="g7" style="--gs:7" x="371" y="431">⑦</text><path class="g7 aligned" style="--gs:7" d="M386,442 L423,531"/><path class="g7 offset" style="--gs:7" d="M506,442 L543,531"/><text class="g8" style="--gs:8" x="413" y="430">⑧</text><path class="g8 aligned" style="--gs:8" d="M413,430 Q573,407 579.75,414.25 Q600,436 592.5,447.5 Q577.5,470.5 570,482"/><path class="g8 offset" style="--gs:8" d="M413,526 Q506.26,503 510.2,510.25 Q522,532 517.63,543.5 Q508.89,566.5 504.51,578"/><text class="g9" style="--gs:9" x="429" y="512">⑨</text><path class="g9 aligned" style="--gs:9" d="M429,512 L610,493"/><path class="g9 offset" style="--gs:9" d="M429,608 L610,589"/><text class="g10" style="--gs:10" x="347" y="614">⑩</text><path class="g10 aligned" style="--gs:10" d="M347,614 L621,586"/><path class="g10 offset" style="--gs:10" d="M347,710 L621,682"/><text class="g11" style="--gs:11" x="367" y="633">⑪</text><path class="g11 aligned" style="--gs:11" d="M379,647 L392,739"/><path class="g11 offset" style="--gs:11" d="M499,647 L512,739"/><text class="g12" style="--gs:12" x="317" y="754">⑫</text><path class="g12 aligned" style="--gs:12" d="M317,754 Q647,716 656.75,718 Q715.25,730 725,732"/><path class="g12 offset" style="--gs:12" d="M317,850 Q647,812 656.75,814 Q715.25,826 725,828"/><text class="g13" style="--gs:13" x="475" y="516">⑬</text><path class="g13 aligned" style="--gs:13" d="M475,516 Q517,557 516,603 Q510,879 509,925"/><path class="g13 offset" style="--gs:13" d="M379,516 Q421,557 420,603 Q414,879 413,925"/><text class="g14" style="--gs:14" x="702" y="241">⑭</text><path class="g14 aligned" style="--gs:14" d="M702,241 L938,219"/><path class="g14 offset" style="--gs:14" d="M702,337 L938,315"/><text class="g15" style="--gs:15" x="666" y="423">⑮</text><path class="g15 aligned" style="--gs:15" d="M666,423 Q907,384 917.63,385.13 Q981.38,391.88 992,393"/><path class="g15 offset" style="--gs:15" d="M666,519 Q907,480 917.63,481.13 Q981.38,487.88 992,489"/><text class="g16" style="--gs:16" x="774" y="428">⑯</text><path class="g16 aligned" style="--gs:16" d="M774,428 Q817,476 817.5,651 Q818,826 800.5,852.5 Q783,879 734.5,848.5 Q734.5,848.5 686,818"/><path class="g16 offset" style="--gs:16" d="M678,428 Q699.5,465.78 699.75,603.53 Q700,741.28 691.25,762.14 Q682.5,783 658.25,758.99 Q658.25,758.99 634,734.98"/></g>
</svg>
