<!--
  Stroke-order data for 補, derived from AnimCJK (https://github.com/parsimonhi/animCJK),
  itself derived from the Arphic PL KaitiM fonts. Distributed under the Arphic Public License
  (see ARPHICPL.TXT). Regenerated by scripts/build-strokes.ts — do not edit by hand.
-->
<svg id="z35036" class="acjk" viewBox="0 0 1024 1024" xmlns="http://www.w3.org/2000/svg">
<g class="glyph"><path id="z35036d1" d="M335 130C352 143 369 159 389 176C399 184 410 188 421 187C427 186 433 181 437 172C440 161 437 145 429 125C421 105 387 90 327 80C316 78 308 78 304 81C299 83 298 89 301 99C303 105 315 115 335 130Z"/><path id="z35036d2" d="M300 510C316 486 334 460 351 431C372 394 397 363 429 339C439 330 441 319 431 310C417 298 398 292 377 286C360 281 345 282 334 292C306 314 285 329 269 337C250 345 224 354 190 363C155 371 125 379 99 381C90 381 85 383 84 389C82 395 86 402 98 409C126 425 146 432 158 429C164 427 212 402 303 357C315 350 322 350 326 356C329 362 327 372 320 388C273 482 196 588 84 703C74 712 69 716 72 719C74 720 79 720 89 716C148 685 213 632 273 548C291 523 291 523 300 510Z"/><path id="z35036d3" d="M273 548C285 580 286 654 268 753C251 843 261 867 279 897C286 909 299 904 306 887C315 862 318 836 319 809C321 681 324 602 330 574C333 557 333 546 328 540C317 527 308 517 300 510C289 499 267 534 273 548Z"/><path id="z35036d4" d="M391 523C417 498 437 480 453 471C461 465 464 462 461 457C456 450 449 442 438 435C427 428 415 423 404 425C397 425 394 432 397 442C398 450 391 475 373 516C371 522 386 527 391 523Z"/><path id="z35036d5" d="M373 516C358 510 349 508 344 510C341 510 340 514 341 521C341 525 348 533 360 544C374 557 390 573 407 591C412 597 419 600 426 600C430 600 435 597 438 591C441 584 442 573 437 561C429 544 411 530 391 523C379 518 379 518 373 516Z"/><path id="z35036d6" d="M696 319C748 311 801 301 855 292C897 284 922 276 929 271C935 266 937 261 934 256C929 248 918 240 900 235C881 229 862 231 842 238C795 252 747 266 698 276C663 283 663 283 645 286C598 294 548 296 495 301C470 302 467 311 484 323C509 341 540 344 577 337C599 332 622 329 645 326C679 321 679 321 696 319Z"/><path id="z35036d7" d="M525 437C506 428 491 421 479 423C470 423 469 430 472 439C496 508 497 608 473 723C461 774 456 809 475 835C480 843 485 846 492 842C514 828 527 782 530 706C534 578 538 499 542 470C544 458 536 442 525 437Z"/><path id="z35036d8" d="M693 435C719 429 749 422 784 418C794 416 800 421 806 426C811 430 817 445 820 475C828 573 831 679 829 792C828 808 825 819 819 824C814 827 797 827 770 818C758 814 754 814 754 821C753 825 758 829 765 837C791 866 804 895 818 915C828 930 841 934 850 933C858 931 867 922 875 904C887 874 896 837 895 795C889 656 880 561 880 509C879 484 884 464 892 451C899 436 900 426 894 419C887 410 870 397 841 382C829 375 816 373 805 377C780 384 744 397 694 408C661 415 661 415 644 418C605 425 565 431 525 437C513 439 531 475 542 470C548 466 582 457 644 445C677 438 677 438 693 435Z"/><path id="z35036d9" d="M692 567C742 554 769 545 772 543C776 538 778 533 775 529C770 522 760 518 745 516C721 511 706 521 692 526C659 536 659 536 642 541C623 546 604 549 585 553C566 556 563 564 578 572C594 581 616 586 641 580C675 571 675 571 692 567Z"/><path id="z35036d10" d="M690 669C741 656 766 648 768 647C772 642 774 637 771 633C766 626 756 622 741 620C724 617 708 622 691 628C656 639 656 639 639 644C623 648 606 650 589 654C570 657 567 664 582 672C597 680 617 687 638 682C673 673 673 673 690 669Z"/><path id="z35036d11" d="M638 682C635 772 639 827 653 845C660 854 669 852 675 840C683 819 687 762 690 669C691 642 691 642 691 628C691 614 692 580 692 567C692 540 692 540 692 526C692 504 692 454 693 435C694 417 694 417 694 408C694 394 694 346 696 319C697 290 697 290 698 276C701 201 707 153 720 131C725 121 720 111 708 102C692 89 672 79 645 73C633 70 624 73 616 81C610 86 609 92 618 100C634 115 645 132 646 154C647 188 645 232 645 286C645 313 645 313 645 326C645 354 644 384 644 418C644 436 644 436 644 445C644 473 642 522 642 541C641 567 641 567 641 580C640 604 639 624 639 644C638 669 638 669 638 682Z"/><path id="z35036d12" d="M797 132C831 165 853 184 866 185C872 185 878 179 881 171C884 162 882 148 877 129C874 118 864 107 847 101C805 85 779 80 772 85C768 87 766 93 768 101C769 108 781 117 797 132Z"/></g>
<defs><clipPath id="z35036c1"><use href="#z35036d1"/></clipPath>
	<clipPath id="z35036c2"><use href="#z35036d2"/></clipPath>
	<clipPath id="z35036c3"><use href="#z35036d3"/></clipPath>
	<clipPath id="z35036c4"><use href="#z35036d4"/></clipPath>
	<clipPath id="z35036c5"><use href="#z35036d5"/></clipPath>
	<clipPath id="z35036c6"><use href="#z35036d6"/></clipPath>
	<clipPath id="z35036c7"><use href="#z35036d7"/></clipPath>
	<clipPath id="z35036c8"><use href="#z35036d8"/></clipPath>
	<clipPath id="z35036c9"><use href="#z35036d9"/></clipPath>
	<clipPath id="z35036c10"><use href="#z35036d10"/></clipPath>
	<clipPath id="z35036c11"><use href="#z35036d11"/></clipPath>
	<clipPath id="z35036c12"><use href="#z35036d12"/></clipPath><marker id="guide-arrow" viewBox="0 0 16 16" refX="5" refY="5" markerWidth="4" markerHeight="4" orient="auto-start-reverse"><path d="M 0 0 L 10 5 L 0 10 z" fill="inherit"/></marker></defs>
<g class="strokes"><path pathLength="3333" clip-path="url(#z35036c1)" d="M308 89L430 177"/><path pathLength="3333" clip-path="url(#z35036c2)" d="M90 390L165 397L343 320L386 345L231 566L79 715"/><path pathLength="3333" clip-path="url(#z35036c3)" d="M300 515L290 897"/><path pathLength="3333" clip-path="url(#z35036c4)" d="M402 431L422 465L381 516"/><path pathLength="3333" clip-path="url(#z35036c5)" d="M350 518L426 595"/><path pathLength="3333" clip-path="url(#z35036c6)" d="M482 311L561 318L930 258"/><path pathLength="3333" clip-path="url(#z35036c7)" d="M477 429L509 464L516 526L483 839"/><path pathLength="3333" clip-path="url(#z35036c8)" d="M534 438L558 449L803 398L855 435L858 829L835 881L759 823"/><path pathLength="3333" clip-path="url(#z35036c9)" d="M577 562L768 531"/><path pathLength="3333" clip-path="url(#z35036c10)" d="M582 662L765 637"/><path pathLength="3333" clip-path="url(#z35036c11)" d="M619 83L683 134L664 843"/><path pathLength="3333" clip-path="url(#z35036c12)" d="M776 94L843 133L871 179"/></g>
<g class="guides"><text class="g1" style="--gs:1" x="308" y="89">①</text><path class="g1 aligned" style="--gs:1" d="M308,89 L430,177"/><path class="g1 offset" style="--gs:1" d="M393.68,20.46 L515.68,108.46"/><text class="g2" style="--gs:2" x="90" y="390">②</text><path class="g2 aligned" style="--gs:2" d="M90,390 Q165,397 254,358.5 Q343,320 364.5,332.5 Q386,345 308.5,455.5 Q231,566 155,640.5 Q155,640.5 79,715"/><path class="g2 offset" style="--gs:2" d="M-6,486 Q31.5,489.6 76,469.81 Q120.5,450.03 131.25,456.45 Q142,462.87 103.25,519.66 Q64.5,576.45 26.5,614.74 Q26.5,614.74 -11.5,653.03"/><text class="g3" style="--gs:3" x="300" y="515">③</text><path class="g3 aligned" style="--gs:3" d="M300,515 L290,897"/><path class="g3 offset" style="--gs:3" d="M420,515 L410,897"/><text class="g4" style="--gs:4" x="402" y="431">④</text><path class="g4 aligned" style="--gs:4" d="M412,448 L381,516"/><path class="g4 offset" style="--gs:4" d="M532,448 L501,516"/><text class="g5" style="--gs:5" x="350" y="518">⑤</text><path class="g5 aligned" style="--gs:5" d="M350,518 L426,595"/><path class="g5 offset" style="--gs:5" d="M435.68,449.46 L511.68,526.46"/><text class="g6" style="--gs:6" x="482" y="311">⑥</text><path class="g6 aligned" style="--gs:6" d="M482,311 Q561,318 607.13,310.5 Q883.88,265.5 930,258"/><path class="g6 offset" style="--gs:6" d="M482,407 Q561,414 607.13,406.5 Q883.88,361.5 930,354"/><text class="g7" style="--gs:7" x="477" y="429">⑦</text><path class="g7 aligned" style="--gs:7" d="M477,429 Q509,464 510.75,479.5 Q516,526 507.75,604.25 Q491.25,760.75 483,839"/><path class="g7 offset" style="--gs:7" d="M381,429 Q413,464 414.75,479.5 Q420,526 411.75,604.25 Q395.25,760.75 387,839"/><text class="g8" style="--gs:8" x="534" y="438">⑧</text><path class="g8 aligned" style="--gs:8" d="M546,444 Q803,398 829,416.5 Q855,435 856.5,632 Q858,829 846.5,855 Q835,881 797,852 Q797,852 759,823"/><path class="g8 offset" style="--gs:8" d="M546,540 Q723.92,494 741.92,512.5 Q759.92,531 760.96,637.87 Q762,744.75 754.04,759.87 Q746.08,775 719.77,758.13 Q719.77,758.13 693.46,741.26"/><text class="g9" style="--gs:9" x="577" y="562">⑨</text><path class="g9 aligned" style="--gs:9" d="M577,562 L768,531"/><path class="g9 offset" style="--gs:9" d="M577,658 L768,627"/><text class="g10" style="--gs:10" x="582" y="662">⑩</text><path class="g10 aligned" style="--gs:10" d="M582,662 L765,637"/><path class="g10 offset" style="--gs:10" d="M582,758 L765,733"/><text class="g11" style="--gs:11" x="619" y="83">⑪</text><path class="g11 aligned" style="--gs:11" d="M619,83 Q683,134 680.63,222.63 Q666.38,754.38 664,843"/><path class="g11 offset" style="--gs:11" d="M523,83 Q587,134 584.63,222.63 Q570.38,754.38 568,843"/><text class="g12" style="--gs:12" x="776" y="94">⑫</text><path class="g12 aligned" style="--gs:12" d="M776,94 Q843,133 846.5,138.75 Q867.5,173.25 871,179"/><path class="g12 offset" style="--gs:12" d="M861.68,25.46 Q928.68,64.46 932.18,70.21 Q953.18,104.71 956.68,110.46"/></g>
</svg>
