<!--
  Stroke-order data for 製, derived from AnimCJK (https://github.com/parsimonhi/animCJK),
  itself derived from the Arphic PL KaitiM fonts. Distributed under the Arphic Public License
  (see ARPHICPL.TXT). Regenerated by scripts/build-strokes.ts — do not edit by hand.
-->
<svg id="z35069" class="acjk" viewBox="0 0 1024 1024" xmlns="http://www.w3.org/2000/svg">
<g class="glyph"><path style="--part:1" id="z35069d1" d="M287 174C294 162 302 153 310 144C314 137 314 129 307 123C283 103 264 97 253 99C247 99 244 104 246 113C251 145 232 191 186 251C184 253 182 255 181 258C176 266 177 268 186 267C211 261 243 239 275 192C283 180 283 180 287 174Z"/><path style="--part:1" id="z35069d2" d="M406 187C428 181 452 175 478 170C496 165 508 162 512 159C517 154 518 149 515 145C510 138 500 134 485 131C471 128 447 136 410 147C377 156 377 156 360 161C337 167 313 170 287 174C280 175 269 188 275 192C297 206 326 205 362 197C391 190 391 190 406 187Z"/><path style="--part:1" id="z35069d3" d="M401 278C435 269 475 260 520 253C528 251 533 249 534 244C534 237 529 230 519 226C499 217 461 227 403 243C376 250 376 250 362 254C260 281 188 293 150 299C143 299 138 302 137 307C135 312 139 319 148 325C171 340 195 343 217 335C299 303 347 291 361 288C388 281 388 281 401 278Z"/><path style="--part:1" id="z35069d4" d="M263 373C252 362 238 356 221 359C213 360 212 366 215 372C232 406 233 445 214 490C204 510 207 529 222 551C227 558 236 566 241 563C255 553 263 529 266 493C269 444 271 414 273 402C275 392 271 379 263 373Z"/><path style="--part:1" id="z35069d5" d="M396 368C446 355 475 350 483 356C485 358 489 382 493 428C494 440 491 448 488 454C484 459 478 459 465 458C435 453 419 454 419 455C416 457 420 460 428 467C455 488 475 509 491 527C496 533 503 534 511 532C515 530 520 523 526 512C534 495 539 475 539 453C538 405 539 372 545 357C548 348 550 340 545 337C533 329 517 324 499 317C488 312 480 312 472 317C454 326 429 335 397 344C372 351 372 351 359 354C331 361 299 367 263 373C253 375 264 406 273 402C285 397 301 392 357 378C383 371 383 371 396 368Z"/><path style="--part:1" id="z35069d6" d="M357 378C349 463 349 516 356 533C358 540 365 541 370 538C381 529 388 500 391 450C392 422 394 394 396 368C397 352 397 352 397 344C397 321 399 299 401 278C402 255 402 255 403 243C404 225 404 206 406 187C409 160 409 160 410 147C412 127 414 111 418 100C422 87 421 78 415 71C406 62 393 52 375 45C362 39 348 38 334 45C326 48 329 56 336 67C352 92 358 125 360 161C361 185 361 185 362 197C363 216 362 235 362 254C361 277 361 277 361 288C360 306 360 336 359 354C358 370 358 370 357 378Z"/><path style="--part:1" id="z35069d7" d="M574 172C586 200 590 253 582 333C580 351 586 368 601 386C606 392 613 393 618 386C627 368 632 331 633 277C633 243 633 216 638 198C641 185 637 175 626 168C617 162 607 156 597 152C590 149 583 149 578 153C572 156 570 163 574 172Z"/><path style="--part:1" id="z35069d8" d="M731 182C733 280 734 355 731 407C730 417 726 425 720 430C716 432 689 427 641 417C634 415 630 417 631 421C631 425 635 429 641 435C684 473 710 505 726 528C733 538 743 538 753 530C774 509 786 478 785 436C784 415 780 343 778 217C777 188 780 163 788 144C792 133 790 123 781 116C765 103 748 94 731 88C720 84 712 84 707 89C702 92 705 98 711 108C725 130 730 155 731 182Z"/><path style="--part:2" id="z35069d9" d="M495 583C497 571 496 557 487 546C481 538 470 535 459 533C438 528 425 526 418 527C413 527 411 530 411 536C411 544 425 558 455 580C460 584 467 587 473 589C480 591 494 590 495 583Z"/><path style="--part:2" id="z35069d10" d="M443 634C489 624 536 614 585 604C627 594 652 586 659 580C663 575 664 570 662 566C658 559 647 554 631 550C614 546 597 547 580 554C551 564 523 575 495 583C480 587 480 587 473 589C404 607 304 624 236 632C215 634 211 642 227 652C246 663 279 665 325 658C345 654 365 650 387 646C424 638 424 638 443 634Z"/><path style="--part:2" id="z35069d11" d="M455 652C453 646 449 640 443 634C430 621 393 628 387 646C372 688 326 738 250 797C224 817 105 888 111 889C152 895 222 862 298 811C314 799 351 769 376 746C394 729 394 729 403 720C424 699 439 683 451 677C458 672 458 660 455 652Z"/><path style="--part:2" id="z35069d12" d="M376 746Q407 836 367 895Q343 931 384 973Q385 974 390 978Q400 985 412 967Q443 927 549 827Q565 814 566 806Q567 793 548 804Q508 829 460 855Q442 867 434 863Q427 859 427 840Q431 783 436 769Q440 750 428 739Q415 726 403 720C392 714 371 734 376 746Z"/><path style="--part:2" id="z35069d13" d="M583 724C609 711 652 691 708 660C721 652 735 645 751 641C765 636 770 627 765 616C758 603 747 593 732 582C717 571 707 566 699 567C691 567 688 571 689 580C690 596 670 623 630 660C610 677 589 694 569 714C565 718 578 727 583 724Z"/><path style="--part:2" id="z35069d14" d="M569 714C552 702 535 690 518 677C495 659 474 650 455 652C447 652 443 674 451 677C483 687 535 728 613 794C701 869 762 904 790 901C844 894 892 881 936 867C958 859 967 854 965 849C963 846 952 841 929 839C815 825 739 810 702 792C661 771 620 750 583 724C574 717 574 717 569 714Z"/></g>
<defs><clipPath id="z35069c1"><use href="#z35069d1"/></clipPath>
	<clipPath id="z35069c2"><use href="#z35069d2"/></clipPath>
	<clipPath id="z35069c3"><use href="#z35069d3"/></clipPath>
	<clipPath id="z35069c4"><use href="#z35069d4"/></clipPath>
	<clipPath id="z35069c5"><use href="#z35069d5"/></clipPath>
	<clipPath id="z35069c6"><use href="#z35069d6"/></clipPath>
	<clipPath id="z35069c7"><use href="#z35069d7"/></clipPath>
	<clipPath id="z35069c8"><use href="#z35069d8"/></clipPath>
	<clipPath id="z35069c9"><use href="#z35069d9"/></clipPath>
	<clipPath id="z35069c10"><use href="#z35069d10"/></clipPath>
	<clipPath id="z35069c11"><use href="#z35069d11"/></clipPath>
	<clipPath id="z35069c12"><use href="#z35069d12"/></clipPath>
	<clipPath id="z35069c13"><use href="#z35069d13"/></clipPath>
	<clipPath id="z35069c14"><use href="#z35069d14"/></clipPath><marker id="guide-arrow" viewBox="0 0 16 16" refX="5" refY="5" markerWidth="4" markerHeight="4" orient="auto-start-reverse"><path d="M 0 0 L 10 5 L 0 10 z" fill="inherit"/></marker></defs>
<g class="strokes"><path style="--part:1" pathLength="3333" clip-path="url(#z35069c1)" d="M254 106L277 146L186 263"/><path style="--part:1" pathLength="3333" clip-path="url(#z35069c2)" d="M281 188L509 149"/><path style="--part:1" pathLength="3333" clip-path="url(#z35069c3)" d="M143 307L203 314L527 242"/><path style="--part:1" pathLength="3333" clip-path="url(#z35069c4)" d="M222 364L250 407L232 559"/><path style="--part:1" pathLength="3333" clip-path="url(#z35069c5)" d="M270 375L499 340L517 357L503 487L484 495L428 459"/><path style="--part:1" pathLength="3333" clip-path="url(#z35069c6)" d="M338 53L386 105L366 536"/><path style="--part:1" pathLength="3333" clip-path="url(#z35069c7)" d="M582 158L610 192L607 384"/><path style="--part:1" pathLength="3333" clip-path="url(#z35069c8)" d="M711 92L757 134L756 433L727 482L638 424"/><path style="--part:2" pathLength="3333" clip-path="url(#z35069c9)" d="M416 535L486 582"/><path style="--part:2" pathLength="3333" clip-path="url(#z35069c10)" d="M228 640L656 575"/><path style="--part:2" pathLength="3333" clip-path="url(#z35069c11)" d="M393 652L427 666L264 811L118 885"/><path style="--part:2" pathLength="3333" clip-path="url(#z35069c12)" d="M397 732L411 928L559 805"/><path style="--part:2" pathLength="3333" clip-path="url(#z35069c13)" d="M698 571L721 620L579 718"/><path style="--part:2" pathLength="3333" clip-path="url(#z35069c14)" d="M461 661L743 846L955 853"/></g>
<g class="guides"><text class="g1" style="--gs:1" x="254" y="106">①</text><path class="g1 aligned" style="--gs:1" d="M254,106 Q277,146 265.63,160.63 Q197.38,248.38 186,263"/><path class="g1 offset" style="--gs:1" d="M158,106 Q169.5,126 163.81,133.31 Q129.69,177.19 124,184.5"/><text class="g2" style="--gs:2" x="281" y="188">②</text><path class="g2 aligned" style="--gs:2" d="M281,188 L509,149"/><path class="g2 offset" style="--gs:2" d="M281,284 L509,245"/><text class="g3" style="--gs:3" x="143" y="307">③</text><path class="g3 aligned" style="--gs:3" d="M143,307 Q203,314 243.5,305 Q486.5,251 527,242"/><path class="g3 offset" style="--gs:3" d="M143,403 Q203,410 243.5,401 Q486.5,347 527,338"/><text class="g4" style="--gs:4" x="222" y="364">④</text><path class="g4 aligned" style="--gs:4" d="M222,364 Q250,407 247.75,426 Q234.25,540 232,559"/><path class="g4 offset" style="--gs:4" d="M126,364 Q154,407 151.75,426 Q138.25,540 136,559"/><text class="g5" style="--gs:5" x="270" y="375">⑤</text><path class="g5 aligned" style="--gs:5" d="M270,375 Q499,340 508,348.5 Q517,357 510,422 Q503,487 493.5,491 Q484,495 456,477 Q456,477 428,459"/><path class="g5 offset" style="--gs:5" d="M270,471 Q410,436 415.5,444.5 Q421,453 416.72,481.25 Q412.44,509.5 406.63,511.5 Q400.83,513.5 383.71,504.5 Q383.71,504.5 366.59,495.5"/><text class="g6" style="--gs:6" x="338" y="53">⑥</text><path class="g6 aligned" style="--gs:6" d="M338,53 Q386,105 383.5,158.88 Q368.5,482.13 366,536"/><path class="g6 offset" style="--gs:6" d="M242,53 Q290,105 287.5,158.88 Q272.5,482.13 270,536"/><text class="g7" style="--gs:7" x="582" y="158">⑦</text><path class="g7 aligned" style="--gs:7" d="M582,158 Q610,192 609.63,216 Q607.38,360 607,384"/><path class="g7 offset" style="--gs:7" d="M486,158 Q514,192 513.63,216 Q511.38,360 511,384"/><text class="g8" style="--gs:8" x="711" y="92">⑧</text><path class="g8 aligned" style="--gs:8" d="M711,92 Q757,134 756.5,283.5 Q756,433 741.5,457.5 Q727,482 682.5,453 Q682.5,453 638,424"/><path class="g8 offset" style="--gs:8" d="M615,92 Q638,123.66 637.75,236.36 Q637.5,349.06 630.25,367.53 Q623,386 600.75,364.14 Q600.75,364.14 578.5,342.28"/><text class="g9" style="--gs:9" x="416" y="535">⑨</text><path class="g9 aligned" style="--gs:9" d="M416,535 L486,582"/><path class="g9 offset" style="--gs:9" d="M501.68,466.46 L571.68,513.46"/><text class="g10" style="--gs:10" x="228" y="640">⑩</text><path class="g10 aligned" style="--gs:10" d="M228,640 L656,575"/><path class="g10 offset" style="--gs:10" d="M228,736 L656,671"/><text class="g11" style="--gs:11" x="393" y="652">⑪</text><path class="g11 aligned" style="--gs:11" d="M410,659 Q264,811 245.75,820.25 Q136.25,875.75 118,885"/><path class="g11 offset" style="--gs:11" d="M495.68,727.54 Q349.68,879.54 331.43,888.79 Q221.93,944.29 203.68,953.54"/><text class="g12" style="--gs:12" x="397" y="732">⑫</text><path class="g12 aligned" style="--gs:12" d="M397,732 Q411,928 429.5,912.63 Q540.5,820.38 559,805"/><path class="g12 offset" style="--gs:12" d="M517,732 Q524,832 533.25,824.16 Q588.75,777.09 598,769.24"/><text class="g13" style="--gs:13" x="698" y="571">⑬</text><path class="g13 aligned" style="--gs:13" d="M698,571 Q721,620 703.25,632.25 Q596.75,705.75 579,718"/><path class="g13 offset" style="--gs:13" d="M602,571 Q613.5,595.5 604.63,601.63 Q551.38,638.38 542.5,644.5"/><text class="g14" style="--gs:14" x="461" y="661">⑭</text><path class="g14 aligned" style="--gs:14" d="M461,661 Q743,846 769.5,846.88 Q928.5,852.13 955,853"/><path class="g14 offset" style="--gs:14" d="M546.68,592.46 Q779.77,751 801.67,751.75 Q933.1,756.25 955,757"/></g>
<g class="parts"><rect data-part="2" data-literal="衣" data-radical="true" role="button" tabindex="0" aria-label="Part 衣 (radical)" x="46" y="463" width="978" height="537"/><rect data-part="1" data-literal="制" role="button" tabindex="0" aria-label="Part 制" x="71" y="0" width="758" height="631"/></g>
</svg>
