<!--
  Stroke-order data for 襟, derived from AnimCJK (https://github.com/parsimonhi/animCJK),
  itself derived from the Arphic PL KaitiM fonts. Distributed under the Arphic Public License
  (see ARPHICPL.TXT). Regenerated by scripts/build-strokes.ts — do not edit by hand.
-->
<svg id="z35167" class="acjk" viewBox="0 0 1024 1024" xmlns="http://www.w3.org/2000/svg">
<g class="glyph"><path style="--part:1" id="z35167d1" d="M279 125C296 139 314 157 333 176C342 185 353 190 364 190C370 190 377 184 381 175C384 165 382 149 377 129C373 114 361 102 340 94C291 74 261 67 252 73C247 75 246 81 248 90C250 98 260 109 279 125Z"/><path style="--part:1" id="z35167d2" d="M249 491C266 466 283 439 300 409C319 374 341 345 370 323C378 316 380 308 373 301C363 291 348 285 332 279C319 274 308 275 298 282C273 298 253 309 238 314C221 318 198 325 168 329C137 333 110 334 88 335C81 335 77 336 76 340C74 344 76 350 85 357C105 373 121 380 131 379C135 378 177 364 258 338C267 334 273 335 276 339C279 345 277 354 271 369C230 457 162 556 62 663C55 670 51 672 53 675C54 676 58 677 66 673C116 645 171 597 225 524C241 502 241 502 249 491Z"/><path style="--part:1" id="z35167d3" d="M225 524C245 544 249 610 235 723C225 791 218 826 219 829C224 859 232 879 243 889C253 899 263 896 270 879C279 854 282 828 283 801C283 673 284 594 290 566C293 549 293 538 288 532C269 510 257 496 249 491C237 484 217 513 225 524Z"/><path style="--part:1" id="z35167d4" d="M348 508C348 507 348 507 349 507C379 489 402 476 417 470C423 467 427 464 426 461C423 454 418 446 411 439C403 430 394 425 385 425C379 424 376 429 376 437C376 445 371 456 337 504C335 507 345 510 348 508Z"/><path style="--part:1" id="z35167d5" d="M337 504C322 498 313 496 308 498C305 498 304 502 305 508C305 512 312 519 324 529C338 541 353 556 369 572C374 577 381 579 387 580C391 580 395 577 398 571C400 565 399 555 396 543C391 526 374 517 348 508C341 505 341 505 337 504Z"/><path style="--part:2" id="z35167d6" d="M546 268C558 264 573 261 591 257C607 253 617 249 620 247C624 242 626 237 623 233C618 226 608 222 593 219C578 216 564 219 550 224C523 233 523 233 509 237C485 244 432 254 414 258C394 261 391 268 406 276C428 288 460 289 493 281C528 272 528 272 546 268Z"/><path style="--part:2" id="z35167d7" d="M543 310C543 295 544 281 546 268C549 239 549 239 550 224C551 204 557 180 568 160C570 155 570 148 563 141C551 129 536 122 521 116C510 111 502 111 495 114C487 117 484 122 489 130C501 151 509 185 509 237C509 296 509 296 509 326C509 376 504 411 501 432C500 436 504 463 515 475C521 482 526 486 535 481C539 477 541 374 542 332C542 324 542 317 543 310Z"/><path style="--part:2" id="z35167d8" d="M493 281C472 325 442 370 404 419C400 423 402 426 408 427C410 427 413 425 419 422C451 399 481 368 509 326C536 291 509 240 493 281Z"/><path style="--part:2" id="z35167d9" d="M542 332C566 356 583 369 592 370C596 370 601 367 604 359C605 353 603 345 598 338C587 321 569 312 543 310C536 309 537 327 542 332Z"/><path style="--part:2" id="z35167d10" d="M756 234C780 228 805 221 832 215C848 210 857 206 860 204C864 199 865 194 863 190C858 183 847 178 831 175C814 172 791 181 760 190C731 198 731 198 717 202C695 208 672 211 650 216C629 219 626 227 642 236C657 244 679 252 705 246C739 238 739 238 756 234Z"/><path style="--part:2" id="z35167d11" d="M755 238C755 236 755 234 756 234C759 205 759 205 760 190C762 162 765 136 778 114C781 107 780 100 773 94C760 82 745 75 729 69C718 64 709 63 701 67C693 69 690 75 695 84C708 106 716 144 717 202C718 264 718 264 718 295C718 343 715 377 712 397C711 403 714 419 726 443C730 452 740 454 748 449C755 443 756 410 755 353C754 324 753 296 754 270C755 249 755 249 755 238Z"/><path style="--part:2" id="z35167d12" d="M705 246C685 290 648 344 596 411C592 415 594 418 600 419C602 419 606 417 611 414C652 381 688 342 718 295C742 255 722 203 705 246Z"/><path style="--part:2" id="z35167d13" d="M754 270C774 302 797 334 822 366C831 378 846 385 865 388C899 392 934 392 971 389C979 388 985 388 987 385C988 382 985 378 978 375C890 337 827 304 791 271C780 261 769 250 755 238C747 230 748 261 754 270Z"/><path style="--part:2" id="z35167d14" d="M513 530C490 532 487 540 503 551C527 566 556 569 592 562C636 552 682 546 730 537C750 532 762 528 766 526C772 521 774 516 771 511C766 504 755 497 738 493C719 488 701 490 683 497C658 505 633 512 607 518C578 524 546 526 513 530Z"/><path style="--part:2" id="z35167d15" d="M643 648C699 641 768 636 852 636C890 636 911 633 915 627C918 620 914 612 905 605C875 581 848 573 824 579C732 599 582 624 375 652C362 653 360 658 370 669C378 678 388 683 399 686C411 688 422 688 432 686C484 671 540 660 602 653C629 650 629 650 643 648Z"/><path style="--part:2" id="z35167d16" d="M602 653C618 695 622 757 613 839C612 841 611 842 611 844C608 852 599 856 583 855C564 852 546 848 527 845C520 844 516 847 515 852C514 856 517 860 524 866C566 898 594 926 611 945C619 954 629 957 637 955C643 952 649 939 659 918C668 895 673 865 671 825C668 774 666 739 669 721C672 694 671 673 659 661C653 655 647 652 643 648C632 639 597 640 602 653Z"/><path style="--part:2" id="z35167d17" d="M472 721C453 747 433 771 412 795C396 811 393 831 400 855C402 865 411 870 425 864C458 847 476 816 487 777C492 757 497 740 494 724C493 719 489 715 485 714C480 713 475 716 472 721Z"/><path style="--part:2" id="z35167d18" d="M740 736C770 762 802 795 837 835C847 847 856 855 866 858C870 859 875 856 881 850C887 841 886 824 880 798C872 767 827 737 741 708C734 705 731 707 731 715C730 723 733 730 740 736Z"/></g>
<defs><clipPath id="z35167c1"><use href="#z35167d1"/></clipPath>
	<clipPath id="z35167c2"><use href="#z35167d2"/></clipPath>
	<clipPath id="z35167c3"><use href="#z35167d3"/></clipPath>
	<clipPath id="z35167c4"><use href="#z35167d4"/></clipPath>
	<clipPath id="z35167c5"><use href="#z35167d5"/></clipPath>
	<clipPath id="z35167c6"><use href="#z35167d6"/></clipPath>
	<clipPath id="z35167c7"><use href="#z35167d7"/></clipPath>
	<clipPath id="z35167c8"><use href="#z35167d8"/></clipPath>
	<clipPath id="z35167c9"><use href="#z35167d9"/></clipPath>
	<clipPath id="z35167c10"><use href="#z35167d10"/></clipPath>
	<clipPath id="z35167c11"><use href="#z35167d11"/></clipPath>
	<clipPath id="z35167c12"><use href="#z35167d12"/></clipPath>
	<clipPath id="z35167c13"><use href="#z35167d13"/></clipPath>
	<clipPath id="z35167c14"><use href="#z35167d14"/></clipPath>
	<clipPath id="z35167c15"><use href="#z35167d15"/></clipPath>
	<clipPath id="z35167c16"><use href="#z35167d16"/></clipPath>
	<clipPath id="z35167c17"><use href="#z35167d17"/></clipPath>
	<clipPath id="z35167c18"><use href="#z35167d18"/></clipPath><marker id="guide-arrow" viewBox="0 0 16 16" refX="5" refY="5" markerWidth="4" markerHeight="4" orient="auto-start-reverse"><path d="M 0 0 L 10 5 L 0 10 z" fill="inherit"/></marker></defs>
<g class="strokes"><path style="--part:1" pathLength="3333" clip-path="url(#z35167c1)" d="M255 78L338 132L371 181"/><path style="--part:1" pathLength="3333" clip-path="url(#z35167c2)" d="M78 342L131 355L297 309L326 329L199 527L63 667"/><path style="--part:1" pathLength="3333" clip-path="url(#z35167c3)" d="M248 500L266 556L255 889"/><path style="--part:1" pathLength="3333" clip-path="url(#z35167c4)" d="M383 430L399 457L346 503"/><path style="--part:1" pathLength="3333" clip-path="url(#z35167c5)" d="M312 506L373 544L385 576"/><path style="--part:2" pathLength="3333" clip-path="url(#z35167c6)" d="M406 267L618 239"/><path style="--part:2" pathLength="3333" clip-path="url(#z35167c7)" d="M494 119L535 159L523 477"/><path style="--part:2" pathLength="3333" clip-path="url(#z35167c8)" d="M503 286L412 419"/><path style="--part:2" pathLength="3333" clip-path="url(#z35167c9)" d="M548 320L594 365"/><path style="--part:2" pathLength="3333" clip-path="url(#z35167c10)" d="M643 227L858 197"/><path style="--part:2" pathLength="3333" clip-path="url(#z35167c11)" d="M701 73L745 120L737 447"/><path style="--part:2" pathLength="3333" clip-path="url(#z35167c12)" d="M710 253L681 321L601 412"/><path style="--part:2" pathLength="3333" clip-path="url(#z35167c13)" d="M757 245L849 349L978 380"/><path style="--part:2" pathLength="3333" clip-path="url(#z35167c14)" d="M501 539L765 513"/><path style="--part:2" pathLength="3333" clip-path="url(#z35167c15)" d="M372 659L837 606L911 616"/><path style="--part:2" pathLength="3333" clip-path="url(#z35167c16)" d="M611 662L642 694L639 868L613 905L523 852"/><path style="--part:2" pathLength="3333" clip-path="url(#z35167c17)" d="M484 720L403 856"/><path style="--part:2" pathLength="3333" clip-path="url(#z35167c18)" d="M738 712L838 789L874 849"/></g>
<g class="guides"><text class="g1" style="--gs:1" x="255" y="78">①</text><path class="g1 aligned" style="--gs:1" d="M255,78 Q338,132 342.13,138.13 Q366.88,174.88 371,181"/><path class="g1 offset" style="--gs:1" d="M340.68,9.46 Q423.68,63.46 427.81,69.58 Q452.56,106.33 456.68,112.46"/><text class="g2" style="--gs:2" x="78" y="342">②</text><path class="g2 aligned" style="--gs:2" d="M78,342 Q131,355 214,332 Q297,309 311.5,319 Q326,329 262.5,428 Q199,527 131,597 Q131,597 63,667"/><path class="g2 offset" style="--gs:2" d="M-18,438 Q8.5,444.5 50,433 Q91.5,421.5 98.75,426.5 Q106,431.5 74.25,481 Q42.5,530.5 8.5,565.5 Q8.5,565.5 -25.5,600.5"/><text class="g3" style="--gs:3" x="248" y="500">③</text><path class="g3 aligned" style="--gs:3" d="M248,500 Q266,556 264.63,597.63 Q256.38,847.38 255,889"/><path class="g3 offset" style="--gs:3" d="M368,500 Q386,556 384.63,597.63 Q376.38,847.38 375,889"/><text class="g4" style="--gs:4" x="383" y="430">④</text><path class="g4 aligned" style="--gs:4" d="M383,430 Q399,457 392.38,462.75 Q352.63,497.25 346,503"/><path class="g4 offset" style="--gs:4" d="M287,430 Q295,443.5 291.69,446.38 Q271.81,463.63 268.5,466.5"/><text class="g5" style="--gs:5" x="312" y="506">⑤</text><path class="g5 aligned" style="--gs:5" d="M312,506 L379,560"/><path class="g5 offset" style="--gs:5" d="M397.68,437.46 L464.68,491.46"/><text class="g6" style="--gs:6" x="406" y="267">⑥</text><path class="g6 aligned" style="--gs:6" d="M406,267 L618,239"/><path class="g6 offset" style="--gs:6" d="M406,363 L618,335"/><text class="g7" style="--gs:7" x="494" y="119">⑦</text><path class="g7 aligned" style="--gs:7" d="M494,119 Q535,159 533.5,198.75 Q524.5,437.25 523,477"/><path class="g7 offset" style="--gs:7" d="M398,119 Q439,159 437.5,198.75 Q428.5,437.25 427,477"/><text class="g8" style="--gs:8" x="503" y="286">⑧</text><path class="g8 aligned" style="--gs:8" d="M503,286 L412,419"/><path class="g8 offset" style="--gs:8" d="M588.68,354.54 L497.68,487.54"/><text class="g9" style="--gs:9" x="548" y="320">⑨</text><path class="g9 aligned" style="--gs:9" d="M548,320 L594,365"/><path class="g9 offset" style="--gs:9" d="M633.68,251.46 L679.68,296.46"/><text class="g10" style="--gs:10" x="643" y="227">⑩</text><path class="g10 aligned" style="--gs:10" d="M643,227 L858,197"/><path class="g10 offset" style="--gs:10" d="M643,323 L858,293"/><text class="g11" style="--gs:11" x="701" y="73">⑪</text><path class="g11 aligned" style="--gs:11" d="M701,73 Q745,120 744,160.88 Q738,406.13 737,447"/><path class="g11 offset" style="--gs:11" d="M605,73 Q649,120 648,160.88 Q642,406.13 641,447"/><text class="g12" style="--gs:12" x="710" y="253">⑫</text><path class="g12 aligned" style="--gs:12" d="M710,253 Q681,321 671,332.38 Q611,400.63 601,412"/><path class="g12 offset" style="--gs:12" d="M614,253 Q599.5,287 594.5,292.69 Q564.5,326.81 559.5,332.5"/><text class="g13" style="--gs:13" x="757" y="245">⑬</text><path class="g13 aligned" style="--gs:13" d="M757,245 Q849,349 865.13,352.88 Q961.88,376.13 978,380"/><path class="g13 offset" style="--gs:13" d="M842.68,176.46 Q899.01,259.3 908.89,262.39 Q968.13,280.91 978,284"/><text class="g14" style="--gs:14" x="501" y="539">⑭</text><path class="g14 aligned" style="--gs:14" d="M501,539 L765,513"/><path class="g14 offset" style="--gs:14" d="M501,635 L765,609"/><text class="g15" style="--gs:15" x="372" y="659">⑮</text><path class="g15 aligned" style="--gs:15" d="M372,659 Q837,606 846.25,607.25 Q901.75,614.75 911,616"/><path class="g15 offset" style="--gs:15" d="M372,755 Q837,702 846.25,703.25 Q901.75,710.75 911,712"/><text class="g16" style="--gs:16" x="611" y="662">⑯</text><path class="g16 aligned" style="--gs:16" d="M611,662 Q642,694 640.5,781 Q639,868 626,886.5 Q613,905 568,878.5 Q568,878.5 523,852"/><path class="g16 offset" style="--gs:16" d="M515,662 Q530.5,681.36 529.75,733.99 Q529,786.62 522.5,797.81 Q516,809 493.5,792.97 Q493.5,792.97 471,776.94"/><text class="g17" style="--gs:17" x="484" y="720">⑰</text><path class="g17 aligned" style="--gs:17" d="M484,720 L403,856"/><path class="g17 offset" style="--gs:17" d="M569.68,788.54 L488.68,924.54"/><text class="g18" style="--gs:18" x="738" y="712">⑱</text><path class="g18 aligned" style="--gs:18" d="M738,712 Q838,789 842.5,796.5 Q869.5,841.5 874,849"/><path class="g18 offset" style="--gs:18" d="M823.68,643.46 Q923.68,720.46 928.18,727.96 Q955.18,772.96 959.68,780.46"/></g>
<g class="parts"><rect data-part="2" data-literal="禁" role="button" tabindex="0" aria-label="Part 禁" x="300" y="1" width="724" height="976"/><rect data-part="1" data-literal="衤" data-radical="true" role="button" tabindex="0" aria-label="Part 衤 (radical)" x="0" y="6" width="471" height="955"/></g>
</svg>
