<!--
  Stroke-order data for 覀, derived from AnimCJK (https://github.com/parsimonhi/animCJK),
  itself derived from the Arphic PL KaitiM fonts. Distributed under the Arphic Public License
  (see ARPHICPL.TXT). Regenerated by scripts/build-strokes.ts — do not edit by hand.
-->
<svg id="z35200" class="acjk" viewBox="0 0 1024 1024" xmlns="http://www.w3.org/2000/svg">
<g class="glyph"><path style="--part:1" id="z35200d1" d="M629 300C668 295 728 291 751 273C779 252 740 239 716 237C690 235 632 253 518 270C356 293 310 292 256 297C227 300 223 304 242 319C261 334 284 343 314 340C355 336 355 336 376 334C421 330 528 312 566 308C608 303 608 303 629 300Z"/><path style="--part:2" id="z35200d2" d="M171 487C150 477 141 476 126 476C88 476 101 496 121 527C136 551 152 619 171 669C183 702 194 724 205 733C224 748 238 748 236 725C235 712 231 701 228 688C217 641 199 553 197 534C194 516 188 494 171 487Z"/><path style="--part:2" id="z35200d3" d="M750 660C757 681 764 709 776 711C784 713 795 707 806 695C815 686 835 652 860 608C877 577 889 530 914 505C923 496 923 484 916 474C902 456 878 434 843 408C809 382 770 395 633 419C590 427 590 427 568 431C531 438 454 451 406 458C370 464 370 464 352 467C278 478 210 484 171 487C153 487 179 538 197 534C219 532 311 512 358 503C393 496 393 496 411 492C436 488 532 472 565 467C604 461 604 461 624 458C709 445 749 440 777 446C805 451 816 470 811 487C790 551 776 618 763 624C754 633 745 648 750 660Z"/><path style="--part:3" id="z35200d4" d="M314 340C325 359 339 388 352 467C356 491 356 491 358 503C363 531 370 579 382 668C385 684 432 676 429 660C422 605 415 519 411 492C408 469 408 469 406 458C390 351 414 358 376 334C358 323 305 321 314 340Z"/><path style="--part:4" id="z35200d5" d="M633 419C655 326 677 337 629 300C612 287 558 288 566 308C579 333 573 388 568 431C566 455 566 455 565 467C560 515 536 642 536 642C533 657 578 648 581 633C596 579 614 501 624 458C630 432 630 432 633 419Z"/><path style="--part:2" id="z35200d6" d="M236 725C410 700 608 673 750 660C763 660 773 632 763 624C735 597 614 626 581 633C551 639 551 639 536 642C498 649 462 655 429 660C398 665 398 665 382 668C345 674 289 679 228 688C216 690 224 727 236 725Z"/></g>
<defs><clipPath id="z35200c1"><use href="#z35200d1"/></clipPath>
	<clipPath id="z35200c2"><use href="#z35200d2"/></clipPath>
	<clipPath id="z35200c3"><use href="#z35200d3"/></clipPath>
	<clipPath id="z35200c4"><use href="#z35200d4"/></clipPath>
	<clipPath id="z35200c5"><use href="#z35200d5"/></clipPath>
	<clipPath id="z35200c6"><use href="#z35200d6"/></clipPath><marker id="guide-arrow" viewBox="0 0 16 16" refX="5" refY="5" markerWidth="4" markerHeight="4" orient="auto-start-reverse"><path d="M 0 0 L 10 5 L 0 10 z" fill="inherit"/></marker></defs>
<g class="strokes"><path style="--part:1" pathLength="3333" clip-path="url(#z35200c1)" d="M236 306L386 310L754 260"/><path style="--part:2" pathLength="3333" clip-path="url(#z35200c2)" d="M109 485L159 525L222 739"/><path style="--part:2" pathLength="3333" clip-path="url(#z35200c3)" d="M171 496L211 508L719 424L814 427L867 497L776 705"/><path style="--part:3" pathLength="3333" clip-path="url(#z35200c4)" d="M322 335L363 363L413 673"/><path style="--part:4" pathLength="3333" clip-path="url(#z35200c5)" d="M572 301L616 339L548 646"/><path style="--part:2" pathLength="3333" clip-path="url(#z35200c6)" d="M226 696L763 639"/></g>
<g class="guides"><text class="g1" style="--gs:1" x="236" y="306">①</text><path class="g1 aligned" style="--gs:1" d="M236,306 Q386,310 432,303.75 Q708,266.25 754,260"/><path class="g1 offset" style="--gs:1" d="M236,402 Q386,406 432,399.75 Q708,362.25 754,356"/><text class="g2" style="--gs:2" x="109" y="485">②</text><path class="g2 aligned" style="--gs:2" d="M109,485 Q159,525 166.88,551.75 Q214.13,712.25 222,739"/><path class="g2 offset" style="--gs:2" d="M194.68,416.46 Q244.68,456.46 252.56,483.21 Q299.81,643.71 307.68,670.46"/><text class="g3" style="--gs:3" x="171" y="496">③</text><path class="g3 aligned" style="--gs:3" d="M191,502 Q719,424 766.5,425.5 Q814,427 840.5,462 Q867,497 821.5,601 Q821.5,601 776,705"/><path class="g3 offset" style="--gs:3" d="M191,598 Q625.27,520 664.34,521.5 Q703.41,523 725.2,558 Q747,593 709.58,649 Q709.58,649 672.15,705"/><text class="g4" style="--gs:4" x="322" y="335">④</text><path class="g4 aligned" style="--gs:4" d="M322,335 Q363,363 369.25,401.75 Q406.75,634.25 413,673"/><path class="g4 offset" style="--gs:4" d="M407.68,266.46 Q448.68,294.46 454.93,333.21 Q492.43,565.71 498.68,604.46"/><text class="g5" style="--gs:5" x="572" y="301">⑤</text><path class="g5 aligned" style="--gs:5" d="M572,301 Q616,339 607.5,377.38 Q556.5,607.63 548,646"/><path class="g5 offset" style="--gs:5" d="M476,301 Q520,339 511.5,377.38 Q460.5,607.63 452,646"/><text class="g6" style="--gs:6" x="226" y="696">⑥</text><path class="g6 aligned" style="--gs:6" d="M226,696 L763,639"/><path class="g6 offset" style="--gs:6" d="M226,792 L763,735"/></g>
<g class="parts"><rect data-part="2" data-literal="口" role="button" tabindex="0" aria-label="Part 口" x="37" y="352" width="902" height="459"/><rect data-part="1" data-literal="一" role="button" tabindex="0" aria-label="Part 一" x="164" y="188" width="662" height="194"/><rect data-part="3" data-literal="丨" role="button" tabindex="0" aria-label="Part 丨" x="250" y="263" width="235" height="482"/><rect data-part="4" data-literal="丨" role="button" tabindex="0" aria-label="Part 丨" x="476" y="229" width="212" height="489"/></g>
</svg>
