<svg id="z35200" class="acjk" viewBox="0 0 1024 1024" xmlns="http://www.w3.org/2000/svg">
<style>

@keyframes zk {
	to {
		stroke-dashoffset:0;
	}
}
svg.acjk path[clip-path] {
	--t:0.8s;
	animation:zk var(--t) linear forwards var(--d);
	stroke-dasharray:3337;
	stroke-dashoffset:3339;
	stroke-width:128;
	stroke-linecap:round;
	fill:none;
	stroke:#000;
}
svg.acjk path[id] {fill:#ccc;}


    @keyframes guide-fade {
        0% { opacity: 0; }
        3% { opacity: 1; }
        95% { opacity: 1; }
        100% { opacity: 0; }
    }

    svg.acjk #guide-arrow {
        fill: #f77;
    }

    svg.acjk .guides {
        circle {
            fill: #0f6;
        }

        path {
            opacity: 0;
            animation: guide-fade var(--t) linear forwards var(--d);
            stroke-width: 16px;
            stroke-linecap: round;
            stroke: #f77;
            fill: none;
            marker-end: url(#guide-arrow);
        }

        circle,
        path {
            --t: 0.8s;
            opacity: 0;
            animation: guide-fade calc(var(--t) + 0.4s) ease-in-out forwards calc(var(--d) - 0.2s);
        }
    }
</style>
<path id="z35200d1" d="M629 300C668 295 728 291 751 273C779 252 740 239 716 237C690 235 632 253 518 270C356 293 310 292 256 297C227 300 223 304 242 319C261 334 284 343 314 340C355 336 355 336 376 334C421 330 528 312 566 308C608 303 608 303 629 300Z"/>
<path id="z35200d2" d="M171 487C150 477 141 476 126 476C88 476 101 496 121 527C136 551 152 619 171 669C183 702 194 724 205 733C224 748 238 748 236 725C235 712 231 701 228 688C217 641 199 553 197 534C194 516 188 494 171 487Z"/>
<path id="z35200d3" d="M750 660C757 681 764 709 776 711C784 713 795 707 806 695C815 686 835 652 860 608C877 577 889 530 914 505C923 496 923 484 916 474C902 456 878 434 843 408C809 382 770 395 633 419C590 427 590 427 568 431C531 438 454 451 406 458C370 464 370 464 352 467C278 478 210 484 171 487C153 487 179 538 197 534C219 532 311 512 358 503C393 496 393 496 411 492C436 488 532 472 565 467C604 461 604 461 624 458C709 445 749 440 777 446C805 451 816 470 811 487C790 551 776 618 763 624C754 633 745 648 750 660Z"/>
<path id="z35200d4" d="M314 340C325 359 339 388 352 467C356 491 356 491 358 503C363 531 370 579 382 668C385 684 432 676 429 660C422 605 415 519 411 492C408 469 408 469 406 458C390 351 414 358 376 334C358 323 305 321 314 340Z"/>
<path id="z35200d5" d="M633 419C655 326 677 337 629 300C612 287 558 288 566 308C579 333 573 388 568 431C566 455 566 455 565 467C560 515 536 642 536 642C533 657 578 648 581 633C596 579 614 501 624 458C630 432 630 432 633 419Z"/>
<path id="z35200d6" d="M236 725C410 700 608 673 750 660C763 660 773 632 763 624C735 597 614 626 581 633C551 639 551 639 536 642C498 649 462 655 429 660C398 665 398 665 382 668C345 674 289 679 228 688C216 690 224 727 236 725Z"/>
<defs>
	<clipPath id="z35200c1"><use href="#z35200d1"/></clipPath>
	<clipPath id="z35200c2"><use href="#z35200d2"/></clipPath>
	<clipPath id="z35200c3"><use href="#z35200d3"/></clipPath>
	<clipPath id="z35200c4"><use href="#z35200d4"/></clipPath>
	<clipPath id="z35200c5"><use href="#z35200d5"/></clipPath>
	<clipPath id="z35200c6"><use href="#z35200d6"/></clipPath>
<marker id="guide-arrow" viewBox="0 0 16 16" refX="5" refY="5" markerWidth="4" markerHeight="4" orient="auto-start-reverse"><path d="M 0 0 L 10 5 L 0 10 z" fill="inherit"/></marker></defs>
<path style="--d:1s;" pathLength="3333" clip-path="url(#z35200c1)" d="M236 306L386 310L754 260"/>
<path style="--d:2s;" pathLength="3333" clip-path="url(#z35200c2)" d="M109 485L159 525L222 739"/>
<path style="--d:3s;" pathLength="3333" clip-path="url(#z35200c3)" d="M171 496L211 508L719 424L814 427L867 497L776 705"/>
<path style="--d:4s;" pathLength="3333" clip-path="url(#z35200c4)" d="M322 335L363 363L413 673"/>
<path style="--d:5s;" pathLength="3333" clip-path="url(#z35200c5)" d="M572 301L616 339L548 646"/>
<path style="--d:6s;" pathLength="3333" clip-path="url(#z35200c6)" d="M226 696L763 639"/>
<g class="guides"><circle style="--d: 1s" class="g1" cx="236" cy="306" r="16"/><path style="--d: 1s;" class="g1" d="M236,402 Q386,406 432,399.75 Q708,362.25 754,356"/><circle style="--d: 2s" class="g2" cx="109" cy="485" r="16"/><path style="--d: 2s;" class="g2" d="M194.68,416.456 Q244.68,456.456 252.555,483.206 Q299.805,643.706 307.68,670.456"/><circle style="--d: 3s" class="g3" cx="191" cy="502" r="16"/><path style="--d: 3s;" class="g3" d="M191,598 Q625.2721893491124,520 664.3402366863905,521.5 Q703.4082840236687,523 725.2041420118344,558 Q747,593 709.5769230769231,649 Q709.5769230769231,649 672.1538461538462,705"/><circle style="--d: 4s" class="g4" cx="322" cy="335" r="16"/><path style="--d: 4s;" class="g4" d="M407.68,266.456 Q448.68,294.456 454.93,333.206 Q492.43,565.706 498.68,604.456"/><circle style="--d: 5s" class="g5" cx="572" cy="301" r="16"/><path style="--d: 5s;" class="g5" d="M476,301 Q520,339 511.5,377.375 Q460.5,607.625 452,646"/><circle style="--d: 6s" class="g6" cx="226" cy="696" r="16"/><path style="--d: 6s;" class="g6" d="M226,792 L763,735"/></g></svg>