<!--
  Stroke-order data for 解, derived from AnimCJK (https://github.com/parsimonhi/animCJK),
  itself derived from the Arphic PL KaitiM fonts. Distributed under the Arphic Public License
  (see ARPHICPL.TXT). Regenerated by scripts/build-strokes.ts — do not edit by hand.
-->
<svg id="z35299" class="acjk" viewBox="0 0 1024 1024" xmlns="http://www.w3.org/2000/svg">
<g class="glyph"><path id="z35299d1" d="M313 185C345 146 363 122 372 116C378 110 380 102 378 94C376 85 367 74 351 60C336 47 323 40 311 40C300 40 296 47 300 61C311 99 263 185 148 313C139 322 128 337 145 335C175 330 227 287 298 203C308 191 308 191 313 185Z"/><path id="z35299d2" d="M360 337C438 257 484 213 498 206C508 199 511 191 504 184C495 175 480 164 458 152C447 146 438 150 428 154C384 170 355 178 313 185C305 187 291 200 298 203C310 209 343 207 398 199C412 196 410 203 407 213C396 241 367 284 332 344C327 352 354 345 360 337Z"/><path id="z35299d3" d="M219 362C196 346 177 339 165 346C157 349 155 357 161 365C169 377 177 405 180 450C186 594 148 738 84 852C79 859 77 877 87 871C197 788 223 611 231 476C233 436 233 412 241 392C245 380 229 369 219 362Z"/><path id="z35299d4" d="M342 369C365 364 389 356 416 353C452 347 452 390 454 411C460 515 459 626 452 745C451 761 448 773 441 778C433 783 410 781 375 772C366 769 362 771 362 777C362 781 366 783 373 789C406 814 429 838 447 858C457 869 467 873 475 873C481 872 489 864 496 847C505 821 511 789 510 752C502 529 500 405 513 380C519 367 520 358 515 352C508 343 493 331 468 319C457 313 446 311 436 315C418 319 394 328 360 337C341 342 341 342 332 344C295 353 246 359 219 362C207 364 229 396 241 392C259 387 281 381 302 377C329 372 329 372 342 369Z"/><path id="z35299d5" d="M314 581C314 555 317 472 317 472C317 432 312 400 302 378C301 378 301 377 302 377C298 364 331 361 342 369C360 380 368 389 367 400C360 437 359 458 359 460C359 460 355 546 355 566C355 587 355 587 355 598C355 612 314 624 314 610C314 591 314 591 314 581Z"/><path id="z35299d6" d="M357 514Q376 508 401 503Q421 498 425 496Q429 489 427 484Q421 477 400 472Q380 468 359 477C331 487 331 487 317 492Q314 492 313 493Q285 499 254 503Q229 509 248 520Q274 529 315 525C343 518 343 518 357 514Z"/><path id="z35299d7" d="M359 636C377 632 405 627 428 623C445 619 453 615 455 614C460 609 460 605 458 602C452 595 444 590 426 588C408 585 394 586 375 593C373 593 355 597 355 598C328 606 328 606 314 610C289 617 253 619 227 624C204 627 201 639 218 646C242 655 274 652 309 646C342 639 342 639 359 636Z"/><path id="z35299d8" d="M689 185C723 176 756 170 787 167C812 163 814 184 814 202C813 245 810 278 801 298C792 317 777 326 761 323C744 319 728 312 714 307C699 301 694 309 707 322C733 350 755 372 770 393C777 404 787 403 798 396C829 373 854 315 868 220C871 197 876 179 886 167C892 158 894 151 891 146C886 139 867 129 835 116C822 111 810 112 799 120C785 128 751 138 700 150C647 162 598 170 554 173C543 173 537 176 536 182C535 186 542 192 556 200C570 208 584 211 596 208C616 202 637 196 659 192C679 187 679 187 689 185Z"/><path id="z35299d9" d="M659 192C659 244 623 310 550 389C546 392 542 402 549 401C589 391 638 345 695 263C703 250 710 241 714 235C723 218 712 210 689 185C682 178 659 182 659 192Z"/><path id="z35299d10" d="M610 508C624 489 637 474 650 463C672 441 632 428 617 425C604 422 576 417 585 437C590 448 572 495 535 576C525 597 531 599 539 593C565 569 581 544 596 526C605 514 605 514 610 508Z"/><path id="z35299d11" d="M753 522C819 508 853 497 855 496C859 491 861 486 859 482C854 474 843 469 827 466C806 461 783 470 755 478C718 488 718 488 699 493C670 500 640 503 610 508C603 509 589 522 596 526C606 532 617 536 631 539C638 540 661 540 699 533C735 526 735 526 753 522Z"/><path id="z35299d12" d="M752 659C801 651 862 649 934 648C946 647 953 644 956 639C958 632 955 624 945 617C910 592 877 587 845 597C818 604 788 611 752 618C717 625 717 625 699 628C646 637 590 646 530 656C518 657 515 663 526 673C543 689 565 693 588 689C611 684 659 672 699 667C734 662 734 662 752 659Z"/><path id="z35299d13" d="M703 904C704 913 712 949 727 942C736 937 743 914 747 877C755 800 752 724 752 659C752 632 752 632 752 618C752 591 751 544 753 522C754 493 754 493 755 478C755 463 760 448 763 435C765 424 761 415 752 409C731 394 716 388 707 386C698 384 689 383 680 390C673 394 674 399 679 407C692 428 699 456 699 493C699 520 699 520 699 533C699 596 699 596 699 628C699 654 699 654 699 667C699 805 700 882 703 904Z"/></g>
<defs><clipPath id="z35299c1"><use href="#z35299d1"/></clipPath>
	<clipPath id="z35299c2"><use href="#z35299d2"/></clipPath>
	<clipPath id="z35299c3"><use href="#z35299d3"/></clipPath>
	<clipPath id="z35299c4"><use href="#z35299d4"/></clipPath>
	<clipPath id="z35299c5"><use href="#z35299d5"/></clipPath>
	<clipPath id="z35299c6"><use href="#z35299d6"/></clipPath>
	<clipPath id="z35299c7"><use href="#z35299d7"/></clipPath>
	<clipPath id="z35299c8"><use href="#z35299d8"/></clipPath>
	<clipPath id="z35299c9"><use href="#z35299d9"/></clipPath>
	<clipPath id="z35299c10"><use href="#z35299d10"/></clipPath>
	<clipPath id="z35299c11"><use href="#z35299d11"/></clipPath>
	<clipPath id="z35299c12"><use href="#z35299d12"/></clipPath>
	<clipPath id="z35299c13"><use href="#z35299d13"/></clipPath><marker id="guide-arrow" viewBox="0 0 16 16" refX="5" refY="5" markerWidth="4" markerHeight="4" orient="auto-start-reverse"><path d="M 0 0 L 10 5 L 0 10 z" fill="inherit"/></marker></defs>
<g class="strokes"><path pathLength="3333" clip-path="url(#z35299c1)" d="M306 50L335 106L143 328"/><path pathLength="3333" clip-path="url(#z35299c2)" d="M304 197L418 176L457 198L338 340"/><path pathLength="3333" clip-path="url(#z35299c3)" d="M165 351L208 396L197 583L160 733L87 865"/><path pathLength="3333" clip-path="url(#z35299c4)" d="M224 369L438 333L484 370L477 786L451 827L368 777"/><path pathLength="3333" clip-path="url(#z35299c5)" d="M308 374L340 407L333 612"/><path pathLength="3333" clip-path="url(#z35299c6)" d="M250 512L419 487"/><path pathLength="3333" clip-path="url(#z35299c7)" d="M215 635L451 604"/><path pathLength="3333" clip-path="url(#z35299c8)" d="M541 180L592 189L808 140L836 152L852 171L807 338L773 361L705 312"/><path pathLength="3333" clip-path="url(#z35299c9)" d="M672 188L671 256L554 393"/><path pathLength="3333" clip-path="url(#z35299c10)" d="M592 431L616 464L536 589"/><path pathLength="3333" clip-path="url(#z35299c11)" d="M602 521L855 482"/><path pathLength="3333" clip-path="url(#z35299c12)" d="M527 663L874 620L951 633"/><path pathLength="3333" clip-path="url(#z35299c13)" d="M682 394L728 434L722 938"/></g>
<g class="guides"><text class="g1" style="--gs:1" x="306" y="50">①</text><path class="g1 aligned" style="--gs:1" d="M306,50 Q335,106 311,133.75 Q167,300.25 143,328"/><path class="g1 offset" style="--gs:1" d="M210,50 Q224.5,86.66 212.5,104.83 Q140.5,213.83 128.5,232"/><text class="g2" style="--gs:2" x="304" y="197">②</text><path class="g2 aligned" style="--gs:2" d="M304,197 Q418,176 427.75,181.5 Q457,198 427.25,233.5 Q367.75,304.5 338,340"/><path class="g2 offset" style="--gs:2" d="M304,293 Q361,272 365.88,277.5 Q380.5,294 365.63,329.5 Q335.88,400.5 321,436"/><text class="g3" style="--gs:3" x="165" y="351">③</text><path class="g3 aligned" style="--gs:3" d="M165,351 Q208,396 202.5,489.5 Q197,583 178.5,658 Q160,733 123.5,799 Q123.5,799 87,865"/><path class="g3 offset" style="--gs:3" d="M69,351 Q112,396 106.5,489.5 Q101,583 82.5,658 Q64,733 27.5,799 Q27.5,799 -9,865"/><text class="g4" style="--gs:4" x="224" y="369">④</text><path class="g4 aligned" style="--gs:4" d="M224,369 Q438,333 461,351.5 Q484,370 480.5,578 Q477,786 464,806.5 Q451,827 409.5,802 Q409.5,802 368,777"/><path class="g4 offset" style="--gs:4" d="M224,465 Q358.98,429 373.49,440.23 Q388,451.47 385.79,577.79 Q383.58,704.1 375.38,716.55 Q367.18,729 341.01,713.82 Q341.01,713.82 314.83,698.64"/><text class="g5" style="--gs:5" x="308" y="374">⑤</text><path class="g5 aligned" style="--gs:5" d="M308,374 Q340,407 339.13,432.63 Q333.88,586.38 333,612"/><path class="g5 offset" style="--gs:5" d="M212,374 Q244,407 243.13,432.63 Q237.88,586.38 237,612"/><text class="g6" style="--gs:6" x="250" y="512">⑥</text><path class="g6 aligned" style="--gs:6" d="M250,512 L419,487"/><path class="g6 offset" style="--gs:6" d="M250,608 L419,583"/><text class="g7" style="--gs:7" x="215" y="635">⑦</text><path class="g7 aligned" style="--gs:7" d="M215,635 L451,604"/><path class="g7 offset" style="--gs:7" d="M215,731 L451,700"/><text class="g8" style="--gs:8" x="541" y="180">⑧</text><path class="g8 aligned" style="--gs:8" d="M541,180 Q592,189 700,164.5 Q808,140 822,146 Q836,152 844,161.5 Q852,171 829.5,254.5 Q807,338 790,349.5 Q773,361 739,336.5 Q739,336.5 705,312"/><path class="g8 offset" style="--gs:8" d="M541,276 Q576.26,260.5 650.92,248.25 Q725.58,236 735.26,242 Q744.94,248 750.47,257.5 Q756,267 740.45,301 Q724.89,335 713.14,340.75 Q701.39,346.5 677.88,334.25 Q677.88,334.25 654.38,322"/><text class="g9" style="--gs:9" x="672" y="188">⑨</text><path class="g9 aligned" style="--gs:9" d="M672,188 Q671,256 656.38,273.13 Q568.63,375.88 554,393"/><path class="g9 offset" style="--gs:9" d="M576,188 Q575.5,224.16 568.19,233.26 Q524.31,287.89 517,297"/><text class="g10" style="--gs:10" x="592" y="431">⑩</text><path class="g10 aligned" style="--gs:10" d="M604,448 L536,589"/><path class="g10 offset" style="--gs:10" d="M724,448 L656,589"/><text class="g11" style="--gs:11" x="602" y="521">⑪</text><path class="g11 aligned" style="--gs:11" d="M602,521 L855,482"/><path class="g11 offset" style="--gs:11" d="M602,617 L855,578"/><text class="g12" style="--gs:12" x="527" y="663">⑫</text><path class="g12 aligned" style="--gs:12" d="M527,663 Q874,620 883.63,621.63 Q941.38,631.38 951,633"/><path class="g12 offset" style="--gs:12" d="M527,759 Q874,716 883.63,717.63 Q941.38,727.38 951,729"/><text class="g13" style="--gs:13" x="682" y="394">⑬</text><path class="g13 aligned" style="--gs:13" d="M682,394 Q728,434 727.25,497 Q722.75,875 722,938"/><path class="g13 offset" style="--gs:13" d="M586,394 Q632,434 631.25,497 Q626.75,875 626,938"/></g>
</svg>
