<svg id="z35328" class="acjk" viewBox="0 0 1024 1024" xmlns="http://www.w3.org/2000/svg">
<style>

@keyframes zk {
	to {
		stroke-dashoffset:0;
	}
}
svg.acjk path[clip-path] {
	--t:0.8s;
	animation:zk var(--t) linear forwards var(--d);
	stroke-dasharray:3337;
	stroke-dashoffset:3339;
	stroke-width:128;
	stroke-linecap:round;
	fill:none;
	stroke:#000;
}
svg.acjk path[id] {fill:#ccc;}


    @keyframes guide-fade {
        0% { opacity: 0; }
        3% { opacity: 1; }
        95% { opacity: 1; }
        100% { opacity: 0; }
    }

    svg.acjk #guide-arrow {
        fill: #f77;
    }

    svg.acjk .guides {
        circle {
            fill: #0f6;
        }

        path {
            opacity: 0;
            animation: guide-fade var(--t) linear forwards var(--d);
            stroke-width: 16px;
            stroke-linecap: round;
            stroke: #f77;
            fill: none;
            marker-end: url(#guide-arrow);
        }

        circle,
        path {
            --t: 0.8s;
            opacity: 0;
            animation: guide-fade calc(var(--t) + 0.4s) ease-in-out forwards calc(var(--d) - 0.2s);
        }
    }
</style>
<path id="z35328d1" d="M452 121Q516 187 557 202Q576 205 586 188Q593 172 588 151Q579 123 557 108Q545 102 462 73Q443 70 433 74Q426 75 430 91Q431 104 452 121Z"/>
<path id="z35328d2" d="M131 302Q106 305 124 325Q157 358 206 349Q447 285 846 284Q871 284 894 285Q918 285 923 275Q930 262 911 245Q842 194 774 214Q549 254 131 302Z"/>
<path id="z35328d3" d="M371 411Q334 415 360 434Q399 461 459 448Q538 435 619 421Q656 414 662 409Q671 402 667 392Q660 380 630 372Q606 366 499 394Q391 409 371 411Z"/>
<path id="z35328d4" d="M379 539Q342 543 368 562Q407 589 467 576Q539 564 614 552Q648 545 654 541Q663 534 659 524Q652 512 622 503Q591 496 561 507Q522 519 480 528Q434 535 379 539Z"/>
<path id="z35328d5" d="M372 682Q359 676 329 670Q314 666 310 671Q301 678 311 698Q339 761 354 862Q355 893 373 913Q394 941 401 922Q405 909 407 889C405 864 405 864 404 851Q394 743 393 715C393 702 384 687 372 682Z"/>
<path id="z35328d6" d="M680 824Q707 731 744 707Q762 688 747 668Q663 602 606 635Q491 668 372 682C359 685 380 715 393 715Q406 715 425 709Q519 693 608 678Q632 674 641 683Q651 693 648 713Q638 771 625 818C619 835 676 842 680 824Z"/>
<path id="z35328d7" d="M407 889Q414 889 425 888Q510 873 696 866Q709 865 710 855Q711 846 680 824C664 815 643 815 625 818Q502 842 404 851C391 853 394 889 407 889Z"/>
<defs>
	<clipPath id="z35328c1"><use href="#z35328d1"/></clipPath>
	<clipPath id="z35328c2"><use href="#z35328d2"/></clipPath>
	<clipPath id="z35328c3"><use href="#z35328d3"/></clipPath>
	<clipPath id="z35328c4"><use href="#z35328d4"/></clipPath>
	<clipPath id="z35328c5"><use href="#z35328d5"/></clipPath>
	<clipPath id="z35328c6"><use href="#z35328d6"/></clipPath>
	<clipPath id="z35328c7"><use href="#z35328d7"/></clipPath>
<marker id="guide-arrow" viewBox="0 0 16 16" refX="5" refY="5" markerWidth="4" markerHeight="4" orient="auto-start-reverse"><path d="M 0 0 L 10 5 L 0 10 z" fill="inherit"/></marker></defs>
<path style="--d:1s;" pathLength="3333" clip-path="url(#z35328c1)" d="M435 82L581 189"/>
<path style="--d:2s;" pathLength="3333" clip-path="url(#z35328c2)" d="M127 314L182 324L805 246L920 263"/>
<path style="--d:3s;" pathLength="3333" clip-path="url(#z35328c3)" d="M357 421L663 400"/>
<path style="--d:4s;" pathLength="3333" clip-path="url(#z35328c4)" d="M364 549L653 527"/>
<path style="--d:5s;" pathLength="3333" clip-path="url(#z35328c5)" d="M313 678L360 730L390 925"/>
<path style="--d:6s;" pathLength="3333" clip-path="url(#z35328c6)" d="M380 685L667 660L701 696L642 819"/>
<path style="--d:7s;" pathLength="3333" clip-path="url(#z35328c7)" d="M412 857L703 847"/>
<g class="guides"><circle style="--d: 1s" class="g1" cx="435" cy="82" r="16"/><path style="--d: 1s;" class="g1" d="M520.68,13.456000000000003 L666.68,120.456"/><circle style="--d: 2s" class="g2" cx="127" cy="314" r="16"/><path style="--d: 2s;" class="g2" d="M127,410 Q182,420 337.75,400.5 Q805,342 833.75,346.25 Q891.25,354.75 920,359"/><circle style="--d: 3s" class="g3" cx="357" cy="421" r="16"/><path style="--d: 3s;" class="g3" d="M357,517 L663,496"/><circle style="--d: 4s" class="g4" cx="364" cy="549" r="16"/><path style="--d: 4s;" class="g4" d="M364,645 L653,623"/><circle style="--d: 5s" class="g5" cx="313" cy="678" r="16"/><path style="--d: 5s;" class="g5" d="M398.68,609.456 Q445.68,661.456 449.43,685.831 Q471.93,832.081 475.68,856.456"/><circle style="--d: 6s" class="g6" cx="380" cy="685" r="16"/><path style="--d: 6s;" class="g6" d="M380,781 Q559.7102803738318,756 565.0327102803739,760.5 Q581,774 571.7640186915887,789.375 Q553.2920560747664,820.125 544.0560747663551,835.5"/><circle style="--d: 7s" class="g7" cx="412" cy="857" r="16"/><path style="--d: 7s;" class="g7" d="M412,953 L703,943"/></g></svg>