<!--
  Stroke-order data for 詩, derived from AnimCJK (https://github.com/parsimonhi/animCJK),
  itself derived from the Arphic PL KaitiM fonts. Distributed under the Arphic Public License
  (see ARPHICPL.TXT). Regenerated by scripts/build-strokes.ts — do not edit by hand.
-->
<svg id="z35433" class="acjk" viewBox="0 0 1024 1024" xmlns="http://www.w3.org/2000/svg">
<g class="glyph"><path style="--part:1" id="z35433d1" d="M334 111C353 126 372 144 393 163C402 171 413 175 425 175C431 174 437 169 441 160C444 149 442 133 435 113C427 92 391 74 327 61C316 58 308 58 304 61C299 63 298 69 301 79C303 85 315 95 334 111Z"/><path style="--part:1" id="z35433d2" d="M85 288C76 288 71 292 69 298C66 304 70 312 81 320C108 340 136 343 165 334C256 302 352 280 452 266C462 264 469 262 470 256C471 247 464 239 452 234C433 225 416 223 401 227C250 262 145 282 85 288Z"/><path style="--part:1" id="z35433d3" d="M228 405C205 410 203 420 221 427C246 436 279 434 319 422C337 416 356 410 377 405C387 402 392 399 394 398C398 391 399 386 396 382C391 375 379 370 361 369C342 367 324 373 307 382C296 387 284 391 272 395C259 399 244 401 228 405Z"/><path style="--part:1" id="z35433d4" d="M225 509C202 514 200 522 218 531C244 543 273 542 307 533C327 526 349 522 372 516C382 513 387 511 389 510C393 505 395 499 392 494C387 487 375 482 357 480C338 477 320 482 303 490C292 494 280 498 268 501C255 504 240 505 225 509Z"/><path style="--part:1" id="z35433d5" d="M212 641C204 637 190 634 172 632C163 630 159 631 157 634C152 639 154 645 160 657C179 692 195 740 207 800C210 818 217 833 228 845C240 859 247 861 251 850C254 839 254 823 251 802C247 779 247 779 245 767C236 716 229 683 228 667C226 657 221 645 212 641Z"/><path style="--part:1" id="z35433d6" d="M389 739C399 694 412 666 425 652C440 634 438 621 423 613C410 606 395 596 377 586C365 579 344 590 311 606C268 626 234 634 212 641C203 645 219 672 228 667C234 663 265 653 319 639C335 634 344 636 350 642C353 645 354 656 351 677C348 693 344 712 340 734C337 750 386 755 389 739Z"/><path style="--part:1" id="z35433d7" d="M251 802C283 791 333 780 400 768C406 766 410 762 410 756C410 751 403 745 389 739C374 733 356 729 340 734C319 740 269 759 245 767C234 771 240 806 251 802Z"/><path style="--part:2" id="z35433d8" d="M687 278C767 255 808 242 809 241C814 235 814 229 812 224C807 215 794 210 774 207C754 204 727 212 692 225C656 238 656 238 638 244C612 253 570 258 535 265C510 269 507 279 526 289C553 303 587 306 638 292C671 283 671 283 687 278Z"/><path style="--part:2" id="z35433d9" d="M678 374C680 341 684 309 687 278C690 243 690 243 692 225C694 197 701 121 714 83C716 74 712 64 698 56C674 41 653 35 638 32C627 29 619 31 614 37C609 41 608 49 614 60C625 79 633 94 634 107C636 149 638 195 638 244C638 276 638 276 638 292C638 320 636 350 635 382C635 397 678 389 678 374Z"/><path style="--part:2" id="z35433d10" d="M635 382C570 394 501 406 427 419C414 421 412 427 422 437C430 445 441 450 453 453C465 455 477 456 487 453C623 408 778 386 951 386C952 386 954 386 954 386C966 386 974 382 977 377C980 369 976 360 965 353C932 330 904 323 881 329C831 341 763 358 678 374C649 379 649 379 635 382Z"/><path style="--part:2" id="z35433d11" d="M749 550C781 546 819 541 863 541C893 540 912 538 917 531C920 524 917 515 906 509C854 481 828 488 752 505C715 513 715 513 696 517C653 526 544 546 474 560C461 562 460 567 470 577C478 585 488 590 500 593C512 595 523 595 533 592C596 571 671 559 698 556C732 552 732 552 749 550Z"/><path style="--part:2" id="z35433d12" d="M698 556C707 749 703 853 689 864C683 868 658 864 614 853C606 851 602 852 603 858C603 862 607 866 613 873C654 915 678 949 694 972C702 984 714 984 724 975C746 953 761 913 759 855C755 758 745 596 749 550C751 520 751 520 752 505C752 494 756 485 760 476C765 463 761 453 751 445C733 430 715 421 695 415C682 411 673 410 669 416C665 420 667 427 674 438C689 462 694 489 696 517C697 543 697 543 698 556Z"/><path style="--part:2" id="z35433d13" d="M519 681C530 695 539 712 550 730C556 740 565 746 575 748C581 748 588 746 593 739C598 730 600 716 599 696C597 677 572 658 525 635C516 630 509 627 504 629C500 630 497 635 497 644C496 652 505 663 519 681Z"/></g>
<defs><clipPath id="z35433c1"><use href="#z35433d1"/></clipPath>
	<clipPath id="z35433c2"><use href="#z35433d2"/></clipPath>
	<clipPath id="z35433c3"><use href="#z35433d3"/></clipPath>
	<clipPath id="z35433c4"><use href="#z35433d4"/></clipPath>
	<clipPath id="z35433c5"><use href="#z35433d5"/></clipPath>
	<clipPath id="z35433c6"><use href="#z35433d6"/></clipPath>
	<clipPath id="z35433c7"><use href="#z35433d7"/></clipPath>
	<clipPath id="z35433c8"><use href="#z35433d8"/></clipPath>
	<clipPath id="z35433c9"><use href="#z35433d9"/></clipPath>
	<clipPath id="z35433c10"><use href="#z35433d10"/></clipPath>
	<clipPath id="z35433c11"><use href="#z35433d11"/></clipPath>
	<clipPath id="z35433c12"><use href="#z35433d12"/></clipPath>
	<clipPath id="z35433c13"><use href="#z35433d13"/></clipPath><marker id="guide-arrow" viewBox="0 0 16 16" refX="5" refY="5" markerWidth="4" markerHeight="4" orient="auto-start-reverse"><path d="M 0 0 L 10 5 L 0 10 z" fill="inherit"/></marker></defs>
<g class="strokes"><path style="--part:1" pathLength="3333" clip-path="url(#z35433c1)" d="M307 69L399 121L426 170"/><path style="--part:1" pathLength="3333" clip-path="url(#z35433c2)" d="M74 301L129 311L465 247"/><path style="--part:1" pathLength="3333" clip-path="url(#z35433c3)" d="M216 416L390 384"/><path style="--part:1" pathLength="3333" clip-path="url(#z35433c4)" d="M215 519L389 496"/><path style="--part:1" pathLength="3333" clip-path="url(#z35433c5)" d="M162 641L202 682L241 852"/><path style="--part:1" pathLength="3333" clip-path="url(#z35433c6)" d="M218 642L353 610L382 625L393 647L352 734"/><path style="--part:1" pathLength="3333" clip-path="url(#z35433c7)" d="M255 794L345 755L406 757"/><path style="--part:2" pathLength="3333" clip-path="url(#z35433c8)" d="M522 276L808 232"/><path style="--part:2" pathLength="3333" clip-path="url(#z35433c9)" d="M617 38L673 89L654 378"/><path style="--part:2" pathLength="3333" clip-path="url(#z35433c10)" d="M424 429L871 359L972 371"/><path style="--part:2" pathLength="3333" clip-path="url(#z35433c11)" d="M472 570L801 518L913 524"/><path style="--part:2" pathLength="3333" clip-path="url(#z35433c12)" d="M674 419L727 476L728 848L696 929L609 859"/><path style="--part:2" pathLength="3333" clip-path="url(#z35433c13)" d="M507 636L583 742"/></g>
<g class="guides"><text class="g1" style="--gs:1" x="307" y="69">①</text><path class="g1 aligned" style="--gs:1" d="M307,69 Q399,121 402.38,127.13 Q422.63,163.88 426,170"/><path class="g1 offset" style="--gs:1" d="M307,165 Q353,191 354.69,194.06 Q364.81,212.44 366.5,215.5"/><text class="g2" style="--gs:2" x="74" y="301">②</text><path class="g2 aligned" style="--gs:2" d="M74,301 Q129,311 171,303 Q423,255 465,247"/><path class="g2 offset" style="--gs:2" d="M74,397 Q129,407 171,399 Q423,351 465,343"/><text class="g3" style="--gs:3" x="216" y="416">③</text><path class="g3 aligned" style="--gs:3" d="M216,416 L390,384"/><path class="g3 offset" style="--gs:3" d="M216,512 L390,480"/><text class="g4" style="--gs:4" x="215" y="519">④</text><path class="g4 aligned" style="--gs:4" d="M215,519 L389,496"/><path class="g4 offset" style="--gs:4" d="M215,615 L389,592"/><text class="g5" style="--gs:5" x="162" y="641">⑤</text><path class="g5 aligned" style="--gs:5" d="M162,641 Q202,682 206.88,703.25 Q236.13,830.75 241,852"/><path class="g5 offset" style="--gs:5" d="M247.68,572.46 Q287.68,613.46 292.56,634.71 Q321.81,762.21 326.68,783.46"/><text class="g6" style="--gs:6" x="218" y="642">⑥</text><path class="g6 aligned" style="--gs:6" d="M218,642 Q353,610 367.5,617.5 Q382,625 387.5,636 Q393,647 372.5,690.5 Q372.5,690.5 352,734"/><path class="g6 offset" style="--gs:6" d="M218,738 Q285.5,706 292.75,713.5 Q300,721 302.75,722.75 Q305.5,724.5 295.25,746.25 Q295.25,746.25 285,768"/><text class="g7" style="--gs:7" x="255" y="794">⑦</text><path class="g7 aligned" style="--gs:7" d="M255,794 Q345,755 352.63,755.25 Q398.38,756.75 406,757"/><path class="g7 offset" style="--gs:7" d="M255,890 Q345,851 352.63,851.25 Q398.38,852.75 406,853"/><text class="g8" style="--gs:8" x="522" y="276">⑧</text><path class="g8 aligned" style="--gs:8" d="M522,276 L808,232"/><path class="g8 offset" style="--gs:8" d="M522,372 L808,328"/><text class="g9" style="--gs:9" x="617" y="38">⑨</text><path class="g9 aligned" style="--gs:9" d="M617,38 Q673,89 670.63,125.13 Q656.38,341.88 654,378"/><path class="g9 offset" style="--gs:9" d="M521,38 Q577,89 574.63,125.13 Q560.38,341.88 558,378"/><text class="g10" style="--gs:10" x="424" y="429">⑩</text><path class="g10 aligned" style="--gs:10" d="M424,429 Q871,359 883.63,360.5 Q959.38,369.5 972,371"/><path class="g10 offset" style="--gs:10" d="M424,525 Q871,455 883.63,456.5 Q959.38,465.5 972,467"/><text class="g11" style="--gs:11" x="472" y="570">⑪</text><path class="g11 aligned" style="--gs:11" d="M472,570 Q801,518 815,518.75 Q899,523.25 913,524"/><path class="g11 offset" style="--gs:11" d="M472,666 Q801,614 815,614.75 Q899,619.25 913,620"/><text class="g12" style="--gs:12" x="674" y="419">⑫</text><path class="g12 aligned" style="--gs:12" d="M674,419 Q727,476 727.5,662 Q728,848 712,888.5 Q696,929 652.5,894 Q652.5,894 609,859"/><path class="g12 offset" style="--gs:12" d="M578,419 Q604.5,465.27 604.75,616.26 Q605,767.25 597,800.12 Q589,833 567.25,804.59 Q567.25,804.59 545.5,776.18"/><text class="g13" style="--gs:13" x="507" y="636">⑬</text><path class="g13 aligned" style="--gs:13" d="M507,636 L583,742"/><path class="g13 offset" style="--gs:13" d="M592.68,567.46 L668.68,673.46"/></g>
<g class="parts"><rect data-part="2" data-literal="寺" role="button" tabindex="0" aria-label="Part 寺" x="352" y="0" width="672" height="1001"/><rect data-part="1" data-literal="言" data-radical="true" role="button" tabindex="0" aria-label="Part 言 (radical)" x="2" y="0" width="535" height="924"/></g>
</svg>
