<!--
  Stroke-order data for 誇, derived from AnimCJK (https://github.com/parsimonhi/animCJK),
  itself derived from the Arphic PL KaitiM fonts. Distributed under the Arphic Public License
  (see ARPHICPL.TXT). Regenerated by scripts/build-strokes.ts — do not edit by hand.
-->
<svg id="z35463" class="acjk" viewBox="0 0 1024 1024" xmlns="http://www.w3.org/2000/svg">
<g class="glyph"><path id="z35463d1" d="M277 116Q308 141 341 174Q356 187 372 186Q384 185 389 171Q393 156 384 125Q377 103 343 87Q265 57 248 65Q242 69 244 83Q248 93 277 116Z"/><path id="z35463d2" d="M59 319Q46 322 43 330Q40 340 57 352Q100 379 141 361Q249 316 374 291Q390 287 391 280Q391 267 372 258Q344 248 320 255Q140 306 59 319Z"/><path id="z35463d3" d="M201 416Q170 429 196 439Q241 451 285 428Q313 418 342 405Q355 399 357 397Q363 388 357 382Q348 372 321 372Q300 372 239 404Q221 411 201 416Z"/><path id="z35463d4" d="M185 520Q154 533 180 543Q225 555 269 532Q300 519 332 506Q347 500 349 497Q355 488 349 482Q340 472 313 472Q286 472 229 505Q208 512 185 520Z"/><path id="z35463d5" d="M170 624Q158 620 128 617Q116 616 113 620Q107 627 117 642Q145 688 167 764Q171 788 187 802Q206 821 210 806Q214 793 211 770C206 750 206 750 204 740Q188 667 185 648C183 639 179 626 170 624Z"/><path id="z35463d6" d="M332 717Q350 653 370 635Q389 610 368 598Q350 588 325 573Q303 560 268 589Q199 616 170 624C161 627 176 650 185 648Q195 647 205 643Q242 631 273 622Q295 616 300 624Q303 627 284 714C281 730 329 733 332 717Z"/><path id="z35463d7" d="M211 770Q221 771 233 767Q267 757 344 745Q353 744 354 735Q354 728 332 717C318 709 300 711 284 714Q281 714 280 715Q237 731 204 740C194 743 201 770 211 770Z"/><path id="z35463d8" d="M642 246Q793 197 797 194Q804 187 800 179Q793 169 765 164Q737 160 711 173Q653 198 589 220Q588 220 587 221C548 232 548 232 528 238Q482 248 434 257Q401 264 426 279Q462 297 510 284C549 273 549 273 568 267Q592 260 617 253C634 248 634 248 642 246Z"/><path id="z35463d9" d="M587 221Q605 175 626 116Q632 98 637 91Q644 84 640 74Q628 49 585 45Q563 44 553 48Q544 52 550 63Q571 120 528 238C516 269 516 269 510 284Q474 368 359 528Q352 535 363 535Q414 520 514 373Q551 304 568 267C581 236 581 236 587 221Z"/><path id="z35463d10" d="M617 253Q755 436 815 450Q821 450 829 451Q896 455 968 441Q987 440 988 434Q989 427 975 422Q813 365 793 353Q747 329 642 246C636 240 612 246 617 253Z"/><path id="z35463d11" d="M519 412Q486 424 513 435Q555 450 602 430Q635 418 670 406Q685 400 687 398Q694 389 689 382Q680 372 653 370Q638 370 567 399Q543 406 519 412Z"/><path id="z35463d12" d="M553 550Q601 529 768 510Q784 507 787 500Q790 490 775 480Q723 453 672 475Q525 521 412 552Q396 556 409 569Q422 578 438 581Q444 581 512 561C539 554 539 554 553 550Z"/><path id="z35463d13" d="M512 561Q519 576 510 603Q494 639 462 661Q444 674 447 687Q448 702 464 717Q476 727 490 720Q530 689 605 662Q648 646 671 658Q693 671 690 706Q683 782 645 842Q629 866 615 871Q596 875 532 855Q516 846 514 854Q514 860 525 872Q561 912 583 949Q593 962 603 961Q619 962 639 950Q708 887 743 728Q747 692 760 676Q770 666 761 651Q700 594 640 624Q604 636 553 651Q537 654 545 638Q567 602 577 595Q590 582 580 567Q570 557 553 550C540 545 507 548 512 561Z"/></g>
<defs><clipPath id="z35463c1"><use href="#z35463d1"/></clipPath>
	<clipPath id="z35463c2"><use href="#z35463d2"/></clipPath>
	<clipPath id="z35463c3"><use href="#z35463d3"/></clipPath>
	<clipPath id="z35463c4"><use href="#z35463d4"/></clipPath>
	<clipPath id="z35463c5"><use href="#z35463d5"/></clipPath>
	<clipPath id="z35463c6"><use href="#z35463d6"/></clipPath>
	<clipPath id="z35463c7"><use href="#z35463d7"/></clipPath>
	<clipPath id="z35463c8"><use href="#z35463d8"/></clipPath>
	<clipPath id="z35463c9"><use href="#z35463d9"/></clipPath>
	<clipPath id="z35463c10"><use href="#z35463d10"/></clipPath>
	<clipPath id="z35463c11"><use href="#z35463d11"/></clipPath>
	<clipPath id="z35463c12"><use href="#z35463d12"/></clipPath>
	<clipPath id="z35463c13"><use href="#z35463d13"/></clipPath><marker id="guide-arrow" viewBox="0 0 16 16" refX="5" refY="5" markerWidth="4" markerHeight="4" orient="auto-start-reverse"><path d="M 0 0 L 10 5 L 0 10 z" fill="inherit"/></marker></defs>
<g class="strokes"><path pathLength="3333" clip-path="url(#z35463c1)" d="M248 74L334 119L380 178"/><path pathLength="3333" clip-path="url(#z35463c2)" d="M47 331L107 339L386 276"/><path pathLength="3333" clip-path="url(#z35463c3)" d="M189 429L355 389"/><path pathLength="3333" clip-path="url(#z35463c4)" d="M173 533L347 486"/><path pathLength="3333" clip-path="url(#z35463c5)" d="M118 624L159 661L198 805"/><path pathLength="3333" clip-path="url(#z35463c6)" d="M177 627L303 595L328 607L339 626L304 714"/><path pathLength="3333" clip-path="url(#z35463c7)" d="M210 744L347 735"/><path pathLength="3333" clip-path="url(#z35463c8)" d="M426 269L793 184"/><path pathLength="3333" clip-path="url(#z35463c9)" d="M553 54L598 87L553 240L481 384L365 527"/><path pathLength="3333" clip-path="url(#z35463c10)" d="M625 255L817 408L980 432"/><path pathLength="3333" clip-path="url(#z35463c11)" d="M507 425L684 389"/><path pathLength="3333" clip-path="url(#z35463c12)" d="M409 558L691 494L783 495"/><path pathLength="3333" clip-path="url(#z35463c13)" d="M520 567L545 597L500 662L512 686L653 635L726 671L687 822L631 907L601 916L521 857"/></g>
<g class="guides"><text class="g1" style="--gs:1" x="248" y="74">①</text><path class="g1 aligned" style="--gs:1" d="M248,74 Q334,119 339.75,126.38 Q374.25,170.63 380,178"/><path class="g1 offset" style="--gs:1" d="M333.68,5.46 Q419.68,50.46 425.43,57.83 Q459.93,102.08 465.68,109.46"/><text class="g2" style="--gs:2" x="47" y="331">②</text><path class="g2 aligned" style="--gs:2" d="M47,331 Q107,339 141.88,331.13 Q351.13,283.88 386,276"/><path class="g2 offset" style="--gs:2" d="M47,427 Q107,435 141.88,427.13 Q351.13,379.88 386,372"/><text class="g3" style="--gs:3" x="189" y="429">③</text><path class="g3 aligned" style="--gs:3" d="M189,429 L355,389"/><path class="g3 offset" style="--gs:3" d="M189,525 L355,485"/><text class="g4" style="--gs:4" x="173" y="533">④</text><path class="g4 aligned" style="--gs:4" d="M173,533 L347,486"/><path class="g4 offset" style="--gs:4" d="M173,629 L347,582"/><text class="g5" style="--gs:5" x="118" y="624">⑤</text><path class="g5 aligned" style="--gs:5" d="M118,624 Q159,661 163.88,679 Q193.13,787 198,805"/><path class="g5 offset" style="--gs:5" d="M203.68,555.46 Q244.68,592.46 249.56,610.46 Q278.81,718.46 283.68,736.46"/><text class="g6" style="--gs:6" x="177" y="627">⑥</text><path class="g6 aligned" style="--gs:6" d="M177,627 Q303,595 315.5,601 Q328,607 333.5,616.5 Q339,626 321.5,670 Q321.5,670 304,714"/><path class="g6 offset" style="--gs:6" d="M177,723 Q240,691 246.25,697 Q252.5,703 255.25,712.5 Q258,722 249.25,736.25 Q249.25,736.25 240.5,750.5"/><text class="g7" style="--gs:7" x="210" y="744">⑦</text><path class="g7 aligned" style="--gs:7" d="M210,744 L347,735"/><path class="g7 offset" style="--gs:7" d="M210,840 L347,831"/><text class="g8" style="--gs:8" x="426" y="269">⑧</text><path class="g8 aligned" style="--gs:8" d="M426,269 L793,184"/><path class="g8 offset" style="--gs:8" d="M426,365 L793,280"/><text class="g9" style="--gs:9" x="553" y="54">⑨</text><path class="g9 aligned" style="--gs:9" d="M553,54 Q598,87 575.5,163.5 Q553,240 517,312 Q481,384 423,455.5 Q423,455.5 365,527"/><path class="g9 offset" style="--gs:9" d="M457,54 Q483.46,80.3 470.23,141.28 Q457,202.25 435.83,259.64 Q414.67,317.02 380.56,374.01 Q380.56,374.01 346.46,431"/><text class="g10" style="--gs:10" x="625" y="255">⑩</text><path class="g10 aligned" style="--gs:10" d="M625,255 Q817,408 837.38,411 Q959.63,429 980,432"/><path class="g10 offset" style="--gs:10" d="M710.68,186.46 Q856.34,315.72 871.8,318.26 Q964.54,333.47 980,336"/><text class="g11" style="--gs:11" x="507" y="425">⑪</text><path class="g11 aligned" style="--gs:11" d="M507,425 L684,389"/><path class="g11 offset" style="--gs:11" d="M507,521 L684,485"/><text class="g12" style="--gs:12" x="409" y="558">⑫</text><path class="g12 aligned" style="--gs:12" d="M409,558 Q691,494 702.5,494.13 Q771.5,494.88 783,495"/><path class="g12 offset" style="--gs:12" d="M409,654 Q691,590 702.5,590.13 Q771.5,590.88 783,591"/><text class="g13" style="--gs:13" x="520" y="567">⑬</text><path class="g13 aligned" style="--gs:13" d="M533,582 Q500,662 506,674 Q512,686 582.5,660.5 Q653,635 689.5,653 Q726,671 706.5,746.5 Q687,822 659,864.5 Q631,907 616,911.5 Q601,916 561,886.5 Q561,886.5 521,857"/><path class="g13 offset" style="--gs:13" d="M437,582 Q420.5,639.01 423.5,647.56 Q426.5,656.11 461.75,637.94 Q497,619.77 515.25,632.59 Q533.5,645.42 523.75,699.22 Q514,753.02 500,783.3 Q486,813.59 478.5,816.79 Q471,820 451,798.98 Q451,798.98 431,777.96"/></g>
</svg>
