<!--
  Stroke-order data for 誌, derived from AnimCJK (https://github.com/parsimonhi/animCJK),
  itself derived from the Arphic PL KaitiM fonts. Distributed under the Arphic Public License
  (see ARPHICPL.TXT). Regenerated by scripts/build-strokes.ts — do not edit by hand.
-->
<svg id="z35468" class="acjk" viewBox="0 0 1024 1024" xmlns="http://www.w3.org/2000/svg">
<g class="glyph"><path style="--part:1" id="z35468d1" d="M324 135C341 148 358 165 377 183C387 193 399 197 411 196C419 195 425 190 428 180C431 168 429 150 422 129C414 108 378 92 317 81C304 78 296 78 292 81C287 83 286 90 289 100C291 108 304 119 324 135Z"/><path style="--part:1" id="z35468d2" d="M72 354C63 355 57 357 55 364C52 371 57 380 69 388C96 406 126 411 157 400C245 366 341 339 445 320C457 317 462 314 463 309C463 299 456 291 443 286C422 278 405 276 389 281C239 321 133 345 72 354Z"/><path style="--part:1" id="z35468d3" d="M236 453C213 458 211 468 229 475C252 484 289 480 338 467C354 462 371 456 391 450C401 446 408 443 410 442C415 436 415 430 412 426C407 419 395 414 377 413C366 412 335 422 285 441C270 446 253 448 236 453Z"/><path style="--part:1" id="z35468d4" d="M231 557C210 563 207 571 225 579C252 590 282 587 314 575C337 565 362 559 388 551C399 547 405 543 407 542C412 536 411 530 408 526C403 519 391 514 373 514C363 513 332 524 281 543C266 548 249 551 231 557Z"/><path style="--part:1" id="z35468d5" d="M202 688C193 685 180 683 164 680C155 678 151 679 149 683C145 687 146 694 152 705C170 739 187 786 199 845C202 862 208 877 219 889C231 903 239 905 243 894C245 883 247 868 244 850C240 828 240 828 238 817C228 764 221 730 220 714C218 704 212 690 202 688Z"/><path style="--part:1" id="z35468d6" d="M372 795C382 748 395 718 409 704C424 686 423 673 408 665C395 658 379 648 361 638C348 630 335 631 324 640C297 657 257 674 202 688C192 690 210 718 220 714C250 704 277 696 302 690C318 685 327 687 333 693C336 696 337 707 334 728C330 746 327 767 323 789C320 805 369 811 372 795Z"/><path style="--part:1" id="z35468d7" d="M244 850Q289 835 379 821Q389 820 390 811Q389 804 372 795C358 787 339 786 323 789Q319 789 316 791Q271 807 238 817C228 821 234 854 244 850Z"/><path style="--part:2" id="z35468d8" d="M685 360C787 331 839 313 841 311C847 304 847 298 844 293C837 284 824 277 804 275C782 271 760 276 740 285C723 292 706 299 687 306C652 317 652 317 634 323C574 342 545 345 496 355C469 360 466 371 486 381C519 396 568 391 634 374C668 365 668 365 685 360Z"/><path style="--part:2" id="z35468d9" d="M680 472C680 433 683 396 685 360C686 324 686 324 687 306C690 222 693 149 708 90C709 81 705 71 689 62C663 47 640 41 623 38C611 35 601 37 596 44C591 49 590 59 597 69C613 94 622 114 625 131C633 180 634 225 634 323C634 357 634 357 634 374C634 410 633 447 633 486C633 502 680 488 680 472Z"/><path style="--part:2" id="z35468d10" d="M633 486C615 491 598 495 582 498C563 501 543 505 522 510C502 514 500 521 517 532C539 546 564 551 592 544C624 535 695 515 808 493C814 491 823 490 827 480C829 471 818 466 803 459C779 447 742 448 688 469C685 470 682 471 680 472C649 481 649 481 633 486Z"/><path style="--part:2" id="z35468d11" d="M453 685C444 722 435 759 421 795C411 818 416 839 431 858C438 868 448 869 459 858C488 827 494 785 488 735C485 713 484 694 476 681C472 675 467 673 464 674C459 675 454 679 453 685Z"/><path style="--part:2" id="z35468d12" d="M527 710C533 720 546 739 560 769C589 830 635 870 702 886C704 886 707 887 712 888C809 903 888 885 948 837C956 830 961 824 959 818C955 809 944 800 929 790C904 774 858 737 791 680C786 675 781 673 777 674C774 674 774 677 777 683C792 713 809 745 825 779C831 793 831 805 823 815C813 825 778 827 722 825C662 822 614 791 581 729C568 705 556 691 544 687C532 683 524 684 521 689C518 692 520 698 527 710Z"/><path style="--part:2" id="z35468d13" d="M625 638C639 647 653 659 668 671C678 679 688 681 699 680C705 678 710 674 713 664C715 653 711 638 703 620C698 610 687 601 669 598C622 588 596 588 592 593C589 595 587 601 590 610C592 617 606 625 625 638Z"/><path style="--part:2" id="z35468d14" d="M855 602C879 618 903 637 929 658C939 666 951 670 964 669C972 668 977 662 980 652C982 640 979 623 971 601C962 579 920 559 845 547C832 544 823 546 820 549C815 551 813 558 817 568C819 577 833 587 855 602Z"/></g>
<defs><clipPath id="z35468c1"><use href="#z35468d1"/></clipPath>
	<clipPath id="z35468c2"><use href="#z35468d2"/></clipPath>
	<clipPath id="z35468c3"><use href="#z35468d3"/></clipPath>
	<clipPath id="z35468c4"><use href="#z35468d4"/></clipPath>
	<clipPath id="z35468c5"><use href="#z35468d5"/></clipPath>
	<clipPath id="z35468c6"><use href="#z35468d6"/></clipPath>
	<clipPath id="z35468c7"><use href="#z35468d7"/></clipPath>
	<clipPath id="z35468c8"><use href="#z35468d8"/></clipPath>
	<clipPath id="z35468c9"><use href="#z35468d9"/></clipPath>
	<clipPath id="z35468c10"><use href="#z35468d10"/></clipPath>
	<clipPath id="z35468c11"><use href="#z35468d11"/></clipPath>
	<clipPath id="z35468c12"><use href="#z35468d12"/></clipPath>
	<clipPath id="z35468c13"><use href="#z35468d13"/></clipPath>
	<clipPath id="z35468c14"><use href="#z35468d14"/></clipPath><marker id="guide-arrow" viewBox="0 0 16 16" refX="5" refY="5" markerWidth="4" markerHeight="4" orient="auto-start-reverse"><path d="M 0 0 L 10 5 L 0 10 z" fill="inherit"/></marker></defs>
<g class="strokes"><path style="--part:1" pathLength="3333" clip-path="url(#z35468c1)" d="M297 90L385 140L419 188"/><path style="--part:1" pathLength="3333" clip-path="url(#z35468c2)" d="M60 365L134 374L459 304"/><path style="--part:1" pathLength="3333" clip-path="url(#z35468c3)" d="M224 464L407 432"/><path style="--part:1" pathLength="3333" clip-path="url(#z35468c4)" d="M219 568L406 535"/><path style="--part:1" pathLength="3333" clip-path="url(#z35468c5)" d="M155 685L194 729L229 894"/><path style="--part:1" pathLength="3333" clip-path="url(#z35468c6)" d="M212 692L334 661L365 677L378 694L340 791"/><path style="--part:1" pathLength="3333" clip-path="url(#z35468c7)" d="M249 842L320 810L384 810"/><path style="--part:2" pathLength="3333" clip-path="url(#z35468c8)" d="M479 366L564 367L839 298"/><path style="--part:2" pathLength="3333" clip-path="url(#z35468c9)" d="M601 49L665 102L642 481"/><path style="--part:2" pathLength="3333" clip-path="url(#z35468c10)" d="M513 517L821 477"/><path style="--part:2" pathLength="3333" clip-path="url(#z35468c11)" d="M466 680L435 860"/><path style="--part:2" pathLength="3333" clip-path="url(#z35468c12)" d="M527 693L631 824L780 859L848 847L905 814L783 681"/><path style="--part:2" pathLength="3333" clip-path="url(#z35468c13)" d="M596 597L707 669"/><path style="--part:2" pathLength="3333" clip-path="url(#z35468c14)" d="M824 558L975 656"/></g>
<g class="guides"><text class="g1" style="--gs:1" x="297" y="90">①</text><path class="g1 aligned" style="--gs:1" d="M297,90 Q385,140 389.25,146 Q414.75,182 419,188"/><path class="g1 offset" style="--gs:1" d="M382.68,21.46 Q470.68,71.46 474.93,77.46 Q500.43,113.46 504.68,119.46"/><text class="g2" style="--gs:2" x="60" y="365">②</text><path class="g2 aligned" style="--gs:2" d="M60,365 Q134,374 174.63,365.25 Q418.38,312.75 459,304"/><path class="g2 offset" style="--gs:2" d="M60,461 Q134,470 174.63,461.25 Q418.38,408.75 459,400"/><text class="g3" style="--gs:3" x="224" y="464">③</text><path class="g3 aligned" style="--gs:3" d="M224,464 L407,432"/><path class="g3 offset" style="--gs:3" d="M224,560 L407,528"/><text class="g4" style="--gs:4" x="219" y="568">④</text><path class="g4 aligned" style="--gs:4" d="M219,568 L406,535"/><path class="g4 offset" style="--gs:4" d="M219,664 L406,631"/><text class="g5" style="--gs:5" x="155" y="685">⑤</text><path class="g5 aligned" style="--gs:5" d="M155,685 Q194,729 198.38,749.63 Q224.63,873.38 229,894"/><path class="g5 offset" style="--gs:5" d="M240.68,616.46 Q279.68,660.46 284.06,681.08 Q310.31,804.83 314.68,825.46"/><text class="g6" style="--gs:6" x="212" y="692">⑥</text><path class="g6 aligned" style="--gs:6" d="M212,692 Q334,661 349.5,669 Q365,677 371.5,685.5 Q378,694 359,742.5 Q359,742.5 340,791"/><path class="g6 offset" style="--gs:6" d="M212,788 Q273,757 280.75,765 Q288.5,773 291.75,773.25 Q295,773.5 285.5,797.75 Q285.5,797.75 276,822"/><text class="g7" style="--gs:7" x="249" y="842">⑦</text><path class="g7 aligned" style="--gs:7" d="M249,842 Q320,810 328,810 Q376,810 384,810"/><path class="g7 offset" style="--gs:7" d="M249,938 Q320,906 328,906 Q376,906 384,906"/><text class="g8" style="--gs:8" x="479" y="366">⑧</text><path class="g8 aligned" style="--gs:8" d="M479,366 Q564,367 598.38,358.38 Q804.63,306.63 839,298"/><path class="g8 offset" style="--gs:8" d="M479,462 Q564,463 598.38,454.38 Q804.63,402.63 839,394"/><text class="g9" style="--gs:9" x="601" y="49">⑨</text><path class="g9 aligned" style="--gs:9" d="M601,49 Q665,102 662.13,149.38 Q644.88,433.63 642,481"/><path class="g9 offset" style="--gs:9" d="M505,49 Q569,102 566.13,149.38 Q548.88,433.63 546,481"/><text class="g10" style="--gs:10" x="513" y="517">⑩</text><path class="g10 aligned" style="--gs:10" d="M513,517 L821,477"/><path class="g10 offset" style="--gs:10" d="M513,613 L821,573"/><text class="g11" style="--gs:11" x="466" y="680">⑪</text><path class="g11 aligned" style="--gs:11" d="M466,680 L435,860"/><path class="g11 offset" style="--gs:11" d="M586,680 L555,860"/><text class="g12" style="--gs:12" x="527" y="693">⑫</text><path class="g12 aligned" style="--gs:12" d="M527,693 Q631,824 705.5,841.5 Q780,859 814,853 Q848,847 876.5,830.5 Q905,814 844,747.5 Q844,747.5 783,681"/><path class="g12 offset" style="--gs:12" d="M458.46,761.54 Q667.31,892.54 816.91,910.04 Q966.52,927.54 1034.8,921.54 Q1103.08,915.54 1160.31,899.04 Q1217.54,882.54 1095.05,816.04 Q1095.05,816.04 972.55,749.54"/><text class="g13" style="--gs:13" x="596" y="597">⑬</text><path class="g13 aligned" style="--gs:13" d="M596,597 L707,669"/><path class="g13 offset" style="--gs:13" d="M681.68,528.46 L792.68,600.46"/><text class="g14" style="--gs:14" x="824" y="558">⑭</text><path class="g14 aligned" style="--gs:14" d="M824,558 L975,656"/><path class="g14 offset" style="--gs:14" d="M909.68,489.46 L1060.68,587.46"/></g>
<g class="parts"><rect data-part="2" data-literal="志" role="button" tabindex="0" aria-label="Part 志" x="363" y="0" width="661" height="932"/><rect data-part="1" data-literal="言" data-radical="true" role="button" tabindex="0" aria-label="Part 言 (radical)" x="0" y="18" width="531" height="948"/></g>
</svg>
