<svg id="z35513" class="acjk" viewBox="0 0 1024 1024" xmlns="http://www.w3.org/2000/svg">
<style>

@keyframes zk {
	to {
		stroke-dashoffset:0;
	}
}
svg.acjk path[clip-path] {
	--t:0.8s;
	animation:zk var(--t) linear forwards var(--d);
	stroke-dasharray:3337;
	stroke-dashoffset:3339;
	stroke-width:128;
	stroke-linecap:round;
	fill:none;
	stroke:#000;
}
svg.acjk path[id] {fill:#ccc;}


    @keyframes guide-fade {
        0% { opacity: 0; }
        3% { opacity: 1; }
        95% { opacity: 1; }
        100% { opacity: 0; }
    }

    svg.acjk #guide-arrow {
        fill: #f77;
    }

    svg.acjk .guides {
        circle {
            fill: #0f6;
        }

        path {
            opacity: 0;
            animation: guide-fade var(--t) linear forwards var(--d);
            stroke-width: 16px;
            stroke-linecap: round;
            stroke: #f77;
            fill: none;
            marker-end: url(#guide-arrow);
        }

        circle,
        path {
            --t: 0.8s;
            opacity: 0;
            animation: guide-fade calc(var(--t) + 0.4s) ease-in-out forwards calc(var(--d) - 0.2s);
        }
    }
</style>
<path id="z35513d1" d="M280 141C298 154 315 171 335 188C345 197 356 200 368 200C376 199 381 194 384 184C386 173 384 156 377 135C369 114 334 99 272 88C260 85 252 86 248 89C244 91 242 97 245 107C247 115 259 126 280 141Z"/>
<path id="z35513d2" d="M52 344C43 345 37 347 36 354C33 360 37 368 49 376C76 394 105 397 133 387C221 353 313 328 409 311C421 308 427 304 427 300C427 291 420 283 408 278C389 270 371 269 356 274C215 311 114 335 52 344Z"/>
<path id="z35513d3" d="M184 441C163 445 160 456 177 463C204 473 238 470 276 459C296 453 317 448 339 442C349 438 356 435 358 434C363 428 363 422 360 418C355 411 343 407 325 405C308 403 279 412 236 429C220 435 202 436 184 441Z"/>
<path id="z35513d4" d="M187 543C166 548 164 556 181 564C206 574 234 572 265 562C289 553 315 545 342 537C354 533 360 529 362 528C366 523 367 518 364 514C359 507 348 502 331 501C314 499 285 511 242 529C224 535 205 537 187 543Z"/>
<path id="z35513d5" d="M176 655C161 650 149 644 133 644C113 643 114 653 121 667C139 703 154 751 165 812C168 830 174 845 185 857C196 870 202 872 206 863C209 852 212 838 209 822C205 801 205 801 203 790C192 736 187 700 186 683C186 673 185 659 176 655Z"/>
<path id="z35513d6" d="M336 769C346 721 359 690 373 676C388 659 387 645 372 636C359 628 343 619 325 609C310 600 292 610 264 626C233 642 202 647 176 655C166 657 178 688 186 683C188 679 215 673 267 661C302 652 302 678 298 700C294 720 290 741 286 764C283 781 333 785 336 769Z"/>
<path id="z35513d7" d="M209 822C224 823 306 804 346 799C372 791 355 779 336 769C322 760 302 761 286 764C272 766 228 782 203 790C193 794 198 822 209 822Z"/>
<path id="z35513d8" d="M548 662C533 753 466 836 410 889C378 917 433 907 455 891C559 813 595 709 601 600C611 400 613 297 615 292C616 288 618 277 626 260C629 251 629 242 621 236C606 224 586 215 561 210C545 206 534 207 529 212C522 216 522 222 528 230C544 252 555 292 559 349C560 372 560 372 561 384C562 413 562 444 562 474C562 498 562 498 562 510C562 547 560 585 555 619C550 648 550 648 548 662Z"/>
<path id="z35513d9" d="M559 349C537 344 483 364 474 367C461 370 447 371 433 375C412 379 409 387 426 396C447 406 482 404 530 391C539 388 550 386 561 384C572 382 570 351 559 349Z"/>
<path id="z35513d10" d="M562 474C539 468 493 491 480 497C464 502 447 504 431 509C412 514 410 521 425 528C444 536 477 534 522 521C532 517 546 513 562 510C574 508 574 476 562 474Z"/>
<path id="z35513d11" d="M555 619C468 651 415 668 397 671C390 672 385 676 385 683C383 690 386 697 393 701C406 709 423 718 444 726C450 728 457 725 463 720C481 702 509 682 548 662C560 655 568 614 555 619Z"/>
<path id="z35513d12" d="M755 610C755 571 754 528 753 481C752 462 752 462 752 453C750 417 752 378 751 339C750 318 750 318 750 308C748 273 752 191 766 150C769 138 775 128 771 120C767 112 744 99 705 76C687 65 672 64 659 76C654 79 654 87 661 97C682 130 696 162 698 196C714 500 712 699 692 793C690 799 688 805 687 813C679 841 686 876 706 918C711 929 716 935 721 939C726 942 729 942 735 938C752 924 763 896 761 852C759 831 755 761 755 643C755 621 755 621 755 610Z"/>
<path id="z35513d13" d="M751 339C771 341 823 327 871 314C890 308 906 305 911 299C915 292 916 287 913 283C907 276 894 271 875 270C862 269 833 280 786 298C774 302 762 304 750 308C740 312 741 339 751 339Z"/>
<path id="z35513d14" d="M753 481C786 483 880 468 904 458C922 449 915 433 877 428C849 424 829 439 752 453C743 455 744 481 753 481Z"/>
<path id="z35513d15" d="M755 643C781 647 831 642 905 631C929 626 943 623 947 621C952 616 954 610 951 604C946 595 934 589 914 585C893 580 873 583 852 591C819 602 786 606 755 610C744 612 744 641 755 643Z"/>
<defs>
	<clipPath id="z35513c1"><use href="#z35513d1"/></clipPath>
	<clipPath id="z35513c2"><use href="#z35513d2"/></clipPath>
	<clipPath id="z35513c3"><use href="#z35513d3"/></clipPath>
	<clipPath id="z35513c4"><use href="#z35513d4"/></clipPath>
	<clipPath id="z35513c5"><use href="#z35513d5"/></clipPath>
	<clipPath id="z35513c6"><use href="#z35513d6"/></clipPath>
	<clipPath id="z35513c7"><use href="#z35513d7"/></clipPath>
	<clipPath id="z35513c8"><use href="#z35513d8"/></clipPath>
	<clipPath id="z35513c9"><use href="#z35513d9"/></clipPath>
	<clipPath id="z35513c10"><use href="#z35513d10"/></clipPath>
	<clipPath id="z35513c11"><use href="#z35513d11"/></clipPath>
	<clipPath id="z35513c12"><use href="#z35513d12"/></clipPath>
	<clipPath id="z35513c13"><use href="#z35513d13"/></clipPath>
	<clipPath id="z35513c14"><use href="#z35513d14"/></clipPath>
	<clipPath id="z35513c15"><use href="#z35513d15"/></clipPath>
<marker id="guide-arrow" viewBox="0 0 16 16" refX="5" refY="5" markerWidth="4" markerHeight="4" orient="auto-start-reverse"><path d="M 0 0 L 10 5 L 0 10 z" fill="inherit"/></marker></defs>
<path style="--d:1s;" pathLength="3333" clip-path="url(#z35513c1)" d="M248 97L341 146L373 194"/>
<path style="--d:2s;" pathLength="3333" clip-path="url(#z35513c2)" d="M38 355L103 364L423 293"/>
<path style="--d:3s;" pathLength="3333" clip-path="url(#z35513c3)" d="M173 449L356 419"/>
<path style="--d:4s;" pathLength="3333" clip-path="url(#z35513c4)" d="M178 552L359 518"/>
<path style="--d:5s;" pathLength="3333" clip-path="url(#z35513c5)" d="M125 654L158 679L197 860"/>
<path style="--d:6s;" pathLength="3333" clip-path="url(#z35513c6)" d="M176 664L295 633L330 649L342 667L315 777"/>
<path style="--d:7s;" pathLength="3333" clip-path="url(#z35513c7)" d="M200 804L352 787"/>
<path style="--d:8s;" pathLength="3333" clip-path="url(#z35513c8)" d="M530 217L588 265L569 670L512 803L407 900"/>
<path style="--d:9s;" pathLength="3333" clip-path="url(#z35513c9)" d="M422 384L565 369"/>
<path style="--d:10s;" pathLength="3333" clip-path="url(#z35513c10)" d="M422 520L567 485"/>
<path style="--d:11s;" pathLength="3333" clip-path="url(#z35513c11)" d="M389 683L451 691L555 627"/>
<path style="--d:12s;" pathLength="3333" clip-path="url(#z35513c12)" d="M661 82L731 141L725 937"/>
<path style="--d:13s;" pathLength="3333" clip-path="url(#z35513c13)" d="M747 327L910 287"/>
<path style="--d:14s;" pathLength="3333" clip-path="url(#z35513c14)" d="M751 470L905 449"/>
<path style="--d:15s;" pathLength="3333" clip-path="url(#z35513c15)" d="M749 628L948 610"/>
<g class="guides"><circle style="--d: 1s" class="g1" cx="248" cy="97" r="16"/><path style="--d: 1s;" class="g1" d="M333.68,28.456000000000003 Q426.68,77.456 430.68,83.456 Q454.68,119.456 458.68,125.456"/><circle style="--d: 2s" class="g2" cx="38" cy="355" r="16"/><path style="--d: 2s;" class="g2" d="M38,451 Q103,460 143,451.125 Q383,397.875 423,389"/><circle style="--d: 3s" class="g3" cx="173" cy="449" r="16"/><path style="--d: 3s;" class="g3" d="M173,545 L356,515"/><circle style="--d: 4s" class="g4" cx="178" cy="552" r="16"/><path style="--d: 4s;" class="g4" d="M178,648 L359,614"/><circle style="--d: 5s" class="g5" cx="142" cy="667" r="16"/><path style="--d: 5s;" class="g5" d="M262,667 L317,860"/><circle style="--d: 6s" class="g6" cx="176" cy="664" r="16"/><path style="--d: 6s;" class="g6" d="M176,760 Q235.5,729 244.25,737 Q253,745 256,745.5 Q259,746 252.25,773.5 Q252.25,773.5 245.5,801"/><circle style="--d: 7s" class="g7" cx="200" cy="804" r="16"/><path style="--d: 7s;" class="g7" d="M200,900 L352,883"/><circle style="--d: 8s" class="g8" cx="530" cy="217" r="16"/><path style="--d: 8s;" class="g8" d="M434,217 Q463,258.2532942898975 458.25,432.2906295754026 Q453.5,606.3279648609077 439.25,663.4809663250367 Q425,720.6339677891655 398.75,762.3169838945828 Q398.75,762.3169838945828 372.5,804"/><circle style="--d: 9s" class="g9" cx="422" cy="384" r="16"/><path style="--d: 9s;" class="g9" d="M422,480 L565,465"/><circle style="--d: 10s" class="g10" cx="422" cy="520" r="16"/><path style="--d: 10s;" class="g10" d="M422,616 L567,581"/><circle style="--d: 11s" class="g11" cx="389" cy="683" r="16"/><path style="--d: 11s;" class="g11" d="M389,587 Q451,595 464,587 Q542,539 555,531"/><circle style="--d: 12s" class="g12" cx="661" cy="82" r="16"/><path style="--d: 12s;" class="g12" d="M565,82 Q635,141 634.25,240.5 Q629.75,837.5 629,937"/><circle style="--d: 13s" class="g13" cx="747" cy="327" r="16"/><path style="--d: 13s;" class="g13" d="M747,423 L910,383"/><circle style="--d: 14s" class="g14" cx="751" cy="470" r="16"/><path style="--d: 14s;" class="g14" d="M751,566 L905,545"/><circle style="--d: 15s" class="g15" cx="749" cy="628" r="16"/><path style="--d: 15s;" class="g15" d="M749,724 L948,706"/></g></svg>