<!--
  Stroke-order data for 誼, derived from AnimCJK (https://github.com/parsimonhi/animCJK),
  itself derived from the Arphic PL KaitiM fonts. Distributed under the Arphic Public License
  (see ARPHICPL.TXT). Regenerated by scripts/build-strokes.ts — do not edit by hand.
-->
<svg id="z35516" class="acjk" viewBox="0 0 1024 1024" xmlns="http://www.w3.org/2000/svg">
<g class="glyph"><path id="z35516d1" d="M327 149Q349 170 375 195Q391 208 408 207Q420 206 424 191Q428 175 419 143Q407 113 320 97Q304 93 296 97Q290 101 293 115Q297 128 327 149Z"/><path id="z35516d2" d="M72 340Q59 341 56 350Q53 360 69 372Q106 396 171 376Q267 337 409 311Q427 307 427 300Q427 287 408 278Q380 268 356 274Q167 325 72 340Z"/><path id="z35516d3" d="M219 433Q188 443 213 455Q255 471 302 451Q338 439 376 427Q392 420 395 418Q402 409 396 402Q389 392 361 390Q346 390 269 419Q247 426 219 433Z"/><path id="z35516d4" d="M216 529Q183 539 209 551Q245 563 318 543Q342 536 371 526Q387 520 390 518Q397 509 392 502Q385 492 357 489Q341 489 265 517Q243 524 216 529Z"/><path id="z35516d5" d="M194 643Q184 637 154 631Q142 628 139 633Q132 637 140 654Q165 712 179 805Q180 833 197 853Q213 874 219 859Q226 840 221 798Q220 797 220 796C217 772 217 772 215 760Q205 696 204 672C204 662 203 648 194 643Z"/><path id="z35516d6" d="M362 740Q381 683 402 666Q424 641 402 626Q339 593 338 592Q328 591 318 597Q288 618 194 643C184 645 194 675 204 672Q204 671 294 649Q319 643 326 653Q332 657 325 684Q319 706 312 734C309 751 356 756 362 740Z"/><path id="z35516d7" d="M220 796Q241 784 373 771Q383 770 385 760Q385 753 362 740C348 731 328 731 312 734Q308 734 307 735Q256 751 215 760C203 762 209 800 220 796Z"/><path id="z35516d8" d="M625 109Q653 134 681 164Q696 179 714 179Q726 178 732 163Q738 147 729 112Q717 78 621 54Q603 50 596 53Q590 57 592 72Q596 85 625 109Z"/><path id="z35516d9" d="M513 276Q501 252 483 242Q479 238 474 241Q470 245 469 256Q473 284 448 344Q438 360 440 378Q444 397 453 411Q460 421 466 413Q476 410 491 366Q503 327 515 304C520 296 517 284 513 276Z"/><path id="z35516d10" d="M515 304Q539 314 592 298Q601 294 780 249Q814 242 825 244Q838 248 837 257Q838 264 831 274Q794 349 799 352Q808 356 825 344Q880 307 926 294Q963 284 963 273Q960 263 890 213Q863 191 778 216Q742 220 587 259Q550 269 514 275Q513 275 513 276C504 279 506 301 515 304Z"/><path id="z35516d11" d="M566 438Q551 425 538 420Q526 416 517 420Q508 424 512 435Q528 474 532 571Q532 649 532 816C532 830 574 825 574 811Q575 757 576 708C577 689 577 689 577 680Q578 631 580 587C581 568 581 568 581 558Q581 489 587 470C590 457 576 446 566 438Z"/><path id="z35516d12" d="M794 782Q795 494 820 461Q833 445 819 428Q809 416 755 387Q740 378 664 410Q582 434 566 438C553 440 576 477 587 470Q632 446 713 433Q726 430 732 434Q738 446 736 791C736 811 794 802 794 782Z"/><path id="z35516d13" d="M580 587Q646 575 692 568Q714 564 705 551Q695 538 671 535Q638 532 581 558C572 562 571 589 580 587Z"/><path id="z35516d14" d="M576 708Q579 708 583 708Q647 698 695 693Q717 689 709 676Q699 661 673 657Q624 654 577 680C569 685 567 708 576 708Z"/><path id="z35516d15" d="M532 816Q454 823 373 833Q351 834 367 853Q382 868 400 874Q422 880 439 875Q605 833 932 833Q950 833 969 834Q990 834 995 825Q1001 813 983 799Q923 754 868 769Q834 773 794 782C755 788 755 788 736 791Q699 795 658 801Q618 805 574 811C546 814 546 814 532 816Z"/></g>
<defs><clipPath id="z35516c1"><use href="#z35516d1"/></clipPath>
	<clipPath id="z35516c2"><use href="#z35516d2"/></clipPath>
	<clipPath id="z35516c3"><use href="#z35516d3"/></clipPath>
	<clipPath id="z35516c4"><use href="#z35516d4"/></clipPath>
	<clipPath id="z35516c5"><use href="#z35516d5"/></clipPath>
	<clipPath id="z35516c6"><use href="#z35516d6"/></clipPath>
	<clipPath id="z35516c7"><use href="#z35516d7"/></clipPath>
	<clipPath id="z35516c8"><use href="#z35516d8"/></clipPath>
	<clipPath id="z35516c9"><use href="#z35516d9"/></clipPath>
	<clipPath id="z35516c10"><use href="#z35516d10"/></clipPath>
	<clipPath id="z35516c11"><use href="#z35516d11"/></clipPath>
	<clipPath id="z35516c12"><use href="#z35516d12"/></clipPath>
	<clipPath id="z35516c13"><use href="#z35516d13"/></clipPath>
	<clipPath id="z35516c14"><use href="#z35516d14"/></clipPath>
	<clipPath id="z35516c15"><use href="#z35516d15"/></clipPath><marker id="guide-arrow" viewBox="0 0 16 16" refX="5" refY="5" markerWidth="4" markerHeight="4" orient="auto-start-reverse"><path d="M 0 0 L 10 5 L 0 10 z" fill="inherit"/></marker></defs>
<g class="strokes"><path pathLength="3333" clip-path="url(#z35516c1)" d="M299 106L420 195"/><path pathLength="3333" clip-path="url(#z35516c2)" d="M61 354L132 357L422 295"/><path pathLength="3333" clip-path="url(#z35516c3)" d="M207 444L394 411"/><path pathLength="3333" clip-path="url(#z35516c4)" d="M204 540L387 508"/><path pathLength="3333" clip-path="url(#z35516c5)" d="M143 639L175 669L209 858"/><path pathLength="3333" clip-path="url(#z35516c6)" d="M200 645L323 620L360 638L370 657L324 735"/><path pathLength="3333" clip-path="url(#z35516c7)" d="M223 787L308 756L380 758"/><path pathLength="3333" clip-path="url(#z35516c8)" d="M599 57L724 169"/><path pathLength="3333" clip-path="url(#z35516c9)" d="M477 249L490 296L454 408"/><path pathLength="3333" clip-path="url(#z35516c10)" d="M519 283L854 228L892 264L909 292L807 347"/><path pathLength="3333" clip-path="url(#z35516c11)" d="M516 424L554 476L548 814"/><path pathLength="3333" clip-path="url(#z35516c12)" d="M575 440L732 408L780 449L763 786"/><path pathLength="3333" clip-path="url(#z35516c13)" d="M588 578L701 556"/><path pathLength="3333" clip-path="url(#z35516c14)" d="M584 700L706 677"/><path pathLength="3333" clip-path="url(#z35516c15)" d="M367 841L424 852L886 799L992 814"/></g>
<g class="guides"><text class="g1" style="--gs:1" x="299" y="106">①</text><path class="g1 aligned" style="--gs:1" d="M299,106 L420,195"/><path class="g1 offset" style="--gs:1" d="M384.68,37.46 L505.68,126.46"/><text class="g2" style="--gs:2" x="61" y="354">②</text><path class="g2 aligned" style="--gs:2" d="M61,354 Q132,357 168.25,349.25 Q385.75,302.75 422,295"/><path class="g2 offset" style="--gs:2" d="M61,450 Q132,453 168.25,445.25 Q385.75,398.75 422,391"/><text class="g3" style="--gs:3" x="207" y="444">③</text><path class="g3 aligned" style="--gs:3" d="M207,444 L394,411"/><path class="g3 offset" style="--gs:3" d="M207,540 L394,507"/><text class="g4" style="--gs:4" x="204" y="540">④</text><path class="g4 aligned" style="--gs:4" d="M204,540 L387,508"/><path class="g4 offset" style="--gs:4" d="M204,636 L387,604"/><text class="g5" style="--gs:5" x="143" y="639">⑤</text><path class="g5 aligned" style="--gs:5" d="M143,639 Q175,669 179.25,692.63 Q204.75,834.38 209,858"/><path class="g5 offset" style="--gs:5" d="M228.68,570.46 Q260.68,600.46 264.93,624.08 Q290.43,765.83 294.68,789.46"/><text class="g6" style="--gs:6" x="200" y="645">⑥</text><path class="g6 aligned" style="--gs:6" d="M200,645 Q323,620 341.5,629 Q360,638 365,647.5 Q370,657 347,696 Q347,696 324,735"/><path class="g6 offset" style="--gs:6" d="M200,741 Q261.5,716 270.75,725 Q280,734 282.5,734.25 Q285,734.5 273.5,754 Q273.5,754 262,773.5"/><text class="g7" style="--gs:7" x="223" y="787">⑦</text><path class="g7 aligned" style="--gs:7" d="M223,787 Q308,756 317,756.25 Q371,757.75 380,758"/><path class="g7 offset" style="--gs:7" d="M223,883 Q308,852 317,852.25 Q371,853.75 380,854"/><text class="g8" style="--gs:8" x="599" y="57">⑧</text><path class="g8 aligned" style="--gs:8" d="M599,57 L724,169"/><path class="g8 offset" style="--gs:8" d="M684.68,-11.54 L809.68,100.46"/><text class="g9" style="--gs:9" x="477" y="249">⑨</text><path class="g9 aligned" style="--gs:9" d="M477,249 Q490,296 485.5,310 Q458.5,394 454,408"/><path class="g9 offset" style="--gs:9" d="M597,249 Q610,296 605.5,310 Q578.5,394 574,408"/><text class="g10" style="--gs:10" x="519" y="283">⑩</text><path class="g10 aligned" style="--gs:10" d="M519,283 Q854,228 873,246 Q892,264 900.5,278 Q909,292 858,319.5 Q858,319.5 807,347"/><path class="g10 offset" style="--gs:10" d="M519,379 Q725.15,324 736.85,342 Q748.54,360 753.77,374 Q759,388 727.62,415.5 Q727.62,415.5 696.23,443"/><text class="g11" style="--gs:11" x="516" y="424">⑪</text><path class="g11 aligned" style="--gs:11" d="M516,424 Q554,476 553.25,518.25 Q548.75,771.75 548,814"/><path class="g11 offset" style="--gs:11" d="M420,424 Q458,476 457.25,518.25 Q452.75,771.75 452,814"/><text class="g12" style="--gs:12" x="575" y="440">⑫</text><path class="g12 aligned" style="--gs:12" d="M575,440 Q732,408 744,418.25 Q780,449 775.75,533.25 Q767.25,701.75 763,786"/><path class="g12 offset" style="--gs:12" d="M575,536 Q653.5,504 659.5,511.65 Q677.5,534.59 675.38,597.44 Q671.13,723.15 669,786"/><text class="g13" style="--gs:13" x="588" y="578">⑬</text><path class="g13 aligned" style="--gs:13" d="M588,578 L701,556"/><path class="g13 offset" style="--gs:13" d="M588,674 L701,652"/><text class="g14" style="--gs:14" x="584" y="700">⑭</text><path class="g14 aligned" style="--gs:14" d="M584,700 L706,677"/><path class="g14 offset" style="--gs:14" d="M584,796 L706,773"/><text class="g15" style="--gs:15" x="367" y="841">⑮</text><path class="g15 aligned" style="--gs:15" d="M367,841 Q424,852 539.5,838.75 Q886,799 912.5,802.75 Q965.5,810.25 992,814"/><path class="g15 offset" style="--gs:15" d="M367,937 Q424,948 539.5,934.75 Q886,895 912.5,898.75 Q965.5,906.25 992,910"/></g>
</svg>
