<svg id="z35524" class="acjk" viewBox="0 0 1024 1024" xmlns="http://www.w3.org/2000/svg">
<style>

@keyframes zk {
	to {
		stroke-dashoffset:0;
	}
}
svg.acjk path[clip-path] {
	--t:0.8s;
	animation:zk var(--t) linear forwards var(--d);
	stroke-dasharray:3337;
	stroke-dashoffset:3339;
	stroke-width:128;
	stroke-linecap:round;
	fill:none;
	stroke:#000;
}
svg.acjk path[id] {fill:#ccc;}


    @keyframes guide-fade {
        0% { opacity: 0; }
        3% { opacity: 1; }
        95% { opacity: 1; }
        100% { opacity: 0; }
    }

    svg.acjk #guide-arrow {
        fill: #f77;
    }

    svg.acjk .guides {
        circle {
            fill: #0f6;
        }

        path {
            opacity: 0;
            animation: guide-fade var(--t) linear forwards var(--d);
            stroke-width: 16px;
            stroke-linecap: round;
            stroke: #f77;
            fill: none;
            marker-end: url(#guide-arrow);
        }

        circle,
        path {
            --t: 0.8s;
            opacity: 0;
            animation: guide-fade calc(var(--t) + 0.4s) ease-in-out forwards calc(var(--d) - 0.2s);
        }
    }
</style>
<path id="z35524d1" d="M301 102Q329 127 359 157Q374 170 391 171Q403 170 408 155Q414 139 404 107Q398 85 365 70Q289 43 272 49Q266 53 268 67Q272 80 301 102Z"/>
<path id="z35524d2" d="M45 296Q32 297 29 306Q25 316 41 328Q80 355 125 342Q257 294 420 270Q438 267 438 260Q439 247 420 238Q392 225 369 231Q164 280 45 296Z"/>
<path id="z35524d3" d="M209 385Q176 394 201 407Q240 423 300 405Q328 396 359 389Q375 385 378 382Q385 373 380 366Q373 356 345 352Q332 351 258 375Q234 381 209 385Z"/>
<path id="z35524d4" d="M216 489Q183 499 209 511Q248 523 318 504Q336 498 358 492Q371 488 374 486Q381 477 376 470Q369 460 341 457Q326 457 258 479Q237 485 216 489Z"/>
<path id="z35524d5" d="M179 616Q169 612 145 607Q132 603 129 609Q122 615 131 631Q158 691 173 787Q176 817 192 836Q210 858 215 843Q227 812 215 771C212 749 212 749 210 738Q200 659 199 640Q198 639 199 639C199 629 188 620 179 616Z"/>
<path id="z35524d6" d="M352 714Q365 651 386 631Q407 606 384 593Q365 583 339 567Q317 555 279 583Q233 601 179 616C169 618 190 643 199 639Q200 636 281 616Q305 609 311 619Q318 625 312 657Q308 682 302 711C299 727 349 730 352 714Z"/>
<path id="z35524d7" d="M215 771Q222 771 232 769Q274 759 366 747Q376 746 377 736Q377 729 352 714C339 704 318 705 302 711Q301 711 299 712Q250 728 210 738C199 740 204 771 215 771Z"/>
<path id="z35524d8" d="M634 72Q653 88 676 108Q689 121 706 119Q716 118 721 104Q725 88 713 59Q704 37 626 24Q610 23 604 25Q600 29 601 42Q605 52 634 72Z"/>
<path id="z35524d9" d="M462 195Q443 199 458 213Q488 235 538 220Q638 187 898 164C899 164 899 164 900 164Q918 163 921 155Q925 145 910 133Q858 100 802 119Q708 143 462 195Z"/>
<path id="z35524d10" d="M552 278Q539 274 518 274Q508 273 504 277Q500 284 509 297Q531 328 552 385Q556 401 568 411Q587 429 589 414Q590 408 590 401C587 380 587 380 585 370Q575 322 571 305C569 294 563 280 552 278Z"/>
<path id="z35524d11" d="M763 350Q784 314 805 301Q821 285 808 269Q793 256 748 233Q732 226 713 233Q674 249 637 259Q595 269 552 278C541 280 560 307 571 305Q581 304 594 300Q649 288 704 277Q717 274 723 280Q727 284 727 295Q723 320 715 343C709 358 753 363 763 350Z"/>
<path id="z35524d12" d="M590 401Q596 401 604 400Q656 388 772 380Q782 379 784 371Q784 364 763 350C749 342 731 340 715 343Q714 342 712 343Q642 361 585 370C575 372 580 401 590 401Z"/>
<path id="z35524d13" d="M674 576Q770 504 806 495Q825 489 819 473Q816 457 753 422Q735 412 714 419Q656 441 568 468Q546 475 490 474Q468 474 476 493Q483 506 502 516Q532 532 563 512Q584 505 690 464Q702 458 712 464Q724 470 719 482Q689 519 657 563C653 569 668 580 674 576Z"/>
<path id="z35524d14" d="M698 616Q691 591 674 576C663 567 663 567 657 563Q648 556 635 553Q614 546 604 552Q591 559 605 572Q633 591 646 626C652 649 652 649 655 661Q680 787 648 860Q635 884 603 877Q570 870 540 862Q528 859 533 870Q537 879 557 891Q597 925 611 952Q621 970 637 968Q650 967 678 941Q750 866 710 656Q709 653 709 652C702 628 702 628 698 616Z"/>
<path id="z35524d15" d="M709 652Q791 640 909 637Q967 633 973 626Q977 614 961 602Q906 565 844 583Q784 596 698 616C663 623 663 623 646 626Q546 642 431 662Q412 665 427 681Q440 694 458 698Q479 702 494 697Q569 673 655 661C691 655 691 655 709 652Z"/>
<defs>
	<clipPath id="z35524c1"><use href="#z35524d1"/></clipPath>
	<clipPath id="z35524c2"><use href="#z35524d2"/></clipPath>
	<clipPath id="z35524c3"><use href="#z35524d3"/></clipPath>
	<clipPath id="z35524c4"><use href="#z35524d4"/></clipPath>
	<clipPath id="z35524c5"><use href="#z35524d5"/></clipPath>
	<clipPath id="z35524c6"><use href="#z35524d6"/></clipPath>
	<clipPath id="z35524c7"><use href="#z35524d7"/></clipPath>
	<clipPath id="z35524c8"><use href="#z35524d8"/></clipPath>
	<clipPath id="z35524c9"><use href="#z35524d9"/></clipPath>
	<clipPath id="z35524c10"><use href="#z35524d10"/></clipPath>
	<clipPath id="z35524c11"><use href="#z35524d11"/></clipPath>
	<clipPath id="z35524c12"><use href="#z35524d12"/></clipPath>
	<clipPath id="z35524c13"><use href="#z35524d13"/></clipPath>
	<clipPath id="z35524c14"><use href="#z35524d14"/></clipPath>
	<clipPath id="z35524c15"><use href="#z35524d15"/></clipPath>
<marker id="guide-arrow" viewBox="0 0 16 16" refX="5" refY="5" markerWidth="4" markerHeight="4" orient="auto-start-reverse"><path d="M 0 0 L 10 5 L 0 10 z" fill="inherit"/></marker></defs>
<path style="--d:1s;" pathLength="3333" clip-path="url(#z35524c1)" d="M275 58L404 156"/>
<path style="--d:2s;" pathLength="3333" clip-path="url(#z35524c2)" d="M33 307L94 318L433 256"/>
<path style="--d:3s;" pathLength="3333" clip-path="url(#z35524c3)" d="M198 396L377 373"/>
<path style="--d:4s;" pathLength="3333" clip-path="url(#z35524c4)" d="M204 500L370 472"/>
<path style="--d:5s;" pathLength="3333" clip-path="url(#z35524c5)" d="M134 613L171 652L205 843"/>
<path style="--d:6s;" pathLength="3333" clip-path="url(#z35524c6)" d="M186 616L331 596L355 621L314 710"/>
<path style="--d:7s;" pathLength="3333" clip-path="url(#z35524c7)" d="M223 764L372 733"/>
<path style="--d:8s;" pathLength="3333" clip-path="url(#z35524c8)" d="M609 34L679 69L710 112"/>
<path style="--d:9s;" pathLength="3333" clip-path="url(#z35524c9)" d="M457 201L829 141L917 147"/>
<path style="--d:10s;" pathLength="3333" clip-path="url(#z35524c10)" d="M510 281L547 313L582 413"/>
<path style="--d:11s;" pathLength="3333" clip-path="url(#z35524c11)" d="M560 281L731 254L770 292L728 342"/>
<path style="--d:12s;" pathLength="3333" clip-path="url(#z35524c12)" d="M592 373L778 367"/>
<path style="--d:13s;" pathLength="3333" clip-path="url(#z35524c13)" d="M478 483L533 498L732 443L768 482L665 564"/>
<path style="--d:14s;" pathLength="3333" clip-path="url(#z35524c14)" d="M603 561L672 621L688 843L672 888L628 923L539 869"/>
<path style="--d:15s;" pathLength="3333" clip-path="url(#z35524c15)" d="M428 672L850 610L968 621"/>
<g class="guides"><circle style="--d: 1s" class="g1" cx="275" cy="58" r="16"/><path style="--d: 1s;" class="g1" d="M360.68,-10.543999999999997 L489.68,87.456"/><circle style="--d: 2s" class="g2" cx="33" cy="307" r="16"/><path style="--d: 2s;" class="g2" d="M33,403 Q94,414 136.375,406.25 Q390.625,359.75 433,352"/><circle style="--d: 3s" class="g3" cx="198" cy="396" r="16"/><path style="--d: 3s;" class="g3" d="M198,492 L377,469"/><circle style="--d: 4s" class="g4" cx="204" cy="500" r="16"/><path style="--d: 4s;" class="g4" d="M204,596 L370,568"/><circle style="--d: 5s" class="g5" cx="134" cy="613" r="16"/><path style="--d: 5s;" class="g5" d="M219.68,544.456 Q256.68,583.456 260.93,607.331 Q286.43,750.581 290.68,774.456"/><circle style="--d: 6s" class="g6" cx="186" cy="616" r="16"/><path style="--d: 6s;" class="g6" d="M186,712 Q258.5,692 261.5,695.125 Q270.5,704.5 265.375,715.625 Q255.125,737.875 250,749"/><circle style="--d: 7s" class="g7" cx="223" cy="764" r="16"/><path style="--d: 7s;" class="g7" d="M223,860 L372,829"/><circle style="--d: 8s" class="g8" cx="609" cy="34" r="16"/><path style="--d: 8s;" class="g8" d="M694.68,-34.544 Q764.68,0.45600000000000307 768.555,5.831000000000003 Q791.805,38.081 795.68,43.456"/><circle style="--d: 9s" class="g9" cx="457" cy="201" r="16"/><path style="--d: 9s;" class="g9" d="M457,297 Q829,237 840,237.75 Q906,242.25 917,243"/><circle style="--d: 10s" class="g10" cx="510" cy="281" r="16"/><path style="--d: 10s;" class="g10" d="M595.68,212.45600000000002 Q632.68,244.45600000000002 637.055,256.956 Q663.305,331.956 667.68,344.456"/><circle style="--d: 11s" class="g11" cx="560" cy="281" r="16"/><path style="--d: 11s;" class="g11" d="M560,377 Q657.7142857142857,350 663.2857142857142,359.5 Q680,388 674,400.5 Q662,425.5 656,438"/><circle style="--d: 12s" class="g12" cx="592" cy="373" r="16"/><path style="--d: 12s;" class="g12" d="M592,469 L778,463"/><circle style="--d: 13s" class="g13" cx="478" cy="483" r="16"/><path style="--d: 13s;" class="g13" d="M478,579 Q505.5,594 555.25,566.5 Q605,539 614,558.5 Q623,578 597.25,619 Q597.25,619 571.5,660"/><circle style="--d: 14s" class="g14" cx="603" cy="561" r="16"/><path style="--d: 14s;" class="g14" d="M507,561 Q541.5,605.0883977900553 545.5,686.6519337016575 Q549.5,768.2154696132596 545.5,784.7486187845304 Q541.5,801.2817679558011 530.5,814.1408839779006 Q519.5,827 497.25,807.1602209944751 Q497.25,807.1602209944751 475,787.3204419889503"/><circle style="--d: 15s" class="g15" cx="428" cy="672" r="16"/><path style="--d: 15s;" class="g15" d="M428,768 Q850,706 864.75,707.375 Q953.25,715.625 968,717"/></g></svg>