<svg id="z35532" class="acjk" viewBox="0 0 1024 1024" xmlns="http://www.w3.org/2000/svg">
<style>

@keyframes zk {
	to {
		stroke-dashoffset:0;
	}
}
svg.acjk path[clip-path] {
	--t:0.8s;
	animation:zk var(--t) linear forwards var(--d);
	stroke-dasharray:3337;
	stroke-dashoffset:3339;
	stroke-width:128;
	stroke-linecap:round;
	fill:none;
	stroke:#000;
}
svg.acjk path[id] {fill:#ccc;}


    @keyframes guide-fade {
        0% { opacity: 0; }
        3% { opacity: 1; }
        95% { opacity: 1; }
        100% { opacity: 0; }
    }

    svg.acjk #guide-arrow {
        fill: #f77;
    }

    svg.acjk .guides {
        circle {
            fill: #0f6;
        }

        path {
            opacity: 0;
            animation: guide-fade var(--t) linear forwards var(--d);
            stroke-width: 16px;
            stroke-linecap: round;
            stroke: #f77;
            fill: none;
            marker-end: url(#guide-arrow);
        }

        circle,
        path {
            --t: 0.8s;
            opacity: 0;
            animation: guide-fade calc(var(--t) + 0.4s) ease-in-out forwards calc(var(--d) - 0.2s);
        }
    }
</style>
<path id="z35532d1" d="M287 97C305 115 323 133 341 151C350 160 360 165 372 165C378 164 385 160 389 151C392 141 391 124 386 104C380 80 344 62 283 47C271 44 264 42 260 45C255 47 254 52 256 62C257 69 270 80 287 97Z"/>
<path id="z35532d2" d="M47 291C38 292 32 296 31 302C28 308 32 316 45 324C69 339 102 342 138 330C204 305 286 280 386 259C396 256 402 252 403 248C403 239 396 231 384 226C364 218 348 218 332 223C197 259 102 281 47 291Z"/>
<path id="z35532d3" d="M198 380C176 386 174 397 193 403C216 410 250 407 290 394C305 389 321 382 340 377C348 374 353 371 355 370C359 363 360 357 357 354C351 346 339 343 321 343C307 342 280 352 239 369C226 374 212 375 198 380Z"/>
<path id="z35532d4" d="M187 487C166 492 164 499 181 507C200 516 232 515 274 503C292 497 313 490 336 484C346 481 352 478 354 476C358 470 358 466 356 462C350 455 340 450 323 449C305 447 277 458 238 474C222 480 204 482 187 487Z"/>
<path id="z35532d5" d="M153 610C144 607 133 606 121 604C112 602 109 603 107 606C103 611 104 617 109 627C128 664 144 714 156 776C159 794 165 809 176 821C188 834 201 799 196 765C192 742 192 742 190 730C184 700 173 650 174 634C174 623 163 612 153 610Z"/>
<path id="z35532d6" d="M328 703C338 662 350 636 362 623C376 606 375 593 360 585C347 578 332 569 314 559C302 552 289 552 278 561C251 579 210 596 153 610C143 612 164 638 174 634C204 624 231 615 256 609C272 604 281 606 287 612C290 615 291 625 288 644C284 660 282 678 279 698C276 714 325 719 328 703Z"/>
<path id="z35532d7" d="M196 765C262 748 310 737 340 732C346 730 350 726 350 720C350 715 342 709 328 703C313 697 294 692 279 698C265 702 214 721 190 730C179 734 184 767 196 765Z"/>
<path id="z35532d8" d="M649 228Q784 192 788 191Q795 184 791 175Q784 165 756 158Q729 155 654 181C619 191 619 191 602 196Q554 205 504 212Q470 219 495 234Q534 258 592 241Q596 240 603 239C634 232 634 232 649 228Z"/>
<path id="z35532d9" d="M474 336Q464 332 437 328Q425 325 423 330Q417 337 425 351Q456 412 475 512Q479 542 496 561Q514 582 518 567Q519 560 521 551C520 534 520 534 520 525Q519 513 517 501Q495 398 491 366C489 355 485 340 474 336Z"/>
<path id="z35532d10" d="M722 524Q740 554 756 563Q766 572 783 550Q799 528 836 399Q846 368 870 344Q883 332 872 318Q857 300 815 273Q794 261 735 280Q711 283 647 299C618 305 618 305 604 308Q583 311 563 316Q517 326 474 336C463 338 480 370 491 366Q537 350 605 337C632 331 632 331 646 328Q757 303 777 316Q790 326 785 346Q754 479 737 497C731 505 716 516 722 524Z"/>
<path id="z35532d11" d="M645 426Q681 419 712 415Q734 411 725 399Q715 386 691 382Q672 379 646 387C618 396 618 396 604 400Q568 410 538 420Q522 424 542 437Q551 443 568 440Q586 436 603 434C631 429 631 429 645 426Z"/>
<path id="z35532d12" d="M644 534Q684 527 722 524C732 524 746 502 737 497Q716 481 660 494Q651 495 644 498C615 504 615 504 601 507Q558 516 520 525C511 527 512 551 521 551Q525 551 533 551Q554 547 576 545C621 538 621 538 644 534Z"/>
<path id="z35532d13" d="M643 581Q643 559 644 534C644 510 644 510 644 498Q644 464 645 426C646 400 646 400 646 387Q646 357 646 328C647 309 647 309 647 299Q647 262 649 228C652 197 652 197 654 181Q658 144 668 115Q677 99 674 85Q667 75 609 39Q584 21 563 38Q557 42 564 59Q601 114 602 196C603 225 603 225 603 239Q603 272 604 308C605 327 605 327 605 337Q605 338 606 343Q605 371 604 400C603 423 603 423 603 434Q602 470 601 507C600 573 600 573 599 606Q593 759 576 826Q557 884 586 953Q593 972 601 975Q608 982 615 973Q624 969 634 947Q644 922 644 888Q643 851 643 621C643 594 643 594 643 581Z"/>
<path id="z35532d14" d="M576 545Q561 641 345 808Q338 812 333 817Q318 829 333 830Q364 833 448 777Q509 723 553 672Q581 638 599 606C628 557 587 489 576 545Z"/>
<path id="z35532d15" d="M643 621Q707 703 778 782Q800 806 837 809Q904 816 977 805Q995 804 996 799Q999 792 985 786Q942 768 890 750Q832 728 790 699Q738 666 686 621Q659 596 643 581C634 572 635 610 643 621Z"/>
<defs>
	<clipPath id="z35532c1"><use href="#z35532d1"/></clipPath>
	<clipPath id="z35532c2"><use href="#z35532d2"/></clipPath>
	<clipPath id="z35532c3"><use href="#z35532d3"/></clipPath>
	<clipPath id="z35532c4"><use href="#z35532d4"/></clipPath>
	<clipPath id="z35532c5"><use href="#z35532d5"/></clipPath>
	<clipPath id="z35532c6"><use href="#z35532d6"/></clipPath>
	<clipPath id="z35532c7"><use href="#z35532d7"/></clipPath>
	<clipPath id="z35532c8"><use href="#z35532d8"/></clipPath>
	<clipPath id="z35532c9"><use href="#z35532d9"/></clipPath>
	<clipPath id="z35532c10"><use href="#z35532d10"/></clipPath>
	<clipPath id="z35532c11"><use href="#z35532d11"/></clipPath>
	<clipPath id="z35532c12"><use href="#z35532d12"/></clipPath>
	<clipPath id="z35532c13"><use href="#z35532d13"/></clipPath>
	<clipPath id="z35532c14"><use href="#z35532d14"/></clipPath>
	<clipPath id="z35532c15"><use href="#z35532d15"/></clipPath>
<marker id="guide-arrow" viewBox="0 0 16 16" refX="5" refY="5" markerWidth="4" markerHeight="4" orient="auto-start-reverse"><path d="M 0 0 L 10 5 L 0 10 z" fill="inherit"/></marker></defs>
<path style="--d:1s;" pathLength="3333" clip-path="url(#z35532c1)" d="M260 55L342 104L380 157"/>
<path style="--d:2s;" pathLength="3333" clip-path="url(#z35532c2)" d="M34 304L101 309L397 245"/>
<path style="--d:3s;" pathLength="3333" clip-path="url(#z35532c3)" d="M189 392L353 358"/>
<path style="--d:4s;" pathLength="3333" clip-path="url(#z35532c4)" d="M177 496L352 466"/>
<path style="--d:5s;" pathLength="3333" clip-path="url(#z35532c5)" d="M112 611L147 641L181 818"/>
<path style="--d:6s;" pathLength="3333" clip-path="url(#z35532c6)" d="M159 616L290 580L322 598L298 710"/>
<path style="--d:7s;" pathLength="3333" clip-path="url(#z35532c7)" d="M192 757L287 719L345 720"/>
<path style="--d:8s;" pathLength="3333" clip-path="url(#z35532c8)" d="M495 223L785 176"/>
<path style="--d:9s;" pathLength="3333" clip-path="url(#z35532c9)" d="M428 338L465 373L511 565"/>
<path style="--d:10s;" pathLength="3333" clip-path="url(#z35532c10)" d="M478 342L755 293L805 301L829 345L748 556"/>
<path style="--d:11s;" pathLength="3333" clip-path="url(#z35532c11)" d="M535 425L722 403"/>
<path style="--d:12s;" pathLength="3333" clip-path="url(#z35532c12)" d="M516 540L734 510"/>
<path style="--d:13s;" pathLength="3333" clip-path="url(#z35532c13)" d="M566 40L633 106L603 973"/>
<path style="--d:14s;" pathLength="3333" clip-path="url(#z35532c14)" d="M589 530L581 596L530 668L336 825"/>
<path style="--d:15s;" pathLength="3333" clip-path="url(#z35532c15)" d="M644 593L811 759L988 796"/>
<g class="guides"><circle style="--d: 1s" class="g1" cx="260" cy="55" r="16"/><path style="--d: 1s;" class="g1" d="M345.68,-13.543999999999997 Q427.68,35.456 432.43,42.081 Q460.93,81.831 465.68,88.456"/><circle style="--d: 2s" class="g2" cx="34" cy="304" r="16"/><path style="--d: 2s;" class="g2" d="M34,400 Q101,405 138,397 Q360,349 397,341"/><circle style="--d: 3s" class="g3" cx="189" cy="392" r="16"/><path style="--d: 3s;" class="g3" d="M189,488 L353,454"/><circle style="--d: 4s" class="g4" cx="177" cy="496" r="16"/><path style="--d: 4s;" class="g4" d="M177,592 L352,562"/><circle style="--d: 5s" class="g5" cx="112" cy="611" r="16"/><path style="--d: 5s;" class="g5" d="M197.68,542.456 Q232.68,572.456 236.93,594.581 Q262.43,727.331 266.68,749.456"/><circle style="--d: 6s" class="g6" cx="159" cy="616" r="16"/><path style="--d: 6s;" class="g6" d="M159,712 Q224.5,676 228.5,680.5 Q240.5,694 237.5,705.75 Q231.5,729.25 228.5,741"/><circle style="--d: 7s" class="g7" cx="192" cy="757" r="16"/><path style="--d: 7s;" class="g7" d="M192,853 Q287,815 294.25,815.125 Q337.75,815.875 345,816"/><circle style="--d: 8s" class="g8" cx="495" cy="223" r="16"/><path style="--d: 8s;" class="g8" d="M495,319 L785,272"/><circle style="--d: 9s" class="g9" cx="428" cy="338" r="16"/><path style="--d: 9s;" class="g9" d="M513.68,269.456 Q550.68,304.456 556.43,328.456 Q590.93,472.456 596.68,496.456"/><circle style="--d: 10s" class="g10" cx="478" cy="342" r="16"/><path style="--d: 10s;" class="g10" d="M478,438 Q660.2991452991453,389 676.7521367521367,393 Q693.2051282051282,397 701.1025641025641,409.50950570342206 Q709,422.01901140684413 682.3461538461538,489.00950570342206 Q682.3461538461538,489.00950570342206 655.6923076923077,556"/><circle style="--d: 11s" class="g11" cx="535" cy="425" r="16"/><path style="--d: 11s;" class="g11" d="M535,521 L722,499"/><circle style="--d: 12s" class="g12" cx="516" cy="540" r="16"/><path style="--d: 12s;" class="g12" d="M516,636 L734,606"/><circle style="--d: 13s" class="g13" cx="566" cy="40" r="16"/><path style="--d: 13s;" class="g13" d="M470,40 Q537,106 533.25,214.375 Q510.75,864.625 507,973"/><circle style="--d: 14s" class="g14" cx="589" cy="530" r="16"/><path style="--d: 14s;" class="g14" d="M493,530 Q488.794466403162,574.522033898305 482.0918972332015,586.664406779661 Q461.9841897233201,623.0915254237289 436.4881422924901,649.5686440677966 Q385.49604743083,702.5228813559322 360,729"/><circle style="--d: 15s" class="g15" cx="644" cy="593" r="16"/><path style="--d: 15s;" class="g15" d="M729.68,524.456 Q855.0853488372093,668.0042955665025 871.6996802325581,672.0037586206897 Q971.3856686046512,696.0005369458128 988,700"/></g></svg>