<!--
  Stroke-order data for 諧, derived from AnimCJK (https://github.com/parsimonhi/animCJK),
  itself derived from the Arphic PL KaitiM fonts. Distributed under the Arphic Public License
  (see ARPHICPL.TXT). Regenerated by scripts/build-strokes.ts — do not edit by hand.
-->
<svg id="z35559" class="acjk" viewBox="0 0 1024 1024" xmlns="http://www.w3.org/2000/svg">
<g class="glyph"><path id="z35559d1" d="M279 125C295 139 314 157 333 176C342 185 353 190 364 190C370 190 377 184 381 175C384 165 382 148 377 129C373 113 360 102 340 94C290 74 261 67 252 73C247 75 245 81 248 90C249 98 259 109 279 125Z"/><path id="z35559d2" d="M60 321C51 322 45 325 44 331C41 337 45 344 57 352C80 368 111 371 146 360C229 331 314 307 402 293C412 291 417 287 418 283C418 274 412 266 401 262C381 254 365 253 351 257C228 288 131 310 60 321Z"/><path id="z35559d3" d="M195 427C174 431 172 440 189 448C214 458 242 456 273 446C297 437 323 429 350 421C362 417 368 413 370 412C374 407 374 402 372 398C366 391 355 386 339 385C321 383 257 413 195 427Z"/><path id="z35559d4" d="M201 523C180 525 175 536 193 544C213 553 246 552 288 542C308 536 330 529 353 524C364 521 371 518 373 516C377 510 378 505 376 502C371 494 359 490 343 488C325 485 272 513 201 523Z"/><path id="z35559d5" d="M192 638C185 634 170 630 149 628C140 627 136 628 135 631C131 635 132 640 138 652C157 687 174 736 187 800C190 817 196 834 208 846C220 858 227 860 230 851C233 838 233 819 229 797C225 777 225 777 223 767C212 716 205 683 203 666C201 656 201 642 192 638Z"/><path id="z35559d6" d="M362 735C372 695 384 669 397 656C412 639 411 625 396 617C383 609 367 601 349 590C334 581 316 591 289 606C254 624 220 630 192 638C183 642 194 670 203 666C221 658 251 650 293 641C307 637 315 639 321 645C324 648 326 659 322 679C318 697 314 716 311 738C308 755 359 752 362 735Z"/><path id="z35559d7" d="M229 797C241 794 310 774 376 763C382 762 385 759 385 754C385 749 377 743 362 735C347 726 327 732 311 738C278 748 249 758 223 767C214 771 219 799 229 797Z"/><path id="z35559d8" d="M490 287C502 289 599 273 617 267C623 264 621 257 619 253C613 246 603 240 589 240C569 239 517 255 491 261C482 262 481 287 490 287Z"/><path id="z35559d9" d="M491 261C491 253 492 230 495 219C497 208 494 201 490 197C476 186 463 178 450 173C439 169 432 168 427 172C420 176 421 181 429 194C448 223 454 287 443 381C440 401 429 421 416 443C408 454 408 463 413 471C418 478 428 485 444 492C453 496 463 494 469 483C480 461 513 430 571 393C587 382 599 372 607 362C611 355 610 352 605 352C597 352 564 366 507 397C487 406 483 395 484 381C486 342 489 296 490 287C491 270 491 270 491 261Z"/><path id="z35559d10" d="M701 258C761 239 805 224 838 211C858 205 876 198 895 191C904 187 907 179 906 175C904 169 897 163 887 156C862 140 842 134 829 134C821 133 818 137 818 145C817 165 779 195 702 236C696 240 694 261 701 258Z"/><path id="z35559d11" d="M702 236C704 187 713 153 723 131C731 112 729 95 717 86C685 59 663 49 654 53C643 56 641 63 647 75C659 98 662 129 661 164C654 294 663 372 682 400C697 421 720 440 757 452C782 460 819 465 863 464C899 462 923 453 938 446C957 435 965 421 958 403C950 381 942 353 937 319C935 307 933 301 930 298C924 294 921 300 917 312C902 352 888 372 883 381C877 388 872 394 858 397C841 399 819 400 795 399C767 396 722 391 712 363C704 342 698 308 701 258C702 243 702 243 702 236Z"/><path id="z35559d12" d="M559 568C575 555 631 503 645 494C656 486 658 476 650 468C640 458 626 452 611 447C595 441 585 440 578 443C571 445 570 449 573 457C578 469 566 508 531 572C526 580 551 574 559 568Z"/><path id="z35559d13" d="M505 575C499 569 488 564 476 559C468 556 463 556 457 560C452 562 453 566 457 575C477 619 480 718 473 775C466 822 464 857 491 884C497 890 504 890 510 884C512 881 517 876 519 872C522 861 523 851 522 841C520 822 519 730 519 712C518 699 518 699 518 692C515 635 516 618 520 602C522 592 513 581 505 575Z"/><path id="z35559d14" d="M741 854C750 882 757 902 771 927C788 962 807 938 824 911C837 886 836 858 835 827C832 782 829 717 828 636C827 615 834 599 845 586C851 578 851 570 846 565C835 551 813 537 781 521C769 514 761 516 750 520C711 533 599 562 559 568C540 571 540 571 531 572C521 573 512 573 505 575C495 577 510 604 520 602C542 600 607 586 717 563C737 558 753 560 763 569C773 578 775 642 769 760C767 778 762 817 752 834C749 841 738 847 741 854Z"/><path id="z35559d15" d="M519 712C541 720 579 722 633 715C687 707 717 702 722 699C727 694 728 689 726 686C722 679 712 673 697 669C681 664 665 666 649 671C631 676 583 687 518 692C511 692 513 710 519 712Z"/><path id="z35559d16" d="M519 872C532 873 582 863 741 854C749 854 758 839 752 834C747 829 739 822 730 816C719 809 705 809 686 813C627 825 570 834 522 841C512 843 509 872 519 872Z"/></g>
<defs><clipPath id="z35559c1"><use href="#z35559d1"/></clipPath>
	<clipPath id="z35559c2"><use href="#z35559d2"/></clipPath>
	<clipPath id="z35559c3"><use href="#z35559d3"/></clipPath>
	<clipPath id="z35559c4"><use href="#z35559d4"/></clipPath>
	<clipPath id="z35559c5"><use href="#z35559d5"/></clipPath>
	<clipPath id="z35559c6"><use href="#z35559d6"/></clipPath>
	<clipPath id="z35559c7"><use href="#z35559d7"/></clipPath>
	<clipPath id="z35559c8"><use href="#z35559d8"/></clipPath>
	<clipPath id="z35559c9"><use href="#z35559d9"/></clipPath>
	<clipPath id="z35559c10"><use href="#z35559d10"/></clipPath>
	<clipPath id="z35559c11"><use href="#z35559d11"/></clipPath>
	<clipPath id="z35559c12"><use href="#z35559d12"/></clipPath>
	<clipPath id="z35559c13"><use href="#z35559d13"/></clipPath>
	<clipPath id="z35559c14"><use href="#z35559d14"/></clipPath>
	<clipPath id="z35559c15"><use href="#z35559d15"/></clipPath>
	<clipPath id="z35559c16"><use href="#z35559d16"/></clipPath><marker id="guide-arrow" viewBox="0 0 16 16" refX="5" refY="5" markerWidth="4" markerHeight="4" orient="auto-start-reverse"><path d="M 0 0 L 10 5 L 0 10 z" fill="inherit"/></marker></defs>
<g class="strokes"><path pathLength="3333" clip-path="url(#z35559c1)" d="M253 78L333 127L375 181"/><path pathLength="3333" clip-path="url(#z35559c2)" d="M47 332L112 339L411 279"/><path pathLength="3333" clip-path="url(#z35559c3)" d="M183 435L368 406"/><path pathLength="3333" clip-path="url(#z35559c4)" d="M188 532L371 508"/><path pathLength="3333" clip-path="url(#z35559c5)" d="M141 635L176 668L217 851"/><path pathLength="3333" clip-path="url(#z35559c6)" d="M192 647L323 614L361 634L336 747"/><path pathLength="3333" clip-path="url(#z35559c7)" d="M221 785L379 753"/><path pathLength="3333" clip-path="url(#z35559c8)" d="M486 277L615 256"/><path pathLength="3333" clip-path="url(#z35559c9)" d="M431 180L469 218L451 435L474 445L600 358"/><path pathLength="3333" clip-path="url(#z35559c10)" d="M827 139L848 182L702 248"/><path pathLength="3333" clip-path="url(#z35559c11)" d="M650 58L692 106L680 299L711 398L783 428L893 423L922 400L926 304"/><path pathLength="3333" clip-path="url(#z35559c12)" d="M579 452L610 489L540 570"/><path pathLength="3333" clip-path="url(#z35559c13)" d="M463 567L494 607L499 884"/><path pathLength="3333" clip-path="url(#z35559c14)" d="M511 581L739 541L807 573L787 938"/><path pathLength="3333" clip-path="url(#z35559c15)" d="M521 699L719 684"/><path pathLength="3333" clip-path="url(#z35559c16)" d="M515 860L716 832L750 844"/></g>
<g class="guides"><text class="g1" style="--gs:1" x="253" y="78">①</text><path class="g1 aligned" style="--gs:1" d="M253,78 Q333,127 338.25,133.75 Q369.75,174.25 375,181"/><path class="g1 offset" style="--gs:1" d="M338.68,9.46 Q418.68,58.46 423.93,65.21 Q455.43,105.71 460.68,112.46"/><text class="g2" style="--gs:2" x="47" y="332">②</text><path class="g2 aligned" style="--gs:2" d="M47,332 Q112,339 149.38,331.5 Q373.63,286.5 411,279"/><path class="g2 offset" style="--gs:2" d="M47,428 Q112,435 149.38,427.5 Q373.63,382.5 411,375"/><text class="g3" style="--gs:3" x="183" y="435">③</text><path class="g3 aligned" style="--gs:3" d="M183,435 L368,406"/><path class="g3 offset" style="--gs:3" d="M183,531 L368,502"/><text class="g4" style="--gs:4" x="188" y="532">④</text><path class="g4 aligned" style="--gs:4" d="M188,532 L371,508"/><path class="g4 offset" style="--gs:4" d="M188,628 L371,604"/><text class="g5" style="--gs:5" x="141" y="635">⑤</text><path class="g5 aligned" style="--gs:5" d="M141,635 Q176,668 181.13,690.88 Q211.88,828.13 217,851"/><path class="g5 offset" style="--gs:5" d="M226.68,566.46 Q261.68,599.46 266.81,622.33 Q297.56,759.58 302.68,782.46"/><text class="g6" style="--gs:6" x="192" y="647">⑥</text><path class="g6 aligned" style="--gs:6" d="M192,647 Q323,614 332.5,619 Q361,634 354.75,662.25 Q342.25,718.75 336,747"/><path class="g6 offset" style="--gs:6" d="M192,743 Q257.5,710 262.25,715 Q276.5,730 273.38,741.63 Q267.13,764.88 264,776.5"/><text class="g7" style="--gs:7" x="221" y="785">⑦</text><path class="g7 aligned" style="--gs:7" d="M221,785 L379,753"/><path class="g7 offset" style="--gs:7" d="M221,881 L379,849"/><text class="g8" style="--gs:8" x="486" y="277">⑧</text><path class="g8 aligned" style="--gs:8" d="M486,277 L615,256"/><path class="g8 offset" style="--gs:8" d="M486,373 L615,352"/><text class="g9" style="--gs:9" x="431" y="180">⑨</text><path class="g9 aligned" style="--gs:9" d="M431,180 Q469,218 460,326.5 Q451,435 462.5,440 Q474,445 537,401.5 Q537,401.5 600,358"/><path class="g9 offset" style="--gs:9" d="M516.68,111.46 Q554.68,138.64 545.68,216.24 Q536.68,293.85 548.18,297.42 Q559.68,301 622.68,269.89 Q622.68,269.89 685.68,238.77"/><text class="g10" style="--gs:10" x="827" y="139">⑩</text><path class="g10 aligned" style="--gs:10" d="M827,139 Q848,182 829.75,190.25 Q720.25,239.75 702,248"/><path class="g10 offset" style="--gs:10" d="M731,139 Q741.5,160.5 732.38,164.63 Q677.63,189.38 668.5,193.5"/><text class="g11" style="--gs:11" x="650" y="58">⑪</text><path class="g11 aligned" style="--gs:11" d="M650,58 Q692,106 686,202.5 Q680,299 695.5,348.5 Q711,398 747,413 Q783,428 838,425.5 Q893,423 907.5,411.5 Q922,400 924,352 Q924,352 926,304"/><path class="g11 offset" style="--gs:11" d="M718.54,-10.54 Q739.54,37.46 736.54,133.96 Q733.54,230.46 741.29,279.96 Q749.04,329.46 767.04,344.46 Q785.04,359.46 812.54,356.96 Q840.04,354.46 847.29,342.96 Q854.54,331.46 855.54,283.46 Q855.54,283.46 856.54,235.46"/><text class="g12" style="--gs:12" x="579" y="452">⑫</text><path class="g12 aligned" style="--gs:12" d="M579,452 Q610,489 601.25,499.13 Q548.75,559.88 540,570"/><path class="g12 offset" style="--gs:12" d="M483,452 Q498.5,470.5 494.13,475.56 Q467.88,505.94 463.5,511"/><text class="g13" style="--gs:13" x="463" y="567">⑬</text><path class="g13 aligned" style="--gs:13" d="M463,567 Q494,607 494.63,641.63 Q498.38,849.38 499,884"/><path class="g13 offset" style="--gs:13" d="M548.68,498.46 Q579.68,538.46 580.3,573.08 Q584.05,780.83 584.68,815.46"/><text class="g14" style="--gs:14" x="511" y="581">⑭</text><path class="g14 aligned" style="--gs:14" d="M511,581 Q739,541 756,549 Q807,573 802,664.25 Q792,846.75 787,938"/><path class="g14 offset" style="--gs:14" d="M511,677 Q646.57,637 656.68,645 Q687,669 684.03,736.25 Q678.08,870.75 675.11,938"/><text class="g15" style="--gs:15" x="521" y="699">⑮</text><path class="g15 aligned" style="--gs:15" d="M521,699 L719,684"/><path class="g15 offset" style="--gs:15" d="M521,795 L719,780"/><text class="g16" style="--gs:16" x="515" y="860">⑯</text><path class="g16 aligned" style="--gs:16" d="M515,860 L733,838"/><path class="g16 offset" style="--gs:16" d="M515,956 L733,934"/></g>
</svg>
