<!--
  Stroke-order data for 譜, derived from AnimCJK (https://github.com/parsimonhi/animCJK),
  itself derived from the Arphic PL KaitiM fonts. Distributed under the Arphic Public License
  (see ARPHICPL.TXT). Regenerated by scripts/build-strokes.ts — do not edit by hand.
-->
<svg id="z35676" class="acjk" viewBox="0 0 1024 1024" xmlns="http://www.w3.org/2000/svg">
<g class="glyph"><path id="z35676d1" d="M269 122C289 140 309 160 329 182C337 191 347 197 359 197C367 197 373 192 377 183C381 173 380 157 375 136C368 111 332 89 267 71C256 68 248 66 244 69C239 71 237 77 239 86C240 94 251 105 269 122Z"/><path id="z35676d2" d="M75 325C67 325 61 328 60 335C57 341 62 348 73 356C99 374 126 377 153 367C228 338 309 316 394 301C404 298 409 295 410 291C410 282 405 274 393 270C374 262 357 262 343 266C210 300 121 319 75 325Z"/><path id="z35676d3" d="M200 427C179 431 176 440 193 448C218 458 250 456 287 445C306 438 328 433 350 428C360 425 366 422 369 420C373 415 374 410 372 406C367 399 356 395 339 393C324 391 295 400 249 417C234 422 217 423 200 427Z"/><path id="z35676d4" d="M196 533C177 537 174 544 189 552C208 562 242 561 288 549C336 535 362 528 365 527C370 523 370 517 367 513C362 506 352 502 337 500C322 497 294 507 251 522C233 527 214 529 196 533Z"/><path id="z35676d5" d="M178 640C171 637 159 635 142 633C135 631 130 631 128 635C125 638 125 645 131 655C149 687 166 732 178 789C181 805 187 819 197 830C207 842 214 844 218 835C220 826 222 817 219 798C217 787 215 778 213 768C202 715 195 681 193 665C191 655 187 644 178 640Z"/><path id="z35676d6" d="M345 743C355 698 368 668 382 654C396 638 395 625 381 617C369 610 354 601 338 591C328 584 306 593 271 610C238 624 206 632 178 640C168 642 184 669 193 665C204 662 225 655 281 640C297 635 306 636 311 643C314 647 315 659 311 679C306 697 301 718 297 742C294 758 342 759 345 743Z"/><path id="z35676d7" d="M219 798C229 800 230 792 359 773C365 771 369 769 369 763C369 758 361 751 345 743C331 735 312 737 297 742C268 751 238 760 213 768C203 771 209 798 219 798Z"/><path id="z35676d8" d="M528 133C543 147 558 163 574 182C580 189 589 194 599 194C605 194 610 190 613 183C616 175 615 162 612 145C609 132 600 120 583 112C565 103 546 97 527 91C518 87 511 86 508 89C504 90 502 96 504 104C504 110 514 119 528 133Z"/><path id="z35676d9" d="M746 95C737 113 720 143 696 187C690 197 695 203 705 198C729 183 745 167 759 155C793 123 815 105 824 100C836 92 838 83 830 74C821 65 808 57 791 51C774 44 763 42 756 45C749 47 748 52 751 60C754 70 751 82 746 95Z"/><path id="z35676d10" d="M696 264C784 250 830 238 834 235C839 230 840 225 838 222C834 215 824 209 809 205C795 200 753 210 682 228C613 244 549 250 492 255C471 256 468 263 483 273C498 283 518 291 542 288C568 284 568 284 581 282C605 278 631 274 658 270C683 266 683 266 696 264Z"/><path id="z35676d11" d="M542 288C553 317 555 353 562 507C562 519 599 515 599 503C599 440 598 385 601 339C600 312 602 301 581 282C572 273 537 276 542 288Z"/><path id="z35676d12" d="M709 487C711 427 715 373 719 327C721 298 717 278 696 264C686 256 653 258 658 270C678 305 670 409 670 493C670 506 709 500 709 487Z"/><path id="z35676d13" d="M430 399C452 429 470 450 487 458C494 461 502 458 508 451C512 444 514 436 513 427C508 404 483 384 443 368C434 364 426 364 421 365C418 365 416 369 417 376C417 382 422 389 430 399Z"/><path id="z35676d14" d="M807 341C796 357 779 379 759 408C755 412 754 418 759 421C762 423 768 420 773 418C817 389 849 368 872 359C882 354 886 351 884 345C881 336 874 326 862 314C851 303 839 296 825 296C816 295 810 302 812 314C812 322 812 331 807 341Z"/><path id="z35676d15" d="M562 507C515 512 466 518 415 525C402 526 399 532 410 542C427 558 451 563 480 556C578 528 729 513 934 513C935 513 936 513 937 513C949 513 956 510 959 506C962 499 958 491 949 484C915 459 883 455 854 462C814 471 765 478 709 487C683 491 683 491 670 493C646 496 619 500 599 503C574 506 574 506 562 507Z"/><path id="z35676d16" d="M544 612C539 607 531 602 521 598C515 595 509 595 503 598C499 600 498 605 502 612C518 674 517 753 507 800C504 811 496 824 503 849C506 865 515 877 524 887C530 894 535 895 541 888C547 879 550 871 553 857C554 847 553 837 554 828C554 798 555 775 556 750C557 733 557 733 557 724C558 679 558 655 560 651C560 646 561 642 561 639C563 629 553 618 544 612Z"/><path id="z35676d17" d="M732 843C740 864 745 877 756 898C769 927 784 926 795 897C804 868 807 825 803 766C797 697 797 652 806 631C811 616 809 608 803 602C797 596 784 585 760 574C749 568 731 571 707 579C664 592 610 602 544 612C534 614 550 639 561 639C575 639 589 629 707 615C721 613 730 617 735 622C740 626 744 671 744 757C743 770 740 805 735 819C732 826 729 836 732 843Z"/><path id="z35676d18" d="M556 750C567 753 579 747 684 736C696 734 700 729 696 722C691 714 681 707 667 705C647 701 610 708 557 724C549 727 547 748 556 750Z"/><path id="z35676d19" d="M553 857C565 861 580 852 732 843C740 843 741 824 735 819C716 803 702 801 682 806C637 815 590 823 554 828C545 830 544 855 553 857Z"/></g>
<defs><clipPath id="z35676c1"><use href="#z35676d1"/></clipPath>
	<clipPath id="z35676c2"><use href="#z35676d2"/></clipPath>
	<clipPath id="z35676c3"><use href="#z35676d3"/></clipPath>
	<clipPath id="z35676c4"><use href="#z35676d4"/></clipPath>
	<clipPath id="z35676c5"><use href="#z35676d5"/></clipPath>
	<clipPath id="z35676c6"><use href="#z35676d6"/></clipPath>
	<clipPath id="z35676c7"><use href="#z35676d7"/></clipPath>
	<clipPath id="z35676c8"><use href="#z35676d8"/></clipPath>
	<clipPath id="z35676c9"><use href="#z35676d9"/></clipPath>
	<clipPath id="z35676c10"><use href="#z35676d10"/></clipPath>
	<clipPath id="z35676c11"><use href="#z35676d11"/></clipPath>
	<clipPath id="z35676c12"><use href="#z35676d12"/></clipPath>
	<clipPath id="z35676c13"><use href="#z35676d13"/></clipPath>
	<clipPath id="z35676c14"><use href="#z35676d14"/></clipPath>
	<clipPath id="z35676c15"><use href="#z35676d15"/></clipPath>
	<clipPath id="z35676c16"><use href="#z35676d16"/></clipPath>
	<clipPath id="z35676c17"><use href="#z35676d17"/></clipPath>
	<clipPath id="z35676c18"><use href="#z35676d18"/></clipPath>
	<clipPath id="z35676c19"><use href="#z35676d19"/></clipPath><marker id="guide-arrow" viewBox="0 0 16 16" refX="5" refY="5" markerWidth="4" markerHeight="4" orient="auto-start-reverse"><path d="M 0 0 L 10 5 L 0 10 z" fill="inherit"/></marker></defs>
<g class="strokes"><path pathLength="3333" clip-path="url(#z35676c1)" d="M246 78L342 144L358 193"/><path pathLength="3333" clip-path="url(#z35676c2)" d="M62 336L121 345L404 289"/><path pathLength="3333" clip-path="url(#z35676c3)" d="M191 439L368 413"/><path pathLength="3333" clip-path="url(#z35676c4)" d="M189 541L365 518"/><path pathLength="3333" clip-path="url(#z35676c5)" d="M135 642L167 668L207 833"/><path pathLength="3333" clip-path="url(#z35676c6)" d="M180 648L309 614L342 628L352 647L310 750"/><path pathLength="3333" clip-path="url(#z35676c7)" d="M210 780L362 759"/><path pathLength="3333" clip-path="url(#z35676c8)" d="M510 94L606 186"/><path pathLength="3333" clip-path="url(#z35676c9)" d="M757 52L789 94L700 192"/><path pathLength="3333" clip-path="url(#z35676c10)" d="M483 264L834 225"/><path pathLength="3333" clip-path="url(#z35676c11)" d="M548 287L575 320L585 510"/><path pathLength="3333" clip-path="url(#z35676c12)" d="M666 272L694 314L685 497"/><path pathLength="3333" clip-path="url(#z35676c13)" d="M423 372L496 454"/><path pathLength="3333" clip-path="url(#z35676c14)" d="M821 302L844 347L763 415"/><path pathLength="3333" clip-path="url(#z35676c15)" d="M410 532L885 486L954 499"/><path pathLength="3333" clip-path="url(#z35676c16)" d="M507 604L535 646L530 887"/><path pathLength="3333" clip-path="url(#z35676c17)" d="M549 617L731 593L773 619L776 915"/><path pathLength="3333" clip-path="url(#z35676c18)" d="M552 738L692 722"/><path pathLength="3333" clip-path="url(#z35676c19)" d="M549 845L735 833"/></g>
<g class="guides"><text class="g1" style="--gs:1" x="246" y="78">①</text><path class="g1 aligned" style="--gs:1" d="M246,78 Q342,144 344,150.13 Q356,186.88 358,193"/><path class="g1 offset" style="--gs:1" d="M331.68,9.46 Q427.68,75.46 429.68,81.58 Q441.68,118.33 443.68,124.46"/><text class="g2" style="--gs:2" x="62" y="336">②</text><path class="g2 aligned" style="--gs:2" d="M62,336 Q121,345 156.38,338 Q368.63,296 404,289"/><path class="g2 offset" style="--gs:2" d="M62,432 Q121,441 156.38,434 Q368.63,392 404,385"/><text class="g3" style="--gs:3" x="191" y="439">③</text><path class="g3 aligned" style="--gs:3" d="M191,439 L368,413"/><path class="g3 offset" style="--gs:3" d="M191,535 L368,509"/><text class="g4" style="--gs:4" x="189" y="541">④</text><path class="g4 aligned" style="--gs:4" d="M189,541 L365,518"/><path class="g4 offset" style="--gs:4" d="M189,637 L365,614"/><text class="g5" style="--gs:5" x="135" y="642">⑤</text><path class="g5 aligned" style="--gs:5" d="M151,655 L207,833"/><path class="g5 offset" style="--gs:5" d="M271,655 L327,833"/><text class="g6" style="--gs:6" x="180" y="648">⑥</text><path class="g6 aligned" style="--gs:6" d="M180,648 Q309,614 325.5,621 Q342,628 347,637.5 Q352,647 331,698.5 Q331,698.5 310,750"/><path class="g6 offset" style="--gs:6" d="M180,744 Q244.5,710 252.75,717 Q261,724 263.5,733.5 Q266,743 255.5,760.5 Q255.5,760.5 245,778"/><text class="g7" style="--gs:7" x="210" y="780">⑦</text><path class="g7 aligned" style="--gs:7" d="M210,780 L362,759"/><path class="g7 offset" style="--gs:7" d="M210,876 L362,855"/><text class="g8" style="--gs:8" x="510" y="94">⑧</text><path class="g8 aligned" style="--gs:8" d="M510,94 L606,186"/><path class="g8 offset" style="--gs:8" d="M595.68,25.46 L691.68,117.46"/><text class="g9" style="--gs:9" x="757" y="52">⑨</text><path class="g9 aligned" style="--gs:9" d="M757,52 Q789,94 777.88,106.25 Q711.13,179.75 700,192"/><path class="g9 offset" style="--gs:9" d="M661,52 Q677,73 671.44,79.13 Q638.06,115.88 632.5,122"/><text class="g10" style="--gs:10" x="483" y="264">⑩</text><path class="g10 aligned" style="--gs:10" d="M483,264 L834,225"/><path class="g10 offset" style="--gs:10" d="M483,360 L834,321"/><text class="g11" style="--gs:11" x="548" y="287">⑪</text><path class="g11 aligned" style="--gs:11" d="M548,287 Q575,320 576.25,343.75 Q583.75,486.25 585,510"/><path class="g11 offset" style="--gs:11" d="M633.68,218.46 Q660.68,251.46 661.93,275.21 Q669.43,417.71 670.68,441.46"/><text class="g12" style="--gs:12" x="666" y="272">⑫</text><path class="g12 aligned" style="--gs:12" d="M666,272 Q694,314 692.88,336.88 Q686.13,474.13 685,497"/><path class="g12 offset" style="--gs:12" d="M570,272 Q598,314 596.88,336.88 Q590.13,474.13 589,497"/><text class="g13" style="--gs:13" x="423" y="372">⑬</text><path class="g13 aligned" style="--gs:13" d="M423,372 L496,454"/><path class="g13 offset" style="--gs:13" d="M508.68,303.46 L581.68,385.46"/><text class="g14" style="--gs:14" x="821" y="302">⑭</text><path class="g14 aligned" style="--gs:14" d="M821,302 Q844,347 833.88,355.5 Q773.13,406.5 763,415"/><path class="g14 offset" style="--gs:14" d="M725,302 Q736.5,324.5 731.44,328.75 Q701.06,354.25 696,358.5"/><text class="g15" style="--gs:15" x="410" y="532">⑮</text><path class="g15 aligned" style="--gs:15" d="M410,532 Q885,486 893.63,487.63 Q945.38,497.38 954,499"/><path class="g15 offset" style="--gs:15" d="M410,628 Q885,582 893.63,583.63 Q945.38,593.38 954,595"/><text class="g16" style="--gs:16" x="507" y="604">⑯</text><path class="g16 aligned" style="--gs:16" d="M507,604 Q535,646 534.38,676.13 Q530.63,856.88 530,887"/><path class="g16 offset" style="--gs:16" d="M411,604 Q439,646 438.38,676.13 Q434.63,856.88 434,887"/><text class="g17" style="--gs:17" x="549" y="617">⑰</text><path class="g17 aligned" style="--gs:17" d="M549,617 Q731,593 741.5,599.5 Q773,619 773.75,693 Q775.25,841 776,915"/><path class="g17 offset" style="--gs:17" d="M549,713 Q640,701 645.25,704.25 Q661,714 661.38,751 Q662.13,825 662.5,862"/><text class="g18" style="--gs:18" x="552" y="738">⑱</text><path class="g18 aligned" style="--gs:18" d="M552,738 L692,722"/><path class="g18 offset" style="--gs:18" d="M552,834 L692,818"/><text class="g19" style="--gs:19" x="549" y="845">⑲</text><path class="g19 aligned" style="--gs:19" d="M549,845 L735,833"/><path class="g19 offset" style="--gs:19" d="M549,941 L735,929"/></g>
</svg>
