<svg id="z35895" class="acjk" viewBox="0 0 1024 1024" xmlns="http://www.w3.org/2000/svg">
<style>

@keyframes zk {
	to {
		stroke-dashoffset:0;
	}
}
svg.acjk path[clip-path] {
	--t:0.8s;
	animation:zk var(--t) linear forwards var(--d);
	stroke-dasharray:3337;
	stroke-dashoffset:3339;
	stroke-width:128;
	stroke-linecap:round;
	fill:none;
	stroke:#000;
}
svg.acjk path[id] {fill:#ccc;}


    @keyframes guide-fade {
        0% { opacity: 0; }
        3% { opacity: 1; }
        95% { opacity: 1; }
        100% { opacity: 0; }
    }

    svg.acjk #guide-arrow {
        fill: #f77;
    }

    svg.acjk .guides {
        circle {
            fill: #0f6;
        }

        path {
            opacity: 0;
            animation: guide-fade var(--t) linear forwards var(--d);
            stroke-width: 16px;
            stroke-linecap: round;
            stroke: #f77;
            fill: none;
            marker-end: url(#guide-arrow);
        }

        circle,
        path {
            --t: 0.8s;
            opacity: 0;
            animation: guide-fade calc(var(--t) + 0.4s) ease-in-out forwards calc(var(--d) - 0.2s);
        }
    }
</style>
<path id="z35895d1" d="M362 150Q350 217 201 343Q179 359 208 355Q283 348 396 231Q424 200 439 187Q451 174 448 164Q445 151 417 142Q386 130 373 134Q366 135 362 150Z"/>
<path id="z35895d2" d="M572 151Q630 196 701 261Q720 280 737 284Q746 285 753 273Q765 258 747 213Q735 173 658 145Q640 136 571 118Q561 114 560 127Q560 140 572 151Z"/>
<path id="z35895d3" d="M310 601C394 530 466 432 520 370C532 356 532 356 538 349C543 343 551 337 551 330C551 323 546 314 538 305C518 280 496 270 472 273C465 273 462 278 464 287C473 344 357 500 297 556C250 599 194 646 87 712C80 715 80 718 88 720C95 721 109 718 131 710C165 696 255 647 297 612C306 605 306 605 310 601Z"/>
<path id="z35895d4" d="M520 370C586 452 662 537 749 625C763 639 782 645 805 644C883 638 935 634 960 628C966 626 971 622 972 619C972 615 967 609 956 606C846 574 764 541 711 500C656 457 599 407 538 349C531 342 514 363 520 370Z"/>
<path id="z35895d5" d="M371 620C354 608 330 603 310 601C304 600 296 606 297 612C297 616 298 621 302 628C320 674 334 735 343 809C343 831 350 850 363 866C375 882 383 885 388 875C392 864 394 851 394 835C392 811 392 811 391 799C382 728 377 680 377 655C377 643 380 627 371 620Z"/>
<path id="z35895d6" d="M636 779C658 717 683 678 707 659C722 646 724 629 711 617C664 573 622 556 593 568C529 593 415 614 371 620C359 622 365 657 377 655C395 652 447 644 569 623C581 620 591 621 597 627C603 633 605 643 603 657C594 699 584 737 574 771C570 791 628 798 636 779Z"/>
<path id="z35895d7" d="M394 835C402 837 411 837 421 836C469 827 545 821 648 818C656 817 662 813 663 807C663 801 654 791 636 779C618 768 595 768 574 771C505 783 444 793 391 799C379 801 382 833 394 835Z"/>
<defs>
	<clipPath id="z35895c1"><use href="#z35895d1"/></clipPath>
	<clipPath id="z35895c2"><use href="#z35895d2"/></clipPath>
	<clipPath id="z35895c3"><use href="#z35895d3"/></clipPath>
	<clipPath id="z35895c4"><use href="#z35895d4"/></clipPath>
	<clipPath id="z35895c5"><use href="#z35895d5"/></clipPath>
	<clipPath id="z35895c6"><use href="#z35895d6"/></clipPath>
	<clipPath id="z35895c7"><use href="#z35895d7"/></clipPath>
<marker id="guide-arrow" viewBox="0 0 16 16" refX="5" refY="5" markerWidth="4" markerHeight="4" orient="auto-start-reverse"><path d="M 0 0 L 10 5 L 0 10 z" fill="inherit"/></marker></defs>
<path style="--d:1s;" pathLength="3333" clip-path="url(#z35895c1)" d="M375 140L399 177L311 275L202 351"/>
<path style="--d:2s;" pathLength="3333" clip-path="url(#z35895c2)" d="M566 126L698 208L744 276"/>
<path style="--d:3s;" pathLength="3333" clip-path="url(#z35895c3)" d="M473 278L504 331L404 471L270 605L92 714"/>
<path style="--d:4s;" pathLength="3333" clip-path="url(#z35895c4)" d="M535 357L784 595L967 618"/>
<path style="--d:5s;" pathLength="3333" clip-path="url(#z35895c5)" d="M304 615L343 642L376 873"/>
<path style="--d:6s;" pathLength="3333" clip-path="url(#z35895c6)" d="M379 622L601 594L641 613L664 643L607 768L587 772"/>
<path style="--d:7s;" pathLength="3333" clip-path="url(#z35895c7)" d="M398 806L657 802"/>
<g class="guides"><circle style="--d: 1s" class="g1" cx="375" cy="140" r="16"/><path style="--d: 1s;" class="g1" d="M279,140 Q291.3045685279188,160.16587677725119 280.0253807106599,173.51895734597156 Q246.18781725888323,213.5781990521327 232.21700507614213,223.93364928909952 Q204.27538071065987,244.64454976303318 190.30456852791878,255"/><circle style="--d: 2s" class="g2" cx="566" cy="126" r="16"/><path style="--d: 2s;" class="g2" d="M651.68,57.456 Q783.68,139.45600000000002 789.43,147.95600000000002 Q823.93,198.95600000000002 829.68,207.45600000000002"/><circle style="--d: 3s" class="g3" cx="473" cy="278" r="16"/><path style="--d: 3s;" class="g3" d="M377,278 Q400.77669902912623,319.3302752293578 362.4271844660194,373.91743119266056 Q324.07766990291265,428.5045871559633 272.68932038834953,480.7522935779816 Q221.3009708737864,533 153.03883495145632,575.5 Q153.03883495145632,575.5 84.77669902912623,618"/><circle style="--d: 4s" class="g4" cx="535" cy="357" r="16"/><path style="--d: 4s;" class="g4" d="M620.68,288.456 Q820.295,501.4194942528736 838.633125,503.9920574712644 Q948.661875,519.4274367816092 967,522"/><circle style="--d: 5s" class="g5" cx="304" cy="615" r="16"/><path style="--d: 5s;" class="g5" d="M389.68,546.456 Q428.68,573.456 432.805,602.331 Q457.555,775.581 461.68,804.456"/><circle style="--d: 6s" class="g6" cx="379" cy="622" r="16"/><path style="--d: 6s;" class="g6" d="M379,718 Q507.5263157894737,690 519.1052631578948,699.5 Q530.6842105263158,709 537.3421052631579,711.75 Q544,714.5 524.6052631578948,746.25 Q524.6052631578948,746.25 505.2105263157895,778"/><circle style="--d: 7s" class="g7" cx="398" cy="806" r="16"/><path style="--d: 7s;" class="g7" d="M398,902 L657,898"/></g></svg>