<!--
  Stroke-order data for 豆, derived from AnimCJK (https://github.com/parsimonhi/animCJK),
  itself derived from the Arphic PL KaitiM fonts. Distributed under the Arphic Public License
  (see ARPHICPL.TXT). Regenerated by scripts/build-strokes.ts — do not edit by hand.
-->
<svg id="z35910" class="acjk" viewBox="0 0 1024 1024" xmlns="http://www.w3.org/2000/svg">
<g class="glyph"><path style="--part:1" id="z35910d1" d="M357 156C324 160 320 172 344 186C381 207 423 209 471 198C529 184 589 174 651 161C679 154 694 148 699 145C706 138 708 130 704 123C697 112 681 104 657 99C634 94 593 104 534 122C474 140 414 148 357 156Z"/><path style="--part:2" id="z35910d2" d="M330 345C319 343 307 343 294 342C285 341 280 341 277 346C273 351 274 358 282 370C303 400 324 443 341 498C346 514 354 527 365 537C380 551 388 553 391 541C391 537 392 532 392 527C389 501 389 501 387 488C385 474 364 402 360 382C357 366 346 348 330 345Z"/><path style="--part:2" id="z35910d3" d="M673 458C697 412 721 385 741 372C756 361 758 344 746 331C735 319 708 304 671 284C656 276 626 285 557 306C510 320 381 343 330 345C314 345 344 385 360 382C364 382 445 367 603 336C619 332 632 333 639 341C644 346 645 355 642 366C633 394 624 420 615 444C608 462 664 476 673 458Z"/><path style="--part:2" id="z35910d4" d="M392 527C405 527 538 501 678 490C686 489 690 485 691 479C691 474 685 467 673 458C657 446 635 440 615 444C565 457 453 478 387 488C374 491 379 527 392 527Z"/><path style="--part:3" id="z35910d5" d="M346 662C357 679 367 699 379 719C385 731 394 737 405 740C411 741 418 739 425 731C431 722 433 707 433 685C432 672 425 657 409 645C393 632 374 623 354 612C345 607 338 604 333 605C328 606 324 612 324 621C323 629 333 642 346 662Z"/><path style="--part:3" id="z35910d6" d="M562 778C616 700 657 643 689 613C700 602 705 596 699 589C690 578 676 568 657 559C638 550 619 546 602 551C591 553 587 564 593 579C596 589 599 601 596 615C584 658 562 713 532 782C528 791 556 786 562 778Z"/><path style="--part:3" id="z35910d7" d="M532 782C461 791 267 808 123 822C106 823 103 831 116 845C139 869 167 878 198 871C408 819 654 799 937 813C953 813 963 809 967 803C971 794 967 783 954 773C906 735 867 729 834 737C779 749 616 770 562 778C542 781 542 781 532 782Z"/></g>
<defs><clipPath id="z35910c1"><use href="#z35910d1"/></clipPath>
	<clipPath id="z35910c2"><use href="#z35910d2"/></clipPath>
	<clipPath id="z35910c3"><use href="#z35910d3"/></clipPath>
	<clipPath id="z35910c4"><use href="#z35910d4"/></clipPath>
	<clipPath id="z35910c5"><use href="#z35910d5"/></clipPath>
	<clipPath id="z35910c6"><use href="#z35910d6"/></clipPath>
	<clipPath id="z35910c7"><use href="#z35910d7"/></clipPath><marker id="guide-arrow" viewBox="0 0 16 16" refX="5" refY="5" markerWidth="4" markerHeight="4" orient="auto-start-reverse"><path d="M 0 0 L 10 5 L 0 10 z" fill="inherit"/></marker></defs>
<g class="strokes"><path style="--part:1" pathLength="3333" clip-path="url(#z35910c1)" d="M333 171L435 175L699 124"/><path style="--part:2" pathLength="3333" clip-path="url(#z35910c2)" d="M282 346L333 396L382 541"/><path style="--part:2" pathLength="3333" clip-path="url(#z35910c3)" d="M338 346L380 359L640 308L699 357L629 447"/><path style="--part:2" pathLength="3333" clip-path="url(#z35910c4)" d="M398 519L594 472L685 476"/><path style="--part:3" pathLength="3333" clip-path="url(#z35910c5)" d="M336 610L415 734"/><path style="--part:3" pathLength="3333" clip-path="url(#z35910c6)" d="M599 559L648 605L540 774"/><path style="--part:3" pathLength="3333" clip-path="url(#z35910c7)" d="M118 832L190 844L855 771L964 794"/></g>
<g class="guides"><text class="g1" style="--gs:1" x="333" y="171">①</text><path class="g1 aligned" style="--gs:1" d="M333,171 Q435,175 468,168.63 Q666,130.38 699,124"/><path class="g1 offset" style="--gs:1" d="M333,267 Q435,271 468,264.63 Q666,226.38 699,220"/><text class="g2" style="--gs:2" x="282" y="346">②</text><path class="g2 aligned" style="--gs:2" d="M282,346 Q333,396 339.13,414.13 Q375.88,522.88 382,541"/><path class="g2 offset" style="--gs:2" d="M367.68,277.46 Q418.68,327.46 424.81,345.58 Q461.56,454.33 467.68,472.46"/><text class="g3" style="--gs:3" x="338" y="346">③</text><path class="g3 aligned" style="--gs:3" d="M338,346 Q380,359 510,333.5 Q640,308 669.5,332.5 Q699,357 664,402 Q664,402 629,447"/><path class="g3 offset" style="--gs:3" d="M338,442 Q366.27,455 453.78,429.5 Q541.29,404 561.14,428.5 Q581,453 557.44,498 Q557.44,498 533.88,543"/><text class="g4" style="--gs:4" x="398" y="519">④</text><path class="g4 aligned" style="--gs:4" d="M398,519 Q594,472 605.38,472.5 Q673.63,475.5 685,476"/><path class="g4 offset" style="--gs:4" d="M398,615 Q594,568 605.38,568.5 Q673.63,571.5 685,572"/><text class="g5" style="--gs:5" x="336" y="610">⑤</text><path class="g5 aligned" style="--gs:5" d="M336,610 L415,734"/><path class="g5 offset" style="--gs:5" d="M421.68,541.46 L500.68,665.46"/><text class="g6" style="--gs:6" x="599" y="559">⑥</text><path class="g6 aligned" style="--gs:6" d="M599,559 Q648,605 634.5,626.13 Q553.5,752.88 540,774"/><path class="g6 offset" style="--gs:6" d="M503,559 Q527.5,584.46 520.75,596.15 Q480.25,666.31 473.5,678"/><text class="g7" style="--gs:7" x="118" y="832">⑦</text><path class="g7 aligned" style="--gs:7" d="M118,832 Q190,844 356.25,825.75 Q855,771 882.25,776.75 Q936.75,788.25 964,794"/><path class="g7 offset" style="--gs:7" d="M118,928 Q190,940 356.25,921.75 Q855,867 882.25,872.75 Q936.75,884.25 964,890"/></g>
<g class="parts"><rect data-part="3" data-literal="䒑" role="button" tabindex="0" aria-label="Part 䒑" x="46" y="487" width="978" height="429"/><rect data-part="2" data-literal="口" role="button" tabindex="0" aria-label="Part 口" x="210" y="236" width="561" height="377"/><rect data-part="1" data-literal="一" role="button" tabindex="0" aria-label="Part 一" x="261" y="52" width="510" height="195"/></g>
</svg>
