<!--
  Stroke-order data for 貨, derived from AnimCJK (https://github.com/parsimonhi/animCJK),
  itself derived from the Arphic PL KaitiM fonts. Distributed under the Arphic Public License
  (see ARPHICPL.TXT). Regenerated by scripts/build-strokes.ts — do not edit by hand.
-->
<svg id="z36008" class="acjk" viewBox="0 0 1024 1024" xmlns="http://www.w3.org/2000/svg">
<g class="glyph"><path id="z36008d1" d="M301 195C355 141 382 111 382 106C382 105 382 103 382 103C382 94 374 82 359 67C346 54 334 45 323 44C312 42 307 49 310 63C313 79 311 93 304 105C262 171 196 246 102 327C95 332 90 335 89 339C86 344 89 348 97 348C125 348 187 309 273 223C292 204 292 204 301 195Z"/><path id="z36008d2" d="M273 223C279 253 277 295 265 348C259 374 265 398 284 423C284 423 284 424 286 426C294 434 303 432 309 418C317 396 319 372 320 348C321 295 324 263 327 252C330 235 322 217 301 195C292 186 270 210 273 223Z"/><path id="z36008d3" d="M567 226C585 226 712 142 749 125C761 122 767 117 766 109C762 97 754 84 742 70C729 56 715 47 699 45C688 44 683 51 683 65C685 85 644 134 563 211C559 215 562 227 567 226Z"/><path id="z36008d4" d="M563 211C559 196 564 131 576 103C583 84 580 69 568 60C537 37 516 28 507 32C498 35 495 43 501 53C513 75 518 103 518 137C516 201 523 243 537 262C559 292 598 312 656 322C696 328 751 329 819 320C875 312 913 298 936 286C953 276 960 262 952 244C943 224 932 199 926 165C924 155 922 148 917 146C912 143 910 148 907 160C896 200 884 222 879 229C861 250 806 265 711 268C658 269 621 264 601 256C582 248 569 234 567 226C564 216 564 216 563 211Z"/><path id="z36008d5" d="M384 412C378 406 368 400 355 395C348 392 340 388 335 394C326 401 334 411 338 423C349 463 353 530 342 640C335 702 334 719 342 740C344 746 349 752 355 759C361 765 367 767 374 760C379 753 383 746 384 740C387 715 387 715 388 703C388 697 387 675 389 639C390 620 390 620 390 611C391 582 392 557 393 537C394 522 394 522 394 514C395 477 395 455 398 442C400 431 393 419 384 412Z"/><path id="z36008d6" d="M639 721C639 725 643 730 647 737C656 756 663 766 670 766C680 765 689 753 701 732C710 713 715 698 714 684C698 549 702 464 726 429C733 418 734 408 729 403C711 385 685 371 653 358C642 353 629 354 614 361C565 382 489 400 384 412C373 414 387 442 398 442C400 442 404 442 408 441C480 423 543 410 596 401C614 397 626 400 633 410C641 422 646 448 647 488C648 594 645 661 641 688C640 710 640 710 639 721Z"/><path id="z36008d7" d="M393 537C397 537 404 538 414 537C474 528 526 521 571 515C585 512 590 506 585 499C578 490 567 484 551 481C537 478 484 489 394 514C387 516 385 537 393 537Z"/><path id="z36008d8" d="M389 639C391 639 395 638 401 638C469 628 528 621 578 615C592 613 598 606 593 599C586 590 575 583 559 580C545 576 488 587 390 611C381 613 380 641 389 639Z"/><path id="z36008d9" d="M384 740C421 736 527 725 639 721C650 721 650 695 641 688C637 685 633 681 628 678C617 670 600 669 578 674C508 686 444 696 388 703C376 705 372 742 384 740Z"/><path id="z36008d10" d="M397 784C398 798 377 828 331 873C306 896 268 922 218 956C212 959 215 966 225 965C290 952 366 907 452 837C461 829 471 821 483 815C491 810 494 804 492 799C489 794 482 788 470 783C442 771 420 768 406 771C399 772 396 776 397 784Z"/><path id="z36008d11" d="M589 792C623 833 661 881 701 940C710 954 718 964 728 968C733 970 739 967 745 962C753 953 756 935 753 906C748 868 694 821 594 762C588 758 585 758 583 767C580 775 582 784 589 792Z"/></g>
<defs><clipPath id="z36008c1"><use href="#z36008d1"/></clipPath>
	<clipPath id="z36008c2"><use href="#z36008d2"/></clipPath>
	<clipPath id="z36008c3"><use href="#z36008d3"/></clipPath>
	<clipPath id="z36008c4"><use href="#z36008d4"/></clipPath>
	<clipPath id="z36008c5"><use href="#z36008d5"/></clipPath>
	<clipPath id="z36008c6"><use href="#z36008d6"/></clipPath>
	<clipPath id="z36008c7"><use href="#z36008d7"/></clipPath>
	<clipPath id="z36008c8"><use href="#z36008d8"/></clipPath>
	<clipPath id="z36008c9"><use href="#z36008d9"/></clipPath>
	<clipPath id="z36008c10"><use href="#z36008d10"/></clipPath>
	<clipPath id="z36008c11"><use href="#z36008d11"/></clipPath><marker id="guide-arrow" viewBox="0 0 16 16" refX="5" refY="5" markerWidth="4" markerHeight="4" orient="auto-start-reverse"><path d="M 0 0 L 10 5 L 0 10 z" fill="inherit"/></marker></defs>
<g class="strokes"><path pathLength="3333" clip-path="url(#z36008c1)" d="M319 54L345 100L331 121L202 261L93 341"/><path pathLength="3333" clip-path="url(#z36008c2)" d="M296 210L291 425"/><path pathLength="3333" clip-path="url(#z36008c3)" d="M693 50L716 107L567 217"/><path pathLength="3333" clip-path="url(#z36008c4)" d="M505 38L547 88L546 234L607 284L749 295L882 272L918 246L916 151"/><path pathLength="3333" clip-path="url(#z36008c5)" d="M341 402L371 452L360 760"/><path pathLength="3333" clip-path="url(#z36008c6)" d="M393 417L629 378L686 419L671 757"/><path pathLength="3333" clip-path="url(#z36008c7)" d="M399 530L580 500"/><path pathLength="3333" clip-path="url(#z36008c8)" d="M396 631L587 600"/><path pathLength="3333" clip-path="url(#z36008c9)" d="M390 732L638 700"/><path pathLength="3333" clip-path="url(#z36008c10)" d="M407 779L441 807L350 884L226 958"/><path pathLength="3333" clip-path="url(#z36008c11)" d="M589 769L698 876L730 964"/></g>
<g class="guides"><text class="g1" style="--gs:1" x="319" y="54">①</text><path class="g1 aligned" style="--gs:1" d="M319,54 Q345,100 338,110.5 Q331,121 266.5,191 Q202,261 147.5,301 Q147.5,301 93,341"/><path class="g1 offset" style="--gs:1" d="M223,54 Q236.62,84.61 232.95,91.6 Q229.29,98.59 195.5,145.17 Q161.71,191.76 133.17,218.38 Q133.17,218.38 104.62,245"/><text class="g2" style="--gs:2" x="296" y="210">②</text><path class="g2 aligned" style="--gs:2" d="M296,210 L291,425"/><path class="g2 offset" style="--gs:2" d="M416,210 L411,425"/><text class="g3" style="--gs:3" x="693" y="50">③</text><path class="g3 aligned" style="--gs:3" d="M693,50 Q716,107 697.38,120.75 Q585.63,203.25 567,217"/><path class="g3 offset" style="--gs:3" d="M597,50 Q608.5,78.5 599.19,85.38 Q543.31,126.63 534,133.5"/><text class="g4" style="--gs:4" x="505" y="38">④</text><path class="g4 aligned" style="--gs:4" d="M505,38 Q547,88 546.5,161 Q546,234 576.5,259 Q607,284 678,289.5 Q749,295 815.5,283.5 Q882,272 900,259 Q918,246 917,198.5 Q917,198.5 916,151"/><path class="g4 offset" style="--gs:4" d="M573.54,-30.54 Q598.81,19.46 598.51,92.46 Q598.21,165.46 616.56,190.46 Q634.91,215.46 677.62,220.96 Q720.33,226.46 760.34,214.96 Q800.34,203.46 811.17,190.46 Q822,177.46 821.4,129.96 Q821.4,129.96 820.8,82.46"/><text class="g5" style="--gs:5" x="341" y="402">⑤</text><path class="g5 aligned" style="--gs:5" d="M341,402 Q371,452 369.63,490.5 Q361.38,721.5 360,760"/><path class="g5 offset" style="--gs:5" d="M245,402 Q275,452 273.63,490.5 Q265.38,721.5 264,760"/><text class="g6" style="--gs:6" x="393" y="417">⑥</text><path class="g6 aligned" style="--gs:6" d="M393,417 Q629,378 643.25,388.25 Q686,419 682.25,503.5 Q674.75,672.5 671,757"/><path class="g6 offset" style="--gs:6" d="M393,513 Q532.34,474 540.76,481.65 Q566,504.61 563.79,567.71 Q559.36,693.9 557.14,757"/><text class="g7" style="--gs:7" x="399" y="530">⑦</text><path class="g7 aligned" style="--gs:7" d="M399,530 L580,500"/><path class="g7 offset" style="--gs:7" d="M399,626 L580,596"/><text class="g8" style="--gs:8" x="396" y="631">⑧</text><path class="g8 aligned" style="--gs:8" d="M396,631 L587,600"/><path class="g8 offset" style="--gs:8" d="M396,727 L587,696"/><text class="g9" style="--gs:9" x="390" y="732">⑨</text><path class="g9 aligned" style="--gs:9" d="M390,732 L638,700"/><path class="g9 offset" style="--gs:9" d="M390,828 L638,796"/><text class="g10" style="--gs:10" x="407" y="779">⑩</text><path class="g10 aligned" style="--gs:10" d="M407,779 Q441,807 418.25,826.25 Q350,884 319,902.5 Q257,939.5 226,958"/><path class="g10 offset" style="--gs:10" d="M311,779 Q329.82,793 317.23,802.63 Q279.45,831.5 262.29,840.75 Q227.98,859.25 210.82,868.5"/><text class="g11" style="--gs:11" x="589" y="769">⑪</text><path class="g11 aligned" style="--gs:11" d="M589,769 Q698,876 702,887 Q726,953 730,964"/><path class="g11 offset" style="--gs:11" d="M674.68,700.46 Q783.68,807.46 787.68,818.46 Q811.68,884.46 815.68,895.46"/></g>
</svg>
