<!--
  Stroke-order data for 販, derived from AnimCJK (https://github.com/parsimonhi/animCJK),
  itself derived from the Arphic PL KaitiM fonts. Distributed under the Arphic Public License
  (see ARPHICPL.TXT). Regenerated by scripts/build-strokes.ts — do not edit by hand.
-->
<svg id="z36009" class="acjk" viewBox="0 0 1024 1024" xmlns="http://www.w3.org/2000/svg">
<g class="glyph"><path id="z36009d1" d="M173 208C158 192 142 187 127 184C121 182 116 185 113 190C111 192 114 196 117 204C141 270 145 380 131 505C124 561 117 576 118 591C118 610 127 626 138 637C145 644 151 644 157 636C159 631 164 625 166 618C171 598 171 598 173 588C177 567 179 513 179 502C179 479 179 479 179 468C179 453 180 390 180 374C180 356 180 356 180 347C180 292 179 255 182 236C184 226 180 215 173 208Z"/><path id="z36009d2" d="M304 601C312 613 320 626 329 639C339 654 347 661 353 660C359 658 368 649 376 629C380 617 385 585 383 533C375 352 375 251 390 227C397 214 397 204 393 197C388 190 368 182 334 170C317 164 303 165 291 171C247 190 207 201 173 208C163 210 172 238 182 236C204 232 233 225 267 217C289 211 304 212 312 219C319 226 323 243 324 273C327 393 328 485 325 551C324 559 325 565 323 569C321 581 297 591 304 601Z"/><path id="z36009d3" d="M180 374C182 374 245 364 269 360C283 357 288 350 282 343C274 334 262 329 246 328C231 327 198 337 180 347C172 350 171 376 180 374Z"/><path id="z36009d4" d="M179 502C215 495 246 490 272 485C288 481 292 475 286 468C278 459 265 452 248 451C232 449 199 460 179 468C168 472 168 504 179 502Z"/><path id="z36009d5" d="M166 618Q244 608 304 601C316 599 335 574 323 569Q316 565 307 564Q280 558 173 588C163 591 156 620 166 618Z"/><path id="z36009d6" d="M162 682C158 722 119 784 43 864C31 875 33 877 50 874C93 864 143 823 199 749C213 729 225 715 232 707C238 698 239 691 238 686C235 678 225 673 208 670C189 666 177 665 170 668C165 669 162 673 162 682Z"/><path id="z36009d7" d="M268 694C295 739 317 761 330 764C338 765 345 762 350 751C353 743 351 732 347 720C342 709 333 701 320 694C298 682 284 673 276 670C270 667 266 670 265 678C264 682 264 688 268 694Z"/><path id="z36009d8" d="M550 241C576 243 617 238 672 224C774 196 827 178 833 173C839 167 839 161 836 156C831 148 818 142 798 139C777 136 757 140 737 150C681 176 591 200 531 212C520 214 538 241 550 241Z"/><path id="z36009d9" d="M522 437C527 399 541 267 550 241C552 230 540 219 531 212C503 190 480 180 466 187C457 190 455 199 461 208C472 224 479 253 479 296C466 442 459 519 436 599C403 708 355 793 299 881C295 886 293 890 292 894C290 900 292 904 300 903C318 899 355 860 407 783C421 761 433 737 445 711C479 634 505 550 519 458C521 444 521 444 522 437Z"/><path id="z36009d10" d="M699 676C728 627 754 562 771 480C776 455 781 436 794 424C804 413 803 402 789 393C774 382 754 374 730 368C715 364 700 366 686 376C649 399 603 419 549 430C538 432 529 433 522 437C515 440 512 457 519 458C537 464 568 460 614 445C636 437 659 430 682 423C697 418 705 422 706 440C707 502 691 566 660 633C653 646 646 658 639 671C633 679 628 688 622 696C589 737 528 772 443 805C432 808 431 813 439 818C444 821 457 819 476 816C533 806 579 792 613 772C633 759 653 742 671 719C681 705 690 690 699 676Z"/><path id="z36009d11" d="M671 719C729 806 776 850 803 854C858 861 910 862 956 861C980 860 991 856 990 851C988 844 934 822 834 777C784 754 739 720 699 676C673 647 673 647 660 633C643 614 628 595 613 576C592 549 570 535 549 532C538 530 531 530 529 534C526 537 530 544 540 552C559 567 595 605 639 671C660 703 660 703 671 719Z"/></g>
<defs><clipPath id="z36009c1"><use href="#z36009d1"/></clipPath>
	<clipPath id="z36009c2"><use href="#z36009d2"/></clipPath>
	<clipPath id="z36009c3"><use href="#z36009d3"/></clipPath>
	<clipPath id="z36009c4"><use href="#z36009d4"/></clipPath>
	<clipPath id="z36009c5"><use href="#z36009d5"/></clipPath>
	<clipPath id="z36009c6"><use href="#z36009d6"/></clipPath>
	<clipPath id="z36009c7"><use href="#z36009d7"/></clipPath>
	<clipPath id="z36009c8"><use href="#z36009d8"/></clipPath>
	<clipPath id="z36009c9"><use href="#z36009d9"/></clipPath>
	<clipPath id="z36009c10"><use href="#z36009d10"/></clipPath>
	<clipPath id="z36009c11"><use href="#z36009d11"/></clipPath><marker id="guide-arrow" viewBox="0 0 16 16" refX="5" refY="5" markerWidth="4" markerHeight="4" orient="auto-start-reverse"><path d="M 0 0 L 10 5 L 0 10 z" fill="inherit"/></marker></defs>
<g class="strokes"><path pathLength="3333" clip-path="url(#z36009c1)" d="M119 192L153 231L159 294L144 637"/><path pathLength="3333" clip-path="url(#z36009c2)" d="M180 211L306 189L357 219L351 655"/><path pathLength="3333" clip-path="url(#z36009c3)" d="M184 366L278 349"/><path pathLength="3333" clip-path="url(#z36009c4)" d="M186 493L281 473"/><path pathLength="3333" clip-path="url(#z36009c5)" d="M171 611L316 580"/><path pathLength="3333" clip-path="url(#z36009c6)" d="M174 676L197 704L130 796L44 869"/><path pathLength="3333" clip-path="url(#z36009c7)" d="M273 681L340 759"/><path pathLength="3333" clip-path="url(#z36009c8)" d="M538 213L599 218L832 159"/><path pathLength="3333" clip-path="url(#z36009c9)" d="M467 194L513 253L471 562L393 763L298 894"/><path pathLength="3333" clip-path="url(#z36009c10)" d="M524 453L702 394L753 426L704 601L638 717L570 769L443 812"/><path pathLength="3333" clip-path="url(#z36009c11)" d="M538 538L778 791L984 850"/></g>
<g class="guides"><text class="g1" style="--gs:1" x="119" y="192">①</text><path class="g1 aligned" style="--gs:1" d="M119,192 Q153,231 154.5,246.75 Q159,294 155.25,379.75 Q147.75,551.25 144,637"/><path class="g1 offset" style="--gs:1" d="M23,192 Q57,231 58.5,246.75 Q63,294 59.25,379.75 Q51.75,551.25 48,637"/><text class="g2" style="--gs:2" x="180" y="211">②</text><path class="g2 aligned" style="--gs:2" d="M180,211 Q306,189 318.75,196.5 Q357,219 355.5,328 Q352.5,546 351,655"/><path class="g2 offset" style="--gs:2" d="M180,307 Q243,285 249.38,290.95 Q268.5,308.82 267.75,395.36 Q266.25,568.45 265.5,655"/><text class="g3" style="--gs:3" x="184" y="366">③</text><path class="g3 aligned" style="--gs:3" d="M184,366 L278,349"/><path class="g3 offset" style="--gs:3" d="M184,462 L278,445"/><text class="g4" style="--gs:4" x="186" y="493">④</text><path class="g4 aligned" style="--gs:4" d="M186,493 L281,473"/><path class="g4 offset" style="--gs:4" d="M186,589 L281,569"/><text class="g5" style="--gs:5" x="171" y="611">⑤</text><path class="g5 aligned" style="--gs:5" d="M171,611 L316,580"/><path class="g5 offset" style="--gs:5" d="M171,707 L316,676"/><text class="g6" style="--gs:6" x="174" y="676">⑥</text><path class="g6 aligned" style="--gs:6" d="M186,690 Q130,796 119.25,805.13 Q54.75,859.88 44,869"/><path class="g6 offset" style="--gs:6" d="M90,690 Q62,743 56.63,747.56 Q24.38,774.94 19,779.5"/><text class="g7" style="--gs:7" x="273" y="681">⑦</text><path class="g7 aligned" style="--gs:7" d="M273,681 L340,759"/><path class="g7 offset" style="--gs:7" d="M358.68,612.46 L425.68,690.46"/><text class="g8" style="--gs:8" x="538" y="213">⑧</text><path class="g8 aligned" style="--gs:8" d="M538,213 Q599,218 628.13,210.63 Q802.88,166.38 832,159"/><path class="g8 offset" style="--gs:8" d="M538,309 Q599,314 628.13,306.63 Q802.88,262.38 832,255"/><text class="g9" style="--gs:9" x="467" y="194">⑨</text><path class="g9 aligned" style="--gs:9" d="M467,194 Q513,253 492,407.5 Q471,562 432,662.5 Q393,763 345.5,828.5 Q345.5,828.5 298,894"/><path class="g9 offset" style="--gs:9" d="M371,194 Q396.46,244.91 384.84,378.22 Q373.21,511.53 351.63,598.25 Q330.04,684.97 303.75,741.48 Q303.75,741.48 277.46,798"/><text class="g10" style="--gs:10" x="524" y="453">⑩</text><path class="g10 aligned" style="--gs:10" d="M524,453 Q702,394 727.5,410 Q753,426 728.5,513.5 Q704,601 671,659 Q638,717 604,743 Q570,769 506.5,790.5 Q506.5,790.5 443,812"/><path class="g10 offset" style="--gs:10" d="M428,549 Q550.88,517.1 568.48,525.75 Q586.08,534.4 569.17,581.71 Q552.26,629.02 529.48,660.38 Q506.7,691.74 483.23,705.79 Q459.75,719.85 415.92,731.48 Q415.92,731.48 372.08,743.1"/><text class="g11" style="--gs:11" x="538" y="538">⑪</text><path class="g11 aligned" style="--gs:11" d="M538,538 Q778,791 803.75,798.38 Q958.25,842.63 984,850"/><path class="g11 offset" style="--gs:11" d="M623.68,469.46 Q817.57,700.19 838.38,706.92 Q963.2,747.27 984,754"/></g>
</svg>
