<svg id="z36019" class="acjk" viewBox="0 0 1024 1024" xmlns="http://www.w3.org/2000/svg">
<style>

@keyframes zk {
	to {
		stroke-dashoffset:0;
	}
}
svg.acjk path[clip-path] {
	--t:0.8s;
	animation:zk var(--t) linear forwards var(--d);
	stroke-dasharray:3337;
	stroke-dashoffset:3339;
	stroke-width:128;
	stroke-linecap:round;
	fill:none;
	stroke:#000;
}
svg.acjk path[id] {fill:#ccc;}


    @keyframes guide-fade {
        0% { opacity: 0; }
        3% { opacity: 1; }
        95% { opacity: 1; }
        100% { opacity: 0; }
    }

    svg.acjk #guide-arrow {
        fill: #f77;
    }

    svg.acjk .guides {
        circle {
            fill: #0f6;
        }

        path {
            opacity: 0;
            animation: guide-fade var(--t) linear forwards var(--d);
            stroke-width: 16px;
            stroke-linecap: round;
            stroke: #f77;
            fill: none;
            marker-end: url(#guide-arrow);
        }

        circle,
        path {
            --t: 0.8s;
            opacity: 0;
            animation: guide-fade calc(var(--t) + 0.4s) ease-in-out forwards calc(var(--d) - 0.2s);
        }
    }
</style>
<path id="z36019d1" d="M588 186Q625 179 677 171Q747 159 754 152Q758 148 752 139Q725 117 684 117Q671 116 582 145C548 154 548 154 531 159Q521 160 513 163Q362 199 278 197Q268 196 263 201Q259 205 261 214Q264 223 310 249Q323 256 341 250Q464 211 539 196C572 189 572 189 588 186Z"/>
<path id="z36019d2" d="M284 310Q266 314 288 330Q298 337 319 334Q422 316 498 306Q522 302 513 288Q503 272 475 268Q450 264 407 276Q341 295 284 310Z"/>
<path id="z36019d3" d="M111 431Q99 432 97 440Q94 450 109 461Q149 486 185 471Q342 411 526 380Q542 377 542 370Q543 358 526 350Q499 340 478 346Q208 419 111 431Z"/>
<path id="z36019d4" d="M290 498Q281 489 256 480Q247 476 238 480Q231 484 237 495Q262 586 249 678Q237 729 271 764Q281 774 290 764Q294 755 297 745C300 737 300 727 300 718Q300 696 299 672C299 653 299 653 299 643Q298 618 298 598C298 581 298 581 298 573Q298 549 299 525C299 516 298 504 290 498Z"/>
<path id="z36019d5" d="M452 717Q491 783 496 784Q506 784 514 763Q527 723 523 621Q519 525 525 503Q532 484 522 476Q515 466 482 451Q466 444 433 457Q399 470 361 481Q330 490 290 498C281 500 290 527 299 525Q306 524 318 520Q367 501 435 489Q454 485 462 493Q471 502 468 627Q469 673 464 681Q460 690 448 688C438 688 446 709 452 717Z"/>
<path id="z36019d6" d="M418 571Q439 565 430 555Q420 542 396 541Q372 540 298 573C290 576 290 599 298 598C378 580 378 580 418 571Z"/>
<path id="z36019d7" d="M299 672Q299 671 300 671Q370 655 421 646Q442 642 433 631Q423 618 400 616Q379 615 299 643C290 647 290 676 299 672Z"/>
<path id="z36019d8" d="M297 745Q297 744 301 744Q386 728 452 717C462 715 458 688 448 688Q444 687 443 688Q442 687 439 687Q427 686 300 718C291 719 288 747 297 745Z"/>
<path id="z36019d9" d="M303 804Q257 859 180 919Q170 929 182 933Q212 936 291 879Q349 834 360 831Q375 825 371 810Q365 798 337 775Q328 768 319 769Q306 773 310 784Q314 796 303 804Z"/>
<path id="z36019d10" d="M432 817Q456 847 481 881Q488 893 500 894Q507 895 514 887Q518 877 517 855Q514 824 436 782Q426 778 420 778Q416 779 415 789Q416 798 432 817Z"/>
<path id="z36019d11" d="M539 196Q615 625 775 835Q845 923 898 965Q932 990 950 990Q966 991 975 977Q982 965 972 915Q959 846 963 769Q966 735 955 733Q945 733 936 762Q906 862 887 851Q841 824 771 720Q669 558 589 189Q588 188 588 186C584 159 584 159 582 145Q579 117 581 93Q590 63 584 51Q577 41 549 26Q524 11 507 10Q492 11 492 13Q467 20 490 46Q499 49 531 159C536 184 536 184 539 196Z"/>
<path id="z36019d12" d="M786 94Q819 116 854 144Q867 154 880 153Q890 152 893 140Q896 127 886 102Q879 81 847 69Q772 45 760 53Q756 57 758 68Q762 78 786 94Z"/>
<defs>
	<clipPath id="z36019c1"><use href="#z36019d1"/></clipPath>
	<clipPath id="z36019c2"><use href="#z36019d2"/></clipPath>
	<clipPath id="z36019c3"><use href="#z36019d3"/></clipPath>
	<clipPath id="z36019c4"><use href="#z36019d4"/></clipPath>
	<clipPath id="z36019c5"><use href="#z36019d5"/></clipPath>
	<clipPath id="z36019c6"><use href="#z36019d6"/></clipPath>
	<clipPath id="z36019c7"><use href="#z36019d7"/></clipPath>
	<clipPath id="z36019c8"><use href="#z36019d8"/></clipPath>
	<clipPath id="z36019c9"><use href="#z36019d9"/></clipPath>
	<clipPath id="z36019c10"><use href="#z36019d10"/></clipPath>
	<clipPath id="z36019c11"><use href="#z36019d11"/></clipPath>
	<clipPath id="z36019c12"><use href="#z36019d12"/></clipPath>
<marker id="guide-arrow" viewBox="0 0 16 16" refX="5" refY="5" markerWidth="4" markerHeight="4" orient="auto-start-reverse"><path d="M 0 0 L 10 5 L 0 10 z" fill="inherit"/></marker></defs>
<path style="--d:1s;" pathLength="3333" clip-path="url(#z36019c1)" d="M263 208L333 223L748 141"/>
<path style="--d:2s;" pathLength="3333" clip-path="url(#z36019c2)" d="M286 318L510 294"/>
<path style="--d:3s;" pathLength="3333" clip-path="url(#z36019c3)" d="M101 442L162 449L538 367"/>
<path style="--d:4s;" pathLength="3333" clip-path="url(#z36019c4)" d="M243 485L271 520L276 761"/>
<path style="--d:5s;" pathLength="3333" clip-path="url(#z36019c5)" d="M289 507L456 468L496 493L488 720L476 734L448 707"/>
<path style="--d:6s;" pathLength="3333" clip-path="url(#z36019c6)" d="M294 590L427 558"/>
<path style="--d:7s;" pathLength="3333" clip-path="url(#z36019c7)" d="M299 664L430 634"/>
<path style="--d:8s;" pathLength="3333" clip-path="url(#z36019c8)" d="M298 735L454 701"/>
<path style="--d:9s;" pathLength="3333" clip-path="url(#z36019c9)" d="M321 773L332 818L185 924"/>
<path style="--d:10s;" pathLength="3333" clip-path="url(#z36019c10)" d="M423 784L503 888"/>
<path style="--d:11s;" pathLength="3333" clip-path="url(#z36019c11)" d="M488 25L545 67L624 444L744 735L855 875L929 938L954 741"/>
<path style="--d:12s;" pathLength="3333" clip-path="url(#z36019c12)" d="M766 61L887 144"/>
<g class="guides"><circle style="--d: 1s" class="g1" cx="263" cy="208" r="16"/><path style="--d: 1s;" class="g1" d="M263,304 Q333,319 384.875,308.75 Q696.125,247.25 748,237"/><circle style="--d: 2s" class="g2" cx="286" cy="318" r="16"/><path style="--d: 2s;" class="g2" d="M286,414 L510,390"/><circle style="--d: 3s" class="g3" cx="101" cy="442" r="16"/><path style="--d: 3s;" class="g3" d="M101,538 Q162,545 209,534.75 Q491,473.25 538,463"/><circle style="--d: 4s" class="g4" cx="243" cy="485" r="16"/><path style="--d: 4s;" class="g4" d="M328.68,416.456 Q356.68,451.456 357.305,481.581 Q361.055,662.331 361.68,692.456"/><circle style="--d: 5s" class="g5" cx="289" cy="507" r="16"/><path style="--d: 5s;" class="g5" d="M289,603 Q389.8454106280193,564 401.92270531400965,576.5 Q414,589 411.5845410628019,702.5 Q409.16908212560384,816 401.3188405797101,816.5 Q401.3188405797101,816.5 393.4685990338164,817"/><circle style="--d: 6s" class="g6" cx="294" cy="590" r="16"/><path style="--d: 6s;" class="g6" d="M294,686 L427,654"/><circle style="--d: 7s" class="g7" cx="299" cy="664" r="16"/><path style="--d: 7s;" class="g7" d="M299,760 L430,730"/><circle style="--d: 8s" class="g8" cx="298" cy="735" r="16"/><path style="--d: 8s;" class="g8" d="M298,831 L454,797"/><circle style="--d: 9s" class="g9" cx="321" cy="773" r="16"/><path style="--d: 9s;" class="g9" d="M225,773 Q230.5,795.5 221.3125,802.125 Q166.1875,841.875 157,848.5"/><circle style="--d: 10s" class="g10" cx="423" cy="784" r="16"/><path style="--d: 10s;" class="g10" d="M508.68,715.456 L588.68,819.456"/><circle style="--d: 11s" class="g11" cx="488" cy="25" r="16"/><path style="--d: 11s;" class="g11" d="M556.544,-43.544 Q593.4173733905579,-1.543999999999997 618.969974248927,186.95600000000002 Q644.5225751072961,375.456 683.336652360515,520.956 Q722.1507296137339,666.456 758.0537510729614,736.456 Q793.9567725321889,806.456 817.8921201716738,837.956 Q841.8274678111587,869.456 849.9137339055794,770.956 Q849.9137339055794,770.956 858,672.456"/><circle style="--d: 12s" class="g12" cx="766" cy="61" r="16"/><path style="--d: 12s;" class="g12" d="M851.68,-7.543999999999997 L972.68,75.456"/></g></svg>