<svg id="z36040" class="acjk" viewBox="0 0 1024 1024" xmlns="http://www.w3.org/2000/svg">
<style>

@keyframes zk {
	to {
		stroke-dashoffset:0;
	}
}
svg.acjk path[clip-path] {
	--t:0.8s;
	animation:zk var(--t) linear forwards var(--d);
	stroke-dasharray:3337;
	stroke-dashoffset:3339;
	stroke-width:128;
	stroke-linecap:round;
	fill:none;
	stroke:#000;
}
svg.acjk path[id] {fill:#ccc;}


    @keyframes guide-fade {
        0% { opacity: 0; }
        3% { opacity: 1; }
        95% { opacity: 1; }
        100% { opacity: 0; }
    }

    svg.acjk #guide-arrow {
        fill: #f77;
    }

    svg.acjk .guides {
        circle {
            fill: #0f6;
        }

        path {
            opacity: 0;
            animation: guide-fade var(--t) linear forwards var(--d);
            stroke-width: 16px;
            stroke-linecap: round;
            stroke: #f77;
            fill: none;
            marker-end: url(#guide-arrow);
        }

        circle,
        path {
            --t: 0.8s;
            opacity: 0;
            animation: guide-fade calc(var(--t) + 0.4s) ease-in-out forwards calc(var(--d) - 0.2s);
        }
    }
</style>
<path id="z36040d1" d="M574 99C639 87 652 86 674 75C696 61 671 46 644 40C595 28 596 61 298 97C261 101 265 112 281 124C289 129 328 138 355 135C382 131 382 131 396 129C436 123 485 114 521 108C556 102 556 102 574 99Z"/>
<path id="z36040d2" d="M236 227C229 224 216 222 196 221C173 219 177 235 185 247C203 275 221 315 238 366C242 380 248 392 259 402C275 416 284 412 283 395C282 384 283 372 280 362C272 337 270 326 257 264C255 250 249 232 236 227Z"/>
<path id="z36040d3" d="M699 347C718 397 734 386 765 325C782 290 802 261 830 243C844 232 847 221 837 210C825 196 804 176 769 157C731 135 735 140 588 167C547 174 547 174 527 178C508 181 449 192 427 197C393 204 393 204 376 207C321 217 274 222 236 227C222 229 243 267 257 264C281 258 331 243 380 235C412 230 412 230 428 227C456 222 489 216 525 211C561 206 561 206 579 203C627 195 665 191 692 191C722 192 743 198 735 225C719 277 713 309 705 321C700 329 696 339 699 347Z"/>
<path id="z36040d4" d="M355 135C370 159 372 183 376 207C379 226 379 226 380 235C383 262 386 297 392 345C394 358 432 352 432 338C430 295 429 261 428 227C427 207 427 207 427 197C425 162 426 142 396 129C383 124 347 124 355 135Z"/>
<path id="z36040d5" d="M588 167C599 121 614 128 574 99C560 88 512 93 521 108C534 132 528 153 527 178C526 200 526 200 525 211C522 247 516 285 512 327C509 340 549 333 551 320C559 279 569 240 579 203C585 179 585 179 588 167Z"/>
<path id="z36040d6" d="M283 395C433 371 577 355 699 347C708 347 711 327 705 321C671 284 643 301 551 318C525 323 525 323 512 325C498 327 454 334 432 338C405 343 405 343 392 345C352 351 314 356 280 362C269 364 272 397 283 395Z"/>
<path id="z36040d7" d="M365 449C352 438 338 429 323 428C306 426 308 437 313 448C336 501 333 590 318 674C315 688 311 702 315 724C321 765 342 802 361 751C365 739 366 727 369 715C373 693 375 671 375 650C375 633 375 633 375 625C375 586 375 586 375 566C375 549 375 549 375 540C375 509 376 488 378 477C380 467 373 455 365 449Z"/>
<path id="z36040d8" d="M611 726C631 799 653 808 678 742C683 727 692 704 690 673C681 566 681 498 701 467C707 456 709 446 704 441C686 423 660 409 628 396C617 391 604 392 589 399C538 418 464 435 365 449C355 451 368 479 378 477C441 462 509 448 568 438C617 428 615 489 617 517C621 572 619 668 612 699C611 717 611 717 611 726Z"/>
<path id="z36040d9" d="M375 566C399 568 474 553 562 544C576 542 582 536 577 528C570 517 558 511 541 508C525 505 469 516 375 540C367 542 366 566 375 566Z"/>
<path id="z36040d10" d="M375 650C397 653 450 642 562 628C576 626 582 620 577 612C570 601 558 595 541 592C525 589 469 600 375 625C367 626 367 650 375 650Z"/>
<path id="z36040d11" d="M361 751C383 752 539 730 611 726C620 726 620 704 612 699C564 663 585 692 369 715C357 717 349 751 361 751Z"/>
<path id="z36040d12" d="M394 779C383 818 325 873 219 940C203 949 204 952 224 953C270 954 334 925 418 861C438 844 454 833 465 826C474 819 477 812 477 805C476 795 466 786 449 778C429 768 416 763 407 764C400 764 396 769 394 779Z"/>
<path id="z36040d13" d="M571 814C601 850 636 893 673 944C683 958 692 969 703 973C708 974 714 970 721 965C730 956 731 937 727 905C723 877 699 848 649 820C617 801 591 790 575 781C568 777 564 778 563 788C561 796 564 805 571 814Z"/>
<defs>
	<clipPath id="z36040c1"><use href="#z36040d1"/></clipPath>
	<clipPath id="z36040c2"><use href="#z36040d2"/></clipPath>
	<clipPath id="z36040c3"><use href="#z36040d3"/></clipPath>
	<clipPath id="z36040c4"><use href="#z36040d4"/></clipPath>
	<clipPath id="z36040c5"><use href="#z36040d5"/></clipPath>
	<clipPath id="z36040c6"><use href="#z36040d6"/></clipPath>
	<clipPath id="z36040c7"><use href="#z36040d7"/></clipPath>
	<clipPath id="z36040c8"><use href="#z36040d8"/></clipPath>
	<clipPath id="z36040c9"><use href="#z36040d9"/></clipPath>
	<clipPath id="z36040c10"><use href="#z36040d10"/></clipPath>
	<clipPath id="z36040c11"><use href="#z36040d11"/></clipPath>
	<clipPath id="z36040c12"><use href="#z36040d12"/></clipPath>
	<clipPath id="z36040c13"><use href="#z36040d13"/></clipPath>
<marker id="guide-arrow" viewBox="0 0 16 16" refX="5" refY="5" markerWidth="4" markerHeight="4" orient="auto-start-reverse"><path d="M 0 0 L 10 5 L 0 10 z" fill="inherit"/></marker></defs>
<path style="--d:1s;" pathLength="3333" clip-path="url(#z36040c1)" d="M275 110L675 61"/>
<path style="--d:2s;" pathLength="3333" clip-path="url(#z36040c2)" d="M187 230L229 265L271 404"/>
<path style="--d:3s;" pathLength="3333" clip-path="url(#z36040c3)" d="M237 233L736 171L789 224L715 371"/>
<path style="--d:4s;" pathLength="3333" clip-path="url(#z36040c4)" d="M362 133L397 169L413 349"/>
<path style="--d:5s;" pathLength="3333" clip-path="url(#z36040c5)" d="M527 103L564 136L526 330"/>
<path style="--d:6s;" pathLength="3333" clip-path="url(#z36040c6)" d="M275 378L704 324"/>
<path style="--d:7s;" pathLength="3333" clip-path="url(#z36040c7)" d="M319 436L352 496L338 768"/>
<path style="--d:8s;" pathLength="3333" clip-path="url(#z36040c8)" d="M369 457L602 417L649 447L646 782"/>
<path style="--d:9s;" pathLength="3333" clip-path="url(#z36040c9)" d="M374 556L573 530"/>
<path style="--d:10s;" pathLength="3333" clip-path="url(#z36040c10)" d="M376 640L572 612"/>
<path style="--d:11s;" pathLength="3333" clip-path="url(#z36040c11)" d="M358 740L613 711"/>
<path style="--d:12s;" pathLength="3333" clip-path="url(#z36040c12)" d="M405 771L425 813L299 912L217 945"/>
<path style="--d:13s;" pathLength="3333" clip-path="url(#z36040c13)" d="M570 785L672 881L712 968"/>
<g class="guides"><circle style="--d: 1s" class="g1" cx="275" cy="110" r="16"/><path style="--d: 1s;" class="g1" d="M275,206 L675,157"/><circle style="--d: 2s" class="g2" cx="187" cy="230" r="16"/><path style="--d: 2s;" class="g2" d="M272.68,161.45600000000002 Q314.68,196.45600000000002 319.93,213.83100000000002 Q351.43,318.081 356.68,335.456"/><circle style="--d: 3s" class="g3" cx="237" cy="233" r="16"/><path style="--d: 3s;" class="g3" d="M237,329 Q627.5217391304348,267 637.891304347826,280.25 Q669,320 654.5217391304348,332.75 Q625.5652173913044,358.25 611.0869565217391,371"/><circle style="--d: 4s" class="g4" cx="362" cy="133" r="16"/><path style="--d: 4s;" class="g4" d="M447.68,64.456 Q482.68,100.456 484.68,122.956 Q496.68,257.956 498.68,280.456"/><circle style="--d: 5s" class="g5" cx="527" cy="103" r="16"/><path style="--d: 5s;" class="g5" d="M431,103 Q468,136 463.25,160.25 Q434.75,305.75 430,330"/><circle style="--d: 6s" class="g6" cx="275" cy="378" r="16"/><path style="--d: 6s;" class="g6" d="M275,474 L704,420"/><circle style="--d: 7s" class="g7" cx="319" cy="436" r="16"/><path style="--d: 7s;" class="g7" d="M439,436 Q472,496 470.25,530 Q459.75,734 458,768"/><circle style="--d: 8s" class="g8" cx="369" cy="457" r="16"/><path style="--d: 8s;" class="g8" d="M369,553 Q502.1428571428571,513 508.85714285714283,520.5 Q529,543 528.5714285714286,602.75 Q527.7142857142858,722.25 527.2857142857143,782"/><circle style="--d: 9s" class="g9" cx="374" cy="556" r="16"/><path style="--d: 9s;" class="g9" d="M374,652 L573,626"/><circle style="--d: 10s" class="g10" cx="376" cy="640" r="16"/><path style="--d: 10s;" class="g10" d="M376,736 L572,708"/><circle style="--d: 11s" class="g11" cx="358" cy="740" r="16"/><path style="--d: 11s;" class="g11" d="M358,836 L613,807"/><circle style="--d: 12s" class="g12" cx="405" cy="771" r="16"/><path style="--d: 12s;" class="g12" d="M309,771 Q319,792 303.25,804.375 Q256,841.5 245.75,845.625 Q225.25,853.875 215,858"/><circle style="--d: 13s" class="g13" cx="570" cy="785" r="16"/><path style="--d: 13s;" class="g13" d="M655.68,716.456 Q757.68,812.456 762.68,823.331 Q792.68,888.581 797.68,899.456"/></g></svg>