<!--
  Stroke-order data for 賊, derived from AnimCJK (https://github.com/parsimonhi/animCJK),
  itself derived from the Arphic PL KaitiM fonts. Distributed under the Arphic Public License
  (see ARPHICPL.TXT). Regenerated by scripts/build-strokes.ts — do not edit by hand.
-->
<svg id="z36042" class="acjk" viewBox="0 0 1024 1024" xmlns="http://www.w3.org/2000/svg">
<g class="glyph"><path style="--part:1" id="z36042d1" d="M203 235C189 224 173 216 157 212C152 210 147 213 143 219C140 221 144 225 148 234C177 297 184 394 164 520C156 564 149 591 153 602C159 622 166 637 173 645C179 653 186 652 193 644C197 637 202 631 204 623C206 611 209 600 211 589C213 562 215 540 215 504C215 483 215 483 215 473C215 448 213 419 213 387C213 369 213 369 213 360C213 311 214 279 216 263C218 253 211 241 203 235Z"/><path style="--part:1" id="z36042d2" d="M337 607C342 619 347 634 356 649C376 683 388 675 404 643C413 622 415 598 414 572C406 383 411 275 427 249C434 236 435 226 429 218C423 210 403 201 368 190C349 184 335 185 323 192C279 213 239 226 203 235C193 237 206 265 216 263C236 259 263 250 300 239C322 231 337 232 345 239C351 245 355 262 356 291C358 385 356 461 354 520C354 542 351 561 343 580C340 589 334 598 337 607Z"/><path style="--part:1" id="z36042d3" d="M213 387C226 388 282 376 313 372C327 369 331 363 325 355C318 346 306 340 290 339C265 336 239 344 213 360C205 365 204 387 213 387Z"/><path style="--part:1" id="z36042d4" d="M215 504C232 504 283 494 311 491C325 489 330 482 325 475C318 466 307 458 291 458C263 456 241 461 215 473C205 477 205 504 215 504Z"/><path style="--part:1" id="z36042d5" d="M204 623C218 627 300 609 337 607C346 607 351 585 343 580C305 554 248 578 211 589C200 593 193 621 204 623Z"/><path style="--part:1" id="z36042d6" d="M197 671C192 710 146 771 56 852C43 862 45 864 62 863C104 858 159 818 228 742C244 723 257 710 266 701C272 693 273 686 272 680C269 672 260 666 245 662C226 656 213 654 206 657C201 658 197 662 197 671Z"/><path style="--part:1" id="z36042d7" d="M331 721C347 745 364 772 383 801C388 809 396 815 405 818C411 819 416 817 421 811C425 803 427 790 428 773C428 756 420 739 401 723C359 688 331 670 320 673C316 673 313 679 313 687C312 693 319 704 331 721Z"/><path style="--part:2" id="z36042d8" d="M680 369C710 361 743 354 778 347C810 339 829 331 835 327C840 322 842 316 839 311C834 304 822 297 804 293C785 289 743 306 672 326C640 335 640 335 624 339C579 351 531 357 480 364C457 367 454 375 471 386C498 402 530 404 565 395C585 389 608 385 632 380C664 373 664 373 680 369Z"/><path style="--part:2" id="z36042d9" d="M552 586C571 581 591 574 614 569C624 566 631 564 633 562C637 557 639 551 636 546C631 538 619 534 601 532C584 529 568 534 553 540C524 551 524 551 509 556C494 561 476 562 461 565C438 568 436 578 454 587C470 595 489 600 510 596C538 589 538 589 552 586Z"/><path style="--part:2" id="z36042d10" d="M510 596C510 628 505 666 497 709C492 733 497 756 516 778C521 784 528 785 534 778C546 761 552 721 552 658C552 634 551 609 552 586C552 570 553 540 553 540C553 519 554 498 559 477C562 462 559 453 547 446C536 439 526 432 516 428C508 424 501 425 496 429C491 432 488 440 492 449C498 467 507 502 509 556C510 583 510 583 510 596Z"/><path style="--part:2" id="z36042d11" d="M715 658C754 756 808 833 878 888C921 921 954 936 975 933C989 930 991 917 987 898C980 869 978 812 976 729C975 714 972 706 966 706C961 706 959 714 954 727C928 782 908 811 897 810C887 809 876 801 865 790C818 744 775 690 751 623C738 588 738 588 732 571C707 504 692 436 680 369C675 340 675 340 672 326C659 256 657 195 666 146C671 114 657 93 616 79C589 69 569 66 555 72C540 78 532 90 544 102C575 134 595 157 598 183C604 239 614 291 624 339C629 366 629 366 632 380C646 453 664 533 698 616C709 644 709 644 715 658Z"/><path style="--part:2" id="z36042d12" d="M698 616C677 642 632 678 594 715C586 724 589 728 601 727C622 723 665 706 715 658C739 635 739 635 751 623C780 594 791 569 870 471C877 461 877 451 867 441C837 413 813 401 796 403C787 403 784 409 785 420C786 461 773 516 732 571C709 601 709 601 698 616Z"/><path style="--part:2" id="z36042d13" d="M752 174C772 188 794 205 817 225C827 233 838 236 849 235C856 233 862 229 865 220C867 209 865 193 857 173C847 150 808 134 743 124C732 122 724 121 720 125C716 127 715 133 717 143C718 150 731 159 752 174Z"/></g>
<defs><clipPath id="z36042c1"><use href="#z36042d1"/></clipPath>
	<clipPath id="z36042c2"><use href="#z36042d2"/></clipPath>
	<clipPath id="z36042c3"><use href="#z36042d3"/></clipPath>
	<clipPath id="z36042c4"><use href="#z36042d4"/></clipPath>
	<clipPath id="z36042c5"><use href="#z36042d5"/></clipPath>
	<clipPath id="z36042c6"><use href="#z36042d6"/></clipPath>
	<clipPath id="z36042c7"><use href="#z36042d7"/></clipPath>
	<clipPath id="z36042c8"><use href="#z36042d8"/></clipPath>
	<clipPath id="z36042c9"><use href="#z36042d9"/></clipPath>
	<clipPath id="z36042c10"><use href="#z36042d10"/></clipPath>
	<clipPath id="z36042c11"><use href="#z36042d11"/></clipPath>
	<clipPath id="z36042c12"><use href="#z36042d12"/></clipPath>
	<clipPath id="z36042c13"><use href="#z36042d13"/></clipPath><marker id="guide-arrow" viewBox="0 0 16 16" refX="5" refY="5" markerWidth="4" markerHeight="4" orient="auto-start-reverse"><path d="M 0 0 L 10 5 L 0 10 z" fill="inherit"/></marker></defs>
<g class="strokes"><path style="--part:1" pathLength="3333" clip-path="url(#z36042c1)" d="M149 220L186 257L191 299L182 645"/><path style="--part:1" pathLength="3333" clip-path="url(#z36042c2)" d="M205 240L340 210L391 236L370 664"/><path style="--part:1" pathLength="3333" clip-path="url(#z36042c3)" d="M213 377L321 359"/><path style="--part:1" pathLength="3333" clip-path="url(#z36042c4)" d="M211 493L322 475"/><path style="--part:1" pathLength="3333" clip-path="url(#z36042c5)" d="M205 615L342 588"/><path style="--part:1" pathLength="3333" clip-path="url(#z36042c6)" d="M206 665L226 703L56 858"/><path style="--part:1" pathLength="3333" clip-path="url(#z36042c7)" d="M320 679L390 755L410 814"/><path style="--part:2" pathLength="3333" clip-path="url(#z36042c8)" d="M468 374L545 377L835 311"/><path style="--part:2" pathLength="3333" clip-path="url(#z36042c9)" d="M449 573L630 548"/><path style="--part:2" pathLength="3333" clip-path="url(#z36042c10)" d="M498 434L530 484L521 776"/><path style="--part:2" pathLength="3333" clip-path="url(#z36042c11)" d="M546 90L627 138L676 471L776 728L870 837L956 882L967 715"/><path style="--part:2" pathLength="3333" clip-path="url(#z36042c12)" d="M793 407L828 457L798 517L714 630L600 717"/><path style="--part:2" pathLength="3333" clip-path="url(#z36042c13)" d="M722 129L824 185L850 231"/></g>
<g class="guides"><text class="g1" style="--gs:1" x="149" y="220">①</text><path class="g1 aligned" style="--gs:1" d="M149,220 Q186,257 187.25,267.5 Q191,299 188.75,385.5 Q184.25,558.5 182,645"/><path class="g1 offset" style="--gs:1" d="M53,220 Q90,257 91.25,267.5 Q95,299 92.75,385.5 Q88.25,558.5 86,645"/><text class="g2" style="--gs:2" x="205" y="240">②</text><path class="g2 aligned" style="--gs:2" d="M205,240 Q340,210 352.75,216.5 Q391,236 385.75,343 Q375.25,557 370,664"/><path class="g2 offset" style="--gs:2" d="M205,336 Q272.5,306 278.88,312.5 Q298,332 295.38,415 Q290.13,581 287.5,664"/><text class="g3" style="--gs:3" x="213" y="377">③</text><path class="g3 aligned" style="--gs:3" d="M213,377 L321,359"/><path class="g3 offset" style="--gs:3" d="M213,473 L321,455"/><text class="g4" style="--gs:4" x="211" y="493">④</text><path class="g4 aligned" style="--gs:4" d="M211,493 L322,475"/><path class="g4 offset" style="--gs:4" d="M211,589 L322,571"/><text class="g5" style="--gs:5" x="205" y="615">⑤</text><path class="g5 aligned" style="--gs:5" d="M205,615 L342,588"/><path class="g5 offset" style="--gs:5" d="M205,711 L342,684"/><text class="g6" style="--gs:6" x="206" y="665">⑥</text><path class="g6 aligned" style="--gs:6" d="M206,665 Q226,703 204.75,722.38 Q77.25,838.63 56,858"/><path class="g6 offset" style="--gs:6" d="M110,665 Q120,684.1 109.38,693.84 Q45.63,752.26 35,762"/><text class="g7" style="--gs:7" x="320" y="679">⑦</text><path class="g7 aligned" style="--gs:7" d="M320,679 Q390,755 392.5,762.38 Q407.5,806.63 410,814"/><path class="g7 offset" style="--gs:7" d="M405.68,610.46 Q475.68,686.46 478.18,693.83 Q493.18,738.08 495.68,745.46"/><text class="g8" style="--gs:8" x="468" y="374">⑧</text><path class="g8 aligned" style="--gs:8" d="M468,374 Q545,377 581.25,368.75 Q798.75,319.25 835,311"/><path class="g8 offset" style="--gs:8" d="M468,470 Q545,473 581.25,464.75 Q798.75,415.25 835,407"/><text class="g9" style="--gs:9" x="449" y="573">⑨</text><path class="g9 aligned" style="--gs:9" d="M449,573 L630,548"/><path class="g9 offset" style="--gs:9" d="M449,669 L630,644"/><text class="g10" style="--gs:10" x="498" y="434">⑩</text><path class="g10 aligned" style="--gs:10" d="M498,434 Q530,484 528.88,520.5 Q522.13,739.5 521,776"/><path class="g10 offset" style="--gs:10" d="M402,434 Q434,484 432.88,520.5 Q426.13,739.5 425,776"/><text class="g11" style="--gs:11" x="546" y="90">⑪</text><path class="g11 aligned" style="--gs:11" d="M546,90 Q627,138 651.5,304.5 Q676,471 726,599.5 Q776,728 823,782.5 Q870,837 913,859.5 Q956,882 961.5,798.5 Q961.5,798.5 967,715"/><path class="g11 offset" style="--gs:11" d="M614.54,21.46 Q663.89,69.46 678.81,235.96 Q693.73,402.46 724.19,530.96 Q754.65,659.46 783.28,713.96 Q811.91,768.46 838.11,790.96 Q864.3,813.46 867.65,729.96 Q867.65,729.96 871,646.46"/><text class="g12" style="--gs:12" x="793" y="407">⑫</text><path class="g12 aligned" style="--gs:12" d="M793,407 Q828,457 813,487 Q798,517 756,573.5 Q714,630 657,673.5 Q657,673.5 600,717"/><path class="g12 offset" style="--gs:12" d="M697,407 Q717.26,441.52 708.58,462.23 Q699.89,482.94 675.58,521.94 Q651.26,560.94 618.26,590.97 Q618.26,590.97 585.26,621"/><text class="g13" style="--gs:13" x="722" y="129">⑬</text><path class="g13 aligned" style="--gs:13" d="M722,129 Q824,185 827.25,190.75 Q846.75,225.25 850,231"/><path class="g13 offset" style="--gs:13" d="M722,225 Q773,253 774.63,255.88 Q784.38,273.13 786,276"/></g>
<g class="parts"><rect data-part="2" data-literal="戎" role="button" tabindex="0" aria-label="Part 戎" x="377" y="18" width="647" height="936"/><rect data-part="1" data-literal="貝" data-radical="true" role="button" tabindex="0" aria-label="Part 貝 (radical)" x="0" y="138" width="482" height="792"/></g>
</svg>
