<!--
  Stroke-order data for 賓, derived from AnimCJK (https://github.com/parsimonhi/animCJK),
  itself derived from the Arphic PL KaitiM fonts. Distributed under the Arphic Public License
  (see ARPHICPL.TXT). Regenerated by scripts/build-strokes.ts — do not edit by hand.
-->
<svg id="z36051" class="acjk" viewBox="0 0 1024 1024" xmlns="http://www.w3.org/2000/svg">
<g class="glyph"><path style="--part:1" id="z36051d1" d="M481 81C496 91 510 104 526 118C535 126 546 129 558 128C564 127 570 122 573 112C575 101 572 85 564 66C557 51 526 38 471 31C460 29 452 30 448 33C444 35 443 41 446 51C447 57 460 67 481 81Z"/><path style="--part:1" id="z36051d2" d="M281 191Q263 155 258 152Q240 136 237 162Q243 201 181 262Q160 283 185 338Q203 362 218 338Q230 320 270 229C275 217 287 203 281 191Z"/><path style="--part:1" id="z36051d3" d="M270 229C278 231 299 235 331 227C422 203 542 177 694 165C722 162 742 161 753 164C763 165 767 170 766 176C765 176 752 203 720 254C713 263 710 269 715 272C720 275 729 272 742 266C783 243 821 229 854 224C880 219 894 213 894 206C893 199 868 177 823 136C804 119 773 118 727 126C670 135 552 148 373 177C342 182 311 187 281 191C268 194 257 226 270 229Z"/><path style="--part:1" id="z36051d4" d="M476 283C502 276 528 270 556 265C576 260 588 255 592 252C596 247 597 242 595 238C590 231 579 225 563 222C546 218 529 222 512 229C488 238 463 245 439 252C410 259 379 263 347 268C326 271 323 278 338 288C366 306 380 305 434 293C462 286 462 286 476 283Z"/><path style="--part:2" id="z36051d5" d="M486 407Q489 400 489 393Q489 354 497 319Q504 300 486 289Q482 285 476 283C463 278 429 280 434 293Q447 317 440 394Q437 409 454 434C461 446 481 420 486 407Z"/><path style="--part:2" id="z36051d6" d="M284 325C270 356 255 387 237 416C224 435 225 457 237 480C242 490 251 493 264 484C297 459 309 423 310 380C310 359 312 340 307 325C305 319 300 316 296 316C291 315 286 319 284 325Z"/><path style="--part:2" id="z36051d7" d="M640 335C654 345 685 375 702 389C711 397 721 400 734 399C740 398 745 393 749 383C751 373 732 342 716 324C697 304 663 289 630 285C619 283 610 284 607 287C603 289 602 296 605 305C606 312 619 321 640 335Z"/><path style="--part:2" id="z36051d8" d="M475 471C507 447 569 411 608 396C619 391 626 390 628 383C628 379 624 373 618 368C600 353 582 341 566 336C556 332 548 337 542 345C530 360 489 403 486 407C465 425 465 425 454 434C438 447 421 460 403 474C380 491 380 491 368 500C249 588 140 648 52 692C47 694 45 697 45 699C45 701 48 702 53 702C97 696 131 685 156 673C225 638 300 596 375 543C442 495 442 495 475 471Z"/><path style="--part:3" id="z36051d9" d="M403 474Q387 464 371 460Q362 459 357 466Q354 472 361 481Q365 490 368 500C373 529 373 529 375 543Q382 642 368 700Q362 724 367 743Q367 744 368 747Q375 769 386 781Q396 793 405 780Q409 774 412 768C419 757 418 742 421 729Q424 710 425 662C425 647 425 647 425 639C425 603 425 603 425 585C425 569 425 569 425 561Q425 521 427 508C430 494 414 482 403 474Z"/><path style="--part:3" id="z36051d10" d="M654 748C654 754 657 760 662 766C672 784 680 794 686 794C696 793 706 781 716 759C726 740 729 718 726 694C713 589 716 522 735 492C741 481 742 473 737 467C718 451 693 436 663 424C652 421 639 422 624 428C598 438 539 458 475 471C461 473 429 475 403 474C389 474 413 510 427 508C480 494 557 475 607 467C623 463 635 465 642 475C650 485 655 507 656 542C660 642 659 701 655 721C654 739 654 739 654 748Z"/><path style="--part:3" id="z36051d11" d="M425 585Q432 586 442 585Q532 572 599 563Q621 559 613 547Q603 534 579 529Q564 526 425 561C417 563 417 585 425 585Z"/><path style="--part:3" id="z36051d12" d="M602 646Q624 645 617 631Q607 618 584 612Q560 608 425 639C417 640 417 662 425 662C543 651 543 651 602 646Z"/><path style="--part:3" id="z36051d13" d="M412 768Q490 756 654 748C663 748 661 727 655 721Q648 714 636 706Q620 696 586 703Q496 721 421 729C408 732 399 771 412 768Z"/><path style="--part:3" id="z36051d14" d="M432 801C415 843 354 897 247 960C231 969 232 972 251 973C295 974 361 948 446 888C448 886 464 872 499 848C507 841 511 834 511 828C510 819 501 810 485 802C466 792 453 787 445 788C440 788 435 792 432 801Z"/><path style="--part:3" id="z36051d15" d="M612 827C645 859 683 898 723 945C733 957 742 966 753 970C757 971 762 967 769 961C777 952 776 934 770 905C762 873 711 836 614 796C607 793 603 795 603 803C601 811 604 820 612 827Z"/></g>
<defs><clipPath id="z36051c1"><use href="#z36051d1"/></clipPath>
	<clipPath id="z36051c2"><use href="#z36051d2"/></clipPath>
	<clipPath id="z36051c3"><use href="#z36051d3"/></clipPath>
	<clipPath id="z36051c4"><use href="#z36051d4"/></clipPath>
	<clipPath id="z36051c5"><use href="#z36051d5"/></clipPath>
	<clipPath id="z36051c6"><use href="#z36051d6"/></clipPath>
	<clipPath id="z36051c7"><use href="#z36051d7"/></clipPath>
	<clipPath id="z36051c8"><use href="#z36051d8"/></clipPath>
	<clipPath id="z36051c9"><use href="#z36051d9"/></clipPath>
	<clipPath id="z36051c10"><use href="#z36051d10"/></clipPath>
	<clipPath id="z36051c11"><use href="#z36051d11"/></clipPath>
	<clipPath id="z36051c12"><use href="#z36051d12"/></clipPath>
	<clipPath id="z36051c13"><use href="#z36051d13"/></clipPath>
	<clipPath id="z36051c14"><use href="#z36051d14"/></clipPath>
	<clipPath id="z36051c15"><use href="#z36051d15"/></clipPath><marker id="guide-arrow" viewBox="0 0 16 16" refX="5" refY="5" markerWidth="4" markerHeight="4" orient="auto-start-reverse"><path d="M 0 0 L 10 5 L 0 10 z" fill="inherit"/></marker></defs>
<g class="strokes"><path style="--part:1" pathLength="3333" clip-path="url(#z36051c1)" d="M452 36L566 120"/><path style="--part:1" pathLength="3333" clip-path="url(#z36051c2)" d="M246 152L255 198L194 342"/><path style="--part:1" pathLength="3333" clip-path="url(#z36051c3)" d="M280 224L483 175L773 143L811 171L838 211L720 267"/><path style="--part:1" pathLength="3333" clip-path="url(#z36051c4)" d="M335 277L591 245"/><path style="--part:2" pathLength="3333" clip-path="url(#z36051c5)" d="M441 297L470 323L460 427"/><path style="--part:2" pathLength="3333" clip-path="url(#z36051c6)" d="M298 321L243 481"/><path style="--part:2" pathLength="3333" clip-path="url(#z36051c7)" d="M610 294L743 391"/><path style="--part:2" pathLength="3333" clip-path="url(#z36051c8)" d="M557 347L579 379L258 596L55 696"/><path style="--part:3" pathLength="3333" clip-path="url(#z36051c9)" d="M364 470L399 518L391 781"/><path style="--part:3" pathLength="3333" clip-path="url(#z36051c10)" d="M413 481L447 490L639 444L695 485L683 790"/><path style="--part:3" pathLength="3333" clip-path="url(#z36051c11)" d="M432 577L607 550"/><path style="--part:3" pathLength="3333" clip-path="url(#z36051c12)" d="M432 654L614 634"/><path style="--part:3" pathLength="3333" clip-path="url(#z36051c13)" d="M422 761L574 728L653 733"/><path style="--part:3" pathLength="3333" clip-path="url(#z36051c14)" d="M446 798L463 831L377 903L247 968"/><path style="--part:3" pathLength="3333" clip-path="url(#z36051c15)" d="M610 799L728 898L756 964"/></g>
<g class="guides"><text class="g1" style="--gs:1" x="452" y="36">①</text><path class="g1 aligned" style="--gs:1" d="M452,36 L566,120"/><path class="g1 offset" style="--gs:1" d="M537.68,-32.54 L651.68,51.46"/><text class="g2" style="--gs:2" x="246" y="152">②</text><path class="g2 aligned" style="--gs:2" d="M246,152 Q255,198 247.38,216 Q201.63,324 194,342"/><path class="g2 offset" style="--gs:2" d="M366,152 Q375,198 367.38,216 Q321.63,324 314,342"/><text class="g3" style="--gs:3" x="280" y="224">③</text><path class="g3 aligned" style="--gs:3" d="M280,224 Q483,175 628,159 Q773,143 792,157 Q811,171 824.5,191 Q838,211 779,239 Q779,239 720,267"/><path class="g3 offset" style="--gs:3" d="M280,320 Q422.61,271 524.47,255 Q626.34,239 639.68,253 Q653.03,267 662.52,287 Q672,307 630.55,335 Q630.55,335 589.1,363"/><text class="g4" style="--gs:4" x="335" y="277">④</text><path class="g4 aligned" style="--gs:4" d="M335,277 L591,245"/><path class="g4 offset" style="--gs:4" d="M335,373 L591,341"/><text class="g5" style="--gs:5" x="441" y="297">⑤</text><path class="g5 aligned" style="--gs:5" d="M456,310 L460,427"/><path class="g5 offset" style="--gs:5" d="M576,310 L580,427"/><text class="g6" style="--gs:6" x="298" y="321">⑥</text><path class="g6 aligned" style="--gs:6" d="M298,321 L243,481"/><path class="g6 offset" style="--gs:6" d="M418,321 L363,481"/><text class="g7" style="--gs:7" x="610" y="294">⑦</text><path class="g7 aligned" style="--gs:7" d="M610,294 L743,391"/><path class="g7 offset" style="--gs:7" d="M695.68,225.46 L828.68,322.46"/><text class="g8" style="--gs:8" x="557" y="347">⑧</text><path class="g8 aligned" style="--gs:8" d="M568,363 Q258,596 232.63,608.5 Q80.38,683.5 55,696"/><path class="g8 offset" style="--gs:8" d="M653.68,431.54 Q343.68,664.54 318.31,677.04 Q166.06,752.04 140.68,764.54"/><text class="g9" style="--gs:9" x="364" y="470">⑨</text><path class="g9 aligned" style="--gs:9" d="M364,470 Q399,518 398,550.88 Q392,748.13 391,781"/><path class="g9 offset" style="--gs:9" d="M268,470 Q303,518 302,550.88 Q296,748.13 295,781"/><text class="g10" style="--gs:10" x="413" y="481">⑩</text><path class="g10 aligned" style="--gs:10" d="M430,486 Q639,444 653,454.25 Q695,485 692,561.25 Q686,713.75 683,790"/><path class="g10 offset" style="--gs:10" d="M430,582 Q544.36,540 552.02,550.25 Q575,581 573.36,633.25 Q570.08,737.75 568.43,790"/><text class="g11" style="--gs:11" x="432" y="577">⑪</text><path class="g11 aligned" style="--gs:11" d="M432,577 L607,550"/><path class="g11 offset" style="--gs:11" d="M432,673 L607,646"/><text class="g12" style="--gs:12" x="432" y="654">⑫</text><path class="g12 aligned" style="--gs:12" d="M432,654 L614,634"/><path class="g12 offset" style="--gs:12" d="M432,750 L614,730"/><text class="g13" style="--gs:13" x="422" y="761">⑬</text><path class="g13 aligned" style="--gs:13" d="M422,761 Q574,728 583.88,728.63 Q643.13,732.38 653,733"/><path class="g13 offset" style="--gs:13" d="M422,857 Q574,824 583.88,824.63 Q643.13,828.38 653,829"/><text class="g14" style="--gs:14" x="446" y="798">⑭</text><path class="g14 aligned" style="--gs:14" d="M455,815 Q377,903 360.75,911.13 Q263.25,959.88 247,968"/><path class="g14 offset" style="--gs:14" d="M540.68,883.54 Q462.68,971.54 446.43,979.67 Q348.93,1028.42 332.68,1036.54"/><text class="g15" style="--gs:15" x="610" y="799">⑮</text><path class="g15 aligned" style="--gs:15" d="M610,799 Q728,898 731.5,906.25 Q752.5,955.75 756,964"/><path class="g15 offset" style="--gs:15" d="M695.68,730.46 Q813.68,829.46 817.18,837.71 Q838.18,887.21 841.68,895.46"/></g>
<g class="parts"><rect data-part="2" data-literal="少" role="button" tabindex="0" aria-label="Part 少" x="0" y="222" width="815" height="546"/><rect data-part="3" data-literal="貝" data-radical="true" role="button" tabindex="0" aria-label="Part 貝 (radical)" x="175" y="372" width="653" height="652"/><rect data-part="1" data-literal="㝉" role="button" tabindex="0" aria-label="Part 㝉" x="122" y="0" width="788" height="414"/></g>
</svg>
