<!--
  Stroke-order data for 賜, derived from AnimCJK (https://github.com/parsimonhi/animCJK),
  itself derived from the Arphic PL KaitiM fonts. Distributed under the Arphic Public License
  (see ARPHICPL.TXT). Regenerated by scripts/build-strokes.ts — do not edit by hand.
-->
<svg id="z36060" class="acjk" viewBox="0 0 1024 1024" xmlns="http://www.w3.org/2000/svg">
<g class="glyph"><path style="--part:1" id="z36060d1" d="M189 182C182 175 171 169 156 163C150 160 143 160 137 163C133 165 132 170 136 178C150 222 157 283 158 360C158 422 151 466 146 505C141 537 145 566 167 592C173 599 180 599 186 592C190 586 193 580 194 574C195 563 196 552 197 542C197 529 197 463 197 449C197 428 197 428 197 417C197 361 197 361 197 333C197 311 197 311 197 300C197 270 197 240 198 211C198 201 197 188 189 182Z"/><path style="--part:1" id="z36060d2" d="M303 561C306 577 310 589 320 605C340 640 353 639 369 598C374 581 379 536 379 461C377 308 381 220 395 197C402 184 402 174 397 166C392 158 371 149 335 139C318 133 303 134 291 141C254 160 220 173 189 182C179 184 188 213 198 211C210 209 236 201 276 188C294 181 306 180 313 187C319 193 323 211 324 240C325 336 323 414 320 475C319 492 316 521 309 535C306 543 301 552 303 561Z"/><path style="--part:1" id="z36060d3" d="M197 333C211 334 225 325 278 316C292 312 296 306 290 299C282 290 270 285 254 285C239 284 220 290 197 300C187 304 186 333 197 333Z"/><path style="--part:1" id="z36060d4" d="M197 449C207 453 220 445 285 435C301 431 305 423 298 416C289 407 276 401 258 401C241 400 221 406 197 417C187 421 187 447 197 449Z"/><path style="--part:1" id="z36060d5" d="M194 574C207 578 221 565 303 561C312 561 317 540 309 535C276 511 255 525 197 542C187 546 183 572 194 574Z"/><path style="--part:1" id="z36060d6" d="M178 636C174 676 130 738 44 820C32 831 33 834 50 831C94 821 136 788 207 711C213 704 229 685 247 664C253 656 254 649 253 644C250 635 240 629 224 626C205 621 193 620 186 622C181 623 178 627 178 636Z"/><path style="--part:1" id="z36060d7" d="M311 687Q362 753 374 756Q383 757 389 747Q396 735 393 708Q392 690 367 673Q310 637 296 641Q292 644 290 655Q291 665 311 687Z"/><path style="--part:2" id="z36060d8" d="M566 370C566 368 567 366 568 365C569 357 571 342 571 332C570 312 568 293 564 249C562 228 562 228 561 217C557 176 556 149 556 137C556 125 548 112 537 108C529 105 518 102 505 98C497 95 491 95 489 98C484 102 484 109 489 121C507 170 519 235 523 314C523 330 530 364 544 380C549 386 563 377 566 370Z"/><path style="--part:2" id="z36060d9" d="M695 353C695 357 697 360 699 365C703 375 710 381 720 379C728 377 735 369 741 359C749 342 757 296 770 221C776 183 794 155 818 133C830 121 830 110 819 101C806 90 782 77 746 61C737 57 714 61 677 70C670 71 549 104 537 108C526 112 545 141 556 137C582 126 625 114 686 103C696 100 704 100 709 103C717 107 722 123 720 149C712 243 703 302 697 326C696 335 693 344 695 353Z"/><path style="--part:2" id="z36060d10" d="M564 249C581 250 602 243 660 232C674 229 679 223 673 215C666 206 655 201 639 199C610 197 584 203 561 217C552 223 553 249 564 249Z"/><path style="--part:2" id="z36060d11" d="M568 365C579 370 594 360 695 353C704 353 704 332 697 326C693 323 689 319 684 317C673 311 658 311 640 316C615 322 592 328 571 332C560 334 557 363 568 365Z"/><path style="--part:2" id="z36060d12" d="M547 485C588 446 606 432 608 423C609 412 599 391 566 370C559 366 542 372 544 380C548 398 531 436 488 487C467 510 444 534 417 558C411 562 407 565 406 568C403 572 405 575 412 576C426 576 467 558 523 507C539 492 539 492 547 485Z"/><path style="--part:2" id="z36060d13" d="M731 499C765 494 800 487 836 489C846 489 853 491 856 496C859 502 858 517 856 539C844 631 829 701 810 749C785 809 762 840 741 845C732 846 704 843 657 830C650 828 647 828 647 832C646 834 651 838 658 846C683 873 699 899 709 920C714 932 720 939 729 940C739 940 750 935 765 927C808 901 843 851 869 772C886 719 907 652 926 571C930 552 937 538 951 528C962 519 967 511 967 505C966 499 959 490 947 480C928 464 906 453 883 441C855 426 840 438 781 450C742 457 635 474 547 485C536 487 515 500 523 507C527 511 539 517 561 516C586 515 586 515 599 514C632 512 665 507 698 503C720 500 720 500 731 499Z"/><path style="--part:2" id="z36060d14" d="M561 516C565 550 525 609 439 690C426 701 417 707 417 713C416 715 417 717 421 717C452 717 515 674 557 629C585 599 600 578 614 563C618 558 619 550 616 542C611 528 605 520 599 514C590 505 561 503 561 516Z"/><path style="--part:2" id="z36060d15" d="M698 503C698 591 643 676 535 763C507 784 461 816 394 855C387 858 387 862 392 865C396 867 402 867 410 866C532 835 629 759 715 637C732 611 752 578 768 558C772 552 776 545 773 539C760 519 748 513 731 499C722 492 698 492 698 503Z"/></g>
<defs><clipPath id="z36060c1"><use href="#z36060d1"/></clipPath>
	<clipPath id="z36060c2"><use href="#z36060d2"/></clipPath>
	<clipPath id="z36060c3"><use href="#z36060d3"/></clipPath>
	<clipPath id="z36060c4"><use href="#z36060d4"/></clipPath>
	<clipPath id="z36060c5"><use href="#z36060d5"/></clipPath>
	<clipPath id="z36060c6"><use href="#z36060d6"/></clipPath>
	<clipPath id="z36060c7"><use href="#z36060d7"/></clipPath>
	<clipPath id="z36060c8"><use href="#z36060d8"/></clipPath>
	<clipPath id="z36060c9"><use href="#z36060d9"/></clipPath>
	<clipPath id="z36060c10"><use href="#z36060d10"/></clipPath>
	<clipPath id="z36060c11"><use href="#z36060d11"/></clipPath>
	<clipPath id="z36060c12"><use href="#z36060d12"/></clipPath>
	<clipPath id="z36060c13"><use href="#z36060d13"/></clipPath>
	<clipPath id="z36060c14"><use href="#z36060d14"/></clipPath>
	<clipPath id="z36060c15"><use href="#z36060d15"/></clipPath><marker id="guide-arrow" viewBox="0 0 16 16" refX="5" refY="5" markerWidth="4" markerHeight="4" orient="auto-start-reverse"><path d="M 0 0 L 10 5 L 0 10 z" fill="inherit"/></marker></defs>
<g class="strokes"><path style="--part:1" pathLength="3333" clip-path="url(#z36060c1)" d="M140 167L173 219L173 591"/><path style="--part:1" pathLength="3333" clip-path="url(#z36060c2)" d="M190 194L310 159L358 184L343 625"/><path style="--part:1" pathLength="3333" clip-path="url(#z36060c3)" d="M194 323L289 304"/><path style="--part:1" pathLength="3333" clip-path="url(#z36060c4)" d="M194 437L295 425"/><path style="--part:1" pathLength="3333" clip-path="url(#z36060c5)" d="M195 565L308 548"/><path style="--part:1" pathLength="3333" clip-path="url(#z36060c6)" d="M186 630L209 664L46 825"/><path style="--part:1" pathLength="3333" clip-path="url(#z36060c7)" d="M301 646L382 747"/><path style="--part:2" pathLength="3333" clip-path="url(#z36060c8)" d="M494 103L528 146L553 377"/><path style="--part:2" pathLength="3333" clip-path="url(#z36060c9)" d="M541 112L708 81L766 113L715 374"/><path style="--part:2" pathLength="3333" clip-path="url(#z36060c10)" d="M559 236L670 219"/><path style="--part:2" pathLength="3333" clip-path="url(#z36060c11)" d="M564 351L698 339"/><path style="--part:2" pathLength="3333" clip-path="url(#z36060c12)" d="M556 376L562 433L412 569"/><path style="--part:2" pathLength="3333" clip-path="url(#z36060c13)" d="M529 502L843 462L911 506L796 847L726 892L654 835"/><path style="--part:2" pathLength="3333" clip-path="url(#z36060c14)" d="M568 515L583 559L424 710"/><path style="--part:2" pathLength="3333" clip-path="url(#z36060c15)" d="M706 500L732 549L632 704L537 788L397 858"/></g>
<g class="guides"><text class="g1" style="--gs:1" x="140" y="167">①</text><path class="g1 aligned" style="--gs:1" d="M140,167 Q173,219 173,265.5 Q173,544.5 173,591"/><path class="g1 offset" style="--gs:1" d="M44,167 Q77,219 77,265.5 Q77,544.5 77,591"/><text class="g2" style="--gs:2" x="190" y="194">②</text><path class="g2 aligned" style="--gs:2" d="M190,194 Q310,159 322,165.25 Q358,184 354.25,294.25 Q346.75,514.75 343,625"/><path class="g2 offset" style="--gs:2" d="M190,290 Q250,255 256,261.25 Q274,280 272.13,366.25 Q268.38,538.75 266.5,625"/><text class="g3" style="--gs:3" x="194" y="323">③</text><path class="g3 aligned" style="--gs:3" d="M194,323 L289,304"/><path class="g3 offset" style="--gs:3" d="M194,419 L289,400"/><text class="g4" style="--gs:4" x="194" y="437">④</text><path class="g4 aligned" style="--gs:4" d="M194,437 L295,425"/><path class="g4 offset" style="--gs:4" d="M194,533 L295,521"/><text class="g5" style="--gs:5" x="195" y="565">⑤</text><path class="g5 aligned" style="--gs:5" d="M195,565 L308,548"/><path class="g5 offset" style="--gs:5" d="M195,661 L308,644"/><text class="g6" style="--gs:6" x="186" y="630">⑥</text><path class="g6 aligned" style="--gs:6" d="M198,647 L46,825"/><path class="g6 offset" style="--gs:6" d="M283.68,715.54 L131.68,893.54"/><text class="g7" style="--gs:7" x="301" y="646">⑦</text><path class="g7 aligned" style="--gs:7" d="M301,646 L382,747"/><path class="g7 offset" style="--gs:7" d="M386.68,577.46 L467.68,678.46"/><text class="g8" style="--gs:8" x="494" y="103">⑧</text><path class="g8 aligned" style="--gs:8" d="M494,103 Q528,146 531.13,174.88 Q549.88,348.13 553,377"/><path class="g8 offset" style="--gs:8" d="M579.68,34.46 Q613.68,77.46 616.8,106.33 Q635.55,279.58 638.68,308.46"/><text class="g9" style="--gs:9" x="541" y="112">⑨</text><path class="g9 aligned" style="--gs:9" d="M541,112 Q708,81 722.5,89 Q766,113 753.25,178.25 Q727.75,308.75 715,374"/><path class="g9 offset" style="--gs:9" d="M541,208 Q624.5,177 631.75,182.38 Q653.5,198.52 647.13,242.39 Q634.38,330.13 628,374"/><text class="g10" style="--gs:10" x="559" y="236">⑩</text><path class="g10 aligned" style="--gs:10" d="M559,236 L670,219"/><path class="g10 offset" style="--gs:10" d="M559,332 L670,315"/><text class="g11" style="--gs:11" x="564" y="351">⑪</text><path class="g11 aligned" style="--gs:11" d="M564,351 L698,339"/><path class="g11 offset" style="--gs:11" d="M564,447 L698,435"/><text class="g12" style="--gs:12" x="556" y="376">⑫</text><path class="g12 aligned" style="--gs:12" d="M556,376 Q562,433 543.25,450 Q430.75,552 412,569"/><path class="g12 offset" style="--gs:12" d="M460,376 Q463,404.65 453.63,413.19 Q397.38,464.46 388,473"/><text class="g13" style="--gs:13" x="529" y="502">⑬</text><path class="g13 aligned" style="--gs:13" d="M529,502 Q843,462 877,484 Q911,506 853.5,676.5 Q796,847 761,869.5 Q726,892 690,863.5 Q690,863.5 654,835"/><path class="g13 offset" style="--gs:13" d="M529,598 Q764.09,558 789.54,569.72 Q815,581.43 771.95,672.23 Q728.9,763.03 702.7,775.02 Q676.49,787 649.54,771.82 Q649.54,771.82 622.59,756.64"/><text class="g14" style="--gs:14" x="568" y="515">⑭</text><path class="g14 aligned" style="--gs:14" d="M568,515 Q583,559 563.13,577.88 Q443.88,691.13 424,710"/><path class="g14 offset" style="--gs:14" d="M472,515 Q479.5,537.34 469.56,546.92 Q409.94,604.42 400,614"/><text class="g15" style="--gs:15" x="706" y="500">⑮</text><path class="g15 aligned" style="--gs:15" d="M706,500 Q732,549 682,626.5 Q632,704 584.5,746 Q537,788 467,823 Q467,823 397,858"/><path class="g15 offset" style="--gs:15" d="M610,500 Q626.69,535.86 594.6,592.58 Q562.51,649.3 532.02,680.03 Q501.54,710.77 456.61,736.39 Q456.61,736.39 411.69,762"/></g>
<g class="parts"><rect data-part="2" data-literal="易" role="button" tabindex="0" aria-label="Part 易" x="325" y="9" width="658" height="955"/><rect data-part="1" data-literal="貝" data-radical="true" role="button" tabindex="0" aria-label="Part 貝 (radical)" x="0" y="87" width="454" height="810"/></g>
</svg>
