<svg id="z36067" class="acjk" viewBox="0 0 1024 1024" xmlns="http://www.w3.org/2000/svg">
<style>

@keyframes zk {
	to {
		stroke-dashoffset:0;
	}
}
svg.acjk path[clip-path] {
	--t:0.8s;
	animation:zk var(--t) linear forwards var(--d);
	stroke-dasharray:3337;
	stroke-dashoffset:3339;
	stroke-width:128;
	stroke-linecap:round;
	fill:none;
	stroke:#000;
}
svg.acjk path[id] {fill:#ccc;}


    @keyframes guide-fade {
        0% { opacity: 0; }
        3% { opacity: 1; }
        95% { opacity: 1; }
        100% { opacity: 0; }
    }

    svg.acjk #guide-arrow {
        fill: #f77;
    }

    svg.acjk .guides {
        circle {
            fill: #0f6;
        }

        path {
            opacity: 0;
            animation: guide-fade var(--t) linear forwards var(--d);
            stroke-width: 16px;
            stroke-linecap: round;
            stroke: #f77;
            fill: none;
            marker-end: url(#guide-arrow);
        }

        circle,
        path {
            --t: 0.8s;
            opacity: 0;
            animation: guide-fade calc(var(--t) + 0.4s) ease-in-out forwards calc(var(--d) - 0.2s);
        }
    }
</style>
<path id="z36067d1" d="M529 127C633 105 674 98 686 90C706 74 669 60 658 57C641 52 603 64 538 81C495 92 495 92 473 97C442 104 364 116 305 122C282 124 277 133 295 143C353 173 417 149 475 138C511 131 511 131 529 127Z"/>
<path id="z36067d2" d="M519 187C521 166 525 146 529 127C535 96 535 96 538 81C541 64 546 49 530 41C508 30 491 23 479 20C469 17 463 18 458 24C453 28 452 33 458 43C464 52 471 68 473 97C474 124 474 124 475 138C475 155 476 175 477 196C477 210 516 201 519 187Z"/>
<path id="z36067d3" d="M477 196C447 202 381 209 343 215C326 217 324 223 338 233C356 247 375 252 390 249C486 228 574 213 653 204C677 200 665 183 651 176C640 169 626 163 609 166C585 169 549 180 519 187C491 193 491 193 477 196Z"/>
<path id="z36067d4" d="M230 311C210 302 187 302 181 302C171 301 169 303 167 306C163 310 164 315 171 326C191 354 210 395 226 446C230 461 237 474 247 483C264 498 273 489 271 472C269 459 268 446 265 435C251 395 243 362 241 348C239 335 242 316 230 311Z"/>
<path id="z36067d5" d="M739 417C739 429 745 443 756 444C767 444 789 429 811 393C824 370 846 333 873 316C886 307 888 296 879 285C867 272 845 256 815 234C801 224 770 231 713 239C642 248 487 270 406 284C335 295 276 305 230 311C217 314 228 348 241 348C258 349 333 327 370 320C389 316 389 316 399 314C444 304 498 295 559 288C588 285 588 285 602 283C650 277 689 272 719 270C753 268 796 263 783 301C772 331 760 364 746 393C743 401 739 409 739 417Z"/>
<path id="z36067d6" d="M439 415C439 393 431 367 416 341C410 331 404 323 399 314C394 306 368 310 370 320C380 374 391 407 404 420C412 428 439 427 439 415Z"/>
<path id="z36067d7" d="M568 393C584 370 599 347 618 330C626 321 629 316 625 309C619 300 612 291 602 283C592 273 559 274 559 288C561 304 552 342 530 400C525 412 560 403 568 393Z"/>
<path id="z36067d8" d="M271 472C289 472 501 439 739 417C747 417 753 398 746 393C693 351 692 370 568 393C543 398 543 398 530 400C499 405 469 410 439 415C416 418 416 418 404 420C353 427 289 432 265 435C253 437 259 472 271 472Z"/>
<path id="z36067d9" d="M377 518C365 509 352 502 340 500C335 498 330 501 327 506C324 508 328 511 331 519C355 584 355 652 337 720C333 734 332 747 336 759C341 777 348 790 355 797C362 804 366 804 372 797C375 791 379 786 382 778C384 769 386 760 388 751C390 731 392 719 392 695C392 679 392 679 392 671C392 656 391 641 391 625C391 610 391 610 391 602C391 575 392 556 394 546C396 535 386 525 377 518Z"/>
<path id="z36067d10" d="M624 753C624 757 628 766 631 772C651 813 670 786 682 763C688 750 695 730 693 706C685 618 686 561 705 534C711 523 713 514 708 510C662 467 634 463 581 478C553 485 469 506 377 518C366 520 383 548 394 546C457 531 526 518 585 508C630 499 631 548 632 575C632 652 631 703 628 723C626 733 622 743 624 753Z"/>
<path id="z36067d11" d="M391 625C405 627 463 614 564 601C578 599 582 594 577 587C570 578 559 571 545 569C530 566 479 578 391 602C384 604 383 625 391 625Z"/>
<path id="z36067d12" d="M392 695C403 698 516 682 571 677C585 675 588 670 584 663C578 654 569 647 554 644C540 640 486 650 392 671C384 673 384 695 392 695Z"/>
<path id="z36067d13" d="M382 778C393 780 427 772 624 753C634 751 637 727 628 723C600 709 579 723 388 751C379 753 373 778 382 778Z"/>
<path id="z36067d14" d="M406 813C394 848 338 901 231 965C216 973 215 975 235 977C276 979 339 953 419 896C435 884 453 871 470 858C494 838 475 823 457 814C438 804 427 800 419 801C414 801 408 804 406 813Z"/>
<path id="z36067d15" d="M588 838C619 868 656 906 696 954C706 965 714 974 725 977C729 978 736 975 741 970C748 961 748 942 742 915C736 889 710 868 668 844C662 841 638 825 590 808C570 800 580 830 588 838Z"/>
<defs>
	<clipPath id="z36067c1"><use href="#z36067d1"/></clipPath>
	<clipPath id="z36067c2"><use href="#z36067d2"/></clipPath>
	<clipPath id="z36067c3"><use href="#z36067d3"/></clipPath>
	<clipPath id="z36067c4"><use href="#z36067d4"/></clipPath>
	<clipPath id="z36067c5"><use href="#z36067d5"/></clipPath>
	<clipPath id="z36067c6"><use href="#z36067d6"/></clipPath>
	<clipPath id="z36067c7"><use href="#z36067d7"/></clipPath>
	<clipPath id="z36067c8"><use href="#z36067d8"/></clipPath>
	<clipPath id="z36067c9"><use href="#z36067d9"/></clipPath>
	<clipPath id="z36067c10"><use href="#z36067d10"/></clipPath>
	<clipPath id="z36067c11"><use href="#z36067d11"/></clipPath>
	<clipPath id="z36067c12"><use href="#z36067d12"/></clipPath>
	<clipPath id="z36067c13"><use href="#z36067d13"/></clipPath>
	<clipPath id="z36067c14"><use href="#z36067d14"/></clipPath>
	<clipPath id="z36067c15"><use href="#z36067d15"/></clipPath>
<marker id="guide-arrow" viewBox="0 0 16 16" refX="5" refY="5" markerWidth="4" markerHeight="4" orient="auto-start-reverse"><path d="M 0 0 L 10 5 L 0 10 z" fill="inherit"/></marker></defs>
<path style="--d:1s;" pathLength="3333" clip-path="url(#z36067c1)" d="M292 132L384 134L685 78"/>
<path style="--d:2s;" pathLength="3333" clip-path="url(#z36067c2)" d="M460 24L505 67L495 200"/>
<path style="--d:3s;" pathLength="3333" clip-path="url(#z36067c3)" d="M337 223L661 193"/>
<path style="--d:4s;" pathLength="3333" clip-path="url(#z36067c4)" d="M171 312L211 334L258 486"/>
<path style="--d:5s;" pathLength="3333" clip-path="url(#z36067c5)" d="M229 320L782 251L834 300L753 439"/>
<path style="--d:6s;" pathLength="3333" clip-path="url(#z36067c6)" d="M380 318L425 421"/>
<path style="--d:7s;" pathLength="3333" clip-path="url(#z36067c7)" d="M566 286L589 326L540 402"/>
<path style="--d:8s;" pathLength="3333" clip-path="url(#z36067c8)" d="M260 445L692 394L745 405"/>
<path style="--d:9s;" pathLength="3333" clip-path="url(#z36067c9)" d="M335 508L368 547L366 795"/>
<path style="--d:10s;" pathLength="3333" clip-path="url(#z36067c10)" d="M379 524L598 490L650 504L670 529L654 788"/>
<path style="--d:11s;" pathLength="3333" clip-path="url(#z36067c11)" d="M392 613L574 588"/>
<path style="--d:12s;" pathLength="3333" clip-path="url(#z36067c12)" d="M392 684L579 663"/>
<path style="--d:13s;" pathLength="3333" clip-path="url(#z36067c13)" d="M381 770L629 732"/>
<path style="--d:14s;" pathLength="3333" clip-path="url(#z36067c14)" d="M416 809L429 850L228 973"/>
<path style="--d:15s;" pathLength="3333" clip-path="url(#z36067c15)" d="M585 816L708 916L729 973"/>
<g class="guides"><circle style="--d: 1s" class="g1" cx="292" cy="132" r="16"/><path style="--d: 1s;" class="g1" d="M292,228 Q384,230 421.625,223 Q647.375,181 685,174"/><circle style="--d: 2s" class="g2" cx="460" cy="24" r="16"/><path style="--d: 2s;" class="g2" d="M364,24 Q409,67 407.75,83.625 Q400.25,183.375 399,200"/><circle style="--d: 3s" class="g3" cx="337" cy="223" r="16"/><path style="--d: 3s;" class="g3" d="M337,319 L661,289"/><circle style="--d: 4s" class="g4" cx="171" cy="312" r="16"/><path style="--d: 4s;" class="g4" d="M171,408 Q191,419 193.9375,428.5 Q211.5625,485.5 214.5,495"/><circle style="--d: 5s" class="g5" cx="229" cy="320" r="16"/><path style="--d: 5s;" class="g5" d="M229,416 Q672.3140495867768,347 682.7355371900826,359.25 Q714,396 697.7665289256198,407.25 Q665.2995867768595,429.75 649.0661157024794,441"/><circle style="--d: 6s" class="g6" cx="380" cy="318" r="16"/><path style="--d: 6s;" class="g6" d="M500,318 L545,421"/><circle style="--d: 7s" class="g7" cx="566" cy="286" r="16"/><path style="--d: 7s;" class="g7" d="M470,286 Q481.5,306 478.4375,310.75 Q460.0625,339.25 457,344"/><circle style="--d: 8s" class="g8" cx="260" cy="445" r="16"/><path style="--d: 8s;" class="g8" d="M260,541 Q692,490 698.625,491.375 Q738.375,499.625 745,501"/><circle style="--d: 9s" class="g9" cx="335" cy="508" r="16"/><path style="--d: 9s;" class="g9" d="M239,508 Q272,547 271.75,578 Q270.25,764 270,795"/><circle style="--d: 10s" class="g10" cx="379" cy="524" r="16"/><path style="--d: 10s;" class="g10" d="M379,620 Q507.69072164948454,586 522.9690721649484,593 Q538.2474226804123,600 544.1237113402062,606.2181208053692 Q550,612.4362416107383 545.2989690721649,700.2181208053692 Q545.2989690721649,700.2181208053692 540.5979381443299,788"/><circle style="--d: 11s" class="g11" cx="392" cy="613" r="16"/><path style="--d: 11s;" class="g11" d="M392,709 L574,684"/><circle style="--d: 12s" class="g12" cx="392" cy="684" r="16"/><path style="--d: 12s;" class="g12" d="M392,780 L579,759"/><circle style="--d: 13s" class="g13" cx="381" cy="770" r="16"/><path style="--d: 13s;" class="g13" d="M381,866 L629,828"/><circle style="--d: 14s" class="g14" cx="416" cy="809" r="16"/><path style="--d: 14s;" class="g14" d="M320,809 Q326.5,829.5 313.9375,837.1875 Q238.5625,883.3125 226,891"/><circle style="--d: 15s" class="g15" cx="585" cy="816" r="16"/><path style="--d: 15s;" class="g15" d="M670.68,747.456 Q793.68,847.456 796.305,854.581 Q812.055,897.331 814.68,904.456"/></g></svg>