<!--
  Stroke-order data for 賣, derived from AnimCJK (https://github.com/parsimonhi/animCJK),
  itself derived from the Arphic PL KaitiM fonts. Distributed under the Arphic Public License
  (see ARPHICPL.TXT). Regenerated by scripts/build-strokes.ts — do not edit by hand.
-->
<svg id="z36067" class="acjk" viewBox="0 0 1024 1024" xmlns="http://www.w3.org/2000/svg">
<g class="glyph"><path id="z36067d1" d="M529 127C633 105 674 98 686 90C706 74 669 60 658 57C641 52 603 64 538 81C495 92 495 92 473 97C442 104 364 116 305 122C282 124 277 133 295 143C353 173 417 149 475 138C511 131 511 131 529 127Z"/><path id="z36067d2" d="M519 187C521 166 525 146 529 127C535 96 535 96 538 81C541 64 546 49 530 41C508 30 491 23 479 20C469 17 463 18 458 24C453 28 452 33 458 43C464 52 471 68 473 97C474 124 474 124 475 138C475 155 476 175 477 196C477 210 516 201 519 187Z"/><path id="z36067d3" d="M477 196C447 202 381 209 343 215C326 217 324 223 338 233C356 247 375 252 390 249C486 228 574 213 653 204C677 200 665 183 651 176C640 169 626 163 609 166C585 169 549 180 519 187C491 193 491 193 477 196Z"/><path id="z36067d4" d="M230 311C210 302 187 302 181 302C171 301 169 303 167 306C163 310 164 315 171 326C191 354 210 395 226 446C230 461 237 474 247 483C264 498 273 489 271 472C269 459 268 446 265 435C251 395 243 362 241 348C239 335 242 316 230 311Z"/><path id="z36067d5" d="M739 417C739 429 745 443 756 444C767 444 789 429 811 393C824 370 846 333 873 316C886 307 888 296 879 285C867 272 845 256 815 234C801 224 770 231 713 239C642 248 487 270 406 284C335 295 276 305 230 311C217 314 228 348 241 348C258 349 333 327 370 320C389 316 389 316 399 314C444 304 498 295 559 288C588 285 588 285 602 283C650 277 689 272 719 270C753 268 796 263 783 301C772 331 760 364 746 393C743 401 739 409 739 417Z"/><path id="z36067d6" d="M439 415C439 393 431 367 416 341C410 331 404 323 399 314C394 306 368 310 370 320C380 374 391 407 404 420C412 428 439 427 439 415Z"/><path id="z36067d7" d="M568 393C584 370 599 347 618 330C626 321 629 316 625 309C619 300 612 291 602 283C592 273 559 274 559 288C561 304 552 342 530 400C525 412 560 403 568 393Z"/><path id="z36067d8" d="M271 472C289 472 501 439 739 417C747 417 753 398 746 393C693 351 692 370 568 393C543 398 543 398 530 400C499 405 469 410 439 415C416 418 416 418 404 420C353 427 289 432 265 435C253 437 259 472 271 472Z"/><path id="z36067d9" d="M377 518C365 509 352 502 340 500C335 498 330 501 327 506C324 508 328 511 331 519C355 584 355 652 337 720C333 734 332 747 336 759C341 777 348 790 355 797C362 804 366 804 372 797C375 791 379 786 382 778C384 769 386 760 388 751C390 731 392 719 392 695C392 679 392 679 392 671C392 656 391 641 391 625C391 610 391 610 391 602C391 575 392 556 394 546C396 535 386 525 377 518Z"/><path id="z36067d10" d="M624 753C624 757 628 766 631 772C651 813 670 786 682 763C688 750 695 730 693 706C685 618 686 561 705 534C711 523 713 514 708 510C662 467 634 463 581 478C553 485 469 506 377 518C366 520 383 548 394 546C457 531 526 518 585 508C630 499 631 548 632 575C632 652 631 703 628 723C626 733 622 743 624 753Z"/><path id="z36067d11" d="M391 625C405 627 463 614 564 601C578 599 582 594 577 587C570 578 559 571 545 569C530 566 479 578 391 602C384 604 383 625 391 625Z"/><path id="z36067d12" d="M392 695C403 698 516 682 571 677C585 675 588 670 584 663C578 654 569 647 554 644C540 640 486 650 392 671C384 673 384 695 392 695Z"/><path id="z36067d13" d="M382 778C393 780 427 772 624 753C634 751 637 727 628 723C600 709 579 723 388 751C379 753 373 778 382 778Z"/><path id="z36067d14" d="M406 813C394 848 338 901 231 965C216 973 215 975 235 977C276 979 339 953 419 896C435 884 453 871 470 858C494 838 475 823 457 814C438 804 427 800 419 801C414 801 408 804 406 813Z"/><path id="z36067d15" d="M588 838C619 868 656 906 696 954C706 965 714 974 725 977C729 978 736 975 741 970C748 961 748 942 742 915C736 889 710 868 668 844C662 841 638 825 590 808C570 800 580 830 588 838Z"/></g>
<defs><clipPath id="z36067c1"><use href="#z36067d1"/></clipPath>
	<clipPath id="z36067c2"><use href="#z36067d2"/></clipPath>
	<clipPath id="z36067c3"><use href="#z36067d3"/></clipPath>
	<clipPath id="z36067c4"><use href="#z36067d4"/></clipPath>
	<clipPath id="z36067c5"><use href="#z36067d5"/></clipPath>
	<clipPath id="z36067c6"><use href="#z36067d6"/></clipPath>
	<clipPath id="z36067c7"><use href="#z36067d7"/></clipPath>
	<clipPath id="z36067c8"><use href="#z36067d8"/></clipPath>
	<clipPath id="z36067c9"><use href="#z36067d9"/></clipPath>
	<clipPath id="z36067c10"><use href="#z36067d10"/></clipPath>
	<clipPath id="z36067c11"><use href="#z36067d11"/></clipPath>
	<clipPath id="z36067c12"><use href="#z36067d12"/></clipPath>
	<clipPath id="z36067c13"><use href="#z36067d13"/></clipPath>
	<clipPath id="z36067c14"><use href="#z36067d14"/></clipPath>
	<clipPath id="z36067c15"><use href="#z36067d15"/></clipPath><marker id="guide-arrow" viewBox="0 0 16 16" refX="5" refY="5" markerWidth="4" markerHeight="4" orient="auto-start-reverse"><path d="M 0 0 L 10 5 L 0 10 z" fill="inherit"/></marker></defs>
<g class="strokes"><path pathLength="3333" clip-path="url(#z36067c1)" d="M292 132L384 134L685 78"/><path pathLength="3333" clip-path="url(#z36067c2)" d="M460 24L505 67L495 200"/><path pathLength="3333" clip-path="url(#z36067c3)" d="M337 223L661 193"/><path pathLength="3333" clip-path="url(#z36067c4)" d="M171 312L211 334L258 486"/><path pathLength="3333" clip-path="url(#z36067c5)" d="M229 320L782 251L834 300L753 439"/><path pathLength="3333" clip-path="url(#z36067c6)" d="M380 318L425 421"/><path pathLength="3333" clip-path="url(#z36067c7)" d="M566 286L589 326L540 402"/><path pathLength="3333" clip-path="url(#z36067c8)" d="M260 445L692 394L745 405"/><path pathLength="3333" clip-path="url(#z36067c9)" d="M335 508L368 547L366 795"/><path pathLength="3333" clip-path="url(#z36067c10)" d="M379 524L598 490L650 504L670 529L654 788"/><path pathLength="3333" clip-path="url(#z36067c11)" d="M392 613L574 588"/><path pathLength="3333" clip-path="url(#z36067c12)" d="M392 684L579 663"/><path pathLength="3333" clip-path="url(#z36067c13)" d="M381 770L629 732"/><path pathLength="3333" clip-path="url(#z36067c14)" d="M416 809L429 850L228 973"/><path pathLength="3333" clip-path="url(#z36067c15)" d="M585 816L708 916L729 973"/></g>
<g class="guides"><text class="g1" style="--gs:1" x="292" y="132">①</text><path class="g1 aligned" style="--gs:1" d="M292,132 Q384,134 421.63,127 Q647.38,85 685,78"/><path class="g1 offset" style="--gs:1" d="M292,228 Q384,230 421.63,223 Q647.38,181 685,174"/><text class="g2" style="--gs:2" x="460" y="24">②</text><path class="g2 aligned" style="--gs:2" d="M460,24 Q505,67 503.75,83.63 Q496.25,183.38 495,200"/><path class="g2 offset" style="--gs:2" d="M364,24 Q409,67 407.75,83.63 Q400.25,183.38 399,200"/><text class="g3" style="--gs:3" x="337" y="223">③</text><path class="g3 aligned" style="--gs:3" d="M337,223 L661,193"/><path class="g3 offset" style="--gs:3" d="M337,319 L661,289"/><text class="g4" style="--gs:4" x="171" y="312">④</text><path class="g4 aligned" style="--gs:4" d="M171,312 Q211,334 216.88,353 Q252.13,467 258,486"/><path class="g4 offset" style="--gs:4" d="M171,408 Q191,419 193.94,428.5 Q211.56,485.5 214.5,495"/><text class="g5" style="--gs:5" x="229" y="320">⑤</text><path class="g5 aligned" style="--gs:5" d="M229,320 Q782,251 795,263.25 Q834,300 813.75,334.75 Q773.25,404.25 753,439"/><path class="g5 offset" style="--gs:5" d="M229,416 Q672.31,347 682.74,359.25 Q714,396 697.77,407.25 Q665.3,429.75 649.07,441"/><text class="g6" style="--gs:6" x="380" y="318">⑥</text><path class="g6 aligned" style="--gs:6" d="M380,318 L425,421"/><path class="g6 offset" style="--gs:6" d="M500,318 L545,421"/><text class="g7" style="--gs:7" x="566" y="286">⑦</text><path class="g7 aligned" style="--gs:7" d="M566,286 Q589,326 582.88,335.5 Q546.13,392.5 540,402"/><path class="g7 offset" style="--gs:7" d="M470,286 Q481.5,306 478.44,310.75 Q460.06,339.25 457,344"/><text class="g8" style="--gs:8" x="260" y="445">⑧</text><path class="g8 aligned" style="--gs:8" d="M260,445 Q692,394 698.63,395.38 Q738.38,403.63 745,405"/><path class="g8 offset" style="--gs:8" d="M260,541 Q692,490 698.63,491.38 Q738.38,499.63 745,501"/><text class="g9" style="--gs:9" x="335" y="508">⑨</text><path class="g9 aligned" style="--gs:9" d="M335,508 Q368,547 367.75,578 Q366.25,764 366,795"/><path class="g9 offset" style="--gs:9" d="M239,508 Q272,547 271.75,578 Q270.25,764 270,795"/><text class="g10" style="--gs:10" x="379" y="524">⑩</text><path class="g10 aligned" style="--gs:10" d="M379,524 Q598,490 624,497 Q650,504 660,516.5 Q670,529 662,658.5 Q662,658.5 654,788"/><path class="g10 offset" style="--gs:10" d="M379,620 Q507.69,586 522.97,593 Q538.25,600 544.12,606.22 Q550,612.44 545.3,700.22 Q545.3,700.22 540.6,788"/><text class="g11" style="--gs:11" x="392" y="613">⑪</text><path class="g11 aligned" style="--gs:11" d="M392,613 L574,588"/><path class="g11 offset" style="--gs:11" d="M392,709 L574,684"/><text class="g12" style="--gs:12" x="392" y="684">⑫</text><path class="g12 aligned" style="--gs:12" d="M392,684 L579,663"/><path class="g12 offset" style="--gs:12" d="M392,780 L579,759"/><text class="g13" style="--gs:13" x="381" y="770">⑬</text><path class="g13 aligned" style="--gs:13" d="M381,770 L629,732"/><path class="g13 offset" style="--gs:13" d="M381,866 L629,828"/><text class="g14" style="--gs:14" x="416" y="809">⑭</text><path class="g14 aligned" style="--gs:14" d="M416,809 Q429,850 403.88,865.38 Q253.13,957.63 228,973"/><path class="g14 offset" style="--gs:14" d="M320,809 Q326.5,829.5 313.94,837.19 Q238.56,883.31 226,891"/><text class="g15" style="--gs:15" x="585" y="816">⑮</text><path class="g15 aligned" style="--gs:15" d="M585,816 Q708,916 710.63,923.13 Q726.38,965.88 729,973"/><path class="g15 offset" style="--gs:15" d="M670.68,747.46 Q793.68,847.46 796.31,854.58 Q812.06,897.33 814.68,904.46"/></g>
</svg>
