<svg id="z36196" class="acjk" viewBox="0 0 1024 1024" xmlns="http://www.w3.org/2000/svg">
<style>

@keyframes zk {
	to {
		stroke-dashoffset:0;
	}
}
svg.acjk path[clip-path] {
	--t:0.8s;
	animation:zk var(--t) linear forwards var(--d);
	stroke-dasharray:3337;
	stroke-dashoffset:3339;
	stroke-width:128;
	stroke-linecap:round;
	fill:none;
	stroke:#000;
}
svg.acjk path[id] {fill:#ccc;}


    @keyframes guide-fade {
        0% { opacity: 0; }
        3% { opacity: 1; }
        95% { opacity: 1; }
        100% { opacity: 0; }
    }

    svg.acjk #guide-arrow {
        fill: #f77;
    }

    svg.acjk .guides {
        circle {
            fill: #0f6;
        }

        path {
            opacity: 0;
            animation: guide-fade var(--t) linear forwards var(--d);
            stroke-width: 16px;
            stroke-linecap: round;
            stroke: #f77;
            fill: none;
            marker-end: url(#guide-arrow);
        }

        circle,
        path {
            --t: 0.8s;
            opacity: 0;
            animation: guide-fade calc(var(--t) + 0.4s) ease-in-out forwards calc(var(--d) - 0.2s);
        }
    }
</style>
<path id="z36196d1" d="M552 292C578 287 624 279 691 273C699 272 708 271 713 261C716 253 704 245 689 237C649 214 583 235 555 242C518 250 518 250 499 254C474 260 423 264 361 273C340 275 337 283 353 296C376 315 399 320 421 316C444 310 471 306 500 301C535 295 535 295 552 292Z"/>
<path id="z36196d2" d="M543 406C545 367 548 329 552 292C554 259 554 259 555 242C555 196 562 148 576 100C578 91 573 81 559 73C535 58 513 52 497 49C486 46 478 48 472 54C467 58 466 67 473 78C485 97 493 113 494 127C496 167 498 210 499 254C500 285 500 285 500 301C500 335 499 373 498 413C498 428 543 421 543 406Z"/>
<path id="z36196d3" d="M623 441C685 436 757 433 838 435C892 436 922 434 927 426C932 417 928 406 915 396C869 362 826 356 784 367C720 382 639 392 543 406C513 411 513 411 498 413C389 425 271 440 143 455C126 456 123 463 136 477C146 488 159 495 173 499C189 503 202 503 215 500C267 484 324 474 384 466C421 461 421 461 440 458C482 452 522 447 562 444C603 442 603 442 623 441Z"/>
<path id="z36196d4" d="M384 466C408 504 411 570 387 665C367 740 322 802 259 853C249 861 239 869 230 877C222 883 222 887 230 888C238 888 254 883 276 873C306 858 331 838 354 816C405 766 435 700 449 615C454 580 460 532 465 518C467 511 468 504 472 497C478 485 474 477 464 471C454 465 447 460 440 458C422 451 373 451 384 466Z"/>
<path id="z36196d5" d="M553 820C536 815 519 809 503 803C495 800 491 801 491 806C490 810 493 815 499 822C532 866 551 902 564 928C570 941 583 943 594 934C622 910 639 865 637 799C631 626 630 521 646 485C651 472 650 462 639 453C634 448 629 444 623 441C606 431 554 425 562 444C576 470 582 497 583 526C584 646 583 736 578 798C577 808 574 815 569 819C565 821 559 821 553 820Z"/>
<path id="z36196d6" d="M282 583C264 615 243 646 221 677C204 698 202 721 213 746C218 758 228 763 243 754C278 731 296 693 304 645C307 622 310 602 306 585C304 578 300 574 296 574C289 573 284 577 282 583Z"/>
<path id="z36196d7" d="M695 596C735 628 781 668 830 719C842 732 853 741 864 743C870 744 875 739 881 733C889 722 888 703 878 673C863 632 802 596 695 563C688 560 684 563 684 571C683 581 686 589 695 596Z"/>
<defs>
	<clipPath id="z36196c1"><use href="#z36196d1"/></clipPath>
	<clipPath id="z36196c2"><use href="#z36196d2"/></clipPath>
	<clipPath id="z36196c3"><use href="#z36196d3"/></clipPath>
	<clipPath id="z36196c4"><use href="#z36196d4"/></clipPath>
	<clipPath id="z36196c5"><use href="#z36196d5"/></clipPath>
	<clipPath id="z36196c6"><use href="#z36196d6"/></clipPath>
	<clipPath id="z36196c7"><use href="#z36196d7"/></clipPath>
<marker id="guide-arrow" viewBox="0 0 16 16" refX="5" refY="5" markerWidth="4" markerHeight="4" orient="auto-start-reverse"><path d="M 0 0 L 10 5 L 0 10 z" fill="inherit"/></marker></defs>
<path style="--d:1s;" pathLength="3333" clip-path="url(#z36196c1)" d="M347 281L398 293L623 253L708 258"/>
<path style="--d:2s;" pathLength="3333" clip-path="url(#z36196c2)" d="M476 58L534 108L514 409"/>
<path style="--d:3s;" pathLength="3333" clip-path="url(#z36196c3)" d="M137 465L204 475L815 398L924 417"/>
<path style="--d:4s;" pathLength="3333" clip-path="url(#z36196c4)" d="M393 471L437 496L405 692L333 809L233 881"/>
<path style="--d:5s;" pathLength="3333" clip-path="url(#z36196c5)" d="M571 449L614 479L605 824L570 886L498 810"/>
<path style="--d:6s;" pathLength="3333" clip-path="url(#z36196c6)" d="M294 579L230 754"/>
<path style="--d:7s;" pathLength="3333" clip-path="url(#z36196c7)" d="M691 572L824 661L872 738"/>
<g class="guides"><circle style="--d: 1s" class="g1" cx="347" cy="281" r="16"/><path style="--d: 1s;" class="g1" d="M347,377 Q398,389 454.25,379 Q623,349 644.25,350.25 Q686.75,352.75 708,354"/><circle style="--d: 2s" class="g2" cx="476" cy="58" r="16"/><path style="--d: 2s;" class="g2" d="M380,58 Q438,108 435.5,145.625 Q420.5,371.375 418,409"/><circle style="--d: 3s" class="g3" cx="137" cy="465" r="16"/><path style="--d: 3s;" class="g3" d="M137,561 Q204,571 356.75,551.75 Q815,494 842.25,498.75 Q896.75,508.25 924,513"/><circle style="--d: 4s" class="g4" cx="393" cy="471" r="16"/><path style="--d: 4s;" class="g4" d="M297,567 Q319,580.2926829268292 311,632.4 Q303,684.5073170731707 285,715.6121951219512 Q267,746.7170731707317 242,765.8585365853659 Q242,765.8585365853659 217,785"/><circle style="--d: 5s" class="g5" cx="571" cy="449" r="16"/><path style="--d: 5s;" class="g5" d="M475,449 Q496.5,472.4096109839817 494.25,607.0148741418764 Q492,741.6201372997712 483.25,765.8100686498856 Q474.5,790 456.5,760.3478260869565 Q456.5,760.3478260869565 438.5,730.695652173913"/><circle style="--d: 6s" class="g6" cx="294" cy="579" r="16"/><path style="--d: 6s;" class="g6" d="M414,579 L350,754"/><circle style="--d: 7s" class="g7" cx="691" cy="572" r="16"/><path style="--d: 7s;" class="g7" d="M776.68,503.456 Q909.68,592.456 915.68,602.081 Q951.68,659.831 957.68,669.456"/></g></svg>