<svg id="z36208" class="acjk" viewBox="0 0 1024 1024" xmlns="http://www.w3.org/2000/svg">
<style>

@keyframes zk {
	to {
		stroke-dashoffset:0;
	}
}
svg.acjk path[clip-path] {
	--t:0.8s;
	animation:zk var(--t) linear forwards var(--d);
	stroke-dasharray:3337;
	stroke-dashoffset:3339;
	stroke-width:128;
	stroke-linecap:round;
	fill:none;
	stroke:#000;
}
svg.acjk path[id] {fill:#ccc;}


    @keyframes guide-fade {
        0% { opacity: 0; }
        3% { opacity: 1; }
        95% { opacity: 1; }
        100% { opacity: 0; }
    }

    svg.acjk #guide-arrow {
        fill: #f77;
    }

    svg.acjk .guides {
        circle {
            fill: #0f6;
        }

        path {
            opacity: 0;
            animation: guide-fade var(--t) linear forwards var(--d);
            stroke-width: 16px;
            stroke-linecap: round;
            stroke: #f77;
            fill: none;
            marker-end: url(#guide-arrow);
        }

        circle,
        path {
            --t: 0.8s;
            opacity: 0;
            animation: guide-fade calc(var(--t) + 0.4s) ease-in-out forwards calc(var(--d) - 0.2s);
        }
    }
</style>
<path id="z36208d1" d="M541 294C571 288 604 282 638 276C672 269 692 261 698 257C720 236 693 224 666 220C640 215 611 227 543 244C509 252 509 252 492 256C465 262 378 276 322 282C297 284 290 297 311 306C375 333 432 314 493 303C525 297 525 297 541 294Z"/>
<path id="z36208d2" d="M533 415C535 374 539 334 541 294C542 261 542 261 543 244C544 202 549 157 562 112C563 105 558 95 546 87C523 73 503 67 488 65C476 63 469 64 464 70C459 74 458 81 465 92C497 141 490 205 492 256C493 287 493 287 493 303C493 340 492 381 492 423C492 437 533 429 533 415Z"/>
<path id="z36208d3" d="M520 454C550 449 654 441 832 431C844 430 854 427 857 421C860 412 855 402 844 395C809 369 777 360 750 367C693 379 621 397 533 415C506 420 506 420 492 423C461 429 283 458 168 477C153 479 150 486 163 497C183 515 209 523 236 515C321 489 402 471 479 460C506 456 506 456 520 454Z"/>
<path id="z36208d4" d="M533 746C535 700 538 657 540 619C541 601 541 601 541 592C545 468 568 484 520 454C508 447 472 448 479 460C498 488 493 546 492 718C492 735 533 763 533 746Z"/>
<path id="z36208d5" d="M540 619C560 623 672 605 729 591C776 579 738 550 701 548C680 546 627 560 541 592C533 595 531 617 540 619Z"/>
<path id="z36208d6" d="M379 631C390 613 410 590 391 575C362 551 340 541 322 543C314 543 311 548 312 560C315 612 297 668 263 728C217 803 158 854 105 908C96 916 101 923 112 919C240 865 292 767 362 658C373 640 373 640 379 631Z"/>
<path id="z36208d7" d="M362 658C442 731 505 787 598 854C643 887 711 938 758 939C780 939 822 930 914 913C936 908 951 902 956 894C960 886 954 883 942 881C886 872 843 867 811 862C716 847 631 812 533 746C506 727 506 727 492 718C452 690 417 662 379 631C371 623 353 652 362 658Z"/>
<defs>
	<clipPath id="z36208c1"><use href="#z36208d1"/></clipPath>
	<clipPath id="z36208c2"><use href="#z36208d2"/></clipPath>
	<clipPath id="z36208c3"><use href="#z36208d3"/></clipPath>
	<clipPath id="z36208c4"><use href="#z36208d4"/></clipPath>
	<clipPath id="z36208c5"><use href="#z36208d5"/></clipPath>
	<clipPath id="z36208c6"><use href="#z36208d6"/></clipPath>
	<clipPath id="z36208c7"><use href="#z36208d7"/></clipPath>
<marker id="guide-arrow" viewBox="0 0 16 16" refX="5" refY="5" markerWidth="4" markerHeight="4" orient="auto-start-reverse"><path d="M 0 0 L 10 5 L 0 10 z" fill="inherit"/></marker></defs>
<path style="--d:1s;" pathLength="3333" clip-path="url(#z36208c1)" d="M306 292L402 295L701 245"/>
<path style="--d:2s;" pathLength="3333" clip-path="url(#z36208c2)" d="M467 73L522 118L506 427"/>
<path style="--d:3s;" pathLength="3333" clip-path="url(#z36208c3)" d="M163 484L216 493L759 400L854 411"/>
<path style="--d:4s;" pathLength="3333" clip-path="url(#z36208c4)" d="M486 456L520 497L521 746"/>
<path style="--d:5s;" pathLength="3333" clip-path="url(#z36208c5)" d="M541 608L744 575"/>
<path style="--d:6s;" pathLength="3333" clip-path="url(#z36208c6)" d="M320 549L353 601L298 714L213 828L106 914"/>
<path style="--d:7s;" pathLength="3333" clip-path="url(#z36208c7)" d="M372 637L521 767L686 870L761 897L951 891"/>
<g class="guides"><circle style="--d: 1s" class="g1" cx="306" cy="292" r="16"/><path style="--d: 1s;" class="g1" d="M306,388 Q402,391 439.375,384.75 Q663.625,347.25 701,341"/><circle style="--d: 2s" class="g2" cx="467" cy="73" r="16"/><path style="--d: 2s;" class="g2" d="M371,73 Q426,118 424,156.625 Q412,388.375 410,427"/><circle style="--d: 3s" class="g3" cx="163" cy="484" r="16"/><path style="--d: 3s;" class="g3" d="M163,580 Q216,589 351.75,565.75 Q759,496 782.75,498.75 Q830.25,504.25 854,507"/><circle style="--d: 4s" class="g4" cx="486" cy="456" r="16"/><path style="--d: 4s;" class="g4" d="M571.68,387.456 Q605.68,428.456 605.805,459.581 Q606.555,646.331 606.68,677.456"/><circle style="--d: 5s" class="g5" cx="541" cy="608" r="16"/><path style="--d: 5s;" class="g5" d="M541,704 L744,671"/><circle style="--d: 6s" class="g6" cx="320" cy="549" r="16"/><path style="--d: 6s;" class="g6" d="M224,549 Q244.17408906882594,587.3232876712328 227.36234817813767,628.9630136986301 Q210.5506072874494,670.6027397260274 184.56882591093117,712.6109589041096 Q158.58704453441294,754.6191780821918 125.88056680161942,786.3095890410959 Q125.88056680161942,786.3095890410959 93.17408906882591,818"/><circle style="--d: 7s" class="g7" cx="372" cy="637" r="16"/><path style="--d: 7s;" class="g7" d="M457.68,568.456 Q584.6310880829016,684.7280000000001 654.9227979274611,730.7896000000001 Q725.2145077720207,776.8512000000001 757.1652849740933,788.9256 Q789.1160621761658,801 870.0580310880829,798.3168000000001 Q870.0580310880829,798.3168000000001 951,795.6336"/></g></svg>