<svg id="z36321" class="acjk" viewBox="0 0 1024 1024" xmlns="http://www.w3.org/2000/svg">
<style>

@keyframes zk {
	to {
		stroke-dashoffset:0;
	}
}
svg.acjk path[clip-path] {
	--t:0.8s;
	animation:zk var(--t) linear forwards var(--d);
	stroke-dasharray:3337;
	stroke-dashoffset:3339;
	stroke-width:128;
	stroke-linecap:round;
	fill:none;
	stroke:#000;
}
svg.acjk path[id] {fill:#ccc;}


    @keyframes guide-fade {
        0% { opacity: 0; }
        3% { opacity: 1; }
        95% { opacity: 1; }
        100% { opacity: 0; }
    }

    svg.acjk #guide-arrow {
        fill: #f77;
    }

    svg.acjk .guides {
        circle {
            fill: #0f6;
        }

        path {
            opacity: 0;
            animation: guide-fade var(--t) linear forwards var(--d);
            stroke-width: 16px;
            stroke-linecap: round;
            stroke: #f77;
            fill: none;
            marker-end: url(#guide-arrow);
        }

        circle,
        path {
            --t: 0.8s;
            opacity: 0;
            animation: guide-fade calc(var(--t) + 0.4s) ease-in-out forwards calc(var(--d) - 0.2s);
        }
    }
</style>
<path id="z36321d1" d="M202 273C193 270 182 268 169 266C161 264 156 264 155 268C151 272 151 279 157 289C175 323 190 367 202 422C204 438 210 452 220 464C232 476 239 478 242 469C242 464 243 458 245 452C248 443 245 433 243 424C242 421 242 418 242 414C231 355 224 317 222 301C220 290 213 275 202 273Z"/>
<path id="z36321d2" d="M384 400C398 349 413 316 429 302C445 285 445 271 429 261C416 252 400 242 382 230C369 222 356 221 343 229C326 239 306 248 283 255C260 261 233 267 202 273C191 275 211 303 222 301C226 300 231 299 238 298C266 291 293 285 318 281C334 278 345 280 349 286C353 290 353 303 348 325C342 347 336 372 330 398C327 416 380 418 384 400Z"/>
<path id="z36321d3" d="M296 442C320 436 352 430 392 425C398 424 401 421 401 416C401 411 395 406 384 400C369 391 348 394 330 398C297 408 268 416 243 424C234 427 236 452 245 452C255 452 255 452 260 452C272 452 284 444 296 442Z"/>
<path id="z36321d4" d="M312 715C312 663 314 615 317 572C318 551 318 551 318 541C318 530 318 519 320 509C320 500 321 492 322 486C326 475 325 467 319 461C311 453 303 446 296 442C285 436 254 441 260 452C262 456 264 459 267 463C269 471 271 483 272 498C272 514 273 590 273 727C273 741 312 729 312 715Z"/>
<path id="z36321d5" d="M317 572C317 571 319 571 322 571C354 564 382 558 406 554C420 550 424 544 418 537C410 528 398 523 382 523C367 523 347 528 322 538C320 538 318 539 318 541C310 547 307 574 317 572Z"/>
<path id="z36321d6" d="M149 634C153 650 163 689 179 753C181 765 217 755 215 743C210 710 206 683 204 661C201 636 200 620 201 613C201 600 196 590 187 584C172 575 157 569 141 566C132 564 125 565 121 569C117 573 117 579 122 588C132 602 141 618 149 634Z"/>
<path id="z36321d7" d="M179 753C158 757 138 762 120 768C108 770 93 772 75 772C66 772 61 776 60 783C58 791 60 798 67 804C81 814 100 826 122 840C128 842 136 840 144 834C166 817 190 803 216 792C254 775 293 758 331 741C345 734 358 727 369 719C377 714 382 708 382 702C378 698 372 697 364 699C347 703 330 709 312 715C286 723 286 723 273 727C254 731 235 737 215 743C191 750 191 750 179 753Z"/>
<path id="z36321d8" d="M621 144Q648 166 677 194Q692 207 708 206Q720 206 725 191Q729 176 719 145Q713 126 681 111Q650 101 615 93Q599 90 592 93Q586 97 589 111Q593 121 621 144Z"/>
<path id="z36321d9" d="M680 327Q577 348 454 371Q435 374 450 389Q463 401 481 405Q500 409 516 403Q525 399 535 398C574 387 574 387 593 382Q627 372 669 366Q676 365 687 363C712 359 712 359 724 357Q794 345 901 340C926 339 926 339 939 338Q957 337 961 329Q965 317 949 305Q922 289 901 282Q883 278 864 282Q797 301 680 327Z"/>
<path id="z36321d10" d="M535 398Q560 423 562 451Q569 524 565 573Q561 640 540 690Q527 727 500 760Q475 793 419 839Q407 846 405 850Q401 857 417 856Q426 856 461 837Q486 824 524 791Q552 766 570 732Q591 695 603 639Q618 575 618 508Q619 489 619 473Q620 448 628 418Q632 406 624 400Q611 390 593 382C575 373 523 382 535 398Z"/>
<path id="z36321d11" d="M687 363Q687 370 695 383Q705 407 706 447Q709 540 710 753Q709 781 699 792Q689 798 666 790Q648 784 625 777Q613 773 613 780Q613 787 622 798Q674 853 706 896Q718 906 732 890Q744 874 759 840Q772 806 772 760Q769 708 764 626Q763 523 768 425Q774 398 768 388Q758 375 724 357C713 351 685 351 687 363Z"/>
<path id="z36321d12" d="M462 546C461 567 458 599 421 650C383 703 416 684 425 676C459 648 497 602 508 586C520 569 534 558 507 527C473 487 465 506 462 546Z"/>
<path id="z36321d13" d="M807 549Q853 595 906 661Q919 680 934 685Q941 686 949 678Q961 666 951 626Q948 604 933 589Q917 573 877 554Q834 532 809 521Q802 515 799 527Q798 539 807 549Z"/>
<defs>
	<clipPath id="z36321c1"><use href="#z36321d1"/></clipPath>
	<clipPath id="z36321c2"><use href="#z36321d2"/></clipPath>
	<clipPath id="z36321c3"><use href="#z36321d3"/></clipPath>
	<clipPath id="z36321c4"><use href="#z36321d4"/></clipPath>
	<clipPath id="z36321c5"><use href="#z36321d5"/></clipPath>
	<clipPath id="z36321c6"><use href="#z36321d6"/></clipPath>
	<clipPath id="z36321c7"><use href="#z36321d7"/></clipPath>
	<clipPath id="z36321c8"><use href="#z36321d8"/></clipPath>
	<clipPath id="z36321c9"><use href="#z36321d9"/></clipPath>
	<clipPath id="z36321c10"><use href="#z36321d10"/></clipPath>
	<clipPath id="z36321c11"><use href="#z36321d11"/></clipPath>
	<clipPath id="z36321c12"><use href="#z36321d12"/></clipPath>
	<clipPath id="z36321c13"><use href="#z36321d13"/></clipPath>
<marker id="guide-arrow" viewBox="0 0 16 16" refX="5" refY="5" markerWidth="4" markerHeight="4" orient="auto-start-reverse"><path d="M 0 0 L 10 5 L 0 10 z" fill="inherit"/></marker></defs>
<path style="--d:1s;" pathLength="3333" clip-path="url(#z36321c1)" d="M161 270L194 303L236 467"/>
<path style="--d:2s;" pathLength="3333" clip-path="url(#z36321c2)" d="M208 278L351 253L390 276L344 408"/>
<path style="--d:3s;" pathLength="3333" clip-path="url(#z36321c3)" d="M240 438L395 413"/>
<path style="--d:4s;" pathLength="3333" clip-path="url(#z36321c4)" d="M268 449L297 480L293 729"/>
<path style="--d:5s;" pathLength="3333" clip-path="url(#z36321c5)" d="M314 562L417 541"/>
<path style="--d:6s;" pathLength="3333" clip-path="url(#z36321c6)" d="M124 572L173 617L195 755"/>
<path style="--d:7s;" pathLength="3333" clip-path="url(#z36321c7)" d="M66 785L127 803L377 708"/>
<path style="--d:8s;" pathLength="3333" clip-path="url(#z36321c8)" d="M595 99L685 154L711 201"/>
<path style="--d:9s;" pathLength="3333" clip-path="url(#z36321c9)" d="M452 380L859 312L956 325"/>
<path style="--d:10s;" pathLength="3333" clip-path="url(#z36321c10)" d="M537 392L594 426L575 658L512 776L412 851"/>
<path style="--d:11s;" pathLength="3333" clip-path="url(#z36321c11)" d="M695 364L737 409L735 802L701 848L619 784"/>
<path style="--d:12s;" pathLength="3333" clip-path="url(#z36321c12)" d="M477 509L489 568L408 679"/>
<path style="--d:13s;" pathLength="3333" clip-path="url(#z36321c13)" d="M807 526L910 613L945 678"/>
<g class="guides"><circle style="--d: 1s" class="g1" cx="161" cy="270" r="16"/><path style="--d: 1s;" class="g1" d="M246.68,201.45600000000002 Q279.68,234.45600000000002 284.93,254.95600000000002 Q316.43,377.956 321.68,398.456"/><circle style="--d: 2s" class="g2" cx="208" cy="278" r="16"/><path style="--d: 2s;" class="g2" d="M208,374 Q279.5,349 284.375,354.75 Q299,372 293.25,385.625 Q281.75,412.875 276,426.5"/><circle style="--d: 3s" class="g3" cx="240" cy="438" r="16"/><path style="--d: 3s;" class="g3" d="M240,534 L395,509"/><circle style="--d: 4s" class="g4" cx="268" cy="449" r="16"/><path style="--d: 4s;" class="g4" d="M172,449 Q201,480 200.5,511.125 Q197.5,697.875 197,729"/><circle style="--d: 5s" class="g5" cx="314" cy="562" r="16"/><path style="--d: 5s;" class="g5" d="M314,658 L417,637"/><circle style="--d: 6s" class="g6" cx="124" cy="572" r="16"/><path style="--d: 6s;" class="g6" d="M209.68,503.456 Q258.68,548.456 261.43,565.706 Q277.93,669.206 280.68,686.456"/><circle style="--d: 7s" class="g7" cx="66" cy="785" r="16"/><path style="--d: 7s;" class="g7" d="M66,881 Q127,899 158.25,887.125 Q345.75,815.875 377,804"/><circle style="--d: 8s" class="g8" cx="595" cy="99" r="16"/><path style="--d: 8s;" class="g8" d="M680.68,30.456000000000003 Q770.68,85.456 773.93,91.331 Q793.43,126.58100000000002 796.68,132.45600000000002"/><circle style="--d: 9s" class="g9" cx="452" cy="380" r="16"/><path style="--d: 9s;" class="g9" d="M452,476 Q859,408 871.125,409.625 Q943.875,419.375 956,421"/><circle style="--d: 10s" class="g10" cx="537" cy="392" r="16"/><path style="--d: 10s;" class="g10" d="M441,392 Q469.5,418.8888888888889 464.75,510.62745098039215 Q460,602.3660130718954 444.25,649.0261437908497 Q428.5,695.686274509804 403.5,725.343137254902 Q403.5,725.343137254902 378.5,755"/><circle style="--d: 11s" class="g11" cx="695" cy="364" r="16"/><path style="--d: 11s;" class="g11" d="M599,364 Q620,400.07438016528926 619.5,557.599173553719 Q619,715.1239669421487 610.5,733.5619834710744 Q602,752 581.5,726.3471074380166 Q581.5,726.3471074380166 561,700.694214876033"/><circle style="--d: 12s" class="g12" cx="477" cy="509" r="16"/><path style="--d: 12s;" class="g12" d="M381,509 Q387,538.5 381.9375,545.4375 Q351.5625,587.0625 346.5,594"/><circle style="--d: 13s" class="g13" cx="807" cy="526" r="16"/><path style="--d: 13s;" class="g13" d="M892.68,457.456 Q995.68,544.456 1000.055,552.581 Q1026.305,601.331 1030.68,609.456"/></g></svg>