<!--
  Stroke-order data for 踊, derived from AnimCJK (https://github.com/parsimonhi/animCJK),
  itself derived from the Arphic PL KaitiM fonts. Distributed under the Arphic Public License
  (see ARPHICPL.TXT). Regenerated by scripts/build-strokes.ts — do not edit by hand.
-->
<svg id="z36362" class="acjk" viewBox="0 0 1024 1024" xmlns="http://www.w3.org/2000/svg">
<g class="glyph"><path id="z36362d1" d="M208 212Q198 208 173 204Q163 201 159 206Q153 212 161 227Q189 282 205 372Q209 400 225 417Q241 438 246 423Q250 410 249 389C247 372 247 372 246 364Q227 261 226 236C226 226 217 216 208 212Z"/><path id="z36362d2" d="M379 336Q395 255 419 230Q440 205 418 192Q400 182 374 166Q356 156 314 181Q262 199 208 212C198 214 217 240 226 236Q239 229 314 214Q339 208 346 218Q353 224 347 259Q340 293 333 331C330 346 376 351 379 336Z"/><path id="z36362d3" d="M307 380Q355 368 388 364Q398 361 398 356Q398 346 379 336C366 328 347 325 333 331Q329 332 329 333Q301 346 279 354Q261 358 246 364C238 367 241 389 249 389Q256 389 270 389C295 383 295 383 307 380Z"/><path id="z36362d4" d="M325 675Q326 596 330 529C331 508 331 508 331 497Q331 455 335 426Q342 402 307 380C297 372 265 377 270 389Q282 420 283 440Q284 467 284 688C284 702 325 689 325 675Z"/><path id="z36362d5" d="M330 529Q331 529 334 529Q383 516 419 509Q440 502 430 491Q418 479 394 478Q373 478 331 497C321 501 319 529 330 529Z"/><path id="z36362d6" d="M225 706Q216 586 221 545Q222 524 210 513Q188 497 163 490Q150 486 142 491Q135 498 142 511Q167 556 189 716C191 728 225 718 225 706Z"/><path id="z36362d7" d="M189 716Q164 722 141 730Q122 736 90 735Q77 736 75 748Q72 761 82 770Q106 786 140 805Q150 809 163 799Q193 775 377 691Q402 679 420 665Q433 658 434 648Q428 642 416 645Q373 658 325 675C298 684 298 684 284 688Q253 695 225 706C201 713 201 713 189 716Z"/><path id="z36362d8" d="M677 294Q773 201 813 187Q832 180 826 164Q822 149 758 115Q740 106 718 114Q664 133 583 157Q562 164 511 162Q489 161 496 181Q503 193 522 204Q550 220 583 202Q602 195 694 158Q707 154 720 161Q732 170 726 183Q695 229 662 285C659 290 672 297 677 294Z"/><path id="z36362d9" d="M662 285Q662 284 661 284Q598 260 584 265Q580 269 581 279Q584 289 606 305Q633 327 660 353Q672 363 684 363Q693 362 697 351Q701 339 693 315Q689 303 677 294C667 288 667 288 662 285Z"/><path id="z36362d10" d="M501 409Q479 399 463 399Q450 403 456 414Q507 523 456 731Q425 809 455 847Q462 860 472 854Q508 830 512 708Q518 495 525 447C527 432 515 415 501 409Z"/><path id="z36362d11" d="M649 417Q781 383 799 400Q809 406 812 452Q822 608 814 785Q813 810 803 818Q791 828 727 821Q712 820 714 829Q715 835 728 840Q786 874 818 903Q837 919 849 917Q859 914 869 888Q882 846 879 787Q866 559 866 475Q865 439 876 418Q886 399 877 387Q867 374 823 353Q804 344 733 366Q520 405 501 409C486 412 511 453 525 447Q528 444 609 426C636 420 636 420 649 417Z"/><path id="z36362d12" d="M677 560Q707 550 741 542Q765 535 769 531Q776 524 771 517Q764 508 741 504Q711 501 678 520C645 530 645 530 629 535Q599 542 564 549Q536 556 558 568Q585 583 629 574C661 565 661 565 677 560Z"/><path id="z36362d13" d="M674 669Q767 648 775 643Q782 636 779 629Q772 620 749 614Q727 610 675 629C644 638 644 638 628 642Q589 649 550 654Q522 658 542 673Q576 691 621 680Q622 679 627 680C658 673 658 673 674 669Z"/><path id="z36362d14" d="M630 856Q634 877 639 885Q643 892 650 889Q657 886 661 874Q673 834 674 669C675 642 675 642 675 629Q675 598 677 560C678 533 678 533 678 520Q678 517 679 514Q679 489 687 457Q690 442 678 434Q660 422 649 417C636 412 604 413 609 426Q609 429 620 445Q629 463 629 535C629 561 629 561 629 574Q629 605 628 642C627 667 627 667 627 680Q627 834 630 856Z"/></g>
<defs><clipPath id="z36362c1"><use href="#z36362d1"/></clipPath>
	<clipPath id="z36362c2"><use href="#z36362d2"/></clipPath>
	<clipPath id="z36362c3"><use href="#z36362d3"/></clipPath>
	<clipPath id="z36362c4"><use href="#z36362d4"/></clipPath>
	<clipPath id="z36362c5"><use href="#z36362d5"/></clipPath>
	<clipPath id="z36362c6"><use href="#z36362d6"/></clipPath>
	<clipPath id="z36362c7"><use href="#z36362d7"/></clipPath>
	<clipPath id="z36362c8"><use href="#z36362d8"/></clipPath>
	<clipPath id="z36362c9"><use href="#z36362d9"/></clipPath>
	<clipPath id="z36362c10"><use href="#z36362d10"/></clipPath>
	<clipPath id="z36362c11"><use href="#z36362d11"/></clipPath>
	<clipPath id="z36362c12"><use href="#z36362d12"/></clipPath>
	<clipPath id="z36362c13"><use href="#z36362d13"/></clipPath>
	<clipPath id="z36362c14"><use href="#z36362d14"/></clipPath><marker id="guide-arrow" viewBox="0 0 16 16" refX="5" refY="5" markerWidth="4" markerHeight="4" orient="auto-start-reverse"><path d="M 0 0 L 10 5 L 0 10 z" fill="inherit"/></marker></defs>
<g class="strokes"><path pathLength="3333" clip-path="url(#z36362c1)" d="M163 210L198 244L237 420"/><path pathLength="3333" clip-path="url(#z36362c2)" d="M216 213L343 188L387 212L346 331"/><path pathLength="3333" clip-path="url(#z36362c3)" d="M257 382L393 354"/><path pathLength="3333" clip-path="url(#z36362c4)" d="M277 391L308 417L292 685"/><path pathLength="3333" clip-path="url(#z36362c5)" d="M336 520L427 498"/><path pathLength="3333" clip-path="url(#z36362c6)" d="M145 497L189 544L200 712"/><path pathLength="3333" clip-path="url(#z36362c7)" d="M78 749L147 767L427 651"/><path pathLength="3333" clip-path="url(#z36362c8)" d="M498 171L558 186L697 139L750 145L774 183L671 288"/><path pathLength="3333" clip-path="url(#z36362c9)" d="M588 272L654 310L685 357"/><path pathLength="3333" clip-path="url(#z36362c10)" d="M462 408L498 455L500 526L461 850"/><path pathLength="3333" clip-path="url(#z36362c11)" d="M509 411L546 421L771 374L840 398L841 839L823 869L721 827"/><path pathLength="3333" clip-path="url(#z36362c12)" d="M557 557L769 520"/><path pathLength="3333" clip-path="url(#z36362c13)" d="M541 661L771 633"/><path pathLength="3333" clip-path="url(#z36362c14)" d="M617 429L656 456L644 883"/></g>
<g class="guides"><text class="g1" style="--gs:1" x="163" y="210">①</text><path class="g1 aligned" style="--gs:1" d="M163,210 Q198,244 202.88,266 Q232.13,398 237,420"/><path class="g1 offset" style="--gs:1" d="M248.68,141.46 Q283.68,175.46 288.56,197.46 Q317.81,329.46 322.68,351.46"/><text class="g2" style="--gs:2" x="216" y="213">②</text><path class="g2 aligned" style="--gs:2" d="M216,213 Q343,188 354,194 Q387,212 376.75,241.75 Q356.25,301.25 346,331"/><path class="g2 offset" style="--gs:2" d="M216,309 Q279.5,284 285,290 Q301.5,308 296.38,319.88 Q286.13,343.63 281,355.5"/><text class="g3" style="--gs:3" x="257" y="382">③</text><path class="g3 aligned" style="--gs:3" d="M257,382 L393,354"/><path class="g3 offset" style="--gs:3" d="M257,478 L393,450"/><text class="g4" style="--gs:4" x="277" y="391">④</text><path class="g4 aligned" style="--gs:4" d="M293,404 L292,685"/><path class="g4 offset" style="--gs:4" d="M413,404 L412,685"/><text class="g5" style="--gs:5" x="336" y="520">⑤</text><path class="g5 aligned" style="--gs:5" d="M336,520 L427,498"/><path class="g5 offset" style="--gs:5" d="M336,616 L427,594"/><text class="g6" style="--gs:6" x="145" y="497">⑥</text><path class="g6 aligned" style="--gs:6" d="M145,497 Q189,544 190.38,565 Q198.63,691 200,712"/><path class="g6 offset" style="--gs:6" d="M230.68,428.46 Q274.68,475.46 276.06,496.46 Q284.31,622.46 285.68,643.46"/><text class="g7" style="--gs:7" x="78" y="749">⑦</text><path class="g7 aligned" style="--gs:7" d="M78,749 Q147,767 182,752.5 Q392,665.5 427,651"/><path class="g7 offset" style="--gs:7" d="M78,845 Q147,863 182,848.5 Q392,761.5 427,747"/><text class="g8" style="--gs:8" x="498" y="171">⑧</text><path class="g8 aligned" style="--gs:8" d="M498,171 Q558,186 627.5,162.5 Q697,139 723.5,142 Q750,145 762,164 Q774,183 722.5,235.5 Q722.5,235.5 671,288"/><path class="g8 offset" style="--gs:8" d="M498,267 Q537.13,282 582.46,258.5 Q627.78,235 645.07,238 Q662.35,241 670.17,260 Q678,279 644.41,331.5 Q644.41,331.5 610.83,384"/><text class="g9" style="--gs:9" x="588" y="272">⑨</text><path class="g9 aligned" style="--gs:9" d="M588,272 Q654,310 657.88,315.88 Q681.13,351.13 685,357"/><path class="g9 offset" style="--gs:9" d="M673.68,203.46 Q739.68,241.46 743.56,247.33 Q766.81,282.58 770.68,288.46"/><text class="g10" style="--gs:10" x="462" y="408">⑩</text><path class="g10 aligned" style="--gs:10" d="M462,408 Q498,455 498.5,472.75 Q500,526 490.25,607 Q470.75,769 461,850"/><path class="g10 offset" style="--gs:10" d="M366,408 Q402,455 402.5,472.75 Q404,526 394.25,607 Q374.75,769 365,850"/><text class="g11" style="--gs:11" x="509" y="411">⑪</text><path class="g11 aligned" style="--gs:11" d="M528,416 Q771,374 805.5,386 Q840,398 840.5,618.5 Q841,839 832,854 Q823,869 772,848 Q772,848 721,827"/><path class="g11 offset" style="--gs:11" d="M528,512 Q649.5,470 666.75,482 Q684,494 684.25,714.5 Q684.5,935 680,950 Q675.5,965 650,944 Q650,944 624.5,923"/><text class="g12" style="--gs:12" x="557" y="557">⑫</text><path class="g12 aligned" style="--gs:12" d="M557,557 L769,520"/><path class="g12 offset" style="--gs:12" d="M557,653 L769,616"/><text class="g13" style="--gs:13" x="541" y="661">⑬</text><path class="g13 aligned" style="--gs:13" d="M541,661 L771,633"/><path class="g13 offset" style="--gs:13" d="M541,757 L771,729"/><text class="g14" style="--gs:14" x="617" y="429">⑭</text><path class="g14 aligned" style="--gs:14" d="M617,429 Q656,456 654.5,509.38 Q645.5,829.63 644,883"/><path class="g14 offset" style="--gs:14" d="M521,429 Q560,456 558.5,509.38 Q549.5,829.63 548,883"/></g>
</svg>
