<!--
  Stroke-order data for 蹄, derived from AnimCJK (https://github.com/parsimonhi/animCJK),
  itself derived from the Arphic PL KaitiM fonts. Distributed under the Arphic Public License
  (see ARPHICPL.TXT). Regenerated by scripts/build-strokes.ts — do not edit by hand.
-->
<svg id="z36420" class="acjk" viewBox="0 0 1024 1024" xmlns="http://www.w3.org/2000/svg">
<g class="glyph"><path id="z36420d1" d="M164 174Q151 170 133 169Q121 168 119 172Q113 178 122 193Q150 239 172 319Q176 344 192 358Q211 377 214 362Q215 356 216 349C218 339 215 329 213 319Q206 295 187 199C185 188 175 176 164 174Z"/><path id="z36420d2" d="M348 295Q369 216 393 191Q415 167 393 153Q332 120 330 120Q321 120 313 126Q267 154 164 174C153 176 176 201 187 199Q190 198 192 198Q241 185 284 175Q312 168 320 179Q327 186 319 219Q312 252 301 290C296 305 345 310 348 295Z"/><path id="z36420d3" d="M267 337Q301 327 356 319Q365 318 365 310Q365 303 348 295C334 287 316 285 301 290Q298 290 297 291Q251 307 213 319C203 322 206 351 216 349Q220 348 225 347Q226 346 228 347C254 340 254 340 267 337Z"/><path id="z36420d4" d="M289 619Q290 537 293 470C294 447 294 447 294 436Q294 411 296 385Q303 367 294 358Q281 345 267 337C256 329 223 335 228 347Q240 368 244 468Q244 528 247 635C247 650 289 634 289 619Z"/><path id="z36420d5" d="M293 470Q336 461 370 456Q391 450 382 439Q370 426 346 425Q325 424 294 436C283 440 282 472 293 470Z"/><path id="z36420d6" d="M194 654Q182 531 186 500Q187 479 174 469Q152 453 127 446Q114 442 107 448Q100 455 106 468Q122 493 132 523Q139 551 157 666C160 679 194 667 194 654Z"/><path id="z36420d7" d="M157 666Q93 684 71 687Q58 690 56 700Q55 713 65 722Q90 737 125 754Q135 757 148 747Q185 714 342 632Q364 620 381 606Q394 597 394 587Q388 583 289 619C261 630 261 630 247 635Q219 644 194 654C169 662 169 662 157 666Z"/><path id="z36420d8" d="M591 78Q634 121 663 130Q676 131 684 120Q688 108 684 94Q672 58 619 48Q580 42 576 45Q572 46 574 57Q577 67 591 78Z"/><path id="z36420d9" d="M727 192Q746 185 773 180Q813 170 820 163Q827 156 823 147Q816 137 788 130Q761 126 672 157Q587 182 512 192Q478 199 503 214Q543 238 597 222Q648 209 702 197C719 194 719 194 727 192Z"/><path id="z36420d10" d="M513 276Q546 348 564 354Q574 358 584 345Q588 335 585 317Q581 301 562 286Q535 262 523 256Q516 252 512 261Q509 268 513 276Z"/><path id="z36420d11" d="M676 371Q688 358 735 288Q745 272 762 252Q775 242 769 232Q756 202 727 192C719 189 700 189 702 197Q701 200 704 205Q713 241 658 349Q651 364 649 376C647 385 671 378 676 371Z"/><path id="z36420d12" d="M467 411Q455 386 439 377Q436 373 430 376Q426 380 424 390Q427 417 403 472Q393 488 393 506Q396 525 405 538Q412 550 418 542Q430 539 444 498Q459 459 466 446Q469 442 471 438C476 430 471 419 467 411Z"/><path id="z36420d13" d="M634 405Q803 368 844 371Q854 378 852 383Q852 389 822 447Q815 459 821 464Q828 468 843 457Q895 427 936 418Q970 411 970 402Q969 393 904 346Q879 327 799 348Q733 357 676 371C658 374 658 374 649 376Q601 383 550 395Q508 402 467 411C458 413 463 435 471 438Q489 445 508 440Q545 427 585 417C618 409 618 409 634 405Z"/><path id="z36420d14" d="M497 540Q476 531 464 532Q452 536 458 546Q479 591 462 668Q441 686 466 734Q469 738 474 745Q480 757 488 751Q509 735 514 675Q518 591 520 574Q520 571 520 569C520 557 508 545 497 540Z"/><path id="z36420d15" d="M662 543Q701 536 741 534Q769 537 766 555Q775 676 762 692Q756 696 707 697Q691 694 689 699Q686 705 698 713Q746 746 775 771Q790 783 801 769Q822 738 824 675Q818 600 826 548Q830 529 821 520Q796 498 779 488Q767 484 759 491Q753 498 662 519C627 524 627 524 609 526Q567 530 497 540C485 542 508 571 520 569Q563 559 609 551C644 546 644 546 662 543Z"/><path id="z36420d16" d="M615 932Q619 956 626 965Q632 972 639 970Q654 961 658 905Q658 896 662 543C662 527 662 527 662 519Q662 518 663 516Q663 486 671 446Q674 430 661 421Q645 411 634 405C620 396 576 403 585 417Q606 448 608 513Q608 519 609 526C609 543 609 543 609 551Q613 929 615 932Z"/></g>
<defs><clipPath id="z36420c1"><use href="#z36420d1"/></clipPath>
	<clipPath id="z36420c2"><use href="#z36420d2"/></clipPath>
	<clipPath id="z36420c3"><use href="#z36420d3"/></clipPath>
	<clipPath id="z36420c4"><use href="#z36420d4"/></clipPath>
	<clipPath id="z36420c5"><use href="#z36420d5"/></clipPath>
	<clipPath id="z36420c6"><use href="#z36420d6"/></clipPath>
	<clipPath id="z36420c7"><use href="#z36420d7"/></clipPath>
	<clipPath id="z36420c8"><use href="#z36420d8"/></clipPath>
	<clipPath id="z36420c9"><use href="#z36420d9"/></clipPath>
	<clipPath id="z36420c10"><use href="#z36420d10"/></clipPath>
	<clipPath id="z36420c11"><use href="#z36420d11"/></clipPath>
	<clipPath id="z36420c12"><use href="#z36420d12"/></clipPath>
	<clipPath id="z36420c13"><use href="#z36420d13"/></clipPath>
	<clipPath id="z36420c14"><use href="#z36420d14"/></clipPath>
	<clipPath id="z36420c15"><use href="#z36420d15"/></clipPath>
	<clipPath id="z36420c16"><use href="#z36420d16"/></clipPath><marker id="guide-arrow" viewBox="0 0 16 16" refX="5" refY="5" markerWidth="4" markerHeight="4" orient="auto-start-reverse"><path d="M 0 0 L 10 5 L 0 10 z" fill="inherit"/></marker></defs>
<g class="strokes"><path pathLength="3333" clip-path="url(#z36420c1)" d="M125 173L163 213L203 362"/><path pathLength="3333" clip-path="url(#z36420c2)" d="M171 174L320 148L355 166L319 291"/><path pathLength="3333" clip-path="url(#z36420c3)" d="M222 341L301 309L358 314"/><path pathLength="3333" clip-path="url(#z36420c4)" d="M235 350L268 378L260 629"/><path pathLength="3333" clip-path="url(#z36420c5)" d="M298 461L380 443"/><path pathLength="3333" clip-path="url(#z36420c6)" d="M109 450L159 508L169 660"/><path pathLength="3333" clip-path="url(#z36420c7)" d="M61 703L129 714L388 594"/><path pathLength="3333" clip-path="url(#z36420c8)" d="M579 52L674 124"/><path pathLength="3333" clip-path="url(#z36420c9)" d="M503 203L817 155"/><path pathLength="3333" clip-path="url(#z36420c10)" d="M520 265L576 350"/><path pathLength="3333" clip-path="url(#z36420c11)" d="M710 200L736 241L656 370"/><path pathLength="3333" clip-path="url(#z36420c12)" d="M434 381L445 427L412 538"/><path pathLength="3333" clip-path="url(#z36420c13)" d="M473 415L854 355L889 371L917 412L826 460"/><path pathLength="3333" clip-path="url(#z36420c14)" d="M465 538L494 573L485 748"/><path pathLength="3333" clip-path="url(#z36420c15)" d="M507 544L751 514L787 526L791 708L773 735L694 705"/><path pathLength="3333" clip-path="url(#z36420c16)" d="M592 419L637 455L636 964"/></g>
<g class="guides"><text class="g1" style="--gs:1" x="125" y="173">①</text><path class="g1 aligned" style="--gs:1" d="M125,173 Q163,213 168,231.63 Q198,343.38 203,362"/><path class="g1 offset" style="--gs:1" d="M210.68,104.46 Q248.68,144.46 253.68,163.08 Q283.68,274.83 288.68,293.46"/><text class="g2" style="--gs:2" x="171" y="174">②</text><path class="g2 aligned" style="--gs:2" d="M171,174 Q320,148 328.75,152.5 Q355,166 346,197.25 Q328,259.75 319,291"/><path class="g2 offset" style="--gs:2" d="M171,270 Q245.5,244 249.88,248.5 Q263,262 258.5,275.38 Q249.5,302.13 245,315.5"/><text class="g3" style="--gs:3" x="222" y="341">③</text><path class="g3 aligned" style="--gs:3" d="M222,341 Q301,309 308.13,309.63 Q350.88,313.38 358,314"/><path class="g3 offset" style="--gs:3" d="M222,437 Q301,405 308.13,405.63 Q350.88,409.38 358,410"/><text class="g4" style="--gs:4" x="235" y="350">④</text><path class="g4 aligned" style="--gs:4" d="M235,350 Q268,378 267,409.38 Q261,597.63 260,629"/><path class="g4 offset" style="--gs:4" d="M139,350 Q172,378 171,409.38 Q165,597.63 164,629"/><text class="g5" style="--gs:5" x="298" y="461">⑤</text><path class="g5 aligned" style="--gs:5" d="M298,461 L380,443"/><path class="g5 offset" style="--gs:5" d="M298,557 L380,539"/><text class="g6" style="--gs:6" x="109" y="450">⑥</text><path class="g6 aligned" style="--gs:6" d="M109,450 Q159,508 160.25,527 Q167.75,641 169,660"/><path class="g6 offset" style="--gs:6" d="M194.68,381.46 Q244.68,439.46 245.93,458.46 Q253.43,572.46 254.68,591.46"/><text class="g7" style="--gs:7" x="61" y="703">⑦</text><path class="g7 aligned" style="--gs:7" d="M61,703 Q129,714 161.38,699 Q355.63,609 388,594"/><path class="g7 offset" style="--gs:7" d="M61,799 Q129,810 161.38,795 Q355.63,705 388,690"/><text class="g8" style="--gs:8" x="579" y="52">⑧</text><path class="g8 aligned" style="--gs:8" d="M579,52 L674,124"/><path class="g8 offset" style="--gs:8" d="M664.68,-16.54 L759.68,55.46"/><text class="g9" style="--gs:9" x="503" y="203">⑨</text><path class="g9 aligned" style="--gs:9" d="M503,203 L817,155"/><path class="g9 offset" style="--gs:9" d="M503,299 L817,251"/><text class="g10" style="--gs:10" x="520" y="265">⑩</text><path class="g10 aligned" style="--gs:10" d="M520,265 L576,350"/><path class="g10 offset" style="--gs:10" d="M605.68,196.46 L661.68,281.46"/><text class="g11" style="--gs:11" x="710" y="200">⑪</text><path class="g11 aligned" style="--gs:11" d="M710,200 Q736,241 726,257.13 Q666,353.88 656,370"/><path class="g11 offset" style="--gs:11" d="M614,200 Q627,220.5 622,228.56 Q592,276.94 587,285"/><text class="g12" style="--gs:12" x="434" y="381">⑫</text><path class="g12 aligned" style="--gs:12" d="M434,381 Q445,427 440.88,440.88 Q416.13,524.13 412,538"/><path class="g12 offset" style="--gs:12" d="M554,381 Q565,427 560.88,440.88 Q536.13,524.13 532,538"/><text class="g13" style="--gs:13" x="473" y="415">⑬</text><path class="g13 aligned" style="--gs:13" d="M473,415 Q854,355 871.5,363 Q889,371 903,391.5 Q917,412 871.5,436 Q871.5,436 826,460"/><path class="g13 offset" style="--gs:13" d="M473,511 Q734.72,451 746.74,459 Q758.77,467 768.38,487.5 Q778,508 746.74,532 Q746.74,532 715.49,556"/><text class="g14" style="--gs:14" x="465" y="538">⑭</text><path class="g14 aligned" style="--gs:14" d="M465,538 Q494,573 492.88,594.88 Q486.13,726.13 485,748"/><path class="g14 offset" style="--gs:14" d="M369,538 Q398,573 396.88,594.88 Q390.13,726.13 389,748"/><text class="g15" style="--gs:15" x="507" y="544">⑮</text><path class="g15 aligned" style="--gs:15" d="M507,544 Q751,514 769,520 Q787,526 789,617 Q791,708 782,721.5 Q773,735 733.5,720 Q733.5,720 694,705"/><path class="g15 offset" style="--gs:15" d="M507,640 Q629,610 638,616 Q647,622 648,713 Q649,804 644.5,817.5 Q640,831 620.25,816 Q620.25,816 600.5,801"/><text class="g16" style="--gs:16" x="592" y="419">⑯</text><path class="g16 aligned" style="--gs:16" d="M592,419 Q637,455 636.88,518.63 Q636.13,900.38 636,964"/><path class="g16 offset" style="--gs:16" d="M496,419 Q541,455 540.88,518.63 Q540.13,900.38 540,964"/></g>
</svg>
