<!--
  Stroke-order data for 躯, derived from AnimCJK (https://github.com/parsimonhi/animCJK),
  itself derived from the Arphic PL KaitiM fonts. Distributed under the Arphic Public License
  (see ARPHICPL.TXT). Regenerated by scripts/build-strokes.ts — do not edit by hand.
-->
<svg id="z36527" class="acjk" viewBox="0 0 1024 1024" xmlns="http://www.w3.org/2000/svg">
<g class="glyph"><path style="--part:1" id="z36527d1" d="M276 268C298 243 381 140 398 128C409 119 409 108 401 100C389 90 375 84 358 80C340 75 329 75 322 79C314 82 315 84 317 95C324 158 278 219 251 274C248 282 271 275 276 268Z"/><path style="--part:1" id="z36527d2" d="M229 278C219 269 208 262 200 259C192 256 187 256 182 259C177 261 175 265 178 272C186 293 192 311 194 328C195 343 195 427 197 575C197 588 236 579 236 566C236 539 235 514 237 490C238 476 238 476 238 469C239 446 240 425 240 405C240 392 240 392 240 386C240 357 242 329 244 301C244 292 236 283 229 278Z"/><path style="--part:1" id="z36527d3" d="M386 639C383 719 383 769 378 798C376 824 367 838 344 833C308 825 308 825 290 821C276 818 267 819 273 824C306 855 337 877 359 901C367 911 375 919 385 923C389 925 396 923 401 917C423 886 436 846 436 800C435 737 435 664 435 583C435 527 435 527 435 499C435 454 436 408 437 360C437 325 439 300 448 286C454 274 453 264 448 259C434 248 416 239 396 230C382 224 363 234 329 251C314 258 292 264 276 268C259 272 259 272 251 274C243 275 235 275 229 278C220 281 235 303 244 301C252 301 291 293 360 272C386 263 385 287 387 303C391 344 393 418 390 528C387 602 387 602 386 639Z"/><path style="--part:1" id="z36527d4" d="M350 385C362 382 366 376 361 370C354 362 344 358 330 357C315 355 285 366 240 386C234 388 234 406 240 405C313 392 313 392 350 385Z"/><path style="--part:1" id="z36527d5" d="M237 490C254 490 315 475 350 469C362 466 366 460 361 454C354 446 344 442 330 441C316 439 285 449 238 469C231 472 230 490 237 490Z"/><path style="--part:1" id="z36527d6" d="M197 575C132 589 104 590 85 590C75 589 71 594 70 600C68 608 68 614 76 620C87 630 104 643 124 655C129 658 137 656 145 651C242 608 323 579 389 557C398 553 399 526 390 528C340 540 288 553 236 566C210 572 210 572 197 575Z"/><path style="--part:1" id="z36527d7" d="M389 557C299 670 182 776 90 840C78 847 78 853 89 854C208 810 331 701 386 639C419 602 419 602 435 583C447 569 460 557 474 543C484 532 473 514 466 501C453 477 444 486 435 499C404 538 404 538 389 557Z"/><path style="--part:2" id="z36527d8" d="M565 257C585 265 627 264 691 253C731 245 773 238 817 230C843 224 858 218 862 215C867 209 869 204 867 200C862 190 849 185 832 181C815 177 774 188 705 206C653 219 594 223 555 230C546 232 556 253 565 257Z"/><path style="--part:2" id="z36527d9" d="M760 525C777 493 791 450 806 399C810 382 815 367 823 352C826 345 826 338 822 334C817 327 805 321 785 313C770 307 759 304 754 307C745 310 743 316 745 326C755 373 748 429 721 493C715 505 709 518 703 531C681 571 642 619 589 679C584 684 585 690 590 689C654 668 700 620 736 568C744 554 752 539 760 525Z"/><path style="--part:2" id="z36527d10" d="M736 568C803 643 835 686 840 688C844 689 848 686 853 682C859 675 859 661 856 638C852 612 821 575 760 525C734 504 734 504 721 493C677 457 644 430 619 414C614 411 610 412 610 418C608 424 610 431 616 437C643 465 672 496 703 531C725 556 725 556 736 568Z"/><path style="--part:2" id="z36527d11" d="M555 230C547 224 534 216 519 209C504 202 495 201 491 206C486 210 486 216 492 227C504 248 510 280 512 322C519 477 518 629 507 774C504 800 496 825 481 849C474 859 473 871 480 885C485 898 491 909 499 915C504 920 514 917 526 910C594 863 725 841 920 844C935 844 945 840 946 832C946 822 935 810 917 796C905 787 866 791 796 801C644 820 566 826 566 826C560 825 557 819 558 807C559 671 561 516 560 345C559 308 561 279 565 257C567 248 563 236 555 230Z"/></g>
<defs><clipPath id="z36527c1"><use href="#z36527d1"/></clipPath>
	<clipPath id="z36527c2"><use href="#z36527d2"/></clipPath>
	<clipPath id="z36527c3"><use href="#z36527d3"/></clipPath>
	<clipPath id="z36527c4"><use href="#z36527d4"/></clipPath>
	<clipPath id="z36527c5"><use href="#z36527d5"/></clipPath>
	<clipPath id="z36527c6"><use href="#z36527d6"/></clipPath>
	<clipPath id="z36527c7"><use href="#z36527d7"/></clipPath>
	<clipPath id="z36527c8"><use href="#z36527d8"/></clipPath>
	<clipPath id="z36527c9"><use href="#z36527d9"/></clipPath>
	<clipPath id="z36527c10"><use href="#z36527d10"/></clipPath>
	<clipPath id="z36527c11"><use href="#z36527d11"/></clipPath><marker id="guide-arrow" viewBox="0 0 16 16" refX="5" refY="5" markerWidth="4" markerHeight="4" orient="auto-start-reverse"><path d="M 0 0 L 10 5 L 0 10 z" fill="inherit"/></marker></defs>
<g class="strokes"><path style="--part:1" pathLength="3333" clip-path="url(#z36527c1)" d="M322 87L360 125L261 271"/><path style="--part:1" pathLength="3333" clip-path="url(#z36527c2)" d="M184 265L217 305L216 578"/><path style="--part:1" pathLength="3333" clip-path="url(#z36527c3)" d="M234 284L382 250L419 284L403 830L369 878L283 827"/><path style="--part:1" pathLength="3333" clip-path="url(#z36527c4)" d="M240 397L353 375"/><path style="--part:1" pathLength="3333" clip-path="url(#z36527c5)" d="M239 481L358 456"/><path style="--part:1" pathLength="3333" clip-path="url(#z36527c6)" d="M74 600L134 621L392 538"/><path style="--part:1" pathLength="3333" clip-path="url(#z36527c7)" d="M452 491L451 524L312 680L87 849"/><path style="--part:2" pathLength="3333" clip-path="url(#z36527c8)" d="M558 238L861 197"/><path style="--part:2" pathLength="3333" clip-path="url(#z36527c9)" d="M752 311L786 353L743 504L679 605L591 680"/><path style="--part:2" pathLength="3333" clip-path="url(#z36527c10)" d="M614 419L795 593L846 683"/><path style="--part:2" pathLength="3333" clip-path="url(#z36527c11)" d="M494 210L535 261L529 869L769 825L941 828"/></g>
<g class="guides"><text class="g1" style="--gs:1" x="322" y="87">①</text><path class="g1 aligned" style="--gs:1" d="M322,87 Q360,125 347.63,143.25 Q273.38,252.75 261,271"/><path class="g1 offset" style="--gs:1" d="M226,87 Q245,106 238.81,115.13 Q201.69,169.88 195.5,179"/><text class="g2" style="--gs:2" x="184" y="265">②</text><path class="g2 aligned" style="--gs:2" d="M184,265 Q217,305 216.88,339.13 Q216.13,543.88 216,578"/><path class="g2 offset" style="--gs:2" d="M88,265 Q121,305 120.88,339.13 Q120.13,543.88 120,578"/><text class="g3" style="--gs:3" x="234" y="284">③</text><path class="g3 aligned" style="--gs:3" d="M234,284 Q382,250 400.5,267 Q419,284 411,557 Q403,830 386,854 Q369,878 326,852.5 Q326,852.5 283,827"/><path class="g3 offset" style="--gs:3" d="M234,380 Q308,346 317.25,363 Q326.5,380 322.5,562.95 Q318.5,745.9 310,762.45 Q301.5,779 280,761.42 Q280,761.42 258.5,743.84"/><text class="g4" style="--gs:4" x="240" y="397">④</text><path class="g4 aligned" style="--gs:4" d="M240,397 L353,375"/><path class="g4 offset" style="--gs:4" d="M240,493 L353,471"/><text class="g5" style="--gs:5" x="239" y="481">⑤</text><path class="g5 aligned" style="--gs:5" d="M239,481 L358,456"/><path class="g5 offset" style="--gs:5" d="M239,577 L358,552"/><text class="g6" style="--gs:6" x="74" y="600">⑥</text><path class="g6 aligned" style="--gs:6" d="M74,600 Q134,621 166.25,610.63 Q359.75,548.38 392,538"/><path class="g6 offset" style="--gs:6" d="M74,696 Q134,717 166.25,706.63 Q359.75,644.38 392,634"/><text class="g7" style="--gs:7" x="452" y="491">⑦</text><path class="g7 aligned" style="--gs:7" d="M452,508 Q312,680 283.88,701.13 Q115.13,827.88 87,849"/><path class="g7 offset" style="--gs:7" d="M537.68,576.54 Q397.68,748.54 369.56,769.67 Q200.81,896.42 172.68,917.54"/><text class="g8" style="--gs:8" x="558" y="238">⑧</text><path class="g8 aligned" style="--gs:8" d="M558,238 L861,197"/><path class="g8 offset" style="--gs:8" d="M558,334 L861,293"/><text class="g9" style="--gs:9" x="752" y="311">⑨</text><path class="g9 aligned" style="--gs:9" d="M752,311 Q786,353 764.5,428.5 Q743,504 711,554.5 Q679,605 635,642.5 Q635,642.5 591,680"/><path class="g9 offset" style="--gs:9" d="M656,311 Q673.26,342.07 662.35,397.93 Q651.43,453.79 635.18,491.15 Q618.94,528.51 596.6,556.26 Q596.6,556.26 574.26,584"/><text class="g10" style="--gs:10" x="614" y="419">⑩</text><path class="g10 aligned" style="--gs:10" d="M614,419 Q795,593 801.38,604.25 Q839.63,671.75 846,683"/><path class="g10 offset" style="--gs:10" d="M699.68,350.46 Q880.68,524.46 887.06,535.71 Q925.31,603.21 931.68,614.46"/><text class="g11" style="--gs:11" x="494" y="210">⑪</text><path class="g11 aligned" style="--gs:11" d="M494,210 Q535,261 532,565 Q529,869 649,847 Q769,825 855,826.5 Q855,826.5 941,828"/><path class="g11 offset" style="--gs:11" d="M579.68,141.46 Q612.82,190.33 610.4,481.67 Q607.97,773 704.97,751.92 Q801.97,730.83 871.48,732.27 Q871.48,732.27 941,733.71"/></g>
<g class="parts"><rect data-part="1" data-literal="身" data-radical="true" role="button" tabindex="0" aria-label="Part 身 (radical)" x="2" y="15" width="522" height="935"/><rect data-part="2" data-literal="区" role="button" tabindex="0" aria-label="Part 区" x="422" y="125" width="591" height="816"/></g>
</svg>
