<svg id="z36556" class="acjk" viewBox="0 0 1024 1024" xmlns="http://www.w3.org/2000/svg">
<style>

@keyframes zk {
	to {
		stroke-dashoffset:0;
	}
}
svg.acjk path[clip-path] {
	--t:0.8s;
	animation:zk var(--t) linear forwards var(--d);
	stroke-dasharray:3337;
	stroke-dashoffset:3339;
	stroke-width:128;
	stroke-linecap:round;
	fill:none;
	stroke:#000;
}
svg.acjk path[id] {fill:#ccc;}


    @keyframes guide-fade {
        0% { opacity: 0; }
        3% { opacity: 1; }
        95% { opacity: 1; }
        100% { opacity: 0; }
    }

    svg.acjk #guide-arrow {
        fill: #f77;
    }

    svg.acjk .guides {
        circle {
            fill: #0f6;
        }

        path {
            opacity: 0;
            animation: guide-fade var(--t) linear forwards var(--d);
            stroke-width: 16px;
            stroke-linecap: round;
            stroke: #f77;
            fill: none;
            marker-end: url(#guide-arrow);
        }

        circle,
        path {
            --t: 0.8s;
            opacity: 0;
            animation: guide-fade calc(var(--t) + 0.4s) ease-in-out forwards calc(var(--d) - 0.2s);
        }
    }
</style>
<path id="z36556d1" d="M372 247C390 241 409 236 429 231C447 225 458 220 461 218C465 213 467 207 464 202C459 195 447 190 429 188C410 185 394 191 377 198C344 210 344 210 327 216C294 227 260 233 225 241C202 245 200 255 218 263C257 280 288 271 328 260C357 251 357 251 372 247Z"/>
<path id="z36556d2" d="M196 369C188 365 172 363 151 361C142 360 137 360 135 364C131 369 132 376 139 387C161 424 181 475 195 538C199 556 205 572 218 585C232 599 240 601 243 590C243 587 245 584 245 580C244 561 244 561 244 552C243 544 242 535 240 527C225 462 216 419 212 399C210 388 207 373 196 369Z"/>
<path id="z36556d3" d="M517 394C520 383 528 375 536 367C544 358 543 350 536 342C525 331 508 317 480 303C467 297 412 312 370 323C342 330 342 330 328 334C305 339 234 359 196 369C185 371 201 403 212 399C242 388 281 377 328 366C328 366 356 359 370 356C412 346 438 343 449 350C457 355 460 364 458 376C444 456 432 502 423 513C417 521 408 532 414 540C424 554 435 564 445 570C452 574 460 571 469 558C477 545 488 504 503 438C504 432 509 416 512 408C515 399 515 399 517 394Z"/>
<path id="z36556d4" d="M369 448C381 445 398 441 405 440C419 436 424 430 418 423C406 408 389 403 369 409C341 417 341 417 327 421C309 425 279 440 261 447C251 450 252 455 266 464C270 466 278 468 288 466C288 466 313 460 326 458C340 454 354 451 369 448Z"/>
<path id="z36556d5" d="M245 580Q251 577 323 561C352 554 352 554 367 551Q389 545 414 540C423 538 431 518 423 513Q405 501 368 512C339 521 339 521 324 526Q281 539 244 552C235 555 236 583 245 580Z"/>
<path id="z36556d6" d="M320 640C194 667 112 682 69 688C60 689 55 692 53 698C50 704 54 712 65 720C90 738 119 743 149 734C247 701 301 686 316 683C349 676 349 676 366 672C402 663 443 655 488 650C499 648 505 646 506 640C506 631 500 623 488 618C466 608 426 616 366 630C335 637 335 637 320 640Z"/>
<path id="z36556d7" d="M370 323C370 295 369 269 372 247C375 214 375 214 377 198C379 175 382 155 390 138C394 127 398 118 395 110C391 102 370 89 334 67C318 57 304 55 291 66C288 68 287 76 293 86C313 119 325 162 327 216C328 245 328 245 328 260C328 284 328 309 328 334C328 355 328 355 328 366C328 382 327 402 327 421C326 446 326 446 326 458C325 480 324 502 324 526C323 549 323 549 323 561C322 587 322 613 320 640C317 669 317 669 316 683C312 719 307 756 298 792C291 817 290 849 310 888C315 899 322 907 327 911C332 914 334 914 340 909C344 905 350 898 357 885C364 868 366 850 366 830C365 812 366 759 366 672C366 644 366 644 366 630C366 605 366 579 367 551C368 525 368 525 368 512C368 491 369 470 369 448C369 422 369 422 369 409C369 392 370 374 370 356C370 334 370 334 370 323Z"/>
<path id="z36556d8" d="M657 356C665 258 676 192 692 161C696 152 695 144 689 138C676 125 658 115 634 108C619 103 608 102 603 107C596 111 595 117 600 125C612 147 620 173 621 203C621 259 619 316 614 372C612 393 612 393 611 403C596 557 561 670 515 742C497 768 474 795 446 822C440 827 435 830 436 834C436 836 440 835 448 836C455 836 467 833 487 824C570 782 625 659 649 451C649 446 652 405 654 391C656 368 656 368 657 356Z"/>
<path id="z36556d9" d="M654 391C711 375 741 361 744 366C749 374 744 423 729 512C692 724 746 841 892 865C892 865 894 865 897 866C923 870 949 867 975 859C999 851 1008 834 998 811C984 778 974 737 970 686C968 671 965 662 962 660C956 656 951 661 949 671C942 697 935 721 930 745C924 767 917 783 907 791C901 795 890 795 875 793C835 786 804 766 784 731C750 671 749 576 786 450C798 407 819 378 843 360C861 345 859 334 839 325C827 319 810 312 786 305C770 300 754 302 740 313C721 325 695 341 657 356C628 367 628 367 614 372C580 384 547 392 517 394C512 394 507 406 512 408C526 416 558 417 611 403C640 395 640 395 654 391Z"/>
<defs>
	<clipPath id="z36556c1"><use href="#z36556d1"/></clipPath>
	<clipPath id="z36556c2"><use href="#z36556d2"/></clipPath>
	<clipPath id="z36556c3"><use href="#z36556d3"/></clipPath>
	<clipPath id="z36556c4"><use href="#z36556d4"/></clipPath>
	<clipPath id="z36556c5"><use href="#z36556d5"/></clipPath>
	<clipPath id="z36556c6"><use href="#z36556d6"/></clipPath>
	<clipPath id="z36556c7"><use href="#z36556d7"/></clipPath>
	<clipPath id="z36556c8"><use href="#z36556d8"/></clipPath>
	<clipPath id="z36556c9"><use href="#z36556d9"/></clipPath>
<marker id="guide-arrow" viewBox="0 0 16 16" refX="5" refY="5" markerWidth="4" markerHeight="4" orient="auto-start-reverse"><path d="M 0 0 L 10 5 L 0 10 z" fill="inherit"/></marker></defs>
<path style="--d:1s;" pathLength="3333" clip-path="url(#z36556c1)" d="M215 251L460 206"/>
<path style="--d:2s;" pathLength="3333" clip-path="url(#z36556c2)" d="M140 366L185 411L236 591"/>
<path style="--d:3s;" pathLength="3333" clip-path="url(#z36556c3)" d="M203 370L474 333L499 363L446 567"/>
<path style="--d:4s;" pathLength="3333" clip-path="url(#z36556c4)" d="M261 451L414 430"/>
<path style="--d:5s;" pathLength="3333" clip-path="url(#z36556c5)" d="M251 570L419 520"/>
<path style="--d:6s;" pathLength="3333" clip-path="url(#z36556c6)" d="M57 699L123 709L501 632"/>
<path style="--d:7s;" pathLength="3333" clip-path="url(#z36556c7)" d="M296 70L357 128L333 908"/>
<path style="--d:8s;" pathLength="3333" clip-path="url(#z36556c8)" d="M605 112L655 158L606 571L539 747L444 830"/>
<path style="--d:9s;" pathLength="3333" clip-path="url(#z36556c9)" d="M515 403L748 335L792 348L739 647L766 751L815 804L895 830L954 815L960 665"/>
<g class="guides"><circle style="--d: 1s" class="g1" cx="215" cy="251" r="16"/><path style="--d: 1s;" class="g1" d="M215,347 L460,302"/><circle style="--d: 2s" class="g2" cx="140" cy="366" r="16"/><path style="--d: 2s;" class="g2" d="M225.68,297.456 Q270.68,342.456 277.055,364.956 Q315.305,499.956 321.68,522.456"/><circle style="--d: 3s" class="g3" cx="203" cy="370" r="16"/><path style="--d: 3s;" class="g3" d="M203,466 Q364.1351351351351,429 367.85135135135135,436.5 Q379,459 371.1216216216216,486 Q355.36486486486484,540 347.48648648648646,567"/><circle style="--d: 4s" class="g4" cx="261" cy="451" r="16"/><path style="--d: 4s;" class="g4" d="M261,547 L414,526"/><circle style="--d: 5s" class="g5" cx="251" cy="570" r="16"/><path style="--d: 5s;" class="g5" d="M251,666 L419,616"/><circle style="--d: 6s" class="g6" cx="57" cy="699" r="16"/><path style="--d: 6s;" class="g6" d="M57,795 Q123,805 170.25,795.375 Q453.75,737.625 501,728"/><circle style="--d: 7s" class="g7" cx="296" cy="70" r="16"/><path style="--d: 7s;" class="g7" d="M200,70 Q261,128 258,225.5 Q240,810.5 237,908"/><circle style="--d: 8s" class="g8" cx="605" cy="112" r="16"/><path style="--d: 8s;" class="g8" d="M509,112 Q536.2511848341233,151.84958217270196 522.8981042654029,330.73955431754877 Q509.5450236966825,509.6295264623956 491.2867298578199,585.8635097493036 Q473.02843601895734,662.0974930362117 447.1398104265403,698.0487465181059 Q447.1398104265403,698.0487465181059 421.25118483412325,734"/><circle style="--d: 9s" class="g9" cx="515" cy="403" r="16"/><path style="--d: 9s;" class="g9" d="M515,499 Q685.1685393258427,457.3757575757576 701.2359550561798,461.3545454545455 Q717.3033707865169,465.3333333333333 697.9494382022472,556.8454545454546 Q678.5955056179776,648.3575757575758 688.4550561797753,680.1878787878788 Q698.314606741573,712.0181818181818 716.2078651685393,728.239393939394 Q734.1011235955057,744.4606060606061 763.314606741573,752.4181818181819 Q792.5280898876405,760.3757575757576 814.0730337078652,755.7848484848485 Q835.6179775280899,751.1939393939394 837.8089887640449,705.2848484848485 Q837.8089887640449,705.2848484848485 840,659.3757575757576"/></g></svg>