<!--
  Stroke-order data for 辞, derived from AnimCJK (https://github.com/parsimonhi/animCJK),
  itself derived from the Arphic PL KaitiM fonts. Distributed under the Arphic Public License
  (see ARPHICPL.TXT). Regenerated by scripts/build-strokes.ts — do not edit by hand.
-->
<svg id="z36766" class="acjk" viewBox="0 0 1024 1024" xmlns="http://www.w3.org/2000/svg">
<g class="glyph"><path id="z36766d1" d="M317 240C337 229 356 216 374 206C400 190 426 179 451 172C461 169 468 166 470 162C471 155 467 147 459 142C444 132 422 126 394 118C383 114 373 112 366 115C361 116 359 122 360 130C362 158 292 210 156 297C150 300 153 307 158 308C168 308 255 270 281 258C305 246 305 246 317 240Z"/><path id="z36766d2" d="M344 385C377 376 416 368 458 361C468 359 473 355 474 351C474 342 469 334 457 330C438 322 421 322 407 326C386 331 367 337 349 342C314 351 314 351 296 356C199 381 127 395 79 401C71 401 65 405 64 411C61 417 66 424 77 432C103 450 130 453 157 443C210 422 257 408 295 398C328 389 328 389 344 385Z"/><path id="z36766d3" d="M326 512C332 468 339 425 344 385C347 356 347 356 349 342C352 308 362 294 367 282C369 275 365 267 354 258C340 249 327 243 317 240C305 235 274 246 281 258C291 274 296 287 296 298C295 312 296 336 296 356C295 384 295 384 295 398C294 436 290 478 287 524C287 538 323 525 326 512Z"/><path id="z36766d4" d="M212 540Q200 536 177 531Q164 527 161 532Q154 539 163 555Q191 618 205 720Q206 751 224 772Q242 794 247 779Q254 761 251 728C248 706 248 706 246 695Q231 596 230 569C230 558 223 544 212 540Z"/><path id="z36766d5" d="M414 663C426 611 442 577 462 560C472 550 474 536 463 528C417 492 377 488 342 506C336 508 331 510 326 512C300 520 300 520 287 524C261 531 236 536 212 540C201 542 219 573 230 569C240 565 282 555 356 541C364 539 370 540 375 544C381 549 384 557 383 570C378 604 373 635 367 663C364 678 411 678 414 663Z"/><path id="z36766d6" d="M251 728Q261 729 272 726Q323 713 433 699Q443 698 445 688Q445 681 414 663C401 655 382 657 367 663Q300 684 246 695C235 697 240 728 251 728Z"/><path id="z36766d7" d="M621 118C641 132 663 149 686 168C695 175 704 179 715 178C721 177 726 172 729 164C731 154 728 139 722 121C715 102 679 84 613 72C602 69 595 71 592 73C588 75 587 81 590 89C591 95 603 105 621 118Z"/><path id="z36766d8" d="M545 252C520 255 517 263 535 274C561 290 592 292 629 284C681 272 736 262 792 250C816 244 830 238 835 235C840 230 842 224 839 219C834 212 822 205 804 201C788 197 747 210 681 228C625 242 578 247 545 252Z"/><path id="z36766d9" d="M526 371C550 421 569 449 585 455C593 457 602 454 608 443C611 435 611 423 608 410C604 397 594 387 582 378C560 361 545 351 536 347C531 344 528 346 525 354C522 358 522 364 526 371Z"/><path id="z36766d10" d="M723 456C741 423 756 400 771 373C777 360 787 344 801 331C809 322 812 317 807 309C800 298 788 287 770 274C761 267 750 265 739 270C732 272 732 277 735 285C742 303 722 373 686 465C681 477 717 467 723 456Z"/><path id="z36766d11" d="M676 507C715 496 778 485 863 476C869 475 877 473 881 465C883 458 874 452 861 444C829 425 780 442 723 456C698 462 698 462 686 465C647 474 611 480 577 485C550 488 522 492 492 497C473 500 471 506 486 517C500 527 522 537 549 533C598 525 620 521 631 519C661 511 661 511 676 507Z"/><path id="z36766d12" d="M701 643C737 637 782 632 836 631C864 630 881 628 885 622C888 615 884 607 874 600C841 577 804 575 762 588C744 593 724 598 702 603C663 612 663 612 643 616C596 626 546 633 493 644C481 646 479 652 490 661C509 676 530 680 550 675C578 666 609 657 643 652C682 646 682 646 701 643Z"/><path id="z36766d13" d="M647 912C649 928 653 939 658 945C661 949 666 952 671 950C689 940 698 886 698 792C697 769 699 696 701 643C702 616 702 616 702 603C702 583 705 572 710 547C712 536 708 527 700 521C691 515 683 510 676 507C663 499 628 504 631 519C637 543 643 575 643 616C643 640 643 640 643 652C643 694 644 742 644 796C644 854 644 892 647 912Z"/></g>
<defs><clipPath id="z36766c1"><use href="#z36766d1"/></clipPath>
	<clipPath id="z36766c2"><use href="#z36766d2"/></clipPath>
	<clipPath id="z36766c3"><use href="#z36766d3"/></clipPath>
	<clipPath id="z36766c4"><use href="#z36766d4"/></clipPath>
	<clipPath id="z36766c5"><use href="#z36766d5"/></clipPath>
	<clipPath id="z36766c6"><use href="#z36766d6"/></clipPath>
	<clipPath id="z36766c7"><use href="#z36766d7"/></clipPath>
	<clipPath id="z36766c8"><use href="#z36766d8"/></clipPath>
	<clipPath id="z36766c9"><use href="#z36766d9"/></clipPath>
	<clipPath id="z36766c10"><use href="#z36766d10"/></clipPath>
	<clipPath id="z36766c11"><use href="#z36766d11"/></clipPath>
	<clipPath id="z36766c12"><use href="#z36766d12"/></clipPath>
	<clipPath id="z36766c13"><use href="#z36766d13"/></clipPath><marker id="guide-arrow" viewBox="0 0 16 16" refX="5" refY="5" markerWidth="4" markerHeight="4" orient="auto-start-reverse"><path d="M 0 0 L 10 5 L 0 10 z" fill="inherit"/></marker></defs>
<g class="strokes"><path pathLength="3333" clip-path="url(#z36766c1)" d="M373 123L421 156L163 299"/><path pathLength="3333" clip-path="url(#z36766c2)" d="M69 414L131 421L468 348"/><path pathLength="3333" clip-path="url(#z36766c3)" d="M288 259L331 286L295 516"/><path pathLength="3333" clip-path="url(#z36766c4)" d="M167 539L203 580L234 777"/><path pathLength="3333" clip-path="url(#z36766c5)" d="M223 544L402 527L426 556L385 662"/><path pathLength="3333" clip-path="url(#z36766c6)" d="M252 700L440 684"/><path pathLength="3333" clip-path="url(#z36766c7)" d="M596 80L689 129L721 171"/><path pathLength="3333" clip-path="url(#z36766c8)" d="M532 261L595 267L832 216"/><path pathLength="3333" clip-path="url(#z36766c9)" d="M532 353L595 451"/><path pathLength="3333" clip-path="url(#z36766c10)" d="M742 275L771 320L693 459"/><path pathLength="3333" clip-path="url(#z36766c11)" d="M486 508L874 459"/><path pathLength="3333" clip-path="url(#z36766c12)" d="M489 651L881 612"/><path pathLength="3333" clip-path="url(#z36766c13)" d="M638 531L675 555L662 944"/></g>
<g class="guides"><text class="g1" style="--gs:1" x="373" y="123">①</text><path class="g1 aligned" style="--gs:1" d="M373,123 Q421,156 388.75,173.88 Q195.25,281.13 163,299"/><path class="g1 offset" style="--gs:1" d="M277,123 Q307.14,139.5 286.89,148.44 Q165.39,202.06 145.14,211"/><text class="g2" style="--gs:2" x="69" y="414">②</text><path class="g2 aligned" style="--gs:2" d="M69,414 Q131,421 173.13,411.88 Q425.88,357.13 468,348"/><path class="g2 offset" style="--gs:2" d="M69,510 Q131,517 173.13,507.88 Q425.88,453.13 468,444"/><text class="g3" style="--gs:3" x="288" y="259">③</text><path class="g3 aligned" style="--gs:3" d="M288,259 Q331,286 326.5,314.75 Q299.5,487.25 295,516"/><path class="g3 offset" style="--gs:3" d="M192,259 Q235,286 230.5,314.75 Q203.5,487.25 199,516"/><text class="g4" style="--gs:4" x="167" y="539">④</text><path class="g4 aligned" style="--gs:4" d="M167,539 Q203,580 206.88,604.63 Q230.13,752.38 234,777"/><path class="g4 offset" style="--gs:4" d="M252.68,470.46 Q288.68,511.46 292.56,536.08 Q315.81,683.83 319.68,708.46"/><text class="g5" style="--gs:5" x="223" y="544">⑤</text><path class="g5 aligned" style="--gs:5" d="M223,544 Q402,527 408,534.25 Q426,556 415.75,582.5 Q395.25,635.5 385,662"/><path class="g5 offset" style="--gs:5" d="M223,640 Q312.5,623 315.5,626.63 Q324.5,637.5 319.38,650.75 Q309.13,677.25 304,690.5"/><text class="g6" style="--gs:6" x="252" y="700">⑥</text><path class="g6 aligned" style="--gs:6" d="M252,700 L440,684"/><path class="g6 offset" style="--gs:6" d="M252,796 L440,780"/><text class="g7" style="--gs:7" x="596" y="80">⑦</text><path class="g7 aligned" style="--gs:7" d="M596,80 Q689,129 693,134.25 Q717,165.75 721,171"/><path class="g7 offset" style="--gs:7" d="M681.68,11.46 Q774.68,60.46 778.68,65.71 Q802.68,97.21 806.68,102.46"/><text class="g8" style="--gs:8" x="532" y="261">⑧</text><path class="g8 aligned" style="--gs:8" d="M532,261 Q595,267 624.63,260.63 Q802.38,222.38 832,216"/><path class="g8 offset" style="--gs:8" d="M532,357 Q595,363 624.63,356.63 Q802.38,318.38 832,312"/><text class="g9" style="--gs:9" x="532" y="353">⑨</text><path class="g9 aligned" style="--gs:9" d="M532,353 L595,451"/><path class="g9 offset" style="--gs:9" d="M617.68,284.46 L680.68,382.46"/><text class="g10" style="--gs:10" x="742" y="275">⑩</text><path class="g10 aligned" style="--gs:10" d="M742,275 Q771,320 761.25,337.38 Q702.75,441.63 693,459"/><path class="g10 offset" style="--gs:10" d="M646,275 Q675,320 665.25,337.38 Q606.75,441.63 597,459"/><text class="g11" style="--gs:11" x="486" y="508">⑪</text><path class="g11 aligned" style="--gs:11" d="M486,508 L874,459"/><path class="g11 offset" style="--gs:11" d="M486,604 L874,555"/><text class="g12" style="--gs:12" x="489" y="651">⑫</text><path class="g12 aligned" style="--gs:12" d="M489,651 L881,612"/><path class="g12 offset" style="--gs:12" d="M489,747 L881,708"/><text class="g13" style="--gs:13" x="638" y="531">⑬</text><path class="g13 aligned" style="--gs:13" d="M638,531 Q675,555 673.38,603.63 Q663.63,895.38 662,944"/><path class="g13 offset" style="--gs:13" d="M542,531 Q579,555 577.38,603.63 Q567.63,895.38 566,944"/></g>
</svg>
