<!--
  Stroke-order data for 辨, derived from AnimCJK (https://github.com/parsimonhi/animCJK),
  itself derived from the Arphic PL KaitiM fonts. Distributed under the Arphic Public License
  (see ARPHICPL.TXT). Regenerated by scripts/build-strokes.ts — do not edit by hand.
-->
<svg id="z36776" class="acjk" viewBox="0 0 1024 1024" xmlns="http://www.w3.org/2000/svg">
<g class="glyph"><path style="--part:1" id="z36776d1" d="M286 136C324 171 348 189 358 189C364 188 369 183 373 175C375 166 374 152 369 133C363 114 333 101 281 90C270 87 263 86 260 89C256 91 255 97 257 105C258 111 269 121 286 136Z"/><path style="--part:1" id="z36776d2" d="M191 270C168 273 165 281 182 291C205 303 249 302 312 289C338 282 366 275 395 269C413 264 424 260 428 258C432 253 434 248 431 243C426 236 415 229 397 226C378 222 360 226 343 234C321 242 298 249 276 255C250 261 221 265 191 270Z"/><path style="--part:1" id="z36776d3" d="M196 366C210 396 223 416 236 425C242 429 249 428 256 422C260 417 265 410 265 401C264 380 245 360 213 340C206 335 200 333 194 334C191 334 189 337 189 344C188 350 191 356 196 366Z"/><path style="--part:1" id="z36776d4" d="M336 450Q348 432 376 381Q383 368 396 349Q408 339 401 331Q394 318 370 303Q358 296 345 301Q338 304 342 313Q351 341 315 437Q311 447 309 456C307 465 330 457 336 450Z"/><path style="--part:1" id="z36776d5" d="M298 494C332 487 371 478 415 473C423 471 428 469 429 465C429 457 424 450 415 446C398 438 372 441 336 450C318 454 318 454 309 456C194 481 116 494 75 499C68 499 63 502 62 507C59 512 63 519 72 526C95 542 118 545 141 537C185 520 224 508 257 502C284 497 284 497 298 494Z"/><path style="--part:1" id="z36776d6" d="M310 615C322 611 347 603 388 598C393 597 400 595 403 587C404 580 395 575 383 570C361 560 341 562 317 571C282 583 282 583 265 589C242 596 221 600 202 605C187 608 170 610 153 615C136 618 136 624 149 633C169 646 188 650 206 644C222 638 240 633 261 628C294 619 294 619 310 615Z"/><path style="--part:1" id="z36776d7" d="M261 628C251 722 217 795 162 842C143 857 128 867 124 877C122 880 126 882 132 883C152 884 183 873 216 837C281 765 301 668 310 615C315 586 315 586 317 571C324 520 340 518 298 494C287 486 250 490 257 502C265 516 269 545 265 589C262 615 262 615 261 628Z"/><path style="--part:2" id="z36776d8" d="M430 371C440 410 450 434 461 440C466 443 474 441 481 434C485 428 486 419 486 408C485 389 469 371 442 353C438 350 434 351 431 357C428 360 428 364 430 371Z"/><path style="--part:2" id="z36776d9" d="M496 216C505 230 511 244 514 270C527 460 499 621 370 743C352 760 348 770 370 765C557 684 563 458 568 270C568 257 570 244 572 238C574 225 570 215 558 210C527 195 507 190 499 192C486 194 486 201 496 216Z"/><path style="--part:3" id="z36776d10" d="M673 99C687 111 700 126 715 143C723 152 733 156 744 157C750 157 757 152 761 143C764 133 762 118 758 99C755 87 745 75 727 68C683 50 656 44 648 49C644 50 642 57 644 66C644 72 655 83 673 99Z"/><path style="--part:3" id="z36776d11" d="M812 235C828 231 853 224 868 218C873 215 874 208 871 203C866 196 855 189 837 186C818 182 800 186 783 194C733 213 679 223 631 230C608 232 605 241 622 251C632 257 647 260 666 259C709 258 742 250 780 242C801 237 801 237 812 235Z"/><path style="--part:3" id="z36776d12" d="M626 332C642 359 656 379 670 387C676 390 683 388 688 383C693 377 695 369 695 362C694 349 689 340 682 333C661 312 642 303 626 302C618 301 617 308 617 312C616 316 620 322 626 332Z"/><path style="--part:3" id="z36776d13" d="M766 412C801 348 810 322 841 285C847 276 850 272 846 266C839 256 828 245 812 235C803 228 778 231 780 242C791 287 770 328 734 418C730 428 761 422 766 412Z"/><path style="--part:3" id="z36776d14" d="M737 453C760 447 815 439 906 437C933 436 949 434 952 428C954 421 951 414 942 408C922 394 901 388 878 387C854 387 822 401 766 412C745 416 745 416 734 418C689 426 640 435 589 445C578 446 576 452 586 461C595 469 607 474 620 475C643 477 662 469 683 465C719 457 719 457 737 453Z"/><path style="--part:3" id="z36776d15" d="M756 596C788 590 830 589 880 589C904 589 920 586 924 580C927 573 923 566 914 560C893 546 871 538 848 539C816 539 785 552 757 558C720 565 720 565 701 569C664 576 625 581 585 589C574 590 572 596 582 605C599 620 619 624 639 619C657 613 678 608 701 605C738 599 738 599 756 596Z"/><path style="--part:3" id="z36776d16" d="M703 924C705 940 709 951 714 957C717 961 722 964 727 962C745 951 754 890 754 785C753 756 753 693 756 596C757 571 757 571 757 558C759 469 780 482 737 453C721 444 674 449 683 465C695 483 701 517 701 569C701 593 701 593 701 605C701 807 701 913 703 924Z"/></g>
<defs><clipPath id="z36776c1"><use href="#z36776d1"/></clipPath>
	<clipPath id="z36776c2"><use href="#z36776d2"/></clipPath>
	<clipPath id="z36776c3"><use href="#z36776d3"/></clipPath>
	<clipPath id="z36776c4"><use href="#z36776d4"/></clipPath>
	<clipPath id="z36776c5"><use href="#z36776d5"/></clipPath>
	<clipPath id="z36776c6"><use href="#z36776d6"/></clipPath>
	<clipPath id="z36776c7"><use href="#z36776d7"/></clipPath>
	<clipPath id="z36776c8"><use href="#z36776d8"/></clipPath>
	<clipPath id="z36776c9"><use href="#z36776d9"/></clipPath>
	<clipPath id="z36776c10"><use href="#z36776d10"/></clipPath>
	<clipPath id="z36776c11"><use href="#z36776d11"/></clipPath>
	<clipPath id="z36776c12"><use href="#z36776d12"/></clipPath>
	<clipPath id="z36776c13"><use href="#z36776d13"/></clipPath>
	<clipPath id="z36776c14"><use href="#z36776d14"/></clipPath>
	<clipPath id="z36776c15"><use href="#z36776d15"/></clipPath>
	<clipPath id="z36776c16"><use href="#z36776d16"/></clipPath><marker id="guide-arrow" viewBox="0 0 16 16" refX="5" refY="5" markerWidth="4" markerHeight="4" orient="auto-start-reverse"><path d="M 0 0 L 10 5 L 0 10 z" fill="inherit"/></marker></defs>
<g class="strokes"><path style="--part:1" pathLength="3333" clip-path="url(#z36776c1)" d="M264 98L370 175"/><path style="--part:1" pathLength="3333" clip-path="url(#z36776c2)" d="M177 278L426 246"/><path style="--part:1" pathLength="3333" clip-path="url(#z36776c3)" d="M198 344L257 414"/><path style="--part:1" pathLength="3333" clip-path="url(#z36776c4)" d="M350 307L372 344L317 453"/><path style="--part:1" pathLength="3333" clip-path="url(#z36776c5)" d="M67 509L422 463"/><path style="--part:1" pathLength="3333" clip-path="url(#z36776c6)" d="M149 623L396 587"/><path style="--part:1" pathLength="3333" clip-path="url(#z36776c7)" d="M264 497L296 531L265 713L208 820L131 876"/><path style="--part:2" pathLength="3333" clip-path="url(#z36776c8)" d="M437 360L467 437"/><path style="--part:2" pathLength="3333" clip-path="url(#z36776c9)" d="M495 199L542 241L516 546L462 665L362 758"/><path style="--part:3" pathLength="3333" clip-path="url(#z36776c10)" d="M650 58L722 102L754 149"/><path style="--part:3" pathLength="3333" clip-path="url(#z36776c11)" d="M618 237L868 206"/><path style="--part:3" pathLength="3333" clip-path="url(#z36776c12)" d="M624 309L682 381"/><path style="--part:3" pathLength="3333" clip-path="url(#z36776c13)" d="M788 242L814 281L744 419"/><path style="--part:3" pathLength="3333" clip-path="url(#z36776c14)" d="M587 452L874 412L948 421"/><path style="--part:3" pathLength="3333" clip-path="url(#z36776c15)" d="M584 596L834 564L920 575"/><path style="--part:3" pathLength="3333" clip-path="url(#z36776c16)" d="M690 458L729 488L725 956"/></g>
<g class="guides"><text class="g1" style="--gs:1" x="264" y="98">①</text><path class="g1 aligned" style="--gs:1" d="M264,98 L370,175"/><path class="g1 offset" style="--gs:1" d="M349.68,29.46 L455.68,106.46"/><text class="g2" style="--gs:2" x="177" y="278">②</text><path class="g2 aligned" style="--gs:2" d="M177,278 L426,246"/><path class="g2 offset" style="--gs:2" d="M177,374 L426,342"/><text class="g3" style="--gs:3" x="198" y="344">③</text><path class="g3 aligned" style="--gs:3" d="M198,344 L257,414"/><path class="g3 offset" style="--gs:3" d="M283.68,275.46 L342.68,345.46"/><text class="g4" style="--gs:4" x="350" y="307">④</text><path class="g4 aligned" style="--gs:4" d="M350,307 Q372,344 365.13,357.63 Q323.88,439.38 317,453"/><path class="g4 offset" style="--gs:4" d="M254,307 Q276,344 269.13,357.63 Q227.88,439.38 221,453"/><text class="g5" style="--gs:5" x="67" y="509">⑤</text><path class="g5 aligned" style="--gs:5" d="M67,509 L422,463"/><path class="g5 offset" style="--gs:5" d="M67,605 L422,559"/><text class="g6" style="--gs:6" x="149" y="623">⑥</text><path class="g6 aligned" style="--gs:6" d="M149,623 L396,587"/><path class="g6 offset" style="--gs:6" d="M149,719 L396,683"/><text class="g7" style="--gs:7" x="264" y="497">⑦</text><path class="g7 aligned" style="--gs:7" d="M264,497 Q296,531 280.5,622 Q265,713 236.5,766.5 Q208,820 169.5,848 Q169.5,848 131,876"/><path class="g7 offset" style="--gs:7" d="M168,497 Q184,522.39 176.25,590.34 Q168.5,658.29 154.25,698.24 Q140,738.18 120.75,759.09 Q120.75,759.09 101.5,780"/><text class="g8" style="--gs:8" x="437" y="360">⑧</text><path class="g8 aligned" style="--gs:8" d="M437,360 L467,437"/><path class="g8 offset" style="--gs:8" d="M557,360 L587,437"/><text class="g9" style="--gs:9" x="495" y="199">⑨</text><path class="g9 aligned" style="--gs:9" d="M495,199 Q542,241 529,393.5 Q516,546 489,605.5 Q462,665 412,711.5 Q412,711.5 362,758"/><path class="g9 offset" style="--gs:9" d="M399,199 Q422.5,233.79 416,360.1 Q409.5,486.41 396,535.69 Q382.5,584.97 357.5,623.49 Q357.5,623.49 332.5,662"/><text class="g10" style="--gs:10" x="650" y="58">⑩</text><path class="g10 aligned" style="--gs:10" d="M650,58 Q722,102 726,107.88 Q750,143.13 754,149"/><path class="g10 offset" style="--gs:10" d="M735.68,-10.54 Q807.68,33.46 811.68,39.33 Q835.68,74.58 839.68,80.46"/><text class="g11" style="--gs:11" x="618" y="237">⑪</text><path class="g11 aligned" style="--gs:11" d="M618,237 L868,206"/><path class="g11 offset" style="--gs:11" d="M618,333 L868,302"/><text class="g12" style="--gs:12" x="624" y="309">⑫</text><path class="g12 aligned" style="--gs:12" d="M624,309 L682,381"/><path class="g12 offset" style="--gs:12" d="M709.68,240.46 L767.68,312.46"/><text class="g13" style="--gs:13" x="788" y="242">⑬</text><path class="g13 aligned" style="--gs:13" d="M788,242 Q814,281 805.25,298.25 Q752.75,401.75 744,419"/><path class="g13 offset" style="--gs:13" d="M692,242 Q718,281 709.25,298.25 Q656.75,401.75 648,419"/><text class="g14" style="--gs:14" x="587" y="452">⑭</text><path class="g14 aligned" style="--gs:14" d="M587,452 Q874,412 883.25,413.13 Q938.75,419.88 948,421"/><path class="g14 offset" style="--gs:14" d="M587,548 Q874,508 883.25,509.13 Q938.75,515.88 948,517"/><text class="g15" style="--gs:15" x="584" y="596">⑮</text><path class="g15 aligned" style="--gs:15" d="M584,596 Q834,564 844.75,565.38 Q909.25,573.63 920,575"/><path class="g15 offset" style="--gs:15" d="M584,692 Q834,660 844.75,661.38 Q909.25,669.63 920,671"/><text class="g16" style="--gs:16" x="690" y="458">⑯</text><path class="g16 aligned" style="--gs:16" d="M690,458 Q729,488 728.5,546.5 Q725.5,897.5 725,956"/><path class="g16 offset" style="--gs:16" d="M594,458 Q633,488 632.5,546.5 Q629.5,897.5 629,956"/></g>
<g class="parts"><rect data-part="3" data-literal="辛" role="button" tabindex="0" aria-label="Part 辛" x="512" y="0" width="508" height="1024"/><rect data-part="1" data-literal="辛" data-radical="true" role="button" tabindex="0" aria-label="Part 辛 (radical)" x="0" y="26" width="498" height="922"/><rect data-part="2" data-literal="刂" role="button" tabindex="0" aria-label="Part 刂" x="290" y="127" width="324" height="703"/></g>
</svg>
