<svg id="z36789" class="acjk" viewBox="0 0 1024 1024" xmlns="http://www.w3.org/2000/svg">
<style>

@keyframes zk {
	to {
		stroke-dashoffset:0;
	}
}
svg.acjk path[clip-path] {
	--t:0.8s;
	animation:zk var(--t) linear forwards var(--d);
	stroke-dasharray:3337;
	stroke-dashoffset:3339;
	stroke-width:128;
	stroke-linecap:round;
	fill:none;
	stroke:#000;
}
svg.acjk path[id] {fill:#ccc;}


    @keyframes guide-fade {
        0% { opacity: 0; }
        3% { opacity: 1; }
        95% { opacity: 1; }
        100% { opacity: 0; }
    }

    svg.acjk #guide-arrow {
        fill: #f77;
    }

    svg.acjk .guides {
        circle {
            fill: #0f6;
        }

        path {
            opacity: 0;
            animation: guide-fade var(--t) linear forwards var(--d);
            stroke-width: 16px;
            stroke-linecap: round;
            stroke: #f77;
            fill: none;
            marker-end: url(#guide-arrow);
        }

        circle,
        path {
            --t: 0.8s;
            opacity: 0;
            animation: guide-fade calc(var(--t) + 0.4s) ease-in-out forwards calc(var(--d) - 0.2s);
        }
    }
</style>
<path id="z36789d1" d="M591 65C589 82 586 96 576 107C508 171 423 227 321 278C313 281 309 285 306 288C300 292 302 295 312 298C316 299 325 298 338 296C370 288 408 273 453 253C484 238 521 218 564 190C602 164 628 148 643 143C658 136 658 115 641 83C631 65 620 53 610 49C599 44 591 50 591 65Z"/>
<path id="z36789d2" d="M617 202C615 220 609 235 598 245C584 257 569 268 555 279C489 328 407 375 306 418C299 420 294 421 292 424C285 429 286 434 295 436C312 438 338 432 374 420C441 396 515 358 596 307C606 300 616 294 625 290C638 282 651 275 665 273C670 272 672 265 673 257C673 251 670 243 666 232C656 207 646 192 634 188C623 184 618 188 617 202Z"/>
<path id="z36789d3" d="M505 496C523 488 549 474 584 455C628 430 659 416 677 412C678 411 680 411 682 410C693 402 695 384 682 354C674 337 664 326 655 321C645 315 639 320 637 334C633 354 626 370 612 381C596 393 581 403 568 412C501 456 406 502 283 547C272 550 265 553 265 557C264 561 266 565 270 565C271 565 271 565 272 565C297 565 352 561 435 526C435 526 459 515 472 510C494 501 494 501 505 496Z"/>
<path id="z36789d4" d="M472 510C478 523 482 542 484 559C487 583 486 685 484 779C484 795 527 816 527 800C530 758 534 677 536 655C537 634 537 634 538 624C539 599 542 551 542 551C542 538 545 530 540 523C530 510 520 501 505 496C494 492 468 499 472 510Z"/>
<path id="z36789d5" d="M536 655C547 658 557 660 568 661C594 661 637 650 710 631C724 627 733 626 735 624C740 617 742 612 739 607C734 599 724 594 710 591C685 586 662 591 639 599C606 609 606 609 590 614C577 617 560 621 538 624C528 626 526 653 536 655Z"/>
<path id="z36789d6" d="M353 706C362 692 377 674 384 667C392 657 392 645 375 633C350 615 330 608 316 611C310 612 307 615 308 622C308 636 307 646 306 653C293 700 266 746 227 792C210 811 182 841 137 880C133 883 133 886 139 888C141 888 144 887 148 886C165 880 188 868 218 850C240 835 264 815 287 788C287 788 322 748 338 727C348 713 348 713 353 706Z"/>
<path id="z36789d7" d="M484 779C468 771 373 716 353 706C346 702 330 724 338 727C355 735 586 880 710 957C729 969 752 973 780 969C805 964 834 956 866 947C918 930 945 918 947 910C947 905 942 902 930 900C906 896 881 892 855 888C767 874 714 865 697 862C647 851 590 831 527 800C498 786 498 786 484 779Z"/>
<defs>
	<clipPath id="z36789c1"><use href="#z36789d1"/></clipPath>
	<clipPath id="z36789c2"><use href="#z36789d2"/></clipPath>
	<clipPath id="z36789c3"><use href="#z36789d3"/></clipPath>
	<clipPath id="z36789c4"><use href="#z36789d4"/></clipPath>
	<clipPath id="z36789c5"><use href="#z36789d5"/></clipPath>
	<clipPath id="z36789c6"><use href="#z36789d6"/></clipPath>
	<clipPath id="z36789c7"><use href="#z36789d7"/></clipPath>
<marker id="guide-arrow" viewBox="0 0 16 16" refX="5" refY="5" markerWidth="4" markerHeight="4" orient="auto-start-reverse"><path d="M 0 0 L 10 5 L 0 10 z" fill="inherit"/></marker></defs>
<path style="--d:1s;" pathLength="3333" clip-path="url(#z36789c1)" d="M604 53L606 126L467 221L309 290"/>
<path style="--d:2s;" pathLength="3333" clip-path="url(#z36789c2)" d="M628 192L635 255L447 370L295 430"/>
<path style="--d:3s;" pathLength="3333" clip-path="url(#z36789c3)" d="M648 327L648 394L461 494L273 557"/>
<path style="--d:4s;" pathLength="3333" clip-path="url(#z36789c4)" d="M480 512L514 542L518 794"/>
<path style="--d:5s;" pathLength="3333" clip-path="url(#z36789c5)" d="M540 649L736 611"/>
<path style="--d:6s;" pathLength="3333" clip-path="url(#z36789c6)" d="M316 621L345 661L309 721L144 882"/>
<path style="--d:7s;" pathLength="3333" clip-path="url(#z36789c7)" d="M347 726L737 918L940 909"/>
<g class="guides"><circle style="--d: 1s" class="g1" cx="604" cy="53" r="16"/><path style="--d: 1s;" class="g1" d="M508,53 Q509.19191919191917,96.43037974683544 488.4823232323232,110.56012658227849 Q426.35353535353534,152.9493670886076 402.8131313131313,163.2120253164557 Q355.7323232323232,183.7373417721519 332.19191919191917,194"/><circle style="--d: 2s" class="g2" cx="628" cy="192" r="16"/><path style="--d: 2s;" class="g2" d="M532,192 Q536.5294117647059,229.58823529411765 506.11764705882354,246.74159663865547 Q414.88235294117646,298.20168067226894 390.2941176470588,307.1512605042017 Q341.11764705882354,325.05042016806726 316.52941176470586,334"/><circle style="--d: 3s" class="g3" cx="648" cy="327" r="16"/><path style="--d: 3s;" class="g3" d="M552,327 Q552,366.03478260869565 520.21,380.6 Q424.84000000000003,424.295652173913 392.88,433.4717391304348 Q328.96000000000004,451.8239130434782 297,461"/><circle style="--d: 4s" class="g4" cx="480" cy="512" r="16"/><path style="--d: 4s;" class="g4" d="M565.68,443.456 Q599.68,473.456 600.18,504.956 Q603.18,693.956 603.68,725.456"/><circle style="--d: 5s" class="g5" cx="540" cy="649" r="16"/><path style="--d: 5s;" class="g5" d="M540,745 L736,707"/><circle style="--d: 6s" class="g6" cx="316" cy="621" r="16"/><path style="--d: 6s;" class="g6" d="M220,621 Q235.14925373134326,646.2873563218391 230.44776119402985,655.7701149425287 Q216.34328358208955,684.2183908045977 194.79477611940297,709.6637931034483 Q151.69776119402985,760.5545977011494 130.14925373134326,786"/><circle style="--d: 7s" class="g7" cx="347" cy="726" r="16"/><path style="--d: 7s;" class="g7" d="M347,822 Q737,1014 762.375,1012.875 Q914.625,1006.125 940,1005"/></g></svg>