<svg id="z36814" class="acjk" viewBox="0 0 1024 1024" xmlns="http://www.w3.org/2000/svg">
<style>

@keyframes zk {
	to {
		stroke-dashoffset:0;
	}
}
svg.acjk path[clip-path] {
	--t:0.8s;
	animation:zk var(--t) linear forwards var(--d);
	stroke-dasharray:3337;
	stroke-dashoffset:3339;
	stroke-width:128;
	stroke-linecap:round;
	fill:none;
	stroke:#000;
}
svg.acjk path[id] {fill:#ccc;}


    @keyframes guide-fade {
        0% { opacity: 0; }
        3% { opacity: 1; }
        95% { opacity: 1; }
        100% { opacity: 0; }
    }

    svg.acjk #guide-arrow {
        fill: #f77;
    }

    svg.acjk .guides {
        circle {
            fill: #0f6;
        }

        path {
            opacity: 0;
            animation: guide-fade var(--t) linear forwards var(--d);
            stroke-width: 16px;
            stroke-linecap: round;
            stroke: #f77;
            fill: none;
            marker-end: url(#guide-arrow);
        }

        circle,
        path {
            --t: 0.8s;
            opacity: 0;
            animation: guide-fade calc(var(--t) + 0.4s) ease-in-out forwards calc(var(--d) - 0.2s);
        }
    }
</style>
<path id="z36814d1" d="M457 282C556 223 590 198 631 180C645 174 650 165 644 153C635 140 622 129 606 118C591 107 579 102 570 104C561 104 561 113 560 123C551 166 530 177 443 266C438 271 451 286 457 282Z"/>
<path id="z36814d2" d="M443 266C428 253 415 245 405 244C396 242 389 243 386 246C379 250 381 256 388 267C411 306 418 377 408 477C404 509 396 530 389 543C380 556 379 571 385 586C393 606 402 621 414 630C420 634 427 630 437 618C456 591 500 544 568 477C592 452 589 439 567 453C542 467 514 481 487 499C462 514 451 505 451 484C450 378 456 312 457 282C457 275 449 270 443 266Z"/>
<path id="z36814d3" d="M680 319C726 303 767 291 802 286C830 281 823 325 823 338C818 405 809 455 795 486C785 505 772 515 755 513C738 510 724 506 710 502C695 497 691 504 704 517C730 542 752 563 767 581C778 594 790 593 802 583C833 554 859 508 868 442C880 346 886 292 894 282C900 273 902 266 899 262C893 255 874 247 845 236C832 231 821 233 811 242C795 254 748 269 670 287C659 289 670 323 680 319Z"/>
<path id="z36814d4" d="M627 774C628 786 636 816 651 810C660 806 665 783 670 747C674 707 675 666 674 627C672 592 672 510 674 378C674 367 676 347 680 319C682 308 680 293 670 287C651 274 637 268 628 266C619 264 610 263 602 270C596 273 597 280 601 287C613 308 620 333 621 361C624 634 624 756 627 774Z"/>
<path id="z36814d5" d="M238 182C254 195 270 212 287 229C297 239 307 243 319 243C327 242 333 237 337 227C340 216 339 199 332 179C325 159 290 144 232 130C221 127 213 126 208 129C203 131 201 137 204 147C205 155 218 166 238 182Z"/>
<path id="z36814d6" d="M296 713C304 710 311 702 314 688C318 666 306 634 284 591C278 580 275 561 275 550C275 517 296 489 335 448C347 434 351 423 340 413C327 402 309 391 287 380C271 371 259 373 247 383C225 398 198 408 169 418C129 431 105 436 93 434C80 431 81 443 89 448C113 462 160 451 235 436C265 429 268 471 251 494C237 511 230 530 230 550C230 570 238 592 253 622C265 646 282 685 276 711C275 718 290 716 296 713Z"/>
<path id="z36814d7" d="M276 711C249 708 221 711 192 721C163 730 127 736 85 738C81 738 77 740 75 746C72 750 73 756 79 763C89 775 103 786 119 796C125 800 135 797 149 789C204 754 258 743 308 756C352 766 418 791 505 834C658 908 761 938 816 921C857 907 896 889 933 865C948 854 948 849 932 849C775 848 641 830 529 793C484 778 434 760 381 737C352 724 324 715 296 713C283 712 283 712 276 711Z"/>
<defs>
	<clipPath id="z36814c1"><use href="#z36814d1"/></clipPath>
	<clipPath id="z36814c2"><use href="#z36814d2"/></clipPath>
	<clipPath id="z36814c3"><use href="#z36814d3"/></clipPath>
	<clipPath id="z36814c4"><use href="#z36814d4"/></clipPath>
	<clipPath id="z36814c5"><use href="#z36814d5"/></clipPath>
	<clipPath id="z36814c6"><use href="#z36814d6"/></clipPath>
	<clipPath id="z36814c7"><use href="#z36814d7"/></clipPath>
<marker id="guide-arrow" viewBox="0 0 16 16" refX="5" refY="5" markerWidth="4" markerHeight="4" orient="auto-start-reverse"><path d="M 0 0 L 10 5 L 0 10 z" fill="inherit"/></marker></defs>
<path style="--d:1s;" pathLength="3333" clip-path="url(#z36814c1)" d="M571 112L591 169L449 276"/>
<path style="--d:2s;" pathLength="3333" clip-path="url(#z36814c2)" d="M389 252L431 300L432 576L578 453"/>
<path style="--d:3s;" pathLength="3333" clip-path="url(#z36814c3)" d="M668 298L813 261L861 286L832 471L803 531L763 548L703 506"/>
<path style="--d:4s;" pathLength="3333" clip-path="url(#z36814c4)" d="M606 277L649 322L643 806"/>
<path style="--d:5s;" pathLength="3333" clip-path="url(#z36814c5)" d="M208 139L296 188L319 239"/>
<path style="--d:6s;" pathLength="3333" clip-path="url(#z36814c6)" d="M94 442L257 407L300 434L252 544L294 671L287 713"/>
<path style="--d:7s;" pathLength="3333" clip-path="url(#z36814c7)" d="M79 748L131 765L227 733L314 736L751 881L938 855"/>
<g class="guides"><circle style="--d: 1s" class="g1" cx="571" cy="112" r="16"/><path style="--d: 1s;" class="g1" d="M475,112 Q485,140.5 476.125,147.1875 Q422.875,187.3125 414,194"/><circle style="--d: 2s" class="g2" cx="389" cy="252" r="16"/><path style="--d: 2s;" class="g2" d="M474.68,183.45600000000002 Q516.68,220.27733333333333 516.93,273.20799999999997 Q517.68,432 554.18,408.41133333333335 Q627.18,361.234 663.68,337.6453333333333"/><circle style="--d: 3s" class="g3" cx="668" cy="298" r="16"/><path style="--d: 3s;" class="g3" d="M668,394 Q740.8756476683938,357 752.9378238341969,369.5 Q765,382 757.7124352331606,422 Q750.4248704663212,462 743.1373056994819,477 Q735.8497409326425,492 725.7979274611398,496.25 Q715.7461139896373,500.5 700.6683937823834,490 Q700.6683937823834,490 685.5906735751296,479.5"/><circle style="--d: 4s" class="g4" cx="606" cy="277" r="16"/><path style="--d: 4s;" class="g4" d="M510,277 Q553,322 552.25,382.5 Q547.75,745.5 547,806"/><circle style="--d: 5s" class="g5" cx="208" cy="139" r="16"/><path style="--d: 5s;" class="g5" d="M208,235 Q252,259.5 253.4375,262.6875 Q262.0625,281.8125 263.5,285"/><circle style="--d: 6s" class="g6" cx="94" cy="442" r="16"/><path style="--d: 6s;" class="g6" d="M94,538 Q175.5,503 186.25,516.5 Q197,530 185,563.5098039215686 Q173,597.0196078431372 183.5,640.5980392156862 Q194,684.1764705882352 192.25,698.5882352941176 Q192.25,698.5882352941176 190.5,713"/><circle style="--d: 7s" class="g7" cx="79" cy="748" r="16"/><path style="--d: 7s;" class="g7" d="M79,844 Q131,861 179,845 Q227,829 270.5,830.5 Q314,832 532.5,904.5 Q751,977 844.5,964 Q844.5,964 938,951"/></g></svg>