<!--
  Stroke-order data for 追, derived from AnimCJK (https://github.com/parsimonhi/animCJK),
  itself derived from the Arphic PL KaitiM fonts. Distributed under the Arphic Public License
  (see ARPHICPL.TXT). Regenerated by scripts/build-strokes.ts — do not edit by hand.
-->
<svg id="z36861" class="acjk" viewBox="0 0 1024 1024" xmlns="http://www.w3.org/2000/svg">
<g class="glyph"><path id="z36861d1" d="M542 271C566 243 587 220 602 202C635 158 659 129 675 117C687 107 688 96 678 88C667 78 652 72 633 68C616 63 603 63 595 67C587 70 586 74 591 83C600 101 588 136 562 189C548 215 536 241 518 276C515 284 537 278 542 271Z"/><path id="z36861d2" d="M518 523C518 495 517 466 517 437C517 416 517 416 517 405C517 356 519 323 522 307C524 296 514 286 505 279C491 268 478 259 462 256C456 254 449 257 446 263C443 267 446 275 450 283C484 361 483 470 466 620C459 672 451 690 451 704C450 723 465 747 473 756C479 764 485 764 493 756C498 749 508 731 512 698C515 675 515 675 516 664C517 654 518 617 518 553C518 533 518 533 518 523Z"/><path id="z36861d3" d="M727 381C738 347 769 300 781 290C792 279 792 265 782 256C772 246 749 235 717 222C705 217 692 217 680 223C649 237 621 249 593 257C576 261 559 267 542 271C526 274 526 274 518 276C513 277 509 277 505 279C495 283 512 310 522 307C524 305 573 293 668 268C679 265 686 264 692 269C696 273 699 281 698 291C694 319 687 346 680 371C675 386 721 396 727 381Z"/><path id="z36861d4" d="M517 437C521 437 526 436 532 436C574 426 641 416 733 408C739 407 743 404 744 399C744 394 738 388 727 381C713 373 696 368 680 371C635 384 563 397 517 405C507 407 506 437 517 437Z"/><path id="z36861d5" d="M739 643C757 591 776 562 793 550C806 539 804 524 794 514C784 504 760 492 726 477C714 471 700 472 687 478C646 494 590 509 518 523C508 525 508 555 518 553C524 553 577 545 677 527C687 525 693 525 698 530C703 535 706 542 705 553C701 581 696 608 690 633C687 649 733 658 739 643Z"/><path id="z36861d6" d="M512 698Q522 699 535 697Q602 684 747 674Q757 673 759 665Q759 658 739 643C726 633 707 633 690 633Q686 633 683 634Q592 655 516 664C505 666 501 698 512 698Z"/><path id="z36861d7" d="M247 191C265 207 284 227 306 249C316 259 328 264 341 264C349 263 356 257 360 247C364 235 363 217 356 194C348 169 310 149 242 134C229 131 220 130 216 132C211 134 209 141 212 152C213 160 226 173 247 191Z"/><path id="z36861d8" d="M300 730C306 724 312 716 315 707C323 680 311 644 284 599C262 563 277 515 326 457C328 454 330 451 334 449C348 436 349 425 336 415C322 404 303 395 281 385C265 377 253 378 240 390C221 405 198 416 172 427C137 441 114 448 104 447C99 446 95 447 94 451C92 453 94 458 101 461C128 474 172 466 232 443C237 440 243 444 250 451C263 466 264 483 249 500C218 533 216 568 243 612C264 647 274 677 275 699C275 711 273 720 270 728C266 737 294 738 300 730Z"/><path id="z36861d9" d="M270 728Q233 727 193 739Q156 749 102 750Q95 749 91 758Q88 765 96 775Q112 794 135 808Q145 815 165 803Q237 758 309 775Q370 788 497 843Q716 942 797 915Q858 893 911 854Q935 838 910 839Q688 848 524 801Q458 782 381 753Q342 735 300 730C280 729 280 729 270 728Z"/></g>
<defs><clipPath id="z36861c1"><use href="#z36861d1"/></clipPath>
	<clipPath id="z36861c2"><use href="#z36861d2"/></clipPath>
	<clipPath id="z36861c3"><use href="#z36861d3"/></clipPath>
	<clipPath id="z36861c4"><use href="#z36861d4"/></clipPath>
	<clipPath id="z36861c5"><use href="#z36861d5"/></clipPath>
	<clipPath id="z36861c6"><use href="#z36861d6"/></clipPath>
	<clipPath id="z36861c7"><use href="#z36861d7"/></clipPath>
	<clipPath id="z36861c8"><use href="#z36861d8"/></clipPath>
	<clipPath id="z36861c9"><use href="#z36861d9"/></clipPath><marker id="guide-arrow" viewBox="0 0 16 16" refX="5" refY="5" markerWidth="4" markerHeight="4" orient="auto-start-reverse"><path d="M 0 0 L 10 5 L 0 10 z" fill="inherit"/></marker></defs>
<g class="strokes"><path pathLength="3333" clip-path="url(#z36861c1)" d="M596 72L638 109L526 271"/><path pathLength="3333" clip-path="url(#z36861c2)" d="M452 263L489 303L497 378L481 757"/><path pathLength="3333" clip-path="url(#z36861c3)" d="M514 283L707 246L743 277L695 374"/><path pathLength="3333" clip-path="url(#z36861c4)" d="M525 429L736 396"/><path pathLength="3333" clip-path="url(#z36861c5)" d="M522 545L713 503L753 543L704 635"/><path pathLength="3333" clip-path="url(#z36861c6)" d="M516 691L683 656L753 662"/><path pathLength="3333" clip-path="url(#z36861c7)" d="M219 142L320 207L344 258"/><path pathLength="3333" clip-path="url(#z36861c8)" d="M104 454L247 412L301 444L249 550L292 667L283 727"/><path pathLength="3333" clip-path="url(#z36861c9)" d="M95 763L145 779L246 750L321 755L716 876L917 846"/></g>
<g class="guides"><text class="g1" style="--gs:1" x="596" y="72">①</text><path class="g1 aligned" style="--gs:1" d="M596,72 Q638,109 624,129.25 Q540,250.75 526,271"/><path class="g1 offset" style="--gs:1" d="M500,72 Q521,91.15 514,101.63 Q472,164.52 465,175"/><text class="g2" style="--gs:2" x="452" y="263">②</text><path class="g2 aligned" style="--gs:2" d="M452,263 Q489,303 491,321.75 Q497,378 493,472.75 Q485,662.25 481,757"/><path class="g2 offset" style="--gs:2" d="M356,263 Q393,303 395,321.75 Q401,378 397,472.75 Q389,662.25 385,757"/><text class="g3" style="--gs:3" x="514" y="283">③</text><path class="g3 aligned" style="--gs:3" d="M514,283 Q707,246 716,253.75 Q743,277 731,301.25 Q707,349.75 695,374"/><path class="g3 offset" style="--gs:3" d="M514,379 Q610.5,342 615,349.75 Q628.5,373 622.5,381.25 Q610.5,397.75 604.5,406"/><text class="g4" style="--gs:4" x="525" y="429">④</text><path class="g4 aligned" style="--gs:4" d="M525,429 L736,396"/><path class="g4 offset" style="--gs:4" d="M525,525 L736,492"/><text class="g5" style="--gs:5" x="522" y="545">⑤</text><path class="g5 aligned" style="--gs:5" d="M522,545 Q713,503 723,513 Q753,543 740.75,566 Q716.25,612 704,635"/><path class="g5 offset" style="--gs:5" d="M522,641 Q617.5,599 622.5,609 Q637.5,639 631.38,645.5 Q619.13,658.5 613,665"/><text class="g6" style="--gs:6" x="516" y="691">⑥</text><path class="g6 aligned" style="--gs:6" d="M516,691 Q683,656 691.75,656.75 Q744.25,661.25 753,662"/><path class="g6 offset" style="--gs:6" d="M516,787 Q683,752 691.75,752.75 Q744.25,757.25 753,758"/><text class="g7" style="--gs:7" x="219" y="142">⑦</text><path class="g7 aligned" style="--gs:7" d="M219,142 Q320,207 323,213.38 Q341,251.63 344,258"/><path class="g7 offset" style="--gs:7" d="M304.68,73.46 Q405.68,138.46 408.68,144.83 Q426.68,183.08 429.68,189.46"/><text class="g8" style="--gs:8" x="104" y="454">⑧</text><path class="g8 aligned" style="--gs:8" d="M104,454 Q247,412 274,428 Q301,444 275,497 Q249,550 270.5,608.5 Q292,667 287.5,697 Q287.5,697 283,727"/><path class="g8 offset" style="--gs:8" d="M104,550 Q175.5,508 189,524 Q202.5,540 189.5,571.97 Q176.5,603.94 187.25,644.61 Q198,685.29 195.75,706.14 Q195.75,706.14 193.5,727"/><text class="g9" style="--gs:9" x="95" y="763">⑨</text><path class="g9 aligned" style="--gs:9" d="M95,763 Q145,779 195.5,764.5 Q246,750 283.5,752.5 Q321,755 518.5,815.5 Q716,876 816.5,861 Q816.5,861 917,846"/><path class="g9 offset" style="--gs:9" d="M95,859 Q145,875 195.5,860.5 Q246,846 283.5,848.5 Q321,851 518.5,911.5 Q716,972 816.5,957 Q816.5,957 917,942"/></g>
</svg>
