<!--
  Stroke-order data for 逐, derived from AnimCJK (https://github.com/parsimonhi/animCJK),
  itself derived from the Arphic PL KaitiM fonts. Distributed under the Arphic Public License
  (see ARPHICPL.TXT). Regenerated by scripts/build-strokes.ts — do not edit by hand.
-->
<svg id="z36880" class="acjk" viewBox="0 0 1024 1024" xmlns="http://www.w3.org/2000/svg">
<g class="glyph"><path id="z36880d1" d="M539 213C670 180 738 159 744 155C750 150 751 144 748 139C743 132 731 125 712 122C693 118 656 131 598 151C540 171 486 180 439 188C416 191 412 201 430 210C453 221 480 227 507 221C528 216 528 216 539 213Z"/><path id="z36880d2" d="M506 327C520 313 536 293 557 270C566 259 572 252 573 248C573 243 570 237 564 230C557 222 549 216 539 213C529 210 507 210 507 221C509 247 486 287 437 342C417 363 394 382 358 411C354 414 353 416 359 417C391 418 447 382 488 344C500 333 500 333 506 327Z"/><path id="z36880d3" d="M665 458C659 442 654 431 647 423C642 418 639 412 635 408C599 367 556 341 506 327C498 325 481 340 488 344C490 346 517 361 525 366C542 377 557 384 576 402C581 407 588 413 594 421C607 438 617 454 625 474C640 514 636 567 623 627C617 651 610 666 603 670C597 672 574 672 537 665C502 658 485 655 484 660C483 664 485 672 495 680C538 714 570 740 589 764C598 776 609 782 619 778C649 764 671 718 682 640C689 584 683 524 675 488C672 477 668 467 665 458Z"/><path id="z36880d4" d="M525 366C514 404 458 457 357 523C345 530 346 531 361 532C391 532 450 505 532 441C536 437 564 412 576 402C591 387 533 347 525 366Z"/><path id="z36880d5" d="M594 421C555 497 481 573 372 650C363 656 362 660 368 663C382 668 410 659 454 636C494 613 539 575 589 519C609 495 616 486 625 474C636 456 603 403 594 421Z"/><path id="z36880d6" d="M647 423C717 376 767 342 803 327C814 321 820 318 818 311C814 300 806 287 794 274C781 260 767 252 752 251C742 250 736 257 737 271C737 287 703 333 635 408C631 413 642 427 647 423Z"/><path id="z36880d7" d="M675 488Q748 530 835 595Q853 611 867 612Q876 612 880 601Q889 588 870 550Q849 498 668 458Q667 457 665 458C654 458 667 482 675 488Z"/><path id="z36880d8" d="M232 180C250 195 269 214 289 233C298 242 309 246 320 246C328 245 334 240 337 231C340 221 338 205 332 185C328 171 315 158 294 150C244 130 213 123 204 129C199 131 197 137 200 147C201 154 213 164 232 180Z"/><path id="z36880d9" d="M283 711C289 706 294 698 296 687C299 661 285 625 260 579C238 539 255 489 311 436C325 421 328 411 315 400C301 389 282 380 260 370C245 363 227 371 200 389C145 423 107 436 91 435C86 434 83 436 82 440C81 442 83 446 89 449C114 460 156 453 212 429C216 426 222 427 229 434C242 448 242 465 227 482C197 513 196 549 222 597C251 652 263 689 261 706C260 706 260 707 260 709C258 717 277 716 283 711Z"/><path id="z36880d10" d="M260 709C233 707 201 710 172 721C147 729 116 735 80 738C75 738 71 741 69 747C66 751 69 757 75 764C85 776 99 786 116 795C122 798 132 796 146 787C192 753 239 740 288 751C332 760 397 787 485 829C633 899 735 928 792 914C792 913 794 913 796 913C838 900 876 880 912 856C927 845 928 841 912 841C762 841 638 827 542 798C487 781 427 760 361 732C334 720 314 716 283 711C275 709 267 709 260 709Z"/></g>
<defs><clipPath id="z36880c1"><use href="#z36880d1"/></clipPath>
	<clipPath id="z36880c2"><use href="#z36880d2"/></clipPath>
	<clipPath id="z36880c3"><use href="#z36880d3"/></clipPath>
	<clipPath id="z36880c4"><use href="#z36880d4"/></clipPath>
	<clipPath id="z36880c5"><use href="#z36880d5"/></clipPath>
	<clipPath id="z36880c6"><use href="#z36880d6"/></clipPath>
	<clipPath id="z36880c7"><use href="#z36880d7"/></clipPath>
	<clipPath id="z36880c8"><use href="#z36880d8"/></clipPath>
	<clipPath id="z36880c9"><use href="#z36880d9"/></clipPath>
	<clipPath id="z36880c10"><use href="#z36880d10"/></clipPath><marker id="guide-arrow" viewBox="0 0 16 16" refX="5" refY="5" markerWidth="4" markerHeight="4" orient="auto-start-reverse"><path d="M 0 0 L 10 5 L 0 10 z" fill="inherit"/></marker></defs>
<g class="strokes"><path pathLength="3333" clip-path="url(#z36880c1)" d="M430 199L746 144"/><path pathLength="3333" clip-path="url(#z36880c2)" d="M512 225L534 255L492 310L365 412"/><path pathLength="3333" clip-path="url(#z36880c3)" d="M502 341L585 386L631 439L659 580L610 723L489 668"/><path pathLength="3333" clip-path="url(#z36880c4)" d="M528 373L540 401L499 440L358 527"/><path pathLength="3333" clip-path="url(#z36880c5)" d="M594 432L598 466L556 521L375 659"/><path pathLength="3333" clip-path="url(#z36880c6)" d="M750 263L773 307L644 415"/><path pathLength="3333" clip-path="url(#z36880c7)" d="M673 467L807 534L871 607"/><path pathLength="3333" clip-path="url(#z36880c8)" d="M204 139L287 183L321 242"/><path pathLength="3333" clip-path="url(#z36880c9)" d="M87 440L231 398L277 426L227 548L272 657L271 707"/><path pathLength="3333" clip-path="url(#z36880c10)" d="M73 749L122 765L219 730L297 732L721 873L917 848"/></g>
<g class="guides"><text class="g1" style="--gs:1" x="430" y="199">①</text><path class="g1 aligned" style="--gs:1" d="M430,199 L746,144"/><path class="g1 offset" style="--gs:1" d="M430,295 L746,240"/><text class="g2" style="--gs:2" x="512" y="225">②</text><path class="g2 aligned" style="--gs:2" d="M523,240 Q492,310 476.13,322.75 Q380.88,399.25 365,412"/><path class="g2 offset" style="--gs:2" d="M427,240 Q411.5,275 403.56,281.38 Q355.94,319.63 348,326"/><text class="g3" style="--gs:3" x="502" y="341">③</text><path class="g3 aligned" style="--gs:3" d="M502,341 Q585,386 608,412.5 Q631,439 645,509.5 Q659,580 634.5,651.5 Q610,723 549.5,695.5 Q549.5,695.5 489,668"/><path class="g3 offset" style="--gs:3" d="M406,437 Q447.5,459.5 459,472.75 Q470.5,486 477.5,521.25 Q484.5,556.5 472.25,592.25 Q460,628 429.75,614.25 Q429.75,614.25 399.5,600.5"/><text class="g4" style="--gs:4" x="528" y="373">④</text><path class="g4 aligned" style="--gs:4" d="M534,387 Q499,440 481.38,450.88 Q375.63,516.13 358,527"/><path class="g4 offset" style="--gs:4" d="M619.68,455.54 Q584.68,508.54 567.05,519.42 Q461.31,584.67 443.68,595.54"/><text class="g5" style="--gs:5" x="594" y="432">⑤</text><path class="g5 aligned" style="--gs:5" d="M596,449 Q556,521 533.38,538.25 Q397.63,641.75 375,659"/><path class="g5 offset" style="--gs:5" d="M500,449 Q480,488.09 468.69,497.45 Q400.81,553.64 389.5,563"/><text class="g6" style="--gs:6" x="750" y="263">⑥</text><path class="g6 aligned" style="--gs:6" d="M750,263 Q773,307 756.88,320.5 Q660.13,401.5 644,415"/><path class="g6 offset" style="--gs:6" d="M654,263 Q665.5,285 657.44,291.75 Q609.06,332.25 601,339"/><text class="g7" style="--gs:7" x="673" y="467">⑦</text><path class="g7 aligned" style="--gs:7" d="M673,467 Q807,534 815,543.13 Q863,597.88 871,607"/><path class="g7 offset" style="--gs:7" d="M758.68,398.46 Q892.68,465.46 900.68,474.58 Q948.68,529.33 956.68,538.46"/><text class="g8" style="--gs:8" x="204" y="139">⑧</text><path class="g8 aligned" style="--gs:8" d="M204,139 Q287,183 291.25,190.38 Q316.75,234.63 321,242"/><path class="g8 offset" style="--gs:8" d="M289.68,70.46 Q372.68,114.46 376.93,121.83 Q402.43,166.08 406.68,173.46"/><text class="g9" style="--gs:9" x="87" y="440">⑨</text><path class="g9 aligned" style="--gs:9" d="M87,440 Q231,398 254,412 Q277,426 252,487 Q227,548 249.5,602.5 Q272,657 271.5,682 Q271.5,682 271,707"/><path class="g9 offset" style="--gs:9" d="M87,536 Q159,494 170.5,508 Q182,522 169.5,559.7 Q157,597.4 168.25,634.97 Q179.5,672.53 179.25,689.77 Q179.25,689.77 179,707"/><text class="g10" style="--gs:10" x="73" y="749">⑩</text><path class="g10 aligned" style="--gs:10" d="M73,749 Q122,765 170.5,747.5 Q219,730 258,731 Q297,732 509,802.5 Q721,873 819,860.5 Q819,860.5 917,848"/><path class="g10 offset" style="--gs:10" d="M73,845 Q122,861 170.5,843.5 Q219,826 258,827 Q297,828 509,898.5 Q721,969 819,956.5 Q819,956.5 917,944"/></g>
</svg>
