<!--
  Stroke-order data for 途, derived from AnimCJK (https://github.com/parsimonhi/animCJK),
  itself derived from the Arphic PL KaitiM fonts. Distributed under the Arphic Public License
  (see ARPHICPL.TXT). Regenerated by scripts/build-strokes.ts — do not edit by hand.
-->
<svg id="z36884" class="acjk" viewBox="0 0 1024 1024" xmlns="http://www.w3.org/2000/svg">
<g class="glyph"><path id="z36884d1" d="M598 179C620 139 630 118 630 117C626 100 610 88 583 82C569 78 558 78 553 80C546 81 546 86 548 94C561 144 532 218 463 313C460 316 458 319 455 324C434 352 397 394 344 449C339 453 340 457 347 456C388 449 442 405 506 324C536 285 561 243 586 200C594 186 594 186 598 179Z"/><path id="z36884d2" d="M586 200Q757 386 801 398Q900 398 944 389Q960 388 961 382Q962 376 950 372Q791 315 753 293Q663 233 637 212Q615 191 598 179C592 174 581 194 586 200Z"/><path id="z36884d3" d="M590 413C612 407 637 399 665 392C681 387 690 384 693 382C697 377 698 372 695 367C690 360 679 354 661 351C642 348 624 352 607 360C589 367 570 373 552 379C531 385 507 388 482 393C459 396 456 405 474 415C495 426 524 429 559 421C580 416 580 416 590 413Z"/><path id="z36884d4" d="M619 537C642 533 683 527 746 527C756 526 766 526 775 526C787 525 794 522 796 518C798 511 796 502 786 496C752 472 717 469 682 480C663 485 643 491 620 496C589 502 589 502 574 505C525 514 450 528 386 540C374 542 371 548 382 557C401 572 421 575 442 571C491 559 551 546 575 543C604 539 604 539 619 537Z"/><path id="z36884d5" d="M541 723C526 718 509 710 491 705C484 702 480 704 481 708C481 712 483 717 489 722C524 752 554 780 578 804C583 809 590 806 598 799C621 776 628 753 624 657C621 601 618 561 619 537C620 510 620 510 620 496C620 486 620 475 622 465C624 450 625 440 622 435C617 428 606 421 590 413C581 408 555 411 559 421C569 451 573 479 574 505C575 530 575 530 575 543C577 655 577 716 570 724C565 728 554 727 541 723Z"/><path id="z36884d6" d="M460 606C441 628 420 649 398 670C383 683 378 700 382 720C383 729 390 734 403 730C433 719 453 693 467 656C472 639 478 625 478 612C478 607 475 603 471 602C466 600 462 602 460 606Z"/><path id="z36884d7" d="M680 620C710 646 742 679 777 719C787 731 796 739 806 742C810 743 815 740 821 734C827 725 826 708 820 682C812 651 767 621 681 592C674 589 671 591 671 599C670 607 673 614 680 620Z"/><path id="z36884d8" d="M235 201C253 217 273 236 293 256C301 264 312 270 324 270C330 270 337 264 341 255C344 245 342 229 337 209C333 194 320 181 299 172C250 150 219 143 208 149C203 151 202 157 204 166C206 174 217 185 235 201Z"/><path id="z36884d9" d="M300 750Q313 740 320 721Q333 676 284 599Q251 544 318 454Q321 447 327 442Q349 423 328 408Q309 393 273 379Q251 367 233 385Q199 407 156 423Q98 445 80 442Q73 442 70 447Q69 451 77 456Q119 477 223 438Q233 435 243 449Q267 470 246 499Q203 550 238 603Q280 669 279 712Q278 734 271 749C268 758 292 756 300 750Z"/><path id="z36884d10" d="M271 749C240 747 209 753 180 765C157 773 130 780 98 783C93 783 90 786 88 792C86 796 87 802 94 809C105 821 120 830 136 838C144 841 154 839 166 829C204 796 247 782 297 790C341 796 408 818 497 855C645 915 747 939 805 921C805 920 807 920 809 920C849 904 887 881 922 856C936 845 936 840 921 841C775 847 662 842 584 827C521 814 450 794 369 766C346 757 323 750 300 750C281 749 281 749 271 749Z"/></g>
<defs><clipPath id="z36884c1"><use href="#z36884d1"/></clipPath>
	<clipPath id="z36884c2"><use href="#z36884d2"/></clipPath>
	<clipPath id="z36884c3"><use href="#z36884d3"/></clipPath>
	<clipPath id="z36884c4"><use href="#z36884d4"/></clipPath>
	<clipPath id="z36884c5"><use href="#z36884d5"/></clipPath>
	<clipPath id="z36884c6"><use href="#z36884d6"/></clipPath>
	<clipPath id="z36884c7"><use href="#z36884d7"/></clipPath>
	<clipPath id="z36884c8"><use href="#z36884d8"/></clipPath>
	<clipPath id="z36884c9"><use href="#z36884d9"/></clipPath>
	<clipPath id="z36884c10"><use href="#z36884d10"/></clipPath><marker id="guide-arrow" viewBox="0 0 16 16" refX="5" refY="5" markerWidth="4" markerHeight="4" orient="auto-start-reverse"><path d="M 0 0 L 10 5 L 0 10 z" fill="inherit"/></marker></defs>
<g class="strokes"><path pathLength="3333" clip-path="url(#z36884c1)" d="M555 83L590 122L553 210L465 343L349 449"/><path pathLength="3333" clip-path="url(#z36884c2)" d="M599 188L787 349L954 378"/><path pathLength="3333" clip-path="url(#z36884c3)" d="M472 404L689 372"/><path pathLength="3333" clip-path="url(#z36884c4)" d="M385 550L790 505"/><path pathLength="3333" clip-path="url(#z36884c5)" d="M566 424L597 453L592 741L576 765L489 710"/><path pathLength="3333" clip-path="url(#z36884c6)" d="M469 611L388 724"/><path pathLength="3333" clip-path="url(#z36884c7)" d="M678 596L778 673L814 733"/><path pathLength="3333" clip-path="url(#z36884c8)" d="M207 157L284 200L334 262"/><path pathLength="3333" clip-path="url(#z36884c9)" d="M80 449L244 406L292 436L248 549L296 673L282 746"/><path pathLength="3333" clip-path="url(#z36884c10)" d="M95 796L140 807L299 770L721 883L808 882L926 847"/></g>
<g class="guides"><text class="g1" style="--gs:1" x="555" y="83">①</text><path class="g1 aligned" style="--gs:1" d="M555,83 Q590,122 571.5,166 Q553,210 509,276.5 Q465,343 407,396 Q407,396 349,449"/><path class="g1 offset" style="--gs:1" d="M459,83 Q480.06,111.77 468.93,144.23 Q457.8,176.69 431.32,225.75 Q404.85,274.8 369.95,313.9 Q369.95,313.9 335.06,353"/><text class="g2" style="--gs:2" x="599" y="188">②</text><path class="g2 aligned" style="--gs:2" d="M599,188 Q787,349 807.88,352.63 Q933.13,374.38 954,378"/><path class="g2 offset" style="--gs:2" d="M684.68,119.46 Q827.31,257.19 843.14,260.29 Q938.16,278.9 954,282"/><text class="g3" style="--gs:3" x="472" y="404">③</text><path class="g3 aligned" style="--gs:3" d="M472,404 L689,372"/><path class="g3 offset" style="--gs:3" d="M472,500 L689,468"/><text class="g4" style="--gs:4" x="385" y="550">④</text><path class="g4 aligned" style="--gs:4" d="M385,550 L790,505"/><path class="g4 offset" style="--gs:4" d="M385,646 L790,601"/><text class="g5" style="--gs:5" x="566" y="424">⑤</text><path class="g5 aligned" style="--gs:5" d="M566,424 Q597,453 594.5,597 Q592,741 584,753 Q576,765 532.5,737.5 Q532.5,737.5 489,710"/><path class="g5 offset" style="--gs:5" d="M470,424 Q485.5,444.84 484.25,548.3 Q483,651.76 479,660.38 Q475,669 453.25,649.24 Q453.25,649.24 431.5,629.48"/><text class="g6" style="--gs:6" x="469" y="611">⑥</text><path class="g6 aligned" style="--gs:6" d="M469,611 L388,724"/><path class="g6 offset" style="--gs:6" d="M554.68,679.54 L473.68,792.54"/><text class="g7" style="--gs:7" x="678" y="596">⑦</text><path class="g7 aligned" style="--gs:7" d="M678,596 Q778,673 782.5,680.5 Q809.5,725.5 814,733"/><path class="g7 offset" style="--gs:7" d="M763.68,527.46 Q863.68,604.46 868.18,611.96 Q895.18,656.96 899.68,664.46"/><text class="g8" style="--gs:8" x="207" y="157">⑧</text><path class="g8 aligned" style="--gs:8" d="M207,157 Q284,200 290.25,207.75 Q327.75,254.25 334,262"/><path class="g8 offset" style="--gs:8" d="M292.68,88.46 Q369.68,131.46 375.93,139.21 Q413.43,185.71 419.68,193.46"/><text class="g9" style="--gs:9" x="80" y="449">⑨</text><path class="g9 aligned" style="--gs:9" d="M80,449 Q244,406 268,421 Q292,436 270,492.5 Q248,549 272,611 Q296,673 289,709.5 Q289,709.5 282,746"/><path class="g9 offset" style="--gs:9" d="M80,545 Q162,502 174,517 Q186,532 175,568.31 Q164,604.62 176,649.12 Q188,693.61 184.5,719.81 Q184.5,719.81 181,746"/><text class="g10" style="--gs:10" x="95" y="796">⑩</text><path class="g10 aligned" style="--gs:10" d="M95,796 Q140,807 219.5,788.5 Q299,770 510,826.5 Q721,883 764.5,882.5 Q808,882 867,864.5 Q867,864.5 926,847"/><path class="g10 offset" style="--gs:10" d="M95,892 Q140,903 219.5,884.5 Q299,866 510,922.5 Q721,979 764.5,978.5 Q808,978 867,960.5 Q867,960.5 926,943"/></g>
</svg>
