<!--
  Stroke-order data for 逢, derived from AnimCJK (https://github.com/parsimonhi/animCJK),
  itself derived from the Arphic PL KaitiM fonts. Distributed under the Arphic Public License
  (see ARPHICPL.TXT). Regenerated by scripts/build-strokes.ts — do not edit by hand.
-->
<svg id="z36898" class="acjk" viewBox="0 0 1024 1024" xmlns="http://www.w3.org/2000/svg">
<g class="glyph"><path id="z36898d1" d="M537 154Q553 130 570 110Q580 100 568 85Q532 54 509 56Q499 57 500 70Q509 148 419 240Q406 249 377 281Q370 294 383 291Q398 290 419 275Q483 232 523 174C532 161 532 161 537 154Z"/><path id="z36898d2" d="M629 299Q659 260 693 209Q709 187 731 172Q744 165 745 157Q745 147 721 131Q691 110 679 109Q669 109 659 116Q587 147 546 153Q542 153 537 154C529 156 515 171 523 174Q560 190 626 160Q642 156 648 161Q652 165 636 202Q620 238 592 273C579 290 579 290 572 298Q481 403 334 457Q327 460 326 464Q327 468 333 468Q454 472 581 352Q582 349 607 325C622 308 622 308 629 299Z"/><path id="z36898d3" d="M607 325Q772 463 809 463Q812 462 816 462Q891 452 951 434Q982 425 978 417Q977 413 944 407Q919 403 889 400Q769 381 686 335Q658 317 629 299C604 282 604 282 592 273Q529 225 501 229Q485 230 483 235Q483 241 497 248Q522 257 572 298C595 316 595 316 607 325Z"/><path id="z36898d4" d="M615 491Q717 467 723 463Q730 456 726 449Q720 440 697 434Q670 428 619 451C582 462 582 462 564 467Q518 476 466 482Q438 486 458 500Q488 516 550 505Q556 504 565 502C598 495 598 495 615 491Z"/><path id="z36898d5" d="M613 587Q647 578 686 571Q717 564 723 559Q730 552 726 545Q720 536 697 530Q675 526 613 548C581 557 581 557 565 561Q522 568 475 574Q445 578 466 593Q500 611 564 597C565 597 565 597 565 597C597 590 597 590 613 587Z"/><path id="z36898d6" d="M613 681Q674 671 766 669Q809 669 816 660Q820 650 806 640Q758 607 704 625Q665 634 612 646C581 652 581 652 565 655Q492 667 409 681Q393 684 406 697Q433 719 463 711Q511 696 566 689C597 684 597 684 613 681Z"/><path id="z36898d7" d="M569 792Q573 814 579 822Q583 828 590 825Q597 822 601 809Q613 773 613 681C612 658 612 658 612 646Q612 622 613 587C613 561 613 561 613 548Q613 521 615 491C618 464 618 464 619 451Q620 441 623 433Q626 418 614 410Q586 392 574 390Q564 386 550 393Q543 400 548 409Q563 430 564 467C565 490 565 490 565 502Q565 529 565 561C565 585 565 585 565 597Q565 624 565 655C566 678 566 678 566 689Q566 765 569 792Z"/><path id="z36898d8" d="M225 183C239 198 255 214 271 231C279 240 289 245 300 245C306 245 312 240 317 231C319 221 318 207 314 187C311 175 300 164 281 154C234 136 207 129 200 133C197 136 196 142 196 150C198 157 207 168 225 183Z"/><path id="z36898d9" d="M170 303C194 333 216 353 236 361C244 363 252 360 259 351C263 343 264 334 263 323C259 307 251 295 240 287C214 271 188 263 164 262C161 262 159 263 157 264C153 265 152 269 154 277C154 285 160 294 170 303Z"/><path id="z36898d10" d="M247 770Q269 757 277 730Q286 685 236 623Q215 593 252 533Q252 521 299 478Q321 460 302 444Q283 428 248 411Q226 398 188 430Q113 472 91 471Q84 470 82 475Q81 481 89 485Q125 500 200 469Q207 465 215 471Q234 496 211 527Q192 548 179 580Q172 601 190 627Q244 720 228 765Q227 766 227 770C226 777 242 774 247 770Z"/><path id="z36898d11" d="M227 770Q179 767 136 777Q96 787 70 788Q55 788 57 800Q60 810 100 835Q119 845 149 827Q185 791 265 806Q364 825 530 891Q555 900 581 912Q719 972 773 964Q848 948 932 896Q945 887 958 880Q965 877 963 871Q962 867 946 867Q682 883 504 840Q428 825 368 804Q304 777 250 770Q249 769 247 770C234 770 234 770 227 770Z"/></g>
<defs><clipPath id="z36898c1"><use href="#z36898d1"/></clipPath>
	<clipPath id="z36898c2"><use href="#z36898d2"/></clipPath>
	<clipPath id="z36898c3"><use href="#z36898d3"/></clipPath>
	<clipPath id="z36898c4"><use href="#z36898d4"/></clipPath>
	<clipPath id="z36898c5"><use href="#z36898d5"/></clipPath>
	<clipPath id="z36898c6"><use href="#z36898d6"/></clipPath>
	<clipPath id="z36898c7"><use href="#z36898d7"/></clipPath>
	<clipPath id="z36898c8"><use href="#z36898d8"/></clipPath>
	<clipPath id="z36898c9"><use href="#z36898d9"/></clipPath>
	<clipPath id="z36898c10"><use href="#z36898d10"/></clipPath>
	<clipPath id="z36898c11"><use href="#z36898d11"/></clipPath><marker id="guide-arrow" viewBox="0 0 16 16" refX="5" refY="5" markerWidth="4" markerHeight="4" orient="auto-start-reverse"><path d="M 0 0 L 10 5 L 0 10 z" fill="inherit"/></marker></defs>
<g class="strokes"><path pathLength="3333" clip-path="url(#z36898c1)" d="M509 66L536 108L464 216L384 281"/><path pathLength="3333" clip-path="url(#z36898c2)" d="M528 170L661 135L694 169L516 380L334 463"/><path pathLength="3333" clip-path="url(#z36898c3)" d="M491 235L799 420L968 418"/><path pathLength="3333" clip-path="url(#z36898c4)" d="M458 489L720 451"/><path pathLength="3333" clip-path="url(#z36898c5)" d="M468 584L720 549"/><path pathLength="3333" clip-path="url(#z36898c6)" d="M406 687L812 650"/><path pathLength="3333" clip-path="url(#z36898c7)" d="M555 401L592 434L588 820"/><path pathLength="3333" clip-path="url(#z36898c8)" d="M203 141L275 187L305 238"/><path pathLength="3333" clip-path="url(#z36898c9)" d="M160 271L253 353"/><path pathLength="3333" clip-path="url(#z36898c10)" d="M92 479L220 438L264 467L203 592L251 700L239 767"/><path pathLength="3333" clip-path="url(#z36898c11)" d="M63 797L269 790L731 916L955 872"/></g>
<g class="guides"><text class="g1" style="--gs:1" x="509" y="66">①</text><path class="g1 aligned" style="--gs:1" d="M509,66 Q536,108 518,135 Q464,216 444,232.25 Q404,264.75 384,281"/><path class="g1 offset" style="--gs:1" d="M413,66 Q426.5,89.25 417.5,104.19 Q390.5,149.02 380.5,158.02 Q360.5,176.01 350.5,185"/><text class="g2" style="--gs:2" x="528" y="170">②</text><path class="g2 aligned" style="--gs:2" d="M528,170 Q661,135 677.5,152 Q694,169 605,274.5 Q516,380 425,421.5 Q425,421.5 334,463"/><path class="g2 offset" style="--gs:2" d="M432,266 Q529.53,248.5 541.63,257 Q553.73,265.5 488.47,318.25 Q423.2,371 356.47,391.75 Q356.47,391.75 289.73,412.5"/><text class="g3" style="--gs:3" x="491" y="235">③</text><path class="g3 aligned" style="--gs:3" d="M491,235 Q799,420 820.13,419.75 Q946.88,418.25 968,418"/><path class="g3 offset" style="--gs:3" d="M576.68,166.46 Q829.36,324 846.69,323.79 Q950.67,322.51 968,322.3"/><text class="g4" style="--gs:4" x="458" y="489">④</text><path class="g4 aligned" style="--gs:4" d="M458,489 L720,451"/><path class="g4 offset" style="--gs:4" d="M458,585 L720,547"/><text class="g5" style="--gs:5" x="468" y="584">⑤</text><path class="g5 aligned" style="--gs:5" d="M468,584 L720,549"/><path class="g5 offset" style="--gs:5" d="M468,680 L720,645"/><text class="g6" style="--gs:6" x="406" y="687">⑥</text><path class="g6 aligned" style="--gs:6" d="M406,687 L812,650"/><path class="g6 offset" style="--gs:6" d="M406,783 L812,746"/><text class="g7" style="--gs:7" x="555" y="401">⑦</text><path class="g7 aligned" style="--gs:7" d="M555,401 Q592,434 591.5,482.25 Q588.5,771.75 588,820"/><path class="g7 offset" style="--gs:7" d="M459,401 Q496,434 495.5,482.25 Q492.5,771.75 492,820"/><text class="g8" style="--gs:8" x="203" y="141">⑧</text><path class="g8 aligned" style="--gs:8" d="M203,141 Q275,187 278.75,193.38 Q301.25,231.63 305,238"/><path class="g8 offset" style="--gs:8" d="M288.68,72.46 Q360.68,118.46 364.43,124.83 Q386.93,163.08 390.68,169.46"/><text class="g9" style="--gs:9" x="160" y="271">⑨</text><path class="g9 aligned" style="--gs:9" d="M160,271 L253,353"/><path class="g9 offset" style="--gs:9" d="M245.68,202.46 L338.68,284.46"/><text class="g10" style="--gs:10" x="92" y="479">⑩</text><path class="g10 aligned" style="--gs:10" d="M92,479 Q220,438 242,452.5 Q264,467 233.5,529.5 Q203,592 227,646 Q251,700 245,733.5 Q245,733.5 239,767"/><path class="g10 offset" style="--gs:10" d="M92,575 Q156,534 167,548.5 Q178,563 162.75,603.03 Q147.5,643.06 159.5,681.31 Q171.5,719.55 168.5,743.28 Q168.5,743.28 165.5,767"/><text class="g11" style="--gs:11" x="63" y="797">⑪</text><path class="g11 aligned" style="--gs:11" d="M63,797 Q269,790 384.5,821.5 Q731,916 787,905 Q899,883 955,872"/><path class="g11 offset" style="--gs:11" d="M63,893 Q269,886 384.5,917.5 Q731,1012 787,1001 Q899,979 955,968"/></g>
</svg>
