<svg id="z36910" class="acjk" viewBox="0 0 1024 1024" xmlns="http://www.w3.org/2000/svg">
<style>

@keyframes zk {
	to {
		stroke-dashoffset:0;
	}
}
svg.acjk path[clip-path] {
	--t:0.8s;
	animation:zk var(--t) linear forwards var(--d);
	stroke-dasharray:3337;
	stroke-dashoffset:3339;
	stroke-width:128;
	stroke-linecap:round;
	fill:none;
	stroke:#000;
}
svg.acjk path[id] {fill:#ccc;}


    @keyframes guide-fade {
        0% { opacity: 0; }
        3% { opacity: 1; }
        95% { opacity: 1; }
        100% { opacity: 0; }
    }

    svg.acjk #guide-arrow {
        fill: #f77;
    }

    svg.acjk .guides {
        circle {
            fill: #0f6;
        }

        path {
            opacity: 0;
            animation: guide-fade var(--t) linear forwards var(--d);
            stroke-width: 16px;
            stroke-linecap: round;
            stroke: #f77;
            fill: none;
            marker-end: url(#guide-arrow);
        }

        circle,
        path {
            --t: 0.8s;
            opacity: 0;
            animation: guide-fade calc(var(--t) + 0.4s) ease-in-out forwards calc(var(--d) - 0.2s);
        }
    }
</style>
<path id="z36910d1" d="M729 401Q741 355 752 327C767 297 767 297 774 282Q787 260 803 247Q819 229 805 212Q733 155 678 182Q648 192 623 201C588 209 588 209 571 213Q513 226 452 233Q436 234 438 243Q441 250 458 257Q482 267 515 256Q542 250 571 245C604 238 604 238 621 235Q649 228 681 222Q702 218 710 226Q722 238 718 263Q714 279 710 295C703 319 703 319 700 331Q690 362 681 391C675 406 726 417 729 401Z"/>
<path id="z36910d2" d="M571 321Q475 336 369 353Q353 356 366 369Q393 393 432 381Q498 360 571 349C602 344 602 344 618 341Q652 334 700 331C735 328 735 328 752 327Q795 323 846 322Q903 319 908 312Q912 302 898 292Q847 259 788 278Q781 279 774 282C731 291 731 291 710 295Q668 302 620 312Q619 312 619 313C587 318 587 318 571 321Z"/>
<path id="z36910d3" d="M571 419Q507 432 454 441Q435 442 447 460Q454 469 464 472Q474 475 487 471Q520 462 571 455C602 450 602 450 618 447Q667 438 736 431Q746 430 748 421Q748 414 729 401C716 391 697 388 681 391Q672 391 618 408C587 415 587 415 571 419Z"/>
<path id="z36910d4" d="M571 245Q571 276 571 321C571 340 571 340 571 349Q570 380 571 419C571 443 571 443 571 455Q570 551 570 681Q570 702 558 710Q554 714 492 711Q461 701 463 711Q464 718 485 731Q543 774 558 798Q576 826 590 828Q603 828 616 795Q632 752 628 681Q621 563 618 447C618 421 618 421 618 408Q617 374 618 341C619 322 619 322 619 313Q618 279 621 245Q621 239 621 235C622 212 622 212 623 201Q627 149 637 117Q653 89 600 67Q567 49 549 56Q533 62 548 84Q569 109 570 143Q571 153 571 213C571 234 571 234 571 245Z"/>
<path id="z36910d5" d="M402 535Q453 583 476 581Q488 580 491 564Q490 552 479 536Q458 512 402 511Q395 510 395 521Q394 528 402 535Z"/>
<path id="z36910d6" d="M349 684Q340 688 341 696Q342 706 351 711Q372 718 400 725Q409 725 416 715Q425 703 500 627Q510 618 516 608Q525 599 523 592Q517 589 509 594Q451 631 375 675Q366 681 349 684Z"/>
<path id="z36910d7" d="M726 488Q701 513 653 553Q647 557 651 564Q657 567 664 565Q745 529 783 518Q799 517 797 507Q796 494 782 474Q769 456 751 450Q739 449 736 465Q736 477 726 488Z"/>
<path id="z36910d8" d="M665 628Q720 671 785 734Q800 752 814 754Q823 755 829 746Q839 733 825 694Q809 642 665 599Q656 595 655 607Q655 619 665 628Z"/>
<path id="z36910d9" d="M226 213Q254 238 287 267Q303 282 322 281Q335 280 340 264Q344 245 333 211Q326 189 291 175Q207 150 192 156Q186 162 188 177Q192 190 226 213Z"/>
<path id="z36910d10" d="M286 764Q299 754 305 737Q317 695 274 624Q241 561 319 476Q320 472 324 470Q346 451 327 434Q305 418 269 403Q248 391 205 422Q112 467 84 466Q75 465 74 470Q73 476 81 480Q121 498 217 464Q227 460 236 472Q258 494 236 523Q185 575 231 638Q264 696 263 729Q263 750 257 763C253 772 278 770 286 764Z"/>
<path id="z36910d11" d="M257 763Q208 760 160 780Q130 793 84 800Q77 800 75 809Q72 816 82 826Q100 842 125 853Q137 857 154 843Q211 792 276 801Q346 813 492 868Q738 965 824 935Q882 911 930 874Q952 858 929 859Q683 868 555 840Q464 819 344 778Q316 768 286 764C267 763 267 763 257 763Z"/>
<defs>
	<clipPath id="z36910c1"><use href="#z36910d1"/></clipPath>
	<clipPath id="z36910c2"><use href="#z36910d2"/></clipPath>
	<clipPath id="z36910c3"><use href="#z36910d3"/></clipPath>
	<clipPath id="z36910c4"><use href="#z36910d4"/></clipPath>
	<clipPath id="z36910c5"><use href="#z36910d5"/></clipPath>
	<clipPath id="z36910c6"><use href="#z36910d6"/></clipPath>
	<clipPath id="z36910c7"><use href="#z36910d7"/></clipPath>
	<clipPath id="z36910c8"><use href="#z36910d8"/></clipPath>
	<clipPath id="z36910c9"><use href="#z36910d9"/></clipPath>
	<clipPath id="z36910c10"><use href="#z36910d10"/></clipPath>
	<clipPath id="z36910c11"><use href="#z36910d11"/></clipPath>
<marker id="guide-arrow" viewBox="0 0 16 16" refX="5" refY="5" markerWidth="4" markerHeight="4" orient="auto-start-reverse"><path d="M 0 0 L 10 5 L 0 10 z" fill="inherit"/></marker></defs>
<path style="--d:1s;" pathLength="3333" clip-path="url(#z36910c1)" d="M443 239L731 203L765 236L712 397"/>
<path style="--d:2s;" pathLength="3333" clip-path="url(#z36910c2)" d="M367 359L814 297L902 306"/>
<path style="--d:3s;" pathLength="3333" clip-path="url(#z36910c3)" d="M449 450L741 421"/>
<path style="--d:4s;" pathLength="3333" clip-path="url(#z36910c4)" d="M547 63L604 117L599 701L574 776L472 713"/>
<path style="--d:5s;" pathLength="3333" clip-path="url(#z36910c5)" d="M403 517L482 573"/>
<path style="--d:6s;" pathLength="3333" clip-path="url(#z36910c6)" d="M345 694L399 694L514 597"/>
<path style="--d:7s;" pathLength="3333" clip-path="url(#z36910c7)" d="M750 454L760 501L658 559"/>
<path style="--d:8s;" pathLength="3333" clip-path="url(#z36910c8)" d="M662 609L779 684L816 750"/>
<path style="--d:9s;" pathLength="3333" clip-path="url(#z36910c9)" d="M195 161L291 218L329 276"/>
<path style="--d:10s;" pathLength="3333" clip-path="url(#z36910c10)" d="M83 472L246 436L290 467L237 574L284 708L267 758"/>
<path style="--d:11s;" pathLength="3333" clip-path="url(#z36910c11)" d="M80 812L131 822L268 781L603 878L763 901L931 865"/>
<g class="guides"><circle style="--d: 1s" class="g1" cx="443" cy="239" r="16"/><path style="--d: 1s;" class="g1" d="M443,335 Q623.6708074534162,299 629.0031055900621,307.25 Q645,332 636.6878881987577,348.25 Q620.0636645962734,380.75 611.7515527950311,397"/><circle style="--d: 2s" class="g2" cx="367" cy="359" r="16"/><path style="--d: 2s;" class="g2" d="M367,455 Q814,393 825,394.125 Q891,400.875 902,402"/><circle style="--d: 3s" class="g3" cx="449" cy="450" r="16"/><path style="--d: 3s;" class="g3" d="M449,546 L741,517"/><circle style="--d: 4s" class="g4" cx="547" cy="63" r="16"/><path style="--d: 4s;" class="g4" d="M451,63 Q479.5,109.72931276297335 478.25,362.41374474053293 Q477,615.0981767180925 470.75,647.5490883590462 Q464.5,680 439,652.7412342215989 Q439,652.7412342215989 413.5,625.4824684431977"/><circle style="--d: 5s" class="g5" cx="403" cy="517" r="16"/><path style="--d: 5s;" class="g5" d="M488.68,448.456 L567.68,504.456"/><circle style="--d: 6s" class="g6" cx="345" cy="694" r="16"/><path style="--d: 6s;" class="g6" d="M345,598 Q399,598 413.375,585.875 Q499.625,513.125 514,501"/><circle style="--d: 7s" class="g7" cx="750" cy="454" r="16"/><path style="--d: 7s;" class="g7" d="M654,454 Q659,477.5 652.625,481.125 Q614.375,502.875 608,506.5"/><circle style="--d: 8s" class="g8" cx="662" cy="609" r="16"/><path style="--d: 8s;" class="g8" d="M747.68,540.456 Q864.68,615.456 869.305,623.706 Q897.055,673.206 901.68,681.456"/><circle style="--d: 9s" class="g9" cx="195" cy="161" r="16"/><path style="--d: 9s;" class="g9" d="M280.68,92.456 Q376.68,149.45600000000002 381.43,156.70600000000002 Q409.93,200.20600000000002 414.68,207.45600000000002"/><circle style="--d: 10s" class="g10" cx="83" cy="472" r="16"/><path style="--d: 10s;" class="g10" d="M83,568 Q164.5,532 175.5,547.5 Q186.5,563 173.25,595.9285714285714 Q160,628.8571428571429 171.75,675.8819875776398 Q183.5,722.9068322981367 179.25,740.4534161490683 Q179.25,740.4534161490683 175,758"/><circle style="--d: 11s" class="g11" cx="80" cy="812" r="16"/><path style="--d: 11s;" class="g11" d="M80,908 Q131,918 199.5,897.5 Q268,877 435.5,925.5 Q603,974 683,985.5 Q763,997 847,979 Q847,979 931,961"/></g></svg>