<!--
  Stroke-order data for 遅, derived from AnimCJK (https://github.com/parsimonhi/animCJK),
  itself derived from the Arphic PL KaitiM fonts. Distributed under the Arphic Public License
  (see ARPHICPL.TXT). Regenerated by scripts/build-strokes.ts — do not edit by hand.
-->
<svg id="z36933" class="acjk" viewBox="0 0 1024 1024" xmlns="http://www.w3.org/2000/svg">
<g class="glyph"><path style="--part:1" id="z36933d1" d="M724 214Q752 165 775 155Q791 139 778 121Q763 108 716 84Q695 75 623 107Q538 132 479 145C469 147 483 174 493 172Q503 171 518 166Q593 147 665 128Q684 122 692 129Q698 136 694 149Q684 183 671 210C664 226 713 228 724 214Z"/><path style="--part:1" id="z36933d2" d="M640 256Q679 246 731 239Q740 238 741 230Q741 223 724 214C709 205 687 203 671 210Q565 244 482 262C473 263 472 285 480 288Q481 289 485 290Q494 291 505 288Q545 275 619 260C633 257 633 257 640 256Z"/><path style="--part:1" id="z36933d3" d="M479 145Q467 136 450 129Q434 120 422 125Q412 132 418 143Q466 210 406 468Q403 478 400 489Q376 564 309 681Q305 687 303 692Q302 702 310 699Q340 693 402 585Q411 564 422 543Q465 435 480 288C481 271 481 271 482 262Q483 234 486 208Q487 177 493 172C498 163 487 151 479 145Z"/><path style="--part:1" id="z36933d4" d="M515 357Q542 394 561 404Q570 407 578 399Q582 391 582 379Q574 352 526 332Q515 329 508 330Q505 331 505 339Q506 347 515 357Z"/><path style="--part:1" id="z36933d5" d="M666 323Q658 341 626 389Q621 402 632 398Q663 379 698 352Q710 339 726 331Q740 323 731 311Q721 301 702 292Q685 284 676 287Q668 287 671 298Q674 311 666 323Z"/><path style="--part:1" id="z36933d6" d="M638 454Q678 444 722 437Q760 429 765 423Q772 418 769 411Q763 403 742 397Q718 392 657 414Q556 438 495 443Q468 447 487 459Q516 479 567 466Q575 463 587 463C621 457 621 457 638 454Z"/><path style="--part:1" id="z36933d7" d="M638 560Q644 559 735 547Q743 548 750 539Q751 529 734 521Q707 502 642 522Q640 522 639 523C610 528 610 528 596 531Q571 535 550 538Q525 540 498 543Q476 546 493 559Q513 579 552 573Q572 568 597 566C624 562 624 562 638 560Z"/><path style="--part:1" id="z36933d8" d="M637 658Q706 651 879 651Q896 651 900 643Q905 634 891 623Q848 589 817 596Q749 611 637 627C610 630 610 630 597 632Q500 643 393 656Q375 657 388 672Q400 684 414 688Q432 693 446 689Q516 670 597 663C624 660 624 660 637 658Z"/><path style="--part:1" id="z36933d9" d="M600 789Q603 805 609 812Q612 817 618 815Q628 809 634 771Q639 729 638 688Q637 672 637 637C637 619 637 619 637 610Q637 583 638 550C639 527 639 527 639 516Q640 493 646 472Q649 460 638 454C624 444 581 447 587 463Q594 474 596 524C597 545 597 545 597 555Q597 581 597 614C597 633 597 633 597 642Q597 767 600 789Z"/><path style="--part:2" id="z36933d10" d="M208 204Q233 226 261 253Q276 266 292 266Q304 265 309 251Q313 236 304 205Q298 186 267 172Q194 147 180 153Q174 157 176 171Q180 181 208 204Z"/><path style="--part:2" id="z36933d11" d="M244 731Q313 689 224 583Q190 538 269 442Q270 439 273 437Q295 418 275 403Q254 387 219 374Q195 362 160 396Q93 438 70 439Q63 439 62 444Q61 448 69 453Q105 468 173 435Q180 431 189 439Q210 460 190 491Q174 512 165 542Q161 563 199 619Q238 679 228 725Q227 726 227 731C226 737 239 734 244 731Z"/><path style="--part:2" id="z36933d12" d="M227 731Q179 732 140 746Q97 762 67 765Q52 766 55 778Q59 788 101 809Q122 818 149 797Q183 758 253 765Q298 768 454 828Q518 850 573 877Q711 943 767 931Q839 912 957 847Q963 844 962 838Q961 834 944 834Q614 852 377 766Q308 730 246 730Q245 730 244 731C233 731 233 731 227 731Z"/></g>
<defs><clipPath id="z36933c1"><use href="#z36933d1"/></clipPath>
	<clipPath id="z36933c2"><use href="#z36933d2"/></clipPath>
	<clipPath id="z36933c3"><use href="#z36933d3"/></clipPath>
	<clipPath id="z36933c4"><use href="#z36933d4"/></clipPath>
	<clipPath id="z36933c5"><use href="#z36933d5"/></clipPath>
	<clipPath id="z36933c6"><use href="#z36933d6"/></clipPath>
	<clipPath id="z36933c7"><use href="#z36933d7"/></clipPath>
	<clipPath id="z36933c8"><use href="#z36933d8"/></clipPath>
	<clipPath id="z36933c9"><use href="#z36933d9"/></clipPath>
	<clipPath id="z36933c10"><use href="#z36933d10"/></clipPath>
	<clipPath id="z36933c11"><use href="#z36933d11"/></clipPath>
	<clipPath id="z36933c12"><use href="#z36933d12"/></clipPath><marker id="guide-arrow" viewBox="0 0 16 16" refX="5" refY="5" markerWidth="4" markerHeight="4" orient="auto-start-reverse"><path d="M 0 0 L 10 5 L 0 10 z" fill="inherit"/></marker></defs>
<g class="strokes"><path style="--part:1" pathLength="3333" clip-path="url(#z36933c1)" d="M486 146L702 106L739 139L697 207L679 205"/><path style="--part:1" pathLength="3333" clip-path="url(#z36933c2)" d="M486 281L734 226"/><path style="--part:1" pathLength="3333" clip-path="url(#z36933c3)" d="M424 132L462 174L439 414L399 547L312 692"/><path style="--part:1" pathLength="3333" clip-path="url(#z36933c4)" d="M514 337L570 396"/><path style="--part:1" pathLength="3333" clip-path="url(#z36933c5)" d="M677 294L698 326L632 393"/><path style="--part:1" pathLength="3333" clip-path="url(#z36933c6)" d="M484 450L764 412"/><path style="--part:1" pathLength="3333" clip-path="url(#z36933c7)" d="M495 551L743 534"/><path style="--part:1" pathLength="3333" clip-path="url(#z36933c8)" d="M389 662L826 623L895 638"/><path style="--part:1" pathLength="3333" clip-path="url(#z36933c9)" d="M597 469L621 491L614 807"/><path style="--part:2" pathLength="3333" clip-path="url(#z36933c10)" d="M179 160L266 210L291 262"/><path style="--part:2" pathLength="3333" clip-path="url(#z36933c11)" d="M68 445L189 405L239 431L189 554L249 671L238 727"/><path style="--part:2" pathLength="3333" clip-path="url(#z36933c12)" d="M62 772L116 783L198 750L268 749L722 882L953 842"/></g>
<g class="guides"><text class="g1" style="--gs:1" x="486" y="146">①</text><path class="g1 aligned" style="--gs:1" d="M486,146 Q702,106 711.25,114.25 Q739,139 726.25,155.75 Q700.75,189.25 688,206"/><path class="g1 offset" style="--gs:1" d="M486,242 Q617.48,202 623.11,210.25 Q640,235 632.24,251.75 Q616.72,285.25 608.96,302"/><text class="g2" style="--gs:2" x="486" y="281">②</text><path class="g2 aligned" style="--gs:2" d="M486,281 L734,226"/><path class="g2 offset" style="--gs:2" d="M486,377 L734,322"/><text class="g3" style="--gs:3" x="424" y="132">③</text><path class="g3 aligned" style="--gs:3" d="M424,132 Q462,174 450.5,294 Q439,414 419,480.5 Q399,547 355.5,619.5 Q355.5,619.5 312,692"/><path class="g3 offset" style="--gs:3" d="M328,132 Q347,166.8 341.25,266.23 Q335.5,365.66 325.5,420.76 Q315.5,475.86 293.75,535.93 Q293.75,535.93 272,596"/><text class="g4" style="--gs:4" x="514" y="337">④</text><path class="g4 aligned" style="--gs:4" d="M514,337 L570,396"/><path class="g4 offset" style="--gs:4" d="M599.68,268.46 L655.68,327.46"/><text class="g5" style="--gs:5" x="677" y="294">⑤</text><path class="g5 aligned" style="--gs:5" d="M688,310 L632,393"/><path class="g5 offset" style="--gs:5" d="M773.68,378.54 L717.68,461.54"/><text class="g6" style="--gs:6" x="484" y="450">⑥</text><path class="g6 aligned" style="--gs:6" d="M484,450 L764,412"/><path class="g6 offset" style="--gs:6" d="M484,546 L764,508"/><text class="g7" style="--gs:7" x="495" y="551">⑦</text><path class="g7 aligned" style="--gs:7" d="M495,551 L743,534"/><path class="g7 offset" style="--gs:7" d="M495,647 L743,630"/><text class="g8" style="--gs:8" x="389" y="662">⑧</text><path class="g8 aligned" style="--gs:8" d="M389,662 Q826,623 834.63,624.88 Q886.38,636.13 895,638"/><path class="g8 offset" style="--gs:8" d="M389,758 Q826,719 834.63,720.88 Q886.38,732.13 895,734"/><text class="g9" style="--gs:9" x="597" y="469">⑨</text><path class="g9 aligned" style="--gs:9" d="M609,480 L614,807"/><path class="g9 offset" style="--gs:9" d="M729,480 L734,807"/><text class="g10" style="--gs:10" x="179" y="160">⑩</text><path class="g10 aligned" style="--gs:10" d="M179,160 Q266,210 269.13,216.5 Q287.88,255.5 291,262"/><path class="g10 offset" style="--gs:10" d="M179,256 Q222.5,281 224.06,284.25 Q233.44,303.75 235,307"/><text class="g11" style="--gs:11" x="68" y="445">⑪</text><path class="g11 aligned" style="--gs:11" d="M68,445 Q189,405 214,418 Q239,431 214,492.5 Q189,554 219,612.5 Q249,671 243.5,699 Q243.5,699 238,727"/><path class="g11 offset" style="--gs:11" d="M68,541 Q128.5,501 141,514 Q153.5,527 141,566.29 Q128.5,605.58 143.5,646.64 Q158.5,687.7 155.75,707.35 Q155.75,707.35 153,727"/><text class="g12" style="--gs:12" x="62" y="772">⑫</text><path class="g12 aligned" style="--gs:12" d="M62,772 Q116,783 157,766.5 Q198,750 233,749.5 Q268,749 495,815.5 Q722,882 837.5,862 Q837.5,862 953,842"/><path class="g12 offset" style="--gs:12" d="M62,868 Q116,879 157,862.5 Q198,846 233,845.5 Q268,845 495,911.5 Q722,978 837.5,958 Q837.5,958 953,938"/></g>
<g class="parts"><rect data-part="2" data-literal="⻌" data-radical="true" role="button" tabindex="0" aria-label="Part ⻌ (radical)" x="0" y="88" width="1024" height="866"/><rect data-part="1" data-literal="𡱝" role="button" tabindex="0" aria-label="Part 𡱝" x="240" y="34" width="727" height="845"/></g>
</svg>
