<!--
  Stroke-order data for 遇, derived from AnimCJK (https://github.com/parsimonhi/animCJK),
  itself derived from the Arphic PL KaitiM fonts. Distributed under the Arphic Public License
  (see ARPHICPL.TXT). Regenerated by scripts/build-strokes.ts — do not edit by hand.
-->
<svg id="z36935" class="acjk" viewBox="0 0 1024 1024" xmlns="http://www.w3.org/2000/svg">
<g class="glyph"><path style="--part:1" id="z36935d1" d="M440 155C431 152 419 150 409 148C401 146 397 146 395 150C391 154 391 160 397 171C418 216 437 276 449 353C452 374 458 394 472 409C493 433 491 417 497 391C498 383 497 374 496 367C488 320 468 246 463 186C463 173 453 158 440 155Z"/><path style="--part:1" id="z36935d2" d="M694 365C694 369 695 375 698 382C702 392 708 396 716 395C724 393 729 386 735 378C744 362 754 321 769 253C776 218 793 192 816 172C828 161 827 151 818 142C805 131 783 117 751 103C718 88 708 103 440 155C427 158 451 190 463 186C493 178 524 169 550 165C575 160 575 160 587 158C633 149 664 140 691 141C726 141 729 165 726 188C715 266 706 318 699 342C696 357 696 357 694 365Z"/><path style="--part:1" id="z36935d3" d="M571 248C548 254 526 260 506 266C497 268 496 274 509 281C522 288 546 283 571 279C598 274 598 274 612 272C636 267 659 263 681 260C693 258 697 253 693 246C686 237 676 231 663 230C649 228 633 230 613 236C585 244 585 244 571 248Z"/><path style="--part:1" id="z36935d4" d="M610 376C640 371 668 367 694 365C702 365 706 346 699 342C684 330 655 330 611 341C584 348 584 348 571 351C544 357 519 361 496 367C488 368 489 391 497 391C521 389 548 385 571 382C597 378 597 378 610 376Z"/><path style="--part:1" id="z36935d5" d="M408 487C400 479 389 473 376 470C373 469 369 469 367 473C363 476 363 483 367 490C384 522 390 581 380 667C378 679 378 692 385 704C400 735 411 742 422 730C429 720 432 693 430 645C427 587 427 547 429 525C429 511 420 496 408 487Z"/><path style="--part:1" id="z36935d6" d="M609 478C655 468 736 454 763 458C788 461 795 465 795 489C791 609 787 678 779 697C776 703 769 706 762 705C741 702 720 698 699 696C680 694 676 701 692 712C734 743 769 768 789 794C795 801 804 804 813 797C832 779 845 733 848 662C851 567 853 509 867 489C875 476 878 465 875 461C869 451 848 439 817 419C784 398 769 412 609 446C584 451 584 451 571 454C517 465 459 477 408 487C394 490 415 528 429 525C449 520 530 494 571 486C596 481 596 481 609 478Z"/><path style="--part:1" id="z36935d7" d="M608 593C608 552 609 514 609 478C609 457 609 457 609 446C609 421 609 398 610 376C611 353 611 353 611 341C611 317 611 294 612 272C613 248 613 248 613 236C614 178 622 175 587 158C575 153 544 154 550 165C567 194 571 218 571 248C571 269 571 269 571 279C571 327 571 327 571 351C571 372 571 372 571 382C571 430 571 430 571 454C571 475 571 475 571 486C571 502 569 581 570 602C570 615 608 606 608 593Z"/><path style="--part:1" id="z36935d8" d="M684 574C659 580 634 586 608 593C583 599 583 599 570 602C508 616 473 617 467 618C460 618 455 621 454 627C452 633 452 640 459 645C469 654 485 664 504 676C509 678 516 676 523 672C539 660 592 636 695 592C702 589 691 573 684 574Z"/><path style="--part:1" id="z36935d9" d="M695 592C708 613 713 629 723 632C726 633 733 632 738 627C743 621 745 610 746 595C746 578 726 551 683 520C676 514 671 513 668 514C665 514 663 517 662 524C661 530 673 556 684 574C691 586 691 586 695 592Z"/><path style="--part:2" id="z36935d10" d="M235 184C252 200 269 218 287 238C296 248 306 254 318 254C326 254 332 249 337 239C341 228 339 212 334 190C330 176 319 163 298 154C249 132 219 124 208 129C203 130 201 137 203 147C204 155 216 167 235 184Z"/><path style="--part:2" id="z36935d11" d="M294 725C302 718 308 709 312 699C321 671 316 642 286 590C278 576 269 561 269 545C268 530 280 504 291 482C302 458 316 436 326 427C339 413 341 403 328 393C315 383 295 374 273 364C256 356 246 358 233 369C213 385 187 396 160 407C123 421 98 427 88 426C82 425 79 427 78 431C76 433 79 437 85 440C111 453 155 440 223 423C253 415 259 451 244 483C235 501 222 532 222 545C222 561 233 585 240 597C261 634 272 666 271 690C270 702 268 713 264 722C260 731 286 731 294 725Z"/><path style="--part:2" id="z36935d12" d="M264 722C235 720 208 725 180 734C158 740 130 744 97 746C92 746 88 748 86 754C83 758 84 764 91 772C100 784 114 794 131 804C138 807 148 805 161 797C204 766 249 756 297 767C340 777 406 800 495 840C648 909 753 936 808 918C850 903 888 883 924 859C938 848 938 842 923 843C780 848 661 838 568 812C509 795 442 774 369 746C343 736 318 728 294 725C283 723 273 722 264 722Z"/></g>
<defs><clipPath id="z36935c1"><use href="#z36935d1"/></clipPath>
	<clipPath id="z36935c2"><use href="#z36935d2"/></clipPath>
	<clipPath id="z36935c3"><use href="#z36935d3"/></clipPath>
	<clipPath id="z36935c4"><use href="#z36935d4"/></clipPath>
	<clipPath id="z36935c5"><use href="#z36935d5"/></clipPath>
	<clipPath id="z36935c6"><use href="#z36935d6"/></clipPath>
	<clipPath id="z36935c7"><use href="#z36935d7"/></clipPath>
	<clipPath id="z36935c8"><use href="#z36935d8"/></clipPath>
	<clipPath id="z36935c9"><use href="#z36935d9"/></clipPath>
	<clipPath id="z36935c10"><use href="#z36935d10"/></clipPath>
	<clipPath id="z36935c11"><use href="#z36935d11"/></clipPath>
	<clipPath id="z36935c12"><use href="#z36935d12"/></clipPath><marker id="guide-arrow" viewBox="0 0 16 16" refX="5" refY="5" markerWidth="4" markerHeight="4" orient="auto-start-reverse"><path d="M 0 0 L 10 5 L 0 10 z" fill="inherit"/></marker></defs>
<g class="strokes"><path style="--part:1" pathLength="3333" clip-path="url(#z36935c1)" d="M400 151L437 194L480 413"/><path style="--part:1" pathLength="3333" clip-path="url(#z36935c2)" d="M444 162L706 120L758 142L776 164L715 391"/><path style="--part:1" pathLength="3333" clip-path="url(#z36935c3)" d="M506 272L685 249"/><path style="--part:1" pathLength="3333" clip-path="url(#z36935c4)" d="M494 380L696 352"/><path style="--part:1" pathLength="3333" clip-path="url(#z36935c5)" d="M372 476L405 531L409 730"/><path style="--part:1" pathLength="3333" clip-path="url(#z36935c6)" d="M409 495L754 435L806 444L835 469L808 720L784 752L688 704"/><path style="--part:1" pathLength="3333" clip-path="url(#z36935c7)" d="M556 163L591 210L581 604"/><path style="--part:1" pathLength="3333" clip-path="url(#z36935c8)" d="M458 629L511 644L688 583"/><path style="--part:1" pathLength="3333" clip-path="url(#z36935c9)" d="M671 523L731 627"/><path style="--part:2" pathLength="3333" clip-path="url(#z36935c10)" d="M210 137L297 195L329 245"/><path style="--part:2" pathLength="3333" clip-path="url(#z36935c11)" d="M88 434L247 391L292 420L245 541L290 655L276 726"/><path style="--part:2" pathLength="3333" clip-path="url(#z36935c12)" d="M92 759L142 773L244 742L309 748L736 880L924 848"/></g>
<g class="guides"><text class="g1" style="--gs:1" x="400" y="151">①</text><path class="g1 aligned" style="--gs:1" d="M400,151 Q437,194 442.38,221.38 Q474.63,385.63 480,413"/><path class="g1 offset" style="--gs:1" d="M485.68,82.46 Q522.68,125.46 528.05,152.83 Q560.3,317.08 565.68,344.46"/><text class="g2" style="--gs:2" x="444" y="162">②</text><path class="g2 aligned" style="--gs:2" d="M444,162 Q706,120 732,131 Q758,142 767,153 Q776,164 745.5,277.5 Q745.5,277.5 715,391"/><path class="g2 offset" style="--gs:2" d="M444,258 Q611.3,216 627.9,227 Q644.51,238 650.25,241.21 Q656,244.41 636.52,317.71 Q636.52,317.71 617.05,391"/><text class="g3" style="--gs:3" x="506" y="272">③</text><path class="g3 aligned" style="--gs:3" d="M506,272 L685,249"/><path class="g3 offset" style="--gs:3" d="M506,368 L685,345"/><text class="g4" style="--gs:4" x="494" y="380">④</text><path class="g4 aligned" style="--gs:4" d="M494,380 L696,352"/><path class="g4 offset" style="--gs:4" d="M494,476 L696,448"/><text class="g5" style="--gs:5" x="372" y="476">⑤</text><path class="g5 aligned" style="--gs:5" d="M372,476 Q405,531 405.5,555.88 Q408.5,705.13 409,730"/><path class="g5 offset" style="--gs:5" d="M457.68,407.46 Q490.68,462.46 491.18,487.33 Q494.18,636.58 494.68,661.46"/><text class="g6" style="--gs:6" x="409" y="495">⑥</text><path class="g6 aligned" style="--gs:6" d="M409,495 Q754,435 780,439.5 Q806,444 820.5,456.5 Q835,469 821.5,594.5 Q808,720 796,736 Q784,752 736,728 Q736,728 688,704"/><path class="g6 offset" style="--gs:6" d="M409,591 Q596.08,531 610.18,535.5 Q624.27,540 632.14,552.5 Q640,565 632.68,690.5 Q625.36,816 618.85,832 Q612.35,848 586.32,824 Q586.32,824 560.29,800"/><text class="g7" style="--gs:7" x="556" y="163">⑦</text><path class="g7 aligned" style="--gs:7" d="M556,163 Q591,210 589.75,259.25 Q582.25,554.75 581,604"/><path class="g7 offset" style="--gs:7" d="M460,163 Q495,210 493.75,259.25 Q486.25,554.75 485,604"/><text class="g8" style="--gs:8" x="458" y="629">⑧</text><path class="g8 aligned" style="--gs:8" d="M458,629 Q511,644 533.13,636.38 Q665.88,590.63 688,583"/><path class="g8 offset" style="--gs:8" d="M458,725 Q511,740 533.13,732.38 Q665.88,686.63 688,679"/><text class="g9" style="--gs:9" x="671" y="523">⑨</text><path class="g9 aligned" style="--gs:9" d="M671,523 L731,627"/><path class="g9 offset" style="--gs:9" d="M756.68,454.46 L816.68,558.46"/><text class="g10" style="--gs:10" x="210" y="137">⑩</text><path class="g10 aligned" style="--gs:10" d="M210,137 Q297,195 301,201.25 Q325,238.75 329,245"/><path class="g10 offset" style="--gs:10" d="M295.68,68.46 Q382.68,126.46 386.68,132.71 Q410.68,170.21 414.68,176.46"/><text class="g11" style="--gs:11" x="88" y="434">⑪</text><path class="g11 aligned" style="--gs:11" d="M88,434 Q247,391 269.5,405.5 Q292,420 268.5,480.5 Q245,541 267.5,598 Q290,655 283,690.5 Q283,690.5 276,726"/><path class="g11 offset" style="--gs:11" d="M88,530 Q167.5,487 178.75,501.5 Q190,516 178.25,555.01 Q166.5,594.01 177.75,634.68 Q189,675.35 185.5,700.67 Q185.5,700.67 182,726"/><text class="g12" style="--gs:12" x="92" y="759">⑫</text><path class="g12 aligned" style="--gs:12" d="M92,759 Q142,773 193,757.5 Q244,742 276.5,745 Q309,748 522.5,814 Q736,880 830,864 Q830,864 924,848"/><path class="g12 offset" style="--gs:12" d="M92,855 Q142,869 193,853.5 Q244,838 276.5,841 Q309,844 522.5,910 Q736,976 830,960 Q830,960 924,944"/></g>
<g class="parts"><rect data-part="2" data-literal="⻌" data-radical="true" role="button" tabindex="0" aria-label="Part ⻌ (radical)" x="16" y="65" width="980" height="887"/><rect data-part="1" data-literal="禺" role="button" tabindex="0" aria-label="Part 禺" x="300" y="48" width="607" height="776"/></g>
</svg>
