<!--
  Stroke-order data for 遜, derived from AnimCJK (https://github.com/parsimonhi/animCJK),
  itself derived from the Arphic PL KaitiM fonts. Distributed under the Arphic Public License
  (see ARPHICPL.TXT). Regenerated by scripts/build-strokes.ts — do not edit by hand.
-->
<svg id="z36956" class="acjk" viewBox="0 0 1024 1024" xmlns="http://www.w3.org/2000/svg">
<g class="glyph"><path style="--part:1" id="z36956d1" d="M457 331Q556 235 580 226Q596 219 590 206Q586 193 531 166Q513 159 435 189Q360 211 322 211Q303 211 310 227Q317 237 332 247Q357 260 385 243Q400 237 477 204Q489 200 499 206Q509 213 505 225Q478 268 448 321C446 325 453 334 457 331Z"/><path style="--part:1" id="z36956d2" d="M491 414Q479 354 457 331C454 328 452 323 448 321Q439 314 429 308Q420 302 416 309Q412 312 418 324Q443 373 453 441C456 466 456 466 457 478Q457 643 435 661Q432 662 371 659Q362 656 357 660Q353 661 366 671Q406 710 427 741Q443 757 458 749Q477 737 491 691Q510 615 496 446C493 425 493 425 491 414Z"/><path style="--part:1" id="z36956d3" d="M496 446Q509 433 525 421Q564 387 563 372Q557 369 548 374Q521 393 491 414C466 432 466 432 453 441Q321 526 297 534Q287 538 288 547Q289 557 298 562Q320 569 351 576Q360 576 367 567Q395 528 457 478C483 457 483 457 496 446Z"/><path style="--part:1" id="z36956d4" d="M712 160Q754 150 786 138Q826 125 859 122Q872 122 877 116Q881 107 871 97Q828 58 795 57Q788 60 787 69Q781 105 613 166Q609 173 613 176Q619 177 683 166C702 162 702 162 712 160Z"/><path style="--part:1" id="z36956d5" d="M733 333Q687 333 650 333Q629 333 641 321Q689 263 732 221Q745 209 744 203Q743 191 715 162Q714 161 712 160C704 154 681 156 683 166Q692 196 627 287Q614 306 588 325Q572 335 573 345Q574 361 586 376Q593 386 604 380Q628 368 707 354Q710 353 714 354C723 354 742 333 733 333Z"/><path style="--part:1" id="z36956d6" d="M719 474Q728 465 824 445C830 444 820 427 814 428Q744 438 662 459Q649 463 658 452Q698 412 790 334Q820 304 846 289Q858 282 854 272Q847 253 821 232Q808 222 799 223Q789 224 789 238Q786 268 733 333C720 347 720 347 714 354Q603 460 587 466Q574 473 575 485Q575 497 595 517Q604 529 618 519Q655 497 696 483C704 480 712 479 719 474Z"/><path style="--part:1" id="z36956d7" d="M824 445Q843 478 860 483Q870 487 879 473Q883 463 879 444Q869 414 807 379Q800 376 797 385Q794 391 814 428C821 439 821 439 824 445Z"/><path style="--part:1" id="z36956d8" d="M696 483Q696 486 699 492Q712 523 713 621Q714 679 708 693Q705 702 689 697Q667 690 643 683Q633 682 631 687Q630 693 638 702Q689 753 704 782Q717 795 726 794Q736 790 748 761Q764 730 763 675Q759 584 760 551Q766 514 750 496Q731 480 719 474C711 471 694 475 696 483Z"/><path style="--part:1" id="z36956d9" d="M601 567Q582 613 554 656Q541 681 551 706Q557 719 573 710Q615 679 620 611Q624 586 619 568Q615 561 611 560Q604 561 601 567Z"/><path style="--part:1" id="z36956d10" d="M803 580Q834 623 872 682Q882 701 894 707Q901 708 909 702Q921 693 917 655Q916 636 905 619Q892 606 862 586Q828 564 808 555Q801 549 798 559Q795 569 803 580Z"/><path style="--part:2" id="z36956d11" d="M185 183C199 198 215 214 231 231C239 240 249 245 260 245C266 245 272 240 277 231C279 221 278 207 274 187C271 175 260 164 241 154C194 136 167 129 160 133C157 136 156 142 156 150C158 157 167 168 185 183Z"/><path style="--part:2" id="z36956d12" d="M130 303C154 333 176 353 196 361C204 363 212 360 219 351C223 343 224 334 223 323C219 307 211 295 200 287C174 271 148 263 124 262C121 262 119 263 117 264C113 265 112 269 114 277C114 285 120 294 130 303Z"/><path style="--part:2" id="z36956d13" d="M256 746Q269 733 275 716Q287 674 238 618Q211 579 266 502Q276 486 287 476Q308 460 290 444Q271 428 239 414Q218 401 201 416Q174 435 138 448Q92 466 77 463Q70 462 68 467Q67 471 74 476Q110 494 189 468Q199 465 207 477Q226 498 208 528Q192 549 182 579Q178 598 194 622Q245 700 230 745C227 753 251 753 256 746Z"/><path style="--part:2" id="z36956d14" d="M230 745Q181 744 136 754Q93 766 65 767Q50 766 52 779Q55 789 97 815Q118 825 148 806Q184 773 248 780Q296 783 456 844Q520 866 575 893Q705 953 760 948Q841 926 970 855Q977 852 975 846Q974 842 956 841Q689 857 511 815Q427 799 375 778Q309 753 256 746C239 745 239 745 230 745Z"/></g>
<defs><clipPath id="z36956c1"><use href="#z36956d1"/></clipPath>
	<clipPath id="z36956c2"><use href="#z36956d2"/></clipPath>
	<clipPath id="z36956c3"><use href="#z36956d3"/></clipPath>
	<clipPath id="z36956c4"><use href="#z36956d4"/></clipPath>
	<clipPath id="z36956c5"><use href="#z36956d5"/></clipPath>
	<clipPath id="z36956c6"><use href="#z36956d6"/></clipPath>
	<clipPath id="z36956c7"><use href="#z36956d7"/></clipPath>
	<clipPath id="z36956c8"><use href="#z36956d8"/></clipPath>
	<clipPath id="z36956c9"><use href="#z36956d9"/></clipPath>
	<clipPath id="z36956c10"><use href="#z36956d10"/></clipPath>
	<clipPath id="z36956c11"><use href="#z36956d11"/></clipPath>
	<clipPath id="z36956c12"><use href="#z36956d12"/></clipPath>
	<clipPath id="z36956c13"><use href="#z36956d13"/></clipPath>
	<clipPath id="z36956c14"><use href="#z36956d14"/></clipPath><marker id="guide-arrow" viewBox="0 0 16 16" refX="5" refY="5" markerWidth="4" markerHeight="4" orient="auto-start-reverse"><path d="M 0 0 L 10 5 L 0 10 z" fill="inherit"/></marker></defs>
<g class="strokes"><path style="--part:1" pathLength="3333" clip-path="url(#z36956c1)" d="M314 220L367 228L504 185L538 200L545 224L453 323"/><path style="--part:1" pathLength="3333" clip-path="url(#z36956c2)" d="M424 315L475 449L473 640L440 706L366 663"/><path style="--part:1" pathLength="3333" clip-path="url(#z36956c3)" d="M292 546L349 543L556 377"/><path style="--part:1" pathLength="3333" clip-path="url(#z36956c4)" d="M799 66L839 103L617 170"/><path style="--part:1" pathLength="3333" clip-path="url(#z36956c5)" d="M688 173L706 212L606 341L618 356L720 339"/><path style="--part:1" pathLength="3333" clip-path="url(#z36956c6)" d="M800 228L814 277L616 472L633 491L818 436"/><path style="--part:1" pathLength="3333" clip-path="url(#z36956c7)" d="M805 390L870 478"/><path style="--part:1" pathLength="3333" clip-path="url(#z36956c8)" d="M704 487L734 531L732 717L708 746L639 690"/><path style="--part:1" pathLength="3333" clip-path="url(#z36956c9)" d="M611 564L567 708"/><path style="--part:1" pathLength="3333" clip-path="url(#z36956c10)" d="M804 559L881 638L901 703"/><path style="--part:2" pathLength="3333" clip-path="url(#z36956c11)" d="M163 141L235 187L265 238"/><path style="--part:2" pathLength="3333" clip-path="url(#z36956c12)" d="M120 271L213 353"/><path style="--part:2" pathLength="3333" clip-path="url(#z36956c13)" d="M76 468L208 438L257 474L205 588L251 684L241 744"/><path style="--part:2" pathLength="3333" clip-path="url(#z36956c14)" d="M58 776L116 789L188 764L278 767L740 896L966 848"/></g>
<g class="guides"><text class="g1" style="--gs:1" x="314" y="220">①</text><path class="g1 aligned" style="--gs:1" d="M314,220 Q367,228 435.5,206.5 Q504,185 521,192.5 Q538,200 541.5,212 Q545,224 499,273.5 Q499,273.5 453,323"/><path class="g1 offset" style="--gs:1" d="M314,316 Q344.97,324 385.01,302.5 Q425.04,281 434.97,288.5 Q444.91,296 446.95,308 Q449,320 422.12,369.5 Q422.12,369.5 395.23,419"/><text class="g2" style="--gs:2" x="424" y="315">②</text><path class="g2 aligned" style="--gs:2" d="M424,315 Q475,449 474,544.5 Q473,640 456.5,673 Q440,706 403,684.5 Q403,684.5 366,663"/><path class="g2 offset" style="--gs:2" d="M328,315 Q353.5,416.1 353,488.15 Q352.5,560.2 344.25,585.1 Q336,610 317.5,593.78 Q317.5,593.78 299,577.56"/><text class="g3" style="--gs:3" x="292" y="546">③</text><path class="g3 aligned" style="--gs:3" d="M292,546 Q349,543 374.88,522.25 Q530.13,397.75 556,377"/><path class="g3 offset" style="--gs:3" d="M292,450 Q349,447 374.88,426.25 Q530.13,301.75 556,281"/><text class="g4" style="--gs:4" x="799" y="66">④</text><path class="g4 aligned" style="--gs:4" d="M799,66 Q839,103 811.25,111.38 Q644.75,161.63 617,170"/><path class="g4 offset" style="--gs:4" d="M703,66 Q725.7,84.5 709.95,88.69 Q615.45,113.81 599.7,118"/><text class="g5" style="--gs:5" x="688" y="173">⑤</text><path class="g5 aligned" style="--gs:5" d="M688,173 Q706,212 656,276.5 Q606,341 612,348.5 Q618,356 669,347.5 Q669,347.5 720,339"/><path class="g5 offset" style="--gs:5" d="M808,173 Q817,192.5 792,224.75 Q767,257 770,260.75 Q773,264.5 798.5,260.25 Q798.5,260.25 824,256"/><text class="g6" style="--gs:6" x="800" y="228">⑥</text><path class="g6 aligned" style="--gs:6" d="M800,228 Q814,277 715,374.5 Q616,472 624.5,481.5 Q633,491 725.5,463.5 Q725.5,463.5 818,436"/><path class="g6 offset" style="--gs:6" d="M920,228 Q927,259.11 877.5,321.02 Q828,382.94 832.25,388.97 Q836.5,395 882.75,377.54 Q882.75,377.54 929,360.08"/><text class="g7" style="--gs:7" x="805" y="390">⑦</text><path class="g7 aligned" style="--gs:7" d="M805,390 L870,478"/><path class="g7 offset" style="--gs:7" d="M890.68,321.46 L955.68,409.46"/><text class="g8" style="--gs:8" x="704" y="487">⑧</text><path class="g8 aligned" style="--gs:8" d="M704,487 Q734,531 733,624 Q732,717 720,731.5 Q708,746 673.5,718 Q673.5,718 639,690"/><path class="g8 offset" style="--gs:8" d="M608,487 Q623,514.69 622.5,573.22 Q622,631.75 616,640.87 Q610,650 592.75,632.38 Q592.75,632.38 575.5,614.76"/><text class="g9" style="--gs:9" x="611" y="564">⑨</text><path class="g9 aligned" style="--gs:9" d="M611,564 L567,708"/><path class="g9 offset" style="--gs:9" d="M731,564 L687,708"/><text class="g10" style="--gs:10" x="804" y="559">⑩</text><path class="g10 aligned" style="--gs:10" d="M804,559 Q881,638 883.5,646.13 Q898.5,694.88 901,703"/><path class="g10 offset" style="--gs:10" d="M889.68,490.46 Q966.68,569.46 969.18,577.58 Q984.18,626.33 986.68,634.46"/><text class="g11" style="--gs:11" x="163" y="141">⑪</text><path class="g11 aligned" style="--gs:11" d="M163,141 Q235,187 238.75,193.38 Q261.25,231.63 265,238"/><path class="g11 offset" style="--gs:11" d="M248.68,72.46 Q320.68,118.46 324.43,124.83 Q346.93,163.08 350.68,169.46"/><text class="g12" style="--gs:12" x="120" y="271">⑫</text><path class="g12 aligned" style="--gs:12" d="M120,271 L213,353"/><path class="g12 offset" style="--gs:12" d="M205.68,202.46 L298.68,284.46"/><text class="g13" style="--gs:13" x="76" y="468">⑬</text><path class="g13 aligned" style="--gs:13" d="M76,468 Q208,438 232.5,456 Q257,474 231,531 Q205,588 228,636 Q251,684 246,714 Q246,714 241,744"/><path class="g13 offset" style="--gs:13" d="M76,564 Q142,534 154.25,546.35 Q166.5,558.71 153.5,597.82 Q140.5,636.94 152,669.88 Q163.5,702.82 161,723.41 Q161,723.41 158.5,744"/><text class="g14" style="--gs:14" x="58" y="776">⑭</text><path class="g14 aligned" style="--gs:14" d="M58,776 Q116,789 152,776.5 Q188,764 233,765.5 Q278,767 509,831.5 Q740,896 853,872 Q853,872 966,848"/><path class="g14 offset" style="--gs:14" d="M58,872 Q116,885 152,872.5 Q188,860 233,861.5 Q278,863 509,927.5 Q740,992 853,968 Q853,968 966,944"/></g>
<g class="parts"><rect data-part="2" data-literal="辶" data-radical="true" role="button" tabindex="0" aria-label="Part 辶 (radical)" x="0" y="69" width="1024" height="899"/><rect data-part="1" data-literal="孫" role="button" tabindex="0" aria-label="Part 孫" x="220" y="0" width="753" height="818"/></g>
</svg>
