<!--
  Stroke-order data for 遣, derived from AnimCJK (https://github.com/parsimonhi/animCJK),
  itself derived from the Arphic PL KaitiM fonts. Distributed under the Arphic Public License
  (see ARPHICPL.TXT). Regenerated by scripts/build-strokes.ts — do not edit by hand.
-->
<svg id="z36963" class="acjk" viewBox="0 0 1024 1024" xmlns="http://www.w3.org/2000/svg">
<g class="glyph"><path style="--part:1" id="z36963d1" d="M465 178Q453 174 434 173Q424 172 420 176Q416 183 424 196Q448 233 467 296Q471 315 485 327Q503 345 506 331Q507 322 507 308C503 288 503 288 501 278Q488 224 486 205C484 194 476 180 465 178Z"/><path style="--part:1" id="z36963d2" d="M755 238Q776 199 796 190Q811 175 799 159Q745 111 709 123Q672 136 635 149C600 156 600 156 582 160Q524 170 465 178C454 180 475 209 486 205Q505 199 583 185C616 179 616 179 633 176Q706 158 719 170Q725 179 707 238C702 253 748 252 755 238Z"/><path style="--part:1" id="z36963d3" d="M625 287Q685 277 769 270Q779 269 780 262Q780 255 755 238C743 228 723 235 707 238Q664 247 627 256C598 261 598 261 584 264Q541 271 501 278C491 280 498 312 507 308Q517 302 584 293C611 289 611 289 625 287Z"/><path style="--part:1" id="z36963d4" d="M620 346Q621 315 625 287C626 266 626 266 627 256Q630 214 633 176C634 158 634 158 635 149Q639 127 642 112Q646 99 649 88Q653 78 635 65Q604 49 583 44Q570 41 562 49Q555 56 562 69Q580 94 580 111Q581 135 582 160C583 177 583 177 583 185Q584 222 584 264C584 283 584 283 584 293Q583 321 582 352C582 365 620 359 620 346Z"/><path style="--part:1" id="z36963d5" d="M582 352Q479 367 363 384Q344 385 358 401Q371 413 387 418Q406 422 420 418Q589 367 867 367C868 367 868 367 869 367Q887 367 891 359Q895 349 881 337Q830 298 781 315Q717 328 620 346C595 350 595 350 582 352Z"/><path style="--part:1" id="z36963d6" d="M523 613Q523 591 524 568C524 548 524 548 524 538Q524 486 528 469C530 459 522 449 514 443Q496 430 476 423Q469 422 463 429Q460 433 466 443Q503 528 473 689Q461 732 465 750Q472 778 483 789Q493 801 501 789Q511 777 515 755C519 732 519 732 521 720Q522 696 523 642C523 623 523 623 523 613Z"/><path style="--part:1" id="z36963d7" d="M713 512Q728 478 750 464Q765 449 753 434Q740 424 696 402Q681 395 623 417Q539 438 514 443C504 445 519 472 528 469Q531 466 654 443Q667 440 673 446Q679 450 677 462Q673 487 666 509C660 524 707 527 713 512Z"/><path style="--part:1" id="z36963d8" d="M524 568Q528 568 533 567Q594 554 725 542Q735 541 736 534Q736 527 713 512C700 504 681 506 666 509Q587 528 524 538C514 540 514 568 524 568Z"/><path style="--part:1" id="z36963d9" d="M735 696Q754 653 779 639Q795 623 782 607Q769 595 724 572Q708 565 689 572Q617 599 523 613C514 615 513 642 523 642Q536 642 554 637Q617 627 677 615Q693 612 699 619Q705 625 703 638Q696 666 688 692C682 707 729 711 735 696Z"/><path style="--part:1" id="z36963d10" d="M515 755Q548 743 750 734Q760 733 763 724Q763 717 735 696C723 686 704 689 688 692C687 692 687 692 687 692Q596 711 521 720C509 722 503 757 515 755Z"/><path style="--part:2" id="z36963d11" d="M225 214Q252 238 279 265Q294 280 311 279Q323 278 329 263Q333 247 324 215Q312 182 220 162Q204 158 196 161Q190 165 192 179Q196 192 225 214Z"/><path style="--part:2" id="z36963d12" d="M302 756Q320 746 327 724Q339 685 292 615Q259 552 331 461Q352 442 332 427Q310 412 275 400Q253 388 235 407Q205 431 166 448Q112 473 95 471Q88 470 86 476Q85 480 93 485Q132 501 228 461Q238 457 248 469Q270 488 251 518Q206 570 255 632Q288 692 287 716Q287 746 280 754C276 760 296 760 302 756Z"/><path style="--part:2" id="z36963d13" d="M280 754Q237 753 192 767Q152 782 88 786Q82 786 78 795Q74 802 83 812Q99 831 123 843Q135 850 154 836Q232 782 308 797Q374 809 506 863Q737 959 815 930Q873 908 923 871Q945 855 922 856Q685 865 557 831Q476 810 376 775Q339 759 302 756C287 755 287 755 280 754Z"/></g>
<defs><clipPath id="z36963c1"><use href="#z36963d1"/></clipPath>
	<clipPath id="z36963c2"><use href="#z36963d2"/></clipPath>
	<clipPath id="z36963c3"><use href="#z36963d3"/></clipPath>
	<clipPath id="z36963c4"><use href="#z36963d4"/></clipPath>
	<clipPath id="z36963c5"><use href="#z36963d5"/></clipPath>
	<clipPath id="z36963c6"><use href="#z36963d6"/></clipPath>
	<clipPath id="z36963c7"><use href="#z36963d7"/></clipPath>
	<clipPath id="z36963c8"><use href="#z36963d8"/></clipPath>
	<clipPath id="z36963c9"><use href="#z36963d9"/></clipPath>
	<clipPath id="z36963c10"><use href="#z36963d10"/></clipPath>
	<clipPath id="z36963c11"><use href="#z36963d11"/></clipPath>
	<clipPath id="z36963c12"><use href="#z36963d12"/></clipPath>
	<clipPath id="z36963c13"><use href="#z36963d13"/></clipPath><marker id="guide-arrow" viewBox="0 0 16 16" refX="5" refY="5" markerWidth="4" markerHeight="4" orient="auto-start-reverse"><path d="M 0 0 L 10 5 L 0 10 z" fill="inherit"/></marker></defs>
<g class="strokes"><path style="--part:1" pathLength="3333" clip-path="url(#z36963c1)" d="M427 182L464 218L500 329"/><path style="--part:1" pathLength="3333" clip-path="url(#z36963c2)" d="M474 178L719 144L762 177L724 237"/><path style="--part:1" pathLength="3333" clip-path="url(#z36963c3)" d="M508 282L771 260"/><path style="--part:1" pathLength="3333" clip-path="url(#z36963c4)" d="M566 54L614 93L593 349"/><path style="--part:1" pathLength="3333" clip-path="url(#z36963c5)" d="M361 391L805 339L888 354"/><path style="--part:1" pathLength="3333" clip-path="url(#z36963c6)" d="M471 430L503 478L489 787"/><path style="--part:1" pathLength="3333" clip-path="url(#z36963c7)" d="M522 446L692 428L717 453L679 509"/><path style="--part:1" pathLength="3333" clip-path="url(#z36963c8)" d="M528 560L726 534"/><path style="--part:1" pathLength="3333" clip-path="url(#z36963c9)" d="M527 634L705 593L745 624L705 693"/><path style="--part:1" pathLength="3333" clip-path="url(#z36963c10)" d="M521 747L755 718"/><path style="--part:2" pathLength="3333" clip-path="url(#z36963c11)" d="M196 171L276 214L316 273"/><path style="--part:2" pathLength="3333" clip-path="url(#z36963c12)" d="M91 477L254 431L292 451L256 564L305 691L290 752"/><path style="--part:2" pathLength="3333" clip-path="url(#z36963c13)" d="M81 797L132 813L297 775L730 894L924 862"/></g>
<g class="guides"><text class="g1" style="--gs:1" x="427" y="182">①</text><path class="g1 aligned" style="--gs:1" d="M427,182 Q464,218 468.5,231.88 Q495.5,315.13 500,329"/><path class="g1 offset" style="--gs:1" d="M512.68,113.46 Q549.68,149.46 554.18,163.33 Q581.18,246.58 585.68,260.46"/><text class="g2" style="--gs:2" x="474" y="178">②</text><path class="g2 aligned" style="--gs:2" d="M474,178 Q719,144 729.75,152.25 Q762,177 752.5,192 Q733.5,222 724,237"/><path class="g2 offset" style="--gs:2" d="M474,274 Q645.84,240 653.38,248.25 Q676,273 669.34,288 Q656.01,318 649.35,333"/><text class="g3" style="--gs:3" x="508" y="282">③</text><path class="g3 aligned" style="--gs:3" d="M508,282 L771,260"/><path class="g3 offset" style="--gs:3" d="M508,378 L771,356"/><text class="g4" style="--gs:4" x="566" y="54">④</text><path class="g4 aligned" style="--gs:4" d="M566,54 Q614,93 611.38,125 Q595.63,317 593,349"/><path class="g4 offset" style="--gs:4" d="M470,54 Q518,93 515.38,125 Q499.63,317 497,349"/><text class="g5" style="--gs:5" x="361" y="391">⑤</text><path class="g5 aligned" style="--gs:5" d="M361,391 Q805,339 815.38,340.88 Q877.63,352.13 888,354"/><path class="g5 offset" style="--gs:5" d="M361,487 Q805,435 815.38,436.88 Q877.63,448.13 888,450"/><text class="g6" style="--gs:6" x="471" y="430">⑥</text><path class="g6 aligned" style="--gs:6" d="M471,430 Q503,478 501.25,516.63 Q490.75,748.38 489,787"/><path class="g6 offset" style="--gs:6" d="M375,430 Q407,478 405.25,516.63 Q394.75,748.38 393,787"/><text class="g7" style="--gs:7" x="522" y="446">⑦</text><path class="g7 aligned" style="--gs:7" d="M522,446 Q692,428 698.25,434.25 Q717,453 707.5,467 Q688.5,495 679,509"/><path class="g7 offset" style="--gs:7" d="M522,542 Q617.03,524 620.52,530.25 Q631,549 625.69,563 Q615.07,591 609.76,605"/><text class="g8" style="--gs:8" x="528" y="560">⑧</text><path class="g8 aligned" style="--gs:8" d="M528,560 L726,534"/><path class="g8 offset" style="--gs:8" d="M528,656 L726,630"/><text class="g9" style="--gs:9" x="527" y="634">⑨</text><path class="g9 aligned" style="--gs:9" d="M527,634 Q705,593 715,600.75 Q745,624 735,641.25 Q715,675.75 705,693"/><path class="g9 offset" style="--gs:9" d="M527,730 Q616,689 621,696.75 Q636,720 631,724.75 Q621,734.25 616,739"/><text class="g10" style="--gs:10" x="521" y="747">⑩</text><path class="g10 aligned" style="--gs:10" d="M521,747 L755,718"/><path class="g10 offset" style="--gs:10" d="M521,843 L755,814"/><text class="g11" style="--gs:11" x="196" y="171">⑪</text><path class="g11 aligned" style="--gs:11" d="M196,171 Q276,214 281,221.38 Q311,265.63 316,273"/><path class="g11 offset" style="--gs:11" d="M281.68,102.46 Q361.68,145.46 366.68,152.83 Q396.68,197.08 401.68,204.46"/><text class="g12" style="--gs:12" x="91" y="477">⑫</text><path class="g12 aligned" style="--gs:12" d="M91,477 Q254,431 273,441 Q292,451 274,507.5 Q256,564 280.5,627.5 Q305,691 297.5,721.5 Q297.5,721.5 290,752"/><path class="g12 offset" style="--gs:12" d="M91,573 Q172.5,527 182,537 Q191.5,547 182.5,583.61 Q173.5,620.22 185.75,664.73 Q198,709.24 194.25,730.62 Q194.25,730.62 190.5,752"/><text class="g13" style="--gs:13" x="81" y="797">⑬</text><path class="g13 aligned" style="--gs:13" d="M81,797 Q132,813 214.5,794 Q297,775 513.5,834.5 Q730,894 827,878 Q827,878 924,862"/><path class="g13 offset" style="--gs:13" d="M81,893 Q132,909 214.5,890 Q297,871 513.5,930.5 Q730,990 827,974 Q827,974 924,958"/></g>
<g class="parts"><rect data-part="2" data-literal="⻌" data-radical="true" role="button" tabindex="0" aria-label="Part ⻌ (radical)" x="9" y="99" width="987" height="867"/><rect data-part="1" data-literal="𠳋" role="button" tabindex="0" aria-label="Part 𠳋" x="289" y="0" width="671" height="859"/></g>
</svg>
