<!--
  Stroke-order data for 邦, derived from AnimCJK (https://github.com/parsimonhi/animCJK),
  itself derived from the Arphic PL KaitiM fonts. Distributed under the Arphic Public License
  (see ARPHICPL.TXT). Regenerated by scripts/build-strokes.ts — do not edit by hand.
-->
<svg id="z37030" class="acjk" viewBox="0 0 1024 1024" xmlns="http://www.w3.org/2000/svg">
<g class="glyph"><path id="z37030d1" d="M393 275Q513 242 516 239Q523 232 519 223Q512 213 484 206Q451 202 395 226C360 237 360 237 343 242Q259 261 216 268Q180 275 207 290Q244 312 320 292Q330 289 343 287C376 279 376 279 393 275Z"/><path id="z37030d2" d="M385 404Q422 392 461 383Q495 373 501 367Q508 360 504 351Q497 341 467 335Q442 332 388 354C355 365 355 365 339 370Q254 391 227 395Q193 404 218 418Q263 439 316 421Q323 418 336 416C369 408 369 408 385 404Z"/><path id="z37030d3" d="M372 541Q439 523 524 508Q542 505 543 497Q544 482 523 474Q495 462 469 469Q418 482 378 494C344 503 344 503 327 507Q177 543 100 554Q87 555 83 565Q80 575 97 588Q139 616 185 600Q261 572 319 555C354 546 354 546 372 541Z"/><path id="z37030d4" d="M319 555Q288 679 221 751Q184 787 132 824Q120 833 120 837Q121 841 134 841Q149 845 186 828Q334 768 372 541C376 510 376 510 378 494Q381 463 384 430Q384 417 385 404C387 371 387 371 388 354Q389 314 393 275C394 242 394 242 395 226Q404 153 419 115Q426 100 415 88Q393 69 351 57Q326 50 316 58Q306 65 314 78Q338 115 341 165Q342 202 343 242C343 272 343 272 343 287Q342 327 339 370C337 401 337 401 336 416Q330 488 327 507C322 539 322 539 319 555Z"/><path id="z37030d5" d="M644 257C652 255 661 252 671 247C703 235 734 223 762 213C764 211 769 212 777 216C783 221 784 230 779 243C735 331 713 377 714 381C710 399 764 384 768 366C768 358 772 349 781 340C801 316 817 297 830 281C844 261 862 248 883 240C905 228 907 214 888 199C860 175 837 158 820 149C807 145 794 146 782 153C764 168 717 189 642 217C639 218 637 219 635 220C623 225 632 259 644 257Z"/><path id="z37030d6" d="M714 381C713 390 721 398 738 406C814 460 847 514 838 566C836 572 833 578 829 583C818 590 803 592 783 589C753 583 725 579 699 576C692 576 689 578 691 583C693 588 699 595 711 603C767 632 802 657 816 679C822 689 830 695 840 695C848 696 858 692 869 683C893 651 906 616 908 578C908 522 868 461 787 394C774 386 768 376 768 366C765 348 714 362 714 381Z"/><path id="z37030d7" d="M577 920Q581 947 589 957Q595 964 603 962Q618 952 625 890Q635 800 633 712Q629 637 634 346Q635 300 644 257C646 244 646 227 635 220Q601 198 584 194Q571 190 554 199Q545 206 553 218Q577 273 579 294Q579 546 574 713Q571 867 577 920Z"/></g>
<defs><clipPath id="z37030c1"><use href="#z37030d1"/></clipPath>
	<clipPath id="z37030c2"><use href="#z37030d2"/></clipPath>
	<clipPath id="z37030c3"><use href="#z37030d3"/></clipPath>
	<clipPath id="z37030c4"><use href="#z37030d4"/></clipPath>
	<clipPath id="z37030c5"><use href="#z37030d5"/></clipPath>
	<clipPath id="z37030c6"><use href="#z37030d6"/></clipPath>
	<clipPath id="z37030c7"><use href="#z37030d7"/></clipPath><marker id="guide-arrow" viewBox="0 0 16 16" refX="5" refY="5" markerWidth="4" markerHeight="4" orient="auto-start-reverse"><path d="M 0 0 L 10 5 L 0 10 z" fill="inherit"/></marker></defs>
<g class="strokes"><path pathLength="3333" clip-path="url(#z37030c1)" d="M207 279L515 226"/><path pathLength="3333" clip-path="url(#z37030c2)" d="M213 405L282 406L497 349"/><path pathLength="3333" clip-path="url(#z37030c3)" d="M88 569L150 576L467 494L538 494"/><path pathLength="3333" clip-path="url(#z37030c4)" d="M318 61L378 114L334 597L254 752L127 835"/><path pathLength="3333" clip-path="url(#z37030c5)" d="M645 250L773 184L833 215L846 233L722 376"/><path pathLength="3333" clip-path="url(#z37030c6)" d="M721 384L754 387L829 462L872 578L825 642L699 582"/><path pathLength="3333" clip-path="url(#z37030c7)" d="M556 205L609 264L598 958"/></g>
<g class="guides"><text class="g1" style="--gs:1" x="207" y="279">①</text><path class="g1 aligned" style="--gs:1" d="M207,279 L515,226"/><path class="g1 offset" style="--gs:1" d="M207,375 L515,322"/><text class="g2" style="--gs:2" x="213" y="405">②</text><path class="g2 aligned" style="--gs:2" d="M213,405 Q282,406 308.88,398.88 Q470.13,356.13 497,349"/><path class="g2 offset" style="--gs:2" d="M213,501 Q282,502 308.88,494.88 Q470.13,452.13 497,445"/><text class="g3" style="--gs:3" x="88" y="569">③</text><path class="g3 aligned" style="--gs:3" d="M88,569 Q150,576 229.25,555.5 Q467,494 484.75,494 Q520.25,494 538,494"/><path class="g3 offset" style="--gs:3" d="M88,665 Q150,672 229.25,651.5 Q467,590 484.75,590 Q520.25,590 538,590"/><text class="g4" style="--gs:4" x="318" y="61">④</text><path class="g4 aligned" style="--gs:4" d="M318,61 Q378,114 356,355.5 Q334,597 294,674.5 Q254,752 190.5,793.5 Q190.5,793.5 127,835"/><path class="g4 offset" style="--gs:4" d="M222,61 Q259.05,107.43 245.47,318.97 Q231.88,530.52 207.18,598.41 Q182.48,666.29 143.26,702.65 Q143.26,702.65 104.05,739"/><text class="g5" style="--gs:5" x="645" y="250">⑤</text><path class="g5 aligned" style="--gs:5" d="M645,250 Q773,184 803,199.5 Q833,215 839.5,224 Q846,233 784,304.5 Q784,304.5 722,376"/><path class="g5 offset" style="--gs:5" d="M645,346 Q711.87,280 727.54,295.5 Q743.21,311 746.6,320 Q750,329 717.61,400.5 Q717.61,400.5 685.22,472"/><text class="g6" style="--gs:6" x="721" y="384">⑥</text><path class="g6 aligned" style="--gs:6" d="M738,386 Q829,462 850.5,520 Q872,578 848.5,610 Q825,642 762,612 Q762,612 699,582"/><path class="g6 offset" style="--gs:6" d="M642,386 Q687.5,433.5 698.25,469.75 Q709,506 697.25,526 Q685.5,546 654,527.25 Q654,527.25 622.5,508.5"/><text class="g7" style="--gs:7" x="556" y="205">⑦</text><path class="g7 aligned" style="--gs:7" d="M556,205 Q609,264 607.63,350.75 Q599.38,871.25 598,958"/><path class="g7 offset" style="--gs:7" d="M460,205 Q513,264 511.63,350.75 Q503.38,871.25 502,958"/></g>
</svg>
