<!--
  Stroke-order data for 郵, derived from AnimCJK (https://github.com/parsimonhi/animCJK),
  itself derived from the Arphic PL KaitiM fonts. Distributed under the Arphic Public License
  (see ARPHICPL.TXT). Regenerated by scripts/build-strokes.ts — do not edit by hand.
-->
<svg id="z37109" class="acjk" viewBox="0 0 1024 1024" xmlns="http://www.w3.org/2000/svg">
<g class="glyph"><path style="--part:1" id="z37109d1" d="M360 169C438 140 461 126 502 114C522 107 530 94 514 83C474 55 442 43 420 47C414 47 412 54 412 61C412 85 343 135 201 207C196 209 191 208 189 212C184 217 183 223 190 224C205 225 292 194 325 182C348 173 348 173 360 169Z"/><path style="--part:1" id="z37109d2" d="M402 280C489 257 533 240 536 238C541 233 542 227 539 223C534 215 522 210 505 207C482 202 451 217 403 234C367 245 367 245 349 250C321 259 259 273 211 282C188 285 184 294 202 303C224 315 284 310 351 293C385 284 385 284 402 280Z"/><path style="--part:1" id="z37109d3" d="M532 418C554 414 578 410 604 408C614 407 620 404 621 399C621 390 615 382 605 377C580 366 563 368 548 372C508 381 508 381 488 386C456 393 427 399 401 405C369 412 369 412 353 415C321 421 294 427 273 431C239 437 239 437 222 440C210 442 113 454 78 458C69 458 64 461 62 467C59 473 61 481 73 489C98 507 126 512 153 504C179 495 205 488 231 481C261 472 261 472 276 468C302 460 328 454 353 449C385 442 385 442 401 439C425 433 452 429 482 425C515 420 515 420 532 418Z"/><path style="--part:1" id="z37109d4" d="M273 431C269 393 275 386 259 376C243 366 228 358 212 355C203 352 196 353 191 358C186 362 186 369 192 378C204 396 217 419 222 440C228 467 228 467 231 481C236 503 242 537 250 578C252 591 291 582 288 569C283 528 278 494 276 468C274 443 274 443 273 431Z"/><path style="--part:1" id="z37109d5" d="M500 521C510 486 520 451 532 418C543 387 543 387 548 372C559 337 568 338 553 323C537 306 521 298 510 294C501 289 495 290 490 294C485 297 483 302 487 312C492 323 493 348 488 386C484 412 484 412 482 425C477 453 471 484 464 517C462 529 498 533 500 521Z"/><path style="--part:1" id="z37109d6" d="M400 581C422 575 457 568 517 557C523 555 535 554 535 545C533 531 515 526 500 521C489 517 476 515 464 517C450 521 418 532 400 538C369 547 369 547 353 552C329 558 309 564 288 569C263 575 263 575 250 578C232 582 198 587 150 597C132 600 128 607 145 617C165 630 190 634 214 628C254 617 300 604 353 592C384 585 384 585 400 581Z"/><path style="--part:1" id="z37109d7" d="M400 538C400 503 401 470 401 439C401 416 401 416 401 405C401 361 401 319 402 280C403 249 403 249 403 234C403 191 418 194 360 169C348 164 319 171 325 182C334 199 347 226 349 250C350 279 350 279 351 293C351 314 353 356 353 415C353 438 353 438 353 449C353 518 353 518 353 552C353 579 353 579 353 592C353 663 353 663 353 699C353 715 400 702 400 686C400 616 400 616 400 581C400 552 400 552 400 538Z"/><path style="--part:1" id="z37109d8" d="M353 699C289 716 235 735 176 735C165 734 160 740 159 748C157 758 159 766 167 772C183 784 202 799 228 812C234 815 244 812 253 806C289 778 345 755 540 666C570 649 555 638 535 644C492 656 448 672 400 686C369 695 369 695 353 699Z"/><path style="--part:2" id="z37109d9" d="M699 300C729 288 793 261 803 266C808 269 809 280 805 293C786 341 770 374 759 394C755 402 753 409 753 413C750 430 800 419 803 402C803 383 820 358 853 327C880 301 888 293 900 286C919 273 921 261 904 248C877 225 856 211 841 205C827 200 816 200 807 208C791 220 730 252 688 267C677 271 688 304 699 300Z"/><path style="--part:2" id="z37109d10" d="M753 413C752 422 759 429 774 439C828 471 861 518 869 578C871 599 865 619 854 630C846 637 831 637 816 634C790 627 767 623 747 621C740 620 738 621 739 627C739 631 744 638 756 646C801 676 828 699 837 717C840 725 846 731 858 733C865 734 875 731 885 723C913 695 928 660 933 618C938 560 901 495 819 428C807 419 803 412 803 402C803 385 753 396 753 413Z"/><path style="--part:2" id="z37109d11" d="M688 267C667 252 650 244 641 242C631 239 621 239 612 246C605 250 607 256 611 265C628 299 636 331 637 348C637 450 634 582 631 742C627 880 632 957 646 977C649 981 654 984 659 982C671 975 677 950 681 913C686 854 690 796 688 741C686 691 685 574 689 388C689 358 693 328 699 300C701 289 697 274 688 267Z"/></g>
<defs><clipPath id="z37109c1"><use href="#z37109d1"/></clipPath>
	<clipPath id="z37109c2"><use href="#z37109d2"/></clipPath>
	<clipPath id="z37109c3"><use href="#z37109d3"/></clipPath>
	<clipPath id="z37109c4"><use href="#z37109d4"/></clipPath>
	<clipPath id="z37109c5"><use href="#z37109d5"/></clipPath>
	<clipPath id="z37109c6"><use href="#z37109d6"/></clipPath>
	<clipPath id="z37109c7"><use href="#z37109d7"/></clipPath>
	<clipPath id="z37109c8"><use href="#z37109d8"/></clipPath>
	<clipPath id="z37109c9"><use href="#z37109d9"/></clipPath>
	<clipPath id="z37109c10"><use href="#z37109d10"/></clipPath>
	<clipPath id="z37109c11"><use href="#z37109d11"/></clipPath><marker id="guide-arrow" viewBox="0 0 16 16" refX="5" refY="5" markerWidth="4" markerHeight="4" orient="auto-start-reverse"><path d="M 0 0 L 10 5 L 0 10 z" fill="inherit"/></marker></defs>
<g class="strokes"><path style="--part:1" pathLength="3333" clip-path="url(#z37109c1)" d="M422 51L464 99L193 217"/><path style="--part:1" pathLength="3333" clip-path="url(#z37109c2)" d="M198 292L534 226"/><path style="--part:1" pathLength="3333" clip-path="url(#z37109c3)" d="M68 471L136 479L552 392L616 397"/><path style="--part:1" pathLength="3333" clip-path="url(#z37109c4)" d="M193 363L242 406L262 580"/><path style="--part:1" pathLength="3333" clip-path="url(#z37109c5)" d="M493 301L525 344L476 524"/><path style="--part:1" pathLength="3333" clip-path="url(#z37109c6)" d="M143 605L529 543"/><path style="--part:1" pathLength="3333" clip-path="url(#z37109c7)" d="M331 179L375 215L374 703"/><path style="--part:1" pathLength="3333" clip-path="url(#z37109c8)" d="M163 749L239 770L547 651"/><path style="--part:2" pathLength="3333" clip-path="url(#z37109c9)" d="M687 281L816 234L861 270L762 413"/><path style="--part:2" pathLength="3333" clip-path="url(#z37109c10)" d="M757 413L789 418L854 486L901 595L856 683L747 627"/><path style="--part:2" pathLength="3333" clip-path="url(#z37109c11)" d="M614 251L666 317L652 977"/></g>
<g class="guides"><text class="g1" style="--gs:1" x="422" y="51">①</text><path class="g1 aligned" style="--gs:1" d="M422,51 Q464,99 430.13,113.75 Q226.88,202.25 193,217"/><path class="g1 offset" style="--gs:1" d="M326,51 Q353.12,75 331.25,82.38 Q200,126.63 178.12,134"/><text class="g2" style="--gs:2" x="198" y="292">②</text><path class="g2 aligned" style="--gs:2" d="M198,292 L534,226"/><path class="g2 offset" style="--gs:2" d="M198,388 L534,322"/><text class="g3" style="--gs:3" x="68" y="471">③</text><path class="g3 aligned" style="--gs:3" d="M68,471 Q136,479 240,457.25 Q552,392 568,393.25 Q600,395.75 616,397"/><path class="g3 offset" style="--gs:3" d="M68,567 Q136,575 240,553.25 Q552,488 568,489.25 Q600,491.75 616,493"/><text class="g4" style="--gs:4" x="193" y="363">④</text><path class="g4 aligned" style="--gs:4" d="M193,363 Q242,406 244.5,427.75 Q259.5,558.25 262,580"/><path class="g4 offset" style="--gs:4" d="M278.68,294.46 Q327.68,337.46 330.18,359.21 Q345.18,489.71 347.68,511.46"/><text class="g5" style="--gs:5" x="493" y="301">⑤</text><path class="g5 aligned" style="--gs:5" d="M493,301 Q525,344 518.88,366.5 Q482.13,501.5 476,524"/><path class="g5 offset" style="--gs:5" d="M397,301 Q429,344 422.88,366.5 Q386.13,501.5 380,524"/><text class="g6" style="--gs:6" x="143" y="605">⑥</text><path class="g6 aligned" style="--gs:6" d="M143,605 L529,543"/><path class="g6 offset" style="--gs:6" d="M143,701 L529,639"/><text class="g7" style="--gs:7" x="331" y="179">⑦</text><path class="g7 aligned" style="--gs:7" d="M331,179 Q375,215 374.88,276 Q374.13,642 374,703"/><path class="g7 offset" style="--gs:7" d="M235,179 Q279,215 278.88,276 Q278.13,642 278,703"/><text class="g8" style="--gs:8" x="163" y="749">⑧</text><path class="g8 aligned" style="--gs:8" d="M163,749 Q239,770 277.5,755.13 Q508.5,665.88 547,651"/><path class="g8 offset" style="--gs:8" d="M163,845 Q239,866 277.5,851.13 Q508.5,761.88 547,747"/><text class="g9" style="--gs:9" x="687" y="281">⑨</text><path class="g9 aligned" style="--gs:9" d="M687,281 Q816,234 827.25,243 Q861,270 836.25,305.75 Q786.75,377.25 762,413"/><path class="g9 offset" style="--gs:9" d="M687,377 Q751.5,330 757.13,339 Q774,366 761.63,401.75 Q736.88,473.25 724.5,509"/><text class="g10" style="--gs:10" x="757" y="413">⑩</text><path class="g10 aligned" style="--gs:10" d="M773,416 Q854,486 877.5,540.5 Q901,595 878.5,639 Q856,683 801.5,655 Q801.5,655 747,627"/><path class="g10 offset" style="--gs:10" d="M677,416 Q717.5,460.83 729.25,495.74 Q741,530.64 729.75,558.82 Q718.5,587 691.25,569.07 Q691.25,569.07 664,551.13"/><text class="g11" style="--gs:11" x="614" y="251">⑪</text><path class="g11 aligned" style="--gs:11" d="M614,251 Q666,317 664.25,399.5 Q653.75,894.5 652,977"/><path class="g11 offset" style="--gs:11" d="M518,251 Q570,317 568.25,399.5 Q557.75,894.5 556,977"/></g>
<g class="parts"><rect data-part="1" data-literal="垂" role="button" tabindex="0" aria-label="Part 垂" x="0" y="0" width="688" height="842"/><rect data-part="2" data-literal="阝" data-radical="true" role="button" tabindex="0" aria-label="Part 阝 (radical)" x="542" y="162" width="431" height="862"/></g>
</svg>
