<svg id="z37198" class="acjk" viewBox="0 0 1024 1024" xmlns="http://www.w3.org/2000/svg">
<style>

@keyframes zk {
	to {
		stroke-dashoffset:0;
	}
}
svg.acjk path[clip-path] {
	--t:0.8s;
	animation:zk var(--t) linear forwards var(--d);
	stroke-dasharray:3337;
	stroke-dashoffset:3339;
	stroke-width:128;
	stroke-linecap:round;
	fill:none;
	stroke:#000;
}
svg.acjk path[id] {fill:#ccc;}


    @keyframes guide-fade {
        0% { opacity: 0; }
        3% { opacity: 1; }
        95% { opacity: 1; }
        100% { opacity: 0; }
    }

    svg.acjk #guide-arrow {
        fill: #f77;
    }

    svg.acjk .guides {
        circle {
            fill: #0f6;
        }

        path {
            opacity: 0;
            animation: guide-fade var(--t) linear forwards var(--d);
            stroke-width: 16px;
            stroke-linecap: round;
            stroke: #f77;
            fill: none;
            marker-end: url(#guide-arrow);
        }

        circle,
        path {
            --t: 0.8s;
            opacity: 0;
            animation: guide-fade calc(var(--t) + 0.4s) ease-in-out forwards calc(var(--d) - 0.2s);
        }
    }
</style>
<path id="z37198d1" d="M347 212C425 197 465 186 470 183C475 178 477 172 475 168C470 158 457 153 440 148C424 143 382 155 308 173C240 189 188 193 154 197C130 199 125 206 143 218C160 230 187 241 221 235C238 232 238 232 247 230C267 226 288 223 310 219C335 214 335 214 347 212Z"/>
<path id="z37198d2" d="M165 369C158 360 145 353 130 347C122 344 117 343 110 347C105 349 105 353 108 363C120 399 126 460 126 542C122 614 116 661 110 684C100 719 108 750 130 779C136 786 143 788 150 780C158 770 161 756 163 738C163 726 164 715 165 704C165 662 164 496 175 395C177 386 171 376 165 369Z"/>
<path id="z37198d3" d="M407 714C411 732 419 754 430 770C449 798 456 799 469 770C486 729 484 693 483 655C476 489 477 396 485 376C490 361 488 353 482 347C475 341 461 332 439 320C427 314 402 322 356 334C337 339 337 339 328 341C298 348 280 351 274 353C251 358 251 358 239 360C215 364 182 368 165 369C156 369 166 397 175 395C183 395 204 389 237 383C260 378 260 378 271 376C288 372 312 367 327 365C345 362 345 362 354 361C369 358 407 349 415 365C419 372 426 414 426 486C426 503 426 503 426 511C426 582 424 633 422 660C421 675 417 683 411 690C406 696 405 706 407 714Z"/>
<path id="z37198d4" d="M221 235C236 257 244 297 239 360C238 375 238 375 237 383C233 422 221 472 194 531C192 534 191 536 191 539C190 543 191 544 196 544C201 542 209 533 221 516C251 471 263 433 271 376C273 361 273 361 274 353C276 333 274 308 276 279C277 258 281 253 277 245C272 235 259 234 247 230C239 227 216 228 221 235Z"/>
<path id="z37198d5" d="M356 334C358 303 361 271 371 237C372 230 372 223 368 220C363 215 356 214 347 212C335 210 305 207 310 219C322 243 330 279 328 341C327 357 327 357 327 365C323 443 328 489 357 507C370 515 410 516 426 511C434 510 434 486 426 486C410 485 391 485 377 478C356 468 349 426 354 361C355 343 355 343 356 334Z"/>
<path id="z37198d6" d="M207 611C196 614 197 619 211 629C215 631 223 633 233 632C279 624 320 618 355 613C371 610 374 604 369 596C361 586 350 579 333 578C315 575 273 587 207 611Z"/>
<path id="z37198d7" d="M163 738C177 740 193 731 407 714C415 714 417 696 411 690C390 670 357 667 335 673C272 687 215 697 165 704C154 706 152 738 163 738Z"/>
<path id="z37198d8" d="M764 404C786 401 877 399 909 398C921 397 929 394 932 389C935 381 931 371 921 365C898 349 875 342 853 341C838 340 803 348 764 357C729 364 729 364 712 368C672 376 572 392 507 403C494 405 492 411 502 421C510 429 520 435 533 438C544 440 556 440 567 437C600 426 665 413 712 409C747 406 747 406 764 404Z"/>
<path id="z37198d9" d="M712 409C712 499 713 618 715 771C715 803 691 808 668 803C647 798 627 796 610 792C586 786 577 784 579 792C580 795 586 803 602 813C651 846 683 873 697 894C711 917 725 929 737 929C747 929 757 917 766 893C776 862 782 820 779 770C770 646 764 525 764 404C764 373 764 373 764 357C764 279 766 219 781 181C789 159 777 143 740 127C716 115 698 110 685 115C672 119 671 129 684 146C698 163 706 184 708 209C708 218 712 272 712 368C712 395 712 395 712 409Z"/>
<path id="z37198d10" d="M540 554C556 568 573 584 592 604C599 611 608 616 618 616C624 615 630 611 633 603C636 594 634 576 630 563C626 549 616 537 597 530C553 511 525 505 516 509C512 510 510 515 512 524C513 530 524 540 540 554Z"/>
<defs>
	<clipPath id="z37198c1"><use href="#z37198d1"/></clipPath>
	<clipPath id="z37198c2"><use href="#z37198d2"/></clipPath>
	<clipPath id="z37198c3"><use href="#z37198d3"/></clipPath>
	<clipPath id="z37198c4"><use href="#z37198d4"/></clipPath>
	<clipPath id="z37198c5"><use href="#z37198d5"/></clipPath>
	<clipPath id="z37198c6"><use href="#z37198d6"/></clipPath>
	<clipPath id="z37198c7"><use href="#z37198d7"/></clipPath>
	<clipPath id="z37198c8"><use href="#z37198d8"/></clipPath>
	<clipPath id="z37198c9"><use href="#z37198d9"/></clipPath>
	<clipPath id="z37198c10"><use href="#z37198d10"/></clipPath>
<marker id="guide-arrow" viewBox="0 0 16 16" refX="5" refY="5" markerWidth="4" markerHeight="4" orient="auto-start-reverse"><path d="M 0 0 L 10 5 L 0 10 z" fill="inherit"/></marker></defs>
<path style="--d:1s;" pathLength="3333" clip-path="url(#z37198c1)" d="M140 205L195 215L471 172"/>
<path style="--d:2s;" pathLength="3333" clip-path="url(#z37198c2)" d="M113 350L147 405L142 778"/>
<path style="--d:3s;" pathLength="3333" clip-path="url(#z37198c3)" d="M168 373L413 338L450 362L446 784"/>
<path style="--d:4s;" pathLength="3333" clip-path="url(#z37198c4)" d="M230 237L257 264L254 380L199 535"/>
<path style="--d:5s;" pathLength="3333" clip-path="url(#z37198c5)" d="M319 217L346 238L345 460L371 494L427 496"/>
<path style="--d:6s;" pathLength="3333" clip-path="url(#z37198c6)" d="M207 619L365 602"/>
<path style="--d:7s;" pathLength="3333" clip-path="url(#z37198c7)" d="M158 725L408 695"/>
<path style="--d:8s;" pathLength="3333" clip-path="url(#z37198c8)" d="M504 410L848 370L928 381"/>
<path style="--d:9s;" pathLength="3333" clip-path="url(#z37198c9)" d="M681 125L744 181L747 786L715 877L589 797"/>
<path style="--d:10s;" pathLength="3333" clip-path="url(#z37198c10)" d="M519 516L628 607"/>
<g class="guides"><circle style="--d: 1s" class="g1" cx="140" cy="205" r="16"/><path style="--d: 1s;" class="g1" d="M140,301 Q195,311 229.5,305.625 Q436.5,273.375 471,268"/><circle style="--d: 2s" class="g2" cx="113" cy="350" r="16"/><path style="--d: 2s;" class="g2" d="M17,350 Q51,405 50.375,451.625 Q46.625,731.375 46,778"/><circle style="--d: 3s" class="g3" cx="168" cy="373" r="16"/><path style="--d: 3s;" class="g3" d="M168,469 Q308.74468085106383,434 314.0585106382979,440 Q330,458 329.4255319148936,539.5 Q328.27659574468083,702.5 327.70212765957444,784"/><circle style="--d: 4s" class="g4" cx="244" cy="251" r="16"/><path style="--d: 4s;" class="g4" d="M364,251 Q374,380 367.125,399.375 Q325.875,515.625 319,535"/><circle style="--d: 5s" class="g5" cx="333" cy="228" r="16"/><path style="--d: 5s;" class="g5" d="M453,228 Q459,376.8955223880597 462.25,382.35074626865674 Q472,398.7164179104478 479,399.03731343283584 Q493,399.67910447761193 500,400"/><circle style="--d: 6s" class="g6" cx="207" cy="619" r="16"/><path style="--d: 6s;" class="g6" d="M207,715 L365,698"/><circle style="--d: 7s" class="g7" cx="158" cy="725" r="16"/><path style="--d: 7s;" class="g7" d="M158,821 L408,791"/><circle style="--d: 8s" class="g8" cx="504" cy="410" r="16"/><path style="--d: 8s;" class="g8" d="M504,506 Q848,466 858,467.375 Q918,475.625 928,477"/><circle style="--d: 9s" class="g9" cx="681" cy="125" r="16"/><path style="--d: 9s;" class="g9" d="M585,125 Q616.5,173.85106382978722 617.25,437.7340425531915 Q618,701.6170212765958 610,741.3085106382979 Q602,781 570.5,746.1063829787233 Q570.5,746.1063829787233 539,711.2127659574468"/><circle style="--d: 10s" class="g10" cx="519" cy="516" r="16"/><path style="--d: 10s;" class="g10" d="M604.68,447.456 L713.68,538.456"/></g></svg>