<svg id="z37264" class="acjk" viewBox="0 0 1024 1024" xmlns="http://www.w3.org/2000/svg">
<style>

@keyframes zk {
	to {
		stroke-dashoffset:0;
	}
}
svg.acjk path[clip-path] {
	--t:0.8s;
	animation:zk var(--t) linear forwards var(--d);
	stroke-dasharray:3337;
	stroke-dashoffset:3339;
	stroke-width:128;
	stroke-linecap:round;
	fill:none;
	stroke:#000;
}
svg.acjk path[id] {fill:#ccc;}


    @keyframes guide-fade {
        0% { opacity: 0; }
        3% { opacity: 1; }
        95% { opacity: 1; }
        100% { opacity: 0; }
    }

    svg.acjk #guide-arrow {
        fill: #f77;
    }

    svg.acjk .guides {
        circle {
            fill: #0f6;
        }

        path {
            opacity: 0;
            animation: guide-fade var(--t) linear forwards var(--d);
            stroke-width: 16px;
            stroke-linecap: round;
            stroke: #f77;
            fill: none;
            marker-end: url(#guide-arrow);
        }

        circle,
        path {
            --t: 0.8s;
            opacity: 0;
            animation: guide-fade calc(var(--t) + 0.4s) ease-in-out forwards calc(var(--d) - 0.2s);
        }
    }
</style>
<path id="z37264d1" d="M291 225C314 220 338 214 365 209C391 203 407 197 411 194C415 189 417 183 415 179C411 171 399 164 382 161C366 157 325 170 258 188C194 204 145 209 112 214C89 216 86 225 103 235C122 246 147 254 174 249C194 245 194 245 204 243C222 239 241 235 262 231C281 227 281 227 291 225Z"/>
<path id="z37264d2" d="M123 398C115 390 104 384 91 379C84 376 77 374 71 378C63 382 72 404 75 410C89 440 94 578 77 664C65 723 64 763 87 791C93 798 99 799 106 792C111 785 114 778 117 768C119 757 119 746 120 736C121 661 130 433 134 426C136 416 131 404 123 398Z"/>
<path id="z37264d3" d="M340 738C347 758 354 774 364 794C377 822 391 820 404 794C417 767 417 734 417 700C411 520 412 419 419 401C423 386 422 378 416 372C410 366 397 355 374 345C364 340 342 343 311 354C289 361 289 361 278 365C263 369 249 372 235 376C210 382 210 382 197 385C174 390 149 393 123 398C113 400 125 430 134 426C141 423 176 411 195 407C220 401 220 401 233 398C247 394 261 391 277 389C298 386 298 386 308 384C320 382 343 381 351 389C357 395 363 441 361 526C360 548 360 548 360 559C357 652 355 704 346 714C342 721 337 730 340 738Z"/>
<path id="z37264d4" d="M174 249C174 251 176 257 184 266C191 274 201 308 197 385C196 392 196 399 195 407C188 449 176 488 150 574C148 578 153 582 157 579C209 533 221 467 233 398C234 390 234 383 235 376C238 323 234 285 237 278C238 271 240 264 236 259C229 251 217 247 204 243C194 240 172 239 174 249Z"/>
<path id="z37264d5" d="M311 354C314 323 319 291 330 258C332 249 331 242 326 238C319 233 307 229 291 225C281 223 260 221 262 231C261 233 263 238 268 244C276 254 280 295 278 365C277 381 277 381 277 389C276 406 275 425 274 445C269 501 280 537 304 557C308 560 320 563 341 562C347 561 354 560 360 559C371 557 372 526 361 526C347 525 336 526 327 521C306 508 300 461 308 384C310 364 310 364 311 354Z"/>
<path id="z37264d6" d="M154 647C143 650 144 655 158 665C162 667 170 669 182 667C232 657 275 649 312 643C326 640 331 634 325 627C318 618 307 611 291 610C276 608 255 612 230 621C203 630 178 640 154 647Z"/>
<path id="z37264d7" d="M117 768C131 769 145 759 340 738C348 736 352 719 346 714C307 682 289 708 120 736C109 738 106 768 117 768Z"/>
<path id="z37264d8" d="M557 348Q588 338 623 330Q648 323 652 319Q659 312 655 305Q648 296 625 292Q606 289 562 306C529 317 529 317 512 323Q478 330 441 337Q413 344 434 356Q462 371 511 361C542 352 542 352 557 348Z"/>
<path id="z37264d9" d="M545 466Q551 405 557 348C560 320 560 320 562 306Q568 210 587 164Q590 154 572 139Q539 120 517 115Q501 111 494 120Q487 127 494 141Q513 169 512 190Q513 254 512 323C511 348 511 348 511 361Q510 418 505 481C505 495 545 480 545 466Z"/>
<path id="z37264d10" d="M472 489Q462 485 441 480Q431 477 428 481Q424 485 429 498Q451 547 461 626Q462 650 476 666Q489 684 493 672Q499 657 497 630C494 611 494 611 493 601Q483 534 483 513C483 504 480 492 472 489Z"/>
<path id="z37264d11" d="M613 582Q626 524 644 505Q662 483 642 472Q626 463 603 449Q590 442 545 466C518 476 518 476 505 481Q489 485 472 489C463 491 475 516 483 513Q492 510 556 493Q575 489 579 496Q585 500 580 527Q576 552 570 580C568 594 610 596 613 582Z"/>
<path id="z37264d12" d="M497 630Q501 630 509 629Q546 619 627 611Q636 610 637 602Q637 595 613 582C601 575 584 577 570 580C569 580 569 580 569 580Q527 593 493 601C483 603 487 630 497 630Z"/>
<path id="z37264d13" d="M719 530Q725 479 730 422C731 399 731 399 732 387Q735 329 735 260Q736 248 737 241C739 229 736 213 726 207Q726 206 725 206Q682 185 668 188Q650 192 665 211Q701 269 684 477Q680 562 636 665Q609 737 506 840Q493 852 491 857Q490 864 500 863Q542 859 616 775Q688 691 714 562C717 541 717 541 719 530Z"/>
<path id="z37264d14" d="M737 241Q750 238 802 216Q820 207 827 217Q842 257 843 540Q840 772 826 792Q822 798 800 793Q772 787 744 781Q723 775 724 785Q784 836 818 873Q831 892 848 898Q858 902 867 891Q909 837 907 782Q897 605 895 317Q892 256 906 230Q918 209 905 199Q883 180 844 166Q825 159 809 167Q784 185 767 192Q752 199 726 207C715 211 725 243 737 241Z"/>
<path id="z37264d15" d="M730 422Q775 412 809 408Q831 402 822 391Q810 378 786 376Q765 375 732 387C721 391 719 424 730 422Z"/>
<path id="z37264d16" d="M714 562Q715 562 718 562Q767 553 805 548Q827 542 818 531Q806 518 782 516Q761 516 719 530C709 533 703 562 714 562Z"/>
<defs>
	<clipPath id="z37264c1"><use href="#z37264d1"/></clipPath>
	<clipPath id="z37264c2"><use href="#z37264d2"/></clipPath>
	<clipPath id="z37264c3"><use href="#z37264d3"/></clipPath>
	<clipPath id="z37264c4"><use href="#z37264d4"/></clipPath>
	<clipPath id="z37264c5"><use href="#z37264d5"/></clipPath>
	<clipPath id="z37264c6"><use href="#z37264d6"/></clipPath>
	<clipPath id="z37264c7"><use href="#z37264d7"/></clipPath>
	<clipPath id="z37264c8"><use href="#z37264d8"/></clipPath>
	<clipPath id="z37264c9"><use href="#z37264d9"/></clipPath>
	<clipPath id="z37264c10"><use href="#z37264d10"/></clipPath>
	<clipPath id="z37264c11"><use href="#z37264d11"/></clipPath>
	<clipPath id="z37264c12"><use href="#z37264d12"/></clipPath>
	<clipPath id="z37264c13"><use href="#z37264d13"/></clipPath>
	<clipPath id="z37264c14"><use href="#z37264d14"/></clipPath>
	<clipPath id="z37264c15"><use href="#z37264d15"/></clipPath>
	<clipPath id="z37264c16"><use href="#z37264d16"/></clipPath>
<marker id="guide-arrow" viewBox="0 0 16 16" refX="5" refY="5" markerWidth="4" markerHeight="4" orient="auto-start-reverse"><path d="M 0 0 L 10 5 L 0 10 z" fill="inherit"/></marker></defs>
<path style="--d:1s;" pathLength="3333" clip-path="url(#z37264c1)" d="M99 221L167 228L409 184"/>
<path style="--d:2s;" pathLength="3333" clip-path="url(#z37264c2)" d="M75 383L107 423L93 790"/>
<path style="--d:3s;" pathLength="3333" clip-path="url(#z37264c3)" d="M124 406L319 366L382 381L377 809"/>
<path style="--d:4s;" pathLength="3333" clip-path="url(#z37264c4)" d="M183 249L215 278L214 402L155 573"/>
<path style="--d:5s;" pathLength="3333" clip-path="url(#z37264c5)" d="M270 230L303 259L292 498L313 538L364 536"/>
<path style="--d:6s;" pathLength="3333" clip-path="url(#z37264c6)" d="M153 654L320 626"/>
<path style="--d:7s;" pathLength="3333" clip-path="url(#z37264c7)" d="M118 759L343 722"/>
<path style="--d:8s;" pathLength="3333" clip-path="url(#z37264c8)" d="M436 348L649 309"/>
<path style="--d:9s;" pathLength="3333" clip-path="url(#z37264c9)" d="M497 124L549 175L519 482"/>
<path style="--d:10s;" pathLength="3333" clip-path="url(#z37264c10)" d="M434 488L461 515L484 669"/>
<path style="--d:11s;" pathLength="3333" clip-path="url(#z37264c11)" d="M477 499L600 477L617 498L592 589"/>
<path style="--d:12s;" pathLength="3333" clip-path="url(#z37264c12)" d="M492 616L629 601"/>
<path style="--d:13s;" pathLength="3333" clip-path="url(#z37264c13)" d="M663 193L709 249L690 572L624 731L499 857"/>
<path style="--d:14s;" pathLength="3333" clip-path="url(#z37264c14)" d="M732 233L817 188L871 219L868 791L837 848L732 784"/>
<path style="--d:15s;" pathLength="3333" clip-path="url(#z37264c15)" d="M727 413L818 396"/>
<path style="--d:16s;" pathLength="3333" clip-path="url(#z37264c16)" d="M715 552L814 535"/>
<g class="guides"><circle style="--d: 1s" class="g1" cx="99" cy="221" r="16"/><path style="--d: 1s;" class="g1" d="M99,317 Q167,324 197.25,318.5 Q378.75,285.5 409,280"/><circle style="--d: 2s" class="g2" cx="75" cy="383" r="16"/><path style="--d: 2s;" class="g2" d="M-21,383 Q11,423 9.25,468.875 Q-1.25,744.125 -3,790"/><circle style="--d: 3s" class="g3" cx="124" cy="406" r="16"/><path style="--d: 3s;" class="g3" d="M124,502 Q228.30232558139534,462 236.72674418604652,465.75 Q262,477 261.3313953488372,560 Q259.99418604651163,726 259.3255813953488,809"/><circle style="--d: 4s" class="g4" cx="183" cy="249" r="16"/><path style="--d: 4s;" class="g4" d="M87,249 Q119,278 118.75,309 Q118,402 103.25,444.75 Q73.75,530.25 59,573"/><circle style="--d: 5s" class="g5" cx="270" cy="230" r="16"/><path style="--d: 5s;" class="g5" d="M355.68,161.45600000000002 Q372.18,187.87085714285718 369.43,296.71828571428574 Q366.68,405.5657142857143 371.93,423.78285714285715 Q377.18,442 389.93,441.08914285714286 Q389.93,441.08914285714286 402.68,440.1782857142857"/><circle style="--d: 6s" class="g6" cx="153" cy="654" r="16"/><path style="--d: 6s;" class="g6" d="M153,750 L320,722"/><circle style="--d: 7s" class="g7" cx="118" cy="759" r="16"/><path style="--d: 7s;" class="g7" d="M118,855 L343,818"/><circle style="--d: 8s" class="g8" cx="436" cy="348" r="16"/><path style="--d: 8s;" class="g8" d="M436,444 L649,405"/><circle style="--d: 9s" class="g9" cx="497" cy="124" r="16"/><path style="--d: 9s;" class="g9" d="M401,124 Q453,175 449.25,213.375 Q426.75,443.625 423,482"/><circle style="--d: 10s" class="g10" cx="448" cy="502" r="16"/><path style="--d: 10s;" class="g10" d="M568,502 L604,669"/><circle style="--d: 11s" class="g11" cx="477" cy="499" r="16"/><path style="--d: 11s;" class="g11" d="M477,595 Q538.5,573 540.625,578.25 Q547,594 543.875,602.75 Q537.625,620.25 534.5,629"/><circle style="--d: 12s" class="g12" cx="492" cy="616" r="16"/><path style="--d: 12s;" class="g12" d="M492,712 L629,697"/><circle style="--d: 13s" class="g13" cx="663" cy="193" r="16"/><path style="--d: 13s;" class="g13" d="M567,193 Q591.9714285714285,240.90361445783134 586.8142857142857,379.0542168674699 Q581.6571428571428,517.2048192771084 563.7428571428571,585.210843373494 Q545.8285714285714,653.2168674698795 511.9,707.1084337349398 Q511.9,707.1084337349398 477.97142857142853,761"/><circle style="--d: 14s" class="g14" cx="732" cy="233" r="16"/><path style="--d: 14s;" class="g14" d="M732,329 Q774.5,284 788,299.5 Q801.5,315 800.75,505.9818181818182 Q800,696.9636363636364 792.25,716.4818181818182 Q784.5,736 758.25,714.0848484848484 Q758.25,714.0848484848484 732,692.1696969696969"/><circle style="--d: 15s" class="g15" cx="727" cy="413" r="16"/><path style="--d: 15s;" class="g15" d="M727,509 L818,492"/><circle style="--d: 16s" class="g16" cx="715" cy="552" r="16"/><path style="--d: 16s;" class="g16" d="M715,648 L814,631"/></g></svg>