<svg id="z37320" class="acjk" viewBox="0 0 1024 1024" xmlns="http://www.w3.org/2000/svg">
<style>

@keyframes zk {
	to {
		stroke-dashoffset:0;
	}
}
svg.acjk path[clip-path] {
	--t:0.8s;
	animation:zk var(--t) linear forwards var(--d);
	stroke-dasharray:3337;
	stroke-dashoffset:3339;
	stroke-width:128;
	stroke-linecap:round;
	fill:none;
	stroke:#000;
}
svg.acjk path[id] {fill:#ccc;}


    @keyframes guide-fade {
        0% { opacity: 0; }
        3% { opacity: 1; }
        95% { opacity: 1; }
        100% { opacity: 0; }
    }

    svg.acjk #guide-arrow {
        fill: #f77;
    }

    svg.acjk .guides {
        circle {
            fill: #0f6;
        }

        path {
            opacity: 0;
            animation: guide-fade var(--t) linear forwards var(--d);
            stroke-width: 16px;
            stroke-linecap: round;
            stroke: #f77;
            fill: none;
            marker-end: url(#guide-arrow);
        }

        circle,
        path {
            --t: 0.8s;
            opacity: 0;
            animation: guide-fade calc(var(--t) + 0.4s) ease-in-out forwards calc(var(--d) - 0.2s);
        }
    }
</style>
<path id="z37320d1" d="M320 202C364 183 399 164 432 158C442 156 449 154 452 148C454 141 451 133 443 127C428 116 405 108 376 98C365 94 355 90 347 93C341 94 339 100 340 108C340 132 283 171 176 236C169 239 173 247 178 248C183 248 224 241 293 213C311 206 311 206 320 202Z"/>
<path id="z37320d2" d="M170 354C181 366 190 381 202 396C208 404 216 408 226 409C232 409 237 406 241 399C244 390 245 378 242 360C240 350 232 339 218 332C182 314 159 306 152 309C148 310 147 315 147 323C147 329 156 339 170 354Z"/>
<path id="z37320d3" d="M421 291C413 302 397 327 372 366C366 374 369 380 378 377C392 370 418 353 457 327C468 319 479 310 492 304C503 297 507 289 500 280C492 270 481 262 467 255C453 247 442 246 436 247C429 248 426 252 429 260C431 270 428 279 421 291Z"/>
<path id="z37320d4" d="M345 472C370 466 426 456 455 452C466 450 471 445 472 441C472 432 468 425 455 421C429 412 377 428 349 435C317 442 317 442 301 446C190 471 130 480 69 489C60 490 55 492 54 498C51 504 54 512 66 519C94 535 122 537 150 528C234 498 261 491 275 488C322 477 322 477 345 472Z"/>
<path id="z37320d5" d="M343 555C343 524 345 503 345 472C345 448 345 448 345 436C345 406 347 360 347 331C347 276 347 244 350 236C352 229 350 223 344 218C338 213 330 208 320 202C312 197 291 203 293 213C297 221 303 307 301 445C300 510 300 510 299 543C295 697 289 791 284 847C281 871 288 895 304 918C310 926 318 926 325 915C338 891 344 856 344 811C344 791 338 718 342 594C343 568 343 568 343 555Z"/>
<path id="z37320d6" d="M275 488C239 562 167 659 60 781C55 787 56 790 64 792C76 794 120 758 195 686C231 649 265 601 299 543C328 495 300 438 275 488Z"/>
<path id="z37320d7" d="M342 594Q370 613 400 639Q412 649 425 648Q434 647 437 636Q440 623 432 599Q419 568 343 555C330 552 332 586 342 594Z"/>
<path id="z37320d8" d="M769 384C781 344 791 304 798 263C799 252 800 237 791 230C780 221 764 230 754 233C701 247 595 281 592 278C578 280 579 239 593 236C664 221 721 204 786 172C799 164 815 167 828 177C846 190 868 201 884 219C893 229 891 248 883 260C878 267 870 271 866 279C843 311 823 372 816 392C810 407 766 400 769 384Z"/>
<path id="z37320d9" d="M657 455C683 450 774 432 825 429C831 428 835 424 836 417C836 412 829 404 816 392C804 382 784 378 769 384C734 395 634 422 580 432C565 435 562 484 576 478C603 468 614 463 631 460C648 457 648 457 657 455Z"/>
<path id="z37320d10" d="M370 902C362 902 358 892 363 886C384 856 407 829 427 800C454 760 477 718 492 672C512 605 527 537 531 468C534 402 539 335 531 269C529 254 523 239 518 224C514 216 518 205 527 203C540 200 553 204 564 210C575 216 582 223 593 236C602 247 594 264 592 278C588 293 582 404 580 432C577 463 577 463 576 478C574 497 572 517 570 537C562 595 552 653 532 709C512 762 481 810 442 852C425 868 408 884 389 897C384 900 377 902 370 902Z"/>
<path id="z37320d11" d="M913 869C892 868 870 869 851 867C833 865 822 849 815 835C764 737 654 514 631 460C628 452 649 452 657 455C662 457 666 459 670 463C678 473 682 485 689 497C720 553 751 611 788 665C838 738 909 796 983 844C989 847 990 857 984 861C975 867 963 866 953 867C940 868 926 869 913 869Z"/>
<defs>
	<clipPath id="z37320c1"><use href="#z37320d1"/></clipPath>
	<clipPath id="z37320c2"><use href="#z37320d2"/></clipPath>
	<clipPath id="z37320c3"><use href="#z37320d3"/></clipPath>
	<clipPath id="z37320c4"><use href="#z37320d4"/></clipPath>
	<clipPath id="z37320c5"><use href="#z37320d5"/></clipPath>
	<clipPath id="z37320c6"><use href="#z37320d6"/></clipPath>
	<clipPath id="z37320c7"><use href="#z37320d7"/></clipPath>
	<clipPath id="z37320c8"><use href="#z37320d8"/></clipPath>
	<clipPath id="z37320c9"><use href="#z37320d9"/></clipPath>
	<clipPath id="z37320c10"><use href="#z37320d10"/></clipPath>
	<clipPath id="z37320c11"><use href="#z37320d11"/></clipPath>
<marker id="guide-arrow" viewBox="0 0 16 16" refX="5" refY="5" markerWidth="4" markerHeight="4" orient="auto-start-reverse"><path d="M 0 0 L 10 5 L 0 10 z" fill="inherit"/></marker></defs>
<path style="--d:1s;" pathLength="3333" clip-path="url(#z37320c1)" d="M353 101L408 140L184 239"/>
<path style="--d:2s;" pathLength="3333" clip-path="url(#z37320c2)" d="M154 316L233 405"/>
<path style="--d:3s;" pathLength="3333" clip-path="url(#z37320c3)" d="M436 253L462 292L377 370"/>
<path style="--d:4s;" pathLength="3333" clip-path="url(#z37320c4)" d="M60 502L122 507L467 437"/>
<path style="--d:5s;" pathLength="3333" clip-path="url(#z37320c5)" d="M300 220L324 254L311 919"/>
<path style="--d:6s;" pathLength="3333" clip-path="url(#z37320c6)" d="M296 491L210 634L65 785"/>
<path style="--d:7s;" pathLength="3333" clip-path="url(#z37320c7)" d="M348 560L433 638"/>
<path style="--d:8s;" pathLength="3333" clip-path="url(#z37320c8)" d="M601 245L792 199L820 211L843 252L780 387"/>
<path style="--d:9s;" pathLength="3333" clip-path="url(#z37320c9)" d="M583 466L607 446L830 413"/>
<path style="--d:10s;" pathLength="3333" clip-path="url(#z37320c10)" d="M527 208L562 276L535 609L468 782L367 896"/>
<path style="--d:11s;" pathLength="3333" clip-path="url(#z37320c11)" d="M640 467L851 805L984 852"/>
<g class="guides"><circle style="--d: 1s" class="g1" cx="353" cy="101" r="16"/><path style="--d: 1s;" class="g1" d="M257,101 Q288.42857142857144,120.5 272.42857142857144,126.6875 Q176.42857142857144,163.8125 160.42857142857144,170"/><circle style="--d: 2s" class="g2" cx="154" cy="316" r="16"/><path style="--d: 2s;" class="g2" d="M239.68,247.45600000000002 L318.68,336.456"/><circle style="--d: 3s" class="g3" cx="436" cy="253" r="16"/><path style="--d: 3s;" class="g3" d="M340,253 Q353,272.5 347.6875,277.375 Q315.8125,306.625 310.5,311.5"/><circle style="--d: 4s" class="g4" cx="60" cy="502" r="16"/><path style="--d: 4s;" class="g4" d="M60,598 Q122,603 165.125,594.25 Q423.875,541.75 467,533"/><circle style="--d: 5s" class="g5" cx="312" cy="237" r="16"/><path style="--d: 5s;" class="g5" d="M432,237 L431,919"/><circle style="--d: 6s" class="g6" cx="296" cy="491" r="16"/><path style="--d: 6s;" class="g6" d="M381.68,559.544 Q295.68,702.544 277.555,721.419 Q168.805,834.669 150.68,853.544"/><circle style="--d: 7s" class="g7" cx="348" cy="560" r="16"/><path style="--d: 7s;" class="g7" d="M433.68,491.456 L518.68,569.456"/><circle style="--d: 8s" class="g8" cx="601" cy="245" r="16"/><path style="--d: 8s;" class="g8" d="M601,341 Q697.2892561983471,295 704.3471074380166,301 Q711.404958677686,307 717.202479338843,314.25 Q723,321.5 707.1198347107438,355.25 Q707.1198347107438,355.25 691.2396694214876,389"/><circle style="--d: 9s" class="g9" cx="595" cy="456" r="16"/><path style="--d: 9s;" class="g9" d="M595,552 L830,509"/><circle style="--d: 10s" class="g10" cx="527" cy="208" r="16"/><path style="--d: 10s;" class="g10" d="M431,208 Q448.5,266.51162790697674 441.75,409.77906976744185 Q435,553.046511627907 418.25,627.4767441860465 Q401.5,701.9069767441861 376.25,750.953488372093 Q376.25,750.953488372093 351,800"/><circle style="--d: 11s" class="g11" cx="640" cy="467" r="16"/><path style="--d: 11s;" class="g11" d="M725.68,398.456 Q884.1262790697674,712.3517714285714 896.6104941860465,717.8077999999999 Q971.5157848837209,750.5439714285715 984,756"/></g></svg>