<!--
  Stroke-order data for 里, derived from AnimCJK (https://github.com/parsimonhi/animCJK),
  itself derived from the Arphic PL KaitiM fonts. Distributed under the Arphic Public License
  (see ARPHICPL.TXT). Regenerated by scripts/build-strokes.ts — do not edit by hand.
-->
<svg id="z37324" class="acjk" viewBox="0 0 1024 1024" xmlns="http://www.w3.org/2000/svg">
<g class="glyph"><path id="z37324d1" d="M285 185C272 179 255 173 245 173C239 173 236 172 233 177C228 182 230 186 236 194C270 237 293 317 307 433C311 473 327 503 355 523C355 523 356 524 359 525C370 527 379 518 377 499C374 475 374 475 372 463C370 450 365 435 360 413C339 319 330 262 325 222C321 204 302 192 285 185Z"/><path id="z37324d2" d="M628 470C640 490 652 503 664 512C671 517 681 514 694 498C709 476 731 400 768 274C775 249 789 228 809 211C819 201 820 192 812 181C801 167 780 148 748 128C733 118 719 118 706 122C677 129 643 134 604 139C553 145 495 153 430 164C377 172 329 179 285 185C267 188 308 228 325 222C359 212 402 204 453 197C489 192 489 192 507 189C547 183 593 176 644 171C674 167 694 170 703 182C713 196 718 211 715 225C681 357 657 428 643 439C635 447 621 461 628 470Z"/><path id="z37324d3" d="M396 330C384 333 385 339 400 350C404 353 431 354 479 347C515 342 515 342 533 339C563 334 593 330 621 326C637 323 642 317 637 308C630 297 617 289 599 287C583 284 561 286 535 294C498 304 498 304 479 309C450 316 422 323 396 330Z"/><path id="z37324d4" d="M530 478C558 474 591 472 628 470C639 470 652 446 643 439C626 422 589 423 531 436C496 443 496 443 479 447C467 449 416 459 372 463C360 465 365 499 377 499C381 499 385 498 390 498C412 493 441 488 478 484C513 480 513 480 530 478Z"/><path id="z37324d5" d="M523 781C523 738 525 697 526 658C527 624 527 624 527 607C527 562 529 519 530 478C531 450 531 450 531 436C531 402 531 369 533 339C534 309 534 309 535 294C537 243 540 222 536 213C531 201 517 196 507 189C491 180 446 180 453 197C469 231 479 265 479 309C479 334 479 334 479 347C479 378 480 406 479 447C478 472 478 472 478 484C477 522 476 566 475 618C474 650 474 650 474 666C473 702 472 743 472 787C472 804 523 798 523 781Z"/><path id="z37324d6" d="M526 658C636 641 693 626 697 623C704 617 705 610 703 605C698 596 685 588 665 583C643 577 621 579 599 586C575 592 551 601 527 607C492 614 492 614 475 618C432 626 386 629 336 633C309 635 304 644 324 657C341 668 362 673 386 675C403 675 438 671 474 666C509 661 509 661 526 658Z"/><path id="z37324d7" d="M472 787C363 799 246 809 121 821C103 822 99 830 113 845C124 857 137 865 152 870C169 875 185 875 199 872C401 823 641 806 919 820C919 820 920 819 923 820C939 821 950 817 955 810C960 800 955 789 942 778C896 739 848 731 798 742C726 757 634 767 523 781C489 785 489 785 472 787Z"/></g>
<defs><clipPath id="z37324c1"><use href="#z37324d1"/></clipPath>
	<clipPath id="z37324c2"><use href="#z37324d2"/></clipPath>
	<clipPath id="z37324c3"><use href="#z37324d3"/></clipPath>
	<clipPath id="z37324c4"><use href="#z37324d4"/></clipPath>
	<clipPath id="z37324c5"><use href="#z37324d5"/></clipPath>
	<clipPath id="z37324c6"><use href="#z37324d6"/></clipPath>
	<clipPath id="z37324c7"><use href="#z37324d7"/></clipPath><marker id="guide-arrow" viewBox="0 0 16 16" refX="5" refY="5" markerWidth="4" markerHeight="4" orient="auto-start-reverse"><path d="M 0 0 L 10 5 L 0 10 z" fill="inherit"/></marker></defs>
<g class="strokes"><path pathLength="3333" clip-path="url(#z37324c1)" d="M235 179L292 227L366 520"/><path pathLength="3333" clip-path="url(#z37324c2)" d="M289 193L701 147L736 163L766 203L657 505"/><path pathLength="3333" clip-path="url(#z37324c3)" d="M394 335L634 309"/><path pathLength="3333" clip-path="url(#z37324c4)" d="M369 481L640 448"/><path pathLength="3333" clip-path="url(#z37324c5)" d="M460 192L500 221L507 275L492 795"/><path pathLength="3333" clip-path="url(#z37324c6)" d="M319 643L415 650L699 607"/><path pathLength="3333" clip-path="url(#z37324c7)" d="M116 832L186 844L820 777L952 793"/></g>
<g class="guides"><text class="g1" style="--gs:1" x="235" y="179">①</text><path class="g1 aligned" style="--gs:1" d="M235,179 Q292,227 301.25,263.63 Q356.75,483.38 366,520"/><path class="g1 offset" style="--gs:1" d="M320.68,110.46 Q377.68,158.46 386.93,195.08 Q442.43,414.83 451.68,451.46"/><text class="g2" style="--gs:2" x="289" y="193">②</text><path class="g2 aligned" style="--gs:2" d="M289,193 Q701,147 718.5,155 Q736,163 751,183 Q766,203 711.5,354 Q711.5,354 657,505"/><path class="g2 offset" style="--gs:2" d="M289,289 Q597.35,243 610.45,251 Q623.55,259 634.77,271.49 Q646,283.98 605.21,394.49 Q605.21,394.49 564.42,505"/><text class="g3" style="--gs:3" x="394" y="335">③</text><path class="g3 aligned" style="--gs:3" d="M394,335 L634,309"/><path class="g3 offset" style="--gs:3" d="M394,431 L634,405"/><text class="g4" style="--gs:4" x="369" y="481">④</text><path class="g4 aligned" style="--gs:4" d="M369,481 L640,448"/><path class="g4 offset" style="--gs:4" d="M369,577 L640,544"/><text class="g5" style="--gs:5" x="460" y="192">⑤</text><path class="g5 aligned" style="--gs:5" d="M460,192 Q500,221 501.75,234.5 Q507,275 503.25,405 Q495.75,665 492,795"/><path class="g5 offset" style="--gs:5" d="M364,192 Q404,221 405.75,234.5 Q411,275 407.25,405 Q399.75,665 396,795"/><text class="g6" style="--gs:6" x="319" y="643">⑥</text><path class="g6 aligned" style="--gs:6" d="M319,643 Q415,650 450.5,644.63 Q663.5,612.38 699,607"/><path class="g6 offset" style="--gs:6" d="M319,739 Q415,746 450.5,740.63 Q663.5,708.38 699,703"/><text class="g7" style="--gs:7" x="116" y="832">⑦</text><path class="g7 aligned" style="--gs:7" d="M116,832 Q186,844 344.5,827.25 Q820,777 853,781 Q919,789 952,793"/><path class="g7 offset" style="--gs:7" d="M116,928 Q186,940 344.5,923.25 Q820,873 853,877 Q919,885 952,889"/></g>
</svg>
