<svg id="z37325" class="acjk" viewBox="0 0 1024 1024" xmlns="http://www.w3.org/2000/svg">
<style>

@keyframes zk {
	to {
		stroke-dashoffset:0;
	}
}
svg.acjk path[clip-path] {
	--t:0.8s;
	animation:zk var(--t) linear forwards var(--d);
	stroke-dasharray:3337;
	stroke-dashoffset:3339;
	stroke-width:128;
	stroke-linecap:round;
	fill:none;
	stroke:#000;
}
svg.acjk path[id] {fill:#ccc;}


    @keyframes guide-fade {
        0% { opacity: 0; }
        3% { opacity: 1; }
        95% { opacity: 1; }
        100% { opacity: 0; }
    }

    svg.acjk #guide-arrow {
        fill: #f77;
    }

    svg.acjk .guides {
        circle {
            fill: #0f6;
        }

        path {
            opacity: 0;
            animation: guide-fade var(--t) linear forwards var(--d);
            stroke-width: 16px;
            stroke-linecap: round;
            stroke: #f77;
            fill: none;
            marker-end: url(#guide-arrow);
        }

        circle,
        path {
            --t: 0.8s;
            opacity: 0;
            animation: guide-fade calc(var(--t) + 0.4s) ease-in-out forwards calc(var(--d) - 0.2s);
        }
    }
</style>
<path id="z37325d1" d="M511 193C571 178 611 166 657 157C666 155 675 151 678 146C681 139 679 131 672 124C659 111 637 99 610 85C598 79 590 75 582 77C577 77 573 83 573 91C569 118 490 161 331 216C315 221 306 230 318 232C329 234 413 216 466 204C496 197 496 197 511 193Z"/>
<path id="z37325d2" d="M541 322C617 314 707 308 815 310C864 310 894 309 899 301C903 293 899 283 888 275C851 245 811 239 768 248C707 260 632 274 542 287C509 292 509 292 492 294C385 308 269 322 145 337C130 338 127 345 139 357C160 378 185 384 211 378C311 350 405 336 493 327C525 324 525 324 541 322Z"/>
<path id="z37325d3" d="M320 422C313 419 303 417 292 415C283 413 279 414 277 417C272 422 273 428 279 439C300 482 316 540 327 611C329 631 335 649 348 664C366 685 372 670 374 653C374 644 374 634 374 626C371 602 355 512 347 455C345 441 333 427 320 422Z"/>
<path id="z37325d4" d="M644 626C651 644 661 656 673 663C679 666 689 663 699 649C708 634 720 587 739 510C744 487 756 468 773 452C781 443 781 433 774 424C762 411 742 396 714 379C702 372 677 377 636 383C610 386 578 390 539 395C508 398 508 398 493 400C478 401 358 418 320 421C319 421 319 421 320 422C306 425 333 455 347 455C356 455 365 452 374 450C405 444 445 439 492 434C523 431 523 431 538 429C564 426 593 422 624 420C648 418 664 420 672 430C679 437 683 447 682 457C669 547 660 595 647 602C641 608 641 619 644 626Z"/>
<path id="z37325d5" d="M491 507C464 513 439 517 415 524C404 526 403 533 418 542C438 554 467 543 490 541C521 537 521 537 537 535C559 532 581 529 602 527C616 525 621 518 617 511C609 501 598 495 583 492C570 489 556 490 538 495C507 503 507 503 491 507Z"/>
<path id="z37325d6" d="M535 637C571 632 612 628 644 626C652 626 653 607 647 602C626 585 587 588 536 598C505 604 505 604 489 607C448 614 410 620 374 626C365 628 365 652 374 653C385 656 459 646 489 643C520 639 520 639 535 637Z"/>
<path id="z37325d7" d="M533 864C531 833 533 802 533 768C534 741 534 741 534 728C534 697 534 667 535 637C536 611 536 611 536 598C536 576 536 555 537 535C538 508 538 508 538 495C538 473 537 450 538 429C539 406 539 406 539 395C539 370 540 346 541 322C542 299 542 299 542 287C544 214 569 220 511 193C497 187 460 190 466 204C482 235 491 261 492 294C493 316 493 316 493 327C493 351 493 400 493 400C492 423 492 423 492 434C491 458 491 482 491 507C490 529 490 529 490 540C489 560 489 586 489 607C489 631 489 631 489 643C489 671 487 702 487 736C486 761 486 761 486 774C485 802 485 834 485 868C485 884 533 880 533 864Z"/>
<path id="z37325d8" d="M533 768C567 763 608 757 658 757C664 756 672 756 676 748C679 742 669 734 657 727C622 705 602 716 534 728C503 733 503 733 487 736C455 741 412 742 361 746C344 747 340 753 354 765C367 776 388 785 414 784C435 782 458 777 486 774C517 770 517 770 533 768Z"/>
<path id="z37325d9" d="M485 868C398 875 305 880 205 887C191 887 187 893 199 906C206 914 215 921 229 926C239 930 253 930 265 928C413 895 602 888 837 902C847 902 857 899 861 894C865 887 861 877 852 869C817 840 789 831 766 835C707 843 629 855 533 864C501 867 501 867 485 868Z"/>
<defs>
	<clipPath id="z37325c1"><use href="#z37325d1"/></clipPath>
	<clipPath id="z37325c2"><use href="#z37325d2"/></clipPath>
	<clipPath id="z37325c3"><use href="#z37325d3"/></clipPath>
	<clipPath id="z37325c4"><use href="#z37325d4"/></clipPath>
	<clipPath id="z37325c5"><use href="#z37325d5"/></clipPath>
	<clipPath id="z37325c6"><use href="#z37325d6"/></clipPath>
	<clipPath id="z37325c7"><use href="#z37325d7"/></clipPath>
	<clipPath id="z37325c8"><use href="#z37325d8"/></clipPath>
	<clipPath id="z37325c9"><use href="#z37325d9"/></clipPath>
<marker id="guide-arrow" viewBox="0 0 16 16" refX="5" refY="5" markerWidth="4" markerHeight="4" orient="auto-start-reverse"><path d="M 0 0 L 10 5 L 0 10 z" fill="inherit"/></marker></defs>
<path style="--d:1s;" pathLength="3333" clip-path="url(#z37325c1)" d="M584 80L619 140L323 226"/>
<path style="--d:2s;" pathLength="3333" clip-path="url(#z37325c2)" d="M144 349L718 283L893 286"/>
<path style="--d:3s;" pathLength="3333" clip-path="url(#z37325c3)" d="M281 421L321 467L361 666"/>
<path style="--d:4s;" pathLength="3333" clip-path="url(#z37325c4)" d="M324 427L699 409L730 444L666 655"/>
<path style="--d:5s;" pathLength="3333" clip-path="url(#z37325c5)" d="M415 530L610 514"/>
<path style="--d:6s;" pathLength="3333" clip-path="url(#z37325c6)" d="M369 640L646 612"/>
<path style="--d:7s;" pathLength="3333" clip-path="url(#z37325c7)" d="M471 197L518 240L510 876"/>
<path style="--d:8s;" pathLength="3333" clip-path="url(#z37325c8)" d="M353 753L669 745"/>
<path style="--d:9s;" pathLength="3333" clip-path="url(#z37325c9)" d="M198 893L259 906L764 866L858 882"/>
<g class="guides"><circle style="--d: 1s" class="g1" cx="584" cy="80" r="16"/><path style="--d: 1s;" class="g1" d="M488,80 Q511.64864864864865,110 486.64864864864865,115.375 Q336.64864864864865,147.625 311.64864864864865,153"/><circle style="--d: 2s" class="g2" cx="144" cy="349" r="16"/><path style="--d: 2s;" class="g2" d="M144,445 Q718,379 739.875,379.375 Q871.125,381.625 893,382"/><circle style="--d: 3s" class="g3" cx="281" cy="421" r="16"/><path style="--d: 3s;" class="g3" d="M366.68,352.456 Q406.68,398.456 411.68,423.331 Q441.68,572.581 446.68,597.456"/><circle style="--d: 4s" class="g4" cx="324" cy="427" r="16"/><path style="--d: 4s;" class="g4" d="M324,523 Q588.1625615763546,505 593.621921182266,510.3353658536585 Q610,526.3414634146341 598.7290640394089,558.5060975609756 Q576.1871921182266,622.8353658536585 564.9162561576354,655"/><circle style="--d: 5s" class="g5" cx="415" cy="530" r="16"/><path style="--d: 5s;" class="g5" d="M415,626 L610,610"/><circle style="--d: 6s" class="g6" cx="369" cy="640" r="16"/><path style="--d: 6s;" class="g6" d="M369,736 L646,708"/><circle style="--d: 7s" class="g7" cx="471" cy="197" r="16"/><path style="--d: 7s;" class="g7" d="M375,197 Q422,240 421,319.5 Q415,796.5 414,876"/><circle style="--d: 8s" class="g8" cx="353" cy="753" r="16"/><path style="--d: 8s;" class="g8" d="M353,849 L669,841"/><circle style="--d: 9s" class="g9" cx="198" cy="893" r="16"/><path style="--d: 9s;" class="g9" d="M198,989 Q259,1002 385.25,992 Q764,962 787.5,966 Q834.5,974 858,978"/></g></svg>