<!--
  Stroke-order data for 金, derived from AnimCJK (https://github.com/parsimonhi/animCJK),
  itself derived from the Arphic PL KaitiM fonts. Distributed under the Arphic Public License
  (see ARPHICPL.TXT). Regenerated by scripts/build-strokes.ts — do not edit by hand.
-->
<svg id="z37329" class="acjk" viewBox="0 0 1024 1024" xmlns="http://www.w3.org/2000/svg">
<g class="glyph"><path id="z37329d1" d="M527 169C542 147 553 150 551 133C550 124 545 115 536 106C511 81 486 70 460 73C453 73 450 77 452 90C458 160 398 271 282 396C190 494 107 542 54 582C47 586 47 593 56 592C123 577 202 531 278 465C370 382 465 252 510 192C521 177 521 177 527 169Z"/><path id="z37329d2" d="M510 192C578 282 655 374 746 471C759 484 780 492 804 491C884 486 937 482 963 476C971 474 975 470 976 467C976 463 969 455 960 453C850 416 777 387 739 358C673 305 603 243 527 169C520 162 504 184 510 192Z"/><path id="z37329d3" d="M507 470C603 451 652 436 654 435C660 430 661 424 659 420C654 410 640 401 624 400C602 398 560 410 498 425C451 435 401 445 334 452C309 454 305 462 323 474C355 496 385 493 455 480C490 473 490 473 507 470Z"/><path id="z37329d4" d="M526 630C620 614 670 599 674 597C680 592 681 584 679 580C673 569 660 564 642 559C624 554 587 565 527 579C489 588 489 588 470 592C436 599 355 610 303 615C278 617 274 626 292 638C319 656 354 659 387 654C411 649 436 644 470 639C507 633 507 633 526 630Z"/><path id="z37329d5" d="M517 842C519 764 524 693 526 630C527 596 527 596 527 579C527 533 533 517 533 502C533 483 515 476 507 470C492 461 446 465 455 480C465 492 470 529 470 592C470 623 470 623 470 639C470 689 469 759 469 848C469 864 517 858 517 842Z"/><path id="z37329d6" d="M283 743C298 758 311 774 329 796C336 804 346 811 359 812C364 812 372 808 377 799C381 789 381 770 377 752C372 728 339 709 283 692C270 687 264 687 260 689C255 690 253 695 255 706C256 712 266 726 283 743Z"/><path id="z37329d7" d="M644 675C629 692 599 722 556 766C546 775 550 783 562 780C576 775 614 756 678 723C691 715 707 707 724 703C738 698 742 687 738 677C730 662 717 652 703 642C686 630 677 626 669 627C660 627 657 628 659 640C660 649 653 663 644 675Z"/><path id="z37329d8" d="M469 848C365 861 283 866 179 876C163 877 158 882 172 897C179 906 191 913 207 919C219 922 235 925 248 922C408 884 594 859 803 885C811 885 830 882 834 876C838 867 833 856 823 848C783 816 752 806 724 811C671 820 602 831 517 842C485 846 485 846 469 848Z"/></g>
<defs><clipPath id="z37329c1"><use href="#z37329d1"/></clipPath>
	<clipPath id="z37329c2"><use href="#z37329d2"/></clipPath>
	<clipPath id="z37329c3"><use href="#z37329d3"/></clipPath>
	<clipPath id="z37329c4"><use href="#z37329d4"/></clipPath>
	<clipPath id="z37329c5"><use href="#z37329d5"/></clipPath>
	<clipPath id="z37329c6"><use href="#z37329d6"/></clipPath>
	<clipPath id="z37329c7"><use href="#z37329d7"/></clipPath>
	<clipPath id="z37329c8"><use href="#z37329d8"/></clipPath><marker id="guide-arrow" viewBox="0 0 16 16" refX="5" refY="5" markerWidth="4" markerHeight="4" orient="auto-start-reverse"><path d="M 0 0 L 10 5 L 0 10 z" fill="inherit"/></marker></defs>
<g class="strokes"><path pathLength="3333" clip-path="url(#z37329c1)" d="M458 78L498 143L379 320L243 466L57 587"/><path pathLength="3333" clip-path="url(#z37329c2)" d="M524 175L786 440L971 463"/><path pathLength="3333" clip-path="url(#z37329c3)" d="M321 463L653 419"/><path pathLength="3333" clip-path="url(#z37329c4)" d="M289 626L372 631L675 581"/><path pathLength="3333" clip-path="url(#z37329c5)" d="M459 473L499 505L485 854"/><path pathLength="3333" clip-path="url(#z37329c6)" d="M261 695L340 755L368 807"/><path pathLength="3333" clip-path="url(#z37329c7)" d="M667 631L687 687L557 772"/><path pathLength="3333" clip-path="url(#z37329c8)" d="M171 882L229 897L717 844L830 863"/></g>
<g class="guides"><text class="g1" style="--gs:1" x="458" y="78">①</text><path class="g1 aligned" style="--gs:1" d="M458,78 Q498,143 438.5,231.5 Q379,320 311,393 Q243,466 150,526.5 Q150,526.5 57,587"/><path class="g1 offset" style="--gs:1" d="M362,78 Q393.29,130.74 346.74,202.55 Q300.2,274.36 247,333.59 Q193.8,392.82 121.05,441.91 Q121.05,441.91 48.29,491"/><text class="g2" style="--gs:2" x="524" y="175">②</text><path class="g2 aligned" style="--gs:2" d="M524,175 Q786,440 809.13,442.88 Q947.88,460.13 971,463"/><path class="g2 offset" style="--gs:2" d="M609.68,106.46 Q821.46,346.19 840.15,348.79 Q952.31,364.4 971,367"/><text class="g3" style="--gs:3" x="321" y="463">③</text><path class="g3 aligned" style="--gs:3" d="M321,463 L653,419"/><path class="g3 offset" style="--gs:3" d="M321,559 L653,515"/><text class="g4" style="--gs:4" x="289" y="626">④</text><path class="g4 aligned" style="--gs:4" d="M289,626 Q372,631 409.88,624.75 Q637.13,587.25 675,581"/><path class="g4 offset" style="--gs:4" d="M289,722 Q372,727 409.88,720.75 Q637.13,683.25 675,677"/><text class="g5" style="--gs:5" x="459" y="473">⑤</text><path class="g5 aligned" style="--gs:5" d="M459,473 Q499,505 497.25,548.63 Q486.75,810.38 485,854"/><path class="g5 offset" style="--gs:5" d="M363,473 Q403,505 401.25,548.63 Q390.75,810.38 389,854"/><text class="g6" style="--gs:6" x="261" y="695">⑥</text><path class="g6 aligned" style="--gs:6" d="M261,695 Q340,755 343.5,761.5 Q364.5,800.5 368,807"/><path class="g6 offset" style="--gs:6" d="M346.68,626.46 Q425.68,686.46 429.18,692.96 Q450.18,731.96 453.68,738.46"/><text class="g7" style="--gs:7" x="667" y="631">⑦</text><path class="g7 aligned" style="--gs:7" d="M667,631 Q687,687 670.75,697.63 Q573.25,761.38 557,772"/><path class="g7 offset" style="--gs:7" d="M571,631 Q581,659 572.88,664.31 Q524.13,696.19 516,701.5"/><text class="g8" style="--gs:8" x="171" y="882">⑧</text><path class="g8 aligned" style="--gs:8" d="M171,882 Q229,897 351,883.75 Q717,844 745.25,848.75 Q801.75,858.25 830,863"/><path class="g8 offset" style="--gs:8" d="M171,978 Q229,993 351,979.75 Q717,940 745.25,944.75 Q801.75,954.25 830,959"/></g>
</svg>
