<!--
  Stroke-order data for 釜, derived from AnimCJK (https://github.com/parsimonhi/animCJK),
  itself derived from the Arphic PL KaitiM fonts. Distributed under the Arphic Public License
  (see ARPHICPL.TXT). Regenerated by scripts/build-strokes.ts — do not edit by hand.
-->
<svg id="z37340" class="acjk" viewBox="0 0 1024 1024" xmlns="http://www.w3.org/2000/svg">
<g class="glyph"><path id="z37340d1" d="M307 172C296 185 257 225 192 293C182 302 186 311 198 308C218 301 267 270 348 222C362 213 377 204 395 198C409 192 414 182 408 170C400 156 387 145 370 134C354 123 341 118 332 119C323 119 320 124 322 134C323 146 317 158 307 172Z"/><path id="z37340d2" d="M586 127C626 151 672 181 723 219C736 228 747 236 758 237C764 237 768 232 772 225C778 214 774 196 761 170C744 138 684 114 581 97C574 95 571 98 572 106C572 114 577 121 586 127Z"/><path id="z37340d3" d="M529 331C554 308 572 284 594 273C599 270 603 266 604 260C604 253 603 244 596 234C578 209 558 195 537 193C531 192 527 197 527 206C525 228 511 260 480 298C465 316 465 316 457 325C387 406 298 460 212 507C177 525 136 546 88 569C81 571 80 576 88 577C140 584 229 555 344 481C417 433 466 386 501 356C520 339 520 339 529 331Z"/><path id="z37340d4" d="M501 356C587 417 663 485 752 527C778 539 852 529 967 498C974 496 979 489 981 484C982 478 975 476 962 475C921 470 879 464 836 460C745 451 643 407 529 331C496 309 496 309 480 298C427 262 382 249 345 260C338 261 335 267 340 274C343 279 350 281 358 282C378 283 413 294 457 325C486 346 486 346 501 356Z"/><path id="z37340d5" d="M484 519C514 513 547 507 582 501C604 497 618 492 622 490C628 485 629 480 626 475C621 468 611 462 594 457C579 452 539 463 473 478C417 490 377 492 353 495C330 497 326 504 343 515C372 534 401 533 439 527C469 522 469 522 484 519Z"/><path id="z37340d6" d="M509 653C529 650 582 641 669 635C675 634 683 633 688 625C690 619 681 612 668 603C647 588 611 589 558 603C542 607 526 610 511 613C474 620 474 620 456 623C419 629 367 634 285 641C266 642 264 649 278 661C298 677 322 683 351 678C381 672 416 666 456 661C491 656 491 656 509 653Z"/><path id="z37340d7" d="M503 829Q506 732 509 653C510 626 510 626 511 613Q511 592 514 570Q523 546 484 519C472 509 433 513 439 527Q451 548 456 623C456 648 456 648 456 661Q456 722 458 833C458 848 503 844 503 829Z"/><path id="z37340d8" d="M298 742C319 773 336 796 356 806C364 810 372 806 379 799C384 792 387 783 386 772C381 739 356 719 318 710C316 709 314 708 314 708C304 703 296 703 290 705C286 705 284 709 285 717C285 723 290 731 298 742Z"/><path id="z37340d9" d="M594 711C591 717 579 740 560 780C555 789 559 794 568 790C586 780 601 770 611 761C629 743 647 727 666 717C676 710 679 701 672 692C664 683 651 677 636 671C621 665 611 663 605 666C598 668 596 672 599 679C602 688 599 699 594 711Z"/><path id="z37340d10" d="M458 833C371 840 278 846 178 854C163 855 160 861 171 873C180 884 192 891 204 895C218 899 230 900 242 898C384 865 569 857 795 873C809 873 817 871 821 865C825 857 822 847 811 838C774 808 744 797 720 802C665 811 593 821 503 829C473 832 473 832 458 833Z"/></g>
<defs><clipPath id="z37340c1"><use href="#z37340d1"/></clipPath>
	<clipPath id="z37340c2"><use href="#z37340d2"/></clipPath>
	<clipPath id="z37340c3"><use href="#z37340d3"/></clipPath>
	<clipPath id="z37340c4"><use href="#z37340d4"/></clipPath>
	<clipPath id="z37340c5"><use href="#z37340d5"/></clipPath>
	<clipPath id="z37340c6"><use href="#z37340d6"/></clipPath>
	<clipPath id="z37340c7"><use href="#z37340d7"/></clipPath>
	<clipPath id="z37340c8"><use href="#z37340d8"/></clipPath>
	<clipPath id="z37340c9"><use href="#z37340d9"/></clipPath>
	<clipPath id="z37340c10"><use href="#z37340d10"/></clipPath><marker id="guide-arrow" viewBox="0 0 16 16" refX="5" refY="5" markerWidth="4" markerHeight="4" orient="auto-start-reverse"><path d="M 0 0 L 10 5 L 0 10 z" fill="inherit"/></marker></defs>
<g class="strokes"><path pathLength="3333" clip-path="url(#z37340c1)" d="M330 129L359 177L195 301"/><path pathLength="3333" clip-path="url(#z37340c2)" d="M576 106L717 172L764 230"/><path pathLength="3333" clip-path="url(#z37340c3)" d="M536 198L556 257L452 365L273 496L91 571"/><path pathLength="3333" clip-path="url(#z37340c4)" d="M346 270L444 296L764 488L973 484"/><path pathLength="3333" clip-path="url(#z37340c5)" d="M339 502L623 477"/><path pathLength="3333" clip-path="url(#z37340c6)" d="M279 652L681 621"/><path pathLength="3333" clip-path="url(#z37340c7)" d="M448 529L482 562L476 830"/><path pathLength="3333" clip-path="url(#z37340c8)" d="M292 712L373 802"/><path pathLength="3333" clip-path="url(#z37340c9)" d="M605 671L635 706L564 786"/><path pathLength="3333" clip-path="url(#z37340c10)" d="M171 861L236 874L713 835L819 855"/></g>
<g class="guides"><text class="g1" style="--gs:1" x="330" y="129">①</text><path class="g1 aligned" style="--gs:1" d="M330,129 Q359,177 338.5,192.5 Q215.5,285.5 195,301"/><path class="g1 offset" style="--gs:1" d="M234,129 Q248.5,153 238.25,160.75 Q176.75,207.25 166.5,215"/><text class="g2" style="--gs:2" x="576" y="106">②</text><path class="g2 aligned" style="--gs:2" d="M576,106 Q717,172 722.88,179.25 Q758.13,222.75 764,230"/><path class="g2 offset" style="--gs:2" d="M661.68,37.46 Q802.68,103.46 808.56,110.71 Q843.81,154.21 849.68,161.46"/><text class="g3" style="--gs:3" x="536" y="198">③</text><path class="g3 aligned" style="--gs:3" d="M536,198 Q556,257 504,311 Q452,365 362.5,430.5 Q273,496 182,533.5 Q182,533.5 91,571"/><path class="g3 offset" style="--gs:3" d="M440,198 Q454.84,241.82 416.26,281.92 Q377.68,322.02 311.27,370.66 Q244.87,419.3 177.35,447.15 Q177.35,447.15 109.84,475"/><text class="g4" style="--gs:4" x="346" y="270">④</text><path class="g4 aligned" style="--gs:4" d="M346,270 Q444,296 524,344 Q764,488 816.25,487 Q920.75,485 973,484"/><path class="g4 offset" style="--gs:4" d="M346,366 Q444,392 524,440 Q764,584 816.25,583 Q920.75,581 973,580"/><text class="g5" style="--gs:5" x="339" y="502">⑤</text><path class="g5 aligned" style="--gs:5" d="M339,502 L623,477"/><path class="g5 offset" style="--gs:5" d="M339,598 L623,573"/><text class="g6" style="--gs:6" x="279" y="652">⑥</text><path class="g6 aligned" style="--gs:6" d="M279,652 L681,621"/><path class="g6 offset" style="--gs:6" d="M279,748 L681,717"/><text class="g7" style="--gs:7" x="448" y="529">⑦</text><path class="g7 aligned" style="--gs:7" d="M448,529 Q482,562 481.25,595.5 Q476.75,796.5 476,830"/><path class="g7 offset" style="--gs:7" d="M352,529 Q386,562 385.25,595.5 Q380.75,796.5 380,830"/><text class="g8" style="--gs:8" x="292" y="712">⑧</text><path class="g8 aligned" style="--gs:8" d="M292,712 L373,802"/><path class="g8 offset" style="--gs:8" d="M377.68,643.46 L458.68,733.46"/><text class="g9" style="--gs:9" x="605" y="671">⑨</text><path class="g9 aligned" style="--gs:9" d="M605,671 Q635,706 626.13,716 Q572.88,776 564,786"/><path class="g9 offset" style="--gs:9" d="M509,671 Q524,688.5 519.56,693.5 Q492.94,723.5 488.5,728.5"/><text class="g10" style="--gs:10" x="171" y="861">⑩</text><path class="g10 aligned" style="--gs:10" d="M171,861 Q236,874 355.25,864.25 Q713,835 739.5,840 Q792.5,850 819,855"/><path class="g10 offset" style="--gs:10" d="M171,957 Q236,970 355.25,960.25 Q713,931 739.5,936 Q792.5,946 819,951"/></g>
</svg>
