<svg id="z37341" class="acjk" viewBox="0 0 1024 1024" xmlns="http://www.w3.org/2000/svg">
<style>

@keyframes zk {
	to {
		stroke-dashoffset:0;
	}
}
svg.acjk path[clip-path] {
	--t:0.8s;
	animation:zk var(--t) linear forwards var(--d);
	stroke-dasharray:3337;
	stroke-dashoffset:3339;
	stroke-width:128;
	stroke-linecap:round;
	fill:none;
	stroke:#000;
}
svg.acjk path[id] {fill:#ccc;}


    @keyframes guide-fade {
        0% { opacity: 0; }
        3% { opacity: 1; }
        95% { opacity: 1; }
        100% { opacity: 0; }
    }

    svg.acjk #guide-arrow {
        fill: #f77;
    }

    svg.acjk .guides {
        circle {
            fill: #0f6;
        }

        path {
            opacity: 0;
            animation: guide-fade var(--t) linear forwards var(--d);
            stroke-width: 16px;
            stroke-linecap: round;
            stroke: #f77;
            fill: none;
            marker-end: url(#guide-arrow);
        }

        circle,
        path {
            --t: 0.8s;
            opacity: 0;
            animation: guide-fade calc(var(--t) + 0.4s) ease-in-out forwards calc(var(--d) - 0.2s);
        }
    }
</style>
<path id="z37341d1" d="M261 387Q325 308 401 168C408 155 408 155 411 148Q414 135 432 114Q439 107 437 97Q434 87 420 75Q384 45 350 55Q340 58 344 71Q365 152 244 334Q234 347 223 362Q183 414 80 519Q73 526 83 528Q146 510 244 406C255 393 255 393 261 387Z"/>
<path id="z37341d2" d="M401 168Q405 175 427 189Q463 214 502 244Q515 254 529 253Q538 252 541 240Q544 227 534 202Q527 180 492 166Q420 144 411 148C404 149 397 162 401 168Z"/>
<path id="z37341d3" d="M359 401Q398 388 441 376Q466 369 469 364Q476 357 472 350Q465 340 439 337Q412 334 388 347Q360 359 330 369Q299 379 261 387C253 388 236 403 244 406Q245 406 249 408Q279 420 320 414C346 405 346 405 359 401Z"/>
<path id="z37341d4" d="M379 527Q490 491 492 491Q499 484 495 477Q488 468 465 464Q444 461 381 486C347 498 347 498 330 504Q329 503 327 504Q275 520 213 530Q185 536 206 548Q239 566 288 551Q307 545 331 540C363 531 363 531 379 527Z"/>
<path id="z37341d5" d="M373 700Q376 606 379 527C380 500 380 500 381 486Q381 465 384 445Q390 424 359 401C348 392 315 401 320 414Q329 433 330 504C331 528 331 528 331 540Q331 601 331 712C331 727 373 715 373 700Z"/>
<path id="z37341d6" d="M200 623Q236 686 257 688Q270 692 278 675Q282 662 275 642Q259 609 208 598Q199 595 197 606Q196 613 200 623Z"/>
<path id="z37341d7" d="M445 576Q432 601 403 642Q399 648 403 653Q409 654 415 650Q473 605 501 588Q514 584 511 576Q493 540 458 537Q446 538 448 553Q451 563 445 576Z"/>
<path id="z37341d8" d="M331 712Q261 730 188 750Q166 757 128 756Q115 757 112 767Q109 780 119 790Q141 806 176 827Q186 831 199 822Q245 791 462 705Q493 693 516 677Q529 670 530 660Q526 654 512 656Q446 677 373 700C345 708 345 708 331 712Z"/>
<path id="z37341d9" d="M761 439Q825 429 921 425Q970 425 977 414Q981 402 965 390Q910 351 844 375Q808 382 762 395C724 403 724 403 705 407Q623 423 527 442Q506 445 523 461Q536 473 555 477Q574 481 590 476Q642 458 705 448C742 442 742 442 761 439Z"/>
<path id="z37341d10" d="M705 448Q711 553 702 725Q699 902 720 936Q735 952 744 930Q760 891 761 439C762 410 762 410 762 395Q763 262 768 192Q769 158 787 130Q794 114 773 97Q748 78 703 66Q682 60 669 75Q659 84 672 96Q702 121 704 156Q705 244 705 407C705 434 705 434 705 448Z"/>
<defs>
	<clipPath id="z37341c1"><use href="#z37341d1"/></clipPath>
	<clipPath id="z37341c2"><use href="#z37341d2"/></clipPath>
	<clipPath id="z37341c3"><use href="#z37341d3"/></clipPath>
	<clipPath id="z37341c4"><use href="#z37341d4"/></clipPath>
	<clipPath id="z37341c5"><use href="#z37341d5"/></clipPath>
	<clipPath id="z37341c6"><use href="#z37341d6"/></clipPath>
	<clipPath id="z37341c7"><use href="#z37341d7"/></clipPath>
	<clipPath id="z37341c8"><use href="#z37341d8"/></clipPath>
	<clipPath id="z37341c9"><use href="#z37341d9"/></clipPath>
	<clipPath id="z37341c10"><use href="#z37341d10"/></clipPath>
<marker id="guide-arrow" viewBox="0 0 16 16" refX="5" refY="5" markerWidth="4" markerHeight="4" orient="auto-start-reverse"><path d="M 0 0 L 10 5 L 0 10 z" fill="inherit"/></marker></defs>
<path style="--d:1s;" pathLength="3333" clip-path="url(#z37341c1)" d="M349 64L391 107L319 260L220 401L84 523"/>
<path style="--d:2s;" pathLength="3333" clip-path="url(#z37341c2)" d="M409 168L483 193L532 243"/>
<path style="--d:3s;" pathLength="3333" clip-path="url(#z37341c3)" d="M256 403L469 353"/>
<path style="--d:4s;" pathLength="3333" clip-path="url(#z37341c4)" d="M209 540L489 481"/>
<path style="--d:5s;" pathLength="3333" clip-path="url(#z37341c5)" d="M326 418L356 449L343 708"/>
<path style="--d:6s;" pathLength="3333" clip-path="url(#z37341c6)" d="M204 607L265 685"/>
<path style="--d:7s;" pathLength="3333" clip-path="url(#z37341c7)" d="M457 546L476 581L408 646"/>
<path style="--d:8s;" pathLength="3333" clip-path="url(#z37341c8)" d="M117 770L188 788L523 663"/>
<path style="--d:9s;" pathLength="3333" clip-path="url(#z37341c9)" d="M523 449L878 397L972 410"/>
<path style="--d:10s;" pathLength="3333" clip-path="url(#z37341c10)" d="M669 82L744 130L731 938"/>
<g class="guides"><circle style="--d: 1s" class="g1" cx="349" cy="64" r="16"/><path style="--d: 1s;" class="g1" d="M253,64 Q281.8664495114007,98.00653594771242 257.12377850162864,158.50653594771242 Q232.38110749185665,219.00653594771242 198.35993485342019,274.76143790849676 Q164.33876221498372,330.51633986928107 117.60260586319218,378.75816993464053 Q117.60260586319218,378.75816993464053 70.86644951140065,427"/><circle style="--d: 2s" class="g2" cx="409" cy="168" r="16"/><path style="--d: 2s;" class="g2" d="M494.68,99.456 Q568.68,124.456 574.805,130.70600000000002 Q611.555,168.20600000000002 617.68,174.45600000000002"/><circle style="--d: 3s" class="g3" cx="256" cy="403" r="16"/><path style="--d: 3s;" class="g3" d="M256,499 L469,449"/><circle style="--d: 4s" class="g4" cx="209" cy="540" r="16"/><path style="--d: 4s;" class="g4" d="M209,636 L489,577"/><circle style="--d: 5s" class="g5" cx="326" cy="418" r="16"/><path style="--d: 5s;" class="g5" d="M230,418 Q260,449 258.375,481.375 Q248.625,675.625 247,708"/><circle style="--d: 6s" class="g6" cx="204" cy="607" r="16"/><path style="--d: 6s;" class="g6" d="M289.68,538.456 L350.68,616.456"/><circle style="--d: 7s" class="g7" cx="467" cy="564" r="16"/><path style="--d: 7s;" class="g7" d="M552.68,632.544 L493.68,714.544"/><circle style="--d: 8s" class="g8" cx="117" cy="770" r="16"/><path style="--d: 8s;" class="g8" d="M117,866 Q188,884 229.875,868.375 Q481.125,774.625 523,759"/><circle style="--d: 9s" class="g9" cx="523" cy="449" r="16"/><path style="--d: 9s;" class="g9" d="M523,545 Q878,493 889.75,494.625 Q960.25,504.375 972,506"/><circle style="--d: 10s" class="g10" cx="669" cy="82" r="16"/><path style="--d: 10s;" class="g10" d="M573,82 Q648,130 646.375,231 Q636.625,837 635,938"/></g></svg>