<!--
  Stroke-order data for 鉄, derived from AnimCJK (https://github.com/parsimonhi/animCJK),
  itself derived from the Arphic PL KaitiM fonts. Distributed under the Arphic Public License
  (see ARPHICPL.TXT). Regenerated by scripts/build-strokes.ts — do not edit by hand.
-->
<svg id="z37444" class="acjk" viewBox="0 0 1024 1024" xmlns="http://www.w3.org/2000/svg">
<g class="glyph"><path id="z37444d1" d="M355 223C370 199 386 186 384 175C380 160 370 149 358 139C337 123 321 114 306 115C295 115 288 121 293 134C302 157 305 178 297 199C251 305 175 424 67 553C54 568 49 575 58 577C88 581 169 503 285 334C318 285 335 253 342 243C351 230 351 230 355 223Z"/><path id="z37444d2" d="M342 243C374 268 408 294 439 316C448 322 456 325 464 320C482 308 467 274 455 262C439 245 405 233 355 223C347 221 336 238 342 243Z"/><path id="z37444d3" d="M331 472C350 467 374 459 404 453C415 450 435 444 433 432C431 423 418 418 398 414C378 409 356 415 341 421C308 433 270 441 227 448C204 451 201 459 219 469C239 480 266 485 285 482C316 475 316 475 331 472Z"/><path id="z37444d4" d="M347 599C397 587 424 579 429 575C438 565 429 558 423 554C402 539 369 545 347 553C313 564 313 564 296 570C276 576 226 585 199 590C183 592 176 598 182 604C183 605 185 607 187 609C203 625 260 619 297 611C330 603 330 603 347 599Z"/><path id="z37444d5" d="M342 768C344 690 347 634 347 599C347 568 347 568 347 553C347 491 369 491 331 472C318 464 279 467 285 482C291 496 294 523 296 569C297 597 297 597 297 611C297 651 298 708 300 780C300 795 342 783 342 768Z"/><path id="z37444d6" d="M218 755C223 761 230 766 237 767C248 768 256 757 253 735C252 727 252 727 251 723C249 713 242 702 227 693C191 671 168 663 161 665C158 665 156 669 157 677C157 682 163 691 174 704C203 738 203 738 218 755Z"/><path id="z37444d7" d="M380 720C383 722 387 718 390 716C420 686 443 664 461 654C474 646 470 637 447 622C437 615 429 612 423 612C414 612 412 615 412 624C412 627 412 627 412 628C412 632 413 639 411 648C408 655 404 662 401 669C387 695 387 695 380 708C377 712 375 717 380 720Z"/><path id="z37444d8" d="M123 822C122 822 121 822 120 822C116 822 113 823 110 826C102 831 100 837 106 848C107 849 112 855 121 861C126 864 148 890 167 890C167 890 168 890 169 890C176 890 182 888 188 884C216 863 391 788 422 773C454 756 474 744 472 735C470 728 461 729 454 732C431 740 379 757 342 768C314 776 314 776 300 780C271 788 223 804 181 814C161 818 143 822 123 822Z"/><path id="z37444d9" d="M559 359C570 336 587 308 594 298C601 286 595 276 588 271C569 258 554 251 543 249C497 239 517 268 519 289C522 334 506 384 466 435C458 444 425 483 437 487C441 488 453 482 471 469C501 444 528 417 547 382C555 367 555 367 559 359Z"/><path id="z37444d10" d="M695 377C771 359 810 343 814 341C816 338 818 335 819 333C820 322 803 311 782 308C765 305 740 318 698 330C665 339 665 339 649 343C634 346 605 355 559 359C550 360 539 379 547 382C581 396 619 394 647 388C679 381 679 381 695 377Z"/><path id="z37444d11" d="M635 533C609 538 576 547 464 569C450 571 448 577 460 588C472 599 484 605 496 608C507 610 523 605 545 600C570 593 606 585 629 581C663 574 663 574 680 571C730 561 786 554 848 551C882 549 901 547 905 539C907 533 905 528 902 523C899 518 896 518 894 516C893 515 892 514 892 514C885 507 875 504 869 501C841 489 812 484 780 494C751 502 716 514 684 522C651 529 651 529 635 533Z"/><path id="z37444d12" d="M647 388C644 452 639 500 635 533C631 565 631 565 629 581C617 672 578 744 527 798C497 828 456 855 408 884C398 889 393 892 394 897C394 898 399 901 409 901C461 900 516 860 555 827C617 775 655 710 670 631C674 608 674 608 676 597C677 587 679 578 680 571C683 538 683 538 684 522C686 490 690 442 695 377C697 346 697 346 698 330C701 278 707 226 727 173C729 166 730 159 728 154C722 144 707 134 686 124C655 110 635 106 623 114C612 120 621 134 624 140C657 202 651 277 649 343C648 373 648 373 647 388Z"/><path id="z37444d13" d="M670 631C708 701 752 781 808 868C817 882 833 888 854 890C871 891 886 891 898 892C962 895 994 894 996 886C996 884 992 879 984 875C896 827 832 790 800 753C755 703 717 649 676 597C669 588 665 621 670 631Z"/></g>
<defs><clipPath id="z37444c1"><use href="#z37444d1"/></clipPath>
	<clipPath id="z37444c2"><use href="#z37444d2"/></clipPath>
	<clipPath id="z37444c3"><use href="#z37444d3"/></clipPath>
	<clipPath id="z37444c4"><use href="#z37444d4"/></clipPath>
	<clipPath id="z37444c5"><use href="#z37444d5"/></clipPath>
	<clipPath id="z37444c6"><use href="#z37444d6"/></clipPath>
	<clipPath id="z37444c7"><use href="#z37444d7"/></clipPath>
	<clipPath id="z37444c8"><use href="#z37444d8"/></clipPath>
	<clipPath id="z37444c9"><use href="#z37444d9"/></clipPath>
	<clipPath id="z37444c10"><use href="#z37444d10"/></clipPath>
	<clipPath id="z37444c11"><use href="#z37444d11"/></clipPath>
	<clipPath id="z37444c12"><use href="#z37444d12"/></clipPath>
	<clipPath id="z37444c13"><use href="#z37444d13"/></clipPath><marker id="guide-arrow" viewBox="0 0 16 16" refX="5" refY="5" markerWidth="4" markerHeight="4" orient="auto-start-reverse"><path d="M 0 0 L 10 5 L 0 10 z" fill="inherit"/></marker></defs>
<g class="strokes"><path pathLength="3333" clip-path="url(#z37444c1)" d="M300 123L341 185L191 427L61 571"/><path pathLength="3333" clip-path="url(#z37444c2)" d="M347 235L424 272L458 317"/><path pathLength="3333" clip-path="url(#z37444c3)" d="M216 458L428 434"/><path pathLength="3333" clip-path="url(#z37444c4)" d="M188 600L426 562"/><path pathLength="3333" clip-path="url(#z37444c5)" d="M291 478L323 509L317 783"/><path pathLength="3333" clip-path="url(#z37444c6)" d="M164 671L240 763"/><path pathLength="3333" clip-path="url(#z37444c7)" d="M420 622L433 658L384 711"/><path pathLength="3333" clip-path="url(#z37444c8)" d="M106 835L167 854L463 739"/><path pathLength="3333" clip-path="url(#z37444c9)" d="M521 255L558 297L504 413L442 481"/><path pathLength="3333" clip-path="url(#z37444c10)" d="M550 376L813 327"/><path pathLength="3333" clip-path="url(#z37444c11)" d="M457 577L504 585L800 522L901 532"/><path pathLength="3333" clip-path="url(#z37444c12)" d="M624 120L685 169L641 647L563 790L401 893"/><path pathLength="3333" clip-path="url(#z37444c13)" d="M673 601L842 843L988 883"/></g>
<g class="guides"><text class="g1" style="--gs:1" x="300" y="123">①</text><path class="g1 aligned" style="--gs:1" d="M300,123 Q341,185 303.5,245.5 Q191,427 158.5,463 Q93.5,535 61,571"/><path class="g1 offset" style="--gs:1" d="M204,123 Q230.94,171.71 206.3,219.25 Q132.37,361.86 111.01,390.14 Q68.3,446.71 46.94,475"/><text class="g2" style="--gs:2" x="347" y="235">②</text><path class="g2 aligned" style="--gs:2" d="M347,235 Q424,272 428.25,277.63 Q453.75,311.38 458,317"/><path class="g2 offset" style="--gs:2" d="M432.68,166.46 Q509.68,203.46 513.93,209.08 Q539.43,242.83 543.68,248.46"/><text class="g3" style="--gs:3" x="216" y="458">③</text><path class="g3 aligned" style="--gs:3" d="M216,458 L428,434"/><path class="g3 offset" style="--gs:3" d="M216,554 L428,530"/><text class="g4" style="--gs:4" x="188" y="600">④</text><path class="g4 aligned" style="--gs:4" d="M188,600 L426,562"/><path class="g4 offset" style="--gs:4" d="M188,696 L426,658"/><text class="g5" style="--gs:5" x="291" y="478">⑤</text><path class="g5 aligned" style="--gs:5" d="M291,478 Q323,509 322.25,543.25 Q317.75,748.75 317,783"/><path class="g5 offset" style="--gs:5" d="M195,478 Q227,509 226.25,543.25 Q221.75,748.75 221,783"/><text class="g6" style="--gs:6" x="164" y="671">⑥</text><path class="g6 aligned" style="--gs:6" d="M164,671 L240,763"/><path class="g6 offset" style="--gs:6" d="M249.68,602.46 L325.68,694.46"/><text class="g7" style="--gs:7" x="420" y="622">⑦</text><path class="g7 aligned" style="--gs:7" d="M427,640 L384,711"/><path class="g7 offset" style="--gs:7" d="M512.68,708.54 L469.68,779.54"/><text class="g8" style="--gs:8" x="106" y="835">⑧</text><path class="g8 aligned" style="--gs:8" d="M106,835 Q167,854 204,839.63 Q426,753.38 463,739"/><path class="g8 offset" style="--gs:8" d="M106,931 Q167,950 204,935.63 Q426,849.38 463,835"/><text class="g9" style="--gs:9" x="521" y="255">⑨</text><path class="g9 aligned" style="--gs:9" d="M521,255 Q558,297 544.5,326 Q504,413 488.5,430 Q457.5,464 442,481"/><path class="g9 offset" style="--gs:9" d="M425,255 Q443.5,279.16 436.75,295.84 Q416.5,345.88 408.75,355.66 Q393.25,375.22 385.5,385"/><text class="g10" style="--gs:10" x="550" y="376">⑩</text><path class="g10 aligned" style="--gs:10" d="M550,376 L813,327"/><path class="g10 offset" style="--gs:10" d="M550,472 L813,423"/><text class="g11" style="--gs:11" x="457" y="577">⑪</text><path class="g11 aligned" style="--gs:11" d="M457,577 Q504,585 578,569.25 Q800,522 825.25,524.5 Q875.75,529.5 901,532"/><path class="g11 offset" style="--gs:11" d="M457,673 Q504,681 578,665.25 Q800,618 825.25,620.5 Q875.75,625.5 901,628"/><text class="g12" style="--gs:12" x="624" y="120">⑫</text><path class="g12 aligned" style="--gs:12" d="M624,120 Q685,169 663,408 Q641,647 602,718.5 Q563,790 482,841.5 Q482,841.5 401,893"/><path class="g12 offset" style="--gs:12" d="M528,120 Q568.38,162.91 553.82,372.23 Q539.25,581.55 513.44,644.17 Q487.62,706.79 434,751.9 Q434,751.9 380.38,797"/><text class="g13" style="--gs:13" x="673" y="601">⑬</text><path class="g13 aligned" style="--gs:13" d="M673,601 Q842,843 860.25,848 Q969.75,878 988,883"/><path class="g13 offset" style="--gs:13" d="M758.68,532.46 Q881.71,750.89 895,755.41 Q974.71,782.49 988,787"/></g>
</svg>
