<!--
  Stroke-order data for 鉱, derived from AnimCJK (https://github.com/parsimonhi/animCJK),
  itself derived from the Arphic PL KaitiM fonts. Distributed under the Arphic Public License
  (see ARPHICPL.TXT). Regenerated by scripts/build-strokes.ts — do not edit by hand.
-->
<svg id="z37489" class="acjk" viewBox="0 0 1024 1024" xmlns="http://www.w3.org/2000/svg">
<g class="glyph"><path style="--part:1" id="z37489d1" d="M349 186C358 172 367 161 377 152C383 145 385 137 382 128C379 119 369 106 350 92C332 79 317 73 305 74C292 74 288 82 294 97C303 119 303 145 295 165C267 227 237 288 196 347C165 390 121 444 55 514C48 520 44 526 43 530C40 536 44 541 53 538C121 507 217 403 280 300C293 277 329 215 335 207C344 193 344 193 349 186Z"/><path style="--part:1" id="z37489d2" d="M335 207Q341 213 354 222Q385 246 419 274Q429 284 442 283Q449 282 453 272Q457 260 449 237Q443 218 413 204Q382 194 349 186C341 185 328 202 335 207Z"/><path style="--part:1" id="z37489d3" d="M315 437C335 431 357 424 380 418C394 413 403 410 405 408C409 403 410 398 407 394C402 387 391 382 375 380C363 378 330 388 276 408C254 415 231 418 209 423C188 427 185 435 202 444C223 455 249 456 277 448C302 441 302 441 315 437Z"/><path style="--part:1" id="z37489d4" d="M339 547C386 533 410 524 412 523C416 518 418 513 415 509C410 502 400 498 385 496C370 493 356 496 341 502C306 515 306 515 289 522C265 531 218 539 189 545C170 548 167 556 182 564C204 576 252 571 289 561C322 552 322 552 339 547Z"/><path style="--part:1" id="z37489d5" d="M330 736C332 666 336 603 339 547C340 517 340 517 341 502C342 477 346 469 341 459C335 448 323 443 315 437C304 430 272 436 277 448C285 464 289 488 289 522C289 548 289 548 289 561C289 601 288 664 288 748C288 763 330 751 330 736Z"/><path style="--part:1" id="z37489d6" d="M162 644C188 690 208 715 220 719C226 721 234 718 239 709C242 702 241 692 238 680C234 669 225 660 213 651C194 636 180 627 171 623C166 621 163 623 161 629C159 633 159 638 162 644Z"/><path style="--part:1" id="z37489d7" d="M397 604C390 618 379 638 363 662C360 666 359 670 363 673C366 675 371 672 375 670C409 644 435 624 453 616C461 612 465 608 463 603C459 594 451 587 442 579C431 570 421 565 410 566C402 566 398 571 400 581C401 587 401 595 397 604Z"/><path style="--part:1" id="z37489d8" d="M288 748C249 759 209 771 169 783C157 786 141 787 122 788C113 788 107 792 107 799C105 807 108 814 114 819C128 830 146 841 168 852C174 855 181 852 189 847C213 829 278 795 385 748C400 740 413 732 425 724C433 718 440 713 438 708C434 701 397 716 330 736C302 744 302 744 288 748Z"/><path style="--part:2" id="z37489d9" d="M778 195C763 194 756 180 747 170C731 152 713 134 697 117C689 108 682 98 683 85C683 79 687 73 693 73C706 73 719 78 731 82C752 89 775 97 787 117C793 128 794 142 796 156C797 168 798 182 789 192C786 195 782 195 778 195Z"/><path style="--part:2" id="z37489d10" d="M853 219C828 222 813 234 788 244C728 266 652 286 597 285C585 285 587 319 599 321C623 325 648 326 674 323C692 320 759 303 801 292C834 283 866 273 899 263C921 256 910 214 853 219Z"/><path style="--part:2" id="z37489d11" d="M416 921C407 920 408 908 412 901C419 883 428 865 437 847C472 763 499 676 515 587C528 503 536 420 537 336C537 313 533 290 526 269C522 258 528 243 540 242C554 239 565 248 575 256C584 263 592 274 597 285C601 296 601 309 599 321C590 377 586 444 578 500C565 586 549 673 520 756C507 792 490 826 472 859C460 880 447 901 429 916C425 919 421 921 416 921Z"/><path style="--part:2" id="z37489d12" d="M843 762C780 769 715 779 648 795C640 796 635 797 634 795C631 791 631 782 636 772C712 598 759 496 778 467C783 457 786 450 781 442C775 433 755 424 721 413C708 408 699 409 693 414C685 419 683 429 690 443C698 461 698 483 691 512C673 584 646 660 608 739C594 765 573 791 543 820C533 829 531 839 535 847C539 858 552 870 571 883C579 888 587 888 596 880C621 856 731 818 857 787C866 785 852 760 843 762Z"/><path style="--part:2" id="z37489d13" d="M857 787C864 799 926 885 934 880C943 873 946 855 946 824C945 808 942 794 934 781C924 765 906 746 879 723C849 697 826 678 810 665C804 660 799 661 797 669C794 677 796 686 802 695C817 719 825 730 843 762C852 779 852 779 857 787Z"/></g>
<defs><clipPath id="z37489c1"><use href="#z37489d1"/></clipPath>
	<clipPath id="z37489c2"><use href="#z37489d2"/></clipPath>
	<clipPath id="z37489c3"><use href="#z37489d3"/></clipPath>
	<clipPath id="z37489c4"><use href="#z37489d4"/></clipPath>
	<clipPath id="z37489c5"><use href="#z37489d5"/></clipPath>
	<clipPath id="z37489c6"><use href="#z37489d6"/></clipPath>
	<clipPath id="z37489c7"><use href="#z37489d7"/></clipPath>
	<clipPath id="z37489c8"><use href="#z37489d8"/></clipPath>
	<clipPath id="z37489c9"><use href="#z37489d9"/></clipPath>
	<clipPath id="z37489c10"><use href="#z37489d10"/></clipPath>
	<clipPath id="z37489c11"><use href="#z37489d11"/></clipPath>
	<clipPath id="z37489c12"><use href="#z37489d12"/></clipPath>
	<clipPath id="z37489c13"><use href="#z37489d13"/></clipPath><marker id="guide-arrow" viewBox="0 0 16 16" refX="5" refY="5" markerWidth="4" markerHeight="4" orient="auto-start-reverse"><path d="M 0 0 L 10 5 L 0 10 z" fill="inherit"/></marker></defs>
<g class="strokes"><path style="--part:1" pathLength="3333" clip-path="url(#z37489c1)" d="M300 78L338 149L206 361L51 534"/><path style="--part:1" pathLength="3333" clip-path="url(#z37489c2)" d="M342 205L406 229L449 274"/><path style="--part:1" pathLength="3333" clip-path="url(#z37489c3)" d="M197 431L403 396"/><path style="--part:1" pathLength="3333" clip-path="url(#z37489c4)" d="M182 555L409 512"/><path style="--part:1" pathLength="3333" clip-path="url(#z37489c5)" d="M284 450L315 478L304 742"/><path style="--part:1" pathLength="3333" clip-path="url(#z37489c6)" d="M168 633L231 713"/><path style="--part:1" pathLength="3333" clip-path="url(#z37489c7)" d="M407 573L426 612L368 667"/><path style="--part:1" pathLength="3333" clip-path="url(#z37489c8)" d="M112 798L175 817L431 713"/><path style="--part:2" pathLength="3333" clip-path="url(#z37489c9)" d="M690 78L789 187"/><path style="--part:2" pathLength="3333" clip-path="url(#z37489c10)" d="M598 291L655 302L907 240"/><path style="--part:2" pathLength="3333" clip-path="url(#z37489c11)" d="M539 247L568 319L538 595L490 768L415 913"/><path style="--part:2" pathLength="3333" clip-path="url(#z37489c12)" d="M693 421L739 468L583 820L608 840L851 777"/><path style="--part:2" pathLength="3333" clip-path="url(#z37489c13)" d="M802 670L910 809L927 881"/></g>
<g class="guides"><text class="g1" style="--gs:1" x="300" y="78">①</text><path class="g1 aligned" style="--gs:1" d="M300,78 Q338,149 305,202 Q206,361 167.25,404.25 Q89.75,490.75 51,534"/><path class="g1 offset" style="--gs:1" d="M204,78 Q226.11,134.05 206.91,175.89 Q149.3,301.42 126.76,335.57 Q81.66,403.86 59.11,438"/><text class="g2" style="--gs:2" x="342" y="205">②</text><path class="g2 aligned" style="--gs:2" d="M342,205 Q406,229 411.38,234.63 Q443.63,268.38 449,274"/><path class="g2 offset" style="--gs:2" d="M427.68,136.46 Q491.68,160.46 497.06,166.08 Q529.3,199.83 534.68,205.46"/><text class="g3" style="--gs:3" x="197" y="431">③</text><path class="g3 aligned" style="--gs:3" d="M197,431 L403,396"/><path class="g3 offset" style="--gs:3" d="M197,527 L403,492"/><text class="g4" style="--gs:4" x="182" y="555">④</text><path class="g4 aligned" style="--gs:4" d="M182,555 L409,512"/><path class="g4 offset" style="--gs:4" d="M182,651 L409,608"/><text class="g5" style="--gs:5" x="284" y="450">⑤</text><path class="g5 aligned" style="--gs:5" d="M300,464 L304,742"/><path class="g5 offset" style="--gs:5" d="M420,464 L424,742"/><text class="g6" style="--gs:6" x="168" y="633">⑥</text><path class="g6 aligned" style="--gs:6" d="M168,633 L231,713"/><path class="g6 offset" style="--gs:6" d="M253.68,564.46 L316.68,644.46"/><text class="g7" style="--gs:7" x="407" y="573">⑦</text><path class="g7 aligned" style="--gs:7" d="M407,573 Q426,612 418.75,618.88 Q375.25,660.13 368,667"/><path class="g7 offset" style="--gs:7" d="M311,573 Q320.5,592.5 316.88,595.94 Q295.13,616.56 291.5,620"/><text class="g8" style="--gs:8" x="112" y="798">⑧</text><path class="g8 aligned" style="--gs:8" d="M112,798 Q175,817 207,804 Q399,726 431,713"/><path class="g8 offset" style="--gs:8" d="M112,894 Q175,913 207,900 Q399,822 431,809"/><text class="g9" style="--gs:9" x="690" y="78">⑨</text><path class="g9 aligned" style="--gs:9" d="M690,78 L789,187"/><path class="g9 offset" style="--gs:9" d="M775.68,9.46 L874.68,118.46"/><text class="g10" style="--gs:10" x="598" y="291">⑩</text><path class="g10 aligned" style="--gs:10" d="M598,291 Q655,302 686.5,294.25 Q875.5,247.75 907,240"/><path class="g10 offset" style="--gs:10" d="M598,387 Q655,398 686.5,390.25 Q875.5,343.75 907,336"/><text class="g11" style="--gs:11" x="539" y="247">⑪</text><path class="g11 aligned" style="--gs:11" d="M539,247 Q568,319 553,457 Q538,595 514,681.5 Q490,768 452.5,840.5 Q452.5,840.5 415,913"/><path class="g11 offset" style="--gs:11" d="M659,247 Q688,319 673,457 Q658,595 634,681.5 Q610,768 572.5,840.5 Q572.5,840.5 535,913"/><text class="g12" style="--gs:12" x="693" y="421">⑫</text><path class="g12 aligned" style="--gs:12" d="M693,421 Q739,468 661,644 Q583,820 595.5,830 Q608,840 729.5,808.5 Q729.5,808.5 851,777"/><path class="g12 offset" style="--gs:12" d="M778.68,352.46 Q809.97,396.38 756.91,560.84 Q703.85,725.31 712.35,734.66 Q720.85,744 803.51,714.56 Q803.51,714.56 886.17,685.13"/><text class="g13" style="--gs:13" x="802" y="670">⑬</text><path class="g13 aligned" style="--gs:13" d="M802,670 Q910,809 912.13,818 Q924.88,872 927,881"/><path class="g13 offset" style="--gs:13" d="M887.68,601.46 Q995.68,740.46 997.81,749.46 Q1010.56,803.46 1012.68,812.46"/></g>
<g class="parts"><rect data-part="2" data-literal="広" role="button" tabindex="0" aria-label="Part 広" x="343" y="6" width="656" height="979"/><rect data-part="1" data-literal="金" data-radical="true" role="button" tabindex="0" aria-label="Part 金 (radical)" x="0" y="6" width="521" height="883"/></g>
</svg>
