<svg id="z37682" class="acjk" viewBox="0 0 1024 1024" xmlns="http://www.w3.org/2000/svg">
<style>

@keyframes zk {
	to {
		stroke-dashoffset:0;
	}
}
svg.acjk path[clip-path] {
	--t:0.8s;
	animation:zk var(--t) linear forwards var(--d);
	stroke-dasharray:3337;
	stroke-dashoffset:3339;
	stroke-width:128;
	stroke-linecap:round;
	fill:none;
	stroke:#000;
}
svg.acjk path[id] {fill:#ccc;}


    @keyframes guide-fade {
        0% { opacity: 0; }
        3% { opacity: 1; }
        95% { opacity: 1; }
        100% { opacity: 0; }
    }

    svg.acjk #guide-arrow {
        fill: #f77;
    }

    svg.acjk .guides {
        circle {
            fill: #0f6;
        }

        path {
            opacity: 0;
            animation: guide-fade var(--t) linear forwards var(--d);
            stroke-width: 16px;
            stroke-linecap: round;
            stroke: #f77;
            fill: none;
            marker-end: url(#guide-arrow);
        }

        circle,
        path {
            --t: 0.8s;
            opacity: 0;
            animation: guide-fade calc(var(--t) + 0.4s) ease-in-out forwards calc(var(--d) - 0.2s);
        }
    }
</style>
<path id="z37682d1" d="M169 393C205 347 244 292 283 224C290 211 295 199 302 189C311 175 311 175 316 168C320 161 325 156 330 152C336 145 337 137 334 129C331 121 320 109 303 97C285 85 272 80 260 81C248 81 243 88 250 103C259 123 260 142 253 161C229 220 200 278 165 334C130 387 90 444 42 503C35 510 31 515 30 519C27 525 31 527 41 526C62 522 100 478 165 398C168 395 168 395 169 393Z"/>
<path id="z37682d2" d="M302 189C306 193 313 199 325 207C343 219 361 233 380 248C388 254 397 257 405 256C411 255 415 251 417 244C419 235 416 223 410 208C402 189 360 175 316 168C308 167 295 184 302 189Z"/>
<path id="z37682d3" d="M284 398C305 391 327 382 351 375C365 370 372 366 374 364C378 358 378 354 376 350C370 343 360 339 343 338C328 337 296 349 247 369C227 377 205 382 183 387C176 388 171 389 169 393C167 395 164 396 165 398C165 400 167 404 177 408C197 416 222 418 245 411C271 402 271 402 284 398Z"/>
<path id="z37682d4" d="M299 524C345 511 369 501 373 499C377 494 377 489 375 485C369 478 359 474 345 472C328 469 314 474 300 480C270 492 270 492 255 498C221 511 183 516 144 525C125 528 122 536 138 544C157 554 193 553 256 536C285 528 285 528 299 524Z"/>
<path id="z37682d5" d="M296 696C296 633 297 576 299 524C300 495 300 495 300 480C300 466 301 451 304 436C307 420 300 408 284 398C273 390 238 399 245 411C251 417 253 446 255 498C256 523 256 523 256 536C257 576 256 634 257 709C257 723 296 710 296 696Z"/>
<path id="z37682d6" d="M127 635C139 647 153 660 168 678C174 684 182 690 192 690C198 690 202 686 205 679C207 671 207 657 204 643C199 623 172 608 126 595C116 592 111 591 108 593C105 594 102 599 104 607C104 613 113 622 127 635Z"/>
<path id="z37682d7" d="M353 574C347 588 337 608 322 635C319 638 318 643 323 645C325 646 330 643 334 641C366 612 389 590 407 581C414 576 418 573 415 569C410 561 403 554 394 547C383 539 373 536 363 537C356 537 353 542 355 552C356 558 356 566 353 574Z"/>
<path id="z37682d8" d="M257 709C153 743 89 760 68 761C59 761 54 765 54 773C53 781 55 788 62 794C76 804 93 816 118 827C123 829 131 826 140 820C165 799 292 739 377 691C390 683 396 674 394 668C392 662 384 663 376 666C349 674 323 686 296 696C270 705 270 705 257 709Z"/>
<path id="z37682d9" d="M713 372C733 288 759 236 785 212C797 200 796 185 786 175C775 165 752 152 718 137C706 131 693 132 679 138C632 158 570 175 492 186C481 187 475 190 478 196C479 200 485 206 498 211C505 214 530 214 571 207C647 193 686 187 690 191C698 199 702 213 699 231C689 287 675 337 662 381C657 397 710 389 713 372Z"/>
<path id="z37682d10" d="M468 297C453 299 451 305 464 314C473 321 492 328 519 326C539 324 582 312 649 303C655 302 661 300 664 293C666 287 656 278 644 276C624 272 598 276 520 288C504 290 485 293 468 297Z"/>
<path id="z37682d11" d="M615 420C658 412 780 397 890 402C902 402 909 398 911 394C913 387 910 378 901 372C869 348 832 345 791 355C758 362 738 367 713 372C679 378 679 378 662 381C593 393 482 409 402 421C390 422 388 426 398 437C405 444 414 450 426 453C437 455 448 455 458 453C492 442 529 434 569 428C600 423 600 423 615 420Z"/>
<path id="z37682d12" d="M643 575C643 525 645 490 653 471C658 458 656 448 646 440C636 432 625 425 615 420C602 412 559 416 569 428C595 454 603 574 592 786C591 796 590 805 590 815C589 827 585 835 579 840C574 843 547 840 498 829C490 827 486 828 487 834C487 838 491 842 498 848C542 887 570 920 585 942C592 953 603 954 614 945C637 924 648 891 647 845C646 820 643 741 643 606C643 585 643 585 643 575Z"/>
<path id="z37682d13" d="M457 550C468 560 481 573 496 588C501 594 510 599 520 599C526 599 530 594 533 587C535 579 534 566 530 551C526 536 499 523 454 510C444 507 439 507 436 509C432 511 431 515 433 523C434 528 442 538 457 550Z"/>
<path id="z37682d14" d="M350 762C342 765 339 771 340 777C341 785 345 790 353 793C368 798 388 803 412 806C418 806 424 801 429 794C439 776 476 735 526 682C533 673 539 667 544 660C549 652 553 643 551 639C547 634 540 637 535 642C490 674 438 710 380 749C373 753 362 757 350 762Z"/>
<path id="z37682d15" d="M682 606C744 560 787 531 819 514C831 511 837 504 835 496C831 485 822 474 810 462C797 450 783 443 769 442C759 442 754 449 755 462C757 478 728 522 667 594C662 599 677 610 682 606Z"/>
<path id="z37682d16" d="M667 594C658 587 651 581 643 575C635 569 636 599 643 606C691 662 744 721 805 781C816 792 833 795 852 793C914 784 956 777 975 771C980 769 983 765 984 763C984 760 980 755 971 753C874 721 799 689 746 652C725 637 703 623 682 606C672 598 672 598 667 594Z"/>
<defs>
	<clipPath id="z37682c1"><use href="#z37682d1"/></clipPath>
	<clipPath id="z37682c2"><use href="#z37682d2"/></clipPath>
	<clipPath id="z37682c3"><use href="#z37682d3"/></clipPath>
	<clipPath id="z37682c4"><use href="#z37682d4"/></clipPath>
	<clipPath id="z37682c5"><use href="#z37682d5"/></clipPath>
	<clipPath id="z37682c6"><use href="#z37682d6"/></clipPath>
	<clipPath id="z37682c7"><use href="#z37682d7"/></clipPath>
	<clipPath id="z37682c8"><use href="#z37682d8"/></clipPath>
	<clipPath id="z37682c9"><use href="#z37682d9"/></clipPath>
	<clipPath id="z37682c10"><use href="#z37682d10"/></clipPath>
	<clipPath id="z37682c11"><use href="#z37682d11"/></clipPath>
	<clipPath id="z37682c12"><use href="#z37682d12"/></clipPath>
	<clipPath id="z37682c13"><use href="#z37682d13"/></clipPath>
	<clipPath id="z37682c14"><use href="#z37682d14"/></clipPath>
	<clipPath id="z37682c15"><use href="#z37682d15"/></clipPath>
	<clipPath id="z37682c16"><use href="#z37682d16"/></clipPath>
<marker id="guide-arrow" viewBox="0 0 16 16" refX="5" refY="5" markerWidth="4" markerHeight="4" orient="auto-start-reverse"><path d="M 0 0 L 10 5 L 0 10 z" fill="inherit"/></marker></defs>
<path style="--d:1s;" pathLength="3333" clip-path="url(#z37682c1)" d="M255 85L296 141L250 233L123 425L35 518"/>
<path style="--d:2s;" pathLength="3333" clip-path="url(#z37682c2)" d="M309 187L413 244"/>
<path style="--d:3s;" pathLength="3333" clip-path="url(#z37682c3)" d="M171 399L372 354"/>
<path style="--d:4s;" pathLength="3333" clip-path="url(#z37682c4)" d="M140 535L372 488"/>
<path style="--d:5s;" pathLength="3333" clip-path="url(#z37682c5)" d="M283 403L273 703"/>
<path style="--d:6s;" pathLength="3333" clip-path="url(#z37682c6)" d="M111 597L194 682"/>
<path style="--d:7s;" pathLength="3333" clip-path="url(#z37682c7)" d="M362 542L382 579L329 635"/>
<path style="--d:8s;" pathLength="3333" clip-path="url(#z37682c8)" d="M58 774L122 789L387 672"/>
<path style="--d:9s;" pathLength="3333" clip-path="url(#z37682c9)" d="M482 193L697 163L741 192L691 365L671 374"/>
<path style="--d:10s;" pathLength="3333" clip-path="url(#z37682c10)" d="M463 303L657 290"/>
<path style="--d:11s;" pathLength="3333" clip-path="url(#z37682c11)" d="M405 431L809 377L907 384"/>
<path style="--d:12s;" pathLength="3333" clip-path="url(#z37682c12)" d="M578 431L621 472L614 855L588 898L494 834"/>
<path style="--d:13s;" pathLength="3333" clip-path="url(#z37682c13)" d="M440 516L522 593"/>
<path style="--d:14s;" pathLength="3333" clip-path="url(#z37682c14)" d="M347 779L409 770L543 645"/>
<path style="--d:15s;" pathLength="3333" clip-path="url(#z37682c15)" d="M762 449L788 490L675 598"/>
<path style="--d:16s;" pathLength="3333" clip-path="url(#z37682c16)" d="M647 586L833 749L975 763"/>
<g class="guides"><circle style="--d: 1s" class="g1" cx="255" cy="85" r="16"/><path style="--d: 1s;" class="g1" d="M159,85 Q184.91954022988506,128.58429561200924 170.3793103448276,164.38568129330253 Q155.83908045977012,200.18706697459584 115.69540229885058,274.90300230946883 Q75.55172413793105,349.6189376443418 47.73563218390805,385.8094688221709 Q47.73563218390805,385.8094688221709 19.919540229885058,422"/><circle style="--d: 2s" class="g2" cx="309" cy="187" r="16"/><path style="--d: 2s;" class="g2" d="M309,283 L413,340"/><circle style="--d: 3s" class="g3" cx="171" cy="399" r="16"/><path style="--d: 3s;" class="g3" d="M171,495 L372,450"/><circle style="--d: 4s" class="g4" cx="140" cy="535" r="16"/><path style="--d: 4s;" class="g4" d="M140,631 L372,584"/><circle style="--d: 5s" class="g5" cx="283" cy="403" r="16"/><path style="--d: 5s;" class="g5" d="M403,403 L393,703"/><circle style="--d: 6s" class="g6" cx="111" cy="597" r="16"/><path style="--d: 6s;" class="g6" d="M196.68,528.456 L279.68,613.456"/><circle style="--d: 7s" class="g7" cx="362" cy="542" r="16"/><path style="--d: 7s;" class="g7" d="M266,542 Q276,560.5 272.6875,564 Q252.8125,585 249.5,588.5"/><circle style="--d: 8s" class="g8" cx="58" cy="774" r="16"/><path style="--d: 8s;" class="g8" d="M58,870 Q122,885 155.125,870.375 Q353.875,782.625 387,768"/><circle style="--d: 9s" class="g9" cx="482" cy="193" r="16"/><path style="--d: 9s;" class="g9" d="M482,289 Q597.3861003861003,259 603.2895752895753,266.25 Q621,288 612.949806949807,308.5 Q596.8494208494208,349.5 588.7992277992278,370"/><circle style="--d: 10s" class="g10" cx="463" cy="303" r="16"/><path style="--d: 10s;" class="g10" d="M463,399 L657,386"/><circle style="--d: 11s" class="g11" cx="405" cy="431" r="16"/><path style="--d: 11s;" class="g11" d="M405,527 Q809,473 821.25,473.875 Q894.75,479.125 907,480"/><circle style="--d: 12s" class="g12" cx="578" cy="431" r="16"/><path style="--d: 12s;" class="g12" d="M482,431 Q503.5,463.57173447537474 501.75,615.7055674518201 Q500,767.8394004282655 493.5,784.9197002141327 Q487,802 463.5,776.5781584582442 Q463.5,776.5781584582442 440,751.1563169164882"/><circle style="--d: 13s" class="g13" cx="440" cy="516" r="16"/><path style="--d: 13s;" class="g13" d="M525.68,447.456 L607.68,524.456"/><circle style="--d: 14s" class="g14" cx="347" cy="779" r="16"/><path style="--d: 14s;" class="g14" d="M347,683 Q409,674 425.75,658.375 Q526.25,564.625 543,549"/><circle style="--d: 15s" class="g15" cx="762" cy="449" r="16"/><path style="--d: 15s;" class="g15" d="M666,449 Q679,469.5 671.9375,476.25 Q629.5625,516.75 622.5,523.5"/><circle style="--d: 16s" class="g16" cx="647" cy="586" r="16"/><path style="--d: 16s;" class="g16" d="M732.68,517.456 Q870.0931707317072,655.1716610169492 883.2065243902439,656.6502033898305 Q961.8866463414633,665.5214576271187 975,667"/></g></svg>