<!--
  Stroke-order data for 鎗, derived from AnimCJK (https://github.com/parsimonhi/animCJK),
  itself derived from the Arphic PL KaitiM fonts. Distributed under the Arphic Public License
  (see ARPHICPL.TXT). Regenerated by scripts/build-strokes.ts — do not edit by hand.
-->
<svg id="z37783" class="acjk" viewBox="0 0 1024 1024" xmlns="http://www.w3.org/2000/svg">
<g class="glyph"><path style="--part:1" id="z37783d1" d="M183 413C236 336 291 230 300 215C308 200 308 200 312 192C320 176 328 163 338 154C344 147 344 139 341 130C337 121 327 109 306 97C287 85 272 81 260 83C247 84 244 93 251 107C270 145 244 227 173 353C139 411 100 473 52 537C46 544 41 549 41 554C39 561 44 564 53 562C75 555 113 511 169 433C178 420 178 420 183 413Z"/><path style="--part:1" id="z37783d2" d="M300 215Q307 221 320 229Q354 250 391 277Q403 286 414 284Q423 283 425 272Q428 260 418 238Q406 208 312 192C304 190 293 210 300 215Z"/><path style="--part:1" id="z37783d3" d="M286 429C341 412 369 402 370 402C375 396 374 390 372 386C366 379 354 373 337 372C317 370 300 375 283 383C268 389 253 395 238 400C221 404 203 409 183 413C175 415 162 429 169 433C181 442 219 448 249 440C274 433 274 433 286 429Z"/><path style="--part:1" id="z37783d4" d="M308 549C354 532 379 522 382 520C386 515 387 510 384 506C379 499 368 494 351 493C335 491 321 496 308 502C278 515 278 515 263 521C214 541 178 549 159 555C138 560 136 569 153 575C195 589 228 578 264 565C293 554 293 554 308 549Z"/><path style="--part:1" id="z37783d5" d="M304 737C306 708 308 605 308 549C308 518 308 518 308 502C308 449 323 451 286 429C275 422 244 428 249 440C257 462 262 487 263 521C264 550 264 550 264 565C264 607 264 669 265 750C265 764 304 751 304 737Z"/><path style="--part:1" id="z37783d6" d="M144 670Q163 691 183 716Q192 726 204 728Q211 729 217 719Q223 709 219 685Q215 661 145 632Q133 628 128 630Q124 631 124 642Q125 651 144 670Z"/><path style="--part:1" id="z37783d7" d="M356 604Q346 626 326 664Q323 668 327 672Q331 673 336 669Q381 626 403 609Q413 603 410 597Q404 588 390 579Q377 570 363 571Q353 572 356 585Q359 592 356 604Z"/><path style="--part:1" id="z37783d8" d="M265 750C225 763 182 775 139 790C127 793 114 795 96 795C86 795 82 800 82 807C81 816 83 822 90 827C103 836 120 848 144 858C148 860 156 857 165 852C249 792 322 765 392 723C408 712 405 696 386 702C364 708 326 729 304 737C278 746 278 746 265 750Z"/><path style="--part:2" id="z37783d9" d="M641 122C643 113 648 103 658 93C662 89 663 83 661 77C659 70 653 64 644 58C619 40 597 35 577 43C571 45 569 50 572 58C588 106 563 185 497 295C456 356 409 412 372 456C367 460 368 463 375 464C460 411 527 335 571 260C592 221 613 179 630 146C637 130 637 130 641 122Z"/><path style="--part:2" id="z37783d10" d="M630 146C684 212 733 267 794 331C809 346 829 354 856 356C904 358 932 354 983 348C1004 347 1006 334 991 328C959 315 935 305 897 291C790 250 714 180 641 122C634 117 625 139 630 146Z"/><path style="--part:2" id="z37783d11" d="M682 270C665 270 659 279 635 288C613 294 596 302 567 310C550 314 554 320 558 324C566 332 583 335 592 335C626 333 659 322 691 310C699 306 714 299 714 288C713 275 692 269 682 270Z"/><path style="--part:2" id="z37783d12" d="M685 600C695 612 704 619 713 623C721 627 729 622 739 608C747 594 757 548 773 473C777 452 787 434 803 418C810 409 810 401 803 393C792 382 773 368 746 353C720 337 709 354 672 366C652 371 626 379 554 399C544 401 558 430 567 426C593 415 632 404 683 393C706 387 719 399 717 420C711 469 707 531 686 564C680 574 678 590 685 600Z"/><path style="--part:2" id="z37783d13" d="M553 516C591 508 626 503 656 499C670 497 675 490 669 483C662 474 651 467 635 466C606 463 580 470 557 484C548 490 542 518 553 516Z"/><path style="--part:2" id="z37783d14" d="M535 623C589 612 641 604 685 600C697 598 698 566 686 564C660 554 585 582 541 592C531 594 525 625 535 623Z"/><path style="--part:2" id="z37783d15" d="M515 698C524 669 530 644 535 623C539 602 539 602 541 592C545 568 549 542 553 516C556 495 556 495 557 484C559 464 560 444 567 426C571 417 563 404 554 399C527 383 509 376 500 377C488 378 487 384 495 399C512 432 511 506 492 618C473 723 408 806 340 865C305 894 346 886 365 876C419 843 468 798 496 746C504 730 509 714 515 698Z"/><path style="--part:2" id="z37783d16" d="M530 703C526 701 521 699 515 698C498 695 490 730 496 746C504 774 513 808 518 850C519 866 524 879 533 891C553 919 556 897 560 872C560 872 560 847 559 836C555 797 550 754 553 734C556 721 542 708 530 703Z"/><path style="--part:2" id="z37783d17" d="M790 813C808 774 828 751 846 737C859 726 859 710 849 699C839 688 814 674 778 656C765 649 751 649 737 656C688 675 619 691 530 703C517 706 540 737 553 734C557 734 614 725 724 707C747 703 755 714 752 733C747 761 739 786 733 809C729 828 783 831 790 813Z"/><path style="--part:2" id="z37783d18" d="M560 872C592 873 734 854 805 852C839 845 819 826 790 813C774 803 752 806 733 809C668 821 610 830 559 836C547 838 548 872 560 872Z"/></g>
<defs><clipPath id="z37783c1"><use href="#z37783d1"/></clipPath>
	<clipPath id="z37783c2"><use href="#z37783d2"/></clipPath>
	<clipPath id="z37783c3"><use href="#z37783d3"/></clipPath>
	<clipPath id="z37783c4"><use href="#z37783d4"/></clipPath>
	<clipPath id="z37783c5"><use href="#z37783d5"/></clipPath>
	<clipPath id="z37783c6"><use href="#z37783d6"/></clipPath>
	<clipPath id="z37783c7"><use href="#z37783d7"/></clipPath>
	<clipPath id="z37783c8"><use href="#z37783d8"/></clipPath>
	<clipPath id="z37783c9"><use href="#z37783d9"/></clipPath>
	<clipPath id="z37783c10"><use href="#z37783d10"/></clipPath>
	<clipPath id="z37783c11"><use href="#z37783d11"/></clipPath>
	<clipPath id="z37783c12"><use href="#z37783d12"/></clipPath>
	<clipPath id="z37783c13"><use href="#z37783d13"/></clipPath>
	<clipPath id="z37783c14"><use href="#z37783d14"/></clipPath>
	<clipPath id="z37783c15"><use href="#z37783d15"/></clipPath>
	<clipPath id="z37783c16"><use href="#z37783d16"/></clipPath>
	<clipPath id="z37783c17"><use href="#z37783d17"/></clipPath>
	<clipPath id="z37783c18"><use href="#z37783d18"/></clipPath><marker id="guide-arrow" viewBox="0 0 16 16" refX="5" refY="5" markerWidth="4" markerHeight="4" orient="auto-start-reverse"><path d="M 0 0 L 10 5 L 0 10 z" fill="inherit"/></marker></defs>
<g class="strokes"><path style="--part:1" pathLength="3333" clip-path="url(#z37783c1)" d="M253 90L299 140L265 224L173 392L49 556"/><path style="--part:1" pathLength="3333" clip-path="url(#z37783c2)" d="M302 205L418 274"/><path style="--part:1" pathLength="3333" clip-path="url(#z37783c3)" d="M171 427L369 392"/><path style="--part:1" pathLength="3333" clip-path="url(#z37783c4)" d="M149 565L379 509"/><path style="--part:1" pathLength="3333" clip-path="url(#z37783c5)" d="M255 437L285 473L279 753"/><path style="--part:1" pathLength="3333" clip-path="url(#z37783c6)" d="M131 635L209 722"/><path style="--part:1" pathLength="3333" clip-path="url(#z37783c7)" d="M363 577L379 611L332 665"/><path style="--part:1" pathLength="3333" clip-path="url(#z37783c8)" d="M87 807L147 823L398 710"/><path style="--part:2" pathLength="3333" clip-path="url(#z37783c9)" d="M577 52L619 88L570 210L488 342L377 457"/><path style="--part:2" pathLength="3333" clip-path="url(#z37783c10)" d="M638 130L818 300L993 337"/><path style="--part:2" pathLength="3333" clip-path="url(#z37783c11)" d="M561 319L708 283"/><path style="--part:2" pathLength="3333" clip-path="url(#z37783c12)" d="M558 410L718 370L762 408L715 619"/><path style="--part:2" pathLength="3333" clip-path="url(#z37783c13)" d="M551 509L663 486"/><path style="--part:2" pathLength="3333" clip-path="url(#z37783c14)" d="M538 613L691 581"/><path style="--part:2" pathLength="3333" clip-path="url(#z37783c15)" d="M497 384L536 429L496 686L431 799L332 878"/><path style="--part:2" pathLength="3333" clip-path="url(#z37783c16)" d="M511 703L544 899"/><path style="--part:2" pathLength="3333" clip-path="url(#z37783c17)" d="M532 708L765 684L803 726L753 822"/><path style="--part:2" pathLength="3333" clip-path="url(#z37783c18)" d="M555 859L817 834"/></g>
<g class="guides"><text class="g1" style="--gs:1" x="253" y="90">①</text><path class="g1 aligned" style="--gs:1" d="M253,90 Q299,140 282,182 Q265,224 219,308 Q173,392 111,474 Q111,474 49,556"/><path class="g1 offset" style="--gs:1" d="M157,90 Q185.34,129.7 174.86,163.05 Q164.39,196.39 136.06,263.09 Q107.72,329.79 69.53,394.89 Q69.53,394.89 31.34,460"/><text class="g2" style="--gs:2" x="302" y="205">②</text><path class="g2 aligned" style="--gs:2" d="M302,205 L418,274"/><path class="g2 offset" style="--gs:2" d="M387.68,136.46 L503.68,205.46"/><text class="g3" style="--gs:3" x="171" y="427">③</text><path class="g3 aligned" style="--gs:3" d="M171,427 L369,392"/><path class="g3 offset" style="--gs:3" d="M171,523 L369,488"/><text class="g4" style="--gs:4" x="149" y="565">④</text><path class="g4 aligned" style="--gs:4" d="M149,565 L379,509"/><path class="g4 offset" style="--gs:4" d="M149,661 L379,605"/><text class="g5" style="--gs:5" x="255" y="437">⑤</text><path class="g5 aligned" style="--gs:5" d="M255,437 Q285,473 284.25,508 Q279.75,718 279,753"/><path class="g5 offset" style="--gs:5" d="M159,437 Q189,473 188.25,508 Q183.75,718 183,753"/><text class="g6" style="--gs:6" x="131" y="635">⑥</text><path class="g6 aligned" style="--gs:6" d="M131,635 L209,722"/><path class="g6 offset" style="--gs:6" d="M216.68,566.46 L294.68,653.46"/><text class="g7" style="--gs:7" x="363" y="577">⑦</text><path class="g7 aligned" style="--gs:7" d="M371,594 L332,665"/><path class="g7 offset" style="--gs:7" d="M491,594 L452,665"/><text class="g8" style="--gs:8" x="87" y="807">⑧</text><path class="g8 aligned" style="--gs:8" d="M87,807 Q147,823 178.38,808.88 Q366.63,724.13 398,710"/><path class="g8 offset" style="--gs:8" d="M87,903 Q147,919 178.38,904.88 Q366.63,820.13 398,806"/><text class="g9" style="--gs:9" x="577" y="52">⑨</text><path class="g9 aligned" style="--gs:9" d="M577,52 Q619,88 594.5,149 Q570,210 529,276 Q488,342 432.5,399.5 Q432.5,399.5 377,457"/><path class="g9 offset" style="--gs:9" d="M481,52 Q506.34,79.47 491.56,126.01 Q476.78,172.55 452.04,222.9 Q427.31,273.26 393.82,317.13 Q393.82,317.13 360.34,361"/><text class="g10" style="--gs:10" x="638" y="130">⑩</text><path class="g10 aligned" style="--gs:10" d="M638,130 Q818,300 839.88,304.63 Q971.13,332.38 993,337"/><path class="g10 offset" style="--gs:10" d="M723.68,61.46 Q860.24,208.91 876.83,212.92 Q976.4,236.99 993,241"/><text class="g11" style="--gs:11" x="561" y="319">⑪</text><path class="g11 aligned" style="--gs:11" d="M561,319 L708,283"/><path class="g11 offset" style="--gs:11" d="M561,415 L708,379"/><text class="g12" style="--gs:12" x="558" y="410">⑫</text><path class="g12 aligned" style="--gs:12" d="M558,410 Q718,370 729,379.5 Q762,408 750.25,460.75 Q726.75,566.25 715,619"/><path class="g12 offset" style="--gs:12" d="M558,506 Q638,466 643.5,475.5 Q660,504 654.13,532.75 Q642.38,590.25 636.5,619"/><text class="g13" style="--gs:13" x="551" y="509">⑬</text><path class="g13 aligned" style="--gs:13" d="M551,509 L663,486"/><path class="g13 offset" style="--gs:13" d="M551,605 L663,582"/><text class="g14" style="--gs:14" x="538" y="613">⑭</text><path class="g14 aligned" style="--gs:14" d="M538,613 L691,581"/><path class="g14 offset" style="--gs:14" d="M538,709 L691,677"/><text class="g15" style="--gs:15" x="497" y="384">⑮</text><path class="g15 aligned" style="--gs:15" d="M497,384 Q536,429 516,557.5 Q496,686 463.5,742.5 Q431,799 381.5,838.5 Q381.5,838.5 332,878"/><path class="g15 offset" style="--gs:15" d="M401,384 Q421.65,420.26 411.06,523.78 Q400.47,627.31 383.26,672.83 Q366.06,718.35 339.85,750.18 Q339.85,750.18 313.65,782"/><text class="g16" style="--gs:16" x="511" y="703">⑯</text><path class="g16 aligned" style="--gs:16" d="M511,703 L544,899"/><path class="g16 offset" style="--gs:16" d="M631,703 L664,899"/><text class="g17" style="--gs:17" x="532" y="708">⑰</text><path class="g17 aligned" style="--gs:17" d="M532,708 Q765,684 774.5,694.5 Q803,726 790.5,750 Q765.5,798 753,822"/><path class="g17 offset" style="--gs:17" d="M532,804 Q661.83,780 667.12,785.25 Q683,801 676.04,813 Q662.11,837 655.14,849"/><text class="g18" style="--gs:18" x="555" y="859">⑱</text><path class="g18 aligned" style="--gs:18" d="M555,859 L817,834"/><path class="g18 offset" style="--gs:18" d="M555,955 L817,930"/></g>
<g class="parts"><rect data-part="2" data-literal="倉" role="button" tabindex="0" aria-label="Part 倉" x="260" y="0" width="764" height="971"/><rect data-part="1" data-literal="金" data-radical="true" role="button" tabindex="0" aria-label="Part 金 (radical)" x="0" y="18" width="490" height="877"/></g>
</svg>
