<!--
  Stroke-order data for 鎧, derived from AnimCJK (https://github.com/parsimonhi/animCJK),
  itself derived from the Arphic PL KaitiM fonts. Distributed under the Arphic Public License
  (see ARPHICPL.TXT). Regenerated by scripts/build-strokes.ts — do not edit by hand.
-->
<svg id="z37799" class="acjk" viewBox="0 0 1024 1024" xmlns="http://www.w3.org/2000/svg">
<g class="glyph"><path id="z37799d1" d="M202 425Q203 422 206 420Q255 360 340 220C349 205 349 205 354 197Q367 175 382 162Q391 152 386 138Q382 126 354 105Q329 87 310 88Q292 89 300 111Q316 144 303 172Q237 334 70 534Q60 544 58 550Q55 560 69 558Q96 554 188 443C197 431 197 431 202 425Z"/><path id="z37799d2" d="M340 220Q346 226 360 236Q388 257 420 283Q432 293 445 292Q454 291 457 280Q460 267 452 243Q440 213 354 197C345 196 333 215 340 220Z"/><path id="z37799d3" d="M314 441Q351 428 392 418Q417 409 421 406Q428 399 424 390Q417 380 389 376Q368 373 288 404Q207 423 202 425C195 427 183 438 188 443Q212 467 276 452C301 445 301 445 314 441Z"/><path id="z37799d4" d="M338 568Q365 558 394 551Q425 541 429 536Q436 529 432 522Q425 512 399 508Q374 505 340 522C306 535 306 535 289 541Q282 542 276 545Q234 558 185 567Q154 574 178 588Q218 606 262 589Q272 585 289 582C322 573 322 573 338 568Z"/><path id="z37799d5" d="M329 749Q333 649 338 568C339 537 339 537 340 522Q340 510 343 489Q350 473 341 463Q328 450 314 441C303 434 269 441 276 452Q288 468 289 541C289 568 289 568 289 582Q289 645 288 761C288 775 329 763 329 749Z"/><path id="z37799d6" d="M168 664Q210 730 228 732Q238 735 246 721Q249 711 243 692Q236 677 217 666Q189 647 175 642Q168 641 165 649Q164 656 168 664Z"/><path id="z37799d7" d="M400 619Q387 646 359 687Q355 691 359 697Q365 697 370 693Q425 647 453 630Q466 626 462 618Q458 608 442 595Q427 583 411 583Q401 584 403 598Q404 608 400 619Z"/><path id="z37799d8" d="M288 761Q150 797 123 796Q110 797 107 807Q106 820 115 830Q137 846 172 866Q182 870 195 861Q226 837 399 761Q423 751 440 737Q453 730 454 720Q450 714 436 717Q385 732 329 749C302 757 302 757 288 761Z"/><path id="z37799d9" d="M676 289Q685 223 693 163Q697 147 699 136Q709 112 691 97Q660 81 639 76Q626 72 618 80Q611 87 618 100Q631 116 631 129Q638 207 638 299C638 312 673 302 676 289Z"/><path id="z37799d10" d="M780 271Q725 277 676 289C651 296 651 296 638 299Q595 306 557 320Q542 323 546 306Q558 243 552 229Q539 213 519 201Q509 195 501 196Q491 200 497 216Q510 253 503 287Q497 321 483 335Q467 350 473 362Q483 375 497 385Q509 392 518 385Q542 355 699 317Q751 304 772 305C784 305 791 269 780 271Z"/><path id="z37799d11" d="M773 307Q777 335 785 352Q792 367 804 357Q826 336 832 261Q850 203 853 200Q860 187 852 174Q836 161 807 142Q797 135 785 140Q778 144 780 156Q789 165 791 227Q787 252 780 271C775 282 771 295 773 307Z"/><path id="z37799d12" d="M519 435Q485 444 510 458Q558 479 605 463Q669 447 737 429Q768 420 772 415Q781 408 776 399Q769 389 739 383Q711 379 682 392Q648 405 610 417Q568 429 519 435Z"/><path id="z37799d13" d="M534 534Q524 528 489 525Q477 524 475 528Q469 535 479 549Q504 589 525 660Q529 682 544 694Q563 713 566 698Q567 692 567 686C566 667 566 667 565 657Q559 645 545 564C543 554 544 538 534 534Z"/><path id="z37799d14" d="M757 621Q778 567 808 546Q824 530 810 512Q732 455 692 487Q638 509 534 534C524 536 535 566 545 564Q560 561 699 525Q715 521 722 527Q729 534 726 548Q717 588 706 622C700 638 751 637 757 621Z"/><path id="z37799d15" d="M716 659Q740 655 771 651Q780 650 780 642Q780 635 757 621C742 612 723 619 706 622Q627 643 565 657C555 659 557 686 567 686Q571 686 577 685Q616 675 685 664C706 661 706 661 716 659Z"/><path id="z37799d16" d="M515 755Q533 801 556 820Q566 826 576 818Q583 811 586 797Q586 761 533 729Q523 722 515 722Q509 722 509 731Q508 741 515 755Z"/><path id="z37799d17" d="M683 827Q704 800 731 751Q738 738 753 719Q768 707 759 697Q750 681 721 662Q718 661 716 659C707 654 685 654 685 664Q684 667 687 673Q699 703 660 805Q653 820 651 832C649 843 677 836 683 827Z"/><path id="z37799d18" d="M651 832Q645 831 641 832Q532 845 404 859Q385 860 399 877Q412 890 429 896Q450 902 465 898Q592 865 875 865Q891 865 906 866Q925 867 930 858Q936 848 920 833Q863 793 800 809Q749 816 683 827C662 830 662 830 651 832Z"/></g>
<defs><clipPath id="z37799c1"><use href="#z37799d1"/></clipPath>
	<clipPath id="z37799c2"><use href="#z37799d2"/></clipPath>
	<clipPath id="z37799c3"><use href="#z37799d3"/></clipPath>
	<clipPath id="z37799c4"><use href="#z37799d4"/></clipPath>
	<clipPath id="z37799c5"><use href="#z37799d5"/></clipPath>
	<clipPath id="z37799c6"><use href="#z37799d6"/></clipPath>
	<clipPath id="z37799c7"><use href="#z37799d7"/></clipPath>
	<clipPath id="z37799c8"><use href="#z37799d8"/></clipPath>
	<clipPath id="z37799c9"><use href="#z37799d9"/></clipPath>
	<clipPath id="z37799c10"><use href="#z37799d10"/></clipPath>
	<clipPath id="z37799c11"><use href="#z37799d11"/></clipPath>
	<clipPath id="z37799c12"><use href="#z37799d12"/></clipPath>
	<clipPath id="z37799c13"><use href="#z37799d13"/></clipPath>
	<clipPath id="z37799c14"><use href="#z37799d14"/></clipPath>
	<clipPath id="z37799c15"><use href="#z37799d15"/></clipPath>
	<clipPath id="z37799c16"><use href="#z37799d16"/></clipPath>
	<clipPath id="z37799c17"><use href="#z37799d17"/></clipPath>
	<clipPath id="z37799c18"><use href="#z37799d18"/></clipPath><marker id="guide-arrow" viewBox="0 0 16 16" refX="5" refY="5" markerWidth="4" markerHeight="4" orient="auto-start-reverse"><path d="M 0 0 L 10 5 L 0 10 z" fill="inherit"/></marker></defs>
<g class="strokes"><path pathLength="3333" clip-path="url(#z37799c1)" d="M303 92L345 140L339 167L218 371L64 551"/><path pathLength="3333" clip-path="url(#z37799c2)" d="M346 217L412 242L446 285"/><path pathLength="3333" clip-path="url(#z37799c3)" d="M196 442L420 395"/><path pathLength="3333" clip-path="url(#z37799c4)" d="M176 577L427 529"/><path pathLength="3333" clip-path="url(#z37799c5)" d="M284 455L316 482L298 756"/><path pathLength="3333" clip-path="url(#z37799c6)" d="M173 652L238 726"/><path pathLength="3333" clip-path="url(#z37799c7)" d="M413 586L430 623L364 688"/><path pathLength="3333" clip-path="url(#z37799c8)" d="M112 807L178 827L447 722"/><path pathLength="3333" clip-path="url(#z37799c9)" d="M621 86L666 126L650 295"/><path pathLength="3333" clip-path="url(#z37799c10)" d="M504 200L529 245L509 334L523 351L775 281"/><path pathLength="3333" clip-path="url(#z37799c11)" d="M790 148L823 195L795 355"/><path pathLength="3333" clip-path="url(#z37799c12)" d="M506 445L774 404"/><path pathLength="3333" clip-path="url(#z37799c13)" d="M482 533L517 564L556 699"/><path pathLength="3333" clip-path="url(#z37799c14)" d="M540 536L714 500L752 511L770 540L723 621"/><path pathLength="3333" clip-path="url(#z37799c15)" d="M572 679L774 642"/><path pathLength="3333" clip-path="url(#z37799c16)" d="M515 729L568 817"/><path pathLength="3333" clip-path="url(#z37799c17)" d="M693 669L724 712L659 826"/><path pathLength="3333" clip-path="url(#z37799c18)" d="M400 866L457 876L838 834L925 855"/></g>
<g class="guides"><text class="g1" style="--gs:1" x="303" y="92">①</text><path class="g1 aligned" style="--gs:1" d="M303,92 Q345,140 342,153.5 Q339,167 278.5,269 Q218,371 141,461 Q141,461 64,551"/><path class="g1 offset" style="--gs:1" d="M207,92 Q234.65,129.96 232.68,140.64 Q230.7,151.31 190.87,231.98 Q151.04,312.65 100.35,383.82 Q100.35,383.82 49.65,455"/><text class="g2" style="--gs:2" x="346" y="217">②</text><path class="g2 aligned" style="--gs:2" d="M346,217 Q412,242 416.25,247.38 Q441.75,279.63 446,285"/><path class="g2 offset" style="--gs:2" d="M431.68,148.46 Q497.68,173.46 501.93,178.83 Q527.43,211.08 531.68,216.46"/><text class="g3" style="--gs:3" x="196" y="442">③</text><path class="g3 aligned" style="--gs:3" d="M196,442 L420,395"/><path class="g3 offset" style="--gs:3" d="M196,538 L420,491"/><text class="g4" style="--gs:4" x="176" y="577">④</text><path class="g4 aligned" style="--gs:4" d="M176,577 L427,529"/><path class="g4 offset" style="--gs:4" d="M176,673 L427,625"/><text class="g5" style="--gs:5" x="284" y="455">⑤</text><path class="g5 aligned" style="--gs:5" d="M300,469 L298,756"/><path class="g5 offset" style="--gs:5" d="M420,469 L418,756"/><text class="g6" style="--gs:6" x="173" y="652">⑥</text><path class="g6 aligned" style="--gs:6" d="M173,652 L238,726"/><path class="g6 offset" style="--gs:6" d="M258.68,583.46 L323.68,657.46"/><text class="g7" style="--gs:7" x="413" y="586">⑦</text><path class="g7 aligned" style="--gs:7" d="M422,605 L364,688"/><path class="g7 offset" style="--gs:7" d="M507.68,673.54 L449.68,756.54"/><text class="g8" style="--gs:8" x="112" y="807">⑧</text><path class="g8 aligned" style="--gs:8" d="M112,807 Q178,827 211.63,813.88 Q413.38,735.13 447,722"/><path class="g8 offset" style="--gs:8" d="M112,903 Q178,923 211.63,909.88 Q413.38,831.13 447,818"/><text class="g9" style="--gs:9" x="621" y="86">⑨</text><path class="g9 aligned" style="--gs:9" d="M621,86 Q666,126 664,147.13 Q652,273.88 650,295"/><path class="g9 offset" style="--gs:9" d="M525,86 Q570,126 568,147.13 Q556,273.88 554,295"/><text class="g10" style="--gs:10" x="504" y="200">⑩</text><path class="g10 aligned" style="--gs:10" d="M504,200 Q529,245 519,289.5 Q509,334 516,342.5 Q523,351 649,316 Q649,316 775,281"/><path class="g10 offset" style="--gs:10" d="M624,200 Q637.93,222.5 632.36,244.75 Q626.79,267 630.69,271.25 Q634.59,275.5 704.79,258 Q704.79,258 775,240.5"/><text class="g11" style="--gs:11" x="790" y="148">⑪</text><path class="g11 aligned" style="--gs:11" d="M790,148 Q823,195 819.5,215 Q798.5,335 795,355"/><path class="g11 offset" style="--gs:11" d="M694,148 Q727,195 723.5,215 Q702.5,335 699,355"/><text class="g12" style="--gs:12" x="506" y="445">⑫</text><path class="g12 aligned" style="--gs:12" d="M506,445 L774,404"/><path class="g12 offset" style="--gs:12" d="M506,541 L774,500"/><text class="g13" style="--gs:13" x="482" y="533">⑬</text><path class="g13 aligned" style="--gs:13" d="M482,533 Q517,564 521.88,580.88 Q551.13,682.13 556,699"/><path class="g13 offset" style="--gs:13" d="M567.68,464.46 Q602.68,495.46 607.55,512.33 Q636.8,613.58 641.68,630.46"/><text class="g14" style="--gs:14" x="540" y="536">⑭</text><path class="g14 aligned" style="--gs:14" d="M540,536 Q714,500 733,505.5 Q752,511 761,525.5 Q770,540 746.5,580.5 Q746.5,580.5 723,621"/><path class="g14 offset" style="--gs:14" d="M540,632 Q627,596 636.5,601.5 Q646,607 650.5,611.5 Q655,616 643.25,636.25 Q643.25,636.25 631.5,656.5"/><text class="g15" style="--gs:15" x="572" y="679">⑮</text><path class="g15 aligned" style="--gs:15" d="M572,679 L774,642"/><path class="g15 offset" style="--gs:15" d="M572,775 L774,738"/><text class="g16" style="--gs:16" x="515" y="729">⑯</text><path class="g16 aligned" style="--gs:16" d="M515,729 L568,817"/><path class="g16 offset" style="--gs:16" d="M600.68,660.46 L653.68,748.46"/><text class="g17" style="--gs:17" x="693" y="669">⑰</text><path class="g17 aligned" style="--gs:17" d="M693,669 Q724,712 715.88,726.25 Q667.13,811.75 659,826"/><path class="g17 offset" style="--gs:17" d="M597,669 Q628,712 619.88,726.25 Q571.13,811.75 563,826"/><text class="g18" style="--gs:18" x="400" y="866">⑱</text><path class="g18 aligned" style="--gs:18" d="M400,866 Q457,876 552.25,865.5 Q838,834 859.75,839.25 Q903.25,849.75 925,855"/><path class="g18 offset" style="--gs:18" d="M400,962 Q457,972 552.25,961.5 Q838,930 859.75,935.25 Q903.25,945.75 925,951"/></g>
</svg>
