<svg id="z37806" class="acjk" viewBox="0 0 1024 1024" xmlns="http://www.w3.org/2000/svg">
<style>

@keyframes zk {
	to {
		stroke-dashoffset:0;
	}
}
svg.acjk path[clip-path] {
	--t:0.8s;
	animation:zk var(--t) linear forwards var(--d);
	stroke-dasharray:3337;
	stroke-dashoffset:3339;
	stroke-width:128;
	stroke-linecap:round;
	fill:none;
	stroke:#000;
}
svg.acjk path[id] {fill:#ccc;}


    @keyframes guide-fade {
        0% { opacity: 0; }
        3% { opacity: 1; }
        95% { opacity: 1; }
        100% { opacity: 0; }
    }

    svg.acjk #guide-arrow {
        fill: #f77;
    }

    svg.acjk .guides {
        circle {
            fill: #0f6;
        }

        path {
            opacity: 0;
            animation: guide-fade var(--t) linear forwards var(--d);
            stroke-width: 16px;
            stroke-linecap: round;
            stroke: #f77;
            fill: none;
            marker-end: url(#guide-arrow);
        }

        circle,
        path {
            --t: 0.8s;
            opacity: 0;
            animation: guide-fade calc(var(--t) + 0.4s) ease-in-out forwards calc(var(--d) - 0.2s);
        }
    }
</style>
<path id="z37806d1" d="M334 191C339 183 344 175 352 169C358 163 359 154 356 145C353 136 342 124 322 111C304 98 288 93 276 94C263 95 260 104 267 118C276 139 277 158 271 176C230 280 162 395 66 519C59 526 55 532 54 536C52 543 55 546 65 544C107 532 175 454 267 305C296 256 312 222 321 210C330 197 330 197 334 191Z"/>
<path id="z37806d2" d="M321 210C325 215 332 221 343 228C367 245 393 264 419 285C425 291 433 294 442 293C446 293 450 289 453 282C455 274 453 263 448 247C439 223 402 205 337 191C336 191 335 191 334 191C326 191 316 204 321 210Z"/>
<path id="z37806d3" d="M301 441C369 421 403 410 405 409C409 405 410 399 407 395C402 388 392 384 377 382C360 379 344 383 329 390C310 398 290 405 270 411C247 418 222 421 197 427C176 431 174 437 190 446C208 455 232 460 262 452C288 445 288 445 301 441Z"/>
<path id="z37806d4" d="M318 547C334 541 353 536 373 530C391 524 402 520 405 517C409 513 410 507 407 503C402 496 392 492 377 491C368 490 348 492 320 504C288 517 288 517 272 523C258 528 209 540 180 547C160 550 158 559 173 566C196 577 228 574 273 561C303 552 303 552 318 547Z"/>
<path id="z37806d5" d="M312 717C314 655 315 598 318 547C319 518 319 518 320 504C321 476 317 454 301 441C291 431 259 439 262 452C268 474 271 498 272 523C273 548 273 548 273 561C274 617 273 729 273 729C273 743 312 731 312 717Z"/>
<path id="z37806d6" d="M163 664C192 696 209 716 216 718C220 719 224 715 229 709C232 702 232 691 231 675C229 665 223 655 209 647C174 628 154 622 148 624C145 625 143 629 143 636C143 642 151 650 163 664Z"/>
<path id="z37806d7" d="M376 598C371 611 361 627 350 649C347 652 347 656 351 658C354 659 357 657 361 655C388 630 410 613 426 605C433 601 436 598 434 593C430 586 423 579 414 573C405 566 395 562 385 563C377 563 376 568 378 577C378 583 378 591 376 598Z"/>
<path id="z37806d8" d="M273 729C178 758 120 773 97 774C87 774 83 779 83 785C82 794 84 800 90 805C104 814 121 826 144 837C149 839 157 838 165 832C183 818 247 782 361 730C376 722 389 714 401 706C408 700 416 695 414 690C411 684 375 697 312 717C286 725 286 725 273 729Z"/>
<path id="z37806d9" d="M652 226C694 218 738 210 783 202C815 196 833 189 840 185C845 180 848 174 845 168C840 159 828 152 808 148C787 142 767 145 747 152C718 161 690 169 662 176C627 184 627 184 609 188C568 197 537 202 493 207C467 209 464 218 482 230C506 246 551 243 606 234C637 229 637 229 652 226Z"/>
<path id="z37806d10" d="M596 319C600 289 604 261 606 234C608 203 608 203 609 188C611 158 613 129 614 101C614 91 609 78 602 63C597 54 599 47 604 43C609 39 616 38 625 41C639 45 657 53 675 67C686 75 690 85 687 91C677 108 669 136 662 176C655 209 655 209 652 226C646 253 640 280 635 307C632 320 593 332 596 319Z"/>
<path id="z37806d11" d="M528 331C524 327 514 321 499 315C493 312 486 312 481 315C476 317 477 322 480 329C481 333 483 338 485 343C497 377 502 425 493 534C487 595 486 608 496 623C498 627 501 632 506 638C512 644 517 645 523 638C527 632 531 626 532 619C534 599 534 599 535 589C535 583 536 579 536 531C536 514 536 514 536 506C536 484 535 462 536 440C537 425 537 425 537 418C538 392 537 386 539 360C539 350 536 337 528 331Z"/>
<path id="z37806d12" d="M733 597C733 604 735 613 739 619C743 629 754 640 764 640C772 640 783 625 792 609C798 597 804 580 803 566C798 532 792 491 792 414C791 391 797 368 811 347C817 337 819 327 813 322C794 306 769 293 739 281C729 276 716 278 702 284C692 288 697 287 635 307C609 315 609 315 596 319C582 323 539 328 528 331C518 333 529 360 539 360C543 360 548 360 553 359C657 331 712 322 722 330C733 339 739 366 740 392C741 424 740 552 734 575C733 590 733 590 733 597Z"/>
<path id="z37806d13" d="M536 440C538 441 542 441 546 440C596 432 641 425 679 420C691 418 695 414 691 406C685 398 675 393 661 390C639 388 597 398 537 418C530 421 529 439 536 440Z"/>
<path id="z37806d14" d="M540 531C594 523 642 516 682 510C694 508 699 504 695 496C689 488 679 483 665 480C653 478 610 487 536 506C528 507 528 531 536 531C539 531 539 531 540 531Z"/>
<path id="z37806d15" d="M532 619C538 619 544 619 551 618C589 610 649 603 733 597C740 597 739 580 734 575C731 571 726 567 720 563C710 559 696 558 679 562C624 575 576 584 535 589C525 591 522 619 532 619Z"/>
<path id="z37806d16" d="M446 693C432 695 429 700 441 712C449 720 460 726 473 730C486 734 501 731 512 729C600 705 745 691 893 695C908 695 925 694 931 684C935 676 931 667 919 658C886 635 847 637 806 646C672 674 539 679 446 693Z"/>
<path id="z37806d17" d="M518 765C505 803 455 856 364 920C350 929 351 931 369 932C403 932 480 901 542 846C552 836 565 825 588 807C596 800 600 793 599 786C597 777 587 769 571 762C552 753 538 749 530 751C525 751 520 756 518 765Z"/>
<path id="z37806d18" d="M697 771C729 806 766 848 805 899C815 912 824 922 834 925C839 926 845 923 851 918C859 909 861 890 855 862C847 824 794 784 700 741C693 738 690 738 689 747C688 755 690 764 697 771Z"/>
<defs>
	<clipPath id="z37806c1"><use href="#z37806d1"/></clipPath>
	<clipPath id="z37806c2"><use href="#z37806d2"/></clipPath>
	<clipPath id="z37806c3"><use href="#z37806d3"/></clipPath>
	<clipPath id="z37806c4"><use href="#z37806d4"/></clipPath>
	<clipPath id="z37806c5"><use href="#z37806d5"/></clipPath>
	<clipPath id="z37806c6"><use href="#z37806d6"/></clipPath>
	<clipPath id="z37806c7"><use href="#z37806d7"/></clipPath>
	<clipPath id="z37806c8"><use href="#z37806d8"/></clipPath>
	<clipPath id="z37806c9"><use href="#z37806d9"/></clipPath>
	<clipPath id="z37806c10"><use href="#z37806d10"/></clipPath>
	<clipPath id="z37806c11"><use href="#z37806d11"/></clipPath>
	<clipPath id="z37806c12"><use href="#z37806d12"/></clipPath>
	<clipPath id="z37806c13"><use href="#z37806d13"/></clipPath>
	<clipPath id="z37806c14"><use href="#z37806d14"/></clipPath>
	<clipPath id="z37806c15"><use href="#z37806d15"/></clipPath>
	<clipPath id="z37806c16"><use href="#z37806d16"/></clipPath>
	<clipPath id="z37806c17"><use href="#z37806d17"/></clipPath>
	<clipPath id="z37806c18"><use href="#z37806d18"/></clipPath>
<marker id="guide-arrow" viewBox="0 0 16 16" refX="5" refY="5" markerWidth="4" markerHeight="4" orient="auto-start-reverse"><path d="M 0 0 L 10 5 L 0 10 z" fill="inherit"/></marker></defs>
<path style="--d:1s;" pathLength="3333" clip-path="url(#z37806c1)" d="M272 100L314 145L311 168L178 400L61 536"/>
<path style="--d:2s;" pathLength="3333" clip-path="url(#z37806c2)" d="M330 210L413 246L441 287"/>
<path style="--d:3s;" pathLength="3333" clip-path="url(#z37806c3)" d="M188 436L404 396"/>
<path style="--d:4s;" pathLength="3333" clip-path="url(#z37806c4)" d="M172 556L405 507"/>
<path style="--d:5s;" pathLength="3333" clip-path="url(#z37806c5)" d="M268 456L295 492L289 723"/>
<path style="--d:6s;" pathLength="3333" clip-path="url(#z37806c6)" d="M150 630L220 711"/>
<path style="--d:7s;" pathLength="3333" clip-path="url(#z37806c7)" d="M386 571L402 598L357 651"/>
<path style="--d:8s;" pathLength="3333" clip-path="url(#z37806c8)" d="M87 787L160 798L406 695"/>
<path style="--d:9s;" pathLength="3333" clip-path="url(#z37806c9)" d="M479 216L840 173"/>
<path style="--d:10s;" pathLength="3333" clip-path="url(#z37806c10)" d="M606 46L650 96L601 312"/>
<path style="--d:11s;" pathLength="3333" clip-path="url(#z37806c11)" d="M485 323L516 367L515 637"/>
<path style="--d:12s;" pathLength="3333" clip-path="url(#z37806c12)" d="M536 333L727 304L775 343L760 636"/>
<path style="--d:13s;" pathLength="3333" clip-path="url(#z37806c13)" d="M543 432L687 408"/>
<path style="--d:14s;" pathLength="3333" clip-path="url(#z37806c14)" d="M546 522L688 498"/>
<path style="--d:15s;" pathLength="3333" clip-path="url(#z37806c15)" d="M537 611L730 585"/>
<path style="--d:16s;" pathLength="3333" clip-path="url(#z37806c16)" d="M442 701L926 672"/>
<path style="--d:17s;" pathLength="3333" clip-path="url(#z37806c17)" d="M533 756L549 798L467 869L363 926"/>
<path style="--d:18s;" pathLength="3333" clip-path="url(#z37806c18)" d="M696 747L812 852L841 921"/>
<g class="guides"><circle style="--d: 1s" class="g1" cx="272" cy="100" r="16"/><path style="--d: 1s;" class="g1" d="M176,100 Q202.06324110671937,135.09174311926606 201.1324110671937,144.05963302752292 Q200.201581027668,153.0275229357798 158.93478260869566,243.4862385321101 Q117.66798418972331,333.9449541284404 81.36561264822134,386.9724770642202 Q81.36561264822134,386.9724770642202 45.063241106719374,440"/><circle style="--d: 2s" class="g2" cx="330" cy="210" r="16"/><path style="--d: 2s;" class="g2" d="M415.68,141.45600000000002 Q498.68,177.45600000000002 502.18,182.58100000000002 Q523.18,213.33100000000002 526.68,218.45600000000002"/><circle style="--d: 3s" class="g3" cx="188" cy="436" r="16"/><path style="--d: 3s;" class="g3" d="M188,532 L404,492"/><circle style="--d: 4s" class="g4" cx="172" cy="556" r="16"/><path style="--d: 4s;" class="g4" d="M172,652 L405,603"/><circle style="--d: 5s" class="g5" cx="268" cy="456" r="16"/><path style="--d: 5s;" class="g5" d="M172,456 Q199,492 198.25,520.875 Q193.75,694.125 193,723"/><circle style="--d: 6s" class="g6" cx="150" cy="630" r="16"/><path style="--d: 6s;" class="g6" d="M235.68,561.456 L305.68,642.456"/><circle style="--d: 7s" class="g7" cx="394" cy="585" r="16"/><path style="--d: 7s;" class="g7" d="M514,585 L477,651"/><circle style="--d: 8s" class="g8" cx="87" cy="787" r="16"/><path style="--d: 8s;" class="g8" d="M87,883 Q160,894 190.75,881.125 Q375.25,803.875 406,791"/><circle style="--d: 9s" class="g9" cx="479" cy="216" r="16"/><path style="--d: 9s;" class="g9" d="M479,312 L840,269"/><circle style="--d: 10s" class="g10" cx="606" cy="46" r="16"/><path style="--d: 10s;" class="g10" d="M510,46 Q554,96 547.875,123 Q511.125,285 505,312"/><circle style="--d: 11s" class="g11" cx="485" cy="323" r="16"/><path style="--d: 11s;" class="g11" d="M389,323 Q420,367 419.875,400.75 Q419.125,603.25 419,637"/><circle style="--d: 12s" class="g12" cx="536" cy="333" r="16"/><path style="--d: 12s;" class="g12" d="M536,429 Q631.5,400 637.5,406.93072289156623 Q655.5,427.72289156626505 653.625,479.7921686746988 Q649.875,583.9307228915662 648,636"/><circle style="--d: 13s" class="g13" cx="543" cy="432" r="16"/><path style="--d: 13s;" class="g13" d="M543,528 L687,504"/><circle style="--d: 14s" class="g14" cx="546" cy="522" r="16"/><path style="--d: 14s;" class="g14" d="M546,618 L688,594"/><circle style="--d: 15s" class="g15" cx="537" cy="611" r="16"/><path style="--d: 15s;" class="g15" d="M537,707 L730,681"/><circle style="--d: 16s" class="g16" cx="442" cy="701" r="16"/><path style="--d: 16s;" class="g16" d="M442,797 L926,768"/><circle style="--d: 17s" class="g17" cx="533" cy="756" r="16"/><path style="--d: 17s;" class="g17" d="M437,756 Q445,777 434.75,785.875 Q404,812.5 391,819.625 Q365,833.875 352,841"/><circle style="--d: 18s" class="g18" cx="696" cy="747" r="16"/><path style="--d: 18s;" class="g18" d="M781.68,678.456 Q897.68,783.456 901.305,792.081 Q923.055,843.831 926.68,852.456"/></g></svg>