<!--
  Stroke-order data for 鏑, derived from AnimCJK (https://github.com/parsimonhi/animCJK),
  itself derived from the Arphic PL KaitiM fonts. Distributed under the Arphic Public License
  (see ARPHICPL.TXT). Regenerated by scripts/build-strokes.ts — do not edit by hand.
-->
<svg id="z37841" class="acjk" viewBox="0 0 1024 1024" xmlns="http://www.w3.org/2000/svg">
<g class="glyph"><path style="--part:1" id="z37841d1" d="M349 186C357 171 367 161 377 152C383 145 385 137 382 128C379 119 369 105 350 92C332 78 317 73 305 74C292 74 287 82 294 97C302 119 301 138 295 159C272 233 144 415 55 518C29 546 54 542 74 528C182 453 316 243 337 207C345 193 345 193 349 186Z"/><path style="--part:1" id="z37841d2" d="M337 207C364 228 395 253 419 274C425 280 433 283 442 283C446 282 450 278 453 272C455 264 454 251 449 237C444 223 433 211 413 204C392 195 371 191 349 186C341 184 331 202 337 207Z"/><path style="--part:1" id="z37841d3" d="M315 437C335 431 357 424 380 418C394 413 403 410 405 408C409 403 409 398 407 394C401 387 390 382 375 380C362 378 317 395 276 408C254 414 231 418 209 423C188 427 184 435 202 444C222 455 249 456 277 448C302 441 302 441 315 437Z"/><path style="--part:1" id="z37841d4" d="M339 547C386 533 410 524 412 523C416 518 417 513 415 509C409 502 399 498 385 496C369 493 356 496 341 502C306 514 306 514 289 520C265 528 218 539 189 545C170 548 167 555 182 564C204 575 232 576 289 561C322 552 322 552 339 547Z"/><path style="--part:1" id="z37841d5" d="M330 736C332 666 336 603 339 547C340 517 340 517 341 502C342 457 355 461 315 437C304 430 272 436 277 448C285 464 289 486 289 520C289 547 289 547 289 561C289 601 288 664 288 748C288 763 330 751 330 736Z"/><path style="--part:1" id="z37841d6" d="M162 644C187 690 208 715 220 719C226 721 234 718 239 709C242 702 241 691 238 680C234 668 224 660 213 651C193 636 180 626 171 623C166 620 163 623 161 629C159 633 158 638 162 644Z"/><path style="--part:1" id="z37841d7" d="M397 604C390 618 379 638 363 662C360 666 358 670 363 673C365 675 371 672 375 670C409 644 435 624 453 616C461 612 465 607 463 603C459 593 451 586 442 579C431 569 421 565 410 566C402 566 398 570 400 581C401 586 401 595 397 604Z"/><path style="--part:1" id="z37841d8" d="M288 748C227 765 178 785 122 788C113 788 107 792 107 799C105 807 107 814 114 819C127 830 146 841 168 852C174 855 181 852 189 847C278 787 370 761 425 724C451 705 437 702 411 710C393 716 366 725 330 736C302 744 302 744 288 748Z"/><path style="--part:2" id="z37841d9" d="M632 109C652 123 672 140 694 159C702 166 711 169 721 169C727 168 732 164 735 156C737 147 736 133 729 115C721 94 686 78 626 65C616 62 609 62 606 65C603 67 601 73 603 81C604 88 615 96 632 109Z"/><path style="--part:2" id="z37841d10" d="M769 241C787 238 806 234 826 232C864 226 885 219 891 215C896 210 898 205 896 200C891 191 880 184 862 179C846 174 803 184 733 199C639 218 561 224 501 229C476 230 472 240 490 251C515 266 553 270 601 264C639 258 678 253 720 248C753 243 753 243 769 241Z"/><path style="--part:2" id="z37841d11" d="M559 323C577 362 592 385 607 391C613 393 620 390 625 382C628 375 627 366 625 355C622 344 614 337 604 329C586 315 575 306 568 303C563 300 560 303 558 309C556 313 556 317 559 323Z"/><path style="--part:2" id="z37841d12" d="M703 405C702 404 702 404 704 404C782 251 811 277 769 241C757 229 717 232 720 248C728 287 702 347 678 410C675 418 698 412 703 405Z"/><path style="--part:2" id="z37841d13" d="M517 436C507 428 496 420 483 419C466 417 468 428 473 440C500 510 500 611 476 738C466 787 462 804 461 821C459 837 472 855 480 864C487 872 492 871 499 864C516 843 527 798 528 726C528 601 532 516 541 470C544 456 528 444 517 436Z"/><path style="--part:2" id="z37841d14" d="M541 470C618 448 706 427 788 419C836 414 841 442 844 476C851 578 852 688 848 806C847 832 838 843 816 838C804 835 788 828 767 821C745 813 754 832 763 840C797 871 820 902 838 926C848 940 861 945 869 944C877 942 885 932 893 915C904 887 913 852 912 811C906 662 899 559 900 504C900 479 904 460 912 446C918 433 918 423 913 416C906 406 889 394 860 379C849 373 837 371 825 375C798 383 758 393 703 405C686 408 686 408 678 410C621 421 577 428 517 436C503 439 527 473 541 470Z"/><path style="--part:2" id="z37841d15" d="M689 553C754 540 787 530 789 529C793 525 794 521 792 517C788 511 780 505 765 502C748 497 727 508 697 515C668 521 668 521 653 524C628 529 602 533 576 536C557 537 554 545 568 553C598 570 625 564 652 560C677 555 677 555 689 553Z"/><path style="--part:2" id="z37841d16" d="M674 628C678 601 684 576 689 553C694 528 694 528 697 515C698 509 700 499 708 486C710 481 707 474 698 468C684 458 672 453 662 450C655 447 650 448 646 452C642 454 641 459 645 466C651 478 653 496 653 524C652 548 652 548 652 560C651 582 649 607 646 635C644 644 672 637 674 628Z"/><path style="--part:2" id="z37841d17" d="M607 642C601 638 590 634 575 631C556 626 558 640 563 650C574 678 584 714 589 760C590 772 594 783 602 794C622 820 616 798 623 769C625 759 621 748 621 739C618 710 616 678 616 666C616 657 615 646 607 642Z"/><path style="--part:2" id="z37841d18" d="M762 726C772 697 784 679 796 670C810 656 810 644 797 635C786 628 773 618 757 608C746 600 734 599 724 606C708 615 692 623 674 628C655 633 655 633 646 635C633 638 620 639 607 642C599 644 608 668 616 666C616 666 645 661 702 650C729 644 731 661 727 680C723 692 720 706 716 720C713 735 756 740 762 726Z"/><path style="--part:2" id="z37841d19" d="M623 769C647 765 728 756 771 754C794 748 778 733 762 726C748 720 731 717 716 720C683 726 650 734 621 739C611 741 613 771 623 769Z"/></g>
<defs><clipPath id="z37841c1"><use href="#z37841d1"/></clipPath>
	<clipPath id="z37841c2"><use href="#z37841d2"/></clipPath>
	<clipPath id="z37841c3"><use href="#z37841d3"/></clipPath>
	<clipPath id="z37841c4"><use href="#z37841d4"/></clipPath>
	<clipPath id="z37841c5"><use href="#z37841d5"/></clipPath>
	<clipPath id="z37841c6"><use href="#z37841d6"/></clipPath>
	<clipPath id="z37841c7"><use href="#z37841d7"/></clipPath>
	<clipPath id="z37841c8"><use href="#z37841d8"/></clipPath>
	<clipPath id="z37841c9"><use href="#z37841d9"/></clipPath>
	<clipPath id="z37841c10"><use href="#z37841d10"/></clipPath>
	<clipPath id="z37841c11"><use href="#z37841d11"/></clipPath>
	<clipPath id="z37841c12"><use href="#z37841d12"/></clipPath>
	<clipPath id="z37841c13"><use href="#z37841d13"/></clipPath>
	<clipPath id="z37841c14"><use href="#z37841d14"/></clipPath>
	<clipPath id="z37841c15"><use href="#z37841d15"/></clipPath>
	<clipPath id="z37841c16"><use href="#z37841d16"/></clipPath>
	<clipPath id="z37841c17"><use href="#z37841d17"/></clipPath>
	<clipPath id="z37841c18"><use href="#z37841d18"/></clipPath>
	<clipPath id="z37841c19"><use href="#z37841d19"/></clipPath><marker id="guide-arrow" viewBox="0 0 16 16" refX="5" refY="5" markerWidth="4" markerHeight="4" orient="auto-start-reverse"><path d="M 0 0 L 10 5 L 0 10 z" fill="inherit"/></marker></defs>
<g class="strokes"><path style="--part:1" pathLength="3333" clip-path="url(#z37841c1)" d="M299 82L341 140L304 209L186 385L54 532"/><path style="--part:1" pathLength="3333" clip-path="url(#z37841c2)" d="M340 199L412 232L442 277"/><path style="--part:1" pathLength="3333" clip-path="url(#z37841c3)" d="M198 433L403 397"/><path style="--part:1" pathLength="3333" clip-path="url(#z37841c4)" d="M182 554L408 509"/><path style="--part:1" pathLength="3333" clip-path="url(#z37841c5)" d="M285 446L315 477L309 751"/><path style="--part:1" pathLength="3333" clip-path="url(#z37841c6)" d="M168 628L231 713"/><path style="--part:1" pathLength="3333" clip-path="url(#z37841c7)" d="M409 572L428 607L368 667"/><path style="--part:1" pathLength="3333" clip-path="url(#z37841c8)" d="M111 799L169 818L428 711"/><path style="--part:2" pathLength="3333" clip-path="url(#z37841c9)" d="M609 69L729 160"/><path style="--part:2" pathLength="3333" clip-path="url(#z37841c10)" d="M487 238L892 205"/><path style="--part:2" pathLength="3333" clip-path="url(#z37841c11)" d="M565 308L617 383"/><path style="--part:2" pathLength="3333" clip-path="url(#z37841c12)" d="M726 240L753 275L685 408"/><path style="--part:2" pathLength="3333" clip-path="url(#z37841c13)" d="M478 424L513 476L485 862"/><path style="--part:2" pathLength="3333" clip-path="url(#z37841c14)" d="M519 442L824 397L876 430L874 849L846 890L763 825"/><path style="--part:2" pathLength="3333" clip-path="url(#z37841c15)" d="M565 543L784 518"/><path style="--part:2" pathLength="3333" clip-path="url(#z37841c16)" d="M648 456L679 488L656 634"/><path style="--part:2" pathLength="3333" clip-path="url(#z37841c17)" d="M566 639L594 668L612 798"/><path style="--part:2" pathLength="3333" clip-path="url(#z37841c18)" d="M611 648L735 627L766 657L732 730"/><path style="--part:2" pathLength="3333" clip-path="url(#z37841c19)" d="M617 751L777 741"/></g>
<g class="guides"><text class="g1" style="--gs:1" x="299" y="82">①</text><path class="g1 aligned" style="--gs:1" d="M299,82 Q341,140 322.5,174.5 Q304,209 245,297 Q186,385 120,458.5 Q120,458.5 54,532"/><path class="g1 offset" style="--gs:1" d="M203,82 Q230.95,127.63 218.64,154.77 Q206.33,181.91 167.06,251.13 Q127.8,320.36 83.87,378.18 Q83.87,378.18 39.95,436"/><text class="g2" style="--gs:2" x="340" y="199">②</text><path class="g2 aligned" style="--gs:2" d="M340,199 Q412,232 415.75,237.63 Q438.25,271.38 442,277"/><path class="g2 offset" style="--gs:2" d="M425.68,130.46 Q497.68,163.46 501.43,169.08 Q523.93,202.83 527.68,208.46"/><text class="g3" style="--gs:3" x="198" y="433">③</text><path class="g3 aligned" style="--gs:3" d="M198,433 L403,397"/><path class="g3 offset" style="--gs:3" d="M198,529 L403,493"/><text class="g4" style="--gs:4" x="182" y="554">④</text><path class="g4 aligned" style="--gs:4" d="M182,554 L408,509"/><path class="g4 offset" style="--gs:4" d="M182,650 L408,605"/><text class="g5" style="--gs:5" x="285" y="446">⑤</text><path class="g5 aligned" style="--gs:5" d="M285,446 Q315,477 314.25,511.25 Q309.75,716.75 309,751"/><path class="g5 offset" style="--gs:5" d="M189,446 Q219,477 218.25,511.25 Q213.75,716.75 213,751"/><text class="g6" style="--gs:6" x="168" y="628">⑥</text><path class="g6 aligned" style="--gs:6" d="M168,628 L231,713"/><path class="g6 offset" style="--gs:6" d="M253.68,559.46 L316.68,644.46"/><text class="g7" style="--gs:7" x="409" y="572">⑦</text><path class="g7 aligned" style="--gs:7" d="M419,590 L368,667"/><path class="g7 offset" style="--gs:7" d="M504.68,658.54 L453.68,735.54"/><text class="g8" style="--gs:8" x="111" y="799">⑧</text><path class="g8 aligned" style="--gs:8" d="M111,799 Q169,818 201.38,804.63 Q395.63,724.38 428,711"/><path class="g8 offset" style="--gs:8" d="M111,895 Q169,914 201.38,900.63 Q395.63,820.38 428,807"/><text class="g9" style="--gs:9" x="609" y="69">⑨</text><path class="g9 aligned" style="--gs:9" d="M609,69 L729,160"/><path class="g9 offset" style="--gs:9" d="M694.68,0.46 L814.68,91.46"/><text class="g10" style="--gs:10" x="487" y="238">⑩</text><path class="g10 aligned" style="--gs:10" d="M487,238 L892,205"/><path class="g10 offset" style="--gs:10" d="M487,334 L892,301"/><text class="g11" style="--gs:11" x="565" y="308">⑪</text><path class="g11 aligned" style="--gs:11" d="M565,308 L617,383"/><path class="g11 offset" style="--gs:11" d="M650.68,239.46 L702.68,314.46"/><text class="g12" style="--gs:12" x="726" y="240">⑫</text><path class="g12 aligned" style="--gs:12" d="M726,240 Q753,275 744.5,291.63 Q693.5,391.38 685,408"/><path class="g12 offset" style="--gs:12" d="M630,240 Q657,275 648.5,291.63 Q597.5,391.38 589,408"/><text class="g13" style="--gs:13" x="478" y="424">⑬</text><path class="g13 aligned" style="--gs:13" d="M478,424 Q513,476 509.5,524.25 Q488.5,813.75 485,862"/><path class="g13 offset" style="--gs:13" d="M382,424 Q417,476 413.5,524.25 Q392.5,813.75 389,862"/><text class="g14" style="--gs:14" x="519" y="442">⑭</text><path class="g14 aligned" style="--gs:14" d="M519,442 Q824,397 850,413.5 Q876,430 875,639.5 Q874,849 860,869.5 Q846,890 804.5,857.5 Q804.5,857.5 763,825"/><path class="g14 offset" style="--gs:14" d="M519,538 Q741.98,493 760.99,509.5 Q780,526 779.27,639.69 Q778.54,753.38 768.3,765.19 Q758.07,777 727.73,758.28 Q727.73,758.28 697.39,739.56"/><text class="g15" style="--gs:15" x="565" y="543">⑮</text><path class="g15 aligned" style="--gs:15" d="M565,543 L784,518"/><path class="g15 offset" style="--gs:15" d="M565,639 L784,614"/><text class="g16" style="--gs:16" x="648" y="456">⑯</text><path class="g16 aligned" style="--gs:16" d="M648,456 Q679,488 676.13,506.25 Q658.88,615.75 656,634"/><path class="g16 offset" style="--gs:16" d="M552,456 Q583,488 580.13,506.25 Q562.88,615.75 560,634"/><text class="g17" style="--gs:17" x="566" y="639">⑰</text><path class="g17 aligned" style="--gs:17" d="M580,654 L612,798"/><path class="g17 offset" style="--gs:17" d="M700,654 L732,798"/><text class="g18" style="--gs:18" x="611" y="648">⑱</text><path class="g18 aligned" style="--gs:18" d="M611,648 Q735,627 742.75,634.5 Q766,657 757.5,675.25 Q740.5,711.75 732,730"/><path class="g18 offset" style="--gs:18" d="M611,744 Q673,723 676.88,726.75 Q688.5,738 684.25,747.13 Q675.75,765.38 671.5,774.5"/><text class="g19" style="--gs:19" x="617" y="751">⑲</text><path class="g19 aligned" style="--gs:19" d="M617,751 L777,741"/><path class="g19 offset" style="--gs:19" d="M617,847 L777,837"/></g>
<g class="parts"><rect data-part="2" data-literal="啇" role="button" tabindex="0" aria-label="Part 啇" x="406" y="0" width="558" height="962"/><rect data-part="1" data-literal="金" data-radical="true" role="button" tabindex="0" aria-label="Part 金 (radical)" x="0" y="10" width="514" height="880"/></g>
</svg>
