<svg id="z38263" class="acjk" viewBox="0 0 1024 1024" xmlns="http://www.w3.org/2000/svg">
<style>

@keyframes zk {
	to {
		stroke-dashoffset:0;
	}
}
svg.acjk path[clip-path] {
	--t:0.8s;
	animation:zk var(--t) linear forwards var(--d);
	stroke-dasharray:3337;
	stroke-dashoffset:3339;
	stroke-width:128;
	stroke-linecap:round;
	fill:none;
	stroke:#000;
}
svg.acjk path[id] {fill:#ccc;}


    @keyframes guide-fade {
        0% { opacity: 0; }
        3% { opacity: 1; }
        95% { opacity: 1; }
        100% { opacity: 0; }
    }

    svg.acjk #guide-arrow {
        fill: #f77;
    }

    svg.acjk .guides {
        circle {
            fill: #0f6;
        }

        path {
            opacity: 0;
            animation: guide-fade var(--t) linear forwards var(--d);
            stroke-width: 16px;
            stroke-linecap: round;
            stroke: #f77;
            fill: none;
            marker-end: url(#guide-arrow);
        }

        circle,
        path {
            --t: 0.8s;
            opacity: 0;
            animation: guide-fade calc(var(--t) + 0.4s) ease-in-out forwards calc(var(--d) - 0.2s);
        }
    }
</style>
<path id="z38263d1" d="M424 488Q423 425 422 373C421 355 421 355 421 346Q421 301 421 255C421 239 421 239 421 231Q424 161 428 141C428 136 428 136 428 133C428 121 423 107 413 100Q389 81 361 70Q345 63 335 70Q326 77 333 94Q358 149 368 206Q374 264 379 497C379 512 424 503 424 488Z"/>
<path id="z38263d2" d="M428 133Q446 136 517 126Q682 87 687 83Q696 76 691 67Q684 57 656 50Q626 44 597 57Q558 70 515 82Q469 94 413 100C401 102 416 131 428 133Z"/>
<path id="z38263d3" d="M421 255Q463 268 504 259Q558 247 614 236Q639 229 643 226Q652 219 647 211Q640 201 614 194Q586 190 559 200Q531 210 499 218Q465 225 424 230Q421 230 421 231C413 232 413 253 421 255Z"/>
<path id="z38263d4" d="M422 373Q464 385 500 376Q558 364 619 352Q647 346 651 342Q658 335 655 327Q648 317 622 310Q594 304 567 315Q536 325 502 334Q465 341 421 346C412 348 413 371 422 373Z"/>
<path id="z38263d5" d="M454 521Q535 506 827 489Q848 488 853 479Q859 466 840 452Q779 409 714 430Q609 452 424 488C394 494 394 494 379 497Q264 515 137 536Q115 539 131 557Q168 587 207 575Q244 563 287 553C326 544 326 544 345 540Q369 533 399 529C436 524 436 524 454 521Z"/>
<path id="z38263d6" d="M287 553Q314 593 314 703Q314 770 300 812Q293 848 257 890Q245 902 253 923Q262 951 276 964Q289 974 302 959Q354 895 511 766Q527 756 528 746Q529 740 524 741Q511 742 376 828Q366 834 361 830Q357 827 357 815Q363 599 367 576Q371 558 359 549Q355 545 345 540C328 530 275 537 287 553Z"/>
<path id="z38263d7" d="M621 659Q715 581 730 575Q749 563 738 548Q725 532 698 521Q674 511 663 514Q651 517 656 529Q662 556 600 643C595 650 614 664 621 659Z"/>
<path id="z38263d8" d="M600 643Q537 592 454 521C440 509 382 522 399 529Q442 545 472 582Q623 738 744 844Q766 865 797 860Q909 841 952 828Q971 824 977 814Q981 805 968 803Q782 769 672 695Q648 679 621 659C607 648 607 648 600 643Z"/>
<defs>
	<clipPath id="z38263c1"><use href="#z38263d1"/></clipPath>
	<clipPath id="z38263c2"><use href="#z38263d2"/></clipPath>
	<clipPath id="z38263c3"><use href="#z38263d3"/></clipPath>
	<clipPath id="z38263c4"><use href="#z38263d4"/></clipPath>
	<clipPath id="z38263c5"><use href="#z38263d5"/></clipPath>
	<clipPath id="z38263c6"><use href="#z38263d6"/></clipPath>
	<clipPath id="z38263c7"><use href="#z38263d7"/></clipPath>
	<clipPath id="z38263c8"><use href="#z38263d8"/></clipPath>
<marker id="guide-arrow" viewBox="0 0 16 16" refX="5" refY="5" markerWidth="4" markerHeight="4" orient="auto-start-reverse"><path d="M 0 0 L 10 5 L 0 10 z" fill="inherit"/></marker></defs>
<path style="--d:1s;" pathLength="3333" clip-path="url(#z38263c1)" d="M340 78L392 143L402 501"/>
<path style="--d:2s;" pathLength="3333" clip-path="url(#z38263c2)" d="M415 107L687 69"/>
<path style="--d:3s;" pathLength="3333" clip-path="url(#z38263c3)" d="M420 242L643 213"/>
<path style="--d:4s;" pathLength="3333" clip-path="url(#z38263c4)" d="M422 357L652 334"/>
<path style="--d:5s;" pathLength="3333" clip-path="url(#z38263c5)" d="M135 548L730 460L850 471"/>
<path style="--d:6s;" pathLength="3333" clip-path="url(#z38263c6)" d="M292 547L334 577L329 832L295 880L308 920L520 747"/>
<path style="--d:7s;" pathLength="3333" clip-path="url(#z38263c7)" d="M665 522L695 563L607 651"/>
<path style="--d:8s;" pathLength="3333" clip-path="url(#z38263c8)" d="M409 527L450 538L775 804L974 813"/>
<g class="guides"><circle style="--d: 1s" class="g1" cx="340" cy="78" r="16"/><path style="--d: 1s;" class="g1" d="M425.68,9.456000000000003 Q477.68,74.456 478.93,119.206 Q486.43,387.706 487.68,432.456"/><circle style="--d: 2s" class="g2" cx="415" cy="107" r="16"/><path style="--d: 2s;" class="g2" d="M415,203 L687,165"/><circle style="--d: 3s" class="g3" cx="420" cy="242" r="16"/><path style="--d: 3s;" class="g3" d="M420,338 L643,309"/><circle style="--d: 4s" class="g4" cx="422" cy="357" r="16"/><path style="--d: 4s;" class="g4" d="M422,453 L652,430"/><circle style="--d: 5s" class="g5" cx="135" cy="548" r="16"/><path style="--d: 5s;" class="g5" d="M135,644 Q730,556 745,557.375 Q835,565.625 850,567"/><circle style="--d: 6s" class="g6" cx="292" cy="547" r="16"/><path style="--d: 6s;" class="g6" d="M377.68,478.456 Q419.68,502.38715281501345 417.18,604.0945522788204 Q414.68,705.8019517426274 397.68,724.946873994638 Q380.68,744.0917962466489 387.18,760.0458981233244 Q393.68,776 499.67999999999995,706.998509383378 Q499.67999999999995,706.998509383378 605.68,637.997018766756"/><circle style="--d: 7s" class="g7" cx="665" cy="522" r="16"/><path style="--d: 7s;" class="g7" d="M569,522 Q584,542.5 578.5,548 Q545.5,581 540,586.5"/><circle style="--d: 8s" class="g8" cx="409" cy="527" r="16"/><path style="--d: 8s;" class="g8" d="M409,623 Q450,634 531.25,700.5 Q775,900 824.75,902.25 Q924.25,906.75 974,909"/></g></svg>