<!--
  Stroke-order data for 阿, derived from AnimCJK (https://github.com/parsimonhi/animCJK),
  itself derived from the Arphic PL KaitiM fonts. Distributed under the Arphic Public License
  (see ARPHICPL.TXT). Regenerated by scripts/build-strokes.ts — do not edit by hand.
-->
<svg id="z38463" class="acjk" viewBox="0 0 1024 1024" xmlns="http://www.w3.org/2000/svg">
<g class="glyph"><path style="--part:1" id="z38463d1" d="M228 227C252 222 278 215 303 203C314 197 323 196 331 204C333 206 326 232 310 280C296 318 290 342 297 351C302 363 332 346 332 333C332 323 337 304 343 295C372 248 394 218 411 206C423 197 427 188 421 180C412 167 395 154 369 142C354 135 343 138 333 146C297 173 259 188 219 196C208 198 217 229 228 227Z"/><path style="--part:1" id="z38463d2" d="M297 351C314 371 332 400 347 443C351 455 350 463 345 470C340 476 329 478 312 475C291 470 270 466 248 465C232 463 232 469 250 479C289 499 328 520 363 547C373 554 381 554 391 547C400 539 408 528 412 511C420 474 404 426 358 373C342 355 332 348 332 333C332 323 290 342 297 351Z"/><path style="--part:1" id="z38463d3" d="M219 196Q173 166 155 161Q143 158 137 169Q133 176 142 188Q172 258 173 333Q182 565 163 692Q154 737 140 783Q131 814 137 836Q149 876 162 891Q175 907 186 890Q222 854 222 693Q216 323 228 227C230 216 228 202 219 196Z"/><path style="--part:2" id="z38463d4" d="M774 255Q823 251 885 251Q940 254 948 242Q952 232 937 218Q885 182 849 190Q732 217 428 262Q407 265 423 281Q436 294 454 299Q475 303 490 299Q610 265 716 260C755 257 755 257 774 255Z"/><path style="--part:2" id="z38463d5" d="M477 402Q464 396 438 391Q426 388 423 393Q416 399 424 414Q449 468 463 556Q466 583 481 601Q497 622 503 607Q507 595 506 576C504 555 504 555 503 545Q490 457 489 430C489 420 486 406 477 402Z"/><path style="--part:2" id="z38463d6" d="M633 533Q652 454 676 429Q698 404 676 390Q657 378 630 361Q612 352 567 376Q524 391 477 402C467 404 479 432 489 430Q531 421 574 412Q595 408 600 416Q607 422 600 456Q593 487 585 523C582 539 630 549 633 533Z"/><path style="--part:2" id="z38463d7" d="M506 576Q518 576 531 575Q565 568 641 563Q651 562 652 552Q652 545 633 533C619 525 601 523 585 523Q579 523 575 525Q535 537 503 545C493 547 496 576 506 576Z"/><path style="--part:2" id="z38463d8" d="M716 260Q734 314 735 338Q738 785 735 800Q732 810 727 817Q714 824 684 816Q662 810 634 804Q621 800 621 808Q621 817 633 827Q697 882 741 927Q754 937 769 920Q812 860 808 774Q792 516 803 319Q810 289 803 278Q796 268 774 255C757 245 709 242 716 260Z"/></g>
<defs><clipPath id="z38463c1"><use href="#z38463d1"/></clipPath>
	<clipPath id="z38463c2"><use href="#z38463d2"/></clipPath>
	<clipPath id="z38463c3"><use href="#z38463d3"/></clipPath>
	<clipPath id="z38463c4"><use href="#z38463d4"/></clipPath>
	<clipPath id="z38463c5"><use href="#z38463d5"/></clipPath>
	<clipPath id="z38463c6"><use href="#z38463d6"/></clipPath>
	<clipPath id="z38463c7"><use href="#z38463d7"/></clipPath>
	<clipPath id="z38463c8"><use href="#z38463d8"/></clipPath><marker id="guide-arrow" viewBox="0 0 16 16" refX="5" refY="5" markerWidth="4" markerHeight="4" orient="auto-start-reverse"><path d="M 0 0 L 10 5 L 0 10 z" fill="inherit"/></marker></defs>
<g class="strokes"><path style="--part:1" pathLength="3333" clip-path="url(#z38463c1)" d="M218 210L339 168L375 193L303 350"/><path style="--part:1" pathLength="3333" clip-path="url(#z38463c2)" d="M323 335L379 458L372 502L346 510L247 471"/><path style="--part:1" pathLength="3333" clip-path="url(#z38463c3)" d="M143 165L192 220L196 277L194 675L170 892"/><path style="--part:2" pathLength="3333" clip-path="url(#z38463c4)" d="M421 269L473 278L854 220L944 234"/><path style="--part:2" pathLength="3333" clip-path="url(#z38463c5)" d="M427 398L460 426L488 607"/><path style="--part:2" pathLength="3333" clip-path="url(#z38463c6)" d="M479 409L598 386L642 410L605 538"/><path style="--part:2" pathLength="3333" clip-path="url(#z38463c7)" d="M501 562L645 553"/><path style="--part:2" pathLength="3333" clip-path="url(#z38463c8)" d="M722 255L768 296L770 810L734 879L627 809"/></g>
<g class="guides"><text class="g1" style="--gs:1" x="218" y="210">①</text><path class="g1 aligned" style="--gs:1" d="M218,210 Q339,168 348,174.25 Q375,193 357,232.25 Q321,310.75 303,350"/><path class="g1 offset" style="--gs:1" d="M218,306 Q278.5,264 283,270.25 Q296.5,289 287.5,305.5 Q269.5,338.5 260.5,355"/><text class="g2" style="--gs:2" x="323" y="335">②</text><path class="g2 aligned" style="--gs:2" d="M323,335 Q379,458 375.5,480 Q372,502 359,506 Q346,510 296.5,490.5 Q296.5,490.5 247,471"/><path class="g2 offset" style="--gs:2" d="M227,335 Q255,396.5 253.25,407.5 Q251.5,418.5 245,420.5 Q238.5,422.5 213.75,412.75 Q213.75,412.75 189,403"/><text class="g3" style="--gs:3" x="143" y="165">③</text><path class="g3 aligned" style="--gs:3" d="M143,165 Q192,220 194,248.5 Q196,277 195,476 Q194,675 182,783.5 Q182,783.5 170,892"/><path class="g3 offset" style="--gs:3" d="M47,165 Q96,220 98,248.5 Q100,277 99,476 Q98,675 86,783.5 Q86,783.5 74,892"/><text class="g4" style="--gs:4" x="421" y="269">④</text><path class="g4 aligned" style="--gs:4" d="M421,269 Q473,278 568.25,263.5 Q854,220 876.5,223.5 Q921.5,230.5 944,234"/><path class="g4 offset" style="--gs:4" d="M421,365 Q473,374 568.25,359.5 Q854,316 876.5,319.5 Q921.5,326.5 944,330"/><text class="g5" style="--gs:5" x="427" y="398">⑤</text><path class="g5 aligned" style="--gs:5" d="M427,398 Q460,426 463.5,448.63 Q484.5,584.38 488,607"/><path class="g5 offset" style="--gs:5" d="M512.68,329.46 Q545.68,357.46 549.18,380.08 Q570.18,515.83 573.68,538.46"/><text class="g6" style="--gs:6" x="479" y="409">⑥</text><path class="g6 aligned" style="--gs:6" d="M479,409 Q598,386 609,392 Q642,410 632.75,442 Q614.25,506 605,538"/><path class="g6 offset" style="--gs:6" d="M479,505 Q538.5,482 544,485 Q560.5,494 555.88,510 Q546.63,542 542,558"/><text class="g7" style="--gs:7" x="501" y="562">⑦</text><path class="g7 aligned" style="--gs:7" d="M501,562 L645,553"/><path class="g7 offset" style="--gs:7" d="M501,658 L645,649"/><text class="g8" style="--gs:8" x="722" y="255">⑧</text><path class="g8 aligned" style="--gs:8" d="M722,255 Q768,296 769,553 Q770,810 752,844.5 Q734,879 680.5,844 Q680.5,844 627,809"/><path class="g8 offset" style="--gs:8" d="M626,255 Q649,289.69 649.5,507.15 Q650,724.62 641,753.81 Q632,783 605.25,753.38 Q605.25,753.38 578.5,723.77"/></g>
<g class="parts"><rect data-part="2" data-literal="可" role="button" tabindex="0" aria-label="Part 可" x="349" y="148" width="667" height="803"/><rect data-part="1" data-literal="阝" data-radical="true" role="button" tabindex="0" aria-label="Part 阝 (radical)" x="71" y="93" width="380" height="871"/></g>
</svg>
