<!--
  Stroke-order data for 際, derived from AnimCJK (https://github.com/parsimonhi/animCJK),
  itself derived from the Arphic PL KaitiM fonts. Distributed under the Arphic Public License
  (see ARPHICPL.TXT). Regenerated by scripts/build-strokes.ts — do not edit by hand.
-->
<svg id="z38555" class="acjk" viewBox="0 0 1024 1024" xmlns="http://www.w3.org/2000/svg">
<g class="glyph"><path id="z38555d1" d="M201 207C223 203 247 195 272 184C284 178 293 179 300 186C302 190 301 197 296 207C284 229 272 251 262 273C257 281 255 289 255 296C255 308 290 304 290 292C290 285 292 278 298 271C332 227 357 201 373 191C385 185 389 177 384 167C376 155 360 142 337 128C324 122 313 123 304 129C272 153 234 170 192 178C182 180 191 209 201 207Z"/><path id="z38555d2" d="M255 296C255 303 257 309 261 315C289 363 299 393 291 403C288 408 282 410 272 409C259 409 246 409 232 409C217 409 218 413 234 422C258 439 282 457 306 476C314 484 321 485 329 478C337 474 344 464 348 449C352 437 351 418 343 394C335 368 322 344 304 322C294 312 290 302 290 292C290 280 255 284 255 296Z"/><path id="z38555d3" d="M192 178C178 163 149 145 133 144C113 141 114 155 121 169C156 243 169 425 142 644C137 680 127 715 116 751C110 769 108 786 112 800C118 824 126 841 135 851C143 860 150 860 158 851C179 820 191 727 192 570C192 376 195 255 201 207C203 197 199 185 192 178Z"/><path id="z38555d4" d="M485 200C488 194 500 167 530 124C535 115 534 107 525 100C498 79 477 71 464 76C457 77 455 83 457 92C466 145 443 206 390 271C386 275 373 288 356 313C350 320 354 324 363 322C376 318 396 306 420 282C429 273 429 273 434 268C449 252 462 237 473 220C481 207 481 207 485 200Z"/><path id="z38555d5" d="M618 239C622 231 628 226 633 222C640 215 641 208 638 202C635 195 617 184 584 171C576 167 565 171 552 178C538 185 515 192 485 200C477 202 466 216 473 220C479 224 491 226 509 222C535 215 551 211 553 216C556 226 550 251 535 289C480 421 374 532 272 613C243 635 278 626 304 617C349 601 403 558 464 487C511 431 552 365 589 291C594 280 598 270 604 261C613 246 613 246 618 239Z"/><path id="z38555d6" d="M420 282C424 292 427 300 445 328C452 339 461 345 471 348C478 350 486 346 491 336C493 329 493 318 489 306C482 288 462 276 434 268C428 266 418 276 420 282Z"/><path id="z38555d7" d="M368 374Q386 428 406 438Q415 442 424 430Q428 421 426 405Q422 392 408 381Q387 362 377 356Q371 353 368 361Q365 365 368 374Z"/><path id="z38555d8" d="M682 165C687 165 710 164 749 159C762 157 760 166 758 174C737 228 719 267 707 293C701 302 698 310 698 315C696 321 701 323 709 320C717 315 741 288 780 240C804 209 828 183 853 167C864 159 867 152 859 144C851 135 836 123 812 111C801 105 792 109 782 114C767 120 752 123 707 133C692 136 675 137 657 137C648 136 646 140 651 148C656 156 667 162 682 165Z"/><path id="z38555d9" d="M604 261Q622 279 690 376Q772 499 832 529Q857 535 963 523Q975 522 986 517Q993 511 983 503Q970 496 864 455Q767 418 638 256Q631 246 618 239C611 235 599 254 604 261Z"/><path id="z38555d10" d="M507 465C482 469 479 479 498 489C521 501 559 501 609 490C631 484 654 478 679 473C691 470 698 467 701 465C706 458 707 453 704 448C698 440 686 433 666 431C648 428 607 441 564 454C546 459 526 461 507 465Z"/><path id="z38555d11" d="M594 620C632 612 671 603 712 595C744 587 762 580 767 577C772 572 774 566 771 560C766 551 754 545 734 541C716 536 671 549 598 570C526 589 465 595 418 602C393 605 387 618 407 626C463 647 510 635 557 627C582 622 582 622 594 620Z"/><path id="z38555d12" d="M557 627C569 684 569 733 569 779C568 811 565 830 563 838C559 848 549 854 529 853C512 851 494 847 475 848C454 848 458 858 474 870C518 900 547 926 566 945C575 954 585 955 593 953C599 950 605 937 615 915C624 891 626 860 625 818C622 760 622 720 625 700C628 671 628 650 615 637C607 629 600 624 594 620C583 614 555 615 557 627Z"/><path id="z38555d13" d="M411 691C395 719 376 746 357 772C340 792 339 814 350 838C355 850 364 854 378 846C410 825 426 792 432 751C435 728 438 709 434 693C432 686 428 683 424 683C418 682 413 685 411 691Z"/><path id="z38555d14" d="M726 733C752 763 779 795 806 832C813 842 821 848 834 850C840 850 847 847 853 839C858 829 858 813 857 792C855 772 843 750 817 732C759 690 721 672 708 677C703 678 701 684 701 694C701 702 710 715 726 733Z"/></g>
<defs><clipPath id="z38555c1"><use href="#z38555d1"/></clipPath>
	<clipPath id="z38555c2"><use href="#z38555d2"/></clipPath>
	<clipPath id="z38555c3"><use href="#z38555d3"/></clipPath>
	<clipPath id="z38555c4"><use href="#z38555d4"/></clipPath>
	<clipPath id="z38555c5"><use href="#z38555d5"/></clipPath>
	<clipPath id="z38555c6"><use href="#z38555d6"/></clipPath>
	<clipPath id="z38555c7"><use href="#z38555d7"/></clipPath>
	<clipPath id="z38555c8"><use href="#z38555d8"/></clipPath>
	<clipPath id="z38555c9"><use href="#z38555d9"/></clipPath>
	<clipPath id="z38555c10"><use href="#z38555d10"/></clipPath>
	<clipPath id="z38555c11"><use href="#z38555d11"/></clipPath>
	<clipPath id="z38555c12"><use href="#z38555d12"/></clipPath>
	<clipPath id="z38555c13"><use href="#z38555d13"/></clipPath>
	<clipPath id="z38555c14"><use href="#z38555d14"/></clipPath><marker id="guide-arrow" viewBox="0 0 16 16" refX="5" refY="5" markerWidth="4" markerHeight="4" orient="auto-start-reverse"><path d="M 0 0 L 10 5 L 0 10 z" fill="inherit"/></marker></defs>
<g class="strokes"><path pathLength="3333" clip-path="url(#z38555c1)" d="M193 191L294 156L342 177L273 300"/><path pathLength="3333" clip-path="url(#z38555c2)" d="M263 295L320 411L301 446L234 413"/><path pathLength="3333" clip-path="url(#z38555c3)" d="M125 154L168 204L174 317L145 853"/><path pathLength="3333" clip-path="url(#z38555c4)" d="M465 81L495 119L481 156L363 316"/><path pathLength="3333" clip-path="url(#z38555c5)" d="M478 214L557 193L596 213L538 338L422 502L271 623"/><path pathLength="3333" clip-path="url(#z38555c6)" d="M427 277L478 343"/><path pathLength="3333" clip-path="url(#z38555c7)" d="M373 365L413 431"/><path pathLength="3333" clip-path="url(#z38555c8)" d="M660 146L779 138L810 158L703 311"/><path pathLength="3333" clip-path="url(#z38555c9)" d="M615 246L811 470L983 509"/><path pathLength="3333" clip-path="url(#z38555c10)" d="M493 476L701 452"/><path pathLength="3333" clip-path="url(#z38555c11)" d="M401 615L767 562"/><path pathLength="3333" clip-path="url(#z38555c12)" d="M567 624L596 675L583 882L564 901L467 859"/><path pathLength="3333" clip-path="url(#z38555c13)" d="M423 692L360 846"/><path pathLength="3333" clip-path="url(#z38555c14)" d="M708 686L811 776L837 846"/></g>
<g class="guides"><text class="g1" style="--gs:1" x="193" y="191">①</text><path class="g1 aligned" style="--gs:1" d="M193,191 Q294,156 306,161.25 Q342,177 324.75,207.75 Q290.25,269.25 273,300"/><path class="g1 offset" style="--gs:1" d="M193,287 Q243.5,252 249.5,257.25 Q267.5,273 258.88,285.75 Q241.63,311.25 233,324"/><text class="g2" style="--gs:2" x="263" y="295">②</text><path class="g2 aligned" style="--gs:2" d="M263,295 Q320,411 315.25,419.75 Q301,446 284.25,437.75 Q250.75,421.25 234,413"/><path class="g2 offset" style="--gs:2" d="M167,295 Q195.5,353 193.13,357.38 Q186,370.5 177.63,366.38 Q160.88,358.13 152.5,354"/><text class="g3" style="--gs:3" x="125" y="154">③</text><path class="g3 aligned" style="--gs:3" d="M125,154 Q168,204 169.5,232.25 Q174,317 166.75,451 Q152.25,719 145,853"/><path class="g3 offset" style="--gs:3" d="M29,154 Q72,204 73.5,232.25 Q78,317 70.75,451 Q56.25,719 49,853"/><text class="g4" style="--gs:4" x="465" y="81">④</text><path class="g4 aligned" style="--gs:4" d="M465,81 Q495,119 491.5,128.25 Q481,156 451.5,196 Q392.5,276 363,316"/><path class="g4 offset" style="--gs:4" d="M369,81 Q384,103.48 382.25,108.95 Q377,125.36 362.25,149.02 Q332.75,196.34 318,220"/><text class="g5" style="--gs:5" x="478" y="214">⑤</text><path class="g5 aligned" style="--gs:5" d="M478,214 Q557,193 576.5,203 Q596,213 567,275.5 Q538,338 480,420 Q422,502 346.5,562.5 Q346.5,562.5 271,623"/><path class="g5 offset" style="--gs:5" d="M382,310 Q421.5,298.38 431.25,303.91 Q441,309.45 426.5,344.04 Q412,378.63 383,424.02 Q354,469.4 316.25,502.89 Q316.25,502.89 278.5,536.38"/><text class="g6" style="--gs:6" x="427" y="277">⑥</text><path class="g6 aligned" style="--gs:6" d="M427,277 L478,343"/><path class="g6 offset" style="--gs:6" d="M512.68,208.46 L563.68,274.46"/><text class="g7" style="--gs:7" x="373" y="365">⑦</text><path class="g7 aligned" style="--gs:7" d="M373,365 L413,431"/><path class="g7 offset" style="--gs:7" d="M458.68,296.46 L498.68,362.46"/><text class="g8" style="--gs:8" x="660" y="146">⑧</text><path class="g8 aligned" style="--gs:8" d="M660,146 Q779,138 786.75,143 Q810,158 783.25,196.25 Q729.75,272.75 703,311"/><path class="g8 offset" style="--gs:8" d="M660,242 Q719.5,234 723.38,239 Q735,254 721.63,292.25 Q694.88,368.75 681.5,407"/><text class="g9" style="--gs:9" x="615" y="246">⑨</text><path class="g9 aligned" style="--gs:9" d="M615,246 Q811,470 832.5,474.88 Q961.5,504.13 983,509"/><path class="g9 offset" style="--gs:9" d="M700.68,177.46 Q851.05,378.07 867.54,382.44 Q966.51,408.63 983,413"/><text class="g10" style="--gs:10" x="493" y="476">⑩</text><path class="g10 aligned" style="--gs:10" d="M493,476 L701,452"/><path class="g10 offset" style="--gs:10" d="M493,572 L701,548"/><text class="g11" style="--gs:11" x="401" y="615">⑪</text><path class="g11 aligned" style="--gs:11" d="M401,615 L767,562"/><path class="g11 offset" style="--gs:11" d="M401,711 L767,658"/><text class="g12" style="--gs:12" x="567" y="624">⑫</text><path class="g12 aligned" style="--gs:12" d="M567,624 Q596,675 589.5,778.5 Q583,882 573.5,891.5 Q564,901 515.5,880 Q515.5,880 467,859"/><path class="g12 offset" style="--gs:12" d="M471,624 Q485.5,657.32 482.25,724.95 Q479,792.58 474.25,798.79 Q469.5,805 445.25,791.28 Q445.25,791.28 421,777.56"/><text class="g13" style="--gs:13" x="423" y="692">⑬</text><path class="g13 aligned" style="--gs:13" d="M423,692 L360,846"/><path class="g13 offset" style="--gs:13" d="M543,692 L480,846"/><text class="g14" style="--gs:14" x="708" y="686">⑭</text><path class="g14 aligned" style="--gs:14" d="M708,686 Q811,776 814.25,784.75 Q833.75,837.25 837,846"/><path class="g14 offset" style="--gs:14" d="M793.68,617.46 Q896.68,707.46 899.93,716.21 Q919.43,768.71 922.68,777.46"/></g>
</svg>
