<svg id="z38627" class="acjk" viewBox="0 0 1024 1024" xmlns="http://www.w3.org/2000/svg">
<style>

@keyframes zk {
	to {
		stroke-dashoffset:0;
	}
}
svg.acjk path[clip-path] {
	--t:0.8s;
	animation:zk var(--t) linear forwards var(--d);
	stroke-dasharray:3337;
	stroke-dashoffset:3339;
	stroke-width:128;
	stroke-linecap:round;
	fill:none;
	stroke:#000;
}
svg.acjk path[id] {fill:#ccc;}


    @keyframes guide-fade {
        0% { opacity: 0; }
        3% { opacity: 1; }
        95% { opacity: 1; }
        100% { opacity: 0; }
    }

    svg.acjk #guide-arrow {
        fill: #f77;
    }

    svg.acjk .guides {
        circle {
            fill: #0f6;
        }

        path {
            opacity: 0;
            animation: guide-fade var(--t) linear forwards var(--d);
            stroke-width: 16px;
            stroke-linecap: round;
            stroke: #f77;
            fill: none;
            marker-end: url(#guide-arrow);
        }

        circle,
        path {
            --t: 0.8s;
            opacity: 0;
            animation: guide-fade calc(var(--t) + 0.4s) ease-in-out forwards calc(var(--d) - 0.2s);
        }
    }
</style>
<path id="z38627d1" d="M439 188C479 182 523 174 560 172C566 171 574 170 579 161C581 154 571 148 558 140C537 126 502 132 453 144C416 153 416 153 397 157C391 158 324 175 285 180C257 183 257 183 243 185C211 188 173 191 138 197C120 199 118 205 132 217C150 232 173 238 200 232C214 228 233 223 251 220C275 215 275 215 287 213C317 207 371 196 391 194C423 190 423 190 439 188Z"/>
<path id="z38627d2" d="M285 180C283 148 288 116 283 112C272 103 262 99 243 98C229 97 221 97 211 102C204 104 202 108 211 116C222 125 237 161 243 185C248 208 248 208 251 220C262 269 264 282 271 290C274 294 280 295 284 291C291 282 287 223 287 213C286 191 286 191 285 180Z"/>
<path id="z38627d3" d="M423 225C427 214 433 204 439 188C448 159 448 159 453 144C456 133 463 116 475 97C477 92 473 85 463 79C443 67 426 61 412 58C403 55 395 56 390 60C384 62 383 67 388 74C393 83 396 91 398 98C401 112 399 140 397 157C393 182 393 182 391 194C388 210 387 209 386 227C381 276 399 277 423 225Z"/>
<path id="z38627d4" d="M188 355C183 353 171 351 152 351C145 351 141 352 140 354C137 358 139 364 145 371C159 390 172 435 186 466C188 476 194 484 202 489C212 499 219 500 221 491C221 489 221 485 221 481C218 466 218 466 217 458C209 432 203 392 201 380C199 371 197 357 188 355Z"/>
<path id="z38627d5" d="M437 418C449 392 458 355 472 348C480 340 481 331 473 321C465 315 452 305 426 292C417 288 407 289 396 293C372 303 345 314 323 322C294 331 233 348 188 355C179 357 192 383 201 380C215 374 233 368 275 359C304 352 304 352 318 348C360 334 397 327 407 334C409 336 406 375 399 411C396 424 432 430 437 418Z"/>
<path id="z38627d6" d="M333 458C364 451 395 445 442 438C446 438 449 435 450 431C450 429 445 424 437 418C427 410 412 408 399 411C387 411 355 425 334 431C306 439 306 439 292 443C276 447 244 453 217 458C209 459 213 481 221 481C225 482 228 481 235 480C248 475 270 471 292 467C319 461 319 461 333 458Z"/>
<path id="z38627d7" d="M329 564C356 555 377 552 410 543C430 537 443 532 447 529C451 525 451 519 449 515C444 508 434 504 419 502C405 499 380 508 330 527C304 536 304 536 291 541C265 550 225 553 199 559C178 562 176 569 192 578C212 588 257 587 289 577C316 568 316 568 329 564Z"/>
<path id="z38627d8" d="M314 680C343 673 420 651 491 638C501 636 505 632 506 628C506 620 501 612 490 608C472 600 456 600 442 605C396 618 354 634 320 643C293 650 293 650 279 653C194 673 123 689 71 697C62 698 56 700 56 707C54 713 59 720 69 727C94 743 120 746 145 736C189 718 249 695 272 690C300 683 300 683 314 680Z"/>
<path id="z38627d9" d="M121 935C116 935 113 932 115 929C116 924 122 919 130 913C141 903 152 893 163 882C188 856 209 830 227 801C250 764 265 724 272 690C277 665 277 665 279 653C285 618 287 605 289 577C290 553 290 553 291 541C291 528 292 480 292 467C292 451 292 451 292 443C292 434 289 404 288 396C285 381 285 381 283 374C281 368 277 364 275 359C270 345 304 343 318 348C324 350 330 353 336 358C347 369 338 388 336 406C334 415 334 422 334 431C333 449 333 449 333 458C332 468 330 511 330 527C329 552 329 552 329 564C328 584 324 617 320 643C316 668 316 668 314 680C309 706 298 744 277 789C269 806 243 843 227 862C193 901 148 935 124 935C122 935 122 935 121 935Z"/>
<path id="z38627d10" d="M388 753C405 768 422 788 442 810C448 817 457 822 467 822C473 822 478 818 481 811C484 803 483 790 480 773C475 751 444 730 387 712C378 709 371 707 368 709C364 710 363 716 364 724C364 730 373 739 388 753Z"/>
<path id="z38627d11" d="M570 296C590 275 644 206 665 174C676 156 686 142 696 132C702 126 703 118 701 110C698 103 689 91 671 78C655 66 640 61 630 62C618 62 613 70 620 84C629 105 613 152 571 228C557 251 484 362 484 365C481 372 484 374 493 373C495 372 513 352 539 327C560 306 560 306 570 296Z"/>
<path id="z38627d12" d="M604 721C603 533 605 425 613 378C616 359 613 342 601 329C589 316 578 306 570 296C561 285 536 313 539 327C541 336 546 343 550 350C561 371 572 401 572 462C571 550 564 668 559 709C545 806 532 855 533 858C537 890 546 914 561 928C572 938 583 935 591 917C601 891 605 862 605 830C604 800 604 771 604 743C604 735 604 835 604 721Z"/>
<path id="z38627d13" d="M738 212Q760 233 786 257Q799 270 814 269Q824 268 829 255Q833 242 825 213Q816 186 733 166Q718 162 712 165Q708 169 709 181Q712 191 738 212Z"/>
<path id="z38627d14" d="M778 370C874 350 923 334 927 332C931 327 933 322 931 318C926 310 915 305 899 302C883 298 845 310 785 328C739 341 694 345 651 352C630 355 627 363 642 372C665 386 690 390 724 381C727 380 730 379 734 379C763 373 763 373 778 370Z"/>
<path id="z38627d15" d="M781 693C783 660 784 629 786 600C787 574 787 574 788 561C788 533 791 494 792 482C794 456 794 456 795 443C797 409 799 390 793 382C790 377 784 373 778 370C765 362 728 365 734 379C740 389 746 415 745 457C744 482 744 482 744 494C743 514 742 541 742 573C741 597 741 597 741 609C740 635 740 666 740 700C740 714 781 707 781 693Z"/>
<path id="z38627d16" d="M792 482C854 467 888 458 892 455C896 450 897 445 895 441C890 435 880 430 865 427C848 424 824 431 795 443C762 452 762 452 745 457C720 461 694 466 666 470C646 474 643 480 658 488C680 500 707 502 737 495C737 494 740 494 744 494C776 486 776 486 792 482Z"/>
<path id="z38627d17" d="M786 600Q826 590 869 582Q899 575 903 571Q910 564 906 557Q900 548 877 542Q850 538 788 561C757 569 757 569 742 573Q708 577 671 582Q641 586 662 601Q695 619 741 609C771 603 771 603 786 600Z"/>
<path id="z38627d18" d="M740 700C697 707 652 713 604 721C597 722 598 739 604 743C620 755 638 758 658 753C736 732 840 722 970 722C980 721 988 719 991 714C994 707 990 699 981 692C947 667 910 665 870 676C844 682 814 687 781 693C754 698 754 698 740 700Z"/>
<defs>
	<clipPath id="z38627c1"><use href="#z38627d1"/></clipPath>
	<clipPath id="z38627c2"><use href="#z38627d2"/></clipPath>
	<clipPath id="z38627c3"><use href="#z38627d3"/></clipPath>
	<clipPath id="z38627c4"><use href="#z38627d4"/></clipPath>
	<clipPath id="z38627c5"><use href="#z38627d5"/></clipPath>
	<clipPath id="z38627c6"><use href="#z38627d6"/></clipPath>
	<clipPath id="z38627c7"><use href="#z38627d7"/></clipPath>
	<clipPath id="z38627c8"><use href="#z38627d8"/></clipPath>
	<clipPath id="z38627c9"><use href="#z38627d9"/></clipPath>
	<clipPath id="z38627c10"><use href="#z38627d10"/></clipPath>
	<clipPath id="z38627c11"><use href="#z38627d11"/></clipPath>
	<clipPath id="z38627c12"><use href="#z38627d12"/></clipPath>
	<clipPath id="z38627c13"><use href="#z38627d13"/></clipPath>
	<clipPath id="z38627c14"><use href="#z38627d14"/></clipPath>
	<clipPath id="z38627c15"><use href="#z38627d15"/></clipPath>
	<clipPath id="z38627c16"><use href="#z38627d16"/></clipPath>
	<clipPath id="z38627c17"><use href="#z38627d17"/></clipPath>
	<clipPath id="z38627c18"><use href="#z38627d18"/></clipPath>
<marker id="guide-arrow" viewBox="0 0 16 16" refX="5" refY="5" markerWidth="4" markerHeight="4" orient="auto-start-reverse"><path d="M 0 0 L 10 5 L 0 10 z" fill="inherit"/></marker></defs>
<path style="--d:1s;" pathLength="3333" clip-path="url(#z38627c1)" d="M133 207L573 154"/>
<path style="--d:2s;" pathLength="3333" clip-path="url(#z38627c2)" d="M211 106L258 134L278 287"/>
<path style="--d:3s;" pathLength="3333" clip-path="url(#z38627c3)" d="M392 65L437 102L398 258"/>
<path style="--d:4s;" pathLength="3333" clip-path="url(#z38627c4)" d="M145 357L175 376L211 488"/>
<path style="--d:5s;" pathLength="3333" clip-path="url(#z38627c5)" d="M190 365L409 311L443 334L417 422"/>
<path style="--d:6s;" pathLength="3333" clip-path="url(#z38627c6)" d="M221 470L444 430"/>
<path style="--d:7s;" pathLength="3333" clip-path="url(#z38627c7)" d="M191 567L442 516"/>
<path style="--d:8s;" pathLength="3333" clip-path="url(#z38627c8)" d="M61 707L132 713L499 624"/>
<path style="--d:9s;" pathLength="3333" clip-path="url(#z38627c9)" d="M284 357L314 387L283 724L211 854L122 928"/>
<path style="--d:10s;" pathLength="3333" clip-path="url(#z38627c10)" d="M371 718L474 815"/>
<path style="--d:11s;" pathLength="3333" clip-path="url(#z38627c11)" d="M627 66L660 119L491 366"/>
<path style="--d:12s;" pathLength="3333" clip-path="url(#z38627c12)" d="M565 299L589 386L567 929"/>
<path style="--d:13s;" pathLength="3333" clip-path="url(#z38627c13)" d="M716 172L794 221L813 265"/>
<path style="--d:14s;" pathLength="3333" clip-path="url(#z38627c14)" d="M642 363L925 321"/>
<path style="--d:15s;" pathLength="3333" clip-path="url(#z38627c15)" d="M741 373L770 402L759 705"/>
<path style="--d:16s;" pathLength="3333" clip-path="url(#z38627c16)" d="M658 480L890 442"/>
<path style="--d:17s;" pathLength="3333" clip-path="url(#z38627c17)" d="M665 592L900 557"/>
<path style="--d:18s;" pathLength="3333" clip-path="url(#z38627c18)" d="M604 730L889 697L985 705"/>
<g class="guides"><circle style="--d: 1s" class="g1" cx="133" cy="207" r="16"/><path style="--d: 1s;" class="g1" d="M133,303 L573,250"/><circle style="--d: 2s" class="g2" cx="211" cy="106" r="16"/><path style="--d: 2s;" class="g2" d="M296.68,37.456 Q343.68,65.456 346.18,84.581 Q361.18,199.33100000000002 363.68,218.45600000000002"/><circle style="--d: 3s" class="g3" cx="392" cy="65" r="16"/><path style="--d: 3s;" class="g3" d="M296,65 Q341,102 336.125,121.5 Q306.875,238.5 302,258"/><circle style="--d: 4s" class="g4" cx="160" cy="367" r="16"/><path style="--d: 4s;" class="g4" d="M280,367 L331,488"/><circle style="--d: 5s" class="g5" cx="190" cy="365" r="16"/><path style="--d: 5s;" class="g5" d="M190,461 Q305.12648221343875,407 309.59486166007906,412.75 Q323,430 319.5830039525692,438.125 Q312.7490118577075,454.375 309.3320158102767,462.5"/><circle style="--d: 6s" class="g6" cx="221" cy="470" r="16"/><path style="--d: 6s;" class="g6" d="M221,566 L444,526"/><circle style="--d: 7s" class="g7" cx="191" cy="567" r="16"/><path style="--d: 7s;" class="g7" d="M191,663 L442,612"/><circle style="--d: 8s" class="g8" cx="61" cy="707" r="16"/><path style="--d: 8s;" class="g8" d="M61,803 Q132,809 177.875,797.875 Q453.125,731.125 499,720"/><circle style="--d: 9s" class="g9" cx="284" cy="357" r="16"/><path style="--d: 9s;" class="g9" d="M188,357 Q203,381.9562171628722 195.25,522.1269702276708 Q187.5,662.2977232924693 169.5,716.3695271453589 Q151.5,770.4413309982486 129.25,801.2206654991244 Q129.25,801.2206654991244 107,832"/><circle style="--d: 10s" class="g10" cx="371" cy="718" r="16"/><path style="--d: 10s;" class="g10" d="M456.68,649.456 L559.68,746.456"/><circle style="--d: 11s" class="g11" cx="627" cy="66" r="16"/><path style="--d: 11s;" class="g11" d="M531,66 Q547.5,102.03999999999999 536.9375,123.035 Q473.5625,249.005 463,270"/><circle style="--d: 12s" class="g12" cx="565" cy="299" r="16"/><path style="--d: 12s;" class="g12" d="M685,299 Q709,386 706.25,453.875 Q689.75,861.125 687,929"/><circle style="--d: 13s" class="g13" cx="716" cy="172" r="16"/><path style="--d: 13s;" class="g13" d="M801.68,103.456 Q879.68,152.45600000000002 882.055,157.95600000000002 Q896.305,190.95600000000002 898.68,196.45600000000002"/><circle style="--d: 14s" class="g14" cx="642" cy="363" r="16"/><path style="--d: 14s;" class="g14" d="M642,459 L925,417"/><circle style="--d: 15s" class="g15" cx="756" cy="388" r="16"/><path style="--d: 15s;" class="g15" d="M876,388 L879,705"/><circle style="--d: 16s" class="g16" cx="658" cy="480" r="16"/><path style="--d: 16s;" class="g16" d="M658,576 L890,538"/><circle style="--d: 17s" class="g17" cx="665" cy="592" r="16"/><path style="--d: 17s;" class="g17" d="M665,688 L900,653"/><circle style="--d: 18s" class="g18" cx="604" cy="730" r="16"/><path style="--d: 18s;" class="g18" d="M604,826 Q889,793 901,794 Q973,800 985,801"/></g></svg>