<!--
  Stroke-order data for 鞍, derived from AnimCJK (https://github.com/parsimonhi/animCJK),
  itself derived from the Arphic PL KaitiM fonts. Distributed under the Arphic Public License
  (see ARPHICPL.TXT). Regenerated by scripts/build-strokes.ts — do not edit by hand.
-->
<svg id="z38797" class="acjk" viewBox="0 0 1024 1024" xmlns="http://www.w3.org/2000/svg">
<g class="glyph"><path id="z38797d1" d="M410 241Q450 234 485 230Q494 231 501 221Q502 212 484 203Q463 190 421 198C384 207 384 207 365 212Q310 224 258 236C227 241 227 241 212 243Q208 242 206 243Q164 247 119 253Q97 256 114 270Q141 288 166 284Q188 278 218 274C246 269 246 269 260 266Q303 256 360 248C393 243 393 243 410 241Z"/><path id="z38797d2" d="M258 236Q258 233 258 231Q257 197 258 181Q262 163 251 156Q238 146 213 139Q194 135 177 144Q168 153 182 163Q200 187 212 243C216 264 216 264 218 274Q219 284 223 299Q241 401 245 408Q252 417 258 410Q264 404 264 381C265 365 265 365 265 357Q265 344 264 330Q263 296 260 266C259 246 259 246 258 236Z"/><path id="z38797d3" d="M384 335Q397 286 410 241C417 212 417 212 421 198Q421 186 450 119Q454 109 440 93Q412 71 390 63Q377 57 368 64Q359 68 365 84Q377 108 375 123Q371 166 365 212C362 236 362 236 360 248Q353 290 344 336C342 349 381 348 384 335Z"/><path id="z38797d4" d="M307 377Q338 370 399 364Q408 363 408 356Q409 350 384 335C373 328 357 332 344 336Q299 348 265 357C257 360 256 379 264 381Q265 381 267 382Q271 382 276 382C297 379 297 379 307 377Z"/><path id="z38797d5" d="M188 462Q178 456 147 453Q137 452 134 455Q130 461 137 474Q159 513 177 579Q181 598 194 611Q210 629 213 615Q216 606 215 591C212 573 212 573 210 564Q200 510 196 489C194 480 197 465 188 462Z"/><path id="z38797d6" d="M443 536Q467 488 490 476Q505 460 494 445Q481 433 437 410Q422 403 404 409Q370 422 338 432C306 441 306 441 290 445Q241 454 188 462C179 464 187 492 196 489Q211 483 291 469C320 463 320 463 335 460Q357 454 383 450Q405 444 413 454Q419 460 416 472Q409 500 400 524C394 538 436 549 443 536Z"/><path id="z38797d7" d="M331 574Q379 564 446 558Q455 557 456 550Q456 546 443 536C431 527 415 524 400 524Q388 521 332 541C305 547 305 547 291 550Q246 557 210 564C201 566 206 591 215 591Q225 591 237 591Q258 585 290 580C317 576 317 576 331 574Z"/><path id="z38797d8" d="M330 686Q382 674 446 664Q462 661 462 654Q463 642 446 634Q416 622 330 647C301 654 301 654 286 658Q145 689 72 699Q59 700 57 708Q54 718 69 729Q108 753 145 740Q226 713 283 697C314 690 314 690 330 686Z"/><path id="z38797d9" d="M330 647Q330 610 331 574C332 552 332 552 332 541Q333 492 335 460C337 441 337 441 338 432Q339 423 341 417Q344 405 337 400Q321 385 307 377C298 372 271 373 276 382Q276 383 279 387Q288 403 290 445C291 461 291 461 291 469Q291 505 291 550C290 570 290 570 290 580Q289 593 289 610Q288 635 286 658C284 684 284 684 283 697Q265 835 273 856Q279 875 290 893Q300 911 307 914Q317 915 323 903Q335 873 332 845Q331 761 330 686C330 660 330 660 330 647Z"/><path id="z38797d10" d="M635 145Q659 167 685 196Q698 209 716 209Q726 209 733 195Q737 180 730 148Q721 118 631 94Q615 90 608 93Q602 97 604 110Q607 122 635 145Z"/><path id="z38797d11" d="M548 287Q533 260 519 253Q516 249 510 253Q506 256 504 267Q508 291 486 344Q476 360 477 378Q480 397 489 410Q496 422 502 414Q511 411 527 371Q536 343 551 315C556 307 552 295 548 287Z"/><path id="z38797d12" d="M551 315Q566 321 616 307Q703 277 810 266Q816 266 820 266Q833 276 832 282Q832 289 801 356Q795 368 801 371Q808 375 821 364Q870 327 910 312Q944 299 943 290Q942 283 879 239Q858 224 767 245Q734 246 548 287C539 289 542 313 551 315Z"/><path id="z38797d13" d="M644 528Q671 447 685 421Q694 414 690 404Q683 391 644 367Q632 358 622 364Q609 368 618 383Q633 413 600 534C593 558 593 558 589 570Q576 607 561 633Q552 651 556 662Q557 672 575 675Q614 688 653 715C678 731 678 731 690 739Q747 779 832 861Q856 883 873 884Q894 885 896 866Q897 847 873 798Q860 768 718 701C689 687 689 687 674 680Q644 667 621 658Q594 654 609 627Q621 591 631 563C640 540 640 540 644 528Z"/><path id="z38797d14" d="M789 506Q779 493 768 488Q750 472 732 474Q719 475 722 490Q726 503 726 517C722 540 722 540 720 552Q710 612 674 680C660 703 660 703 653 715Q592 793 467 850Q454 856 464 861Q552 868 653 784Q662 769 690 739C709 714 709 714 718 701Q731 677 769 587Q776 565 788 548C795 536 797 517 789 506Z"/><path id="z38797d15" d="M788 548Q821 545 937 545Q955 545 959 538Q963 528 949 516Q900 480 841 496Q817 500 789 506C747 513 747 513 726 517Q681 520 644 528C615 532 615 532 600 534Q542 540 479 549Q460 550 474 566Q501 590 543 580Q564 574 589 570C617 565 617 565 631 563Q653 559 680 556Q698 553 720 552C765 549 765 549 788 548Z"/></g>
<defs><clipPath id="z38797c1"><use href="#z38797d1"/></clipPath>
	<clipPath id="z38797c2"><use href="#z38797d2"/></clipPath>
	<clipPath id="z38797c3"><use href="#z38797d3"/></clipPath>
	<clipPath id="z38797c4"><use href="#z38797d4"/></clipPath>
	<clipPath id="z38797c5"><use href="#z38797d5"/></clipPath>
	<clipPath id="z38797c6"><use href="#z38797d6"/></clipPath>
	<clipPath id="z38797c7"><use href="#z38797d7"/></clipPath>
	<clipPath id="z38797c8"><use href="#z38797d8"/></clipPath>
	<clipPath id="z38797c9"><use href="#z38797d9"/></clipPath>
	<clipPath id="z38797c10"><use href="#z38797d10"/></clipPath>
	<clipPath id="z38797c11"><use href="#z38797d11"/></clipPath>
	<clipPath id="z38797c12"><use href="#z38797d12"/></clipPath>
	<clipPath id="z38797c13"><use href="#z38797d13"/></clipPath>
	<clipPath id="z38797c14"><use href="#z38797d14"/></clipPath>
	<clipPath id="z38797c15"><use href="#z38797d15"/></clipPath><marker id="guide-arrow" viewBox="0 0 16 16" refX="5" refY="5" markerWidth="4" markerHeight="4" orient="auto-start-reverse"><path d="M 0 0 L 10 5 L 0 10 z" fill="inherit"/></marker></defs>
<g class="strokes"><path pathLength="3333" clip-path="url(#z38797c1)" d="M116 261L492 215"/><path pathLength="3333" clip-path="url(#z38797c2)" d="M182 154L229 183L249 407"/><path pathLength="3333" clip-path="url(#z38797c3)" d="M370 67L412 120L353 329"/><path pathLength="3333" clip-path="url(#z38797c4)" d="M272 374L403 354"/><path pathLength="3333" clip-path="url(#z38797c5)" d="M141 464L170 484L204 615"/><path pathLength="3333" clip-path="url(#z38797c6)" d="M196 467L419 429L457 462L420 529"/><path pathLength="3333" clip-path="url(#z38797c7)" d="M219 571L451 548"/><path pathLength="3333" clip-path="url(#z38797c8)" d="M60 708L114 719L456 653"/><path pathLength="3333" clip-path="url(#z38797c9)" d="M284 384L315 414L307 909"/><path pathLength="3333" clip-path="url(#z38797c10)" d="M611 100L692 154L722 202"/><path pathLength="3333" clip-path="url(#z38797c11)" d="M515 257L526 301L496 410"/><path pathLength="3333" clip-path="url(#z38797c12)" d="M554 292L849 255L886 305L807 366"/><path pathLength="3333" clip-path="url(#z38797c13)" d="M622 371L656 415L579 650L798 780L879 880"/><path pathLength="3333" clip-path="url(#z38797c14)" d="M730 483L754 546L682 712L593 801L469 856"/><path pathLength="3333" clip-path="url(#z38797c15)" d="M476 556L870 518L955 529"/></g>
<g class="guides"><text class="g1" style="--gs:1" x="116" y="261">①</text><path class="g1 aligned" style="--gs:1" d="M116,261 L492,215"/><path class="g1 offset" style="--gs:1" d="M116,357 L492,311"/><text class="g2" style="--gs:2" x="182" y="154">②</text><path class="g2 aligned" style="--gs:2" d="M182,154 Q229,183 231.5,211 Q246.5,379 249,407"/><path class="g2 offset" style="--gs:2" d="M267.68,85.46 Q314.68,114.46 317.18,142.46 Q332.18,310.46 334.68,338.46"/><text class="g3" style="--gs:3" x="370" y="67">③</text><path class="g3 aligned" style="--gs:3" d="M370,67 Q412,120 404.63,146.13 Q360.38,302.88 353,329"/><path class="g3 offset" style="--gs:3" d="M274,67 Q316,120 308.63,146.13 Q264.38,302.88 257,329"/><text class="g4" style="--gs:4" x="272" y="374">④</text><path class="g4 aligned" style="--gs:4" d="M272,374 L403,354"/><path class="g4 offset" style="--gs:4" d="M272,470 L403,450"/><text class="g5" style="--gs:5" x="141" y="464">⑤</text><path class="g5 aligned" style="--gs:5" d="M156,474 L204,615"/><path class="g5 offset" style="--gs:5" d="M276,474 L324,615"/><text class="g6" style="--gs:6" x="196" y="467">⑥</text><path class="g6 aligned" style="--gs:6" d="M196,467 Q419,429 428.5,437.25 Q457,462 447.75,478.75 Q429.25,512.25 420,529"/><path class="g6 offset" style="--gs:6" d="M196,563 Q316.47,525 321.6,533.25 Q337,558 332,562.25 Q322.01,570.75 317.01,575"/><text class="g7" style="--gs:7" x="219" y="571">⑦</text><path class="g7 aligned" style="--gs:7" d="M219,571 L451,548"/><path class="g7 offset" style="--gs:7" d="M219,667 L451,644"/><text class="g8" style="--gs:8" x="60" y="708">⑧</text><path class="g8 aligned" style="--gs:8" d="M60,708 Q114,719 156.75,710.75 Q413.25,661.25 456,653"/><path class="g8 offset" style="--gs:8" d="M60,804 Q114,815 156.75,806.75 Q413.25,757.25 456,749"/><text class="g9" style="--gs:9" x="284" y="384">⑨</text><path class="g9 aligned" style="--gs:9" d="M284,384 Q315,414 314,475.88 Q308,847.13 307,909"/><path class="g9 offset" style="--gs:9" d="M188,384 Q219,414 218,475.88 Q212,847.13 211,909"/><text class="g10" style="--gs:10" x="611" y="100">⑩</text><path class="g10 aligned" style="--gs:10" d="M611,100 Q692,154 695.75,160 Q718.25,196 722,202"/><path class="g10 offset" style="--gs:10" d="M696.68,31.46 Q777.68,85.46 781.43,91.46 Q803.93,127.46 807.68,133.46"/><text class="g11" style="--gs:11" x="515" y="257">⑪</text><path class="g11 aligned" style="--gs:11" d="M515,257 Q526,301 522.25,314.63 Q499.75,396.38 496,410"/><path class="g11 offset" style="--gs:11" d="M635,257 Q646,301 642.25,314.63 Q619.75,396.38 616,410"/><text class="g12" style="--gs:12" x="554" y="292">⑫</text><path class="g12 aligned" style="--gs:12" d="M554,292 Q849,255 858.25,267.5 Q886,305 866.25,320.25 Q826.75,350.75 807,366"/><path class="g12 offset" style="--gs:12" d="M554,388 Q736.15,351 741.87,363.5 Q759,401 746.8,416.25 Q722.41,446.75 710.22,462"/><text class="g13" style="--gs:13" x="622" y="371">⑬</text><path class="g13 aligned" style="--gs:13" d="M622,371 Q656,415 617.5,532.5 Q579,650 688.5,715 Q798,780 838.5,830 Q838.5,830 879,880"/><path class="g13 offset" style="--gs:13" d="M707.68,302.46 Q741.68,346.46 703.18,463.96 Q664.68,581.46 774.18,646.46 Q883.68,711.46 924.18,761.46 Q924.18,761.46 964.68,811.46"/><text class="g14" style="--gs:14" x="730" y="483">⑭</text><path class="g14 aligned" style="--gs:14" d="M730,483 Q754,546 718,629 Q682,712 637.5,756.5 Q593,801 531,828.5 Q531,828.5 469,856"/><path class="g14 offset" style="--gs:14" d="M634,483 Q647.89,529.79 627.05,591.42 Q606.21,653.06 580.45,686.11 Q554.68,719.16 518.79,739.58 Q518.79,739.58 482.89,760"/><text class="g15" style="--gs:15" x="476" y="556">⑮</text><path class="g15 aligned" style="--gs:15" d="M476,556 Q870,518 880.63,519.38 Q944.38,527.63 955,529"/><path class="g15 offset" style="--gs:15" d="M476,652 Q870,614 880.63,615.38 Q944.38,623.63 955,625"/></g>
</svg>
