<svg id="z38915" class="acjk" viewBox="0 0 1024 1024" xmlns="http://www.w3.org/2000/svg">
<style>

@keyframes zk {
	to {
		stroke-dashoffset:0;
	}
}
svg.acjk path[clip-path] {
	--t:0.8s;
	animation:zk var(--t) linear forwards var(--d);
	stroke-dasharray:3337;
	stroke-dashoffset:3339;
	stroke-width:128;
	stroke-linecap:round;
	fill:none;
	stroke:#000;
}
svg.acjk path[id] {fill:#ccc;}


    @keyframes guide-fade {
        0% { opacity: 0; }
        3% { opacity: 1; }
        95% { opacity: 1; }
        100% { opacity: 0; }
    }

    svg.acjk #guide-arrow {
        fill: #f77;
    }

    svg.acjk .guides {
        circle {
            fill: #0f6;
        }

        path {
            opacity: 0;
            animation: guide-fade var(--t) linear forwards var(--d);
            stroke-width: 16px;
            stroke-linecap: round;
            stroke: #f77;
            fill: none;
            marker-end: url(#guide-arrow);
        }

        circle,
        path {
            --t: 0.8s;
            opacity: 0;
            animation: guide-fade calc(var(--t) + 0.4s) ease-in-out forwards calc(var(--d) - 0.2s);
        }
    }
</style>
<path id="z38915d1" d="M263 371C309 356 378 326 406 318C416 314 435 305 427 292C418 278 408 271 394 262C375 249 368 259 368 265C368 280 312 324 264 342C255 346 254 375 263 371Z"/>
<path id="z38915d2" d="M264 342Q265 260 269 245Q273 226 260 217Q248 205 202 193Q186 190 179 196Q172 203 183 222Q213 264 216 369Q216 549 162 621Q156 625 152 632Q139 645 147 667Q156 697 171 711Q184 721 198 706Q250 646 409 526Q425 516 428 506Q431 500 424 500Q412 501 279 571Q269 575 264 572Q258 569 259 553Q260 442 263 371C264 352 264 352 264 342Z"/>
<path id="z38915d3" d="M619 192C666 181 755 168 889 168C901 167 910 164 913 158C916 150 911 141 901 134C864 107 824 105 778 118C710 135 600 154 451 182C438 184 436 190 447 201C455 209 466 215 478 218C492 220 503 220 514 217C535 210 559 205 583 200C607 195 607 195 619 192Z"/>
<path id="z38915d4" d="M589 311C595 303 650 224 646 218C640 209 632 200 619 192C608 186 581 188 583 200C587 214 583 250 560 316C556 325 583 319 589 311Z"/>
<path id="z38915d5" d="M526 320C520 314 509 309 495 304C488 301 482 300 476 304C471 306 472 311 475 319C476 323 477 328 480 334C488 350 498 426 493 560C490 623 484 661 494 677C498 683 502 689 507 695C513 703 520 704 526 696C530 689 534 683 535 677C539 667 538 656 538 646C539 626 538 568 538 553C538 536 538 536 538 527C538 478 538 478 538 454C538 435 538 435 538 426C538 379 538 353 540 349C542 338 535 326 526 320Z"/>
<path id="z38915d6" d="M759 652C761 670 783 698 790 698C800 697 809 685 821 664C830 645 835 630 834 616C827 561 825 491 826 406C826 381 832 358 846 337C852 326 854 317 849 312C831 295 806 280 775 268C764 264 751 266 737 271C718 277 670 296 589 311C570 314 570 314 560 316C548 318 536 318 526 320C515 322 529 349 540 349C558 349 672 318 720 310C736 307 747 310 753 318C763 331 768 359 768 403C768 521 766 594 760 621C759 642 759 642 759 652Z"/>
<path id="z38915d7" d="M538 454C560 456 634 451 714 432C714 431 714 431 715 431C720 426 720 421 718 417C714 410 704 402 689 402C669 401 556 423 538 426C529 428 529 454 538 454Z"/>
<path id="z38915d8" d="M538 553C558 557 626 550 662 546C678 544 704 542 718 535C723 531 724 525 722 522C718 515 708 509 693 505C677 500 661 502 645 508C629 513 557 525 538 527C529 528 530 551 538 553Z"/>
<path id="z38915d9" d="M535 677C552 681 697 658 759 652C769 650 770 625 760 621C755 618 747 615 736 614C725 612 664 622 538 646C528 648 525 677 535 677Z"/>
<path id="z38915d10" d="M546 721C531 766 472 826 366 899C350 909 352 911 372 912C418 912 483 881 566 809C567 807 584 793 619 765C628 757 630 749 630 743C628 733 619 725 601 718C580 710 566 705 558 706C553 706 549 711 546 721Z"/>
<path id="z38915d11" d="M699 733C742 780 791 834 842 901C852 915 861 926 872 929C877 930 883 926 889 921C897 912 898 893 894 863C887 818 824 765 703 701C696 697 692 698 691 707C689 715 691 725 699 733Z"/>
<defs>
	<clipPath id="z38915c1"><use href="#z38915d1"/></clipPath>
	<clipPath id="z38915c2"><use href="#z38915d2"/></clipPath>
	<clipPath id="z38915c3"><use href="#z38915d3"/></clipPath>
	<clipPath id="z38915c4"><use href="#z38915d4"/></clipPath>
	<clipPath id="z38915c5"><use href="#z38915d5"/></clipPath>
	<clipPath id="z38915c6"><use href="#z38915d6"/></clipPath>
	<clipPath id="z38915c7"><use href="#z38915d7"/></clipPath>
	<clipPath id="z38915c8"><use href="#z38915d8"/></clipPath>
	<clipPath id="z38915c9"><use href="#z38915d9"/></clipPath>
	<clipPath id="z38915c10"><use href="#z38915d10"/></clipPath>
	<clipPath id="z38915c11"><use href="#z38915d11"/></clipPath>
<marker id="guide-arrow" viewBox="0 0 16 16" refX="5" refY="5" markerWidth="4" markerHeight="4" orient="auto-start-reverse"><path d="M 0 0 L 10 5 L 0 10 z" fill="inherit"/></marker></defs>
<path style="--d:1s;" pathLength="3333" clip-path="url(#z38915c1)" d="M376 261L394 298L264 356"/>
<path style="--d:2s;" pathLength="3333" clip-path="url(#z38915c2)" d="M182 199L235 253L197 661L421 507"/>
<path style="--d:3s;" pathLength="3333" clip-path="url(#z38915c3)" d="M446 189L816 139L908 154"/>
<path style="--d:4s;" pathLength="3333" clip-path="url(#z38915c4)" d="M589 205L613 237L570 312"/>
<path style="--d:5s;" pathLength="3333" clip-path="url(#z38915c5)" d="M482 309L512 355L517 697"/>
<path style="--d:6s;" pathLength="3333" clip-path="url(#z38915c6)" d="M535 321L754 289L808 332L787 689"/>
<path style="--d:7s;" pathLength="3333" clip-path="url(#z38915c7)" d="M547 447L714 422"/>
<path style="--d:8s;" pathLength="3333" clip-path="url(#z38915c8)" d="M547 546L718 526"/>
<path style="--d:9s;" pathLength="3333" clip-path="url(#z38915c9)" d="M543 669L759 636"/>
<path style="--d:10s;" pathLength="3333" clip-path="url(#z38915c10)" d="M562 714L581 752L486 839L364 906"/>
<path style="--d:11s;" pathLength="3333" clip-path="url(#z38915c11)" d="M697 706L841 839L880 922"/>
<g class="guides"><circle style="--d: 1s" class="g1" cx="385" cy="280" r="16"/><path style="--d: 1s;" class="g1" d="M470.68,348.544 L349.68,424.544"/><circle style="--d: 2s" class="g2" cx="182" cy="199" r="16"/><path style="--d: 2s;" class="g2" d="M267.68,130.45600000000002 Q320.68,175.63646753246752 311.18,260.9773506493506 Q282.68,517 338.68,484.788 Q450.68,420.36400000000003 506.68,388.15200000000004"/><circle style="--d: 3s" class="g3" cx="446" cy="189" r="16"/><path style="--d: 3s;" class="g3" d="M446,285 Q816,235 827.5,236.875 Q896.5,248.125 908,250"/><circle style="--d: 4s" class="g4" cx="601" cy="221" r="16"/><path style="--d: 4s;" class="g4" d="M721,221 L690,312"/><circle style="--d: 5s" class="g5" cx="482" cy="309" r="16"/><path style="--d: 5s;" class="g5" d="M567.68,240.45600000000002 Q597.68,286.456 598.305,329.206 Q602.055,585.706 602.68,628.456"/><circle style="--d: 6s" class="g6" cx="535" cy="321" r="16"/><path style="--d: 6s;" class="g6" d="M535,417 Q657.7362637362637,385 665.3021978021977,393.17 Q688,417.68 685.0576923076924,485.51 Q679.1730769230769,621.17 676.2307692307693,689"/><circle style="--d: 7s" class="g7" cx="547" cy="447" r="16"/><path style="--d: 7s;" class="g7" d="M547,543 L714,518"/><circle style="--d: 8s" class="g8" cx="547" cy="546" r="16"/><path style="--d: 8s;" class="g8" d="M547,642 L718,622"/><circle style="--d: 9s" class="g9" cx="543" cy="669" r="16"/><path style="--d: 9s;" class="g9" d="M543,765 L759,732"/><circle style="--d: 10s" class="g10" cx="562" cy="714" r="16"/><path style="--d: 10s;" class="g10" d="M466,714 Q475.5,733 463.625,743.875 Q428,776.5 412.75,784.875 Q382.25,801.625 367,810"/><circle style="--d: 11s" class="g11" cx="697" cy="706" r="16"/><path style="--d: 11s;" class="g11" d="M782.68,637.456 Q926.68,770.456 931.555,780.831 Q960.805,843.081 965.68,853.456"/></g></svg>