<svg id="z39002" class="acjk" viewBox="0 0 1024 1024" xmlns="http://www.w3.org/2000/svg">
<style>

@keyframes zk {
	to {
		stroke-dashoffset:0;
	}
}
svg.acjk path[clip-path] {
	--t:0.8s;
	animation:zk var(--t) linear forwards var(--d);
	stroke-dasharray:3337;
	stroke-dashoffset:3339;
	stroke-width:128;
	stroke-linecap:round;
	fill:none;
	stroke:#000;
}
svg.acjk path[id] {fill:#ccc;}


    @keyframes guide-fade {
        0% { opacity: 0; }
        3% { opacity: 1; }
        95% { opacity: 1; }
        100% { opacity: 0; }
    }

    svg.acjk #guide-arrow {
        fill: #f77;
    }

    svg.acjk .guides {
        circle {
            fill: #0f6;
        }

        path {
            opacity: 0;
            animation: guide-fade var(--t) linear forwards var(--d);
            stroke-width: 16px;
            stroke-linecap: round;
            stroke: #f77;
            fill: none;
            marker-end: url(#guide-arrow);
        }

        circle,
        path {
            --t: 0.8s;
            opacity: 0;
            animation: guide-fade calc(var(--t) + 0.4s) ease-in-out forwards calc(var(--d) - 0.2s);
        }
    }
</style>
<path id="z39002d1" d="M252 203C249 180 253 154 258 125C259 114 257 107 251 103C242 96 232 90 220 87C213 84 207 85 203 89C200 90 199 96 203 106C210 126 215 147 215 168C215 218 218 249 223 263C226 273 232 284 245 293C291 323 356 326 440 301C458 295 476 283 495 268C503 261 505 252 499 242C493 233 485 214 478 185C476 178 475 173 472 171C469 168 467 172 465 180C453 212 442 233 434 243C428 249 416 256 399 262C359 274 321 275 287 264C263 256 256 241 254 220C253 214 252 208 252 203Z"/>
<path id="z39002d2" d="M254 220C333 187 383 159 427 147C439 143 445 137 441 126C437 115 427 104 415 94C402 83 393 78 387 78C380 77 377 81 377 89C377 105 335 143 252 203C247 206 249 222 254 220Z"/>
<path id="z39002d3" d="M274 376C270 370 261 366 248 362C236 358 229 362 233 373C234 376 235 381 237 385C243 397 252 453 248 554C245 604 241 637 253 654C258 661 265 669 272 661C276 654 279 646 280 638C280 628 280 618 281 608C281 592 280 575 280 559C280 544 280 544 280 536C280 518 280 500 280 483C280 467 280 467 280 459C280 425 280 405 281 401C283 393 279 383 274 376Z"/>
<path id="z39002d4" d="M416 620C423 658 442 668 460 638C464 629 469 610 468 579C462 484 465 425 484 400C489 392 490 384 486 380C474 366 454 355 430 345C422 341 412 342 401 347C378 355 336 365 274 376C265 377 273 403 281 401C310 396 355 386 393 381C433 376 427 426 427 447C426 524 425 576 421 600C420 607 415 613 416 620Z"/>
<path id="z39002d5" d="M280 483C284 480 318 474 382 465C394 462 398 457 393 450C386 441 376 436 362 436C345 434 318 443 280 459C273 462 273 486 280 483Z"/>
<path id="z39002d6" d="M280 559C290 556 325 550 386 541C398 538 402 533 397 526C390 517 380 513 366 512C341 509 312 518 280 536C273 540 272 561 280 559Z"/>
<path id="z39002d7" d="M280 638C328 631 376 623 416 620C423 620 426 604 421 600C382 566 392 591 281 608C271 610 270 640 280 638Z"/>
<path id="z39002d8" d="M179 513C182 502 179 495 171 487C156 473 139 462 118 457C108 454 100 455 96 462C93 465 94 473 102 484C114 502 120 524 122 552C126 630 118 689 95 730C90 738 89 746 93 753C99 763 108 772 120 779C127 783 134 780 144 773C210 723 330 701 498 708C508 708 516 709 521 706C524 703 525 698 522 692C519 686 508 678 488 668C480 664 450 668 399 673C362 676 289 683 182 711C159 716 160 695 161 683C165 595 170 538 179 513Z"/>
<path id="z39002d9" d="M241 781C230 819 181 870 93 933C79 942 80 944 98 944C140 943 196 913 265 853C283 837 296 826 305 819C312 812 314 806 314 800C313 791 304 784 289 778C272 770 259 766 251 768C246 768 243 773 241 781Z"/>
<path id="z39002d10" d="M399 798C410 810 421 824 434 840C440 848 448 853 458 854C464 854 469 850 473 843C476 834 478 821 474 804C470 787 444 771 399 756C390 753 383 751 380 753C376 754 374 760 375 768C375 774 385 783 399 798Z"/>
<path id="z39002d11" d="M710 226C763 213 833 201 923 201C934 200 942 198 945 192C947 185 943 178 934 172C901 150 868 150 831 161C728 189 638 205 565 221C554 223 552 229 561 237C578 252 599 255 619 249C637 243 655 238 675 234C698 229 698 229 710 226Z"/>
<path id="z39002d12" d="M666 351C732 248 763 271 710 226C700 219 675 222 675 234C676 278 661 304 640 357C637 365 661 358 666 351Z"/>
<path id="z39002d13" d="M602 363C598 359 588 353 573 347C559 341 548 346 554 361C555 365 556 370 559 375C573 403 580 477 569 596C563 657 561 694 570 709C572 713 575 718 580 724C585 730 591 730 597 724C601 718 605 711 606 705C608 685 608 685 609 675C609 668 610 641 610 593C610 576 610 576 610 568C610 542 608 517 610 492C611 477 611 477 611 470C612 444 611 418 613 392C613 382 610 369 602 363Z"/>
<path id="z39002d14" d="M807 683C825 730 844 738 866 697C874 679 880 665 879 652C870 597 866 529 866 446C865 421 871 399 885 379C891 368 893 359 887 354C869 338 843 325 813 313C803 308 790 310 776 316C766 320 729 331 666 351C649 355 649 355 640 357C624 361 613 363 602 363C592 363 603 394 613 392C650 384 714 367 765 359C816 351 811 417 812 444C815 564 814 637 808 661C807 668 804 676 807 683Z"/>
<path id="z39002d15" d="M610 492C629 493 709 477 753 472C765 470 769 465 765 458C759 449 749 443 735 442C713 439 671 449 611 470C604 473 603 492 610 492Z"/>
<path id="z39002d16" d="M610 593C659 586 711 578 756 572C768 570 773 564 769 558C763 549 753 544 739 542C727 539 684 548 610 568C602 571 602 595 610 593Z"/>
<path id="z39002d17" d="M606 705C624 703 749 686 807 683C814 683 814 665 808 661C763 629 786 648 609 675C599 677 596 707 606 705Z"/>
<path id="z39002d18" d="M611 764C604 799 557 856 465 932C451 942 452 945 471 944C517 939 574 904 641 838C659 820 672 807 680 800C687 792 690 784 689 779C687 770 677 763 661 758C642 751 629 748 621 750C616 750 612 755 611 764Z"/>
<path id="z39002d19" d="M757 780C785 813 817 852 849 900C858 914 866 924 876 928C881 930 887 927 893 922C901 913 903 895 900 866C897 840 874 813 829 786C800 769 777 758 762 750C756 746 753 746 751 755C748 763 750 772 757 780Z"/>
<defs>
	<clipPath id="z39002c1"><use href="#z39002d1"/></clipPath>
	<clipPath id="z39002c2"><use href="#z39002d2"/></clipPath>
	<clipPath id="z39002c3"><use href="#z39002d3"/></clipPath>
	<clipPath id="z39002c4"><use href="#z39002d4"/></clipPath>
	<clipPath id="z39002c5"><use href="#z39002d5"/></clipPath>
	<clipPath id="z39002c6"><use href="#z39002d6"/></clipPath>
	<clipPath id="z39002c7"><use href="#z39002d7"/></clipPath>
	<clipPath id="z39002c8"><use href="#z39002d8"/></clipPath>
	<clipPath id="z39002c9"><use href="#z39002d9"/></clipPath>
	<clipPath id="z39002c10"><use href="#z39002d10"/></clipPath>
	<clipPath id="z39002c11"><use href="#z39002d11"/></clipPath>
	<clipPath id="z39002c12"><use href="#z39002d12"/></clipPath>
	<clipPath id="z39002c13"><use href="#z39002d13"/></clipPath>
	<clipPath id="z39002c14"><use href="#z39002d14"/></clipPath>
	<clipPath id="z39002c15"><use href="#z39002d15"/></clipPath>
	<clipPath id="z39002c16"><use href="#z39002d16"/></clipPath>
	<clipPath id="z39002c17"><use href="#z39002d17"/></clipPath>
	<clipPath id="z39002c18"><use href="#z39002d18"/></clipPath>
	<clipPath id="z39002c19"><use href="#z39002d19"/></clipPath>
<marker id="guide-arrow" viewBox="0 0 16 16" refX="5" refY="5" markerWidth="4" markerHeight="4" orient="auto-start-reverse"><path d="M 0 0 L 10 5 L 0 10 z" fill="inherit"/></marker></defs>
<path style="--d:1s;" pathLength="3333" clip-path="url(#z39002c1)" d="M206 93L233 122L243 256L281 286L433 276L472 245L471 183"/>
<path style="--d:2s;" pathLength="3333" clip-path="url(#z39002c2)" d="M386 83L397 130L256 212"/>
<path style="--d:3s;" pathLength="3333" clip-path="url(#z39002c3)" d="M241 369L262 399L265 659"/>
<path style="--d:4s;" pathLength="3333" clip-path="url(#z39002c4)" d="M274 385L413 362L455 390L436 649"/>
<path style="--d:5s;" pathLength="3333" clip-path="url(#z39002c5)" d="M281 474L388 454"/>
<path style="--d:6s;" pathLength="3333" clip-path="url(#z39002c6)" d="M278 551L392 528"/>
<path style="--d:7s;" pathLength="3333" clip-path="url(#z39002c7)" d="M280 626L418 607"/>
<path style="--d:8s;" pathLength="3333" clip-path="url(#z39002c8)" d="M102 465L147 506L129 727L143 744L347 694L516 698"/>
<path style="--d:9s;" pathLength="3333" clip-path="url(#z39002c9)" d="M253 773L265 814L95 938"/>
<path style="--d:10s;" pathLength="3333" clip-path="url(#z39002c10)" d="M382 761L443 807L460 848"/>
<path style="--d:11s;" pathLength="3333" clip-path="url(#z39002c11)" d="M565 231L850 180L940 185"/>
<path style="--d:12s;" pathLength="3333" clip-path="url(#z39002c12)" d="M682 230L703 267L647 353"/>
<path style="--d:13s;" pathLength="3333" clip-path="url(#z39002c13)" d="M560 354L590 400L590 723"/>
<path style="--d:14s;" pathLength="3333" clip-path="url(#z39002c14)" d="M605 372L793 336L847 373L836 720"/>
<path style="--d:15s;" pathLength="3333" clip-path="url(#z39002c15)" d="M611 483L757 460"/>
<path style="--d:16s;" pathLength="3333" clip-path="url(#z39002c16)" d="M606 583L765 564"/>
<path style="--d:17s;" pathLength="3333" clip-path="url(#z39002c17)" d="M603 695L806 673"/>
<path style="--d:18s;" pathLength="3333" clip-path="url(#z39002c18)" d="M620 754L642 792L465 940"/>
<path style="--d:19s;" pathLength="3333" clip-path="url(#z39002c19)" d="M756 755L855 849L882 924"/>
<g class="guides"><circle style="--d: 1s" class="g1" cx="220" cy="108" r="16"/><path style="--d: 1s;" class="g1" d="M305.68,39.456 Q317.18,164.62741573033708 326.68,177.31370786516854 Q336.18,190 374.18,185.77123595505617 Q412.18,181.54247191011234 421.93,168.43330337078652 Q431.68,155.3241348314607 431.43,129.105797752809 Q431.43,129.105797752809 431.18,102.88746067415731"/><circle style="--d: 2s" class="g2" cx="386" cy="83" r="16"/><path style="--d: 2s;" class="g2" d="M290,83 Q295.5,106.5 286.6875,111.625 Q233.8125,142.375 225,147.5"/><circle style="--d: 3s" class="g3" cx="252" cy="384" r="16"/><path style="--d: 3s;" class="g3" d="M372,384 L385,659"/><circle style="--d: 4s" class="g4" cx="274" cy="385" r="16"/><path style="--d: 4s;" class="g4" d="M274,481 Q343.5,458 348.75,462.6585365853658 Q364.5,476.6341463414634 362.125,519.7256097560976 Q357.375,605.9085365853658 355,649"/><circle style="--d: 5s" class="g5" cx="281" cy="474" r="16"/><path style="--d: 5s;" class="g5" d="M281,570 L388,550"/><circle style="--d: 6s" class="g6" cx="278" cy="551" r="16"/><path style="--d: 6s;" class="g6" d="M278,647 L392,624"/><circle style="--d: 7s" class="g7" cx="280" cy="626" r="16"/><path style="--d: 7s;" class="g7" d="M280,722 L418,703"/><circle style="--d: 8s" class="g8" cx="102" cy="465" r="16"/><path style="--d: 8s;" class="g8" d="M187.68,396.456 Q223.3669565217391,433.421247311828 216.22956521739127,533.0470967741935 Q209.09217391304347,632.6729462365591 214.64347826086953,640.3364731182796 Q220.19478260869562,648 301.08521739130435,625.4602150537635 Q381.97565217391303,602.9204301075268 448.9878260869565,604.7236129032258 Q448.9878260869565,604.7236129032258 516,606.5267956989247"/><circle style="--d: 9s" class="g9" cx="253" cy="773" r="16"/><path style="--d: 9s;" class="g9" d="M157,773 Q163,793.5 152.375,801.25 Q88.625,847.75 78,855.5"/><circle style="--d: 10s" class="g10" cx="382" cy="761" r="16"/><path style="--d: 10s;" class="g10" d="M467.68,692.456 Q528.68,738.456 530.805,743.581 Q543.555,774.331 545.68,779.456"/><circle style="--d: 11s" class="g11" cx="565" cy="231" r="16"/><path style="--d: 11s;" class="g11" d="M565,327 Q850,276 861.25,276.625 Q928.75,280.375 940,281"/><circle style="--d: 12s" class="g12" cx="682" cy="230" r="16"/><path style="--d: 12s;" class="g12" d="M586,230 Q596.5,248.5 593,253.875 Q572,286.125 568.5,291.5"/><circle style="--d: 13s" class="g13" cx="560" cy="354" r="16"/><path style="--d: 13s;" class="g13" d="M464,354 Q494,400 494,440.375 Q494,682.625 494,723"/><circle style="--d: 14s" class="g14" cx="605" cy="372" r="16"/><path style="--d: 14s;" class="g14" d="M605,468 Q699.7768595041323,432 706.5826446280992,438.9375 Q727,459.75 725.6136363636364,524.8125 Q722.8409090909091,654.9375 721.4545454545455,720"/><circle style="--d: 15s" class="g15" cx="611" cy="483" r="16"/><path style="--d: 15s;" class="g15" d="M611,579 L757,556"/><circle style="--d: 16s" class="g16" cx="606" cy="583" r="16"/><path style="--d: 16s;" class="g16" d="M606,679 L765,660"/><circle style="--d: 17s" class="g17" cx="603" cy="695" r="16"/><path style="--d: 17s;" class="g17" d="M603,791 L806,769"/><circle style="--d: 18s" class="g18" cx="620" cy="754" r="16"/><path style="--d: 18s;" class="g18" d="M524,754 Q535,773 523.9375,782.25 Q457.5625,837.75 446.5,847"/><circle style="--d: 19s" class="g19" cx="756" cy="755" r="16"/><path style="--d: 19s;" class="g19" d="M841.68,686.456 Q940.68,780.456 944.055,789.831 Q964.305,846.081 967.68,855.456"/></g></svg>