<!--
  Stroke-order data for 顧, derived from AnimCJK (https://github.com/parsimonhi/animCJK),
  itself derived from the Arphic PL KaitiM fonts. Distributed under the Arphic Public License
  (see ARPHICPL.TXT). Regenerated by scripts/build-strokes.ts — do not edit by hand.
-->
<svg id="z39015" class="acjk" viewBox="0 0 1024 1024" xmlns="http://www.w3.org/2000/svg">
<g class="glyph"><path style="--part:1" id="z39015d1" d="M213 105C192 109 189 119 205 128C227 140 259 141 300 130C337 121 377 109 418 97C436 91 448 87 451 83C456 77 457 71 454 67C449 59 438 54 421 51C404 48 369 59 314 81C284 92 251 98 213 105Z"/><path style="--part:1" id="z39015d2" d="M458 291C470 258 486 236 505 221C516 211 516 199 507 190C499 182 479 172 449 158C439 153 428 153 416 159C366 181 307 198 240 212C229 214 247 244 257 240C265 237 314 225 404 203C414 200 423 200 428 205C433 209 434 216 432 226C426 248 419 269 413 289C407 303 452 305 458 291Z"/><path style="--part:1" id="z39015d3" d="M238 360C240 362 244 365 251 366C257 367 264 366 272 364C314 351 380 336 471 321C477 319 481 317 481 311C481 306 473 299 458 291C445 283 427 283 413 289C374 302 291 326 241 337C233 338 232 355 238 360Z"/><path style="--part:1" id="z39015d4" d="M240 212C232 206 222 201 213 197C201 191 192 187 185 191C177 194 175 202 180 210C205 245 202 341 165 501C161 517 155 533 150 550C128 612 95 674 54 736C51 740 49 744 48 748C46 754 48 756 55 755C78 750 135 682 172 605C203 536 228 435 238 360C240 345 240 345 241 337C243 317 253 248 257 240C261 230 249 219 240 212Z"/><path style="--part:1" id="z39015d5" d="M263 522C284 505 318 454 343 415C347 408 348 402 346 397C343 390 334 387 320 386C303 384 293 384 288 387C284 389 281 393 282 401C283 421 269 458 234 511C226 521 218 532 210 545C202 556 203 558 216 553C220 551 228 549 236 543C254 529 254 529 263 522Z"/><path style="--part:1" id="z39015d6" d="M288 735C288 654 290 613 295 584C297 567 288 547 263 522C256 513 234 532 236 543C244 571 253 598 253 627C252 694 245 748 233 800C226 826 240 860 254 878C261 887 271 884 277 870C286 846 288 811 288 754C288 741 288 741 288 735Z"/><path style="--part:1" id="z39015d7" d="M394 379C412 407 428 423 444 426C450 427 457 422 461 412C463 405 461 395 455 385C446 369 426 361 398 357C393 356 390 359 390 365C389 369 390 374 394 379Z"/><path style="--part:1" id="z39015d8" d="M425 479C457 472 488 466 516 462C530 459 534 454 529 447C522 438 511 433 497 431C486 429 432 443 334 473C324 475 325 480 338 489C339 490 358 492 391 486C414 481 414 481 425 479Z"/><path style="--part:1" id="z39015d9" d="M438 698C438 678 439 659 440 641C441 616 441 616 442 603C442 588 443 574 444 560C445 535 445 535 446 522C446 521 450 501 446 496C439 489 432 483 425 479C415 473 387 475 391 486C397 504 399 520 400 536C401 558 401 558 401 569C401 584 400 600 401 616C402 637 402 637 402 648C402 667 402 707 402 707C402 719 438 710 438 698Z"/><path style="--part:1" id="z39015d10" d="M444 560C462 556 480 552 497 550C511 547 514 542 509 535C502 526 491 520 477 519C468 518 457 518 446 522C415 531 415 531 400 536C379 542 360 549 342 556C332 559 330 574 346 573C346 573 383 572 401 569C430 563 430 563 444 560Z"/><path style="--part:1" id="z39015d11" d="M440 641C460 637 481 633 501 630C513 627 518 622 513 615C506 606 495 600 481 599C470 597 457 598 442 603C415 612 415 612 401 616C378 623 357 630 338 637C328 640 329 644 342 653C344 654 364 655 402 648C427 643 427 643 440 641Z"/><path style="--part:1" id="z39015d12" d="M402 707C376 713 338 722 288 735C282 736 283 751 288 754C302 762 318 765 334 760C376 745 438 734 520 730C526 729 533 729 539 729C549 728 555 725 557 721C559 715 555 708 547 703C515 682 492 684 438 698C414 704 414 704 402 707Z"/><path style="--part:2" id="z39015d13" d="M691 200C737 189 806 178 899 175C927 174 945 172 949 165C952 157 947 149 937 142C899 117 862 116 823 127C737 150 645 167 550 187C537 189 535 195 546 205C555 213 566 218 577 221C582 222 607 218 650 209C677 203 677 203 691 200Z"/><path style="--part:2" id="z39015d14" d="M654 319C672 294 688 267 708 243C714 234 718 229 714 223C709 215 701 207 691 200C680 192 650 195 650 209C652 223 645 265 620 327C616 338 647 328 654 319Z"/><path style="--part:2" id="z39015d15" d="M594 331C588 326 580 322 572 319C565 316 559 315 553 319C548 321 549 326 552 334C553 338 555 342 557 347C570 376 576 447 566 557C561 609 557 644 568 664C570 668 574 673 579 679C585 686 592 687 598 680C601 675 605 670 606 664C608 645 608 645 609 635C610 621 611 592 611 549C611 530 611 530 611 521C611 499 610 477 611 456C612 436 612 436 612 426C612 404 613 381 615 359C615 347 603 338 594 331Z"/><path style="--part:2" id="z39015d16" d="M799 641C807 669 823 686 830 686C840 685 849 673 861 652C870 633 875 618 874 604C867 552 865 486 867 406C867 383 873 361 886 341C892 330 894 321 888 316C870 300 844 286 813 274C803 270 790 271 775 278C760 283 722 303 654 319C631 324 631 324 620 327C611 329 602 329 594 331C583 333 603 361 615 359C633 357 776 311 794 322C807 330 807 361 808 402C809 506 806 573 802 603C800 616 797 629 799 641Z"/><path style="--part:2" id="z39015d17" d="M611 456C628 456 709 438 747 433C763 430 767 424 761 416C754 406 742 400 725 398C703 395 665 404 612 426C603 430 601 456 611 456Z"/><path style="--part:2" id="z39015d18" d="M611 549C629 551 716 533 755 528C769 525 774 520 769 512C762 502 750 495 733 493C712 490 671 500 611 521C602 524 602 549 611 549Z"/><path style="--part:2" id="z39015d19" d="M606 664Q610 664 615 664Q718 649 799 641C811 639 814 605 802 603Q781 599 742 608Q672 621 609 635C599 637 596 664 606 664Z"/><path style="--part:2" id="z39015d20" d="M613 716C604 753 559 810 473 881C461 890 461 891 478 891C510 889 564 852 618 807C624 802 654 773 680 750C687 743 689 736 688 730C686 721 676 715 661 710C642 703 630 701 623 703C618 704 614 707 613 716Z"/><path style="--part:2" id="z39015d21" d="M760 739C792 780 829 828 867 888C875 901 883 912 893 916C897 917 903 914 909 910C917 903 920 885 918 856C915 819 864 771 766 710C760 706 756 707 754 715C751 723 754 732 760 739Z"/></g>
<defs><clipPath id="z39015c1"><use href="#z39015d1"/></clipPath>
	<clipPath id="z39015c2"><use href="#z39015d2"/></clipPath>
	<clipPath id="z39015c3"><use href="#z39015d3"/></clipPath>
	<clipPath id="z39015c4"><use href="#z39015d4"/></clipPath>
	<clipPath id="z39015c5"><use href="#z39015d5"/></clipPath>
	<clipPath id="z39015c6"><use href="#z39015d6"/></clipPath>
	<clipPath id="z39015c7"><use href="#z39015d7"/></clipPath>
	<clipPath id="z39015c8"><use href="#z39015d8"/></clipPath>
	<clipPath id="z39015c9"><use href="#z39015d9"/></clipPath>
	<clipPath id="z39015c10"><use href="#z39015d10"/></clipPath>
	<clipPath id="z39015c11"><use href="#z39015d11"/></clipPath>
	<clipPath id="z39015c12"><use href="#z39015d12"/></clipPath>
	<clipPath id="z39015c13"><use href="#z39015d13"/></clipPath>
	<clipPath id="z39015c14"><use href="#z39015d14"/></clipPath>
	<clipPath id="z39015c15"><use href="#z39015d15"/></clipPath>
	<clipPath id="z39015c16"><use href="#z39015d16"/></clipPath>
	<clipPath id="z39015c17"><use href="#z39015d17"/></clipPath>
	<clipPath id="z39015c18"><use href="#z39015d18"/></clipPath>
	<clipPath id="z39015c19"><use href="#z39015d19"/></clipPath>
	<clipPath id="z39015c20"><use href="#z39015d20"/></clipPath>
	<clipPath id="z39015c21"><use href="#z39015d21"/></clipPath><marker id="guide-arrow" viewBox="0 0 16 16" refX="5" refY="5" markerWidth="4" markerHeight="4" orient="auto-start-reverse"><path d="M 0 0 L 10 5 L 0 10 z" fill="inherit"/></marker></defs>
<g class="strokes"><path style="--part:1" pathLength="3333" clip-path="url(#z39015c1)" d="M204 117L451 76"/><path style="--part:1" pathLength="3333" clip-path="url(#z39015c2)" d="M246 219L438 181L473 209L426 296"/><path style="--part:1" pathLength="3333" clip-path="url(#z39015c3)" d="M241 352L475 307"/><path style="--part:1" pathLength="3333" clip-path="url(#z39015c4)" d="M185 196L225 242L194 471L142 621L54 747"/><path style="--part:1" pathLength="3333" clip-path="url(#z39015c5)" d="M290 392L306 430L212 547"/><path style="--part:1" pathLength="3333" clip-path="url(#z39015c6)" d="M255 524L272 581L261 878"/><path style="--part:1" pathLength="3333" clip-path="url(#z39015c7)" d="M398 367L454 420"/><path style="--part:1" pathLength="3333" clip-path="url(#z39015c8)" d="M335 479L523 450"/><path style="--part:1" pathLength="3333" clip-path="url(#z39015c9)" d="M397 485L424 520L415 709"/><path style="--part:1" pathLength="3333" clip-path="url(#z39015c10)" d="M341 564L505 540"/><path style="--part:1" pathLength="3333" clip-path="url(#z39015c11)" d="M337 643L507 616"/><path style="--part:1" pathLength="3333" clip-path="url(#z39015c12)" d="M290 746L549 714"/><path style="--part:2" pathLength="3333" clip-path="url(#z39015c13)" d="M551 198L841 150L945 159"/><path style="--part:2" pathLength="3333" clip-path="url(#z39015c14)" d="M659 202L679 242L628 327"/><path style="--part:2" pathLength="3333" clip-path="url(#z39015c15)" d="M558 327L589 364L586 680"/><path style="--part:2" pathLength="3333" clip-path="url(#z39015c16)" d="M598 335L793 297L839 323L833 679"/><path style="--part:2" pathLength="3333" clip-path="url(#z39015c17)" d="M609 448L758 419"/><path style="--part:2" pathLength="3333" clip-path="url(#z39015c18)" d="M612 541L765 520"/><path style="--part:2" pathLength="3333" clip-path="url(#z39015c19)" d="M603 654L806 624"/><path style="--part:2" pathLength="3333" clip-path="url(#z39015c20)" d="M623 707L644 742L474 885"/><path style="--part:2" pathLength="3333" clip-path="url(#z39015c21)" d="M760 715L867 828L904 910"/></g>
<g class="guides"><text class="g1" style="--gs:1" x="204" y="117">①</text><path class="g1 aligned" style="--gs:1" d="M204,117 L451,76"/><path class="g1 offset" style="--gs:1" d="M204,213 L451,172"/><text class="g2" style="--gs:2" x="246" y="219">②</text><path class="g2 aligned" style="--gs:2" d="M246,219 Q438,181 446.75,188 Q473,209 461.25,230.75 Q437.75,274.25 426,296"/><path class="g2 offset" style="--gs:2" d="M246,315 Q342,277 346.38,284 Q359.5,305 353.63,312.38 Q341.88,327.13 336,334.5"/><text class="g3" style="--gs:3" x="241" y="352">③</text><path class="g3 aligned" style="--gs:3" d="M241,352 L475,307"/><path class="g3 offset" style="--gs:3" d="M241,448 L475,403"/><text class="g4" style="--gs:4" x="185" y="196">④</text><path class="g4 aligned" style="--gs:4" d="M185,196 Q225,242 209.5,356.5 Q194,471 168,546 Q142,621 98,684 Q98,684 54,747"/><path class="g4 offset" style="--gs:4" d="M89,196 Q109,233.99 101.25,328.54 Q93.5,423.09 80.5,485.02 Q67.5,546.95 45.5,598.98 Q45.5,598.98 23.5,651"/><text class="g5" style="--gs:5" x="290" y="392">⑤</text><path class="g5 aligned" style="--gs:5" d="M298,411 L212,547"/><path class="g5 offset" style="--gs:5" d="M383.68,479.54 L297.68,615.54"/><text class="g6" style="--gs:6" x="255" y="524">⑥</text><path class="g6 aligned" style="--gs:6" d="M255,524 Q272,581 270.63,618.13 Q262.38,840.88 261,878"/><path class="g6 offset" style="--gs:6" d="M375,524 Q392,581 390.63,618.13 Q382.38,840.88 381,878"/><text class="g7" style="--gs:7" x="398" y="367">⑦</text><path class="g7 aligned" style="--gs:7" d="M398,367 L454,420"/><path class="g7 offset" style="--gs:7" d="M483.68,298.46 L539.68,351.46"/><text class="g8" style="--gs:8" x="335" y="479">⑧</text><path class="g8 aligned" style="--gs:8" d="M335,479 L523,450"/><path class="g8 offset" style="--gs:8" d="M335,575 L523,546"/><text class="g9" style="--gs:9" x="397" y="485">⑨</text><path class="g9 aligned" style="--gs:9" d="M397,485 Q424,520 422.88,543.63 Q416.13,685.38 415,709"/><path class="g9 offset" style="--gs:9" d="M301,485 Q328,520 326.88,543.63 Q320.13,685.38 319,709"/><text class="g10" style="--gs:10" x="341" y="564">⑩</text><path class="g10 aligned" style="--gs:10" d="M341,564 L505,540"/><path class="g10 offset" style="--gs:10" d="M341,660 L505,636"/><text class="g11" style="--gs:11" x="337" y="643">⑪</text><path class="g11 aligned" style="--gs:11" d="M337,643 L507,616"/><path class="g11 offset" style="--gs:11" d="M337,739 L507,712"/><text class="g12" style="--gs:12" x="290" y="746">⑫</text><path class="g12 aligned" style="--gs:12" d="M290,746 L549,714"/><path class="g12 offset" style="--gs:12" d="M290,842 L549,810"/><text class="g13" style="--gs:13" x="551" y="198">⑬</text><path class="g13 aligned" style="--gs:13" d="M551,198 Q841,150 854,151.13 Q932,157.88 945,159"/><path class="g13 offset" style="--gs:13" d="M551,294 Q841,246 854,247.13 Q932,253.88 945,255"/><text class="g14" style="--gs:14" x="659" y="202">⑭</text><path class="g14 aligned" style="--gs:14" d="M659,202 Q679,242 672.63,252.63 Q634.38,316.38 628,327"/><path class="g14 offset" style="--gs:14" d="M563,202 Q573,222 569.81,227.31 Q550.69,259.19 547.5,264.5"/><text class="g15" style="--gs:15" x="558" y="327">⑮</text><path class="g15 aligned" style="--gs:15" d="M558,327 Q589,364 588.63,403.5 Q586.38,640.5 586,680"/><path class="g15 offset" style="--gs:15" d="M462,327 Q493,364 492.63,403.5 Q490.38,640.5 490,680"/><text class="g16" style="--gs:16" x="598" y="335">⑯</text><path class="g16 aligned" style="--gs:16" d="M598,335 Q793,297 804.5,303.5 Q839,323 837.5,412 Q834.5,590 833,679"/><path class="g16 offset" style="--gs:16" d="M598,431 Q695.9,393 701.68,399.5 Q719,419 718.25,484 Q716.74,614 715.99,679"/><text class="g17" style="--gs:17" x="609" y="448">⑰</text><path class="g17 aligned" style="--gs:17" d="M609,448 L758,419"/><path class="g17 offset" style="--gs:17" d="M609,544 L758,515"/><text class="g18" style="--gs:18" x="612" y="541">⑱</text><path class="g18 aligned" style="--gs:18" d="M612,541 L765,520"/><path class="g18 offset" style="--gs:18" d="M612,637 L765,616"/><text class="g19" style="--gs:19" x="603" y="654">⑲</text><path class="g19 aligned" style="--gs:19" d="M603,654 L806,624"/><path class="g19 offset" style="--gs:19" d="M603,750 L806,720"/><text class="g20" style="--gs:20" x="623" y="707">⑳</text><path class="g20 aligned" style="--gs:20" d="M634,725 L474,885"/><path class="g20 offset" style="--gs:20" d="M719.68,793.54 L559.68,953.54"/><text class="g21" style="--gs:21" x="760" y="715">㉑</text><path class="g21 aligned" style="--gs:21" d="M760,715 Q867,828 871.63,838.25 Q899.38,899.75 904,910"/><path class="g21 offset" style="--gs:21" d="M845.68,646.46 Q952.68,759.46 957.31,769.71 Q985.06,831.21 989.68,841.46"/></g>
<g class="parts"><rect data-part="1" data-literal="雇" role="button" tabindex="0" aria-label="Part 雇" x="0" y="4" width="621" height="946"/><rect data-part="2" data-literal="頁" data-radical="true" role="button" tabindex="0" aria-label="Part 頁 (radical)" x="402" y="78" width="615" height="904"/></g>
</svg>
