<!--
  Stroke-order data for 顯, derived from AnimCJK (https://github.com/parsimonhi/animCJK),
  itself derived from the Arphic PL KaitiM fonts. Distributed under the Arphic Public License
  (see ARPHICPL.TXT). Regenerated by scripts/build-strokes.ts — do not edit by hand.
-->
<svg id="z39023" class="acjk" viewBox="0 0 1024 1024" xmlns="http://www.w3.org/2000/svg">
<g class="glyph"><path id="z39023d1" d="M228 131C221 128 209 126 194 125C187 124 182 125 180 128C176 131 179 138 184 147C205 185 224 236 238 300C242 318 248 333 261 347C275 360 283 357 283 341C282 332 283 323 282 315C279 297 274 284 267 251C264 236 264 236 262 228C254 194 248 172 246 159C244 148 238 135 228 131Z"/><path id="z39023d2" d="M398 320C408 334 419 344 429 350C435 354 443 350 451 338C460 322 470 272 487 191C490 172 500 156 514 141C520 134 521 126 515 118C506 107 489 95 463 82C452 76 429 82 393 91C367 96 312 108 228 131C217 135 235 163 246 159C278 149 331 136 406 122C429 117 443 130 441 152C428 241 415 291 403 299C398 304 394 314 398 320Z"/><path id="z39023d3" d="M267 251C277 251 304 241 374 229C386 226 390 220 385 214C378 206 368 202 354 201C339 199 308 209 262 228C255 231 259 253 267 251Z"/><path id="z39023d4" d="M283 341Q314 331 398 320C405 319 408 304 403 299Q400 295 393 292Q381 286 359 293Q316 306 282 315C274 318 274 343 283 341Z"/><path id="z39023d5" d="M220 532C203 530 188 529 174 529C155 529 152 524 161 512C185 476 206 443 229 416C235 407 238 401 238 398C236 391 225 380 207 365C198 358 190 355 182 358C177 359 176 364 179 372C187 399 172 444 130 504C126 509 120 514 114 521C105 528 100 534 102 540C103 548 107 558 115 567C119 572 124 572 131 570C156 560 175 555 207 551C215 549 228 534 220 532Z"/><path id="z39023d6" d="M278 604C247 611 219 621 198 628C186 631 184 630 191 621C242 546 282 496 311 473C316 468 318 462 315 457C309 448 297 439 280 429C271 424 265 423 261 425C256 426 254 430 255 439C256 459 247 491 220 532C211 545 211 545 207 551C171 602 148 633 133 644C126 648 124 654 126 662C127 668 134 675 148 686C154 691 159 691 167 685C194 660 235 638 284 617C288 615 283 603 278 604Z"/><path id="z39023d7" d="M284 617C288 627 295 634 303 638C307 640 313 638 319 631C322 626 323 618 322 608C320 599 314 591 306 584C292 571 283 563 277 560C273 558 270 559 268 564C266 566 267 580 278 604C282 613 282 613 284 617Z"/><path id="z39023d8" d="M425 486C405 485 387 485 371 486C357 486 354 482 361 473C381 444 400 419 419 398C424 391 426 386 426 383C424 377 416 367 401 355C394 349 387 346 380 348C375 348 374 352 377 359C382 373 372 403 346 451C340 460 332 470 321 480C314 485 310 491 311 496C312 504 316 512 322 519C326 524 330 523 336 521C352 513 379 507 413 502C420 501 432 486 425 486Z"/><path id="z39023d9" d="M469 557C449 559 427 563 405 572C394 575 392 574 399 565C439 510 474 471 504 448C510 442 512 438 509 433C504 424 494 414 478 405C470 400 463 398 459 400C454 400 452 405 453 414C453 429 447 456 425 486C417 497 417 497 413 502C374 553 349 579 343 584C336 588 333 594 335 601C335 607 343 614 355 624C360 628 365 629 373 624C399 603 433 585 474 569C478 567 473 556 469 557Z"/><path id="z39023d10" d="M474 569C480 585 484 599 498 605C503 607 510 606 516 599C519 593 521 584 520 574C519 565 511 557 503 548C489 533 480 524 473 521C468 518 466 520 464 525C462 528 461 532 463 538C465 544 466 550 469 557C472 565 472 565 474 569Z"/><path id="z39023d11" d="M147 728C139 756 131 785 119 813C111 831 113 851 128 871C134 879 144 880 154 871C179 845 184 812 179 774C176 754 175 736 168 724C165 719 160 717 157 718C152 719 148 723 147 728Z"/><path id="z39023d12" d="M234 732C240 746 247 763 254 782C256 789 261 795 268 798C272 799 277 799 282 795C286 790 291 780 293 766C294 753 278 731 246 701C240 695 235 693 232 694C229 694 226 697 225 703C223 707 227 717 234 732Z"/><path id="z39023d13" d="M334 700C352 737 364 758 372 760C376 761 381 759 386 755C391 749 393 739 394 725C394 711 376 691 342 668C336 663 331 661 328 662C325 662 322 665 322 672C321 676 326 685 334 700Z"/><path id="z39023d14" d="M425 651C443 688 457 709 469 714C475 716 482 714 487 706C490 699 490 690 488 679C485 670 478 663 468 655C452 642 441 634 434 631C429 629 426 631 424 637C422 641 422 645 425 651Z"/><path id="z39023d15" d="M669 223C725 211 785 200 849 188C881 181 900 174 906 170C912 165 914 160 911 155C906 148 895 141 878 137C859 132 841 134 823 141C784 154 744 166 703 176C656 186 606 191 553 198C530 200 527 208 543 219C557 228 573 232 591 234C608 235 625 231 638 229C659 225 659 225 669 223Z"/><path id="z39023d16" d="M695 271C701 262 704 258 701 253C695 244 685 234 669 223C661 217 636 219 638 229C651 276 624 325 616 353C613 361 637 356 641 349C677 297 677 297 695 271Z"/><path id="z39023d17" d="M585 357C580 353 573 349 566 346C561 343 554 341 549 346C541 351 549 366 553 374C569 411 576 490 560 609C553 657 552 691 571 714C577 721 585 721 589 716C592 711 594 706 597 701C600 692 600 679 600 669C599 653 600 634 601 585C601 557 601 569 601 562C601 536 600 509 601 484C601 476 602 486 602 461C602 435 602 409 604 384C604 373 594 364 585 357Z"/><path id="z39023d18" d="M795 681C798 689 803 699 809 706C826 731 844 709 856 687C865 669 870 654 869 640C850 500 854 411 879 373C885 362 887 353 881 348C863 332 839 318 808 306C798 302 785 304 771 310C750 318 709 338 641 349C624 352 624 352 616 353C605 354 595 355 585 357C574 359 594 387 604 384C632 374 683 361 757 348C771 345 781 347 786 354C795 366 800 393 801 435C802 551 801 622 796 647C794 658 791 670 795 681Z"/><path id="z39023d19" d="M601 484C615 486 703 469 748 463C762 460 767 454 761 447C754 438 743 432 727 430C707 427 665 438 602 461C595 464 593 484 601 484Z"/><path id="z39023d20" d="M601 585C613 588 710 572 759 567C773 565 778 558 773 551C766 542 754 536 739 533C722 529 676 538 601 562C594 565 593 585 601 585Z"/><path id="z39023d21" d="M597 701C610 703 643 689 795 681C806 681 806 653 796 647C759 628 761 647 600 669C589 671 586 701 597 701Z"/><path id="z39023d22" d="M608 749C596 787 545 843 450 912C436 921 436 923 455 924C497 924 557 894 636 827C655 810 669 799 679 791C687 783 689 776 689 770C687 761 678 753 661 746C642 737 628 733 620 735C615 735 610 740 608 749Z"/><path id="z39023d23" d="M748 762C777 800 810 847 845 905C853 919 861 930 871 935C876 938 882 935 889 930C899 922 902 904 900 872C897 834 848 788 755 731C749 727 745 727 742 736C738 744 741 753 748 762Z"/></g>
<defs><clipPath id="z39023c1"><use href="#z39023d1"/></clipPath>
	<clipPath id="z39023c2"><use href="#z39023d2"/></clipPath>
	<clipPath id="z39023c3"><use href="#z39023d3"/></clipPath>
	<clipPath id="z39023c4"><use href="#z39023d4"/></clipPath>
	<clipPath id="z39023c5"><use href="#z39023d5"/></clipPath>
	<clipPath id="z39023c6"><use href="#z39023d6"/></clipPath>
	<clipPath id="z39023c7"><use href="#z39023d7"/></clipPath>
	<clipPath id="z39023c8"><use href="#z39023d8"/></clipPath>
	<clipPath id="z39023c9"><use href="#z39023d9"/></clipPath>
	<clipPath id="z39023c10"><use href="#z39023d10"/></clipPath>
	<clipPath id="z39023c11"><use href="#z39023d11"/></clipPath>
	<clipPath id="z39023c12"><use href="#z39023d12"/></clipPath>
	<clipPath id="z39023c13"><use href="#z39023d13"/></clipPath>
	<clipPath id="z39023c14"><use href="#z39023d14"/></clipPath>
	<clipPath id="z39023c15"><use href="#z39023d15"/></clipPath>
	<clipPath id="z39023c16"><use href="#z39023d16"/></clipPath>
	<clipPath id="z39023c17"><use href="#z39023d17"/></clipPath>
	<clipPath id="z39023c18"><use href="#z39023d18"/></clipPath>
	<clipPath id="z39023c19"><use href="#z39023d19"/></clipPath>
	<clipPath id="z39023c20"><use href="#z39023d20"/></clipPath>
	<clipPath id="z39023c21"><use href="#z39023d21"/></clipPath>
	<clipPath id="z39023c22"><use href="#z39023d22"/></clipPath>
	<clipPath id="z39023c23"><use href="#z39023d23"/></clipPath><marker id="guide-arrow" viewBox="0 0 16 16" refX="5" refY="5" markerWidth="4" markerHeight="4" orient="auto-start-reverse"><path d="M 0 0 L 10 5 L 0 10 z" fill="inherit"/></marker></defs>
<g class="strokes"><path pathLength="3333" clip-path="url(#z39023c1)" d="M187 135L218 157L274 349"/><path pathLength="3333" clip-path="url(#z39023c2)" d="M232 135L426 101L464 114L479 138L422 343"/><path pathLength="3333" clip-path="url(#z39023c3)" d="M264 240L382 216"/><path pathLength="3333" clip-path="url(#z39023c4)" d="M284 330L401 307"/><path pathLength="3333" clip-path="url(#z39023c5)" d="M186 365L206 410L134 535L213 536"/><path pathLength="3333" clip-path="url(#z39023c6)" d="M262 430L281 473L158 643L174 659L279 611"/><path pathLength="3333" clip-path="url(#z39023c7)" d="M274 564L311 634"/><path pathLength="3333" clip-path="url(#z39023c8)" d="M382 351L399 389L336 491L419 493"/><path pathLength="3333" clip-path="url(#z39023c9)" d="M461 407L476 445L365 586L381 600L467 562"/><path pathLength="3333" clip-path="url(#z39023c10)" d="M469 529L505 602"/><path pathLength="3333" clip-path="url(#z39023c11)" d="M160 721L142 873"/><path pathLength="3333" clip-path="url(#z39023c12)" d="M233 703L271 794"/><path pathLength="3333" clip-path="url(#z39023c13)" d="M330 673L384 752"/><path pathLength="3333" clip-path="url(#z39023c14)" d="M431 637L479 706"/><path pathLength="3333" clip-path="url(#z39023c15)" d="M540 206L905 162"/><path pathLength="3333" clip-path="url(#z39023c16)" d="M645 227L671 265L626 352"/><path pathLength="3333" clip-path="url(#z39023c17)" d="M556 354L584 430L579 710"/><path pathLength="3333" clip-path="url(#z39023c18)" d="M590 364L783 327L833 358L827 713"/><path pathLength="3333" clip-path="url(#z39023c19)" d="M605 475L755 449"/><path pathLength="3333" clip-path="url(#z39023c20)" d="M602 574L768 556"/><path pathLength="3333" clip-path="url(#z39023c21)" d="M595 690L800 667"/><path pathLength="3333" clip-path="url(#z39023c22)" d="M621 739L638 781L535 874L449 918"/><path pathLength="3333" clip-path="url(#z39023c23)" d="M749 739L845 840L883 929"/></g>
<g class="guides"><text class="g1" style="--gs:1" x="187" y="135">①</text><path class="g1 aligned" style="--gs:1" d="M203,146 L274,349"/><path class="g1 offset" style="--gs:1" d="M323,146 L394,349"/><text class="g2" style="--gs:2" x="232" y="135">②</text><path class="g2 aligned" style="--gs:2" d="M232,135 Q426,101 445,107.5 Q464,114 471.5,126 Q479,138 450.5,240.5 Q450.5,240.5 422,343"/><path class="g2 offset" style="--gs:2" d="M232,231 Q331.75,197 341.52,203.5 Q351.29,210 355.14,214.66 Q359,219.32 344.35,281.16 Q344.35,281.16 329.69,343"/><text class="g3" style="--gs:3" x="264" y="240">③</text><path class="g3 aligned" style="--gs:3" d="M264,240 L382,216"/><path class="g3 offset" style="--gs:3" d="M264,336 L382,312"/><text class="g4" style="--gs:4" x="284" y="330">④</text><path class="g4 aligned" style="--gs:4" d="M284,330 L401,307"/><path class="g4 offset" style="--gs:4" d="M284,426 L401,403"/><text class="g5" style="--gs:5" x="186" y="365">⑤</text><path class="g5 aligned" style="--gs:5" d="M186,365 Q206,410 188,441.25 Q134,535 153.75,535.25 Q193.25,535.75 213,536"/><path class="g5 offset" style="--gs:5" d="M306,365 Q316,387.5 307,403.13 Q280,450 289.88,450.13 Q309.63,450.38 319.5,450.5"/><text class="g6" style="--gs:6" x="262" y="430">⑥</text><path class="g6 aligned" style="--gs:6" d="M262,430 Q281,473 219.5,558 Q158,643 166,651 Q174,659 226.5,635 Q226.5,635 279,611"/><path class="g6 offset" style="--gs:6" d="M382,430 Q391.5,454.97 360.75,504.34 Q330,553.71 334,558.35 Q338,563 364.25,549.06 Q364.25,549.06 390.5,535.12"/><text class="g7" style="--gs:7" x="274" y="564">⑦</text><path class="g7 aligned" style="--gs:7" d="M274,564 L311,634"/><path class="g7 offset" style="--gs:7" d="M394,564 L431,634"/><text class="g8" style="--gs:8" x="382" y="351">⑧</text><path class="g8 aligned" style="--gs:8" d="M391,370 Q336,491 346.38,491.25 Q408.63,492.75 419,493"/><path class="g8 offset" style="--gs:8" d="M511,370 Q483.5,430.5 488.69,430.63 Q519.81,431.38 525,431.5"/><text class="g9" style="--gs:9" x="461" y="407">⑨</text><path class="g9 aligned" style="--gs:9" d="M469,426 Q365,586 369,589.5 Q381,600 402.5,590.5 Q445.5,571.5 467,562"/><path class="g9 offset" style="--gs:9" d="M589,426 Q485,506 489,507.75 Q501,513 522.5,508.25 Q565.5,498.75 587,494"/><text class="g10" style="--gs:10" x="469" y="529">⑩</text><path class="g10 aligned" style="--gs:10" d="M469,529 L505,602"/><path class="g10 offset" style="--gs:10" d="M589,529 L625,602"/><text class="g11" style="--gs:11" x="160" y="721">⑪</text><path class="g11 aligned" style="--gs:11" d="M160,721 L142,873"/><path class="g11 offset" style="--gs:11" d="M280,721 L262,873"/><text class="g12" style="--gs:12" x="233" y="703">⑫</text><path class="g12 aligned" style="--gs:12" d="M233,703 L271,794"/><path class="g12 offset" style="--gs:12" d="M353,703 L391,794"/><text class="g13" style="--gs:13" x="330" y="673">⑬</text><path class="g13 aligned" style="--gs:13" d="M330,673 L384,752"/><path class="g13 offset" style="--gs:13" d="M415.68,604.46 L469.68,683.46"/><text class="g14" style="--gs:14" x="431" y="637">⑭</text><path class="g14 aligned" style="--gs:14" d="M431,637 L479,706"/><path class="g14 offset" style="--gs:14" d="M516.68,568.46 L564.68,637.46"/><text class="g15" style="--gs:15" x="540" y="206">⑮</text><path class="g15 aligned" style="--gs:15" d="M540,206 L905,162"/><path class="g15 offset" style="--gs:15" d="M540,302 L905,258"/><text class="g16" style="--gs:16" x="645" y="227">⑯</text><path class="g16 aligned" style="--gs:16" d="M645,227 Q671,265 665.38,275.88 Q631.63,341.13 626,352"/><path class="g16 offset" style="--gs:16" d="M549,227 Q575,265 569.38,275.88 Q535.63,341.13 530,352"/><text class="g17" style="--gs:17" x="556" y="354">⑰</text><path class="g17 aligned" style="--gs:17" d="M556,354 Q584,430 583.38,465 Q579.63,675 579,710"/><path class="g17 offset" style="--gs:17" d="M676,354 Q704,430 703.38,465 Q699.63,675 699,710"/><text class="g18" style="--gs:18" x="590" y="364">⑱</text><path class="g18 aligned" style="--gs:18" d="M590,364 Q783,327 795.5,334.75 Q833,358 831.5,446.75 Q828.5,624.25 827,713"/><path class="g18 offset" style="--gs:18" d="M590,460 Q687.69,423 694.02,430.75 Q713,454 712.24,518.75 Q710.72,648.25 709.96,713"/><text class="g19" style="--gs:19" x="605" y="475">⑲</text><path class="g19 aligned" style="--gs:19" d="M605,475 L755,449"/><path class="g19 offset" style="--gs:19" d="M605,571 L755,545"/><text class="g20" style="--gs:20" x="602" y="574">⑳</text><path class="g20 aligned" style="--gs:20" d="M602,574 L768,556"/><path class="g20 offset" style="--gs:20" d="M602,670 L768,652"/><text class="g21" style="--gs:21" x="595" y="690">㉑</text><path class="g21 aligned" style="--gs:21" d="M595,690 L800,667"/><path class="g21 offset" style="--gs:21" d="M595,786 L800,763"/><text class="g22" style="--gs:22" x="621" y="739">㉒</text><path class="g22 aligned" style="--gs:22" d="M621,739 Q638,781 612.25,804.25 Q535,874 513.5,885 Q470.5,907 449,918"/><path class="g22 offset" style="--gs:22" d="M525,739 Q533.5,760 520.63,771.63 Q482,806.5 471.25,812 Q449.75,823 439,828.5"/><text class="g23" style="--gs:23" x="749" y="739">㉓</text><path class="g23 aligned" style="--gs:23" d="M749,739 Q845,840 849.75,851.13 Q878.25,917.88 883,929"/><path class="g23 offset" style="--gs:23" d="M834.68,670.46 Q930.68,771.46 935.43,782.58 Q963.93,849.33 968.68,860.46"/></g>
</svg>
