<!--
  Stroke-order data for 風, derived from AnimCJK (https://github.com/parsimonhi/animCJK),
  itself derived from the Arphic PL KaitiM fonts. Distributed under the Arphic Public License
  (see ARPHICPL.TXT). Regenerated by scripts/build-strokes.ts — do not edit by hand.
-->
<svg id="z39080" class="acjk" viewBox="0 0 1024 1024" xmlns="http://www.w3.org/2000/svg">
<g class="glyph"><path id="z39080d1" d="M306 177C286 164 252 155 237 158C222 160 222 168 235 185C259 220 269 311 266 454C264 512 251 576 226 647C207 697 167 758 104 828C94 838 86 845 85 852C83 856 88 858 96 858C126 855 165 823 215 763C271 693 301 602 314 493C326 382 317 229 321 217C324 203 317 186 306 177Z"/><path id="z39080d2" d="M321 217C323 215 327 213 333 212C437 186 554 164 685 150C727 145 717 191 715 212C677 476 703 665 795 780C843 840 896 877 955 899C969 903 979 903 987 895C991 889 994 878 992 866C984 818 976 754 972 675C971 664 969 657 965 655C960 651 956 656 954 666C937 726 926 762 917 771C908 778 896 773 885 767C849 749 819 712 795 656C773 604 760 546 755 482C749 414 757 338 773 252C778 221 788 193 811 173C822 162 825 154 819 146C809 131 793 115 771 97C756 86 730 90 691 103C662 112 534 135 306 177C292 180 310 226 321 217Z"/><path id="z39080d3" d="M494 370C545 345 578 330 596 327C610 323 616 313 611 302C605 288 594 276 580 264C567 251 555 246 547 246C538 245 535 248 536 259C536 276 510 305 459 344C433 363 404 381 377 403C367 410 370 419 381 417C410 409 435 398 457 388C482 376 482 376 494 370Z"/><path id="z39080d4" d="M376 501C369 498 355 496 339 493C331 491 328 491 326 495C323 499 323 505 329 514C343 540 357 577 369 625C371 638 377 650 386 659C397 670 403 672 405 663C405 658 407 652 407 648C406 638 406 627 405 618C402 601 390 544 387 528C385 518 385 505 376 501Z"/><path id="z39080d5" d="M615 589C633 546 653 520 673 505C684 496 685 481 675 473C632 434 592 431 557 449C543 455 528 461 513 466C483 475 483 475 468 480C438 489 397 497 376 501C366 503 377 530 387 528C414 521 443 514 468 508C498 501 498 501 513 497C529 493 546 488 565 483C587 475 600 489 596 508C588 534 579 558 571 580C565 594 609 603 615 589Z"/><path id="z39080d6" d="M511 632C541 626 578 621 621 617C627 616 631 613 632 607C632 602 626 596 615 589C602 581 586 580 571 580C561 580 541 587 511 595C483 602 483 602 469 605C446 610 425 614 405 618C395 620 397 648 407 648C417 649 428 645 469 639C497 634 497 634 511 632Z"/><path id="z39080d7" d="M509 741C509 702 511 666 511 632C511 607 511 607 511 595C511 560 513 527 513 497C513 476 513 476 513 466C513 447 514 428 518 410C520 398 519 391 513 385C506 378 500 373 494 370C482 363 452 375 457 388C461 392 468 422 468 480C468 499 468 499 468 508C468 532 469 565 469 605C469 628 469 628 469 639C469 714 469 714 469 751C469 765 509 755 509 741Z"/><path id="z39080d8" d="M599 718C569 724 539 733 509 741C482 748 482 748 469 751C430 760 378 770 350 776C336 778 320 778 301 778C291 777 287 782 286 788C284 796 284 802 292 808C303 818 320 831 340 843C345 846 352 843 361 839C411 809 483 785 611 737C618 734 606 717 599 718Z"/><path id="z39080d9" d="M611 737C641 786 657 814 667 818C672 820 679 817 685 811C691 803 694 789 695 771C695 756 688 738 671 722C629 685 603 669 593 669C588 669 585 674 584 683C583 689 588 700 599 718C607 731 607 731 611 737Z"/></g>
<defs><clipPath id="z39080c1"><use href="#z39080d1"/></clipPath>
	<clipPath id="z39080c2"><use href="#z39080d2"/></clipPath>
	<clipPath id="z39080c3"><use href="#z39080d3"/></clipPath>
	<clipPath id="z39080c4"><use href="#z39080d4"/></clipPath>
	<clipPath id="z39080c5"><use href="#z39080d5"/></clipPath>
	<clipPath id="z39080c6"><use href="#z39080d6"/></clipPath>
	<clipPath id="z39080c7"><use href="#z39080d7"/></clipPath>
	<clipPath id="z39080c8"><use href="#z39080d8"/></clipPath>
	<clipPath id="z39080c9"><use href="#z39080d9"/></clipPath><marker id="guide-arrow" viewBox="0 0 16 16" refX="5" refY="5" markerWidth="4" markerHeight="4" orient="auto-start-reverse"><path d="M 0 0 L 10 5 L 0 10 z" fill="inherit"/></marker></defs>
<g class="strokes"><path pathLength="3333" clip-path="url(#z39080c1)" d="M233 165L287 221L275 572L211 728L94 852"/><path pathLength="3333" clip-path="url(#z39080c2)" d="M315 214L327 193L391 179L741 128L769 167L739 264L725 450L763 660L835 775L951 851L963 660"/><path pathLength="3333" clip-path="url(#z39080c3)" d="M544 253L560 308L379 411"/><path pathLength="3333" clip-path="url(#z39080c4)" d="M332 501L361 524L394 663"/><path pathLength="3333" clip-path="url(#z39080c5)" d="M379 507L613 466L638 500L587 593"/><path pathLength="3333" clip-path="url(#z39080c6)" d="M403 636L625 605"/><path pathLength="3333" clip-path="url(#z39080c7)" d="M463 379L492 408L489 754"/><path pathLength="3333" clip-path="url(#z39080c8)" d="M290 789L344 810L608 728"/><path pathLength="3333" clip-path="url(#z39080c9)" d="M593 675L661 758L676 815"/></g>
<g class="guides"><text class="g1" style="--gs:1" x="233" y="165">①</text><path class="g1 aligned" style="--gs:1" d="M233,165 Q287,221 281,396.5 Q275,572 243,650 Q211,728 152.5,790 Q152.5,790 94,852"/><path class="g1 offset" style="--gs:1" d="M137,165 Q164.14,213.17 161.12,364.15 Q158.11,515.13 142.03,582.23 Q125.94,649.33 96.54,702.66 Q96.54,702.66 67.14,756"/><text class="g2" style="--gs:2" x="315" y="214">②</text><path class="g2 aligned" style="--gs:2" d="M321,204 Q391,179 566,153.5 Q741,128 755,147.5 Q769,167 754,215.5 Q739,264 732,357 Q725,450 744,555 Q763,660 799,717.5 Q835,775 893,813 Q951,851 957,755.5 Q957,755.5 963,660"/><path class="g2 offset" style="--gs:2" d="M321,300 Q377.92,281.64 520.21,262.91 Q662.5,244.18 673.88,258.5 Q685.26,272.83 673.07,308.45 Q660.87,344.07 655.18,412.37 Q649.49,480.67 664.93,557.79 Q680.38,634.9 709.65,677.13 Q738.93,719.37 786.08,747.27 Q833.24,775.18 838.12,705.04 Q838.12,705.04 843,634.9"/><text class="g3" style="--gs:3" x="544" y="253">③</text><path class="g3 aligned" style="--gs:3" d="M544,253 Q560,308 537.38,320.88 Q401.63,398.13 379,411"/><path class="g3 offset" style="--gs:3" d="M448,253 Q456,280.5 444.69,286.94 Q376.81,325.56 365.5,332"/><text class="g4" style="--gs:4" x="332" y="501">④</text><path class="g4 aligned" style="--gs:4" d="M347,513 L394,663"/><path class="g4 offset" style="--gs:4" d="M467,513 L514,663"/><text class="g5" style="--gs:5" x="379" y="507">⑤</text><path class="g5 aligned" style="--gs:5" d="M379,507 Q613,466 619.25,474.5 Q638,500 625.25,523.25 Q599.75,569.75 587,593"/><path class="g5 offset" style="--gs:5" d="M379,603 Q504.58,562 507.94,570.5 Q518,596 511.16,603.38 Q497.47,618.13 490.63,625.5"/><text class="g6" style="--gs:6" x="403" y="636">⑥</text><path class="g6 aligned" style="--gs:6" d="M403,636 L625,605"/><path class="g6 offset" style="--gs:6" d="M403,732 L625,701"/><text class="g7" style="--gs:7" x="463" y="379">⑦</text><path class="g7 aligned" style="--gs:7" d="M478,394 L489,754"/><path class="g7 offset" style="--gs:7" d="M598,394 L609,754"/><text class="g8" style="--gs:8" x="290" y="789">⑧</text><path class="g8 aligned" style="--gs:8" d="M290,789 Q344,810 377,799.75 Q575,738.25 608,728"/><path class="g8 offset" style="--gs:8" d="M290,885 Q344,906 377,895.75 Q575,834.25 608,824"/><text class="g9" style="--gs:9" x="593" y="675">⑨</text><path class="g9 aligned" style="--gs:9" d="M593,675 Q661,758 662.88,765.13 Q674.13,807.88 676,815"/><path class="g9 offset" style="--gs:9" d="M678.68,606.46 Q746.68,689.46 748.56,696.58 Q759.81,739.33 761.68,746.46"/></g>
</svg>
