<!--
  Stroke-order data for 飜, derived from AnimCJK (https://github.com/parsimonhi/animCJK),
  itself derived from the Arphic PL KaitiM fonts. Distributed under the Arphic Public License
  (see ARPHICPL.TXT). Regenerated by scripts/build-strokes.ts — do not edit by hand.
-->
<svg id="z39132" class="acjk" viewBox="0 0 1024 1024" xmlns="http://www.w3.org/2000/svg">
<g class="glyph"><path id="z39132d1" d="M309 169C332 162 380 141 409 137C418 135 424 134 427 130C429 123 428 117 421 110C409 98 392 88 369 77C360 72 352 68 345 70C340 70 338 76 338 83C334 107 283 138 188 185C183 187 184 194 188 196C224 191 247 186 278 178C299 172 299 172 309 169Z"/><path id="z39132d2" d="M187 283C198 294 208 307 219 322C225 329 232 334 241 334C246 334 250 330 253 323C255 315 255 302 252 287C248 270 225 256 185 243C177 240 171 239 169 241C166 242 163 247 165 255C165 261 174 270 187 283Z"/><path id="z39132d3" d="M407 220C398 238 384 260 366 289C363 293 362 298 366 301C368 302 373 301 377 298C414 267 441 245 461 235C468 231 471 227 470 221C467 213 461 204 451 195C441 185 431 179 421 180C413 180 410 185 412 196C412 202 411 210 407 220Z"/><path id="z39132d4" d="M326 384C361 375 400 367 444 362C453 360 457 358 458 353C458 344 453 338 444 334C429 327 416 325 405 328C375 334 350 342 328 348C307 353 307 353 297 356C205 379 138 388 97 393C89 393 85 396 84 402C82 407 85 414 94 421C111 435 137 440 167 431C201 419 233 407 263 400C305 389 305 389 326 384Z"/><path id="z39132d5" d="M325 438C325 419 325 401 326 384C327 360 327 360 328 348C331 285 338 240 352 215C354 209 356 202 349 195C338 183 324 175 309 169C299 165 272 169 278 178C278 178 278 180 280 182C294 208 300 266 297 356C295 405 295 405 294 430C292 464 286 490 285 509C283 525 289 542 297 555C304 568 312 568 316 561C325 541 325 490 325 454C325 443 325 443 325 438Z"/><path id="z39132d6" d="M263 400C236 458 174 521 77 590C67 596 67 600 75 602C81 602 94 599 114 592C139 583 163 570 185 553C205 537 227 516 249 490C268 469 283 449 294 430C315 394 278 361 263 400Z"/><path id="z39132d7" d="M325 454C348 465 387 488 408 500C418 505 428 506 430 496C430 489 427 481 423 471C417 459 406 448 388 444C352 434 331 434 325 438C320 440 320 452 325 454Z"/><path id="z39132d8" d="M197 613C191 608 177 604 156 599C148 597 145 597 143 600C139 604 139 610 144 622C163 669 176 732 183 810C184 832 190 852 202 869C212 882 217 884 222 875C225 866 228 856 228 845C228 838 226 830 226 824C223 788 208 703 202 643C200 633 205 619 197 613Z"/><path id="z39132d9" d="M368 824C377 840 387 850 397 854C403 858 409 853 416 841C424 822 432 765 445 670C447 651 456 634 468 620C473 612 474 605 468 597C460 587 433 568 421 563C412 559 344 579 197 613C187 615 193 647 202 643C224 635 248 626 277 620C298 615 298 615 309 613C324 609 342 605 362 602C386 596 404 613 403 636C393 735 384 791 376 801C372 808 363 818 368 824Z"/><path id="z39132d10" d="M318 799C318 770 321 743 323 718C324 693 324 693 325 681C325 666 328 650 330 645C333 632 324 626 309 613C300 606 275 609 277 620C279 628 282 654 284 695C285 716 285 716 285 726C285 747 285 775 286 808C286 819 318 810 318 799Z"/><path id="z39132d11" d="M323 718C336 715 350 712 364 710C376 707 380 702 375 695C368 686 359 680 346 679C340 678 332 678 325 681C298 690 298 690 284 695C273 698 253 706 239 712C230 715 229 725 243 729C250 730 258 731 285 726C310 721 310 721 323 718Z"/><path id="z39132d12" d="M228 845C238 849 250 840 368 824C376 823 383 805 376 801C372 798 367 795 361 794C349 791 335 794 318 799C297 805 297 805 286 808C264 814 244 818 226 824C219 827 221 844 228 845Z"/><path id="z39132d13" d="M760 127C744 124 730 133 715 138C666 152 633 159 585 158C579 157 574 158 575 165C576 179 587 188 595 196C606 206 619 211 632 207C663 198 689 184 727 177C734 176 741 179 743 189C746 203 744 218 745 233C747 296 757 362 783 419C807 470 844 509 886 530C892 533 902 537 908 534C914 531 916 521 915 512C907 472 907 431 905 391C904 385 900 377 897 379C889 383 890 394 889 402C885 417 883 434 878 447C874 453 867 453 863 452C852 448 844 439 837 432C810 408 792 372 785 330C779 294 780 257 785 223C787 206 796 195 804 185C808 178 803 166 799 160C787 145 778 130 760 127Z"/><path id="z39132d14" d="M841 174C837 173 831 178 832 186C832 192 831 199 830 207C824 231 820 246 811 269C809 274 823 281 827 276C844 256 858 242 877 228C881 225 882 216 879 211C872 197 863 186 853 179C848 176 845 174 841 174Z"/><path id="z39132d15" d="M789 262C784 260 782 272 785 279C787 289 795 292 802 298C823 319 845 341 867 364C871 368 880 373 884 366C889 357 886 344 883 333C879 320 873 307 865 300C852 288 840 281 827 276C823 274 814 270 811 269C802 265 798 263 789 262Z"/><path id="z39132d16" d="M635 262C635 275 641 286 643 298C649 330 650 401 650 449C650 477 650 477 650 491C650 581 646 644 641 709C639 732 634 756 632 777C628 808 634 841 648 868C661 895 673 895 679 874C683 854 683 833 683 811C679 693 677 600 680 484C681 454 681 454 681 439C682 393 684 348 689 304C690 294 680 281 672 271C664 261 656 253 651 253C642 252 634 255 635 262Z"/><path id="z39132d17" d="M573 266C567 266 564 271 564 279C561 308 543 326 486 384C461 404 476 407 492 401C507 394 521 384 537 376C553 367 553 367 561 362C576 352 594 347 610 342C616 339 618 329 616 320C609 301 598 286 588 274C584 269 580 265 573 266Z"/><path id="z39132d18" d="M537 376C552 407 550 444 549 476C548 505 548 505 547 519C542 583 540 646 513 708C492 757 461 785 439 820C435 825 441 834 449 829C496 798 528 759 545 729C583 658 579 620 588 507C590 479 590 479 591 465C592 445 594 427 597 409C597 383 589 377 561 362C553 357 534 367 537 376Z"/><path id="z39132d19" d="M650 449C631 455 614 458 591 465C563 472 563 472 549 476C519 483 483 486 454 488C415 489 464 532 488 533C505 533 534 522 547 519C574 511 574 511 588 507C601 503 627 496 650 491C670 486 670 486 680 484C690 481 698 478 708 477C722 474 718 498 719 509C721 590 730 674 757 750C771 793 793 832 820 864C852 903 889 926 928 946C941 952 956 959 969 953C975 949 977 939 976 930C973 915 970 899 968 886C961 842 955 800 949 758C948 750 943 741 940 743C933 745 933 756 932 763C926 794 920 826 911 856C908 862 902 861 898 860C884 857 873 846 862 837C829 808 798 764 783 714C767 663 759 609 760 556C760 529 766 502 777 481C781 473 776 460 772 456C760 441 748 429 735 423C721 416 694 434 681 439C660 446 660 446 650 449Z"/><path id="z39132d20" d="M828 520C823 518 817 521 817 529C817 537 819 546 817 553C811 577 804 599 796 621C802 624 807 627 813 630C828 609 845 587 864 571C867 567 867 558 864 553C857 539 846 528 836 522C834 521 830 520 828 520Z"/><path id="z39132d21" d="M768 602C764 601 764 610 765 615C767 627 777 633 783 640C809 665 834 692 858 719C863 724 870 728 873 721C880 713 878 699 874 688C870 673 863 658 852 649C839 635 822 626 805 619C794 612 781 607 768 602Z"/></g>
<defs><clipPath id="z39132c1"><use href="#z39132d1"/></clipPath>
	<clipPath id="z39132c2"><use href="#z39132d2"/></clipPath>
	<clipPath id="z39132c3"><use href="#z39132d3"/></clipPath>
	<clipPath id="z39132c4"><use href="#z39132d4"/></clipPath>
	<clipPath id="z39132c5"><use href="#z39132d5"/></clipPath>
	<clipPath id="z39132c6"><use href="#z39132d6"/></clipPath>
	<clipPath id="z39132c7"><use href="#z39132d7"/></clipPath>
	<clipPath id="z39132c8"><use href="#z39132d8"/></clipPath>
	<clipPath id="z39132c9"><use href="#z39132d9"/></clipPath>
	<clipPath id="z39132c10"><use href="#z39132d10"/></clipPath>
	<clipPath id="z39132c11"><use href="#z39132d11"/></clipPath>
	<clipPath id="z39132c12"><use href="#z39132d12"/></clipPath>
	<clipPath id="z39132c13"><use href="#z39132d13"/></clipPath>
	<clipPath id="z39132c14"><use href="#z39132d14"/></clipPath>
	<clipPath id="z39132c15"><use href="#z39132d15"/></clipPath>
	<clipPath id="z39132c16"><use href="#z39132d16"/></clipPath>
	<clipPath id="z39132c17"><use href="#z39132d17"/></clipPath>
	<clipPath id="z39132c18"><use href="#z39132d18"/></clipPath>
	<clipPath id="z39132c19"><use href="#z39132d19"/></clipPath>
	<clipPath id="z39132c20"><use href="#z39132d20"/></clipPath>
	<clipPath id="z39132c21"><use href="#z39132d21"/></clipPath><marker id="guide-arrow" viewBox="0 0 16 16" refX="5" refY="5" markerWidth="4" markerHeight="4" orient="auto-start-reverse"><path d="M 0 0 L 10 5 L 0 10 z" fill="inherit"/></marker></defs>
<g class="strokes"><path pathLength="3333" clip-path="url(#z39132c1)" d="M348 78L367 128L194 190"/><path pathLength="3333" clip-path="url(#z39132c2)" d="M170 245L240 328"/><path pathLength="3333" clip-path="url(#z39132c3)" d="M421 183L439 221L369 294"/><path pathLength="3333" clip-path="url(#z39132c4)" d="M89 403L150 410L451 349"/><path pathLength="3333" clip-path="url(#z39132c5)" d="M284 176L322 219L309 562"/><path pathLength="3333" clip-path="url(#z39132c6)" d="M281 388L216 498L78 596"/><path pathLength="3333" clip-path="url(#z39132c7)" d="M326 444L421 499"/><path pathLength="3333" clip-path="url(#z39132c8)" d="M147 605L176 631L213 875"/><path pathLength="3333" clip-path="url(#z39132c9)" d="M194 626L375 585L423 597L437 615L389 846"/><path pathLength="3333" clip-path="url(#z39132c10)" d="M285 616L306 649L295 808"/><path pathLength="3333" clip-path="url(#z39132c11)" d="M238 720L372 696"/><path pathLength="3333" clip-path="url(#z39132c12)" d="M225 835L375 809"/><path pathLength="3333" clip-path="url(#z39132c13)" d="M583 164L632 181L755 156L774 182L769 326L801 417L889 493L899 389"/><path pathLength="3333" clip-path="url(#z39132c14)" d="M840 183L852 226L821 269"/><path pathLength="3333" clip-path="url(#z39132c15)" d="M792 270L875 365"/><path pathLength="3333" clip-path="url(#z39132c16)" d="M644 261L666 305L664 884"/><path pathLength="3333" clip-path="url(#z39132c17)" d="M574 269L580 328L480 398"/><path pathLength="3333" clip-path="url(#z39132c18)" d="M544 371L572 406L555 643L526 725L446 822"/><path pathLength="3333" clip-path="url(#z39132c19)" d="M446 496L498 508L726 452L747 477L760 700L817 823L878 883L940 906L942 752"/><path pathLength="3333" clip-path="url(#z39132c20)" d="M827 529L838 571L804 622"/><path pathLength="3333" clip-path="url(#z39132c21)" d="M771 612L845 673L866 720"/></g>
<g class="guides"><text class="g1" style="--gs:1" x="348" y="78">①</text><path class="g1 aligned" style="--gs:1" d="M348,78 Q367,128 345.38,135.75 Q215.63,182.25 194,190"/><path class="g1 offset" style="--gs:1" d="M252,78 Q261.5,103 250.69,106.88 Q185.81,130.13 175,134"/><text class="g2" style="--gs:2" x="170" y="245">②</text><path class="g2 aligned" style="--gs:2" d="M170,245 L240,328"/><path class="g2 offset" style="--gs:2" d="M255.68,176.46 L325.68,259.46"/><text class="g3" style="--gs:3" x="421" y="183">③</text><path class="g3 aligned" style="--gs:3" d="M421,183 Q439,221 430.25,230.13 Q377.75,284.88 369,294"/><path class="g3 offset" style="--gs:3" d="M325,183 Q334,202 329.63,206.56 Q303.38,233.94 299,238.5"/><text class="g4" style="--gs:4" x="89" y="403">④</text><path class="g4 aligned" style="--gs:4" d="M89,403 Q150,410 187.63,402.38 Q413.38,356.63 451,349"/><path class="g4 offset" style="--gs:4" d="M89,499 Q150,506 187.63,498.38 Q413.38,452.63 451,445"/><text class="g5" style="--gs:5" x="284" y="176">⑤</text><path class="g5 aligned" style="--gs:5" d="M284,176 Q322,219 320.38,261.88 Q310.63,519.13 309,562"/><path class="g5 offset" style="--gs:5" d="M188,176 Q226,219 224.38,261.88 Q214.63,519.13 213,562"/><text class="g6" style="--gs:6" x="281" y="388">⑥</text><path class="g6 aligned" style="--gs:6" d="M281,388 Q216,498 198.75,510.25 Q95.25,583.75 78,596"/><path class="g6 offset" style="--gs:6" d="M185,388 Q152.5,447.23 143.88,453.83 Q92.13,493.4 83.5,500"/><text class="g7" style="--gs:7" x="326" y="444">⑦</text><path class="g7 aligned" style="--gs:7" d="M326,444 L421,499"/><path class="g7 offset" style="--gs:7" d="M326,540 L421,595"/><text class="g8" style="--gs:8" x="147" y="605">⑧</text><path class="g8 aligned" style="--gs:8" d="M162,618 L213,875"/><path class="g8 offset" style="--gs:8" d="M282,618 L333,875"/><text class="g9" style="--gs:9" x="194" y="626">⑨</text><path class="g9 aligned" style="--gs:9" d="M194,626 Q375,585 399,591 Q423,597 430,606 Q437,615 413,730.5 Q413,730.5 389,846"/><path class="g9 offset" style="--gs:9" d="M194,722 Q285.62,681 297.77,687 Q309.91,693 313.46,702 Q317,711 304.85,778.5 Q304.85,778.5 292.7,846"/><text class="g10" style="--gs:10" x="285" y="616">⑩</text><path class="g10 aligned" style="--gs:10" d="M296,633 L295,808"/><path class="g10 offset" style="--gs:10" d="M416,633 L415,808"/><text class="g11" style="--gs:11" x="238" y="720">⑪</text><path class="g11 aligned" style="--gs:11" d="M238,720 L372,696"/><path class="g11 offset" style="--gs:11" d="M238,816 L372,792"/><text class="g12" style="--gs:12" x="225" y="835">⑫</text><path class="g12 aligned" style="--gs:12" d="M225,835 L375,809"/><path class="g12 offset" style="--gs:12" d="M225,931 L375,905"/><text class="g13" style="--gs:13" x="583" y="164">⑬</text><path class="g13 aligned" style="--gs:13" d="M583,164 Q632,181 693.5,168.5 Q755,156 764.5,169 Q774,182 771.5,254 Q769,326 785,371.5 Q801,417 845,455 Q889,493 894,441 Q894,441 899,389"/><path class="g13 offset" style="--gs:13" d="M583,260 Q613.39,268.5 651.54,262.25 Q689.68,256 695.58,262.5 Q701.47,269 699.92,305 Q698.37,341 708.29,363.75 Q718.22,386.5 745.51,405.5 Q772.8,424.5 775.9,398.5 Q775.9,398.5 779,372.5"/><text class="g14" style="--gs:14" x="840" y="183">⑭</text><path class="g14 aligned" style="--gs:14" d="M840,183 Q852,226 848.13,231.38 Q824.88,263.63 821,269"/><path class="g14 offset" style="--gs:14" d="M744,183 Q750,204.5 748.06,207.19 Q736.44,223.31 734.5,226"/><text class="g15" style="--gs:15" x="792" y="270">⑮</text><path class="g15 aligned" style="--gs:15" d="M792,270 L875,365"/><path class="g15 offset" style="--gs:15" d="M877.68,201.46 L960.68,296.46"/><text class="g16" style="--gs:16" x="644" y="261">⑯</text><path class="g16 aligned" style="--gs:16" d="M644,261 Q666,305 665.75,377.38 Q664.25,811.63 664,884"/><path class="g16 offset" style="--gs:16" d="M764,261 Q786,305 785.75,377.38 Q784.25,811.63 784,884"/><text class="g17" style="--gs:17" x="574" y="269">⑰</text><path class="g17 aligned" style="--gs:17" d="M574,269 Q580,328 567.5,336.75 Q492.5,389.25 480,398"/><path class="g17 offset" style="--gs:17" d="M478,269 Q481,298.5 474.75,302.88 Q437.25,329.13 431,333.5"/><text class="g18" style="--gs:18" x="544" y="371">⑱</text><path class="g18 aligned" style="--gs:18" d="M544,371 Q572,406 563.5,524.5 Q555,643 540.5,684 Q526,725 486,773.5 Q486,773.5 446,822"/><path class="g18 offset" style="--gs:18" d="M448,371 Q462,398.55 457.75,491.83 Q453.5,585.1 446.25,617.37 Q439,649.65 419,687.82 Q419,687.82 399,726"/><text class="g19" style="--gs:19" x="446" y="496">⑲</text><path class="g19 aligned" style="--gs:19" d="M446,496 Q498,508 612,480 Q726,452 736.5,464.5 Q747,477 753.5,588.5 Q760,700 788.5,761.5 Q817,823 847.5,853 Q878,883 909,894.5 Q940,906 941,829 Q941,829 942,752"/><path class="g19 offset" style="--gs:19" d="M446,592 Q485.42,598.93 571.84,582.77 Q658.26,566.61 666.22,573.82 Q674.18,581.04 679.1,645.38 Q684.03,709.73 705.64,745.22 Q727.24,780.71 750.36,798.02 Q773.48,815.33 796.98,821.97 Q820.48,828.61 821.24,784.17 Q821.24,784.17 822,739.74"/><text class="g20" style="--gs:20" x="827" y="529">⑳</text><path class="g20 aligned" style="--gs:20" d="M827,529 Q838,571 833.75,577.38 Q808.25,615.63 804,622"/><path class="g20 offset" style="--gs:20" d="M731,529 Q736.5,550 734.38,553.19 Q721.63,572.31 719.5,575.5"/><text class="g21" style="--gs:21" x="771" y="612">㉑</text><path class="g21 aligned" style="--gs:21" d="M771,612 Q845,673 847.63,678.88 Q863.38,714.13 866,720"/><path class="g21 offset" style="--gs:21" d="M856.68,543.46 Q930.68,604.46 933.31,610.33 Q949.06,645.58 951.68,651.46"/></g>
</svg>
