<svg id="z39166" class="acjk" viewBox="0 0 1024 1024" xmlns="http://www.w3.org/2000/svg">
<style>

@keyframes zk {
	to {
		stroke-dashoffset:0;
	}
}
svg.acjk path[clip-path] {
	--t:0.8s;
	animation:zk var(--t) linear forwards var(--d);
	stroke-dasharray:3337;
	stroke-dashoffset:3339;
	stroke-width:128;
	stroke-linecap:round;
	fill:none;
	stroke:#000;
}
svg.acjk path[id] {fill:#ccc;}


    @keyframes guide-fade {
        0% { opacity: 0; }
        3% { opacity: 1; }
        95% { opacity: 1; }
        100% { opacity: 0; }
    }

    svg.acjk #guide-arrow {
        fill: #f77;
    }

    svg.acjk .guides {
        circle {
            fill: #0f6;
        }

        path {
            opacity: 0;
            animation: guide-fade var(--t) linear forwards var(--d);
            stroke-width: 16px;
            stroke-linecap: round;
            stroke: #f77;
            fill: none;
            marker-end: url(#guide-arrow);
        }

        circle,
        path {
            --t: 0.8s;
            opacity: 0;
            animation: guide-fade calc(var(--t) + 0.4s) ease-in-out forwards calc(var(--d) - 0.2s);
        }
    }
</style>
<path id="z39166d1" d="M239 386Q279 328 316 261C321 251 321 251 324 246Q343 204 369 153C376 138 376 138 380 131Q392 104 393 101Q390 92 376 82Q342 57 309 66Q300 70 304 82Q331 160 221 338Q173 408 72 524Q65 531 75 532Q126 517 208 425C229 399 229 399 239 386Z"/>
<path id="z39166d2" d="M369 153Q376 157 392 166Q423 182 459 204Q472 211 484 209Q491 208 493 196Q494 184 483 163Q474 145 444 137Q413 133 380 131C372 131 362 149 369 153Z"/>
<path id="z39166d3" d="M316 261Q319 270 377 306Q395 316 408 314Q420 313 422 296Q421 284 408 269Q396 256 373 253Q336 246 324 246C318 246 313 256 316 261Z"/>
<path id="z39166d4" d="M366 583Q382 604 397 610Q407 617 420 597Q432 575 452 455Q458 427 476 403Q486 391 476 380Q461 367 422 346Q404 339 357 360Q302 378 262 397C253 401 265 428 274 424Q370 378 391 386Q404 395 401 413Q386 545 372 555C366 562 360 575 366 583Z"/>
<path id="z39166d5" d="M268 517Q272 518 278 517Q327 504 363 497Q384 490 374 479Q362 467 338 466Q293 466 269 490C263 496 259 517 268 517Z"/>
<path id="z39166d6" d="M265 608Q361 584 366 583C375 581 381 559 372 555Q351 540 273 574Q269 574 266 576C256 580 255 610 265 608Z"/>
<path id="z39166d7" d="M385 679Q351 698 284 742Q274 748 269 745Q262 739 265 608C266 587 266 587 266 576Q266 542 268 517C269 499 269 499 269 490Q269 436 274 424C276 414 270 403 262 397Q255 391 239 386C224 380 202 410 208 425Q245 509 220 693Q216 712 211 729Q205 763 172 802Q160 814 168 834Q177 861 191 873Q203 882 215 867Q260 809 395 696C400 692 391 676 385 679Z"/>
<path id="z39166d8" d="M395 696Q422 730 436 739Q449 745 459 734Q468 724 468 708Q465 666 394 631Q379 624 370 625Q364 625 365 637Q365 643 385 679C392 690 392 690 395 696Z"/>
<path id="z39166d9" d="M610 285Q641 236 677 168Q693 134 708 116Q715 104 709 92Q705 80 674 61Q647 48 629 49Q611 53 621 73Q657 133 507 378Q498 388 497 395Q496 405 508 402Q535 390 593 309C604 293 604 293 610 285Z"/>
<path id="z39166d10" d="M700 313Q859 271 865 265Q872 256 868 248Q861 236 830 231Q799 227 769 241Q735 254 696 266Q656 276 610 285C601 287 586 304 594 309Q610 318 632 321C654 325 678 317 700 313Z"/>
<path id="z39166d11" d="M555 474Q554 471 549 470Q522 460 506 462Q496 466 501 477Q531 526 514 620Q495 636 520 682Q524 689 532 698Q539 708 548 703Q572 685 569 618Q568 522 568 502C568 492 563 480 555 474Z"/>
<path id="z39166d12" d="M710 468Q798 446 820 454Q830 458 833 481Q837 563 831 629Q830 642 822 644Q813 648 761 646Q749 645 750 652Q751 659 768 668Q799 696 823 724Q836 739 851 737Q861 736 876 708Q894 680 894 619Q894 481 908 460Q920 444 905 429Q886 413 845 399Q824 390 772 415Q736 424 710 435C674 445 674 445 656 450Q590 466 555 474C545 476 558 502 568 502Q583 501 604 494Q631 487 656 481C692 472 692 472 710 468Z"/>
<path id="z39166d13" d="M710 435Q710 434 711 433Q711 411 721 346Q725 328 710 319Q706 315 700 313C679 305 624 300 632 321Q654 361 656 438Q656 442 656 450C656 471 656 471 656 481Q656 955 664 975Q667 979 670 985Q676 992 683 990Q701 978 704 920Q713 841 710 761Q707 698 710 468C710 446 710 446 710 435Z"/>
<defs>
	<clipPath id="z39166c1"><use href="#z39166d1"/></clipPath>
	<clipPath id="z39166c2"><use href="#z39166d2"/></clipPath>
	<clipPath id="z39166c3"><use href="#z39166d3"/></clipPath>
	<clipPath id="z39166c4"><use href="#z39166d4"/></clipPath>
	<clipPath id="z39166c5"><use href="#z39166d5"/></clipPath>
	<clipPath id="z39166c6"><use href="#z39166d6"/></clipPath>
	<clipPath id="z39166c7"><use href="#z39166d7"/></clipPath>
	<clipPath id="z39166c8"><use href="#z39166d8"/></clipPath>
	<clipPath id="z39166c9"><use href="#z39166d9"/></clipPath>
	<clipPath id="z39166c10"><use href="#z39166d10"/></clipPath>
	<clipPath id="z39166c11"><use href="#z39166d11"/></clipPath>
	<clipPath id="z39166c12"><use href="#z39166d12"/></clipPath>
	<clipPath id="z39166c13"><use href="#z39166d13"/></clipPath>
<marker id="guide-arrow" viewBox="0 0 16 16" refX="5" refY="5" markerWidth="4" markerHeight="4" orient="auto-start-reverse"><path d="M 0 0 L 10 5 L 0 10 z" fill="inherit"/></marker></defs>
<path style="--d:1s;" pathLength="3333" clip-path="url(#z39166c1)" d="M309 74L350 112L299 244L199 403L77 527"/>
<path style="--d:2s;" pathLength="3333" clip-path="url(#z39166c2)" d="M377 150L488 197"/>
<path style="--d:3s;" pathLength="3333" clip-path="url(#z39166c3)" d="M320 258L417 298"/>
<path style="--d:4s;" pathLength="3333" clip-path="url(#z39166c4)" d="M269 399L394 365L439 391L394 606"/>
<path style="--d:5s;" pathLength="3333" clip-path="url(#z39166c5)" d="M274 510L371 484"/>
<path style="--d:6s;" pathLength="3333" clip-path="url(#z39166c6)" d="M268 600L369 564"/>
<path style="--d:7s;" pathLength="3333" clip-path="url(#z39166c7)" d="M241 391L214 815L231 828L384 687"/>
<path style="--d:8s;" pathLength="3333" clip-path="url(#z39166c8)" d="M373 630L457 731"/>
<path style="--d:9s;" pathLength="3333" clip-path="url(#z39166c9)" d="M624 59L666 119L504 396"/>
<path style="--d:10s;" pathLength="3333" clip-path="url(#z39166c10)" d="M599 305L864 257"/>
<path style="--d:11s;" pathLength="3333" clip-path="url(#z39166c11)" d="M507 470L542 510L544 698"/>
<path style="--d:12s;" pathLength="3333" clip-path="url(#z39166c12)" d="M563 479L809 426L867 448L854 669L830 691L761 653"/>
<path style="--d:13s;" pathLength="3333" clip-path="url(#z39166c13)" d="M641 326L685 352L677 984"/>
<g class="guides"><circle style="--d: 1s" class="g1" cx="309" cy="74" r="16"/><path style="--d: 1s;" class="g1" d="M213,74 Q239.58241758241758,103.94701986754967 223.04945054945054,155.96026490066225 Q206.5164835164835,207.97350993377484 174.09890109890108,270.62582781456956 Q141.6813186813187,333.27814569536423 102.13186813186813,382.1390728476821 Q102.13186813186813,382.1390728476821 62.58241758241758,431"/><circle style="--d: 2s" class="g2" cx="377" cy="150" r="16"/><path style="--d: 2s;" class="g2" d="M377,246 L488,293"/><circle style="--d: 3s" class="g3" cx="320" cy="258" r="16"/><path style="--d: 3s;" class="g3" d="M320,354 L417,394"/><circle style="--d: 4s" class="g4" cx="269" cy="399" r="16"/><path style="--d: 4s;" class="g4" d="M269,495 Q331.5,461 337.125,467.5 Q354,487 348.375,516.75 Q337.125,576.25 331.5,606"/><circle style="--d: 5s" class="g5" cx="274" cy="510" r="16"/><path style="--d: 5s;" class="g5" d="M274,606 L371,580"/><circle style="--d: 6s" class="g6" cx="268" cy="600" r="16"/><path style="--d: 6s;" class="g6" d="M268,696 L369,660"/><circle style="--d: 7s" class="g7" cx="241" cy="391" r="16"/><path style="--d: 7s;" class="g7" d="M145,391 Q131.5,721.8558352402746 133.625,724.3918764302059 Q140,732 159.125,704.4937070938215 Q197.375,649.4811212814645 216.5,621.974828375286"/><circle style="--d: 8s" class="g8" cx="373" cy="630" r="16"/><path style="--d: 8s;" class="g8" d="M458.68,561.456 L542.68,662.456"/><circle style="--d: 9s" class="g9" cx="624" cy="59" r="16"/><path style="--d: 9s;" class="g9" d="M528,59 Q570,119 549.75,153.625 Q428.25,361.375 408,396"/><circle style="--d: 10s" class="g10" cx="599" cy="305" r="16"/><path style="--d: 10s;" class="g10" d="M599,401 L864,353"/><circle style="--d: 11s" class="g11" cx="507" cy="470" r="16"/><path style="--d: 11s;" class="g11" d="M592.68,401.456 Q627.68,441.456 627.93,464.956 Q629.43,605.956 629.68,629.456"/><circle style="--d: 12s" class="g12" cx="563" cy="479" r="16"/><path style="--d: 12s;" class="g12" d="M563,575 Q686,522 700.5,533 Q715,544 711.75,654.5 Q708.5,765 702.5,776 Q696.5,787 679.25,768 Q679.25,768 662,749"/><circle style="--d: 13s" class="g13" cx="641" cy="326" r="16"/><path style="--d: 13s;" class="g13" d="M545,326 Q589,352 588,431 Q582,905 581,984"/></g></svg>