<svg id="z39184" class="acjk" viewBox="0 0 1024 1024" xmlns="http://www.w3.org/2000/svg">
<style>

@keyframes zk {
	to {
		stroke-dashoffset:0;
	}
}
svg.acjk path[clip-path] {
	--t:0.8s;
	animation:zk var(--t) linear forwards var(--d);
	stroke-dasharray:3337;
	stroke-dashoffset:3339;
	stroke-width:128;
	stroke-linecap:round;
	fill:none;
	stroke:#000;
}
svg.acjk path[id] {fill:#ccc;}


    @keyframes guide-fade {
        0% { opacity: 0; }
        3% { opacity: 1; }
        95% { opacity: 1; }
        100% { opacity: 0; }
    }

    svg.acjk #guide-arrow {
        fill: #f77;
    }

    svg.acjk .guides {
        circle {
            fill: #0f6;
        }

        path {
            opacity: 0;
            animation: guide-fade var(--t) linear forwards var(--d);
            stroke-width: 16px;
            stroke-linecap: round;
            stroke: #f77;
            fill: none;
            marker-end: url(#guide-arrow);
        }

        circle,
        path {
            --t: 0.8s;
            opacity: 0;
            animation: guide-fade calc(var(--t) + 0.4s) ease-in-out forwards calc(var(--d) - 0.2s);
        }
    }
</style>
<path id="z39184d1" d="M381 216C383 195 387 175 390 157C393 139 393 139 394 130C395 119 400 107 404 97C405 92 402 85 392 78C375 67 360 62 348 60C339 58 334 59 330 64C326 67 324 72 330 80C338 91 346 138 348 224C348 235 379 227 381 216Z"/>
<path id="z39184d2" d="M390 157C434 157 479 150 526 134C531 132 533 125 531 121C527 114 517 105 503 107C459 110 433 118 394 130C385 133 381 157 390 157Z"/>
<path id="z39184d3" d="M330 227C324 216 312 211 308 210C293 205 284 204 278 206C274 207 271 210 271 217C267 247 230 296 159 359C149 366 150 368 164 367C184 364 220 345 265 304C275 295 275 295 280 290C294 276 306 259 320 246C325 241 334 233 330 227Z"/>
<path id="z39184d4" d="M324 361C275 407 218 450 169 479C140 495 171 499 194 488C264 457 340 419 425 311C443 286 456 267 471 259C478 254 481 248 479 241C476 234 460 222 431 206C423 201 406 205 381 216C359 221 359 221 348 224C342 224 336 225 330 227C323 228 313 245 320 246C326 248 336 250 350 248C380 241 398 237 399 242C402 262 380 297 337 347C328 356 328 356 324 361Z"/>
<path id="z39184d5" d="M265 304C275 321 302 354 324 361C330 363 338 353 337 347C333 319 312 301 280 290C274 287 261 299 265 304Z"/>
<path id="z39184d6" d="M674 253C709 225 774 148 778 146C786 139 788 134 786 129C783 123 766 113 731 99C722 95 706 102 677 113C625 132 582 141 551 147C539 149 536 154 545 162C558 173 578 174 602 168C652 154 679 150 683 154C685 156 682 162 677 173C664 193 652 216 633 236C618 252 618 252 610 260C594 276 573 291 549 311C540 317 540 323 549 323C571 321 604 307 641 279C663 262 663 262 674 253Z"/>
<path id="z39184d7" d="M641 279C687 307 729 339 765 373C774 382 782 389 790 392C796 394 802 391 807 381C810 372 807 360 804 344C798 318 756 287 674 253C647 242 647 242 633 236C572 210 540 196 536 198C533 198 532 202 533 210C533 214 538 219 548 224C568 234 589 247 610 260C631 273 631 273 641 279Z"/>
<path id="z39184d8" d="M355 543C388 515 418 485 446 455C478 420 503 394 521 376C526 370 534 364 537 360C539 355 541 350 541 346C540 337 532 331 517 326C500 319 488 316 481 317C476 317 473 322 471 330C442 418 322 532 111 671C96 680 81 690 65 701C52 709 54 716 70 712C187 678 265 618 330 564C347 550 347 550 355 543Z"/>
<path id="z39184d9" d="M521 376C693 520 797 596 834 599C877 601 922 589 990 569C1021 559 1009 552 994 549C955 539 915 531 872 522C734 492 695 459 537 360C531 356 515 371 521 376Z"/>
<path id="z39184d10" d="M471 467C499 487 520 497 534 495C540 493 545 487 545 477C545 470 540 462 531 454C518 443 497 441 468 446C463 446 461 449 463 456C463 459 466 463 471 467Z"/>
<path id="z39184d11" d="M574 704C579 711 581 719 591 719C599 718 603 712 609 705C613 697 623 678 634 644C643 614 657 590 677 573C687 563 687 554 678 546C667 536 647 525 619 510C581 489 591 508 385 562C375 564 392 588 403 588C430 588 463 575 570 548C595 541 600 556 598 575C589 629 582 663 577 677C574 685 569 697 574 704Z"/>
<path id="z39184d12" d="M399 660C422 662 459 651 533 636C545 633 549 628 545 622C539 613 529 608 515 607C498 605 459 616 398 637C391 639 391 660 399 660Z"/>
<path id="z39184d13" d="M400 730C436 720 494 711 574 704C583 704 586 678 577 677C544 668 509 681 400 704C392 706 392 732 400 730Z"/>
<path id="z39184d14" d="M385 562C374 553 364 547 355 543C345 539 326 554 330 564C354 612 363 701 355 830C353 858 339 887 316 916C300 934 303 958 331 984C337 990 347 986 354 977C365 960 416 921 509 859C546 833 529 827 498 841C479 849 451 859 414 874C402 878 396 875 397 865C399 816 400 771 400 730C400 721 400 718 400 704C399 689 399 674 399 660C398 645 398 645 398 637C396 608 399 592 403 588C408 579 393 568 385 562Z"/>
<path id="z39184d15" d="M604 793C652 764 687 744 712 736C722 732 727 729 726 723C723 712 716 702 706 690C695 678 683 670 671 669C662 667 657 673 657 686C657 694 655 703 649 712C633 731 610 755 582 786C577 791 598 798 604 793Z"/>
<path id="z39184d16" d="M582 786C539 772 505 759 479 753C473 751 469 755 471 762C472 768 477 775 485 779C573 822 674 875 786 943C798 950 808 956 817 956C821 955 824 951 828 945C832 936 828 921 815 899C800 874 695 822 604 793C589 788 589 788 582 786Z"/>
<defs>
	<clipPath id="z39184c1"><use href="#z39184d1"/></clipPath>
	<clipPath id="z39184c2"><use href="#z39184d2"/></clipPath>
	<clipPath id="z39184c3"><use href="#z39184d3"/></clipPath>
	<clipPath id="z39184c4"><use href="#z39184d4"/></clipPath>
	<clipPath id="z39184c5"><use href="#z39184d5"/></clipPath>
	<clipPath id="z39184c6"><use href="#z39184d6"/></clipPath>
	<clipPath id="z39184c7"><use href="#z39184d7"/></clipPath>
	<clipPath id="z39184c8"><use href="#z39184d8"/></clipPath>
	<clipPath id="z39184c9"><use href="#z39184d9"/></clipPath>
	<clipPath id="z39184c10"><use href="#z39184d10"/></clipPath>
	<clipPath id="z39184c11"><use href="#z39184d11"/></clipPath>
	<clipPath id="z39184c12"><use href="#z39184d12"/></clipPath>
	<clipPath id="z39184c13"><use href="#z39184d13"/></clipPath>
	<clipPath id="z39184c14"><use href="#z39184d14"/></clipPath>
	<clipPath id="z39184c15"><use href="#z39184d15"/></clipPath>
	<clipPath id="z39184c16"><use href="#z39184d16"/></clipPath>
<marker id="guide-arrow" viewBox="0 0 16 16" refX="5" refY="5" markerWidth="4" markerHeight="4" orient="auto-start-reverse"><path d="M 0 0 L 10 5 L 0 10 z" fill="inherit"/></marker></defs>
<path style="--d:1s;" pathLength="3333" clip-path="url(#z39184c1)" d="M334 66L370 99L361 226"/>
<path style="--d:2s;" pathLength="3333" clip-path="url(#z39184c2)" d="M391 148L526 118"/>
<path style="--d:3s;" pathLength="3333" clip-path="url(#z39184c3)" d="M278 215L293 243L162 363"/>
<path style="--d:4s;" pathLength="3333" clip-path="url(#z39184c4)" d="M324 241L408 224L438 253L320 392L167 489"/>
<path style="--d:5s;" pathLength="3333" clip-path="url(#z39184c5)" d="M270 296L326 354"/>
<path style="--d:6s;" pathLength="3333" clip-path="url(#z39184c6)" d="M547 154L703 128L735 146L643 254L549 317"/>
<path style="--d:7s;" pathLength="3333" clip-path="url(#z39184c7)" d="M541 208L738 314L796 387"/>
<path style="--d:8s;" pathLength="3333" clip-path="url(#z39184c8)" d="M482 322L498 357L360 510L209 628L65 707"/>
<path style="--d:9s;" pathLength="3333" clip-path="url(#z39184c9)" d="M525 372L818 551L1001 559"/>
<path style="--d:10s;" pathLength="3333" clip-path="url(#z39184c10)" d="M473 456L537 487"/>
<path style="--d:11s;" pathLength="3333" clip-path="url(#z39184c11)" d="M392 569L579 525L625 542L640 570L587 713"/>
<path style="--d:12s;" pathLength="3333" clip-path="url(#z39184c12)" d="M395 649L538 621"/>
<path style="--d:13s;" pathLength="3333" clip-path="url(#z39184c13)" d="M397 719L578 691"/>
<path style="--d:14s;" pathLength="3333" clip-path="url(#z39184c14)" d="M336 554L373 589L355 929L377 937L520 838"/>
<path style="--d:15s;" pathLength="3333" clip-path="url(#z39184c15)" d="M668 675L686 721L589 788"/>
<path style="--d:16s;" pathLength="3333" clip-path="url(#z39184c16)" d="M478 759L731 876L824 943"/>
<g class="guides"><circle style="--d: 1s" class="g1" cx="334" cy="66" r="16"/><path style="--d: 1s;" class="g1" d="M238,66 Q274,99 272.875,114.875 Q266.125,210.125 265,226"/><circle style="--d: 2s" class="g2" cx="391" cy="148" r="16"/><path style="--d: 2s;" class="g2" d="M391,244 L526,214"/><circle style="--d: 3s" class="g3" cx="286" cy="229" r="16"/><path style="--d: 3s;" class="g3" d="M371.68,297.544 L247.68,431.544"/><circle style="--d: 4s" class="g4" cx="324" cy="241" r="16"/><path style="--d: 4s;" class="g4" d="M228,337 Q270,328.5 277.5,335.75 Q285,343 255.5,377.75 Q226,412.5 187.75,436.75 Q187.75,436.75 149.5,461"/><circle style="--d: 5s" class="g5" cx="270" cy="296" r="16"/><path style="--d: 5s;" class="g5" d="M355.68,227.45600000000002 L411.68,285.456"/><circle style="--d: 6s" class="g6" cx="547" cy="154" r="16"/><path style="--d: 6s;" class="g6" d="M547,250 Q625,224 633,233 Q641,242 618,296 Q595,350 571.5,381.5 Q571.5,381.5 548,413"/><circle style="--d: 7s" class="g7" cx="541" cy="208" r="16"/><path style="--d: 7s;" class="g7" d="M626.68,139.45600000000002 Q823.68,245.45600000000002 830.93,254.58100000000002 Q874.43,309.331 881.68,318.456"/><circle style="--d: 8s" class="g8" cx="490" cy="340" r="16"/><path style="--d: 8s;" class="g8" d="M575.68,408.544 Q445.68,578.544 407.93,608.044 Q294.68,696.544 258.68,716.294 Q186.68,755.794 150.68,775.544"/><circle style="--d: 9s" class="g9" cx="525" cy="372" r="16"/><path style="--d: 9s;" class="g9" d="M610.68,303.456 Q850.9399999999999,456.1745882352941 869.6975,457.0277647058823 Q982.2425,462.1468235294118 1001,463"/><circle style="--d: 10s" class="g10" cx="473" cy="456" r="16"/><path style="--d: 10s;" class="g10" d="M473,552 L537,583"/><circle style="--d: 11s" class="g11" cx="392" cy="569" r="16"/><path style="--d: 11s;" class="g11" d="M392,665 Q488.51612903225805,621 500.38709677419354,629.5 Q512.258064516129,638 516.1290322580645,640.75 Q520,643.5 506.3225806451613,679.25 Q506.3225806451613,679.25 492.64516129032256,715"/><circle style="--d: 12s" class="g12" cx="395" cy="649" r="16"/><path style="--d: 12s;" class="g12" d="M395,745 L538,717"/><circle style="--d: 13s" class="g13" cx="397" cy="719" r="16"/><path style="--d: 13s;" class="g13" d="M397,815 L578,787"/><circle style="--d: 14s" class="g14" cx="336" cy="554" r="16"/><path style="--d: 14s;" class="g14" d="M421.68,485.456 Q458.68,513.56054308094 449.68,650.0683237597912 Q440.68,786.5761044386423 451.68,789.7880522193211 Q462.68,793 534.18,753.2521462140992 Q534.18,753.2521462140992 605.68,713.5042924281985"/><circle style="--d: 15s" class="g15" cx="668" cy="675" r="16"/><path style="--d: 15s;" class="g15" d="M572,675 Q581,698 574.9375,702.1875 Q538.5625,727.3125 532.5,731.5"/><circle style="--d: 16s" class="g16" cx="478" cy="759" r="16"/><path style="--d: 16s;" class="g16" d="M563.68,690.456 Q816.68,807.456 828.305,815.831 Q898.055,866.081 909.68,874.456"/></g></svg>