<svg id="z39442" class="acjk" viewBox="0 0 1024 1024" xmlns="http://www.w3.org/2000/svg">
<style>

@keyframes zk {
	to {
		stroke-dashoffset:0;
	}
}
svg.acjk path[clip-path] {
	--t:0.8s;
	animation:zk var(--t) linear forwards var(--d);
	stroke-dasharray:3337;
	stroke-dashoffset:3339;
	stroke-width:128;
	stroke-linecap:round;
	fill:none;
	stroke:#000;
}
svg.acjk path[id] {fill:#ccc;}


    @keyframes guide-fade {
        0% { opacity: 0; }
        3% { opacity: 1; }
        95% { opacity: 1; }
        100% { opacity: 0; }
    }

    svg.acjk #guide-arrow {
        fill: #f77;
    }

    svg.acjk .guides {
        circle {
            fill: #0f6;
        }

        path {
            opacity: 0;
            animation: guide-fade var(--t) linear forwards var(--d);
            stroke-width: 16px;
            stroke-linecap: round;
            stroke: #f77;
            fill: none;
            marker-end: url(#guide-arrow);
        }

        circle,
        path {
            --t: 0.8s;
            opacity: 0;
            animation: guide-fade calc(var(--t) + 0.4s) ease-in-out forwards calc(var(--d) - 0.2s);
        }
    }
</style>
<path id="z39442d1" d="M208 154C188 134 169 123 153 122C145 122 140 125 139 131C137 137 138 142 144 147C152 161 157 173 158 183C166 283 163 390 141 511C137 529 135 534 136 542C136 551 142 562 148 570C155 579 176 578 185 569C197 560 190 540 190 526C188 506 189 482 190 443C192 382 196 309 200 265C204 217 207 189 214 181C219 173 215 160 208 154Z"/>
<path id="z39442d2" d="M304 174Q353 161 404 151Q435 144 439 139Q446 132 443 125Q436 116 413 110Q389 106 365 116Q331 129 293 138Q253 148 208 154C199 156 205 179 214 181Q238 187 270 181C293 176 293 176 304 174Z"/>
<path id="z39442d3" d="M324 373Q325 336 328 303C329 278 329 278 330 265Q330 244 333 220Q339 204 331 196Q318 181 304 174C294 168 266 170 270 181Q285 214 285 278C284 300 284 300 284 311Q284 341 283 385C283 408 283 408 283 419Q282 459 282 509C282 522 320 514 320 501Q321 453 323 411C324 386 324 386 324 373Z"/>
<path id="z39442d4" d="M328 303Q395 288 400 285Q406 279 402 273Q398 264 375 259Q353 255 330 265C300 274 300 274 285 278Q264 281 245 284Q218 288 238 301Q253 310 284 311C313 306 313 306 328 303Z"/>
<path id="z39442d5" d="M323 411Q347 405 375 400Q393 396 395 393Q402 387 398 381Q394 372 371 367Q349 363 326 372Q325 372 324 373C297 381 297 381 283 385Q258 389 233 392Q206 396 226 409Q247 421 283 419C310 414 310 414 323 411Z"/>
<path id="z39442d6" d="M185 569C197 559 234 548 295 535C331 527 357 524 373 532C380 535 381 543 382 553C382 561 381 605 369 685C361 731 352 764 341 782C334 792 323 794 311 790C295 784 278 781 263 777C252 773 246 772 244 775C242 777 246 781 255 791C291 832 307 862 312 875C313 880 318 883 324 884C332 885 347 877 365 859C382 841 394 821 398 798C425 634 442 548 452 541C456 537 458 533 458 529C458 524 449 516 431 505C398 484 385 487 320 501C295 506 295 506 282 509C255 514 212 523 190 526C176 529 173 578 185 569Z"/>
<path id="z39442d7" d="M75 606Q65 664 44 718Q31 739 50 764Q57 776 71 764Q84 751 90 727Q103 681 100 643Q100 621 92 603Q88 599 83 598Q77 599 75 606Z"/>
<path id="z39442d8" d="M137 631Q137 716 148 729Q155 736 166 729Q173 723 178 709Q185 676 152 620Q148 614 142 620Q138 624 137 631Z"/>
<path id="z39442d9" d="M207 616Q216 692 231 702Q238 708 249 700Q255 693 257 678Q260 642 220 602Q216 598 211 604Q207 608 207 616Z"/>
<path id="z39442d10" d="M284 610Q293 632 300 658Q304 668 313 673Q319 676 326 671Q333 664 337 645Q340 627 296 581Q289 574 284 574Q280 575 277 582Q276 589 284 610Z"/>
<path id="z39442d11" d="M690 334C716 296 740 267 765 215C775 191 788 172 808 159C820 150 819 139 811 131C799 120 784 113 769 107C754 100 728 106 686 118C614 136 569 141 552 142C542 142 535 142 534 146C531 152 536 159 549 168C563 177 588 177 623 166C681 147 713 138 720 140C720 140 722 144 721 154C710 206 696 243 652 305C645 313 635 323 628 331C578 379 515 413 431 449C422 452 419 455 424 460C426 462 438 464 454 461C552 436 606 409 662 364C671 355 682 344 690 334Z"/>
<path id="z39442d12" d="M662 364C697 398 746 432 809 474C828 487 851 488 877 481C911 471 943 462 969 456C977 453 985 450 992 446C996 442 994 435 986 432C976 428 933 421 857 411C806 403 751 380 690 334C665 315 665 315 652 305C626 285 602 264 577 241C562 227 543 219 522 219C515 218 509 220 505 225C501 229 501 235 508 239C512 241 517 245 523 247C537 250 572 277 628 331C651 353 651 353 662 364Z"/>
<path id="z39442d13" d="M528 562C521 559 508 555 488 553C470 550 473 563 479 573C493 599 507 634 518 679C521 691 525 703 535 712C554 731 553 715 554 695C554 685 552 676 550 668C542 642 537 605 535 589C533 580 537 565 528 562Z"/>
<path id="z39442d14" d="M780 642C798 606 816 585 832 574C844 565 843 552 835 543C826 534 807 521 778 507C767 501 755 501 744 506C717 516 691 527 666 534C632 543 632 543 615 547C586 554 556 556 528 562C519 564 526 591 535 589C561 583 595 575 617 571C648 564 648 564 664 561C716 549 746 542 754 550C758 555 751 583 735 632C730 647 773 656 780 642Z"/>
<path id="z39442d15" d="M660 681C694 675 736 670 785 666C791 665 795 662 796 658C796 654 790 648 780 642C767 634 749 626 735 632C710 641 683 645 661 650C633 655 633 655 619 658C594 662 571 664 550 668C541 670 545 697 554 695C554 695 597 690 619 687C646 683 646 683 660 681Z"/>
<path id="z39442d16" d="M655 783C655 748 658 714 660 681C661 660 661 660 661 650C661 632 663 574 664 561C665 543 665 543 666 534C667 513 672 495 678 475C679 468 676 459 664 452C644 439 625 435 611 433C602 431 595 432 590 438C585 442 584 449 591 458C612 485 612 516 615 547C616 563 616 563 617 571C618 589 619 628 619 658C619 677 619 677 619 687C619 719 618 754 618 791C618 804 655 796 655 783Z"/>
<path id="z39442d17" d="M758 759C724 765 690 775 655 783C630 788 630 788 618 791C583 798 547 802 511 811C498 813 482 812 462 812C453 811 448 816 447 822C444 830 445 837 452 843C464 853 480 867 502 880C508 883 515 880 523 877C620 827 695 807 770 780C777 777 766 757 758 759Z"/>
<path id="z39442d18" d="M770 780C787 810 805 845 823 886C828 898 833 907 842 913C846 915 851 913 857 910C865 904 870 890 871 865C871 840 854 809 820 774C785 739 762 717 752 708C747 704 744 704 741 711C738 716 743 733 758 759C766 773 766 773 770 780Z"/>
<defs>
	<clipPath id="z39442c1"><use href="#z39442d1"/></clipPath>
	<clipPath id="z39442c2"><use href="#z39442d2"/></clipPath>
	<clipPath id="z39442c3"><use href="#z39442d3"/></clipPath>
	<clipPath id="z39442c4"><use href="#z39442d4"/></clipPath>
	<clipPath id="z39442c5"><use href="#z39442d5"/></clipPath>
	<clipPath id="z39442c6"><use href="#z39442d6"/></clipPath>
	<clipPath id="z39442c7"><use href="#z39442d7"/></clipPath>
	<clipPath id="z39442c8"><use href="#z39442d8"/></clipPath>
	<clipPath id="z39442c9"><use href="#z39442d9"/></clipPath>
	<clipPath id="z39442c10"><use href="#z39442d10"/></clipPath>
	<clipPath id="z39442c11"><use href="#z39442d11"/></clipPath>
	<clipPath id="z39442c12"><use href="#z39442d12"/></clipPath>
	<clipPath id="z39442c13"><use href="#z39442d13"/></clipPath>
	<clipPath id="z39442c14"><use href="#z39442d14"/></clipPath>
	<clipPath id="z39442c15"><use href="#z39442d15"/></clipPath>
	<clipPath id="z39442c16"><use href="#z39442d16"/></clipPath>
	<clipPath id="z39442c17"><use href="#z39442d17"/></clipPath>
	<clipPath id="z39442c18"><use href="#z39442d18"/></clipPath>
<marker id="guide-arrow" viewBox="0 0 16 16" refX="5" refY="5" markerWidth="4" markerHeight="4" orient="auto-start-reverse"><path d="M 0 0 L 10 5 L 0 10 z" fill="inherit"/></marker></defs>
<path style="--d:1s;" pathLength="3333" clip-path="url(#z39442c1)" d="M145 131L187 178L165 573"/>
<path style="--d:2s;" pathLength="3333" clip-path="url(#z39442c2)" d="M210 162L439 132"/>
<path style="--d:3s;" pathLength="3333" clip-path="url(#z39442c3)" d="M277 180L308 213L301 513"/>
<path style="--d:4s;" pathLength="3333" clip-path="url(#z39442c4)" d="M237 293L397 274"/>
<path style="--d:5s;" pathLength="3333" clip-path="url(#z39442c5)" d="M225 401L391 384"/>
<path style="--d:6s;" pathLength="3333" clip-path="url(#z39442c6)" d="M181 561L353 510L418 536L356 816L322 837L252 780"/>
<path style="--d:7s;" pathLength="3333" clip-path="url(#z39442c7)" d="M83 605L60 765"/>
<path style="--d:8s;" pathLength="3333" clip-path="url(#z39442c8)" d="M148 622L158 725"/>
<path style="--d:9s;" pathLength="3333" clip-path="url(#z39442c9)" d="M215 608L240 700"/>
<path style="--d:10s;" pathLength="3333" clip-path="url(#z39442c10)" d="M285 584L319 666"/>
<path style="--d:11s;" pathLength="3333" clip-path="url(#z39442c11)" d="M544 153L728 122L768 153L646 346L575 398L429 456"/>
<path style="--d:12s;" pathLength="3333" clip-path="url(#z39442c12)" d="M511 229L829 444L985 441"/>
<path style="--d:13s;" pathLength="3333" clip-path="url(#z39442c13)" d="M483 560L511 580L547 711"/>
<path style="--d:14s;" pathLength="3333" clip-path="url(#z39442c14)" d="M526 572L764 527L797 562L753 646"/>
<path style="--d:15s;" pathLength="3333" clip-path="url(#z39442c15)" d="M547 680L789 657"/>
<path style="--d:16s;" pathLength="3333" clip-path="url(#z39442c16)" d="M593 442L642 478L634 794"/>
<path style="--d:17s;" pathLength="3333" clip-path="url(#z39442c17)" d="M450 821L508 846L766 772"/>
<path style="--d:18s;" pathLength="3333" clip-path="url(#z39442c18)" d="M747 716L834 840L845 906"/>
<g class="guides"><circle style="--d: 1s" class="g1" cx="145" cy="131" r="16"/><path style="--d: 1s;" class="g1" d="M49,131 Q91,178 88.25,227.375 Q71.75,523.625 69,573"/><circle style="--d: 2s" class="g2" cx="210" cy="162" r="16"/><path style="--d: 2s;" class="g2" d="M210,258 L439,228"/><circle style="--d: 3s" class="g3" cx="277" cy="180" r="16"/><path style="--d: 3s;" class="g3" d="M181,180 Q212,213 211.125,250.5 Q205.875,475.5 205,513"/><circle style="--d: 4s" class="g4" cx="237" cy="293" r="16"/><path style="--d: 4s;" class="g4" d="M237,389 L397,370"/><circle style="--d: 5s" class="g5" cx="225" cy="401" r="16"/><path style="--d: 5s;" class="g5" d="M225,497 L391,480"/><circle style="--d: 6s" class="g6" cx="181" cy="561" r="16"/><path style="--d: 6s;" class="g6" d="M181,657 Q283.3291139240506,606 302.6645569620253,619 Q322,632 303.55696202531647,695.5 Q285.11392405063293,759 275,764.25 Q264.88607594936707,769.5 244.0632911392405,755.25 Q244.0632911392405,755.25 223.2405063291139,741"/><circle style="--d: 7s" class="g7" cx="83" cy="605" r="16"/><path style="--d: 7s;" class="g7" d="M203,605 L180,765"/><circle style="--d: 8s" class="g8" cx="148" cy="622" r="16"/><path style="--d: 8s;" class="g8" d="M268,622 L278,725"/><circle style="--d: 9s" class="g9" cx="215" cy="608" r="16"/><path style="--d: 9s;" class="g9" d="M335,608 L360,700"/><circle style="--d: 10s" class="g10" cx="285" cy="584" r="16"/><path style="--d: 10s;" class="g10" d="M405,584 L439,666"/><circle style="--d: 11s" class="g11" cx="544" cy="153" r="16"/><path style="--d: 11s;" class="g11" d="M448,249 Q579.8938053097345,233.5 594.2300884955753,241.25 Q608.566371681416,249 564.8407079646017,297.25 Q521.1150442477876,345.5 495.6681415929204,358.5 Q470.22123893805315,371.5 417.89380530973455,386 Q417.89380530973455,386 365.56637168141594,400.5"/><circle style="--d: 12s" class="g12" cx="511" cy="229" r="16"/><path style="--d: 12s;" class="g12" d="M596.68,160.45600000000002 Q857.1984810126581,348 873.1736708860759,347.67288837209304 Q969.0248101265822,345.7102186046512 985,345.3831069767442"/><circle style="--d: 13s" class="g13" cx="497" cy="570" r="16"/><path style="--d: 13s;" class="g13" d="M617,570 L667,711"/><circle style="--d: 14s" class="g14" cx="526" cy="572" r="16"/><path style="--d: 14s;" class="g14" d="M526,668 Q658.6125461254612,623 663.2094095940959,631.75 Q677,658 670.8708487084871,664.125 Q658.6125461254612,676.375 652.4833948339483,682.5"/><circle style="--d: 15s" class="g15" cx="547" cy="680" r="16"/><path style="--d: 15s;" class="g15" d="M547,776 L789,753"/><circle style="--d: 16s" class="g16" cx="593" cy="442" r="16"/><path style="--d: 16s;" class="g16" d="M497,442 Q546,478 545,517.5 Q539,754.5 538,794"/><circle style="--d: 17s" class="g17" cx="450" cy="821" r="16"/><path style="--d: 17s;" class="g17" d="M450,917 Q508,942 540.25,932.75 Q733.75,877.25 766,868"/><circle style="--d: 18s" class="g18" cx="747" cy="716" r="16"/><path style="--d: 18s;" class="g18" d="M832.68,647.456 Q919.68,771.456 921.055,779.706 Q929.305,829.206 930.68,837.456"/></g></svg>