<svg id="z39443" class="acjk" viewBox="0 0 1024 1024" xmlns="http://www.w3.org/2000/svg">
<style>

@keyframes zk {
	to {
		stroke-dashoffset:0;
	}
}
svg.acjk path[clip-path] {
	--t:0.8s;
	animation:zk var(--t) linear forwards var(--d);
	stroke-dasharray:3337;
	stroke-dashoffset:3339;
	stroke-width:128;
	stroke-linecap:round;
	fill:none;
	stroke:#000;
}
svg.acjk path[id] {fill:#ccc;}


    @keyframes guide-fade {
        0% { opacity: 0; }
        3% { opacity: 1; }
        95% { opacity: 1; }
        100% { opacity: 0; }
    }

    svg.acjk #guide-arrow {
        fill: #f77;
    }

    svg.acjk .guides {
        circle {
            fill: #0f6;
        }

        path {
            opacity: 0;
            animation: guide-fade var(--t) linear forwards var(--d);
            stroke-width: 16px;
            stroke-linecap: round;
            stroke: #f77;
            fill: none;
            marker-end: url(#guide-arrow);
        }

        circle,
        path {
            --t: 0.8s;
            opacity: 0;
            animation: guide-fade calc(var(--t) + 0.4s) ease-in-out forwards calc(var(--d) - 0.2s);
        }
    }
</style>
<path id="z39443d1" d="M189 189C178 179 165 171 150 166C139 162 131 163 125 169C121 172 122 176 127 184C137 203 142 275 143 398C143 458 139 506 130 544C126 556 128 568 138 577C142 580 148 583 159 582C168 581 172 577 179 567C185 557 183 544 183 533C182 522 180 509 181 503C182 319 183 225 195 214C199 207 196 194 189 189Z"/>
<path id="z39443d2" d="M295 207C379 185 422 173 424 172C428 167 429 162 427 158C422 151 411 146 395 143C378 140 361 143 344 150C322 158 299 165 276 172C249 179 220 184 190 188C189 188 189 188 189 189C181 192 187 212 195 214C223 218 244 219 259 216C283 210 283 210 295 207Z"/>
<path id="z39443d3" d="M314 391Q315 360 317 331C318 306 318 306 319 293Q319 274 322 252Q329 230 295 207C284 201 254 205 259 216Q272 238 273 308C273 331 273 331 273 343Q273 368 273 404C273 427 273 427 273 439Q274 475 274 519C274 532 312 525 312 512Q312 469 313 428C314 403 314 403 314 391Z"/>
<path id="z39443d4" d="M317 331C369 316 397 308 401 305C405 300 405 296 403 293C398 287 389 282 375 280C355 276 338 286 319 293C288 303 288 303 273 308C256 313 238 315 220 319C201 323 199 330 213 337C230 345 251 348 273 343C302 335 302 335 317 331Z"/>
<path id="z39443d5" d="M313 428C371 411 400 401 401 401C405 396 405 392 403 389C398 383 389 378 375 376C355 373 336 383 314 391C287 400 287 400 273 404C254 409 235 410 216 415C197 418 195 426 209 433C228 442 250 445 273 439C300 432 300 432 313 428Z"/>
<path id="z39443d6" d="M179 567C233 556 284 547 323 544C335 542 346 545 354 552C362 558 360 575 356 603C350 638 347 675 342 713C337 741 330 766 317 786C313 791 289 788 248 779C239 777 235 777 235 781C234 783 237 787 242 793C267 822 283 847 292 866C297 878 304 881 316 876C352 857 374 829 381 789C389 737 395 682 404 625C407 602 415 582 427 564C433 553 434 545 428 538C417 525 400 513 378 501C366 494 346 505 312 512C287 517 287 517 274 519C257 522 207 534 183 533C172 533 168 569 179 567Z"/>
<path id="z39443d7" d="M77 631C70 663 60 693 47 723C38 741 41 758 53 775C59 783 68 785 77 776C100 751 108 715 105 673C103 655 102 639 96 628C93 623 88 621 86 622C81 622 78 625 77 631Z"/>
<path id="z39443d8" d="M146 667C154 700 160 720 166 724C168 726 173 726 178 723C183 719 187 711 191 699C193 688 182 669 159 642C154 637 150 634 148 634C145 634 142 637 141 642C139 645 142 654 146 667Z"/>
<path id="z39443d9" d="M210 634C220 668 229 688 237 693C241 695 247 694 252 689C255 684 256 677 256 669C255 661 250 653 243 646C231 633 224 625 219 621C216 619 213 620 211 624C209 626 208 630 210 634Z"/>
<path id="z39443d10" d="M269 617C286 653 300 672 310 675C316 676 322 674 327 667C330 661 329 652 327 643C324 634 317 627 308 621C293 611 284 602 277 599C273 597 269 599 268 604C266 607 266 612 269 617Z"/>
<path id="z39443d11" d="M641 188C654 159 661 141 667 136C671 131 672 126 670 120C667 114 662 107 652 101C626 84 603 80 585 88C578 90 578 95 581 104C597 153 577 222 517 326C516 326 515 328 514 331C497 359 466 403 419 460C414 465 416 470 423 468C494 442 564 355 630 212C637 196 637 196 641 188Z"/>
<path id="z39443d12" d="M630 212C682 276 740 342 807 408C826 427 883 425 975 402C979 400 983 397 984 395C984 392 980 387 971 385C887 357 819 330 771 295C729 265 687 228 641 188C635 182 625 205 630 212Z"/>
<path id="z39443d13" d="M547 425C526 429 523 436 540 444C551 448 571 452 594 451C611 449 631 444 651 439C676 432 690 427 718 420C732 416 740 412 742 411C747 406 748 401 744 397C738 391 727 387 711 385C693 383 648 401 612 411C592 416 570 420 547 425Z"/>
<path id="z39443d14" d="M522 707C513 708 507 698 502 690C492 675 489 658 484 643C474 615 463 589 447 565C445 560 442 552 448 549C458 542 474 544 491 553C500 559 508 569 510 580C514 607 523 632 526 660C528 680 528 680 529 690C529 699 525 706 522 707Z"/>
<path id="z39443d15" d="M714 626C721 604 728 582 731 558C731 552 727 548 722 546C707 540 690 546 676 549C626 557 578 566 530 576C523 577 517 580 510 580C499 580 480 555 491 553C568 544 644 527 718 502C732 496 749 500 763 509C781 520 802 529 818 545C825 552 824 565 818 574C812 579 805 581 800 587C784 600 772 617 761 634C751 647 708 641 714 626Z"/>
<path id="z39443d16" d="M526 660C543 657 560 653 577 650C618 643 679 634 714 626C730 623 748 624 761 634C768 639 780 644 782 654C783 662 771 662 765 663C711 665 661 672 605 680C574 684 554 686 529 690C519 692 516 662 526 660Z"/>
<path id="z39443d17" d="M431 875C424 874 414 875 413 868C411 860 422 857 428 855C474 832 519 808 551 768C569 744 581 715 588 687C598 644 602 601 605 558C605 532 607 505 604 478C603 468 600 460 594 451C584 434 634 429 651 439C660 443 669 452 665 459C654 483 649 508 646 534C640 585 635 662 629 686C624 704 624 704 622 713C613 746 589 786 565 812C536 841 499 861 459 871C450 873 441 875 431 875Z"/>
<path id="z39443d18" d="M622 713C636 733 652 752 668 772C692 801 717 830 743 858C752 869 767 873 781 873C806 872 830 873 855 872C864 870 876 873 884 866C889 861 884 855 879 852C836 836 791 821 752 797C711 765 682 737 644 701C642 698 635 690 629 686C622 680 616 706 622 713Z"/>
<defs>
	<clipPath id="z39443c1"><use href="#z39443d1"/></clipPath>
	<clipPath id="z39443c2"><use href="#z39443d2"/></clipPath>
	<clipPath id="z39443c3"><use href="#z39443d3"/></clipPath>
	<clipPath id="z39443c4"><use href="#z39443d4"/></clipPath>
	<clipPath id="z39443c5"><use href="#z39443d5"/></clipPath>
	<clipPath id="z39443c6"><use href="#z39443d6"/></clipPath>
	<clipPath id="z39443c7"><use href="#z39443d7"/></clipPath>
	<clipPath id="z39443c8"><use href="#z39443d8"/></clipPath>
	<clipPath id="z39443c9"><use href="#z39443d9"/></clipPath>
	<clipPath id="z39443c10"><use href="#z39443d10"/></clipPath>
	<clipPath id="z39443c11"><use href="#z39443d11"/></clipPath>
	<clipPath id="z39443c12"><use href="#z39443d12"/></clipPath>
	<clipPath id="z39443c13"><use href="#z39443d13"/></clipPath>
	<clipPath id="z39443c14"><use href="#z39443d14"/></clipPath>
	<clipPath id="z39443c15"><use href="#z39443d15"/></clipPath>
	<clipPath id="z39443c16"><use href="#z39443d16"/></clipPath>
	<clipPath id="z39443c17"><use href="#z39443d17"/></clipPath>
	<clipPath id="z39443c18"><use href="#z39443d18"/></clipPath>
<marker id="guide-arrow" viewBox="0 0 16 16" refX="5" refY="5" markerWidth="4" markerHeight="4" orient="auto-start-reverse"><path d="M 0 0 L 10 5 L 0 10 z" fill="inherit"/></marker></defs>
<path style="--d:1s;" pathLength="3333" clip-path="url(#z39443c1)" d="M129 173L165 220L156 580"/>
<path style="--d:2s;" pathLength="3333" clip-path="url(#z39443c2)" d="M196 194L422 160"/>
<path style="--d:3s;" pathLength="3333" clip-path="url(#z39443c3)" d="M267 220L297 254L291 515"/>
<path style="--d:4s;" pathLength="3333" clip-path="url(#z39443c4)" d="M214 327L398 297"/>
<path style="--d:5s;" pathLength="3333" clip-path="url(#z39443c5)" d="M209 423L397 393"/>
<path style="--d:6s;" pathLength="3333" clip-path="url(#z39443c6)" d="M183 569L198 542L341 523L395 554L335 816L299 832L243 781"/>
<path style="--d:7s;" pathLength="3333" clip-path="url(#z39443c7)" d="M88 630L64 776"/>
<path style="--d:8s;" pathLength="3333" clip-path="url(#z39443c8)" d="M151 642L171 719"/>
<path style="--d:9s;" pathLength="3333" clip-path="url(#z39443c9)" d="M218 629L236 687"/>
<path style="--d:10s;" pathLength="3333" clip-path="url(#z39443c10)" d="M275 607L318 669"/>
<path style="--d:11s;" pathLength="3333" clip-path="url(#z39443c11)" d="M588 95L628 129L601 212L522 357L425 462"/>
<path style="--d:12s;" pathLength="3333" clip-path="url(#z39443c12)" d="M641 196L829 374L977 398"/>
<path style="--d:13s;" pathLength="3333" clip-path="url(#z39443c13)" d="M537 433L742 402"/>
<path style="--d:14s;" pathLength="3333" clip-path="url(#z39443c14)" d="M453 557L492 596L517 701"/>
<path style="--d:15s;" pathLength="3333" clip-path="url(#z39443c15)" d="M502 558L740 526L776 563L730 628"/>
<path style="--d:16s;" pathLength="3333" clip-path="url(#z39443c16)" d="M532 684L776 649"/>
<path style="--d:17s;" pathLength="3333" clip-path="url(#z39443c17)" d="M595 431L634 467L592 736L521 824L420 864"/>
<path style="--d:18s;" pathLength="3333" clip-path="url(#z39443c18)" d="M625 693L763 837L877 859"/>
<g class="guides"><circle style="--d: 1s" class="g1" cx="129" cy="173" r="16"/><path style="--d: 1s;" class="g1" d="M33,173 Q69,220 67.875,265 Q61.125,535 60,580"/><circle style="--d: 2s" class="g2" cx="196" cy="194" r="16"/><path style="--d: 2s;" class="g2" d="M196,290 L422,256"/><circle style="--d: 3s" class="g3" cx="267" cy="220" r="16"/><path style="--d: 3s;" class="g3" d="M171,220 Q201,254 200.25,286.625 Q195.75,482.375 195,515"/><circle style="--d: 4s" class="g4" cx="214" cy="327" r="16"/><path style="--d: 4s;" class="g4" d="M214,423 L398,393"/><circle style="--d: 5s" class="g5" cx="209" cy="423" r="16"/><path style="--d: 5s;" class="g5" d="M209,519 L397,489"/><circle style="--d: 6s" class="g6" cx="191" cy="556" r="16"/><path style="--d: 6s;" class="g6" d="M191,652 Q270.4117647058823,619 284.70588235294116,634.5 Q299,650 283.11764705882354,707.75 Q267.2352941176471,765.5 257.7058823529412,769.5 Q248.1764705882353,773.5 233.3529411764706,760.75 Q233.3529411764706,760.75 218.52941176470588,748"/><circle style="--d: 7s" class="g7" cx="88" cy="630" r="16"/><path style="--d: 7s;" class="g7" d="M208,630 L184,776"/><circle style="--d: 8s" class="g8" cx="151" cy="642" r="16"/><path style="--d: 8s;" class="g8" d="M271,642 L291,719"/><circle style="--d: 9s" class="g9" cx="218" cy="629" r="16"/><path style="--d: 9s;" class="g9" d="M338,629 L356,687"/><circle style="--d: 10s" class="g10" cx="275" cy="607" r="16"/><path style="--d: 10s;" class="g10" d="M360.68,538.456 L403.68,600.456"/><circle style="--d: 11s" class="g11" cx="588" cy="95" r="16"/><path style="--d: 11s;" class="g11" d="M492,95 Q513.0837438423646,120.10626702997276 505.9679802955665,150.7506811989101 Q498.85221674876846,181.3950953678474 478.0320197044335,234.93051771117166 Q457.2118226600985,288.46594005449595 431.64778325123154,327.232970027248 Q431.64778325123154,327.232970027248 406.0837438423645,366"/><circle style="--d: 12s" class="g12" cx="641" cy="196" r="16"/><path style="--d: 12s;" class="g12" d="M726.68,127.456 Q866.7399999999999,281.262099009901 880.5224999999999,283.85433663366337 Q963.2175,299.40776237623766 977,302"/><circle style="--d: 13s" class="g13" cx="537" cy="433" r="16"/><path style="--d: 13s;" class="g13" d="M537,529 L742,498"/><circle style="--d: 14s" class="g14" cx="453" cy="557" r="16"/><path style="--d: 14s;" class="g14" d="M538.68,488.456 Q577.68,527.456 580.805,540.581 Q599.555,619.331 602.68,632.456"/><circle style="--d: 15s" class="g15" cx="502" cy="558" r="16"/><path style="--d: 15s;" class="g15" d="M502,654 Q658.3503649635037,622 664.2627737226278,631.25 Q682,659 674.4452554744526,675.25 Q659.3357664233577,707.75 651.7810218978102,724"/><circle style="--d: 16s" class="g16" cx="532" cy="684" r="16"/><path style="--d: 16s;" class="g16" d="M532,780 L776,745"/><circle style="--d: 17s" class="g17" cx="595" cy="431" r="16"/><path style="--d: 17s;" class="g17" d="M499,431 Q520.5046728971963,459.01847575057735 508.9252336448598,563.6986143187067 Q497.3457943925233,668.3787528868361 477.77102803738313,702.6235565819861 Q458.19626168224295,736.8683602771363 430.35046728971963,752.4341801385681 Q430.35046728971963,752.4341801385681 402.50467289719626,768"/><circle style="--d: 18s" class="g18" cx="625" cy="693" r="16"/><path style="--d: 18s;" class="g18" d="M710.68,624.456 Q801.76,744.6387469879518 811.165,746.9339036144578 Q867.595,760.704843373494 877,763"/></g></svg>