<!--
  Stroke-order data for 骨, derived from AnimCJK (https://github.com/parsimonhi/animCJK),
  itself derived from the Arphic PL KaitiM fonts. Distributed under the Arphic Public License
  (see ARPHICPL.TXT). Regenerated by scripts/build-strokes.ts — do not edit by hand.
-->
<svg id="z39592" class="acjk" viewBox="0 0 1024 1024" xmlns="http://www.w3.org/2000/svg">
<g class="glyph"><path style="--part:1" id="z39592d1" d="M388 144C373 133 356 124 338 118C329 115 321 115 316 120C311 123 311 130 316 140C335 176 353 258 369 387C372 400 407 394 407 381C400 285 395 221 398 177C398 166 397 151 388 144Z"/><path style="--part:1" id="z39592d2" d="M669 342C677 246 696 182 724 150C734 136 734 123 723 112C711 103 686 92 649 78C636 73 622 74 608 82C556 104 482 125 388 144C377 146 387 179 398 177C538 145 611 130 615 132C617 132 619 134 621 136C631 144 636 158 636 178C635 187 634 197 634 207C633 228 633 228 632 239C629 279 624 316 618 350C615 367 669 359 669 342Z"/><path style="--part:1" id="z39592d3" d="M497 368C493 292 490 267 478 248C471 239 472 231 478 228C483 223 489 224 500 226C510 228 526 234 526 234C535 237 538 251 538 261C537 290 533 323 531 363C531 374 497 379 497 368Z"/><path style="--part:1" id="z39592d4" d="M526 234C551 223 616 199 634 207C645 209 642 237 632 239C603 245 565 255 538 261C528 263 517 238 526 234Z"/><path style="--part:1" id="z39592d5" d="M220 408C212 392 204 382 197 377C183 367 175 371 176 390C176 410 170 437 147 470C124 500 111 520 114 534C117 556 123 572 131 585C141 602 154 602 167 583C178 565 187 542 196 516C205 486 212 462 220 444C224 433 225 419 220 408Z"/><path style="--part:1" id="z39592d6" d="M220 444C232 450 247 451 263 447C349 421 486 396 672 372C732 364 771 359 786 364C799 368 803 376 803 382C802 383 792 410 769 461C761 476 766 489 793 471C830 444 866 427 897 418C923 409 944 402 919 380C907 369 886 353 858 332C843 321 829 317 813 320C768 326 720 333 669 342C635 347 635 347 618 350C592 354 563 356 534 361C509 365 509 365 496 367C468 371 438 376 407 381C382 385 382 385 369 387C321 394 264 402 220 408C208 410 209 440 220 444Z"/><path style="--part:2" id="z39592d7" d="M403 725C405 696 407 670 409 648C410 632 410 632 411 624C414 580 417 550 421 535C423 525 423 511 416 504C379 472 336 468 347 494C377 570 366 681 337 803C331 825 316 853 315 866C312 887 323 906 334 925C347 948 362 925 371 910C395 875 398 778 401 749C402 733 402 733 403 725Z"/><path style="--part:2" id="z39592d8" d="M421 535Q433 535 573 501Q594 494 599 505Q618 557 619 785Q619 845 609 860Q606 863 524 856Q502 852 505 861Q568 906 604 940Q620 959 636 964Q646 967 654 956Q694 899 691 846Q655 566 680 517Q693 496 680 485Q656 466 618 451Q599 444 582 452Q513 491 416 504C406 506 411 537 421 535Z"/><path style="--part:2" id="z39592d9" d="M409 648C454 645 502 634 548 627C579 621 558 598 527 594C502 590 463 602 411 624C404 627 401 648 409 648Z"/><path style="--part:2" id="z39592d10" d="M401 749C417 751 456 742 551 731C583 726 562 702 531 697C508 693 465 703 403 725C396 728 393 749 401 749Z"/></g>
<defs><clipPath id="z39592c1"><use href="#z39592d1"/></clipPath>
	<clipPath id="z39592c2"><use href="#z39592d2"/></clipPath>
	<clipPath id="z39592c3"><use href="#z39592d3"/></clipPath>
	<clipPath id="z39592c4"><use href="#z39592d4"/></clipPath>
	<clipPath id="z39592c5"><use href="#z39592d5"/></clipPath>
	<clipPath id="z39592c6"><use href="#z39592d6"/></clipPath>
	<clipPath id="z39592c7"><use href="#z39592d7"/></clipPath>
	<clipPath id="z39592c8"><use href="#z39592d8"/></clipPath>
	<clipPath id="z39592c9"><use href="#z39592d9"/></clipPath>
	<clipPath id="z39592c10"><use href="#z39592d10"/></clipPath><marker id="guide-arrow" viewBox="0 0 16 16" refX="5" refY="5" markerWidth="4" markerHeight="4" orient="auto-start-reverse"><path d="M 0 0 L 10 5 L 0 10 z" fill="inherit"/></marker></defs>
<g class="strokes"><path style="--part:1" pathLength="3333" clip-path="url(#z39592c1)" d="M319 124L364 172L389 391"/><path style="--part:1" pathLength="3333" clip-path="url(#z39592c2)" d="M388 152L619 104L675 131L640 357"/><path style="--part:1" pathLength="3333" clip-path="url(#z39592c3)" d="M479 233L512 260L510 371"/><path style="--part:1" pathLength="3333" clip-path="url(#z39592c4)" d="M525 243L638 223"/><path style="--part:1" pathLength="3333" clip-path="url(#z39592c5)" d="M185 377L195 435L138 591"/><path style="--part:1" pathLength="3333" clip-path="url(#z39592c6)" d="M213 419L802 343L852 375L875 407L772 472"/><path style="--part:2" pathLength="3333" clip-path="url(#z39592c7)" d="M352 485L389 522L390 575L342 928"/><path style="--part:2" pathLength="3333" clip-path="url(#z39592c8)" d="M412 516L591 473L644 507L645 884L622 914L512 859"/><path style="--part:2" pathLength="3333" clip-path="url(#z39592c9)" d="M408 639L559 616"/><path style="--part:2" pathLength="3333" clip-path="url(#z39592c10)" d="M404 740L561 719"/></g>
<g class="guides"><text class="g1" style="--gs:1" x="319" y="124">①</text><path class="g1 aligned" style="--gs:1" d="M319,124 Q364,172 367.13,199.38 Q385.88,363.63 389,391"/><path class="g1 offset" style="--gs:1" d="M404.68,55.46 Q449.68,103.46 452.81,130.83 Q471.56,295.08 474.68,322.46"/><text class="g2" style="--gs:2" x="388" y="152">②</text><path class="g2 aligned" style="--gs:2" d="M388,152 Q619,104 633,110.75 Q675,131 666.25,187.5 Q648.75,300.5 640,357"/><path class="g2 offset" style="--gs:2" d="M388,248 Q522.41,200 530.56,206.75 Q555,227 549.91,259.5 Q539.73,324.5 534.63,357"/><text class="g3" style="--gs:3" x="479" y="233">③</text><path class="g3 aligned" style="--gs:3" d="M479,233 Q512,260 511.75,273.88 Q510.25,357.13 510,371"/><path class="g3 offset" style="--gs:3" d="M383,233 Q416,260 415.75,273.88 Q414.25,357.13 414,371"/><text class="g4" style="--gs:4" x="525" y="243">④</text><path class="g4 aligned" style="--gs:4" d="M525,243 L638,223"/><path class="g4 offset" style="--gs:4" d="M525,339 L638,319"/><text class="g5" style="--gs:5" x="185" y="377">⑤</text><path class="g5 aligned" style="--gs:5" d="M185,377 Q195,435 187.88,454.5 Q145.13,571.5 138,591"/><path class="g5 offset" style="--gs:5" d="M305,377 Q315,435 307.88,454.5 Q265.13,571.5 258,591"/><text class="g6" style="--gs:6" x="213" y="419">⑥</text><path class="g6 aligned" style="--gs:6" d="M213,419 Q802,343 827,359 Q852,375 863.5,391 Q875,407 823.5,439.5 Q823.5,439.5 772,472"/><path class="g6 offset" style="--gs:6" d="M213,515 Q667.65,439 686.95,455 Q706.25,471 715.12,487 Q724,503 684.25,535.5 Q684.25,535.5 644.49,568"/><text class="g7" style="--gs:7" x="352" y="485">⑦</text><path class="g7 aligned" style="--gs:7" d="M352,485 Q389,522 389.25,535.25 Q390,575 378,663.25 Q354,839.75 342,928"/><path class="g7 offset" style="--gs:7" d="M256,485 Q293,522 293.25,535.25 Q294,575 282,663.25 Q258,839.75 246,928"/><text class="g8" style="--gs:8" x="412" y="516">⑧</text><path class="g8 aligned" style="--gs:8" d="M412,516 Q591,473 617.5,490 Q644,507 644.5,695.5 Q645,884 633.5,899 Q622,914 567,886.5 Q567,886.5 512,859"/><path class="g8 offset" style="--gs:8" d="M412,612 Q501.5,569 514.75,586 Q528,603 528.25,791.5 Q528.5,980 522.75,995 Q517,1010 489.5,982.5 Q489.5,982.5 462,955"/><text class="g9" style="--gs:9" x="408" y="639">⑨</text><path class="g9 aligned" style="--gs:9" d="M408,639 L559,616"/><path class="g9 offset" style="--gs:9" d="M408,735 L559,712"/><text class="g10" style="--gs:10" x="404" y="740">⑩</text><path class="g10 aligned" style="--gs:10" d="M404,740 L561,719"/><path class="g10 offset" style="--gs:10" d="M404,836 L561,815"/></g>
<g class="parts"><rect data-part="1" data-literal="冎" role="button" tabindex="0" aria-label="Part 冎" x="66" y="32" width="881" height="631"/><rect data-part="2" data-literal="月" role="button" tabindex="0" aria-label="Part 月" x="270" y="401" width="447" height="599"/></g>
</svg>
