<!--
  Stroke-order data for 髄, derived from AnimCJK (https://github.com/parsimonhi/animCJK),
  itself derived from the Arphic PL KaitiM fonts. Distributed under the Arphic Public License
  (see ARPHICPL.TXT). Regenerated by scripts/build-strokes.ts — do not edit by hand.
-->
<svg id="z39620" class="acjk" viewBox="0 0 1024 1024" xmlns="http://www.w3.org/2000/svg">
<g class="glyph"><path id="z39620d1" d="M197 185Q181 172 159 165Q147 161 141 166Q134 172 140 183Q156 213 165 245Q171 276 184 403C186 414 215 406 215 395Q211 340 208 299C208 284 208 284 208 276Q208 225 208 209C208 200 204 190 197 185Z"/><path id="z39620d2" d="M373 357C379 273 394 217 418 188C427 176 427 163 417 157C374 130 335 130 301 148C275 161 239 172 197 185C189 188 200 212 208 209C218 203 255 192 318 175C326 172 332 172 336 175C344 181 352 200 346 247C343 268 343 268 342 278C339 294 336 330 331 366C329 380 373 371 373 357Z"/><path id="z39620d3" d="M259 385C251 279 260 311 242 276C237 267 237 260 242 256C248 252 254 253 264 254C275 257 279 256 286 262C294 267 300 278 298 287C296 308 289 334 289 377C289 387 259 395 259 385Z"/><path id="z39620d4" d="M286 262C311 256 329 251 346 247C356 245 352 276 342 278C320 283 298 287 298 287C289 289 277 264 286 262Z"/><path id="z39620d5" d="M134 414Q124 398 114 392Q99 382 100 402Q107 427 64 491Q51 509 75 550Q88 569 101 546Q113 525 120 495Q127 458 135 437C137 430 139 420 134 414Z"/><path id="z39620d6" d="M135 437C145 441 163 440 188 431C247 408 354 382 387 381C396 380 400 387 399 391C392 413 382 434 377 459C376 462 385 459 393 454C419 435 443 423 465 416C482 410 490 404 490 400C489 395 470 381 436 357C422 347 403 350 373 357C345 363 345 363 331 366C327 366 298 374 289 377C269 382 269 382 259 385C246 388 228 391 215 395C194 400 194 400 184 403C166 407 149 409 134 414C127 417 127 435 135 437Z"/><path id="z39620d7" d="M204 686C206 661 209 639 211 621C214 602 214 602 215 592C217 558 220 532 224 519C226 511 222 501 216 496C204 484 189 477 172 477C164 479 161 483 164 490C190 554 185 644 151 761C146 773 140 785 134 796C122 818 125 842 143 868C145 876 150 878 157 875C177 862 192 809 202 715C203 696 203 696 204 686Z"/><path id="z39620d8" d="M290 498C299 495 305 493 308 499C311 505 314 515 315 528C322 639 323 730 321 798C320 812 318 823 314 829C312 831 290 830 251 824C240 822 233 824 238 828C266 853 293 869 310 886C317 893 324 900 332 903C336 904 340 903 345 898C363 875 374 848 372 819C355 634 352 531 365 508C370 498 369 490 364 485C353 475 338 468 320 462C308 457 291 467 265 480C236 493 218 495 216 496C208 497 216 522 224 519C268 505 268 505 290 498Z"/><path id="z39620d9" d="M211 621Q212 621 217 620Q256 611 284 606Q303 599 294 590Q284 580 262 579Q243 579 215 592C206 596 201 623 211 621Z"/><path id="z39620d10" d="M202 715Q250 706 286 701Q305 697 297 686Q287 674 266 672Q250 671 204 686C195 690 192 717 202 715Z"/><path id="z39620d11" d="M635 411C652 388 677 337 688 308C699 275 699 275 705 259C725 200 729 169 745 145C749 139 750 133 748 128C742 114 723 102 692 95C683 92 673 93 665 99C658 103 658 110 665 116C672 123 678 131 680 141C684 162 679 197 655 271C644 303 644 303 639 319C621 372 592 418 544 483C537 491 539 496 545 498C547 498 551 496 560 491C571 482 593 467 615 438C628 420 628 420 635 411Z"/><path id="z39620d12" d="M688 308C804 282 864 266 869 263C874 258 876 252 873 247C868 240 856 232 838 229C818 224 798 229 780 236C755 244 730 252 705 259C672 267 672 267 655 271C626 277 596 279 567 284C542 287 539 295 557 306C577 317 604 326 639 319C672 312 672 312 688 308Z"/><path id="z39620d13" d="M650 614C650 590 652 568 655 550C656 533 656 533 657 525C659 487 662 461 666 446C667 437 663 427 656 421C651 417 644 413 635 411C624 409 611 427 615 438C633 495 628 571 600 666C583 709 582 740 597 760C601 768 605 771 611 767C629 757 641 718 648 652C648 645 648 645 648 642C649 623 649 623 650 614Z"/><path id="z39620d14" d="M666 446C680 444 709 437 752 425C762 423 770 424 774 429C776 437 781 491 787 590C787 673 784 719 778 728C776 729 755 726 715 718C704 714 699 714 699 720C729 748 752 773 770 794C776 805 784 812 794 814C798 816 803 815 809 809C833 781 844 752 843 722C827 556 825 462 839 439C845 429 845 420 839 413C826 403 809 393 789 385C778 381 768 382 760 386C735 400 700 412 656 421C647 423 657 448 666 446Z"/><path id="z39620d15" d="M655 550C687 544 716 539 740 535C752 533 755 528 751 522C745 516 735 511 722 508C710 508 693 511 672 518C666 520 661 523 657 525C650 529 647 552 655 550Z"/><path id="z39620d16" d="M648 642C682 634 713 629 740 625C752 623 756 618 751 610C744 602 734 598 720 596C696 594 672 600 650 614C642 619 639 644 648 642Z"/><path id="z39620d17" d="M453 285Q480 346 499 354Q509 358 520 344Q524 334 521 315Q517 300 500 289Q475 270 463 264Q456 260 452 270Q449 276 453 285Z"/><path id="z39620d18" d="M507 782C515 777 521 769 524 758C528 736 518 707 498 671C479 637 494 597 534 551C535 548 537 546 540 544C551 534 551 525 541 517C530 508 514 501 496 493C484 488 469 496 444 513C411 534 390 541 384 542C379 542 376 543 376 546C375 548 377 551 382 553C402 561 428 557 459 542C463 539 467 540 472 545C484 557 484 572 471 588C447 615 446 647 469 688C483 713 490 735 492 752C492 762 492 771 490 777C489 783 502 786 507 782Z"/><path id="z39620d19" d="M490 777Q466 770 438 772Q417 776 398 772Q385 769 383 775Q379 784 391 795Q403 807 454 804Q488 800 514 813Q617 862 740 922Q771 938 813 921Q870 899 921 879Q939 872 938 864Q938 855 894 857Q854 856 791 857Q734 858 683 841Q605 816 507 782C496 779 496 779 490 777Z"/></g>
<defs><clipPath id="z39620c1"><use href="#z39620d1"/></clipPath>
	<clipPath id="z39620c2"><use href="#z39620d2"/></clipPath>
	<clipPath id="z39620c3"><use href="#z39620d3"/></clipPath>
	<clipPath id="z39620c4"><use href="#z39620d4"/></clipPath>
	<clipPath id="z39620c5"><use href="#z39620d5"/></clipPath>
	<clipPath id="z39620c6"><use href="#z39620d6"/></clipPath>
	<clipPath id="z39620c7"><use href="#z39620d7"/></clipPath>
	<clipPath id="z39620c8"><use href="#z39620d8"/></clipPath>
	<clipPath id="z39620c9"><use href="#z39620d9"/></clipPath>
	<clipPath id="z39620c10"><use href="#z39620d10"/></clipPath>
	<clipPath id="z39620c11"><use href="#z39620d11"/></clipPath>
	<clipPath id="z39620c12"><use href="#z39620d12"/></clipPath>
	<clipPath id="z39620c13"><use href="#z39620d13"/></clipPath>
	<clipPath id="z39620c14"><use href="#z39620d14"/></clipPath>
	<clipPath id="z39620c15"><use href="#z39620d15"/></clipPath>
	<clipPath id="z39620c16"><use href="#z39620d16"/></clipPath>
	<clipPath id="z39620c17"><use href="#z39620d17"/></clipPath>
	<clipPath id="z39620c18"><use href="#z39620d18"/></clipPath>
	<clipPath id="z39620c19"><use href="#z39620d19"/></clipPath><marker id="guide-arrow" viewBox="0 0 16 16" refX="5" refY="5" markerWidth="4" markerHeight="4" orient="auto-start-reverse"><path d="M 0 0 L 10 5 L 0 10 z" fill="inherit"/></marker></defs>
<g class="strokes"><path pathLength="3333" clip-path="url(#z39620c1)" d="M143 170L184 223L196 399"/><path pathLength="3333" clip-path="url(#z39620c2)" d="M203 187L329 155L378 174L335 363"/><path pathLength="3333" clip-path="url(#z39620c3)" d="M244 258L273 285L269 381"/><path pathLength="3333" clip-path="url(#z39620c4)" d="M292 262L343 254"/><path pathLength="3333" clip-path="url(#z39620c5)" d="M107 394L85 552"/><path pathLength="3333" clip-path="url(#z39620c6)" d="M138 431L388 366L441 406L383 452"/><path pathLength="3333" clip-path="url(#z39620c7)" d="M171 488L200 526L198 589L148 869"/><path pathLength="3333" clip-path="url(#z39620c8)" d="M222 501L307 478L340 506L344 832L322 866L248 830"/><path pathLength="3333" clip-path="url(#z39620c9)" d="M218 614L290 597"/><path pathLength="3333" clip-path="url(#z39620c10)" d="M211 706L292 692"/><path pathLength="3333" clip-path="url(#z39620c11)" d="M666 105L714 137L683 253L623 396L546 490"/><path pathLength="3333" clip-path="url(#z39620c12)" d="M552 292L634 297L868 250"/><path pathLength="3333" clip-path="url(#z39620c13)" d="M636 420L638 562L606 763"/><path pathLength="3333" clip-path="url(#z39620c14)" d="M663 425L768 403L809 433L807 746L780 770L709 722"/><path pathLength="3333" clip-path="url(#z39620c15)" d="M659 543L746 527"/><path pathLength="3333" clip-path="url(#z39620c16)" d="M654 633L747 615"/><path pathLength="3333" clip-path="url(#z39620c17)" d="M459 269L510 350"/><path pathLength="3333" clip-path="url(#z39620c18)" d="M382 547L473 516L511 538L471 629L503 777"/><path pathLength="3333" clip-path="url(#z39620c19)" d="M388 778L501 794L760 892L932 867"/></g>
<g class="guides"><text class="g1" style="--gs:1" x="143" y="170">①</text><path class="g1 aligned" style="--gs:1" d="M143,170 Q184,223 185.5,245 Q194.5,377 196,399"/><path class="g1 offset" style="--gs:1" d="M228.68,101.46 Q269.68,154.46 271.18,176.46 Q280.18,308.46 281.68,330.46"/><text class="g2" style="--gs:2" x="203" y="187">②</text><path class="g2 aligned" style="--gs:2" d="M203,187 Q329,155 341.25,159.75 Q378,174 367.25,221.25 Q345.75,315.75 335,363"/><path class="g2 offset" style="--gs:2" d="M203,283 Q266,251 272.13,255.75 Q290.5,270 285.13,293.25 Q274.38,339.75 269,363"/><text class="g3" style="--gs:3" x="244" y="258">③</text><path class="g3 aligned" style="--gs:3" d="M259,272 L269,381"/><path class="g3 offset" style="--gs:3" d="M379,272 L389,381"/><text class="g4" style="--gs:4" x="292" y="262">④</text><path class="g4 aligned" style="--gs:4" d="M292,262 L343,254"/><path class="g4 offset" style="--gs:4" d="M292,358 L343,350"/><text class="g5" style="--gs:5" x="107" y="394">⑤</text><path class="g5 aligned" style="--gs:5" d="M107,394 L85,552"/><path class="g5 offset" style="--gs:5" d="M227,394 L205,552"/><text class="g6" style="--gs:6" x="138" y="431">⑥</text><path class="g6 aligned" style="--gs:6" d="M138,431 Q388,366 401.25,376 Q441,406 426.5,417.5 Q397.5,440.5 383,452"/><path class="g6 offset" style="--gs:6" d="M138,527 Q300.54,462 309.16,472 Q335,502 325.57,513.5 Q306.72,536.5 297.29,548"/><text class="g7" style="--gs:7" x="171" y="488">⑦</text><path class="g7 aligned" style="--gs:7" d="M171,488 Q200,526 199.5,541.75 Q198,589 185.5,659 Q160.5,799 148,869"/><path class="g7 offset" style="--gs:7" d="M75,488 Q104,526 103.5,541.75 Q102,589 89.5,659 Q64.5,799 52,869"/><text class="g8" style="--gs:8" x="222" y="501">⑧</text><path class="g8 aligned" style="--gs:8" d="M222,501 Q307,478 323.5,492 Q340,506 342,669 Q344,832 333,849 Q322,866 285,848 Q285,848 248,830"/><path class="g8 offset" style="--gs:8" d="M222,597 Q264.5,574 272.75,588 Q281,602 282,765 Q283,928 277.5,945 Q272,962 253.5,944 Q253.5,944 235,926"/><text class="g9" style="--gs:9" x="218" y="614">⑨</text><path class="g9 aligned" style="--gs:9" d="M218,614 L290,597"/><path class="g9 offset" style="--gs:9" d="M218,710 L290,693"/><text class="g10" style="--gs:10" x="211" y="706">⑩</text><path class="g10 aligned" style="--gs:10" d="M211,706 L292,692"/><path class="g10 offset" style="--gs:10" d="M211,802 L292,788"/><text class="g11" style="--gs:11" x="666" y="105">⑪</text><path class="g11 aligned" style="--gs:11" d="M666,105 Q714,137 698.5,195 Q683,253 653,324.5 Q623,396 584.5,443 Q584.5,443 546,490"/><path class="g11 offset" style="--gs:11" d="M570,105 Q594,129.02 586.25,172.56 Q578.5,216.1 563.5,269.77 Q548.5,323.44 529.25,358.72 Q529.25,358.72 510,394"/><text class="g12" style="--gs:12" x="552" y="292">⑫</text><path class="g12 aligned" style="--gs:12" d="M552,292 Q634,297 663.25,291.13 Q838.75,255.88 868,250"/><path class="g12 offset" style="--gs:12" d="M552,388 Q634,393 663.25,387.13 Q838.75,351.88 868,346"/><text class="g13" style="--gs:13" x="636" y="420">⑬</text><path class="g13 aligned" style="--gs:13" d="M636,420 Q638,562 634,587.13 Q610,737.88 606,763"/><path class="g13 offset" style="--gs:13" d="M756,420 Q758,562 754,587.13 Q730,737.88 726,763"/><text class="g14" style="--gs:14" x="663" y="425">⑭</text><path class="g14 aligned" style="--gs:14" d="M663,425 Q768,403 788.5,418 Q809,433 808,589.5 Q807,746 793.5,758 Q780,770 744.5,746 Q744.5,746 709,722"/><path class="g14 offset" style="--gs:14" d="M663,521 Q715.5,499 725.75,506.5 Q736,514 735.5,592.25 Q735,670.5 728.25,676.5 Q721.5,682.5 703.75,670.5 Q703.75,670.5 686,658.5"/><text class="g15" style="--gs:15" x="659" y="543">⑮</text><path class="g15 aligned" style="--gs:15" d="M659,543 L746,527"/><path class="g15 offset" style="--gs:15" d="M659,639 L746,623"/><text class="g16" style="--gs:16" x="654" y="633">⑯</text><path class="g16 aligned" style="--gs:16" d="M654,633 L747,615"/><path class="g16 offset" style="--gs:16" d="M654,729 L747,711"/><text class="g17" style="--gs:17" x="459" y="269">⑰</text><path class="g17 aligned" style="--gs:17" d="M459,269 L510,350"/><path class="g17 offset" style="--gs:17" d="M544.68,200.46 L595.68,281.46"/><text class="g18" style="--gs:18" x="382" y="547">⑱</text><path class="g18 aligned" style="--gs:18" d="M382,547 Q473,516 492,527 Q511,538 491,583.5 Q471,629 487,703 Q487,703 503,777"/><path class="g18 offset" style="--gs:18" d="M382,643 Q427.5,627.5 437,633 Q446.5,638.5 436.5,661.25 Q426.5,684 434.5,721 Q434.5,721 442.5,758"/><text class="g19" style="--gs:19" x="388" y="778">⑲</text><path class="g19 aligned" style="--gs:19" d="M388,778 Q501,794 565.75,818.5 Q760,892 803,885.75 Q889,873.25 932,867"/><path class="g19 offset" style="--gs:19" d="M388,874 Q501,890 565.75,914.5 Q760,988 803,981.75 Q889,969.25 932,963"/></g>
</svg>
