<!--
  Stroke-order data for 髮, derived from AnimCJK (https://github.com/parsimonhi/animCJK),
  itself derived from the Arphic PL KaitiM fonts. Distributed under the Arphic Public License
  (see ARPHICPL.TXT). Regenerated by scripts/build-strokes.ts — do not edit by hand.
-->
<svg id="z39662" class="acjk" viewBox="0 0 1024 1024" xmlns="http://www.w3.org/2000/svg">
<g class="glyph"><path id="z39662d1" d="M340 349C338 324 336 301 335 281C334 269 334 269 334 263C332 238 331 218 331 204C331 193 331 193 331 187C331 169 330 151 331 134C331 126 330 115 323 110C308 98 290 90 276 86C267 83 260 83 256 87C251 90 251 97 256 106C268 128 278 151 284 176C289 200 296 260 306 356C308 367 340 361 340 349Z"/><path id="z39662d2" d="M331 134C351 136 404 130 470 115C481 112 504 106 512 99C516 94 518 89 515 85C510 78 500 72 485 72C471 71 454 76 431 84C412 90 355 103 323 110C315 112 323 134 331 134Z"/><path id="z39662d3" d="M331 204C349 212 387 211 449 197C461 194 491 190 499 184C503 179 504 176 502 172C499 167 491 162 477 159C462 155 448 159 435 164C412 171 372 178 331 187C325 188 326 202 331 204Z"/><path id="z39662d4" d="M335 281C353 285 385 283 430 277C452 273 485 271 499 260C503 255 504 252 502 248C499 243 491 238 477 235C462 231 448 234 435 240C416 247 351 259 334 263C328 264 329 280 335 281Z"/><path id="z39662d5" d="M324 387C332 385 394 370 517 358C526 356 532 354 533 349C533 341 528 333 518 329C502 321 487 319 474 322C421 332 376 341 340 349C317 354 317 354 306 356C210 375 142 378 105 381C96 381 92 384 91 389C88 395 91 401 101 409C121 424 148 430 182 422C223 410 260 399 294 393C314 389 314 389 324 387Z"/><path id="z39662d6" d="M451 447C404 459 357 474 311 489C304 490 302 491 306 485C329 448 346 426 356 416C363 408 363 401 358 397C351 392 340 389 324 387C314 385 294 383 294 393C293 395 294 400 296 407C304 439 287 476 240 508C219 521 213 535 228 558C234 568 241 574 249 576C252 576 258 576 263 572C293 542 359 505 463 462C469 460 457 446 451 447Z"/><path id="z39662d7" d="M463 462C471 472 479 481 490 487C496 490 503 488 508 483C512 477 514 469 514 462C513 449 509 440 501 433C492 425 481 420 449 401C442 397 438 396 434 398C431 399 429 401 429 408C428 410 436 423 451 447C458 459 459 457 463 462Z"/><path id="z39662d8" d="M694 79C695 89 679 113 644 150C625 168 596 189 558 216C552 219 555 226 564 225C623 212 684 176 748 125C755 119 763 113 774 108C781 104 784 97 782 92C780 86 772 82 761 78C736 68 716 65 702 67C695 67 692 71 694 79Z"/><path id="z39662d9" d="M703 230C685 259 638 292 575 339C570 342 573 347 577 348C579 348 582 344 588 343C638 325 683 302 725 276C745 263 771 252 785 245C792 240 799 233 800 229C801 223 797 217 791 214C756 197 728 186 714 197C705 203 709 219 703 230Z"/><path id="z39662d10" d="M735 325C728 359 669 403 563 461C556 464 558 470 568 470C630 463 703 432 784 380C793 374 802 368 814 364C823 360 826 354 824 349C822 344 815 337 804 331C779 317 759 312 744 313C737 313 736 317 735 325Z"/><path id="z39662d11" d="M469 608C612 577 688 559 695 554C699 549 701 543 699 539C695 531 683 525 666 521C647 516 629 519 611 526C574 538 538 551 501 560C447 572 447 572 420 578C381 586 341 588 301 594C278 597 274 606 291 615C330 634 363 630 399 623C446 613 446 613 469 608Z"/><path id="z39662d12" d="M413 702C436 661 454 629 469 608C481 593 495 578 501 560C502 557 504 553 503 550C498 535 486 522 473 507C464 496 456 490 448 491C439 491 435 496 436 506C436 536 431 554 420 578C406 608 406 608 399 623C346 736 262 829 155 904C147 909 134 919 148 922C166 925 210 908 274 860C326 819 376 763 406 714C411 706 411 706 413 702Z"/><path id="z39662d13" d="M593 811C609 783 619 765 628 741C638 712 647 694 655 687C662 679 661 671 657 665C649 655 637 647 621 640C607 634 595 630 583 632C574 633 573 639 576 650C586 704 578 735 553 783C546 794 539 804 531 814C491 859 428 882 336 904C324 906 326 912 339 915C436 930 511 910 566 847C575 835 585 823 593 811Z"/><path id="z39662d14" d="M566 847C642 918 691 955 715 955C755 955 804 947 864 934C885 928 895 924 893 918C892 915 881 910 859 906C750 879 667 863 593 811C566 792 566 792 553 783C530 767 510 747 488 730C469 715 443 695 413 702C408 703 402 711 406 714C458 750 499 783 531 814C554 836 554 836 566 847Z"/><path id="z39662d15" d="M727 508C748 526 770 546 794 568C802 575 810 579 819 579C825 578 830 575 833 567C835 558 834 545 830 529C823 506 788 484 723 466C714 463 707 462 704 465C700 466 699 472 701 480C702 486 712 495 727 508Z"/></g>
<defs><clipPath id="z39662c1"><use href="#z39662d1"/></clipPath>
	<clipPath id="z39662c2"><use href="#z39662d2"/></clipPath>
	<clipPath id="z39662c3"><use href="#z39662d3"/></clipPath>
	<clipPath id="z39662c4"><use href="#z39662d4"/></clipPath>
	<clipPath id="z39662c5"><use href="#z39662d5"/></clipPath>
	<clipPath id="z39662c6"><use href="#z39662d6"/></clipPath>
	<clipPath id="z39662c7"><use href="#z39662d7"/></clipPath>
	<clipPath id="z39662c8"><use href="#z39662d8"/></clipPath>
	<clipPath id="z39662c9"><use href="#z39662d9"/></clipPath>
	<clipPath id="z39662c10"><use href="#z39662d10"/></clipPath>
	<clipPath id="z39662c11"><use href="#z39662d11"/></clipPath>
	<clipPath id="z39662c12"><use href="#z39662d12"/></clipPath>
	<clipPath id="z39662c13"><use href="#z39662d13"/></clipPath>
	<clipPath id="z39662c14"><use href="#z39662d14"/></clipPath>
	<clipPath id="z39662c15"><use href="#z39662d15"/></clipPath><marker id="guide-arrow" viewBox="0 0 16 16" refX="5" refY="5" markerWidth="4" markerHeight="4" orient="auto-start-reverse"><path d="M 0 0 L 10 5 L 0 10 z" fill="inherit"/></marker></defs>
<g class="strokes"><path pathLength="3333" clip-path="url(#z39662c1)" d="M258 90L304 144L322 359"/><path pathLength="3333" clip-path="url(#z39662c2)" d="M328 114L512 88"/><path pathLength="3333" clip-path="url(#z39662c3)" d="M331 195L495 175"/><path pathLength="3333" clip-path="url(#z39662c4)" d="M334 271L498 252"/><path pathLength="3333" clip-path="url(#z39662c5)" d="M95 391L164 401L526 340"/><path pathLength="3333" clip-path="url(#z39662c6)" d="M303 392L328 419L268 506L281 532L457 455"/><path pathLength="3333" clip-path="url(#z39662c7)" d="M438 407L503 480"/><path pathLength="3333" clip-path="url(#z39662c8)" d="M700 75L727 110L561 217"/><path pathLength="3333" clip-path="url(#z39662c9)" d="M719 196L747 236L579 341"/><path pathLength="3333" clip-path="url(#z39662c10)" d="M746 315L770 356L569 465"/><path pathLength="3333" clip-path="url(#z39662c11)" d="M287 604L402 602L693 538"/><path pathLength="3333" clip-path="url(#z39662c12)" d="M446 501L466 553L371 722L266 840L150 915"/><path pathLength="3333" clip-path="url(#z39662c13)" d="M584 641L619 687L547 832L471 885L336 910"/><path pathLength="3333" clip-path="url(#z39662c14)" d="M413 708L711 911L884 920"/><path pathLength="3333" clip-path="url(#z39662c15)" d="M705 474L798 531L824 571"/></g>
<g class="guides"><text class="g1" style="--gs:1" x="258" y="90">①</text><path class="g1 aligned" style="--gs:1" d="M258,90 Q304,144 306.25,170.88 Q319.75,332.13 322,359"/><path class="g1 offset" style="--gs:1" d="M343.68,21.46 Q389.68,75.46 391.93,102.33 Q405.43,263.58 407.68,290.46"/><text class="g2" style="--gs:2" x="328" y="114">②</text><path class="g2 aligned" style="--gs:2" d="M328,114 L512,88"/><path class="g2 offset" style="--gs:2" d="M328,210 L512,184"/><text class="g3" style="--gs:3" x="331" y="195">③</text><path class="g3 aligned" style="--gs:3" d="M331,195 L495,175"/><path class="g3 offset" style="--gs:3" d="M331,291 L495,271"/><text class="g4" style="--gs:4" x="334" y="271">④</text><path class="g4 aligned" style="--gs:4" d="M334,271 L498,252"/><path class="g4 offset" style="--gs:4" d="M334,367 L498,348"/><text class="g5" style="--gs:5" x="95" y="391">⑤</text><path class="g5 aligned" style="--gs:5" d="M95,391 Q164,401 209.25,393.38 Q480.75,347.63 526,340"/><path class="g5 offset" style="--gs:5" d="M95,487 Q164,497 209.25,489.38 Q480.75,443.63 526,436"/><text class="g6" style="--gs:6" x="303" y="392">⑥</text><path class="g6 aligned" style="--gs:6" d="M316,406 Q268,506 271.25,512.5 Q281,532 325,512.75 Q413,474.25 457,455"/><path class="g6 offset" style="--gs:6" d="M436,406 Q412,456 413.63,459.25 Q418.5,469 440.5,459.38 Q484.5,440.13 506.5,430.5"/><text class="g7" style="--gs:7" x="438" y="407">⑦</text><path class="g7 aligned" style="--gs:7" d="M438,407 L503,480"/><path class="g7 offset" style="--gs:7" d="M523.68,338.46 L588.68,411.46"/><text class="g8" style="--gs:8" x="700" y="75">⑧</text><path class="g8 aligned" style="--gs:8" d="M700,75 Q727,110 706.25,123.38 Q581.75,203.63 561,217"/><path class="g8 offset" style="--gs:8" d="M604,75 Q617.5,92.5 607.13,99.19 Q544.88,139.31 534.5,146"/><text class="g9" style="--gs:9" x="719" y="196">⑨</text><path class="g9 aligned" style="--gs:9" d="M719,196 Q747,236 726,249.13 Q600,327.88 579,341"/><path class="g9 offset" style="--gs:9" d="M623,196 Q637,216 626.5,222.56 Q563.5,261.94 553,268.5"/><text class="g10" style="--gs:10" x="746" y="315">⑩</text><path class="g10 aligned" style="--gs:10" d="M746,315 Q770,356 744.88,369.63 Q594.13,451.38 569,465"/><path class="g10 offset" style="--gs:10" d="M650,315 Q662.54,335.5 649.41,342.31 Q570.66,383.19 557.54,390"/><text class="g11" style="--gs:11" x="287" y="604">⑪</text><path class="g11 aligned" style="--gs:11" d="M287,604 Q402,602 438.38,594 Q656.63,546 693,538"/><path class="g11 offset" style="--gs:11" d="M287,700 Q402,698 438.38,690 Q656.63,642 693,634"/><text class="g12" style="--gs:12" x="446" y="501">⑫</text><path class="g12 aligned" style="--gs:12" d="M446,501 Q466,553 418.5,637.5 Q371,722 318.5,781 Q266,840 208,877.5 Q208,877.5 150,915"/><path class="g12 offset" style="--gs:12" d="M350,501 Q362.41,540.94 332.94,605.85 Q303.48,670.75 270.92,716.07 Q238.35,761.39 202.38,790.2 Q202.38,790.2 166.41,819"/><text class="g13" style="--gs:13" x="584" y="641">⑬</text><path class="g13 aligned" style="--gs:13" d="M584,641 Q619,687 583,759.5 Q547,832 509,858.5 Q471,885 403.5,897.5 Q403.5,897.5 336,910"/><path class="g13 offset" style="--gs:13" d="M488,641 Q511.13,670.58 487.34,717.21 Q463.55,763.84 438.44,780.88 Q413.33,797.92 368.73,805.96 Q368.73,805.96 324.13,814"/><text class="g14" style="--gs:14" x="413" y="708">⑭</text><path class="g14 aligned" style="--gs:14" d="M413,708 Q711,911 732.63,912.13 Q862.38,918.88 884,920"/><path class="g14 offset" style="--gs:14" d="M498.68,639.46 Q742.47,816.17 760.16,817.14 Q866.31,823.02 884,824"/><text class="g15" style="--gs:15" x="705" y="474">⑮</text><path class="g15 aligned" style="--gs:15" d="M705,474 Q798,531 801.25,536 Q820.75,566 824,571"/><path class="g15 offset" style="--gs:15" d="M790.68,405.46 Q883.68,462.46 886.93,467.46 Q906.43,497.46 909.68,502.46"/></g>
</svg>
