<!--
  Stroke-order data for 鴨, derived from AnimCJK (https://github.com/parsimonhi/animCJK),
  itself derived from the Arphic PL KaitiM fonts. Distributed under the Arphic Public License
  (see ARPHICPL.TXT). Regenerated by scripts/build-strokes.ts — do not edit by hand.
-->
<svg id="z40232" class="acjk" viewBox="0 0 1024 1024" xmlns="http://www.w3.org/2000/svg">
<g class="glyph"><path id="z40232d1" d="M147 281C140 277 126 275 109 272C100 270 98 270 95 274C91 278 91 284 97 295C119 344 138 409 149 492C152 515 158 536 173 553C193 577 195 556 198 533C198 525 198 516 197 509C185 442 169 376 161 309C159 299 157 285 147 281Z"/><path id="z40232d2" d="M348 511C358 523 368 532 377 538C383 542 391 538 399 525C409 505 421 441 440 335C443 316 452 299 466 285C473 276 473 269 467 262C457 252 440 239 414 226C403 220 217 262 147 281C137 283 151 313 161 309C185 300 210 294 232 290C263 283 263 283 279 280C338 267 371 261 383 269C393 276 398 288 396 304C380 412 367 471 358 481C353 490 342 503 348 511Z"/><path id="z40232d3" d="M297 398C311 394 327 391 338 389C349 385 354 379 349 374C334 360 318 358 299 363C283 366 268 371 254 377C235 384 220 391 205 397C196 400 195 409 209 412C217 413 229 413 254 408C283 401 283 401 297 398Z"/><path id="z40232d4" d="M295 519C313 516 330 512 348 511C359 511 368 485 358 481C342 475 321 477 295 484C267 491 267 491 253 495C232 500 213 504 197 509C190 512 190 535 198 533C207 532 236 527 253 525C281 521 281 521 295 519Z"/><path id="z40232d5" d="M253 525C253 596 250 655 251 706C251 806 255 864 263 878C265 881 269 883 274 881C278 879 282 873 285 865C291 841 296 757 296 615C296 587 295 556 295 519C295 496 295 496 295 484C295 457 295 428 297 398C298 375 298 375 299 363C302 304 320 294 279 280C264 274 224 276 232 290C250 317 254 349 254 377C254 398 254 398 254 408C254 434 253 463 253 495C253 515 253 515 253 525Z"/><path id="z40232d6" d="M601 225C645 177 694 115 714 101C726 91 727 80 718 72C706 62 691 56 673 52C655 47 644 47 636 51C627 54 626 58 631 67C638 84 621 144 574 233C571 242 595 233 601 225Z"/><path id="z40232d7" d="M567 495C565 472 565 451 565 430C565 411 565 411 565 402C565 384 563 363 563 348C563 333 563 333 563 325C563 289 567 268 574 262C580 255 573 241 565 235C554 226 540 219 525 214C511 209 504 212 499 218C495 221 496 224 502 234C512 251 520 315 523 426C524 507 521 562 516 589C513 601 515 613 526 623C539 633 562 634 568 617C572 603 571 589 571 575C569 553 569 530 569 521C568 504 568 504 567 495Z"/><path id="z40232d8" d="M712 409C716 420 724 431 737 438C744 441 752 439 761 426C769 413 781 371 798 301C802 282 812 265 827 251C835 243 835 234 828 227C819 216 801 203 776 189C765 183 740 189 699 200C677 205 621 218 601 225C583 230 583 230 574 233C570 234 567 234 565 235C556 237 565 266 574 262C670 229 726 216 742 228C749 232 751 242 750 252C743 292 736 323 731 343C727 359 721 379 713 385C707 391 709 402 712 409Z"/><path id="z40232d9" d="M563 348C576 348 607 340 685 328C697 326 701 321 697 314C690 305 680 300 667 299C652 297 618 307 563 325C556 328 555 348 563 348Z"/><path id="z40232d10" d="M565 430C577 424 628 417 712 409C720 408 720 388 713 385C685 370 662 378 565 402C556 404 556 433 565 430Z"/><path id="z40232d11" d="M569 521C578 523 616 513 731 495C745 492 750 486 745 479C738 470 727 463 711 461C690 458 642 470 567 495C559 498 560 521 569 521Z"/><path id="z40232d12" d="M568 617C616 601 650 591 729 580C809 567 856 564 871 579C878 585 875 602 870 632C862 670 859 710 853 751C848 783 838 809 824 829C818 837 806 840 791 838C772 835 755 833 742 830C730 827 726 827 727 833C727 836 729 840 736 846C766 876 787 901 798 924C804 936 812 940 824 934C863 911 888 879 896 837C906 780 915 720 925 658C928 633 937 610 950 591C957 579 958 570 951 563C939 549 921 537 897 522C883 514 868 514 849 523C821 535 793 540 767 545C678 560 636 566 571 575C557 578 555 622 568 617Z"/><path id="z40232d13" d="M420 675C417 707 410 738 402 769C395 792 402 811 419 828C427 835 435 835 445 824C467 795 468 760 458 718C452 698 449 680 440 669C435 662 431 661 428 663C423 665 420 669 420 675Z"/><path id="z40232d14" d="M519 689C531 734 543 761 559 768C565 771 573 770 581 761C585 754 587 743 585 731C581 709 563 688 531 669C526 665 523 668 520 674C517 678 517 681 519 689Z"/><path id="z40232d15" d="M611 673C627 710 642 730 659 735C664 736 673 734 679 724C682 717 682 706 678 694C673 678 652 664 619 651C614 648 611 651 609 657C607 661 607 666 611 673Z"/><path id="z40232d16" d="M721 661C752 705 768 731 776 733C779 734 786 732 790 727C794 720 796 709 796 695C796 677 773 653 727 627C720 622 715 621 712 622C709 622 706 626 706 633C705 639 712 647 721 661Z"/></g>
<defs><clipPath id="z40232c1"><use href="#z40232d1"/></clipPath>
	<clipPath id="z40232c2"><use href="#z40232d2"/></clipPath>
	<clipPath id="z40232c3"><use href="#z40232d3"/></clipPath>
	<clipPath id="z40232c4"><use href="#z40232d4"/></clipPath>
	<clipPath id="z40232c5"><use href="#z40232d5"/></clipPath>
	<clipPath id="z40232c6"><use href="#z40232d6"/></clipPath>
	<clipPath id="z40232c7"><use href="#z40232d7"/></clipPath>
	<clipPath id="z40232c8"><use href="#z40232d8"/></clipPath>
	<clipPath id="z40232c9"><use href="#z40232d9"/></clipPath>
	<clipPath id="z40232c10"><use href="#z40232d10"/></clipPath>
	<clipPath id="z40232c11"><use href="#z40232d11"/></clipPath>
	<clipPath id="z40232c12"><use href="#z40232d12"/></clipPath>
	<clipPath id="z40232c13"><use href="#z40232d13"/></clipPath>
	<clipPath id="z40232c14"><use href="#z40232d14"/></clipPath>
	<clipPath id="z40232c15"><use href="#z40232d15"/></clipPath>
	<clipPath id="z40232c16"><use href="#z40232d16"/></clipPath><marker id="guide-arrow" viewBox="0 0 16 16" refX="5" refY="5" markerWidth="4" markerHeight="4" orient="auto-start-reverse"><path d="M 0 0 L 10 5 L 0 10 z" fill="inherit"/></marker></defs>
<g class="strokes"><path pathLength="3333" clip-path="url(#z40232c1)" d="M99 275L135 314L185 558"/><path pathLength="3333" clip-path="url(#z40232c2)" d="M149 290L358 249L422 265L369 531"/><path pathLength="3333" clip-path="url(#z40232c3)" d="M206 403L346 374"/><path pathLength="3333" clip-path="url(#z40232c4)" d="M195 523L356 488"/><path pathLength="3333" clip-path="url(#z40232c5)" d="M238 285L277 328L272 877"/><path pathLength="3333" clip-path="url(#z40232c6)" d="M635 57L675 95L582 231"/><path pathLength="3333" clip-path="url(#z40232c7)" d="M504 222L543 258L536 626"/><path pathLength="3333" clip-path="url(#z40232c8)" d="M567 245L731 207L785 229L729 431"/><path pathLength="3333" clip-path="url(#z40232c9)" d="M565 339L693 314"/><path pathLength="3333" clip-path="url(#z40232c10)" d="M564 422L714 396"/><path pathLength="3333" clip-path="url(#z40232c11)" d="M564 509L739 481"/><path pathLength="3333" clip-path="url(#z40232c12)" d="M564 609L852 545L910 571L851 855L809 887L733 836"/><path pathLength="3333" clip-path="url(#z40232c13)" d="M429 668L420 825"/><path pathLength="3333" clip-path="url(#z40232c14)" d="M526 677L574 762"/><path pathLength="3333" clip-path="url(#z40232c15)" d="M616 656L670 729"/><path pathLength="3333" clip-path="url(#z40232c16)" d="M714 630L781 728"/></g>
<g class="guides"><text class="g1" style="--gs:1" x="99" y="275">①</text><path class="g1 aligned" style="--gs:1" d="M99,275 Q135,314 141.25,344.5 Q178.75,527.5 185,558"/><path class="g1 offset" style="--gs:1" d="M184.68,206.46 Q220.68,245.46 226.93,275.96 Q264.43,458.96 270.68,489.46"/><text class="g2" style="--gs:2" x="149" y="290">②</text><path class="g2 aligned" style="--gs:2" d="M149,290 Q358,249 374,253 Q422,265 408.75,331.5 Q382.25,464.5 369,531"/><path class="g2 offset" style="--gs:2" d="M149,386 Q266.13,345 275.1,349 Q302,361 294.57,403.5 Q279.72,488.5 272.3,531"/><text class="g3" style="--gs:3" x="206" y="403">③</text><path class="g3 aligned" style="--gs:3" d="M206,403 L346,374"/><path class="g3 offset" style="--gs:3" d="M206,499 L346,470"/><text class="g4" style="--gs:4" x="195" y="523">④</text><path class="g4 aligned" style="--gs:4" d="M195,523 L356,488"/><path class="g4 offset" style="--gs:4" d="M195,619 L356,584"/><text class="g5" style="--gs:5" x="238" y="285">⑤</text><path class="g5 aligned" style="--gs:5" d="M238,285 Q277,328 276.38,396.63 Q272.63,808.38 272,877"/><path class="g5 offset" style="--gs:5" d="M142,285 Q181,328 180.38,396.63 Q176.63,808.38 176,877"/><text class="g6" style="--gs:6" x="635" y="57">⑥</text><path class="g6 aligned" style="--gs:6" d="M635,57 Q675,95 663.38,112 Q593.63,214 582,231"/><path class="g6 offset" style="--gs:6" d="M539,57 Q559,76 553.19,84.5 Q518.31,135.5 512.5,144"/><text class="g7" style="--gs:7" x="504" y="222">⑦</text><path class="g7 aligned" style="--gs:7" d="M504,222 Q543,258 542.13,304 Q536.88,580 536,626"/><path class="g7 offset" style="--gs:7" d="M408,222 Q447,258 446.13,304 Q440.88,580 440,626"/><text class="g8" style="--gs:8" x="567" y="245">⑧</text><path class="g8 aligned" style="--gs:8" d="M567,245 Q731,207 744.5,212.5 Q785,229 771,279.5 Q743,380.5 729,431"/><path class="g8 offset" style="--gs:8" d="M567,341 Q649,303 655.75,308.5 Q676,325 669,351.5 Q655,404.5 648,431"/><text class="g9" style="--gs:9" x="565" y="339">⑨</text><path class="g9 aligned" style="--gs:9" d="M565,339 L693,314"/><path class="g9 offset" style="--gs:9" d="M565,435 L693,410"/><text class="g10" style="--gs:10" x="564" y="422">⑩</text><path class="g10 aligned" style="--gs:10" d="M564,422 L714,396"/><path class="g10 offset" style="--gs:10" d="M564,518 L714,492"/><text class="g11" style="--gs:11" x="564" y="509">⑪</text><path class="g11 aligned" style="--gs:11" d="M564,509 L739,481"/><path class="g11 offset" style="--gs:11" d="M564,605 L739,577"/><text class="g12" style="--gs:12" x="564" y="609">⑫</text><path class="g12 aligned" style="--gs:12" d="M564,609 Q852,545 881,558 Q910,571 880.5,713 Q851,855 830,871 Q809,887 771,861.5 Q771,861.5 733,836"/><path class="g12 offset" style="--gs:12" d="M564,705 Q772.09,641 793.05,654 Q814,667 792.68,731.5 Q771.37,796 756.2,804 Q741.02,812 713.57,799.25 Q713.57,799.25 686.11,786.5"/><text class="g13" style="--gs:13" x="429" y="668">⑬</text><path class="g13 aligned" style="--gs:13" d="M429,668 L420,825"/><path class="g13 offset" style="--gs:13" d="M549,668 L540,825"/><text class="g14" style="--gs:14" x="526" y="677">⑭</text><path class="g14 aligned" style="--gs:14" d="M526,677 L574,762"/><path class="g14 offset" style="--gs:14" d="M646,677 L694,762"/><text class="g15" style="--gs:15" x="616" y="656">⑮</text><path class="g15 aligned" style="--gs:15" d="M616,656 L670,729"/><path class="g15 offset" style="--gs:15" d="M701.68,587.46 L755.68,660.46"/><text class="g16" style="--gs:16" x="714" y="630">⑯</text><path class="g16 aligned" style="--gs:16" d="M714,630 L781,728"/><path class="g16 offset" style="--gs:16" d="M799.68,561.46 L866.68,659.46"/></g>
</svg>
