<svg id="z40289" class="acjk" viewBox="0 0 1024 1024" xmlns="http://www.w3.org/2000/svg">
<style>

@keyframes zk {
	to {
		stroke-dashoffset:0;
	}
}
svg.acjk path[clip-path] {
	--t:0.8s;
	animation:zk var(--t) linear forwards var(--d);
	stroke-dasharray:3337;
	stroke-dashoffset:3339;
	stroke-width:128;
	stroke-linecap:round;
	fill:none;
	stroke:#000;
}
svg.acjk path[id] {fill:#ccc;}


    @keyframes guide-fade {
        0% { opacity: 0; }
        3% { opacity: 1; }
        95% { opacity: 1; }
        100% { opacity: 0; }
    }

    svg.acjk #guide-arrow {
        fill: #f77;
    }

    svg.acjk .guides {
        circle {
            fill: #0f6;
        }

        path {
            opacity: 0;
            animation: guide-fade var(--t) linear forwards var(--d);
            stroke-width: 16px;
            stroke-linecap: round;
            stroke: #f77;
            fill: none;
            marker-end: url(#guide-arrow);
        }

        circle,
        path {
            --t: 0.8s;
            opacity: 0;
            animation: guide-fade calc(var(--t) + 0.4s) ease-in-out forwards calc(var(--d) - 0.2s);
        }
    }
</style>
<path id="z40289d1" d="M147 293C128 298 126 305 141 312C160 320 190 318 228 307C244 301 262 295 282 290C290 287 296 285 298 283C302 278 303 273 300 269C295 262 285 258 269 258C260 257 234 265 190 281C176 285 161 288 147 293Z"/>
<path id="z40289d2" d="M377 384C407 377 436 371 463 367C490 362 483 352 460 340C443 331 415 333 374 346C351 353 351 353 340 356C247 383 153 398 82 413C67 415 66 421 78 430C92 440 114 445 142 439C160 434 180 428 202 423C224 418 224 418 235 415C267 407 303 399 343 391C366 386 366 386 377 384Z"/>
<path id="z40289d3" d="M202 423C220 461 218 577 222 646C222 659 259 643 259 630C259 593 259 559 260 528C260 511 260 511 260 502C257 436 274 442 235 415C226 408 198 412 202 423Z"/>
<path id="z40289d4" d="M326 509Q342 502 334 493Q324 484 304 486Q286 487 260 502C253 506 252 531 260 528C304 515 304 515 326 509Z"/>
<path id="z40289d5" d="M170 668C155 560 163 541 151 531C140 522 124 517 112 514C95 509 87 519 95 532C107 552 124 601 141 681C143 691 172 678 170 668Z"/>
<path id="z40289d6" d="M222 646C204 653 186 660 170 668C151 677 151 677 141 681C123 688 101 691 76 693C69 693 65 698 64 707C63 713 66 719 75 724C97 735 113 742 122 745C132 748 144 745 156 737C176 721 233 680 330 620C360 600 349 591 322 601C308 607 287 617 259 630C234 641 234 641 222 646Z"/>
<path id="z40289d7" d="M343 391C353 516 383 614 448 682C476 711 498 726 515 727C525 727 529 718 528 702C525 677 527 629 529 557C529 530 518 532 512 555C506 573 497 588 492 604C481 633 464 626 451 609C406 551 384 478 377 384C375 359 375 359 374 346C369 292 369 197 386 150C392 130 385 114 360 99C343 89 329 85 319 88C308 90 302 97 309 106C327 131 336 150 336 167C333 239 337 328 340 356C342 379 342 379 343 391Z"/>
<path id="z40289d8" d="M435 230C448 243 460 259 474 276C480 284 488 289 498 290C504 290 509 286 513 279C516 270 517 257 514 240C510 223 483 206 435 188C426 184 419 183 416 185C412 186 410 192 411 200C411 206 421 216 435 230Z"/>
<path id="z40289d9" d="M626 243C685 182 720 129 751 107C762 98 764 88 755 80C745 70 731 64 714 60C697 55 686 54 680 57C673 59 672 64 675 72C682 89 660 148 606 243C604 246 624 246 626 243Z"/>
<path id="z40289d10" d="M609 406C609 386 609 367 611 352C612 337 612 337 613 330C614 310 618 288 626 272C630 261 615 250 606 243C600 238 591 232 583 230C563 224 553 229 561 248C583 307 575 359 574 418C574 481 572 553 561 606C558 618 561 629 568 641C580 662 598 666 608 637C611 624 610 609 610 596C608 563 609 540 609 520C609 505 609 505 609 498C609 453 609 453 609 431C609 414 609 414 609 406Z"/>
<path id="z40289d11" d="M760 411C765 442 780 444 798 416C803 406 813 382 825 342C833 311 849 288 870 271C881 261 881 251 872 243C861 233 841 221 812 206C805 202 783 205 747 213C695 223 653 236 626 243C614 245 606 243 606 243C594 241 615 276 626 272C678 253 719 242 747 238C823 227 778 344 762 389C759 396 759 404 760 411Z"/>
<path id="z40289d12" d="M611 352C650 347 692 340 729 335C741 333 745 328 741 322C735 313 725 308 713 307C691 304 657 312 613 330C606 333 604 353 611 352Z"/>
<path id="z40289d13" d="M609 431C631 431 653 424 760 411C767 410 768 393 762 389C732 366 725 388 609 406C601 407 601 431 609 431Z"/>
<path id="z40289d14" d="M609 520C635 524 680 520 746 509C758 506 771 505 783 500C788 497 788 491 786 488C783 483 775 474 761 474C730 472 664 492 609 498C602 499 602 519 609 520Z"/>
<path id="z40289d15" d="M608 637C651 623 767 600 840 590C880 584 887 605 884 634C882 661 875 704 866 762C861 790 853 814 840 833C835 839 826 843 814 841C797 837 781 831 765 827C744 821 742 826 758 842C787 873 804 901 813 923C818 936 825 939 839 934C855 926 871 919 883 907C904 883 919 805 937 678C940 653 948 630 962 611C969 599 970 591 963 583C950 570 933 556 909 543C895 534 879 535 861 544C830 557 735 585 610 596C597 598 595 640 608 637Z"/>
<path id="z40289d16" d="M554 711C538 741 522 770 503 798C491 814 489 834 498 856C502 866 511 869 523 862C554 840 568 806 574 763C576 744 579 727 575 712C573 706 569 704 565 704C560 704 556 706 554 711Z"/>
<path id="z40289d17" d="M620 704C626 748 634 772 643 779C647 782 654 782 661 776C665 771 667 764 668 754C668 744 664 734 657 724C645 707 638 696 632 690C629 687 626 688 623 692C620 694 619 698 620 704Z"/>
<path id="z40289d18" d="M699 685C711 721 721 740 731 745C735 747 742 746 748 739C751 734 752 726 751 716C749 707 743 700 736 693C723 680 714 672 709 669C704 666 702 667 700 672C697 675 697 679 699 685Z"/>
<path id="z40289d19" d="M785 677C800 710 810 728 817 731C821 732 826 731 830 727C834 722 836 713 838 700C838 691 834 682 825 673C802 652 787 641 780 642C777 642 774 645 774 651C773 655 778 663 785 677Z"/>
<defs>
	<clipPath id="z40289c1"><use href="#z40289d1"/></clipPath>
	<clipPath id="z40289c2"><use href="#z40289d2"/></clipPath>
	<clipPath id="z40289c3"><use href="#z40289d3"/></clipPath>
	<clipPath id="z40289c4"><use href="#z40289d4"/></clipPath>
	<clipPath id="z40289c5"><use href="#z40289d5"/></clipPath>
	<clipPath id="z40289c6"><use href="#z40289d6"/></clipPath>
	<clipPath id="z40289c7"><use href="#z40289d7"/></clipPath>
	<clipPath id="z40289c8"><use href="#z40289d8"/></clipPath>
	<clipPath id="z40289c9"><use href="#z40289d9"/></clipPath>
	<clipPath id="z40289c10"><use href="#z40289d10"/></clipPath>
	<clipPath id="z40289c11"><use href="#z40289d11"/></clipPath>
	<clipPath id="z40289c12"><use href="#z40289d12"/></clipPath>
	<clipPath id="z40289c13"><use href="#z40289d13"/></clipPath>
	<clipPath id="z40289c14"><use href="#z40289d14"/></clipPath>
	<clipPath id="z40289c15"><use href="#z40289d15"/></clipPath>
	<clipPath id="z40289c16"><use href="#z40289d16"/></clipPath>
	<clipPath id="z40289c17"><use href="#z40289d17"/></clipPath>
	<clipPath id="z40289c18"><use href="#z40289d18"/></clipPath>
	<clipPath id="z40289c19"><use href="#z40289d19"/></clipPath>
<marker id="guide-arrow" viewBox="0 0 16 16" refX="5" refY="5" markerWidth="4" markerHeight="4" orient="auto-start-reverse"><path d="M 0 0 L 10 5 L 0 10 z" fill="inherit"/></marker></defs>
<path style="--d:1s;" pathLength="3333" clip-path="url(#z40289c1)" d="M135 303L298 271"/>
<path style="--d:2s;" pathLength="3333" clip-path="url(#z40289c2)" d="M79 421L470 356"/>
<path style="--d:3s;" pathLength="3333" clip-path="url(#z40289c3)" d="M209 421L236 456L237 647"/>
<path style="--d:4s;" pathLength="3333" clip-path="url(#z40289c4)" d="M260 520L331 499"/>
<path style="--d:5s;" pathLength="3333" clip-path="url(#z40289c5)" d="M102 523L132 549L153 681"/>
<path style="--d:6s;" pathLength="3333" clip-path="url(#z40289c6)" d="M67 706L141 712L340 602"/>
<path style="--d:7s;" pathLength="3333" clip-path="url(#z40289c7)" d="M313 94L359 138L362 416L407 582L454 649L502 674L523 547"/>
<path style="--d:8s;" pathLength="3333" clip-path="url(#z40289c8)" d="M419 194L504 283"/>
<path style="--d:9s;" pathLength="3333" clip-path="url(#z40289c9)" d="M679 60L716 98L614 238"/>
<path style="--d:10s;" pathLength="3333" clip-path="url(#z40289c10)" d="M566 236L598 280L589 653"/>
<path style="--d:11s;" pathLength="3333" clip-path="url(#z40289c11)" d="M610 249L773 223L827 251L773 429"/>
<path style="--d:12s;" pathLength="3333" clip-path="url(#z40289c12)" d="M609 344L736 326"/>
<path style="--d:13s;" pathLength="3333" clip-path="url(#z40289c13)" d="M610 421L762 396"/>
<path style="--d:14s;" pathLength="3333" clip-path="url(#z40289c14)" d="M608 510L780 487"/>
<path style="--d:15s;" pathLength="3333" clip-path="url(#z40289c15)" d="M603 627L871 564L925 600L860 869L818 886L757 829"/>
<path style="--d:16s;" pathLength="3333" clip-path="url(#z40289c16)" d="M565 708L511 861"/>
<path style="--d:17s;" pathLength="3333" clip-path="url(#z40289c17)" d="M627 694L650 777"/>
<path style="--d:18s;" pathLength="3333" clip-path="url(#z40289c18)" d="M705 676L739 740"/>
<path style="--d:19s;" pathLength="3333" clip-path="url(#z40289c19)" d="M783 650L820 727"/>
<g class="guides"><circle style="--d: 1s" class="g1" cx="135" cy="303" r="16"/><path style="--d: 1s;" class="g1" d="M135,399 L298,367"/><circle style="--d: 2s" class="g2" cx="79" cy="421" r="16"/><path style="--d: 2s;" class="g2" d="M79,517 L470,452"/><circle style="--d: 3s" class="g3" cx="209" cy="421" r="16"/><path style="--d: 3s;" class="g3" d="M294.68,352.456 Q321.68,387.456 321.805,411.331 Q322.555,554.581 322.68,578.456"/><circle style="--d: 4s" class="g4" cx="260" cy="520" r="16"/><path style="--d: 4s;" class="g4" d="M260,616 L331,595"/><circle style="--d: 5s" class="g5" cx="117" cy="536" r="16"/><path style="--d: 5s;" class="g5" d="M237,536 L273,681"/><circle style="--d: 6s" class="g6" cx="67" cy="706" r="16"/><path style="--d: 6s;" class="g6" d="M67,802 Q141,808 165.875,794.25 Q315.125,711.75 340,698"/><circle style="--d: 7s" class="g7" cx="313" cy="94" r="16"/><path style="--d: 7s;" class="g7" d="M381.544,25.456000000000003 Q404.544,69.456 405.294,208.45600000000002 Q406.044,347.456 417.294,430.456 Q428.544,513.456 440.294,546.956 Q452.044,580.456 464.044,592.956 Q476.044,605.456 481.294,541.956 Q481.294,541.956 486.544,478.456"/><circle style="--d: 8s" class="g8" cx="419" cy="194" r="16"/><path style="--d: 8s;" class="g8" d="M504.68,125.456 L589.68,214.45600000000002"/><circle style="--d: 9s" class="g9" cx="679" cy="60" r="16"/><path style="--d: 9s;" class="g9" d="M583,60 Q601.5,79 595.125,87.75 Q556.875,140.25 550.5,149"/><circle style="--d: 10s" class="g10" cx="566" cy="236" r="16"/><path style="--d: 10s;" class="g10" d="M470,236 Q502,280 500.875,326.625 Q494.125,606.375 493,653"/><circle style="--d: 11s" class="g11" cx="610" cy="249" r="16"/><path style="--d: 11s;" class="g11" d="M610,345 Q691.5,319 698.25,322.7378640776699 Q718.5,333.95145631067965 711.75,357.71359223300976 Q698.25,405.2378640776699 691.5,429"/><circle style="--d: 12s" class="g12" cx="609" cy="344" r="16"/><path style="--d: 12s;" class="g12" d="M609,440 L736,422"/><circle style="--d: 13s" class="g13" cx="610" cy="421" r="16"/><path style="--d: 13s;" class="g13" d="M610,517 L762,492"/><circle style="--d: 14s" class="g14" cx="608" cy="510" r="16"/><path style="--d: 14s;" class="g14" d="M608,606 L780,583"/><circle style="--d: 15s" class="g15" cx="603" cy="627" r="16"/><path style="--d: 15s;" class="g15" d="M603,723 Q791.0993788819876,660 810.0496894409938,678 Q829,696 806.1894409937888,754.25 Q783.3788819875776,812.5 768.639751552795,816.75 Q753.9006211180124,821 732.4937888198758,806.75 Q732.4937888198758,806.75 711.0869565217391,792.5"/><circle style="--d: 16s" class="g16" cx="565" cy="708" r="16"/><path style="--d: 16s;" class="g16" d="M685,708 L631,861"/><circle style="--d: 17s" class="g17" cx="627" cy="694" r="16"/><path style="--d: 17s;" class="g17" d="M747,694 L770,777"/><circle style="--d: 18s" class="g18" cx="705" cy="676" r="16"/><path style="--d: 18s;" class="g18" d="M825,676 L859,740"/><circle style="--d: 19s" class="g19" cx="783" cy="650" r="16"/><path style="--d: 19s;" class="g19" d="M903,650 L940,727"/></g></svg>