<svg id="z40634" class="acjk" viewBox="0 0 1024 1024" xmlns="http://www.w3.org/2000/svg">
<style>

@keyframes zk {
	to {
		stroke-dashoffset:0;
	}
}
svg.acjk path[clip-path] {
	--t:0.8s;
	animation:zk var(--t) linear forwards var(--d);
	stroke-dasharray:3337;
	stroke-dashoffset:3339;
	stroke-width:128;
	stroke-linecap:round;
	fill:none;
	stroke:#000;
}
svg.acjk path[id] {fill:#ccc;}


    @keyframes guide-fade {
        0% { opacity: 0; }
        3% { opacity: 1; }
        95% { opacity: 1; }
        100% { opacity: 0; }
    }

    svg.acjk #guide-arrow {
        fill: #f77;
    }

    svg.acjk .guides {
        circle {
            fill: #0f6;
        }

        path {
            opacity: 0;
            animation: guide-fade var(--t) linear forwards var(--d);
            stroke-width: 16px;
            stroke-linecap: round;
            stroke: #f77;
            fill: none;
            marker-end: url(#guide-arrow);
        }

        circle,
        path {
            --t: 0.8s;
            opacity: 0;
            animation: guide-fade calc(var(--t) + 0.4s) ease-in-out forwards calc(var(--d) - 0.2s);
        }
    }
</style>
<path id="z40634d1" d="M384 280C462 266 490 254 492 254C497 249 499 244 496 239C492 232 481 224 464 220C444 214 426 225 387 234C352 242 352 242 334 246C286 256 234 259 195 263C172 265 168 273 185 283C236 314 280 297 336 288C368 283 368 283 384 280Z"/>
<path id="z40634d2" d="M373 452C373 430 375 408 377 388C379 359 379 359 380 344C381 322 382 300 384 280C386 249 386 249 387 234C388 216 391 184 404 139C405 132 402 122 389 114C367 100 347 95 333 93C322 91 314 91 310 97C305 101 304 109 311 119C338 158 334 204 335 245C336 274 336 274 336 288C336 310 336 331 336 354C335 382 335 382 335 396C334 416 333 438 333 462C333 476 373 466 373 452Z"/>
<path id="z40634d3" d="M377 388C400 385 421 383 464 372C469 370 471 367 472 364C472 358 465 351 452 344C431 334 414 334 380 344C351 351 351 351 336 354C314 358 283 364 264 367C247 369 230 372 213 374C196 377 194 383 208 393C228 407 244 414 268 408C290 404 315 399 335 396C363 391 363 391 377 388Z"/>
<path id="z40634d4" d="M323 506C335 503 352 498 447 491C482 488 495 475 463 453C441 438 421 439 373 452C346 459 346 459 333 462C298 470 166 492 105 495C85 495 84 504 98 516C116 533 136 541 159 536C195 528 236 521 283 513C310 508 310 508 323 506Z"/>
<path id="z40634d5" d="M313 587C355 541 365 544 323 506C313 496 286 500 283 513C279 567 199 655 137 709C114 727 125 734 151 723C168 716 191 700 220 677C227 670 234 664 242 657C258 641 278 624 298 603C308 592 308 592 313 587Z"/>
<path id="z40634d6" d="M379 737C441 659 472 620 473 620C481 614 484 607 481 600C478 593 461 581 430 564C423 560 412 561 398 567C380 573 351 580 313 587C306 588 292 599 298 603C304 609 317 612 336 609C374 601 396 597 397 603C400 623 380 660 341 713C324 734 324 734 315 744C241 818 169 877 102 915C74 930 92 930 120 925C179 915 261 856 352 767C370 747 370 747 379 737Z"/>
<path id="z40634d7" d="M352 767C555 893 672 944 718 936C787 922 844 898 892 882C910 875 920 868 924 861C926 854 922 852 912 852C849 850 798 854 761 852C599 839 447 780 379 737C354 721 354 721 341 713C312 694 272 675 242 657C234 652 212 671 220 677C255 699 278 721 315 744C340 759 340 759 352 767Z"/>
<path id="z40634d8" d="M721 254Q869 215 871 214Q880 207 875 199Q868 189 841 182Q817 178 728 209Q653 228 583 238Q550 244 574 259Q616 278 674 265C705 258 705 258 721 254Z"/>
<path id="z40634d9" d="M646 432Q650 425 658 416Q682 385 707 346Q717 328 738 306Q754 296 746 284Q739 271 721 254C708 244 674 249 674 265Q677 295 620 412Q611 427 608 440C604 452 638 442 646 432Z"/>
<path id="z40634d10" d="M540 455Q530 449 503 443Q493 439 489 444Q483 448 490 464Q520 546 530 675Q531 714 550 741Q565 762 570 748Q573 741 575 730C576 711 576 711 576 702Q576 684 573 662Q554 527 550 485C548 475 549 460 540 455Z"/>
<path id="z40634d11" d="M805 723Q812 748 822 760Q829 769 836 768Q845 767 854 751Q881 712 904 542Q910 494 923 472Q932 462 929 455Q929 443 900 420Q863 387 835 400Q822 401 782 409Q722 415 646 432C621 437 621 437 608 440Q587 441 540 455C530 459 541 490 550 485Q554 479 601 469C620 465 620 465 630 463Q678 448 731 444C752 441 752 441 763 439Q838 429 847 439Q857 446 857 467Q858 518 842 608Q832 680 824 689Q824 690 822 693C818 702 794 703 799 711C803 719 803 719 805 723Z"/>
<path id="z40634d12" d="M659 688Q658 657 658 628C657 610 657 610 657 601Q656 573 656 547C656 528 656 528 656 519Q656 483 654 480Q641 470 630 463C622 458 597 460 601 469Q613 491 627 694C627 705 659 699 659 688Z"/>
<path id="z40634d13" d="M775 673Q790 463 790 462C789 461 789 461 789 461Q776 448 763 439C755 432 725 435 731 444Q746 471 743 516C743 529 743 529 743 535Q742 556 741 589C741 608 741 608 741 618Q740 643 739 675C739 687 775 685 775 673Z"/>
<path id="z40634d14" d="M656 547Q702 540 737 536Q738 535 743 535C749 534 748 519 743 516Q734 509 719 507Q698 506 656 519C647 522 647 549 656 547Z"/>
<path id="z40634d15" d="M658 628Q703 619 741 618C751 618 750 591 741 589Q737 588 731 586Q688 583 657 601C649 606 649 630 658 628Z"/>
<path id="z40634d16" d="M575 730Q579 730 588 730Q709 717 799 711C809 711 828 701 822 693Q813 680 792 674Q785 673 775 673C751 674 751 674 739 675Q735 675 730 676Q693 682 659 688C638 692 638 692 627 694Q600 697 576 702C567 704 566 730 575 730Z"/>
<defs>
	<clipPath id="z40634c1"><use href="#z40634d1"/></clipPath>
	<clipPath id="z40634c2"><use href="#z40634d2"/></clipPath>
	<clipPath id="z40634c3"><use href="#z40634d3"/></clipPath>
	<clipPath id="z40634c4"><use href="#z40634d4"/></clipPath>
	<clipPath id="z40634c5"><use href="#z40634d5"/></clipPath>
	<clipPath id="z40634c6"><use href="#z40634d6"/></clipPath>
	<clipPath id="z40634c7"><use href="#z40634d7"/></clipPath>
	<clipPath id="z40634c8"><use href="#z40634d8"/></clipPath>
	<clipPath id="z40634c9"><use href="#z40634d9"/></clipPath>
	<clipPath id="z40634c10"><use href="#z40634d10"/></clipPath>
	<clipPath id="z40634c11"><use href="#z40634d11"/></clipPath>
	<clipPath id="z40634c12"><use href="#z40634d12"/></clipPath>
	<clipPath id="z40634c13"><use href="#z40634d13"/></clipPath>
	<clipPath id="z40634c14"><use href="#z40634d14"/></clipPath>
	<clipPath id="z40634c15"><use href="#z40634d15"/></clipPath>
	<clipPath id="z40634c16"><use href="#z40634d16"/></clipPath>
<marker id="guide-arrow" viewBox="0 0 16 16" refX="5" refY="5" markerWidth="4" markerHeight="4" orient="auto-start-reverse"><path d="M 0 0 L 10 5 L 0 10 z" fill="inherit"/></marker></defs>
<path style="--d:1s;" pathLength="3333" clip-path="url(#z40634c1)" d="M184 273L268 278L490 239"/>
<path style="--d:2s;" pathLength="3333" clip-path="url(#z40634c2)" d="M311 102L366 148L349 465"/>
<path style="--d:3s;" pathLength="3333" clip-path="url(#z40634c3)" d="M206 381L466 363"/>
<path style="--d:4s;" pathLength="3333" clip-path="url(#z40634c4)" d="M96 502L148 514L476 473"/>
<path style="--d:5s;" pathLength="3333" clip-path="url(#z40634c5)" d="M296 504L313 537L281 585L132 722"/>
<path style="--d:6s;" pathLength="3333" clip-path="url(#z40634c6)" d="M303 598L412 582L436 617L284 803L98 923"/>
<path style="--d:7s;" pathLength="3333" clip-path="url(#z40634c7)" d="M223 671L452 801L646 879L723 892L917 859"/>
<path style="--d:8s;" pathLength="3333" clip-path="url(#z40634c8)" d="M571 246L871 201"/>
<path style="--d:9s;" pathLength="3333" clip-path="url(#z40634c9)" d="M683 261L707 299L618 440"/>
<path style="--d:10s;" pathLength="3333" clip-path="url(#z40634c10)" d="M494 449L522 476L564 747"/>
<path style="--d:11s;" pathLength="3333" clip-path="url(#z40634c11)" d="M539 467L827 417L875 431L893 463L825 760"/>
<path style="--d:12s;" pathLength="3333" clip-path="url(#z40634c12)" d="M607 468L633 503L637 696"/>
<path style="--d:13s;" pathLength="3333" clip-path="url(#z40634c13)" d="M738 444L766 473L756 680"/>
<path style="--d:14s;" pathLength="3333" clip-path="url(#z40634c14)" d="M653 537L743 524"/>
<path style="--d:15s;" pathLength="3333" clip-path="url(#z40634c15)" d="M653 616L742 608"/>
<path style="--d:16s;" pathLength="3333" clip-path="url(#z40634c16)" d="M573 719L814 694"/>
<g class="guides"><circle style="--d: 1s" class="g1" cx="184" cy="273" r="16"/><path style="--d: 1s;" class="g1" d="M184,369 Q268,374 295.75,369.125 Q462.25,339.875 490,335"/><circle style="--d: 2s" class="g2" cx="311" cy="102" r="16"/><path style="--d: 2s;" class="g2" d="M215,102 Q270,148 267.875,187.625 Q255.125,425.375 253,465"/><circle style="--d: 3s" class="g3" cx="206" cy="381" r="16"/><path style="--d: 3s;" class="g3" d="M206,477 L466,459"/><circle style="--d: 4s" class="g4" cx="96" cy="502" r="16"/><path style="--d: 4s;" class="g4" d="M96,598 Q148,610 189,604.875 Q435,574.125 476,569"/><circle style="--d: 5s" class="g5" cx="305" cy="521" r="16"/><path style="--d: 5s;" class="g5" d="M209,521 Q197,554.4328358208955 187.6875,563.3787313432836 Q131.8125,617.054104477612 122.5,626"/><circle style="--d: 6s" class="g6" cx="303" cy="598" r="16"/><path style="--d: 6s;" class="g6" d="M207,694 Q261.5,686 267.5,694.75 Q273.5,703.5 235.5,750 Q197.5,796.5 151,826.5 Q151,826.5 104.5,856.5"/><circle style="--d: 7s" class="g7" cx="223" cy="671" r="16"/><path style="--d: 7s;" class="g7" d="M223,767 Q452,897 549,936 Q646,975 684.5,981.5 Q723,988 820,971.5 Q820,971.5 917,955"/><circle style="--d: 8s" class="g8" cx="571" cy="246" r="16"/><path style="--d: 8s;" class="g8" d="M571,342 L871,297"/><circle style="--d: 9s" class="g9" cx="683" cy="261" r="16"/><path style="--d: 9s;" class="g9" d="M587,261 Q599,280 593.4375,288.8125 Q560.0625,341.6875 554.5,350.5"/><circle style="--d: 10s" class="g10" cx="508" cy="463" r="16"/><path style="--d: 10s;" class="g10" d="M628,463 L684,747"/><circle style="--d: 11s" class="g11" cx="539" cy="467" r="16"/><path style="--d: 11s;" class="g11" d="M539,563 Q729.3728813559322,513 745.2372881355932,520 Q761.1016949152543,527 767.0508474576271,543 Q773,559 750.5254237288136,659.5 Q750.5254237288136,659.5 728.0508474576271,760"/><circle style="--d: 12s" class="g12" cx="607" cy="468" r="16"/><path style="--d: 12s;" class="g12" d="M692.68,399.456 Q718.68,434.456 719.18,458.581 Q722.18,603.331 722.68,627.456"/><circle style="--d: 13s" class="g13" cx="752" cy="459" r="16"/><path style="--d: 13s;" class="g13" d="M872,459 L876,680"/><circle style="--d: 14s" class="g14" cx="653" cy="537" r="16"/><path style="--d: 14s;" class="g14" d="M653,633 L743,620"/><circle style="--d: 15s" class="g15" cx="653" cy="616" r="16"/><path style="--d: 15s;" class="g15" d="M653,712 L742,704"/><circle style="--d: 16s" class="g16" cx="573" cy="719" r="16"/><path style="--d: 16s;" class="g16" d="M573,815 L814,790"/></g></svg>