<!--
  Stroke-order data for 黄, derived from AnimCJK (https://github.com/parsimonhi/animCJK),
  itself derived from the Arphic PL KaitiM fonts. Distributed under the Arphic Public License
  (see ARPHICPL.TXT). Regenerated by scripts/build-strokes.ts — do not edit by hand.
-->
<svg id="z40644" class="acjk" viewBox="0 0 1024 1024" xmlns="http://www.w3.org/2000/svg">
<g class="glyph"><path id="z40644d1" d="M644 245C666 242 732 235 754 234C762 233 771 233 775 223C777 215 767 207 754 199C728 184 697 184 656 193C613 202 613 202 591 207C576 210 470 229 434 233C400 236 400 236 383 238C346 241 308 242 270 246C249 247 246 254 262 268C284 286 305 296 325 292C344 287 366 283 389 280C420 275 420 275 435 272C481 264 530 256 585 251C624 247 624 247 644 245Z"/><path id="z40644d2" d="M434 233C433 203 435 186 436 178C437 163 433 150 424 144C408 131 390 124 373 119C363 116 356 115 350 120C344 123 344 131 350 142C363 165 377 196 383 238C387 266 387 266 389 280C393 309 396 352 404 405C407 418 444 413 444 400C440 349 435 305 435 272C434 246 434 246 434 233Z"/><path id="z40644d3" d="M609 380C621 333 634 288 644 245C652 210 652 210 656 193C661 170 672 144 682 128C685 121 682 110 670 99C649 81 629 72 615 67C603 62 596 63 590 68C584 72 582 78 587 90C604 127 595 171 591 207C587 236 587 236 585 251C579 293 572 338 564 386C561 401 606 395 609 380Z"/><path id="z40644d4" d="M500 432C568 424 684 423 898 423C912 423 923 420 927 414C931 405 927 393 915 384C877 352 841 341 812 347C757 357 689 369 609 380C579 384 579 384 564 386C528 390 478 395 444 400C417 403 417 403 404 405C311 416 213 424 111 435C94 436 91 442 104 457C114 467 125 475 140 480C155 485 170 484 183 481C264 459 423 439 461 436C487 433 487 433 500 432Z"/><path id="z40644d5" d="M327 523C320 519 304 516 280 512C271 510 267 511 265 515C261 519 262 526 268 537C290 580 310 638 323 711C326 732 333 751 347 765C360 778 370 780 374 762C375 753 374 745 373 736C363 686 350 619 338 560C335 547 339 528 327 523Z"/><path id="z40644d6" d="M630 737C632 751 640 763 652 763C662 762 668 756 675 746C682 733 695 699 712 643C723 606 742 577 769 556C782 545 783 534 772 523C759 510 733 495 700 476C689 470 663 473 614 481C570 487 542 489 531 491C495 496 495 496 477 499C458 501 354 519 327 523C314 526 326 565 338 560C364 551 411 543 478 534C512 529 512 529 529 527C609 516 654 516 663 522C669 526 671 540 668 562C653 640 642 688 635 708C631 717 628 727 630 737Z"/><path id="z40644d7" d="M531 491C532 461 547 448 500 432C488 427 456 424 461 436C471 460 476 480 477 499C478 522 478 522 478 534C478 548 479 587 479 603C479 626 479 626 479 637C479 693 479 693 479 721C479 735 521 728 521 714C521 685 522 657 524 631C525 605 525 605 526 592C526 578 528 538 529 527C530 503 530 503 531 491Z"/><path id="z40644d8" d="M524 631C550 627 574 623 598 622C612 620 618 615 613 607C607 597 595 591 579 588C566 585 548 586 526 592C495 599 495 599 479 603C449 609 420 614 395 620C384 622 385 628 398 638C404 642 414 646 428 645C444 642 461 639 479 637C509 633 509 633 524 631Z"/><path id="z40644d9" d="M374 762C386 765 415 756 630 737C640 737 644 712 635 708C609 694 589 702 521 714C493 719 493 719 479 721C441 727 405 730 373 736C364 737 365 760 374 762Z"/><path id="z40644d10" d="M376 795C360 833 299 883 191 941C175 949 175 952 195 954C242 956 312 929 401 871C418 859 431 851 441 845C450 839 454 830 454 825C453 815 444 807 429 798C410 787 398 782 390 782C384 782 379 786 376 795Z"/><path id="z40644d11" d="M599 819C637 849 679 888 727 936C738 948 749 956 761 959C765 960 771 955 777 949C784 939 782 920 773 891C761 854 703 820 598 787C590 784 587 787 587 795C586 803 590 811 599 819Z"/></g>
<defs><clipPath id="z40644c1"><use href="#z40644d1"/></clipPath>
	<clipPath id="z40644c2"><use href="#z40644d2"/></clipPath>
	<clipPath id="z40644c3"><use href="#z40644d3"/></clipPath>
	<clipPath id="z40644c4"><use href="#z40644d4"/></clipPath>
	<clipPath id="z40644c5"><use href="#z40644d5"/></clipPath>
	<clipPath id="z40644c6"><use href="#z40644d6"/></clipPath>
	<clipPath id="z40644c7"><use href="#z40644d7"/></clipPath>
	<clipPath id="z40644c8"><use href="#z40644d8"/></clipPath>
	<clipPath id="z40644c9"><use href="#z40644d9"/></clipPath>
	<clipPath id="z40644c10"><use href="#z40644d10"/></clipPath>
	<clipPath id="z40644c11"><use href="#z40644d11"/></clipPath><marker id="guide-arrow" viewBox="0 0 16 16" refX="5" refY="5" markerWidth="4" markerHeight="4" orient="auto-start-reverse"><path d="M 0 0 L 10 5 L 0 10 z" fill="inherit"/></marker></defs>
<g class="strokes"><path pathLength="3333" clip-path="url(#z40644c1)" d="M259 254L313 268L769 215"/><path pathLength="3333" clip-path="url(#z40644c2)" d="M352 125L401 169L426 410"/><path pathLength="3333" clip-path="url(#z40644c3)" d="M590 71L640 129L572 390"/><path pathLength="3333" clip-path="url(#z40644c4)" d="M104 444L171 456L825 384L924 399"/><path pathLength="3333" clip-path="url(#z40644c5)" d="M270 520L306 543L361 770"/><path pathLength="3333" clip-path="url(#z40644c6)" d="M326 535L637 497L695 508L726 553L645 757"/><path pathLength="3333" clip-path="url(#z40644c7)" d="M468 435L503 464L498 726"/><path pathLength="3333" clip-path="url(#z40644c8)" d="M396 625L610 611"/><path pathLength="3333" clip-path="url(#z40644c9)" d="M373 751L635 725"/><path pathLength="3333" clip-path="url(#z40644c10)" d="M390 787L408 821L391 839L187 947"/><path pathLength="3333" clip-path="url(#z40644c11)" d="M595 794L724 883L762 954"/></g>
<g class="guides"><text class="g1" style="--gs:1" x="259" y="254">①</text><path class="g1 aligned" style="--gs:1" d="M259,254 Q313,268 370,261.38 Q712,221.63 769,215"/><path class="g1 offset" style="--gs:1" d="M259,350 Q313,364 370,357.38 Q712,317.63 769,311"/><text class="g2" style="--gs:2" x="352" y="125">②</text><path class="g2 aligned" style="--gs:2" d="M352,125 Q401,169 404.13,199.13 Q422.88,379.88 426,410"/><path class="g2 offset" style="--gs:2" d="M437.68,56.46 Q486.68,100.46 489.81,130.58 Q508.56,311.33 511.68,341.46"/><text class="g3" style="--gs:3" x="590" y="71">③</text><path class="g3 aligned" style="--gs:3" d="M590,71 Q640,129 631.5,161.63 Q580.5,357.38 572,390"/><path class="g3 offset" style="--gs:3" d="M494,71 Q544,129 535.5,161.63 Q484.5,357.38 476,390"/><text class="g4" style="--gs:4" x="104" y="444">④</text><path class="g4 aligned" style="--gs:4" d="M104,444 Q171,456 334.5,438 Q825,384 849.75,387.75 Q899.25,395.25 924,399"/><path class="g4 offset" style="--gs:4" d="M104,540 Q171,552 334.5,534 Q825,480 849.75,483.75 Q899.25,491.25 924,495"/><text class="g5" style="--gs:5" x="270" y="520">⑤</text><path class="g5 aligned" style="--gs:5" d="M270,520 Q306,543 312.88,571.38 Q354.13,741.63 361,770"/><path class="g5 offset" style="--gs:5" d="M355.68,451.46 Q391.68,474.46 398.56,502.83 Q439.81,673.08 446.68,701.46"/><text class="g6" style="--gs:6" x="326" y="535">⑥</text><path class="g6 aligned" style="--gs:6" d="M326,535 Q637,497 666,502.5 Q695,508 710.5,530.5 Q726,553 685.5,655 Q685.5,655 645,757"/><path class="g6 offset" style="--gs:6" d="M326,631 Q543.7,593 564,598.5 Q584.3,604 595.15,616.16 Q606,628.32 577.65,692.66 Q577.65,692.66 549.3,757"/><text class="g7" style="--gs:7" x="468" y="435">⑦</text><path class="g7 aligned" style="--gs:7" d="M468,435 Q503,464 502.38,496.75 Q498.63,693.25 498,726"/><path class="g7 offset" style="--gs:7" d="M372,435 Q407,464 406.38,496.75 Q402.63,693.25 402,726"/><text class="g8" style="--gs:8" x="396" y="625">⑧</text><path class="g8 aligned" style="--gs:8" d="M396,625 L610,611"/><path class="g8 offset" style="--gs:8" d="M396,721 L610,707"/><text class="g9" style="--gs:9" x="373" y="751">⑨</text><path class="g9 aligned" style="--gs:9" d="M373,751 L635,725"/><path class="g9 offset" style="--gs:9" d="M373,847 L635,821"/><text class="g10" style="--gs:10" x="390" y="787">⑩</text><path class="g10 aligned" style="--gs:10" d="M399,804 Q391,839 365.5,852.5 Q212.5,933.5 187,947"/><path class="g10 offset" style="--gs:10" d="M303,804 Q299,821.5 286.25,828.25 Q209.75,868.75 197,875.5"/><text class="g11" style="--gs:11" x="595" y="794">⑪</text><path class="g11 aligned" style="--gs:11" d="M595,794 Q724,883 728.75,891.88 Q757.25,945.13 762,954"/><path class="g11 offset" style="--gs:11" d="M680.68,725.46 Q809.68,814.46 814.43,823.33 Q842.93,876.58 847.68,885.46"/></g>
</svg>
