<svg id="z40657" class="acjk" viewBox="0 0 1024 1024" xmlns="http://www.w3.org/2000/svg">
<style>

@keyframes zk {
	to {
		stroke-dashoffset:0;
	}
}
svg.acjk path[clip-path] {
	--t:0.8s;
	animation:zk var(--t) linear forwards var(--d);
	stroke-dasharray:3337;
	stroke-dashoffset:3339;
	stroke-width:128;
	stroke-linecap:round;
	fill:none;
	stroke:#000;
}
svg.acjk path[id] {fill:#ccc;}


    @keyframes guide-fade {
        0% { opacity: 0; }
        3% { opacity: 1; }
        95% { opacity: 1; }
        100% { opacity: 0; }
    }

    svg.acjk #guide-arrow {
        fill: #f77;
    }

    svg.acjk .guides {
        circle {
            fill: #0f6;
        }

        path {
            opacity: 0;
            animation: guide-fade var(--t) linear forwards var(--d);
            stroke-width: 16px;
            stroke-linecap: round;
            stroke: #f77;
            fill: none;
            marker-end: url(#guide-arrow);
        }

        circle,
        path {
            --t: 0.8s;
            opacity: 0;
            animation: guide-fade calc(var(--t) + 0.4s) ease-in-out forwards calc(var(--d) - 0.2s);
        }
    }
</style>
<path id="z40657d1" d="M277 153Q264 150 246 148Q233 145 229 151Q222 158 233 175Q272 251 298 375Q302 412 326 436Q347 460 351 442Q352 435 354 426C353 405 353 405 353 394Q352 378 347 360Q317 233 309 193C306 176 294 156 277 153Z"/>
<path id="z40657d2" d="M643 396Q643 399 645 402Q649 420 664 419Q680 418 689 402Q705 383 735 283Q756 225 798 194Q820 176 803 158Q784 139 728 107Q713 97 639 110Q537 119 414 138Q291 156 277 153C260 153 292 193 309 193Q313 193 318 192Q370 179 457 167C493 162 493 162 511 160Q661 139 689 154Q701 161 693 199Q662 337 648 364Q645 370 643 376C641 382 642 389 643 396Z"/>
<path id="z40657d3" d="M366 272Q391 317 414 331Q424 335 432 327Q439 318 439 306Q436 276 395 255Q371 240 362 242Q358 242 357 252Q357 259 366 272Z"/>
<path id="z40657d4" d="M593 238Q583 263 558 305Q554 312 559 317Q566 318 572 313Q629 267 657 248Q672 242 667 233Q660 220 642 207Q624 194 605 194Q592 195 595 212Q599 224 593 238Z"/>
<path id="z40657d5" d="M525 405Q574 401 639 396Q640 395 643 396C650 396 648 381 643 376Q637 369 624 360Q605 348 526 368C493 374 493 374 476 377Q409 387 353 394C343 396 343 426 354 426Q360 426 368 425Q410 416 476 410C509 407 509 407 525 405Z"/>
<path id="z40657d6" d="M520 609Q520 569 521 531C522 499 522 499 523 483Q523 443 525 405C526 380 526 380 526 368Q527 304 529 246Q532 182 529 176Q520 167 511 160C496 149 450 150 457 167Q461 177 467 186Q477 213 476 377C476 399 476 399 476 410Q475 447 475 494C474 523 474 523 474 538Q474 574 474 616C474 632 520 625 520 609Z"/>
<path id="z40657d7" d="M521 531Q585 521 639 516Q667 512 657 497Q645 479 616 473Q592 470 523 483C491 490 491 490 475 494Q405 507 345 520Q326 524 349 542Q362 552 392 549Q434 542 474 538C505 533 505 533 521 531Z"/>
<path id="z40657d8" d="M474 616Q380 629 271 643Q252 646 266 661Q279 674 296 679Q315 683 331 680Q467 641 740 641Q759 641 763 633Q767 623 753 609Q701 570 636 588Q587 597 520 609C489 614 489 614 474 616Z"/>
<path id="z40657d9" d="M173 737Q151 789 119 834Q97 870 116 906Q123 925 147 912Q196 875 201 800Q205 764 199 737Q193 728 187 727Q177 728 173 737Z"/>
<path id="z40657d10" d="M335 785Q368 843 394 863Q407 869 419 858Q428 848 429 831Q426 789 374 762Q346 743 331 745Q324 745 324 757Q324 769 335 785Z"/>
<path id="z40657d11" d="M517 757Q559 824 586 840Q599 846 611 835Q618 823 620 807Q614 756 536 723C535 722 535 722 535 722Q520 715 510 717Q504 717 505 729Q504 741 517 757Z"/>
<path id="z40657d12" d="M731 732Q788 790 854 874Q869 896 884 901Q893 902 901 893Q914 881 905 835Q893 775 735 701Q726 694 723 707Q722 720 731 732Z"/>
<defs>
	<clipPath id="z40657c1"><use href="#z40657d1"/></clipPath>
	<clipPath id="z40657c2"><use href="#z40657d2"/></clipPath>
	<clipPath id="z40657c3"><use href="#z40657d3"/></clipPath>
	<clipPath id="z40657c4"><use href="#z40657d4"/></clipPath>
	<clipPath id="z40657c5"><use href="#z40657d5"/></clipPath>
	<clipPath id="z40657c6"><use href="#z40657d6"/></clipPath>
	<clipPath id="z40657c7"><use href="#z40657d7"/></clipPath>
	<clipPath id="z40657c8"><use href="#z40657d8"/></clipPath>
	<clipPath id="z40657c9"><use href="#z40657d9"/></clipPath>
	<clipPath id="z40657c10"><use href="#z40657d10"/></clipPath>
	<clipPath id="z40657c11"><use href="#z40657d11"/></clipPath>
	<clipPath id="z40657c12"><use href="#z40657d12"/></clipPath>
<marker id="guide-arrow" viewBox="0 0 16 16" refX="5" refY="5" markerWidth="4" markerHeight="4" orient="auto-start-reverse"><path d="M 0 0 L 10 5 L 0 10 z" fill="inherit"/></marker></defs>
<path style="--d:1s;" pathLength="3333" clip-path="url(#z40657c1)" d="M234 154L279 201L343 444"/>
<path style="--d:2s;" pathLength="3333" clip-path="url(#z40657c2)" d="M288 157L328 170L614 130L718 136L755 185L658 414"/>
<path style="--d:3s;" pathLength="3333" clip-path="url(#z40657c3)" d="M364 249L430 324"/>
<path style="--d:4s;" pathLength="3333" clip-path="url(#z40657c4)" d="M603 201L629 242L565 310"/>
<path style="--d:5s;" pathLength="3333" clip-path="url(#z40657c5)" d="M362 418L641 384"/>
<path style="--d:6s;" pathLength="3333" clip-path="url(#z40657c6)" d="M467 172L501 200L495 612"/>
<path style="--d:7s;" pathLength="3333" clip-path="url(#z40657c7)" d="M345 527L651 500"/>
<path style="--d:8s;" pathLength="3333" clip-path="url(#z40657c8)" d="M265 650L669 612L759 622"/>
<path style="--d:9s;" pathLength="3333" clip-path="url(#z40657c9)" d="M185 734L131 913"/>
<path style="--d:10s;" pathLength="3333" clip-path="url(#z40657c10)" d="M331 750L412 858"/>
<path style="--d:11s;" pathLength="3333" clip-path="url(#z40657c11)" d="M513 724L606 835"/>
<path style="--d:12s;" pathLength="3333" clip-path="url(#z40657c12)" d="M730 707L859 823L886 896"/>
<g class="guides"><circle style="--d: 1s" class="g1" cx="234" cy="154" r="16"/><path style="--d: 1s;" class="g1" d="M319.68,85.456 Q364.68,132.45600000000002 372.68,162.83100000000002 Q420.68,345.081 428.68,375.456"/><circle style="--d: 2s" class="g2" cx="288" cy="157" r="16"/><path style="--d: 2s;" class="g2" d="M288,253 Q317.7216274089936,252.4788732394366 423.97644539614566,239.2394366197183 Q530.2312633832977,226 568.8693790149894,229 Q607.5074946466809,232 621.2537473233405,247.20422535211267 Q635,262.40845070422534 598.9625267665953,338.20422535211264 Q598.9625267665953,338.20422535211264 562.9250535331905,414"/><circle style="--d: 3s" class="g3" cx="364" cy="249" r="16"/><path style="--d: 3s;" class="g3" d="M449.68,180.45600000000002 L515.68,255.45600000000002"/><circle style="--d: 4s" class="g4" cx="603" cy="201" r="16"/><path style="--d: 4s;" class="g4" d="M507,201 Q520,221.5 516,225.75 Q492,251.25 488,255.5"/><circle style="--d: 5s" class="g5" cx="362" cy="418" r="16"/><path style="--d: 5s;" class="g5" d="M362,514 L641,480"/><circle style="--d: 6s" class="g6" cx="467" cy="172" r="16"/><path style="--d: 6s;" class="g6" d="M371,172 Q405,200 404.25,251.5 Q399.75,560.5 399,612"/><circle style="--d: 7s" class="g7" cx="345" cy="527" r="16"/><path style="--d: 7s;" class="g7" d="M345,623 L651,596"/><circle style="--d: 8s" class="g8" cx="265" cy="650" r="16"/><path style="--d: 8s;" class="g8" d="M265,746 Q669,708 680.25,709.25 Q747.75,716.75 759,718"/><circle style="--d: 9s" class="g9" cx="185" cy="734" r="16"/><path style="--d: 9s;" class="g9" d="M305,734 L251,913"/><circle style="--d: 10s" class="g10" cx="331" cy="750" r="16"/><path style="--d: 10s;" class="g10" d="M416.68,681.456 L497.68,789.456"/><circle style="--d: 11s" class="g11" cx="513" cy="724" r="16"/><path style="--d: 11s;" class="g11" d="M598.68,655.456 L691.68,766.456"/><circle style="--d: 12s" class="g12" cx="730" cy="707" r="16"/><path style="--d: 12s;" class="g12" d="M815.68,638.456 Q944.68,754.456 948.055,763.581 Q968.305,818.331 971.68,827.456"/></g></svg>