<svg id="z40802" class="acjk" viewBox="0 0 1024 1024" xmlns="http://www.w3.org/2000/svg">
<style>

@keyframes zk {
	to {
		stroke-dashoffset:0;
	}
}
svg.acjk path[clip-path] {
	--t:0.8s;
	animation:zk var(--t) linear forwards var(--d);
	stroke-dasharray:3337;
	stroke-dashoffset:3339;
	stroke-width:128;
	stroke-linecap:round;
	fill:none;
	stroke:#000;
}
svg.acjk path[id] {fill:#ccc;}


    @keyframes guide-fade {
        0% { opacity: 0; }
        3% { opacity: 1; }
        95% { opacity: 1; }
        100% { opacity: 0; }
    }

    svg.acjk #guide-arrow {
        fill: #f77;
    }

    svg.acjk .guides {
        circle {
            fill: #0f6;
        }

        path {
            opacity: 0;
            animation: guide-fade var(--t) linear forwards var(--d);
            stroke-width: 16px;
            stroke-linecap: round;
            stroke: #f77;
            fill: none;
            marker-end: url(#guide-arrow);
        }

        circle,
        path {
            --t: 0.8s;
            opacity: 0;
            animation: guide-fade calc(var(--t) + 0.4s) ease-in-out forwards calc(var(--d) - 0.2s);
        }
    }
</style>
<path id="z40802d1" d="M376 352C378 320 382 268 385 236C386 219 386 219 387 210C389 184 391 183 402 134C403 127 400 118 387 111C366 99 349 94 335 91C326 89 319 90 314 95C309 100 309 106 315 115C323 127 329 138 330 148C335 207 337 293 338 363C338 376 376 365 376 352Z"/>
<path id="z40802d2" d="M385 236C403 239 443 233 503 218C511 216 515 214 517 213C521 209 522 203 519 199C514 192 504 187 489 186C474 184 425 203 387 210C378 211 376 234 385 236Z"/>
<path id="z40802d3" d="M269 380C262 320 260 265 262 254C262 242 258 232 250 225C236 217 221 210 205 205C196 203 189 203 185 207C180 211 180 218 185 226C199 248 215 316 232 389C234 402 271 392 269 380Z"/>
<path id="z40802d4" d="M235 430C301 408 394 384 514 362C524 360 530 357 530 352C530 344 525 337 513 332C496 325 479 323 466 327C432 335 403 344 376 352C351 359 351 359 338 363C311 370 288 375 269 380C244 386 244 386 232 389C173 403 108 413 79 417C71 418 66 421 65 426C63 433 66 440 77 447C102 463 132 463 167 452C189 444 212 437 235 430Z"/>
<path id="z40802d5" d="M202 523C231 546 247 557 252 557C256 557 260 553 263 547C265 541 264 531 260 518C258 511 251 505 239 500C210 491 192 489 186 492C183 493 182 496 183 503C185 507 191 513 202 523Z"/>
<path id="z40802d6" d="M408 473C400 485 388 501 371 521C368 523 368 527 370 530C373 531 377 531 381 528C415 508 440 495 456 487C464 486 468 482 467 476C458 453 444 441 425 439C419 439 415 443 415 452C415 458 412 465 408 473Z"/>
<path id="z40802d7" d="M336 597C358 591 389 585 437 577C442 576 447 575 452 567C454 562 446 557 437 552C411 538 365 558 336 566C311 573 311 573 298 576C272 582 248 588 226 592C206 595 185 598 163 603C150 605 147 611 158 619C173 630 193 631 214 626C231 621 243 618 271 612C314 602 314 602 336 597Z"/>
<path id="z40802d8" d="M300 625C300 672 298 709 297 721C295 734 301 744 305 749C310 755 322 760 329 751C351 718 336 688 336 630C336 616 336 616 336 609C336 601 336 601 336 597C336 576 336 576 336 566C336 547 343 487 356 473C360 468 360 460 353 455C325 434 302 429 288 436C281 439 278 444 283 451C292 467 300 508 300 577C300 609 300 609 300 625Z"/>
<path id="z40802d9" d="M271 612C243 658 198 723 149 758C141 764 140 767 147 768C162 768 193 753 230 722C249 705 291 651 300 625C311 598 289 589 271 612Z"/>
<path id="z40802d10" d="M335 631C357 642 381 677 407 695C414 701 421 703 426 703C430 703 432 701 434 696C438 690 436 680 429 665C420 646 389 615 335 610C328 609 329 628 335 631Z"/>
<path id="z40802d11" d="M460 746C340 759 235 779 146 806C132 809 126 803 130 787C140 705 141 639 134 629C124 619 111 609 96 600C89 596 82 595 75 597C68 600 67 608 73 620C89 656 94 712 89 748C85 783 76 808 62 824C50 835 46 845 52 854C58 864 67 873 79 879C87 884 95 884 102 879C124 853 203 826 341 797C397 785 433 781 449 785C462 787 473 743 460 746Z"/>
<path id="z40802d12" d="M449 785C449 797 453 813 462 833C466 842 472 843 479 837C493 825 502 794 506 746C516 670 525 605 533 593C537 585 537 576 531 568C520 560 506 550 488 538C481 534 474 534 467 537C462 539 461 544 463 551C477 578 476 656 460 746C457 759 449 771 449 785Z"/>
<path id="z40802d13" d="M682 250C698 213 708 180 726 158C730 151 731 143 727 135C723 126 711 116 691 106C672 96 656 93 645 95C632 97 629 106 638 120C656 148 644 216 596 324C573 372 546 425 514 482C509 489 505 494 505 499C503 505 508 509 516 506C554 489 608 411 672 272C679 257 679 257 682 250Z"/>
<path id="z40802d14" d="M672 272Q738 363 820 459Q836 477 863 475Q954 471 982 465Q991 464 992 459Q992 455 980 448Q842 396 784 343Q735 301 682 250C676 244 667 266 672 272Z"/>
<path id="z40802d15" d="M629 479Q659 504 690 533Q700 543 713 542Q722 542 725 531Q729 521 722 497Q718 478 688 463Q622 436 608 441Q604 445 605 455Q608 462 629 479Z"/>
<path id="z40802d16" d="M681 796Q790 678 843 644Q856 638 854 626Q854 614 828 603Q764 570 750 579Q680 618 558 652Q537 656 554 671Q576 689 597 679Q705 622 738 627Q753 633 752 643Q752 649 669 789C667 793 678 800 681 796Z"/>
<path id="z40802d17" d="M669 789Q629 764 604 753Q597 749 595 759Q594 771 603 780Q664 838 736 922Q749 941 762 945Q769 946 777 938Q787 926 778 888Q772 849 691 802Q685 798 681 796C673 791 673 791 669 789Z"/>
<defs>
	<clipPath id="z40802c1"><use href="#z40802d1"/></clipPath>
	<clipPath id="z40802c2"><use href="#z40802d2"/></clipPath>
	<clipPath id="z40802c3"><use href="#z40802d3"/></clipPath>
	<clipPath id="z40802c4"><use href="#z40802d4"/></clipPath>
	<clipPath id="z40802c5"><use href="#z40802d5"/></clipPath>
	<clipPath id="z40802c6"><use href="#z40802d6"/></clipPath>
	<clipPath id="z40802c7"><use href="#z40802d7"/></clipPath>
	<clipPath id="z40802c8"><use href="#z40802d8"/></clipPath>
	<clipPath id="z40802c9"><use href="#z40802d9"/></clipPath>
	<clipPath id="z40802c10"><use href="#z40802d10"/></clipPath>
	<clipPath id="z40802c11"><use href="#z40802d11"/></clipPath>
	<clipPath id="z40802c12"><use href="#z40802d12"/></clipPath>
	<clipPath id="z40802c13"><use href="#z40802d13"/></clipPath>
	<clipPath id="z40802c14"><use href="#z40802d14"/></clipPath>
	<clipPath id="z40802c15"><use href="#z40802d15"/></clipPath>
	<clipPath id="z40802c16"><use href="#z40802d16"/></clipPath>
	<clipPath id="z40802c17"><use href="#z40802d17"/></clipPath>
<marker id="guide-arrow" viewBox="0 0 16 16" refX="5" refY="5" markerWidth="4" markerHeight="4" orient="auto-start-reverse"><path d="M 0 0 L 10 5 L 0 10 z" fill="inherit"/></marker></defs>
<path style="--d:1s;" pathLength="3333" clip-path="url(#z40802c1)" d="M319 99L366 142L354 357"/>
<path style="--d:2s;" pathLength="3333" clip-path="url(#z40802c2)" d="M391 229L512 202"/>
<path style="--d:3s;" pathLength="3333" clip-path="url(#z40802c3)" d="M187 212L229 250L254 383"/>
<path style="--d:4s;" pathLength="3333" clip-path="url(#z40802c4)" d="M69 428L146 432L525 345"/>
<path style="--d:5s;" pathLength="3333" clip-path="url(#z40802c5)" d="M192 499L255 550"/>
<path style="--d:6s;" pathLength="3333" clip-path="url(#z40802c6)" d="M426 444L435 480L376 525"/>
<path style="--d:7s;" pathLength="3333" clip-path="url(#z40802c7)" d="M159 610L446 567"/>
<path style="--d:8s;" pathLength="3333" clip-path="url(#z40802c8)" d="M288 441L325 476L312 753"/>
<path style="--d:9s;" pathLength="3333" clip-path="url(#z40802c9)" d="M294 606L223 707L152 762"/>
<path style="--d:10s;" pathLength="3333" clip-path="url(#z40802c10)" d="M341 621L426 696"/>
<path style="--d:11s;" pathLength="3333" clip-path="url(#z40802c11)" d="M77 602L110 644L90 825L104 841L455 755"/>
<path style="--d:12s;" pathLength="3333" clip-path="url(#z40802c12)" d="M471 540L503 584L474 836"/>
<path style="--d:13s;" pathLength="3333" clip-path="url(#z40802c13)" d="M640 100L688 150L620 327L511 497"/>
<path style="--d:14s;" pathLength="3333" clip-path="url(#z40802c14)" d="M681 260L849 433L984 457"/>
<path style="--d:15s;" pathLength="3333" clip-path="url(#z40802c15)" d="M612 449L684 491L713 538"/>
<path style="--d:16s;" pathLength="3333" clip-path="url(#z40802c16)" d="M554 658L749 602L788 619L802 640L678 790"/>
<path style="--d:17s;" pathLength="3333" clip-path="url(#z40802c17)" d="M602 761L735 873L768 940"/>
<g class="guides"><circle style="--d: 1s" class="g1" cx="319" cy="99" r="16"/><path style="--d: 1s;" class="g1" d="M223,99 Q270,142 268.5,168.875 Q259.5,330.125 258,357"/><circle style="--d: 2s" class="g2" cx="391" cy="229" r="16"/><path style="--d: 2s;" class="g2" d="M391,325 L512,298"/><circle style="--d: 3s" class="g3" cx="187" cy="212" r="16"/><path style="--d: 3s;" class="g3" d="M272.68,143.45600000000002 Q314.68,181.45600000000002 317.805,198.08100000000002 Q336.555,297.831 339.68,314.456"/><circle style="--d: 4s" class="g4" cx="69" cy="428" r="16"/><path style="--d: 4s;" class="g4" d="M69,524 Q146,528 193.375,517.125 Q477.625,451.875 525,441"/><circle style="--d: 5s" class="g5" cx="192" cy="499" r="16"/><path style="--d: 5s;" class="g5" d="M277.68,430.456 L340.68,481.456"/><circle style="--d: 6s" class="g6" cx="431" cy="462" r="16"/><path style="--d: 6s;" class="g6" d="M516.68,530.544 L461.68,593.544"/><circle style="--d: 7s" class="g7" cx="159" cy="610" r="16"/><path style="--d: 7s;" class="g7" d="M159,706 L446,663"/><circle style="--d: 8s" class="g8" cx="288" cy="441" r="16"/><path style="--d: 8s;" class="g8" d="M192,441 Q229,476 227.375,510.625 Q217.625,718.375 216,753"/><circle style="--d: 9s" class="g9" cx="294" cy="606" r="16"/><path style="--d: 9s;" class="g9" d="M379.68,674.544 Q308.68,775.544 299.805,782.419 Q246.555,823.669 237.68,830.544"/><circle style="--d: 10s" class="g10" cx="341" cy="621" r="16"/><path style="--d: 10s;" class="g10" d="M426.68,552.456 L511.68,627.456"/><circle style="--d: 11s" class="g11" cx="77" cy="602" r="16"/><path style="--d: 11s;" class="g11" d="M162.68,533.456 Q188.2,570.6310962343097 180.46666666666664,650.7345774058577 Q172.73333333333332,730.8380585774058 178.14666666666665,737.9190292887029 Q183.56,745 319.28,706.9397824267783 Q319.28,706.9397824267783 455,668.8795648535565"/><circle style="--d: 12s" class="g12" cx="471" cy="540" r="16"/><path style="--d: 12s;" class="g12" d="M375,540 Q407,584 403.375,615.5 Q381.625,804.5 378,836"/><circle style="--d: 13s" class="g13" cx="640" cy="100" r="16"/><path style="--d: 13s;" class="g13" d="M544,100 Q568,137.90931989924434 559.5,171.45906801007555 Q534,272.10831234256926 520.375,304.33123425692696 Q493.125,368.7770780856423 479.5,401"/><circle style="--d: 14s" class="g14" cx="681" cy="260" r="16"/><path style="--d: 14s;" class="g14" d="M766.68,191.45600000000002 Q887.1742574257426,340.34489340101527 899.2774752475248,342.92678172588836 Q971.8967821782178,358.4181116751269 984,361"/><circle style="--d: 15s" class="g15" cx="612" cy="449" r="16"/><path style="--d: 15s;" class="g15" d="M697.68,380.456 Q769.68,422.456 773.305,428.331 Q795.055,463.581 798.68,469.456"/><circle style="--d: 16s" class="g16" cx="554" cy="658" r="16"/><path style="--d: 16s;" class="g16" d="M554,754 Q673.516129032258,698 685.4677419354839,706.5 Q697.4193548387096,715 701.7096774193549,725.5 Q706,736 668,811 Q668,811 630,886"/><circle style="--d: 17s" class="g17" cx="602" cy="761" r="16"/><path style="--d: 17s;" class="g17" d="M687.68,692.456 Q820.68,804.456 824.805,812.831 Q849.555,863.081 853.68,871.456"/></g></svg>