<svg id="z40888" class="acjk" viewBox="0 0 1024 1024" xmlns="http://www.w3.org/2000/svg">
<style>

@keyframes zk {
	to {
		stroke-dashoffset:0;
	}
}
svg.acjk path[clip-path] {
	--t:0.8s;
	animation:zk var(--t) linear forwards var(--d);
	stroke-dasharray:3337;
	stroke-dashoffset:3339;
	stroke-width:128;
	stroke-linecap:round;
	fill:none;
	stroke:#000;
}
svg.acjk path[id] {fill:#ccc;}


    @keyframes guide-fade {
        0% { opacity: 0; }
        3% { opacity: 1; }
        95% { opacity: 1; }
        100% { opacity: 0; }
    }

    svg.acjk #guide-arrow {
        fill: #f77;
    }

    svg.acjk .guides {
        circle {
            fill: #0f6;
        }

        path {
            opacity: 0;
            animation: guide-fade var(--t) linear forwards var(--d);
            stroke-width: 16px;
            stroke-linecap: round;
            stroke: #f77;
            fill: none;
            marker-end: url(#guide-arrow);
        }

        circle,
        path {
            --t: 0.8s;
            opacity: 0;
            animation: guide-fade calc(var(--t) + 0.4s) ease-in-out forwards calc(var(--d) - 0.2s);
        }
    }
</style>
<path id="z40888d1" d="M527 494C533 447 542 385 560 309C561 301 558 292 545 283C523 268 503 262 488 259C477 256 469 257 464 263C459 267 458 275 464 285C476 306 484 377 484 500C484 514 524 508 527 494Z"/>
<path id="z40888d2" d="M331 407C344 420 357 435 371 452C379 461 389 467 400 467C406 467 412 462 417 454C421 444 420 428 416 409C413 398 404 386 386 378C344 359 316 352 308 356C304 357 302 364 303 373C303 379 314 390 331 407Z"/>
<path id="z40888d3" d="M658 337C647 352 624 381 591 425C583 434 587 442 598 438C669 403 717 368 741 357C755 350 759 340 752 330C743 318 730 308 714 298C699 289 687 285 679 287C670 287 668 292 670 301C672 312 667 324 658 337Z"/>
<path id="z40888d4" d="M264 531C256 515 248 505 241 500C227 490 218 493 220 512C221 540 203 577 162 626C147 643 150 671 171 708C181 726 193 725 207 706C213 695 233 647 265 562C269 552 269 540 264 531Z"/>
<path id="z40888d5" d="M265 562C281 572 302 575 328 568C410 543 525 520 674 505C737 498 762 492 754 523C749 537 742 551 721 608C704 650 722 634 746 617C784 588 819 569 851 558C877 548 889 539 889 533C887 526 862 505 812 469C781 446 746 463 527 494C498 498 498 498 484 500C407 510 335 524 264 531C254 533 256 557 265 562Z"/>
<defs>
	<clipPath id="z40888c1"><use href="#z40888d1"/></clipPath>
	<clipPath id="z40888c2"><use href="#z40888d2"/></clipPath>
	<clipPath id="z40888c3"><use href="#z40888d3"/></clipPath>
	<clipPath id="z40888c4"><use href="#z40888d4"/></clipPath>
	<clipPath id="z40888c5"><use href="#z40888d5"/></clipPath>
<marker id="guide-arrow" viewBox="0 0 16 16" refX="5" refY="5" markerWidth="4" markerHeight="4" orient="auto-start-reverse"><path d="M 0 0 L 10 5 L 0 10 z" fill="inherit"/></marker></defs>
<path style="--d:1s;" pathLength="3333" clip-path="url(#z40888c1)" d="M467 267L517 315L499 505"/>
<path style="--d:2s;" pathLength="3333" clip-path="url(#z40888c2)" d="M311 365L374 406L408 459"/>
<path style="--d:3s;" pathLength="3333" clip-path="url(#z40888c3)" d="M677 295L706 340L595 432"/>
<path style="--d:4s;" pathLength="3333" clip-path="url(#z40888c4)" d="M228 504L240 551L189 652L183 717"/>
<path style="--d:5s;" pathLength="3333" clip-path="url(#z40888c5)" d="M262 543L770 481L831 538L720 626"/>
<g class="guides"><circle style="--d: 1s" class="g1" cx="467" cy="267" r="16"/><path style="--d: 1s;" class="g1" d="M371,267 Q421,315 418.75,338.75 Q405.25,481.25 403,505"/><circle style="--d: 2s" class="g2" cx="311" cy="365" r="16"/><path style="--d: 2s;" class="g2" d="M396.68,296.456 Q459.68,337.456 463.93,344.081 Q489.43,383.831 493.68,390.456"/><circle style="--d: 3s" class="g3" cx="677" cy="295" r="16"/><path style="--d: 3s;" class="g3" d="M581,295 Q595.5,317.5 588.5625,323.25 Q546.9375,357.75 540,363.5"/><circle style="--d: 4s" class="g4" cx="228" cy="504" r="16"/><path style="--d: 4s;" class="g4" d="M348,504 Q360,551 347.25,576.25 Q309,652 307.5,668.25 Q304.5,700.75 303,717"/><circle style="--d: 5s" class="g5" cx="262" cy="543" r="16"/><path style="--d: 5s;" class="g5" d="M262,639 Q628.0456942003515,577 639.0342706502636,591.25 Q672,634 652.0043936731107,656 Q612.0131810193321,700 592.0175746924428,722"/></g></svg>