<svg id="z64056" class="acjk" viewBox="0 0 1024 1024" xmlns="http://www.w3.org/2000/svg">
<style>

@keyframes zk {
	to {
		stroke-dashoffset:0;
	}
}
svg.acjk path[clip-path] {
	--t:0.8s;
	animation:zk var(--t) linear forwards var(--d);
	stroke-dasharray:3337;
	stroke-dashoffset:3339;
	stroke-width:128;
	stroke-linecap:round;
	fill:none;
	stroke:#000;
}
svg.acjk path[id] {fill:#ccc;}


    @keyframes guide-fade {
        0% { opacity: 0; }
        3% { opacity: 1; }
        95% { opacity: 1; }
        100% { opacity: 0; }
    }

    svg.acjk #guide-arrow {
        fill: #f77;
    }

    svg.acjk .guides {
        circle {
            fill: #0f6;
        }

        path {
            opacity: 0;
            animation: guide-fade var(--t) linear forwards var(--d);
            stroke-width: 16px;
            stroke-linecap: round;
            stroke: #f77;
            fill: none;
            marker-end: url(#guide-arrow);
        }

        circle,
        path {
            --t: 0.8s;
            opacity: 0;
            animation: guide-fade calc(var(--t) + 0.4s) ease-in-out forwards calc(var(--d) - 0.2s);
        }
    }
</style>
<path id="z64056d1" d="M262 147Q249 143 229 140Q217 137 215 143Q209 149 218 164Q243 210 262 290Q266 315 280 330Q298 349 302 335Q306 322 304 302C301 281 301 281 299 271Q284 192 282 172C280 161 272 149 262 147Z"/>
<path id="z64056d2" d="M439 250Q455 184 476 164Q497 142 476 128Q458 118 434 102Q416 93 372 117Q315 136 262 147C251 149 272 176 282 172Q282 171 285 171Q331 158 372 149Q400 142 406 154Q412 158 406 187Q400 212 394 243C391 258 436 265 439 250Z"/>
<path id="z64056d3" d="M304 302Q311 303 321 300Q360 290 447 277Q457 276 457 267Q457 260 439 250C426 242 409 240 394 243Q388 244 384 246Q336 262 299 271C289 273 294 302 304 302Z"/>
<path id="z64056d4" d="M586 117Q576 111 551 108Q539 104 537 109Q531 115 538 129Q560 175 574 248Q577 270 590 286Q606 305 610 291Q613 284 614 272C616 262 613 252 611 242Q601 164 599 142C599 133 594 121 586 117Z"/>
<path id="z64056d5" d="M752 224Q771 160 791 141Q812 119 791 105Q775 95 750 78Q734 68 716 78Q673 105 586 117C577 119 590 142 599 142Q608 142 621 139Q661 130 694 124Q716 120 721 129Q728 135 720 163Q714 188 706 220C703 235 749 239 752 224Z"/>
<path id="z64056d6" d="M614 272Q621 273 632 271Q674 264 765 256Q775 255 776 247Q776 240 752 224C739 216 721 217 706 220Q705 220 704 220Q653 233 611 242C601 244 604 272 614 272Z"/>
<path id="z64056d7" d="M517 441Q578 428 740 413Q750 414 760 402Q761 390 739 380Q708 356 641 376Q542 394 507 404C466 411 466 411 446 415Q257 433 245 436Q217 437 238 456Q266 484 299 477Q360 464 434 454C489 445 489 445 517 441Z"/>
<path id="z64056d8" d="M507 404Q517 371 526 363Q536 350 527 340Q515 325 488 317Q469 307 449 311Q436 315 442 330Q460 360 446 415C438 441 438 441 434 454Q389 565 256 621Q217 636 168 651Q150 660 171 662Q291 672 387 606Q451 557 492 451C502 420 502 420 507 404Z"/>
<path id="z64056d9" d="M492 451Q669 628 717 638Q724 638 735 639Q801 638 867 619Q883 615 885 611Q886 604 872 600Q827 587 775 575Q663 547 519 442Q518 441 517 441C504 433 482 441 492 451Z"/>
<path id="z64056d10" d="M775 333Q797 349 822 369Q835 379 849 377Q858 376 861 364Q864 351 853 326Q847 310 821 302Q761 284 748 293Q744 297 746 308Q750 318 775 333Z"/>
<path id="z64056d11" d="M229 712Q217 708 192 704Q180 700 177 706Q170 712 179 728Q204 777 222 857Q225 881 240 897Q258 919 263 903Q266 893 266 880C264 857 264 857 263 846Q250 762 247 739C245 728 240 714 229 712Z"/>
<path id="z64056d12" d="M418 823Q437 759 460 740Q482 718 461 702Q443 690 418 672Q402 662 382 671Q330 698 229 712C218 714 237 742 247 739Q248 736 350 719Q380 713 386 725Q392 731 368 823C365 839 415 839 418 823Z"/>
<path id="z64056d13" d="M266 880Q265 879 268 879Q320 867 433 856Q443 855 444 847Q444 840 418 823C405 813 384 820 368 823Q310 836 263 846C252 848 255 883 266 880Z"/>
<path id="z64056d14" d="M574 708Q564 704 543 699Q533 696 529 701Q523 707 530 721Q552 770 566 849Q567 874 582 889Q597 910 602 895Q606 885 606 869C604 849 604 849 603 839Q591 760 591 736C591 725 584 712 574 708Z"/>
<path id="z64056d15" d="M777 817Q798 756 819 737Q843 713 821 698Q802 685 777 667Q759 655 740 665Q694 690 574 708C563 710 580 738 591 736Q654 724 706 715Q737 709 744 722Q747 725 726 816C723 833 771 833 777 817Z"/>
<path id="z64056d16" d="M606 869Q613 870 624 869Q676 859 792 852Q802 851 803 843Q803 836 777 817C764 806 743 813 726 816Q656 829 603 839C593 841 596 869 606 869Z"/>
<defs>
	<clipPath id="z64056c1"><use href="#z64056d1"/></clipPath>
	<clipPath id="z64056c2"><use href="#z64056d2"/></clipPath>
	<clipPath id="z64056c3"><use href="#z64056d3"/></clipPath>
	<clipPath id="z64056c4"><use href="#z64056d4"/></clipPath>
	<clipPath id="z64056c5"><use href="#z64056d5"/></clipPath>
	<clipPath id="z64056c6"><use href="#z64056d6"/></clipPath>
	<clipPath id="z64056c7"><use href="#z64056d7"/></clipPath>
	<clipPath id="z64056c8"><use href="#z64056d8"/></clipPath>
	<clipPath id="z64056c9"><use href="#z64056d9"/></clipPath>
	<clipPath id="z64056c10"><use href="#z64056d10"/></clipPath>
	<clipPath id="z64056c11"><use href="#z64056d11"/></clipPath>
	<clipPath id="z64056c12"><use href="#z64056d12"/></clipPath>
	<clipPath id="z64056c13"><use href="#z64056d13"/></clipPath>
	<clipPath id="z64056c14"><use href="#z64056d14"/></clipPath>
	<clipPath id="z64056c15"><use href="#z64056d15"/></clipPath>
	<clipPath id="z64056c16"><use href="#z64056d16"/></clipPath>
<marker id="guide-arrow" viewBox="0 0 16 16" refX="5" refY="5" markerWidth="4" markerHeight="4" orient="auto-start-reverse"><path d="M 0 0 L 10 5 L 0 10 z" fill="inherit"/></marker></defs>
<path style="--d:1s;" pathLength="3333" clip-path="url(#z64056c1)" d="M221 148L257 184L294 335"/>
<path style="--d:2s;" pathLength="3333" clip-path="url(#z64056c2)" d="M269 148L421 128L447 152L410 245"/>
<path style="--d:3s;" pathLength="3333" clip-path="url(#z64056c3)" d="M305 274L451 266"/>
<path style="--d:4s;" pathLength="3333" clip-path="url(#z64056c4)" d="M542 115L571 142L601 290"/>
<path style="--d:5s;" pathLength="3333" clip-path="url(#z64056c5)" d="M596 120L744 109L762 128L728 221"/>
<path style="--d:6s;" pathLength="3333" clip-path="url(#z64056c6)" d="M622 265L709 240L771 247"/>
<path style="--d:7s;" pathLength="3333" clip-path="url(#z64056c7)" d="M237 443L295 454L755 395"/>
<path style="--d:8s;" pathLength="3333" clip-path="url(#z64056c8)" d="M447 319L490 357L416 537L309 621L170 657"/>
<path style="--d:9s;" pathLength="3333" clip-path="url(#z64056c9)" d="M501 449L711 594L878 610"/>
<path style="--d:10s;" pathLength="3333" clip-path="url(#z64056c10)" d="M752 296L856 369"/>
<path style="--d:11s;" pathLength="3333" clip-path="url(#z64056c11)" d="M181 707L220 751L254 903"/>
<path style="--d:12s;" pathLength="3333" clip-path="url(#z64056c12)" d="M239 715L381 693L417 709L429 730L388 822"/>
<path style="--d:13s;" pathLength="3333" clip-path="url(#z64056c13)" d="M269 872L434 843"/>
<path style="--d:14s;" pathLength="3333" clip-path="url(#z64056c14)" d="M534 709L566 745L593 895"/>
<path style="--d:15s;" pathLength="3333" clip-path="url(#z64056c15)" d="M582 710L760 693L787 726L739 815"/>
<path style="--d:16s;" pathLength="3333" clip-path="url(#z64056c16)" d="M611 842L798 843"/>
<g class="guides"><circle style="--d: 1s" class="g1" cx="221" cy="148" r="16"/><path style="--d: 1s;" class="g1" d="M306.68,79.456 Q342.68,115.456 347.305,134.33100000000002 Q375.055,247.58100000000002 379.68,266.456"/><circle style="--d: 2s" class="g2" cx="269" cy="148" r="16"/><path style="--d: 2s;" class="g2" d="M269,244 Q345,224 348.25,227 Q358,236 353.375,247.625 Q344.125,270.875 339.5,282.5"/><circle style="--d: 3s" class="g3" cx="305" cy="274" r="16"/><path style="--d: 3s;" class="g3" d="M305,370 L451,362"/><circle style="--d: 4s" class="g4" cx="557" cy="129" r="16"/><path style="--d: 4s;" class="g4" d="M677,129 L721,290"/><circle style="--d: 5s" class="g5" cx="596" cy="120" r="16"/><path style="--d: 5s;" class="g5" d="M596,216 Q670,205 672.25,207.375 Q679,214.5 674.75,226.125 Q666.25,249.375 662,261"/><circle style="--d: 6s" class="g6" cx="622" cy="265" r="16"/><path style="--d: 6s;" class="g6" d="M622,361 Q709,336 716.75,336.875 Q763.25,342.125 771,343"/><circle style="--d: 7s" class="g7" cx="237" cy="443" r="16"/><path style="--d: 7s;" class="g7" d="M237,539 Q295,550 352.5,542.625 Q697.5,498.375 755,491"/><circle style="--d: 8s" class="g8" cx="447" cy="319" r="16"/><path style="--d: 8s;" class="g8" d="M351,319 Q381.1,346.20710059171597 355.20000000000005,410.64497041420117 Q329.3,475.08284023668637 291.85,505.15384615384613 Q254.39999999999998,535.2248520710059 205.75,548.112426035503 Q205.75,548.112426035503 157.1,561"/><circle style="--d: 9s" class="g9" cx="501" cy="449" r="16"/><path style="--d: 9s;" class="g9" d="M586.68,380.456 Q748.9537400530504,500.72854658385097 765.0845225464191,502.3874782608696 Q861.8692175066313,512.3410683229814 878,514"/><circle style="--d: 10s" class="g10" cx="752" cy="296" r="16"/><path style="--d: 10s;" class="g10" d="M837.68,227.45600000000002 L941.68,300.456"/><circle style="--d: 11s" class="g11" cx="181" cy="707" r="16"/><path style="--d: 11s;" class="g11" d="M266.68,638.456 Q305.68,682.456 309.93,701.456 Q335.43,815.456 339.68,834.456"/><circle style="--d: 12s" class="g12" cx="239" cy="715" r="16"/><path style="--d: 12s;" class="g12" d="M239,811 Q310,789 319,797 Q328,805 331,806.25 Q334,807.5 323.75,830.5 Q323.75,830.5 313.5,853.5"/><circle style="--d: 13s" class="g13" cx="269" cy="872" r="16"/><path style="--d: 13s;" class="g13" d="M269,968 L434,939"/><circle style="--d: 14s" class="g14" cx="534" cy="709" r="16"/><path style="--d: 14s;" class="g14" d="M619.68,640.456 Q651.68,676.456 655.055,695.206 Q675.305,807.706 678.68,826.456"/><circle style="--d: 15s" class="g15" cx="582" cy="710" r="16"/><path style="--d: 15s;" class="g15" d="M582,806 Q671,789 674.375,793.125 Q684.5,805.5 678.5,816.625 Q666.5,838.875 660.5,850"/><circle style="--d: 16s" class="g16" cx="611" cy="842" r="16"/><path style="--d: 16s;" class="g16" d="M611,938 L798,939"/></g></svg>