<!--
  Stroke-order data for 煮, derived from AnimCJK (https://github.com/parsimonhi/animCJK),
  itself derived from the Arphic PL KaitiM fonts. Distributed under the Arphic Public License
  (see ARPHICPL.TXT). Regenerated by scripts/build-strokes.ts — do not edit by hand.
-->
<svg id="z64072" class="acjk" viewBox="0 0 1024 1024" xmlns="http://www.w3.org/2000/svg">
<g class="glyph"><path id="z64072d1" d="M507 231C522 228 537 224 553 222C577 218 590 213 594 210C599 205 602 199 599 195C594 187 582 181 566 177C546 172 529 175 511 181C475 192 475 192 457 198C436 204 379 213 321 218C298 219 294 227 311 239C334 255 370 256 458 240C491 234 491 234 507 231Z"/><path id="z64072d2" d="M496 355C500 312 503 271 507 231C510 198 510 198 511 181C512 159 518 133 527 105C529 98 523 89 512 82C490 69 472 62 458 60C447 58 440 59 436 65C431 69 430 75 436 85C447 101 453 115 454 126C454 148 456 172 457 198C458 226 458 226 458 240C458 278 457 318 457 360C457 373 496 368 496 355Z"/><path id="z64072d3" d="M551 379C627 370 735 365 875 365C887 365 896 361 899 356C903 348 898 338 888 330C853 304 823 295 798 301C743 312 674 329 589 341C542 348 542 348 518 351C508 352 501 354 496 355C470 358 470 358 457 360C358 372 252 387 140 402C126 403 123 410 135 421C156 440 180 446 204 440C314 410 409 394 487 386C530 381 530 381 551 379Z"/><path id="z64072d4" d="M469 461C496 433 523 406 551 379C563 366 543 386 589 341C668 261 711 213 727 206C737 201 742 196 742 190C741 184 736 180 730 176C708 163 689 155 671 152C660 150 651 153 648 165C634 206 592 269 518 351C467 406 497 374 487 386C462 412 436 436 411 462C401 471 469 407 381 491C283 583 189 660 99 723C94 726 92 727 93 731C93 733 96 734 102 733C151 717 187 700 212 683C268 642 326 596 384 543C413 516 413 516 428 502C431 498 433 495 437 492C440 489 458 471 469 461Z"/><path id="z64072d5" d="M680 419C721 444 723 453 733 451C740 449 745 444 746 435C747 426 741 406 727 394C711 381 704 380 669 377C660 376 648 377 645 380C639 386 640 392 645 398C650 404 661 407 680 419Z"/><path id="z64072d6" d="M411 462C402 455 392 450 382 447C377 446 373 448 370 452C368 454 369 458 373 464C377 476 379 485 381 491C386 507 384 526 384 543C386 585 382 621 374 651C366 677 370 700 388 722C394 728 399 728 404 721C408 715 412 707 415 698C419 677 419 677 421 666C423 648 424 624 424 594C425 577 425 577 425 568C425 538 428 506 428 502C427 499 428 495 427 493C425 482 420 469 411 462Z"/><path id="z64072d7" d="M613 681C613 689 617 697 622 706C630 722 636 730 642 730C650 729 658 719 668 700C675 685 679 672 678 660C665 566 666 513 676 485C683 464 664 449 625 423C616 417 599 418 586 424C559 435 519 448 469 461C451 464 431 465 411 462C400 460 416 495 427 493C451 490 494 479 517 473C563 460 594 457 604 467C626 488 621 553 618 652C615 671 615 671 613 681Z"/><path id="z64072d8" d="M424 594C471 588 519 582 567 577C581 575 586 569 581 563C574 553 563 548 549 545C531 541 489 548 425 568C417 571 415 596 424 594Z"/><path id="z64072d9" d="M415 698C466 690 531 685 613 681C623 681 625 659 618 652C615 649 611 646 608 644C597 637 583 637 564 641C511 651 463 660 421 666C410 668 404 700 415 698Z"/><path id="z64072d10" d="M260 756C242 789 224 822 203 852C188 872 187 891 198 915C203 925 211 930 225 922C257 901 274 863 282 812C284 791 286 772 282 757C280 750 276 747 272 747C267 747 262 750 260 756Z"/><path id="z64072d11" d="M384 795C398 838 411 868 428 882C433 887 441 886 448 882C454 877 458 870 460 862C463 834 441 808 406 773C405 772 405 772 405 772C398 765 392 763 387 763C383 762 381 764 380 771C378 776 380 784 384 795Z"/><path id="z64072d12" d="M536 788C553 825 572 857 595 877C602 883 612 881 620 874C626 867 629 859 630 849C630 834 627 820 619 810C609 796 587 779 558 757C548 750 541 748 535 749C531 749 528 752 528 760C527 766 529 775 536 788Z"/><path id="z64072d13" d="M704 743C732 778 764 821 799 872C807 885 814 896 825 900C828 901 835 898 841 894C849 887 851 869 849 840C846 807 799 766 710 714C703 710 700 711 698 719C695 727 698 735 704 743Z"/></g>
<defs><clipPath id="z64072c1"><use href="#z64072d1"/></clipPath>
	<clipPath id="z64072c2"><use href="#z64072d2"/></clipPath>
	<clipPath id="z64072c3"><use href="#z64072d3"/></clipPath>
	<clipPath id="z64072c4"><use href="#z64072d4"/></clipPath>
	<clipPath id="z64072c5"><use href="#z64072d5"/></clipPath>
	<clipPath id="z64072c6"><use href="#z64072d6"/></clipPath>
	<clipPath id="z64072c7"><use href="#z64072d7"/></clipPath>
	<clipPath id="z64072c8"><use href="#z64072d8"/></clipPath>
	<clipPath id="z64072c9"><use href="#z64072d9"/></clipPath>
	<clipPath id="z64072c10"><use href="#z64072d10"/></clipPath>
	<clipPath id="z64072c11"><use href="#z64072d11"/></clipPath>
	<clipPath id="z64072c12"><use href="#z64072d12"/></clipPath>
	<clipPath id="z64072c13"><use href="#z64072d13"/></clipPath><marker id="guide-arrow" viewBox="0 0 16 16" refX="5" refY="5" markerWidth="4" markerHeight="4" orient="auto-start-reverse"><path d="M 0 0 L 10 5 L 0 10 z" fill="inherit"/></marker></defs>
<g class="strokes"><path pathLength="3333" clip-path="url(#z64072c1)" d="M308 227L596 199"/><path pathLength="3333" clip-path="url(#z64072c2)" d="M440 67L490 113L479 357"/><path pathLength="3333" clip-path="url(#z64072c3)" d="M136 410L191 418L795 333L896 348"/><path pathLength="3333" clip-path="url(#z64072c4)" d="M663 162L698 193L363 535L105 727"/><path pathLength="3333" clip-path="url(#z64072c5)" d="M655 390L733 436"/><path pathLength="3333" clip-path="url(#z64072c6)" d="M379 455L404 499L397 717"/><path pathLength="3333" clip-path="url(#z64072c7)" d="M425 470L456 477L580 442L638 459L637 724"/><path pathLength="3333" clip-path="url(#z64072c8)" d="M429 586L575 565"/><path pathLength="3333" clip-path="url(#z64072c9)" d="M425 690L615 666"/><path pathLength="3333" clip-path="url(#z64072c10)" d="M273 752L201 917"/><path pathLength="3333" clip-path="url(#z64072c11)" d="M388 767L443 879"/><path pathLength="3333" clip-path="url(#z64072c12)" d="M536 756L613 874"/><path pathLength="3333" clip-path="url(#z64072c13)" d="M704 723L805 823L833 894"/></g>
<g class="guides"><text class="g1" style="--gs:1" x="308" y="227">①</text><path class="g1 aligned" style="--gs:1" d="M308,227 L596,199"/><path class="g1 offset" style="--gs:1" d="M308,323 L596,295"/><text class="g2" style="--gs:2" x="440" y="67">②</text><path class="g2 aligned" style="--gs:2" d="M440,67 Q490,113 488.63,143.5 Q480.38,326.5 479,357"/><path class="g2 offset" style="--gs:2" d="M344,67 Q394,113 392.63,143.5 Q384.38,326.5 383,357"/><text class="g3" style="--gs:3" x="136" y="410">③</text><path class="g3 aligned" style="--gs:3" d="M136,410 Q191,418 342,396.75 Q795,333 820.25,336.75 Q870.75,344.25 896,348"/><path class="g3 offset" style="--gs:3" d="M136,506 Q191,514 342,492.75 Q795,429 820.25,432.75 Q870.75,440.25 896,444"/><text class="g4" style="--gs:4" x="663" y="162">④</text><path class="g4 aligned" style="--gs:4" d="M663,162 Q698,193 614.25,278.5 Q363,535 298.5,583 Q169.5,679 105,727"/><path class="g4 offset" style="--gs:4" d="M567,162 Q596.33,187.73 526.14,258.71 Q315.57,471.62 261.51,511.47 Q153.39,591.16 99.33,631"/><text class="g5" style="--gs:5" x="655" y="390">⑤</text><path class="g5 aligned" style="--gs:5" d="M655,390 L733,436"/><path class="g5 offset" style="--gs:5" d="M740.68,321.46 L818.68,367.46"/><text class="g6" style="--gs:6" x="379" y="455">⑥</text><path class="g6 aligned" style="--gs:6" d="M379,455 Q404,499 403.13,526.25 Q397.88,689.75 397,717"/><path class="g6 offset" style="--gs:6" d="M499,455 Q524,499 523.13,526.25 Q517.88,689.75 517,717"/><text class="g7" style="--gs:7" x="425" y="470">⑦</text><path class="g7 aligned" style="--gs:7" d="M441,474 Q580,442 594.5,446.25 Q638,459 637.75,525.25 Q637.25,657.75 637,724"/><path class="g7 offset" style="--gs:7" d="M441,570 Q510.5,538 517.75,542.25 Q539.5,555 539.38,597.25 Q539.13,681.75 539,724"/><text class="g8" style="--gs:8" x="429" y="586">⑧</text><path class="g8 aligned" style="--gs:8" d="M429,586 L575,565"/><path class="g8 offset" style="--gs:8" d="M429,682 L575,661"/><text class="g9" style="--gs:9" x="425" y="690">⑨</text><path class="g9 aligned" style="--gs:9" d="M425,690 L615,666"/><path class="g9 offset" style="--gs:9" d="M425,786 L615,762"/><text class="g10" style="--gs:10" x="273" y="752">⑩</text><path class="g10 aligned" style="--gs:10" d="M273,752 L201,917"/><path class="g10 offset" style="--gs:10" d="M393,752 L321,917"/><text class="g11" style="--gs:11" x="388" y="767">⑪</text><path class="g11 aligned" style="--gs:11" d="M388,767 L443,879"/><path class="g11 offset" style="--gs:11" d="M508,767 L563,879"/><text class="g12" style="--gs:12" x="536" y="756">⑫</text><path class="g12 aligned" style="--gs:12" d="M536,756 L613,874"/><path class="g12 offset" style="--gs:12" d="M621.68,687.46 L698.68,805.46"/><text class="g13" style="--gs:13" x="704" y="723">⑬</text><path class="g13 aligned" style="--gs:13" d="M704,723 Q805,823 808.5,831.88 Q829.5,885.13 833,894"/><path class="g13 offset" style="--gs:13" d="M789.68,654.46 Q890.68,754.46 894.18,763.33 Q915.18,816.58 918.68,825.46"/></g>
</svg>
