<svg id="z64084" class="acjk" viewBox="0 0 1024 1024" xmlns="http://www.w3.org/2000/svg">
<style>

@keyframes zk {
	to {
		stroke-dashoffset:0;
	}
}
svg.acjk path[clip-path] {
	--t:0.8s;
	animation:zk var(--t) linear forwards var(--d);
	stroke-dasharray:3337;
	stroke-dashoffset:3339;
	stroke-width:128;
	stroke-linecap:round;
	fill:none;
	stroke:#000;
}
svg.acjk path[id] {fill:#ccc;}


    @keyframes guide-fade {
        0% { opacity: 0; }
        3% { opacity: 1; }
        95% { opacity: 1; }
        100% { opacity: 0; }
    }

    svg.acjk #guide-arrow {
        fill: #f77;
    }

    svg.acjk .guides {
        circle {
            fill: #0f6;
        }

        path {
            opacity: 0;
            animation: guide-fade var(--t) linear forwards var(--d);
            stroke-width: 16px;
            stroke-linecap: round;
            stroke: #f77;
            fill: none;
            marker-end: url(#guide-arrow);
        }

        circle,
        path {
            --t: 0.8s;
            opacity: 0;
            animation: guide-fade calc(var(--t) + 0.4s) ease-in-out forwards calc(var(--d) - 0.2s);
        }
    }
</style>
<path id="z64084d1" d="M386 210C452 194 489 184 496 179C501 174 502 169 499 165C494 158 484 154 469 151C450 147 427 157 392 168C358 179 358 179 341 184C321 190 211 209 210 210C190 214 186 222 202 228C252 245 294 231 340 221C371 214 371 214 386 210Z"/>
<path id="z64084d2" d="M378 262C380 244 383 226 386 210C390 182 390 182 392 168C397 131 403 102 412 81C414 74 409 66 398 58C378 44 360 38 347 35C338 32 331 33 326 39C321 43 320 49 325 58C332 71 338 81 339 92C339 120 341 151 341 184C340 209 340 209 340 221C339 237 338 255 338 274C338 288 375 276 378 262Z"/>
<path id="z64084d3" d="M338 274C304 284 272 291 243 300C232 302 233 308 246 317C252 321 263 322 279 320C347 307 407 296 459 287C473 284 478 278 473 271C466 262 455 256 439 254C424 251 403 254 378 262C351 270 351 270 338 274Z"/>
<path id="z64084d4" d="M193 386C186 372 179 362 172 357C161 349 152 352 154 367C156 391 143 419 110 456C97 469 99 493 117 522C126 537 137 535 146 521C154 506 162 490 170 470C178 446 185 425 193 409C197 402 196 393 193 386Z"/>
<path id="z64084d5" d="M193 409C205 413 227 412 259 402C277 395 331 380 424 363C433 361 469 352 468 371C467 372 458 394 437 434C433 441 431 445 435 448C439 450 446 447 455 442C484 421 512 407 537 401C557 395 566 389 566 384C565 379 546 363 510 336C495 325 457 331 392 345C314 361 267 371 193 386C185 388 185 407 193 409Z"/>
<path id="z64084d6" d="M244 453C225 456 222 464 237 472C253 480 283 481 326 471C346 466 367 459 390 454C400 451 407 449 409 447C413 442 414 437 411 433C406 426 396 422 381 420C365 417 337 426 297 442C281 447 263 448 244 453Z"/>
<path id="z64084d7" d="M331 561C347 556 373 550 399 546C417 542 421 532 411 523C382 497 358 486 342 486C337 486 335 490 334 497C329 518 278 543 181 579C176 580 178 586 181 588C185 590 261 577 302 568C321 563 321 563 331 561Z"/>
<path id="z64084d8" d="M348 656C384 647 424 639 470 634C479 632 484 630 485 625C485 616 480 610 470 606C454 599 438 596 425 600C398 606 373 613 350 619C322 625 322 625 308 628C233 643 164 656 100 665C92 666 87 668 86 674C84 680 87 686 97 693C122 709 147 713 169 706C213 690 252 677 285 670C327 661 327 661 348 656Z"/>
<path id="z64084d9" d="M305 724C302 796 295 841 290 860C284 878 290 902 308 931C314 941 318 948 323 950C328 951 333 947 336 941C342 924 345 907 345 891C342 771 346 674 348 656C349 631 349 631 350 619C351 589 364 578 331 561C322 556 298 559 302 568C306 576 308 596 308 628C306 692 306 692 305 724Z"/>
<path id="z64084d10" d="M285 670C263 728 197 795 89 870C79 876 78 882 88 882C127 878 177 852 206 829C246 795 275 763 305 724C338 682 305 620 285 670Z"/>
<path id="z64084d11" d="M395 744C413 759 431 777 450 796C456 802 464 806 473 806C477 806 481 802 485 795C487 788 486 777 483 761C480 748 469 736 451 728C410 709 384 701 376 705C372 706 372 712 373 718C373 724 381 732 395 744Z"/>
<path id="z64084d12" d="M625 176C621 173 614 170 609 168C598 163 592 163 587 167C580 170 579 177 584 183C601 201 609 255 596 345C591 377 576 415 563 443C561 447 559 450 559 453C558 458 560 460 565 459C581 454 602 429 623 379C641 333 647 281 648 224C648 220 648 214 650 208C653 195 636 184 625 176Z"/>
<path id="z64084d13" d="M650 208C678 197 712 177 738 177C743 176 745 184 745 193C742 225 739 255 735 283C729 317 729 345 736 367C740 381 748 393 762 401C780 410 808 413 845 411C881 408 907 401 925 391C933 385 935 378 928 370C918 358 906 350 894 346C886 342 874 344 861 352C819 375 793 377 781 356C772 341 773 312 780 268C783 241 796 213 823 187C833 176 833 167 823 159C808 146 792 135 775 128C768 125 759 126 749 132C718 147 677 162 625 176C612 179 637 213 650 208Z"/>
<path id="z64084d14" d="M712 736C737 684 754 647 769 586C774 564 781 547 793 536C803 526 801 516 790 507C777 497 760 487 738 481C724 476 710 478 697 486C663 504 622 518 576 526C559 528 547 530 541 535C534 539 538 544 550 550C566 558 586 557 611 550C637 542 664 536 690 529C704 524 712 530 712 547C712 593 704 638 673 701C666 713 660 727 652 739C609 795 550 829 464 858C454 861 452 865 459 870C463 873 474 872 493 870C567 859 630 835 684 777C693 763 704 750 712 736Z"/>
<path id="z64084d15" d="M684 777C710 808 744 845 789 883C806 897 841 900 891 891C941 881 969 876 974 874C979 870 977 863 970 859C960 853 917 839 842 814C800 799 755 775 712 736C699 724 686 712 673 701C648 678 623 651 598 622C586 607 570 599 550 596C543 595 536 595 532 600C528 603 529 609 536 613C563 629 597 674 652 739C662 751 673 764 684 777Z"/>
<defs>
	<clipPath id="z64084c1"><use href="#z64084d1"/></clipPath>
	<clipPath id="z64084c2"><use href="#z64084d2"/></clipPath>
	<clipPath id="z64084c3"><use href="#z64084d3"/></clipPath>
	<clipPath id="z64084c4"><use href="#z64084d4"/></clipPath>
	<clipPath id="z64084c5"><use href="#z64084d5"/></clipPath>
	<clipPath id="z64084c6"><use href="#z64084d6"/></clipPath>
	<clipPath id="z64084c7"><use href="#z64084d7"/></clipPath>
	<clipPath id="z64084c8"><use href="#z64084d8"/></clipPath>
	<clipPath id="z64084c9"><use href="#z64084d9"/></clipPath>
	<clipPath id="z64084c10"><use href="#z64084d10"/></clipPath>
	<clipPath id="z64084c11"><use href="#z64084d11"/></clipPath>
	<clipPath id="z64084c12"><use href="#z64084d12"/></clipPath>
	<clipPath id="z64084c13"><use href="#z64084d13"/></clipPath>
	<clipPath id="z64084c14"><use href="#z64084d14"/></clipPath>
	<clipPath id="z64084c15"><use href="#z64084d15"/></clipPath>
<marker id="guide-arrow" viewBox="0 0 16 16" refX="5" refY="5" markerWidth="4" markerHeight="4" orient="auto-start-reverse"><path d="M 0 0 L 10 5 L 0 10 z" fill="inherit"/></marker></defs>
<path style="--d:1s;" pathLength="3333" clip-path="url(#z64084c1)" d="M201 220L496 168"/>
<path style="--d:2s;" pathLength="3333" clip-path="url(#z64084c2)" d="M330 45L375 86L350 276"/>
<path style="--d:3s;" pathLength="3333" clip-path="url(#z64084c3)" d="M246 308L469 277"/>
<path style="--d:4s;" pathLength="3333" clip-path="url(#z64084c4)" d="M161 358L171 404L123 525"/>
<path style="--d:5s;" pathLength="3333" clip-path="url(#z64084c5)" d="M191 397L482 348L512 388L440 442"/>
<path style="--d:6s;" pathLength="3333" clip-path="url(#z64084c6)" d="M233 460L408 436"/>
<path style="--d:7s;" pathLength="3333" clip-path="url(#z64084c7)" d="M345 490L363 530L186 583"/>
<path style="--d:8s;" pathLength="3333" clip-path="url(#z64084c8)" d="M92 678L155 683L480 619"/>
<path style="--d:9s;" pathLength="3333" clip-path="url(#z64084c9)" d="M312 567L330 599L325 943"/>
<path style="--d:10s;" pathLength="3333" clip-path="url(#z64084c10)" d="M303 655L251 759L90 877"/>
<path style="--d:11s;" pathLength="3333" clip-path="url(#z64084c11)" d="M379 709L455 764L466 802"/>
<path style="--d:12s;" pathLength="3333" clip-path="url(#z64084c12)" d="M589 172L623 206L621 307L565 452"/>
<path style="--d:13s;" pathLength="3333" clip-path="url(#z64084c13)" d="M626 182L744 154L775 165L761 368L808 391L923 368"/>
<path style="--d:14s;" pathLength="3333" clip-path="url(#z64084c14)" d="M544 538L711 504L754 534L702 699L657 771L579 828L462 862"/>
<path style="--d:15s;" pathLength="3333" clip-path="url(#z64084c15)" d="M538 605L803 843L968 866"/>
<g class="guides"><circle style="--d: 1s" class="g1" cx="201" cy="220" r="16"/><path style="--d: 1s;" class="g1" d="M201,316 L496,264"/><circle style="--d: 2s" class="g2" cx="330" cy="45" r="16"/><path style="--d: 2s;" class="g2" d="M234,45 Q279,86 275.875,109.75 Q257.125,252.25 254,276"/><circle style="--d: 3s" class="g3" cx="246" cy="308" r="16"/><path style="--d: 3s;" class="g3" d="M246,404 L469,373"/><circle style="--d: 4s" class="g4" cx="161" cy="358" r="16"/><path style="--d: 4s;" class="g4" d="M281,358 Q291,404 285,419.125 Q249,509.875 243,525"/><circle style="--d: 5s" class="g5" cx="191" cy="397" r="16"/><path style="--d: 5s;" class="g5" d="M191,493 Q373.21495327102804,444 377.91121495327104,454 Q392,484 380.7289719626168,497.5 Q358.1869158878505,524.5 346.9158878504673,538"/><circle style="--d: 6s" class="g6" cx="233" cy="460" r="16"/><path style="--d: 6s;" class="g6" d="M233,556 L408,532"/><circle style="--d: 7s" class="g7" cx="345" cy="490" r="16"/><path style="--d: 7s;" class="g7" d="M249,490 Q258,510 246.9375,513.3125 Q180.5625,533.1875 169.5,536.5"/><circle style="--d: 8s" class="g8" cx="92" cy="678" r="16"/><path style="--d: 8s;" class="g8" d="M92,774 Q155,779 195.625,771 Q439.375,723 480,715"/><circle style="--d: 9s" class="g9" cx="321" cy="583" r="16"/><path style="--d: 9s;" class="g9" d="M441,583 L445,943"/><circle style="--d: 10s" class="g10" cx="303" cy="655" r="16"/><path style="--d: 10s;" class="g10" d="M207,655 Q181,714.027027027027 170.9375,722.3986486486486 Q110.5625,772.6283783783783 100.5,781"/><circle style="--d: 11s" class="g11" cx="379" cy="709" r="16"/><path style="--d: 11s;" class="g11" d="M464.68,640.456 L546.68,714.456"/><circle style="--d: 12s" class="g12" cx="589" cy="172" r="16"/><path style="--d: 12s;" class="g12" d="M493,172 Q527,206 526.5,231.25 Q525,307 511,343.25 Q483,415.75 469,452"/><circle style="--d: 13s" class="g13" cx="626" cy="182" r="16"/><path style="--d: 13s;" class="g13" d="M626,278 Q744,250 759.5,255.5 Q775,261 768,362.5 Q761,464 784.5,475.5 Q808,487 865.5,475.5 Q865.5,475.5 923,464"/><circle style="--d: 14s" class="g14" cx="544" cy="538" r="16"/><path style="--d: 14s;" class="g14" d="M448,634 Q560.0958904109589,617 574.527397260274,624.5 Q588.9589041095891,632 571.5068493150685,673.25 Q554.054794520548,714.5 538.9520547945206,732.5 Q523.8493150684932,750.5 497.67123287671234,764.75 Q471.4931506849315,779 432.2260273972603,787.5 Q432.2260273972603,787.5 392.95890410958907,796"/><circle style="--d: 15s" class="g15" cx="538" cy="605" r="16"/><path style="--d: 15s;" class="g15" d="M623.68,536.456 Q835.8772093023256,749.4194942528736 852.3925581395349,751.9920574712644 Q951.4846511627907,767.4274367816092 968,770"/></g></svg>