<!--
  Stroke-order data for 突, derived from AnimCJK (https://github.com/parsimonhi/animCJK),
  itself derived from the Arphic PL KaitiM fonts. Distributed under the Arphic Public License
  (see ARPHICPL.TXT). Regenerated by scripts/build-strokes.ts — do not edit by hand.
-->
<svg id="z64085" class="acjk" viewBox="0 0 1024 1024" xmlns="http://www.w3.org/2000/svg">
<g class="glyph"><path style="--part:1" id="z64085d1" d="M466 106Q497 128 529 157Q545 170 563 169Q576 168 580 152Q584 134 572 101Q565 80 529 67Q445 46 432 53Q426 57 429 72Q433 85 466 106Z"/><path style="--part:1" id="z64085d2" d="M278 241Q268 216 256 207Q237 191 234 218Q234 257 187 305Q145 338 171 409Q184 439 209 410Q228 385 244 347Q263 301 277 274Q277 273 278 272C283 263 282 251 278 241Z"/><path style="--part:1" id="z64085d3" d="M278 272Q302 284 353 273Q498 231 699 218Q712 218 721 219Q736 232 732 239Q717 284 703 330C704 331 704 331 705 331Q712 335 731 323Q788 286 834 274Q871 262 871 254Q870 244 794 188Q770 170 681 186Q581 196 378 229Q327 236 278 241C268 243 268 268 278 272Z"/><path style="--part:1" id="z64085d4" d="M374 313Q379 327 371 337Q340 391 257 463Q249 467 245 473Q241 480 251 481Q296 481 399 389Q414 373 426 367Q435 360 433 350Q432 340 416 319Q400 300 386 298Q372 297 374 313Z"/><path style="--part:1" id="z64085d5" d="M565 282C564 291 571 317 572 366C572 404 595 426 645 432C673 436 708 433 749 427C770 423 783 418 789 413C796 407 796 401 792 395C784 387 771 380 752 373C741 368 731 370 723 379C711 388 694 394 674 397C653 401 635 400 621 392C615 388 613 380 613 367C613 347 619 334 628 321C634 311 632 301 624 294C617 287 608 281 602 278C572 261 566 272 565 282Z"/><path style="--part:2" id="z64085d6" d="M519 609Q591 602 762 601Q783 600 787 592Q793 580 776 566Q719 523 667 540Q604 552 513 568C472 575 472 575 452 578Q340 593 212 610Q191 611 207 629Q220 642 239 648Q261 654 276 649Q355 627 446 618C495 612 495 612 519 609Z"/><path style="--part:2" id="z64085d7" d="M513 568Q522 510 531 495Q538 488 532 477Q526 470 495 457Q461 439 444 446Q431 452 442 470Q458 522 452 578C448 605 448 605 446 618Q406 766 280 840Q237 862 169 893Q142 906 174 907Q252 914 371 840Q393 822 415 797Q467 740 499 629C508 588 508 588 513 568Z"/><path style="--part:2" id="z64085d8" d="M499 629Q500 630 503 633Q591 760 705 896Q727 918 760 916Q875 910 912 903Q922 900 925 895Q925 889 909 881Q755 820 707 783Q620 713 519 609C506 596 486 616 499 629Z"/><path style="--part:2" id="z64085d9" d="M790 507Q853 570 866 571Q876 571 881 559Q885 546 880 519Q874 492 788 463Q775 459 768 461Q764 465 764 476Q767 486 790 507Z"/></g>
<defs><clipPath id="z64085c1"><use href="#z64085d1"/></clipPath>
	<clipPath id="z64085c2"><use href="#z64085d2"/></clipPath>
	<clipPath id="z64085c3"><use href="#z64085d3"/></clipPath>
	<clipPath id="z64085c4"><use href="#z64085d4"/></clipPath>
	<clipPath id="z64085c5"><use href="#z64085d5"/></clipPath>
	<clipPath id="z64085c6"><use href="#z64085d6"/></clipPath>
	<clipPath id="z64085c7"><use href="#z64085d7"/></clipPath>
	<clipPath id="z64085c8"><use href="#z64085d8"/></clipPath>
	<clipPath id="z64085c9"><use href="#z64085d9"/></clipPath><marker id="guide-arrow" viewBox="0 0 16 16" refX="5" refY="5" markerWidth="4" markerHeight="4" orient="auto-start-reverse"><path d="M 0 0 L 10 5 L 0 10 z" fill="inherit"/></marker></defs>
<g class="strokes"><path style="--part:1" pathLength="3333" clip-path="url(#z64085c1)" d="M435 62L527 106L574 159"/><path style="--part:1" pathLength="3333" clip-path="url(#z64085c2)" d="M244 207L253 254L197 356L187 420"/><path style="--part:1" pathLength="3333" clip-path="url(#z64085c3)" d="M284 251L746 202L817 263L714 325"/><path style="--part:1" pathLength="3333" clip-path="url(#z64085c4)" d="M383 302L401 350L253 475"/><path style="--part:1" pathLength="3333" clip-path="url(#z64085c5)" d="M572 289L599 314L592 373L612 409L789 404"/><path style="--part:2" pathLength="3333" clip-path="url(#z64085c6)" d="M206 616L272 626L695 568L784 586"/><path style="--part:2" pathLength="3333" clip-path="url(#z64085c7)" d="M442 452L493 508L432 725L333 834L167 902"/><path style="--part:2" pathLength="3333" clip-path="url(#z64085c8)" d="M508 619L733 857L919 894"/><path style="--part:2" pathLength="3333" clip-path="url(#z64085c9)" d="M773 470L875 561"/></g>
<g class="guides"><text class="g1" style="--gs:1" x="435" y="62">①</text><path class="g1 aligned" style="--gs:1" d="M435,62 Q527,106 532.88,112.63 Q568.13,152.38 574,159"/><path class="g1 offset" style="--gs:1" d="M520.68,-6.54 Q612.68,37.46 618.55,44.08 Q653.8,83.83 659.68,90.46"/><text class="g2" style="--gs:2" x="244" y="207">②</text><path class="g2 aligned" style="--gs:2" d="M244,207 Q253,254 239,279.5 Q197,356 194.5,372 Q189.5,404 187,420"/><path class="g2 offset" style="--gs:2" d="M364,207 Q373,254 359,279.5 Q317,356 314.5,372 Q309.5,404 307,420"/><text class="g3" style="--gs:3" x="284" y="251">③</text><path class="g3 aligned" style="--gs:3" d="M284,251 Q746,202 763.75,217.25 Q817,263 791.25,278.5 Q739.75,309.5 714,325"/><path class="g3 offset" style="--gs:3" d="M284,347 Q615.11,298 627.84,313.25 Q666,359 647.55,374.5 Q610.64,405.5 592.18,421"/><text class="g4" style="--gs:4" x="383" y="302">④</text><path class="g4 aligned" style="--gs:4" d="M383,302 Q401,350 382.5,365.63 Q271.5,459.38 253,475"/><path class="g4 offset" style="--gs:4" d="M287,302 Q296,326 286.75,333.81 Q231.25,380.69 222,388.5"/><text class="g5" style="--gs:5" x="572" y="289">⑤</text><path class="g5 aligned" style="--gs:5" d="M586,302 Q592,373 597,382 Q612,409 656.25,407.75 Q744.75,405.25 789,404"/><path class="g5 offset" style="--gs:5" d="M706,302 Q709,337.5 711.5,342 Q719,355.5 741.13,354.88 Q785.38,353.63 807.5,353"/><text class="g6" style="--gs:6" x="206" y="616">⑥</text><path class="g6 aligned" style="--gs:6" d="M206,616 Q272,626 377.75,611.5 Q695,568 717.25,572.5 Q761.75,581.5 784,586"/><path class="g6 offset" style="--gs:6" d="M206,712 Q272,722 377.75,707.5 Q695,664 717.25,668.5 Q761.75,677.5 784,682"/><text class="g7" style="--gs:7" x="442" y="452">⑦</text><path class="g7 aligned" style="--gs:7" d="M442,452 Q493,508 462.5,616.5 Q432,725 382.5,779.5 Q333,834 250,868 Q250,868 167,902"/><path class="g7 offset" style="--gs:7" d="M346,452 Q381.98,496.05 360.46,581.41 Q338.94,666.76 304.02,709.63 Q269.1,752.51 210.54,779.25 Q210.54,779.25 151.98,806"/><text class="g8" style="--gs:8" x="508" y="619">⑧</text><path class="g8 aligned" style="--gs:8" d="M508,619 Q733,857 756.25,861.63 Q895.75,889.38 919,894"/><path class="g8 offset" style="--gs:8" d="M593.68,550.46 Q771.77,764.69 790.18,768.86 Q900.6,793.84 919,798"/><text class="g9" style="--gs:9" x="773" y="470">⑨</text><path class="g9 aligned" style="--gs:9" d="M773,470 L875,561"/><path class="g9 offset" style="--gs:9" d="M858.68,401.46 L960.68,492.46"/></g>
<g class="parts"><rect data-part="2" data-literal="犬" role="button" tabindex="0" aria-label="Part 犬" x="95" y="380" width="896" height="594"/><rect data-part="1" data-literal="穴" data-radical="true" role="button" tabindex="0" aria-label="Part 穴 (radical)" x="115" y="0" width="774" height="547"/></g>
</svg>
