<!--
  Stroke-order data for 著, derived from AnimCJK (https://github.com/parsimonhi/animCJK),
  itself derived from the Arphic PL KaitiM fonts. Distributed under the Arphic Public License
  (see ARPHICPL.TXT). Regenerated by scripts/build-strokes.ts — do not edit by hand.
-->
<svg id="z64095" class="acjk" viewBox="0 0 1024 1024" xmlns="http://www.w3.org/2000/svg">
<g class="glyph"><path id="z64095d1" d="M625 191C646 189 693 184 775 190C783 190 792 188 795 182C798 175 794 164 787 158C768 139 743 131 712 131C687 130 665 138 645 142C606 149 606 149 587 152C536 160 484 169 430 176C401 179 401 179 386 181C335 186 280 193 222 200C203 202 198 206 214 217C233 230 273 237 324 228C347 223 369 218 394 215C419 212 419 212 432 210C473 204 555 195 577 194C609 192 609 192 625 191Z"/><path id="z64095d2" d="M430 176C428 149 425 129 426 110C426 97 418 89 408 86C378 74 360 69 348 75C336 79 334 89 346 102C363 123 378 147 386 181C391 204 391 204 394 215C398 232 403 250 416 261C422 267 430 267 433 260C437 243 433 227 432 210C431 187 431 187 430 176Z"/><path id="z64095d3" d="M645 142C650 128 656 111 669 96C678 84 678 75 673 70C663 58 647 47 626 36C609 27 578 29 590 53C597 67 598 102 587 152C580 180 580 180 577 194C567 236 561 259 562 269C562 275 568 279 579 272C587 265 605 239 625 191C638 158 638 158 645 142Z"/><path id="z64095d4" d="M521 399C582 389 614 380 618 378C623 374 624 367 622 363C618 355 606 349 590 344C566 337 547 344 526 350C488 360 488 360 469 365C436 373 373 380 334 383C311 384 306 392 323 403C347 420 378 422 412 416C430 412 450 410 472 407C505 402 505 402 521 399Z"/><path id="z64095d5" d="M512 480C514 449 517 429 521 399C524 366 524 366 526 350C527 334 531 318 538 304C540 297 534 288 523 281C502 269 484 263 471 260C453 256 438 266 451 285C459 297 466 323 469 365C471 393 471 393 472 407C473 432 473 453 473 485C473 498 512 493 512 480Z"/><path id="z64095d6" d="M606 507C646 504 727 501 904 502C916 502 927 499 931 493C935 484 929 473 919 465C880 435 850 426 823 431C771 440 728 453 653 463C598 470 598 470 570 473C557 474 523 478 512 480C486 483 486 483 473 485C363 499 247 508 122 522C107 523 103 529 116 543C136 563 162 573 190 566C278 542 408 520 532 512C581 509 581 509 606 507Z"/><path id="z64095d7" d="M470 631C513 595 575 535 606 507C637 478 637 478 653 463C689 429 733 371 769 351C778 345 786 343 786 336C786 331 781 326 774 321C753 306 731 295 715 290C702 286 693 290 689 302C676 333 651 388 570 473C545 499 545 499 532 512C503 540 443 597 407 628C390 643 390 643 381 650C287 729 173 812 83 865C78 867 76 868 77 873C77 873 80 876 86 875C198 841 301 769 392 695C444 652 444 652 470 631Z"/><path id="z64095d8" d="M715 602C725 610 738 603 741 586C746 544 718 537 666 519C638 509 638 523 645 534C656 550 691 584 715 602Z"/><path id="z64095d9" d="M407 628C397 624 388 622 382 624C373 626 372 631 376 638C377 640 379 644 381 650C388 680 388 680 392 695C396 714 383 816 373 843C363 867 369 889 389 916C394 922 398 926 404 923C413 916 417 905 423 889C426 877 429 865 431 853C433 825 434 795 435 771C436 750 436 750 436 740C437 713 437 680 440 667C443 650 423 634 407 628Z"/><path id="z64095d10" d="M613 872C623 903 630 924 646 951C669 991 687 961 699 934C709 908 713 880 710 850C706 810 700 776 697 707C695 685 701 669 712 656C718 647 719 639 713 633C700 620 676 607 644 591C632 585 622 584 612 590C597 597 515 622 472 629C450 633 429 634 407 628C390 625 423 667 440 667C452 667 497 660 596 639C610 636 622 634 629 642C644 657 645 746 640 818C638 839 636 853 629 857C624 862 610 865 613 872Z"/><path id="z64095d11" d="M435 771C446 774 452 770 572 756C588 754 592 746 587 738C580 726 566 721 549 718C525 714 496 718 436 740C426 743 425 769 435 771Z"/><path id="z64095d12" d="M423 889C436 892 445 886 613 872C620 872 634 863 629 857C624 850 614 841 600 833C589 825 573 826 553 832C511 843 466 847 431 853C419 855 411 887 423 889Z"/></g>
<defs><clipPath id="z64095c1"><use href="#z64095d1"/></clipPath>
	<clipPath id="z64095c2"><use href="#z64095d2"/></clipPath>
	<clipPath id="z64095c3"><use href="#z64095d3"/></clipPath>
	<clipPath id="z64095c4"><use href="#z64095d4"/></clipPath>
	<clipPath id="z64095c5"><use href="#z64095d5"/></clipPath>
	<clipPath id="z64095c6"><use href="#z64095d6"/></clipPath>
	<clipPath id="z64095c7"><use href="#z64095d7"/></clipPath>
	<clipPath id="z64095c8"><use href="#z64095d8"/></clipPath>
	<clipPath id="z64095c9"><use href="#z64095d9"/></clipPath>
	<clipPath id="z64095c10"><use href="#z64095d10"/></clipPath>
	<clipPath id="z64095c11"><use href="#z64095d11"/></clipPath>
	<clipPath id="z64095c12"><use href="#z64095d12"/></clipPath><marker id="guide-arrow" viewBox="0 0 16 16" refX="5" refY="5" markerWidth="4" markerHeight="4" orient="auto-start-reverse"><path d="M 0 0 L 10 5 L 0 10 z" fill="inherit"/></marker></defs>
<g class="strokes"><path pathLength="3333" clip-path="url(#z64095c1)" d="M214 209L698 159L791 176"/><path pathLength="3333" clip-path="url(#z64095c2)" d="M343 85L395 116L424 262"/><path pathLength="3333" clip-path="url(#z64095c3)" d="M595 40L636 81L574 272"/><path pathLength="3333" clip-path="url(#z64095c4)" d="M323 393L618 369"/><path pathLength="3333" clip-path="url(#z64095c5)" d="M453 265L500 308L487 490"/><path pathLength="3333" clip-path="url(#z64095c6)" d="M116 532L184 541L832 465L927 487"/><path pathLength="3333" clip-path="url(#z64095c7)" d="M702 293L732 342L540 537L276 758L85 870"/><path pathLength="3333" clip-path="url(#z64095c8)" d="M646 525L734 594"/><path pathLength="3333" clip-path="url(#z64095c9)" d="M382 632L414 668L398 915"/><path pathLength="3333" clip-path="url(#z64095c10)" d="M409 633L459 648L621 611L668 639L664 965"/><path pathLength="3333" clip-path="url(#z64095c11)" d="M431 760L583 745"/><path pathLength="3333" clip-path="url(#z64095c12)" d="M423 880L625 859"/></g>
<g class="guides"><text class="g1" style="--gs:1" x="214" y="209">①</text><path class="g1 aligned" style="--gs:1" d="M214,209 Q698,159 709.63,161.13 Q779.38,173.88 791,176"/><path class="g1 offset" style="--gs:1" d="M214,305 Q698,255 709.63,257.13 Q779.38,269.88 791,272"/><text class="g2" style="--gs:2" x="343" y="85">②</text><path class="g2 aligned" style="--gs:2" d="M343,85 Q395,116 398.63,134.25 Q420.38,243.75 424,262"/><path class="g2 offset" style="--gs:2" d="M428.68,16.46 Q480.68,47.46 484.31,65.71 Q506.06,175.21 509.68,193.46"/><text class="g3" style="--gs:3" x="595" y="40">③</text><path class="g3 aligned" style="--gs:3" d="M595,40 Q636,81 628.25,104.88 Q581.75,248.13 574,272"/><path class="g3 offset" style="--gs:3" d="M499,40 Q540,81 532.25,104.88 Q485.75,248.13 478,272"/><text class="g4" style="--gs:4" x="323" y="393">④</text><path class="g4 aligned" style="--gs:4" d="M323,393 L618,369"/><path class="g4 offset" style="--gs:4" d="M323,489 L618,465"/><text class="g5" style="--gs:5" x="453" y="265">⑤</text><path class="g5 aligned" style="--gs:5" d="M453,265 Q500,308 498.38,330.75 Q488.63,467.25 487,490"/><path class="g5 offset" style="--gs:5" d="M357,265 Q404,308 402.38,330.75 Q392.63,467.25 391,490"/><text class="g6" style="--gs:6" x="116" y="532">⑥</text><path class="g6 aligned" style="--gs:6" d="M116,532 Q184,541 346,522 Q832,465 855.75,470.5 Q903.25,481.5 927,487"/><path class="g6 offset" style="--gs:6" d="M116,628 Q184,637 346,618 Q832,561 855.75,566.5 Q903.25,577.5 927,583"/><text class="g7" style="--gs:7" x="702" y="293">⑦</text><path class="g7 aligned" style="--gs:7" d="M702,293 Q732,342 636,439.5 Q540,537 408,647.5 Q276,758 180.5,814 Q180.5,814 85,870"/><path class="g7 offset" style="--gs:7" d="M606,293 Q631.55,333.85 549.79,415.13 Q468.04,496.4 355.62,588.52 Q243.21,680.63 161.88,727.32 Q161.88,727.32 80.55,774"/><text class="g8" style="--gs:8" x="646" y="525">⑧</text><path class="g8 aligned" style="--gs:8" d="M646,525 L734,594"/><path class="g8 offset" style="--gs:8" d="M731.68,456.46 L819.68,525.46"/><text class="g9" style="--gs:9" x="382" y="632">⑨</text><path class="g9 aligned" style="--gs:9" d="M382,632 Q414,668 412,698.88 Q400,884.13 398,915"/><path class="g9 offset" style="--gs:9" d="M286,632 Q318,668 316,698.88 Q304,884.13 302,915"/><text class="g10" style="--gs:10" x="409" y="633">⑩</text><path class="g10 aligned" style="--gs:10" d="M409,633 Q459,648 540,629.5 Q621,611 644.5,625 Q668,639 666,802 Q666,802 664,965"/><path class="g10 offset" style="--gs:10" d="M409,729 Q435.83,733.97 479.31,720.48 Q522.78,707 535.39,717.2 Q548,727.41 546.93,846.2 Q546.93,846.2 545.85,965"/><text class="g11" style="--gs:11" x="431" y="760">⑪</text><path class="g11 aligned" style="--gs:11" d="M431,760 L583,745"/><path class="g11 offset" style="--gs:11" d="M431,856 L583,841"/><text class="g12" style="--gs:12" x="423" y="880">⑫</text><path class="g12 aligned" style="--gs:12" d="M423,880 L625,859"/><path class="g12 offset" style="--gs:12" d="M423,976 L625,955"/></g>
</svg>
