<!--
  Stroke-order data for 逸, derived from AnimCJK (https://github.com/parsimonhi/animCJK),
  itself derived from the Arphic PL KaitiM fonts. Distributed under the Arphic Public License
  (see ARPHICPL.TXT). Regenerated by scripts/build-strokes.ts — do not edit by hand.
-->
<svg id="z64103" class="acjk" viewBox="0 0 1024 1024" xmlns="http://www.w3.org/2000/svg">
<g class="glyph"><path id="z64103d1" d="M542 178C583 133 603 107 604 105C604 102 603 100 603 99C602 92 595 80 580 67C566 55 554 49 544 49C533 48 528 55 533 67C536 77 537 87 533 97C508 146 468 203 412 264C406 269 402 272 401 276C398 282 401 284 409 284C429 282 472 253 530 191C538 182 538 182 542 178Z"/><path id="z64103d2" d="M589 319C668 234 685 212 723 193C733 186 735 180 729 173C721 164 706 154 684 142C675 137 666 139 657 145C614 161 583 168 542 178C536 179 525 187 530 191C540 201 572 199 629 188C642 184 642 192 638 201C617 244 591 281 567 324C563 330 584 325 589 319Z"/><path id="z64103d3" d="M428 348C415 342 393 337 381 336C372 335 368 335 367 338C363 343 363 349 369 359C387 392 403 437 414 492C417 508 421 522 432 534C443 546 451 548 454 539C455 534 457 529 457 524C456 514 456 503 455 494C452 476 446 449 435 377C433 367 437 352 428 348Z"/><path id="z64103d4" d="M725 455C743 405 765 374 788 358C800 348 801 334 792 324C783 314 761 301 730 285C719 279 706 279 693 284C656 297 622 311 589 319C574 322 574 322 567 324C520 334 469 342 428 348C418 350 426 380 435 377C447 372 478 366 530 356C557 351 557 351 570 348C649 332 693 321 703 331C712 340 701 380 675 448C669 464 719 471 725 455Z"/><path id="z64103d5" d="M567 506C611 498 666 490 733 484C739 483 743 480 744 475C744 470 737 463 725 455C711 446 692 445 675 448C664 451 604 464 576 471C545 478 545 478 530 481C503 486 478 490 455 494C445 496 447 526 457 524C459 524 480 521 521 514C552 509 552 509 567 506Z"/><path id="z64103d6" d="M521 514C501 585 447 658 377 741C373 745 374 749 378 750C382 751 387 749 393 746C443 711 483 670 515 620C536 581 557 543 567 506C573 483 573 483 576 471C579 457 581 442 585 429C589 412 594 395 601 379C603 372 603 366 599 362C595 357 585 353 570 348C557 343 525 343 530 356C546 394 539 446 530 481C524 503 524 503 521 514Z"/><path id="z64103d7" d="M909 711C900 695 888 663 877 616C874 607 873 601 869 598C865 595 862 600 860 611C847 663 837 699 826 714C809 735 754 741 718 741C691 740 647 734 636 708C626 685 626 637 641 565C644 548 632 533 604 522C597 519 591 519 586 523C582 525 581 531 584 541C590 563 593 585 592 607C589 667 590 706 595 725C598 737 604 750 617 760C663 796 736 803 834 781C834 780 836 780 839 780C861 773 884 763 905 748C916 739 916 725 909 711Z"/><path id="z64103d8" d="M698 543C725 579 745 599 760 602C766 603 773 598 777 588C779 581 777 571 772 561C763 542 738 529 702 521C697 519 694 522 693 529C692 533 694 538 698 543Z"/><path id="z64103d9" d="M317 162C325 170 334 174 345 174C352 173 359 170 362 161C365 151 362 136 358 118C352 99 321 81 264 66C254 63 246 62 242 65C238 66 235 73 238 82C242 95 291 136 317 162Z"/><path id="z64103d10" d="M227 272C243 286 259 302 277 320C285 328 294 332 305 332C312 331 319 328 322 319C325 309 322 294 318 276C312 257 281 239 224 224C214 221 206 220 202 223C198 224 196 231 198 240C199 247 210 257 227 272Z"/><path id="z64103d11" d="M288 744C294 739 299 732 301 722C305 698 293 663 268 619C247 584 259 541 300 487C305 479 310 471 318 465C332 452 332 441 319 431C304 420 285 412 263 402C248 395 230 404 201 424C150 457 114 468 99 467C94 466 91 467 90 472C89 474 91 478 97 481C121 491 161 484 216 461C222 458 227 460 234 467C248 481 249 499 234 518C203 553 204 590 232 640C257 685 263 721 261 743C261 752 281 749 288 744Z"/><path id="z64103d12" d="M261 743C241 743 202 746 172 758C148 766 120 774 85 779C80 779 76 782 75 788C73 792 76 798 82 805C93 817 108 826 124 833C132 836 142 833 154 824C196 787 241 773 288 781C334 789 405 813 500 854C592 894 685 921 777 936C813 941 865 920 935 872C949 861 949 856 934 857C771 862 637 849 530 819C477 803 419 785 356 761C333 752 320 748 288 744C279 742 269 742 261 743Z"/></g>
<defs><clipPath id="z64103c1"><use href="#z64103d1"/></clipPath>
	<clipPath id="z64103c2"><use href="#z64103d2"/></clipPath>
	<clipPath id="z64103c3"><use href="#z64103d3"/></clipPath>
	<clipPath id="z64103c4"><use href="#z64103d4"/></clipPath>
	<clipPath id="z64103c5"><use href="#z64103d5"/></clipPath>
	<clipPath id="z64103c6"><use href="#z64103d6"/></clipPath>
	<clipPath id="z64103c7"><use href="#z64103d7"/></clipPath>
	<clipPath id="z64103c8"><use href="#z64103d8"/></clipPath>
	<clipPath id="z64103c9"><use href="#z64103d9"/></clipPath>
	<clipPath id="z64103c10"><use href="#z64103d10"/></clipPath>
	<clipPath id="z64103c11"><use href="#z64103d11"/></clipPath>
	<clipPath id="z64103c12"><use href="#z64103d12"/></clipPath><marker id="guide-arrow" viewBox="0 0 16 16" refX="5" refY="5" markerWidth="4" markerHeight="4" orient="auto-start-reverse"><path d="M 0 0 L 10 5 L 0 10 z" fill="inherit"/></marker></defs>
<g class="strokes"><path pathLength="3333" clip-path="url(#z64103c1)" d="M540 56L567 102L408 279"/><path pathLength="3333" clip-path="url(#z64103c2)" d="M537 189L654 163L685 189L573 320"/><path pathLength="3333" clip-path="url(#z64103c3)" d="M373 344L405 366L447 538"/><path pathLength="3333" clip-path="url(#z64103c4)" d="M429 361L714 307L752 343L691 460"/><path pathLength="3333" clip-path="url(#z64103c5)" d="M451 507L739 468"/><path pathLength="3333" clip-path="url(#z64103c6)" d="M537 355L570 386L535 536L477 642L381 743"/><path pathLength="3333" clip-path="url(#z64103c7)" d="M590 531L616 566L618 724L675 761L788 762L867 726L868 603"/><path pathLength="3333" clip-path="url(#z64103c8)" d="M700 529L771 592"/><path pathLength="3333" clip-path="url(#z64103c9)" d="M242 74L323 123L349 170"/><path pathLength="3333" clip-path="url(#z64103c10)" d="M203 230L316 320"/><path pathLength="3333" clip-path="url(#z64103c11)" d="M98 474L233 430L285 460L235 565L279 701L273 744"/><path pathLength="3333" clip-path="url(#z64103c12)" d="M80 791L133 802L272 760L745 892L829 893L933 862"/></g>
<g class="guides"><text class="g1" style="--gs:1" x="540" y="56">①</text><path class="g1 aligned" style="--gs:1" d="M540,56 Q567,102 547.13,124.13 Q427.88,256.88 408,279"/><path class="g1 offset" style="--gs:1" d="M444,56 Q457.5,82.2 447.56,94.8 Q387.94,170.4 378,183"/><text class="g2" style="--gs:2" x="537" y="189">②</text><path class="g2 aligned" style="--gs:2" d="M537,189 Q654,163 661.75,169.5 Q685,189 657,221.75 Q601,287.25 573,320"/><path class="g2 offset" style="--gs:2" d="M537,285 Q595.5,259 599.38,265.5 Q611,285 597,317.75 Q569,383.25 555,416"/><text class="g3" style="--gs:3" x="373" y="344">③</text><path class="g3 aligned" style="--gs:3" d="M389,355 L447,538"/><path class="g3 offset" style="--gs:3" d="M509,355 L567,538"/><text class="g4" style="--gs:4" x="429" y="361">④</text><path class="g4 aligned" style="--gs:4" d="M429,361 Q714,307 723.5,316 Q752,343 736.75,372.25 Q706.25,430.75 691,460"/><path class="g4 offset" style="--gs:4" d="M429,457 Q608.12,403 614.09,412 Q632,439 622.42,449.13 Q603.25,469.38 593.66,479.5"/><text class="g5" style="--gs:5" x="451" y="507">⑤</text><path class="g5 aligned" style="--gs:5" d="M451,507 L739,468"/><path class="g5 offset" style="--gs:5" d="M451,603 L739,564"/><text class="g6" style="--gs:6" x="537" y="355">⑥</text><path class="g6 aligned" style="--gs:6" d="M537,355 Q570,386 552.5,461 Q535,536 506,589 Q477,642 429,692.5 Q429,692.5 381,743"/><path class="g6 offset" style="--gs:6" d="M441,355 Q457.5,378.33 448.75,434.77 Q440,491.22 425.5,531.1 Q411,570.99 387,608.99 Q387,608.99 363,647"/><text class="g7" style="--gs:7" x="590" y="531">⑦</text><path class="g7 aligned" style="--gs:7" d="M590,531 Q616,566 617,645 Q618,724 646.5,742.5 Q675,761 731.5,761.5 Q788,762 827.5,744 Q867,726 867.5,664.5 Q867.5,664.5 868,603"/><path class="g7 offset" style="--gs:7" d="M658.54,462.46 Q671.54,497.46 672.04,576.46 Q672.54,655.46 686.79,673.96 Q701.04,692.46 729.29,692.96 Q757.54,693.46 777.29,675.46 Q797.04,657.46 797.29,595.96 Q797.29,595.96 797.54,534.46"/><text class="g8" style="--gs:8" x="700" y="529">⑧</text><path class="g8 aligned" style="--gs:8" d="M700,529 L771,592"/><path class="g8 offset" style="--gs:8" d="M785.68,460.46 L856.68,523.46"/><text class="g9" style="--gs:9" x="242" y="74">⑨</text><path class="g9 aligned" style="--gs:9" d="M242,74 Q323,123 326.25,128.88 Q345.75,164.13 349,170"/><path class="g9 offset" style="--gs:9" d="M327.68,5.46 Q408.68,54.46 411.93,60.33 Q431.43,95.58 434.68,101.46"/><text class="g10" style="--gs:10" x="203" y="230">⑩</text><path class="g10 aligned" style="--gs:10" d="M203,230 L316,320"/><path class="g10 offset" style="--gs:10" d="M288.68,161.46 L401.68,251.46"/><text class="g11" style="--gs:11" x="98" y="474">⑪</text><path class="g11 aligned" style="--gs:11" d="M98,474 Q233,430 259,445 Q285,460 260,512.5 Q235,565 257,633 Q279,701 276,722.5 Q276,722.5 273,744"/><path class="g11 offset" style="--gs:11" d="M98,570 Q165.5,526 178.5,541 Q191.5,556 179,587.86 Q166.5,619.73 177.5,666.94 Q188.5,714.15 187,729.07 Q187,729.07 185.5,744"/><text class="g12" style="--gs:12" x="80" y="791">⑫</text><path class="g12 aligned" style="--gs:12" d="M80,791 Q133,802 202.5,781 Q272,760 508.5,826 Q745,892 787,892.5 Q829,893 881,877.5 Q881,877.5 933,862"/><path class="g12 offset" style="--gs:12" d="M80,887 Q133,898 202.5,877 Q272,856 508.5,922 Q745,988 787,988.5 Q829,989 881,973.5 Q881,973.5 933,958"/></g>
</svg>
