<svg id="z131275" class="acjk" viewBox="0 0 1024 1024" xmlns="http://www.w3.org/2000/svg">
<style>

@keyframes zk {
	to {
		stroke-dashoffset:0;
	}
}
svg.acjk path[clip-path] {
	--t:0.8s;
	animation:zk var(--t) linear forwards var(--d);
	stroke-dasharray:3337;
	stroke-dashoffset:3339;
	stroke-width:128;
	stroke-linecap:round;
	fill:none;
	stroke:#000;
}
svg.acjk path[id] {fill:#ccc;}


    @keyframes guide-fade {
        0% { opacity: 0; }
        3% { opacity: 1; }
        95% { opacity: 1; }
        100% { opacity: 0; }
    }

    svg.acjk #guide-arrow {
        fill: #f77;
    }

    svg.acjk .guides {
        circle {
            fill: #0f6;
        }

        path {
            opacity: 0;
            animation: guide-fade var(--t) linear forwards var(--d);
            stroke-width: 16px;
            stroke-linecap: round;
            stroke: #f77;
            fill: none;
            marker-end: url(#guide-arrow);
        }

        circle,
        path {
            --t: 0.8s;
            opacity: 0;
            animation: guide-fade calc(var(--t) + 0.4s) ease-in-out forwards calc(var(--d) - 0.2s);
        }
    }
</style>
<path id="z131275d1" d="M727 698C699 695 513 697 378 696C353 695 349 688 362 672C440 567 515 444 588 368C600 355 605 345 605 339C603 326 589 306 561 278C548 265 535 259 520 261C510 261 506 269 511 283C522 319 507 379 373 578C350 610 323 649 281 679C264 690 255 699 257 709C259 725 265 741 276 757C283 767 293 768 304 764C333 750 702 732 727 730C786 723 782 702 727 698Z"/>
<defs>
	<clipPath id="z131275c1"><use href="#z131275d1"/></clipPath>
<marker id="guide-arrow" viewBox="0 0 16 16" refX="5" refY="5" markerWidth="4" markerHeight="4" orient="auto-start-reverse"><path d="M 0 0 L 10 5 L 0 10 z" fill="inherit"/></marker></defs>
<path style="--d:1s;" pathLength="3333" clip-path="url(#z131275c1)" d="M518 271L555 343L309 710L325 730L763 711"/>
<g class="guides"><circle style="--d: 1s" class="g1" cx="518" cy="271" r="16"/><path style="--d: 1s;" class="g1" d="M638,271 Q665.2202643171806,327.94117647058823 574.7312775330397,473.062091503268 Q484.24229074889865,618.1830065359477 490.1277533039647,626.0915032679738 Q496.0132158590308,634 657.1277533039647,626.4869281045751 Q657.1277533039647,626.4869281045751 818.2422907488987,618.9738562091503"/></g></svg>