<!--
  Stroke-order data for 𠃛, derived from AnimCJK (https://github.com/parsimonhi/animCJK),
  itself derived from the Arphic PL KaitiM fonts. Distributed under the Arphic Public License
  (see ARPHICPL.TXT). Regenerated by scripts/build-strokes.ts — do not edit by hand.
-->
<svg id="z131291" class="acjk" viewBox="0 0 1024 1024" xmlns="http://www.w3.org/2000/svg">
<g class="glyph"><path id="z131291d1" d="M355 173C340 159 323 149 306 143C290 138 290 153 294 162C316 206 322 279 316 380C315 409 320 433 326 451C340 492 358 485 369 447C372 435 370 423 370 411C368 380 367 364 367 327C367 309 367 309 367 300C367 265 367 234 369 206C369 194 365 180 355 173Z"/><path id="z131291d2" d="M648 414C655 610 649 712 643 765C640 795 635 818 606 811C587 806 568 802 549 797C515 789 537 808 549 820C580 848 605 873 622 895C634 911 657 933 672 915C702 880 718 843 716 802C709 650 702 516 701 269C700 226 703 195 714 176C722 162 724 151 714 143C699 130 677 118 649 106C634 100 622 109 568 127C527 142 402 165 355 173C343 175 357 208 369 206C402 200 549 168 600 157C640 148 642 204 643 226C645 281 645 334 647 385C648 404 648 404 648 414Z"/><path id="z131291d3" d="M367 327C383 333 402 324 586 292C602 290 607 284 601 275C594 266 582 260 565 258C542 254 406 283 367 300C359 303 358 325 367 327Z"/><path id="z131291d4" d="M369 447C387 454 419 436 648 414C657 412 655 390 647 385C598 350 599 378 370 411C358 413 357 445 369 447Z"/></g>
<defs><clipPath id="z131291c1"><use href="#z131291d1"/></clipPath>
	<clipPath id="z131291c2"><use href="#z131291d2"/></clipPath>
	<clipPath id="z131291c3"><use href="#z131291d3"/></clipPath>
	<clipPath id="z131291c4"><use href="#z131291d4"/></clipPath><marker id="guide-arrow" viewBox="0 0 16 16" refX="5" refY="5" markerWidth="4" markerHeight="4" orient="auto-start-reverse"><path d="M 0 0 L 10 5 L 0 10 z" fill="inherit"/></marker></defs>
<g class="strokes"><path pathLength="3333" clip-path="url(#z131291c1)" d="M299 148L340 209L346 471"/><path pathLength="3333" clip-path="url(#z131291c2)" d="M356 183L622 131L679 169L674 819L639 871L540 803"/><path pathLength="3333" clip-path="url(#z131291c3)" d="M366 317L597 280"/><path pathLength="3333" clip-path="url(#z131291c4)" d="M366 435L650 400"/></g>
<g class="guides"><text class="g1" style="--gs:1" x="299" y="148">①</text><path class="g1 aligned" style="--gs:1" d="M299,148 Q340,209 340.75,241.75 Q345.25,438.25 346,471"/><path class="g1 offset" style="--gs:1" d="M384.68,79.46 Q425.68,140.46 426.43,173.21 Q430.93,369.71 431.68,402.46"/><text class="g2" style="--gs:2" x="356" y="183">②</text><path class="g2 aligned" style="--gs:2" d="M356,183 Q622,131 650.5,150 Q679,169 676.5,494 Q674,819 656.5,845 Q639,871 589.5,837 Q589.5,837 540,803"/><path class="g2 offset" style="--gs:2" d="M356,279 Q542.94,227 562.97,246 Q583,265 581.24,491.45 Q579.49,717.9 567.19,736.45 Q554.89,755 520.1,730.74 Q520.1,730.74 485.31,706.48"/><text class="g3" style="--gs:3" x="366" y="317">③</text><path class="g3 aligned" style="--gs:3" d="M366,317 L597,280"/><path class="g3 offset" style="--gs:3" d="M366,413 L597,376"/><text class="g4" style="--gs:4" x="366" y="435">④</text><path class="g4 aligned" style="--gs:4" d="M366,435 L650,400"/><path class="g4 offset" style="--gs:4" d="M366,531 L650,496"/></g>
</svg>
