<!--
  Stroke-order data for 𠄎, derived from AnimCJK (https://github.com/parsimonhi/animCJK),
  itself derived from the Arphic PL KaitiM fonts. Distributed under the Arphic Public License
  (see ARPHICPL.TXT). Regenerated by scripts/build-strokes.ts — do not edit by hand.
-->
<svg id="z131342" class="acjk" viewBox="0 0 1024 1024" xmlns="http://www.w3.org/2000/svg">
<g class="glyph"><path id="z131342d1" d="M723 439C778 439 768 461 753 525C737 594 701 722 665 776C630 830 609 814 532 779C495 762 501 776 515 793C545 830 570 859 581 881C591 901 597 914 608 918C615 920 633 919 649 909C691 884 723 850 745 807C770 755 798 669 835 525C839 508 844 492 863 480C873 471 873 460 869 454C854 437 832 420 803 402C780 389 780 402 668 404C646 404 626 391 639 372C676 308 700 267 737 225C753 206 768 193 786 186C797 181 801 174 801 168C799 153 770 134 721 108C705 99 686 102 670 109C637 121 609 131 583 138C527 151 487 161 364 183C327 189 288 194 245 197C216 199 215 212 228 225C251 247 281 257 310 249C415 218 476 200 594 180C618 175 693 160 677 199C628 307 586 369 554 398C544 406 541 411 548 426C553 441 561 453 574 458C581 460 592 455 604 452C631 442 660 438 723 439Z"/></g>
<defs><clipPath id="z131342c1"><use href="#z131342d1"/></clipPath><marker id="guide-arrow" viewBox="0 0 16 16" refX="5" refY="5" markerWidth="4" markerHeight="4" orient="auto-start-reverse"><path d="M 0 0 L 10 5 L 0 10 z" fill="inherit"/></marker></defs>
<g class="strokes"><path pathLength="3333" clip-path="url(#z131342c1)" d="M225 210L292 222L681 140L744 175L590 401L626 426L774 422L811 455L730 737L677 830L621 864L512 777"/></g>
<g class="guides"><text class="g1" style="--gs:1" x="225" y="210">①</text><path class="g1 aligned" style="--gs:1" d="M225,210 Q292,222 486.5,181 Q681,140 712.5,157.5 Q744,175 667,288 Q590,401 608,413.5 Q626,426 700,424 Q774,422 792.5,438.5 Q811,455 770.5,596 Q730,737 703.5,783.5 Q677,830 649,847 Q621,864 566.5,820.5 Q566.5,820.5 512,777"/><path class="g1 offset" style="--gs:1" d="M225,306 Q281.02,291.84 443.66,263.92 Q606.3,236 632.64,253.5 Q658.98,271 594.59,342.36 Q530.2,413.73 545.26,422.24 Q560.31,430.75 622.18,429.39 Q684.06,428.02 699.53,439.26 Q715,450.5 681.13,546.51 Q647.27,642.52 625.11,674.18 Q602.95,705.85 579.54,717.42 Q556.13,729 510.55,699.38 Q510.55,699.38 464.98,669.76"/></g>
</svg>
