<!--
  Stroke-order data for 𠔾, derived from AnimCJK (https://github.com/parsimonhi/animCJK),
  itself derived from the Arphic PL KaitiM fonts. Distributed under the Arphic Public License
  (see ARPHICPL.TXT). Regenerated by scripts/build-strokes.ts — do not edit by hand.
-->
<svg id="z132414" class="acjk" viewBox="0 0 1024 1024" xmlns="http://www.w3.org/2000/svg">
<g class="glyph"><path style="--part:1" id="z132414d1" d="M417 257C503 165 553 115 565 108C577 99 579 88 570 79C559 67 542 61 524 55C506 49 494 48 486 51C477 54 475 58 480 68C486 85 449 172 400 248C397 253 413 262 417 257Z"/><path style="--part:2" id="z132414d2" d="M400 248C375 237 359 234 351 236C337 238 337 246 347 262C369 297 378 381 367 511C365 534 365 534 364 546C354 655 312 783 187 892C177 900 171 906 170 912C168 916 172 918 180 918C206 917 248 890 301 830C354 768 398 666 413 541C416 518 416 518 417 507C423 452 422 389 426 319C426 306 430 295 431 287C433 277 428 266 420 260C419 259 418 258 417 257C413 252 406 250 400 248Z"/><path style="--part:2" id="z132414d3" d="M431 287C460 280 544 263 584 258C598 255 608 256 612 266C617 277 621 295 623 317C626 375 630 431 632 484C633 512 633 512 633 526C637 716 637 824 625 847C622 852 610 851 597 849C573 844 551 840 528 836C513 833 504 837 509 841C553 876 594 901 620 927C631 938 640 947 651 951C657 953 664 951 670 944C696 906 708 869 706 833C699 747 692 645 687 525C686 493 686 493 685 477C683 440 683 402 682 364C680 323 683 293 694 276C702 261 702 251 694 244C679 231 658 219 632 209C619 204 607 203 596 209C547 232 489 246 420 260C410 262 421 289 431 287Z"/><path style="--part:3" id="z132414d4" d="M413 541C469 535 542 527 633 526C669 525 669 525 687 525C759 523 836 524 918 529C932 529 942 526 946 520C950 511 946 500 935 491C892 458 847 451 800 460C765 466 727 471 685 477C650 482 650 482 632 484C594 489 449 504 417 507C384 510 384 510 367 511C286 517 202 524 115 532C99 533 95 539 108 553C116 563 128 571 143 576C156 580 171 581 184 578C240 563 300 552 364 546C397 543 397 543 413 541Z"/></g>
<defs><clipPath id="z132414c1"><use href="#z132414d1"/></clipPath>
	<clipPath id="z132414c2"><use href="#z132414d2"/></clipPath>
	<clipPath id="z132414c3"><use href="#z132414d3"/></clipPath>
	<clipPath id="z132414c4"><use href="#z132414d4"/></clipPath><marker id="guide-arrow" viewBox="0 0 16 16" refX="5" refY="5" markerWidth="4" markerHeight="4" orient="auto-start-reverse"><path d="M 0 0 L 10 5 L 0 10 z" fill="inherit"/></marker></defs>
<g class="strokes"><path style="--part:1" pathLength="3333" clip-path="url(#z132414c1)" d="M483 59L522 104L408 252"/><path style="--part:2" pathLength="3333" clip-path="url(#z132414c2)" d="M347 243L397 294L376 619L307 786L175 910"/><path style="--part:2" pathLength="3333" clip-path="url(#z132414c3)" d="M424 266L607 231L658 268L663 864L634 900L515 839"/><path style="--part:3" pathLength="3333" clip-path="url(#z132414c4)" d="M109 542L173 553L802 491L943 505"/></g>
<g class="guides"><text class="g1" style="--gs:1" x="483" y="59">①</text><path class="g1 aligned" style="--gs:1" d="M483,59 Q522,104 507.75,122.5 Q422.25,233.5 408,252"/><path class="g1 offset" style="--gs:1" d="M387,59 Q406.5,81.62 399.38,90.91 Q356.63,146.7 349.5,156"/><text class="g2" style="--gs:2" x="347" y="243">②</text><path class="g2 aligned" style="--gs:2" d="M347,243 Q397,294 386.5,456.5 Q376,619 341.5,702.5 Q307,786 241,848 Q241,848 175,910"/><path class="g2 offset" style="--gs:2" d="M251,243 Q279.38,286.66 273.42,425.77 Q267.46,564.88 247.88,636.37 Q228.3,707.85 190.84,760.92 Q190.84,760.92 153.38,814"/><text class="g3" style="--gs:3" x="424" y="266">③</text><path class="g3 aligned" style="--gs:3" d="M424,266 Q607,231 632.5,249.5 Q658,268 660.5,566 Q663,864 648.5,882 Q634,900 574.5,869.5 Q574.5,869.5 515,839"/><path class="g3 offset" style="--gs:3" d="M424,362 Q515.5,327 528.25,345.5 Q541,364 542.25,662 Q543.5,960 536.25,978 Q529,996 499.25,965.5 Q499.25,965.5 469.5,935"/><text class="g4" style="--gs:4" x="109" y="542">④</text><path class="g4 aligned" style="--gs:4" d="M109,542 Q173,553 330.25,537.5 Q802,491 837.25,494.5 Q907.75,501.5 943,505"/><path class="g4 offset" style="--gs:4" d="M109,638 Q173,649 330.25,633.5 Q802,587 837.25,590.5 Q907.75,597.5 943,601"/></g>
<g class="parts"><rect data-part="2" data-literal="⺆" data-radical="true" role="button" tabindex="0" aria-label="Part ⺆ (radical)" x="103" y="159" width="632" height="823"/><rect data-part="3" data-literal="一" role="button" tabindex="0" aria-label="Part 一" x="37" y="419" width="978" height="206"/><rect data-part="1" data-literal="丿" role="button" tabindex="0" aria-label="Part 丿" x="336" y="0" width="258" height="324"/></g>
</svg>
