<!--
  Stroke-order data for 𠘨, derived from AnimCJK (https://github.com/parsimonhi/animCJK),
  itself derived from the Arphic PL KaitiM fonts. Distributed under the Arphic Public License
  (see ARPHICPL.TXT). Regenerated by scripts/build-strokes.ts — do not edit by hand.
-->
<svg id="z132648" class="acjk" viewBox="0 0 1024 1024" xmlns="http://www.w3.org/2000/svg">
<g class="glyph"><path style="--part:1" id="z132648d1" d="M305 176C287 162 259 151 243 152C207 153 222 168 230 179C257 219 267 309 257 460C246 616 176 745 85 845C76 855 58 870 55 880C53 884 59 888 68 886C79 882 87 879 102 870C214 789 273 649 297 535C318 427 308 239 312 218C315 204 316 185 305 176Z"/><path style="--part:2" id="z132648d2" d="M312 218C438 190 557 172 666 160C696 157 711 171 708 200C651 604 713 835 896 912C911 918 947 930 958 916C963 908 965 891 965 873C962 820 962 772 964 728C965 688 957 690 944 728C933 757 924 776 912 803C894 839 848 801 836 786C716 641 729 465 751 312C761 236 780 196 802 177C812 167 811 157 797 144C780 130 756 114 738 106C724 99 718 101 706 107C675 121 439 158 305 176C291 178 298 221 312 218Z"/></g>
<defs><clipPath id="z132648c1"><use href="#z132648d1"/></clipPath>
	<clipPath id="z132648c2"><use href="#z132648d2"/></clipPath><marker id="guide-arrow" viewBox="0 0 16 16" refX="5" refY="5" markerWidth="4" markerHeight="4" orient="auto-start-reverse"><path d="M 0 0 L 10 5 L 0 10 z" fill="inherit"/></marker></defs>
<g class="strokes"><path style="--part:1" pathLength="3333" clip-path="url(#z132648c1)" d="M229 163L281 210L265 565L187 748L62 879"/><path style="--part:2" pathLength="3333" clip-path="url(#z132648c2)" d="M299 191L728 141L757 178L725 289L712 508L752 709L822 821L903 867L934 863L959 709"/></g>
<g class="guides"><text class="g1" style="--gs:1" x="229" y="163">①</text><path class="g1 aligned" style="--gs:1" d="M229,163 Q281,210 273,387.5 Q265,565 226,656.5 Q187,748 124.5,813.5 Q124.5,813.5 62,879"/><path class="g1 offset" style="--gs:1" d="M133,163 Q162.21,203.7 157.71,357.4 Q153.22,511.1 131.32,590.33 Q109.41,669.56 74.31,726.28 Q74.31,726.28 39.21,783"/><text class="g2" style="--gs:2" x="299" y="191">②</text><path class="g2 aligned" style="--gs:2" d="M299,191 Q728,141 742.5,159.5 Q757,178 741,233.5 Q725,289 718.5,398.5 Q712,508 732,608.5 Q752,709 787,765 Q822,821 862.5,844 Q903,867 918.5,865 Q934,863 946.5,786 Q946.5,786 959,709"/><path class="g2 offset" style="--gs:2" d="M299,287 Q650,250.22 661.86,263.83 Q673.73,277.44 660.64,318.26 Q647.55,359.08 642.23,439.62 Q636.91,520.17 653.27,594.09 Q669.64,668.01 698.27,709.2 Q726.91,750.39 760.05,767.31 Q793.18,784.22 805.86,782.75 Q818.55,781.28 828.77,724.64 Q828.77,724.64 839,668.01"/></g>
<g class="parts"><rect data-part="2" data-literal="⺄" role="button" tabindex="0" aria-label="Part ⺄" x="227" y="69" width="797" height="870"/><rect data-part="1" data-literal="丿" role="button" tabindex="0" aria-label="Part 丿" x="0" y="91" width="353" height="860"/></g>
</svg>
