<svg id="z132648" class="acjk" viewBox="0 0 1024 1024" xmlns="http://www.w3.org/2000/svg">
<style>

@keyframes zk {
	to {
		stroke-dashoffset:0;
	}
}
svg.acjk path[clip-path] {
	--t:0.8s;
	animation:zk var(--t) linear forwards var(--d);
	stroke-dasharray:3337;
	stroke-dashoffset:3339;
	stroke-width:128;
	stroke-linecap:round;
	fill:none;
	stroke:#000;
}
svg.acjk path[id] {fill:#ccc;}


    @keyframes guide-fade {
        0% { opacity: 0; }
        3% { opacity: 1; }
        95% { opacity: 1; }
        100% { opacity: 0; }
    }

    svg.acjk #guide-arrow {
        fill: #f77;
    }

    svg.acjk .guides {
        circle {
            fill: #0f6;
        }

        path {
            opacity: 0;
            animation: guide-fade var(--t) linear forwards var(--d);
            stroke-width: 16px;
            stroke-linecap: round;
            stroke: #f77;
            fill: none;
            marker-end: url(#guide-arrow);
        }

        circle,
        path {
            --t: 0.8s;
            opacity: 0;
            animation: guide-fade calc(var(--t) + 0.4s) ease-in-out forwards calc(var(--d) - 0.2s);
        }
    }
</style>
<path id="z132648d1" d="M305 176C287 162 259 151 243 152C207 153 222 168 230 179C257 219 267 309 257 460C246 616 176 745 85 845C76 855 58 870 55 880C53 884 59 888 68 886C79 882 87 879 102 870C214 789 273 649 297 535C318 427 308 239 312 218C315 204 316 185 305 176Z"/>
<path id="z132648d2" d="M312 218C438 190 557 172 666 160C696 157 711 171 708 200C651 604 713 835 896 912C911 918 947 930 958 916C963 908 965 891 965 873C962 820 962 772 964 728C965 688 957 690 944 728C933 757 924 776 912 803C894 839 848 801 836 786C716 641 729 465 751 312C761 236 780 196 802 177C812 167 811 157 797 144C780 130 756 114 738 106C724 99 718 101 706 107C675 121 439 158 305 176C291 178 298 221 312 218Z"/>
<defs>
	<clipPath id="z132648c1"><use href="#z132648d1"/></clipPath>
	<clipPath id="z132648c2"><use href="#z132648d2"/></clipPath>
<marker id="guide-arrow" viewBox="0 0 16 16" refX="5" refY="5" markerWidth="4" markerHeight="4" orient="auto-start-reverse"><path d="M 0 0 L 10 5 L 0 10 z" fill="inherit"/></marker></defs>
<path style="--d:1s;" pathLength="3333" clip-path="url(#z132648c1)" d="M229 163L281 210L265 565L187 748L62 879"/>
<path style="--d:2s;" pathLength="3333" clip-path="url(#z132648c2)" d="M299 191L728 141L757 178L725 289L712 508L752 709L822 821L903 867L934 863L959 709"/>
<g class="guides"><circle style="--d: 1s" class="g1" cx="229" cy="163" r="16"/><path style="--d: 1s;" class="g1" d="M133,163 Q162.20547945205482,203.69832402234636 157.7123287671233,357.3994413407821 Q153.21917808219177,511.1005586592179 131.31506849315068,590.3324022346369 Q109.41095890410958,669.5642458100558 74.30821917808218,726.2821229050279 Q74.30821917808218,726.2821229050279 39.20547945205479,783"/><circle style="--d: 2s" class="g2" cx="299" cy="191" r="16"/><path style="--d: 2s;" class="g2" d="M299,287 Q650,250.22314049586777 661.8636363636364,263.8305785123967 Q673.7272727272727,277.43801652892563 660.6363636363636,318.26033057851237 Q647.5454545454545,359.08264462809916 642.2272727272727,439.62396694214874 Q636.9090909090909,520.1652892561983 653.2727272727273,594.0867768595041 Q669.6363636363636,668.0082644628098 698.2727272727273,709.1983471074379 Q726.9090909090909,750.3884297520661 760.0454545454545,767.3057851239669 Q793.1818181818182,784.2231404958677 805.8636363636364,782.7520661157025 Q818.5454545454545,781.2809917355372 828.7727272727273,724.6446280991736 Q828.7727272727273,724.6446280991736 839,668.0082644628098"/></g></svg>