<!--
  Stroke-order data for 𢎨, derived from AnimCJK (https://github.com/parsimonhi/animCJK),
  itself derived from the Arphic PL KaitiM fonts. Distributed under the Arphic Public License
  (see ARPHICPL.TXT). Regenerated by scripts/build-strokes.ts — do not edit by hand.
-->
<svg id="z140200" class="acjk" viewBox="0 0 1024 1024" xmlns="http://www.w3.org/2000/svg">
<g class="glyph"><path id="z140200d1" d="M691 275C713 213 739 173 766 152C779 140 779 125 768 113C757 101 731 89 695 72C682 66 667 65 652 72C551 111 436 140 306 154C293 155 287 159 289 168C290 174 299 178 314 184C334 191 357 191 385 183C404 177 426 174 448 170C477 164 477 164 491 161C596 138 655 125 667 136C674 143 675 155 672 169C663 205 653 237 643 267C637 282 685 290 691 275Z"/><path id="z140200d2" d="M521 342C573 331 634 320 704 311C711 309 716 306 717 299C717 294 708 286 691 275C677 267 659 264 643 267C602 275 558 290 523 300C488 309 488 309 470 314C407 330 348 341 294 352C281 354 294 389 307 389C329 392 341 377 470 352C504 345 504 345 521 342Z"/><path id="z140200d3" d="M518 526C667 497 755 487 782 491C791 492 798 496 803 505C807 515 795 571 766 675C763 685 756 690 745 688C724 683 702 678 679 672C658 666 653 673 669 691C703 730 725 757 732 776C735 786 744 790 756 790C766 789 778 787 789 777C815 750 829 722 836 696C843 666 847 633 857 601C866 567 881 544 895 530C907 515 910 502 901 493C882 473 858 457 832 441C820 433 808 431 793 436C758 446 706 458 636 470C593 477 554 483 518 491C484 498 484 498 467 501C413 511 368 521 334 531C312 536 294 537 283 537C276 536 274 530 276 519C285 442 296 399 307 389C316 380 304 360 294 352C283 343 270 335 255 327C246 322 238 322 231 328C224 332 226 340 233 354C242 372 243 396 238 424C225 484 211 525 197 548C188 560 190 572 197 585C206 603 214 615 224 621C230 624 243 620 261 607C295 579 348 558 424 544C487 532 487 532 518 526Z"/><path id="z140200d4" d="M463 581C456 714 441 795 435 829C428 865 443 910 463 942C485 976 498 975 509 952C520 926 521 900 521 876C516 751 518 634 518 526C518 503 518 503 518 491C518 444 518 394 521 342C522 314 522 314 523 300C524 261 527 231 532 211C534 200 532 194 527 189C513 177 502 167 491 161C478 153 443 156 448 170C470 226 470 280 470 314C470 339 470 339 470 352C470 396 469 445 467 501C464 554 464 554 463 581Z"/><path id="z140200d5" d="M424 544C355 670 233 802 131 867C118 874 116 883 129 882C276 857 433 658 463 581C482 535 446 499 424 544Z"/></g>
<defs><clipPath id="z140200c1"><use href="#z140200d1"/></clipPath>
	<clipPath id="z140200c2"><use href="#z140200d2"/></clipPath>
	<clipPath id="z140200c3"><use href="#z140200d3"/></clipPath>
	<clipPath id="z140200c4"><use href="#z140200d4"/></clipPath>
	<clipPath id="z140200c5"><use href="#z140200d5"/></clipPath><marker id="guide-arrow" viewBox="0 0 16 16" refX="5" refY="5" markerWidth="4" markerHeight="4" orient="auto-start-reverse"><path d="M 0 0 L 10 5 L 0 10 z" fill="inherit"/></marker></defs>
<g class="strokes"><path pathLength="3333" clip-path="url(#z140200c1)" d="M296 164L353 169L677 102L724 142L657 279"/><path pathLength="3333" clip-path="url(#z140200c2)" d="M295 361L649 292L712 298"/><path pathLength="3333" clip-path="url(#z140200c3)" d="M233 332L275 383L236 552L250 578L766 466L804 463L844 491L853 522L776 729L746 738L667 678"/><path pathLength="3333" clip-path="url(#z140200c4)" d="M456 167L498 212L476 852L490 964"/><path pathLength="3333" clip-path="url(#z140200c5)" d="M451 528L402 632L306 749L127 875"/></g>
<g class="guides"><text class="g1" style="--gs:1" x="296" y="164">①</text><path class="g1 aligned" style="--gs:1" d="M296,164 Q353,169 515,135.5 Q677,102 700.5,122 Q724,142 690.5,210.5 Q690.5,210.5 657,279"/><path class="g1 offset" style="--gs:1" d="M296,260 Q337.02,231.5 453.6,214.75 Q570.18,198 587.09,218 Q604,238 579.89,262.25 Q579.89,262.25 555.79,286.5"/><text class="g2" style="--gs:2" x="295" y="361">②</text><path class="g2 aligned" style="--gs:2" d="M295,361 Q649,292 656.88,292.75 Q704.13,297.25 712,298"/><path class="g2 offset" style="--gs:2" d="M295,457 Q649,388 656.88,388.75 Q704.13,393.25 712,394"/><text class="g3" style="--gs:3" x="233" y="332">③</text><path class="g3 aligned" style="--gs:3" d="M233,332 Q275,383 255.5,467.5 Q236,552 243,565 Q250,578 508,522 Q766,466 785,464.5 Q804,463 824,477 Q844,491 848.5,506.5 Q853,522 814.5,625.5 Q776,729 761,733.5 Q746,738 706.5,708 Q706.5,708 667,678"/><path class="g3 offset" style="--gs:3" d="M164.46,400.54 Q240.94,451.54 205.43,536.04 Q169.92,620.54 182.67,633.54 Q195.41,646.54 665.26,590.54 Q1135.11,534.54 1169.71,533.04 Q1204.31,531.54 1240.73,545.54 Q1277.15,559.54 1285.35,575.04 Q1293.54,590.54 1223.43,694.04 Q1153.32,797.54 1126,802.04 Q1098.69,806.54 1026.75,776.54 Q1026.75,776.54 954.82,746.54"/><text class="g4" style="--gs:4" x="456" y="167">④</text><path class="g4 aligned" style="--gs:4" d="M456,167 Q498,212 492.5,372 Q476,852 479.5,880 Q486.5,936 490,964"/><path class="g4 offset" style="--gs:4" d="M541.68,98.46 Q583.68,143.46 578.18,303.46 Q561.68,783.46 565.18,811.46 Q572.18,867.46 575.68,895.46"/><text class="g5" style="--gs:5" x="451" y="528">⑤</text><path class="g5 aligned" style="--gs:5" d="M451,528 Q402,632 378,661.25 Q306,749 261.25,780.5 Q171.75,843.5 127,875"/><path class="g5 offset" style="--gs:5" d="M355,528 Q324.15,603.23 309.04,624.39 Q263.7,687.86 235.53,710.64 Q179.18,756.21 151,779"/></g>
</svg>
