<svg id="z154327" class="acjk" viewBox="0 0 1024 1024" xmlns="http://www.w3.org/2000/svg">
<style>

@keyframes zk {
	to {
		stroke-dashoffset:0;
	}
}
svg.acjk path[clip-path] {
	--t:0.8s;
	animation:zk var(--t) linear forwards var(--d);
	stroke-dasharray:3337;
	stroke-dashoffset:3339;
	stroke-width:128;
	stroke-linecap:round;
	fill:none;
	stroke:#000;
}
svg.acjk path[id] {fill:#ccc;}


    @keyframes guide-fade {
        0% { opacity: 0; }
        3% { opacity: 1; }
        95% { opacity: 1; }
        100% { opacity: 0; }
    }

    svg.acjk #guide-arrow {
        fill: #f77;
    }

    svg.acjk .guides {
        circle {
            fill: #0f6;
        }

        path {
            opacity: 0;
            animation: guide-fade var(--t) linear forwards var(--d);
            stroke-width: 16px;
            stroke-linecap: round;
            stroke: #f77;
            fill: none;
            marker-end: url(#guide-arrow);
        }

        circle,
        path {
            --t: 0.8s;
            opacity: 0;
            animation: guide-fade calc(var(--t) + 0.4s) ease-in-out forwards calc(var(--d) - 0.2s);
        }
    }
</style>
<path id="z154327d1" d="M311 481C326 453 341 427 357 404C363 394 363 383 350 374C318 349 292 341 274 345C265 347 264 352 266 363C279 439 220 555 166 621C159 629 135 656 116 680C108 689 112 694 123 691C136 688 153 679 171 663C225 615 267 562 297 508C306 490 306 490 311 481Z"/>
<path id="z154327d2" d="M297 508C328 520 360 521 394 512C422 504 451 499 482 492C494 490 519 482 510 466C505 458 492 451 471 448C449 444 429 449 407 457C380 467 348 473 311 481C301 483 288 504 297 508Z"/>
<path id="z154327d3" d="M316 635C345 671 366 696 386 704C394 708 404 705 410 696C416 688 418 678 416 667C414 650 406 638 395 628C386 621 365 611 330 596C319 592 311 593 306 594C301 596 300 599 301 608C302 616 307 624 316 635Z"/>
<path id="z154327d4" d="M617 469C629 445 643 404 670 351C676 340 673 330 661 322C627 302 600 296 582 302C573 304 573 310 576 321C594 382 578 462 523 551C499 590 478 612 472 626C467 638 470 641 481 636C494 631 508 622 524 607C557 572 584 536 603 497C612 478 612 478 617 469Z"/>
<path id="z154327d5" d="M603 497C638 512 674 514 714 505C749 496 787 488 826 481C840 478 872 469 860 451C854 442 840 433 817 430C779 426 711 453 687 457C666 461 642 464 617 469C607 471 593 493 603 497Z"/>
<path id="z154327d6" d="M645 622C664 636 683 654 705 673C715 682 727 685 738 684C744 683 751 678 754 668C758 657 755 640 747 620C739 598 702 583 637 571C626 568 618 568 613 571C608 573 607 579 610 589C612 595 625 606 645 622Z"/>
<defs>
	<clipPath id="z154327c1"><use href="#z154327d1"/></clipPath>
	<clipPath id="z154327c2"><use href="#z154327d2"/></clipPath>
	<clipPath id="z154327c3"><use href="#z154327d3"/></clipPath>
	<clipPath id="z154327c4"><use href="#z154327d4"/></clipPath>
	<clipPath id="z154327c5"><use href="#z154327d5"/></clipPath>
	<clipPath id="z154327c6"><use href="#z154327d6"/></clipPath>
<marker id="guide-arrow" viewBox="0 0 16 16" refX="5" refY="5" markerWidth="4" markerHeight="4" orient="auto-start-reverse"><path d="M 0 0 L 10 5 L 0 10 z" fill="inherit"/></marker></defs>
<path style="--d:1s;" pathLength="3333" clip-path="url(#z154327c1)" d="M272 349L312 408L221 581L119 686"/>
<path style="--d:2s;" pathLength="3333" clip-path="url(#z154327c2)" d="M298 500L507 473"/>
<path style="--d:3s;" pathLength="3333" clip-path="url(#z154327c3)" d="M308 603L410 693"/>
<path style="--d:4s;" pathLength="3333" clip-path="url(#z154327c4)" d="M582 311L627 347L614 401L566 519L479 631"/>
<path style="--d:5s;" pathLength="3333" clip-path="url(#z154327c5)" d="M607 492L856 458"/>
<path style="--d:6s;" pathLength="3333" clip-path="url(#z154327c6)" d="M614 577L708 628L741 678"/>
<g class="guides"><circle style="--d: 1s" class="g1" cx="272" cy="349" r="16"/><path style="--d: 1s;" class="g1" d="M176,349 Q196.10362694300517,391.19287833827894 184.66968911917098,422.1224035608309 Q150.3678756476684,514.9109792284867 137.55181347150258,533.683234421365 Q111.91968911917098,571.2277448071217 99.10362694300517,590"/><circle style="--d: 2s" class="g2" cx="298" cy="500" r="16"/><path style="--d: 2s;" class="g2" d="M298,596 L507,569"/><circle style="--d: 3s" class="g3" cx="308" cy="603" r="16"/><path style="--d: 3s;" class="g3" d="M393.68,534.456 L495.68,624.456"/><circle style="--d: 4s" class="g4" cx="582" cy="311" r="16"/><path style="--d: 4s;" class="g4" d="M486,311 Q508.5,336.2 505.25,355.1 Q502,374 490,415.3 Q478,456.6 456.25,495.8 Q456.25,495.8 434.5,535"/><circle style="--d: 5s" class="g5" cx="607" cy="492" r="16"/><path style="--d: 5s;" class="g5" d="M607,588 L856,554"/><circle style="--d: 6s" class="g6" cx="614" cy="577" r="16"/><path style="--d: 6s;" class="g6" d="M699.68,508.456 Q793.68,559.456 797.805,565.706 Q822.555,603.206 826.68,609.456"/></g></svg>