<!--
  Stroke-order data for 𨥫, derived from AnimCJK (https://github.com/parsimonhi/animCJK),
  itself derived from the Arphic PL KaitiM fonts. Distributed under the Arphic Public License
  (see ARPHICPL.TXT). Regenerated by scripts/build-strokes.ts — do not edit by hand.
-->
<svg id="z166251" class="acjk" viewBox="0 0 1024 1024" xmlns="http://www.w3.org/2000/svg">
<g class="glyph"><path style="--part:1" id="z166251d1" d="M248 193C322 153 364 128 376 121C400 104 424 90 447 82C456 78 463 75 464 70C465 63 461 56 453 52C438 44 416 39 388 34C377 31 368 30 361 34C356 36 355 41 356 49C357 67 317 111 233 180C228 184 242 196 248 193Z"/><path style="--part:1" id="z166251d2" d="M386 260C385 260 384 260 384 261C361 275 337 290 313 307C296 318 285 326 278 323C270 319 267 308 264 293C255 248 251 220 251 208C251 202 250 197 248 193C246 187 239 183 233 180C214 169 199 164 188 166C179 166 174 168 172 172C167 178 171 182 178 191C212 236 233 292 219 352C213 376 211 387 219 400C229 418 239 431 252 437C258 440 264 434 272 422C301 375 343 327 395 275C399 271 391 257 386 260Z"/><path style="--part:1" id="z166251d3" d="M395 275C407 295 418 306 429 308C435 309 441 305 445 299C449 291 451 278 450 261C448 243 424 223 379 202C370 197 363 195 360 197C356 198 354 203 354 211C353 222 365 224 386 260C392 270 392 270 395 275Z"/><path style="--part:1" id="z166251d4" d="M623 127C679 114 729 106 773 103C785 102 793 103 796 108C800 114 799 126 795 143C783 188 772 221 759 240C742 262 724 268 704 263C695 260 686 261 679 259C662 253 660 257 672 275C687 298 696 319 704 336C709 349 719 351 732 346C767 331 805 289 834 214C851 169 863 137 881 123C889 115 893 107 890 100C885 91 866 77 833 58C820 50 806 50 792 58C776 66 738 73 681 83C622 92 568 98 520 98C508 98 501 101 499 107C497 111 504 118 519 128C536 139 550 144 564 140C570 138 578 136 587 135C611 130 611 130 623 127Z"/><path style="--part:1" id="z166251d5" d="M587 135C593 179 547 232 451 327C431 346 446 349 470 338C512 318 551 292 618 214C620 211 627 200 644 181C649 174 648 166 645 159C638 143 631 133 623 127C614 118 587 123 587 135Z"/><path style="--part:2" id="z166251d6" d="M524 427C536 413 545 415 543 403C542 398 538 392 531 386C511 370 487 357 465 359C460 360 453 368 455 377C453 452 297 603 107 719C101 722 101 728 108 728C270 687 395 567 510 443C519 432 519 432 524 427Z"/><path style="--part:2" id="z166251d7" d="M510 443C578 506 655 584 729 646C739 655 777 660 796 659C861 655 904 647 925 643C943 639 944 629 922 624C833 601 747 570 715 552C671 528 601 480 524 427C518 423 504 439 510 443Z"/><path style="--part:2" id="z166251d8" d="M508 633C552 625 585 618 604 614C612 612 647 608 631 590C621 579 603 572 590 574C573 575 551 582 500 592C462 599 422 607 367 612C347 614 338 625 363 634C390 645 409 650 465 640C494 635 494 635 508 633Z"/><path style="--part:2" id="z166251d9" d="M523 744C567 737 599 729 619 726C638 723 665 719 647 701C641 695 631 689 617 686C602 683 572 691 524 700C493 707 493 707 478 710C450 715 384 723 342 727C322 729 315 740 337 750C386 773 433 757 478 751C508 746 508 746 523 744Z"/><path style="--part:2" id="z166251d10" d="M516 879C517 828 522 783 523 742C524 714 524 714 524 700C525 643 548 655 508 633C496 626 456 629 465 640C474 648 478 668 478 710C478 736 478 736 478 749C478 781 477 825 477 884C477 897 516 892 516 879Z"/><path style="--part:2" id="z166251d11" d="M322 828C334 837 345 847 359 862C365 867 373 871 384 872C388 872 398 869 402 863C405 856 405 844 402 832C398 816 371 804 326 794C316 791 311 791 307 792C303 793 298 796 299 804C300 808 308 817 322 828Z"/><path style="--part:2" id="z166251d12" d="M619 778C606 789 582 809 547 839C539 845 546 850 556 848C567 844 598 831 650 809C661 803 674 798 687 795C699 791 698 784 695 778C688 768 678 762 666 755C653 748 645 745 639 746C631 746 629 747 631 755C631 760 626 770 619 778Z"/><path style="--part:2" id="z166251d13" d="M477 884C393 894 326 898 242 906C229 907 214 917 236 934C252 947 279 955 298 951C427 925 578 904 747 919C772 922 791 903 764 885C732 863 706 852 683 856C640 863 585 871 516 879C490 882 490 882 477 884Z"/></g>
<defs><clipPath id="z166251c1"><use href="#z166251d1"/></clipPath>
	<clipPath id="z166251c2"><use href="#z166251d2"/></clipPath>
	<clipPath id="z166251c3"><use href="#z166251d3"/></clipPath>
	<clipPath id="z166251c4"><use href="#z166251d4"/></clipPath>
	<clipPath id="z166251c5"><use href="#z166251d5"/></clipPath>
	<clipPath id="z166251c6"><use href="#z166251d6"/></clipPath>
	<clipPath id="z166251c7"><use href="#z166251d7"/></clipPath>
	<clipPath id="z166251c8"><use href="#z166251d8"/></clipPath>
	<clipPath id="z166251c9"><use href="#z166251d9"/></clipPath>
	<clipPath id="z166251c10"><use href="#z166251d10"/></clipPath>
	<clipPath id="z166251c11"><use href="#z166251d11"/></clipPath>
	<clipPath id="z166251c12"><use href="#z166251d12"/></clipPath>
	<clipPath id="z166251c13"><use href="#z166251d13"/></clipPath><marker id="guide-arrow" viewBox="0 0 16 16" refX="5" refY="5" markerWidth="4" markerHeight="4" orient="auto-start-reverse"><path d="M 0 0 L 10 5 L 0 10 z" fill="inherit"/></marker></defs>
<g class="strokes"><path style="--part:1" pathLength="3333" clip-path="url(#z166251c1)" d="M363 39L411 83L237 182"/><path style="--part:1" pathLength="3333" clip-path="url(#z166251c2)" d="M175 175L223 208L265 384L389 268"/><path style="--part:1" pathLength="3333" clip-path="url(#z166251c3)" d="M362 200L435 302"/><path style="--part:1" pathLength="3333" clip-path="url(#z166251c4)" d="M507 110L560 119L793 79L830 93L844 113L771 272L720 306L671 264"/><path style="--part:1" pathLength="3333" clip-path="url(#z166251c5)" d="M594 131L613 171L601 193L451 338"/><path style="--part:2" pathLength="3333" clip-path="url(#z166251c6)" d="M464 364L495 407L407 512L285 621L112 721"/><path style="--part:2" pathLength="3333" clip-path="url(#z166251c7)" d="M517 436L753 613L931 633"/><path style="--part:2" pathLength="3333" clip-path="url(#z166251c8)" d="M354 620L630 592"/><path style="--part:2" pathLength="3333" clip-path="url(#z166251c9)" d="M330 736L645 708"/><path style="--part:2" pathLength="3333" clip-path="url(#z166251c10)" d="M472 636L504 662L497 888"/><path style="--part:2" pathLength="3333" clip-path="url(#z166251c11)" d="M305 802L399 861"/><path style="--part:2" pathLength="3333" clip-path="url(#z166251c12)" d="M638 749L654 786L550 842"/><path style="--part:2" pathLength="3333" clip-path="url(#z166251c13)" d="M231 919L681 885L772 900"/></g>
<g class="guides"><text class="g1" style="--gs:1" x="363" y="39">①</text><path class="g1 aligned" style="--gs:1" d="M363,39 Q411,83 389.25,95.38 Q258.75,169.63 237,182"/><path class="g1 offset" style="--gs:1" d="M267,39 Q291,61 280.13,67.19 Q214.88,104.31 204,110.5"/><text class="g2" style="--gs:2" x="175" y="175">②</text><path class="g2 aligned" style="--gs:2" d="M175,175 Q223,208 233.5,252 Q265,384 296,355 Q358,297 389,268"/><path class="g2 offset" style="--gs:2" d="M260.68,106.46 Q308.68,127.54 319.18,155.66 Q350.68,240 381.68,221.47 Q443.68,184.41 474.68,165.88"/><text class="g3" style="--gs:3" x="362" y="200">③</text><path class="g3 aligned" style="--gs:3" d="M362,200 L435,302"/><path class="g3 offset" style="--gs:3" d="M447.68,131.46 L520.68,233.46"/><text class="g4" style="--gs:4" x="507" y="110">④</text><path class="g4 aligned" style="--gs:4" d="M507,110 Q560,119 676.5,99 Q793,79 811.5,86 Q830,93 837,103 Q844,113 807.5,192.5 Q771,272 745.5,289 Q720,306 695.5,285 Q695.5,285 671,264"/><path class="g4 offset" style="--gs:4" d="M507,206 Q544.9,195 628.22,185 Q711.53,175 724.76,182 Q737.99,189 742.99,190.5 Q748,192 721.9,231.75 Q695.8,271.5 677.56,280 Q659.32,288.5 641.8,278 Q641.8,278 624.28,267.5"/><text class="g5" style="--gs:5" x="594" y="131">⑤</text><path class="g5 aligned" style="--gs:5" d="M594,131 Q613,171 610,176.5 Q601,193 563.5,229.25 Q488.5,301.75 451,338"/><path class="g5 offset" style="--gs:5" d="M498,131 Q507.5,152.45 506,155.4 Q501.5,164.25 482.75,183.68 Q445.25,222.56 426.5,242"/><text class="g6" style="--gs:6" x="464" y="364">⑥</text><path class="g6 aligned" style="--gs:6" d="M464,364 Q495,407 451,459.5 Q407,512 346,566.5 Q285,621 198.5,671 Q198.5,671 112,721"/><path class="g6 offset" style="--gs:6" d="M368,364 Q391.23,395.44 358.26,433.82 Q325.29,472.2 279.58,512.05 Q233.87,551.89 169.05,588.45 Q169.05,588.45 104.23,625"/><text class="g7" style="--gs:7" x="517" y="436">⑦</text><path class="g7 aligned" style="--gs:7" d="M517,436 Q753,613 775.25,615.5 Q908.75,630.5 931,633"/><path class="g7 offset" style="--gs:7" d="M602.68,367.46 Q789.84,519.79 807.48,521.94 Q913.35,534.85 931,537"/><text class="g8" style="--gs:8" x="354" y="620">⑧</text><path class="g8 aligned" style="--gs:8" d="M354,620 L630,592"/><path class="g8 offset" style="--gs:8" d="M354,716 L630,688"/><text class="g9" style="--gs:9" x="330" y="736">⑨</text><path class="g9 aligned" style="--gs:9" d="M330,736 L645,708"/><path class="g9 offset" style="--gs:9" d="M330,832 L645,804"/><text class="g10" style="--gs:10" x="472" y="636">⑩</text><path class="g10 aligned" style="--gs:10" d="M488,649 L497,888"/><path class="g10 offset" style="--gs:10" d="M608,649 L617,888"/><text class="g11" style="--gs:11" x="305" y="802">⑪</text><path class="g11 aligned" style="--gs:11" d="M305,802 L399,861"/><path class="g11 offset" style="--gs:11" d="M390.68,733.46 L484.68,792.46"/><text class="g12" style="--gs:12" x="638" y="749">⑫</text><path class="g12 aligned" style="--gs:12" d="M646,768 L550,842"/><path class="g12 offset" style="--gs:12" d="M731.68,836.54 L635.68,910.54"/><text class="g13" style="--gs:13" x="231" y="919">⑬</text><path class="g13 aligned" style="--gs:13" d="M231,919 Q681,885 692.38,886.88 Q760.63,898.13 772,900"/><path class="g13 offset" style="--gs:13" d="M231,1015 Q681,981 692.38,982.88 Q760.63,994.13 772,996"/></g>
<g class="parts"><rect data-part="2" data-literal="金" data-radical="true" role="button" tabindex="0" aria-label="Part 金 (radical)" x="40" y="292" width="963" height="699"/><rect data-part="1" data-literal="卯" role="button" tabindex="0" aria-label="Part 卯" x="103" y="0" width="813" height="456"/></g>
</svg>
