<!--
  Stroke-order data for 𮥶, derived from AnimCJK (https://github.com/parsimonhi/animCJK),
  itself derived from the Arphic PL KaitiM fonts. Distributed under the Arphic Public License
  (see ARPHICPL.TXT). Regenerated by scripts/build-strokes.ts — do not edit by hand.
-->
<svg id="z190838" class="acjk" viewBox="0 0 1024 1024" xmlns="http://www.w3.org/2000/svg">
<g class="glyph"><path id="z190838d1" d="M411 197C443 153 461 119 474 104C505 69 462 58 435 45C419 36 392 32 395 56C405 127 340 220 257 298C213 338 224 348 274 319C324 289 373 247 396 216C406 203 406 203 411 197Z"/><path id="z190838d2" d="M396 216C447 246 465 235 592 210C687 191 752 178 759 173C765 168 767 162 763 156C759 148 746 141 726 137C708 133 663 142 596 162C535 180 470 190 411 197C403 198 389 212 396 216Z"/><path id="z190838d3" d="M174 379C152 382 149 391 165 400C191 413 214 428 254 416C346 390 728 312 818 308C870 306 900 286 832 260C768 236 799 286 174 379Z"/><path id="z190838d4" d="M367 514C454 443 535 316 562 285C592 248 564 241 512 225C501 222 491 225 487 236C494 318 374 488 137 627C89 655 90 670 148 647C216 618 278 579 332 542C355 523 355 523 367 514Z"/><path id="z190838d5" d="M394 837C393 812 393 751 399 607C402 558 427 572 367 514C356 503 326 528 332 542C342 565 346 601 344 683C340 808 322 860 320 888C317 910 327 935 346 958C357 972 362 979 375 957C386 937 389 919 395 866C395 856 394 846 394 837Z"/><path id="z190838d6" d="M571 400C605 425 628 436 641 434C648 432 654 427 654 416C654 409 648 401 640 392C626 377 602 373 569 378C564 378 562 382 563 388C563 392 566 396 571 400Z"/><path id="z190838d7" d="M588 512C696 495 751 481 754 480C759 476 760 470 758 466C754 458 743 452 728 448C710 443 694 445 676 451C644 460 611 468 577 475C538 482 494 487 451 491C430 492 425 501 441 510C471 528 506 524 542 519C573 514 573 514 588 512Z"/><path id="z190838d8" d="M601 815C601 787 602 760 603 735C604 710 604 710 604 698C604 671 606 646 606 623C606 597 606 597 606 584C606 553 611 534 606 526C601 518 593 515 588 512C575 504 534 506 542 519C548 529 554 553 556 594C557 618 557 618 557 630C557 650 558 675 558 706C558 730 558 730 558 742C558 764 558 790 559 819C559 833 601 829 601 815Z"/><path id="z190838d9" d="M606 623C684 611 710 611 726 599C743 584 720 573 701 569C680 564 657 573 606 584C573 591 573 591 556 594C527 599 494 602 462 605C442 606 437 613 453 623C469 634 507 637 557 630C590 625 590 625 606 623Z"/><path id="z190838d10" d="M603 735C691 721 721 718 737 711C757 701 735 683 714 680C692 676 666 687 604 698C573 703 573 703 558 706C523 712 485 714 447 717C426 718 422 725 437 735C455 748 500 750 558 742C588 737 588 737 603 735Z"/><path id="z190838d11" d="M559 819C506 824 452 829 394 837C384 839 387 860 395 866C406 875 421 881 440 879C561 867 729 838 836 854C872 859 878 844 852 821C819 791 780 786 740 794C702 801 656 809 601 815C573 818 573 818 559 819Z"/></g>
<defs><clipPath id="z190838c1"><use href="#z190838d1"/></clipPath>
	<clipPath id="z190838c2"><use href="#z190838d2"/></clipPath>
	<clipPath id="z190838c3"><use href="#z190838d3"/></clipPath>
	<clipPath id="z190838c4"><use href="#z190838d4"/></clipPath>
	<clipPath id="z190838c5"><use href="#z190838d5"/></clipPath>
	<clipPath id="z190838c6"><use href="#z190838d6"/></clipPath>
	<clipPath id="z190838c7"><use href="#z190838d7"/></clipPath>
	<clipPath id="z190838c8"><use href="#z190838d8"/></clipPath>
	<clipPath id="z190838c9"><use href="#z190838d9"/></clipPath>
	<clipPath id="z190838c10"><use href="#z190838d10"/></clipPath>
	<clipPath id="z190838c11"><use href="#z190838d11"/></clipPath><marker id="guide-arrow" viewBox="0 0 16 16" refX="5" refY="5" markerWidth="4" markerHeight="4" orient="auto-start-reverse"><path d="M 0 0 L 10 5 L 0 10 z" fill="inherit"/></marker></defs>
<g class="strokes"><path pathLength="3333" clip-path="url(#z190838c1)" d="M402 46L439 86L397 168L236 329"/><path pathLength="3333" clip-path="url(#z190838c2)" d="M404 210L760 159"/><path pathLength="3333" clip-path="url(#z190838c3)" d="M162 387L234 395L761 288L863 286"/><path pathLength="3333" clip-path="url(#z190838c4)" d="M494 234L526 275L390 461L256 570L111 652"/><path pathLength="3333" clip-path="url(#z190838c5)" d="M351 517L373 569L357 964"/><path pathLength="3333" clip-path="url(#z190838c6)" d="M570 386L649 417"/><path pathLength="3333" clip-path="url(#z190838c7)" d="M442 500L754 470"/><path pathLength="3333" clip-path="url(#z190838c8)" d="M549 516L580 548L577 825"/><path pathLength="3333" clip-path="url(#z190838c9)" d="M453 614L727 590"/><path pathLength="3333" clip-path="url(#z190838c10)" d="M435 724L740 696"/><path pathLength="3333" clip-path="url(#z190838c11)" d="M394 847L755 820L863 840"/></g>
<g class="guides"><text class="g1" style="--gs:1" x="402" y="46">①</text><path class="g1 aligned" style="--gs:1" d="M402,46 Q439,86 428.5,106.5 Q397,168 356.75,208.25 Q276.25,288.75 236,329"/><path class="g1 offset" style="--gs:1" d="M306,46 Q325.5,72.43 319.97,85.98 Q303.36,126.61 282.15,153.21 Q239.72,206.4 218.5,233"/><text class="g2" style="--gs:2" x="404" y="210">②</text><path class="g2 aligned" style="--gs:2" d="M404,210 L760,159"/><path class="g2 offset" style="--gs:2" d="M404,306 L760,255"/><text class="g3" style="--gs:3" x="162" y="387">③</text><path class="g3 aligned" style="--gs:3" d="M162,387 Q234,395 365.75,368.25 Q761,288 786.5,287.5 Q837.5,286.5 863,286"/><path class="g3 offset" style="--gs:3" d="M162,483 Q234,491 365.75,464.25 Q761,384 786.5,383.5 Q837.5,382.5 863,382"/><text class="g4" style="--gs:4" x="494" y="234">④</text><path class="g4 aligned" style="--gs:4" d="M494,234 Q526,275 458,368 Q390,461 323,515.5 Q256,570 183.5,611 Q183.5,611 111,652"/><path class="g4 offset" style="--gs:4" d="M398,234 Q422.6,265.58 370.33,337.22 Q318.06,408.87 266.56,450.85 Q215.06,492.83 159.33,524.42 Q159.33,524.42 103.6,556"/><text class="g5" style="--gs:5" x="351" y="517">⑤</text><path class="g5 aligned" style="--gs:5" d="M351,517 Q373,569 371,618.38 Q359,914.63 357,964"/><path class="g5 offset" style="--gs:5" d="M471,517 Q493,569 491,618.38 Q479,914.63 477,964"/><text class="g6" style="--gs:6" x="570" y="386">⑥</text><path class="g6 aligned" style="--gs:6" d="M570,386 L649,417"/><path class="g6 offset" style="--gs:6" d="M570,482 L649,513"/><text class="g7" style="--gs:7" x="442" y="500">⑦</text><path class="g7 aligned" style="--gs:7" d="M442,500 L754,470"/><path class="g7 offset" style="--gs:7" d="M442,596 L754,566"/><text class="g8" style="--gs:8" x="549" y="516">⑧</text><path class="g8 aligned" style="--gs:8" d="M549,516 Q580,548 579.63,582.63 Q577.38,790.38 577,825"/><path class="g8 offset" style="--gs:8" d="M453,516 Q484,548 483.63,582.63 Q481.38,790.38 481,825"/><text class="g9" style="--gs:9" x="453" y="614">⑨</text><path class="g9 aligned" style="--gs:9" d="M453,614 L727,590"/><path class="g9 offset" style="--gs:9" d="M453,710 L727,686"/><text class="g10" style="--gs:10" x="435" y="724">⑩</text><path class="g10 aligned" style="--gs:10" d="M435,724 L740,696"/><path class="g10 offset" style="--gs:10" d="M435,820 L740,792"/><text class="g11" style="--gs:11" x="394" y="847">⑪</text><path class="g11 aligned" style="--gs:11" d="M394,847 Q755,820 768.5,822.5 Q849.5,837.5 863,840"/><path class="g11 offset" style="--gs:11" d="M394,943 Q755,916 768.5,918.5 Q849.5,933.5 863,936"/></g>
</svg>
